<?xml version="1.0" encoding="UTF-8" standalone="no"?>
<!-- Created with Inkscape (http://www.inkscape.org/) -->

<svg
   xmlns:dc="http://purl.org/dc/elements/1.1/"
   xmlns:cc="http://creativecommons.org/ns#"
   xmlns:rdf="http://www.w3.org/1999/02/22-rdf-syntax-ns#"
   xmlns:svg="http://www.w3.org/2000/svg"
   xmlns="http://www.w3.org/2000/svg"
   xmlns:sodipodi="http://sodipodi.sourceforge.net/DTD/sodipodi-0.dtd"
   xmlns:inkscape="http://www.inkscape.org/namespaces/inkscape"
   width="296.75729"
   height="65.868759"
   viewBox="0 0 78.517035 17.427775"
   version="1.1"
   id="svg38148"
   inkscape:version="0.92.0 r15299"
   sodipodi:docname="create tv.svg">
  <defs
     id="defs38142">
    <clipPath
       id="clipPath37320"
       clipPathUnits="userSpaceOnUse">
      <path
         inkscape:connector-curvature="0"
         id="path37318"
         d="M 351.2,673.261 H 596 V 784.659 H 351.2 Z" />
    </clipPath>
    <clipPath
       id="clipPath37306"
       clipPathUnits="userSpaceOnUse">
      <path
         inkscape:connector-curvature="0"
         id="path37304"
         d="M 351.2,673.261 H 596 V 784.659 H 351.2 Z" />
    </clipPath>
  </defs>
  <sodipodi:namedview
     id="base"
     pagecolor="#ffffff"
     bordercolor="#666666"
     borderopacity="1.0"
     inkscape:pageopacity="0.0"
     inkscape:pageshadow="2"
     inkscape:zoom="2.3522727"
     inkscape:cx="139.57427"
     inkscape:cy="-5.2459553"
     inkscape:document-units="mm"
     inkscape:current-layer="layer1"
     showgrid="false"
     fit-margin-top="0"
     fit-margin-left="0"
     fit-margin-right="0"
     fit-margin-bottom="0"
     units="px"
     inkscape:window-width="1280"
     inkscape:window-height="744"
     inkscape:window-x="-4"
     inkscape:window-y="-4"
     inkscape:window-maximized="1" />
  <metadata
     id="metadata38145">
    <rdf:RDF>
      <cc:Work
         rdf:about="">
        <dc:format>image/svg+xml</dc:format>
        <dc:type
           rdf:resource="http://purl.org/dc/dcmitype/StillImage" />
        <dc:title></dc:title>
      </cc:Work>
    </rdf:RDF>
  </metadata>
  <g
     inkscape:label="Layer 1"
     inkscape:groupmode="layer"
     id="layer1"
     transform="translate(23.260015,-141.36423)">
    <g
       id="g38489">
      <path
         inkscape:connector-curvature="0"
         id="path37338"
         style="fill:#e37c1e;fill-opacity:1;fill-rule:nonzero;stroke:none;stroke-width:0.21898119"
         d="m -9.3242805,145.06741 c -1.4039425,-1.46278 -3.3639095,-2.23574 -5.6686395,-2.23574 -0.09341,0 -0.187692,0.001 -0.2833,0.004 l -0.01057,4.4e-4 c -4.295759,0.23422 -7.893181,3.8733 -7.701304,7.78928 0.03128,1.29668 0.527828,3.2784 2.712276,5.36416 1.504176,1.43622 3.190537,2.30953 4.194203,2.53787 l 0.280215,-0.70831 c -1.960408,-1.10536 -3.324697,-2.41358 -4.054976,-3.88855 -0.650091,-1.31367 -0.717502,-2.57596 -0.703843,-3.52894 l 4.4e-4,-0.0107 -4.4e-4,-0.0107 c -0.112792,-2.7292 1.894539,-5.80647 5.334451,-6.02241 0.08349,-0.002 0.166103,-0.004 0.247832,-0.004 2.369937,0 4.151686,1.03788 5.0159043,2.9225 0.9157679,1.99478 0.5917135,4.64236 -0.7498853,6.15476 -0.707368,0.77688 -1.655519,1.20462 -2.669318,1.20462 -1.704646,0 -3.211906,-1.15934 -3.664172,-2.81933 l -0.0051,-0.0174 c -0.318988,-0.98041 -0.275369,-2.46887 0.423848,-3.41641 0.526065,-0.71267 1.340277,-1.01763 2.40166,-0.89878 1.399536,0.23835 1.808404,1.39203 1.72359,2.39399 -0.08944,1.05724 -0.749445,2.15084 -1.698257,2.15084 -0.122263,0 -0.249154,-0.0183 -0.376925,-0.0544 l -0.263253,0.72138 c 0.465484,0.20265 0.964233,0.30975 1.441833,0.30975 1.307893,0 2.724833,-0.83435 2.778144,-3.18502 0,-1.84262 -1.453728,-3.80104 -4.14816,-3.80104 -0.03657,0 -0.07314,4.4e-4 -0.104861,0.001 -1.891456,0.0139 -4.0433,1.41119 -4.49799,4.05768 -0.472974,2.89551 2.002705,5.4521 4.518477,5.93556 0.384195,0.0751 0.78315,0.11319 1.18541,0.11319 h 4.4e-4 c 2.992932,-2.2e-4 6.1949251,-2.14889 6.3722629,-5.74292 0.079086,-1.46517 -0.4126132,-3.63125 -2.0300214,-5.31649" />
      <g
         transform="translate(0.2645833,-0.26457774)"
         id="g38477">
        <text
           transform="scale(1.0060089,0.99402704)"
           style="font-variant:normal;font-weight:bold;font-stretch:normal;font-size:1.75184524px;font-family:'MVKTDA +Arial-BoldMT';-inkscape-font-specification:Arial-BoldMT;writing-mode:lr-tb;fill:#231f20;fill-opacity:1;fill-rule:nonzero;stroke:none;stroke-width:0.35067064"
           id="text37332"
           x="52.891193"
           y="147.11176">
          <tspan
             x="52.891193"
             y="147.11176"
             id="tspan37330"
             style="fill:#231f20;fill-opacity:1;stroke-width:0.35067064">®</tspan>
        </text>
        <path
           d="m 1.2374616,147.47643 c -0.039653,-0.70527 -0.85276318,-1.13626 -1.60617318,-1.13626 -1.98265792,0 -2.39879572,1.72398 -2.39879572,3.33042 0,1.54745 0.3764847,3.46735 2.29988312,3.46735 0.87258977,0 1.70508578,-0.6465 1.70508578,-1.4889 h 2.0421376 c 0,2.0764 -2.0421376,3.1737 -3.88622972,3.1737 -2.93389308,0 -4.20279408,-2.48802 -4.20279408,-5.13277 0,-2.62495 1.4865528,-5.03439 4.38123329,-5.03439 1.84431241,0 3.41039181,0.90096 3.70779051,2.82085 z"
           style="fill:#231f20;fill-opacity:1;fill-rule:nonzero;stroke:none;stroke-width:0.21898119"
           id="path37344"
           inkscape:connector-curvature="0" />
        <path
           d="m 20.767589,148.45586 c -0.01983,-1.31258 -1.011156,-2.1158 -2.319489,-2.1158 -1.249075,0 -2.419063,0.80322 -2.498149,2.1158 z m -4.817638,1.6848 c -0.09935,1.78276 1.070415,2.99717 2.89468,2.99717 0.594798,0 1.348208,-0.0588 1.5663,-0.68568 h 2.022311 c -0.09957,1.86112 -2.14105,2.37048 -3.687964,2.37048 -3.152426,0 -4.837906,-1.95885 -4.837906,-5.01501 0,-2.91902 1.447561,-5.15215 4.58016,-5.15215 3.112994,0 4.322195,2.01785 4.322195,4.87788 v 0.60731 z"
           style="fill:#231f20;fill-opacity:1;fill-rule:nonzero;stroke:none;stroke-width:0.21898119"
           id="path37350"
           inkscape:connector-curvature="0" />
        <path
           d="m 29.315202,150.00351 c -1.110509,0 -2.280057,0.41141 -2.280057,1.70439 0,1.01851 0.733584,1.58664 1.724913,1.58664 1.804218,0 2.676368,-1.35155 2.676368,-2.95799 v -0.33304 z m 2.121224,3.70243 c -0.773237,0.72486 -1.823825,1.11667 -2.874634,1.11667 -1.923178,0 -3.568564,-1.0383 -3.568564,-3.03656 0,-2.54658 2.418402,-3.31062 4.599546,-3.31062 h 1.843652 v -0.35263 c 0,-1.11667 -0.158393,-1.93927 -1.843652,-1.93927 -1.050809,0 -2.121224,0.15651 -2.121224,1.11668 h -2.042578 c 0.139007,-2.17458 2.240404,-2.64475 4.06489,-2.64475 2.874413,0 3.984481,0.99912 3.984481,3.87874 v 6.1121 h -2.041917 z"
           style="fill:#231f20;fill-opacity:1;fill-rule:nonzero;stroke:none;stroke-width:0.21898119"
           id="path37356"
           inkscape:connector-curvature="0" />
        <path
           d="m 39.416095,144.65547 h 3.547195 v 1.68459 h -3.547195 v 4.91727 c 0,0.92077 0.158392,1.8805 1.32772,1.8805 0.693269,0 1.664331,-0.35264 2.219475,-0.76404 v 1.86112 c -0.63423,0.37222 -1.506379,0.58772 -2.259349,0.58772 -2.397914,0 -3.329102,-1.56726 -3.329102,-3.76121 v -4.72136 h -2.041037 v -1.68459 h 2.041037 v -2.23334 l 2.041256,-0.52874 z"
           style="fill:#231f20;fill-opacity:1;fill-rule:nonzero;stroke:none;stroke-width:0.21898119"
           id="path37362"
           inkscape:connector-curvature="0" />
        <path
           d="m 51.318056,148.45586 c -0.01983,-1.31258 -1.011596,-2.1158 -2.320811,-2.1158 -1.249515,0 -2.419944,0.80322 -2.49903,2.1158 z m -4.819841,1.6848 c -0.09935,1.78276 1.070855,2.99717 2.895782,2.99717 0.595458,0 1.348868,-0.0588 1.56696,-0.68568 h 2.022972 c -0.09891,1.86112 -2.141711,2.37048 -3.689065,2.37048 -3.153748,0 -4.839888,-1.95885 -4.839888,-5.01501 0,-2.91902 1.448221,-5.15215 4.582142,-5.15215 3.114315,0 4.323737,2.01785 4.323737,4.87788 v 0.60731 z"
           style="fill:#231f20;fill-opacity:1;fill-rule:nonzero;stroke:none;stroke-width:0.21898119"
           id="path37368"
           inkscape:connector-curvature="0" />
        <path
           d="m 7.4960737,145.90924 h 0.039653 c 0.6148442,-0.80322 1.5268668,-1.25381 2.5776753,-1.25381 1.744739,0 3.01364,1.23422 3.01364,2.97758 v 0.39181 h -2.042137 v -0.29364 c 0,-0.76426 -0.376926,-1.56726 -1.2490749,-1.56726 -1.9430047,0 -2.3397566,1.91967 -2.3397566,3.40857 v 5.07378 H 5.4539361 v -9.81452 h 2.0421376 z"
           style="fill:#231f20;fill-opacity:1;fill-rule:nonzero;stroke:none;stroke-width:0.21898119"
           id="path37416"
           inkscape:connector-curvature="0" />
      </g>
    </g>
  </g>
</svg>
