<?xml version="1.0" encoding="UTF-8" standalone="no"?>
<svg xmlns:rdf="http://www.w3.org/1999/02/22-rdf-syntax-ns#" xmlns="http://www.w3.org/2000/svg" xml:space="preserve" height="158.17" viewBox="0 0 194.10298 158.16748" width="194.1" version="1.1" xmlns:cc="http://creativecommons.org/ns#" xmlns:dc="http://purl.org/dc/elements/1.1/"><g transform="matrix(1.25 0 0 -1.25 -286.65 574.97)"><path d="m231.21 458.72v-1.3879h0.63047c2.3 0 2.7754-0.992 2.7754-5.7113v-0.91133l-0.0402-0.91563v-9.1586c-0.0369-3.1348-0.0367-2.7-0.0367-3.8898v-2.5762c0-0.4359-0.16133-0.66445-1.0738-0.66445h-1.4293v-1.2356h7.7v1.2356h-1.3512c-1.8239 0-1.8666 0.18503-2.0234 2.4883-0.11833 1.3869-0.19648 4.1622-0.19648 6.427v5.1188c0.0374 4.8773 0.0371 4.477 0.11796 5.7488l9.0906-19.865h1.1996l8.9477 20.616v-19.708c0-0.3027-0.16338-0.82617-1.0742-0.82617h-1.3895v-1.2356h9.8332v1.2356h-0.92657c-1.8618 0-1.8232 0.0671-1.984 3.6797-0.0369 0.9912-0.0793 3.7705-0.0793 5.2355v12.493 1.3469c0 0.1629-0.1076 1.0726 1.0344 1.0726h1.3476v1.3879h-6.4863c-0.35719-0.7105-0.55778-1.1486-1.0316-2.2637-0.6753-1.6632-0.63422-1.5437-1.7074-3.9625l-2.5379-5.9891-0.3164-0.71484-0.31368-0.71329-0.32109-0.75468s-0.43563-1.0687-0.98984-2.3367c-0.51679-1.2708-0.59495-1.4326-0.9125-2.1816l-8.884 18.916h-7.5715zm52.201-3.382c-4.9032 0-8.4309-2.7903-8.4309-6.6824 0-2.8536 1.6777-4.8029 5.2391-6.1133l1.7785-0.63477c3.0936-1.1464 4.3352-2.4213 4.3352-4.434 0-2.5862-2.2176-4.4367-5.3078-4.4367-2.6175 0-4.9692 1.2093-5.5074 2.7883-0.202 0.57293-0.30105 0.70547-0.64062 0.70547-0.33408 0-0.5043-0.16779-0.5043-0.50351 0-0.235 0.00008-0.16552 0.13711-0.97344l0.47031-2.4543c1.8822-0.6687 3.893-1.0059 5.8445-1.0059 5.1024 0 8.8316 3.0588 8.8316 7.2894 0 3.191-1.7115 5.1394-5.8777 6.6848l-1.7809 0.67188c-2.8531 1.0374-3.8285 2.0462-3.8285 3.8938 0 2.1464 1.9821 3.7629 4.6359 3.7629 2.1178 0 3.8282-0.87635 4.0312-2.048 0.0991-0.4381 0.23535-0.57617 0.5375-0.57617 0.29993 0 0.43674 0.17164 0.47031 0.57617v0.3375l-0.13554 2.482c-1.1409 0.43645-2.6521 0.67031-4.2977 0.67031zm16.725 0c-4.9042 0-8.4309-2.7903-8.4309-6.6824 0-2.8536 1.6813-4.8029 5.2383-6.1133l1.7793-0.63477c3.0919-1.1464 4.334-2.4213 4.334-4.434 0-2.5862-2.2142-4.4367-5.3039-4.4367-2.6214 0-4.9739 1.2093-5.5094 2.7883-0.20417 0.57293-0.30231 0.70547-0.64023 0.70547-0.33573 0-0.50078-0.16779-0.50078-0.50351 0-0.235-0.00007-0.16552 0.13203-0.97344l0.4707-2.4543c1.8806-0.6687 3.8968-1.0059 5.8445-1.0059 5.1051 0 8.8328 3.0588 8.8328 7.2894 0 3.191-1.7137 5.1394-5.8777 6.6848l-1.782 0.67188c-2.8536 1.0374-3.827 2.0462-3.827 3.8938 0 2.1464 1.9843 3.7629 4.6359 3.7629 2.1156 0 3.826-0.87635 4.0297-2.048 0.0996-0.4381 0.23606-0.57617 0.53711-0.57617 0.30325 0 0.43534 0.17164 0.46836 0.57617v0.3375l-0.1332 2.482c-1.1414 0.43645-2.6515 0.67031-4.2977 0.67031zm19.948 0c-7.054 0-12.123-5.1682-12.123-12.392 0-6.9186 4.4359-11.352 11.385-11.352 6.9505 0 12.025 5.1417 12.025 12.259 0 7.0562-4.3668 11.486-11.286 11.486zm-56.566-0.67031v-1.1781h0.74727c1.6489 0 1.6489-0.00015 1.7133-3.5918 0.0352-1.1767 0.0684-3.1216 0.0684-3.8293v-10.007-0.87461-1.1777c0-0.29388-0.13266-0.56758-0.90703-0.56758h-1.1734v-1.1727h9.098v1.1727h-1.209c-1.6434 0-1.6436 0.00029-1.7102 3.5941-0.0363 1.1398-0.0672 3.0192-0.0672 3.8277v10.58 1.1418c0 0.1354-0.008 0.90391 0.90312 0.90391h1.2109v1.1781h-8.6742zm67.414 0v-1.1781h0.97109c1.6472 0 1.6472-0.00015 1.7121-3.5918 0.0336-1.1095 0.068-2.9894 0.068-3.8293v-5.1379c0-4.0936 0.43546-5.6416 1.9809-7.0863 1.5102-1.4106 4.0337-2.2508 6.7855-2.2508 2.9884 0 5.6747 0.97586 7.3203 2.6902 1.6428 1.7094 2.1805 3.6246 2.1805 7.6879v9.4723 1.1418c0 0.1354-0.0738 0.90391 0.90859 0.90391h1.2844c1.6467 0 1.6469-0.00015 1.7141-3.5918 0.0308-1.1095 0.0656-3.0902 0.0656-3.8293v-11.316c0-0.9125 0.0566-1.3106-0.90547-1.3106h-1.1758v-1.1727h8.9688v1.1727h-1.143c-1.5773 0-1.5775 0.00029-1.6469 3.5941-0.0341 1.1073-0.0688 2.9884-0.0688 3.8277v1.5418c0.50687-0.0314 0.8417-0.0625 1.1758-0.0625h0.97383l0.90703-1.4793 0.47226-0.90703 0.46914-0.9039 0.50508-0.94219c0.43808-0.80905 1.1399-1.9856 2.1141-3.427 0.70502-1.038 1.3118-1.814 1.6465-2.1145 0.26857-0.23555 0.50312-0.3 1.343-0.3h12.494v1.1727h-0.85313c-1.645 0-1.645 0.00029-1.7121 3.5941-0.0347 1.1398-0.0672 3.0192-0.0672 3.8277v10.58 1.1418c0 0.1354 0.0583 0.34471 0.0242 0.41406 0 0 0.11011 0.48985 0.88281 0.48985h1.2086v1.1781h-9.1375v-1.1781h1.2102c1.6445 0 1.6446-0.00015 1.7117-3.5918 0.0347-1.1767 0.0691-3.1216 0.0691-3.8293v-10.881-1.1777c0-0.2449-0.13645-0.56758-0.9086-0.56758h-0.88984c-1.0099 0-1.679 0.60565-3.427 2.9562-1.0776 1.4414-0.97426 1.3054-2.9176 4.2625l-1.6516 2.4875c3.0584 0.47002 4.9726 2.5195 4.9726 5.3406 0 1.912-0.8401 3.5933-2.352 4.6984-1.4106 1.0792-2.9877 1.4805-5.641 1.4805h-15.056v-1.1781h1.2094c1.6472 0 1.6471-0.00015 1.7164-3.5918 0.0302-1.1095 0.0629-3.0902 0.0629-3.8293v-3.4953c0-4.0594-0.23382-5.337-1.2734-6.8137-1.0732-1.5795-3.1567-2.5211-5.5441-2.5211-2.3836 0-4.2634 1.0077-5.1379 2.6891-0.67035 1.3385-0.84102 2.6881-0.84102 6.3469v9.1695 1.1418c0 0.1354-0.0742 0.90391 0.90821 0.90391h1.1766v1.1781h-8.8637zm-11.92-0.60547c4.869 0 8.2606-4.9035 8.2606-11.955 0-5.7094-2.6192-9.2379-6.8531-9.2379-4.9378 0-8.3957 4.8686-8.3957 11.857 0 5.8762 2.5849 9.3356 6.9883 9.3356zm41.948-0.77305c1.4139 0 2.0486-0.10207 2.8207-0.5 1.7138-0.87782 2.7883-2.7207 2.7883-4.7719 0-2.7529-1.9793-4.3992-5.3723-4.3992-0.3726 0-0.3038 0.00006-1.2449 0.0309v9.0375c-0.033 0.1029 0.10343 0.60273 1.0082 0.60273zm-95.205-30.437c-19.951 0-33.501-10.309-33.501-25.647 0-11.167 6.1448-19.55 20.704-24.827l7.5832-3.0793c11.19-4.5708 13.193-7.2546 13.193-13.882 0-8.9566-7.7598-12.576-18.174-12.576-9.289 0-17.161 5.1519-19.794 11.412-1 2.6984-2.0824 3.319-3.4242 3.0086-1.229-0.27958-2.0232-1.2275-1.8449-2.5203 0.11833-0.8503 2.6367-16.227 2.6367-16.227 8.7777-2.8239 15.309-3.9273 23.462-3.9273 13.43 0 24.262 4.9724 30.119 13.008-3.8861 3.7309-6.091 8.7566-6.091 14.672 0 6.0826 2.2317 11.136 6.1883 14.593-0.71657 0.9945-1.5025 1.9241-2.3605 2.7617-3.3869 3.4342-9.713 6.2943-15.89 8.9531-6.1822 2.6593-11.696 4.5731-16.482 8.5082-2.0457 1.678-2.7644 3.7146-2.7644 6.5352 0 6.9962 5.961 10.823 15.243 10.823 6.9907 0 13.84-3.0506 16.66-6.65 2.3076-2.9483 3.0532-5.4875 5.2387-5.4875 1.4942 0 2.0512 1.2244 2.0512 2.8188l-1.5324 15.275c-5.6483 1.7188-14.569 2.4562-21.22 2.4562zm46.414-1.493s-2.7082-16.173-2.7082-16.796c0-1.1233 0.87264-1.8707 2.1203-1.8707 1.3731 0 1.3258 0.81921 3.1184 3.2402 3.5372 4.7694 7.3742 6.7406 17.351 6.7406l4.2527 0.0539-0.41016-29.133c6.3341-1.6015 11.158-5.4099 13.204-11.15 0.77768-2.1794 0.84392-4.1448 0.74102-5.3242-0.17558-1.9928-0.75435-3.1068-1.4137-3.8102-0.7727-0.82223-1.7688-1.2102-3.1254-0.69453-1.0792 0.41387-6.1189 3.8134-9.4305 4.6637 0.003-7.6946 0.009-15.87 0.009-16.637 0-2.0848-0.10121-8.3087-6.1172-8.848l-1.482-0.15351s-2.252-0.11415-2.252-2.4812c0-2.4398 2.252-2.5086 2.252-2.5086h36.256s2.2516 0.0688 2.2516 2.5086c0 2.3671-2.2516 2.4812-2.2516 2.4812l-1.4832 0.15351c-6.3891 0.19978-6.1148 7.5805-6.1148 7.5805l-0.61757 63.352 4.4445-0.0539c9.9758 0 13.813-1.9712 17.351-6.7406 1.7914-2.421 1.7456-3.2402 3.1176-3.2402 1.2482 0 2.1219 0.7474 2.1219 1.8707 0 0.62355-2.7098 16.796-2.7098 16.796h-68.476zm-5.4613-23.555c-7.9114 0-13.57-4.7864-13.57-12.452 0-2.3864 0.66984-4.574 1.7441-6.7738l0.0238-0.009c0.35938-0.79307 0.72362-1.4772 1.0891-1.9637-7.0639-1.8514-10.759-7.3236-10.759-14.339 0-10.314 8.2827-17.15 21.889-17.15 5.5498 0 10.24 1.4208 13.886 3.1809 0.56578-0.32418 2.3627-2.6606 5.7766-2.6606 4.6384 0 4.3281 4.3518 4.3281 5.3727v21.114c0.0545 0.39848 0.29777 0.86044 1.0336 0.87969 4.6698-0.63785 8.866-2.3963 12.147-4.9379 0 0 0.42267-0.41879 0.9125-0.11719 0.27187 0.16897 0.42621 0.45679 0.28476 1.0484-1.5883 5.8151-7.9863 10.848-16.818 10.848-6.8668 0-12.094-3.2516-14.841-7.141-0.0952 0.11392-0.2053 0.24831-0.30547 0.36719-1.7149 2.1569-6.5605 8.207-7.8285 9.8086-0.0286 0.0413-0.0685 0.0962-0.0949 0.1375l-0.0133-0.002c-0.10127 0.1277-0.17837 0.22603-0.20312 0.26015-3.1998 4.2878-0.74894 8.7815 3.1047 9.3164 2.1299 0.29552 4.0958-0.58721 5.1723-1.2746 0.9202-0.58503 2.0752-1.1106 2.9629 0 1.0055 1.2587-0.33794 2.8811-1.5141 3.7875-0.76225 0.58945-3.6014 2.6992-8.4066 2.6992zm17.74-24.81c0.3836-0.0606 0.89688-0.2969 0.89688-1.1312v-0.0914c-0.003-0.0242-0.005-0.057-0.005-0.057l0.005 0.007v-11.404c-2.9747 2.6533-6.3203 6.3468-9.5102 9.9863 0.007 0.007 0.021 0.0138 0.0348 0.0188l-0.005 0.004c2.5619 1.3297 5.4698 2.24 8.5832 2.6676zm-26.032-0.33828c7.1057-9.6016 11.34-14.237 18.741-20.503-1.0842-0.4656-3.666-1.3672-6.277-1.3672-8.3247 0-14.14 6.3614-14.14 15.471 0 2.7017 0.84641 4.9174 1.6758 6.3984z" fill="#007a33"/></g></svg>
