<?xml version="1.0" encoding="UTF-8" standalone="no"?>
<!-- Created with Inkscape (http://www.inkscape.org/) -->

<svg
   xmlns:dc="http://purl.org/dc/elements/1.1/"
   xmlns:cc="http://creativecommons.org/ns#"
   xmlns:rdf="http://www.w3.org/1999/02/22-rdf-syntax-ns#"
   xmlns:svg="http://www.w3.org/2000/svg"
   xmlns="http://www.w3.org/2000/svg"
   xmlns:sodipodi="http://sodipodi.sourceforge.net/DTD/sodipodi-0.dtd"
   xmlns:inkscape="http://www.inkscape.org/namespaces/inkscape"
   width="135.46666mm"
   height="15.765577mm"
   viewBox="0 0 135.46666 15.765577"
   version="1.1"
   id="svg268"
   inkscape:version="0.92.1 r15371"
   sodipodi:docname="nursing.svg">
  <defs
     id="defs262">
    <clipPath
       clipPathUnits="userSpaceOnUse"
       id="clipPath84">
      <path
         d="M 0,0 H 531 V 792 H 0 Z"
         id="path82"
         inkscape:connector-curvature="0" />
    </clipPath>
  </defs>
  <sodipodi:namedview
     id="base"
     pagecolor="#ffffff"
     bordercolor="#666666"
     borderopacity="1.0"
     inkscape:pageopacity="0.0"
     inkscape:pageshadow="2"
     inkscape:zoom="1.4"
     inkscape:cx="152.20145"
     inkscape:cy="26.91619"
     inkscape:document-units="mm"
     inkscape:current-layer="layer1"
     showgrid="false"
     fit-margin-top="0"
     fit-margin-left="0"
     fit-margin-right="0"
     fit-margin-bottom="0"
     inkscape:window-width="1600"
     inkscape:window-height="838"
     inkscape:window-x="-8"
     inkscape:window-y="-8"
     inkscape:window-maximized="1" />
  <metadata
     id="metadata265">
    <rdf:RDF>
      <cc:Work
         rdf:about="">
        <dc:format>image/svg+xml</dc:format>
        <dc:type
           rdf:resource="http://purl.org/dc/dcmitype/StillImage" />
        <dc:title></dc:title>
      </cc:Work>
    </rdf:RDF>
  </metadata>
  <g
     inkscape:label="Layer 1"
     inkscape:groupmode="layer"
     id="layer1"
     transform="translate(-19.957143,-128.09936)">
    <g
       transform="matrix(0.76426933,0,0,-0.76426933,2.6232887,716.75511)"
       id="g78">
      <g
         id="g80"
         clip-path="url(#clipPath84)">
        <g
           id="g86"
           transform="translate(22.7283,757.7524)">
          <path
             d="m 0,0 c -0.076,0.578 -0.039,1.42 -0.039,1.83 l 0.871,9.88 H 4.069 L 3.18,1.742 c -0.19,-2.16 0.655,-3.699 2.81,-3.699 2.203,0 3.365,1.566 3.558,3.479 l 0.919,10.188 h 3.234 L 12.808,1.654 C 12.444,-2.221 9.876,-5.124 5.721,-5.124 2.483,-5.124 0.395,-3.027 0,0"
             style="fill:#4682c4;fill-opacity:1;fill-rule:nonzero;stroke:none"
             id="path88"
             inkscape:connector-curvature="0" />
        </g>
        <g
           id="g90"
           transform="translate(37.7432,761.0969)">
          <path
             d="m 0,0 c 0.422,4.747 3.623,8.68 9.153,8.68 1.455,0 2.852,-0.332 4.249,-1.228 L 13.031,3.531 c -1.275,1.678 -2.789,1.95 -4.188,1.95 -3.44,0 -5.327,-2.389 -5.596,-5.416 -0.262,-2.945 1.259,-5.339 4.591,-5.339 1.454,0 2.996,0.421 4.614,2.037 L 12.093,-7.262 C 10.521,-8.115 9.058,-8.505 7.582,-8.505 2.112,-8.505 -0.395,-4.439 0,0"
             style="fill:#4682c4;fill-opacity:1;fill-rule:nonzero;stroke:none"
             id="path92"
             inkscape:connector-curvature="0" />
        </g>
        <g
           id="g94"
           transform="translate(53.7263,769.462)">
          <path
             d="M 0,0 H 3.228 L 2.05,-13.42 h 4.625 c 0.324,0 1.426,0.017 1.728,0.036 -0.019,-0.165 -0.298,-3.1 -0.298,-3.1 h -9.568 z"
             style="fill:#4682c4;fill-opacity:1;fill-rule:nonzero;stroke:none"
             id="path96"
             inkscape:connector-curvature="0" />
        </g>
        <g
           id="g98"
           transform="translate(70.5398,763.3073)">
          <path
             d="M 0,0 C 0.105,0.237 0.201,0.525 0.237,0.694 0.238,0.695 0.291,0.695 0.291,0.695 0.306,0.488 0.344,0.24 0.412,-0.003 0.589,-0.752 1.848,-4.93 1.848,-4.93 l -4.077,0.003 c 0,0 2.183,4.822 2.229,4.927 M 0.827,6.913 0.604,6.911 -8.234,-10.33 h 3.432 l 1.239,2.614 h 6.224 l 0.778,-2.618 3.422,0.004 z"
             style="fill:#4682c4;fill-opacity:1;fill-rule:nonzero;stroke:none"
             id="path100"
             inkscape:connector-curvature="0" />
        </g>
        <g
           id="g102"
           transform="translate(84.7172,756.2401)">
          <path
             d="m 0,0 h 0.313 c 0.204,-1.662 1.035,-3.168 2.996,-3.168 2.085,0 2.524,1.49 2.524,2.274 0,1.584 -1.443,1.772 -2.619,2.211 -1.803,0.596 -2.885,1.145 -2.885,3.214 0,1.913 1.506,3.152 3.356,3.152 0.878,0 1.866,-0.298 2.524,-0.894 L 6.68,7.197 H 6.899 V 3.983 H 6.617 C 6.397,4.767 6.162,5.88 5.614,6.491 5.159,7.009 4.594,7.354 3.888,7.354 2.415,7.354 1.599,6.366 1.599,4.939 1.599,3.575 2.634,3.246 3.732,2.916 5.441,2.399 7.197,1.693 7.197,-0.408 c 0,-2.226 -1.724,-3.089 -3.731,-3.089 -0.957,0 -1.883,0.283 -2.682,0.8 L 0.188,-3.277 H 0 Z"
             style="fill:#231f20;fill-opacity:1;fill-rule:nonzero;stroke:none"
             id="path104"
             inkscape:connector-curvature="0" />
        </g>
        <g
           id="g106"
           transform="translate(99.2094,755.0167)">
          <path
             d="m 0,0 c -0.565,-1.332 -1.364,-2.226 -2.901,-2.226 -2.086,0 -3.136,1.787 -3.136,3.7 0,1.851 1.505,3.418 3.355,3.418 0.879,0 2.556,-0.517 2.556,-1.615 0,-0.376 -0.172,-0.643 -0.58,-0.643 -1.082,0 -0.219,1.961 -1.96,1.961 -1.552,0 -2.038,-1.741 -2.038,-2.996 0,-1.442 0.721,-3.01 2.352,-3.01 0.972,0 1.725,0.659 2.117,1.49 z"
             style="fill:#231f20;fill-opacity:1;fill-rule:nonzero;stroke:none"
             id="path108"
             inkscape:connector-curvature="0" />
        </g>
        <g
           id="g110"
           transform="translate(99.9987,752.963)">
          <path
             d="m 0,0 v 0.298 c 0.706,0.047 0.909,0.047 0.909,0.863 v 8.153 c 0,0.486 -0.391,0.627 -0.799,0.721 v 0.126 c 0.674,0.282 1.364,0.532 2.038,0.799 V 5.833 C 2.823,6.46 3.403,6.946 4.375,6.946 5.096,6.946 5.771,6.617 6.131,5.99 6.46,5.441 6.523,4.923 6.523,4.312 V 1.161 c 0,-0.816 0.204,-0.816 0.894,-0.863 V 0 H 4.438 V 0.298 C 5.08,0.345 5.284,0.345 5.284,1.161 v 3.151 c 0,0.502 0,0.721 -0.219,1.192 C 4.814,5.958 4.375,6.303 3.795,6.303 2.886,6.303 2.588,5.77 2.148,5.315 V 1.161 c 0,-0.816 0.204,-0.816 0.863,-0.863 V 0 Z"
             style="fill:#231f20;fill-opacity:1;fill-rule:nonzero;stroke:none"
             id="path112"
             inkscape:connector-curvature="0" />
        </g>
        <g
           id="g114"
           transform="translate(111.645,752.7905)">
          <path
             d="m 0,0 c -2.007,0 -3.324,1.583 -3.324,3.559 0,1.976 1.317,3.559 3.324,3.559 2.007,0 3.325,-1.583 3.325,-3.559 C 3.325,1.583 2.007,0 0,0 m 0,6.821 c -1.458,0 -1.991,-1.662 -1.991,-3.262 0,-1.599 0.533,-3.261 1.991,-3.261 1.459,0 1.992,1.662 1.992,3.261 0,1.6 -0.533,3.262 -1.992,3.262"
             style="fill:#231f20;fill-opacity:1;fill-rule:nonzero;stroke:none"
             id="path116"
             inkscape:connector-curvature="0" />
        </g>
        <g
           id="g118"
           transform="translate(119.4372,752.7905)">
          <path
             d="m 0,0 c -2.007,0 -3.324,1.583 -3.324,3.559 0,1.976 1.317,3.559 3.324,3.559 2.007,0 3.325,-1.583 3.325,-3.559 C 3.325,1.583 2.007,0 0,0 m 0,6.821 c -1.458,0 -1.991,-1.662 -1.991,-3.262 0,-1.599 0.533,-3.261 1.991,-3.261 1.459,0 1.992,1.662 1.992,3.261 0,1.6 -0.533,3.262 -1.992,3.262"
             style="fill:#231f20;fill-opacity:1;fill-rule:nonzero;stroke:none"
             id="path120"
             inkscape:connector-curvature="0" />
        </g>
        <g
           id="g122"
           transform="translate(125.8072,754.1235)">
          <path
             d="m 0,0 c 0,-0.816 0.204,-0.816 0.863,-0.862 v -0.299 h -3.011 v 0.299 c 0.706,0.046 0.909,0.046 0.909,0.862 v 7.667 c 0,0.392 0,0.769 -0.219,0.988 -0.141,0.125 -0.345,0.22 -0.674,0.235 V 9.078 C -1.395,9.266 -0.689,9.58 0,9.799 Z"
             style="fill:#231f20;fill-opacity:1;fill-rule:nonzero;stroke:none"
             id="path124"
             inkscape:connector-curvature="0" />
        </g>
        <g
           id="g126"
           transform="translate(135.1848,752.7905)">
          <path
             d="m 0,0 c -2.007,0 -3.324,1.583 -3.324,3.559 0,1.976 1.317,3.559 3.324,3.559 2.007,0 3.325,-1.583 3.325,-3.559 C 3.325,1.583 2.007,0 0,0 m 0,6.821 c -1.458,0 -1.991,-1.662 -1.991,-3.262 0,-1.599 0.533,-3.261 1.991,-3.261 1.459,0 1.992,1.662 1.992,3.261 0,1.6 -0.533,3.262 -1.992,3.262"
             style="fill:#231f20;fill-opacity:1;fill-rule:nonzero;stroke:none"
             id="path128"
             inkscape:connector-curvature="0" />
        </g>
        <g
           id="g130"
           transform="translate(139.4389,752.963)">
          <path
             d="M 0,0 V 0.298 C 0.815,0.345 1.019,0.345 1.019,1.161 V 5.99 H -0.11 l 0.157,0.674 h 0.972 v 0.627 c 0.094,3.261 1.992,3.669 2.822,3.669 0.69,0 1.709,-0.313 1.709,-1.16 0,-0.392 -0.251,-0.674 -0.658,-0.674 -0.816,0 -0.659,1.348 -1.662,1.348 -0.706,0 -0.972,-0.721 -0.972,-1.552 V 6.664 H 3.92 L 3.763,5.99 H 2.258 V 1.161 c 0,-0.816 0.203,-0.816 1.191,-0.863 V 0 Z"
             style="fill:#231f20;fill-opacity:1;fill-rule:nonzero;stroke:none"
             id="path132"
             inkscape:connector-curvature="0" />
        </g>
        <g
           id="g134"
           transform="translate(150.1488,762.0887)">
          <path
             d="m 0,0 v -7.918 c 0,-0.534 0.392,-0.847 1.443,-0.878 v -0.33 h -3.246 v 0.33 c 0.753,0.078 1.301,0.078 1.364,0.878 0,0 0,0.016 0.016,0.046 v 8.327 c -0.423,0.454 -0.8,0.893 -1.364,0.909 V 1.693 H 0.549 L 8.311,-6.821 V 0.36 c 0,0.8 -0.424,0.91 -1.38,1.004 v 0.329 h 3.23 V 1.364 C 9.079,1.192 8.734,0.894 8.734,0.376 V -9.251 H 8.498 Z"
             style="fill:#231f20;fill-opacity:1;fill-rule:nonzero;stroke:none"
             id="path136"
             inkscape:connector-curvature="0" />
        </g>
        <g
           id="g138"
           transform="translate(166.1797,752.7905)">
          <path
             d="M 0,0 V 1.098 C -0.596,0.423 -1.489,0 -2.399,0 -4.045,0 -4.406,0.8 -4.406,1.944 v 4.297 c 0,0.313 -0.188,0.391 -0.925,0.407 v 0.298 h 2.164 V 1.537 c 0,-0.8 0.69,-1.004 1.411,-1.004 1.176,0 1.756,0.831 1.772,1.928 v 3.78 c 0,0.313 -0.188,0.391 -0.91,0.407 V 6.946 H 1.255 V 1.599 c 0,-0.69 0.548,-0.69 0.831,-0.69 V 0.706 Z"
             style="fill:#231f20;fill-opacity:1;fill-rule:nonzero;stroke:none"
             id="path140"
             inkscape:connector-curvature="0" />
        </g>
        <g
           id="g142"
           transform="translate(169.3842,752.963)">
          <path
             d="m 0,0 v 0.298 c 0.674,0.047 0.879,0.047 0.879,0.863 v 3.967 c 0,0.611 -0.173,0.642 -0.722,0.909 v 0.156 c 0.659,0.22 1.285,0.549 1.929,0.8 V 5.864 c 0.391,0.455 0.893,1.192 1.568,1.192 0.454,0 0.83,-0.235 0.83,-0.721 0,-0.345 -0.266,-0.596 -0.595,-0.596 -0.251,0 -0.518,0.266 -0.925,0.266 -0.267,0 -0.847,-0.439 -0.847,-0.69 V 1.161 c 0,-0.816 0.204,-0.816 1.004,-0.863 L 3.121,0 Z"
             style="fill:#231f20;fill-opacity:1;fill-rule:nonzero;stroke:none"
             id="path144"
             inkscape:connector-curvature="0" />
        </g>
        <g
           id="g146"
           transform="translate(174.794,755.1423)">
          <path
             d="m 0,0 h 0.188 c 0.282,-0.925 0.596,-2.054 1.788,-2.054 0.91,0 1.364,0.517 1.364,1.411 0,0.957 -0.972,1.254 -1.678,1.663 -0.878,0.501 -1.646,0.877 -1.646,1.975 0,1.176 1.082,1.772 2.133,1.772 0.705,0 1.395,-0.251 2.053,-0.486 V 2.619 h -0.25 c -0.189,0.94 -0.816,1.85 -1.866,1.85 -0.659,0 -1.082,-0.471 -1.082,-1.113 0,-1.349 3.528,-1.302 3.528,-3.591 0,-1.427 -1.239,-2.117 -2.525,-2.117 -0.706,0 -1.38,0.141 -2.007,0.502 z"
             style="fill:#231f20;fill-opacity:1;fill-rule:nonzero;stroke:none"
             id="path148"
             inkscape:connector-curvature="0" />
        </g>
        <g
           id="g150"
           transform="translate(180.4395,752.963)">
          <path
             d="m 0,0 v 0.298 c 0.706,0.047 0.909,0.047 0.909,0.863 v 3.762 c 0,0.33 0,0.769 -0.282,0.957 C 0.424,5.99 0.283,6.005 0.063,6.037 v 0.156 c 0.674,0.283 1.38,0.565 2.085,0.832 V 1.161 c 0,-0.816 0.204,-0.816 0.863,-0.863 V 0 Z m 2.211,10.161 c 0,-0.408 -0.314,-0.816 -0.752,-0.816 -0.439,0 -0.816,0.376 -0.816,0.816 0,0.439 0.377,0.799 0.816,0.799 0.407,0 0.752,-0.408 0.752,-0.799"
             style="fill:#231f20;fill-opacity:1;fill-rule:nonzero;stroke:none"
             id="path152"
             inkscape:connector-curvature="0" />
        </g>
        <g
           id="g154"
           transform="translate(184.6406,752.963)">
          <path
             d="M 0,0 V 0.298 C 0.706,0.345 0.909,0.345 0.909,1.161 V 5.049 C 0.909,5.645 0.69,5.88 0.141,6.037 V 6.209 C 0.847,6.413 1.474,6.695 2.148,6.946 V 5.754 C 2.791,6.413 3.293,6.946 4.281,6.946 5.41,6.946 6.57,6.052 6.57,4.877 V 1.161 C 6.57,0.345 6.993,0.345 7.526,0.298 V 0 H 4.422 v 0.298 c 0.706,0.047 0.91,0.047 0.91,0.863 V 4.61 c 0,0.988 -0.55,1.646 -1.569,1.646 -0.674,0 -1.615,-0.658 -1.615,-1.379 V 1.161 c 0,-0.816 0.204,-0.816 0.879,-0.863 L 3.027,0 Z"
             style="fill:#231f20;fill-opacity:1;fill-rule:nonzero;stroke:none"
             id="path156"
             inkscape:connector-curvature="0" />
        </g>
        <g
           id="g158"
           transform="translate(197.9862,759.282)">
          <path
             d="m 0,0 c 0.345,0.188 0.863,0.549 1.27,0.549 0.361,0 0.611,-0.251 0.611,-0.612 0,-0.282 -0.187,-0.486 -0.485,-0.486 -0.439,0 -0.706,0.659 -1.192,0.298 0.345,-0.439 0.502,-0.768 0.502,-1.348 0,-1.537 -1.208,-2.368 -2.65,-2.368 -0.361,0 -0.737,0.094 -1.098,0.172 -0.361,-0.235 -0.752,-0.47 -0.752,-0.956 0,-1.051 1.489,-0.894 2.195,-0.925 1.301,-0.078 3.543,-0.11 3.543,-1.944 0,-1.929 -2.367,-2.07 -3.794,-2.07 -0.972,0 -3.246,0.094 -3.246,1.474 0,0.831 0.674,1.427 1.396,1.709 -0.486,0.298 -0.8,0.705 -0.8,1.301 0,0.847 0.471,1.207 1.16,1.568 -0.8,0.424 -1.128,1.113 -1.128,2.007 0,1.364 1.207,2.258 2.492,2.258 C -1.254,0.627 -0.596,0.392 0,0 m -1.505,-9.424 c 0.957,0 2.603,0.157 2.603,1.427 0,0.831 -0.69,1.113 -1.411,1.129 -1.02,0.016 -2.462,0.016 -3.09,0.22 -0.391,-0.157 -0.83,-0.816 -0.83,-1.302 0,-1.458 1.661,-1.474 2.728,-1.474 m -0.392,5.802 c 1.051,0 1.38,1.05 1.38,1.928 0,0.894 -0.298,1.992 -1.364,1.992 -1.067,0 -1.349,-1.145 -1.349,-2.023 0,-0.847 0.298,-1.897 1.333,-1.897"
             style="fill:#231f20;fill-opacity:1;fill-rule:nonzero;stroke:none"
             id="path160"
             inkscape:connector-curvature="0" />
        </g>
      </g>
    </g>
  </g>
</svg>
