<?xml version="1.0" encoding="utf-8"?>
<!-- Generator: Adobe Illustrator 22.0.1, SVG Export Plug-In . SVG Version: 6.00 Build 0)  -->
<svg version="1.1" id="Layer_1" xmlns="http://www.w3.org/2000/svg" xmlns:xlink="http://www.w3.org/1999/xlink" x="0px" y="0px"
	 width="247.39px" height="250px" viewBox="0 0 247.39 250" style="enable-background:new 0 0 247.39 250;" xml:space="preserve">
<g>
	<path style="fill:#9D2235;" d="M247.39,119.39V80.67l-30.03-27.19h-36.84l0.01-29.87L149.82,0H0v41.15l14.48-0.01l0.12,117.61H0
		v40.65h74.86l-0.11-40.65H60.15v-17.09h19.17v80.06L111.71,250h104.3l31.37-28.35v-38.21h-45.08l0.03,25.5h-76.43v-67.28h20.07
		l34.55-33.39v-14.4h21.78v25.51H247.39z M132.13,99.39h-6.32v-5.51h6.32V99.39z M132.13,53.57h-20.52l-32.3,33.69v12.12H60.06
		l-0.02-58.23l72.09-0.02V53.57z"/>
	<path style="fill:#B2B4B2;" d="M146.88,8.65l25.01,19.23l-0.01,29.21l0,5.04h5.04h37.12l24.71,22.38v26.23h-27.78V90.27v-5.04
		h-5.04h-29h-5.04v5.04v14.34l-29.4,28.41H122.3h-5.04v5.04v74.49v5.04h5.04h83.65H211l0-5.04l-0.02-20.46h27.77v25.73l-26.06,23.54
		h-97.74l-26.98-23.56v-79.73v-5.04h-5.04H56.55h-5.04v5.04v24.3v5.04h5.04h9.57l0.06,23.35H8.65l0-23.35h9.56h5.05l-0.01-5.04
		L23.12,37.53l0-5.04l-5.04,0l-9.43,0V8.65H146.88z M51.41,108.04h5.04h26.48h5.04V103V90.75l27.34-28.53h20.43h5.04v-5.04V37.54
		V32.5l-5.04,0l-79.3,0.02H51.4l0,5.04L51.41,103V108.04 M117.17,108.04h5.04h13.53h5.04V103V90.27v-5.04h-5.04h-13.53h-5.04v5.04
		V103V108.04 M148.59,3.61H3.61v33.94l14.47-0.01l0.13,124.83H3.61l0,33.44h67.63l-0.08-33.44h-14.6v-24.3h26.38v82.02l30.13,26.31
		h101.57l29.16-26.34v-33.01h-37.86l0.02,25.5H122.3v-74.49h22.22l32.4-31.31V90.27h29v25.51h37.86v-33.5l-27.81-25.18h-39.06
		l0.01-31.7L148.59,3.61z M56.45,103l-0.01-65.44l79.3-0.02v19.64h-22.58L82.93,88.72V103H56.45z M122.21,90.27h13.53V103h-13.53
		V90.27z"/>
	<path style="fill:#FFFFFF;" d="M241.21,113.21V83.42l-26.23-23.75h-40.64l0.01-33L147.72,6.18H6.18v28.79l14.47-0.01l0.13,129.97
		H6.18v28.29h62.47l-0.07-28.29H53.97v-29.45H85.5v83.43l28.54,24.91h99.61l27.57-24.92v-29.28h-32.7l0.02,25.5h-88.8v-79.64h23.75
		l30.87-29.83V87.7h34.15v25.51H241.21z M85.5,89.75v15.82H53.88l-0.02-70.59l84.45-0.02v24.79h-24.06L85.5,89.75z M138.31,105.57
		h-18.68V87.7h18.68V105.57z"/>
	<path style="fill:#0060A9;" d="M208.5,83.92h3.78c0,8.5,0,17.01,0,25.51h25.15V85.09l-23.9-21.65c-14.32,0-28.64,0-42.96,0
		c0-11.64,0.01-23.28,0.01-34.92L146.43,9.96H9.96v21.23c4.82,0,9.64-0.01,14.47-0.01c0.02,15.53,0.03,31.06,0.05,46.59
		c0.02,24.45,0.05,48.9,0.07,73.36c0.01,5.86,0.01,11.73,0.02,17.59c-4.87,0-9.74,0-14.61,0v20.73h54.9l-0.06-20.73
		c-4.87,0-9.75,0-14.62,0c0-12.34,0-24.67,0-37.01c13.03,0,26.06,0,39.09,0c0,24.87,0,49.73,0,74.6c0,3.63,0,7.26,0,10.89
		l26.17,22.85h96.73l25.24-22.81V193.4h-25.14c0.01,8.5,0.02,17,0.02,25.5c-27.86,0-55.71,0-83.57,0c-4.27,0-8.53,0-12.8,0
		c0-25.26,0-50.52,0-75.78c0-3.8,0-7.61,0-11.41c8.67,0,17.34,0,26,0l28.61-27.65c0-6.71,0-13.42,0-20.14
		C183.21,83.92,195.86,83.92,208.5,83.92z M142.09,87.7c0,7.22,0,14.44,0,21.66c-8.75,0-17.49,0-26.24,0c0-8.48,0-16.96,0-25.44
		c8.75,0,17.49,0,26.24,0V87.7z M142.09,34.96c0,9.52,0,19.05,0,28.57c-8.74,0-17.48,0-26.23,0L89.28,91.27c0,6.03,0,12.06,0,18.08
		c-13.06,0-26.12,0-39.18,0c0-22.58-0.01-45.16-0.01-67.74c0-3.47,0-6.94,0-10.4c26.65,0,53.3-0.01,79.95-0.02
		c4.02,0,8.04,0,12.06,0V34.96z"/>
</g>
</svg>
