<svg xmlns="http://www.w3.org/2000/svg" height="113.03" viewBox="0 0 152 113.02572" width="152"><g transform="matrix(1.25 0 0 -1.25 -483.73 790.9)"><path d="m426.12 631.94-36.682-71.511c-3.14-6.1434-1.0891-13.4 4.6003-16.209 3.9146-1.9277 8.5496-1.2321 12.066 1.375l17.232 15.13-10.005-1.9712c-0.2714-0.0691-0.55276-0.1028-0.84554-0.1028-1.8373 0-3.3282 1.4612-3.3282 3.2639 0 0.59378 0.16777 1.1442 0.45232 1.6294l18.26 35.376v-54.901h19.057v87.92h-20.807zm28.327 0v-87.918h19.052v72.056h12.346c1.8044 0 3.2639-1.435 3.2639-3.2048 0-0.60364-0.17189-1.1734-0.47289-1.6602l-10.437-17.98 24.77 16.417c3.0347 2.2666 4.9987 5.8488 4.9987 9.8869 0 6.849-5.6542 12.403-12.627 12.403h-40.894z" fill="#C3002F"/></g></svg>
