<!-- Created with Inkscape (http://www.inkscape.org/) -->
<svg xmlns:rdf="http://www.w3.org/1999/02/22-rdf-syntax-ns#" xmlns="http://www.w3.org/2000/svg" xml:space="preserve" height="200" width="200" version="1.1" xmlns:cc="http://creativecommons.org/ns#" xmlns:dc="http://purl.org/dc/elements/1.1/"><metadata><rdf:RDF><cc:Work rdf:about=""><dc:format>image/svg+xml</dc:format><dc:type rdf:resource="http://purl.org/dc/dcmitype/StillImage"/><dc:title/></cc:Work></rdf:RDF></metadata><defs><clipPath id="clipPath18" clipPathUnits="userSpaceOnUse"><path d="m0,1332.3,1332,0,0-1332-1332,0v1332z"/></clipPath></defs><g transform="matrix(1.25,0,0,-1.25,0,200)"><g transform="scale(0.12,0.12)"><g clip-path="url(#clipPath18)"><path fill-rule="nonzero" fill="#2a5197" d="m666,47.285c-341,0-618,277-618,619,0,341,277,618,618,618,342,0,619-277,619-618,0-342-277-619-619-619zm0,1285c-368,0-666-298-666-666.02,0-368,298-666.99,666-666.99s667,298.99,667,666.99-299,666-667,666"/></g><path fill-rule="nonzero" fill="#2a5197" d="m1136,1030.3c-108,140-279,230-470,230-189,0-366-91-469-231l939,1"/><path fill-rule="nonzero" fill="#2a5197" d="m164,900.28c0,33,11,65,39,84,27,18.005,60,19.005,89,6,5-2,12,1,17,4,3,1,6-1,7-5,3-17,14-30,14-48-1-3-6-4-9-2-21,13-33,38-58,37-48-2-54-58-47-97,6-37,45-56,78-43,7,3,13,11,22,8,2,0,6-3,4-6-19-32-60-38-93-28-38,12-63,50-63,90"/><path fill-rule="nonzero" fill="#2a5197" d="m369,836.28,0,59c3,15,22,15,24,0l1-59c-2-15-22-14-25,0zm66,47c-5,24-25,39-49,41-23,1-45-11-52-31-11-29-9-60,18-79,19-13,41-11,60,0,25,15,29,44,23,69"/><path fill-rule="nonzero" fill="#2a5197" d="m495,988.28,0-166c0-5,12-3,12-11,0-6-9-8-14-8h-38c-5,0-13,3-13,7,0,5,12,10,12,13v122c1,10-13,6-13,14,0,7,18,17,21,20,4,3,22,17,29,14,2-1,4-3,4-5"/><path fill-rule="nonzero" fill="#2a5197" d="m557,913.28,0-74c1-10,18-10,21,0v41c0,7-11,4-11,11s13,15,18,18,35,24,35,6v-92c0-7,7-8,7-13,1-5-4-8-7-8h-27c-4,0-9,9-15,9-5,0-11-11-29-10-20,0-30,16-30,24v55c0,5-12,6-12,13,1,7,13,13,19,18,6,4,32,24,31,2"/><path fill-rule="nonzero" fill="#2a5197" d="m777,877.28,0-57c-1-5-11-4-11-11,0-6,8-8,11-8l39-1c4,0,11,4,11,8s-9,7-9,11v82c-1,7-14,20-31,19-25,0-23-10-34-11-6,0-5,13-29,12-22,0-20-10-29-10-7,0-1,10-11,10-5,0-47-22-47-30-1-9,10-7,10-12v-57c-1-5-11-4-11-11,0-6,8-9,11-9h39c4,0,11,4,11,8,0,3-9,7-9,11v57c0,10,23,11,24,0v-57c0-5-11-4-11-10,0-7,9-9,11-9l39-1c5,0,12,4,11,8,0,4-9,8-9,11v59c0,10,22,10,24-2"/><path fill-rule="nonzero" fill="#2a5197" d="m928,838.28c-2-16-37-16-37,0-1,9-1,38,0,42,2,15,34,16,37,1,3-11,2-29,0-43zm9,79c-15,4-32,3-45-4v64c0,4,0,8-3,10-4,2-9,1-12-1-7-6-40-18-40-31,0-6,13-3,13-9v-123c0-8-16-5-15-15,0-6,9-8,10-8,11,1,18,0,30,0,8,1,5,7,15,7,15,0,9-12,47-5,24,5,36,27,38,50,2,28-10,57-38,65"/><path fill-rule="nonzero" fill="#2a5197" d="m1013,937.28c13,0,24,11,24,25,0,13-11,24-24,24-13.004,0-24.004-11-24.004-24,0-14,11-25,24.004-25"/><path fill-rule="nonzero" fill="#2a5197" d="m1033,816.28c1-4,9-3,9-10,0-5-3-6-9-5-6,0-48.004,0-46.004-1-5,1-6,2-6,6,0,6,9,6,11,11,1,3,1,53,1,57,0,5-11,7-11,14,0,11,25.004,20,39.004,27,3,2,12,4,13-6,0-2-1-89-1-93"/><path fill-rule="nonzero" fill="#2a5197" d="m1127,835.28c-3-6-10-10-16-8-7,1-13,5-15,13-2,11,7,24,19,21,13-3,15-15,12-26zm44-17c-2,23,1,45-1,68-3,36-42,39-73,29-6-1-11,5-18,4-10-1-17-21-19-33,0-3,4-4,7-2,13,8,24,14,39,15,9,1,26-4,20-15-4-7-17,1-28-1s-21-3-31-9c-8-5-13-14-16-22-8-25,11-50,38-53,22-1,42,7,65,2,10-2,30-10,31,6,0,5-13,5-14,11"/><path fill-rule="nonzero" fill="#2a5197" d="m865,699.28-1,0,0-42,1,0,0-63-1,0,0-232c0-52-44-97-107-99-21-1-67,8-66,62,3,90,132,93,148,58v208l-347-83v-237c-12-65-67-94-118-99-55-5-73,36-73,53,2,88,129,113,164,65l1-2v373l399,102v-64zm386,73-1168-2c-5-33-11-69-11-104,0-328,266-595,594-595,329,0,595,267,595,595,0,34-4,73-10,106"/><path fill-rule="nonzero" fill="#2a5197" d="m835,692.28-342-87,0-40,342,85,0,42"/></g></g></svg>
