<?xml version="1.0" encoding="UTF-8" standalone="no"?>
<svg xmlns:rdf="http://www.w3.org/1999/02/22-rdf-syntax-ns#" xmlns="http://www.w3.org/2000/svg" xml:space="preserve" height="83.9" viewBox="0 0 200.01181 83.899582" width="200.01" version="1.1" xmlns:cc="http://creativecommons.org/ns#" xmlns:dc="http://purl.org/dc/elements/1.1/"><g transform="matrix(1.25 0 0 -1.25 -293.77 548.74)"><path d="m346.33 387.56v39.766c-0.975 0.0895-1.9505 0.175-2.9265 0.2565v9.4425c7.3545-0.613 14.694-1.4665 22.006-2.56v-9.4425c-1.041 0.156-2.0825 0.3065-3.125 0.4525v-33.446c0.955-1.089 1.909-2.1815 2.863-3.278 2.5645-0.382 5.126-0.793 7.684-1.2335 0.951 0.791 1.9015 1.578 2.8515 2.3605v33.447c-1.009 0.183-2.019 0.361-3.0295 0.5345v9.4425c7.2935-1.2525 14.556-2.7455 21.776-4.479v-9.4425c-0.9575 0.23-1.9165 0.456-2.8755 0.6775v-39.766c-2.968-2.292-5.9425-4.6245-8.9235-6.9975-9.066 1.8375-18.188 3.301-27.344 4.3895-2.982 3.332-5.968 6.624-8.9565 9.8765m-55.499 0.55065v40.277c2.992 3.193 5.9865 6.346 8.9825 9.4595 10.202 0.464 20.421 0.467 30.624 0.009 3.024-3.113 6.047-6.266 9.0675-9.46v-12.218c-5.364 0.385-10.734 0.642-16.107 0.7715v6.825c-0.8765 0.892-1.753 1.7805-2.63 2.6655-3.6485 0.0595-7.297 0.06-10.946 0.002-0.9615-0.9705-1.923-1.945-2.8845-2.9235v-29.323c0.9615-0.903 1.923-1.8105 2.8845-2.722 3.6485 0.058 7.297 0.0575 10.946-0.002 0.877 0.8285 1.7535 1.6535 2.63 2.475v7.3305c5.373-0.1295 10.743-0.3865 16.107-0.7715v-12.386c-3.0205-2.7605-6.0435-5.5615-9.0675-8.4035-10.203 0.458-20.421 0.455-30.624-0.009-2.996 2.841-5.9905 5.6425-8.9825 8.404m-54.81-8.4969v40.277c2.9355 3.682 5.878 7.3245 8.827 10.927 10.766 2.2825 21.616 4.036 32.51 5.2595 2.8155-2.4925 5.6335-5.0205 8.4535-7.584v-10.111c-5.3585-0.4665-10.709-1.0605-16.046-1.782v4.971c-0.59 0.5385-1.18 1.075-1.7695 1.61-4.436-0.6235-8.8625-1.3355-13.278-2.1355-0.9495-1.127-1.899-2.2585-2.848-3.394v-29.576c0.9485-0.7465 1.898-1.4975 2.848-2.252 4.415 0.8 8.8415 1.512 13.278 2.1355 0.5895 0.673 1.1795 1.344 1.7695 2.0135v8.1735c-3.933-0.5315-7.8585-1.1325-11.776-1.803v11.628c9.2325 1.58 18.514 2.775 27.822 3.585v-24.352c-2.82-3.054-5.638-6.1435-8.4535-9.2685-10.894-1.2235-21.744-2.977-32.51-5.2595-2.949 2.352-5.8915 4.664-8.827 6.9365" fill="#522398"/></g></svg>
