<?xml version="1.0" encoding="UTF-8" standalone="no"?>
<svg xmlns:rdf="http://www.w3.org/1999/02/22-rdf-syntax-ns#" xmlns="http://www.w3.org/2000/svg" xml:space="preserve" height="76.405" viewBox="0 0 187.13581 76.405128" width="187.14" version="1.1" xmlns:cc="http://creativecommons.org/ns#" xmlns:xlink="http://www.w3.org/1999/xlink" xmlns:dc="http://purl.org/dc/elements/1.1/"><g transform="matrix(1.25 0 0 -1.25 -291.95 615.84)"><g transform="translate(.71635 .71635)"><path d="m50.838 29.082c-3.12 0-5.6376 1.1982-7.5488 3.5957-1.9112 2.395-2.8672 5.5802-2.8672 9.5527 0 3.9612 0.95594 7.1431 2.8672 9.5469 1.9112 2.4038 4.4288 3.6055 7.5488 3.6055 3.1338 0 5.6488-1.1965 7.5488-3.584 1.8975-2.3912 2.8457-5.5809 2.8457-9.5684 0-4-0.9482-7.1892-2.8457-9.5742-1.9-2.3812-4.4151-3.5742-7.5488-3.5742zm89.039 0c-3.12 0-5.6356 1.1982-7.5469 3.5957-1.9112 2.395-2.8672 5.5802-2.8672 9.5527 0 3.9612 0.95594 7.1431 2.8672 9.5469 1.9112 2.4038 4.4269 3.6055 7.5469 3.6055 3.1325 0 5.6513-1.1965 7.5488-3.584 1.8988-2.3912 2.8477-5.5809 2.8477-9.5684 0-4-0.94891-7.1892-2.8477-9.5742-1.8975-2.3812-4.4163-3.5742-7.5488-3.5742zm-124.86 0.38086v25.463h6.0977v-10.824h6.3281v10.824h6.0977v-25.463h-6.0977v10.139h-6.3281v-10.139h-6.0977zm92.857 0v4.498h8.291l-9.4746 20.965h17.801v-4.5762h-9.2852l9.4414-20.887h-16.773zm48.477 0v25.463h5.793v-14.535l7.75 14.535h5.2852v-25.463h-5.7168v13.914l-7.3574-13.914h-5.7539zm-87.83 0.002v25.461h6.0996v-10.863c0.0375 0 0.10367-0.0063 0.20117-0.01758 0.09625-0.015 0.16508-0.02148 0.20508-0.02148 0.77375 0 1.3995 0.315 1.877 0.9375 0.4775 0.62625 1.0009 1.9679 1.5684 4.0254l1.6699 5.9395h6.4453l-2.7441-8.2832c-0.37875-1.145-0.77797-2.0593-1.1992-2.748-0.4225-0.68875-0.90039-1.2035-1.4316-1.541 1.4412-0.44 2.5334-1.1528 3.2734-2.1328 0.74125-0.9825 1.1094-2.2058 1.1094-3.6758 0-2.3012-0.78633-4.0576-2.3613-5.2676-1.5738-1.2088-3.8648-1.8125-6.8711-1.8125h-7.8418zm24.592 0v25.463h6.1758v-25.463h-6.1758zm-42.252 4.4219c1.3388 0 2.36 0.71016 3.0625 2.1289 0.7025 1.4225 1.0547 3.4873 1.0547 6.1973 0 2.6725-0.3557 4.7234-1.0645 6.1484-0.71 1.4275-1.7265 2.1426-3.0527 2.1426-1.3138 0-2.328-0.71891-3.043-2.1602-0.72-1.443-1.077-3.486-1.077-6.132 0-2.6862 0.35375-4.7415 1.0625-6.1777 0.7075-1.4325 1.7265-2.1484 3.0527-2.1484zm23.76 0h1.1992c1.2762 0 2.2094 0.23789 2.7969 0.71289 0.58625 0.475 0.88281 1.2305 0.88281 2.2617 0 1.03-0.27898 1.7559-0.83398 2.1797-0.55625 0.42375-1.5173 0.63672-2.8848 0.63672h-1.1602v-5.791zm65.281 0c1.3375 0 2.36 0.71016 3.0625 2.1289 0.70375 1.4225 1.0547 3.4873 1.0547 6.1973 0 2.6725-0.35641 4.7234-1.0664 6.1484-0.7075 1.4275-1.7233 2.1426-3.0508 2.1426-1.3138 0-2.3292-0.71891-3.043-2.1602-0.715-1.4412-1.0723-3.4846-1.0723-6.1309 0-2.6862 0.35375-4.7415 1.0625-6.1777 0.7075-1.4325 1.7265-2.1484 3.0527-2.1484zm-32.32 27.99c-2.0812 0-3.6899 0.62938-4.8262 1.8906-1.1388 1.2588-1.709 3.0539-1.709 5.3789 0 2.2438 0.6043 3.9939 1.8106 5.2539 1.205 1.2588 2.872 1.8906 5.002 1.8906 0.58 0 1.1495-0.07094 1.707-0.21094 0.55625-0.14125 1.1172-0.35266 1.6797-0.62891v-6.9277h-4.3633v1.6191h1.8691v4.3789c-0.22125 0.0425-0.43828 0.07742-0.64453 0.10742-0.2075 0.02875-0.38922 0.03906-0.54297 0.03906-1.255 0-2.2215-0.47188-2.8965-1.4219-0.67626-0.94625-1.0156-2.3058-1.0156-4.082 0-1.8375 0.34008-3.2429 1.0176-4.2129 0.67875-0.96875 1.6594-1.4531 2.9394-1.4531 0.63 0 1.2395 0.10742 1.832 0.32617 0.59125 0.2175 1.1934 0.5532 1.8047 1.002v-1.9688c-0.57375-0.33375-1.1585-0.58024-1.7598-0.74023-0.60125-0.16-1.2368-0.24024-1.9043-0.24024zm-92.561 0.248v13.873h7.5332v-1.6602h-4.9844v-12.213h-2.5488zm27.887 0v13.873h7.4766v-1.6191h-4.9844v-4.8184h4.3613v-1.6191h-4.3613v-4.1953h4.7598v-1.6211h-7.252zm31.725 0-3.7754 13.873h2.5293l0.76758-3.0312h3.7188l0.74024 3.0312h2.5566l-3.8066-13.873h-2.7305zm93.156 0v13.873h7.4785v-1.6191h-4.9863v-4.8184h4.3613v-1.6191h-4.3613v-4.1953h4.7578v-1.6211h-7.25zm-34.432 0.002v10.621c0 1.1025 0.39836 1.9612 1.1934 2.5762 0.79375 0.615 1.9038 0.92383 3.3301 0.92383 1.3762 0 2.4802-0.31336 3.3027-0.94336 0.825-0.63 1.2383-1.4816 1.2383-2.5566v-10.621h-2.4941v10.621c0 0.6025-0.17187 1.0586-0.51562 1.3711-0.34375 0.31375-0.84813 0.4668-1.5156 0.4668-0.65 0-1.1437-0.15766-1.4824-0.47266-0.3375-0.315-0.50781-0.76898-0.50781-1.3652v-10.621h-2.5488zm-57.359 2.6289c0.0575 0.38375 0.11984 0.74906 0.18359 1.1016 0.0625 0.3525 0.13273 0.68781 0.20898 1.0078l1.0605 4.4824h-2.9043l1.0605-4.4727c0.06625-0.2825 0.13352-0.59484 0.19727-0.93359 0.06125-0.33625 0.12586-0.73055 0.19336-1.1855z" transform="matrix(.8 0 0 -.8 231.93 492.58)"/><path d="m381.58 474.24c-21.485 6.316-47.984 9.932-76.604 9.67-26.439-0.244-50.964-3.761-71.331-9.588 18.329 9.972 43.952 16.29 72.397 16.56 29.8 0.272 56.73-6.161 75.538-16.642" stroke="#f5a01a" stroke-width="0.36" fill="#f5a01a"/></g></g></svg>
