<?xml version="1.0" encoding="UTF-8" standalone="no"?>
<svg
   xmlns:dc="http://purl.org/dc/elements/1.1/"
   xmlns:cc="http://creativecommons.org/ns#"
   xmlns:rdf="http://www.w3.org/1999/02/22-rdf-syntax-ns#"
   xmlns:svg="http://www.w3.org/2000/svg"
   xmlns="http://www.w3.org/2000/svg"
   viewBox="0 0 606.30664 99.720001"
   height="99.720001"
   width="606.30664"
   xml:space="preserve"
   id="svg2"
   version="1.1"><metadata
     id="metadata8"><rdf:RDF><cc:Work
         rdf:about=""><dc:format>image/svg+xml</dc:format><dc:type
           rdf:resource="http://purl.org/dc/dcmitype/StillImage" /></cc:Work></rdf:RDF></metadata><defs
     id="defs6" /><g
     transform="matrix(1.3333333,0,0,-1.3333333,0,99.72)"
     id="g10"><g
       transform="scale(0.1)"
       id="g12"><path
         id="path14"
         style="fill:#338f98;fill-opacity:1;fill-rule:nonzero;stroke:none"
         d="M 0,689.031 H 172.996 V 469.723 h 1.75 c 29.703,34.949 68.149,60.285 141.547,60.285 81.258,0 155.523,-49.801 155.523,-153.774 V 65.1758 h -173 V 302.844 c 0,52.414 -6.117,89.121 -56.789,89.121 -29.711,0 -69.031,-14.86 -69.031,-87.375 V 65.1758 H 0 V 689.031" /><path
         id="path16"
         style="fill:#2ea948;fill-opacity:1;fill-rule:nonzero;stroke:none"
         d="M 547.527,689.031 H 720.523 V 469.723 h 1.754 c 29.707,34.949 68.149,60.285 141.547,60.285 81.254,0 155.526,-49.801 155.526,-153.774 V 65.1758 H 846.348 V 302.844 c 0,52.414 -6.118,89.121 -56.793,89.121 -29.707,0 -69.032,-14.86 -69.032,-87.375 V 65.1758 H 547.527 V 689.031" /><path
         id="path18"
         style="fill:#4cb938;fill-opacity:1;fill-rule:nonzero;stroke:none"
         d="m 1094.61,518.648 h 166.9 v -60.289 h 1.74 c 34.95,52.438 85.63,71.649 148.54,71.649 48.93,0 101.35,-25.336 122.32,-70.766 6.99,5.242 41.94,70.766 154.65,70.766 116.21,0 155.53,-80.383 155.53,-153.774 V 65.1758 h -173 V 310.695 c 0,42.821 -4.37,81.27 -56.8,81.27 -43.68,0 -58.54,-34.082 -58.54,-81.27 V 65.1758 H 1382.96 V 310.695 c 0,42.821 -4.38,81.27 -56.8,81.27 -43.69,0 -58.54,-34.082 -58.54,-81.27 V 65.1758 H 1094.61 V 518.648" /><path
         id="path20"
         style="fill:#7dc92c;fill-opacity:1;fill-rule:nonzero;stroke:none"
         d="m 1917.96,65.1758 h 173 v 453.473 h -173 z" /><path
         id="path22"
         style="fill:#7dc92c;fill-opacity:1;fill-rule:nonzero;stroke:none"
         d="m 2095.48,574.203 c 2.56,8.559 3.96,17.629 3.96,27.031 0,52.461 -42.53,94.996 -94.99,94.996 -52.46,0 -94.99,-42.535 -94.99,-94.996 0,-9.402 1.4,-18.472 3.96,-27.031 h 182.06" /><path
         id="path24"
         style="fill:#211c1d;fill-opacity:1;fill-rule:nonzero;stroke:none"
         d="m 2256.89,0 h 14.1602 V 747.934 H 2256.89 Z" /><path
         id="path26"
         style="fill:#211c1d;fill-opacity:1;fill-rule:nonzero;stroke:none"
         d="m 2437.9,575.285 h 28.25 v -91.301 h 111.83 v 91.301 h 28.25 v -212.34 h -28.25 v 97.246 h -111.83 v -97.246 h -28.25 v 212.34" /><path
         id="path28"
         style="fill:#211c1d;fill-opacity:1;fill-rule:nonzero;stroke:none"
         d="m 2712.45,381.68 c 26.46,0 47.88,20.82 47.88,57.992 0,37.473 -21.42,58.289 -47.88,58.289 -26.48,0 -47.88,-20.816 -47.88,-58.289 0,-37.172 21.4,-57.992 47.88,-57.992 z m 0,138.586 c 48.77,0 74.65,-35.387 74.65,-80.594 0,-44.906 -25.88,-80.297 -74.65,-80.297 -48.78,0 -74.65,35.391 -74.65,80.297 0,45.207 25.87,80.594 74.65,80.594" /><path
         id="path30"
         style="fill:#211c1d;fill-opacity:1;fill-rule:nonzero;stroke:none"
         d="m 2961.39,362.945 h -26.76 l -31.23,122.227 h -0.6 l -30.93,-122.227 h -27.35 l -49.38,153.754 h 27.96 l 34.8,-125.801 h 0.59 l 30.93,125.801 h 27.66 l 32.12,-125.801 h 0.59 l 34.5,125.801 h 26.18 l -49.08,-153.754" /><path
         id="path32"
         style="fill:#211c1d;fill-opacity:1;fill-rule:nonzero;stroke:none"
         d="m 3122.66,442.348 c -9.81,-7.137 -28.84,-7.434 -45.8,-10.41 -16.65,-2.973 -30.93,-8.918 -30.93,-27.657 0,-16.652 14.28,-22.601 29.75,-22.601 33.3,0 46.98,20.82 46.98,34.797 z m 41.05,-78.809 c -4.47,-2.676 -10.12,-4.164 -18.15,-4.164 -13.08,0 -21.4,7.141 -21.4,23.793 -13.99,-16.355 -32.72,-23.793 -54.13,-23.793 -27.96,0 -50.85,12.492 -50.85,43.125 0,34.797 25.87,42.227 52.04,47.285 27.95,5.352 51.75,3.57 51.75,22.602 0,22.008 -18.15,25.574 -34.2,25.574 -21.42,0 -37.18,-6.539 -38.37,-29.141 h -25.28 c 1.49,38.067 30.93,51.446 65.13,51.446 27.66,0 57.7,-6.246 57.7,-42.227 V 398.93 c 0,-11.899 0,-17.25 8.02,-17.25 2.08,0 4.47,0.297 7.74,1.488 v -19.629" /><path
         id="path34"
         style="fill:#211c1d;fill-opacity:1;fill-rule:nonzero;stroke:none"
         d="m 3185.41,516.699 h 23.8 v -32.418 h 0.59 c 12.19,24.684 29.14,36.875 56.51,35.985 V 493.5 c -40.75,0 -55.62,-23.195 -55.62,-62.156 v -68.399 h -25.28 v 153.754" /><path
         id="path36"
         style="fill:#211c1d;fill-opacity:1;fill-rule:nonzero;stroke:none"
         d="m 3348.58,381.68 c 33.91,0 46.99,29.144 46.99,57.992 0,30.332 -13.68,58.289 -48.47,58.289 -34.5,0 -46.1,-29.441 -46.1,-59.481 0,-28.847 14.88,-56.8 47.58,-56.8 z m 71.38,-18.735 h -25.28 v 20.817 h -0.59 c -8.33,-16.949 -27.96,-24.387 -49.07,-24.387 -47.29,0 -70.78,37.473 -70.78,80.895 0,43.418 23.19,79.996 70.18,79.996 15.76,0 38.36,-5.95 49.67,-24.09 h 0.59 v 79.109 h 25.28 v -212.34" /><path
         id="path38"
         style="fill:#211c1d;fill-opacity:1;fill-rule:nonzero;stroke:none"
         d="M 3545.75,575.285 H 3574 v -91.301 h 111.83 v 91.301 h 28.25 v -212.34 h -28.25 v 97.246 H 3574 v -97.246 h -28.25 v 212.34" /><path
         id="path40"
         style="fill:#211c1d;fill-opacity:1;fill-rule:nonzero;stroke:none"
         d="m 3880.64,362.945 h -23.79 v 24.383 h -0.59 c -10.71,-19.031 -27.96,-27.953 -49.96,-27.953 -40.45,0 -52.94,23.199 -52.94,56.207 v 101.117 h 25.28 v -104.09 c 0,-18.738 11.89,-30.929 31.22,-30.929 30.63,0 45.51,20.523 45.51,48.179 v 86.84 h 25.27 V 362.945" /><path
         id="path42"
         style="fill:#211c1d;fill-opacity:1;fill-rule:nonzero;stroke:none"
         d="m 4024.46,442.945 c 0,27.059 -11.89,55.016 -43.72,55.016 -32.41,0 -45.5,-26.465 -45.5,-55.91 0,-27.656 10.11,-58.582 43.42,-58.582 33.31,0 45.8,30.629 45.8,59.476 z m 24.98,-66.914 c 0,-49.961 -22.9,-75.539 -71.38,-75.539 -28.84,0 -62.15,11.598 -63.64,45.203 h 25.28 c 1.19,-18.437 23.2,-24.98 39.85,-24.98 33.02,0 46.1,23.793 46.1,58.289 v 10.113 h -0.59 c -8.33,-18.734 -28.56,-27.953 -47.89,-27.953 -45.8,0 -68.7,35.981 -68.7,77.914 0,36.285 17.85,81.188 71.08,81.188 19.33,0 36.58,-8.625 45.8,-25.578 h 0.3 v 22.011 h 23.79 V 376.031" /><path
         id="path44"
         style="fill:#211c1d;fill-opacity:1;fill-rule:nonzero;stroke:none"
         d="m 4084.76,575.285 h 25.29 v -81.187 h 0.59 c 8.32,18.437 30.03,26.168 48.48,26.168 40.44,0 52.93,-23.196 52.93,-56.207 V 362.945 h -25.28 v 104.086 c 0,18.735 -11.89,30.93 -31.23,30.93 -30.63,0 -45.49,-20.52 -45.49,-48.176 v -86.84 h -25.29 v 212.34" /><path
         id="path46"
         style="fill:#211c1d;fill-opacity:1;fill-rule:nonzero;stroke:none"
         d="m 4353.99,454.543 c -1.18,24.09 -19.33,43.418 -44.31,43.418 -26.46,0 -42.22,-19.922 -44.01,-43.418 z m 24.4,-42.824 c -6.85,-33.906 -31.23,-52.344 -65.74,-52.344 -49.06,0 -72.26,33.902 -73.75,80.895 0,46.093 30.34,79.996 72.27,79.996 54.42,0 71.07,-50.856 69.59,-88.028 h -115.09 c -0.9,-26.765 14.28,-50.558 47.88,-50.558 20.82,0 35.39,10.113 39.86,30.039 h 24.98" /><path
         id="path48"
         style="fill:#211c1d;fill-opacity:1;fill-rule:nonzero;stroke:none"
         d="m 4422.21,411.422 c 0.89,-22.602 20.52,-29.742 41.34,-29.742 15.76,0 37.17,3.57 37.17,22.902 0,19.629 -24.98,22.898 -50.25,28.547 -24.98,5.652 -50.27,13.976 -50.27,43.418 0,30.93 30.64,43.719 57.4,43.719 33.9,0 60.97,-10.703 63.05,-48.176 h -25.28 c -1.78,19.625 -19.04,25.871 -35.69,25.871 -15.16,0 -32.71,-4.16 -32.71,-19.625 0,-18.145 26.77,-21.117 50.26,-26.77 25.28,-5.648 50.26,-13.976 50.26,-43.714 0,-36.582 -34.2,-48.477 -65.42,-48.477 -34.5,0 -63.65,13.98 -65.14,52.047 h 25.28" /><path
         id="path50"
         style="fill:#211c1d;fill-opacity:1;fill-rule:nonzero;stroke:none"
         d="m 2438.49,277.891 h 38.67 l 66.91,-178.4379 67.21,178.4379 h 38.66 V 65.5508 h -26.77 V 242.203 h -0.59 L 2556.26,65.5508 h -24.09 l -66.31,176.6522 h -0.6 V 65.5508 h -26.77 V 277.891" /><path
         id="path52"
         style="fill:#211c1d;fill-opacity:1;fill-rule:nonzero;stroke:none"
         d="m 2788.1,157.148 c -1.19,24.094 -19.33,43.418 -44.31,43.418 -26.47,0 -42.23,-19.921 -44.02,-43.418 z m 24.39,-42.82 c -6.84,-33.9061 -31.22,-52.3436 -65.73,-52.3436 -49.07,0 -72.26,33.8984 -73.75,80.8906 0,46.094 30.34,79.996 72.27,79.996 54.42,0 71.07,-50.855 69.59,-88.027 h -115.1 c -0.89,-26.762 14.28,-50.5549 47.88,-50.5549 20.82,0 35.39,10.1093 39.86,30.0389 h 24.98" /><path
         id="path54"
         style="fill:#211c1d;fill-opacity:1;fill-rule:nonzero;stroke:none"
         d="m 2907.32,84.2891 c 33.91,0 46.99,29.1449 46.99,57.9919 0,30.332 -13.68,58.285 -48.47,58.285 -34.5,0 -46.1,-29.437 -46.1,-59.476 0,-28.848 14.88,-56.8009 47.58,-56.8009 z m 71.38,-18.7383 h -25.28 v 20.8164 h -0.59 c -8.33,-16.9492 -27.96,-24.3828 -49.07,-24.3828 -47.29,0 -70.78,37.4687 -70.78,80.8906 0,43.418 23.19,79.996 70.18,79.996 15.76,0 38.36,-5.945 49.67,-24.086 h 0.59 v 79.106 h 25.28 V 65.5508" /><path
         id="path56"
         style="fill:#211c1d;fill-opacity:1;fill-rule:nonzero;stroke:none"
         d="m 3012.81,219.309 h 25.27 V 65.5508 h -25.27 z m 25.27,27.656 h -25.27 v 30.926 h 25.27 v -30.926" /><path
         id="path58"
         style="fill:#211c1d;fill-opacity:1;fill-rule:nonzero;stroke:none"
         d="m 3179.19,169.938 c -3.87,19.332 -17.25,30.628 -38.07,30.628 -36.57,0 -47.88,-28.843 -47.88,-60.074 0,-28.25 12.79,-56.2029 44.91,-56.2029 24.39,0 38.96,14.2773 42.23,37.4689 h 25.88 c -5.66,-37.4689 -29.15,-59.7736 -67.82,-59.7736 -46.98,0 -71.96,32.7148 -71.96,78.5076 0,46.102 23.79,82.379 72.56,82.379 34.79,0 62.75,-16.351 66.32,-52.933 h -26.17" /><path
         id="path60"
         style="fill:#211c1d;fill-opacity:1;fill-rule:nonzero;stroke:none"
         d="m 3328.41,144.957 c -9.81,-7.141 -28.84,-7.437 -45.8,-10.41 -16.65,-2.973 -30.92,-8.922 -30.92,-27.656 0,-16.6566 14.27,-22.6019 29.74,-22.6019 33.3,0 46.98,20.8199 46.98,34.7929 z m 41.05,-78.8086 c -4.46,-2.6757 -10.12,-4.164 -18.14,-4.164 -13.09,0 -21.41,7.1367 -21.41,23.7929 -13.99,-16.3593 -32.72,-23.7929 -54.13,-23.7929 -27.96,0 -50.85,12.4883 -50.85,43.1246 0,34.793 25.87,42.227 52.04,47.286 27.95,5.351 51.75,3.566 51.75,22.601 0,22.008 -18.15,25.57 -34.2,25.57 -21.42,0 -37.18,-6.539 -38.37,-29.14 h -25.27 c 1.48,38.066 30.92,51.445 65.12,51.445 27.66,0 57.7,-6.246 57.7,-42.226 v -79.106 c 0,-11.8984 0,-17.2499 8.03,-17.2499 2.08,0 4.46,0.2968 7.73,1.4882 V 66.1484" /><path
         id="path62"
         style="fill:#211c1d;fill-opacity:1;fill-rule:nonzero;stroke:none"
         d="m 3392.77,65.5508 h 25.2813 v 212.34 H 3392.77 Z" /><path
         id="path64"
         style="fill:#211c1d;fill-opacity:1;fill-rule:nonzero;stroke:none"
         d="m 3545.33,65.5508 h 28.2539 v 212.34 H 3545.33 Z" /><path
         id="path66"
         style="fill:#211c1d;fill-opacity:1;fill-rule:nonzero;stroke:none"
         d="m 3613.22,219.309 h 23.79 v -24.391 h 0.59 c 10.71,19.031 27.96,27.953 49.97,27.953 40.44,0 52.93,-23.191 52.93,-56.207 V 65.5508 h -25.28 V 169.641 c 0,18.734 -11.89,30.925 -31.22,30.925 -30.63,0 -45.51,-20.515 -45.51,-48.171 V 65.5508 h -25.27 V 219.309" /><path
         id="path68"
         style="fill:#211c1d;fill-opacity:1;fill-rule:nonzero;stroke:none"
         d="m 3791.92,114.027 c 0.89,-22.6012 20.52,-29.7379 41.34,-29.7379 15.76,0 37.17,3.5664 37.17,22.8989 0,19.628 -24.98,22.902 -50.26,28.55 -24.98,5.649 -50.26,13.973 -50.26,43.418 0,30.926 30.63,43.715 57.4,43.715 33.9,0 60.97,-10.703 63.05,-48.172 h -25.28 c -1.78,19.621 -19.04,25.867 -35.69,25.867 -15.16,0 -32.71,-4.16 -32.71,-19.625 0,-18.144 26.76,-21.117 50.26,-26.765 25.27,-5.649 50.25,-13.981 50.25,-43.715 0,-36.5821 -34.2,-48.4766 -65.42,-48.4766 -34.5,0 -63.64,13.9765 -65.13,52.0426 h 25.28" /><path
         id="path70"
         style="fill:#211c1d;fill-opacity:1;fill-rule:nonzero;stroke:none"
         d="M 3958.37,219.309 H 3989 v -22.305 h -30.63 v -95.465 c 0,-11.6015 3.27,-13.6835 19.03,-13.6835 H 3989 V 65.5508 h -19.34 c -26.16,0 -36.57,5.3515 -36.57,33.6055 v 97.8477 h -26.17 v 22.305 h 26.17 v 46.093 h 25.28 v -46.093" /><path
         id="path72"
         style="fill:#211c1d;fill-opacity:1;fill-rule:nonzero;stroke:none"
         d="m 4013.71,219.309 h 25.28 V 65.5508 h -25.28 z m 25.28,27.656 h -25.28 v 30.926 h 25.28 v -30.926" /><path
         id="path74"
         style="fill:#211c1d;fill-opacity:1;fill-rule:nonzero;stroke:none"
         d="m 4110.69,219.309 h 30.63 v -22.305 h -30.63 v -95.465 c 0,-11.6015 3.27,-13.6835 19.03,-13.6835 h 11.6 V 65.5508 h -19.33 c -26.17,0 -36.58,5.3515 -36.58,33.6055 v 97.8477 h -26.17 v 22.305 h 26.17 v 46.093 h 25.28 v -46.093" /><path
         id="path76"
         style="fill:#211c1d;fill-opacity:1;fill-rule:nonzero;stroke:none"
         d="m 4291.47,65.5508 h -23.8 v 24.3867 h -0.58 c -10.72,-19.0352 -27.96,-27.9531 -49.97,-27.9531 -40.44,0 -52.93,23.1953 -52.93,56.2036 v 101.121 h 25.27 V 115.215 c 0,-18.7345 11.89,-30.9259 31.23,-30.9259 30.64,0 45.5,20.5199 45.5,48.1759 v 86.844 h 25.28 V 65.5508" /><path
         id="path78"
         style="fill:#211c1d;fill-opacity:1;fill-rule:nonzero;stroke:none"
         d="m 4362.9,219.309 h 30.63 v -22.305 h -30.63 v -95.465 c 0,-11.6015 3.27,-13.6835 19.03,-13.6835 h 11.6 V 65.5508 h -19.33 c -26.17,0 -36.58,5.3515 -36.58,33.6055 v 97.8477 h -26.17 v 22.305 h 26.17 v 46.093 h 25.28 v -46.093" /><path
         id="path80"
         style="fill:#211c1d;fill-opacity:1;fill-rule:nonzero;stroke:none"
         d="m 4520.4,157.148 c -1.19,24.094 -19.34,43.418 -44.32,43.418 -26.46,0 -42.23,-19.921 -44.01,-43.418 z m 24.38,-42.82 c -6.83,-33.9061 -31.22,-52.3436 -65.72,-52.3436 -49.07,0 -72.27,33.8984 -73.75,80.8906 0,46.094 30.33,79.996 72.27,79.996 54.42,0 71.07,-50.855 69.58,-88.027 h -115.09 c -0.89,-26.762 14.27,-50.5549 47.88,-50.5549 20.82,0 35.39,10.1093 39.85,30.0389 h 24.98" /></g></g></svg>