<?xml version="1.0" encoding="UTF-8" standalone="no"?>
<!-- Created with Inkscape (http://www.inkscape.org/) -->

<svg
   xmlns:dc="http://purl.org/dc/elements/1.1/"
   xmlns:cc="http://creativecommons.org/ns#"
   xmlns:rdf="http://www.w3.org/1999/02/22-rdf-syntax-ns#"
   xmlns:svg="http://www.w3.org/2000/svg"
   xmlns="http://www.w3.org/2000/svg"
   xmlns:sodipodi="http://sodipodi.sourceforge.net/DTD/sodipodi-0.dtd"
   xmlns:inkscape="http://www.inkscape.org/namespaces/inkscape"
   width="135.46667mm"
   height="28.324606mm"
   viewBox="0 0 135.46667 28.324606"
   version="1.1"
   id="svg5786"
   inkscape:version="0.92.1 r15371"
   sodipodi:docname="logo.svg">
  <defs
     id="defs5780">
    <clipPath
       clipPathUnits="userSpaceOnUse"
       id="clipPath1576">
      <path
         d="m 63.562,524.071 h 86.583 v 18.104 H 63.562 Z"
         id="path1574"
         inkscape:connector-curvature="0" />
    </clipPath>
  </defs>
  <sodipodi:namedview
     id="base"
     pagecolor="#ffffff"
     bordercolor="#666666"
     borderopacity="1.0"
     inkscape:pageopacity="0.0"
     inkscape:pageshadow="2"
     inkscape:zoom="0.98994949"
     inkscape:cx="204.92184"
     inkscape:cy="9.5642864"
     inkscape:document-units="mm"
     inkscape:current-layer="layer1"
     showgrid="false"
     fit-margin-top="0"
     fit-margin-left="0"
     fit-margin-right="0"
     fit-margin-bottom="0"
     inkscape:window-width="1600"
     inkscape:window-height="838"
     inkscape:window-x="-8"
     inkscape:window-y="-8"
     inkscape:window-maximized="1" />
  <metadata
     id="metadata5783">
    <rdf:RDF>
      <cc:Work
         rdf:about="">
        <dc:format>image/svg+xml</dc:format>
        <dc:type
           rdf:resource="http://purl.org/dc/dcmitype/StillImage" />
        <dc:title></dc:title>
      </cc:Work>
    </rdf:RDF>
  </metadata>
  <g
     inkscape:label="Layer 1"
     inkscape:groupmode="layer"
     id="layer1"
     transform="translate(-18.44524,-116.52816)">
    <g
       transform="matrix(1.5645928,0,0,-1.5645928,-81.003408,964.81048)"
       id="g1570">
      <g
         id="g1572"
         clip-path="url(#clipPath1576)">
        <g
           id="g1578"
           transform="translate(90.0274,529.9128)">
          <path
             d="m 0,0 h 0.993 c 1.463,0 2.785,0.779 2.785,2.749 0,2.035 -1.34,2.663 -2.698,2.663 -0.366,0 -0.731,-0.07 -1.08,-0.14 z m -2.925,-5.108 0.626,0.05 c 0.68,0.072 0.68,0.158 0.68,2.281 v 6.046 c 0,2.125 0,2.212 -0.68,2.28 l -0.626,0.054 v 0.383 h 4.544 c 1.655,0 3.987,-0.244 3.987,-2.89 0,-1.619 -1.445,-2.576 -2.402,-3.027 0.261,-0.483 0.835,-1.597 1.306,-2.43 0.731,-1.303 1.497,-2.33 1.934,-2.574 0.172,-0.104 0.486,-0.173 0.869,-0.173 v -0.384 h -1.34 c -1.15,0 -1.952,0.783 -2.474,1.741 L 2.804,-2.414 C 2.352,-1.563 1.951,-0.903 1.723,-0.71 1.445,-0.483 1.01,-0.483 0.645,-0.483 H 0 V -2.777 C 0,-4.9 0,-4.986 0.662,-5.058 l 0.626,-0.05 v -0.384 h -4.213 z"
             style="fill:#802528;fill-opacity:1;fill-rule:nonzero;stroke:none"
             id="path1580"
             inkscape:connector-curvature="0" />
        </g>
        <g
           id="g1582"
           transform="translate(87.1021,524.3376)">
          <path
             d="M 0,0 H 4.214 4.296 V 0.083 0.467 0.543 L 4.22,0.549 3.594,0.6 C 3.019,0.662 3.008,0.663 3.008,2.798 V 5.092 L 2.925,5.009 H 3.57 c 0.362,0 0.771,0 1.027,-0.208 C 4.794,4.632 5.171,4.034 5.655,3.121 5.655,3.122 6.351,1.785 6.351,1.785 6.988,0.617 7.869,0 8.898,0 h 1.34 0.083 V 0.083 0.467 0.55 H 10.238 C 9.888,0.55 9.579,0.61 9.412,0.711 8.993,0.945 8.23,1.968 7.508,3.254 7.177,3.839 6.789,4.575 6.506,5.113 L 6.202,5.684 6.164,5.57 c 0.916,0.43 2.45,1.408 2.45,3.101 0,2.664 -2.322,2.972 -4.069,2.972 H 0 -0.083 V 11.561 11.178 11.102 L -0.007,11.096 0.62,11.042 C 1.211,10.983 1.223,10.982 1.223,8.844 V 2.798 C 1.223,0.664 1.211,0.662 0.618,0.6 0.62,0.6 -0.007,0.549 -0.007,0.549 L -0.083,0.543 V 0.467 0.083 0 Z m 0.007,0.384 0.627,0.051 c 0.755,0.079 0.755,0.208 0.755,2.363 v 6.046 c 0,2.159 0,2.288 -0.754,2.363 -0.001,0 -0.628,0.054 -0.628,0.054 l 0.076,-0.083 v 0.383 L 0,11.477 h 4.545 c 1.818,0 3.903,-0.318 3.903,-2.806 0,-1.602 -1.474,-2.538 -2.354,-2.952 L 6.015,5.682 c 0,0 0.041,-0.076 0.041,-0.076 L 6.36,5.036 C 6.643,4.497 7.031,3.76 7.363,3.173 8.11,1.842 8.881,0.818 9.328,0.568 9.521,0.452 9.854,0.384 10.238,0.384 L 10.155,0.467 V 0.083 l 0.083,0.083 h -1.34 c -1.219,0 -1.978,0.923 -2.4,1.698 0,-0.002 -0.695,1.335 -0.695,1.335 -0.35,0.658 -0.825,1.495 -1.1,1.73 C 4.401,5.175 3.94,5.175 3.57,5.175 H 2.925 2.842 V 5.092 2.798 c 0,-2.155 0,-2.284 0.737,-2.362 C 3.581,0.435 4.207,0.384 4.207,0.384 L 4.13,0.467 V 0.083 L 4.214,0.166 H 0 L 0.083,0.083 v 0.384 z"
             style="fill:#802528;fill-opacity:1;fill-rule:nonzero;stroke:none"
             id="path1584"
             inkscape:connector-curvature="0" />
        </g>
        <g
           id="g1586"
           transform="translate(90.0436,535.103)">
          <path
             d="m 0,0 c 0.362,0.073 0.715,0.138 1.064,0.138 0.976,0 2.615,-0.335 2.615,-2.579 0,-1.673 -1.01,-2.667 -2.702,-2.667 H -0.016 L 0.066,-5.19 v 5.271 z m -0.016,-5.273 h 0.993 c 0.805,0 1.495,0.226 1.995,0.654 0.579,0.498 0.874,1.23 0.874,2.178 C 3.846,0.037 1.9,0.304 1.064,0.304 0.7,0.304 0.338,0.237 -0.032,0.163 L -0.099,0.15 V 0.081 -5.19 -5.273 Z"
             style="fill:#802528;fill-opacity:1;fill-rule:nonzero;stroke:none"
             id="path1588"
             inkscape:connector-curvature="0" />
        </g>
        <g
           id="g1590"
           transform="translate(98.332,528.8714)">
          <path
             d="M 0,0 C 1.254,0.226 2.716,0.592 3.935,0.991 3.691,2.064 3.255,3.111 1.933,3.111 0.453,3.111 0,1.267 0,0 M 5.433,-3.736 C 5.154,-3.998 3.97,-4.712 2.385,-4.712 c -2.194,0 -3.987,1.463 -3.987,3.93 0,2.933 2.037,4.501 4.04,4.501 2.333,0 2.837,-1.688 3.065,-2.624 C 3.518,0.123 1.497,-0.417 0,-0.765 c 0.069,-1.074 0.906,-3.129 3.255,-3.129 1.063,0 1.725,0.436 1.969,0.558 z"
             style="fill:#802528;fill-opacity:1;fill-rule:nonzero;stroke:none"
             id="path1592"
             inkscape:connector-curvature="0" />
        </g>
        <g
           id="g1594"
           transform="translate(103.5184,525.6099)">
          <path
             d="m 0,0 c -0.03,-0.015 -0.066,-0.035 -0.107,-0.058 -0.295,-0.159 -0.91,-0.492 -1.824,-0.492 -2.442,0 -3.118,2.205 -3.173,3.052 L -5.168,2.416 c 1.396,0.324 3.487,0.87 5.52,1.865 l 0.06,0.03 -0.015,0.064 c -0.195,0.802 -0.65,2.689 -3.145,2.689 -2.049,0 -4.123,-1.578 -4.123,-4.585 0,-2.361 1.674,-4.012 4.069,-4.012 1.694,0 2.881,0.787 3.105,0.997 l 0.046,0.043 -0.029,0.056 -0.209,0.4 -0.038,0.073 z m 0.19,-0.414 c -0.318,-0.3 -1.514,-0.953 -2.992,-0.953 -2.298,0 -3.903,1.585 -3.903,3.846 0,2.899 1.99,4.419 3.957,4.419 2.365,0 2.799,-1.798 2.983,-2.561 L 0.28,4.43 C -1.739,3.442 -3.817,2.9 -5.205,2.578 L -5.274,2.562 -5.269,2.491 c 0.057,-0.888 0.768,-3.207 3.338,-3.207 0.957,0 1.596,0.347 1.903,0.513 0.04,0.022 0.075,0.041 0.103,0.055 l -0.111,0.036 0.209,-0.402 z"
             style="fill:#802528;fill-opacity:1;fill-rule:nonzero;stroke:none"
             id="path1596"
             inkscape:connector-curvature="0" />
        </g>
        <g
           id="g1598"
           transform="translate(100.2655,531.8986)">
          <path
             d="m 0,0 c 1.281,0 1.69,-1.041 1.921,-2.055 l 0.055,0.097 C 0.786,-2.347 -0.68,-2.716 -1.948,-2.945 l 0.097,-0.082 C -1.851,-1.903 -1.461,0 0,0 m -1.919,-3.109 c 1.275,0.231 2.75,0.603 3.947,0.994 l 0.071,0.024 -0.016,0.073 C 1.838,-0.94 1.398,0.166 0,0.166 c -1.592,0 -2.016,-2.008 -2.016,-3.193 v -0.099 z"
             style="fill:#802528;fill-opacity:1;fill-rule:nonzero;stroke:none"
             id="path1600"
             inkscape:connector-curvature="0" />
        </g>
        <g
           id="g1602"
           transform="translate(110.4946,531.3714)">
          <path
             d="m 0,0 c -0.417,0.383 -0.993,0.611 -1.74,0.611 -1.612,0 -2.761,-1.221 -2.761,-3.354 0,-2.205 1.366,-3.651 3.125,-3.651 0.522,0 1.167,0.261 1.376,0.384 z M 2.786,-6.584 C 1.985,-6.95 1.028,-7.142 0.436,-7.212 0.313,-7.02 0.21,-6.725 0.105,-6.498 c -0.401,-0.208 -1.149,-0.714 -2.35,-0.714 -1.803,0 -3.857,1.097 -3.857,3.86 0,3.317 2.767,4.571 4.849,4.571 0.418,0 0.871,-0.036 1.253,-0.156 v 1.723 c 0,1.375 0,2.177 -0.628,2.177 -0.086,0 -0.207,-0.018 -0.243,-0.018 L -1.132,4.91 -1.184,5.294 c 0.556,0.12 1.968,0.278 2.699,0.278 V -4.931 c 0,-0.922 0.105,-1.322 0.575,-1.322 0.069,0 0.208,0 0.279,0.017 l 0.312,0.051 z"
             style="fill:#802528;fill-opacity:1;fill-rule:nonzero;stroke:none"
             id="path1604"
             inkscape:connector-curvature="0" />
        </g>
        <g
           id="g1606"
           transform="translate(113.1625,525.2678)">
          <path
             d="m 0,0 -0.312,-0.052 c -0.067,-0.015 -0.207,-0.015 -0.266,-0.015 -0.377,0 -0.491,0.29 -0.491,1.24 v 10.503 0.083 h -0.084 c -0.735,0 -2.153,-0.158 -2.717,-0.281 l -0.075,-0.016 0.011,-0.076 0.053,-0.384 0.011,-0.081 0.082,0.011 0.261,0.034 -0.011,-10e-4 c 0.017,0 0.044,0.003 0.081,0.007 0.051,0.005 0.113,0.011 0.161,0.011 0.523,0 0.545,-0.642 0.545,-2.094 V 7.167 l 0.108,0.079 c -0.338,0.106 -0.768,0.16 -1.278,0.16 -1.193,0 -2.374,-0.386 -3.254,-1.06 -1.098,-0.84 -1.678,-2.078 -1.678,-3.595 0,-2.721 1.983,-3.942 3.94,-3.942 1.074,0 1.795,0.398 2.226,0.635 0.059,0.033 0.114,0.063 0.162,0.089 l -0.114,0.038 c 0.034,-0.073 0.068,-0.153 0.104,-0.237 0.072,-0.173 0.147,-0.352 0.233,-0.487 l 0.028,-0.044 0.051,0.006 c 0.313,0.038 1.408,0.193 2.375,0.634 l 0.065,0.029 -0.019,0.068 -0.104,0.4 -0.02,0.073 z m 0.084,-0.405 c -0.946,-0.432 -2.02,-0.585 -2.326,-0.621 l 0.08,-0.039 c -0.079,0.125 -0.151,0.297 -0.221,0.462 -0.034,0.083 -0.07,0.167 -0.105,0.244 l -0.037,0.078 -0.077,-0.039 c -0.05,-0.027 -0.106,-0.058 -0.166,-0.09 -0.416,-0.231 -1.113,-0.615 -2.145,-0.615 -1.875,0 -3.775,1.169 -3.775,3.776 0,3.082 2.476,4.489 4.767,4.489 0.494,0 0.907,-0.051 1.228,-0.153 l 0.107,-0.033 v 0.113 1.722 c 0,1.41 0,2.26 -0.71,2.26 -0.056,0 -0.124,-0.007 -0.178,-0.012 C -3.5,11.134 -3.53,11.131 -3.538,11.131 h -0.006 l -0.006,-10e-4 -0.26,-0.034 0.093,-0.071 -0.052,0.383 -0.065,-0.092 c 0.555,0.121 1.955,0.277 2.681,0.277 l -0.083,0.083 V 1.173 c 0,-0.769 0.05,-1.406 0.658,-1.406 0.077,0 0.218,0 0.299,0.019 -0.006,-0.001 0.305,0.051 0.305,0.051 l -0.093,0.06 0.105,-0.399 z"
             style="fill:#802528;fill-opacity:1;fill-rule:nonzero;stroke:none"
             id="path1608"
             inkscape:connector-curvature="0" />
        </g>
        <g
           id="g1610"
           transform="translate(110.4519,525.4329)">
          <path
             d="m 0,0 c -0.211,-0.126 -0.84,-0.373 -1.333,-0.373 -1.768,0 -3.042,1.503 -3.042,3.568 0,2.014 1.029,3.271 2.677,3.271 0.693,0 1.259,-0.198 1.684,-0.588 l -0.027,0.06 v -6.01 z m 0.098,5.999 c -0.456,0.42 -1.06,0.633 -1.796,0.633 -1.724,0 -2.843,-1.352 -2.843,-3.437 0,-2.16 1.345,-3.734 3.208,-3.734 0.531,0 1.186,0.259 1.418,0.397 l 0.04,0.024 v 0.046 6.01 0.037 z"
             style="fill:#802528;fill-opacity:1;fill-rule:nonzero;stroke:none"
             id="path1612"
             inkscape:connector-curvature="0" />
        </g>
        <g
           id="g1614"
           transform="translate(113.9075,524.8049)">
          <path
             d="m 0,0 0.418,0.05 c 0.61,0.072 0.767,0.072 0.767,1.272 v 8.03 c 0,1.376 0,2.177 -0.627,2.177 -0.087,0 -0.21,-0.018 -0.243,-0.018 L 0.051,11.477 0,11.86 c 0.558,0.121 1.968,0.278 2.699,0.278 V 1.322 c 0,-1.2 0.139,-1.2 0.783,-1.272 L 3.882,0 V -0.384 H 0 Z"
             style="fill:#802528;fill-opacity:1;fill-rule:nonzero;stroke:none"
             id="path1616"
             inkscape:connector-curvature="0" />
        </g>
        <g
           id="g1618"
           transform="translate(113.9075,524.3376)">
          <path
             d="M 0,0 H 3.882 3.965 V 0.083 0.467 0.54 L 3.893,0.549 3.492,0.6 C 3.491,0.6 3.466,0.602 3.466,0.602 2.874,0.668 2.782,0.677 2.782,1.79 v 10.816 0.083 H 2.699 c -0.733,0 -2.152,-0.158 -2.716,-0.281 l -0.075,-0.016 0.01,-0.076 0.051,-0.383 0.011,-0.082 0.081,0.011 0.264,0.034 h -0.01 c 0.016,0 0.038,0.002 0.078,0.006 0.049,0.005 0.115,0.011 0.165,0.011 0.521,0 0.544,-0.642 0.544,-2.093 V 1.79 C 1.102,0.68 1,0.669 0.436,0.603 L 0.408,0.6 -0.01,0.549 -0.083,0.54 V 0.467 0.083 0 Z M 0.009,0.384 0.428,0.436 0.454,0.438 C 1.099,0.513 1.267,0.583 1.267,1.79 v 8.03 c 0,1.409 0,2.259 -0.709,2.259 C 0.5,12.079 0.429,12.072 0.376,12.067 0.351,12.065 0.323,12.061 0.315,12.061 H 0.308 0.303 L 0.041,12.026 0.133,11.955 0.081,12.339 0.017,12.246 c 0.557,0.121 1.958,0.277 2.682,0.277 L 2.616,12.606 V 1.79 c 0,-1.215 0.159,-1.278 0.832,-1.352 L 3.473,0.436 c -0.002,0 0.399,-0.052 0.399,-0.052 L 3.799,0.467 V 0.083 L 3.882,0.166 H 0 L 0.082,0.083 v 0.384 z"
             style="fill:#802528;fill-opacity:1;fill-rule:nonzero;stroke:none"
             id="path1620"
             inkscape:connector-curvature="0" />
        </g>
        <g
           id="g1622"
           transform="translate(122.6262,528.4191)">
          <path
             d="m 0,0 c -0.993,0 -2.7,-0.435 -2.7,-2.066 0,-0.992 0.629,-1.583 1.622,-1.583 0.765,0 1.199,0.538 1.321,0.713 L 0.243,0 Z M 3.223,-3.998 C 2.772,-4.015 2.587,-4.009 1.854,-4.009 c -0.888,0 -1.263,0.116 -1.436,0.482 -0.558,-0.366 -1.202,-0.733 -2.559,-0.733 -1.289,0 -2.159,0.733 -2.159,1.69 0,2.258 3.011,2.936 4.543,3.388 v 0.4 c 0,1.143 -0.313,2.134 -1.619,2.134 -1.393,0 -1.829,-1.095 -2.159,-1.737 h -0.139 c -0.191,0.208 -0.332,0.382 -0.453,0.693 0.522,0.696 1.638,1.864 3.482,1.864 1.986,0 2.404,-1.046 2.404,-2.815 v -2.485 c 0,-1.217 0,-2.521 0.957,-2.521 0.173,0 0.376,0.013 0.531,0.013 z"
             style="fill:#802528;fill-opacity:1;fill-rule:nonzero;stroke:none"
             id="path1624"
             inkscape:connector-curvature="0" />
        </g>
        <g
           id="g1626"
           transform="translate(125.8727,524.8652)">
          <path
             d="m 0,0 c -0.076,0 -0.162,-0.003 -0.252,-0.006 -0.094,-0.003 -0.19,-0.006 -0.278,-0.006 -0.876,0 -0.876,1.24 -0.876,2.437 V 4.91 c 0,1.788 -0.416,2.899 -2.485,2.899 -1.757,0 -2.9,-1.032 -3.549,-1.898 L -7.468,5.875 -7.451,5.831 c 0.131,-0.337 0.29,-0.524 0.469,-0.717 l 0.024,-0.027 h 0.037 0.14 0.051 c 0,-10e-4 0.023,0.044 0.023,0.044 l 0.075,0.149 c 0.325,0.65 0.769,1.543 2.01,1.543 1.048,0 1.536,-0.654 1.536,-2.051 v -0.4 l 0.059,0.08 -0.365,-0.106 C -4.978,3.893 -7.63,3.135 -7.63,0.984 c 0,-1.027 0.943,-1.773 2.242,-1.773 1.355,0 2.005,0.352 2.606,0.746 l -0.121,0.035 c 0.186,-0.396 0.568,-0.531 1.51,-0.531 h 0.439 c 0.392,-0.001 0.588,-0.001 0.934,0.011 L 0.055,-0.525 0.06,-0.449 0.083,-0.088 0.089,0 Z M -0.026,-0.362 C -0.37,-0.375 -0.552,-0.374 -0.954,-0.374 l -0.439,0.001 c -0.864,0 -1.206,0.11 -1.36,0.434 l -0.04,0.087 -0.081,-0.053 c -0.577,-0.378 -1.206,-0.718 -2.514,-0.718 -1.203,0 -2.077,0.676 -2.077,1.607 0,2.026 2.578,2.763 4.118,3.203 l 0.367,0.105 0.06,0.018 v 0.062 0.4 c 0,1.49 -0.557,2.217 -1.702,2.217 -1.343,0 -1.834,-0.986 -2.159,-1.635 l -0.074,-0.148 0.074,0.046 h -0.14 l 0.062,-0.027 c -0.203,0.219 -0.326,0.382 -0.437,0.667 l -0.012,-0.08 c 0.628,0.835 1.729,1.831 3.417,1.831 1.94,0 2.319,-1.004 2.319,-2.733 V 2.425 c 0,-1.218 0,-2.604 1.042,-2.604 0.091,0 0.189,0.004 0.283,0.007 0.089,0.003 0.174,0.006 0.247,0.006 l -0.082,0.089 -0.023,-0.362 z"
             style="fill:#802528;fill-opacity:1;fill-rule:nonzero;stroke:none"
             id="path1628"
             inkscape:connector-curvature="0" />
        </g>
        <g
           id="g1630"
           transform="translate(122.7865,528.4191)">
          <path
             d="m 0,0 v -2.936 l 0.015,0.047 c -0.143,-0.204 -0.55,-0.677 -1.254,-0.677 -0.963,0 -1.538,0.559 -1.538,1.5 0,1.564 1.645,1.983 2.617,1.983 h 0.243 z m -0.16,0.083 c -1.033,0 -2.782,-0.454 -2.782,-2.149 0,-1.028 0.652,-1.666 1.703,-1.666 0.782,0 1.232,0.523 1.39,0.748 l 0.015,0.022 V -2.936 0 0.083 H 0.083 Z"
             style="fill:#802528;fill-opacity:1;fill-rule:nonzero;stroke:none"
             id="path1632"
             inkscape:connector-curvature="0" />
        </g>
        <g
           id="g1634"
           transform="translate(125.6352,524.7776)">
          <path
             d="m 0,0 0.511,0.02 c 0.608,0.07 0.825,0.215 0.825,1.33 v 3.371 c 0,1.699 0,2.186 -0.488,2.186 C 0.759,6.907 0.639,6.89 0.604,6.89 L 0.223,6.785 0.151,7.204 C 0.657,7.359 2.241,7.813 2.85,7.813 V 6.715 c 0.401,0.366 1.341,1.098 2.665,1.098 2.716,0 2.716,-1.881 2.716,-3.875 V 1.35 c 0,-1.115 0.139,-1.201 0.783,-1.273 l 0.4,-0.05 V -0.357 H 5.532 V 0.027 L 5.95,0.077 C 6.558,0.149 6.717,0.235 6.717,1.35 v 2.326 c 0,1.633 0,3.318 -2.074,3.318 -0.921,0 -1.48,-0.54 -1.793,-0.941 V 1.35 C 2.85,0.235 2.989,0.149 3.635,0.077 L 4.034,0.027 V -0.357 H 0.151 Z"
             style="fill:#802528;fill-opacity:1;fill-rule:nonzero;stroke:none"
             id="path1636"
             inkscape:connector-curvature="0" />
        </g>
        <g
           id="g1638"
           transform="translate(125.7864,524.3376)">
          <path
             d="M 0,0 H 3.883 3.966 V 0.083 0.467 0.54 L 3.893,0.549 3.494,0.6 C 2.918,0.664 2.782,0.678 2.782,1.79 V 6.493 L 2.764,6.442 c 0.472,0.604 1.053,0.909 1.728,0.909 1.991,0 1.991,-1.571 1.991,-3.235 V 1.79 C 6.483,0.681 6.321,0.662 5.789,0.6 L 5.371,0.549 5.298,0.54 V 0.467 0.083 0 H 5.381 9.263 9.346 V 0.083 0.467 0.54 L 9.274,0.549 8.874,0.6 C 8.299,0.663 8.163,0.678 8.163,1.79 v 2.588 c 0,1.021 0,1.982 -0.348,2.72 C 7.422,7.931 6.621,8.336 5.364,8.336 4.065,8.336 3.101,7.635 2.643,7.217 L 2.782,7.155 V 8.253 8.336 H 2.699 c -0.72,0 -2.703,-0.607 -2.723,-0.613 L -0.094,7.701 -0.082,7.629 -0.01,7.211 0.005,7.121 0.093,7.145 0.475,7.25 0.453,7.247 c 0.018,0 0.044,0.003 0.08,0.006 0.05,0.005 0.114,0.011 0.164,0.011 0.39,0 0.404,-0.402 0.404,-2.103 V 1.79 c 0,-1.117 -0.217,-1.186 -0.752,-1.249 0.007,0 -0.504,-0.018 -0.504,-0.018 L -0.275,0.517 -0.227,0.407 -0.076,0.05 -0.055,0 Z m -0.148,0.357 0.511,0.019 c 0.68,0.079 0.904,0.295 0.904,1.414 v 3.371 c 0,1.742 0,2.269 -0.57,2.269 C 0.637,7.43 0.567,7.423 0.516,7.418 0.491,7.415 0.462,7.412 0.453,7.412 H 0.441 L 0.431,7.409 0.049,7.305 0.153,7.238 0.081,7.658 0.024,7.565 C 0.707,7.774 2.142,8.17 2.699,8.17 L 2.616,8.253 V 7.155 6.968 L 2.755,7.094 C 3.293,7.585 4.182,8.17 5.364,8.17 7.997,8.17 7.997,6.409 7.997,4.378 V 1.79 c 0,-1.144 0.163,-1.279 0.857,-1.354 -10e-4,0 0.399,-0.052 0.399,-0.052 L 9.181,0.467 V 0.083 L 9.263,0.166 H 5.381 L 5.464,0.083 V 0.467 L 5.391,0.384 5.809,0.436 c 0.67,0.077 0.84,0.221 0.84,1.354 v 2.326 c 0,1.594 0,3.401 -2.157,3.401 C 3.764,7.517 3.139,7.19 2.633,6.545 L 2.616,6.522 V 6.493 1.79 c 0,-1.144 0.162,-1.278 0.858,-1.354 -0.001,0 0.398,-0.052 0.398,-0.052 L 3.8,0.467 V 0.083 L 3.883,0.166 H 0 l 0.076,-0.05 -0.151,0.356 z"
             style="fill:#802528;fill-opacity:1;fill-rule:nonzero;stroke:none"
             id="path1640"
             inkscape:connector-curvature="0" />
        </g>
        <g
           id="g1642"
           transform="translate(141.144,531.3714)">
          <path
             d="m 0,0 c -0.418,0.383 -0.993,0.611 -1.741,0.611 -1.621,0 -2.77,-1.221 -2.77,-3.354 0,-2.205 1.376,-3.651 3.134,-3.651 0.523,0 1.166,0.261 1.377,0.384 z M 2.785,-6.584 C 1.984,-6.95 1.026,-7.142 0.435,-7.212 0.313,-7.02 0.208,-6.725 0.103,-6.498 c -0.4,-0.208 -1.149,-0.714 -2.35,-0.714 -1.811,0 -3.866,1.097 -3.866,3.86 0,3.317 2.769,4.571 4.859,4.571 0.417,0 0.87,-0.036 1.254,-0.156 v 1.723 c 0,1.375 0,2.177 -0.628,2.177 -0.087,0 -0.209,-0.018 -0.243,-0.018 L -1.132,4.91 -1.185,5.294 c 0.557,0.12 1.968,0.278 2.698,0.278 V -4.931 c 0,-0.922 0.105,-1.322 0.576,-1.322 0.069,0 0.209,0 0.278,0.017 l 0.313,0.051 z"
             style="fill:#802528;fill-opacity:1;fill-rule:nonzero;stroke:none"
             id="path1644"
             inkscape:connector-curvature="0" />
        </g>
        <g
           id="g1646"
           transform="translate(143.8106,525.2678)">
          <path
             d="m 0,0 -0.313,-0.052 c -0.066,-0.015 -0.205,-0.015 -0.264,-0.015 -0.379,0 -0.494,0.29 -0.494,1.24 v 10.503 0.083 h -0.083 c -0.732,0 -2.151,-0.158 -2.716,-0.281 l -0.075,-0.016 0.011,-0.076 0.053,-0.384 0.012,-0.081 0.082,0.011 0.259,0.034 -0.01,-10e-4 c 0.018,0 0.044,0.003 0.081,0.007 0.051,0.005 0.114,0.011 0.162,0.011 0.523,0 0.545,-0.642 0.545,-2.094 V 7.167 l 0.108,0.079 c -0.34,0.106 -0.769,0.16 -1.279,0.16 -1.193,0 -2.382,-0.386 -3.263,-1.06 -1.098,-0.84 -1.678,-2.078 -1.678,-3.595 0,-2.721 1.983,-3.942 3.948,-3.942 1.075,0 1.796,0.398 2.228,0.635 0.057,0.033 0.113,0.063 0.161,0.089 l -0.114,0.038 c 0.033,-0.071 0.065,-0.149 0.1,-0.23 0.074,-0.175 0.15,-0.357 0.237,-0.494 l 0.028,-0.044 0.052,0.006 c 0.313,0.038 1.408,0.193 2.375,0.634 L 0.217,-0.528 0.2,-0.46 0.094,-0.06 0.075,0.013 Z M 0.084,-0.405 C -0.861,-0.837 -1.935,-0.99 -2.242,-1.026 l 0.08,-0.039 c -0.079,0.126 -0.153,0.301 -0.224,0.47 -0.035,0.084 -0.068,0.162 -0.102,0.236 l -0.036,0.079 -0.077,-0.04 c -0.05,-0.027 -0.107,-0.058 -0.166,-0.09 -0.416,-0.231 -1.114,-0.615 -2.147,-0.615 -1.882,0 -3.782,1.169 -3.782,3.776 0,3.082 2.475,4.489 4.775,4.489 0.493,0 0.907,-0.051 1.23,-0.153 l 0.107,-0.033 v 0.113 1.722 c 0,1.41 0,2.26 -0.711,2.26 -0.057,0 -0.124,-0.007 -0.179,-0.012 C -3.5,11.134 -3.529,11.131 -3.538,11.131 H -3.544 L -3.55,11.13 -3.809,11.096 -3.716,11.025 -3.77,11.409 -3.834,11.316 c 0.556,0.121 1.957,0.277 2.68,0.277 l -0.083,0.083 V 1.173 c 0,-0.769 0.049,-1.406 0.66,-1.406 0.075,0 0.218,0 0.296,0.019 -0.005,-0.001 0.308,0.051 0.308,0.051 l -0.094,0.06 0.106,-0.399 z"
             style="fill:#802528;fill-opacity:1;fill-rule:nonzero;stroke:none"
             id="path1648"
             inkscape:connector-curvature="0" />
        </g>
        <g
           id="g1650"
           transform="translate(141.1013,525.4337)">
          <path
             d="m 0,0 c -0.213,-0.127 -0.844,-0.374 -1.335,-0.374 -1.767,0 -3.05,1.504 -3.05,3.568 0,2.014 1.029,3.271 2.687,3.271 0.691,0 1.258,-0.198 1.685,-0.589 l -0.028,0.062 v -6.01 z m 0.099,5.999 c -0.458,0.419 -1.063,0.632 -1.797,0.632 -1.734,0 -2.853,-1.352 -2.853,-3.437 0,-2.16 1.353,-3.733 3.216,-3.733 0.529,0 1.186,0.258 1.419,0.396 l 0.041,0.024 v 0.047 6.01 0.036 z"
             style="fill:#802528;fill-opacity:1;fill-rule:nonzero;stroke:none"
             id="path1652"
             inkscape:connector-curvature="0" />
        </g>
        <g
           id="g1654"
           transform="translate(148.9986,529.9822)">
          <path
             d="m 0,0 c 0,0.779 -0.556,2.033 -1.689,2.033 -0.662,0 -1.114,-0.47 -1.114,-1.235 0,-1.978 3.867,-1.403 3.867,-4.182 0,-1.655 -1.359,-2.439 -3.015,-2.439 -1.129,0 -1.74,0.297 -2.211,0.506 -0.26,0.782 -0.33,1.654 -0.33,2.333 h 0.47 c 0.348,-1.132 0.942,-2.265 2.333,-2.265 0.784,0 1.237,0.68 1.237,1.29 0,2.361 -3.865,1.529 -3.865,4.358 0,1.426 1.27,2.21 2.785,2.21 0.923,0 1.464,-0.28 1.845,-0.506 C 0.488,1.476 0.541,0.92 0.541,0 Z"
             style="fill:#802528;fill-opacity:1;fill-rule:nonzero;stroke:none"
             id="path1656"
             inkscape:connector-curvature="0" />
        </g>
        <g
           id="g1658"
           transform="translate(149.6217,529.9822)">
          <path
             d="m 0,0 c 0,0.958 -0.06,1.515 -0.23,2.125 l -0.009,0.032 -0.029,0.017 c -0.453,0.269 -0.995,0.518 -1.887,0.518 -1.715,0 -2.868,-0.922 -2.868,-2.293 0,-1.531 1.122,-2.041 2.112,-2.491 0.901,-0.407 1.752,-0.791 1.752,-1.867 0,-0.593 -0.431,-1.206 -1.153,-1.206 -1.397,0 -1.938,1.177 -2.254,2.205 l -0.018,0.057 h -0.061 -0.47 -0.083 v -0.081 c 0,-0.619 0.059,-1.53 0.334,-2.359 l 0.011,-0.033 0.034,-0.017 0.062,-0.027 c 0.457,-0.205 1.084,-0.486 2.183,-0.486 1.911,0 3.097,0.966 3.097,2.522 0,1.556 -1.182,2.101 -2.226,2.58 -0.879,0.404 -1.64,0.751 -1.64,1.602 0,0.7 0.405,1.152 1.031,1.152 1.034,0 1.606,-1.156 1.606,-1.95 V -0.082 H -0.623 -0.082 0 Z m -0.541,0 c 0,0.884 -0.615,2.116 -1.771,2.116 -0.727,0 -1.197,-0.518 -1.197,-1.318 0,-0.957 0.844,-1.342 1.737,-1.753 1.047,-0.481 2.13,-0.979 2.13,-2.429 0,-1.737 -1.514,-2.356 -2.932,-2.356 -1.063,0 -1.647,0.261 -2.116,0.472 l -0.061,0.028 0.045,-0.051 c -0.269,0.808 -0.326,1.7 -0.326,2.307 l -0.083,-0.083 h 0.47 l -0.079,0.058 c 0.306,-0.996 0.889,-2.322 2.412,-2.322 0.826,0 1.319,0.697 1.319,1.372 0,1.182 -0.939,1.606 -1.849,2.018 -0.991,0.45 -2.016,0.916 -2.016,2.34 0,1.468 1.357,2.127 2.703,2.127 0.852,0 1.37,-0.238 1.803,-0.495 L -0.39,2.08 C -0.224,1.487 -0.166,0.941 -0.166,0 l 0.084,0.082 h -0.541 z"
             style="fill:#802528;fill-opacity:1;fill-rule:nonzero;stroke:none"
             id="path1660"
             inkscape:connector-curvature="0" />
        </g>
        <g
           id="g1662"
           transform="translate(87.5148,541.9984)">
          <path
             d="m 0,0 h 0.607 v -1.443 c 0,-0.426 0.164,-0.705 0.627,-0.705 0.464,0 0.629,0.279 0.629,0.705 V 0 H 2.469 V -1.597 C 2.469,-2.266 2.01,-2.542 1.234,-2.542 0.459,-2.542 0,-2.266 0,-1.597 Z"
             style="fill:#000000;fill-opacity:1;fill-rule:nonzero;stroke:none"
             id="path1664"
             inkscape:connector-curvature="0" />
        </g>
        <g
           id="g1666"
           transform="translate(93.2757,541.9984)">
          <path
             d="M 0,0 H 0.745 L 1.897,-1.869 H 1.905 V 0 h 0.58 V -2.499 H 1.745 L 0.589,-0.631 H 0.58 V -2.499 H 0 Z"
             style="fill:#000000;fill-opacity:1;fill-rule:nonzero;stroke:none"
             id="path1668"
             inkscape:connector-curvature="0" />
        </g>
        <path
           d="m 99.022,541.998 h 0.606 v -2.499 h -0.606 z"
           style="fill:#000000;fill-opacity:1;fill-rule:nonzero;stroke:none"
           id="path1670"
           inkscape:connector-curvature="0" />
        <g
           id="g1672"
           transform="translate(102.613,541.9984)">
          <path
             d="M 0,0 H 0.649 L 1.425,-1.962 H 1.433 L 2.2,0 H 2.802 L 1.785,-2.499 H 1.04 Z"
             style="fill:#000000;fill-opacity:1;fill-rule:nonzero;stroke:none"
             id="path1674"
             inkscape:connector-curvature="0" />
        </g>
        <g
           id="g1676"
           transform="translate(108.4424,541.9984)">
          <path
             d="M 0,0 H 1.786 V -0.394 H 0.607 V -1.009 H 1.685 V -1.403 H 0.607 V -2.105 H 1.793 V -2.499 H 0 Z"
             style="fill:#000000;fill-opacity:1;fill-rule:nonzero;stroke:none"
             id="path1678"
             inkscape:connector-curvature="0" />
        </g>
        <g
           id="g1680"
           transform="translate(114.047,540.9312)">
          <path
             d="M 0,0 H 0.2 C 0.498,0 0.84,0.036 0.84,0.347 0.84,0.648 0.502,0.673 0.2,0.673 H 0 Z m -0.607,1.067 h 0.655 c 0.65,0 1.426,0.018 1.426,-0.677 0,-0.294 -0.239,-0.537 -0.625,-0.58 V -0.197 C 1.013,-0.208 1.108,-0.344 1.17,-0.454 L 1.655,-1.431 H 0.979 l -0.363,0.78 C 0.529,-0.465 0.45,-0.394 0.194,-0.394 H 0 v -1.037 h -0.607 z"
             style="fill:#000000;fill-opacity:1;fill-rule:nonzero;stroke:none"
             id="path1682"
             inkscape:connector-curvature="0" />
        </g>
        <g
           id="g1684"
           transform="translate(120.4049,541.5396)">
          <path
             d="m 0,0 c -0.191,0.068 -0.402,0.107 -0.615,0.107 -0.209,0 -0.476,-0.075 -0.476,-0.347 0,-0.433 1.325,-0.25 1.325,-1.088 0,-0.548 -0.525,-0.755 -1.134,-0.755 -0.33,0 -0.476,0.036 -0.777,0.097 l 0.057,0.451 c 0.208,-0.094 0.446,-0.154 0.685,-0.154 0.229,0 0.537,0.096 0.537,0.322 0,0.476 -1.326,0.279 -1.326,1.106 0,0.558 0.525,0.762 1.057,0.762 0.26,0 0.503,-0.028 0.724,-0.089 z"
             style="fill:#000000;fill-opacity:1;fill-rule:nonzero;stroke:none"
             id="path1686"
             inkscape:connector-curvature="0" />
        </g>
        <path
           d="m 123.78,541.998 h 0.606 v -2.499 h -0.606 z"
           style="fill:#000000;fill-opacity:1;fill-rule:nonzero;stroke:none"
           id="path1688"
           inkscape:connector-curvature="0" />
        <g
           id="g1690"
           transform="translate(128.2268,541.6039)">
          <path
             d="M 0,0 H -0.866 V 0.394 H 1.473 V 0 H 0.607 V -2.104 H 0 Z"
             style="fill:#000000;fill-opacity:1;fill-rule:nonzero;stroke:none"
             id="path1692"
             inkscape:connector-curvature="0" />
        </g>
        <g
           id="g1694"
           transform="translate(133.5282,540.4874)">
          <path
             d="m 0,0 -1.105,1.511 h 0.71 L 0.321,0.462 1.047,1.511 H 1.689 L 0.606,0 V -0.988 H 0 Z"
             style="fill:#000000;fill-opacity:1;fill-rule:nonzero;stroke:none"
             id="path1696"
             inkscape:connector-curvature="0" />
        </g>
        <g
           id="g1698"
           transform="translate(143.4363,539.8504)">
          <path
             d="M 0,0 C 0.62,0 0.85,0.454 0.85,0.905 0.85,1.345 0.603,1.796 0,1.796 -0.602,1.796 -0.847,1.345 -0.847,0.905 -0.847,0.454 -0.618,0 0,0 m 0,2.19 c 0.949,0 1.482,-0.53 1.482,-1.285 0,-0.754 -0.523,-1.299 -1.482,-1.299 -0.97,0 -1.481,0.534 -1.481,1.299 0,0.766 0.52,1.285 1.481,1.285"
             style="fill:#000000;fill-opacity:1;fill-rule:nonzero;stroke:none"
             id="path1700"
             inkscape:connector-curvature="0" />
        </g>
        <g
           id="g1702"
           transform="translate(148.1142,541.9984)">
          <path
             d="M 0,0 H 1.681 V -0.394 H 0.606 V -1.009 H 1.629 V -1.403 H 0.606 V -2.499 H 0 Z"
             style="fill:#000000;fill-opacity:1;fill-rule:nonzero;stroke:none"
             id="path1704"
             inkscape:connector-curvature="0" />
        </g>
        <g
           id="g1706"
           transform="translate(69.6485,532.8675)">
          <path
             d="m 0,0 h -1.542 v 8.198 c 0.541,0.108 1.109,0.216 1.677,0.216 2.11,0 4.194,-0.973 4.194,-4.139 C 4.329,1.217 2.273,0 0,0 M 8.559,-7.132 C 7.632,-6.555 6.601,-5.695 5.465,-3.671 4.735,-2.38 3.841,-0.649 3.436,0.109 4.924,0.812 7.169,2.3 7.169,4.816 7.169,5.113 7.145,5.385 7.11,5.643 6.655,8.921 3.468,9.295 1.094,9.306 c -0.04,0 -0.081,0.001 -0.12,0.001 H -6.087 V 8.712 l 0.973,-0.081 c 1.056,-0.109 1.056,-0.244 1.056,-3.545 v -9.407 c 0,-3.294 0,-3.429 -1.056,-3.537 L -6.087,-7.939 V -8.535 H 0.46 v 0.596 l -0.974,0.081 c -1.028,0.108 -1.028,0.243 -1.028,3.537 v 3.564 h 1.001 c 0.568,0 1.244,0 1.677,-0.352 0.352,-0.298 0.975,-1.324 1.677,-2.643 L 3.896,-5.83 c 0.812,-1.487 2.056,-2.705 3.841,-2.705 h 2.084 l 5.242,-0.005 v 10e-4 c -0.279,0.027 -5.304,0.661 -6.504,1.407"
             style="fill:#000000;fill-opacity:1;fill-rule:nonzero;stroke:none"
             id="path1708"
             inkscape:connector-curvature="0" />
        </g>
        <g
           id="g1710"
           transform="translate(70.742,542.1736)">
          <path
             d="m 0,0 c 2.374,-0.011 5.561,-0.385 6.016,-3.663 6.854,-5.251 7.952,-14.172 7.953,-14.182 V 0 Z"
             style="fill:#802528;fill-opacity:1;fill-rule:nonzero;stroke:none"
             id="path1712"
             inkscape:connector-curvature="0" />
        </g>
      </g>
    </g>
  </g>
</svg>
