<svg id="Layer_1" data-name="Layer 1" xmlns="http://www.w3.org/2000/svg" viewBox="0 0 296.52 135.55">
  <title>FB&amp;amp;T LOGO 4c+name 2</title>
  <path d="M171.49,360.2v15.18h23l3.83,22.84H171.49v33.37H143.73V337.22h59.63v23Z" transform="translate(-143.72 -337.22)" fill="#00548e"/>
  <path d="M246.71,431.59H211.29V337.22H247.4c21.88,0,32.82,8.75,32.82,24.48,0,10.53-6.29,16.82-13.68,20.1,10.26,3.42,17,9.71,17,22.7C283.5,422.42,269.55,431.59,246.71,431.59Zm-1.5-75.08h-7.52v18.19h7.11c7.25,0,10.94-3.69,10.94-9.44C255.74,359.92,252.6,356.5,245.21,356.5Zm-.14,35.29h-7.39V412.3h7.52c7.66,0,12.17-3.42,12.17-10.12S253.14,391.79,245.07,391.79Z" transform="translate(-143.72 -337.22)" fill="#00548e"/>
  <path d="M334.93,424.61A32.9,32.9,0,0,1,313,433.37c-16.27,0-23.39-12.72-23.39-23.39,0-14,11.63-22.57,21.75-28.86-3.56-6.43-8.75-14.09-8.75-21.75,0-10.53,6.56-17.51,20-17.78,14.09-.27,21.06,6.7,21.06,14.77,0,9.71-9,15.59-16.55,19.83l18.05,32c6-7.66,8.2-17.64,8.07-27.35h-8.07v-3.28h19.28v3.28h-7.25c-.27,10.26-2.33,20.79-10,31.18l9,16.28h8.21v3.28H338.21Zm-22-40.35c-6.43,4.79-9.16,6.7-9.16,13.54,0,5.61,9,28.31,18.6,28.31,5.47,0,9.3-2.6,10.67-4.65Zm13-10.53c3.42-3.15,4-8.89,4-13.4,0-11.76-1.78-15.45-7.79-15.45a6.29,6.29,0,0,0-6.43,6.56c0,2.6,1.09,6.15,3.14,9.85Z" transform="translate(-143.72 -337.22)" fill="#00ae9b"/>
  <path d="M413.85,360.47v71.12h-28V360.47h-25.3V337.22h75.9l3.83,23.25Z" transform="translate(-143.72 -337.22)" fill="#00548e"/>
  <g>
    <path d="M145.67,451.41v8.92h7.56l.23,1.43h-7.79v10.68h-1.56V450H155v1.43Z" transform="translate(-143.72 -337.22)" fill="#00548e"/>
    <path d="M159.85,472.45V450h1.56v22.47Z" transform="translate(-143.72 -337.22)" fill="#00548e"/>
    <path d="M180.64,472.67l-7.43-10.29h-3.5v10.06h-1.56V450h5.29c4.38,0,7,2.34,7,6.06,0,3.48-2.6,5.6-5.52,6.15l7.33,10.13Zm-7.3-21.29h-3.63V461h3.21c3.63,0,5.94-1.86,5.94-4.92S177,451.38,173.34,451.38Z" transform="translate(-143.72 -337.22)" fill="#00548e"/>
    <path d="M191.09,472.71a12.31,12.31,0,0,1-5.71-1.34l.23-1.6a10.93,10.93,0,0,0,5.58,1.53c2.85,0,5.13-1.76,5.13-4.56,0-2.34-1.3-3.68-4.7-5.14-4.35-1.86-5.87-3.35-5.87-6.41s2.69-5.47,6.1-5.47a9.64,9.64,0,0,1,4.83,1.11l-.23,1.56a9,9,0,0,0-4.67-1.27c-2.69,0-4.44,1.79-4.44,4s1.27,3.39,4.77,4.88c4,1.69,5.84,3.42,5.84,6.64C197.93,470.46,194.78,472.71,191.09,472.71Z" transform="translate(-143.72 -337.22)" fill="#00548e"/>
    <path d="M209.29,451.41v21h-1.56v-21h-7.27V450h16l.19,1.43Z" transform="translate(-143.72 -337.22)" fill="#00548e"/>
    <path d="M233.32,472.45h-5V450h5c4.35,0,6.65,2.15,6.65,5.44a5.41,5.41,0,0,1-3.57,5.11c2.79.75,4.57,2.47,4.57,5.54C241,470.17,237.8,472.45,233.32,472.45Zm-.06-21.07h-3.37V460h3.41c3.37,0,5.09-2.08,5.09-4.53S236.6,451.38,233.26,451.38Zm.06,10h-3.44V471h3.57c3.6,0,5.94-1.86,5.94-4.82C239.39,462.81,236.93,461.34,233.32,461.34Z" transform="translate(-143.72 -337.22)" fill="#00548e"/>
    <path d="M253,449.85h1.69l8.89,22.47-1.56.36-3.08-7.91H248.7l-3,7.68H244.1Zm-3.76,13.51h9.15l-4.57-11.75Z" transform="translate(-143.72 -337.22)" fill="#00548e"/>
    <path d="M283.54,472.45l-13.72-20.09v20.09h-1.49V450h1.59l13.37,19.54V450h1.49v22.47Z" transform="translate(-143.72 -337.22)" fill="#00548e"/>
    <path d="M305,472.67l-12.2-12v11.75h-1.56V450h1.56v10.35L304.08,450h2.11l-11.55,10.45,12.2,11.85Z" transform="translate(-143.72 -337.22)" fill="#00548e"/>
    <path d="M334.87,472.64,331,468.74a8.86,8.86,0,0,1-7.4,4c-4.19,0-6.88-2.64-6.88-6.09s2.3-5.47,5.51-6.84c-1.65-1.76-2.47-3.09-2.47-5.14,0-2.87,2.21-5,5.65-5a9.93,9.93,0,0,1,5.09,1.43l-.36,1.6a9.1,9.1,0,0,0-4.8-1.63c-2.5,0-4,1.56-4,3.55,0,1.73.68,2.93,2.5,4.79l6.88,7a22,22,0,0,0,2.08-7.07l1.53.33a24.79,24.79,0,0,1-2.56,7.81l4.7,4.75ZM330,467.73l-6.78-6.87c-3.08,1.2-4.9,3.13-4.9,5.76s2.21,4.75,5.29,4.75A7.5,7.5,0,0,0,330,467.73Z" transform="translate(-143.72 -337.22)" fill="#00548e"/>
    <path d="M354.62,451.41v21h-1.56v-21H345.8V450h16l.2,1.43Z" transform="translate(-143.72 -337.22)" fill="#00548e"/>
    <path d="M378.69,472.67l-7.43-10.29h-3.5v10.06H366.2V450h5.29c4.38,0,7,2.34,7,6.06,0,3.48-2.6,5.6-5.52,6.15l7.33,10.13Zm-7.3-21.29h-3.63V461H371c3.63,0,5.94-1.86,5.94-4.92S375,451.38,371.39,451.38Z" transform="translate(-143.72 -337.22)" fill="#00548e"/>
    <path d="M392,472.77c-5.13,0-8.11-3.61-8.11-8.63V450h1.56v13.94c0,4.4,2.3,7.46,6.62,7.46s6.62-2.9,6.62-7.29V450h1.56v14C400.2,469.22,397.12,472.77,392,472.77Z" transform="translate(-143.72 -337.22)" fill="#00548e"/>
    <path d="M410.84,472.71a12.32,12.32,0,0,1-5.71-1.34l.23-1.6a10.94,10.94,0,0,0,5.58,1.53c2.85,0,5.13-1.76,5.13-4.56,0-2.34-1.3-3.68-4.7-5.14-4.35-1.86-5.87-3.35-5.87-6.41s2.69-5.47,6.1-5.47a9.65,9.65,0,0,1,4.83,1.11l-.23,1.56a9,9,0,0,0-4.67-1.27c-2.69,0-4.44,1.79-4.44,4s1.27,3.39,4.77,4.88c4,1.69,5.84,3.42,5.84,6.64C417.69,470.46,414.54,472.71,410.84,472.71Z" transform="translate(-143.72 -337.22)" fill="#00548e"/>
    <path d="M429,451.41v21h-1.56v-21h-7.27V450h16l.2,1.43Z" transform="translate(-143.72 -337.22)" fill="#00548e"/>
  </g>
  <line y1="104.39" x2="292.97" y2="104.39" fill="none" stroke="#00ae9b" stroke-width="2"/>
</svg>
