<?xml version="1.0" encoding="UTF-8" standalone="no"?>
<!-- Created with Inkscape (http://www.inkscape.org/) -->
<svg
   xmlns:dc="http://purl.org/dc/elements/1.1/"
   xmlns:cc="http://web.resource.org/cc/"
   xmlns:rdf="http://www.w3.org/1999/02/22-rdf-syntax-ns#"
   xmlns:svg="http://www.w3.org/2000/svg"
   xmlns="http://www.w3.org/2000/svg"
   xmlns:sodipodi="http://sodipodi.sourceforge.net/DTD/sodipodi-0.dtd"
   xmlns:inkscape="http://www.inkscape.org/namespaces/inkscape"
   width="225.98659"
   height="100"
   version="1.0"
   id="svg2"
   sodipodi:version="0.32"
   inkscape:version="0.45.1"
   inkscape:output_extension="org.inkscape.output.svg.inkscape">
  <metadata
     id="metadata10">
    <rdf:RDF>
      <cc:Work
         rdf:about="">
        <dc:format>image/svg+xml</dc:format>
        <dc:type
           rdf:resource="http://purl.org/dc/dcmitype/StillImage" />
      </cc:Work>
    </rdf:RDF>
  </metadata>
  <defs
     id="defs8" />
  <sodipodi:namedview
     inkscape:window-height="579"
     inkscape:window-width="756"
     inkscape:pageshadow="2"
     inkscape:pageopacity="0.0"
     borderopacity="1.0"
     bordercolor="#666666"
     pagecolor="#ffffff"
     id="base"
     inkscape:zoom="2.8098392"
     inkscape:cx="111.39235"
     inkscape:cy="51.063806"
     inkscape:window-x="13"
     inkscape:window-y="36"
     inkscape:current-layer="svg2" />
  <g
     id="g2161">
    <path
       style="fill:#f11f22;fill-rule:nonzero;stroke:none"
       id="path101"
       d="M 184.564,82.602806 L 184.23554,83.540351 L 161.58139,100 L 0,100 L 0,23.711276 L 0.56603491,22.62704 L 0.56603491,14.742416 L 0,13.774576 L 0,3.5297717e-015 L 161.58139,3.5297717e-015 L 223.38919,44.904891 C 224.96294,46.049716 225.98658,47.90408 225.98658,49.999205 C 225.98658,52.094331 224.95018,53.950286 223.38761,55.093517 L 189.50364,79.712043 L 188.33012,79.866706 L 184.564,82.602806" />
    <path
       style="fill:#ffffff;fill-rule:nonzero;stroke:none"
       id="path103"
       d="M 109.25268,80.273294 L 106.66486,50.710336 L 100.06219,51.287532 L 99.236256,41.851494 L 119.67888,40.064098 L 123.09264,79.063096 L 129.90736,78.466765 L 130.7604,88.216915 L 103.18734,90.629338 L 102.3343,80.877595 L 109.25268,80.273294 z M 78.587946,70.91379 C 76.261622,70.905817 74.156931,70.982351 72.375914,71.13861 C 63.778562,71.889602 59.682385,74.573084 60.068246,78.976994 C 60.434973,83.170436 63.26674,85.353257 67.983166,84.940291 C 74.797904,84.343962 78.902055,79.337343 78.587946,70.91379 z M 99.567904,90.945041 L 80.486952,92.614445 L 79.908162,86.008581 C 76.497604,91.696033 71.58187,94.660144 64.556663,95.274012 C 54.074655,96.190828 46.70026,90.393356 45.891866,81.167788 C 45.002155,70.998297 51.694121,64.180368 65.113129,63.006842 L 77.798686,61.897096 L 77.468633,58.122998 C 77.156117,54.557777 73.35332,52.14376 67.482504,52.657177 C 62.136266,53.124355 59.315658,55.906694 59.396976,60.442944 L 46.500952,61.570229 C 46.330342,49.964127 52.521648,44.668912 66.465235,43.450741 C 82.189841,42.074719 89.561047,46.60778 90.614988,58.663523 L 92.633579,81.727446 L 98.714866,81.194893 L 99.567904,90.945041 z M 163.87104,25.82713 L 157.15994,26.413892 L 156.32604,16.872619 L 176.76866,15.085226 L 181.91878,73.91776 L 188.94399,73.303892 L 189.50364,79.712043 L 184.23554,83.540351 L 170.40037,84.750549 L 169.54733,75.000401 C 165.80513,82.932861 160.44613,86.88713 152.58383,87.574346 C 140.42285,88.637852 130.66792,79.774226 129.25363,63.630279 C 127.84093,47.484736 135.32375,37.63892 148.53389,36.482933 C 155.13976,35.905737 160.8304,38.15393 165.39535,43.248245 L 163.87104,25.82713 z M 143.51292,62.383408 C 144.34683,71.921492 149.57029,77.2757 156.59391,76.661832 C 163.51229,76.055937 167.8301,69.867822 166.99619,60.328143 C 166.14315,50.579589 160.93882,45.434255 153.91361,46.048123 C 146.47065,46.698665 142.64075,52.422791 143.51292,62.383408 z M 10.362422,17.118168 C 10.47244,15.013474 9.2989147,13.635858 7.4015024,13.537 C 5.1931697,13.420604 3.7198847,15.142625 3.5476826,18.420845 C 3.3722917,21.767623 4.7212082,23.74157 6.8960573,23.854778 C 8.4490652,23.936094 9.6034573,23.028845 10.037151,21.356252 L 14.004178,21.563533 C 13.562511,25.382273 10.930051,27.423188 6.7557445,27.204745 C 3.5285491,27.034138 1.2516545,25.835103 0,23.711276 L 0,13.776169 C 1.2819493,11.35099 3.5508716,10.083391 6.2598662,10.225298 C 8.3645586,10.335317 9.973373,11.354179 10.81525,13.09374 L 10.926862,10.953969 L 14.377283,11.134143 L 14.055201,17.311096 L 10.362422,17.118168 z M 50.185758,12.956615 L 50.023122,16.056254 L 49.017015,16.006826 C 45.566595,15.825057 43.898786,17.948883 43.681939,22.089705 L 43.504952,25.471564 L 45.781849,25.589554 L 45.614428,28.799211 L 36.540334,28.32406 L 36.707752,25.114404 L 38.984647,25.233989 L 39.494876,15.50457 L 37.32162,15.389767 L 37.484255,12.283752 L 44.177817,12.636128 L 44.026342,15.533268 C 45.38961,13.28667 47.039879,12.793981 49.179651,12.905593 L 50.185758,12.956615 z M 14.836488,27.185613 L 15.005501,23.975957 L 17.178756,24.090758 L 18.027011,7.9085429 L 15.852162,7.7937395 L 16.017986,4.6542399 L 22.607906,5.0002387 L 22.134351,14.039256 C 23.727219,12.04777 25.533747,11.242567 28.016327,11.373314 C 31.88131,11.575811 33.4678,13.664556 33.250955,17.805381 L 32.877848,24.9135 L 35.01762,25.025113 L 34.850202,28.234769 L 25.70595,27.754837 L 25.873368,24.546774 L 28.324059,24.674332 L 28.69557,17.567806 C 28.786454,15.841 27.809048,14.683421 26.118917,14.595725 C 23.840426,14.476139 22.132756,16.046686 22.000415,18.56594 L 21.699061,24.326738 L 24.148158,24.455889 L 23.98074,27.665545 L 14.836488,27.185613 z M 53.363525,25.988171 L 53.873754,16.26194 L 51.700499,16.147139 L 51.863133,13.045906 L 58.593366,13.399876 L 57.918907,26.227339 L 60.160724,26.343736 L 59.993305,29.553392 L 50.919212,29.078242 L 51.08663,25.868585 L 53.363525,25.988171 z M 58.711356,11.079932 L 53.950288,10.8296 L 54.189456,6.2758105 L 58.950527,6.5245474 L 58.711356,11.079932 z M 65.390567,29.937658 L 61.975225,29.759078 L 62.278173,23.961606 L 65.693514,24.140187 C 66.114454,26.03122 67.203473,27.022976 69.032322,27.118645 C 70.411534,27.190397 71.310812,26.546233 71.358646,25.648549 C 71.420829,24.441541 70.02089,24.090758 67.227389,23.252069 C 63.786535,22.24118 62.313251,21.29885 62.482265,18.09079 C 62.636926,15.123493 64.945711,13.307398 68.569929,13.497138 C 70.502418,13.597591 71.844958,14.359743 72.741046,15.756493 L 72.825553,14.134925 L 76.10377,14.307125 L 75.832712,19.482758 L 72.554495,19.310555 C 72.395047,17.744791 71.23906,16.681284 69.410211,16.585615 C 68.099561,16.517054 67.273629,17.095844 67.227389,17.993528 C 67.154044,19.374334 68.730968,19.664525 71.903953,20.522348 C 74.939813,21.338713 76.28235,22.792865 76.134066,25.621444 C 75.97143,28.727458 73.62119,30.645599 70.102208,30.460642 C 67.928953,30.347436 66.415806,29.507152 65.497395,27.901527 L 65.390567,29.937658 z M 89.460597,18.218348 L 85.217728,17.996716 L 84.771278,26.519127 C 84.718661,27.518855 85.002474,28.017924 85.796518,28.060973 C 86.762762,28.110402 87.247481,27.443916 87.317636,26.098188 L 87.341554,25.650145 L 90.136648,25.796835 C 90.152594,26.142832 90.168538,26.490426 90.152594,26.799752 C 89.989958,29.905768 88.110086,31.468344 84.935508,31.300925 C 81.520164,31.122345 80.03572,29.730377 80.190382,26.76308 L 80.662343,17.757546 L 78.109606,17.623612 L 78.275432,14.449034 L 80.828169,14.582968 L 80.995587,11.40839 L 85.637072,9.9909113 L 85.383551,14.822138 L 89.628015,15.045363 L 89.460597,18.218348 z M 120.72963,32.763048 L 120.89705,29.554985 L 123.07031,29.668193 L 123.58053,19.938774 L 121.40728,19.823973 L 121.56991,16.719551 L 128.15982,17.06555 L 128.02589,19.618287 C 129.61717,17.625205 131.42369,16.820002 133.90787,16.950747 C 137.77285,17.153246 139.35934,19.243587 139.14249,23.38441 L 138.76939,30.492531 L 140.90916,30.604143 L 140.74015,33.8138 L 131.59749,33.333865 L 131.76491,30.124209 L 134.2156,30.25336 L 134.58711,23.145241 C 134.67799,21.420031 133.70059,20.262449 132.01046,20.17316 C 129.73197,20.053575 128.0243,21.625717 127.89196,24.143375 L 127.5906,29.905768 L 130.0397,30.03492 L 129.87228,33.242981 L 120.72963,32.763048 z M 119.0379,32.675352 L 112.75731,32.345297 L 112.87211,30.172044 C 111.50247,31.863769 109.76929,32.603603 107.45731,32.482422 C 104.00689,32.302248 101.87509,30.079564 102.03454,27.043706 C 102.20993,23.696926 104.69729,21.785162 109.11237,22.01636 L 113.28827,22.236396 L 113.35205,20.994309 C 113.41423,19.820784 112.28854,18.860917 110.35605,18.760464 C 108.59576,18.667986 107.55298,19.444489 107.37121,20.922557 L 103.12675,20.699333 C 103.6019,16.918859 105.85647,15.480651 110.44534,15.719822 C 115.62097,15.992475 117.81017,17.802192 117.60289,21.770812 L 117.20427,29.360461 L 119.20532,29.465696 L 119.0379,32.675352 z M 113.13201,25.203693 C 112.37623,25.093676 111.68902,25.023519 111.10226,24.993225 C 108.27368,24.844939 106.81793,25.528964 106.74299,26.978332 C 106.66965,28.359138 107.4908,29.197827 109.0438,29.279143 C 111.28721,29.397135 112.84979,27.955738 113.13201,25.203693 z M 93.717816,28.129536 L 94.226449,18.398521 L 92.053196,18.285313 L 92.21583,15.179299 L 98.944468,15.533268 L 98.271605,28.368705 L 100.51502,28.485101 L 100.346,31.694758 L 91.271907,31.218012 L 91.439326,28.009951 L 93.717816,28.129536 z M 99.065649,13.221296 L 94.302983,12.970965 L 94.542154,8.4171761 L 99.303224,8.665913 L 99.065649,13.221296" />
  </g>
</svg>
