<?xml version="1.0" encoding="UTF-8" standalone="no"?>
<svg xmlns:rdf="http://www.w3.org/1999/02/22-rdf-syntax-ns#" xmlns="http://www.w3.org/2000/svg" height="93.927pt" width="408.6pt" version="1.1" xmlns:cc="http://creativecommons.org/ns#" xmlns:xlink="http://www.w3.org/1999/xlink" viewBox="0 0 408.59717 93.927483" xmlns:dc="http://purl.org/dc/elements/1.1/">
  <path d="m86.313 48.231-2.5312 11.973-0.125 0.73438c-1.4922-2.5039-3.5625-4.9336-6.25-7.2266-3.0508-2.6094-6.3047-5.4805-8.9219-8.2656-0.67578-0.71875-1.1562-1.3828-1.125-2.5352 0.0469-1.7148 1.4727-3.0898 3.207-3.0898 1.3828 0 2.543 0.82813 2.9648 1.9961 0.3086 0.84766-0.0859 1.8125-0.76953 2.3008-1.9023 1.3555-1.0156 4.1172 1.3203 4.1172zm-15.071-20.636c-8.148-0.914-17.328 4.152-18.703 12.546-1.0781-0.88281-2.4375-1.4375-3.8789-1.4375h-18.465c3.1445-1.4883 6.3281-2.6914 9.3828-3.6641 4.9727-1.5898 9.5078-2.5469 12.809-3.1523l3.9961-0.6875 1.1953-0.22266c1.4688-0.33203 1.9531-1.3633 2.043-1.7656 0.3125-1.3594-0.58985-2.5547-1.9805-2.6289-6.082-0.3125-11.918-0.10547-17.441 0.68359 8.0156-2.3867 17.445-3.375 28.457-3.4609 0.63672 1.3906 1.5156 2.6641 2.5859 3.7891m-36.739 36.007 3.637-17.07 1.211 0.262c0.96484 0.24218 1.125 0.87109 0.96484 1.6211l-3.3672 15.707c-0.24609 1.1562-1.0352 1.7305-1.6914 1.6133-0.71875-0.1289-1.0234-1.0508-0.75391-2.1328m16.398 0.74219 2.9023-13.484c1.2188 2.1914 3.0898 4.2461 5.5859 6.25 0.75781 0.6875 2.5742 2.2305 4.375 3.7812l1.2656 1.0938c-5.387-1.621-10.551-0.211-14.129 2.36m5.4492 13.293c-0.52735-2.6016 1.5078-4.0742 3.3906-3.5039 0.85156 0.25391 2.1289 1.1562 3.457 2.7148l0.61719 0.79688c1.2422 1.6875 3.6562 1.1328 4.0508-0.91797l1.9024-9.7969c0.97265 1.5312 1.4766 3.1211 1.4258 4.9648-0.0352 1.332-0.66016 3.3633-1.1797 4.543-3.6953 8.4023-12.746 5.7578-13.664 1.1992m-33.992-29.223-3.371 15.707c-0.23828 1.1562-1.0312 1.7305-1.6836 1.6133-0.72656-0.1289-1.0273-1.0508-0.76172-2.1328l3.6406-17.07 1.2109 0.26172c0.96484 0.24218 1.125 0.87109 0.96484 1.6211m76.055 15.188 3.6406-17.07 1.2109 0.26172c0.96484 0.24218 1.125 0.87109 0.96484 1.6211l-3.3711 15.707c-0.24219 1.1562-1.0352 1.7305-1.6875 1.6133-0.72266-0.1289-1.0234-1.0508-0.75781-2.1328m40.766-59.004h-54.035c-1.4024 0-2.8281 0.1836-4.2344 0.53125-5.1211 1.2578-9.9805 4.6641-12.414 9.2383h-0.4375c-26.802 0.221-48.892 6.006-60.689 24.326h-3.668c-1.0234 0-2.0078 0.79688-2.2188 1.8008l-0.71875 3.3984c-0.28125 1.3359 0.64844 2.6016 2.0117 2.7266 0.004 0.004 0.66406 0.082 1.1836 0.41016 0.32422 0.20312 0.66016 0.49609 0.4336 1.457l-2.4645 11.695c-2.5312 11.914 4.6524 17.082 10.539 17.152 3.0195 0.0312 6.043-1.2305 8.3594-3.8125 5.3555 5.3984 13.383 4.7539 17.945-0.0586 1.9727 1.9531 4.3164 3.0625 6.6719 3.5547 0.16406 3.0469 1.3203 6.1445 3.6328 8.9648 7.9023 9.6328 25.613 9.7266 34.074-3.5117 1.75-2.7344 2.8867-5.6758 3.2969-8.7188 2.1875 2.4336 5.1797 3.5508 7.875 3.582 3.0274 0.0312 6.0586-1.2383 8.375-3.832 5.9609 5.8633 15.914 4.9102 20.055-2.7656 0.14453-0.26953 0.26953-0.76953 0.26953-1.0742v-3.2656c0-2.3438-2.7812-3.2227-4.125-1.3047-0.62109 0.88672-3.1445 1.4922-2.3476-2.6445l3.4688-16.141c1.2148-5.0898-2.7148-7.6055-6.1211-7.6055l-30.215-0.004c-0.58594-2.3086-1.5234-4.2305-2.7148-5.7891 1.3906 0.33985 2.7969 0.51563 4.1758 0.51563l38.73 0.004 1.8242-0.004 3.3281 0.004c4.0781 0.0352 6.8047-2.2344 7.9258-6.1953 0.41406-1.4805-0.46094-2.6406-1.9961-2.6406h-11.391l-0.73437-1.0977h8.293c4.0742 0.0391 6.8047-2.2305 7.9258-6.1953 0.41796-1.4766-0.46094-2.6367-1.9961-2.6367h-14.32c0.29297-0.39844 0.57422-0.80859 0.83203-1.2344l4.5273 0.004 1.832-0.004 3.3203 0.004c4.0742 0.0352 6.8086-2.2344 7.9297-6.1953 0.41796-1.4805-0.45704-2.6406-1.9961-2.6406" fill="#ffd200"/>
  <path d="m195.86 1.1582c-1.24 0-2.23 0.9961-2.23 2.2266 0 1.2304 0.99 2.2265 2.23 2.2265 1.23 0 2.22-0.9961 2.22-2.2265 0-1.2305-0.99-2.2266-2.22-2.2266zm-89.43 7.1875c-7.928 0-16.536 5.3173-19.315 12.578-33.105 0-59.727 6.5-74.312 27.457h19.062c16.533-9.404 39.323-12.319 40.026-12.402-17.037-0.879-32.946 1.625-46.159 8.31v-0.002c14.419-13.398 34.953-17.514 62.135-17.514 2.129 7.183 10.694 12.416 18.563 12.416h8.89c-0.12-1.069-0.33-2.104-0.63-3.105 2.81 1.958 6.22 3.105 9.91 3.105h8.88c-0.11-1.069-0.33-2.104-0.63-3.105 2.81 1.958 6.22 3.105 9.91 3.105l12.08 0.006 2.28-0.006 4.18 0.006c3.81 0.034 6.28-1.92 7.4-5.855l-9.78-0.004h-5.98c-1.33-2.642-3.32-4.902-5.75-6.563l10.28 0.01 2.28-0.01 4.17 0.01c3.81 0.03 6.29-1.924 7.39-5.859h-24.37c2.54-1.67 4.62-3.994 6-6.729l7.18 0.006 2.28-0.006 4.17 0.006c3.82 0.034 6.29-1.92 7.4-5.8553h-31.21c-3.69 0-7.1 1.1484-9.91 3.1013 0.3-1.001 0.52-2.0368 0.63-3.1013h-8.88c-3.69 0-7.1 1.1484-9.91 3.1013 0.3-1.001 0.51-2.0368 0.63-3.1013h-8.89zm304.63 1.3867c-8.15 0-10.65 2.8186-10.65 8.6586 0 6.86 1.03 8.476 8.97 10.254 3.36 0.761 4.94 1.22 5.71 1.982 0.76 0.737 0.78 1.792 0.78 4.004 0 3.491-0.9 4.756-5.98 4.756-2.88 0-5.9-0.464-8.8-1.348-0.25-0.078-0.51 0.077-0.56 0.336l-0.63 3.121c-0.04 0.205 0.08 0.424 0.28 0.502 2.79 1.104 6.52 1.676 9.61 1.676 9.05 0 10.84-3.336 10.84-9.147 0-6.474-0.55-7.841-9.26-10.009-3.27-0.816-4.75-1.249-5.48-1.977-0.68-0.688-0.71-1.68-0.71-4.004 0-3.525 0.78-4.517 5.97-4.517 2.6 0 5.57 0.328 8.09 0.884 0.26 0.059 0.51-0.127 0.54-0.39l0.31-3.262c0.02-0.21-0.12-0.42-0.33-0.469-2.59-0.669-5.91-1.0506-8.7-1.0506zm-215.2 0.3286c-1.24 0-2.23 0.996-2.23 2.226 0 1.226 0.99 2.221 2.23 2.221 1.23 0 2.22-0.995 2.22-2.221 0-1.23-0.99-2.226-2.22-2.226zm19.31 0.16c-0.3 0-0.51 0.269-0.43 0.552l8.42 32.084c0.06 0.191 0.24 0.329 0.44 0.329h5.65c0.2 0 0.38-0.148 0.43-0.338l6.16-26.553c0.06-0.274 0.4-0.274 0.46 0l6.16 26.553c0.05 0.19 0.24 0.338 0.44 0.338h5.65c0.2 0 0.38-0.138 0.42-0.329l8.43-32.084c0.08-0.283-0.12-0.552-0.42-0.552h-3.78c-0.2 0-0.38 0.141-0.43 0.332l-6.81 26.177c-0.08 0.274-0.41 0.268-0.47-0.005l-6.18-26.163c-0.05-0.195-0.24-0.341-0.44-0.341h-5.6c-0.2 0-0.38 0.146-0.43 0.341l-6.18 26.163c-0.06 0.273-0.4 0.279-0.47 0.005l-6.81-26.177c-0.05-0.191-0.24-0.332-0.43-0.332h-3.78zm-108.74 3.853h3.22l-0.86 1.235c-2.36 3.379-6.28 5.591-10.714 5.591h-3.222l0.865-1.236c2.358-3.379 6.281-5.59 10.711-5.59zm18.17 0h3.21l-0.86 1.235c-2.36 3.379-6.28 5.591-10.71 5.591h-3.23l0.87-1.236c2.36-3.379 6.28-5.59 10.72-5.59zm18.16 0h3.22l-0.87 1.235c-2.36 3.379-6.28 5.591-10.71 5.591h-3.22l0.86-1.236c2.36-3.379 6.28-5.59 10.72-5.59zm141.39 2.758c-7.31 0-10.13 2.607-10.13 7.979v10.888c0 5.366 2.82 7.975 10.13 7.975 2.21 0 4.81-0.192 7.46-0.758 0.22-0.044 0.37-0.259 0.35-0.478l-0.31-3.165c-0.03-0.253-0.26-0.434-0.52-0.39-2.16 0.371-5.05 0.601-6.94 0.601-4.06 0-5.44-0.918-5.44-4.082v-10.302c0-3.155 1.38-4.079 5.44-4.079 1.89 0 4.78 0.231 6.94 0.602 0.26 0.044 0.49-0.137 0.52-0.391l0.31-3.17c0.02-0.219-0.13-0.428-0.35-0.472-2.65-0.567-5.25-0.758-7.46-0.758zm-21.98 0.488c-0.24 0-0.44 0.201-0.44 0.44v24.986c0 0.244 0.2 0.44 0.44 0.44h3.84c0.25 0 0.45-0.196 0.45-0.44v-24.986c0-0.239-0.2-0.44-0.45-0.44h-3.84zm36.7 0c-0.25 0-0.45 0.201-0.45 0.44v24.986c0 0.244 0.2 0.44 0.45 0.44h3.84c0.24 0 0.44-0.196 0.44-0.44v-10.4c0-0.127 0.11-0.241 0.24-0.241h10.79c0.13 0 0.24 0.114 0.24 0.241v10.4c0 0.244 0.2 0.44 0.44 0.44h3.84c0.24 0 0.44-0.196 0.44-0.44v-24.986c0-0.239-0.2-0.44-0.44-0.44h-3.84c-0.24 0-0.44 0.201-0.44 0.44v9.912c0 0.132-0.11 0.24-0.24 0.24h-10.79c-0.13 0-0.24-0.108-0.24-0.24v-9.912c0-0.239-0.2-0.44-0.44-0.44h-3.84zm29.11 0c-0.24 0-0.44 0.201-0.44 0.44v24.986c0 0.244 0.2 0.44 0.44 0.44h3.85c0.24 0 0.44-0.196 0.44-0.44v-24.986c0-0.239-0.2-0.44-0.44-0.44h-3.85zm10.4 0c-0.24 0-0.44 0.201-0.44 0.44v3.355c0 0.239 0.2 0.444 0.44 0.444h7.63c0.13 0 0.25 0.108 0.25 0.24v20.947c0 0.244 0.19 0.44 0.44 0.44h3.84c0.24 0 0.44-0.196 0.44-0.44v-20.947c0-0.132 0.11-0.24 0.24-0.24h7.63c0.24 0 0.44-0.205 0.44-0.444v-3.355c0-0.239-0.2-0.44-0.44-0.44h-20.47zm29.41 0c-0.18 0-0.36 0.122-0.42 0.284l-9.27 24.986c-0.11 0.298 0.1 0.596 0.42 0.596h3.81c0.18 0 0.36-0.123 0.42-0.29l1.92-5.189c0.04-0.078 0.14-0.156 0.23-0.156h10.58c0.09 0 0.19 0.073 0.23 0.156l1.97 5.195c0.06 0.161 0.24 0.284 0.42 0.284h3.81c0.32 0 0.53-0.298 0.42-0.596l-9.27-24.986c-0.07-0.162-0.24-0.284-0.42-0.284h-4.85zm55.21 0c-0.25 0-0.45 0.201-0.45 0.44v3.355c0 0.239 0.2 0.444 0.45 0.444h7.62c0.14 0 0.25 0.108 0.25 0.24v20.947c0 0.244 0.2 0.44 0.44 0.44h3.84c0.25 0 0.44-0.196 0.44-0.44v-20.947c0-0.132 0.11-0.24 0.25-0.24h7.62c0.24 0 0.44-0.205 0.44-0.444v-3.355c0-0.239-0.2-0.44-0.44-0.44h-20.46zm29.33 0c-0.18 0-0.36 0.122-0.41 0.284l-9.28 24.986c-0.1 0.298 0.1 0.596 0.42 0.596h3.82c0.18 0 0.35-0.123 0.41-0.29l1.93-5.189c0.03-0.078 0.14-0.156 0.23-0.156h10.58c0.08 0 0.19 0.073 0.22 0.156l1.97 5.195c0.07 0.161 0.24 0.284 0.42 0.284h3.82c0.31 0 0.52-0.298 0.42-0.596l-9.28-24.986c-0.07-0.162-0.24-0.284-0.42-0.284h-4.85zm14.06 0c-0.24 0-0.44 0.201-0.44 0.44v3.355c0 0.239 0.2 0.444 0.44 0.444h7.63c0.13 0 0.24 0.108 0.24 0.24v20.947c0 0.244 0.2 0.44 0.44 0.44h3.84c0.25 0 0.45-0.196 0.45-0.44v-20.947c0-0.132 0.11-0.24 0.24-0.24h7.63c0.23 0 0.43-0.205 0.43-0.444v-3.355c0-0.239-0.2-0.44-0.43-0.44h-20.47zm25.78 0c-0.24 0-0.44 0.201-0.44 0.44v24.986c0 0.244 0.2 0.44 0.44 0.44h16.53c0.24 0 0.44-0.196 0.44-0.44v-3.307c0-0.244-0.2-0.443-0.44-0.443h-12c-0.13 0-0.24-0.108-0.24-0.24v-6.313c0-0.127 0.11-0.24 0.24-0.24h11.03c0.24 0 0.44-0.199 0.44-0.443v-3.307c0-0.244-0.2-0.443-0.44-0.443h-11.03c-0.13 0-0.24-0.109-0.24-0.24v-6.02c0-0.132 0.11-0.244 0.24-0.244h11.95c0.25 0 0.45-0.2 0.45-0.44v-3.306c0-0.239-0.2-0.44-0.45-0.44h-16.48zm-296.31 1.641c-1.24 0-2.23 0.997-2.23 2.223 0 1.23 0.99 2.226 2.23 2.226 1.23 0 2.22-0.996 2.22-2.226 0-1.226-0.99-2.223-2.22-2.223zm174.35 3.103c0.09 0 0.19 0.062 0.24 0.184l3.81 11.035c0.06 0.166-0.05 0.317-0.23 0.317h-7.63c-0.18 0-0.29-0.151-0.23-0.317l3.82-11.035c0.04-0.122 0.13-0.184 0.22-0.184zm84.55 0c0.09 0 0.18 0.062 0.23 0.184l3.81 11.035c0.05 0.166-0.05 0.317-0.23 0.317h-7.63c-0.17 0-0.29-0.151-0.23-0.317l3.82-11.035c0.04-0.122 0.13-0.184 0.23-0.184zm-359.91 4.573h3.222c4.424 0 8.354 2.213 10.714 5.592l0.86 1.234h-3.22c-4.43 0-8.353-2.211-10.711-5.59l-0.865-1.236zm18.166 0h3.22c4.43 0 8.35 2.213 10.71 5.592l0.86 1.234h-3.21c-4.44 0-8.36-2.211-10.72-5.59l-0.86-1.236zm18.16 0h3.22c4.43 0 8.35 2.213 10.71 5.592l0.87 1.234h-3.22c-4.44 0-8.36-2.211-10.72-5.59l-0.86-1.236zm64.68 1.22c-1.24 0-2.23 1.001-2.23 2.227 0 1.23 0.99 2.227 2.23 2.227 1.23 0 2.22-0.997 2.22-2.227 0-1.226-0.99-2.227-2.22-2.227zm0 8.903c-1.24 0-2.23 0.996-2.23 2.226 0 1.231 0.99 2.227 2.23 2.227 1.23 0 2.22-0.996 2.22-2.227 0-1.23-0.99-2.226-2.22-2.226zm-109.66 0.615c-8.817 0.13-18.038 6.243-18.222 18.027-0.079 4.829 2.382 9.268 8.144 13.868 1.88 1.699 9.078 7.709 10.641 9.335 3.115 3.243 5.2 6.749 5.068 11.348-0.063 2.188-1.002 5.112-1.715 6.738-5.429 12.349-20.615 10.059-22.461 0.918-1.074-5.317 3.405-8.999 7.848-7.656 1.826 0.547 3.866 2.178 5.668 4.287 0.361 0.42 0.879 1.127 0.879 1.127l2.803-13.207-0.352-0.224c-8.945-5.079-17.821-1.745-22.152 4.632-1.348-1.284-2.163-3.535-1.495-6.728l4.858-22.602c0.664-3.061-2.017-6.015-4.883-6.015h-11.299l-0.898 4.252s5.664 0.616 4.541 5.66l-4.121 19.144c-1.358 6.363-10.347 6.945-8.438-2.806l4.479-20.772c0.581-2.778-2.261-5.484-4.99-5.484h-13.004l-0.909 4.254s5.728 0.619 4.561 5.658l-4.193 19.355c-1.314 6.338-10.245 6.461-8.409-2.904l4.395-20.264c0.737-3.418-1.035-6.109-4.619-6.109h-13.291l-0.8987 4.248s5.752 0.542 4.5313 5.772l-3.0821 14.589c-2.7929 13.164 4.8875 17.954 10.43 18.018 3.813 0.039 7.783-2.031 10.279-6.65 6.074 9.594 18.109 8.076 22.464 0 2.881 4.545 7.173 6.367 11.329 6.63-0.386 3.868 0.722 8.046 3.857 11.876 8.623 10.51 28.442 10.84 38.005-4.13 6.32-9.878 5.48-21.911-6.632-32.267-3.823-3.267-7.993-6.938-11.377-10.541-1.211-1.289-1.847-2.651-2.076-3.926-0.078-0.425-0.108-0.841-0.098-1.246 0.103-3.677 3.136-6.641 6.842-6.641 2.871 0 5.419 1.734 6.371 4.366 0.894 2.456-0.273 4.931-1.982 6.152l16.812-0.006c0.82 0 1.87 0.641 1.56 1.988l-3.46 16.377c-2.55 13.135 4.89 17.954 10.43 18.012 3.81 0.044 7.78-2.025 10.27-6.644 5.69 8.979 18.01 8.657 22.73-0.108v-4.078c-2.15 3.086-9.75 3.32-8.02-5.527l4.34-20.235c0.96-3.999-1.82-6.019-4.89-6.019h-12.95l-0.9 4.252s5.6 0.468 4.53 5.771l-4.17 19.244c-1.38 6.192-10.41 6.635-8.43-2.906l4.41-20.342c0.67-3.081-2.04-6.025-4.93-6.025l-17.81 0.006c-0.67-9.414-8.139-13.957-15.919-13.842zm109.66 8.285c-1.24 0-2.23 0.997-2.23 2.223 0 1.235 0.99 2.226 2.23 2.226 1.23 0 2.22-0.991 2.22-2.226 0-1.226-0.99-2.223-2.22-2.223zm22.18 7.994c-0.24 0-0.45 0.2-0.45 0.444v23.134c0 5.479 3.22 9.879 11.77 9.879 8.57 0 11.77-4.4 11.77-9.879v-23.134c0-0.244-0.2-0.444-0.44-0.444h-3.89c-0.24 0-0.44 0.2-0.44 0.444v22.89c0 3.784-2.01 5.782-7 5.782-4.98 0-6.99-1.998-6.99-5.782v-22.89c0-0.244-0.2-0.444-0.44-0.444h-3.89zm-22.18 0.908c-1.24 0-2.23 0.996-2.23 2.221 0 1.236 0.99 2.227 2.23 2.227 1.23 0 2.22-0.991 2.22-2.227 0-1.225-0.99-2.221-2.22-2.221zm180.99 5.704c-7.07 0-9.64 1.703-9.64 7.054 0 4.927 0.47 6.285 7.96 8.258 2.93 0.762 4.29 1.162 4.94 1.699 0.58 0.469 0.62 1.049 0.62 2.582 0 2.422-0.59 3.106-4.76 3.106-2.4 0-5.32-0.414-7.93-1.156-0.25-0.074-0.51 0.087-0.55 0.345l-0.54 2.979c-0.04 0.205 0.08 0.42 0.28 0.488 2.51 0.967 6.08 1.49 8.69 1.49 7.95 0 9.53-2.437 9.53-7.349 0-4.991-0.53-6.049-8.04-8.061-2.84-0.786-4.2-1.197-4.85-1.734-0.6-0.488-0.62-1.079-0.62-2.5 0-2.647 0.37-3.061 4.95-3.061 1.93 0 4.97 0.323 7.13 0.742 0.26 0.049 0.5-0.127 0.52-0.39l0.31-3.115c0.03-0.215-0.12-0.426-0.33-0.475-2.35-0.571-5.56-0.902-7.67-0.902zm-127.61 0.488c-0.24 0-0.45 0.2-0.45 0.439v24.985c0 0.244 0.21 0.445 0.45 0.445h3.65c0.24 0 0.44-0.201 0.44-0.445v-18.139c0-0.273 0.31-0.357 0.45-0.123l10.82 18.486c0.07 0.127 0.23 0.221 0.38 0.221h4.97c0.24 0 0.44-0.201 0.44-0.445v-24.985c0-0.239-0.2-0.439-0.44-0.439h-3.65c-0.24 0-0.44 0.2-0.44 0.439v18.139c0 0.274-0.31 0.362-0.45 0.123l-10.81-18.486c-0.08-0.127-0.24-0.215-0.39-0.215h-4.97zm29.32 0c-0.23 0-0.44 0.2-0.44 0.439v24.985c0 0.244 0.21 0.445 0.44 0.445h3.84c0.25 0 0.45-0.201 0.45-0.445v-24.985c0-0.239-0.2-0.439-0.45-0.439h-3.84zm9.59 0c-0.31 0-0.52 0.288-0.42 0.586l8.74 24.984c0.07 0.166 0.24 0.299 0.42 0.299h5.15c0.18 0 0.35-0.133 0.41-0.299l8.75-24.984c0.1-0.298-0.11-0.586-0.42-0.586h-3.77c-0.18 0-0.36 0.126-0.42 0.297l-6.9 20.185c-0.08 0.244-0.37 0.244-0.45 0l-6.9-20.185c-0.06-0.171-0.24-0.297-0.42-0.297h-3.77zm28.79 0c-0.24 0-0.44 0.2-0.44 0.439v24.985c0 0.244 0.2 0.445 0.44 0.445h16.53c0.24 0 0.44-0.201 0.44-0.445v-3.305c0-0.239-0.2-0.445-0.44-0.445h-12.01c-0.13 0-0.24-0.107-0.24-0.239v-6.314c0-0.127 0.11-0.238 0.24-0.238h11.04c0.24 0 0.44-0.201 0.44-0.446v-3.304c0-0.24-0.2-0.446-0.44-0.446h-11.04c-0.13 0-0.24-0.106-0.24-0.238v-6.021c0-0.132 0.11-0.244 0.24-0.244h11.96c0.24 0 0.44-0.196 0.44-0.44v-3.305c0-0.239-0.2-0.439-0.44-0.439h-16.48zm24.85 0c-0.24 0-0.44 0.2-0.44 0.439v24.985c0 0.244 0.2 0.445 0.44 0.445h3.84c0.24 0 0.44-0.201 0.44-0.445v-7.676c0-0.132 0.11-0.244 0.24-0.244h6.13c0.06 0 0.16 0.058 0.2 0.107l5.44 8.063c0.07 0.112 0.23 0.195 0.36 0.195h4.32c0.37 0 0.57-0.386 0.37-0.693l-5.45-8.096c-0.09-0.132-0.04-0.298 0.11-0.361 2.53-1.075 3.4-3.2 3.4-5.973v-3.988c0-4.17-1.95-6.758-8.22-6.758h-11.18zm50.85 0c-0.24 0-0.44 0.2-0.44 0.439v24.985c0 0.244 0.2 0.445 0.44 0.445h3.84c0.24 0 0.44-0.201 0.44-0.445v-24.985c0-0.239-0.2-0.439-0.44-0.439h-3.84zm9.52 0c-0.24 0-0.44 0.2-0.44 0.439v3.354c0 0.244 0.2 0.445 0.44 0.445h7.63c0.13 0 0.24 0.107 0.24 0.238v20.948c0 0.244 0.2 0.445 0.44 0.445h3.84c0.25 0 0.45-0.201 0.45-0.445v-20.948c0-0.131 0.1-0.238 0.24-0.238h7.62c0.25 0 0.44-0.201 0.44-0.445v-3.354c0-0.239-0.19-0.439-0.44-0.439h-20.46zm22.98 0c-0.34 0-0.55 0.341-0.39 0.648l9.25 17.36c0.01 0.024 0.03 0.093 0.03 0.117v7.299c0 0.244 0.2 0.445 0.44 0.445h3.85c0.24 0 0.44-0.201 0.44-0.445v-7.299c0-0.029 0.02-0.093 0.03-0.117l9.2-17.36c0.16-0.307-0.05-0.648-0.39-0.648h-3.9c-0.15 0-0.32 0.102-0.39 0.234l-6.72 12.905c-0.1 0.195-0.33 0.195-0.44 0l-6.72-12.905c-0.07-0.132-0.23-0.234-0.39-0.234h-3.9zm-229.28 2.705c-1.24 0-2.23 0.996-2.23 2.227 0 1.23 0.99 2.226 2.23 2.226 1.23 0 2.22-0.996 2.22-2.226 0-1.231-0.99-2.227-2.22-2.227zm150.45 1.479h6.9c2.71 0 3.26 0.845 3.26 2.964v3.305c0 2.119-0.55 2.959-3.26 2.959h-6.9c-0.13 0-0.24-0.111-0.24-0.238v-8.746c0-0.132 0.11-0.244 0.24-0.244zm-150.45 7.421c-1.24 0-2.23 0.996-2.23 2.227 0 1.226 0.99 2.226 2.23 2.226 1.23 0 2.22-1 2.22-2.226 0-1.231-0.99-2.227-2.22-2.227zm0 8.903c-1.24 0-2.23 0.996-2.23 2.226 0 1.226 0.99 2.221 2.23 2.221 1.23 0 2.22-0.995 2.22-2.221 0-1.23-0.99-2.226-2.22-2.226zm0 8.9c-1.24 0-2.23 0.997-2.23 2.223 0 1.23 0.99 2.226 2.23 2.226 1.23 0 2.22-0.996 2.22-2.226 0-1.226-0.99-2.223-2.22-2.223zm0 8.897c-1.24 0-2.23 1.001-2.23 2.231s0.99 2.22 2.23 2.22c1.23 0 2.22-0.99 2.22-2.22s-0.99-2.231-2.22-2.231z" transform="scale(.8)"/>
</svg>
