<?xml version="1.0" encoding="UTF-8" standalone="no"?>
<!-- Generator: Adobe Illustrator 13.0.1, SVG Export Plug-In . SVG Version: 6.00 Build 14948)  -->

<svg
   xmlns:dc="http://purl.org/dc/elements/1.1/"
   xmlns:cc="http://creativecommons.org/ns#"
   xmlns:rdf="http://www.w3.org/1999/02/22-rdf-syntax-ns#"
   xmlns:svg="http://www.w3.org/2000/svg"
   xmlns="http://www.w3.org/2000/svg"
   xmlns:sodipodi="http://sodipodi.sourceforge.net/DTD/sodipodi-0.dtd"
   xmlns:inkscape="http://www.inkscape.org/namespaces/inkscape"
   version="1.1"
   id="Layer_1"
   x="0px"
   y="0px"
   width="231.667px"
   height="146px"
   viewBox="0 0 231.667 146"
   enable-background="new 0 0 231.667 146"
   xml:space="preserve"
   inkscape:version="0.47 r22583"
   sodipodi:docname="UDM_CMYK.svg"><metadata
   id="metadata73"><rdf:RDF><cc:Work
       rdf:about=""><dc:format>image/svg+xml</dc:format><dc:type
         rdf:resource="http://purl.org/dc/dcmitype/StillImage" /></cc:Work></rdf:RDF></metadata><defs
   id="defs71"><inkscape:perspective
     sodipodi:type="inkscape:persp3d"
     inkscape:vp_x="0 : 73 : 1"
     inkscape:vp_y="0 : 1000 : 0"
     inkscape:vp_z="231.66701 : 73 : 1"
     inkscape:persp3d-origin="115.8335 : 48.666667 : 1"
     id="perspective75" /></defs><sodipodi:namedview
   pagecolor="#ffffff"
   bordercolor="#666666"
   borderopacity="1"
   objecttolerance="10"
   gridtolerance="10"
   guidetolerance="10"
   inkscape:pageopacity="0"
   inkscape:pageshadow="2"
   inkscape:window-width="1680"
   inkscape:window-height="994"
   id="namedview69"
   showgrid="false"
   inkscape:zoom="1.6164384"
   inkscape:cx="19.015707"
   inkscape:cy="73"
   inkscape:window-x="-4"
   inkscape:window-y="-4"
   inkscape:window-maximized="1"
   inkscape:current-layer="Layer_1" />
<rect
   x="5.453"
   y="4.671"
   fill="#FFFFFF"
   stroke="#002C76"
   stroke-width="1.62"
   width="219.747"
   height="137.008"
   id="rect3" />
<path
   fill="none"
   stroke="#000000"
   stroke-width="0.81"
   d="M115.827,73.925"
   id="path5" />
<rect
   x="12.553"
   y="11.961"
   fill="#E13A3E"
   width="205.737"
   height="42.119"
   id="rect7"
   style="fill:#AC1A2F;fill-opacity:1" />
<path
   d="M115.421,33.021"
   id="path9" />
<g
   id="g11">
	<polygon
   fill="#002C76"
   points="218,134 218.228,56.293 12.49,56.293 12.5,134.167  "
   id="polygon13"
   style="fill:#002C76;fill-opacity:1" />
	<path
   d="M115.421,77.165"
   id="path15" />
</g>
<path
   fill="#FFFFFF"
   d="M70.075,44.92V28.415c0-1.926-0.598-2.225-2.624-2.225l-0.531-0.033V25.16  c1.328,0.1,2.656,0.166,3.985,0.166s2.657-0.066,3.952-0.166v0.996l-0.532,0.033c-2.092,0-2.723,0.299-2.723,2.225v19.229l0.1,1.229  l-2.624-0.465l-16.04-19.494v16.206c0,1.926,0.631,2.226,2.723,2.226l0.531,0.033v0.996c-1.295-0.1-2.624-0.166-3.952-0.166  c-1.328,0-2.657,0.066-3.985,0.166v-0.996l0.531-0.033c2.026,0,2.624-0.299,2.624-2.226V28.415c0-1.926-0.531-2.225-2.391-2.258  h-0.465V25.16c0.963,0.1,1.893,0.166,2.889,0.166c0.963,0,1.893-0.066,2.856-0.166L70.075,44.92z"
   id="path17" />
<path
   fill="#FFFFFF"
   d="M81.094,44.389c0,2.59-0.033,2.823,3.155,2.989v0.996c-1.594-0.1-3.155-0.166-4.782-0.166  s-3.188,0.066-4.683,0.166v-0.996c3.188-0.167,3.155-0.399,3.155-2.989V29.146c0-2.591,0.033-2.823-3.155-2.989V25.16  c1.495,0.1,3.055,0.166,4.683,0.166s3.188-0.066,4.782-0.166v0.996c-3.188,0.166-3.155,0.398-3.155,2.989V44.389z"
   id="path19" />
<path
   fill="#FFFFFF"
   d="M86.638,28.381c-0.73-1.793-0.465-1.926-2.292-2.192l-0.631-0.033V25.16c1.461,0.1,2.922,0.166,4.417,0.166  c1.494,0,2.956-0.066,4.417-0.166v0.996c-3.188-0.066-2.989,0.564-2.756,1.229l1.262,3.686l5.181,13.118l4.351-10.826l1.428-4.019  c0.665-1.86,1.694-3.321-2.292-3.188V25.16c1.196,0.1,2.358,0.166,3.587,0.166c1.229,0,2.391-0.066,3.586-0.166v0.996  c-2.125-0.133-2.192,1.096-2.79,2.558L98.56,42.363l-2.358,6.144h-1.661l-0.73-2.159l-1.163-3.022L86.638,28.381z"
   id="path21" />
<path
   fill="#FFFFFF"
   d="M112.938,43.824c0,1.195,0.033,1.992,0.166,2.856c1.229,0.166,2.922,0.166,4.517,0.166  c1.793,0,3.62-0.066,5.347-0.564c0.166-0.499,0.332-1.096,0.398-1.694l0.299-1.826h1.096c-0.133,0.697-0.332,1.627-0.332,2.689  v2.757c-1.229,0.166-3.454,0.133-5.513,0.166c-1.959-0.1-3.952-0.166-5.978-0.166s-3.985,0.066-6.011,0.166v-0.996  c1.66-0.066,2.856-0.764,2.856-2.989V29.146c0-2.591,0.033-2.823-3.155-2.989V25.16c2.025,0.1,4.018,0.166,6.077,0.166  s4.085-0.066,6.078-0.166c2.092,0.033,4.383,0,5.513,0.166c-0.366,1.096-0.499,2.159-0.532,3.221c0,0.698-0.1,1.262-0.1,1.959  h-1.029c-0.033-1.295-0.232-2.225-0.465-3.254c-1.594-0.499-3.288-0.565-4.948-0.565c-1.461,0-3.022,0-4.118,0.166  c-0.133,0.831-0.166,1.594-0.166,2.757v6.21c7.24,0.066,7.705,0.465,7.738-2.79h1.096v7.671h-1.096c0-3.752-0.232-3.553-7.738-3.288  V43.824z"
   id="path23" />
<path
   fill="#FFFFFF"
   d="M128.408,29.146c0-2.591,0.033-2.823-3.155-2.989V25.16c1.859,0.1,3.786,0.166,5.745,0.166  s3.886-0.066,5.812-0.166c4.583-0.232,6.708,2.258,6.708,5.048c0,3.62-3.254,5.778-6.476,6.409l8.753,12.666  c0.531,0.631,1.735,0.678,2.399,0.778l-0.76,0.845c-0.661,0.419-1.08,0.47-1.802,0.644c-0.756,0.182-0.452,0.233-1.601,0.116  c-0.941-0.096-1.757-1.751-2.222-2.315l-9.119-12.998l0.133-0.498c1.029,0.066,2.059,0.033,3.055-0.133  c2.325-0.398,4.317-2.191,4.317-4.649c0-3.586-2.657-4.649-5.114-4.649c-1.163,0-2.424,0.166-3.321,0.432  c-0.199,0.565-0.199,1.262-0.199,2.292v15.243c0,2.59-0.033,2.823,3.155,2.989v0.996c-1.594-0.1-3.155-0.166-4.782-0.166  c-1.627,0-3.188,0.066-4.683,0.166v-0.996c3.188-0.167,3.155-0.399,3.155-2.989V29.146z"
   id="path25" />
<path
   fill="#FFFFFF"
   d="M167.25,44.389c0,2.59-0.033,2.823,3.155,2.989v0.996c-1.595-0.1-3.155-0.166-4.782-0.166  s-3.188,0.066-4.683,0.166v-0.996c3.188-0.167,3.154-0.399,3.154-2.989V29.146c0-2.591,0.033-2.823-3.154-2.989V25.16  c1.494,0.1,3.056,0.166,4.683,0.166s3.188-0.066,4.782-0.166v0.996c-3.188,0.166-3.155,0.398-3.155,2.989V44.389z"
   id="path27" />
<path
   fill="#FFFFFF"
   d="M178.781,30.175c-0.033-1.262-0.033-2.325-0.133-3.321l-5.114,0.167c-0.697,0.033-1.096,0.133-1.163,0.996  c-0.132,0.797-0.331,1.661-0.365,2.557h-0.995c0-0.631,0-1.229-0.033-1.859c-0.034-1.163-0.067-2.325-0.167-3.554  c3.155,0.1,6.311,0.166,9.564,0.166c3.222,0,6.377-0.066,9.598-0.166c-0.1,1.229-0.133,2.391-0.166,3.554  c-0.033,0.631-0.033,1.229-0.033,1.859h-0.996c-0.033-0.896-0.232-1.76-0.365-2.557c-0.066-0.863-0.465-0.963-1.162-0.996  l-5.182-0.167c-0.1,0.997-0.1,2.06-0.133,3.321v14.214c0,2.59-0.033,2.823,3.155,2.989v0.996c-1.594-0.1-3.155-0.166-4.782-0.166  s-3.188,0.066-4.682,0.166v-0.996c3.188-0.167,3.154-0.399,3.154-2.989V30.175z"
   id="path29" />
<path
   fill="#FFFFFF"
   d="M200.959,36.883l3.42-5.413c1.263-2.125,2.491-4.185,3.587-6.31h2.657v0.498  c-2.79,3.222-6.809,8.834-8.17,11.79c-0.398,0.864-0.465,1.694-0.465,2.491v4.45c0,2.59-0.033,2.823,3.155,2.989v0.996  c-1.595-0.1-3.155-0.166-4.783-0.166c-1.626,0-3.188,0.066-4.683,0.166v-0.996c3.189-0.167,3.156-0.399,3.156-2.989v-4.882  c0-0.266,0-0.664-0.166-1.029l-3.986-6.974c-1.096-1.893-3.121-5.148-5.479-4.882v-0.963l3.521-0.697  c0.963-0.166,1.461,0.398,2.025,1.096c0.531,0.697,0.997,1.395,1.462,2.159L200.959,36.883z"
   id="path31" />
<path
   fill="#FFFFFF"
   d="M19.662,20.37v-1.342c2.277,0.112,4.395,0.168,6.351,0.168c1.984,0,3.955-0.056,5.912-0.168v1.342  c-1.649,0.028-2.656,0.102-3.019,0.22c-0.364,0.119-0.608,0.283-0.734,0.493c-0.182,0.279-0.293,0.958-0.335,2.033  c-0.015,0.279-0.042,2.264-0.084,5.953v7.756c0,3.005,0.192,4.985,0.577,5.942c0.384,0.958,0.996,1.75,1.834,2.379  c0.643,0.476,1.509,0.856,2.599,1.143c1.09,0.287,2.306,0.43,3.647,0.43c1.565,0,2.956-0.192,4.172-0.577  c1.215-0.384,2.127-0.852,2.735-1.404c0.608-0.552,1.062-1.17,1.362-1.855c0.3-0.684,0.517-1.624,0.65-2.819  c0.132-1.194,0.199-2.707,0.199-4.538v-6.456c0-1.9-0.028-3.759-0.084-5.576c-0.028-1.327-0.123-2.113-0.283-2.358  c-0.161-0.245-0.423-0.426-0.786-0.545c-0.364-0.119-1.37-0.192-3.019-0.22v-1.342c2.306,0.112,3.989,0.168,5.052,0.168  c0.964,0,2.704-0.056,5.22-0.168v1.342c-1.664,0.028-2.673,0.102-3.029,0.22c-0.356,0.119-0.604,0.283-0.744,0.493  c-0.167,0.279-0.272,0.958-0.314,2.033c-0.014,0.279-0.042,2.264-0.083,5.953v7.022c0,3.452-0.241,5.862-0.724,7.231  c-0.482,1.37-1.366,2.578-2.651,3.626c-0.964,0.783-2.205,1.391-3.721,1.824c-1.517,0.433-3.197,0.65-5.042,0.65  c-2.152,0-4.018-0.255-5.597-0.765c-1.579-0.51-2.781-1.181-3.605-2.013c-0.825-0.831-1.391-1.68-1.698-2.547  c-0.392-1.146-0.587-3.066-0.587-5.764v-9.265c0-1.9-0.021-3.759-0.063-5.576c-0.042-1.327-0.144-2.113-0.304-2.358  s-0.419-0.426-0.775-0.545C22.334,20.472,21.324,20.398,19.662,20.37z"
   id="path33" />
<path
   fill="#FFFFFF"
   d="M28.314,69.311c0.545-1.348,1.359-2.377,2.442-3.089c1.082-0.711,2.34-1.067,3.773-1.067  c0.992,0,1.916,0.17,2.773,0.511c0.856,0.341,1.553,0.759,2.09,1.255c0.536,0.496,0.999,1.077,1.386,1.743  c0.388,0.667,0.699,1.411,0.934,2.232c0.378,1.343,0.568,2.811,0.568,4.404c0,1.863-0.264,3.509-0.792,4.937  c-0.527,1.428-1.328,2.535-2.401,3.321c-1.073,0.787-2.335,1.18-3.787,1.18c-1.046,0-2-0.193-2.861-0.579  c-0.861-0.385-1.642-0.986-2.34-1.803c-0.699-0.816-1.265-1.826-1.698-3.028c-0.262-0.711-0.478-1.558-0.649-2.54  c-0.172-0.982-0.257-1.949-0.257-2.901C27.496,72.184,27.769,70.658,28.314,69.311z M25.345,79.395  c0.442,1.438,1.087,2.66,1.935,3.667c0.848,1.007,1.884,1.766,3.111,2.276c1.226,0.511,2.547,0.767,3.963,0.767  c3.111,0,5.688-1.122,7.73-3.366s3.064-5.055,3.064-8.432c0-1.052-0.102-2.039-0.305-2.961c-0.203-0.921-0.476-1.723-0.818-2.404  c-0.451-0.912-1.067-1.751-1.847-2.518c-0.78-0.767-1.778-1.383-2.996-1.849c-1.217-0.466-2.57-0.699-4.058-0.699  c-1.614,0-3.048,0.273-4.301,0.819c-1.254,0.546-2.376,1.355-3.368,2.428c-0.992,1.072-1.702,2.279-2.13,3.622  c-0.429,1.342-0.643,2.806-0.643,4.388C24.682,76.537,24.903,77.958,25.345,79.395z"
   id="path35" />
<path
   fill="#FFFFFF"
   d="M45,65.275v-0.962c1.37,0.06,2.534,0.09,3.49,0.09c0.676,0,1.889-0.02,3.639-0.06  c1.749-0.04,2.93-0.06,3.543-0.06c0.658,0,1.26,0.008,1.806,0.022c0.545,0.015,1.039,0.043,1.481,0.083  c-0.226,0.852-0.37,2.37-0.433,4.554h-0.852c-0.081-1.212-0.194-2.144-0.338-2.796c-0.469-0.18-1.048-0.313-1.738-0.398  c-0.69-0.085-1.49-0.127-2.401-0.127c-0.911,0-1.853,0.06-2.827,0.18c-0.054,0.542-0.09,1.048-0.108,1.519  c-0.009,0.271-0.032,1.418-0.068,3.441v3.336c1.01,0.03,1.903,0.045,2.678,0.045c1.145,0,2.06-0.065,2.746-0.195  c0.262-0.05,0.431-0.133,0.507-0.248s0.16-0.538,0.25-1.271l0.108-0.932h0.853l-0.095,3.427l0.095,3.682h-0.853l-0.095-0.961  c-0.099-1.092-0.171-1.679-0.216-1.759c-0.072-0.14-0.243-0.245-0.514-0.315c-0.514-0.13-1.677-0.195-3.49-0.195  c-0.641,0-1.299,0.02-1.975,0.06v3.036c0,1.363,0.018,2.69,0.054,3.983c0.018,0.952,0.079,1.518,0.183,1.698  c0.104,0.18,0.272,0.313,0.507,0.398c0.234,0.086,0.883,0.139,1.948,0.158v0.962c-1.146-0.08-2.286-0.12-3.422-0.12  c-1.019,0-2.507,0.04-4.463,0.12v-0.962c1.064-0.02,1.713-0.072,1.948-0.158c0.234-0.085,0.396-0.203,0.487-0.353  c0.108-0.2,0.176-0.686,0.203-1.458c0.009-0.21,0.027-1.633,0.054-4.269v-6.958c0-1.362-0.013-2.695-0.041-3.998  c-0.027-0.952-0.092-1.516-0.196-1.691c-0.104-0.175-0.271-0.305-0.5-0.391C46.725,65.348,46.073,65.295,45,65.275z"
   id="path37" />
<path
   fill="#FFFFFF"
   d="M73.025,88.034l-0.063-6.498v-8.364l0.083-3.04c0.028-1.746,0.063-2.962,0.105-3.647  c1.774-0.265,3.521-0.398,5.24-0.398c3.27,0,5.841,0.497,7.714,1.488c1.872,0.993,3.273,2.421,4.203,4.287  c0.929,1.865,1.394,4.098,1.394,6.697c0,1.817-0.241,3.574-0.723,5.272c-0.482,1.698-1.171,3.092-2.065,4.182  c-0.895,1.09-1.82,1.915-2.777,2.474c-0.958,0.56-2.111,0.993-3.458,1.3c-1.349,0.308-2.903,0.461-4.664,0.461  c-1.705,0-3.327-0.132-4.863-0.398C73.081,90.298,73.039,89.026,73.025,88.034z M71.139,93.967c0.587,0,1.83,0.028,3.731,0.083  c1.453,0.056,2.606,0.084,3.459,0.084c2.571,0,4.594-0.206,6.068-0.619c1.474-0.412,2.882-1.023,4.224-1.834  c1.342-0.811,2.6-1.911,3.773-3.302c1.174-1.39,2.103-3.014,2.788-4.873c0.685-1.858,1.027-3.85,1.027-5.975  c0-2.962-0.727-5.471-2.18-7.525c-1.454-2.054-3.222-3.518-5.303-4.391c-2.083-0.874-4.835-1.31-8.259-1.31  c-1.146,0-2.756,0.028-4.832,0.083c-2.075,0.057-3.714,0.084-4.916,0.084c-1.565,0-3.368-0.042-5.408-0.125v1.32  c1.453,0.015,2.411,0.119,2.872,0.314c0.195,0.084,0.342,0.217,0.44,0.398c0.14,0.279,0.237,1,0.293,2.159  c0.084,1.844,0.126,3.452,0.126,4.821v8.552c0,1.119-0.049,3.117-0.147,5.995c-0.056,1.691-0.125,3.012-0.209,3.962  c-0.545,0.377-1.223,0.797-2.033,1.258v1.006C68.792,94.023,70.286,93.967,71.139,93.967z"
   id="path39" />
<path
   fill="#FFFFFF"
   d="M103.763,82.704c0,1.196,0.033,1.993,0.166,2.856c1.229,0.166,2.922,0.166,4.517,0.166  c1.793,0,3.62-0.066,5.347-0.564c0.166-0.498,0.332-1.096,0.398-1.694l0.299-1.827h1.096c-0.133,0.697-0.332,1.627-0.332,2.69v2.756  c-1.229,0.166-3.454,0.133-5.513,0.166c-1.959-0.1-3.952-0.166-5.978-0.166s-3.985,0.066-6.011,0.166v-0.997  c1.661-0.066,2.856-0.764,2.856-2.989V68.025c0-2.59,0.033-2.823-3.155-2.989V64.04c2.026,0.1,4.019,0.166,6.078,0.166  s4.085-0.066,6.077-0.166c2.092,0.033,4.384,0,5.513,0.166c-0.365,1.096-0.499,2.159-0.532,3.221c0,0.698-0.1,1.262-0.1,1.96h-1.029  c-0.033-1.295-0.232-2.226-0.465-3.255c-1.594-0.498-3.288-0.564-4.948-0.564c-1.461,0-3.022,0-4.118,0.166  c-0.133,0.83-0.166,1.594-0.166,2.756v6.21c7.24,0.066,7.705,0.465,7.738-2.79h1.096v7.672H111.5c0-3.753-0.232-3.554-7.738-3.288  V82.704z"
   id="path41" />
<path
   fill="#FFFFFF"
   d="M124.115,69.055c-0.033-1.262-0.033-2.325-0.133-3.321l-5.115,0.166c-0.697,0.033-1.096,0.133-1.162,0.996  c-0.133,0.797-0.332,1.661-0.365,2.558h-0.997c0-0.631,0-1.229-0.033-1.86c-0.033-1.162-0.066-2.324-0.167-3.553  c3.155,0.1,6.31,0.166,9.564,0.166c3.222,0,6.376-0.066,9.598-0.166c-0.1,1.229-0.133,2.391-0.166,3.553  c-0.033,0.631-0.033,1.229-0.033,1.86h-0.996c-0.033-0.897-0.232-1.76-0.365-2.558c-0.066-0.863-0.465-0.963-1.163-0.996  l-5.181-0.166c-0.1,0.996-0.1,2.059-0.133,3.321v14.213c0,2.59-0.033,2.823,3.155,2.989v0.997c-1.594-0.1-3.155-0.166-4.782-0.166  c-1.627,0-3.188,0.066-4.683,0.166v-0.997c3.188-0.166,3.155-0.398,3.155-2.989V69.055z"
   id="path43" />
<path
   fill="#FFFFFF"
   d="M179.469,74.899c0,7.14-5.579,12.852-12.853,12.852c-6.742,0-11.79-4.649-11.79-12.221  c0-6.775,4.782-12.088,12.487-11.989C174.42,63.542,179.469,67.526,179.469,74.899z M175.915,75.929  c0-6.575-2.956-10.959-9.133-10.959c-5.779,0-8.402,4.018-8.402,9.465c0,5.812,2.724,11.889,9.299,11.889  C173.225,85.958,175.915,82.04,175.915,75.929z"
   id="path45" />
<path
   fill="#FFFFFF"
   d="M186.04,83.268c0,2.59-0.033,2.823,3.154,2.989v0.997c-1.593-0.1-3.154-0.166-4.781-0.166  c-1.628,0-3.188,0.066-4.683,0.166v-0.997c3.188-0.166,3.155-0.398,3.155-2.989V68.025c0-2.59,0.033-2.823-3.155-2.989V64.04  c1.494,0.1,3.055,0.166,4.683,0.166c1.627,0,3.188-0.066,4.781-0.166v0.997c-3.188,0.166-3.154,0.398-3.154,2.989V83.268z"
   id="path47" />
<path
   fill="#FFFFFF"
   d="M197.96,69.055c-0.033-1.262-0.033-2.325-0.133-3.321l-5.114,0.166c-0.698,0.033-1.097,0.133-1.163,0.996  c-0.133,0.797-0.332,1.661-0.365,2.558h-0.996c0-0.631,0-1.229-0.034-1.86c-0.033-1.162-0.066-2.324-0.165-3.553  c3.154,0.1,6.31,0.166,9.563,0.166c3.223,0,6.377-0.066,9.598-0.166c-0.099,1.229-0.132,2.391-0.165,3.553  c-0.033,0.631-0.033,1.229-0.033,1.86h-0.996c-0.033-0.897-0.233-1.76-0.366-2.558c-0.066-0.863-0.465-0.963-1.162-0.996  l-5.181-0.166c-0.1,0.996-0.1,2.059-0.133,3.321v14.213c0,2.59-0.033,2.823,3.155,2.989v0.997c-1.594-0.1-3.155-0.166-4.783-0.166  c-1.626,0-3.188,0.066-4.682,0.166v-0.997c3.188-0.166,3.155-0.398,3.155-2.989V69.055z"
   id="path49" />
<path
   fill="#FFFFFF"
   d="M55.117,99.304v-1.342c1.467,0.057,2.872,0.084,4.213,0.084c1.355,0,2.655-0.027,3.899-0.084  c1.229,2.795,2.354,5.248,3.375,7.357l7.945,16.351l7.169-14.988c1.956-4.08,3.263-6.986,3.92-8.72  c1.481,0.057,2.731,0.084,3.752,0.084c0.936,0,2.453-0.027,4.549-0.084v1.342c-1.663,0.028-2.672,0.102-3.029,0.22  c-0.356,0.119-0.605,0.283-0.744,0.493c-0.182,0.28-0.287,0.958-0.314,2.034c-0.015,0.279-0.049,2.264-0.105,5.953v9.705  c0,1.901,0.027,3.752,0.084,5.555c0.042,1.328,0.143,2.117,0.304,2.369c0.161,0.251,0.419,0.437,0.776,0.555  c0.356,0.12,1.366,0.193,3.029,0.221v1.342c-2.823-0.126-4.814-0.188-5.974-0.188c-0.937,0-3.005,0.063-6.205,0.188v-1.342  c1.663-0.027,2.676-0.101,3.04-0.221c0.363-0.118,0.608-0.282,0.733-0.492c0.182-0.279,0.287-0.957,0.314-2.033  c0.014-0.293,0.048-2.277,0.105-5.953v-15.386l-7.232,15.134c-1.132,2.362-2.02,4.263-2.662,5.702  c-0.461,1.048-1.16,2.711-2.096,4.989h-0.817c-0.182-0.531-0.35-0.958-0.503-1.279l-1.425-3.039l-10.02-20.815v14.694  c0,1.901,0.027,3.752,0.083,5.555c0.042,1.328,0.143,2.117,0.304,2.369c0.161,0.251,0.419,0.437,0.775,0.555  c0.356,0.12,1.366,0.193,3.029,0.221v1.342l-5.052-0.168l-5.22,0.168v-1.342c1.649-0.027,2.655-0.101,3.019-0.221  c0.363-0.118,0.614-0.282,0.754-0.492c0.168-0.279,0.272-0.957,0.314-2.033c0.014-0.293,0.042-2.277,0.084-5.953v-9.705  c0-1.9-0.021-3.759-0.063-5.576c-0.042-1.327-0.144-2.113-0.304-2.358c-0.161-0.244-0.419-0.426-0.776-0.545  C57.79,99.405,56.78,99.332,55.117,99.304z"
   id="path51" />
<path
   fill="#FFFFFF"
   d="M100.928,116.318c0,1.195,0.033,1.992,0.166,2.855c1.229,0.166,2.922,0.166,4.517,0.166  c1.793,0,3.62-0.066,5.347-0.564c0.166-0.498,0.332-1.096,0.398-1.693l0.299-1.826h1.096c-0.133,0.697-0.332,1.627-0.332,2.689  v2.757c-1.229,0.166-3.454,0.133-5.513,0.166c-1.959-0.1-3.952-0.166-5.978-0.166s-3.985,0.066-6.011,0.166v-0.996  c1.66-0.066,2.856-0.765,2.856-2.989V101.64c0-2.591,0.033-2.823-3.155-2.989v-0.996c2.026,0.1,4.019,0.166,6.078,0.166  s4.085-0.066,6.077-0.166c2.092,0.033,4.384,0,5.513,0.166c-0.365,1.096-0.498,2.158-0.531,3.221c0,0.698-0.1,1.262-0.1,1.959  h-1.029c-0.033-1.295-0.232-2.225-0.465-3.255c-1.594-0.498-3.288-0.564-4.948-0.564c-1.461,0-3.022,0-4.118,0.166  c-0.133,0.831-0.166,1.594-0.166,2.757v6.21c7.24,0.066,7.705,0.465,7.738-2.789h1.096v7.671h-1.096  c0-3.753-0.232-3.554-7.738-3.287V116.318z"
   id="path53" />
<path
   fill="#FFFFFF"
   d="M152.596,119.406c-2.092,1.196-5.413,1.96-7.505,1.96c-7.34,0-13.45-4.317-13.45-12.188  c0-7.704,6.21-12.021,12.786-12.021c2.922,0,5.845,0.697,8.635,1.494c-0.333,1.661-0.532,3.321-0.731,4.981h-0.963  c-0.1-2.125,0.432-2.889-1.528-3.853c-1.361-0.664-2.956-1.229-5.347-1.229c-5.479,0-9.266,3.886-9.266,9.896  c0,6.643,4.317,11.226,10.993,11.226c2.391,0,4.749-0.765,6.742-2.093l0.299,0.332L152.596,119.406z"
   id="path55" />
<path
   fill="#FFFFFF"
   d="M165.183,109.377l3.421-5.413c1.262-2.125,2.49-4.185,3.586-6.31h2.657v0.498  c-2.79,3.222-6.808,8.834-8.17,11.79c-0.398,0.863-0.465,1.693-0.465,2.49v4.45c0,2.59-0.033,2.823,3.155,2.989v0.996  c-1.595-0.1-3.155-0.166-4.782-0.166c-1.628,0-3.188,0.066-4.683,0.166v-0.996c3.188-0.166,3.154-0.399,3.154-2.989v-4.882  c0-0.266,0-0.664-0.166-1.029l-3.985-6.975c-1.096-1.893-3.122-5.147-5.479-4.882v-0.963l3.52-0.697  c0.963-0.166,1.461,0.398,2.026,1.096c0.531,0.697,0.997,1.395,1.461,2.159L165.183,109.377z"
   id="path57" />
<path
   fill="#FFFFFF"
   d="M158.595,30.739c0-1.262,0-2.125-0.332-2.657c-0.897-1.395-3.255-1.926-4.815-1.926  c-2.723,0-5.048,1.893-5.048,4.749c0,7.207,13.217,1.229,13.217,9.564c0,5.679-5.081,8.402-10.029,8.402  c-1.993,0-3.853-0.498-5.679-1.262c0.133-1.262,0.199-2.856,0.232-4.151v-0.93h1.129v1.561c0,0.73,0.066,1.361,0.465,1.727  c1.329,1.163,3.454,1.528,5.148,1.528c2.989,0,5.911-1.761,5.911-5.048c0-8.037-13.151-0.531-13.151-10.195  c0-4.55,3.853-7.439,8.137-7.439c2.258,0,4.351,0.73,6.443,1.527c-0.1,0.531-0.232,1.063-0.266,1.594  c-0.066,0.997-0.2,1.959-0.233,2.956H158.595z"
   id="path59" />
<path
   fill="#FFFFFF"
   d="M139.144,67.834c0-2.59,0.033-2.823-3.155-2.989v-0.996c1.86,0.1,3.786,0.166,5.745,0.166  s3.886-0.066,5.812-0.166c4.583-0.232,6.708,2.258,6.708,5.048c0,3.62-3.254,5.778-6.476,6.41l8.753,12.665  c0.531,0.631,1.735,0.678,2.399,0.778l-0.759,0.845c-0.662,0.419-1.081,0.47-1.803,0.644c-0.756,0.183-0.452,0.233-1.6,0.116  c-0.941-0.096-1.757-1.751-2.223-2.315l-9.119-12.997l0.133-0.499c1.03,0.066,2.059,0.033,3.055-0.133  c2.325-0.398,4.317-2.191,4.317-4.649c0-3.586-2.657-4.649-5.114-4.649c-1.163,0-2.424,0.166-3.321,0.432  c-0.2,0.564-0.2,1.262-0.2,2.292v15.243c0,2.59-0.033,2.823,3.155,2.989v0.996c-1.594-0.1-3.155-0.166-4.782-0.166  c-1.627,0-3.188,0.066-4.683,0.166v-0.996c3.188-0.166,3.155-0.399,3.155-2.989V67.834z"
   id="path61" />
<path
   fill="#FFFFFF"
   d="M116.528,101.133c0-2.59,0.033-2.823-3.155-2.989v-0.997c1.86,0.1,3.786,0.166,5.745,0.166  s3.886-0.066,5.812-0.166c4.583-0.232,6.708,2.258,6.708,5.047c0,3.62-3.254,5.779-6.476,6.41l8.753,12.665  c0.531,0.631,1.735,0.678,2.399,0.778l-0.76,0.844c-0.661,0.42-1.08,0.471-1.802,0.645c-0.756,0.182-0.452,0.232-1.6,0.115  c-0.941-0.096-1.758-1.751-2.223-2.315l-9.119-12.997l0.133-0.498c1.029,0.066,2.059,0.033,3.055-0.133  c2.325-0.398,4.317-2.192,4.317-4.649c0-3.587-2.657-4.649-5.114-4.649c-1.163,0-2.424,0.166-3.321,0.432  c-0.199,0.564-0.199,1.262-0.199,2.292v15.244c0,2.59-0.033,2.822,3.155,2.988v0.996c-1.594-0.1-3.155-0.166-4.782-0.166  c-1.627,0-3.188,0.066-4.683,0.166v-0.996c3.188-0.166,3.155-0.398,3.155-2.988V101.133z"
   id="path63" />
<g
   id="g65">
	<path
   d="M219.5,146.625"
   id="path67" />
</g>
</svg>