<?xml version="1.0" encoding="UTF-8" standalone="no"?>
<!-- Created with Inkscape (http://www.inkscape.org/) -->

<svg
   xmlns:dc="http://purl.org/dc/elements/1.1/"
   xmlns:cc="http://creativecommons.org/ns#"
   xmlns:rdf="http://www.w3.org/1999/02/22-rdf-syntax-ns#"
   xmlns:svg="http://www.w3.org/2000/svg"
   xmlns="http://www.w3.org/2000/svg"
   xmlns:sodipodi="http://sodipodi.sourceforge.net/DTD/sodipodi-0.dtd"
   xmlns:inkscape="http://www.inkscape.org/namespaces/inkscape"
   width="190.04723"
   height="93.092819"
   viewBox="0 0 50.283328 24.630809"
   version="1.1"
   id="svg11132"
   inkscape:version="0.92.0 r15299"
   sodipodi:docname="cumberland farms.svg">
  <defs
     id="defs11126" />
  <sodipodi:namedview
     id="base"
     pagecolor="#ffffff"
     bordercolor="#666666"
     borderopacity="1.0"
     inkscape:pageopacity="0.0"
     inkscape:pageshadow="2"
     inkscape:zoom="4.2649014"
     inkscape:cx="94.023242"
     inkscape:cy="45.546395"
     inkscape:document-units="mm"
     inkscape:current-layer="layer1"
     showgrid="false"
     fit-margin-top="0"
     fit-margin-left="0"
     fit-margin-right="0"
     fit-margin-bottom="0"
     units="px"
     inkscape:window-width="1280"
     inkscape:window-height="744"
     inkscape:window-x="-4"
     inkscape:window-y="-4"
     inkscape:window-maximized="1" />
  <metadata
     id="metadata11129">
    <rdf:RDF>
      <cc:Work
         rdf:about="">
        <dc:format>image/svg+xml</dc:format>
        <dc:type
           rdf:resource="http://purl.org/dc/dcmitype/StillImage" />
        <dc:title></dc:title>
      </cc:Work>
    </rdf:RDF>
  </metadata>
  <g
     inkscape:label="Layer 1"
     inkscape:groupmode="layer"
     id="layer1"
     transform="translate(-133.11707,-224.69977)">
    <g
       id="g11330"
       transform="translate(0.26458503,-0.26458642)">
      <path
         d="m 138.84162,237.78635 c -0.39829,-0.39829 -1.022,-0.87454 -1.75789,-0.87454 -1.68028,0 -2.22568,2.01789 -2.22568,3.61986 0,2.24296 0.9959,3.46427 2.29482,3.46427 0.69286,-0.009 1.27318,-0.44167 1.54164,-0.73624 l 0.5715,0.58032 c -0.29457,0.4071 -1.26435,1.38571 -2.51142,1.38571 -1.74061,0 -3.63749,-1.51554 -3.63749,-4.28696 -0.008,-2.44228 1.50706,-5.15302 4.28695,-5.15302 0.641,0 1.12607,0.10407 1.43757,0.24271 z"
         style="fill:#175195;fill-opacity:1;fill-rule:evenodd;stroke:none;stroke-width:0.35277778"
         id="path3890"
         inkscape:connector-curvature="0" />
      <path
         d="m 142.70422,245.04377 -0.13864,-0.65828 c -0.37253,0.50235 -0.93522,0.83149 -1.49825,0.83149 -1.16028,0 -1.67146,-0.83996 -1.67146,-2.29517 0,-0.90911 0,-3.67171 -0.10372,-4.2866 l 1.55011,-0.009 c -0.0261,0.20779 -0.0607,1.70603 -0.0607,1.94874 0,0.28575 0.0261,1.51554 0.0261,1.93111 0,1.022 0.20778,1.403 0.75318,1.403 0.45049,0 0.71014,-0.32914 0.90946,-0.62336 v -2.20839 c 0,-0.82303 -0.008,-1.63689 -0.078,-2.4511 h 1.52436 c -0.009,0.641 -0.0346,2.06975 -0.0346,3.09174 0,1.15182 0.0776,2.93582 0.1644,3.31682 z"
         style="fill:#175195;fill-opacity:1;fill-rule:evenodd;stroke:none;stroke-width:0.35277778"
         id="path3894"
         inkscape:connector-curvature="0" />
      <path
         d="m 145.51014,238.62646 c 0.12982,0.29422 0.13864,0.52846 0.13864,0.71896 h 0.0261 c 0.48471,-0.61524 0.97825,-0.90099 1.59349,-0.90099 0.64065,0 1.16029,0.34642 1.45486,0.92674 0.24236,-0.28575 0.82268,-0.92674 1.77518,-0.92674 1.33385,0 1.65417,1.09996 1.65417,2.20839 0,1.4552 0,3.17852 0.078,4.3822 h -1.54164 c 0.0522,-0.72743 0.0522,-1.44604 0.0522,-2.18228 v -2.24296 c 0,-0.57186 -0.18203,-0.96132 -0.7105,-0.96132 -0.56268,0 -0.9091,0.49353 -1.08232,0.71014 v 2.34703 c 0,1.13418 0.0346,1.80128 0.078,2.32939 h -1.55011 c 0.008,-0.51082 0.0603,-0.93521 0.0603,-2.29482 v -1.87925 c 0,-0.92674 -0.20779,-1.21249 -0.68404,-1.20403 -0.64946,0 -0.96132,0.40711 -1.10843,0.69286 v 2.30364 c 0,0.79692 0.008,1.5935 0.0519,2.3816 h -1.54129 c 0.0603,-0.54539 0.0776,-1.29011 0.0776,-1.87043 0,-1.50706 0.0261,-3.0487 -0.19897,-4.53813 z"
         style="fill:#175195;fill-opacity:1;fill-rule:evenodd;stroke:none;stroke-width:0.35277778"
         id="path3898"
         inkscape:connector-curvature="0" />
      <path
         d="m 153.85874,241.75288 c 0,0.98707 0,1.57621 0.0261,2.02636 0.12982,0.17321 0.48471,0.32914 0.75318,0.32914 0.65828,0 1.24707,-0.66675 1.24707,-2.18229 -0.008,-1.69756 -0.762,-2.32974 -1.34232,-2.32974 -0.17322,0 -0.49354,0.12982 -0.68404,0.34643 z m -0.009,-5.87163 c -0.008,0.29421 -0.008,0.56268 -0.008,1.22943 v 1.81892 c 0.43286,-0.27728 0.93522,-0.48507 1.34232,-0.48507 1.24707,0 2.20839,1.17793 2.20839,3.10056 0,1.84468 -0.97014,3.66325 -2.46838,3.66325 -0.70979,0 -1.19486,-0.3549 -1.524,-0.61489 l -0.58032,0.62335 -0.48507,-0.28575 c 0.12135,-1.04775 0.11253,-2.13042 0.11253,-3.17817 0,-2.165 -0.043,-3.94899 -0.121,-5.87163 z"
         style="fill:#175195;fill-opacity:1;fill-rule:evenodd;stroke:none;stroke-width:0.35277778"
         id="path3902"
         inkscape:connector-curvature="0" />
      <path
         d="m 160.13744,241.17256 c 0.58032,-0.18168 0.75353,-0.33761 0.75353,-0.69286 0,-0.60607 -0.381,-1.09114 -0.80539,-1.09114 -0.45896,0 -1.03928,0.42439 -1.06539,2.13925 z m -0.96979,1.47249 c 0.043,0.37218 0.3549,1.41147 1.3769,1.41147 0.51964,0 0.98742,-0.31186 1.29892,-0.58032 l 0.53693,0.60642 c -0.21625,0.25118 -0.90911,1.12572 -2.17382,1.12572 -1.45485,0 -2.66735,-1.29046 -2.67581,-3.23039 0,-1.76671 1.05656,-3.53342 2.56328,-3.54189 1.74942,0 2.15653,1.72332 2.20839,3.13479 z"
         style="fill:#175195;fill-opacity:1;fill-rule:evenodd;stroke:none;stroke-width:0.35277778"
         id="path3906"
         inkscape:connector-curvature="0" />
      <path
         d="m 163.87872,238.61778 c 0.11254,0.26846 0.13864,0.77082 0.15593,0.90946 0.75353,-0.87489 1.20368,-1.14335 1.67993,-1.14335 0.0956,0 0.26846,0.0261 0.35524,0.0522 v 1.29893 c -0.15593,-0.0261 -0.32067,-0.0434 -0.47625,-0.0434 -1.09996,0 -1.48096,0.92674 -1.48096,2.90124 0,1.39418 0.0519,1.85314 0.078,2.43346 h -1.57622 c 0.009,-0.51082 0.0864,-0.88335 0.0864,-3.1175 0,-1.08267 0.009,-2.24331 -0.32033,-3.29106 z"
         style="fill:#175195;fill-opacity:1;fill-rule:evenodd;stroke:none;stroke-width:0.35277778"
         id="path3910"
         inkscape:connector-curvature="0" />
      <path
         d="m 167.81053,235.87246 c -0.0519,0.66675 -0.0519,3.49003 -0.0434,4.29542 0,0.88336 0,4.21781 0.078,4.85846 h -1.56739 c 0.0519,-0.71861 0.078,-3.7846 0.078,-4.70253 0,-2.71074 -0.0261,-3.70664 -0.078,-4.45135 z"
         style="fill:#175195;fill-opacity:1;fill-rule:evenodd;stroke:none;stroke-width:0.35277778"
         id="path3914"
         inkscape:connector-curvature="0" />
      <path
         d="m 171.30063,241.64888 c -1.143,0.14711 -1.79282,0.71014 -1.79282,1.48096 0,0.59761 0.43321,0.91793 0.90946,0.91793 0.37254,0 0.69286,-0.1644 0.88336,-0.42439 z m 0.33796,3.37749 c -0.13017,-0.1471 -0.2166,-0.3376 -0.26882,-0.50235 -0.42403,0.32914 -0.85725,0.67557 -1.5501,0.67557 -1.17757,0 -1.80128,-0.96979 -1.80128,-1.87925 0,-1.83585 2.07856,-2.40771 3.24767,-2.74532 -0.0953,-0.68403 -0.47625,-1.09114 -1.2125,-1.09114 -0.5976,0 -1.13453,0.32033 -1.403,0.46743 v -1.51553 c 0.26847,-0.0257 0.62371,-0.0519 0.86607,-0.0519 1.64536,0 3.19582,0.51964 3.19582,2.40771 v 2.26907 c 0,0.66675 0.10371,1.31621 0.26811,1.96567 z"
         style="fill:#175195;fill-opacity:1;fill-rule:evenodd;stroke:none;stroke-width:0.35277778"
         id="path3918"
         inkscape:connector-curvature="0" />
      <path
         d="m 174.39241,238.60917 0.13864,0.65793 c 0.37218,-0.502 0.93522,-0.83996 1.49825,-0.83996 1.15182,0 1.67146,0.84878 1.67146,2.29517 0,0.90911 0,3.68053 0.10372,4.29542 h -1.55011 c 0.0261,-0.19932 0.0607,-1.70603 0.0607,-1.94839 0,-0.27728 -0.0261,-1.50707 -0.0261,-1.92264 0,-1.022 -0.20778,-1.41182 -0.75353,-1.41182 -0.45014,0 -0.71014,0.33796 -0.91793,0.63218 l 0.009,2.20839 c 0,0.81421 0.008,1.63689 0.078,2.44228 h -1.52436 c 0.009,-0.64064 0.0346,-2.06093 0.0346,-3.08292 0,-1.16064 -0.078,-2.93582 -0.17322,-3.32564 z"
         style="fill:#175195;fill-opacity:1;fill-rule:evenodd;stroke:none;stroke-width:0.35277778"
         id="path3922"
         inkscape:connector-curvature="0" />
      <path
         d="m 181.25144,240.61838 c 0,-0.67557 0,-0.88336 -0.0173,-1.01318 -0.0868,-0.10407 -0.24271,-0.15593 -0.43321,-0.15593 -1.03046,0.008 -1.60196,1.35079 -1.60196,2.63278 0,0.9525 0.33761,1.88772 1.15182,1.88772 0.33761,0 0.65828,-0.18168 0.90064,-0.46743 z m 1.45486,-4.75474 c -0.0346,0.4505 -0.0261,1.11725 -0.0261,1.75825 l 0.009,5.50791 c 0,0.65829 -0.0173,1.30775 0.18203,1.88807 h -1.45521 l -0.0952,-0.51082 c -0.47625,0.39829 -0.90064,0.6925 -1.51553,0.6925 -1.22096,0 -2.06975,-1.17757 -2.06975,-2.84903 0,-1.63689 0.93522,-3.92324 2.93582,-3.92324 0.16475,0 0.40711,0.0346 0.58032,0.10371 v -1.0996 c 0,-0.33797 -0.0434,-0.98743 -0.0952,-1.56775 z"
         style="fill:#175195;fill-opacity:1;fill-rule:evenodd;stroke:none;stroke-width:0.35277778"
         id="path3926"
         inkscape:connector-curvature="0" />
      <path
         d="m 141.83812,246.67187 h 2.7626 v 0.47625 h -1.96568 v 0.61489 h 1.85315 v 0.46778 h -1.85315 v 1.04775 h -0.79692 z"
         style="fill:#77b200;fill-opacity:1;fill-rule:evenodd;stroke:none;stroke-width:0.35277778"
         id="path3930"
         inkscape:connector-curvature="0" />
      <path
         d="m 151.26063,248.36065 -0.56303,-1.26436 h -0.008 l -0.55421,1.26436 z m -1.30775,0.42439 -0.19896,0.49354 h -0.79693 l 1.29893,-2.60668 h 0.87489 l 1.32503,2.60668 h -0.79692 l -0.20779,-0.49354 z"
         style="fill:#77b200;fill-opacity:1;fill-rule:evenodd;stroke:none;stroke-width:0.35277778"
         id="path3934"
         inkscape:connector-curvature="0" />
      <path
         d="m 157.98101,247.82376 h 0.58032 c 0.45896,0 0.71896,-0.11254 0.71896,-0.37253 0,-0.1905 -0.19932,-0.33761 -0.50236,-0.33761 h -0.79692 z m -0.78811,-1.16064 h 1.61961 c 0.82267,0 1.25589,0.31186 1.25589,0.76235 0,0.40676 -0.35525,0.74472 -1.08268,0.77929 l 1.42875,1.07386 h -1.04775 l -1.33385,-1.06504 h -0.0519 v 1.06504 h -0.78811 z"
         style="fill:#77b200;fill-opacity:1;fill-rule:evenodd;stroke:none;stroke-width:0.35277778"
         id="path3938"
         inkscape:connector-curvature="0" />
      <path
         d="m 166.79721,249.27865 -0.93521,-1.93992 h -0.009 l -0.33761,1.93992 h -0.70168 l 0.58914,-2.60667 h 0.73625 l 0.89182,1.86196 h 0.008 l 0.89217,-1.86196 h 0.73625 l 0.59725,2.60667 h -0.70132 l -0.35489,-1.93992 h -0.0173 l -0.90946,1.93992 z"
         style="fill:#77b200;fill-opacity:1;fill-rule:evenodd;stroke:none;stroke-width:0.35277778"
         id="path3942"
         inkscape:connector-curvature="0" />
      <path
         d="m 174.06334,248.58587 c 0.13864,0.13864 0.38982,0.27728 0.70132,0.27728 0.32914,0 0.52846,-0.13017 0.52846,-0.32067 0,-0.49354 -1.57621,-0.18168 -1.57621,-1.15182 0,-0.45896 0.381,-0.77082 1.10843,-0.77082 0.60642,0 0.90946,0.15593 1.13453,0.34643 l -0.48507,0.33796 c -0.121,-0.13864 -0.34642,-0.21661 -0.62335,-0.21661 -0.26,0 -0.43286,0.0864 -0.43286,0.26847 0,0.23389 0.29421,0.24236 0.762,0.37253 0.55421,0.14711 0.84878,0.38947 0.84878,0.78811 0,0.47625 -0.46778,0.81385 -1.18674,0.81385 -0.60608,0 -0.98708,-0.16439 -1.23825,-0.34642 z"
         style="fill:#77b200;fill-opacity:1;fill-rule:evenodd;stroke:none;stroke-width:0.35277778"
         id="path3946"
         inkscape:connector-curvature="0" />
      <path
         d="m 160.31933,225.95637 c 0,0.39829 -0.32032,0.71896 -0.72743,0.71896 -0.39828,0 -0.71896,-0.32067 -0.71896,-0.71896 0,-0.40711 0.32068,-0.72743 0.71896,-0.72743 0.40711,0 0.72743,0.32032 0.72743,0.72743"
         style="fill:#77b200;fill-opacity:1;fill-rule:evenodd;stroke:none;stroke-width:0.35277778"
         id="path3950"
         inkscape:connector-curvature="0" />
      <path
         d="m 163.01272,226.43266 c 0,0.43286 -0.34643,0.77929 -0.77082,0.77929 -0.43286,0 -0.77929,-0.34643 -0.77929,-0.77929 0,-0.42439 0.34643,-0.77082 0.77929,-0.77082 0.42439,0 0.77082,0.34643 0.77082,0.77082"
         style="fill:#77b200;fill-opacity:1;fill-rule:evenodd;stroke:none;stroke-width:0.35277778"
         id="path3954"
         inkscape:connector-curvature="0" />
      <path
         d="m 165.04793,227.93097 c 0,0.45896 -0.37253,0.83114 -0.8315,0.83114 -0.45896,0 -0.82267,-0.37218 -0.82267,-0.83114 0,-0.45896 0.36371,-0.8315 0.82267,-0.8315 0.45897,0 0.8315,0.37254 0.8315,0.8315"
         style="fill:#77b200;fill-opacity:1;fill-rule:evenodd;stroke:none;stroke-width:0.35277778"
         id="path3958"
         inkscape:connector-curvature="0" />
      <path
         d="m 166.11314,230.09597 c 0,0.48507 -0.39829,0.87454 -0.88336,0.87454 -0.48506,0 -0.88335,-0.38947 -0.88335,-0.87454 0,-0.48507 0.39829,-0.88336 0.88335,-0.88336 0.48507,0 0.88336,0.39829 0.88336,0.88336"
         style="fill:#77b200;fill-opacity:1;fill-rule:evenodd;stroke:none;stroke-width:0.35277778"
         id="path3962"
         inkscape:connector-curvature="0" />
      <path
         d="m 166.18243,232.48625 c 0,0.51117 -0.41557,0.92675 -0.92675,0.92675 -0.51964,0 -0.93521,-0.41558 -0.93521,-0.92675 0,-0.51964 0.41557,-0.93521 0.93521,-0.93521 0.51118,0 0.92675,0.41557 0.92675,0.93521"
         style="fill:#77b200;fill-opacity:1;fill-rule:evenodd;stroke:none;stroke-width:0.35277778"
         id="path3966"
         inkscape:connector-curvature="0" />
      <path
         d="m 164.99593,234.62536 c 0,0.53693 -0.44168,0.97861 -0.98742,0.97861 -0.53693,0 -0.97861,-0.44168 -0.97861,-0.97861 0,-0.54575 0.44168,-0.98742 0.97861,-0.98742 0.54574,0 0.98742,0.44167 0.98742,0.98742"
         style="fill:#77b200;fill-opacity:1;fill-rule:evenodd;stroke:none;stroke-width:0.35277778"
         id="path3970"
         inkscape:connector-curvature="0" />
      <path
         d="m 162.99543,236.00235 c 0,0.5715 -0.45896,1.03046 -1.03046,1.03046 -0.57186,0 -1.03929,-0.45896 -1.03929,-1.03046 0,-0.5715 0.46743,-1.03046 1.03929,-1.03046 0.5715,0 1.03046,0.45896 1.03046,1.03046"
         style="fill:#77b200;fill-opacity:1;fill-rule:evenodd;stroke:none;stroke-width:0.35277778"
         id="path3974"
         inkscape:connector-curvature="0" />
      <path
         d="m 158.01573,226.80505 c 0,0.37253 -0.30304,0.67557 -0.67557,0.67557 -0.37253,0 -0.66675,-0.30304 -0.66675,-0.67557 0,-0.37253 0.29422,-0.67557 0.66675,-0.67557 0.37253,0 0.67557,0.30304 0.67557,0.67557"
         style="fill:#77b200;fill-opacity:1;fill-rule:evenodd;stroke:none;stroke-width:0.35277778"
         id="path3978"
         inkscape:connector-curvature="0" />
      <path
         d="m 156.14502,228.52847 c 0,0.34643 -0.27728,0.62371 -0.62336,0.62371 -0.33796,0 -0.61489,-0.27728 -0.61489,-0.62371 0,-0.34643 0.27693,-0.62336 0.61489,-0.62336 0.34608,0 0.62336,0.27693 0.62336,0.62336"
         style="fill:#77b200;fill-opacity:1;fill-rule:evenodd;stroke:none;stroke-width:0.35277778"
         id="path3982"
         inkscape:connector-curvature="0" />
      <path
         d="m 155.01052,230.78015 c 0,0.32032 -0.25118,0.5715 -0.56303,0.5715 -0.32033,0 -0.5715,-0.25118 -0.5715,-0.5715 0,-0.31186 0.25117,-0.56303 0.5715,-0.56303 0.31185,0 0.56303,0.25117 0.56303,0.56303"
         style="fill:#77b200;fill-opacity:1;fill-rule:evenodd;stroke:none;stroke-width:0.35277778"
         id="path3986"
         inkscape:connector-curvature="0" />
      <path
         d="m 155.23573,233.22236 c 0,0.28575 -0.23389,0.51082 -0.51964,0.51082 -0.28575,0 -0.51082,-0.22507 -0.51082,-0.51082 0,-0.28575 0.22507,-0.51964 0.51082,-0.51964 0.28575,0 0.51964,0.23389 0.51964,0.51964"
         style="fill:#77b200;fill-opacity:1;fill-rule:evenodd;stroke:none;stroke-width:0.35277778"
         id="path3990"
         inkscape:connector-curvature="0" />
      <path
         d="m 156.39623,235.29225 c 0,0.17321 -0.14746,0.31186 -0.32032,0.31186 -0.17357,0 -0.32068,-0.13865 -0.32068,-0.31186 0,-0.18203 0.14711,-0.32067 0.32068,-0.32067 0.17286,0 0.32032,0.13864 0.32032,0.32067"
         style="fill:#77b200;fill-opacity:1;fill-rule:evenodd;stroke:none;stroke-width:0.35277778"
         id="path3994"
         inkscape:connector-curvature="0" />
      <path
         d="m 159.26273,231.93197 c 0,0 0.32914,-1.9745 -1.18639,-2.7365 -0.0519,-0.0261 -0.55422,1.5935 1.18639,2.7365"
         style="fill:#77b200;fill-opacity:1;fill-rule:evenodd;stroke:none;stroke-width:0.35277778"
         id="path3998"
         inkscape:connector-curvature="0" />
      <path
         d="m 159.86901,232.80668 c 0,0 2.62396,-2.165 1.52435,-4.8066 -0.0349,-0.0952 -2.48567,1.403 -1.52435,4.8066"
         style="fill:#77b200;fill-opacity:1;fill-rule:evenodd;stroke:none;stroke-width:0.35277778"
         id="path4002"
         inkscape:connector-curvature="0" />
      <path
         d="m 159.47923,234.78986 c 0,0 2.85785,-0.53693 3.12632,-2.97039 0.009,-0.078 -2.43346,0.0346 -3.12632,2.97039"
         style="fill:#77b200;fill-opacity:1;fill-rule:evenodd;stroke:none;stroke-width:0.35277778"
         id="path4006"
         inkscape:connector-curvature="0" />
      <path
         d="m 156.44812,231.44708 c 0,0 1.20368,2.1911 3.26496,1.75789 0.0695,-0.0173 -0.67557,-1.98296 -3.26496,-1.75789"
         style="fill:#77b200;fill-opacity:1;fill-rule:evenodd;stroke:none;stroke-width:0.35277778"
         id="path4010"
         inkscape:connector-curvature="0" />
      <path
         d="m 159.66983,233.39557 c -1.41182,1.57621 -1.24707,2.28635 -1.07386,3.4036 0,0 0.28575,0.0607 0.3549,-0.0346 0.0695,-0.0956 -0.88336,-1.403 0.7881,-3.23921 0.0173,-0.008 -0.0257,-0.12982 -0.0691,-0.12982"
         style="fill:#77b200;fill-opacity:1;fill-rule:evenodd;stroke:none;stroke-width:0.35277778"
         id="path4014"
         inkscape:connector-curvature="0" />
    </g>
  </g>
</svg>
