<?xml version="1.0" encoding="UTF-8" standalone="no"?>
<svg xmlns:rdf="http://www.w3.org/1999/02/22-rdf-syntax-ns#" xmlns="http://www.w3.org/2000/svg" height="51.517pt" width="57.565pt" version="1.1" xmlns:cc="http://creativecommons.org/ns#" xmlns:dc="http://purl.org/dc/elements/1.1/" viewBox="0 0 57.565319 51.517361">
 <g transform="translate(.53552 .55373)">
  <path d="m47.855 16.93-1.4297-0.70312-1.4336 0.70312v12.734l1.4336 0.73046 1.4297-0.73046zm-10.094 8.2031-0.004-6.5352-5.2695 1.8516-0.71875-0.57031s0.29296-0.50781 0.29296-1.1289v-8.0586s-1.1406-0.71875-1.9141-1.0977c-0.72656-0.35546-1.9141-0.78515-1.9141-0.78515s-1.1758 0.39453-1.8945 0.72656c-0.76563 0.35156-1.8945 1.0352-1.8945 1.0352v28.336l3.7891 1.9766 3.8281-2.0977v-7.2695c0-0.625-0.29297-1.1328-0.29297-1.1328l0.71875-0.57032 5.2695 1.8555zm-26.191-16.016s2.1914 0.78125 3.4961 1.4766c0.72266 0.38282 1.7969 1.0703 1.7969 1.0703v-4.0117l-0.73047-1.1562s2.3672-1.8086 5.2031-3.2539c3.5234-1.793 6.9062-2.7656 6.9062-2.7656s3.2344 0.83984 6.8984 2.7656c2.9453 1.5508 5.1953 3.2539 5.1953 3.2539l-0.73046 1.1562v4.0312c0.98046-0.61719 1.5508-0.94531 2.5859-1.4766 1.6016-0.82032 4.2344-1.8281 4.2344-1.8281s3.1055 1.2383 4.9766 2.2656c1.8203 0.99999 4.4766 2.8984 4.4766 2.8984l-0.73047 0.83985v18.016l0.73047 0.97266-9.4531 5.168-6.9805-3.707 0.0156 6.5859 0.875 0.89453-12.102 7.6602-12.102-7.6602 0.73047-0.91406v-6.5664l-6.7227 3.707-9.4531-5.168 0.73047-0.97266v-18.18l-0.73047-0.83984s1.8672-1.4023 3.1602-2.1406c1.7774-1.0078 4.8047-2.0781 4.8047-2.0781v20.32l1.4609 0.91406 0.73047-0.45703 0.72656-0.45703z" stroke="#002d62" stroke-miterlimit="3.864" stroke-width="0.92" fill="#ffd200"/>
  <g fill="#002d62">
   <path d="m35.293 3.2285s-3.2324 0.75098-6.875 2.5527c-2.9688 1.4697-5.1953 3.1641-5.1953 3.1641v43.385l6.1074 3.7891 5.9629 3.7891 5.9609-3.7891 5.957-3.7891 0.0098-5.1523 0.0059-5.1562-2.5254-0.94141-2.5195-0.94727-0.0039 4.916v4.918l-3.4434 1.9629-3.4414 1.9668-3.4434-1.9668-3.4414-1.9629v-38.053s0.97657-0.78612 2.832-1.6797c1.8848-0.89844 4.0527-1.6738 4.0527-1.6738s2.0498 0.62403 4.0469 1.6738c1.8555 0.97656 2.8379 1.6797 2.8379 1.6797v10.479l2.5195-0.82031 2.8125-0.81445v-11.812s-2.4522-1.6602-5.3477-3.1641c-3.0908-1.6064-6.8691-2.5527-6.8691-2.5527zm22.734 9.6875s-2.6758 0.98634-5.2637 2.3828c-1.7676 0.95704-3.4473 2.1484-3.4473 2.1484v23.422l4.3594 2.3691 4.3516 2.3633 4.3594-2.3633 4.3555-2.3691v-23.33s-1.6455-1.3223-3.4473-2.2402c-2.7442-1.3965-5.2676-2.3828-5.2676-2.3828zm-49.326 1.898s-1.8701 0.71387-2.9785 1.334c-0.708 0.39551-1.7578 1.1172-1.7578 1.1172v23.604l8.7109 4.7363 8.7109-4.7363 0.0039-10.146v-13.184s-1.0537-0.75195-1.7617-1.1816c-1.1133-0.68359-2.9746-1.543-2.9746-1.543v13.379l-0.0039 10.045-3.9746 2.3047-3.9746-2.3047v-23.424zm49.326 3.0332s1.2344 0.48731 1.9863 0.86328c0.80078 0.4004 1.9922 1.1328 1.9922 1.1328v18.395l-1.9922 1.1523-1.9863 1.1523-3.9746-2.3047v-18.395s1.1855-0.76172 1.9863-1.1621c0.75684-0.3711 1.9883-0.83398 1.9883-0.83398z" transform="matrix(0.8 0 0 .8 0 -.0000015259)" stroke="#002d62" stroke-miterlimit="3.864" stroke-width=".456" fill="#002d62"/>
  </g>
 </g>
</svg>
