<?xml version="1.0" encoding="utf-8"?>
<!-- Generator: Adobe Illustrator 22.0.0, SVG Export Plug-In . SVG Version: 6.00 Build 0)  -->
<svg version="1.1" id="Layer_1" xmlns="http://www.w3.org/2000/svg" xmlns:xlink="http://www.w3.org/1999/xlink" x="0px" y="0px"
	 viewBox="0 0 656 88.4" style="enable-background:new 0 0 656 88.4;" xml:space="preserve">
<style type="text/css">
	.st0{fill:#447058;}
</style>
<path class="st0" d="M35.4,69.5H23.7V19.1h12.5c16.8,0,26,8.5,26,26C62.2,60.2,53.8,69.5,35.4,69.5 M37.9,12.1H10v1.2
	c2.5,1.5,3.6,3.2,3.6,10.2v41.6c0,7-1.1,8.7-3.6,10.2v1.2h26.1c24.3,0,36.8-14.4,36.8-34C72.9,24.9,60.8,12.1,37.9,12.1 M96.1,50.8
	l10.3-23.6l10.3,23.6H96.1z M134.8,66.5l-24.9-55.2h-3.8L81.2,66.5c-2.5,5.4-3.8,7.5-6.5,8.7v1.2h16.6v-1.2c-3.3-1.3-4.4-3.3-1.5-10
	l3.4-7.8h26.5l3.4,7.8c2.9,6.7,1.9,8.7-1,10v1.2h18.9v-1.2C138.5,74,137.3,72,134.8,66.5 M168.8,75.3c-2-1-3.6-3.2-3.6-10.2V18.8
	h8.4c10.2,0,15.4,4,15.4,12.5c0,7.8-4.9,12.7-14.2,12.7h-6.1v0.9l2.8,5.8h2.8c3,0,4,1,8.5,7.1l11.5,15.5c1.8,2.5,3.1,3.2,5.5,3.2
	h11.3v-1.2c-2.4-0.9-4.2-2.3-8.7-8l-7.9-10.1c-4.2-5.3-6.5-8-9.3-9.1c9.5-2.5,14.4-9.2,14.4-17.3c0-11.9-7.9-18.7-25-18.7h-23.2v1.2
	c2,1,3.6,3.2,3.6,10.2v41.6c0,7-1.6,9.2-3.6,10.2v1.2h17.4V75.3z M249.3,75.3c-2.8-1.6-4-3.4-4-10.7V19.1h7.8c10,0,12,1.5,14.6,4.8
	l1.2-0.4L267,11.2c-3.8,0.5-8.7,0.8-15,0.8h-23.6c-6.3,0-11.2-0.4-15-0.8l-1.9,12.2l1.2,0.4c2.7-3.3,4.6-4.8,14.6-4.8h7.8v45.5
	c0,7.3-1.3,9.1-4,10.7v1.2h18.3V75.3z M288.9,75.3c-2.8-1.2-4-3.4-3.1-10.5l4.2-32l21,42.9h3.9l21.3-43l4,32.5
	c0.8,6.9-0.1,8.9-2.8,10.1v1.2h17.5v-1.2c-2.4-1.3-3.4-3.2-4.3-9.7l-7.4-54.2h-4.7l-24,49.6l-24-49.6h-4.7l-7.6,53.8
	c-0.9,6.7-2.3,8.7-5,10.1v1.2h15.8V75.3z M397.6,70.8c-13.6,0-24.1-11.9-24.1-28.1c0-15.5,8.9-25,22.4-25
	c13.6,0,24.1,11.9,24.1,28.1C420,61.2,411,70.8,397.6,70.8 M396.7,10.6c-20.6,0-34,15.9-34,34.1c0,17.3,12.3,33.1,34.1,33.1
	c20.6,0,34-15.9,34-34.1C430.8,26.4,418.5,10.6,396.7,10.6 M486.2,13.3c2.7,1.6,4,3.4,4,10.7v27.5c0,11.8-6.4,18.3-17.5,18.3
	c-11.6,0-17.8-6.3-17.8-17.7V23.5c0-7,1.1-8.7,3.6-10.2v-1.2h-17.4v1.2c2.5,1.5,3.6,3.2,3.6,10.2v29.3c0,15.8,9.8,25.1,26.7,25.1
	c16.7,0,26.7-9.4,26.7-26.4V23.9c0-7.3,1.4-9.1,4-10.7v-1.2h-15.9V13.3z M550.1,75.3c-2.8-1.6-4-3.4-4-10.7V19.1h7.8
	c10,0,12,1.5,14.6,4.8l1.2-0.4l-1.9-12.2c-3.8,0.5-8.7,0.8-15,0.8h-23.6c-6.3,0-11.2-0.4-15-0.8l-1.9,12.2l1.2,0.4
	c2.7-3.3,4.6-4.8,14.6-4.8h7.8v45.5c0,7.3-1.3,9.1-4,10.7v1.2h18.3V75.3z M597.9,13.3v-1.2h-17.4v1.2c2.5,1.5,3.6,3.2,3.6,10.2v41.6
	c0,7-1.1,8.7-3.6,10.2v1.2h17.4v-1.2c-2.5-1.5-3.6-3.2-3.6-10.2V47.1h36.9v17.9c0,7-1.1,8.7-3.6,10.2v1.2H645v-1.2
	c-2.5-1.5-3.6-3.2-3.6-10.2V23.5c0-7,1.1-8.7,3.6-10.2v-1.2h-17.4v1.2c2.5,1.5,3.6,3.2,3.6,10.2V40h-36.9V23.5
	C594.3,16.5,595.4,14.7,597.9,13.3"/>
</svg>
