<?xml version="1.0" encoding="UTF-8" standalone="no"?>
<!-- Created with Inkscape (http://www.inkscape.org/) -->

<svg
   xmlns:dc="http://purl.org/dc/elements/1.1/"
   xmlns:cc="http://creativecommons.org/ns#"
   xmlns:rdf="http://www.w3.org/1999/02/22-rdf-syntax-ns#"
   xmlns:svg="http://www.w3.org/2000/svg"
   xmlns="http://www.w3.org/2000/svg"
   xmlns:sodipodi="http://sodipodi.sourceforge.net/DTD/sodipodi-0.dtd"
   xmlns:inkscape="http://www.inkscape.org/namespaces/inkscape"
   width="612.66669"
   height="612.66669"
   viewBox="0 0 162.10138 162.10138"
   version="1.1"
   id="svg1514"
   inkscape:version="0.92.0 r15299"
   sodipodi:docname="fein.svg">
  <defs
     id="defs1508" />
  <sodipodi:namedview
     id="base"
     pagecolor="#ffffff"
     bordercolor="#666666"
     borderopacity="1.0"
     inkscape:pageopacity="0.0"
     inkscape:pageshadow="2"
     inkscape:zoom="0.35"
     inkscape:cx="133.90476"
     inkscape:cy="649.17759"
     inkscape:document-units="mm"
     inkscape:current-layer="layer1"
     showgrid="false"
     fit-margin-top="0"
     fit-margin-left="0"
     fit-margin-right="0"
     fit-margin-bottom="0"
     units="px"
     inkscape:window-width="1280"
     inkscape:window-height="744"
     inkscape:window-x="-4"
     inkscape:window-y="-4"
     inkscape:window-maximized="1" />
  <metadata
     id="metadata1511">
    <rdf:RDF>
      <cc:Work
         rdf:about="">
        <dc:format>image/svg+xml</dc:format>
        <dc:type
           rdf:resource="http://purl.org/dc/dcmitype/StillImage" />
        <dc:title></dc:title>
      </cc:Work>
    </rdf:RDF>
  </metadata>
  <g
     inkscape:label="Layer 1"
     inkscape:groupmode="layer"
     id="layer1"
     transform="translate(58.863492,-251.21454)">
    <g
       id="g10"
       transform="matrix(0.35277777,0,0,-0.35277777,-118.70412,437.9649)">
      <g
         id="g12"
         transform="scale(0.1)">
        <path
           d="m 1703.77,706.211 h 4580 v 4580 h -4580 z"
           style="fill:#ffffff;fill-opacity:1;fill-rule:evenodd;stroke:none"
           id="path14"
           inkscape:connector-curvature="0" />
        <path
           d="m 5993.7,732.566 c 149.47,0 263.71,114.282 263.71,263.711 V 4996.14 c 0,140.67 -114.24,263.73 -263.71,263.73 H 1993.86 c -149.46,0 -263.73,-123.06 -263.73,-263.73 V 996.277 c 0,-149.429 114.27,-263.711 263.73,-263.711"
           style="fill:#ea5d17;fill-opacity:1;fill-rule:evenodd;stroke:none"
           id="path16"
           inkscape:connector-curvature="0" />
        <path
           d="m 3998.18,908.367 c 1151.59,0 2092.25,940.643 2092.25,2092.253 0,1160.39 -940.66,2092.22 -2092.25,2092.22 -1160.39,0 -2101.03,-931.83 -2101.03,-2092.22 0,-1151.61 940.64,-2092.253 2101.03,-2092.253"
           style="fill:#ffffff;fill-opacity:1;fill-rule:evenodd;stroke:none"
           id="path18"
           inkscape:connector-curvature="0" />
        <path
           d="m 3998.18,1092.96 c 1054.89,0 1907.64,852.73 1907.64,1907.66 0,1054.9 -852.75,1916.4 -1907.64,1916.4 -1063.7,0 -1916.41,-861.5 -1916.41,-1916.4 0,-1054.93 852.71,-1907.66 1916.41,-1907.66"
           style="fill:#ea5d17;fill-opacity:1;fill-rule:evenodd;stroke:none"
           id="path20"
           inkscape:connector-curvature="0" />
        <path
           d="m 3250.95,3018.19 c -105.49,26.37 -96.7,158.22 -105.49,193.4 0,43.96 -70.33,35.17 -87.91,17.58 -26.37,-26.37 -26.37,-96.7 -26.37,-96.7 0,-184.63 149.46,-298.91 210.98,-334.07"
           style="fill:#ffffff;fill-opacity:1;fill-rule:evenodd;stroke:none"
           id="path22"
           inkscape:connector-curvature="0" />
        <path
           d="m 2275.17,3888.48 c 8.79,35.19 228.54,378.02 228.54,378.02 h 3006.5 l 210.98,-325.29 H 2679.55 c -140.67,0 -175.84,-105.45 -140.67,-175.79 l 703.28,-1195.56 -8.81,1195.56 c 0,123.06 193.42,131.86 193.42,0 8.78,-131.85 8.78,-852.73 8.78,-852.73 l 96.71,-17.55 c 0,0 70.33,386.79 290.1,483.47 0,0 184.6,79.14 290.1,-26.35 0,0 158.22,-149.46 0,-404.41 0,0 -149.44,-219.73 -369.23,-228.56 v -8.77 c 0,0 0,-246.17 123.07,-246.17 131.88,0 246.16,202.19 281.32,272.54 43.96,70.29 96.71,70.29 140.68,518.66 0,52.74 17.55,140.65 43.94,140.65 35.15,8.81 70.33,8.81 105.49,-8.78 0,0 35.16,0 35.16,-43.97 0,0 -52.75,-606.56 -35.16,-659.33 8.79,-17.58 17.56,-17.58 17.56,-8.76 0,0 263.75,439.53 316.5,668.09 0,0 0,70.33 87.91,52.75 l 52.72,-8.78 c 0,0 43.96,0 43.96,-52.74 0,-61.54 -17.58,-474.74 -17.58,-474.74 0,0 193.4,404.39 246.16,492.32 0,0 17.57,52.75 79.12,52.75 17.54,-8.81 87.88,-26.4 105.47,-26.4 8.8,-8.79 35.16,-17.58 35.16,-52.72 0,0 -61.53,-685.68 -52.75,-747.2 0,0 0,-43.99 35.18,8.76 l 61.55,70.32 c 79.11,105.51 105.45,-17.56 105.45,-17.56 0,0 -79.09,-334.07 -290.06,-369.23 0,0 -79.12,-26.38 -96.72,79.13 -26.37,105.47 17.6,650.51 17.6,650.51 l -17.6,-8.79 c -17.58,-17.6 -219.77,-492.29 -237.33,-553.87 -17.61,-61.52 -35.19,-123.04 -35.19,-123.04 0,0 -26.38,-52.76 -52.76,-52.76 h -79.1 c 0,0 -35.18,0 -35.18,52.76 0,61.52 8.82,527.47 8.82,527.47 0,0 -228.58,-448.35 -290.1,-509.88 -26.38,-26.37 -149.47,-140.66 -193.42,26.38 0,0 -26.37,158.21 -26.37,246.12 0,0 -193.38,-351.62 -439.53,-351.62 -131.85,0 -263.74,175.8 -263.74,457.13 l -96.69,17.6 v -448.36 c 114.28,-158.26 553.83,-835.12 210.98,-1169.21 l -413.17,114.31 v 1002.15 l -843.94,1424.11 c 0,0 -123.07,193.42 -105.47,237.36"
           style="fill:#ffffff;fill-opacity:1;fill-rule:evenodd;stroke:none"
           id="path24"
           inkscape:connector-curvature="0" />
        <path
           d="m 3769.62,2895.14 c 0,0 0,228.55 114.28,307.66 52.73,35.16 167.01,52.75 140.64,-79.11 -8.79,-70.34 -140.64,-219.77 -254.92,-228.55"
           style="fill:#ea5d17;fill-opacity:1;fill-rule:evenodd;stroke:none"
           id="path26"
           inkscape:connector-curvature="0" />
        <path
           d="m 3409.19,1330.36 v 588.95 c 114.28,-87.91 167.03,-334.01 167.03,-457.13 0,-228.56 -105.51,-202.19 -105.51,-202.19 0,0 -61.52,0 -61.52,70.37"
           style="fill:#ea5d17;fill-opacity:1;fill-rule:evenodd;stroke:none"
           id="path28"
           inkscape:connector-curvature="0" />
        <path
           d="m 4349.81,3844.54 c 52.75,0 87.91,-35.18 105.48,-61.52 17.61,-26.39 61.55,-87.93 149.46,-96.72 61.52,0 114.29,-43.95 43.95,-96.7 -70.34,-52.74 -219.79,-17.6 -228.56,-17.6 -17.58,8.81 -167.05,61.56 -167.05,175.82 0,52.76 43.97,96.72 96.72,96.72"
           style="fill:#ffffff;fill-opacity:1;fill-rule:evenodd;stroke:none"
           id="path30"
           inkscape:connector-curvature="0" />
      </g>
    </g>
  </g>
</svg>
