<?xml version="1.0" encoding="UTF-8" standalone="no"?>
<svg xmlns:rdf="http://www.w3.org/1999/02/22-rdf-syntax-ns#" xmlns="http://www.w3.org/2000/svg" xml:space="preserve" height="138.93" viewBox="0 0 235.79367 138.93239" width="235.79" version="1.1" xmlns:cc="http://creativecommons.org/ns#" xmlns:dc="http://purl.org/dc/elements/1.1/"><g transform="matrix(1.25 0 0 -1.25 -116.54 235.87)"><g style="" transform="matrix(.5 0 0 .5 93.468 67.488)"><path stroke-linejoin="round" d="m252.66 156.69c1.492-0.897 6.566 4.61 12.897 11.836 7.162 8.175 20.021 29.336 21.892 33.553 0.594 1.34 1.073 3.103-0.422 4.159-1.669 1.179-3.068-0.001-4.104-1.016-3.265-3.196-6.52-6.688-9.472-10.168-6.257-7.371-11.61-15.392-16.083-23.967-1.607-3.082-6.201-13.5-4.708-14.397zm71.132-29.898 0.481 0.057s3.044 0.079 7.146 1.916 7.257 4.678 7.257 4.678c2.547 2.598 5.065 5.325 6.613 8.784 0.281 0.628 0.363 1.808-0.014 2.387-0.26 0.403-1.534 0.457-2.205 0.228-2.052-0.699-4.078-1.512-6.028-2.46-5.721-3.177-9.828-6.467-13.688-10.413-0.635-0.647-1.24-1.431-1.611-2.264-0.566-1.268 0.597-2.873 2.049-2.913zm-139.03 15.786c4.688 8.919 10.137 20.885 12.313 24.834 0.565 1.024 1.181 1.653 2.467 1.61 5.895-0.194 11.792-0.294 17.688-0.475 1.41-0.043 0.767-0.719-1.698-5.423-5.159-9.709-13.833-24.935-15.878-35.915-3.521-18.901 13.128-28.235 22.322-12.394 2.45 4.222 6.445 14.33 6.907 19.239 1.621 17.234 6.12 26.582 14.499 41.518 12.735 22.701 53.306 63.543 61.371 52.904 5.579-5.297 2.753-13.91 0.856-17.757-8.222-16.654-18.522-31.992-29.722-46.744-7.962-10.485-16.412-20.572-25.41-30.192-1.882-2.012-3.679-4.1-5.575-6.1-1.952-2.058-1.896-4.7-2.191-7.227-0.431-3.696-0.508-7.327 1.595-10.7 2.488-3.993 6.735-4.59 10.423-3.807 6.78 1.437 13.853 9.348 8.706 11.815-3.517 1.685-4.001 5.839-3.652 8.133 1.096 7.198 7.902 18.455 15.871 25.85 2.016 1.872 5.276 3.042 8.131 2.988 3.531-0.066 6.256-2.066 7.18-5.478 1.197-4.419 0.79-9.513-0.323-13.844-1.143-4.448-2.607-8.115-3.635-11.246-0.111-0.341-0.218-0.685-0.507-1.59 1.256-1.552 7.249-1.378 8.166 0.065 30.412 47.873 66.976 44.723 69.084 28.905 1.107-8.306-2.223-14.709-7.665-20.263-8.358-7.971-20.275-11.008-25.589-12.353-9.386-1.9-18.812-5.776-13.471-11.3 4.787-4.228 10.624-4.712 16.543-4.564 6.407 0.159 12.692 1.701 18.754 3.977 5.122 1.924 10.004 3.739 14.593 6.742 3.401 2.226 3.51 1.261 2.352-0.74-15.927-23.855-41.36-36.543-58.584-31.587-9.39 2.335-16.175 7.204-18.67 17.031-0.835 3.286-0.768 7.276 0.493 10.435 0.253 0.629 0.535 1.246 0.974 2.268-1.318-0.584-3.719-1.704-15.968-2.434-1.743-0.104-3.241-3.097-4.049-4.218-2.919-4.055-5.589-8.361-8.977-11.99-4.83-5.172-10.568-8.838-17.453-10.95-9.526-2.923-19.003 2.217-20.359 13.835-0.184 1.581-0.339 3.165-0.561 5.241-1.726-2.687-4.276-11.908-13.524-16.315-4.411-2.101-15.219-2.653-21.171 0.917-6.625 3.972-8.741 11.165-9.32 18.709l-0.054 7.1c-3.156-7.829-11.898-22.586-20.621-28.721-4.958-3.488-10.635-3.842-14.729-0.553-3.153 2.532-5.107 5.425-6.462 8.565-3.02 7.004-3.006 13.426-1.718 20.886 0.94 5.442 2.524 10.772 3.822 16.153 0 0-0.428 0.028-0.802-0.102-3.546-1.229-7.111-2.416-10.603-3.784-0.523-0.204-1.061-0.582-1.501-1.025-0.047-0.168-9.76-40.8-11.188-41.564-0.949-0.508-12.561 3.367-13.381 3.993-0.791 0.604 1.037 12.436 2.968 26.482 0.182 1.429 0.375 2.902 0.576 4.398 0 0.005 0.001 0.012 0.002 0.018 0 0.003 0.001 0.006 0.001 0.01 1.344 9.988 3.011 20.764 3.549 23.414 0.091 0.45 0.233 0.984 0.422 1.547 1.064 5.581 2.614 12.868 3.614 13.781 1.644 1.503 13.773 3.72 16.894 3.72 2.225 0 2.936-3.697 7.809-5.455 5.689 1.335 11.385 2.638 17.079 3.95 0.544 0.125 1.093 0.231 1.643 0.323 3.007 0.499 3.018 0.499 3.816-2.534 0.794-3.017 1.635-6.025 2.295-9.072 0.171-0.791-0.018-1.862-0.448-2.55-3.843-6.153-6.814-12.707-8.571-19.721-1.123-4.483-1.433-9.122 0.136-13.655 0.708-2.044 1.964-2.883 4.141-2.651 3.333 0.355 4.189 2.101 6.54 4.31 5.953 5.596 17.435 31.327 17.435 31.327zm-97.029-82.48c2.298 1.503 4.362 2.758 6.241 3.809 0.181 0.099 0.353 0.201 0.536 0.299 0.122 0.068 0.239 0.128 0.36 0.193 0.914 0.486 1.847 0.963 2.806 1.429 0.003 0.005 0.005 0.01 0.007 0.015 4.578 2.203 8.031 3.125 11.464 3.803 0.42 0.13 0.248 0.167-0.397 0.249-9.55 1.212-12.514 8.429-12.902 9.495-0.01 0.03-0.021 0.056-0.031 0.086-0.005 0.013-0.009 0.026-0.011 0.032-1.812 5.376-2.813 12.81-2.842 19.093-0.041 8.968 1.088 17.907 1.92 26.834 0.679 7.272 1.679 14.522 2.756 21.748 1.748 11.717 3.685 23.405 5.518 35.109l0.174 1.296c0.263 1.677 1.109 2.545 2.801 3.031 13.239 3.805 26.506 7.533 39.655 11.629 12.433 3.872 23.855 9.77 33.914 18.188 6.016 5.035 11.22 10.738 15.34 17.415 0.383 0.62 0.639 1.319 0.952 1.981-0.7-0.038-1.054-0.271-1.384-0.534-9.418-7.49-20.086-12.442-31.627-15.656-9.679-2.696-70.386-10.31-77.162-11.45-11.913-2.003-23.707-4.517-35.225-8.326-12.033-3.979-23.38-9.084-32.697-17.894-5.437-5.141-10.105-10.872-11.069-18.668-1.001-8.101 2.637-16.588 12-18.53 4.726-0.979 9.98-0.647 14.197-0.148 6.63 0.786 12.945 3.344 18.89 6.524 1.225 0.655 2.053 1.157 3.599 2.154 0.142 0.092 0.729 0.438 0.675 0.54-0.045 0.103-0.334 0.152-0.538 0.202-2.009 0.498-3.942 0.976-5.851 1.449h-0.001c-7.421 1.958-5.191 7.283-1.356 9.365 9.151 5.247 18.39 8.915 28.533 12.668l-0.283-1.195c-1.23-5.876-2.5-11.159-3.421-16.503-1.937-11.25-10.173-47.23-12.367-129.92-0.002-0.052-0.01-0.148 0.02-0.2 0.036-0.063 0.063-0.08 0.123-0.134 0.572-0.516 3.417-2.387 4.311-2.895 0.157-0.089 0.196-0.061 0.232-0.042 0.037 0.019 0.051 0.075 0.064 0.153 0.352 2.213 0.865 4.449 1.583 6.698 3.432 10.758 10.121 19.53 20.493 26.6zm116.08 136.37c3.874 6.842 12.08 9.579 18.136 6.049 6.013-3.504 7.59-11.739 3.573-18.656-3.748-6.454-11.864-9.342-17.374-6.179-6.304 3.617-8.221 11.924-4.335 18.786z" stroke="#f0b323" stroke-miterlimit="10" stroke-width="8.277" fill="none"/><path d="m252.66 156.69c1.492-0.897 6.566 4.61 12.897 11.836 7.162 8.175 20.021 29.336 21.892 33.553 0.594 1.34 1.073 3.103-0.422 4.159-1.669 1.179-3.068-0.001-4.104-1.016-3.265-3.196-6.52-6.688-9.472-10.168-6.257-7.371-11.61-15.392-16.083-23.967-1.607-3.082-6.201-13.5-4.708-14.397zm71.132-29.898 0.481 0.057s3.044 0.079 7.146 1.916 7.257 4.678 7.257 4.678c2.547 2.598 5.065 5.325 6.613 8.784 0.281 0.628 0.363 1.808-0.014 2.387-0.26 0.403-1.534 0.457-2.205 0.228-2.052-0.699-4.078-1.512-6.028-2.46-5.721-3.177-9.828-6.467-13.688-10.413-0.635-0.647-1.24-1.431-1.611-2.264-0.566-1.268 0.597-2.873 2.049-2.913zm-139.03 15.786c4.688 8.919 10.137 20.885 12.313 24.834 0.565 1.024 1.181 1.653 2.467 1.61 5.895-0.194 11.792-0.294 17.688-0.475 1.41-0.043 0.767-0.719-1.698-5.423-5.159-9.709-13.833-24.935-15.878-35.915-3.521-18.901 13.128-28.235 22.322-12.394 2.45 4.222 6.445 14.33 6.907 19.239 1.621 17.234 6.12 26.582 14.499 41.518 12.735 22.701 53.306 63.543 61.371 52.904 5.579-5.297 2.753-13.91 0.856-17.757-8.222-16.654-18.522-31.992-29.722-46.744-7.962-10.485-16.412-20.572-25.41-30.192-1.882-2.012-3.679-4.1-5.575-6.1-1.952-2.058-1.896-4.7-2.191-7.227-0.431-3.696-0.508-7.327 1.595-10.7 2.488-3.993 6.735-4.59 10.423-3.807 6.78 1.437 13.853 9.348 8.706 11.815-3.517 1.685-4.001 5.839-3.652 8.133 1.096 7.198 7.902 18.455 15.871 25.85 2.016 1.872 5.276 3.042 8.131 2.988 3.531-0.066 6.256-2.066 7.18-5.478 1.197-4.419 0.79-9.513-0.323-13.844-1.143-4.448-2.607-8.115-3.635-11.246-0.111-0.341-0.218-0.685-0.507-1.59 1.256-1.552 7.249-1.378 8.166 0.065 30.412 47.873 66.976 44.723 69.084 28.905 1.107-8.306-2.223-14.709-7.665-20.263-8.358-7.971-20.275-11.008-25.589-12.353-9.386-1.9-18.812-5.776-13.471-11.3 4.787-4.228 10.624-4.712 16.543-4.564 6.407 0.159 12.692 1.701 18.754 3.977 5.122 1.924 10.004 3.739 14.593 6.742 3.401 2.226 3.51 1.261 2.352-0.74-15.927-23.855-41.36-36.543-58.584-31.587-9.39 2.335-16.175 7.204-18.67 17.031-0.835 3.286-0.768 7.276 0.493 10.435 0.253 0.629 0.535 1.246 0.974 2.268-1.318-0.584-3.719-1.704-15.968-2.434-1.743-0.104-3.241-3.097-4.049-4.218-2.919-4.055-5.589-8.361-8.977-11.99-4.83-5.172-10.568-8.838-17.453-10.95-9.526-2.923-19.003 2.217-20.359 13.835-0.184 1.581-0.339 3.165-0.561 5.241-1.726-2.687-4.276-11.908-13.524-16.315-4.411-2.101-15.219-2.653-21.171 0.917-6.625 3.972-8.741 11.165-9.32 18.709l-0.054 7.1c-3.156-7.829-11.898-22.586-20.621-28.721-4.958-3.488-10.635-3.842-14.729-0.553-3.153 2.532-5.107 5.425-6.462 8.565-3.02 7.004-3.006 13.426-1.718 20.886 0.94 5.442 2.524 10.772 3.822 16.153 0 0-0.428 0.028-0.802-0.102-3.546-1.229-7.111-2.416-10.603-3.784-0.523-0.204-1.061-0.582-1.501-1.025-0.047-0.168-9.76-40.8-11.188-41.564-0.949-0.508-12.561 3.367-13.381 3.993-0.791 0.604 1.037 12.436 2.968 26.482 0.182 1.429 0.375 2.902 0.576 4.398 0 0.005 0.001 0.012 0.002 0.018 0 0.003 0.001 0.006 0.001 0.01 1.344 9.988 3.011 20.764 3.549 23.414 0.091 0.45 0.233 0.984 0.422 1.547 1.064 5.581 2.614 12.868 3.614 13.781 1.644 1.503 13.773 3.72 16.894 3.72 2.225 0 2.936-3.697 7.809-5.455 5.689 1.335 11.385 2.638 17.079 3.95 0.544 0.125 1.093 0.231 1.643 0.323 3.007 0.499 3.018 0.499 3.816-2.534 0.794-3.017 1.635-6.025 2.295-9.072 0.171-0.791-0.018-1.862-0.448-2.55-3.843-6.153-6.814-12.707-8.571-19.721-1.123-4.483-1.433-9.122 0.136-13.655 0.708-2.044 1.964-2.883 4.141-2.651 3.333 0.355 4.189 2.101 6.54 4.31 5.953 5.596 17.435 31.327 17.435 31.327zm-97.029-82.48c2.298 1.503 4.362 2.758 6.241 3.809 0.181 0.099 0.353 0.201 0.536 0.299 0.122 0.068 0.239 0.128 0.36 0.193 0.914 0.486 1.847 0.963 2.806 1.429 0.003 0.005 0.005 0.01 0.007 0.015 4.578 2.203 8.031 3.125 11.464 3.803 0.42 0.13 0.248 0.167-0.397 0.249-9.55 1.212-12.514 8.429-12.902 9.495-0.01 0.03-0.021 0.056-0.031 0.086-0.005 0.013-0.009 0.026-0.011 0.032-1.812 5.376-2.813 12.81-2.842 19.093-0.041 8.968 1.088 17.907 1.92 26.834 0.679 7.272 1.679 14.522 2.756 21.748 1.748 11.717 3.685 23.405 5.518 35.109l0.174 1.296c0.263 1.677 1.109 2.545 2.801 3.031 13.239 3.805 26.506 7.533 39.655 11.629 12.433 3.872 23.855 9.77 33.914 18.188 6.016 5.035 11.22 10.738 15.34 17.415 0.383 0.62 0.639 1.319 0.952 1.981-0.7-0.038-1.054-0.271-1.384-0.534-9.418-7.49-20.086-12.442-31.627-15.656-9.679-2.696-70.386-10.31-77.162-11.45-11.913-2.003-23.707-4.517-35.225-8.326-12.033-3.979-23.38-9.084-32.697-17.894-5.437-5.141-10.105-10.872-11.069-18.668-1.001-8.101 2.637-16.588 12-18.53 4.726-0.979 9.98-0.647 14.197-0.148 6.63 0.786 12.945 3.344 18.89 6.524 1.225 0.655 2.053 1.157 3.599 2.154 0.142 0.092 0.729 0.438 0.675 0.54-0.045 0.103-0.334 0.152-0.538 0.202-2.009 0.498-3.942 0.976-5.851 1.449h-0.001c-7.421 1.958-5.191 7.283-1.356 9.365 9.151 5.247 18.39 8.915 28.533 12.668l-0.283-1.195c-1.23-5.876-2.5-11.159-3.421-16.503-1.937-11.25-10.173-47.23-12.367-129.92-0.002-0.052-0.01-0.148 0.02-0.2 0.036-0.063 0.063-0.08 0.123-0.134 0.572-0.516 3.417-2.387 4.311-2.895 0.157-0.089 0.196-0.061 0.232-0.042 0.037 0.019 0.051 0.075 0.064 0.153 0.352 2.213 0.865 4.449 1.583 6.698 3.432 10.758 10.121 19.53 20.493 26.6zm116.08 136.37c3.874 6.842 12.08 9.579 18.136 6.049 6.013-3.504 7.59-11.739 3.573-18.656-3.748-6.454-11.864-9.342-17.374-6.179-6.304 3.617-8.221 11.924-4.335 18.786" fill="#f4ab10"/><path stroke-linejoin="round" d="m248.99 159.44c1.492-0.897 6.566 4.609 12.898 11.835 7.161 8.175 20.021 29.336 21.891 33.554 0.594 1.339 1.073 3.103-0.421 4.159-1.67 1.178-3.068-0.001-4.105-1.016-3.264-3.196-6.52-6.688-9.472-10.168-6.256-7.372-11.609-15.393-16.083-23.968-1.606-3.082-6.2-13.5-4.708-14.396zm71.133-29.898 0.48 0.056s3.045 0.08 7.147 1.917c4.102 1.836 7.257 4.678 7.257 4.678 2.546 2.598 5.064 5.325 6.613 8.783 0.281 0.629 0.363 1.809-0.014 2.387-0.26 0.404-1.535 0.458-2.206 0.229-2.051-0.7-4.077-1.512-6.028-2.46-5.721-3.177-9.828-6.468-13.688-10.413-0.634-0.648-1.239-1.432-1.61-2.265-0.567-1.267 0.596-2.872 2.049-2.912zm-139.03 15.79c4.688 8.919 10.136 20.885 12.312 24.834 0.565 1.024 1.181 1.652 2.468 1.61 5.894-0.194 11.791-0.294 17.688-0.475 1.409-0.043 0.766-0.72-1.699-5.424-5.158-9.709-13.833-24.935-15.877-35.914-3.521-18.902 13.128-28.235 22.321-12.394 2.451 4.222 6.445 14.33 6.908 19.238 1.621 17.235 6.12 26.583 14.498 41.518 12.735 22.702 53.306 63.544 61.372 52.904 5.578-5.296 2.753-13.91 0.855-17.756-8.222-16.654-18.522-31.992-29.722-46.744-7.962-10.485-16.411-20.573-25.409-30.192-1.882-2.012-3.68-4.101-5.576-6.1-1.952-2.059-1.895-4.7-2.19-7.228-0.432-3.695-0.509-7.327 1.594-10.7 2.489-3.992 6.735-4.589 10.424-3.807 6.78 1.438 13.852 9.349 8.705 11.815-3.517 1.685-4 5.839-3.651 8.133 1.096 7.199 7.901 18.456 15.87 25.851 2.017 1.872 5.276 3.041 8.131 2.987 3.531-0.066 6.256-2.065 7.181-5.478 1.196-4.418 0.79-9.512-0.323-13.843-1.143-4.448-2.607-8.115-3.636-11.246-0.11-0.342-0.217-0.685-0.506-1.591 1.255-1.552 7.248-1.377 8.165 0.066 30.412 47.872 66.976 44.723 69.084 28.905 1.108-8.306-2.222-14.71-7.665-20.263-8.358-7.971-20.274-11.008-25.589-12.353-9.386-1.9-18.812-5.777-13.471-11.301 4.787-4.227 10.625-4.711 16.543-4.564 6.408 0.16 12.693 1.701 18.755 3.977 5.122 1.925 10.004 3.739 14.593 6.743 3.4 2.226 3.509 1.26 2.352-0.741-15.928-23.854-41.361-36.542-58.584-31.587-9.391 2.336-16.175 7.205-18.671 17.032-0.834 3.285-0.767 7.276 0.494 10.434 0.252 0.629 0.534 1.247 0.974 2.268-1.319-0.583-3.719-1.703-15.969-2.433-1.742-0.104-3.24-3.097-4.049-4.219-2.919-4.054-5.588-8.36-8.976-11.989-4.831-5.173-10.569-8.839-17.453-10.951-9.527-2.922-19.003 2.218-20.36 13.836-0.184 1.58-0.339 3.165-0.56 5.24-1.727-2.686-4.276-11.907-13.525-16.314-4.41-2.101-15.219-2.653-21.171 0.916-6.624 3.973-8.741 11.166-9.32 18.71l-0.054 7.099c-3.156-7.828-11.897-22.585-20.621-28.72-4.958-3.488-10.635-3.842-14.728-0.554-3.153 2.533-5.108 5.426-6.462 8.566-3.02 7.003-3.006 13.426-1.718 20.885 0.939 5.443 2.523 10.773 3.821 16.153 0 0-0.428 0.028-0.801-0.102-3.546-1.229-7.111-2.415-10.604-3.783-0.522-0.205-1.06-0.583-1.5-1.026-0.047-0.167-9.761-40.799-11.189-41.563-0.949-0.508-12.56 3.367-13.38 3.993-0.791 0.604 1.037 12.436 2.968 26.481 0.181 1.43 0.374 2.903 0.575 4.398 0.001 0.006 0.002 0.012 0.002 0.018 0.001 0.004 0.001 0.007 0.002 0.011 1.343 9.988 3.01 20.764 3.548 23.414 0.091 0.449 0.233 0.984 0.422 1.546 1.064 5.582 2.615 12.869 3.614 13.782 1.645 1.502 13.773 3.72 16.895 3.72 2.224 0 2.935-3.697 7.809-5.455 5.688 1.335 11.384 2.638 17.079 3.949 0.544 0.126 1.092 0.232 1.643 0.323 3.006 0.499 3.018 0.499 3.816-2.534 0.793-3.017 1.634-6.025 2.294-9.071 0.172-0.791-0.018-1.862-0.447-2.551-3.844-6.152-6.815-12.706-8.572-19.72-1.123-4.484-1.433-9.123 0.137-13.656 0.707-2.044 1.963-2.882 4.141-2.65 3.333 0.355 4.188 2.101 6.539 4.31 5.953 5.595 17.436 31.327 17.436 31.327zm-97.026-82.479c2.297 1.502 4.362 2.757 6.24 3.808 0.181 0.099 0.354 0.202 0.536 0.3 0.123 0.067 0.239 0.127 0.36 0.193 0.914 0.485 1.847 0.962 2.806 1.428 0.003 0.006 0.006 0.011 0.008 0.016 4.578 2.203 8.03 3.125 11.463 3.802 0.42 0.131 0.248 0.168-0.396 0.249-9.55 1.213-12.514 8.429-12.902 9.496-0.011 0.029-0.022 0.056-0.032 0.085-0.004 0.014-0.009 0.027-0.011 0.033-1.811 5.375-2.813 12.81-2.842 19.093-0.041 8.968 1.088 17.907 1.921 26.833 0.678 7.273 1.678 14.522 2.756 21.749 1.747 11.716 3.684 23.404 5.518 35.109l0.174 1.295c0.262 1.677 1.109 2.545 2.801 3.031 13.239 3.806 26.505 7.534 39.655 11.63 12.432 3.872 23.854 9.77 33.913 18.188 6.017 5.035 11.22 10.738 15.34 17.415 0.384 0.619 0.639 1.319 0.952 1.981-0.7-0.038-1.054-0.271-1.384-0.534-9.418-7.491-20.086-12.442-31.626-15.656-9.679-2.696-70.387-10.31-77.163-11.45-11.913-2-23.707-4.51-35.225-8.32-12.032-3.98-23.38-9.08-32.697-17.9-5.437-5.14-10.105-10.87-11.068-18.66-1.002-8.1 2.636-16.587 12-18.529 4.725-0.98 9.979-0.648 14.197-0.148 6.629 0.786 12.944 3.344 18.889 6.523 1.226 0.656 2.053 1.158 3.599 2.155 0.142 0.092 0.73 0.438 0.676 0.539-0.045 0.103-0.334 0.153-0.538 0.203-2.009 0.497-3.943 0.976-5.851 1.448h-0.001c-7.421 1.958-5.192 7.283-1.357 9.365 9.151 5.248 18.391 8.915 28.533 12.669l-0.283-1.196c-1.229-5.875-2.5-11.158-3.42-16.502-1.938-11.24-10.174-47.22-12.368-129.91-0.001-0.053-0.009-0.149 0.02-0.201 0.036-0.062 0.063-0.079 0.124-0.134 0.571-0.515 3.416-2.387 4.311-2.894 0.156-0.089 0.196-0.061 0.232-0.042 0.036 0.018 0.051 0.075 0.063 0.153 0.352 2.213 0.866 4.449 1.583 6.697 3.433 10.758 10.121 19.53 20.494 26.601zm116.08 136.37c3.875 6.842 12.08 9.579 18.137 6.048 6.012-3.503 7.59-11.739 3.573-18.655-3.749-6.455-11.865-9.342-17.375-6.18-6.304 3.618-8.22 11.924-4.335 18.787z" stroke="#fff" stroke-miterlimit="10" stroke-width="6" fill="none"/><path d="m248.99 159.44c1.492-0.897 6.566 4.609 12.898 11.835 7.161 8.175 20.021 29.336 21.891 33.554 0.594 1.339 1.073 3.103-0.421 4.159-1.67 1.178-3.068-0.001-4.105-1.016-3.264-3.196-6.52-6.688-9.472-10.168-6.256-7.372-11.609-15.393-16.083-23.968-1.606-3.082-6.2-13.5-4.708-14.396zm71.133-29.898 0.48 0.056s3.045 0.08 7.147 1.917c4.102 1.836 7.257 4.678 7.257 4.678 2.546 2.598 5.064 5.325 6.613 8.783 0.281 0.629 0.363 1.809-0.014 2.387-0.26 0.404-1.535 0.458-2.206 0.229-2.051-0.7-4.077-1.512-6.028-2.46-5.721-3.177-9.828-6.468-13.688-10.413-0.634-0.648-1.239-1.432-1.61-2.265-0.567-1.267 0.596-2.872 2.049-2.912zm-139.03 15.79c4.688 8.919 10.136 20.885 12.312 24.834 0.565 1.024 1.181 1.652 2.468 1.61 5.894-0.194 11.791-0.294 17.688-0.475 1.409-0.043 0.766-0.72-1.699-5.424-5.158-9.709-13.833-24.935-15.877-35.914-3.521-18.902 13.128-28.235 22.321-12.394 2.451 4.222 6.445 14.33 6.908 19.238 1.621 17.235 6.12 26.583 14.498 41.518 12.735 22.702 53.306 63.544 61.372 52.904 5.578-5.296 2.753-13.91 0.855-17.756-8.222-16.654-18.522-31.992-29.722-46.744-7.962-10.485-16.411-20.573-25.409-30.192-1.882-2.012-3.68-4.101-5.576-6.1-1.952-2.059-1.895-4.7-2.19-7.228-0.432-3.695-0.509-7.327 1.594-10.7 2.489-3.992 6.735-4.589 10.424-3.807 6.78 1.438 13.852 9.349 8.705 11.815-3.517 1.685-4 5.839-3.651 8.133 1.096 7.199 7.901 18.456 15.87 25.851 2.017 1.872 5.276 3.041 8.131 2.987 3.531-0.066 6.256-2.065 7.181-5.478 1.196-4.418 0.79-9.512-0.323-13.843-1.143-4.448-2.607-8.115-3.636-11.246-0.11-0.342-0.217-0.685-0.506-1.591 1.255-1.552 7.248-1.377 8.165 0.066 30.412 47.872 66.976 44.723 69.084 28.905 1.108-8.306-2.222-14.71-7.665-20.263-8.358-7.971-20.274-11.008-25.589-12.353-9.386-1.9-18.812-5.777-13.471-11.301 4.787-4.227 10.625-4.711 16.543-4.564 6.408 0.16 12.693 1.701 18.755 3.977 5.122 1.925 10.004 3.739 14.593 6.743 3.4 2.226 3.509 1.26 2.352-0.741-15.928-23.854-41.361-36.542-58.584-31.587-9.391 2.336-16.175 7.205-18.671 17.032-0.834 3.285-0.767 7.276 0.494 10.434 0.252 0.629 0.534 1.247 0.974 2.268-1.319-0.583-3.719-1.703-15.969-2.433-1.742-0.104-3.24-3.097-4.049-4.219-2.919-4.054-5.588-8.36-8.976-11.989-4.831-5.173-10.569-8.839-17.453-10.951-9.527-2.922-19.003 2.218-20.36 13.836-0.184 1.58-0.339 3.165-0.56 5.24-1.727-2.686-4.276-11.907-13.525-16.314-4.41-2.101-15.219-2.653-21.171 0.916-6.624 3.973-8.741 11.166-9.32 18.71l-0.054 7.099c-3.156-7.828-11.897-22.585-20.621-28.72-4.958-3.488-10.635-3.842-14.728-0.554-3.153 2.533-5.108 5.426-6.462 8.566-3.02 7.003-3.006 13.426-1.718 20.885 0.939 5.443 2.523 10.773 3.821 16.153 0 0-0.428 0.028-0.801-0.102-3.546-1.229-7.111-2.415-10.604-3.783-0.522-0.205-1.06-0.583-1.5-1.026-0.047-0.167-9.761-40.799-11.189-41.563-0.949-0.508-12.56 3.367-13.38 3.993-0.791 0.604 1.037 12.436 2.968 26.481 0.181 1.43 0.374 2.903 0.575 4.398 0.001 0.006 0.002 0.012 0.002 0.018 0.001 0.004 0.001 0.007 0.002 0.011 1.343 9.988 3.01 20.764 3.548 23.414 0.091 0.449 0.233 0.984 0.422 1.546 1.064 5.582 2.615 12.869 3.614 13.782 1.645 1.502 13.773 3.72 16.895 3.72 2.224 0 2.935-3.697 7.809-5.455 5.688 1.335 11.384 2.638 17.079 3.949 0.544 0.126 1.092 0.232 1.643 0.323 3.006 0.499 3.018 0.499 3.816-2.534 0.793-3.017 1.634-6.025 2.294-9.071 0.172-0.791-0.018-1.862-0.447-2.551-3.844-6.152-6.815-12.706-8.572-19.72-1.123-4.484-1.433-9.123 0.137-13.656 0.707-2.044 1.963-2.882 4.141-2.65 3.333 0.355 4.188 2.101 6.539 4.31 5.953 5.595 17.436 31.327 17.436 31.327zm-97.026-82.479c2.297 1.502 4.362 2.757 6.24 3.808 0.181 0.099 0.354 0.202 0.536 0.3 0.123 0.067 0.239 0.127 0.36 0.193 0.914 0.485 1.847 0.962 2.806 1.428 0.003 0.006 0.006 0.011 0.008 0.016 4.578 2.203 8.03 3.125 11.463 3.802 0.42 0.131 0.248 0.168-0.396 0.249-9.55 1.213-12.514 8.429-12.902 9.496-0.011 0.029-0.022 0.056-0.032 0.085-0.004 0.014-0.009 0.027-0.011 0.033-1.811 5.375-2.813 12.81-2.842 19.093-0.041 8.968 1.088 17.907 1.921 26.833 0.678 7.273 1.678 14.522 2.756 21.749 1.747 11.716 3.684 23.404 5.518 35.109l0.174 1.295c0.262 1.677 1.109 2.545 2.801 3.031 13.239 3.806 26.505 7.534 39.655 11.63 12.432 3.872 23.854 9.77 33.913 18.188 6.017 5.035 11.22 10.738 15.34 17.415 0.384 0.619 0.639 1.319 0.952 1.981-0.7-0.038-1.054-0.271-1.384-0.534-9.418-7.491-20.086-12.442-31.626-15.656-9.679-2.696-70.387-10.31-77.163-11.45-11.913-2-23.707-4.51-35.225-8.32-12.032-3.98-23.38-9.08-32.697-17.9-5.437-5.14-10.105-10.87-11.068-18.66-1.002-8.1 2.636-16.587 12-18.529 4.725-0.98 9.979-0.648 14.197-0.148 6.629 0.786 12.944 3.344 18.889 6.523 1.226 0.656 2.053 1.158 3.599 2.155 0.142 0.092 0.73 0.438 0.676 0.539-0.045 0.103-0.334 0.153-0.538 0.203-2.009 0.497-3.943 0.976-5.851 1.448h-0.001c-7.421 1.958-5.192 7.283-1.357 9.365 9.151 5.248 18.391 8.915 28.533 12.669l-0.283-1.196c-1.229-5.875-2.5-11.158-3.42-16.502-1.938-11.24-10.174-47.22-12.368-129.91-0.001-0.053-0.009-0.149 0.02-0.201 0.036-0.062 0.063-0.079 0.124-0.134 0.571-0.515 3.416-2.387 4.311-2.894 0.156-0.089 0.196-0.061 0.232-0.042 0.036 0.018 0.051 0.075 0.063 0.153 0.352 2.213 0.866 4.449 1.583 6.697 3.433 10.758 10.121 19.53 20.494 26.601zm116.08 136.37c3.875 6.842 12.08 9.579 18.137 6.048 6.012-3.503 7.59-11.739 3.573-18.655-3.749-6.455-11.865-9.342-17.375-6.18-6.304 3.618-8.22 11.924-4.335 18.787" fill="#115740"/></g></g></svg>
