<?xml version="1.0" encoding="UTF-8" standalone="no"?>
<svg xmlns:rdf="http://www.w3.org/1999/02/22-rdf-syntax-ns#" xmlns="http://www.w3.org/2000/svg" xml:space="preserve" height="175.42" viewBox="0 0 252.00001 175.42447" width="252" version="1.1" xmlns:cc="http://creativecommons.org/ns#" xmlns:dc="http://purl.org/dc/elements/1.1/"><g transform="matrix(1.25 0 0 -1.25 4.9275 639.64)"><g transform="matrix(2.4444 0 0 2.4444 -138.24 -635.86)"><path d="m71.005 439.63c0 1.637 0.625 3.804 2.046 6.387 0.592-0.829 2.792-3.942 3.556-5.57-0.061-2.164-1.527-3.17-2.17-3.504-1.093-0.564-2.088-0.474-2.469-0.102-0.612 0.6-0.963 1.545-0.963 2.789m4.695 10.427c2.891 3.804 6.788 5.854 9.695 5.1 1.922-0.498 3.205-2.348 3.618-5.208 0 0 0.209-1.468 0.352-2.467h-15.448c0.523 0.826 1.101 1.677 1.783 2.575m21.775 15.766s-4.568-2.038-5.425-2.422c-2.953 3.188-7.328 4.496-12.415 3.656-9.558-1.579-19.315-9.984-23.198-19.989-2.088-5.378-1.626-10.742 1.303-15.105 3.295-4.913 9.54-7.072 16.293-5.633 4.859 1.035 9.019 3.743 11.805 7.432-1.502-6.716-4.583-20.47-4.583-20.47l1.513 0.787c10.129 5.278 13.756 7.168 15.091 7.893 0.726-0.726 9.616-9.613 9.616-9.613l29.492 32.366h-41.758c0.924 0.657 3.863 2.757 3.863 2.757h-5.664c1.096 2.073 11.444 21.634 11.444 21.634l-7.377-3.293" fill="#fff"/><path d="m74.804 436.24c-1.292-0.67-2.685-0.656-3.39 0.033-1.9 1.863-2.083 6.715 3.657 14.262 3.085 4.057 7.315 6.219 10.525 5.388 2.25-0.585 3.742-2.666 4.2-5.864 0 0 0.247-1.708 0.486-3.371h-16.738s3.029-4.172 3.866-6.084v-0.026c0-2.752-1.949-3.998-2.606-4.338m30.158 7.689s-2.533-2.828-3.404-3.817c0.032 0.075 1.634 3.817 1.634 3.817h-10.458c1.983 1.416 3.866 2.759 3.866 2.759h-4.507c0.72 1.362 10.987 20.767 10.987 20.767l-5.278-2.356s-5.135-2.292-5.939-2.651c-8.421 10.05-28.524 0.201-34.686-15.668-2.073-5.337-1.463-10.378 1.222-14.378 3.115-4.639 9.041-6.668 15.47-5.3 6.791 1.448 12.068 6.12 14.021 12.19-0.754-3.363-5.486-24.512-5.486-24.512s15.616 8.139 15.621 8.145c0.147-0.148 9.424-9.42 9.424-9.42l27.726 30.424h-30.213" fill="#002654"/><path d="m37.494 7.3457c-9.789-0.3026-22.325 10.661-26.584 23.269 0.988-8.201 7.595-15.645 12.076-19.138-10.708 3.418-23.773 21.839-15.644 33.949 7.746 11.544 30.254 5.727 33.062-10.528l4.8359-3.4473h-16.182l2.3301 3.4473c1.3662 8.4325-7.7955 12.579-11.592 8.8555-3.185-3.1188-3.8744-10.33 4.3281-21.111 8.2012-10.784 21.036-10.939 22.861 1.7461l8.556-16.167-8.012 3.578-0.467 1.654c-2.328-4.1444-5.737-5.9889-9.568-6.1073zm4.6133 27.553 2.9121 1.8301-6.168 27.557 13.742-6.832 13.031-17.227 2.3398-1.1719-10.969 18.275 9.5039 9.5 29.098-31.928h-5.4102l-12.867 11.609 11.113-11.609h-9.7988l1.3184 3.5703-11.479 11.734 6.9473-15.305h-10.82l-13.621 15.438 6.748-15.438h-4.3887l-5.5273 11.605 4.2012-11.605-9.9062-0.0039z" transform="matrix(.8 0 0 -.8 54.182 469.86)" fill="#E2CB92"/><path d="m37.303 7.3359c-9.988-0.2405-23.661 10.641-28.067 28.228 6.612-12.558 19.323-27.461 29.022-28.171-0.31406-0.031-0.63291-0.048891-0.95508-0.056641zm-8.2441 24.117 2.3301 3.4492c0.6825 4.2138-1.2663 7.3606-3.8613 8.9844 5.5575-1.9038 5.6465-11.109 5.6465-11.109l5.5957-1.3242h-9.7109zm35.543 3.4453-13.621 15.441-1.4258 3.5684 15.93-17.52 9.9375-1.4902h-10.82zm14.033 0 1.3164 3.5742-11.477 11.734-1.0703 2.9062 15.535-15.379-1.3125-1.2832 4.5879-1.5527h-7.5801zm-36.527 0.002 2.9102 1.8281-6.166 27.557 2.5586-1.2754 6.2734-25.791-1.2832-1.1543 5.6133-1.1641h-9.9062zm25.857 4.1562-10.969 18.273 1.5703 1.5723 9.3262-17.316 0.07227-2.5293z" transform="matrix(.8 0 0 -.8 54.182 469.86)" fill="#faf6e7"/></g></g></svg>