<?xml version="1.0" encoding="UTF-8" standalone="no"?>
<!-- Created with Inkscape (http://www.inkscape.org/) -->

<svg
   xmlns:dc="http://purl.org/dc/elements/1.1/"
   xmlns:cc="http://creativecommons.org/ns#"
   xmlns:rdf="http://www.w3.org/1999/02/22-rdf-syntax-ns#"
   xmlns:svg="http://www.w3.org/2000/svg"
   xmlns="http://www.w3.org/2000/svg"
   version="1.1"
   width="538.58264"
   height="538.58264"
   id="svg3827">
  <defs
     id="defs3829" />
  <metadata
     id="metadata3832">
    <rdf:RDF>
      <cc:Work
         rdf:about="">
        <dc:format>image/svg+xml</dc:format>
        <dc:type
           rdf:resource="http://purl.org/dc/dcmitype/StillImage" />
        <dc:title></dc:title>
      </cc:Work>
    </rdf:RDF>
  </metadata>
  <g
     transform="translate(-98.264704,-275.51645)"
     id="layer1">
    <g
       transform="matrix(14.077035,0,0,14.077035,-2488.0711,-5742.6704)"
       id="g4006">
      <path
         d="m 183.97902,427.76915 37.75625,0 0,37.7575 -37.75625,0 0,-37.7575 z"
         id="path3179"
         style="fill:#cd1f41;fill-opacity:1;fill-rule:nonzero;stroke:none" />
      <g
         transform="matrix(1.25,0,0,-1.25,214.36127,447.37552)"
         id="g3189">
        <path
           d="m 0,0 0,-3.201 2.397,0 c 0.4,0.062 0.368,0.557 0.412,0.778 0.031,0.161 0.237,0.114 0.237,-0.009 l 0,-1.972 c -0.011,-0.104 -0.253,-0.1 -0.259,0 -0.018,0.23 0.052,0.779 -0.479,0.779 l -2.232,0 C 0.076,-3.625 0,-3.634 0,-3.706 L 0,-6.72 c 0,-0.408 -0.043,-0.575 0.169,-0.575 0.28,0 2.427,-0.009 2.462,-0.009 0.434,0 0.516,0.778 0.645,1.114 0.06,0.156 0.298,0.081 0.281,-0.026 -0.03,-0.19 -0.136,-1.062 -0.158,-1.201 -0.021,-0.14 -0.071,-0.294 -0.251,-0.294 -0.177,0 -3.298,0.003 -3.5,0.003 -0.2,0 -1.362,-0.012 -1.474,-0.012 l 0,0.186 c 0.246,0.013 0.519,0.055 0.646,0.15 0.184,0.138 0.305,0.291 0.305,0.734 l 0,5.791 c -0.034,0.525 0.017,0.85 -0.916,0.85 l -0.392,0.433 c 2.732,-0.044 4.652,-0.017 5.138,0 0.193,0.007 0.313,-0.106 0.313,-0.238 0,0 -0.018,-0.929 0.004,-1.261 L 3,-1.075 C 3,0.003 2.357,0 2.223,0 L 0,0 z"
           id="path3191"
           style="fill:#ffffff;fill-opacity:1;fill-rule:nonzero;stroke:none" />
      </g>
      <g
         transform="matrix(1.25,0,0,-1.25,187.58514,451.7359)"
         id="g3193">
        <path
           d="M 0,0 C -0.06,0.045 -0.115,0.094 -0.162,0.146 -0.706,0.738 -1.17,2.498 0.651,3.577 1.291,3.955 2.004,3.895 2.34,3.895 l 7.074,0 c 0.123,0 0.142,0 0.142,-0.124 l 0,-1.142 -0.204,0 c 0,0.726 -0.397,0.815 -0.575,0.85 l -2.113,0 C 6.542,3.479 6.523,3.408 6.513,3.302 l 0,-3.302 -0.928,0 0,3.275 c 0,0.107 0,0.196 -0.123,0.196 l -3.397,0 C 1.384,3.471 1.125,3.353 0.81,3.169 -0.162,2.604 0.166,1.299 0.369,0.994 0.717,0.471 1.65,0.324 2.897,0 L 0,0 z"
           id="path3195"
           style="fill:#ffffff;fill-opacity:1;fill-rule:nonzero;stroke:none" />
      </g>
      <g
         transform="matrix(1.25,0,0,-1.25,199.27027,451.7359)"
         id="g3197">
        <path
           d="M 0,0 C 1.011,2.014 2.089,4.166 2.117,4.222 2.171,4.328 2.258,4.293 2.285,4.213 L 4.034,0 3.026,0 C 3.02,0.019 3.011,0.041 3.001,0.066 L 1.896,2.71 0.579,0.013 C 0.576,0.008 0.574,0.003 0.574,0 L 0,0 z"
           id="path3199"
           style="fill:#ffffff;fill-opacity:1;fill-rule:nonzero;stroke:none" />
      </g>
      <g
         transform="matrix(1.25,0,0,-1.25,208.19977,451.7359)"
         id="g3201">
        <path
           d="m 0,0 0,3.483 -2.184,0 c -0.362,0 -0.499,-0.376 -0.509,-0.57 l 0,-0.203 -0.211,0 0,1.079 c 0,0.097 0.013,0.124 0.146,0.124 l 5.707,0 0.805,-0.434 -2.838,0 L 0.916,0 0,0 z"
           id="path3203"
           style="fill:#ffffff;fill-opacity:1;fill-rule:nonzero;stroke:none" />
      </g>
      <g
         transform="matrix(1.25,0,0,-1.25,191.20702,451.7359)"
         id="g3205">
        <path
           d="m 0,0 c 0.019,-0.005 0.035,-0.008 0.052,-0.014 1.486,-0.389 1.521,-1.703 1.521,-1.714 0,-1.134 -0.365,-1.645 -1.201,-2.317 -0.991,-0.796 -2.601,-0.707 -3.822,-0.142 l 0,1.715 0.221,0 c 0,-0.265 0.099,-0.667 0.134,-0.755 0.035,-0.089 0.057,-0.13 0.248,-0.359 0.766,-0.92 2.174,-0.813 3.024,-0.018 0.583,0.548 0.787,1.703 0.195,2.317 -0.479,0.495 -1.257,0.566 -1.699,0.672 -0.389,0.093 -1.132,0.282 -1.57,0.615 L 0,0 z"
           id="path3207"
           style="fill:#ffffff;fill-opacity:1;fill-rule:nonzero;stroke:none" />
      </g>
      <g
         transform="matrix(1.25,0,0,-1.25,199.98814,451.7359)"
         id="g3209">
        <path
           d="m 0,0 c -0.037,-0.097 0,-0.129 0.075,-0.129 l 0.424,0 -0.036,-0.495 -0.617,0 c -0.124,0 -0.169,-0.017 -0.221,-0.142 -0.054,-0.124 -1.123,-2.298 -1.123,-2.298 -0.363,-0.734 0.31,-0.956 0.485,-0.956 l 0,-0.203 -4.244,0 0,0.213 c 0,0 0.322,-0.014 0.602,0.035 0.3,0.054 0.281,0.442 0.281,0.565 0,0.125 0.037,0.496 0.037,0.638 l 0,2.772 0.927,0 0,-2.746 c 0,0 0.029,-0.283 0.046,-0.654 0.016,-0.372 0.229,-0.54 0.442,-0.54 0.212,0 0.485,0.31 0.6,0.452 0,0 0.847,1.689 1.748,3.488 L 0,0 z"
           id="path3211"
           style="fill:#ffffff;fill-opacity:1;fill-rule:nonzero;stroke:none" />
      </g>
      <g
         transform="matrix(1.25,0,0,-1.25,209.34414,451.7359)"
         id="g3213">
        <path
           d="M 0,0 0,-3.241 C 0,-3.896 0.601,-4.028 0.778,-4.02 l 0.203,0 0,-0.203 -5.252,0 0,0.213 0.363,0 c 0.248,0 0.38,0.442 0.291,0.635 l -1.096,2.609 c -0.036,0.098 -0.052,0.142 -0.167,0.142 l -2.193,0 0.052,0.495 1.928,0 c 0.067,0 0.09,0.025 0.06,0.129 l 1.008,0 1.31,-3.162 c 0.141,-0.336 0.517,-0.751 0.703,-0.817 0.186,-0.066 0.195,-0.053 0.544,-0.053 0.35,0 0.539,0.388 0.552,0.504 L -0.916,0 0,0 z"
           id="path3215"
           style="fill:#ffffff;fill-opacity:1;fill-rule:nonzero;stroke:none" />
      </g>
      <g
         transform="matrix(1.25,0,0,-1.25,191.33877,444.86215)"
         id="g3217">
        <path
           d="M 0,0 C 0.25,-0.019 0.547,-0.016 0.832,0.023 2.352,0.225 3.483,2.109 2.88,4.395 2.35,6.396 0.525,7.638 -1.153,7.176 -2.663,6.762 -3.55,4.708 -3.165,3.082 -2.946,2.155 -2.055,0.181 0,0 l -0.11,-0.591 -0.049,0 c -2.32,0 -4.201,1.858 -4.201,4.151 0,2.293 1.889,4.19 4.209,4.19 2.322,0 4.193,-1.897 4.193,-4.19 0,-2.263 -1.875,-4.103 -4.152,-4.151 L 0,0 z"
           id="path3219"
           style="fill:#ffffff;fill-opacity:1;fill-rule:nonzero;stroke:none" />
      </g>
      <g
         transform="matrix(1.25,0,0,-1.25,196.16977,445.44265)"
         id="g3221">
        <path
           d="m 0,0 2.546,0 0,0.213 -0.354,0 c -0.142,0 -0.503,0.151 -0.503,0.778 l 0,3.183 3.898,0 0,-3.183 c 0,-0.398 -0.264,-0.757 -0.475,-0.778 -0.179,-0.018 -0.301,0 -0.301,0 l 0,-0.213 2.545,0 0,0.213 -0.353,0 C 6.791,0.274 6.508,0.434 6.508,0.991 l 0,6.286 c 0,0.628 0.336,0.647 0.485,0.647 l 0.363,0 0,0.212 -2.618,0 0,-0.212 0.364,0 c 0.133,0 0.485,-0.009 0.485,-0.636 l 0,-2.619 -3.89,0 0,2.619 c 0,0.627 0.275,0.636 0.425,0.636 l 0.354,0 0,0.212 -2.548,0 0,-0.212 0.355,0 c 0.151,0 0.495,-0.009 0.495,-0.636 l 0,-6.297 C 0.778,0.222 0.485,0.213 0.353,0.213 L 0,0.213 0,0 z"
           id="path3223"
           style="fill:#ffffff;fill-opacity:1;fill-rule:nonzero;stroke:none" />
      </g>
      <g
         transform="matrix(1.25,0,0,-1.25,214.38439,444.87252)"
         id="g3225">
        <path
           d="M 0,0 C 0.212,-0.008 0.48,-0.001 0.716,0.031 2.234,0.233 3.369,2.117 2.763,4.403 2.234,6.405 0.41,7.646 -1.267,7.185 -2.778,6.771 -3.667,4.716 -3.281,3.09 -3.056,2.146 -2.137,0.116 0,0 l -0.172,-0.583 -0.102,0 c -2.32,0 -4.202,1.858 -4.202,4.151 0,2.293 1.89,4.191 4.21,4.191 2.321,0 4.193,-1.898 4.193,-4.191 0,-2.259 -1.826,-4.097 -4.099,-4.151 L 0,0 z"
           id="path3227"
           style="fill:#ffffff;fill-opacity:1;fill-rule:nonzero;stroke:none" />
      </g>
      <g
         transform="matrix(1.25,0,0,-1.25,208.01789,439.6064)"
         id="g3229">
        <path
           d="m 0,0 0,2.619 c 0,0.627 0.274,0.636 0.425,0.636 l 0.353,0 0,0.212 -2.547,0 0,-0.212 0.354,0 c 0.151,0 0.496,-0.009 0.496,-0.636 l 0,-6.297 c 0,-0.769 -0.204,-0.717 -0.425,-0.778 l -0.353,0 0,-0.213 2.475,0 0,0.213 -0.282,0 c -0.203,0.061 -0.504,0.151 -0.504,0.778 l 0,3.183 L 0,0 z"
           id="path3231"
           style="fill:#ffffff;fill-opacity:1;fill-rule:nonzero;stroke:none" />
      </g>
      <g
         transform="matrix(1.25,0,0,-1.25,196.48164,459.59665)"
         id="g3233">
        <path
           d="m 0,0 c 0,0.333 -0.003,0.362 0.405,0.384 l 0,0.127 C 0.201,0.497 0,0.489 -0.208,0.489 c -0.209,0 -0.408,0.008 -0.599,0.022 l 0,-0.127 C -0.4,0.362 -0.403,0.333 -0.403,0 l 0,-1.951 c 0,-0.333 0.003,-0.362 -0.404,-0.384 l 0,-0.127 c 0.191,0.012 0.39,0.021 0.599,0.021 0.208,0 0.409,-0.009 0.613,-0.021 l 0,0.127 C -0.003,-2.313 0,-2.284 0,-1.951 L 0,0 z"
           id="path3235"
           style="fill:#ffffff;fill-opacity:1;fill-rule:nonzero;stroke:none" />
      </g>
      <g
         transform="matrix(1.25,0,0,-1.25,196.48164,459.59665)"
         id="g3237">
        <path
           d="m 0,0 c 0,0.333 -0.003,0.362 0.405,0.384 l 0,0.127 C 0.201,0.497 0,0.489 -0.208,0.489 c -0.209,0 -0.408,0.008 -0.599,0.022 l 0,-0.127 C -0.4,0.362 -0.403,0.333 -0.403,0 l 0,-1.951 c 0,-0.333 0.003,-0.362 -0.404,-0.384 l 0,-0.127 c 0.191,0.012 0.39,0.021 0.599,0.021 0.208,0 0.409,-0.009 0.613,-0.021 l 0,0.127 C -0.003,-2.313 0,-2.284 0,-1.951 L 0,0 z"
           id="path3239"
           style="fill:none;stroke:#ffffff;stroke-width:0.081;stroke-linecap:butt;stroke-linejoin:miter;stroke-miterlimit:3.86400008;stroke-opacity:1;stroke-dasharray:none" />
      </g>
      <g
         transform="matrix(1.25,0,0,-1.25,202.09689,460.9174)"
         id="g3241">
        <path
           d="m 0,0 c 0.962,0.035 0.993,0.06 0.993,-0.42 l 0.14,0 0,0.983 -0.14,0 C 0.988,0.145 0.929,0.196 0,0.205 l 0,0.796 c 0,0.149 0.005,0.247 0.022,0.354 0.141,0.021 0.341,0.021 0.527,0.021 0.213,0 0.43,-0.009 0.635,-0.072 0.029,-0.133 0.055,-0.251 0.06,-0.418 l 0.132,0 c 0,0.089 0.012,0.162 0.012,0.251 C 1.393,1.273 1.409,1.409 1.456,1.55 1.311,1.572 1.018,1.567 0.75,1.572 0.494,1.558 0.234,1.55 -0.03,1.55 c -0.263,0 -0.519,0.008 -0.779,0.022 l 0,-0.129 c 0.409,-0.02 0.404,-0.05 0.404,-0.382 l 0,-1.954 c 0,-0.286 -0.152,-0.375 -0.365,-0.383 l 0,-0.127 c 0.26,0.012 0.511,0.02 0.77,0.02 0.259,0 0.516,-0.008 0.767,-0.02 0.264,0.004 0.548,0 0.706,0.02 l 0,0.354 c 0,0.136 0.025,0.255 0.044,0.344 l -0.141,0 -0.039,-0.233 C 1.329,-0.995 1.307,-1.072 1.286,-1.136 1.064,-1.199 0.83,-1.208 0.601,-1.208 c -0.204,0 -0.422,0 -0.579,0.021 C 0.005,-1.076 0,-0.974 0,-0.821 L 0,0 z"
           id="path3243"
           style="fill:#ffffff;fill-opacity:1;fill-rule:nonzero;stroke:none" />
      </g>
      <g
         transform="matrix(1.25,0,0,-1.25,202.09689,460.9174)"
         id="g3245">
        <path
           d="m 0,0 c 0.962,0.035 0.993,0.06 0.993,-0.42 l 0.14,0 0,0.983 -0.14,0 C 0.988,0.145 0.929,0.196 0,0.205 l 0,0.796 c 0,0.149 0.005,0.247 0.022,0.354 0.141,0.021 0.341,0.021 0.527,0.021 0.213,0 0.43,-0.009 0.635,-0.072 0.029,-0.133 0.055,-0.251 0.06,-0.418 l 0.132,0 c 0,0.089 0.012,0.162 0.012,0.251 C 1.393,1.273 1.409,1.409 1.456,1.55 1.311,1.572 1.018,1.567 0.75,1.572 0.494,1.558 0.234,1.55 -0.03,1.55 c -0.263,0 -0.519,0.008 -0.779,0.022 l 0,-0.129 c 0.409,-0.02 0.404,-0.05 0.404,-0.382 l 0,-1.954 c 0,-0.286 -0.152,-0.375 -0.365,-0.383 l 0,-0.127 c 0.26,0.012 0.511,0.02 0.77,0.02 0.259,0 0.516,-0.008 0.767,-0.02 0.264,0.004 0.548,0 0.706,0.02 l 0,0.354 c 0,0.136 0.025,0.255 0.044,0.344 l -0.141,0 -0.039,-0.233 C 1.329,-0.995 1.307,-1.072 1.286,-1.136 1.064,-1.199 0.83,-1.208 0.601,-1.208 c -0.204,0 -0.422,0 -0.579,0.021 C 0.005,-1.076 0,-0.974 0,-0.821 L 0,0 z"
           id="path3247"
           style="fill:none;stroke:#ffffff;stroke-width:0.081;stroke-linecap:butt;stroke-linejoin:miter;stroke-miterlimit:3.86400008;stroke-opacity:1;stroke-dasharray:none" />
      </g>
      <g
         transform="matrix(1.25,0,0,-1.25,204.83364,462.03565)"
         id="g3249">
        <path
           d="m 0,0 c 0,-0.333 0.005,-0.362 -0.403,-0.384 l 0,-0.127 c 0.19,0.012 0.391,0.021 0.599,0.021 0.209,0 0.41,-0.009 0.614,-0.021 l 0,0.127 C 0.401,-0.362 0.405,-0.333 0.405,0 l 0,1.954 c 0,0.131 0,0.221 0.025,0.293 0.115,0.034 0.276,0.056 0.427,0.056 0.314,0 0.654,-0.136 0.654,-0.596 C 1.511,1.393 1.255,1.162 0.959,1.11 0.83,1.089 0.698,1.085 0.567,1.094 L 0.549,1.03 1.563,-0.273 c 0.059,-0.072 0.105,-0.149 0.174,-0.238 0.099,0.012 0.193,0.021 0.29,0.021 0.098,0 0.196,-0.009 0.289,-0.021 l 0,0.127 c -0.085,0.014 -0.175,0.039 -0.242,0.12 l -0.966,1.26 c 0.412,0.081 0.83,0.357 0.83,0.821 0,0.358 -0.272,0.677 -0.86,0.647 C 0.83,2.451 0.583,2.442 0.333,2.442 c -0.251,0 -0.497,0.009 -0.736,0.022 l 0,-0.128 C 0.005,2.315 0,2.286 0,1.954 L 0,0 z"
           id="path3251"
           style="fill:#ffffff;fill-opacity:1;fill-rule:nonzero;stroke:none" />
      </g>
      <g
         transform="matrix(1.25,0,0,-1.25,204.83364,462.03565)"
         id="g3253">
        <path
           d="m 0,0 c 0,-0.333 0.005,-0.362 -0.403,-0.384 l 0,-0.127 c 0.19,0.012 0.391,0.021 0.599,0.021 0.209,0 0.41,-0.009 0.614,-0.021 l 0,0.127 C 0.401,-0.362 0.405,-0.333 0.405,0 l 0,1.954 c 0,0.131 0,0.221 0.025,0.293 0.115,0.034 0.276,0.056 0.427,0.056 0.314,0 0.654,-0.136 0.654,-0.596 C 1.511,1.393 1.255,1.162 0.959,1.11 0.83,1.089 0.698,1.085 0.567,1.094 L 0.549,1.03 1.563,-0.273 c 0.059,-0.072 0.105,-0.149 0.174,-0.238 0.099,0.012 0.193,0.021 0.29,0.021 0.098,0 0.196,-0.009 0.289,-0.021 l 0,0.127 c -0.085,0.014 -0.175,0.039 -0.242,0.12 l -0.966,1.26 c 0.412,0.081 0.83,0.357 0.83,0.821 0,0.358 -0.272,0.677 -0.86,0.647 C 0.83,2.451 0.583,2.442 0.333,2.442 c -0.251,0 -0.497,0.009 -0.736,0.022 l 0,-0.128 C 0.005,2.315 0,2.286 0,1.954 L 0,0 z"
           id="path3255"
           style="fill:none;stroke:#ffffff;stroke-width:0.081;stroke-linecap:butt;stroke-linejoin:miter;stroke-miterlimit:3.86400008;stroke-opacity:1;stroke-dasharray:none" />
      </g>
      <g
         transform="matrix(1.25,0,0,-1.25,210.10777,459.84627)"
         id="g3257">
        <path
           d="m 0,0 c 0.005,0.127 0.022,0.251 0.03,0.379 0.005,0.068 0.022,0.136 0.035,0.204 -0.269,0.102 -0.537,0.196 -0.826,0.196 -0.55,0 -1.043,-0.371 -1.043,-0.954 0,-1.24 1.685,-0.276 1.685,-1.307 0,-0.422 -0.373,-0.646 -0.756,-0.646 -0.218,0 -0.491,0.046 -0.66,0.195 -0.051,0.047 -0.06,0.128 -0.06,0.222 l 0,0.2 -0.146,0 0,-0.119 c -0.003,-0.167 -0.013,-0.371 -0.028,-0.533 0.234,-0.097 0.472,-0.161 0.728,-0.161 0.633,0 1.286,0.348 1.286,1.076 0,1.069 -1.694,0.303 -1.694,1.226 0,0.367 0.296,0.609 0.646,0.609 0.2,0 0.502,-0.068 0.617,-0.247 C -0.144,0.272 -0.144,0.161 -0.144,0 L 0,0 z"
           id="path3259"
           style="fill:#ffffff;fill-opacity:1;fill-rule:nonzero;stroke:none" />
      </g>
      <g
         transform="matrix(1.25,0,0,-1.25,210.10777,459.84627)"
         id="g3261">
        <path
           d="m 0,0 c 0.005,0.127 0.022,0.251 0.03,0.379 0.005,0.068 0.022,0.136 0.035,0.204 -0.269,0.102 -0.537,0.196 -0.826,0.196 -0.55,0 -1.043,-0.371 -1.043,-0.954 0,-1.24 1.685,-0.276 1.685,-1.307 0,-0.422 -0.373,-0.646 -0.756,-0.646 -0.218,0 -0.491,0.046 -0.66,0.195 -0.051,0.047 -0.06,0.128 -0.06,0.222 l 0,0.2 -0.146,0 0,-0.119 c -0.003,-0.167 -0.013,-0.371 -0.028,-0.533 0.234,-0.097 0.472,-0.161 0.728,-0.161 0.633,0 1.286,0.348 1.286,1.076 0,1.069 -1.694,0.303 -1.694,1.226 0,0.367 0.296,0.609 0.646,0.609 0.2,0 0.502,-0.068 0.617,-0.247 C -0.144,0.272 -0.144,0.161 -0.144,0 L 0,0 z"
           id="path3263"
           style="fill:none;stroke:#ffffff;stroke-width:0.081;stroke-linecap:butt;stroke-linejoin:miter;stroke-miterlimit:3.86400008;stroke-opacity:1;stroke-dasharray:none" />
      </g>
      <g
         transform="matrix(1.25,0,0,-1.25,211.71902,459.5924)"
         id="g3265">
        <path
           d="m 0,0 c 0,0.332 -0.005,0.362 0.405,0.383 l 0,0.128 C 0.201,0.498 0,0.49 -0.209,0.49 c -0.208,0 -0.409,0.008 -0.6,0.021 l 0,-0.128 C -0.4,0.362 -0.405,0.332 -0.405,0 l 0,-1.954 c 0,-0.332 0.005,-0.361 -0.404,-0.382 l 0,-0.128 c 0.191,0.012 0.392,0.021 0.6,0.021 0.209,0 0.41,-0.009 0.614,-0.021 l 0,0.128 C -0.005,-2.315 0,-2.286 0,-1.954 L 0,0 z"
           id="path3267"
           style="fill:#ffffff;fill-opacity:1;fill-rule:nonzero;stroke:none" />
      </g>
      <g
         transform="matrix(1.25,0,0,-1.25,211.71902,459.5924)"
         id="g3269">
        <path
           d="m 0,0 c 0,0.332 -0.005,0.362 0.405,0.383 l 0,0.128 C 0.201,0.498 0,0.49 -0.209,0.49 c -0.208,0 -0.409,0.008 -0.6,0.021 l 0,-0.128 C -0.4,0.362 -0.405,0.332 -0.405,0 l 0,-1.954 c 0,-0.332 0.005,-0.361 -0.404,-0.382 l 0,-0.128 c 0.191,0.012 0.392,0.021 0.6,0.021 0.209,0 0.41,-0.009 0.614,-0.021 l 0,0.128 C -0.005,-2.315 0,-2.286 0,-1.954 L 0,0 z"
           id="path3271"
           style="fill:none;stroke:#ffffff;stroke-width:0.081;stroke-linecap:butt;stroke-linejoin:miter;stroke-miterlimit:3.86400008;stroke-opacity:1;stroke-dasharray:none" />
      </g>
      <g
         transform="matrix(1.25,0,0,-1.25,213.77964,462.03565)"
         id="g3273">
        <path
           d="m 0,0 c 0,-0.333 0.005,-0.362 -0.403,-0.384 l 0,-0.127 c 0.191,0.012 0.39,0.02 0.599,0.02 0.208,0 0.408,-0.008 0.614,-0.02 l 0,0.127 C 0.4,-0.362 0.404,-0.333 0.404,0 l 0,1.822 C 0.409,1.983 0.409,2.12 0.422,2.247 L 1.086,2.226 C 1.175,2.222 1.227,2.209 1.235,2.098 1.252,1.997 1.277,1.884 1.282,1.771 l 0.128,0 c 0,0.08 0,0.157 0.003,0.237 C 1.418,2.157 1.421,2.307 1.437,2.464 1.021,2.451 0.618,2.442 0.205,2.442 -0.212,2.442 -0.618,2.451 -1.021,2.464 -1.007,2.307 -1.004,2.157 -1,2.008 -0.996,1.928 -0.996,1.851 -0.996,1.771 l 0.129,0 c 0.004,0.113 0.029,0.226 0.047,0.327 0.007,0.111 0.059,0.124 0.149,0.128 l 0.654,0.021 C -0.003,2.12 -0.003,1.983 0,1.822 L 0,0 z"
           id="path3275"
           style="fill:#ffffff;fill-opacity:1;fill-rule:nonzero;stroke:none" />
      </g>
      <g
         transform="matrix(1.25,0,0,-1.25,213.77964,462.03565)"
         id="g3277">
        <path
           d="m 0,0 c 0,-0.333 0.005,-0.362 -0.403,-0.384 l 0,-0.127 c 0.191,0.012 0.39,0.02 0.599,0.02 0.208,0 0.408,-0.008 0.614,-0.02 l 0,0.127 C 0.4,-0.362 0.404,-0.333 0.404,0 l 0,1.822 C 0.409,1.983 0.409,2.12 0.422,2.247 L 1.086,2.226 C 1.175,2.222 1.227,2.209 1.235,2.098 1.252,1.997 1.277,1.884 1.282,1.771 l 0.128,0 c 0,0.08 0,0.157 0.003,0.237 C 1.418,2.157 1.421,2.307 1.437,2.464 1.021,2.451 0.618,2.442 0.205,2.442 -0.212,2.442 -0.618,2.451 -1.021,2.464 -1.007,2.307 -1.004,2.157 -1,2.008 -0.996,1.928 -0.996,1.851 -0.996,1.771 l 0.129,0 c 0.004,0.113 0.029,0.226 0.047,0.327 0.007,0.111 0.059,0.124 0.149,0.128 l 0.654,0.021 C -0.003,2.12 -0.003,1.983 0,1.822 L 0,0 z"
           id="path3279"
           style="fill:none;stroke:#ffffff;stroke-width:0.081;stroke-linecap:butt;stroke-linejoin:miter;stroke-miterlimit:3.86400008;stroke-opacity:1;stroke-dasharray:none" />
      </g>
      <g
         transform="matrix(1.25,0,0,-1.25,191.93514,458.95215)"
         id="g3281">
        <path
           d="m 0,0 c -0.125,-0.013 -0.246,-0.022 -0.372,-0.022 -0.13,0 -0.251,0.009 -0.376,0.022 l 0,-0.128 0.06,0 c 0.243,-0.004 0.312,-0.043 0.312,-0.289 l 0,-2.141 c 0,-0.248 -0.078,-0.286 -0.342,-0.286 l -0.071,-0.005 0,-0.127 c 0.175,0.013 0.349,0.021 0.521,0.021 0.174,0 0.347,-0.008 0.516,-0.021 l 0,0.127 -0.071,0.005 c -0.271,0 -0.354,0.038 -0.354,0.286 l 0,2.076 2.092,-2.498 0.341,-0.06 -0.013,0.157 0,2.466 c 0,0.246 0.082,0.285 0.355,0.285 l 0.07,0.004 0,0.128 C 2.499,-0.013 2.325,-0.022 2.152,-0.022 1.98,-0.022 1.806,-0.013 1.634,0 l 0,-0.128 0.068,-0.004 c 0.265,0 0.341,-0.039 0.341,-0.285 l 0,-2.116 L 0,0 z"
           id="path3283"
           style="fill:#ffffff;fill-opacity:1;fill-rule:nonzero;stroke:none" />
      </g>
      <g
         transform="matrix(1.25,0,0,-1.25,191.93514,458.95215)"
         id="g3285">
        <path
           d="m 0,0 c -0.125,-0.013 -0.246,-0.022 -0.372,-0.022 -0.13,0 -0.251,0.009 -0.376,0.022 l 0,-0.128 0.06,0 c 0.243,-0.004 0.312,-0.043 0.312,-0.289 l 0,-2.141 c 0,-0.248 -0.078,-0.286 -0.342,-0.286 l -0.071,-0.005 0,-0.127 c 0.175,0.013 0.349,0.021 0.521,0.021 0.174,0 0.347,-0.008 0.516,-0.021 l 0,0.127 -0.071,0.005 c -0.271,0 -0.354,0.038 -0.354,0.286 l 0,2.076 2.092,-2.498 0.341,-0.06 -0.013,0.157 0,2.466 c 0,0.246 0.082,0.285 0.355,0.285 l 0.07,0.004 0,0.128 C 2.499,-0.013 2.325,-0.022 2.152,-0.022 1.98,-0.022 1.806,-0.013 1.634,0 l 0,-0.128 0.068,-0.004 c 0.265,0 0.341,-0.039 0.341,-0.285 l 0,-2.116 L 0,0 z"
           id="path3287"
           style="fill:none;stroke:#ffffff;stroke-width:0.081;stroke-linecap:butt;stroke-linejoin:miter;stroke-miterlimit:3.86400008;stroke-opacity:1;stroke-dasharray:none" />
      </g>
      <g
         transform="matrix(1.25,0,0,-1.25,187.64614,459.59115)"
         id="g3289">
        <path
           d="m 0,0 c 0,0.332 -0.005,0.362 0.434,0.383 l 0,0.128 C 0.214,0.498 0,0.489 -0.225,0.489 c -0.222,0 -0.436,0.009 -0.642,0.022 l 0,-0.128 C -0.429,0.362 -0.434,0.332 -0.434,0 l 0,-1.532 c 0,-0.214 0,-0.367 0.114,-0.558 0.219,-0.379 0.716,-0.438 1.132,-0.438 0.182,0 0.441,0.033 0.616,0.089 0.164,0.051 0.381,0.204 0.473,0.34 0.138,0.204 0.201,0.388 0.201,0.621 l 0,1.572 c 0,0.246 0.087,0.285 0.375,0.285 l 0.072,0.004 0,0.128 C 2.372,0.498 2.189,0.489 2.007,0.489 1.824,0.489 1.642,0.498 1.459,0.511 l 0,-0.128 0.072,-0.004 c 0.278,0 0.362,-0.039 0.362,-0.285 l 0,-1.354 C 1.893,-1.521 1.851,-1.779 1.71,-1.971 1.545,-2.196 1.213,-2.265 0.934,-2.265 0.338,-2.265 -0.028,-2.09 0,-1.485 L 0,0 z"
           id="path3291"
           style="fill:#ffffff;fill-opacity:1;fill-rule:nonzero;stroke:none" />
      </g>
      <g
         transform="matrix(1.25,0,0,-1.25,187.64614,459.59115)"
         id="g3293">
        <path
           d="m 0,0 c 0,0.332 -0.005,0.362 0.434,0.383 l 0,0.128 C 0.214,0.498 0,0.489 -0.225,0.489 c -0.222,0 -0.436,0.009 -0.642,0.022 l 0,-0.128 C -0.429,0.362 -0.434,0.332 -0.434,0 l 0,-1.532 c 0,-0.214 0,-0.367 0.114,-0.558 0.219,-0.379 0.716,-0.438 1.132,-0.438 0.182,0 0.441,0.033 0.616,0.089 0.164,0.051 0.381,0.204 0.473,0.34 0.138,0.204 0.201,0.388 0.201,0.621 l 0,1.572 c 0,0.246 0.087,0.285 0.375,0.285 l 0.072,0.004 0,0.128 C 2.372,0.498 2.189,0.489 2.007,0.489 1.824,0.489 1.642,0.498 1.459,0.511 l 0,-0.128 0.072,-0.004 c 0.278,0 0.362,-0.039 0.362,-0.285 l 0,-1.354 C 1.893,-1.521 1.851,-1.779 1.71,-1.971 1.545,-2.196 1.213,-2.265 0.934,-2.265 0.338,-2.265 -0.028,-2.09 0,-1.485 L 0,0 z"
           id="path3295"
           style="fill:none;stroke:#ffffff;stroke-width:0.081;stroke-linecap:butt;stroke-linejoin:miter;stroke-miterlimit:3.86400008;stroke-opacity:1;stroke-dasharray:none" />
      </g>
      <g
         transform="matrix(1.25,0,0,-1.25,198.66364,461.86352)"
         id="g3297">
        <path
           d="m 0,0 0.166,-0.387 0.102,-0.277 0.236,0 0.333,0.787 0.785,1.749 C 1.707,2.061 1.716,2.218 2.017,2.2 l 0,0.129 C 1.848,2.315 1.682,2.307 1.51,2.307 1.335,2.307 1.17,2.315 1.002,2.329 l 0,-0.129 C 1.565,2.218 1.419,2.03 1.326,1.792 L 1.123,1.277 0.509,-0.111 -0.224,1.571 -0.403,2.043 c -0.034,0.085 -0.061,0.166 0.39,0.157 l 0,0.129 C -0.219,2.315 -0.427,2.307 -0.638,2.307 c -0.212,0 -0.418,0.008 -0.626,0.022 l 0,-0.129 0.091,-0.003 C -0.916,2.163 -0.954,2.145 -0.85,1.916 L 0,0 z"
           id="path3299"
           style="fill:#ffffff;fill-opacity:1;fill-rule:nonzero;stroke:none" />
      </g>
      <g
         transform="matrix(1.25,0,0,-1.25,198.66364,461.86352)"
         id="g3301">
        <path
           d="m 0,0 0.166,-0.387 0.102,-0.277 0.236,0 0.333,0.787 0.785,1.749 C 1.707,2.061 1.716,2.218 2.017,2.2 l 0,0.129 C 1.848,2.315 1.682,2.307 1.51,2.307 1.335,2.307 1.17,2.315 1.002,2.329 l 0,-0.129 C 1.565,2.218 1.419,2.03 1.326,1.792 L 1.123,1.277 0.509,-0.111 -0.224,1.571 -0.403,2.043 c -0.034,0.085 -0.061,0.166 0.39,0.157 l 0,0.129 C -0.219,2.315 -0.427,2.307 -0.638,2.307 c -0.212,0 -0.418,0.008 -0.626,0.022 l 0,-0.129 0.091,-0.003 C -0.916,2.163 -0.954,2.145 -0.85,1.916 L 0,0 z"
           id="path3303"
           style="fill:none;stroke:#ffffff;stroke-width:0.081;stroke-linecap:butt;stroke-linejoin:miter;stroke-miterlimit:3.86400008;stroke-opacity:1;stroke-dasharray:none" />
      </g>
      <g
         transform="matrix(1.25,0,0,-1.25,216.85327,459.44652)"
         id="g3305">
        <path
           d="m 0,0 c -0.06,0.098 -0.121,0.188 -0.188,0.276 -0.073,0.089 -0.137,0.162 -0.261,0.141 l -0.45,-0.089 0,-0.124 c 0.303,0.034 0.563,-0.383 0.703,-0.626 l 0.51,-0.894 c 0.021,-0.047 0.021,-0.098 0.021,-0.132 l 0,-0.625 c 0,-0.332 0.005,-0.362 -0.404,-0.384 l 0,-0.127 c 0.193,0.012 0.392,0.021 0.6,0.021 0.209,0 0.409,-0.009 0.614,-0.021 l 0,0.127 C 0.736,-2.435 0.74,-2.405 0.74,-2.073 l 0,0.57 c 0,0.102 0.008,0.209 0.058,0.318 0.176,0.38 0.692,1.1 1.048,1.513 l 0,0.064 -0.34,0 C 1.366,0.119 1.208,-0.145 1.046,-0.417 L 0.607,-1.111 0,0 z"
           id="path3307"
           style="fill:#ffffff;fill-opacity:1;fill-rule:nonzero;stroke:none" />
      </g>
      <g
         transform="matrix(1.25,0,0,-1.25,216.85327,459.44652)"
         id="g3309">
        <path
           d="m 0,0 c -0.06,0.098 -0.121,0.188 -0.188,0.276 -0.073,0.089 -0.137,0.162 -0.261,0.141 l -0.45,-0.089 0,-0.124 c 0.303,0.034 0.563,-0.383 0.703,-0.626 l 0.51,-0.894 c 0.021,-0.047 0.021,-0.098 0.021,-0.132 l 0,-0.625 c 0,-0.332 0.005,-0.362 -0.404,-0.384 l 0,-0.127 c 0.193,0.012 0.392,0.021 0.6,0.021 0.209,0 0.409,-0.009 0.614,-0.021 l 0,0.127 C 0.736,-2.435 0.74,-2.405 0.74,-2.073 l 0,0.57 c 0,0.102 0.008,0.209 0.058,0.318 0.176,0.38 0.692,1.1 1.048,1.513 l 0,0.064 -0.34,0 C 1.366,0.119 1.208,-0.145 1.046,-0.417 L 0.607,-1.111 0,0 z"
           id="path3311"
           style="fill:none;stroke:#ffffff;stroke-width:0.081;stroke-linecap:butt;stroke-linejoin:miter;stroke-miterlimit:3.86400008;stroke-opacity:1;stroke-dasharray:none" />
      </g>
      <g
         transform="matrix(1.25,0,0,-1.25,187.95139,433.33565)"
         id="g3313">
        <path
           d="m 0,0 c 0,-0.326 0.005,-0.355 -0.395,-0.376 l 0,-0.124 c 0.187,0.011 0.383,0.021 0.587,0.021 0.205,0 0.401,-0.01 0.601,-0.021 l 0,0.124 C 0.392,-0.355 0.397,-0.326 0.397,0 l 0,1.783 C 0.4,1.941 0.4,2.074 0.414,2.199 L 1.063,2.179 C 1.152,2.175 1.202,2.161 1.208,2.054 1.225,1.954 1.25,1.845 1.255,1.732 l 0.124,0 c 0,0.08 0,0.155 0.005,0.234 0.004,0.146 0.009,0.292 0.02,0.446 -0.403,-0.012 -0.8,-0.02 -1.203,-0.02 -0.409,0 -0.805,0.008 -1.2,0.02 0.013,-0.154 0.017,-0.3 0.02,-0.446 0.005,-0.079 0.005,-0.154 0.005,-0.234 l 0.124,0 c 0.005,0.113 0.03,0.222 0.047,0.322 0.008,0.107 0.058,0.121 0.145,0.125 l 0.641,0.02 C -0.003,2.074 -0.003,1.941 0,1.783 L 0,0 z"
           id="path3315"
           style="fill:#ffffff;fill-opacity:1;fill-rule:nonzero;stroke:none" />
      </g>
      <g
         transform="matrix(1.25,0,0,-1.25,187.95139,433.33565)"
         id="g3317">
        <path
           d="m 0,0 c 0,-0.326 0.005,-0.355 -0.395,-0.376 l 0,-0.124 c 0.187,0.011 0.383,0.021 0.587,0.021 0.205,0 0.401,-0.01 0.601,-0.021 l 0,0.124 C 0.392,-0.355 0.397,-0.326 0.397,0 l 0,1.783 C 0.4,1.941 0.4,2.074 0.414,2.199 L 1.063,2.179 C 1.152,2.175 1.202,2.161 1.208,2.054 1.225,1.954 1.25,1.845 1.255,1.732 l 0.124,0 c 0,0.08 0,0.155 0.005,0.234 0.004,0.146 0.009,0.292 0.02,0.446 -0.403,-0.012 -0.8,-0.02 -1.203,-0.02 -0.409,0 -0.805,0.008 -1.2,0.02 0.013,-0.154 0.017,-0.3 0.02,-0.446 0.005,-0.079 0.005,-0.154 0.005,-0.234 l 0.124,0 c 0.005,0.113 0.03,0.222 0.047,0.322 0.008,0.107 0.058,0.121 0.145,0.125 l 0.641,0.02 C -0.003,2.074 -0.003,1.941 0,1.783 L 0,0 z"
           id="path3319"
           style="fill:none;stroke:#ffffff;stroke-width:0.081;stroke-linecap:butt;stroke-linejoin:miter;stroke-miterlimit:3.86400008;stroke-opacity:1;stroke-dasharray:none" />
      </g>
      <g
         transform="matrix(1.25,0,0,-1.25,204.24589,430.94552)"
         id="g3321">
        <path
           d="m 0,0 c 0,0.325 -0.003,0.354 0.354,0.375 l 0,0.125 C 0.175,0.488 0,0.479 -0.185,0.479 c -0.182,0 -0.359,0.009 -0.528,0.021 l 0,-0.125 C -0.354,0.354 -0.357,0.325 -0.357,0 l 0,-0.771 -1.499,0 0,0.771 c 0,0.325 -0.004,0.354 0.356,0.375 l 0,0.125 C -1.681,0.488 -1.856,0.479 -2.041,0.479 -2.225,0.479 -2.4,0.488 -2.568,0.5 l 0,-0.125 C -2.208,0.354 -2.213,0.325 -2.213,0 l 0,-1.912 c 0,-0.326 0.005,-0.355 -0.355,-0.376 l 0,-0.124 c 0.168,0.011 0.343,0.02 0.527,0.02 0.185,0 0.36,-0.009 0.541,-0.02 l 0,0.124 c -0.36,0.021 -0.356,0.05 -0.356,0.376 l 0,0.965 1.499,0 0,-0.965 c 0,-0.326 0.003,-0.355 -0.356,-0.376 l 0,-0.124 c 0.169,0.011 0.346,0.02 0.528,0.02 0.185,0 0.36,-0.009 0.539,-0.02 l 0,0.124 C -0.003,-2.267 0,-2.238 0,-1.912 L 0,0 z"
           id="path3323"
           style="fill:#ffffff;fill-opacity:1;fill-rule:nonzero;stroke:none" />
      </g>
      <g
         transform="matrix(1.25,0,0,-1.25,204.24589,430.94552)"
         id="g3325">
        <path
           d="m 0,0 c 0,0.325 -0.003,0.354 0.354,0.375 l 0,0.125 C 0.175,0.488 0,0.479 -0.185,0.479 c -0.182,0 -0.359,0.009 -0.528,0.021 l 0,-0.125 C -0.354,0.354 -0.357,0.325 -0.357,0 l 0,-0.771 -1.499,0 0,0.771 c 0,0.325 -0.004,0.354 0.356,0.375 l 0,0.125 C -1.681,0.488 -1.856,0.479 -2.041,0.479 -2.225,0.479 -2.4,0.488 -2.568,0.5 l 0,-0.125 C -2.208,0.354 -2.213,0.325 -2.213,0 l 0,-1.912 c 0,-0.326 0.005,-0.355 -0.355,-0.376 l 0,-0.124 c 0.168,0.011 0.343,0.02 0.527,0.02 0.185,0 0.36,-0.009 0.541,-0.02 l 0,0.124 c -0.36,0.021 -0.356,0.05 -0.356,0.376 l 0,0.965 1.499,0 0,-0.965 c 0,-0.326 0.003,-0.355 -0.356,-0.376 l 0,-0.124 c 0.169,0.011 0.346,0.02 0.528,0.02 0.185,0 0.36,-0.009 0.539,-0.02 l 0,0.124 C -0.003,-2.267 0,-2.238 0,-1.912 L 0,0 z"
           id="path3327"
           style="fill:none;stroke:#ffffff;stroke-width:0.081;stroke-linecap:butt;stroke-linejoin:miter;stroke-miterlimit:3.86400008;stroke-opacity:1;stroke-dasharray:none" />
      </g>
      <g
         transform="matrix(1.25,0,0,-1.25,216.55002,432.24315)"
         id="g3329">
        <path
           d="m 0,0 c 0.847,0.034 0.874,0.059 0.874,-0.412 l 0.124,0 0,0.962 -0.124,0 C 0.869,0.143 0.817,0.193 0,0.199 l 0,0.78 c 0,0.147 0.003,0.242 0.019,0.346 0.123,0.022 0.299,0.022 0.465,0.022 0.187,0 0.378,-0.009 0.557,-0.072 0.027,-0.129 0.05,-0.246 0.054,-0.408 l 0.115,0 c 0,0.087 0.012,0.158 0.012,0.245 0.003,0.134 0.02,0.267 0.06,0.406 -0.127,0.02 -0.386,0.016 -0.623,0.02 -0.224,-0.012 -0.453,-0.02 -0.686,-0.02 -0.232,0 -0.457,0.008 -0.686,0.02 l 0,-0.125 c 0.36,-0.02 0.357,-0.05 0.357,-0.375 l 0,-1.912 c 0,-0.28 -0.136,-0.368 -0.324,-0.376 l 0,-0.124 c 0.23,0.011 0.451,0.02 0.68,0.02 0.228,0 0.454,-0.009 0.674,-0.02 0.233,0.003 0.484,0 0.623,0.02 l 0,0.346 c 0,0.134 0.022,0.25 0.037,0.337 l -0.124,0 -0.032,-0.228 C 1.17,-0.975 1.151,-1.049 1.131,-1.112 0.937,-1.175 0.731,-1.183 0.529,-1.183 c -0.181,0 -0.372,0 -0.51,0.021 C 0.003,-1.053 0,-0.954 0,-0.804 L 0,0 z"
           id="path3331"
           style="fill:#ffffff;fill-opacity:1;fill-rule:evenodd;stroke:none" />
      </g>
      <g
         transform="matrix(1.25,0,0,-1.25,216.55002,432.24315)"
         id="g3333">
        <path
           d="m 0,0 c 0.847,0.034 0.874,0.059 0.874,-0.412 l 0.124,0 0,0.962 -0.124,0 C 0.869,0.143 0.817,0.193 0,0.199 l 0,0.78 c 0,0.147 0.003,0.242 0.019,0.346 0.123,0.022 0.299,0.022 0.465,0.022 0.187,0 0.378,-0.009 0.557,-0.072 0.027,-0.129 0.05,-0.246 0.054,-0.408 l 0.115,0 c 0,0.087 0.012,0.158 0.012,0.245 0.003,0.134 0.02,0.267 0.06,0.406 -0.127,0.02 -0.386,0.016 -0.623,0.02 -0.224,-0.012 -0.453,-0.02 -0.686,-0.02 -0.232,0 -0.457,0.008 -0.686,0.02 l 0,-0.125 c 0.36,-0.02 0.357,-0.05 0.357,-0.375 l 0,-1.912 c 0,-0.28 -0.136,-0.368 -0.324,-0.376 l 0,-0.124 c 0.23,0.011 0.451,0.02 0.68,0.02 0.228,0 0.454,-0.009 0.674,-0.02 0.233,0.003 0.484,0 0.623,0.02 l 0,0.346 c 0,0.134 0.022,0.25 0.037,0.337 l -0.124,0 -0.032,-0.228 C 1.17,-0.975 1.151,-1.049 1.131,-1.112 0.937,-1.175 0.731,-1.183 0.529,-1.183 c -0.181,0 -0.372,0 -0.51,0.021 C 0.003,-1.053 0,-0.954 0,-0.804 L 0,0 z"
           id="path3335"
           style="fill:none;stroke:#ffffff;stroke-width:0.081;stroke-linecap:butt;stroke-linejoin:miter;stroke-miterlimit:3.86400008;stroke-opacity:1;stroke-dasharray:none" />
      </g>
      <g
         transform="matrix(1.25,0,0,-1.25,210.32739,432.22365)"
         id="g3337">
        <path
           d="M 0,0 C 0.152,0 0.276,0.123 0.276,0.276 0.276,0.427 0.152,0.55 0,0.55 -0.152,0.55 -0.274,0.427 -0.274,0.276 -0.274,0.123 -0.152,0 0,0"
           id="path3339"
           style="fill:#ffffff;fill-opacity:1;fill-rule:nonzero;stroke:none" />
      </g>
      <g
         transform="matrix(1.25,0,0,-1.25,210.32739,432.22365)"
         id="g3341">
        <path
           d="M 0,0 C 0.152,0 0.276,0.123 0.276,0.276 0.276,0.427 0.152,0.55 0,0.55 -0.152,0.55 -0.274,0.427 -0.274,0.276 -0.274,0.123 -0.152,0 0,0 z"
           id="path3343"
           style="fill:none;stroke:#ffffff;stroke-width:0.20100001;stroke-linecap:butt;stroke-linejoin:miter;stroke-miterlimit:3.86400008;stroke-opacity:1;stroke-dasharray:none" />
      </g>
      <g
         transform="matrix(1.25,0,0,-1.25,195.42877,432.22365)"
         id="g3345">
        <path
           d="M 0,0 C 0.151,0 0.275,0.123 0.275,0.276 0.275,0.427 0.151,0.55 0,0.55 -0.152,0.55 -0.274,0.427 -0.274,0.276 -0.274,0.123 -0.152,0 0,0"
           id="path3347"
           style="fill:#ffffff;fill-opacity:1;fill-rule:nonzero;stroke:none" />
      </g>
      <g
         transform="matrix(1.25,0,0,-1.25,195.42877,432.22365)"
         id="g3349">
        <path
           d="M 0,0 C 0.151,0 0.275,0.123 0.275,0.276 0.275,0.427 0.151,0.55 0,0.55 -0.152,0.55 -0.274,0.427 -0.274,0.276 -0.274,0.123 -0.152,0 0,0 z"
           id="path3351"
           style="fill:none;stroke:#ffffff;stroke-width:0.20100001;stroke-linecap:butt;stroke-linejoin:miter;stroke-miterlimit:3.86400008;stroke-opacity:1;stroke-dasharray:none" />
      </g>
    </g>
  </g>
</svg>
