<svg xmlns="http://www.w3.org/2000/svg" height="306.44" viewBox="0 0 278.01977 306.44418" width="278.02"><g transform="matrix(1.25 0 0 -1.25 -357.49 537.22)"><path d="m390.92 426.12c-2.1114-0.0104-4.2887-0.0894-6.5357-0.24437-17.182-1.184-31.277-7.6594-42.106-16.842-9.911-8.4048-19.126-21.056-23.157-34.737-6.9844-23.702 11.062-36.666 27.719-42.807 15.274-5.6321 30.187-7.5488 47.369-10.528-0.8602-1.6847-1.6499-3.4843-2.4557-5.2634-0.8551-1.8904-1.3635-3.9471-2.8076-5.262-30.108 6.2764-71.546 7.0586-77.896 36.492-4.233-4.1336-11.985-12.143-12.982-21.053-0.83725-7.4792 2.8345-12.005 6.6672-15.088 8.279-6.6614 22.645-9.6661 36.141-12.632 14.202-3.1195 28.756-5.1147 39.298-9.4735-3.1152-7.5896-6.2588-15.6-9.4735-22.808-1.1364-2.5466-1.9368-5.1048-3.8595-7.0165-27.803 5.4026-52.886-1.0982-66.316-14.386-4.8807-4.8288-10.051-12.287-10.877-20.351-1.1976-11.693 3.8554-20.039 9.1229-24.913 4.686-4.3358 11.345-7.4837 18.947-8.071 27.096-2.0859 46.842 17.867 56.141 35.089 25.341-7.2922 46.029-19.238 60.001-37.897 16.385 9.6203 32.662 19.042 45.614 32.984 12.647 13.613 24.269 28.791 25.616 52.984 0.68425 12.3-1.883 23.533-5.6153 32.981-3.848 9.7478-8.8775 17.26-16.141 23.159-14.868 12.078-36.06 15.313-58.596 20 9.6339 13.712 21.174 25.436 33.684 35.79 4.063 3.3643 10.101 5.8951 11.228 11.929-2.3358 3.7324-7.2577 1.0184-10.879 1.7545-2.4582 0.49979-5.478 2.6959-7.7177 4.5608-7.1791 5.9738-14.473 10.818-23.509 14.386-10.256 4.0497-21.845 7.335-36.624 7.2622zm-10.442-11.978c21.906-0.20232 33.948-17.721 38.995-35.283 0.9775-3.4026 2.3682-8.2674 2.1064-11.228-0.18955-2.1505-2.8698-4.9629-4.5621-7.3684-1.8581-2.646-3.7631-4.9145-5.2634-7.3684-21.253 5.14-49.439 4.5696-63.159 16.49-4.1259 3.5844-9.1828 10.759-7.0178 19.65 0.8874 3.6431 3.5166 7.4926 5.9646 10.176 6.1914 6.7915 17.152 13.678 28.422 14.737 1.549 0.14556 3.0539 0.20872 4.5143 0.19523zm26.363-95.636c19.657-4.165 39.014-10.644 49.826-23.157 17.258-19.972 4.733-51.635-7.7204-68.422-19.212 11.082-39.522 21.064-63.159 27.719 2.7498 10.118 6.0247 19.707 8.7736 29.826 24.207-7.6075 47.594-16.032 52.631-42.808 2.7854 7.497 5.6153 15.022 5.6153 24.562 0 27.964-26.808 35.988-50.527 41.403 1.5062 3.6397 2.7265 7.5658 4.5608 10.877zm-70.97-87.885c4.7253 0.0636 9.426-0.26934 13.074-0.53656-3.2802-4.7762-6.7675-9.5673-12.544-12.903-4.6214-2.6664-20.769-8.538-21.141 2.376-0.30153 8.8685 10.215 10.923 20.611 11.063z" stroke="#ceb888" stroke-width="4.2874" fill="#582c83"/></g></svg>
