<?xml version="1.0" encoding="UTF-8" standalone="no"?>
<svg xmlns:rdf="http://www.w3.org/1999/02/22-rdf-syntax-ns#" xmlns="http://www.w3.org/2000/svg" xml:space="preserve" height="106" width="303" version="1.1" xmlns:cc="http://creativecommons.org/ns#" xmlns:dc="http://purl.org/dc/elements/1.1/" viewBox="0 0 302.69812 106.15606"><g style="" fill="#9e9188" transform="matrix(.5 0 0 .5 1.58 .206)"><path d="m34.1 75.9c0 19.8 0 37.2 0.22 40.7 0.225 4.63 0.665 11.4 2.2 13.4 2.42 3.53 9.25 7.48 32.2 7.48 17.8 0 33.7-5.94 45.4-17 10.1-9.47 15.2-27.3 15.2-44.5 0-23.8-10.3-39-18.3-46.9-18.3-18.3-39.7-20.8-62.8-20.8-3.75 0-9.91 0.656-11.7 1.32-1.76 0.652-2.42 1.54-2.42 3.74v62.5zm-17.6-20.2c0-29.1 0-34.3-0.438-40.3-0.5-6.41-1.6-9.49-7.95-10.4-1.54-0.19-4.85-0.41-6.61-0.41-0.658 0-1.54-0.88-1.54-1.54 0-1.1 0.882-1.54 3.08-1.54 8.81 0 21.4 0.436 22.5 0.436 2.2 0 14.5-0.436 26-0.436 19.4 0 54.8-1.76 77.7 21.4 9.69 9.69 18.9 25.3 18.9 47.6 0 23.6-10.1 41.6-20.9 52.6-8.37 8.59-25.8 21.6-58.8 21.6-8.37 0-18.7-0.656-27.1-1.1-8.37-0.659-15-1.1-15.9-1.1-0.438 0-3.96 0.218-7.93 0.218-3.96 0.222-8.59 0.44-11.7 0.44-1.98 0-3.09-0.44-3.09-1.54 0-0.659 0.446-1.54 1.55-1.54 1.76 0 4.18-0.44 5.94-0.872 3.74-0.884 4.18-4.41 5.07-9.91 1.1-7.7 1.1-22.5 1.1-40.5v-33"/><path d="m255 55.7c0-29.1 0-34.3-0.442-40.3-0.436-5.94-1.54-9.47-7.92-10.4-1.54-0.219-4.85-0.436-6.61-0.436-0.658 0-1.54-0.881-1.54-1.54 0-1.11 0.885-1.54 3.08-1.54 8.81 0 20.5 0.436 22.2 0.436 1.76 0 13.9-0.436 19.6-0.436 2.21 0 3.3 0.436 3.3 1.54 0 0.658-0.878 1.54-1.76 1.54-1.32 0-2.42 0-4.84 0.436-5.07 0.881-6.16 4.19-6.61 10.4-0.44 5.95-0.44 11.2-0.44 40.3v26.2c0 27.1 5.94 38.3 14.3 45.8 9.47 8.58 17.8 10.1 28.8 10.1 11.9 0 23.3-5.29 29.9-13.2 9.03-10.8 11-26.2 11-45.4v-23.6c0-29.1-0.209-34.3-0.439-40.3-0.218-5.94-1.33-9.47-7.7-10.4-1.55-0.219-4.85-0.436-6.61-0.436-0.876 0-1.54-0.881-1.54-1.54 0-1.11 0.884-1.54 3.08-1.54 8.59 0 19.8 0.436 20.9 0.436 1.32 0 10.6-0.436 16.3-0.436 2.2 0 3.08 0.436 3.08 1.54 0 0.658-0.662 1.54-1.54 1.54-1.33 0-2.43 0-4.85 0.436-5.28 1.1-6.38 4.19-6.82 10.4-0.438 5.95-0.218 11.2-0.218 40.3v20c0 20.3-2.64 42.9-18.1 56.2-14.1 12.1-29.1 13.6-40.5 13.6-6.39 0-26.6-0.435-40.3-13.2-9.47-8.81-17-21.8-17-49.1v-27.5"/><path d="m407 71.5c0 1.1 0.439 1.76 1.32 2.42 2.86 1.55 12.8 2.87 21.4 2.87 4.63 0 9.91-0.222 14.5-3.3 6.61-4.4 11.7-14.3 11.7-28.6 0-23.3-12.8-36.8-33.5-36.8-5.72 0-11.9 0.669-13.9 1.11-0.872 0.441-1.54 1.09-1.54 2.21v60.1zm-16.7-15.9c0-29.1 0-34.3-0.45-40.3-0.44-6.39-1.54-9.47-7.92-10.4-1.54-0.219-4.84-0.436-6.61-0.436-0.656 0-1.54-0.881-1.54-1.54 0-1.11 0.884-1.54 3.08-1.54 8.81 0 21.8 0.436 22.9 0.436 1.98 0 18.3-0.436 24.2-0.436 12.3 0 26 1.1 36.1 8.15 4.85 3.52 13.4 12.5 13.4 25.5 0 13.9-5.73 27.3-23.8 42.7 15.9 19.8 29.3 36.8 40.5 48.4 10.3 10.6 16.7 12.3 21.6 13 3.74 0.665 5.72 0.665 6.82 0.665s1.76 0.884 1.76 1.54c0 1.1-1.11 1.54-4.63 1.54h-12.1c-11 0-15.9-1.1-20.7-3.75-8.38-4.4-15.4-13.4-26.4-27.5-8.16-10.1-16.7-22.2-20.9-27.3-0.882-0.881-1.32-1.1-2.64-1.1l-24.7-0.434c-0.881 0-1.32 0.434-1.32 1.54v4.4c0 18.1 0 32.6 0.879 40.3 0.656 5.5 1.77 9.03 7.7 9.91 2.64 0.432 6.83 0.872 8.59 0.872 1.33 0 1.54 0.884 1.54 1.54 0 0.884-0.876 1.54-3.08 1.54-10.6 0-22.9-0.658-23.8-0.658-0.221 0-13.2 0.658-19.2 0.658-1.98 0-3.08-0.44-3.08-1.54 0-0.659 0.439-1.54 1.53-1.54 1.76 0 4.19-0.44 5.95-0.872 3.75-0.884 4.19-4.41 5.07-9.91 1.1-7.7 1.1-22.5 1.1-40.5v-33"/><path d="m172 71.5c0 1.1 0.446 1.76 1.33 2.42 2.86 1.55 12.8 2.87 21.4 2.87 4.63 0 9.91-0.222 14.5-3.3 6.6-4.4 11.7-14.3 11.7-28.6 0-23.3-12.8-36.8-33.5-36.8-5.73 0-11.9 0.669-13.9 1.11-0.876 0.441-1.54 1.09-1.54 2.21v60.1zm-16.7-15.9c0-29.1 0-34.3-0.44-40.3-0.435-6.39-1.54-9.47-7.93-10.4-1.54-0.219-4.84-0.436-6.6-0.436-0.665 0-1.54-0.881-1.54-1.54 0-1.11 0.879-1.54 3.08-1.54 8.81 0 21.8 0.436 22.9 0.436 1.98 0 18.3-0.436 24.2-0.436 12.3 0 26 1.1 36.1 8.15 4.84 3.52 13.4 12.5 13.4 25.5 0 13.9-5.72 27.3-23.8 42.7 15.9 19.8 35.7 44.8 46.9 56.5 10.4 10.6 17.3 12.4 22.1 13.3 1.3 0.228 2.12 0.366 3.22 0.366s1.76 0.875 1.76 1.54c0 1.1-1.1 1.54-4.63 1.54h-9.07c-11 0-15.9-1.1-20.7-3.74-8.37-4.4-15.4-13.4-26.4-27.5-8.16-10.1-23.2-30.3-27.4-35.3-0.879-0.881-1.32-1.1-2.64-1.1l-24.7-0.434c-0.882 0-1.33 0.434-1.33 1.54v4.4c0 18.1 0 32.6 0.884 40.3 0.659 5.5 1.76 9.03 7.71 9.91 2.64 0.432 6.83 0.872 8.59 0.872 1.32 0 1.54 0.884 1.54 1.54 0 0.884-0.884 1.54-3.08 1.54-10.6 0-22.9-0.658-23.8-0.658-0.221 0-13.2 0.658-19.2 0.658-1.98 0-3.08-0.44-3.08-1.54 0-0.659 0.446-1.54 1.54-1.54 1.76 0 4.18-0.44 5.95-0.872 3.74-0.884 4.18-4.41 5.06-9.91 1.1-7.7 1.1-22.5 1.1-40.5v-33"/><path d="m523 94.4c0-10.1-1.32-13.9-4.18-19.2-1.54-2.86-27.7-44.5-34.4-54.4-4.62-7.05-9.24-11.2-12.8-13.7-2.86-1.76-6.6-2.64-8.14-2.64-1.11 0-1.98-0.881-1.98-1.76 0-0.882 0.662-1.32 2.42-1.32 3.75 0 18.3 0.436 19.2 0.436 1.32 0 9.25-0.436 16.7-0.436 2.21 0 2.65 0.436 2.65 1.32 0 0.659-1.32 1.32-3.08 1.98-1.54 0.664-2.42 1.54-2.42 3.08 0 2.65 1.33 4.85 2.65 7.27l35.2 58.3c3.96-7.92 28.2-48 31.7-54.2 2.43-4.18 3.31-7.27 3.31-9.69 0-2.64-0.878-4.18-3.08-4.85-1.76-0.44-2.86-1.32-2.86-2.2 0-0.66 1.1-1.1 3.08-1.1 5.06 0 11.9 0.436 13.4 0.436 1.32 0 15.2-0.436 18.9-0.436 1.33 0 2.43 0.436 2.43 1.1 0 0.881-0.878 1.98-2.43 1.98-2.2 0-5.94 0.661-9.02 2.42-3.75 2.2-5.51 4.18-9.69 9.25-6.39 7.48-33.7 51.5-37.7 59.4-3.3 6.61-2.41 12.6-2.41 18.7v16.1c0 3.08 0 11 0.656 18.7 0.44 5.5 1.76 9.03 7.48 9.91 2.64 0.432 7.04 0.872 8.81 0.872 1.1 0 1.54 0.884 1.54 1.54 0 0.884-1.1 1.54-3.08 1.54-10.8 0-23.3-0.658-24.4-0.658-0.881 0-13.2 0.658-18.9 0.658-2.2 0-3.08-0.44-3.08-1.54 0-0.659 0.44-1.54 1.54-1.54 1.76 0 3.96-0.44 5.72-0.872 3.96-0.884 5.29-4.41 5.73-9.91 0.435-7.7 0.435-15.6 0.435-18.7v-16.1"/><path d="m66.5 183c0-8.56 0-10.1-0.13-11.9-0.124-1.75-0.451-2.79-2.33-3.05-0.451-0.0613-1.43-0.125-1.95-0.125-0.189 0-0.449-0.261-0.449-0.454 0-0.325 0.26-0.455 0.908-0.455 2.59 0 6.03 0.13 6.56 0.13 0.518 0 4.08-0.13 5.77-0.13 0.646 0 0.975 0.13 0.975 0.455 0 0.192-0.262 0.454-0.525 0.454-0.388 0-0.718 0-1.42 0.125-1.49 0.261-1.82 1.24-1.94 3.05-0.132 1.75-0.132 3.31-0.132 11.9v7.72c0 7.98 1.75 11.3 4.22 13.5 2.79 2.53 5.25 2.98 8.5 2.98 3.5 0 6.88-1.56 8.82-3.89 2.66-3.18 3.25-7.72 3.25-13.4v-6.94c0-8.56-0.0675-10.1-0.13-11.9-0.0688-1.75-0.391-2.79-2.28-3.05-0.452-0.0613-1.42-0.125-1.95-0.125-0.261 0-0.454-0.261-0.454-0.454 0-0.325 0.258-0.455 0.909-0.455 2.53 0 5.84 0.13 6.16 0.13 0.39 0 3.12-0.13 4.8-0.13 0.648 0 0.906 0.13 0.906 0.455 0 0.192-0.189 0.454-0.454 0.454-0.388 0-0.712 0-1.43 0.125-1.56 0.326-1.88 1.24-2.01 3.05-0.131 1.75-0.0675 3.31-0.0675 11.9v5.91c0 5.97-0.779 12.6-5.32 16.5-4.15 3.57-8.57 4.02-11.9 4.02-1.88 0-7.85-0.132-11.9-3.9-2.79-2.59-5-6.42-5-14.5v-8.11"/><path d="m129 202c0.131 4.54 0.648 5.9 2.21 6.29 1.04 0.256 2.33 0.315 2.86 0.315 0.258 0 0.451 0.208 0.451 0.461 0 0.332-0.392 0.459-1.04 0.459-3.24 0-5.51-0.205-6.03-0.205-0.522 0-2.93 0.205-5.52 0.205-0.582 0-0.908-0.065-0.908-0.459 0-0.254 0.192-0.461 0.452-0.461 0.455 0 1.5-0.0587 2.33-0.315 1.43-0.39 1.63-1.88 1.63-6.88v-31.6c0-2.21 0.322-2.79 0.774-2.79 0.651 0 1.62 1.11 2.21 1.69 0.905 0.906 9.21 9.73 18 18.8 5.65 5.84 11.7 12.4 13.5 14.2l-0.588-27.6c-0.0625-3.57-0.392-4.8-2.14-5.12-1.05-0.198-2.34-0.261-2.79-0.261-0.39 0-0.454-0.322-0.454-0.522 0-0.322 0.454-0.386 1.11-0.386 2.59 0 5.32 0.13 5.97 0.13s2.53-0.13 4.87-0.13c0.584 0 1.03 0.0637 1.03 0.386 0 0.2-0.254 0.522-0.646 0.522-0.256 0-0.714 0-1.36 0.125-1.88 0.39-2.01 1.5-2.01 4.8l-0.138 32.3c0 3.64-0.0675 3.95-0.455 3.95-0.584 0-1.17-0.444-4.35-3.37-0.581-0.515-8.82-8.62-14.9-14.9-6.62-6.94-13-13.7-14.8-15.6l0.649 26"/><path d="m197 193c0 5.32 0 9.67 0.258 11.9 0.192 1.62 0.388 2.65 2.08 2.91 0.846 0.144 2.08 0.259 2.6 0.259 0.325 0 0.45 0.271 0.45 0.461 0 0.254-0.258 0.459-0.904 0.459-3.18 0-6.88-0.205-7.14-0.205-0.325 0-3.89 0.205-5.64 0.205-0.582 0-0.905-0.126-0.905-0.459 0-0.19 0.129-0.461 0.451-0.461 0.518 0 1.23-0.115 1.75-0.259 1.1-0.254 1.3-1.29 1.49-2.91 0.26-2.27 0.324-6.62 0.324-11.9v-9.74c0-8.56 0-10.1-0.132-11.9-0.125-1.88-0.58-2.72-1.81-2.98-0.652-0.126-1.36-0.19-1.75-0.19-0.264 0-0.456-0.261-0.456-0.454 0-0.325 0.262-0.455 0.908-0.455 1.89 0 5.45 0.13 5.78 0.13 0.262 0 3.96-0.13 5.71-0.13 0.644 0 0.905 0.13 0.905 0.455 0 0.192-0.261 0.454-0.455 0.454-0.382 0-0.782 0-1.42 0.125-1.56 0.326-1.88 1.1-2.01 3.05-0.065 1.75-0.065 3.31-0.065 11.9v9.74"/><path d="m241 202c3.31-7.4 10.8-26.2 12-30.2 0.259-0.845 0.518-1.62 0.518-2.08 0-0.454-0.191-0.974-0.779-1.17-0.646-0.19-1.3-0.19-1.94-0.19-0.326 0-0.658-0.2-0.658-0.454 0-0.325 0.394-0.455 1.3-0.455 2.28 0 4.87 0.13 5.58 0.13 0.318 0 2.79-0.13 4.48-0.13 0.582 0 0.902 0.13 0.902 0.386 0 0.261-0.198 0.522-0.644 0.522-0.39 0-1.69 0-2.73 0.648-0.775 0.52-1.69 1.3-3.18 5.06-0.645 1.56-3.43 8.18-6.35 14.9-3.5 8.05-6.03 14-7.34 16.7-1.56 3.31-1.88 4.15-2.46 4.15-0.646 0-1.04-0.711-2.14-3.37l-14-33.8c-1.29-3.12-2.07-3.7-3.95-4.16-0.91-0.19-1.88-0.19-2.2-0.19-0.331 0-0.459-0.322-0.459-0.522 0-0.322 0.581-0.386 1.49-0.386 2.73 0 5.97 0.13 6.68 0.13 0.584 0 3.11-0.13 5.32-0.13 1.04 0 1.56 0.13 1.56 0.386 0 0.261-0.194 0.522-0.586 0.522-0.645 0-1.55 0.0637-2.08 0.261-0.581 0.254-0.649 0.581-0.649 0.966 0 0.716 0.715 2.4 1.56 4.61l10.8 27.8"/><path d="m280 183c0-8.56 0-10.1-0.128-11.9-0.138-1.88-0.455-2.79-2.34-3.05-0.456-0.0613-1.43-0.125-1.95-0.125-0.198 0-0.452-0.261-0.452-0.454 0-0.325 0.255-0.455 0.908-0.455 2.6 0 6.3 0.13 6.62 0.13 0.389 0 12.3 0.0637 13.6 0 1.1-0.0662 2.14-0.266 2.59-0.328 0.261-0.0613 0.521-0.254 0.778-0.254 0.202 0 0.261 0.254 0.261 0.515 0 0.391-0.324 1.04-0.455 2.59-0.0625 0.524-0.191 2.98-0.322 3.64-0.0662 0.261-0.261 0.585-0.521 0.585-0.316 0-0.452-0.261-0.452-0.715 0-0.392-0.065-1.31-0.324-1.95-0.39-0.909-0.969-1.3-4.09-1.68-0.97-0.136-7.59-0.2-8.24-0.2-0.258 0-0.324 0.2-0.324 0.59v15c0 0.39 0 0.584 0.324 0.584 0.714 0 8.24 0 9.54-0.125 1.36-0.132 2.21-0.198 2.79-0.774 0.39-0.399 0.645-0.722 0.845-0.722 0.191 0 0.321 0.129 0.321 0.461 0 0.32-0.321 1.23-0.452 3.05-0.134 1.1-0.254 3.17-0.254 3.56 0 0.454-0.136 1.04-0.521 1.04-0.262 0-0.395-0.192-0.395-0.522 0-0.515 0-1.1-0.259-1.81-0.196-0.784-0.71-1.43-2.92-1.69-1.56-0.2-7.65-0.261-8.63-0.261-0.324 0-0.39 0.2-0.39 0.394v4.6c0 1.88-0.06 8.3 0 9.4 0.13 3.69 1.17 4.41 6.81 4.41 1.5 0 4.22 0 5.71-0.584 1.5-0.645 2.27-1.62 2.6-3.83 0.131-0.645 0.254-0.842 0.584-0.842 0.322 0 0.385 0.456 0.385 0.842 0 0.385-0.448 4.15-0.775 5.33-0.388 1.43-0.971 1.43-3.18 1.43-4.28 0-7.59-0.13-9.93-0.195-2.4-0.14-3.89-0.14-4.74-0.14-0.131 0-1.23 0-2.46 0.0788-1.11 0.0613-2.4 0.126-3.32 0.126-0.58 0-0.9-0.126-0.9-0.459 0-0.19 0.121-0.461 0.454-0.461 0.516 0 1.23-0.18 1.74-0.259 1.11-0.18 1.24-1.29 1.49-2.91 0.328-2.27 0.328-6.62 0.328-11.9v-9.74"/><path d="m329 188c0 0.322 0.131 0.515 0.391 0.709 0.845 0.461 3.76 0.846 6.29 0.846 1.36 0 2.91-0.0625 4.28-0.974 1.94-1.3 3.44-4.22 3.44-8.44 0-6.87-3.77-10.8-9.87-10.8-1.68 0-3.5 0.19-4.08 0.322-0.26 0.125-0.455 0.325-0.455 0.651v17.7zm-4.93-4.68c0-8.56 0-10.1-0.129-11.9-0.126-1.88-0.455-2.79-2.33-3.05-0.454-0.0613-1.43-0.125-1.95-0.125-0.192 0-0.455-0.261-0.455-0.454 0-0.325 0.262-0.455 0.908-0.455 2.59 0 6.42 0.13 6.75 0.13 0.58 0 5.38-0.13 7.14-0.13 3.62 0 7.66 0.325 10.6 2.39 1.43 1.04 3.96 3.7 3.96 7.53 0 4.09-1.68 8.05-7 12.6 4.66 5.85 8.62 10.8 11.9 14.3 3.04 3.11 4.93 3.64 6.35 3.83 1.11 0.18 1.69 0.18 2.01 0.18 0.322 0 0.521 0.271 0.521 0.461 0 0.332-0.329 0.459-1.36 0.459h-3.57c-3.24 0-4.68-0.326-6.1-1.1-2.46-1.3-4.54-3.96-7.78-8.12-2.4-2.98-4.93-6.56-6.16-8.05-0.261-0.256-0.392-0.322-0.784-0.322l-7.26-0.129c-0.26 0-0.391 0.129-0.391 0.451v1.3c0 5.32 0 9.61 0.261 11.9 0.194 1.62 0.515 2.65 2.27 2.91 0.785 0.144 2.01 0.259 2.53 0.259 0.39 0 0.454 0.271 0.454 0.461 0 0.254-0.264 0.459-0.908 0.459-3.12 0-6.75-0.205-7.01-0.205-0.065 0-3.89 0.205-5.64 0.205-0.586 0-0.908-0.126-0.908-0.459 0-0.19 0.122-0.461 0.446-0.461 0.528 0 1.24-0.115 1.75-0.259 1.1-0.254 1.23-1.29 1.5-2.91 0.32-2.27 0.32-6.62 0.32-11.9v-9.74"/><path d="m373 208c-0.789-0.391-0.848-0.571-0.848-2.07 0-2.72 0.26-4.93 0.325-5.85 0-0.584 0.124-0.901 0.455-0.901 0.315 0 0.512 0.19 0.512 0.649 0 0.452 0 1.23 0.2 2.01 0.91 4.01 5.18 5.45 9.01 5.45 5.65 0 8.57-3.18 8.57-7.33 0-3.95-2.15-5.84-7.2-9.6l-2.59-1.95c-6.17-4.6-8.18-7.98-8.18-11.8 0-6.49 5.13-10.4 12.7-10.4 2.26 0 4.53 0.321 5.9 0.646 1.11 0.261 1.56 0.261 2.01 0.261 0.445 0 0.588 0.0662 0.588 0.391 0 0.254-0.268 2.08-0.268 5.84 0 0.832-0.0675 1.24-0.458 1.24-0.386 0-0.45-0.266-0.51-0.712-0.07-0.655-0.52-2.15-0.845-2.74-0.39-0.645-2.27-2.72-7.4-2.72-4.15 0-7.59 2.08-7.59 5.97 0 3.5 1.76 5.52 7.39 9.34l1.63 1.09c6.94 4.74 9.34 8.57 9.34 13.3 0 3.24-1.24 6.74-5.32 9.41-2.4 1.56-5.97 1.95-9.08 1.95-2.66 0-5.97-0.391-8.3-1.5"/><path d="m423 193c0 5.32 0 9.67 0.265 11.9 0.186 1.62 0.38 2.65 2.07 2.91 0.844 0.144 2.07 0.259 2.59 0.259 0.322 0 0.46 0.271 0.46 0.461 0 0.254-0.26 0.459-0.909 0.459-3.18 0-6.88-0.205-7.14-0.205-0.321 0-3.9 0.205-5.65 0.205-0.58 0-0.908-0.126-0.908-0.459 0-0.19 0.131-0.461 0.455-0.461 0.52 0 1.23-0.115 1.74-0.259 1.12-0.254 1.31-1.29 1.5-2.91 0.262-2.27 0.324-6.62 0.324-11.9v-9.74c0-8.56 0-10.1-0.129-11.9-0.129-1.88-0.579-2.72-1.82-2.98-0.646-0.126-1.36-0.19-1.75-0.19-0.268 0-0.451-0.261-0.451-0.454 0-0.325 0.255-0.455 0.906-0.455 1.87 0 5.45 0.13 5.77 0.13 0.259 0 3.96-0.13 5.71-0.13 0.646 0 0.908 0.13 0.908 0.455 0 0.192-0.261 0.454-0.452 0.454-0.392 0-0.778 0-1.43 0.125-1.56 0.326-1.89 1.1-2.01 3.05-0.0637 1.75-0.0637 3.31-0.0637 11.9v9.74"/><path d="m465 193c0 5.32 0 9.67 0.258 11.9 0.198 1.62 0.451 2.65 2.2 2.91 0.776 0.144 2.08 0.259 2.6 0.259 0.374 0 0.444 0.271 0.444 0.461 0 0.254-0.256 0.459-0.911 0.459-3.11 0-6.74-0.205-7.07-0.205-0.26 0-4.21 0.205-5.9 0.205-0.644 0-0.909-0.126-0.909-0.459 0-0.19 0.134-0.39 0.454-0.39 0.51 0 1.17-0.13 1.68-0.251 1.16-0.259 1.49-1.37 1.68-2.99 0.262-2.27 0.262-6.62 0.262-11.9v-23.2l-8.24 0.122c-3.56 0.07-4.93 0.456-5.77 1.76-0.646 0.974-0.714 1.36-0.908 1.75-0.13 0.454-0.324 0.522-0.585 0.522-0.124 0-0.386-0.131-0.386-0.459 0-0.591 1.16-5.52 1.23-5.97 0.125-0.324 0.391-1.04 0.585-1.04 0.386 0 0.969 0.46 2.52 0.645 1.64 0.2 3.84 0.266 4.49 0.266h21.5c1.88 0 3.19-0.13 4.09-0.266 0.846-0.122 1.36-0.246 1.62-0.246 0.269 0 0.269 0.318 0.269 0.641 0 1.69-0.2 5.65-0.2 6.3 0 0.449-0.261 0.71-0.516 0.71-0.258 0-0.39-0.2-0.459-0.971l-0.0638-0.584c-0.194-1.7-1.43-2.93-6.88-3.06l-7.13-0.122v23.2"/><path d="m511 195c0-2.98-0.391-4.08-1.24-5.64-0.451-0.845-8.17-13.1-10.1-16-1.36-2.08-2.72-3.32-3.76-4.03-0.845-0.515-1.94-0.776-2.4-0.776-0.328 0-0.59-0.261-0.59-0.522 0-0.256 0.2-0.386 0.719-0.386 1.1 0 5.38 0.13 5.65 0.13 0.382 0 2.72-0.13 4.92-0.13 0.654 0 0.78 0.13 0.78 0.386 0 0.2-0.389 0.392-0.909 0.586-0.459 0.198-0.712 0.451-0.712 0.905 0 0.775 0.386 1.43 0.778 2.14l10.4 17.2c1.16-2.34 8.3-14.2 9.34-16 0.712-1.24 0.971-2.15 0.971-2.86 0-0.77-0.259-1.22-0.905-1.42-0.519-0.128-0.845-0.386-0.845-0.648 0-0.195 0.326-0.325 0.914-0.325 1.49 0 3.5 0.13 3.95 0.13 0.392 0 4.48-0.13 5.58-0.13 0.385 0 0.709 0.13 0.709 0.325 0 0.261-0.261 0.584-0.709 0.584-0.651 0-1.75 0.19-2.66 0.715-1.1 0.645-1.63 1.23-2.85 2.72-1.88 2.21-9.93 15.2-11.1 17.5-0.97 1.94-0.711 3.7-0.711 5.51v4.74c0 0.901 0 3.24 0.192 5.52 0.131 1.62 0.519 2.65 2.21 2.91 0.778 0.144 2.08 0.259 2.59 0.259 0.334 0 0.462 0.271 0.462 0.461 0 0.254-0.331 0.459-0.916 0.459-3.18 0-6.88-0.205-7.2-0.205-0.262 0-3.89 0.205-5.59 0.205-0.645 0-0.899-0.126-0.899-0.459 0-0.19 0.125-0.461 0.446-0.461 0.529 0 1.17-0.115 1.7-0.259 1.17-0.254 1.56-1.29 1.68-2.91 0.131-2.27 0.131-4.62 0.131-5.52v-4.74"/></g></svg>
