<?xml version="1.0" encoding="UTF-8" standalone="no"?>
<!-- Created with Inkscape (http://www.inkscape.org/) -->

<svg
   xmlns:dc="http://purl.org/dc/elements/1.1/"
   xmlns:cc="http://creativecommons.org/ns#"
   xmlns:rdf="http://www.w3.org/1999/02/22-rdf-syntax-ns#"
   xmlns:svg="http://www.w3.org/2000/svg"
   xmlns="http://www.w3.org/2000/svg"
   xmlns:sodipodi="http://sodipodi.sourceforge.net/DTD/sodipodi-0.dtd"
   xmlns:inkscape="http://www.inkscape.org/namespaces/inkscape"
   width="177.77682"
   height="130.71036"
   viewBox="0 0 47.036784 34.583781"
   version="1.1"
   id="svg3242"
   inkscape:version="0.92.0 r15299"
   sodipodi:docname="atlanta bread.svg">
  <defs
     id="defs3236">
    <clipPath
       id="clipPath622"
       clipPathUnits="userSpaceOnUse">
      <path
         inkscape:connector-curvature="0"
         id="path620"
         d="m 73.318,299.714 h 132.366 v 96.863 H 73.318 Z" />
    </clipPath>
    <clipPath
       id="clipPath610"
       clipPathUnits="userSpaceOnUse">
      <path
         inkscape:connector-curvature="0"
         id="path608"
         d="M 0,0 H 1116 V 648 H 0 Z" />
    </clipPath>
  </defs>
  <sodipodi:namedview
     id="base"
     pagecolor="#ffffff"
     bordercolor="#666666"
     borderopacity="1.0"
     inkscape:pageopacity="0.0"
     inkscape:pageshadow="2"
     inkscape:zoom="2.0705404"
     inkscape:cx="99.96459"
     inkscape:cy="61.315195"
     inkscape:document-units="mm"
     inkscape:current-layer="layer1"
     showgrid="false"
     fit-margin-top="0"
     fit-margin-left="0"
     fit-margin-right="0"
     fit-margin-bottom="0"
     units="px"
     inkscape:window-width="1280"
     inkscape:window-height="744"
     inkscape:window-x="-4"
     inkscape:window-y="-4"
     inkscape:window-maximized="1" />
  <metadata
     id="metadata3239">
    <rdf:RDF>
      <cc:Work
         rdf:about="">
        <dc:format>image/svg+xml</dc:format>
        <dc:type
           rdf:resource="http://purl.org/dc/dcmitype/StillImage" />
        <dc:title></dc:title>
      </cc:Work>
    </rdf:RDF>
  </metadata>
  <g
     inkscape:label="Layer 1"
     inkscape:groupmode="layer"
     id="layer1"
     transform="translate(-94.674763,-171.34234)">
    <g
       id="g604"
       transform="matrix(0.35277777,0,0,-0.35277777,68.886751,311.42538)">
      <g
         id="g606"
         clip-path="url(#clipPath610)">
        <g
           id="g612"
           transform="translate(120.7764,308.3229)">
          <path
             d="M 0,0 -0.001,0.004 Z"
             style="fill:#c45345;fill-opacity:1;fill-rule:nonzero;stroke:none"
             id="path614"
             inkscape:connector-curvature="0" />
        </g>
      </g>
    </g>
    <g
       id="g616"
       transform="matrix(0.35277777,0,0,-0.35277777,68.886751,311.42538)"
       style="fill:#c35345;fill-opacity:1">
      <g
         id="g618"
         clip-path="url(#clipPath622)"
         style="fill:#c35345;fill-opacity:1">
        <g
           id="g624"
           transform="translate(92.0543,346.3246)"
           style="fill:#c35345;fill-opacity:1">
          <path
             d="m 0,0 c 0,0 0.498,0.165 1.826,0.323 1.329,0.163 2.488,0.323 2.575,1.322 0.087,0.992 -0.232,3.812 -8.205,1.108 -7.972,-2.707 -13.731,-12.304 -14.335,-17.861 -0.597,-5.556 3.045,-6.648 4.702,-6.903 1.659,-0.252 4.394,-0.097 6.98,3.459 2.584,3.555 3.751,5.294 4.336,6.122 0.584,0.824 1.166,1.237 1.161,0.078 -0.004,-1.162 0.078,-7.183 3.951,-8.738 2.033,-0.818 2.243,-0.722 3.168,-0.76 0.646,-0.029 1.711,0.17 2.317,0.705 0.607,0.53 0.433,1.244 -0.493,1.352 -0.926,0.112 -2.492,0.544 -3.08,4.607 -0.59,4.064 -0.509,6.949 -0.212,10.082 0.297,3.134 -1.235,2.679 -2.055,2.68 -0.82,0.003 -2.853,0.045 -4.428,-2.654 -1.577,-2.702 -4.194,-6.751 -5.481,-8.493 -1.29,-1.741 -3.586,-5.687 -5.148,-4.609 -1.563,1.071 0.269,5.448 0.809,6.656 0.54,1.207 2.874,6.148 5.517,8.206 2.821,2.2 3.57,2.517 6.095,3.318"
             style="fill:#c35345;fill-opacity:1;fill-rule:evenodd;stroke:none"
             id="path626"
             inkscape:connector-curvature="0" />
        </g>
        <g
           id="g628"
           transform="translate(149.699,332.506)"
           style="fill:#c35345;fill-opacity:1">
          <path
             d="m 0,0 c -0.656,-1.277 -3.903,-7.177 -8.038,-7.177 -4.637,0 -4.449,5.248 -4.449,6.363 0,0.251 -0.742,-0.676 -0.742,-0.676 -2.227,-2.782 -4.141,-3.834 -4.141,-3.834 -1.361,-0.741 -4.943,-1.853 -6.798,3.029 -1.316,3.468 0.307,7.602 3.459,11.744 3.152,4.139 8.16,6.611 10.57,7.231 2.408,0.617 2.902,-1.978 2.902,-1.978 0,0 0.759,-3.011 -0.925,-3.524 -2.039,-0.616 -2.906,-0.678 -5.747,-2.905 -2.842,-2.222 -6.057,-6.118 -6.677,-7.661 -0.615,-1.547 0.126,-3.34 1.792,-1.98 1.67,1.36 4.821,4.39 5.996,6.366 1.175,1.978 1.05,2.782 3.091,2.348 2.04,-0.43 2.6,-1.074 2.349,-2.781 -0.371,-2.535 -0.804,-4.944 -1.236,-6.675 0,0 -0.31,-0.925 0.865,-0.123 1.174,0.805 6.516,4.115 8.529,9.952 0.651,1.894 0.616,1.915 0.804,2.843 0.182,0.925 0.182,1.543 1.48,1.667 1.301,0.123 2.474,0.31 3.217,0.31 0.74,0 1.852,-0.247 1.11,-1.977 C 6.672,8.83 5.312,4.011 5.127,2.776 4.941,1.539 5.251,1.414 6.115,2.65 c 0.863,1.237 6.054,7.974 7.045,8.777 0.989,0.802 1.299,1.237 3.09,0.988 1.793,-0.248 3.77,-0.557 3.213,-4.574 -0.556,-4.016 -1.111,-8.899 1.42,-12.3 2.538,-3.399 2.228,-3.026 2.538,-3.399 0.308,-0.37 0.491,-1.793 -1.426,-1.049 -1.913,0.742 -4.88,0.927 -7.664,10.446 0,0 -0.182,0.681 -0.368,1.729 -0.186,1.052 -0.493,0.743 -0.678,0.31 -0.186,-0.432 -5.194,-9.952 -9.209,-9.952 -0.496,0 -2.35,0.185 -3.463,4.325 -0.247,0.928 -0.409,1.552 -0.513,1.968 z"
             style="fill:#c35345;fill-opacity:1;fill-rule:evenodd;stroke:none"
             id="path630"
             inkscape:connector-curvature="0" />
        </g>
        <g
           id="g632"
           transform="translate(178.4639,340.4541)"
           style="fill:#c35345;fill-opacity:1">
          <path
             d="M 0,0 C 0.018,0.011 0.035,0.024 0.054,0.033 L 0.046,-0.029 c -0.484,-2.369 -0.801,-4.713 -0.801,-6.781 0,0 -0.08,-7.33 3.936,-10.016 0,0 0.489,-0.307 1.327,-0.319 0.828,-0.009 0.822,0.733 0.594,1.281 -0.23,0.547 -1.197,3.05 -1.006,9.512 0.272,2.102 0.321,2.561 0.971,5.611 0.283,1.324 0.651,2.442 0.916,3.435 l 0.025,0.061 c 2.233,0.637 4.266,0.763 5.971,0.75 2.304,-0.021 3.825,-0.392 3.825,-0.392 0.212,0.664 0.76,2.199 0.922,3.26 0.094,0.636 0.143,0.637 -0.368,0.945 -0.097,0.058 -0.409,0.174 -0.409,0.174 0,0 -1.884,0.398 -3.532,0.365 C 10.648,7.82 8.914,7.71 7.237,7.435 l 0.032,0.102 c 0.206,0.894 1.171,3.928 1.171,3.928 0.408,1.103 0.565,1.296 1.011,2.138 1.308,2.463 0.909,3.021 -1.031,3.731 C 6.484,18.041 5.799,17.232 5.799,17.232 5.527,16.965 5.317,16.558 5.073,15.96 L 4.951,15.648 c 0,0 -1.823,-4.36 -3.408,-9.739 L 1.528,5.901 C 0.158,5.388 -1.131,4.796 -2.351,4.121 L -2.4,4.095 C -3.463,3.515 -4.143,3.06 -4.143,3.06 -4.366,2.911 -4.583,2.771 -4.79,2.647 -6.301,1.748 -7.774,1.772 -8.726,1.847 -8.883,1.861 -9.024,1.901 -9.143,1.957 -9.83,2.26 -9.853,1.607 -9.841,1.5 c 0.169,-1.355 0.642,-2.171 0.642,-2.171 2.502,-4.364 8.357,0.106 8.357,0.106 C -0.56,-0.369 -0.279,-0.179 0,0"
             style="fill:#c35345;fill-opacity:1;fill-rule:evenodd;stroke:none"
             id="path634"
             inkscape:connector-curvature="0" />
        </g>
        <g
           id="g636"
           transform="translate(116.5621,343.5563)"
           style="fill:#c35345;fill-opacity:1">
          <path
             d="m 0,0 h 0.012 v -0.085 c -0.092,-1.245 -0.143,-2.521 -0.143,-3.824 0,-1.872 0.102,-3.695 0.291,-5.434 l -0.322,-0.826 c -1.698,-2.949 -3.583,-4.102 -5.369,-4.329 l -0.285,-0.032 c 0,0 -4.068,-0.867 -1.096,10.285 0.348,1.308 0.651,2.442 0.917,3.433 l 0.025,0.061 C -3.735,-0.115 -1.704,0.053 0,0 m -11.978,-3.505 c -0.28,-0.178 -0.561,-0.368 -0.842,-0.565 0,0 -5.856,-4.47 -8.359,-0.105 0,0 -0.471,0.815 -0.639,2.172 -0.017,0.106 0.011,0.758 0.694,0.457 0.122,-0.058 0.26,-0.097 0.419,-0.111 0.952,-0.077 2.424,-0.101 3.937,0.799 0.206,0.125 0.423,0.266 0.646,0.414 0,0 0.683,0.455 1.744,1.031 l 0.045,0.026 c 1.222,0.68 2.51,1.269 3.882,1.785 l 0.018,0.006 c 1.582,5.382 3.403,9.739 3.403,9.739 l 0.126,0.311 c 0.242,0.6 0.45,1.008 0.726,1.275 0,0 0.683,0.806 2.62,0.097 1.937,-0.707 2.338,-1.262 1.028,-3.73 -0.447,-0.84 -0.602,-1.034 -1.01,-2.139 0,0 -0.966,-3.03 -1.169,-3.926 l -0.035,-0.1 c 1.679,0.274 3.411,0.422 5.184,0.422 h 0.091 l 0.011,0.061 c 0.361,1.898 1.527,7.767 2.694,10.687 0.849,2.119 2.221,4.444 8.521,5.315 0,0 3.661,0.179 3.591,-1.899 L 15.342,18.484 C 15.138,17.106 14.74,15.649 14.397,14.323 12.027,5.157 9.102,-2.598 6.522,-7.098 L 6.316,-7.476 C 6.025,-8.067 5.728,-8.645 5.429,-9.208 c 0,0 -0.363,-0.504 -0.251,-1.287 0.121,-0.863 0.502,-3.296 3.018,-7.209 0,0 1.34,-1.733 0.951,-2.152 -0.421,-0.449 -1.146,-1.008 -2.405,-0.252 -1.47,0.879 -2.85,1.65 -4.778,4.889 0,0 -0.335,0.842 -0.782,0.589 -0.411,-0.231 -4.155,-2.714 -7.529,-3.001 -0.914,-0.084 -2.02,0.056 -2.02,0.056 -4.96,0.596 -4.96,7.206 -3.566,14.042 l 0.008,0.062 c -0.018,-0.01 -0.036,-0.023 -0.053,-0.034 m 16.476,0.91 c -0.376,5.67 2.743,16.157 3.461,17.332 1.15,1.876 2.719,1.68 2.719,1.68 0,0 0.715,-0.054 0.38,-1.267 -0.38,-1.377 -0.569,-1.993 -0.569,-1.993 C 9.722,10.409 7.395,3.473 5.015,-2.597 4.593,-3.675 4.498,-2.595 4.498,-2.595"
             style="fill:#c35345;fill-opacity:1;fill-rule:evenodd;stroke:none"
             id="path638"
             inkscape:connector-curvature="0" />
        </g>
        <g
           id="g640"
           transform="translate(197.6446,326.9664)"
           style="fill:#c35345;fill-opacity:1">
          <path
             d="m 0,0 c -0.027,0.396 -0.014,0.72 -0.014,0.912 0,0.223 -0.763,-0.616 -0.763,-0.616 -2.295,-2.522 -4.268,-3.474 -4.268,-3.474 -1.404,-0.674 -5.098,-1.682 -7.009,2.744 -1.355,3.144 0.317,6.892 3.57,10.645 3.247,3.755 8.406,5.995 10.89,6.556 2.484,0.561 2.994,-1.793 2.994,-1.793 0,0 0.783,-2.731 -0.954,-3.194 C 2.344,11.223 1.449,11.166 -1.48,9.146 -4.411,7.13 -7.721,3.6 -8.36,2.201 -8.995,0.798 -8.231,-0.825 -6.513,0.405 -4.791,1.64 -1.545,4.385 -0.334,6.18 0.876,7.971 0.75,8.701 2.852,8.306 4.952,7.917 5.532,7.332 5.272,5.787 4.89,3.489 4.338,1.399 3.999,-0.267 c 0,0 -0.02,-0.061 -0.044,-0.171 0,0 -0.568,-2.57 1.345,-4.479 0.249,-0.25 0.753,-0.752 0.306,-1.254 0,0 -0.446,-0.338 -1.447,0.167 C 3.108,-5.478 0.328,-4.861 0,0"
             style="fill:#c35345;fill-opacity:1;fill-rule:evenodd;stroke:none"
             id="path642"
             inkscape:connector-curvature="0" />
        </g>
        <g
           id="g644"
           transform="translate(145.5421,391.8691)"
           style="fill:#c35345;fill-opacity:1">
          <path
             d="M 0,0 C 0.613,2.449 3.086,3.672 4.382,4.146 5.672,4.627 8.322,4.71 9.51,3.372 10.821,1.89 11.431,-4.784 7.67,-6.444 5.872,-7.238 3.564,-7.669 1.839,-6.751 -0.343,-5.586 -0.613,-2.456 0,0"
             style="fill:#c35345;fill-opacity:1;fill-rule:nonzero;stroke:none"
             id="path646"
             inkscape:connector-curvature="0" />
        </g>
        <g
           id="g648"
           transform="translate(168.9495,383.927)"
           style="fill:#c35345;fill-opacity:1">
          <path
             d="m 0,0 c 4.927,-1.48 9.704,-4.419 11.85,-9.019 1.536,-2.76 2.064,-5.938 1.521,-9.022 -0.153,-0.887 -0.575,-2.04 -1.153,-2.982 -3.731,-6.11 -9.072,-9.862 -16.096,-11.12 -1.512,-0.271 -3.426,0.901 -3.619,2.831 -0.041,0.401 -0.093,1.573 0.839,2.462 2.665,2.559 7.11,4.234 8.338,7.607 1.135,4.207 -2.102,7.006 -5.666,9.175 -3.186,1.941 -6.73,3.011 -9.907,3.305 -1.263,0.117 -2.562,0.067 -4.052,-0.245 -1.259,-0.263 -1.714,-0.436 -3.029,-1.068 -3.339,-1.602 -9.281,-5.661 -6.449,-12.059 1.279,-2.887 5.124,-4.353 8.022,-5.191 1.626,-0.469 1.843,-2.295 0.735,-3.255 -0.877,-0.751 -2.054,-0.721 -3.04,-0.731 -1.747,-0.014 -4.192,0.787 -5.822,1.731 -2.136,1.243 -3.84,2.682 -4.778,4.651 -1.323,2.799 -1.487,3.343 -2.062,5.682 -0.627,2.358 -1.009,5.925 0.306,8.104 1.185,2.431 5.894,4.843 8.949,6.051 5.712,2.255 9.121,3.304 15.815,3.784 C -6.224,0.912 -3.067,0.918 0,0"
             style="fill:#c35345;fill-opacity:1;fill-rule:nonzero;stroke:none"
             id="path650"
             inkscape:connector-curvature="0" />
        </g>
        <g
           id="g652"
           transform="translate(162.4173,363.9723)"
           style="fill:#c35345;fill-opacity:1">
          <path
             d="m 0,0 c -2.543,-2.539 -7.024,-2.041 -10.331,-1.047 -1.61,0.735 -3.149,1.323 -3.987,3.161 -0.481,1.298 0.256,2.609 0.791,3.238 1.466,1.731 2.874,2.66 4.771,2.935 3.62,0.531 5.111,-0.219 5.869,-0.471 C -2.41,7.661 -0.709,6.914 -0.26,6.239 1.272,5.013 1.533,1.231 0,0 m -9.249,-4.638 c 4.875,0.106 11.346,1.445 13.08,6.634 1.408,4.236 -3.436,7.486 -7.181,8.507 -3.375,0.921 -6.465,1.121 -9.809,0.092 -3.409,-1.05 -6.908,-4.333 -5.529,-7.763 3.224,-8.003 8.808,-7.415 9.287,-7.461 z"
             style="fill:#c35345;fill-opacity:1;fill-rule:nonzero;stroke:none"
             id="path654"
             inkscape:connector-curvature="0" />
        </g>
        <g
           id="g656"
           transform="translate(116.1303,299.9984)"
           style="fill:#c35345;fill-opacity:1">
          <path
             d="M 0,0 -0.001,0.005 Z M 11.504,6.341 C 10.955,6.118 10.377,5.931 9.779,5.743 L 8.746,5.404 C 7.192,4.881 5.464,4.331 3.756,3.987 c 0,0 -0.304,-0.082 -0.28,0.309 0.059,1.019 0.325,3.032 0.325,3.032 0.108,0.484 0.973,0.371 0.973,0.371 1.063,0.024 2.197,0 2.197,0 1.711,-0.021 3.4,-0.234 4.895,-0.65 0,0 0.754,-0.275 -0.125,-0.6 z m -6.62,5.828 c 0.067,0.449 0.269,1.757 0.269,1.757 0,0 0.027,0.219 0.06,0.465 0,0 0.013,0.464 0.538,0.553 1.074,0.309 2.24,0.478 3.427,0.473 1.358,0 2.686,-0.213 3.835,-0.592 0,0 0.432,-0.163 0.032,-0.357 -1.909,-0.865 -3.967,-1.514 -5.647,-2.011 0,0 -1.438,-0.414 -2.252,-0.65 0,0 -0.328,-0.08 -0.262,0.362 m -4.971,-9.03 c 0,0 -0.116,-0.045 -0.394,-0.161 -0.554,-0.23 -0.988,-0.846 -0.718,-1.991 0.3,-1.271 1.761,-1.083 1.761,-1.083 L 1.372,0.05 H 1.369 c 0.007,10e-4 2.503,0.569 2.503,0.569 0.574,0.149 1.131,0.287 1.713,0.407 0.579,0.087 2.89,0.775 2.89,0.775 0.403,0.129 0.8,0.239 1.193,0.327 0.058,0.02 1.54,0.539 1.54,0.539 1.713,0.611 3.332,1.109 4.605,2.22 0.476,0.32 0.836,0.85 0.992,1.49 l 0.088,0.633 0.022,0.27 -0.005,0.087 c -0.286,2.028 -2.585,2.604 -4.695,3.077 0.192,0.078 1.003,0.426 1.003,0.426 1.445,0.596 2.942,1.212 3.908,2.396 0.849,1.404 -0.347,3.248 -0.347,3.248 -0.414,0.514 -0.886,0.897 -1.411,1.132 -1.681,0.768 -3.822,1.17 -6.196,1.172 -0.003,0 -2.227,-0.117 -2.227,-0.117 H 6.953 C 5.42,18.543 4.153,18.221 2.971,17.702 2.807,17.617 2.45,17.425 2.065,15.849 1.737,14.495 1.412,12.445 1.103,10.466 L 0.617,7.496 C 0.617,7.503 0.393,6.329 0.393,6.329 0.388,6.314 0.19,4.597 0.145,4.201 c 0,0 0.091,-0.9 -0.232,-1.062"
             style="fill:#c35345;fill-opacity:1;fill-rule:nonzero;stroke:none"
             id="path658"
             inkscape:connector-curvature="0" />
        </g>
        <g
           id="g660"
           transform="translate(141.3214,315.3226)"
           style="fill:#c35345;fill-opacity:1">
          <path
             d="m 0,0 c 0.444,0.008 0.894,-0.012 1.351,-0.067 2.164,-0.247 3.82,-1.151 5.214,-2.081 0,0 0.422,-0.361 -0.153,-0.471 C 5.99,-2.696 5.76,-2.718 5.33,-2.769 L 4.164,-2.888 c -0.033,-0.003 -3.765,-0.287 -5.626,-0.431 0,0 -0.588,-0.162 -0.385,0.545 0.032,0.094 0.067,0.193 0.104,0.284 0,0 0.146,0.403 0.169,0.467 0.008,0.02 0.118,0.272 0.118,0.272 l 0.396,1.006 c 0.036,0.086 0.073,0.164 0.111,0.235 0,0 0.161,0.519 0.949,0.51 m 8.214,-13.226 c 0.878,-0.045 2.031,0.433 2.031,0.433 0.304,0.121 0.513,0.304 0.618,0.54 0.038,0.092 0.065,0.202 0.06,0.324 -0.005,0.199 -0.088,0.422 -0.304,0.613 l -0.065,0.061 -1.761,0.737 c -1.412,0.708 -2.155,1.026 -3.366,1.571 -1.074,0.514 -2.208,0.923 -3.306,1.319 -0.889,0.324 -1.775,0.666 -2.635,1.041 0.934,0.108 1.877,0.179 2.804,0.226 1.46,0.076 2.971,0.152 4.438,0.444 l 0.249,0.049 c 1.334,0.263 2.996,0.589 3.649,1.952 l 0.025,0.055 0.017,0.053 c 0.076,0.284 0.106,0.555 0.1,0.821 C 10.73,-1.441 9.436,-0.25 8.962,0.185 7.15,1.815 4.39,2.944 1.381,3.292 -0.169,3.471 -1.691,3.436 -3.157,3.196 -4.85,2.861 -4.718,1.888 -4.718,1.888 -4.661,1.334 -4.561,0.618 -4.045,0.05 -4.82,-1.847 -5.244,-3.79 -5.635,-5.678 l -0.654,-2.895 c -0.21,-0.846 -0.392,-1.718 -0.374,-2.57 0.02,-0.718 0.183,-1.425 0.599,-2.093 0.281,-0.358 0.642,-0.399 0.762,-0.411 0.208,-0.026 0.738,-0.046 1.015,0.303 l 0.037,0.051 0.008,0.021 0.35,0.736 c 0.401,0.947 0.595,1.904 0.781,2.835 0,0 0.042,0.198 0.07,0.341 0.322,-0.136 1.066,-0.455 1.066,-0.455 1.357,-0.594 2.76,-1.207 4.333,-1.601 0.011,0 0.94,-0.383 0.94,-0.383 0.955,-0.424 2.351,-1.053 3.873,-1.315 0.415,-0.096 0.164,-0.067 1.043,-0.112"
             style="fill:#c35345;fill-opacity:1;fill-rule:nonzero;stroke:none"
             id="path662"
             inkscape:connector-curvature="0" />
        </g>
        <g
           id="g664"
           transform="translate(156.5257,305.6595)"
           style="fill:#c35345;fill-opacity:1">
          <path
             d="m 0,0 c 0.285,-0.762 2.054,-0.724 2.054,-0.724 1.301,0.009 2.737,0.417 4.073,0.792 l 1.912,0.626 c 0,0 0.83,0.28 0.833,0.28 L 9.221,1.017 C 9.543,1.003 9.713,0.833 9.799,0.689 9.883,0.548 9.963,0.309 9.866,-0.038 9.646,-0.828 8.493,-2.119 7.583,-2.644 5.453,-3.71 3.119,-4.268 0.925,-4.195 c 0,0 -2.643,-0.267 -3.758,2.12 0,0 -0.453,0.982 -0.39,2.627 0.095,0.733 0.236,1.436 0.454,2.215 0.266,0.94 0.637,1.895 1.072,2.853 -0.33,0.265 -0.607,0.68 -0.639,1.38 -0.008,0.126 -0.005,0.259 0.005,0.405 l 0.019,0.104 c 0,0 0.035,0.244 0.041,0.265 0.331,1.071 1.524,1.54 2.576,1.955 0,0 0.714,0.294 0.724,0.298 0.091,0.051 0.14,0.126 0.235,0.275 0.156,0.254 0.392,0.63 0.979,0.765 l 0.401,0.02 c 0.38,-0.008 0.655,-0.149 0.883,-0.289 0.285,0.063 2.799,0.592 2.799,0.592 3.311,0.712 6.737,1.449 10.217,1.726 0,0 0.039,-0.002 0.083,-0.005 0.261,-0.007 0.454,-0.113 0.576,-0.312 0.107,-0.18 0.136,-0.401 0.075,-0.619 -0.223,-0.798 -2.141,-1.919 -2.172,-1.934 -1.61,-0.774 -3.331,-1.119 -4.991,-1.453 0,0 -2.738,-0.623 -2.733,-0.62 0,0 -3.945,-1.173 -4.18,-1.245 C 2.486,6.272 2.03,5.498 1.553,4.675 c 0,0 -0.174,-0.278 -0.34,-0.547 2.682,0.208 5.019,0.49 7.092,0.87 l 1.516,0.265 0.062,0.008 c 0,0 0.115,0 0.129,-0.002 C 10.106,5.265 10.401,5.251 10.578,4.957 10.622,4.888 10.678,4.764 10.685,4.6 10.691,4.516 10.678,4.419 10.65,4.313 10.434,3.535 8.64,2.4 8.095,2.166 6.183,1.319 4.121,0.967 2.129,0.627 2.129,0.627 0.49,0.315 0.05,0.232 0.05,0.232 -0.078,0.215 0,0"
             style="fill:#c35345;fill-opacity:1;fill-rule:nonzero;stroke:none"
             id="path666"
             inkscape:connector-curvature="0" />
        </g>
        <g
           id="g668"
           transform="translate(177.1997,307.3122)"
           style="fill:#c35345;fill-opacity:1">
          <path
             d="m 0,0 c -0.818,-0.197 -2.309,-0.554 -2.309,-0.554 0,0 -0.384,-0.088 -0.652,-0.147 -0.267,-0.058 -0.138,0.138 -0.138,0.138 0.462,0.936 2.672,3.635 2.846,3.832 0.174,0.196 0.221,0.033 0.221,0.033 C 0.018,2.401 0.108,1.433 0.244,0.364 0.244,0.364 0.354,0.062 0,0 m -4.512,-3.371 c 0.267,-0.172 0.932,-0.499 1.528,-0.476 0.706,0.021 3.323,0.74 3.726,0.83 0.312,0.074 0.602,0.173 0.696,-0.085 0.184,-0.441 0.468,-1.117 0.468,-1.117 0,-0.002 0.215,-0.656 0.215,-0.656 0.236,-0.808 0.526,-1.813 1.812,-2.269 -0.007,0.004 0.072,-0.028 0.072,-0.028 l 0.41,-0.107 c 0.402,-0.022 0.725,0.169 1.018,0.334 0,0 0.471,0.364 0.67,0.533 0.201,0.175 -0.154,0.945 -0.154,0.945 l -0.13,0.311 C 5.57,-4.457 5.296,-3.738 4.858,-3.025 4.01,-0.657 3.682,1.941 3.366,4.844 3.398,5.057 3.357,5.335 3.351,5.552 3.341,6.077 3.31,6.529 3.239,6.913 L 3.18,7.272 C 3.177,7.285 3.143,7.534 3.143,7.534 2.963,8.863 2.715,10.691 0.672,11.478 L 0.602,11.504 0.39,11.516 C 0.091,11.528 -0.65,11.399 -0.939,10.906 -1.768,9.842 -2.358,8.778 -2.898,7.363 -4.726,3.86 -6.543,0.748 -8.43,-2.089 -9.04,-2.742 -9.468,-3.445 -9.871,-4.127 l -0.463,-0.768 c 0,-0.01 -0.209,-0.398 -0.209,-0.398 -0.034,-0.107 -0.049,-0.219 -0.049,-0.324 0.006,-0.209 0.084,-0.399 0.215,-0.544 0.586,-0.837 1.262,-1.307 1.961,-1.342 0.035,-0.003 0.107,-0.005 0.107,-0.005 0.548,-0.029 1.221,0.483 1.406,0.768 0.034,0.057 0.436,0.853 0.436,0.853 0.39,0.76 1.174,1.93 1.676,2.55 0.076,0.098 0.279,-0.034 0.279,-0.034"
             style="fill:#c35345;fill-opacity:1;fill-rule:nonzero;stroke:none"
             id="path670"
             inkscape:connector-curvature="0" />
        </g>
        <g
           id="g672"
           transform="translate(198.2471,310.9137)"
           style="fill:#c35345;fill-opacity:1">
          <path
             d="M 0,0 C 1.468,-0.674 1.65,-1.175 1.659,-1.363 V -1.404 L 1.645,-1.51 c -1.589,-2.14 -4.741,-3.229 -7.642,-4.063 0.23,1.132 0.265,2.626 0.265,2.626 -0.029,0.603 -0.098,1.197 -0.166,1.772 -0.067,0.578 -0.132,1.132 -0.159,1.693 -0.017,0.426 -0.015,0.856 0.025,1.294 0,0 0.06,0.382 0.101,0.624 0,0 0.028,0.142 0.244,0.07 C -5.444,2.425 -3.943,2.035 0,0 M 2.345,2.777 C -0.269,4.345 -2.957,5.946 -6.312,6.513 -7.851,6.736 -9.173,6.778 -9.173,6.778 -10.131,6.871 -10.452,6.6 -10.452,6.6 c -0.513,-0.332 -0.822,-0.813 -0.873,-1.358 -0.009,-0.086 -0.011,-0.169 -0.009,-0.253 0.041,-0.812 0.614,-1.527 0.879,-1.711 0.004,-10e-4 0.202,-0.132 0.202,-0.132 0.095,-0.06 0.331,-0.23 0.397,-0.286 0,0 0.372,-0.218 0.399,-0.89 0.04,-0.865 0.053,-2.149 0.053,-2.149 0.043,-0.932 -0.027,-1.813 -0.103,-2.723 -0.069,-0.913 -0.147,-1.841 -0.097,-2.837 0.009,-0.21 0.036,-0.43 0.059,-0.648 -0.02,-0.157 -0.343,-0.171 -0.694,-0.154 0,0 -0.171,0.024 -1.555,0.084 -1.658,0.072 -1.812,-1.335 -1.812,-1.335 -0.008,-0.084 -0.01,-0.167 -0.008,-0.252 0.014,-0.332 0.152,-0.65 0.337,-0.982 0.546,-0.805 1.208,-1.056 2.421,-0.983 0.018,0 0.304,0.028 0.304,0.028 4.158,0.374 8.028,1.836 11.593,3.358 0.05,0.027 0.545,0.311 0.545,0.311 1.842,1.056 2.345,1.879 2.984,2.925 l 0.076,0.123 c 0.316,0.52 0.491,1.03 0.542,1.554 0.17,1.764 -1.142,3.143 -2.409,4.17 0,0 -0.328,0.252 -0.434,0.317"
             style="fill:#c35345;fill-opacity:1;fill-rule:nonzero;stroke:none"
             id="path674"
             inkscape:connector-curvature="0" />
        </g>
        <g
           id="g676"
           transform="translate(203.7745,302.3554)"
           style="fill:#c35345;fill-opacity:1">
          <path
             d="m 0,0 c 0.267,0 0.502,0.026 0.502,0.341 0,0.263 -0.256,0.293 -0.472,0.293 H -0.399 V 0 Z m -0.399,-1.232 h -0.357 v 2.171 h 0.823 c 0.525,0 0.792,-0.183 0.792,-0.625 0,-0.393 -0.241,-0.556 -0.566,-0.591 L 0.901,-1.232 H 0.498 l -0.562,0.928 h -0.335 z m 0.388,2.742 c -0.849,0 -1.511,-0.665 -1.511,-1.62 0,-0.892 0.576,-1.62 1.511,-1.62 0.839,0 1.5,0.66 1.5,1.62 0,0.955 -0.661,1.62 -1.5,1.62 m 0,-3.582 c -1.127,0 -1.93,0.844 -1.93,1.962 0,1.18 0.89,1.962 1.93,1.962 1.028,0 1.919,-0.782 1.919,-1.962 0,-1.18 -0.891,-1.962 -1.919,-1.962"
             style="fill:#c35345;fill-opacity:1;fill-rule:nonzero;stroke:none"
             id="path678"
             inkscape:connector-curvature="0" />
        </g>
      </g>
    </g>
  </g>
</svg>
