<?xml version="1.0" encoding="UTF-8" standalone="no"?>
<svg
   xmlns:dc="http://purl.org/dc/elements/1.1/"
   xmlns:cc="http://creativecommons.org/ns#"
   xmlns:rdf="http://www.w3.org/1999/02/22-rdf-syntax-ns#"
   xmlns:svg="http://www.w3.org/2000/svg"
   xmlns="http://www.w3.org/2000/svg"
   viewBox="0 0 553.75 110.7875"
   height="110.7875"
   width="553.75"
   xml:space="preserve"
   version="1.1"
   id="svg2"><metadata
     id="metadata8"><rdf:RDF><cc:Work
         rdf:about=""><dc:format>image/svg+xml</dc:format><dc:type
           rdf:resource="http://purl.org/dc/dcmitype/StillImage" /></cc:Work></rdf:RDF></metadata><defs
     id="defs6" /><g
     transform="matrix(1.25,0,0,-1.25,0,110.7875)"
     id="g10"><g
       transform="scale(0.1,0.1)"
       id="g12"><path
         id="path14"
         style="fill:#231f20;fill-opacity:1;fill-rule:nonzero;stroke:none"
         d="m 1051.42,453.547 167.24,0 c 48.01,0.68 72.58,25.383 73.72,74.109 -1.14,32.789 -25.37,49.867 -72.7,51.235 l -168.26,0 0,-125.344 z m 0,226.781 143.35,0 c 41.18,0.684 62.33,21.973 63.48,63.867 -1.15,25.043 -21.96,38.25 -62.45,39.617 l -144.38,0 0,-103.484 z m 268.6,-36.543 c 44.83,-30.058 68.61,-69.113 71.34,-117.148 -4.56,-96.551 -56.09,-147.668 -154.61,-153.356 l -288.062,0.344 0,511.969 271.682,0 c 86.23,-5.012 131.74,-55.219 136.52,-150.617 -1.59,-45.543 -13.89,-75.946 -36.87,-91.192" /><path
         id="path16"
         style="fill:#231f20;fill-opacity:1;fill-rule:nonzero;stroke:none"
         d="m 1695.1,749.316 -77.82,-194.679 153.58,0 -75.76,194.679 z m -258.71,-375.691 204.79,512.309 102.39,0 204.43,-511.969 -108.87,-0.34 -30.72,78.551 -232.09,0 -30.71,-78.551 -109.22,0" /><path
         id="path18"
         style="fill:#231f20;fill-opacity:1;fill-rule:nonzero;stroke:none"
         d="m 1892.37,885.934 120.14,0 118.77,-167.356 121.51,167.356 117.41,0 -187.72,-256.153 0,-256.156 -102.39,0 0,256.156 -187.72,256.153" /><path
         id="path20"
         style="fill:#231f20;fill-opacity:1;fill-rule:nonzero;stroke:none"
         d="m 2724.37,681.012 143.35,0 c 41.17,0.683 62.33,19.465 63.48,56.351 -1.15,33.696 -21.97,51.231 -62.46,52.598 l -144.37,0 0,-108.949 z m -102.39,-307.387 0,512.309 223.21,0 c 119.45,0 179.18,-49.18 179.18,-147.547 0,-102.004 -59.61,-153.008 -178.84,-153.008 l -121.16,0 0,-211.754 -102.39,0" /><path
         id="path22"
         style="fill:#231f20;fill-opacity:1;fill-rule:nonzero;stroke:none"
         d="m 3260.26,749.316 -77.82,-194.679 153.58,0 -75.76,194.679 z m -258.71,-375.691 204.78,512.309 102.4,0 204.43,-511.969 -108.88,-0.34 -30.71,78.551 -232.09,0 -30.71,-78.551 -109.22,0" /><path
         id="path24"
         style="fill:#231f20;fill-opacity:1;fill-rule:nonzero;stroke:none"
         d="m 3908.11,885.934 0,-95.633 -170.65,0 0,-416.676 -102.4,0 0,416.676 -170.64,0 0,95.633 443.69,0" /><path
         id="path26"
         style="fill:#231f20;fill-opacity:1;fill-rule:nonzero;stroke:none"
         d="m 3981.43,373.625 0,512.309 102.39,0 0,-204.922 238.58,0 0,205.261 102.38,0 0,-512.308 -102.38,-0.34 0,211.754 -238.58,0 0,-211.754 -102.39,0" /><path
         id="path28"
         style="fill:#231f20;fill-opacity:1;fill-rule:nonzero;stroke:none"
         d="m 1067.99,1.0625 c -25.59,0 -52.24,6.9375 -68.771,22.4141 -20.797,19.207 -25.059,46.9531 -25.59,70.4296 0,18.6798 0,36.2888 1.062,62.9688 1.067,27.742 0.536,40.02 -1.062,46.953 -1.07,4.805 -9.602,6.942 -22.395,8.547 -1.062,0.523 -1.062,1.598 -1.062,11.734 0,3.203 1.598,3.731 6.394,3.731 10.129,0 34.122,-0.528 42.122,-0.528 15.462,0 26.122,1.606 54.912,1.606 2.13,0 2.66,-1.078 2.13,-6.41 -0.53,-8.004 -1.6,-8.535 -4.27,-9.07 -20.25,-3.204 -28.78,-6.407 -30.92,-19.747 -1.59,-12.804 -3.73,-37.355 -3.73,-99.7848 0,-26.6796 9.06,-42.6874 22.39,-53.3593 12.26,-9.6016 27.73,-12.8047 45.85,-12.8047 26.13,0 42.66,14.4062 50.12,24.0156 11.19,14.4024 14.4,40.5547 14.4,73.1052 0,28.282 -0.54,57.625 -3.21,74.696 -1.59,8.007 -6.93,9.074 -34.12,10.675 -1.6,0 -3.2,2.664 -2.66,1.602 0,4.805 2.66,11.738 4.8,13.875 1.06,1.601 2.66,2.668 4.79,2.668 6.4,0 33.06,-0.539 43.19,-0.539 10.66,0 28.79,1.078 39.45,1.078 1.6,0 2.14,-1.078 2.14,-5.871 -2.14,-7.473 -3.2,-10.672 -4.8,-11.211 -4.8,-0.539 -13.33,-3.203 -16.53,-4.27 -2.14,-1.062 -4.27,-3.203 -5.33,-8.007 -1.07,-6.395 -3.74,-25.079 -5.33,-77.371 -1.6,-39.4849 -4.8,-63.4966 -21.86,-84.8364 -19.73,-23.4844 -54.38,-36.2891 -81.57,-36.2891 l -0.54,0" /><path
         id="path30"
         style="fill:#231f20;fill-opacity:1;fill-rule:nonzero;stroke:none"
         d="m 1453.47,10.1367 c 0,-1.06639 -1.07,-2.66795 -2.67,-2.66795 -16.53,0 -34.12,1.06641 -50.12,1.06641 -11.19,0 -25.59,-1.06641 -32.52,-1.06641 l -4.26,13.33985 c 0,0.5273 0.53,1.6016 2.66,2.1289 19.2,4.2695 22.4,9.0742 23.99,20.2852 1.6,9.0742 4.8,33.0742 4.8,65.6253 l 0,57.636 c 0,22.938 -1.06,30.411 -4.26,34.676 -3.2,6.406 -7.47,8.547 -28.79,11.738 -2.67,0.54 -3.74,1.606 -3.74,4.27 l 0,10.144 c 0,1.606 0.54,2.129 2.67,1.606 19.73,-1.078 27.73,-1.606 60.24,-1.078 5.34,0 8.53,-1.063 9.6,-4.266 1.6,-4.804 9.07,-13.867 20.8,-26.679 18.12,-19.747 60.77,-65.098 123.15,-124.8638 2.13,28.8168 2.67,94.9808 0.53,121.6598 -1.59,13.34 -4.26,14.414 -29.85,17.606 -2.67,0 -3.73,1.078 -3.73,3.207 l -0.54,13.336 c 14.4,0 28.26,0 41.59,0 12.8,0 32.52,1.601 45.85,1.078 1.6,0 2.66,-0.539 2.66,-1.606 l 3.2,-12.273 c -29.32,-9.609 -31.99,-10.676 -34.65,-50.695 -1.6,-34.688 -2.14,-64.032 -2.14,-95.5159 0,-30.9492 1.07,-50.1562 1.07,-53.8867 0,-7.47265 -10.13,-11.73828 -16.52,-13.8789 -2.67,-1.0625 -4.27,0 -6.4,3.74219 -10.67,14.40621 -18.66,24.53911 -34.12,40.54691 -22.93,23.4765 -85.3,89.6484 -117.3,122.1954 -3.2,3.207 -5.86,2.129 -6.39,-1.063 -0.54,-8.546 -1.6,-24.55 -1.6,-47.492 0,-30.9568 -0.54,-69.9022 3.73,-81.6404 3.2,-10.6719 16,-12.8086 31.46,-14.4141 l 1.6,-12.8008" /><path
         id="path32"
         style="fill:#231f20;fill-opacity:1;fill-rule:nonzero;stroke:none"
         d="m 1805.35,26.6797 c 9.06,0 14.39,2.6641 16.52,10.6719 1.07,4.7968 2.67,16.5351 2.67,58.6953 l 0,53.8941 c 0,21.875 0,34.149 -0.54,43.223 -1.59,13.867 -7.46,17.07 -34.12,17.07 -1.06,0 -2.66,1.602 -2.66,2.664 0,2.676 2.13,9.61 3.2,11.739 1.06,2.675 2.13,3.203 7.99,3.203 30.93,0 39.99,-0.528 53.32,-0.528 18.66,0 41.59,0.528 45.85,0.528 3.2,0 6.39,-0.528 6.93,-2.664 l 1.07,-12.801 c -32.53,-4.809 -35.19,-7.473 -36.26,-12.277 -1.6,-6.407 -2.66,-19.211 -2.66,-52.825 l 0,-49.0894 c 0,-26.6797 1.06,-47.4922 3.73,-62.4297 1.07,-6.4101 4.26,-7.4727 29.32,-10.1484 0.53,-1.5938 1.6,-11.7383 1.07,-14.9336 C 1900.78,8.53516 1899.71,8 1895.44,8 1870.39,8.53516 1854.39,8.53516 1838.4,8.53516 1812.81,8 1795.75,7.46875 1792.02,7.46875 c -2.14,0 -3.73,1.60156 -4.27,4.79685 l -1.07,11.7461 c 0,1.0664 0,2.1289 1.07,2.1289 l 17.6,0.5391" /><path
         id="path34"
         style="fill:#231f20;fill-opacity:1;fill-rule:nonzero;stroke:none"
         d="m 2060.73,225.711 c 2.13,2.668 2.66,3.207 4.79,2.668 17.06,-1.067 41.59,-1.602 49.06,-1.067 12.79,0 25.05,0 36.78,-0.535 1.6,0.535 1.6,-1.066 1.07,-5.332 l -1.6,-9.609 -12.8,-3.731 c -4.27,-1.074 -5.33,-3.203 -3.2,-9.074 12.26,-33.086 41.05,-100.3201 54.38,-127.5271 2.67,-6.4062 4.8,-8.543 6.4,-7.4727 13.86,27.2071 49.05,115.7928 55.45,140.8708 0.53,3.203 -0.54,3.203 -8,3.731 l -14.93,1.074 c -2.13,0 -2.66,2.129 -2.13,4.266 3.2,12.804 4.26,13.867 9.06,13.867 6.4,0 27.19,-0.528 39.99,-0.528 12.26,0 23.99,0.528 28.26,0.528 3.73,0 4.79,-0.528 5.86,-2.129 0.53,-2.664 1.07,-4.805 1.6,-12.273 0,-1.602 -0.53,-2.141 -2.67,-2.668 l -6.4,0 c -18.66,0 -22.39,-11.211 -34.64,-35.215 -9.08,-19.746 -46.92,-104.5902 -63.45,-144.0706 -1.6,-3.7422 -12.26,-22.41409 -14.93,-27.75393 C 2187.08,1.0625 2186.02,0 2181.22,0 c -6.93,0 -9.6,1.0625 -10.67,3.20312 -0.53,1.60157 -4.26,8.53518 -12.79,30.41018 -29.86,76.3087 -54.38,129.6677 -64.51,151.0037 -9.6,19.211 -14.93,24.555 -34.12,27.758 -3.2,0 -4.27,2.129 -3.73,4.266 l 5.33,9.07" /><path
         id="path36"
         style="fill:#231f20;fill-opacity:1;fill-rule:nonzero;stroke:none"
         d="m 2489.92,161.141 c 0,26.679 -1.07,38.957 -2.13,42.16 -1.08,2.664 -2.67,3.73 -27.73,7.469 l 0.53,15.468 c 0.54,1.074 0.54,1.602 2.14,1.602 l 14.39,0 c 10.67,0 26.13,-0.528 53.85,-0.528 37.32,0 70.91,1.606 102.36,1.606 4.8,0 7.47,0 9.07,-2.141 1.06,-1.066 1.6,-2.14 0.52,-8.535 -2.12,-16.008 -2.66,-34.152 -2.12,-43.222 0,-1.602 -1.61,-2.141 -5.34,-2.141 -10.66,0 -10.66,2.141 -11.72,4.805 -5.87,26.679 -9.6,32.023 -49.58,32.023 -20.8,0 -31.46,-1.074 -35.73,-1.602 -4.26,-0.539 -5.87,-3.203 -5.87,-7.472 0,-22.41 0.54,-45.36 0.54,-66.172 0,-3.203 2.67,-5.867 4.27,-5.867 l 23.46,0 c 15.99,0 22.92,-0.528 35.72,0.535 12.79,0.527 15.46,4.269 19.72,21.875 0.53,1.601 3.2,2.141 12.8,2.141 2.66,0 3.19,-1.075 3.19,-2.141 -1.06,-7.469 -2.67,-26.141 -2.67,-36.816 0,-14.4028 0.54,-20.2818 1.61,-31.4849 0,-1.0625 -3.73,-1.6015 -15.46,-2.664 -1.07,3.7304 -3.73,12.2734 -5.33,16.0078 -1.61,7.4691 -3.74,10.6721 -13.86,11.7341 -13.33,1.067 -21.87,1.067 -39.99,1.067 -14.4,0 -18.13,-0.528 -20.79,-1.594 -2.13,-1.074 -3.21,-3.738 -3.21,-50.1642 0,-12.2656 1.08,-19.2109 4.27,-24.5429 1.6,-3.2031 8,-6.4063 38.39,-6.4063 38.92,0 57.04,5.8711 67.18,38.9571 0.52,1.6015 1.6,2.1289 4.26,2.1289 3.74,0 9.07,-1.0664 10.13,-1.0664 1.07,0 2.13,-0.5274 2.13,-3.7305 -1.6,-21.8828 -6.4,-42.6953 -10.13,-52.83204 -1.06,-1.59766 -3.73,-2.12891 -5.33,-2.12891 -13.87,0 -52.78,1.06641 -86.37,1.06641 -31.99,0 -61.31,-1.60157 -95.43,-1.60157 -1.07,1.06641 -1.07,11.73831 -1.07,13.87501 0.54,1.6016 1.07,2.1289 2.67,2.1289 21.32,3.7422 23.99,4.8047 24.53,12.2773 0.53,4.2657 2.13,25.0782 2.13,53.8946 l 0,72.0316" /><path
         id="path38"
         style="fill:#231f20;fill-opacity:1;fill-rule:nonzero;stroke:none"
         d="m 2964.95,164.344 c 0,33.086 -21.33,50.695 -49.06,50.695 -6.39,0 -13.85,-1.066 -19.19,-3.742 -2.12,-2.125 -3.2,-3.192 -3.73,-6.395 -2.14,-22.949 -2.14,-43.222 -2.14,-80.039 0,-5.343 1.61,-6.941 15.47,-6.941 11.2,0 27.72,1.07 37.32,5.34 12.26,6.394 21.33,21.336 21.33,40.547 l 0,0.535 z M 2924.43,19.7344 C 2922.83,8.53516 2922.29,8 2919.1,8 c -6.4,0 -35.73,0.53516 -57.05,0.53516 -14.93,0 -28.26,-1.06641 -34.65,-1.06641 -3.73,0 -4.27,1.06641 -5.87,8.00005 -1.07,6.4062 0,6.9414 0.54,7.4687 19.72,3.2031 24.52,6.9453 25.58,18.6836 0.54,12.8008 1.6,29.3437 1.6,59.7579 l 0,41.09 c 0,19.211 0,40.547 -1.06,51.758 0,6.406 -1.07,11.738 -6.94,12.804 -6.39,1.602 -10.66,2.676 -15.99,3.739 -3.73,0.527 -4.26,1.605 -4.8,4.269 l -0.53,12.801 c 22.93,0.539 39.45,0.539 53.84,1.078 13.87,1.062 32.53,2.664 47.46,2.664 23.45,0 50.11,-4.27 66.11,-16.543 13.33,-9.609 22.39,-25.617 22.39,-43.762 0,-25.078 -22.93,-42.683 -33.06,-49.089 -1.6,-1.063 -3.73,-3.731 -3.2,-5.333 13.87,-35.2144 33.6,-65.0972 59.72,-85.3706 11.73,-9.0742 22.92,-14.4141 28.79,-16.543 1.6,-0.5391 1.6,-2.1406 1.6,-8.54687 0,-5.33203 -0.54,-5.867186 -3.73,-5.867186 -32.53,1.074216 -59.18,10.144556 -79.44,27.753856 -18.13,14.9415 -30.4,36.2774 -42.12,57.625 -5.86,10.6758 -12.26,15.4728 -30.92,15.4728 -16,0 -17.06,-3.1954 -17.06,-6.3985 0,-41.0938 0.52,-60.3047 4.27,-62.9688 3.73,-3.2031 20.79,-5.332 29.85,-7.4687 l 0,-4.8086" /><path
         id="path40"
         style="fill:#231f20;fill-opacity:1;fill-rule:nonzero;stroke:none"
         d="m 3381.86,67.7617 c 0,-27.7422 -14.92,-44.8242 -34.12,-53.8945 -19.19,-8.53517 -46.38,-11.73829 -60.24,-11.73829 -15.46,0 -37.32,2.67578 -49.58,4.80468 C 3230.98,8 3230.45,7.46875 3222.46,2.66797 3220.85,0.527344 3219.25,0 3214.46,0 c -1.6,0 -4.81,2.66797 -4.81,5.33203 -1.59,26.67967 -3.73,42.68357 -6.92,69.90237 1.06,1.6015 7.46,3.2031 11.19,3.2031 2.67,0 4.27,-1.0625 5.33,-3.7422 9.6,-35.2148 42.12,-56.0234 71.45,-56.0234 28.25,0 50.11,13.875 49.58,39.4922 0,24.0039 -31.46,36.8164 -57.05,45.3519 -23.99,8.535 -46.92,19.746 -57.58,32.011 -7.46,8.543 -13.33,20.282 -13.33,37.891 0,25.078 14.93,41.086 30.39,48.555 16,8.007 38.39,11.738 57.58,11.738 11.2,0 26.12,-1.066 38.39,-3.203 4.79,-1.067 7.46,-1.067 9.06,2.137 0.54,3.742 1.6,4.804 3.2,4.269 13.33,-1.066 13.86,-1.602 13.86,-2.664 -2.67,-11.742 0.54,-43.762 3.2,-61.371 l -11.2,-5.867 c -1.59,-0.528 -2.66,0 -3.73,3.203 -4.27,13.875 -10.13,25.078 -18.66,32.547 -9.06,8.535 -23.99,14.406 -42.65,14.406 -23.99,0 -41.05,-15.469 -41.05,-32.551 0,-24.004 22.93,-34.676 52.24,-44.285 26.13,-8.535 48.52,-18.672 58.66,-27.746 15.46,-12.8008 20.25,-26.6798 20.25,-44.2852 l 0,-0.5391" /><path
         id="path42"
         style="fill:#231f20;fill-opacity:1;fill-rule:nonzero;stroke:none"
         d="m 3558.34,26.6797 c 9.07,0 14.4,2.6641 16.54,10.6719 1.06,4.7968 2.66,16.5351 2.66,58.6953 l 0,53.8941 c 0,21.875 0,34.149 -0.53,43.223 -1.6,13.867 -7.46,17.07 -34.12,17.07 -1.07,0 -2.67,1.602 -2.67,2.664 0,2.676 2.13,9.61 3.2,11.739 1.07,2.675 2.13,3.203 8,3.203 30.92,0 39.98,-0.528 53.31,-0.528 18.66,0 41.58,0.528 45.85,0.528 3.2,0 6.4,-0.528 6.93,-2.664 l 1.07,-12.801 c -32.52,-4.809 -35.19,-7.473 -36.25,-12.277 -1.6,-6.407 -2.67,-19.211 -2.67,-52.825 l 0,-49.0894 c 0,-26.6797 1.07,-47.4922 3.73,-62.4297 1.07,-6.4101 4.26,-7.4727 29.32,-10.1484 0.54,-1.5938 1.6,-11.7383 1.07,-14.9336 C 3653.78,8.53516 3652.71,8 3648.45,8 3623.39,8.53516 3607.4,8.53516 3591.4,8.53516 3565.82,8 3548.75,7.46875 3545.01,7.46875 c -2.12,0 -3.73,1.60156 -4.25,4.79685 l -1.08,11.7461 c 0,1.0664 0,2.1289 1.08,2.1289 l 17.58,0.5391" /><path
         id="path44"
         style="fill:#231f20;fill-opacity:1;fill-rule:nonzero;stroke:none"
         d="m 3870.24,22.4102 c 28.26,4.2695 32.52,7.4726 33.59,14.4062 1.07,5.8672 4.26,28.8164 4.26,72.0316 l 0,33.086 c 0,26.679 0,47.488 -1.06,61.894 0,3.203 -2.67,4.805 -8,4.805 -37.32,0 -51.18,-2.129 -61.85,-5.332 -3.73,-1.602 -7.99,-14.406 -11.73,-29.348 -1.59,-3.738 -3.73,-4.805 -5.86,-3.738 -9.06,4.265 -12.79,8.008 -12.26,10.137 0,2.136 1.6,6.406 2.67,9.609 6.39,14.941 11.72,32.547 14.93,45.351 1.6,7.469 2.66,10.672 3.73,10.672 l 5.33,-0.535 c 4.79,-0.527 7.46,-1.066 8,-3.195 0.52,-8.543 2.13,-12.274 4.79,-12.813 3.73,-1.601 16,-1.601 85.84,-1.601 64.51,0 79.44,0 90.1,2.14 4.79,1.067 6.93,7.997 9.6,13.34 4.26,0.535 8.52,-0.539 12.79,-1.601 2.13,-1.067 3.21,-2.668 1.07,-7.469 -5.86,-17.082 -6.4,-27.219 -8.53,-59.77 0,-2.128 -1.6,-3.203 -4.27,-3.203 -8.53,0 -13.33,0.539 -13.33,1.602 0,2.676 0,20.812 0,25.082 0,2.672 -2.13,4.801 -5.33,5.867 -8.52,4.277 -38.91,4.805 -50.64,4.805 -9.6,0 -12.27,-2.668 -12.27,-5.332 -1.06,-9.074 -1.06,-26.68 -1.06,-64.035 l 0,-34.688 c 0,-42.1483 0.53,-56.0233 2.13,-64.0311 2.13,-9.6016 9.06,-14.9414 37.85,-16.5352 2.14,-1.0742 2.14,-2.1367 1.6,-4.8008 L 3991.8,9.59766 C 3990.2,8 3990.2,7.46875 3988.06,7.46875 c -3.73,0 -37.31,1.06641 -55.44,1.06641 -23.99,0 -53.85,-1.06641 -57.05,-1.06641 -3.19,0 -4.27,0.53125 -4.79,2.12891 l -0.54,12.81254" /><path
         id="path46"
         style="fill:#231f20;fill-opacity:1;fill-rule:nonzero;stroke:none"
         d="m 4283.95,101.914 c 0,3.738 -1.06,7.469 -3.73,12.274 -10.66,21.339 -44.79,72.031 -59.18,90.714 -2.67,3.731 -7.46,4.805 -21.32,4.805 -1.6,0 -2.66,0.527 -3.74,1.59 -0.53,1.601 0,12.812 0,14.414 1.08,1.601 2.14,2.129 3.2,2.129 21.33,0 35.73,-1.063 47.46,-0.528 15.45,0 31.98,2.129 43.18,2.129 2.13,0 2.13,0 2.13,-2.664 0,-8.007 -1.07,-13.339 -2.67,-15.48 l -12.79,-2.125 c -4.27,-1.067 -5.33,-3.207 -2.67,-9.074 9.07,-16.008 33.06,-53.36 40.52,-64.036 2.67,-2.128 5.33,-2.128 6.93,0 7.47,9.61 44.79,59.231 44.79,65.637 0,3.203 -2.14,5.867 -17.6,8.008 l -1.6,12.801 c 0,3.73 0.54,4.269 2.14,4.269 3.19,0 25.58,-0.539 38.92,0 12.79,0.535 30.92,1.063 36.25,1.063 3.2,0 4.26,0 4.8,-1.063 1.06,-1.601 1.06,-13.339 1.06,-14.941 -21.32,-2.129 -28.25,-9.074 -41.05,-24.016 -18.65,-22.41 -37.31,-43.222 -55.44,-67.761 -6.41,-9.075 -6.93,-11.211 -6.93,-26.1528 0,-24.5429 0.52,-36.8164 1.6,-48.5546 1.59,-10.6758 2.66,-14.4063 7.46,-16.0078 3.19,-1.0626 10.66,-2.6641 26.66,-4.8008 3.19,-0.5313 3.19,-2.1328 3.19,-4.8086 -1.06,-6.3946 -1.6,-11.19924 -2.66,-12.80081 -13.33,0.53516 -39.46,1.60157 -65.58,1.60157 -12.79,0 -39.45,-1.06641 -43.18,-1.06641 -3.2,0 -3.73,0 -4.27,1.60156 -1.07,1.60159 -1.59,7.99999 -1.59,14.40629 35.18,4.8046 35.71,5.332 35.71,38.4179 l 0,40.0195" /><path
         id="path48"
         style="fill:#761d2c;fill-opacity:1;fill-rule:nonzero;stroke:none"
         d="m 170.32,820.684 c 3.481,-26.622 9.254,-28.942 38.2,-32.403 18.519,-2.324 45.132,-2.324 62.503,-2.324 15.051,0 56.704,3.492 78.7,15.059 29.797,17.871 50.097,48.343 58.797,84.832 l -240.051,0 c 0.437,-30.774 1.144,-55.203 1.851,-65.164" /><path
         id="path50"
         style="fill:#761d2c;fill-opacity:1;fill-rule:nonzero;stroke:none"
         d="m 460.801,824.148 c -27.758,-20.808 -49.739,-30.086 -60.172,-35.867 -5.77,-3.48 -3.457,-11.562 3.48,-12.719 54.02,-10.519 112.27,-41.605 146.657,-95.187 49.105,-7.437 103.574,-24.883 155.011,-63.266 52.821,-38.925 74.442,-96.347 80.981,-134.933 l 0,403.672 -277.543,0 c -8.899,-23.153 -24.086,-43.614 -48.414,-61.7" /><path
         id="path52"
         style="fill:#761d2c;fill-opacity:1;fill-rule:nonzero;stroke:none"
         d="m 412.191,368.168 c -10.882,-3.813 -22.472,-6.766 -34.089,-9.098 -0.598,-37.644 -0.985,-70.164 -0.985,-89.148 0,-15.059 2.309,-17.363 13.875,-20.84 13.887,-5.781 34.723,-10.41 57.86,-10.41 28.937,0 74.078,4.629 99.546,13.887 59.008,23.144 126.145,87.949 126.145,195.57 l 0,1.168 c 0,17.457 2.059,131.75 -100.543,178.238 4.484,-16.754 7.168,-34.805 7.168,-54.508 0,-105.312 -72.887,-170.132 -168.977,-204.859" /><path
         id="path54"
         style="fill:#761d2c;fill-opacity:1;fill-rule:nonzero;stroke:none"
         d="m 384.047,606.699 c -1.317,-23.761 -3.387,-108.488 -4.922,-189.156 54.563,26.684 90.949,76.312 90.949,152.004 0,26.355 -3.801,52.695 -14.054,77.391 -39.942,-1.411 -70.809,-22.887 -71.973,-40.239" /><path
         id="path56"
         style="fill:#761d2c;fill-opacity:1;fill-rule:nonzero;stroke:none"
         d="m 191.941,649.512 c -5.804,0 -6.945,2.324 -6.945,9.261 0,5.782 6.945,23.157 10.402,28.942 22,0 85.649,-4.621 126.168,-4.621 18.692,0 71.622,0.957 112.102,1.64 -5.602,6.993 -11.91,13.766 -19.141,20.215 -41.672,40.512 -91.429,43.992 -148.148,43.992 -41.668,0 -79.856,-2.324 -93.746,-15.054 -4.61,-6.949 -10.403,-16.207 -10.403,-70.606 0,-214.097 0,-218.722 25.458,-244.203 25.457,-25.449 35.871,-25.449 75.226,-25.449 l 1.148,0 c 6.504,0 12.93,0.223 19.293,0.594 -0.035,124.476 -1.339,209.363 -15.043,234.468 -9.257,17.348 -16.195,20.821 -76.371,20.821" /><path
         id="path58"
         style="fill:#761d2c;fill-opacity:1;fill-rule:nonzero;stroke:none"
         d="m 283.359,201.641 0,149.199 c -27.789,0.433 -135.199,4.609 -181.297,4.609 -48.7573,0 -87.4526,-5.551 -102.062,-5.781 L 0,8.59375 l 275.641,0 c 0.75,3.15625 1.425,6.46485 1.937,10.17575 2.293,18.5352 5.781,75.2344 5.781,182.8715" /><path
         id="path60"
         style="fill:#761d2c;fill-opacity:1;fill-rule:nonzero;stroke:none"
         d="m 61.5469,461.91 c 3.457,85.656 4.625,138.891 4.625,179.399 l 0,178.218 c 0,23.157 0,45.399 -0.0508,66.321 L 0,885.848 0,384.664 c 8.36719,4.633 19.7188,9.652 26.8203,13.602 31.2578,15.054 33.5703,21.988 34.7266,63.644" /><path
         id="path62"
         style="fill:#761d2c;fill-opacity:1;fill-rule:nonzero;stroke:none"
         d="m 737.516,140.105 -43.317,-80.562 -24,0 43.176,78.219 -45.383,0 0,18.34 69.524,0 0,-15.997 z m -84.954,-29.531 c 0,-31.3084 -14.757,-52.6951 -42.21,-52.6951 -14.067,0 -23.582,4.707 -31.723,11.4649 l 11.172,16.1328 c 7.035,-5.6641 12.969,-8.2813 21.105,-8.2813 11.864,0 18.203,8.9649 19.586,21.9336 -4.691,-4 -11.172,-6.6211 -19.586,-6.6211 -20.965,0 -34.484,11.5822 -34.484,31.1722 l 0,0.273 c 0,19.453 15.031,33.809 36.832,33.809 12.961,0 20.551,-3.184 27.859,-10.489 6.899,-6.894 11.449,-17.382 11.449,-36.425 l 0,-0.274 z M 563.176,86.5703 c 0,-17.9297 -15.864,-28.3984 -37.242,-28.3984 -21.383,0 -37.246,11.039 -37.246,27.8515 l 0,0.2735 c 0,11.7383 5.378,18.6331 15.589,23.3201 -7.453,4.555 -12.281,10.762 -12.281,21.094 l 0,0.293 c 0,14.75 13.524,26.484 33.938,26.484 20.414,0 33.929,-11.601 33.929,-26.484 l 0,-0.293 c 0,-10.332 -4.824,-16.539 -12.273,-21.094 9.793,-5.097 15.586,-11.3084 15.586,-22.7537 l 0,-0.293 z m -93.379,-27.0273 -20.969,0 0,75.738 -16.824,-4.14 -4.414,17.382 27.722,8.262 14.485,0 0,-97.242 z m 240.617,228.883 c -67.113,-67.117 -180.559,-89.09 -270.809,-89.09 -20.839,0 -41.675,0 -55.558,0 -4.621,0 -10.41,-2.324 -10.41,-31.262 0,-33.562 2.332,-83.3396 6.945,-128.4646 0.879,-12.2969 2.43,-22.5899 5.723,-31.01565 l 400.453,0 0,414.85925 c -7.863,-55.785 -35.547,-94.215 -76.344,-135.027" /><path
         id="path64"
         style="fill:#761d2c;fill-opacity:1;fill-rule:nonzero;stroke:none"
         d="m 525.934,99.8125 c -9.661,0 -16.696,-4.4141 -16.696,-11.8516 l 0,-0.2773 c 0,-6.6211 6.211,-11.9922 16.696,-11.9922 10.484,0 16.687,5.2344 16.687,11.9922 l 0,0.2773 c 0,7.4375 -7.035,11.8516 -16.687,11.8516" /><path
         id="path66"
         style="fill:#761d2c;fill-opacity:1;fill-rule:nonzero;stroke:none"
         d="m 613.941,139.543 c -10.484,0 -16.418,-6.059 -16.418,-14.613 l 0,-0.274 c 0,-8.554 6.348,-14.488 16.832,-14.488 10.485,0 16.551,6.07 16.551,14.352 l 0,0.277 c 0,8.551 -6.344,14.746 -16.965,14.746" /><path
         id="path68"
         style="fill:#761d2c;fill-opacity:1;fill-rule:nonzero;stroke:none"
         d="m 525.934,116.648 c 8.414,0 13.793,4.961 13.793,11.719 l 0,0.293 c 0,5.918 -5.11,11.309 -13.793,11.309 -8.692,0 -13.793,-5.254 -13.793,-11.172 l 0,-0.293 c 0,-6.754 5.379,-11.856 13.793,-11.856" /></g></g></svg>