<?xml version="1.0" encoding="UTF-8" standalone="no"?>
<svg xmlns:rdf="http://www.w3.org/1999/02/22-rdf-syntax-ns#" xmlns="http://www.w3.org/2000/svg" xml:space="preserve" height="208.29" viewBox="0 0 384.01013 208.28993" width="384.01" version="1.1" xmlns:cc="http://creativecommons.org/ns#" xmlns:dc="http://purl.org/dc/elements/1.1/"><g transform="matrix(1.25 0 0 -1.25 -191.9 600.99)"><g style="" transform="matrix(.5 0 0 .5 154.25 199.06)"><path d="m297.42 358.4c12.855 0 25.964 1.1569 38.959 3.4492 68.858 12.122 106.64 50.635 108.22 52.27l2.5822 2.6815-32.21 49.032 18.867 20.258-12.678 55.552-52.058 14.339-4.8504-3.8868-0.2201 0.0537c-7.3145 1.8119-32.02 7.8003-42.491 8.6432-7.6795 0.6093-15.214 0.9153-22.389 0.9153-69.274 0-97.783-29.215-107.15-38.808-37.101-38.046-29.427-82.805-11.58-109.58 16.696-25.054 50.549-54.922 117-54.922h0.005" fill="#fff"/><path d="m402.18 524.43 7.5964-32.409-15.491-16.57s-38.135 27.739-94.014 26.649c-55.477-1.0817-80.194-22.872-76.723-46.815 3.5995-24.866 39.979-39.992 87.164-36.75 55.099 3.7874 88.26 30.984 88.26 30.984l19.082-28.461s-38.102-38.867-113.46-39.987c-48.751-0.722-69.169 8.7479-89.701 24.142-12.959 9.7303-25.159 26.923-27.371 43.946-6.6031 50.793 39.227 87.656 99.061 90.036 53.639 2.1527 83.208-11.507 83.208-11.507s3.9726 4.3135 5.0409 4.3135c1.0871 0 27.347-7.5721 27.347-7.5721" fill="#cd1041"/><path d="m601.33 238.3c0-3.6049 0.0698-4.939 0.9905-4.939h1.989v-1.0495h-8.1225v1.0495h1.6481c0.3866 0 0.5127 0.2496 0.5127 0.5637v7.9506c-4.0102 7.0434-5.21 9.4646-6.4958 11.102-0.408 0.4912-0.5771 0.5234-1.1595 0.5234h-1.1945v1.0523h7.8755v-1.0523h-1.6159c-0.2524 0-0.5557 0-0.5557-0.1422 0-0.306 3.0198-5.4168 5.6476-10.06 4.3082 8.0982 4.786 9.1236 4.786 9.7893 0 0.3811-0.2846 0.4133-0.6872 0.4133h-2.04v1.0523h6.3643v-1.0523h-1.216c-0.561 0-0.7274-0.6012-0.9797-1.0468l-5.7469-10.474v-3.68m-66.705 0c0-3.6049 0.0832-4.939 0.9851-4.939h2.6842v-1.0495h-9.8081v1.0495h2.6305c0.3999 0 0.5342 0.2496 0.5342 0.5637v19.372h-0.8858c-4.0988 0-6.0905-0.7488-6.4314-1.7903-0.0752-0.204-0.2094-0.502-0.51-0.502-0.1879 0-0.3704 0.1101-0.3704 0.357 0 0.2201 0.4966 1.7636 0.9905 3.1916h17.399c0.4993-1.428 0.9744-2.9715 0.9744-3.1916 0-0.2469-0.1611-0.357-0.3812-0.357-0.2791 0-0.4187 0.298-0.4831 0.502-0.357 1.0415-2.3434 1.7903-6.4636 1.7903h-0.8643v-14.997m-62.016 0c0-3.6049 0.0832-4.939 0.9851-4.939h1.9997v-1.0495h-8.1224v1.0495h1.64c0.3892 0 0.5208 0.2496 0.5208 0.5637v14.637c0 3.6049-0.0591 4.9389-0.9905 4.9389h-2.0561v1.0523h8.1251v-1.0523h-1.5729c-0.3705 0-0.5288-0.2415-0.5288-0.5636v-14.637m-65.363 11.639c0-2.8426 2.6251-3.7525 4.8235-4.59 4.4853-1.6562 6.63-3.0788 6.63-6.834 0-3.0466-2.6628-6.8769-8.4553-6.8769-1.7152 0-3.8545 0.3623-5.4624 0.9877-0.3784 2.1743-0.5153 2.9044-0.5153 3.2238 0 0.2469 0.1369 0.4214 0.416 0.4214 0.3436 0 0.4563-0.3463 0.5288-0.6549 0.4859-1.9756 3.7418-2.7057 5.457-2.7057 2.8104 0 5.6771 1.4011 5.6771 4.547 0 2.695-2.0346 3.8975-5.4892 5.143-1.5917 0.5771-5.8596 1.9487-5.8596 6.2032 0 4.2061 4.2088 6.4233 7.9533 6.4233 1.4683 0 2.8238-0.1503 3.9565-0.6684 0.043-0.8428 0.1101-1.7206 0.1101-2.5661 0-0.2335-0.1101-0.4482-0.3812-0.4482-0.3623 0-0.3838 0.2845-0.4402 0.5261-0.2308 1.5031-3.0734 1.8923-4.19 1.8923-2.3541 0-4.7591-1.436-4.7591-4.0236m-66.791-1.377c0 3.6049-0.059 4.9443-0.9743 4.9443h-2.0561v1.0522h9.8027c3.0788 0 7.0407-1.581 7.0407-6.0341 0-3.1459-2.3836-5.0758-5.457-5.6261 5.7764-8.3881 6.9521-9.537 7.9801-9.537h0.8697v-1.0495h-4.0155c-0.8241 0-1.216 0.0268-7.6178 10.09h-2.5796v-4.0961c0-3.6102 0.0725-4.9443 0.9744-4.9443h1.9944v-1.0495h-8.1278v1.0495h1.6508c0.3784 0 0.5153 0.2496 0.5153 0.5637v14.637zm4.7377-5.1134c3.0117 0 6.0824 1.1005 6.0824 4.5202 0 3.3043-2.4641 5.3174-5.2476 5.3174h-1.7931c-0.2979 0-0.7865-0.0268-0.7865-0.4966v-9.341h1.7448m-71.161 5.1134c0 3.6049-0.0698 4.9443-0.9717 4.9443h-2.0749v1.0522h17.544c-0.306-3.0868-0.4134-3.1915-0.7328-3.2559-0.2657 0-0.3409 0.1691-0.4268 0.6281-0.0913 0.4134-0.6898 1.3555-6.2193 1.3555h-3.4358c-0.5261 0-0.6925-0.2657-0.6925-0.6227v-7.6044h4.0612c3.5968 0 4.6866 0.153 4.6866 1.1837v1.377h0.9502v-5.9133h-0.9502v1.224c0 0.9422-0.3409 0.9771-4.3511 0.9771h-4.3967v-5.9912c0-4.343 0.3785-4.343 1.4226-4.343h2.3541c5.9562 0 7.3171 0.8858 7.913 1.8574 0.1101 0.1853 0.1718 0.3839 0.4268 0.3839 0.1396 0 0.2711-0.1986 0.2711-0.3839 0-0.3247-0.4536-1.7152-0.8804-3.119h-16.661v1.0495h1.6481c0.3812 0 0.5154 0.2496 0.5154 0.5637v14.637m-50.034 4.9389h-1.5381c-0.2174 0-0.2872 0-0.4241-0.3757l-7.9828-20.258c-0.3141-0.7623-0.4214-1.2293-0.7731-1.2293-0.2415 0-0.3516 0.2898-0.5959 0.9206l-7.4245 17.968c-1.1864 2.8319-1.4038 2.9741-2.5527 2.9741h-0.8428v1.0576h7.5668v-1.0576h-1.8951c-0.2147 0-0.3597 0-0.3597-0.2147 0-0.3087 2.4561-5.7388 6.9414-16.631 4.4853 10.893 6.0905 14.916 6.0905 16.245 0 0.4966-0.2711 0.6012-0.8724 0.6012h-1.989v1.0576h6.6515v-1.0576m-72.232-15.201c0-3.6049 0.0644-4.939 0.977-4.939h1.989v-1.0495h-8.1117v1.0495h1.632c0.4027 0 0.5315 0.2496 0.5315 0.5637v14.637c0 3.6049-0.0751 4.9389-0.9824 4.9389h-2.0695v1.0523h8.1331v-1.0523h-1.5783c-0.3919 0-0.5207-0.2415-0.5207-0.5636v-14.637m-58.272-1.0845h0.06979v12.613c0 1.6159-0.06979 3.6774-1.1193 3.6774h-1.8602v1.0522h6.4072v-1.0522h-1.2965c-0.41606 0-0.7999-0.1798-0.7999-0.7059v-20.242c0-0.3194-0.03221-0.5583-0.28184-0.5583-0.10469 0-0.25232 0.1047-0.4939 0.3812l-0.42679 0.4858-15.158 18.285h-0.07248v-14.103c0-1.6186 0.07248-3.6935 1.1247-3.6935h1.8602v-1.0441h-6.418v1.0441h1.2911c0.41874 0 0.80795 0.1772 0.80795 0.7006v15.432c0 2.8237-0.30868 4.0182-1.9568 4.0182h-1.0844v1.0522h5.0839l14.323-17.343m-90.176 17.343h8.1197v-1.0576h-1.5676c-0.38384 0-0.52074-0.2415-0.52074-0.5636v-13.268c0-5.159 3.3821-6.587 5.9482-6.587 7.25 0 7.3467 5.5777 7.3467 8.3425v8.4042c0 1.6052-0.06443 3.672-1.122 3.672h-1.8494v1.0576h6.4072v-1.0576h-1.3018c-0.41068 0-0.79721-0.1798-0.79721-0.7166v-12.449c0-5.3926-3.4331-8.6968-8.8606-8.6968-8.372 0-8.7613 5.4731-8.7613 9.1558v7.7681c0 3.6049-0.06979 4.9389-0.96632 4.9389h-2.0749v1.0576m575.64 58.355c0 7.7305-0.1396 10.584-2.091 10.584h-4.4397v2.2547h37.625c-0.6765-6.6031-0.9019-6.8286-1.5784-6.9762-0.6012 0-0.7435 0.3731-0.9018 1.3501-0.2148 0.8939-1.4871 2.9258-13.362 2.9258h-7.3602c-1.1327 0-1.5004-0.6093-1.5004-1.3501v-16.296h8.7129c7.7332 0 10.05 0.298 10.05 2.55v2.9312h2.0346v-12.686h-2.0346v2.6252c0 2.0239-0.7435 2.099-9.2981 2.099h-9.4645v-12.847c0-9.3089 0.8133-9.3089 3.0895-9.3089h5.0168c12.774 0 15.695 1.879 16.964 3.9915 0.2362 0.3731 0.3973 0.824 0.9073 0.824 0.3086 0 0.6039-0.4509 0.6039-0.824 0-0.6791-0.9663-3.6774-1.8789-6.6864h-35.748v2.2547h3.5378c0.8187 0 1.1167 0.5235 1.1167 1.2079v31.376m-27.298-21.997c0-7.752 0.1369-10.587 2.0937-10.587h5.7818v-2.2547h-21.034v2.2547h5.6476c0.8107 0 1.1059 0.5235 1.1059 1.2079v41.514h-1.8736c-8.7746 0-13.059-1.5756-13.808-3.8357-0.1477-0.451-0.4349-1.0495-1.0442-1.0495-0.4509 0-0.8321 0.2362-0.8321 0.7569 0 0.4456 1.0522 3.7552 2.091 6.8286h37.327c1.0496-3.0734 2.0937-6.383 2.0937-6.8286 0-0.5207-0.3731-0.7569-0.8026-0.7569-0.6039 0-0.9072 0.5985-1.0549 1.0495-0.7489 2.2601-5.0382 3.8357-13.818 3.8357h-1.8736v-32.135m-59.847 5.0167c-1.6535-4.19-4.3619-11.553-4.3619-13.652 0-1.5703 0.765-1.9515 1.887-1.9515h4.7162v-2.2547h-15.155v2.2547h1.5085c1.1139 0 2.244 0.2148 2.6949 1.2079l18.996 44.961c1.8816 0.4563 3.978 0.9851 4.4397 0.9851 0.3677 0 0.7274-0.2363 0.7274-0.7597 0-0.9609-1.3367-0.8938-1.3367-2.3326 0-3.2183 9.3222-28.289 12.986-38.296 1.742-4.7269 2.6278-5.7657 4.5819-5.7657h2.2601v-2.2547h-16.83v2.2547h4.0585c0.5288 0 1.0496 0.2148 1.0496 0.7543 0 0.5207-2.1018 5.7657-5.1752 14.849h-17.047zm9.384 22.679-8.3318-19.968h14.943l-6.6112 19.968m-41.055-27.696c0-7.752 0.1449-10.587 2.1071-10.587h5.7818v-2.2547h-21.028v2.2547h5.6261c0.824 0 1.1274 0.5235 1.1274 1.2079v41.514h-1.8709c-8.7881 0-13.072-1.5756-13.816-3.8357-0.1583-0.451-0.4563-1.0495-1.0576-1.0495-0.4482 0-0.824 0.2362-0.824 0.7569 0 0.4456 1.0468 3.7552 2.1017 6.8286h37.327c1.0441-3.0734 2.1044-6.383 2.1044-6.8286 0-0.5207-0.3785-0.7569-0.8402-0.7569-0.6039 0-0.8965 0.5985-1.0495 1.0495-0.7489 2.2601-5.0329 3.8357-13.824 3.8357h-1.8655v-32.135m-55.62 31.22c0-7.1024 6.5575-9.384 12.074-11.475 11.22-4.1203 16.551-7.7144 16.551-17.088 0-7.6178-6.6381-17.163-21.101-17.163-4.2947 0-9.6309 0.8616-13.668 2.4534-0.9636 5.4194-1.3153 7.2688-1.3153 8.0499 0 0.6147 0.3517 1.0603 1.0469 1.0603 0.8911 0 1.1381-0.8912 1.3072-1.6642 1.2374-4.9122 9.3733-6.7482 13.671-6.7482 7.0111 0 14.202 3.5029 14.202 11.386 0 6.7454-5.0839 9.7168-13.746 12.879-3.9619 1.3958-14.642 4.8128-14.642 15.504 0 10.511 10.517 16.027 19.871 16.027 3.6989 0 7.1078-0.357 9.9236-1.6803 0.0778-2.0829 0.2415-4.2813 0.2415-6.3777 0-0.62-0.2415-1.1461-0.9448-1.1461-0.8751 0-0.9636 0.7113-1.0468 1.3287-0.6308 3.7632-7.7171 4.7295-10.514 4.7295-5.865 0-11.91-3.6049-11.91-10.076m-78.744 3.6156h22.078c21.194 0 24.692-16.068 24.692-22.912 0-13.424-9.0753-24.764-24.598-24.764h-20.29v2.2547h3.5351c0.8375 0 1.1408 0.5235 1.1408 1.2079v31.376c0 7.7305-0.1718 10.584-2.1286 10.584h-4.4289v2.2547zm12.927-35.662c0-9.3196 0.8241-9.3196 3.0788-9.3196h6.0019c13.29 0 17.963 10.595 17.963 19.071 0 16.532-10.302 23.21-21.186 23.21-4.9497 0-5.857 0-5.857-1.3501v-31.612m-65.618 35.662h17.423v-2.2547h-3.3767c-0.8294 0-1.1166-0.5207-1.1166-1.1972v-28.447c0-11.038 7.2768-14.135 12.758-14.135 15.544 0 15.764 11.95 15.764 17.869v18.027c0 3.4546-0.1369 7.8835-2.4024 7.8835h-3.9807v2.2547h13.743v-2.2547h-2.7835c-0.9019 0-1.7314-0.3731-1.7314-1.5032v-26.724c0-11.558-7.3493-18.623-18.983-18.623-17.955 0-18.776 11.711-18.776 19.592v16.674c0 7.7305-0.1449 10.584-2.1017 10.584h-4.437v2.2547m-51.794-24.555c0 14.197 10.05 25.983 25.001 25.983 15.085 0 23.656-9.9127 23.656-24.56 0-14.191-10.06-25.967-25.014-25.967-15.096 0-23.642 9.8993-23.642 24.544m6.3804 2.1044c0-16.975 10.058-24.185 18.921-24.185 10.133 0 16.972 7.7332 16.972 21.39 0 16.978-10.066 24.209-18.924 24.209-10.141 0-16.97-7.752-16.97-21.415m-30.702 20.196h-3.3848c-0.816 0-1.122-0.5261-1.122-1.1972v-32.221c0-9.3089 0.8267-9.3089 3.0814-9.3089h5.0329c12.769 0 15.678 1.879 16.962 3.9915 0.2308 0.3731 0.3865 0.824 0.9019 0.824 0.3006 0 0.6093-0.4509 0.6093-0.824 0-0.6791-0.9851-3.6774-1.8817-6.6864h-35.746v2.2547h3.5324c0.8241 0 1.1247 0.5235 1.1247 1.2079v31.376c0 7.7305-0.1503 10.584-2.099 10.584h-4.4263v2.2547h17.415v-2.2547m-24.069 1.5193c-0.7891 0-0.875 0.357-1.0549 1.6642-0.4402 3.162-7.709 5.5321-12.97 5.5321-16.116 0-25.398-12.27-25.398-27.502 0-16.309 12.264-25.138 23.13-25.138 7.8781 0 16.554 3.5727 17.166 8.4875 0.0805 0.7032 0.1691 1.5863 1.1327 1.5863 0.7033 0 0.8805-0.6254 0.8805-1.1488 0-0.7945-0.1772-2.1018-0.5288-7.6232-5.8623-2.8936-13.397-4.4638-20.145-4.4638-17.442 0-29.602 9.0995-29.602 27.325 0 18.832 15.678 31.628 33.891 31.628 5.3443 0 10.342-1.1408 15.072-2.9795-0.6201-7.1051-0.7006-7.3681-1.573-7.3681m-84.783-44.394c0 2.1769 1.4951 3.5351 3.672 3.5351s3.6827-1.3582 3.6827-3.5351c0-2.1688-1.5058-3.5297-3.6827-3.5297s-3.672 1.3609-3.672 3.5297m-24.324 10.294c0-7.752 0.153-10.587 2.1071-10.587h5.7872v-2.2547h-21.036v2.2547h5.6342c0.82942 0 1.13 0.5235 1.13 1.2079v41.514h-1.8736c-8.7908 0-13.075-1.5756-13.818-3.8357-0.15569-0.451-0.45632-1.0495-1.0495-1.0495-0.45363 0-0.82405 0.2362-0.82405 0.7569 0 0.4456 1.0415 3.7552 2.0937 6.8286h37.319c1.0495-3.0734 2.1044-6.383 2.1044-6.8286 0-0.5207-0.37847-0.7569-0.82136-0.7569-0.60127 0-0.89922 0.5985-1.0522 1.0495-0.75157 2.2601-5.0168 3.8357-13.826 3.8357h-1.8736v-32.135m-55.63 31.22c0-7.1024 6.5736-9.384 12.087-11.475 11.22-4.1203 16.559-7.7144 16.559-17.088 0-7.6178-6.6595-17.163-21.114-17.163-4.284 0-9.6336 0.8616-13.66 2.4534-0.96095 5.4194-1.3206 7.2688-1.3206 8.0499 0 0.6147 0.35968 1.0603 1.0603 1.0603 0.88042 0 1.1435-0.8912 1.3045-1.6642 1.2294-4.9122 9.3894-6.7482 13.679-6.7482 6.9924 0 14.181 3.5029 14.181 11.386 0 6.7454-5.0732 9.7168-13.751 12.879-3.9377 1.3958-14.626 4.8128-14.626 15.504 0 10.511 10.517 16.027 19.882 16.027 3.6827 0 7.0971-0.357 9.9021-1.6803 0.07515-2.0829 0.255-4.2813 0.255-6.3777 0-0.62-0.255-1.1461-0.95827-1.1461-0.86968 0-0.95558 0.7113-1.0442 1.3287-0.612 3.7632-7.7117 4.7295-10.517 4.7295-5.857 0-11.918-3.6049-11.918-10.076m317.68 116.21-4.6786-1.0736s1.9165 6.4877 1.1999 14.159c-0.6979 7.4486-7.6796 14.296-7.6796 14.296l6.0019 0.1208 0.4778 3.4787 4.6786-1.8011v-29.18zm1.8038 39.27c-3.213 0.5342-7.5534 1.0764-7.5534 1.0764v16.084c-6.2945 0.6496-12.903 0.969-19.82 0.8375-2.8614-0.043-5.61-0.1584-8.2727-0.3168 4.2786-1.1622 9.7973-3.2371 13.553-6.8742 6.4877-6.2569 4.8047-14.052 4.8047-14.052l-18.363-0.365s-0.3677 4.5658-4.3323 5.763c-1.7179 0.5314-10.688 1.6937-10.688-4.0773 0-8.8875 34.972-3.0681 35.901-27.623 0.5502-14.213-7.4809-20.601-17.096-22.969 3.358-0.0349 6.7643 0.0697 10.262 0.2764 10.554 0.7006 20.148 2.0347 28.804 3.7767v46.3s-2.8721 1.4414-7.199 2.1634m57.265-16.935s-7.0702-6.0127-10.672-7.8057c-3.6156-1.8011-12.364-5.1591-12.364-5.1591l-0.3811 12.245 12.272-3.6022 0.3516 11.888s3.0869-1.1059 5.4033-2.8855c3.1137-2.3916 5.3899-4.6812 5.3899-4.6812zm-82.107-86.437c-47.927 0.3463-62.606 7.9265-80.102 17.635-21.602 12.009-41.291 37.466-42.013 65.194-0.6952 26.485 20.411 87.532 109.14 89.347 46.142 0.9207 78.526-10.804 78.526-10.804l5.4141 3.9592 34.922-10.087 8.6566-38.913-21.619-24.493s-10.479 8.729-29.188 16.704v-14.9s-13.676 4.3216-14.03 3.6049c-0.3194-0.6201-0.0939-29.757-0.0268-37.893 33.217 10.197 47.935 25.648 47.935 25.648l26.99-39.262s-46.209-46.343-124.6-45.739zm106.25 92.082 19.683 21.13-11.502 50.426-47.078 12.97-4.8074-3.8438s-32.176 8.16-44.182 9.129c-79.165 6.3375-111.61-21.927-125.83-36.505-38.416-39.375-24.485-83.562-11.043-103.73 36.65-54.989 105.86-57.469 151.28-49.467 68.195 12.012 105.67 50.914 105.67 50.914l-32.192 48.979m-164.97-8.525v-6.8394s-4.7913 3.4358-4.5604 10.079c0.2362 7.089 8.1573 11.886 8.1573 11.886s1.0656-6.2005 1.6857-8.0419c1.4414-4.3216 4.088-7.0836 4.088-7.0836h-9.3706zm13.684 12.248c-1.7287 11.744 3.2666 18.049 6.8957 21.009-23.954-6.6408-33.821-19.461-34.267-31.813-0.4564-12.514 12.769-23.825 33.322-29.757-7.5077 6.3482-9.1907 17.864-9.1907 17.864h19.455s1.9192-4.5578 5.1644-6.732c3.2291-2.1367 14.404-1.4388 14.154 4.8181-0.2818 7.7037-32.79 6.0771-35.534 24.612"/></g></g></svg>
