<?xml version="1.0" encoding="UTF-8" standalone="no"?>
<svg xmlns:rdf="http://www.w3.org/1999/02/22-rdf-syntax-ns#" xmlns="http://www.w3.org/2000/svg" xml:space="preserve" height="149.92" viewBox="0 0 225.56055 149.91797" width="225.56" version="1.1" xmlns:cc="http://creativecommons.org/ns#" xmlns:dc="http://purl.org/dc/elements/1.1/"><g transform="matrix(1.25 0 0 -1.25 -273.57 780.54)"><g transform="translate(.91482 .68611)"><path d="m35.014 15.848v11.215c6.49 0 12.777 6.8254 12.777 13.869v19.402h61.332l-26.662-44.486h-47.447zm110.15 0-26.654 44.484h61.322v-19.4c0-7.0438 6.288-13.867 12.779-13.867v-11.217h-47.447zm-97.369 75.232v15.123c0 6.825-6.2873 16.549-12.777 16.549v13.238h56.359v-13.238c-6.285 0-12.779-9.7238-12.779-16.549v-15.123h-30.803zm40.543 0 25.479 41.953 25.477-41.953h-50.955zm60.691 0v15.123c0 6.825-6.4905 16.549-12.779 16.549v13.238h56.361v-13.238c-6.49 0-12.779-9.7238-12.779-16.549v-15.123h-30.803z" transform="matrix(.8 0 0 -.8 217.25 624.2)" fill="#00b140"/><path d="m21.846 1.7129v37.496h3.3496c4.3788 0 7.224 0.62688 8.459 1.8594 1.3675 1.3675 1.3789 4.4052 1.3789 8.2539v7.6602h-33.031v37.447h33.031v2.8203c0 4.7-0.01398 9.4462-2.459 11.889-1.4525 1.4525-3.9327 2.1875-7.3789 2.1875h-3.3496v38.305h82.736v-5.5234c0.93 1.5488 3.3203 5.5234 3.3203 5.5234h11.82s2.3891-3.9734 3.3203-5.5234v5.5234h82.73v-38.305h-3.3496c-3.4412 0-5.9245-0.735-7.377-2.1875-2.4425-2.4425-2.4551-7.1867-2.4551-11.793v-2.916h32.971v-37.447h-32.971v-7.6641c0-3.8488 0.0114-6.8838 1.3789-8.25 1.2312-1.2338 4.0756-1.8594 8.4531-1.8594h3.3496v-37.496h-68.408s-19.033 31.561-23.551 39.049c-4.51-7.482-23.554-39.044-23.554-39.044h-68.41zm3.3496 3.3496h63.168l25.451 42.184 25.443-42.184h63.166v30.797c-13.238 0-13.182 5.3616-13.182 13.664v10.809h32.971v30.748h-32.971v6.0762c0 8.0412-0.0559 17.52 13.182 17.52v31.605h-76.029v-14.25l-8.5664 14.25h-8.0332l-8.5625-14.25v14.25h-76.037v-31.605c13.24 0 13.186-9.4783 13.186-17.52v-6.0762h-33.029v-30.748h33.029v-10.809c0-8.3025 0.05445-13.664-13.186-13.664v-30.797zm5.8809 6.5801v18.881c8.3612 0 13.02 5.9071 13.02 13.443v16.367h3.6953v-19.402c0-7.0438-6.2873-13.869-12.777-13.869v-11.215h47.447l26.662 44.486h9.3848l26.654-44.486h47.447v11.215c-6.49 0-12.779 6.8254-12.779 13.869v19.402h3.6973v-16.367c0-7.5362 4.6591-13.443 13.025-13.443v-18.881h-53.625l-29.113 48.473-29.121-48.473h-53.617zm80.219 52.223c-4.71 0-7.0996 2.8084-7.0996 6.1484 0 3.9312 3.1984 5.7973 5.9746 7.3086 1.125 0.62875 2.6005 1.3004 3.5117 2.2129 0.67125 0.66875 0.91602 1.2998 0.91602 2.2148 0 1.4038-0.73727 2.8477-3.1973 2.8477-1.5838 0-5.7636-0.38922-5.8711-5.168h-1.8965v6.3965c2.6012 1.0188 4.6396 1.7207 7.6934 1.7207 6.0475 0 7.5918-3.5511 7.5918-6.1836 0-2.0738-0.63031-3.5861-2.0703-5.0273-1.7225-1.7563-4.0413-2.6693-6.0801-3.9355-1.3362-0.8425-2.3555-1.6844-2.3555-3.2344 0-0.87625 0.49375-2.3535 3.375-2.3535 3.2988 0 4.1098 1.5491 4.3223 4.8516h2.0039v-7.168c-2.6738-0.14-2.7096-0.63086-6.8184-0.63086zm-43.973 0.20703-6.8496 18.906c-0.4225 1.1588-0.80625 1.9665-2.25 2.1777v1.793h7.1348v-1.8984c-1.5125-0.07-1.6523-0.28117-1.6523-0.98242 0-1.0538 0.77234-3.1627 1.0898-4.2539h6.4648c0.70125 2.18 1.2988 4.1133 1.2988 4.6758 0 0.20875 0.0011 0.42102-1.4727 0.66602v1.793h8.291v-1.8984c-1.4738 0-1.8974-0.24609-2.4199-1.6523l-7.1367-19.326h-2.498zm85.477 0-6.8516 18.906c-0.4175 1.1588-0.80485 1.9665-2.2461 2.1777v1.793h7.1328v-1.8984c-1.51-0.07-1.6543-0.28117-1.6543-0.98242 0-1.0538 0.77804-3.1627 1.0918-4.2539h6.4648c0.705 2.18 1.3027 4.1133 1.3027 4.6758 0 0.20875 0.00024 0.42102-1.4785 0.66602v1.793h8.291v-1.8984c-1.4738 0-1.8949-0.24609-2.4199-1.6523l-7.1367-19.326h-2.4961zm-63.77 0.03906c-2.425 0-6.3609 0.27992-8.6797 0.41992v1.8945c2.3188 0 2.668 0.59906 2.668 3.4453v12.367c0 1.3362-0.10578 2.6367-2.7383 2.918v1.793h9.418v-1.8984c-2.1812-0.10625-2.4961-1.1919-2.4961-2.3906v-4.459h2.1426c0.4575 0 0.80766-0.07227 1.1602-0.07227 1.6538 2.9875 4.0375 6.4677 5.0938 7.5215 0.91125 0.94875 2.0016 1.7188 3.8691 1.7188 0.84125 0 1.6885-0.13898 3.2285-0.49024l0.0352-1.7559c-1.4362 0-2.1764-0.17891-3.4414-1.4414-1.0512-1.055-3.0564-3.9361-4.8164-6.9961 2.1812-1.6125 3.1621-4.2116 3.1621-6.1816 0-5.9025-5.7967-6.3926-8.6055-6.3926zm-60.662 0.38477v1.7559c2.46 0.31625 2.5645 0.70383 2.5645 1.8613 0 1.4762 0.07 9.7011 0 12.934-0.105 3.5838-0.4907 3.7944-2.5645 4.1094v1.793h8.2227v-1.793c-2.46-0.315-2.7051-0.7732-2.7051-3.127v-9.9434l7.1016 14.863h2.5625l6.3574-14.512v9.9434c0 2.2825-0.035 2.5999-2.5625 2.6699v1.8984h9.9766v-1.793c-2.1425-0.315-2.7754-1.1607-2.7754-2.8457v-12.227c0-0.74-0.10297-2.1425 0.17578-2.8125 0.17375-0.34875 0.56461-0.73703 2.5996-1.0195v-1.7559h-7.2734l-7.0645 15.812-7.5137-15.812h-7.1016zm91.451 0.06836v1.8613c2.2488 0 2.6699 0.03742 2.6699 3.4824v10.295c0 4.32-0.38367 4.4606-2.6699 4.9531v1.793h9.4863v-1.793c-2.1025-0.35125-2.6699-0.63273-2.6699-2.459v-6.3262h9.3476v6.3262c0 1.8262-0.56242 2.1077-2.6699 2.459v1.793h9.4844v-1.793c-2.2838-0.4925-2.6699-0.63312-2.6699-4.9531v-10.295c0-3.445 0.42618-3.4824 2.6699-3.4824v-1.8613h-9.4844v1.8613c2.1425 0.0375 2.6699 0.24766 2.6699 4.5352v2.5977h-9.3476v-2.5977c0-4.2875 0.52742-4.4977 2.6699-4.5352v-1.8613h-9.4863zm45.934 0v1.8965c1.9712 0.03625 2.6719 0.14516 2.6719 5.3789v6.9922c0 5.8662-0.73563 6.2912-2.6719 6.2188v1.8984h16.271v-6.5h-1.7227c-0.7375 3.4438-2.0744 3.8633-4.5644 3.8633-2.7438 0-2.9141-0.56133-2.9141-2.1426l0.0312-12.932c0.0625-1.98 0.23882-2.4102 0.70507-2.5664 0.6325-0.2475 1.4048-0.24711 2.0723-0.34961v-1.7578h-9.8789zm17.178 0v1.8984c1.965 0.03625 2.666 0.14195 2.666 5.377v6.9941c0 5.8662-0.73851 6.288-2.666 6.2168v1.8984h16.268v-6.5h-1.7246c-0.73625 3.4438-2.0714 3.8633-4.5664 3.8633-2.7388 0-2.918-0.56133-2.918-2.1426l0.0371-12.93c0.065-1.985 0.23297-2.4109 0.69922-2.5684 0.6325-0.2475 1.4074-0.24711 2.0762-0.34961v-1.7578h-9.8711zm-94.01 2.1445c2.2512 0 4.2188 1.2666 4.2188 4.4629 0 3.6912-1.7577 4.498-4.1465 4.498h-1.791v-6.5039c0-0.17125 0.07102-1.4739 0.10352-2.3164 0.6675-0.10625 1.4415-0.14062 1.6152-0.14062zm-21.031 3.8281 2.2852 6.4336h-4.4316l2.1465-6.4336zm85.475 0 2.2852 6.4336h-4.4297l2.1445-6.4336zm-109.27 20.543v11.867c0 8.1262-4.6583 16.979-13.02 16.979v20.068h64.221v-20.068c-7.96 0-13.107-8.3398-13.107-16.979v-11.867h-3.5938v15.123c0 6.825 6.495 16.549 12.781 16.549v13.238h-56.363v-13.238c6.4912 0 12.777-9.7238 12.777-16.549v-15.123h-3.6953zm39.488 0 30.23 50.113 30.229-50.113h-4.752l-25.477 41.953-25.479-41.953h-4.752zm61.85 0v11.867c0 8.6388-5.1467 16.979-13.105 16.979v20.068h64.225v-20.068c-8.3662 0-13.025-8.8523-13.025-16.979v-11.867h-3.6973v15.123c0 6.825 6.2893 16.549 12.779 16.549v13.238h-56.361v-13.238c6.29 0 12.779-9.7238 12.779-16.549v-15.123h-3.5938z" transform="matrix(.8 0 0 -.8 217.25 624.2)" fill="#fff"/><path d="m25.195 5.0625v30.797c13.24 0 13.186 5.3616 13.186 13.664v10.811h-33.029v30.746h33.029v6.0762c0 8.0412 0.05445 17.521-13.186 17.521v31.604h76.039v-14.25l8.5605 14.25h8.0332l8.5645-14.25v14.25h76.031v-31.604c-13.238 0-13.182-9.4802-13.182-17.521v-6.0762h32.971v-30.746h-32.971v-10.811c0-8.3025-0.0559-13.664 13.182-13.664v-30.797h-63.166l-25.44 42.181-25.447-42.184h-63.168zm5.8809 6.5801h53.617l29.121 48.473 29.113-48.473h53.625v18.881c-8.365 0-13.025 5.9071-13.025 13.443v16.367h-3.6973-61.322-9.3848-61.33-3.6973v-16.367c0-7.5362-4.6583-13.443-13.02-13.443v-18.881zm80.219 52.223c4.1088 0 4.1427 0.49086 6.8164 0.63086v7.168h-2.002c-0.21126-3.3025-1.0242-4.8516-4.3242-4.8516-2.8812 0-3.373 1.4773-3.373 2.3535 0 1.55 1.0192 2.3919 2.3555 3.2344 2.0388 1.2662 4.3576 2.1793 6.0801 3.9355 1.44 1.4412 2.0703 2.9536 2.0703 5.0273 0 2.6325-1.5443 6.1836-7.5918 6.1836-3.0538 0-5.0921-0.70195-7.6934-1.7207v-6.3965h1.8965c0.10625 4.7787 4.2886 5.168 5.8711 5.168 2.46 0 3.1973-1.4439 3.1973-2.8477 0-0.915-0.24352-1.5461-0.91602-2.2148-0.91125-0.9125-2.3867-1.5841-3.5117-2.2129-2.7762-1.5112-5.9746-3.3773-5.9746-7.3086 0-3.34 2.3896-6.1484 7.0996-6.1484zm-43.975 0.20703h2.5l7.1348 19.326c0.52375 1.4075 0.94688 1.6523 2.4219 1.6523v1.8984h-8.293v-1.793c1.475-0.24625 1.4766-0.45727 1.4766-0.66602 0-0.56375-0.59828-2.4938-1.3008-4.6738h-6.4629c-0.31875 1.09-1.0918 3.197-1.0918 4.252 0 0.70125 0.14055 0.91242 1.6543 0.98242v1.8984h-7.1367v-1.793c1.4438-0.2125 1.8262-1.0177 2.25-2.1777l6.8477-18.906zm85.479 0h2.498l7.1348 19.326c0.52625 1.4075 0.94492 1.6523 2.4199 1.6523v1.8984h-8.291v-1.793c1.4788-0.24625 1.4785-0.45727 1.4785-0.66602 0-0.56375-0.59773-2.4938-1.3027-4.6738h-6.4648c-0.31375 1.09-1.0898 3.197-1.0898 4.252 0 0.70125 0.14359 0.91242 1.6523 0.98242v1.8984h-7.1348v-1.793c1.4425-0.2125 1.8312-1.0177 2.25-2.1777l6.8496-18.906zm-63.77 0.03906c2.81 0 8.6055 0.49008 8.6055 6.3926 0 1.9688-0.98086 4.5691-3.1621 6.1816 1.76 3.06 3.7632 5.9411 4.8145 6.9961 1.265 1.2625 2.0059 1.4395 3.4434 1.4395l-0.0371 1.7578c-1.5388 0.35125-2.3841 0.49024-3.2266 0.49024-1.8662 0-2.9566-0.77-3.8691-1.7188-1.055-1.0538-3.4412-4.5352-5.0938-7.5215-0.35375 0-0.70266 0.07227-1.1602 0.07227h-2.1426v4.459c0 1.1975 0.31414 2.2844 2.4941 2.3906v1.8984h-9.416v-1.793c2.6325-0.2825 2.7363-1.5798 2.7363-2.916v-12.369c0-2.8462-0.34852-3.4453-2.666-3.4453v-1.8945c2.3175-0.14 6.2547-0.41992 8.6797-0.41992zm-60.662 0.38477h7.0996l7.5176 15.812 7.0625-15.812h7.2734v1.7559c-2.035 0.2825-2.4246 0.66953-2.5996 1.0195-0.27875 0.66875-0.17383 2.0738-0.17383 2.8125v12.227c0 1.685 0.63219 2.5295 2.7734 2.8457v1.793h-9.9746v-1.8984c2.5275-0.07 2.5625-0.38742 2.5625-2.6699v-9.9434l-6.3613 14.512h-2.5605l-7.1016-14.865v9.9453c0 2.3538 0.24312 2.8107 2.7031 3.127v1.793h-8.2207v-1.793c2.0737-0.31625 2.4595-0.52688 2.5645-4.1094 0.06875-3.2338 0-11.459 0-12.934 0-1.1575-0.10445-1.5451-2.5645-1.8613v-1.7559zm91.451 0.06836h9.4863v1.8613c-2.1412 0.03625-2.6699 0.24766-2.6699 4.5352v2.5977h9.3476v-2.5977c0-4.2875-0.52672-4.4989-2.668-4.5352v-1.8613h9.4824v1.8613c-2.2438 0-2.6699 0.03547-2.6699 3.4805v10.297c0 4.3212 0.38618 4.4594 2.6699 4.9531v1.793h-9.4824v-1.793c2.1062-0.35125 2.668-0.63148 2.668-2.459v-6.3262h-9.3476v6.3262c0 1.8275 0.56742 2.1077 2.6699 2.459v1.793h-9.4863v-1.793c2.285-0.49375 2.668-0.63188 2.668-4.9531v-10.297c0-3.445-0.42047-3.4805-2.668-3.4805v-1.8613zm45.934 0h9.877v1.7578c-0.6675 0.1025-1.4378 0.10406-2.0703 0.35156-0.4675 0.15625-0.64132 0.58641-0.70507 2.5664l-0.0332 12.93c0 1.5812 0.17352 2.1426 2.916 2.1426 2.4912 0 3.827-0.41953 4.5644-3.8633h1.7227v6.5h-16.271v-1.8984c1.9375 0.07125 2.6719-0.35055 2.6719-6.2168v-6.9941c0-5.235-0.69938-5.3427-2.6719-5.3789v-1.8965zm17.176 0h9.875v1.7578c-0.67 0.1025-1.4437 0.10406-2.0762 0.35156-0.4675 0.15625-0.63617 0.58266-0.70117 2.5664l-0.0371 12.93c0 1.5812 0.17922 2.1426 2.918 2.1426 2.495 0 3.8289-0.41953 4.5664-3.8633h1.7226v6.5h-16.268v-1.8984c1.9288 0.07125 2.668-0.35055 2.668-6.2168v-6.9941c0-5.235-0.70297-5.3427-2.668-5.3789v-1.8965zm-94.008 2.1445c-0.175 0-0.94578 0.03437-1.6133 0.14062-0.0325 0.8425-0.10547 2.1452-0.10547 2.3164v6.5039h1.791c2.3888 0 4.1465-0.8068 4.1465-4.498 0-3.1962-1.9688-4.4629-4.2188-4.4629zm-21.031 3.8281-2.1465 6.4336h4.4316l-2.2852-6.4336zm85.475 0-2.1426 6.4336h4.4277l-2.2852-6.4336zm-109.27 20.543h3.6973 30.803 3.5938v11.867c0 8.64 5.1474 16.98 13.107 16.98v20.066h-64.221v-20.066c8.3612 0 13.02-8.8542 13.02-16.98v-11.867zm39.488 0h4.752 50.955 4.752l-30.229 50.113-30.23-50.113zm61.85 0h3.5957 30.801 3.6973v11.867c0 8.1262 4.6604 16.98 13.025 16.98v20.066h-64.225v-20.066c7.96 0 13.105-8.3405 13.105-16.98v-11.867z" transform="matrix(.8 0 0 -.8 217.25 624.2)" fill="#231f20"/></g></g></svg>
