<?xml version="1.0" encoding="UTF-8" standalone="no"?>
<svg xmlns:rdf="http://www.w3.org/1999/02/22-rdf-syntax-ns#" xmlns="http://www.w3.org/2000/svg" xml:space="preserve" height="70.489" viewBox="0 0 326.129 70.489128" width="326.13" version="1.1" xmlns:cc="http://creativecommons.org/ns#" xmlns:dc="http://purl.org/dc/elements/1.1/"><g transform="matrix(1.25 0 0 -1.25 -566.4 415.28)"><g><path d="m88.422 1.2344c-1.105 0-1.981 0.8735-1.981 1.9785 0 1.1062 0.876 1.9805 1.981 1.9805s1.978-0.8743 1.978-1.9805c0-1.105-0.873-1.9785-1.978-1.9785zm57.938 0c-1.1 0-1.98 0.8735-1.98 1.9785 0 1.1062 0.88 1.9805 1.98 1.9805 1.11 0 1.98-0.8743 1.98-1.9805 0-1.105-0.87-1.9785-1.98-1.9785zm53.26 0c-3.13 0-5.52 1.3878-5.63 4.8828l-0.05 1.8242h-2.03v2.1076h2.03l-0.05 9.15h-1.62v2.108h6.55v-2.108h-2.05l0.05-9.15h3.14v-2.1076h-3.14l0.05-1.5156c0.05-1.5938 0.88-2.9297 3.09-2.9297 1.1 0 1.8 0.1548 2.16 0.3086l0.1-2.2617c-0.54-0.1013-1.47-0.3086-2.6-0.3086zm-183.02 0.3086v1.7734h-15.733l-0.10138 4.7285h2.5703l0.1016-2.6211h4.1895l-0.1036 13.775h-1.8496v2.108h6.8102v-2.108h-2.082l0.104-13.775 4.111-0.0002 0.104 2.6211h2.57l-0.096-4.3945h1.332l-0.101 15.549h-1.518v2.108h6.196v-2.108h-1.799l0.101-5.088c0.052-2.493 1.542-4.062 3.522-4.062 1.823 0 2.697 1.387 2.697 3.263 0 1.953-0.075 3.935-0.102 5.887h-1.517v2.108h6.142v-2.108h-1.746c0.025-2.132 0.102-4.266 0.102-6.4 0-3.1864-1.515-5.1662-4.65-5.1662-2.673 0-4.166 1.5431-4.706 3.2652h-0.05c0.18-1.1308 0.334-2.0566 0.334-2.9566l0.078-6.3984h-4.91zm33.752 1.7734v2.1074h1.902c-0.025 3.11-0.051 6.2442-0.051 9.6872 0 2.365 0.36 3.908 1.67 5.014 1.158 0.975 2.698 1.49 5.397 1.49 2.107 0 4.113-0.488 5.269-1.465 1.234-1.053 2.004-2.673 2.004-5.064l0.051-9.6622h1.722v-2.1074h-6.58v2.1074h2.108l-0.051 9.0972c-0.026 1.723-0.205 2.828-1.027 3.651-0.823 0.822-1.722 1.027-3.469 1.027-1.516 0-2.392-0.232-3.215-1.004-0.95-0.9-1.002-2.363-1.002-3.752l0.025-9.0192h1.827v-2.1074h-6.58zm155.16 0l-0.1 4.7285h2.57l0.1-2.6211h4.19l-0.1 13.775h-1.85v2.108h6.8v-2.108h-2.08l0.11-13.775 4.11-0.0002 0.1 2.6211h2.57l-0.1-4.7285h-16.32zm-50.05 1.4141l-2.9 0.205-0.05 3.0059h-2.04v2.1076h2.04c-0.03 2.312-0.08 5.732-0.08 7.453 0 3.007 1.1 4.113 3.93 4.113 1.13 0 2.23-0.309 2.95-0.668l0.11-2.109c-0.64 0.257-1.47 0.516-2.24 0.516-1.33 0-1.87-0.618-1.87-3.059 0-2.005 0.02-4.114 0.05-6.246h3.83 0.87l4.94 11.976-0.11 0.284c-1.1 2.955-2.33 3.494-3.62 3.494-0.59 0-1.46-0.102-1.88-0.282v2.262c0.42 0.153 1.11 0.281 1.83 0.281 1.72 0 3.39-0.565 4.6-2.132 0.77-1.003 1.67-3.495 2.11-4.703l4.06-11.18h1.33v-2.1076h-5.65v2.1076h1.75l-2.37 6.861c-0.23 0.669-0.46 1.415-0.59 2.006h-0.05c-0.18-0.591-0.33-1.337-0.59-2.006l-2.57-6.861h1.49v-2.1076h-5.55-3.83l0.1-3.2109zm-116.7 2.9023c-4.318 0-6.555 3.0842-6.555 7.0432 0 4.189 2.621 6.914 7.041 6.939 2.005 0 3.78-0.541 4.705-0.926l0.155-2.365c-1.157 0.591-2.623 1.03-4.293 1.03-2.648 0-4.548-1.672-4.575-4.268h9.561v-0.385c0-4.137-2.03-7.0682-6.039-7.0682zm38.969 0c-2.673 0-4.164 1.5431-4.704 3.2652h-0.052c0.18-1.1308 0.258-2.0566 0.258-2.9566h-4.754v2.1076h1.875l-0.051 9.15h-1.516v2.108h6.194v-2.108h-1.799l0.101-5.088c0.052-2.493 1.542-4.062 3.522-4.062 1.824 0 2.697 1.387 2.697 3.263 0 1.953-0.075 3.935-0.102 5.887h-1.515v2.108h6.142v-2.108h-1.748c0.027-2.132 0.102-4.266 0.102-6.4 0-3.1864-1.515-5.1662-4.65-5.1662zm34.833 0c-4.32 0-6.56 3.0842-6.56 7.0432 0 4.189 2.63 6.914 7.05 6.939 2 0 3.77-0.541 4.7-0.926l0.15-2.365c-1.15 0.591-2.62 1.03-4.29 1.03-2.64 0-4.55-1.672-4.57-4.268h9.56v-0.385c0-4.137-2.03-7.0682-6.04-7.0682zm71.69 0c-4.09 0-6.99 2.9052-6.99 7.2732 0 3.393 1.88 6.709 6.66 6.709 4.57 0 6.88-3.11 6.88-6.914 0-3.29-1.62-7.0682-6.55-7.0682zm42.83 0c-4.32 0-6.56 3.0842-6.56 7.0432 0 4.189 2.62 6.914 7.04 6.939 2.01 0 3.78-0.541 4.71-0.926l0.15-2.365c-1.15 0.591-2.62 1.03-4.29 1.03-2.65 0-4.55-1.672-4.58-4.268h9.57v-0.385c0-4.137-2.04-7.0682-6.04-7.0682zm-90.98 0.002c-2.93 0-5.67 1.0779-5.67 4.2132 0 2.545 2.23 3.316 4.29 3.701l2.13 0.385c1.08 0.206 1.93 0.567 1.93 1.697 0 1.362-1.34 1.875-2.7 1.875-1.44 0-2.34-0.384-2.85-0.539l-0.05-1.774h-2.57l0.05 3.625c0.84 0.309 2.59 0.797 4.85 0.797 2.96 0 5.99-0.926 5.99-4.447 0-2.724-1.72-3.367-3.24-3.676l-3.26-0.64c-0.82-0.18-1.7-0.463-1.7-1.491 0-1.311 1.37-1.6188 2.7-1.6188 1.16 0 1.77 0.2043 2.19 0.4358l0.05 1.593h2.57l-0.06-3.2651c-0.79-0.2563-2.46-0.8711-4.65-0.8711zm120.31 0c-2.86 0-4.58 0.8732-5.3 1.207v3.3162h2.57v-1.955c0.44-0.18 1.42-0.4608 2.42-0.4608 2.36 0 2.95 1.1558 2.95 2.8008v1.002l-2.75 0.154c-2.18 0.103-5.75 0.565-5.75 4.086 0 1.696 1.05 3.83 4.26 3.83 2.8 0 3.88-1.567 4.45-3.084h0.05c-0.15 0.9-0.23 1.926-0.23 2.774h4.24v-2.108h-1.8c0.03-2.158 0.1-4.29 0.1-6.449 0-3.1612-1.26-5.1132-5.21-5.1132zm14.18 0c-2.92 0-5.67 1.0779-5.67 4.2132 0 2.545 2.23 3.316 4.29 3.701l2.13 0.385c1.08 0.206 1.93 0.567 1.93 1.697 0 1.362-1.34 1.875-2.7 1.875-1.44 0-2.34-0.384-2.85-0.539l-0.05-1.774h-2.57l0.04 3.625c0.85 0.309 2.6 0.797 4.86 0.797 2.96 0 5.99-0.926 5.99-4.447 0-2.724-1.72-3.367-3.24-3.676l-3.26-0.64c-0.82-0.18-1.7-0.463-1.7-1.491 0-1.311 1.36-1.6188 2.7-1.6188 1.16 0 1.77 0.2043 2.19 0.4358l0.05 1.593h2.57l-0.05-3.2651c-0.8-0.2563-2.47-0.8711-4.66-0.8711zm-142.4 0.0488c-1.93 0-3.4 1.493-3.91 4.0114l-0.05-0.052c0.15-1.337 0.15-2.6991 0.15-3.7016h-4.75v2.1076h2.03l-0.05 9.15h-1.62v2.108h6.45v-2.108h-1.95l0.05-4.164c0.02-2.364 1.1-4.779 3.65-4.779 0.59 0 0.95 0.076 1.31 0.205l0.3-2.543c-0.25-0.1038-0.92-0.2344-1.61-0.2344zm-43.237 0.2578v2.1076h2.027l-0.05 9.148h-1.748v2.11h6.425v-2.11h-1.798l0.05-11.256-4.906 0.0004zm6.272 0v2.1096h1.336l4.599 11.256h3.03l4.55-11.256h1.39v-2.1096h-5.96v2.1096h1.69l-2.592 7.22c-0.18 0.515-0.258 1.081-0.385 1.62h-0.051c-0.155-0.539-0.257-1.08-0.437-1.62l-2.649-7.22h1.44v-2.1096h-5.961zm51.665 0v2.1076h2.03l-0.05 9.148h-1.75v2.11h6.43v-2.11h-1.8l0.05-11.256-4.91 0.0004zm91.49 0v2.1076h1.54l3.93 4.523-4.24 4.627h-1.46v2.108h5.81v-2.108h-1.86v-0.053c0.21-0.102 0.36-0.23 0.52-0.41l2.54-2.775 2.39 2.775c0.16 0.18 0.31 0.309 0.49 0.463h-1.67v2.108h6.42v-2.108h-1.49l-4.26-4.935 3.98-4.215h1.42v-2.1076h-5.66v2.1076h1.75v0.053c-0.21 0.102-0.36 0.23-0.51 0.41l-2.22 2.492-2.13-2.492c-0.15-0.154-0.31-0.309-0.49-0.463h1.62v-2.1076h-6.42zm-195.78 1.7988c2.441 0 3.16 2.0308 3.16 3.1348v0.258h-6.528c0.104-1.619 0.926-3.3928 3.368-3.3928zm73.796 0c2.45 0 3.16 2.0308 3.16 3.1348v0.258h-6.52c0.1-1.619 0.92-3.3928 3.36-3.3928zm114.52 0c2.44 0 3.16 2.0308 3.16 3.1348v0.258h-6.53c0.11-1.619 0.93-3.3928 3.37-3.3928zm-42.72 0.3088c2 0 3.57 1.337 3.57 4.344 0 2.622-1.16 4.806-3.78 4.806-2.59 0-3.7-2.159-3.7-4.394 0-2.365 1.06-4.756 3.91-4.756zm74.8 5.371v0.541c0 1.696-1.21 3.393-3.44 3.393-1.36 0-2.13-0.799-2.13-1.801 0-1.978 2.59-2.107 5.57-2.133z" transform="matrix(.8 0 0 -.8 453.12 332.23)" fill="#f05023"/><path d="m30.914 25.008c-1.842 0-3.299 1.455-3.299 3.297 0 1.841 1.457 3.297 3.299 3.297 1.841 0 3.297-1.456 3.297-3.297 0-1.842-1.456-3.297-3.297-3.297zm141.17 0.513v3.512h4.07l-0.09 7.155c-1.32-0.302-2.82-0.514-4.41-0.514-7.58 0-11.95 5.352-11.95 12.719 0 6.64 3.94 10.58 9.3 10.58 3.81 0 6.25-2.056 7.41-5.055h0.08c-0.21 1.285-0.43 2.956-0.43 4.541h7.54v-3.512h-2.99l0.17-29.426h-8.7zm84.67 0v3.512h3.9l-0.18 25.914h-2.43v-0.002h-3c0.04-3.596 0.17-7.152 0.17-10.75 0-5.267-2.1-8.521-8.69-8.521-4.76 0-7.63 1.454-8.83 2.012v5.523h4.28v-3.254c0.73-0.299 2.36-0.771 4.03-0.771 3.94 0 4.93 1.926 4.93 4.668v1.671l-4.58 0.258c-3.65 0.17-9.6 0.942-9.6 6.811 0 2.827 1.76 6.381 7.11 6.381 4.67 0 6.47-2.613 7.41-5.139h0.09c-0.26 1.499-0.39 3.211-0.39 4.625h7.07 10.23v-3.512h-3l0.18-29.426h-8.7zm11.78 0v3.512h3.9l-0.18 25.914h-2.69v3.512h10.49v-3.512h-3l0.17-29.426h-8.69zm-187.64 2.444c-9.98 0-16.233 6.466-16.233 15.805 0 8.522 5.095 15.203 16.018 15.203 3.212 0 7.153-0.686 9.166-1.414l0.086-9.551h3.084v-3.512h-11.051v3.512h3.428l-0.086 6.597c-1.672 0.428-3.642 0.598-5.098 0.598-6.124 0-10.236-4.797-10.236-11.607 0-7.494 3.726-11.866 10.879-11.866 2.27 0 3.984 0.431 5.097 0.731v4.797h4.282v-7.668c-2.013-0.814-5.824-1.625-9.336-1.625zm-79.788 0.006v3.509h3.125l-0.17 22.959h-2.955v3.512h11.264l-0.001-3.512h-3.4686l0.084-9.25h2.5706c1.357 0 2.009 0.45 3.158 2.383l-0.014 0.002c1.681 3.216 3.618 5.969 5.772 8.287 0.313 0.402 0.615 0.714 0.92 0.948 3.561 3.532 7.673 5.942 12.203 7.289 2.46 0.731 5.018 0.888 7.668 0.888 8.873 0 14.342-2.726 20.486-7.035l-1.004-1.941c-8.226 6.26-18.9 6.319-25.875 4.244-6.242-1.855-10.297-5.168-14.644-12.955l-0.061-0.141c-0.051-0.086-0.105-0.164-0.156-0.248-0.116-0.211-0.232-0.413-0.348-0.631l-0.051 0.012c-0.885-1.299-1.881-2.282-3.257-2.389v-0.086c3.812-0.385 7.154-2.74 7.154-7.921 0-4.368-2.914-7.924-9.08-7.924h-13.32zm207.28 0.504v3.513h2.62l10.41 26.471h5.31l10.28-26.471h2.7v-3.513h-10.97v3.513h3.47l-7.02 19.83c-0.3 0.817-0.48 1.759-0.69 2.614h-0.09c-0.21-0.855-0.38-1.797-0.68-2.614l-7.15-19.83h3.04v-3.513h-11.23zm-199.32 3.005h3.9827c3.468 0 5.396 1.802 5.396 4.928 0 3.211-2.354 5.01-5.738 5.01h-3.7266l0.0859-9.938zm39.618 4.192c-6.81 0-11.651 4.841-11.651 12.121 0 5.655 3.128 11.18 11.094 11.18 7.625 0 11.48-5.183 11.48-11.522 0-5.482-2.7-11.779-10.923-11.779zm99.582 0c-4.46 0-6.94 2.569-7.84 5.439h-0.09c0.3-1.883 0.43-3.426 0.43-4.923h-7.92v3.509h3.12l-0.08 15.25h-2.53v3.512h10.32v-3.512h-2.99l0.17-8.482c0.08-4.155 2.57-6.768 5.86-6.768 3.05 0 4.5 2.315 4.5 5.442 0 3.256-0.13 6.553-0.17 9.808h-2.53v3.512h10.24v-3.512h-2.91c0.04-3.555 0.17-7.109 0.17-10.664 0-5.312-2.53-8.611-7.75-8.611zm46.6 0c-7.2 0-10.93 5.141-10.93 11.736 0 6.983 4.37 11.523 11.74 11.565 3.34 0 6.3-0.9 7.84-1.543l0.26-3.94c-1.93 0.986-4.37 1.713-7.16 1.713-4.41 0-7.58-2.783-7.62-7.109h15.93v-0.643c0-6.896-3.38-11.779-10.06-11.779zm96.01 0c-7.19 0-10.92 5.141-10.92 11.736 0 6.983 4.37 11.523 11.74 11.565 3.34 0 6.29-0.9 7.84-1.543l0.25-3.94c-1.92 0.986-4.37 1.713-7.15 1.713-4.41 0-7.58-2.783-7.62-7.109h15.93v-0.643c0-6.896-3.38-11.779-10.07-11.779zm-171.01 0.002c-4.75 0-7.62 1.454-8.82 2.012v5.523h4.28v-3.254c0.73-0.299 2.35-0.771 4.03-0.771 3.94 0 4.92 1.926 4.92 4.668v1.671l-4.58 0.258c-3.64 0.17-9.6 0.942-9.6 6.811 0 2.827 1.76 6.381 7.11 6.381 4.67 0 6.47-2.613 7.41-5.139h0.09c-0.26 1.499-0.39 3.211-0.39 4.625h7.07v-3.514h-3c0.05-3.596 0.17-7.152 0.17-10.75 0-5.267-2.09-8.521-8.69-8.521zm-12.21 0.084c-3.21 0-5.65 2.484-6.51 6.681l-0.08-0.084c0.25-2.227 0.25-4.499 0.25-6.167h-7.922v3.509h3.383l-0.086 15.25h-2.697v3.512h10.752v-3.512h-3.26l0.09-6.939c0.04-3.94 1.84-7.967 6.08-7.967 0.99 0 1.59 0.13 2.19 0.344l0.51-4.242c-0.43-0.17-1.54-0.385-2.7-0.385zm-82.529 0.43v3.509h3.385l-0.088 15.235c1.871 1.592 3.847 2.716 6.072 3.527h1.723v-3.512h-2.996l0.084-18.759h-8.18zm275.27 0v3.509h2.39l8.23 19.961-0.17 0.471c-1.84 4.926-3.9 5.828-6.04 5.828-0.99 0-2.44-0.173-3.13-0.473v3.77c0.69 0.257 1.84 0.469 3.04 0.469 2.87 0 5.65-0.943 7.67-3.555 1.28-1.671 2.78-5.822 3.51-7.836l6.77-18.635h2.22v-3.509h-9.42v3.509h2.92l-3.95 11.438c-0.38 1.115-0.77 2.357-0.98 3.342h-0.09c-0.3-0.985-0.55-2.227-0.98-3.342l-4.28-11.438h2.48v-3.509h-10.19zm-105.79 2.996c4.07 0 5.27 3.384 5.27 5.228v0.428h-10.88c0.17-2.699 1.54-5.656 5.61-5.656zm96.02 0c4.07 0 5.27 3.384 5.27 5.228v0.428h-10.88c0.17-2.699 1.54-5.656 5.61-5.656zm-118.98 0.257c1.76 0 3.26 0.344 4.24 0.944v6.209c0 5.182-1.88 8.353-5.74 8.353-3.59 0-5.39-3.128-5.39-7.283 0-4.367 2.48-8.223 6.89-8.223zm-123.05 0.256c3.341 0 5.955 2.228 5.955 7.241 0 4.367-1.928 8.009-6.297 8.009-4.326 0-6.168-3.596-6.168-7.324 0-3.94 1.756-7.926 6.51-7.926zm75.598 8.953v0.901c0 2.829-2.02 5.652-5.74 5.652-2.27 0-3.56-1.327-3.56-2.998 0-3.297 4.33-3.513 9.3-3.555zm126.64 0v0.901c0 2.829-2.01 5.652-5.74 5.652-2.27 0-3.55-1.327-3.55-2.998 0-3.297 4.32-3.513 9.29-3.555z" transform="matrix(.8 0 0 -.8 453.12 332.23)" fill="#646469"/></g></g></svg>
