<?xml version="1.0" encoding="UTF-8" standalone="no"?>
<!-- Created with Inkscape (http://www.inkscape.org/) -->
<svg
   xmlns:svg="http://www.w3.org/2000/svg"
   xmlns="http://www.w3.org/2000/svg"
   version="1.0"
   width="1133.8583"
   height="253.34645"
   id="svg2591">
  <defs
     id="defs2593" />
  <g
     transform="translate(83.787817,13.68034)"
     id="layer1">
    <g
       transform="translate(70.866106,956.51697)"
       id="g5465">
      <path
         d="M 320.4375,-295.375 C 322.54839,-291.69699 324.53889,-287.71983 326.375,-283.46875 L 336.9375,-288.125 L 320.4375,-295.375 z M 327.4375,-281 C 328.91686,-277.37462 330.2936,-273.53287 331.5625,-269.5625 L 361.09375,-274.90625 L 327.4375,-281 z M 332.375,-266.9375 C 333.49185,-263.23028 334.51946,-259.4216 335.4375,-255.46875 L 382.28125,-261.03125 L 332.375,-266.9375 z M 336.03125,-252.78125 C 336.87324,-248.92198 337.61259,-244.9389 338.25,-240.875 L 407.8125,-246.75 L 336.03125,-252.78125 z M 338.625,-238.375 C 339.20972,-234.36368 339.68826,-230.26295 340.0625,-226.09375 L 434.34375,-232.1875 L 338.625,-238.375 z M 340.1875,-224.65625 C 340.5325,-220.55721 340.76596,-216.38396 340.90625,-212.15625 L 453.46875,-218.40625 L 340.1875,-224.65625 z M 340.96875,-210.46875 C 341.02139,-208.39294 341.03125,-206.32382 341.03125,-204.21875 C 341.03125,-202.03183 341.02139,-199.84521 340.96875,-197.6875 L 475.75,-204.09375 L 340.96875,-210.46875 z M 340.90625,-196 C 340.76594,-191.77229 340.50711,-187.599 340.15625,-183.5 L 453.46875,-189.78125 L 340.90625,-196 z M 340.0625,-182.0625 C 339.68242,-177.88743 339.18435,-173.79258 338.59375,-169.78125 L 434.34375,-175.96875 L 340.0625,-182.0625 z M 338.21875,-167.3125 C 337.57557,-163.24272 336.81663,-159.2401 335.96875,-155.375 L 407.8125,-161.4375 L 338.21875,-167.3125 z M 335.375,-152.71875 C 334.45111,-148.76007 333.43521,-144.92602 332.3125,-141.21875 L 382.28125,-147.15625 L 335.375,-152.71875 z M 331.5,-138.625 C 330.22528,-134.63706 328.80359,-130.79332 327.3125,-127.15625 L 361.09375,-133.25 L 331.5,-138.625 z M 326.28125,-124.75 C 324.41594,-120.44632 322.40185,-116.43184 320.25,-112.71875 L 336.9375,-120.0625 L 326.28125,-124.75 z "
         transform="translate(42.666783,-639.47721)"
         style="fill:#57585b;fill-rule:nonzero;stroke:none"
         id="path5132" />
      <path
         d="M 586.1972,-869.20506 L 555.3054,-814.57873 L 555.13,-814.57873 L 547.8617,-869.20506 L 539.0029,-869.20506 L 547.9903,-805.28137 L 557.7321,-805.28137 L 595.0502,-869.20506 L 586.1972,-869.20506"
         style="fill:#221f1f;fill-rule:nonzero;stroke:none"
         id="path5184" />
      <path
         d="M 625.2227,-860.43982 L 630.1637,-829.54221 L 606.3473,-829.54221 L 625.2227,-860.43982 z M 591.2026,-805.28137 L 601.6986,-821.92889 L 631.3566,-821.92889 L 634.6779,-805.28137 L 644.3262,-805.28137 L 632.2454,-869.20506 L 622.7727,-869.20506 L 582.0865,-805.28137 L 591.2026,-805.28137"
         style="fill:#221f1f;fill-rule:evenodd;stroke:none"
         id="path5188" />
      <path
         d="M 713.5651,-852.73879 C 715.0504,-864.15879 707.1389,-870.18159 694.9061,-870.53241 C 673.6158,-871.15226 662.7805,-852.91423 659.4066,-837.24319 C 655.559,-819.35603 659.7633,-803.95401 678.6211,-803.95401 C 691.1053,-803.95401 703.4316,-811.0352 706.6301,-821.74764 L 697.3328,-821.74764 C 694.8009,-814.92955 687.8775,-811.56728 681.0595,-811.56728 C 667.1544,-811.56728 665.8621,-824.05148 668.7039,-837.24319 C 671.1248,-848.48775 677.1534,-862.91915 692.9122,-862.91915 C 699.4671,-862.91915 705.1449,-858.84931 704.2678,-852.73879 L 713.5651,-852.73879"
         style="fill:#221f1f;fill-rule:nonzero;stroke:none"
         id="path5192" />
      <path
         d="M 786.4354,-869.20506 L 777.5824,-869.20506 L 768.8055,-828.47795 C 766.18,-817.50242 758.3503,-811.56728 748.2519,-811.56728 C 738.1593,-811.56728 732.8849,-817.50242 734.9841,-828.47795 L 743.7552,-869.20506 L 734.9023,-869.20506 L 726.5932,-830.60641 C 722.7748,-814.13432 729.2596,-803.95401 746.6146,-803.95401 C 763.9697,-803.95401 774.84,-814.13432 778.1204,-830.60641 L 786.4354,-869.20506"
         style="fill:#221f1f;fill-rule:nonzero;stroke:none"
         id="path5196" />
      <path
         d="M 856.3936,-869.20506 L 847.5407,-869.20506 L 838.7696,-828.47795 C 836.1383,-817.50242 828.3086,-811.56728 818.216,-811.56728 C 808.1234,-811.56728 802.8432,-817.50242 804.9424,-828.47795 L 813.7194,-869.20506 L 804.8664,-869.20506 L 796.5514,-830.60641 C 792.733,-814.13432 799.2178,-803.95401 816.5729,-803.95401 C 833.9279,-803.95401 844.7982,-814.13432 848.0786,-830.60641 L 856.3936,-869.20506"
         style="fill:#221f1f;fill-rule:nonzero;stroke:none"
         id="path5200" />
      <path
         d="M 921.1477,-805.28137 L 930.0006,-805.28137 L 943.7713,-869.20506 L 928.9832,-869.20506 L 899.5766,-816.52588 L 899.3954,-816.52588 L 892.3317,-869.20506 L 876.4794,-869.20506 L 862.7146,-805.28137 L 871.5676,-805.28137 L 883.9641,-862.83143 L 884.1395,-862.83143 L 892.1972,-805.28137 L 900.5181,-805.28137 L 933.3687,-862.83143 L 933.5442,-862.83143 L 921.1477,-805.28137"
         style="fill:#221f1f;fill-rule:nonzero;stroke:none"
         id="path5204" />
      <path
         d="M -105.14034,-860.41062 C -97.32821,-860.04805 -87.15372,-862.77292 -87.15372,-851.14246 C -87.15372,-839.51787 -97.32821,-842.24274 -105.14034,-841.88018 L -105.14034,-860.41062 z M -105.14034,-805.72573 L -105.14034,-830.98066 L -94.87814,-830.98066 C -80.25379,-831.4309 -72.16686,-839.24303 -72.16686,-851.14246 C -72.16686,-867.7666 -84.42886,-871.21659 -98.96549,-871.31013 L -119.22087,-871.31013 L -119.22087,-805.72573 L -105.14034,-805.72573"
         style="fill:#d21044;fill-rule:evenodd;stroke:none"
         id="path5208" />
      <path
         d="M -42.35683,-805.72573 L -42.35683,-833.70553 L -16.01431,-833.70553 L -16.01431,-844.60509 L -42.35683,-844.60509 L -42.35683,-860.41062 L -14.10224,-860.41062 L -14.10224,-871.31013 L -56.43154,-871.31013 L -56.43154,-805.72573 L -42.35683,-805.72573"
         style="fill:#d21044;fill-rule:nonzero;stroke:none"
         id="path5212" />
      <path
         d="M 4.76733,-805.72573 L 49.72791,-805.72573 L 49.72791,-816.62529 L 18.84786,-816.62529 L 18.84786,-834.16163 L 46.82179,-834.16163 L 46.82179,-845.05532 L 18.84786,-845.05532 L 18.84786,-860.41062 L 48.73386,-860.41062 L 48.73386,-871.31013 L 4.76733,-871.31013 L 4.76733,-805.72573"
         style="fill:#d21044;fill-rule:nonzero;stroke:none"
         id="path5216" />
      <path
         d="M 71.61475,-805.72573 L 85.64846,-805.72573 L 85.64846,-871.33351 L 71.61475,-871.33351 L 71.61475,-805.72573 z "
         style="fill:#d21044;fill-rule:nonzero;stroke:none"
         id="path5218" />
      <path
         d="M 122.51047,-805.72573 L 122.51047,-833.70553 L 148.85882,-833.70553 L 148.85882,-844.60509 L 122.51047,-844.60509 L 122.51047,-860.41062 L 150.75924,-860.41062 L 150.75924,-871.31013 L 108.42994,-871.31013 L 108.42994,-805.72573 L 122.51047,-805.72573"
         style="fill:#d21044;fill-rule:nonzero;stroke:none"
         id="path5222" />
      <path
         d="M 183.39937,-805.72573 L 183.39937,-833.70553 L 209.74189,-833.70553 L 209.74189,-844.60509 L 183.39937,-844.60509 L 183.39937,-860.41062 L 211.64815,-860.41062 L 211.64815,-871.31013 L 169.31884,-871.31013 L 169.31884,-805.72573 L 183.39937,-805.72573"
         style="fill:#d21044;fill-rule:nonzero;stroke:none"
         id="path5226" />
      <path
         d="M 229.64646,-805.72573 L 274.60704,-805.72573 L 274.60704,-816.62529 L 243.72112,-816.62529 L 243.72112,-834.16163 L 271.70092,-834.16163 L 271.70092,-845.05532 L 243.72112,-845.05532 L 243.72112,-860.41062 L 273.61299,-860.41062 L 273.61299,-871.31013 L 229.64646,-871.31013 L 229.64646,-805.72573"
         style="fill:#d21044;fill-rule:nonzero;stroke:none"
         id="path5230" />
      <path
         d="M 308.95464,-832.16184 L 323.85384,-832.16184 C 328.48495,-831.97471 329.39129,-826.98103 329.75967,-823.34979 C 330.39121,-817.44395 331.02856,-811.53807 332.20974,-805.72573 L 347.74042,-805.72573 C 345.10909,-809.36285 344.56527,-817.08139 343.92792,-821.26228 C 342.74674,-830.34331 342.74674,-836.97422 331.94077,-838.15539 L 331.94077,-838.3367 C 340.02187,-840.06164 345.55932,-845.69268 345.55932,-854.23576 C 345.55932,-867.58534 334.02827,-871.21659 322.76038,-871.31013 L 294.87412,-871.31013 L 294.87412,-805.72573 L 308.95464,-805.72573 L 308.95464,-832.16184 z M 308.95464,-860.41062 L 320.76641,-860.41062 C 326.94126,-860.31703 330.57246,-857.86696 330.57246,-852.05466 C 330.57246,-846.24237 326.94126,-843.14907 320.76641,-843.06135 L 308.95464,-843.06135 L 308.95464,-860.41062"
         style="fill:#d21044;fill-rule:evenodd;stroke:none"
         id="path5234" />
    </g>
  </g>
</svg>
