<?xml version="1.0" encoding="UTF-8" standalone="no"?>
<!-- Created with Inkscape (http://www.inkscape.org/) -->

<svg
   xmlns:dc="http://purl.org/dc/elements/1.1/"
   xmlns:cc="http://creativecommons.org/ns#"
   xmlns:rdf="http://www.w3.org/1999/02/22-rdf-syntax-ns#"
   xmlns:svg="http://www.w3.org/2000/svg"
   xmlns="http://www.w3.org/2000/svg"
   version="1.1"
   width="1024"
   height="555"
   id="svg3513">
  <defs
     id="defs3515">
    <clipPath
       id="clipPath3213">
      <path
         d="m 0,0 420.945,0 0,595.276 L 0,595.276 0,0 z"
         id="path3215" />
    </clipPath>
    <clipPath
       id="clipPath3213-0">
      <path
         d="m 0,0 420.945,0 0,595.276 L 0,595.276 0,0 z"
         id="path3215-7" />
    </clipPath>
  </defs>
  <metadata
     id="metadata3518">
    <rdf:RDF>
      <cc:Work
         rdf:about="">
        <dc:format>image/svg+xml</dc:format>
        <dc:type
           rdf:resource="http://purl.org/dc/dcmitype/StillImage" />
        <dc:title></dc:title>
      </cc:Work>
    </rdf:RDF>
  </metadata>
  <g
     transform="translate(0,-213)"
     id="layer1">
    <g
       transform="matrix(15.962635,0,0,-15.962635,-5267.6022,1079.79)"
       id="g3617">
      <g
         id="g3434">
        <g
           transform="translate(362.9282,52.4652)"
           id="g3189">
          <path
             d="m 0,0 c 1.074,-1.809 0.512,-4.396 -0.757,-5.972 -0.988,-1.301 -2.478,-2.137 -4.052,-1.718 -1.245,0.353 -2.087,1.642 -2.185,2.897 -0.207,2.339 0.842,4.643 2.942,5.784 0.94,0.532 2.392,0.574 3.246,-0.104 C -0.488,0.661 -0.195,0.338 0,0"
             id="path3191"
             style="fill:#46505b;fill-opacity:1;fill-rule:nonzero;stroke:none" />
        </g>
        <g
           transform="translate(350.5517,48.16)"
           id="g3193">
          <path
             d="M 0,0 C 0.879,-1.056 0.622,-2.807 0.037,-3.942 -0.525,-5.064 -1.66,-6.1 -2.978,-5.993 c -0.537,0.087 -1.038,0.43 -1.318,0.913 -0.782,1.705 -0.086,3.635 1.196,4.931 0.586,0.525 1.306,0.881 2.148,0.74 C -0.586,0.488 -0.256,0.3 0,0"
             id="path3195"
             style="fill:#46505b;fill-opacity:1;fill-rule:nonzero;stroke:none" />
        </g>
        <g
           transform="translate(334.1107,45.8587)"
           id="g3197">
          <path
             d="m 0,0 c 0.305,-0.397 0.415,-0.943 0.317,-1.495 -0.195,-0.883 -0.842,-1.762 -1.721,-2.085 -0.61,-0.245 -1.428,-0.274 -1.928,0.192 -0.427,0.333 -0.574,0.843 -0.537,1.405 0.085,1.076 0.915,2.045 1.916,2.431 C -1.269,0.67 -0.451,0.589 0,0"
             id="path3199"
             style="fill:#46505b;fill-opacity:1;fill-rule:nonzero;stroke:none" />
        </g>
        <g
           transform="translate(345.4252,45.0662)"
           id="g3201">
          <path
             d="m 0,0 c 0.122,-0.168 -0.037,-0.381 -0.024,-0.551 l -1.172,-4.833 -0.122,-0.062 -4.04,0 -0.073,0.122 1.233,5.139 c 0.024,0.086 0.061,0.171 0.17,0.185 1.38,-0.008 2.704,0.02 4.028,0"
             id="path3203"
             style="fill:#46505b;fill-opacity:1;fill-rule:nonzero;stroke:none" />
        </g>
        <g
           transform="translate(360.6641,43.7219)"
           id="g3205">
          <path
             d="m 0,0 -2.997,-12.762 -4.235,-0.012 -0.11,0.12 2.96,12.641 L 0,0 z"
             id="path3207"
             style="fill:#2a3692;fill-opacity:1;fill-rule:nonzero;stroke:none" />
        </g>
        <g
           id="g3209">
          <g
             clip-path="url(#clipPath3213-0)"
             id="g3211">
            <g
               transform="translate(368.9332,38.7469)"
               id="g3217">
              <path
                 d="m 0,0 0.061,-0.023 0.085,0.221 1.123,4.686 0.122,0.062 3.43,0 L 4.87,4.86 1.947,-7.819 l -3.339,0 c -0.06,0.011 -0.109,0.074 -0.097,0.148 0.635,2.905 -0.33,5.803 -2.844,7.35 -0.159,0.07 -0.147,-0.137 -0.207,-0.224 l -1.732,-7.266 -3.683,0 2.912,12.683 c 0.147,0.101 0.391,0.07 0.562,0.036 C -3.698,4.599 -0.952,2.727 0,0"
                 id="path3219"
                 style="fill:#2a3692;fill-opacity:1;fill-rule:nonzero;stroke:none" />
            </g>
            <g
               transform="translate(382.6766,42.7384)"
               id="g3221">
              <path
                 d="m 0,0 0.122,-0.144 c -0.147,-0.894 -0.403,-1.741 -0.61,-2.6 -0.037,-0.086 -0.122,-0.039 -0.171,-0.003 -0.647,0.597 -1.452,1.264 -2.368,0.842 -0.293,-0.189 -0.464,-0.498 -0.439,-0.851 0.134,-0.718 0.805,-1.192 1.245,-1.757 1.184,-1.111 1.965,-2.73 1.391,-4.426 -0.464,-1.718 -2.282,-2.781 -3.906,-3.143 -2.075,-0.373 -4.162,0.012 -5.688,1.299 l -0.097,0.12 c 0.256,1.287 0.561,2.538 0.866,3.79 0.037,0.061 0.11,0.063 0.147,0.014 0.683,-1.023 1.745,-2.026 3.064,-1.939 0.707,0.04 1.403,0.493 1.635,1.157 0.342,1.496 -1.135,2.234 -1.855,3.331 -0.659,0.84 -0.952,2.079 -0.537,3.15 0.476,1.389 1.904,2.223 3.295,2.386 C -2.405,1.318 -1.147,0.77 0,0"
                 id="path3223"
                 style="fill:#2a3692;fill-opacity:1;fill-rule:nonzero;stroke:none" />
            </g>
            <g
               transform="translate(339.2004,42.4841)"
               id="g3225">
              <path
                 d="m 0,0 c -0.354,-1.557 -0.671,-3.126 -1.074,-4.672 -0.037,-0.135 -0.171,-0.114 -0.269,-0.14 l -3.503,-0.01 c -0.195,-0.029 -0.146,0.204 -0.109,0.302 l 1.074,4.514 0.134,0.076 3.674,0.014 L 0,0 z"
                 id="path3227"
                 style="fill:#46505b;fill-opacity:1;fill-rule:nonzero;stroke:none" />
            </g>
            <g
               transform="translate(352.3582,41.5798)"
               id="g3229">
              <path
                 d="m 0,0 c -0.415,-2.022 -0.903,-4.081 -1.392,-6.081 l -0.122,-0.075 -4.784,-0.001 c -0.11,0.035 -0.354,-0.044 -0.305,0.177 l 0.219,1.03 1.135,4.893 C -5.175,0.067 -5.041,-0.039 -4.931,0 L -0.073,0.012 0,0 z"
                 id="path3231"
                 style="fill:#46505b;fill-opacity:1;fill-rule:nonzero;stroke:none" />
            </g>
            <g
               transform="translate(392.1114,41.6986)"
               id="g3233">
              <path
                 d="m 0,0 c 1.514,-1.422 2.197,-3.617 1.55,-5.717 l -1.227,-5.068 -3.438,0.019 0.509,2.397 -3.262,-0.01 -0.592,-2.379 -3.735,0 2.945,12.648 0.11,0.1 C -4.406,2.192 -1.904,1.706 0,0 m -3.711,-1.541 c -0.17,0.046 -0.402,0.151 -0.549,0.038 l -0.851,-3.714 c 0,0 2.133,0.017 3.122,0 l 0.073,0.027 c 0.183,0.59 0.207,1.335 0.024,1.929 -0.268,0.788 -1.013,1.505 -1.819,1.72"
                 id="path3235"
                 style="fill:#2a3692;fill-opacity:1;fill-rule:nonzero;stroke:none" />
            </g>
            <g
               transform="translate(344.1681,37.0199)"
               id="g3237">
              <path
                 d="m 0,0 c 0.854,-0.947 0.647,-2.562 0.122,-3.622 -0.647,-1.466 -2.124,-2.79 -3.625,-3.26 -0.879,-0.226 -1.916,-0.198 -2.563,0.472 -0.916,0.836 -0.72,2.402 -0.33,3.448 0.72,1.796 2.515,3.591 4.565,3.681 C -1.111,0.734 -0.452,0.54 0,0"
                 id="path3239"
                 style="fill:#46505b;fill-opacity:1;fill-rule:nonzero;stroke:none" />
            </g>
            <g
               transform="translate(353.1757,34.531)"
               id="g3241">
              <path
                 d="m 0,0 c -0.5,-2.219 -0.988,-4.438 -1.501,-6.646 l -0.11,-0.107 -4.272,0 c -0.061,0.011 -0.11,0.052 -0.11,0.101 l 1.465,6.621 c 0.037,0.074 0.122,0.101 0.195,0.115 l 4.296,0 L 0,0 z"
                 id="path3243"
                 style="fill:#46505b;fill-opacity:1;fill-rule:nonzero;stroke:none" />
            </g>
            <g
               transform="translate(343.9119,28.6419)"
               id="g3245">
              <path
                 d="m 0,0 c 0.525,-0.746 0.488,-1.992 0.085,-2.806 -0.573,-1.207 -1.794,-2.294 -3.149,-2.395 -0.952,-0.093 -1.831,0.365 -2.258,1.186 -0.537,1.1 -0.134,2.451 0.562,3.38 0.818,1.03 2.001,1.665 3.332,1.521 C -0.879,0.775 -0.366,0.481 0,0"
                 id="path3247"
                 style="fill:#46505b;fill-opacity:1;fill-rule:nonzero;stroke:none" />
            </g>
            <g
               transform="translate(338.5048,23.7465)"
               id="g3249">
              <path
                 d="m 0,0 c 0.464,-0.515 0.476,-1.321 0.22,-1.948 -0.464,-1.133 -1.599,-2.01 -2.856,-2.011 -0.574,0 -1.087,0.233 -1.429,0.715 -0.402,0.626 -0.256,1.557 0.11,2.163 0.611,1.049 1.758,1.793 3.015,1.599 C -0.598,0.427 -0.269,0.3 0,0"
                 id="path3251"
                 style="fill:#46505b;fill-opacity:1;fill-rule:nonzero;stroke:none" />
            </g>
          </g>
        </g>
        <g
           transform="translate(371.1602,24.687)"
           id="g3253">
          <path
             d="m 0,0 1.686,0 -0.133,-0.625 -2.42,0 0.728,3.419 0.734,0 L 0,0 z"
             id="path3255"
             style="fill:#46505b;fill-opacity:1;fill-rule:nonzero;stroke:none" />
        </g>
      </g>
      <g
         transform="translate(377.4206,25.3583)"
         id="g3265">
        <path
           d="m 0,0 -0.271,-1.297 -0.739,0 0.282,1.328 -0.83,2.091 0.774,0 0.349,-1.004 0.015,-0.051 c 0.046,-0.149 0.015,-0.052 0.092,-0.287 0.036,-0.108 0.031,-0.088 0.051,-0.155 0.041,0.072 0.041,0.072 0.144,0.221 0.087,0.133 0.143,0.216 0.164,0.241 l 0.759,1.035 0.892,0 L 0,0 z"
           id="path3267"
           style="fill:#46505b;fill-opacity:1;fill-rule:nonzero;stroke:none" />
      </g>
      <g
         transform="translate(384.9099,26.0915)"
         id="g3269">
        <path
           d="m 0,0 c 0,-0.548 -0.189,-1.102 -0.507,-1.492 -0.344,-0.42 -0.795,-0.62 -1.39,-0.62 -0.933,0 -1.491,0.569 -1.491,1.528 0,1.204 0.789,2.056 1.902,2.056 C -0.569,1.472 0,0.907 0,0 m -2.655,-0.605 c 0,-0.563 0.297,-0.902 0.795,-0.902 0.625,0 1.102,0.646 1.102,1.492 0,0.548 -0.293,0.876 -0.785,0.876 -0.646,0 -1.112,-0.615 -1.112,-1.466"
           id="path3271"
           style="fill:#46505b;fill-opacity:1;fill-rule:nonzero;stroke:none" />
      </g>
      <g
         transform="translate(390.7748,24.0615)"
         id="g3273">
        <path
           d="m 0,0 -0.743,0 -0.718,1.815 c -0.057,0.143 -0.046,0.107 -0.19,0.549 -0.005,0.01 -0.02,0.051 -0.041,0.107 C -1.718,2.24 -1.769,1.943 -1.835,1.615 L -2.179,0 l -0.707,0 0.727,3.419 0.759,0 0.703,-1.804 c 0.025,-0.062 0.113,-0.303 0.169,-0.466 0.025,-0.078 0.03,-0.103 0.061,-0.2 0.031,0.245 0.113,0.727 0.164,0.973 l 0.318,1.497 0.707,0 L 0,0 z"
           id="path3275"
           style="fill:#46505b;fill-opacity:1;fill-rule:nonzero;stroke:none" />
      </g>
    </g>
  </g>
</svg>
