<?xml version="1.0" encoding="UTF-8" standalone="no"?>
<!-- Created with Inkscape (http://www.inkscape.org/) -->

<svg
   xmlns:dc="http://purl.org/dc/elements/1.1/"
   xmlns:cc="http://creativecommons.org/ns#"
   xmlns:rdf="http://www.w3.org/1999/02/22-rdf-syntax-ns#"
   xmlns:svg="http://www.w3.org/2000/svg"
   xmlns="http://www.w3.org/2000/svg"
   xmlns:sodipodi="http://sodipodi.sourceforge.net/DTD/sodipodi-0.dtd"
   xmlns:inkscape="http://www.inkscape.org/namespaces/inkscape"
   width="250"
   height="38"
   id="svg2"
   version="1.1"
   inkscape:version="0.47 r22583"
   sodipodi:docname="MU.svg">
  <defs
     id="defs4">
    <inkscape:perspective
       sodipodi:type="inkscape:persp3d"
       inkscape:vp_x="0 : 526.18109 : 1"
       inkscape:vp_y="0 : 1000 : 0"
       inkscape:vp_z="744.09448 : 526.18109 : 1"
       inkscape:persp3d-origin="372.04724 : 350.78739 : 1"
       id="perspective10" />
    <inkscape:perspective
       id="perspective2824"
       inkscape:persp3d-origin="0.5 : 0.33333333 : 1"
       inkscape:vp_z="1 : 0.5 : 1"
       inkscape:vp_y="0 : 1000 : 0"
       inkscape:vp_x="0 : 0.5 : 1"
       sodipodi:type="inkscape:persp3d" />
    <inkscape:perspective
       id="perspective2838"
       inkscape:persp3d-origin="0.5 : 0.33333333 : 1"
       inkscape:vp_z="1 : 0.5 : 1"
       inkscape:vp_y="0 : 1000 : 0"
       inkscape:vp_x="0 : 0.5 : 1"
       sodipodi:type="inkscape:persp3d" />
    <inkscape:perspective
       id="perspective2854"
       inkscape:persp3d-origin="0.5 : 0.33333333 : 1"
       inkscape:vp_z="1 : 0.5 : 1"
       inkscape:vp_y="0 : 1000 : 0"
       inkscape:vp_x="0 : 0.5 : 1"
       sodipodi:type="inkscape:persp3d" />
    <inkscape:perspective
       id="perspective2870"
       inkscape:persp3d-origin="0.5 : 0.33333333 : 1"
       inkscape:vp_z="1 : 0.5 : 1"
       inkscape:vp_y="0 : 1000 : 0"
       inkscape:vp_x="0 : 0.5 : 1"
       sodipodi:type="inkscape:persp3d" />
    <inkscape:perspective
       id="perspective2886"
       inkscape:persp3d-origin="0.5 : 0.33333333 : 1"
       inkscape:vp_z="1 : 0.5 : 1"
       inkscape:vp_y="0 : 1000 : 0"
       inkscape:vp_x="0 : 0.5 : 1"
       sodipodi:type="inkscape:persp3d" />
    <inkscape:perspective
       id="perspective2902"
       inkscape:persp3d-origin="0.5 : 0.33333333 : 1"
       inkscape:vp_z="1 : 0.5 : 1"
       inkscape:vp_y="0 : 1000 : 0"
       inkscape:vp_x="0 : 0.5 : 1"
       sodipodi:type="inkscape:persp3d" />
    <inkscape:perspective
       id="perspective2918"
       inkscape:persp3d-origin="0.5 : 0.33333333 : 1"
       inkscape:vp_z="1 : 0.5 : 1"
       inkscape:vp_y="0 : 1000 : 0"
       inkscape:vp_x="0 : 0.5 : 1"
       sodipodi:type="inkscape:persp3d" />
    <inkscape:perspective
       id="perspective2986"
       inkscape:persp3d-origin="0.5 : 0.33333333 : 1"
       inkscape:vp_z="1 : 0.5 : 1"
       inkscape:vp_y="0 : 1000 : 0"
       inkscape:vp_x="0 : 0.5 : 1"
       sodipodi:type="inkscape:persp3d" />
  </defs>
  <sodipodi:namedview
     id="base"
     pagecolor="#ffffff"
     bordercolor="#666666"
     borderopacity="1.0"
     inkscape:pageopacity="0.0"
     inkscape:pageshadow="2"
     inkscape:zoom="4.72"
     inkscape:cx="125"
     inkscape:cy="20"
     inkscape:document-units="px"
     inkscape:current-layer="layer1"
     showgrid="false"
     inkscape:window-width="1280"
     inkscape:window-height="750"
     inkscape:window-x="-8"
     inkscape:window-y="-8"
     inkscape:window-maximized="1" />
  <metadata
     id="metadata7">
    <rdf:RDF>
      <cc:Work
         rdf:about="">
        <dc:format>image/svg+xml</dc:format>
        <dc:type
           rdf:resource="http://purl.org/dc/dcmitype/StillImage" />
        <dc:title></dc:title>
      </cc:Work>
    </rdf:RDF>
  </metadata>
  <g
     inkscape:label="Layer 1"
     inkscape:groupmode="layer"
     id="layer1"
     transform="translate(0,-1014.3622)">
    <g
       id="g3006">
      <path
         sodipodi:nodetypes="csssssssccsssssssccscccccsscccccsscccccssscccccccccscccscccccccccccccccccccccccccccccccccccccccccccccccssscccsscccsccccccccscccccccccccsscccccccccccccccccccsssssccccccccccccc"
         id="path2924"
         d="m 75.251,1052.2807 c -1.224813,-0.3294 -2.048267,-1.4298 -2.133032,-2.8506 -0.09915,-1.6619 0.845577,-3.0616 2.297283,-3.4038 0.414352,-0.098 1.1337,-0.109 1.543137,-0.024 1.019916,0.2111 1.825922,0.9969 2.166275,2.112 0.0756,0.2477 0.09884,0.4993 0.09609,1.0406 -0.0031,0.6185 -0.0231,0.7733 -0.149345,1.1576 -0.341215,1.0388 -1.07666,1.7355 -2.082296,1.9726 -0.433915,0.1023 -1.350466,0.1001 -1.738116,-0 z m 1.276768,-1.2986 c 0.303836,-0.091 0.600038,-0.4019 0.753997,-0.7913 0.108484,-0.2745 0.127712,-0.4238 0.129876,-1.0086 0.003,-0.7997 -0.08034,-1.1157 -0.38926,-1.4766 -0.479257,-0.5599 -1.116318,-0.583 -1.624134,-0.059 -0.378462,0.3907 -0.504586,0.8367 -0.472634,1.6714 0.02158,0.5637 0.0402,0.6545 0.201421,0.982 0.18467,0.3751 0.370757,0.5502 0.715607,0.6735 0.253041,0.09 0.40522,0.092 0.685127,0.01 z m 19.317963,1.2985 c -0.655277,-0.1762 -1.127796,-0.5653 -1.409373,-1.1605 -0.267682,-0.5658 -0.296922,-0.8651 -0.297954,-3.0501 l -9.34e-4,-2.0183 0.851267,0 0.851266,0 0,1.9946 c 0,2.2561 0.02501,2.4465 0.363337,2.7656 0.348398,0.3285 1.018114,0.2818 1.282529,-0.089 0.242995,-0.3413 0.276348,-0.6711 0.276348,-2.7326 l 0,-1.9381 0.851267,0 0.851266,0 -0.0019,1.9085 c -0.0014,1.3786 -0.02308,2.0272 -0.07815,2.3361 -0.189898,1.0653 -0.783511,1.7323 -1.770381,1.9893 -0.400348,0.1043 -1.372418,0.1016 -1.768547,-0 l -1.7e-5,0 z m -29.058645,-3.0646 0,-3.0966 0.151031,-0.035 c 0.32507,-0.076 2.398644,-0.1027 2.795592,-0.036 0.492916,0.083 0.990524,0.3157 1.266413,0.5916 0.712334,0.7123 0.712082,2.0725 -5.49e-4,2.8077 -0.454833,0.4693 -1.179392,0.7203 -2.08435,0.7221 l -0.480579,9e-4 0,1.071 0,1.0709 -0.823807,0 -0.823806,0 0,-3.0966 5.5e-5,0 z m 2.63618,-0.4689 c 0.531897,-0.2662 0.593403,-1.0555 0.104747,-1.3441 -0.184155,-0.1088 -0.72623,-0.1782 -0.951114,-0.1217 l -0.142201,0.036 0,0.764 c 0,0.7482 0.0026,0.7645 0.123571,0.7894 0.208503,0.043 0.662431,-0.022 0.864997,-0.1233 z m 19.643199,3.5289 c -0.02014,-0.02 -0.03661,-1.1199 -0.03661,-2.4439 l 0,-2.4074 -0.796346,0 -0.796346,0 0,-0.6865 0,-0.6865 2.471419,0 2.471418,0 0,0.6865 0,0.6865 -0.823806,0 -0.823806,0 0,2.444 0,2.4439 -0.814651,0 c -0.448057,0 -0.831127,-0.016 -0.851267,-0.037 z m 20.064255,-3.1213 0,-3.1579 0.85127,0 0.85126,0 0,3.1579 0,3.1579 -0.85126,0 -0.85127,0 0,-3.1579 z m 5.08929,3.1213 c -0.0201,-0.02 -0.0366,-1.1199 -0.0366,-2.4439 l 0,-2.4074 -0.79635,0 -0.79634,0 0,-0.6865 0,-0.6865 2.47141,0 2.47142,0 0,0.6865 0,0.6865 -0.8238,0 -0.82381,0 0,2.444 0,2.4439 -0.81465,0 c -0.44806,0 -0.83113,-0.016 -0.85127,-0.037 z m -33.098699,-3.0876 0,-3.0693 0.178491,-0.034 c 0.383339,-0.073 2.431623,-0.1019 2.82716,-0.04 0.844742,0.1322 1.373746,0.4636 1.607438,1.0068 0.149752,0.3481 0.200333,0.8641 0.115448,1.1778 -0.09206,0.3402 -0.381592,0.731 -0.698345,0.9428 l -0.281067,0.1878 0.216683,0.1958 c 0.306489,0.2769 0.452314,0.6016 0.736604,1.6403 0.13701,0.5006 0.262151,0.9442 0.2781,0.9857 0.02387,0.062 -0.125976,0.076 -0.846889,0.076 l -0.875887,0 -0.171478,-0.5629 c -0.09432,-0.3096 -0.198257,-0.6865 -0.23099,-0.8376 -0.142562,-0.6578 -0.389232,-0.9062 -0.900162,-0.9062 l -0.252573,0 0,1.1534 0,1.1533 -0.851267,0 -0.851266,0 0,-3.0693 z m 2.679852,-0.5771 c 0.263042,-0.136 0.395691,-0.3439 0.395691,-0.6201 0,-0.5239 -0.270922,-0.7313 -0.955676,-0.7313 l -0.417334,0 0,0.7494 0,0.7494 0.405505,-0.031 c 0.223031,-0.017 0.480344,-0.069 0.571814,-0.1167 z m 17.805457,0.5422 0,-3.1043 1.0023,0.015 1.0023,0.015 0.64143,1.2357 c 0.35279,0.6796 0.75244,1.4952 0.88811,1.8123 0.35897,0.8392 0.42627,0.982 0.38844,0.8238 -0.0181,-0.075 -0.0462,-0.9837 -0.0625,-2.0183 l -0.0297,-1.881 0.77591,0 0.7759,0 0,3.103 0,3.103 -0.90373,0 -0.90374,0 -0.89864,-1.7986 c -0.49426,-0.9893 -0.95905,-1.9416 -1.03286,-2.1162 l -0.13421,-0.3176 0.0206,2.1162 0.0206,2.1162 -0.77509,0 -0.7751,0 0,-3.1042 z m 19.11231,1.8367 0,-1.2675 -0.96111,-1.8084 c -0.52861,-0.9945 -0.96111,-1.8205 -0.96111,-1.8354 0,-0.015 0.42986,-0.027 0.95523,-0.027 0.85873,0 0.95906,0.01 0.99305,0.096 0.25093,0.6378 0.85266,2.2732 0.85266,2.3175 0,0.12 0.0995,0.052 0.13572,-0.093 0.0208,-0.083 0.21466,-0.6392 0.43084,-1.2357 l 0.39306,-1.0847 0.94953,0 0.94954,0 -0.0793,0.151 c -0.0436,0.083 -0.5014,0.9048 -1.01724,1.8261 l -0.93791,1.6751 0,1.2769 0,1.2769 -0.85127,0 -0.85126,0 0,-1.2675 -5.5e-4,0 z"
         style="fill:#808285;fill-opacity:1" />
      <path
         sodipodi:nodetypes="cssssssssssssssssssssssccssssssscccssssssccccccccccccccccccccccccccccccccccccccssscccccccccscccscccccccccccccccccccccccccccccscccccccccscccccccccccccccccccccccccccccccccccccccccccccccccccccccccccccccccccccccccc"
         id="path2908"
         d="m 1.7507683,1052.3148 c -0.3915418,-0.081 -1.01602754,-0.317 -1.01602754,-0.3836 0,-0.087 0.20584719,-0.8485 0.23803769,-0.8807 0.0115597,-0.012 0.13804025,0.029 0.28106725,0.09 0.1430271,0.061 0.469117,0.1526 0.7246441,0.2028 0.9551137,0.1876 1.6138412,-0.135 1.6113028,-0.7893 -4.394e-4,-0.1148 -0.031505,-0.2693 -0.06902,-0.3435 -0.1054537,-0.2084 -0.4856919,-0.4688 -0.9284086,-0.6359 -0.6344434,-0.2394 -0.9207797,-0.4008 -1.2307335,-0.694 -0.458302,-0.4334 -0.61079951,-0.865 -0.51009744,-1.4437 0.0313145,-0.18 0.0933878,-0.3977 0.1379403,-0.4839 0.23655314,-0.4574 0.78211994,-0.837 1.40086754,-0.9747 0.5572164,-0.124 1.7382249,-0 2.0716401,0.2138 0.062147,0.04 0.053594,0.1208 -0.04981,0.4691 -0.068664,0.2313 -0.1422444,0.4313 -0.1635129,0.4444 -0.021269,0.013 -0.1842102,-0.028 -0.362093,-0.092 -0.4434549,-0.1597 -1.1704869,-0.1708 -1.4695054,-0.022 -0.3925074,0.1948 -0.5320668,0.6423 -0.3125741,1.0023 0.1058125,0.1735 0.3057859,0.2851 1.4438269,0.8059 0.4984247,0.2281 0.9146049,0.5937 1.0918688,0.9592 0.096856,0.1997 0.1256184,0.3565 0.1280601,0.6981 0.0028,0.3907 -0.017301,0.4821 -0.1778207,0.8081 -0.2583292,0.5248 -0.6591532,0.8254 -1.3433967,1.0075 -0.2652298,0.071 -1.2287639,0.098 -1.4962555,0.043 z m 52.5862927,-0.052 c -0.520089,-0.138 -0.886671,-0.3506 -1.26317,-0.7324 -0.612258,-0.621 -0.876462,-1.3332 -0.877914,-2.3667 -0.0014,-1.0044 0.291057,-1.7675 0.917508,-2.3939 0.570379,-0.5704 1.280803,-0.8453 2.184683,-0.8453 0.887668,0 1.581433,0.2739 2.141896,0.8456 0.58683,0.5986 0.849026,1.3215 0.850454,2.3447 0.0023,1.6408 -0.808456,2.7911 -2.221273,3.1518 -0.412908,0.1055 -1.328217,0.1034 -1.732184,-0 l 0,0 z m 1.446159,-1.3824 c 0.2483,-0.145 0.515246,-0.5212 0.625549,-0.8817 0.141145,-0.4612 0.127124,-1.3629 -0.02779,-1.787 -0.230555,-0.6313 -0.595139,-0.9399 -1.110034,-0.9397 -0.561671,3e-4 -0.997869,0.3672 -1.193674,1.004 -0.145928,0.4746 -0.1259,1.4161 0.03936,1.8499 0.143095,0.3757 0.49869,0.7609 0.782441,0.8476 0.244017,0.075 0.674753,0.029 0.884148,-0.093 z m -43.185671,-1.743 0,-3.158 0.576665,0 0.576664,0 0,3.158 0,3.1579 -0.576664,0 -0.576665,0 0,-3.1579 z m 23.981913,3.1213 c -0.02014,-0.02 -0.03661,-1.4289 -0.03661,-3.1305 l 0,-3.0938 0.576664,0 0.576665,0 0,1.2357 0,1.2357 1.31809,0 1.318089,0 0,-1.2357 0,-1.2357 0.576665,0 0.576664,0 0,3.1304 0,3.1305 -0.576664,0 -0.576665,0 0,-1.373 0,-1.373 -1.318089,0 -1.31809,0 0,1.373 0,1.373 -0.540051,0 c -0.297028,0 -0.556527,-0.016 -0.576664,-0.037 z m 23.634083,-3.06 0,-3.0966 0.151031,-0.036 c 0.08307,-0.02 0.682386,-0.05 1.33182,-0.067 0.953863,-0.025 1.25843,-0.014 1.584772,0.055 1.098941,0.2343 1.681806,0.9267 1.670498,1.9844 -0.01416,1.3246 -0.984267,2.1102 -2.609955,2.1134 l -0.480554,10e-4 0,1.0709 0,1.071 -0.823806,0 -0.823806,0 0,-3.0966 0,0 z m 2.636179,-0.469 c 0.541697,-0.2711 0.598605,-1.0523 0.09819,-1.3479 -0.178678,-0.1056 -0.722973,-0.1735 -0.94456,-0.1179 l -0.1422,0.036 0,0.764 c 0,0.7482 0.0026,0.7646 0.123571,0.7894 0.208505,0.043 0.662434,-0.022 0.864996,-0.1233 z m -56.0188177,0.4077 0,-3.103 1.8123735,0 1.8123732,0 0,0.4668 0,0.4668 -1.2357089,0 -1.2357092,0 0,0.7964 0,0.7963 1.1807888,0 1.1807893,0 0,0.4668 0,0.4668 -1.1807893,0 -1.1807888,0 0,0.9062 0,0.9062 1.3180898,0 1.3180903,0 0,0.4668 0,0.4669 -1.8947546,0 -1.8947541,0 0,-3.103 z m 8.8421857,2.7725 0,-0.3304 1.565232,-2.2721 c 0.860877,-1.2497 1.565232,-2.2873 1.565232,-2.3058 0,-0.019 -0.642569,-0.034 -1.427931,-0.034 l -1.427931,0 0,-0.4668 0,-0.4668 2.196817,0 2.196816,0 0,0.3322 0,0.3323 -1.565232,2.2818 c -0.860877,1.2551 -1.565231,2.2918 -1.565231,2.304 0,0.012 0.716711,0.022 1.592692,0.022 l 1.592692,0 0,0.4668 0,0.4669 -2.361578,0 -2.361578,0 0,-0.3305 z m 6.64537,-2.7725 0,-3.103 1.812373,0 1.812374,0 0,0.4668 0,0.4668 -1.235709,0 -1.235709,0 0,0.7964 0,0.7963 1.180788,0 1.180789,0 0,0.4668 0,0.4668 -1.180789,0 -1.180788,0 0,0.9062 0,0.9062 1.318089,0 1.31809,0 0,0.4668 0,0.4669 -1.894754,0 -1.894754,0 0,-3.103 z m 9.556151,0.4668 0,-2.6362 -0.878726,0 -0.878727,0 0,-0.4668 0,-0.4668 2.361578,0 2.361577,0 0,0.4668 0,0.4668 -0.906186,0 -0.906187,0 0,2.6362 0,2.6362 -0.576664,0 -0.576665,0 0,-2.6362 z m 11.917729,-0.4668 0,-3.103 1.812374,0 1.812373,0 0,0.4668 0,0.4668 -1.235709,0 -1.235709,0 0,0.7964 0,0.7963 1.180789,0 1.180788,0 0,0.4668 0,0.4668 -1.180788,0 -1.180789,0 0,0.9062 0,0.9062 1.31809,0 1.318089,0 0,0.4668 0,0.4669 -1.894754,0 -1.894754,0 0,-3.103 z"
         style="fill:#808285;fill-opacity:1" />
      <path
         sodipodi:nodetypes="cssssssssssssscccsssccssssssccccssscccccccscccccccssssssscccsscccsscccssccccccccccssssscccccccscccssccccccccccccssssssscccccccccsssssc"
         id="path2844"
         d="m 52.24221,1040.2012 c -2.450147,-0.4648 -4.208344,-2.1859 -4.957867,-4.8534 -0.671264,-2.389 -0.407892,-5.2917 0.687273,-7.5748 0.414978,-0.865 0.892654,-1.5424 1.54038,-2.1842 0.639823,-0.6339 1.27082,-1.0516 2.005836,-1.3277 0.809203,-0.304 1.184611,-0.3673 2.166868,-0.3654 1.060513,0 1.47859,0.095 2.306658,0.5121 1.006218,0.507 1.831513,1.2894 2.636311,2.4991 0.47063,0.7074 1.097359,1.8316 1.048409,1.8806 -0.08681,0.087 -4.244365,1.3414 -6.23713,1.8821 -1.114176,0.3024 -3.323662,0.8569 -4.279343,1.074 -0.130453,0.03 -0.131189,0.034 -0.0954,0.5429 0.01984,0.2822 0.08465,0.7829 0.144046,1.1127 0.626724,3.4806 2.58116,5.2867 5.721915,5.2879 1.647789,6e-4 3.054509,-0.5008 4.250093,-1.5151 l 0.373047,-0.3164 0.237355,0.2621 c 0.130541,0.1442 0.23735,0.2822 0.23735,0.3066 0,0.1097 -1.07348,1.0396 -1.621992,1.405 -0.955588,0.6366 -1.932281,1.0501 -3.058227,1.2948 -0.670023,0.1456 -2.504211,0.1911 -3.105579,0.077 z m 0.817952,-10.475 c 2.814067,-0.7504 3.947223,-1.0744 3.947223,-1.1285 0,-0.1453 -0.549643,-1.2398 -0.847054,-1.6868 -1.023398,-1.5381 -2.32511,-2.2561 -3.601499,-1.9865 -0.81174,0.1714 -1.502727,0.6393 -2.084735,1.4117 -0.779244,1.0341 -1.33104,2.5684 -1.415068,3.9347 -0.01718,0.2794 -0.01208,0.508 0.01133,0.508 0.02342,0 1.818827,-0.4737 3.989798,-1.0526 z m -52.07159503,9.5104 0,-0.4943 0.83753623,-4e-4 c 0.9019299,-3e-4 1.2155139,-0.053 1.3050814,-0.2207 0.038852,-0.073 0.051542,-3.0764 0.039956,-9.4576 -0.018848,-10.3807 0.00783,-9.6497 -0.3786126,-10.3747 -0.3337694,-0.6263 -0.6805945,-0.7615 -1.95323116,-0.7615 l -0.8392975496589,0 0,-0.4948 0,-0.4948 2.5913569096589,0.014 2.591357,0.014 4.2770955,9.3365 c 2.352402,5.1351 4.2941,9.3534 4.314885,9.3742 0.02078,0.021 1.769905,-4.1807 3.886937,-9.3365 l 3.849149,-9.3742 2.343127,-0.014 2.343128,-0.014 0,0.4949 0,0.4948 -0.864996,4e-4 c -0.932637,3e-4 -1.242388,0.052 -1.33414,0.2237 -0.08643,0.1615 -0.03696,18.0687 0.05188,18.7784 0.124896,0.9977 0.292717,1.5266 0.534752,1.6852 0.171551,0.1124 1.676327,0.2342 2.913293,0.2358 0.913564,0 1.202259,-0.039 1.292246,-0.1807 0.06457,-0.1015 0.05153,-11.3519 -0.01382,-11.928 -0.07511,-0.6622 -0.200889,-1.091 -0.36539,-1.2457 -0.13063,-0.1228 -0.176339,-0.1283 -1.29818,-0.1548 l -1.162782,-0.027 -0.01601,-0.424 c -0.01843,-0.488 -0.06614,-0.4503 0.647596,-0.5109 0.226547,-0.019 1.116257,-0.1303 1.977135,-0.2469 0.860877,-0.1166 1.756766,-0.2293 1.990865,-0.2504 l 0.425633,-0.038 5.66e-4,6.2548 c 5.49e-4,6.0054 0.02573,7.1643 0.169941,7.82 0.08435,0.3835 0.249408,0.6785 0.44618,0.7975 0.169603,0.1026 0.283659,0.1087 2.038055,0.1087 l 1.858397,0 0.105007,-0.1297 c 0.102536,-0.1266 0.104981,-0.3619 0.103833,-9.9955 -6.48e-4,-5.4262 -0.02359,-10.2119 -0.05098,-10.6348 -0.06399,-0.9877 -0.180205,-1.5084 -0.385851,-1.7285 l -0.155263,-0.1662 -1.158754,0 -1.158755,0 0,-0.4551 0,-0.455 0.762594,-0.066 c 0.94126,-0.082 2.47761,-0.3385 3.477679,-0.5809 l 0.752826,-0.1825 0.02068,11.2362 c 0.01519,8.2569 0.03792,11.3599 0.08572,11.703 0.14005,1.0051 0.314796,1.3236 0.780975,1.4236 0.366908,0.079 3.395723,0.079 3.602336,9e-4 0.08442,-0.032 0.172149,-0.088 0.194956,-0.1236 0.06387,-0.1005 0.05105,-20.4567 -0.01327,-21.0723 -0.06766,-0.6475 -0.18072,-1.0487 -0.35158,-1.2475 l -0.131453,-0.153 -1.171934,-0.027 -1.171934,-0.027 0,-0.4393 0,-0.4394 0.521744,-0.042 c 0.830771,-0.068 2.314665,-0.2985 3.267765,-0.5085 0.483299,-0.1065 0.94669,-0.2083 1.029757,-0.2263 l 0.151032,-0.033 0.0024,9.2472 c 0.0013,5.086 0.02552,10.2235 0.05379,11.4166 0.05418,2.2864 0.107,2.8107 0.329498,3.2703 0.194074,0.4009 0.297914,0.4319 1.522815,0.4547 l 1.057218,0.02 0,0.4343 0,0.4343 -14.087085,0 -14.087085,0 0,-0.4897 0,-0.4898 0.949983,-0.018 c 0.796379,-0.015 0.973983,-0.034 1.098409,-0.1157 l 0.148425,-0.097 0,-9.2346 c 0,-5.0789 -0.01797,-9.2165 -0.03994,-9.1945 -0.02197,0.022 -1.883969,4.4314 -4.137782,9.7987 -3.831215,9.1238 -4.106414,9.7588 -4.229576,9.7588 -0.122061,0 -0.44693,-0.701 -4.4245931,-9.5464 -2.3610724,-5.2505 -4.3075599,-9.5611 -4.3255277,-9.579 -0.059438,-0.059 -0.035945,14.8484 0.024861,15.7761 0.063816,0.9738 0.2104204,1.8047 0.3659495,2.0741 0.1925224,0.3336 0.3473754,0.3688 1.6223061,0.3689 l 1.1395985,10e-5 0,0.4943 0,0.4943 -3.2952246,0 -3.29522463,0 0,-0.4943 0,0 z M 29.133032,1019.8844 c -0.630262,-0.2935 -0.949589,-1.0397 -0.711593,-1.6629 0.124066,-0.3248 0.430876,-0.6669 0.713838,-0.7957 0.289598,-0.1319 0.808811,-0.1319 1.098408,0 0.282962,0.1288 0.589772,0.4709 0.713838,0.7957 0.317222,0.8307 -0.360311,1.7918 -1.263042,1.7918 -0.172905,0 -0.377129,-0.048 -0.551449,-0.1289 z"
         style="fill:#000000" />
      <path
         sodipodi:nodetypes="cssssssscccsssssssscccssccccccccccccsssssscccccccccsssssscccssssscccssssscccsssccccssssssccssssssssssssssssssssssssssssssssssccccccccsscccccscccccsssssscccsccccccccccccccscccccccscccscccccccccsssc"
         id="path2892"
         d="m 234.23029,1048.5014 c -0.17466,-0.1383 -0.24454,-0.3682 -0.1475,-0.4851 0.0381,-0.046 0.46553,-0.2777 0.94974,-0.515 0.98336,-0.4818 1.33004,-0.7211 1.99861,-1.3799 1.17053,-1.1533 2.2419,-2.7937 3.55786,-5.4474 0.34306,-0.6918 0.62374,-1.2904 0.62374,-1.3302 0,-0.095 -5.14239,-12.0769 -5.48914,-12.7897 -0.14694,-0.3021 -0.35439,-0.663 -0.46101,-0.8022 -0.33189,-0.433 -0.33464,-0.4335 -2.31321,-0.4335 l -1.73868,0 0.0212,5.643 c 0.0233,6.201 0.0125,5.9998 0.36128,6.7367 0.37081,0.7834 1.0337,1.1307 2.15836,1.1307 0.68973,0 1.49468,-0.1771 2.3547,-0.5182 0.0619,-0.024 0.12222,0.056 0.23342,0.3112 0.0825,0.1894 0.14997,0.3645 0.14996,0.3893 -1e-5,0.077 -1.09974,0.568 -1.7874,0.7977 -1.59666,0.5333 -3.08856,0.5964 -3.93979,0.1667 -0.61696,-0.3115 -1.10706,-0.8442 -1.35924,-1.4774 -0.26685,-0.67 -0.26895,-0.7253 -0.27099,-7.147 l -0.002,-6.0222 -0.767,-0.019 c -0.64121,-0.016 -0.78278,-0.035 -0.86323,-0.1153 -0.0791,-0.079 -0.0857,-0.1242 -0.0372,-0.2527 0.0325,-0.086 0.77169,-1.0004 1.64272,-2.0319 l 1.58369,-1.8754 0.264,0 0.264,0 0,1.6661 0,1.666 2.97474,0.036 c 1.63611,0.02 3.61324,0.036 4.39364,0.036 l 1.41889,0 0,0.4394 0,0.4394 -1.06646,0 c -0.58655,0 -1.10555,0.015 -1.15333,0.033 -0.1333,0.051 -0.10786,0.1897 0.16815,0.9159 0.70505,1.8549 4.41398,10.5504 4.47433,10.4899 0.0725,-0.073 1.01487,-2.1568 1.69575,-3.7503 1.09612,-2.5653 1.77003,-4.4057 2.10689,-5.7538 0.31558,-1.263 0.31657,-1.7296 0.004,-1.872 -0.0885,-0.04 -0.51312,-0.063 -1.1792,-0.063 l -1.0409,0 0,-0.4394 0,-0.4394 2.99316,0 2.99316,0 0,0.4394 0,0.4394 -0.78585,0 c -0.54327,0 -0.81408,0.021 -0.87733,0.069 -0.0503,0.038 -0.28715,0.5506 -0.5263,1.1396 -1.23724,3.0473 -3.6444,8.7477 -5.25295,12.4395 -1.86367,4.2773 -3.26559,7.2811 -3.99249,8.5543 -0.37396,0.6551 -0.30409,0.6068 -1.12779,0.7795 -0.59166,0.124 -1.54317,0.2371 -2.34818,0.2791 -0.67164,0.035 -0.72255,0.03 -0.85882,-0.078 l 0,0 z m -42.04857,-8.3236 c -2.04006,-0.3869 -3.5728,-1.6016 -4.48318,-3.5529 -1.39304,-2.9858 -1.04619,-7.1449 0.83298,-9.9884 0.38015,-0.5753 1.27533,-1.4798 1.81969,-1.8386 1.02682,-0.677 2.27855,-1.0098 3.5476,-0.9432 1.24226,0.065 2.25481,0.4868 3.24043,1.3493 0.73688,0.6448 1.54524,1.7355 2.16852,2.9261 l 0.33628,0.6423 -0.9504,0.3018 c -2.66412,0.846 -5.25859,1.5821 -7.6752,2.1776 -0.98333,0.2423 -1.84347,0.4526 -1.91144,0.4674 -0.10705,0.023 -0.12357,0.062 -0.12357,0.2882 0,0.6966 0.22844,1.9195 0.52298,2.7997 0.81297,2.4296 2.52486,3.7354 5.03572,3.8413 1.81797,0.077 3.32009,-0.4241 4.62414,-1.5415 l 0.32462,-0.2782 0.23831,0.2709 c 0.13108,0.1489 0.23831,0.2873 0.23831,0.3075 0,0.02 -0.20558,0.2309 -0.45684,0.4683 -1.16529,1.101 -2.64844,1.8851 -4.20046,2.2208 -0.69376,0.1501 -2.51687,0.1977 -3.12849,0.082 z m 0.82139,-10.4758 3.95066,-1.0535 -0.0336,-0.141 c -0.0593,-0.249 -0.56088,-1.2258 -0.86203,-1.6788 -0.36589,-0.5505 -1.00727,-1.2071 -1.47055,-1.5054 -0.73015,-0.4702 -1.60422,-0.5966 -2.40095,-0.3473 -0.47815,0.1497 -1.12272,0.569 -1.47819,0.9616 -0.94377,1.0426 -1.5991,2.6841 -1.7174,4.3019 -0.0218,0.2981 -0.0168,0.516 0.0118,0.516 0.0273,0 1.82737,-0.4741 4.00023,-1.0535 z m 19.22951,10.4979 c -0.57551,-0.072 -1.45789,-0.2572 -2.01457,-0.423 -0.35691,-0.1063 -0.49888,-0.175 -0.53328,-0.2581 -0.0401,-0.097 -0.36062,-2.0667 -0.46168,-2.837 -0.0379,-0.289 0.062,-0.4547 0.30768,-0.5102 0.23369,-0.053 0.40402,0.1265 0.5172,0.5446 0.0537,0.1985 0.17781,0.4736 0.27574,0.6114 0.46423,0.6529 1.47355,1.2054 2.82138,1.5443 0.51214,0.1288 0.68599,0.1458 1.48617,0.1451 1.04718,-10e-4 1.46889,-0.089 2.22882,-0.4652 1.10954,-0.5493 1.76914,-1.4359 1.8692,-2.5126 0.0929,-1 -0.37958,-1.8102 -1.34806,-2.3115 -0.55897,-0.2894 -1.16931,-0.4978 -2.52172,-0.8609 -2.438,-0.6546 -3.2893,-1.0203 -4.06161,-1.745 -0.40445,-0.3795 -0.69546,-0.84 -0.87077,-1.378 -0.12398,-0.3805 -0.14539,-0.5454 -0.15034,-1.1577 -0.005,-0.6062 0.0137,-0.7759 0.12303,-1.1245 0.24777,-0.7897 0.62025,-1.3755 1.2792,-2.0118 0.84685,-0.8177 1.95035,-1.3393 3.26003,-1.5411 0.9828,-0.1513 2.86097,-0.012 3.9181,0.2902 0.63408,0.1814 1.04448,0.3669 1.07206,0.4847 0.0146,0.062 0.0705,0.6275 0.12433,1.2562 0.1014,1.1846 0.0911,1.3067 -0.11323,1.3468 -0.19171,0.038 -0.33628,-0.049 -0.46358,-0.278 -0.52937,-0.9523 -1.35429,-1.526 -2.60601,-1.8121 -0.71899,-0.1644 -1.92146,-0.1637 -2.52458,0 -1.53513,0.4204 -2.46487,1.4072 -2.46984,2.6216 -0.002,0.6063 0.17557,1.0047 0.64562,1.4444 0.55765,0.5216 1.32044,0.8365 3.59792,1.4852 2.16161,0.6156 3.12133,1.0752 3.89941,1.8672 0.36384,0.3704 0.69614,0.9197 0.85839,1.419 0.0522,0.1608 0.0963,0.5606 0.11364,1.0314 0.0242,0.6556 0.0115,0.8396 -0.0862,1.2486 -0.38321,1.6049 -1.68081,2.8353 -3.68684,3.4959 -0.97225,0.3202 -1.49305,0.3965 -2.85586,0.4183 -0.67964,0.011 -1.41303,-0 -1.62976,-0.03 l 0,0 z m -12.53971,-0.9318 0,-0.4393 0.79811,0 c 0.57657,0 0.85154,-0.022 0.9906,-0.08 l 0.19248,-0.081 -0.0183,-6.1118 c -0.0167,-5.5727 -0.0267,-6.1428 -0.11285,-6.462 -0.11562,-0.4285 -0.23435,-0.6378 -0.40626,-0.7161 -0.0801,-0.036 -0.55631,-0.06 -1.22885,-0.06 l -1.09805,0 0.016,-0.4531 0.0159,-0.4531 0.24715,-0.015 c 0.13592,-0.01 1.07506,-0.1252 2.08697,-0.2594 1.01191,-0.1342 2.01862,-0.2606 2.23712,-0.2807 l 0.3973,-0.037 0.0146,1.5158 0.0146,1.5157 0.65905,-0.5814 c 1.72759,-1.5239 2.63583,-2.1494 3.41622,-2.3527 0.76622,-0.1996 1.60083,0 2.15545,0.5198 0.20739,0.1937 0.20796,0.1702 -0.0334,1.3706 -0.18416,0.9158 -0.2822,1.1695 -0.4786,1.2386 -0.16765,0.059 -0.12511,0.094 -0.68397,-0.5717 -0.35268,-0.4205 -1.27721,-0.605 -2.10676,-0.4204 -0.81386,0.1811 -1.48313,0.5981 -2.42241,1.5096 l -0.54175,0.5257 0.0255,4.5046 c 0.027,4.7798 0.045,5.1239 0.29715,5.6877 0.21579,0.4825 0.41136,0.5463 1.67699,0.5467 l 0.91991,3e-4 0,0.4394 0,0.4393 -3.5149,0 -3.51491,0 0,-0.4393 0,-10e-5 z m 21.58372,0 0,-0.4347 0.90054,-0.018 c 0.80088,-0.016 0.91364,-0.03 1.01892,-0.1257 l 0.11837,-0.1073 -0.0225,-5.9614 c -0.0146,-3.8682 -0.0428,-6.059 -0.0803,-6.2391 -0.1179,-0.5667 -0.19038,-0.7596 -0.3426,-0.9119 l -0.15607,-0.156 -1.15978,0 -1.15978,0 0.016,-0.4531 0.0159,-0.4531 0.43936,-0.037 c 0.24165,-0.02 1.19314,-0.1368 2.11443,-0.2592 0.92129,-0.1223 1.8419,-0.239 2.04579,-0.2592 l 0.37071,-0.037 0.001,5.4859 c 0.002,7.1692 0.055,8.44 0.38007,9.0773 0.19244,0.3772 0.31864,0.4132 1.52707,0.4357 l 1.05722,0.02 0,0.4343 0,0.4343 -3.54237,0 -3.54237,0 0,-0.4346 3e-5,0 z m 2.31971,-19.3948 c -1.01436,-0.5151 -1.04525,-1.9435 -0.0527,-2.4381 0.75881,-0.3782 1.64723,0.014 1.88507,0.8321 0.16409,0.5645 -0.0903,1.2071 -0.60314,1.5234 -0.36284,0.2238 -0.88242,0.2587 -1.22922,0.083 z"
         style="fill:#000000" />
      <path
         sodipodi:nodetypes="cssssccccccccccccssssssscccccccccscccscccccssscsssscsscccccscccscccccccccscssscccscccccccccssscccsscccccccccccccccsssssscccccccccssscccccccsccccc"
         id="path2876"
         d="m 139.58432,1040.317 c -2.35474,-0.3018 -4.31094,-1.3104 -5.43522,-2.8024 -0.70393,-0.9342 -1.08805,-1.8362 -1.35393,-3.1791 -0.0824,-0.4162 -0.0968,-1.2442 -0.13257,-7.634 -0.0427,-7.6141 -0.0498,-7.8076 -0.30743,-8.3262 -0.20672,-0.4162 -0.26175,-0.4315 -1.6169,-0.4503 l -1.20438,-0.017 0,-0.4913 0,-0.4913 3.87189,0 3.87189,0 0,0.4891 0,0.489 -1.01034,0.019 c -0.90578,0.017 -1.02245,0.03 -1.12752,0.1251 l -0.11719,0.1061 0.0171,7.5827 c 0.0157,6.9685 0.0249,7.6217 0.11347,8.0639 0.31755,1.5855 0.80534,2.5783 1.70766,3.4756 1.50075,1.4925 4.05494,2.0699 6.76014,1.5283 2.10801,-0.422 3.69891,-1.5878 4.5997,-3.3706 0.37735,-0.7469 0.67796,-1.8284 0.80863,-2.9094 0.0769,-0.6362 0.0749,-11.31 -0.002,-12.3305 -0.0992,-1.3113 -0.27096,-1.9495 -0.57899,-2.1515 -0.1347,-0.088 -0.30063,-0.1029 -1.35068,-0.1183 l -1.19712,-0.018 0,-0.4904 0,-0.4905 3.29522,0 3.29523,0 0,0.4897 0,0.4896 -0.91992,0.02 c -0.97656,0.022 -1.18648,0.07 -1.24403,0.284 -0.0172,0.064 -0.0317,1.4823 -0.0321,3.1512 l -7.6e-4,3.0344 0.12902,0 c 0.071,0 1.06325,-0.1236 2.20509,-0.2746 1.14184,-0.1511 2.14649,-0.2746 2.23256,-0.2746 l 0.15648,0 0,1.4278 0,1.4279 0.59039,-0.4712 c 2.16703,-1.7293 3.92551,-2.4495 5.78038,-2.3672 0.82065,0.036 1.34078,0.1564 1.94967,0.4499 1.01623,0.4899 1.63832,1.2907 1.96229,2.5259 0.11117,0.4239 0.1166,0.6079 0.15397,5.2175 0.0247,3.0498 0.0616,4.9568 0.10199,5.2723 0.0831,0.6494 0.19522,1.0263 0.36543,1.2286 0.21063,0.2503 0.52387,0.2918 2.05385,0.2716 1.17797,-0.015 1.328,-0.028 1.41559,-0.1154 0.0928,-0.093 0.0979,-0.403 0.097,-5.8491 -0.001,-6.1119 -0.0142,-6.4671 -0.26213,-7.0905 -0.0777,-0.1954 -0.17063,-0.3299 -0.25862,-0.3743 -0.0969,-0.049 -0.46483,-0.07 -1.25165,-0.07 l -1.11437,-8e-4 0.016,-0.4531 0.016,-0.4531 0.2746,-0.016 c 0.15103,-0.01 1.09732,-0.1264 2.10287,-0.2607 1.00555,-0.1343 2.00029,-0.2602 2.21055,-0.2798 l 0.38227,-0.036 0,5.9805 c 0,7.1992 0.0432,8.1196 0.40389,8.6554 0.21051,0.3128 0.33633,0.3438 1.47695,0.3637 l 1.02975,0.018 0,0.4351 0,0.4351 -6.59045,0 -6.59044,0 0,-0.4347 0,-0.4346 0.91112,-0.019 c 0.88061,-0.018 0.91463,-0.023 1.01603,-0.1481 0.10148,-0.1254 0.10487,-0.2862 0.10394,-4.9428 -5.4e-4,-2.6882 -0.0242,-5.0314 -0.0537,-5.3075 -0.14546,-1.3634 -0.63098,-2.2176 -1.49969,-2.6384 -0.49612,-0.2404 -1.01359,-0.3229 -1.76836,-0.2821 -1.54979,0.084 -2.95224,0.6979 -4.61823,2.0218 l -0.41889,0.3328 0.027,4.4295 c 0.0271,4.4465 0.055,5.1212 0.2382,5.7689 0.19605,0.6931 0.29773,0.7401 1.65516,0.7654 l 1.05722,0.02 0,0.4343 0,0.4343 -3.54237,0 -3.54236,0 0,-0.4347 0,-0.4346 0.91112,-0.019 c 0.8883,-0.018 0.91383,-0.022 1.01914,-0.1519 0.10625,-0.1313 0.10764,-0.2308 0.085,-6.0413 -0.0235,-6.0152 -0.0297,-6.195 -0.23608,-6.8269 -0.1502,-0.4598 -0.21148,-0.4813 -1.37468,-0.4813 l -1.00861,0 -5.5e-4,3.4737 c -5.5e-4,2.0171 -0.0241,3.681 -0.0569,3.968 -0.48558,4.2536 -3.21968,6.9504 -7.62284,7.519 -0.72574,0.094 -2.3956,0.1091 -3.02931,0.028 l 5.5e-4,0 0,0 0,0 0,0 0,0 z m 40.65701,-0.1188 c -0.129,-0.2197 -0.22743,-0.468 -0.77848,-1.9634 -0.73702,-2 -1.89871,-4.9322 -3.06798,-7.7438 -1.05041,-2.5257 -1.8335,-4.2033 -2.18641,-4.6839 -0.31135,-0.4241 -0.44293,-0.4781 -1.16388,-0.4784 l -0.61785,-2e-4 0,-0.4393 0,-0.4394 3.26776,0 3.26777,0 0,0.4394 0,0.4393 -1.06646,0 c -0.58655,0 -1.10555,0.015 -1.15333,0.033 -0.23417,0.09 -0.13755,0.3515 2.13685,5.7882 0.76452,1.8275 1.60479,3.8417 1.86728,4.476 0.26249,0.6343 0.48367,1.1599 0.4915,1.1679 0.0213,0.022 1.0208,-2.1568 1.55386,-3.3869 1.71148,-3.9494 2.71688,-7.1705 2.42691,-7.7752 -0.13221,-0.2758 -0.25286,-0.3017 -1.40989,-0.3026 l -1.05721,-8e-4 0,-0.4393 0,-0.4394 3.04808,0 3.04808,0 0,0.4394 0,0.4393 -0.74142,0 c -0.87056,0 -0.8414,-0.016 -1.17324,0.6441 -0.65846,1.3098 -3.21241,7.2754 -5.60544,13.0934 -0.5103,1.2406 -0.55278,1.3107 -0.79411,1.3107 -0.15355,0 -0.20662,-0.032 -0.29239,-0.1785 l 0,0 z m -10.49645,-20.3399 c -0.46442,-0.2315 -0.73634,-0.6731 -0.73864,-1.1997 -0.002,-0.3822 0.094,-0.6423 0.33872,-0.9211 0.40852,-0.4652 1.1454,-0.5668 1.6864,-0.2323 0.37401,0.2312 0.58802,0.5926 0.61657,1.041 0.028,0.44 -0.0485,0.6672 -0.33394,0.9915 -0.42247,0.4799 -1.0089,0.5997 -1.56911,0.3206 z"
         style="fill:#000000" />
      <path
         sodipodi:nodetypes="csssssssssssssssssssssssssssssccccccccsssssccccccccccsscccsccccccccccssscccsscccccscccsscccccccccssssssscccssssssssscccssscccccsccccssssssccccsssscccccscccccssssssscccsccccccccccssssc"
         id="path2860"
         d="m 86.396537,1040.1668 c -0.07339,-0.1284 -0.311723,-0.7277 -0.529619,-1.3318 -1.094877,-3.0356 -3.623687,-9.2635 -4.668136,-11.4967 -0.655788,-1.4021 -0.945137,-1.8259 -1.324252,-1.9395 -0.118222,-0.035 -0.227799,-0.052 -0.243517,-0.036 -0.01571,0.016 0.0016,0.4253 0.03847,0.9102 0.07554,0.9935 0.05599,1.0751 -0.250338,1.045 -0.143804,-0.014 -0.216458,-0.088 -0.502099,-0.5108 -0.674269,-0.9979 -1.614803,-1.5049 -3.115399,-1.6794 -1.810852,-0.2105 -3.50636,0.5104 -4.116812,1.7504 -0.150015,0.3047 -0.178958,0.4306 -0.196977,0.8571 -0.02949,0.6979 0.09829,1.0363 0.565663,1.498 0.559716,0.5529 1.241927,0.8499 3.322987,1.4466 1.968826,0.5646 2.758471,0.8765 3.547337,1.4014 0.834197,0.5551 1.383489,1.3127 1.591522,2.1951 0.131013,0.5557 0.118903,1.5773 -0.02522,2.1281 -0.491296,1.8776 -2.19044,3.2054 -4.767668,3.7258 -0.844204,0.1705 -2.472023,0.2073 -3.482443,0.079 -0.664883,-0.084 -1.938331,-0.368 -2.309288,-0.514 -0.170226,-0.067 -0.14884,0.015 -0.402648,-1.5469 -0.203405,-1.2519 -0.237701,-1.7636 -0.124183,-1.853 0.292254,-0.2302 0.598312,-0.057 0.734172,0.4149 0.138112,0.48 0.260032,0.6794 0.618302,1.0111 0.556298,0.515 1.264117,0.8587 2.368386,1.1499 0.832747,0.2196 1.883484,0.273 2.582775,0.1313 1.984955,-0.4022 3.218303,-1.7255 3.112356,-3.3393 -0.0209,-0.3185 -0.07007,-0.5157 -0.195292,-0.7833 -0.419334,-0.8961 -1.309121,-1.3653 -3.852227,-2.0315 -2.134811,-0.5592 -3.114625,-0.9807 -3.839372,-1.6517 -0.621926,-0.5758 -0.945381,-1.2299 -1.056879,-2.1371 -0.340267,-2.7688 2.301673,-5.1892 5.665137,-5.1901 1.119135,-3e-4 2.421962,0.188 3.2502,0.4697 l 0.393785,0.1339 2.983541,0 2.983545,0 0,0.4394 0,0.4393 -1.066455,0 c -0.586556,0 -1.105554,0.015 -1.153329,0.033 -0.169473,0.065 -0.08352,0.3943 0.450073,1.7242 0.307939,0.7674 4.024524,9.6852 4.045871,9.7079 0.02046,0.022 1.026984,-2.1738 1.555083,-3.3921 1.703098,-3.9288 2.714117,-7.1677 2.425373,-7.7699 -0.132221,-0.2758 -0.252865,-0.3017 -1.40989,-0.3026 l -1.057217,-8e-4 0,-0.4332 0,-0.4332 2.128165,-0.027 2.128166,-0.027 1.839834,-0.2528 c 1.011909,-0.139 2.017485,-0.2691 2.234618,-0.2892 l 0.394785,-0.036 0.02327,6.6392 c 0.0246,7.0184 0.03112,7.1993 0.280902,7.7918 0.234153,0.5555 0.390704,0.5921 2.429225,0.5681 1.4367,-0.017 1.55411,-0.026 1.66308,-0.1243 l 0.11723,-0.1062 -0.0201,-10.5484 c -0.0138,-7.24 -0.0386,-10.6354 -0.0791,-10.8259 -0.12217,-0.5746 -0.19218,-0.7602 -0.34387,-0.9119 l -0.15608,-0.1561 -1.15756,0 -1.157547,0 0,-0.4668 0,-0.4668 0.272498,0 c 0.680909,0 2.983889,-0.3692 4.217249,-0.676 l 0.50801,-0.1264 0.001,10.2182 c 6.6e-4,5.62 0.0245,10.7743 0.053,11.4539 0.0747,1.7824 0.22159,2.404 0.61922,2.6213 0.15755,0.086 0.37714,0.099 1.91519,0.1145 1.45888,0.014 1.76929,0 1.93728,-0.067 l 0.20004,-0.083 -0.0169,-10.698 c -0.0157,-9.9485 -0.0236,-10.7226 -0.11215,-11.0482 -0.11671,-0.4291 -0.23539,-0.6379 -0.40701,-0.7161 -0.0801,-0.037 -0.5557,-0.06 -1.22664,-0.06 l -1.09582,0 0,-0.4551 0,-0.455 0.76051,-0.066 c 0.88824,-0.077 2.157,-0.2832 3.1663,-0.514 0.39268,-0.09 0.7934,-0.1773 0.89048,-0.1946 l 0.17651,-0.031 0.0212,11.3617 c 0.0154,8.2547 0.0385,11.4593 0.0845,11.7186 0.15072,0.8494 0.32537,1.1425 0.74946,1.2578 0.12083,0.033 0.63365,0.06 1.1396,0.06 l 0.91992,4e-4 0,0.4393 0,0.4394 -10.24266,0 -10.242654,0 0,-0.4347 0,-0.4346 0.897877,-0.018 c 0.667991,-0.014 0.921619,-0.038 0.990588,-0.096 0.08618,-0.072 0.09141,-0.5065 0.07436,-6.1785 -0.01646,-5.4713 -0.02775,-6.1361 -0.10932,-6.4366 -0.203677,-0.7502 -0.264809,-0.7908 -1.19174,-0.7908 -0.602817,0 -0.672231,0.01 -0.77921,0.1175 -0.319621,0.3196 -2.797915,6.0211 -5.920228,13.62 -0.510991,1.2436 -0.551797,1.3107 -0.796802,1.3107 -0.166821,0 -0.207429,-0.029 -0.324151,-0.2334 l -6e-6,0 z m 32.073563,0.039 c -1.88309,-0.3549 -3.36593,-1.4849 -4.28528,-3.2658 -0.68569,-1.3282 -0.97594,-2.6231 -0.97868,-4.3662 -0.005,-3.0892 1.14136,-5.8833 3.0396,-7.4096 0.58109,-0.4672 1.48574,-0.9212 2.21583,-1.112 0.48235,-0.1261 0.65951,-0.1438 1.45539,-0.1458 0.76588,-0 0.97421,0.016 1.34555,0.1177 1.26348,0.3452 2.38856,1.1707 3.33497,2.4471 0.56964,0.7683 1.41341,2.2597 1.32374,2.3398 -0.0499,0.044 -2.13867,0.6977 -3.77999,1.182 -1.59476,0.4705 -3.62757,1.0165 -5.31355,1.4271 l -1.52404,0.3711 0,0.1826 c 0,0.1004 0.038,0.4742 0.0845,0.8306 0.44788,3.4362 2.02365,5.3702 4.73931,5.8169 0.76676,0.1261 1.99431,0.078 2.70435,-0.1059 1.12417,-0.2912 2.04752,-0.7792 2.75669,-1.4568 l 0.20693,-0.1977 0.28318,0.2832 0.28319,0.2832 -0.38028,0.3651 c -1.22779,1.1789 -2.73343,1.9871 -4.35565,2.3382 -0.70838,0.1533 -2.51317,0.1963 -3.15574,0.075 z m 0.95945,-10.4969 3.87878,-1.032 -0.0778,-0.2203 c -0.12592,-0.357 -0.53715,-1.1491 -0.81985,-1.5794 -0.31919,-0.4857 -1.15947,-1.3412 -1.52608,-1.5537 -1.24505,-0.7214 -2.52847,-0.5614 -3.60277,0.4492 -0.82583,0.7769 -1.37078,1.7655 -1.7206,3.1215 -0.15396,0.5968 -0.25762,1.2639 -0.25762,1.658 0,0.2312 0.009,0.2473 0.12357,0.2191 0.068,-0.017 1.86902,-0.4949 4.00234,-1.0624 z m -59.650444,9.5974 0,-0.4346 0.904331,-0.019 c 0.779638,-0.016 0.917839,-0.032 1.002297,-0.1166 0.09278,-0.093 0.0979,-0.4028 0.09675,-5.849 -0.0013,-6.1101 -0.01453,-6.4685 -0.261902,-7.0905 -0.07775,-0.1954 -0.170633,-0.3299 -0.258622,-0.3743 -0.09695,-0.049 -0.464832,-0.07 -1.251661,-0.07 l -1.114359,-8e-4 0.01595,-0.4531 0.01595,-0.4531 0.274602,-0.016 c 0.151031,-0.01 1.090171,-0.1257 2.086976,-0.2593 0.996805,-0.1336 1.991154,-0.2595 2.209664,-0.2798 l 0.39729,-0.037 0.01461,1.5172 0.01461,1.5172 0.851266,-0.7456 c 1.363327,-1.194 2.216126,-1.8059 2.922931,-2.0974 0.470995,-0.1942 1.287568,-0.2047 1.745304,-0.022 0.422359,0.1682 0.847008,0.5004 0.867986,0.679 0.01599,0.1362 -0.251342,1.5477 -0.376086,1.9857 -0.07386,0.2594 -0.241695,0.4343 -0.394924,0.4117 -0.0645,-0.01 -0.229354,-0.1633 -0.371509,-0.3466 -0.417377,-0.5382 -0.673965,-0.6653 -1.45546,-0.721 -1.107402,-0.079 -2.047371,0.3733 -3.308955,1.592 l -0.508014,0.4907 2.2e-4,3.8501 c 2.75e-4,4.9352 0.06775,6.0257 0.403885,6.525 0.209308,0.311 0.336756,0.3424 1.476945,0.3639 l 1.029757,0.019 0,0.4342 0,0.4343 -3.514906,0 -3.514906,0 0,-0.4347 -2.5e-5,0 z m 36.110171,-19.3843 c -0.537709,-0.2451 -0.818259,-0.6816 -0.818698,-1.2738 0,-0.2922 0.02762,-0.4079 0.147269,-0.6121 0.280023,-0.4778 0.658803,-0.7034 1.177675,-0.7015 0.987892,0 1.621042,0.9994 1.204448,1.894 -0.139503,0.2996 -0.445498,0.6015 -0.730101,0.7204 -0.251892,0.1053 -0.718622,0.092 -0.980593,-0.027 z"
         style="fill:#000000" />
    </g>
  </g>
</svg>
