<?xml version="1.0" encoding="UTF-8" standalone="no"?>
<!-- Created with Inkscape (http://www.inkscape.org/) -->

<svg
   xmlns:dc="http://purl.org/dc/elements/1.1/"
   xmlns:cc="http://creativecommons.org/ns#"
   xmlns:rdf="http://www.w3.org/1999/02/22-rdf-syntax-ns#"
   xmlns:svg="http://www.w3.org/2000/svg"
   xmlns="http://www.w3.org/2000/svg"
   version="1.1"
   width="307.97501"
   height="137.25"
   id="svg2"
   xml:space="preserve"><metadata
     id="metadata8"><rdf:RDF><cc:Work
         rdf:about=""><dc:format>image/svg+xml</dc:format><dc:type
           rdf:resource="http://purl.org/dc/dcmitype/StillImage" /><dc:title></dc:title></cc:Work></rdf:RDF></metadata><defs
     id="defs6"><clipPath
       id="clipPath18"><path
         d="m 0,0 2463.79,0 0,1098 L 0,1098 0,0 z"
         id="path20" /></clipPath></defs><g
     transform="matrix(1.25,0,0,-1.25,0,137.25)"
     id="g10"><g
       transform="scale(0.1,0.1)"
       id="g12"><g
         id="g14"><g
           clip-path="url(#clipPath18)"
           id="g16"><path
             d="M 1917.92,1098.01 C 1616.39,1098.01 1372,853.566 1372,552.113 1372,250.582 1616.39,6.17188 1917.92,6.17188 c 301.48,0 545.87,244.41012 545.87,545.94112 0,301.453 -244.39,545.897 -545.87,545.897 m 0,-897.233 c -194.03,0 -351.33,157.285 -351.33,351.285 0,194.012 157.3,351.321 351.33,351.321 193.98,0 351.3,-157.309 351.3,-351.321 0,-194 -157.32,-351.285 -351.3,-351.285"
             id="path22"
             style="fill:#5549a7;fill-opacity:1;fill-rule:nonzero;stroke:none" /><path
             d="M 1055.35,831.906 917.441,693.957 1071.26,548.988 918.652,405.152 1056.5,267.281 1338.23,548.988 1055.35,831.906"
             id="path24"
             style="fill:#5549a7;fill-opacity:1;fill-rule:nonzero;stroke:none" /><path
             d="M 548.184,0 C 412.102,0 288.652,47.2188 181.328,140.582 60.957,245.758 0,384.41 0,552.617 c 0,149.336 55.2227,279.035 164.082,385.559 107.766,106.004 239.297,159.814 390.762,159.814 150.254,0 280.91,-54.41 388.144,-161.623 L 800.566,793.918 c -69.101,69.07 -149.461,102.656 -245.722,102.656 -98.106,0 -179.785,-33.445 -249.715,-102.176 -69.797,-68.363 -103.691,-147.394 -103.691,-241.781 0,-109.027 36.753,-194.125 112.222,-260.082 70.461,-61.23 147.18,-91.113 234.524,-91.113 99.738,0 182.414,33.359 252.785,101.933 L 941.594,159.078 C 833.262,53.5117 700.906,0 548.184,0"
             id="path26"
             style="fill:#9a9a96;fill-opacity:1;fill-rule:nonzero;stroke:none" /></g></g></g></g></svg>