<?xml version="1.0" encoding="utf-8"?>
<!-- Generator: Adobe Illustrator 17.0.0, SVG Export Plug-In . SVG Version: 6.00 Build 0)  -->
<!DOCTYPE svg PUBLIC "-//W3C//DTD SVG 1.1//EN" "http://www.w3.org/Graphics/SVG/1.1/DTD/svg11.dtd">
<svg version="1.1" id="Layer_1" xmlns="http://www.w3.org/2000/svg" xmlns:xlink="http://www.w3.org/1999/xlink" x="0px" y="0px"
	 width="575.756px" height="575.756px" viewBox="0 0 575.756 575.756" enable-background="new 0 0 575.756 575.756"
	 xml:space="preserve">
<circle fill="#C12630" cx="287.878" cy="287.878" r="283.84"/>
<path d="M287.878,575.756c-38.861,0-76.562-7.612-112.056-22.625c-34.281-14.499-65.067-35.255-91.504-61.692
	c-26.438-26.436-47.194-57.224-61.693-91.504C7.612,364.44,0,326.739,0,287.878s7.612-76.562,22.625-112.056
	c14.499-34.281,35.256-65.067,61.693-91.504c26.437-26.438,57.223-47.194,91.504-61.693C211.315,7.612,249.017,0,287.878,0
	s76.562,7.612,112.056,22.625c34.281,14.499,65.067,35.256,91.505,61.693c26.437,26.437,47.193,57.223,61.693,91.504
	c15.012,35.493,22.624,73.194,22.624,112.056s-7.612,76.562-22.624,112.057c-14.5,34.28-35.257,65.067-61.693,91.504
	c-26.438,26.438-57.224,47.193-91.505,61.692C364.44,568.143,326.739,575.756,287.878,575.756z M287.878,8.076
	C133.595,8.076,8.076,133.595,8.076,287.878S133.595,567.68,287.878,567.68S567.68,442.161,567.68,287.878
	S442.161,8.076,287.878,8.076z"/>
<path d="M287.794,556.6c-36.278,0-71.473-7.107-104.605-21.12c-32.002-13.535-60.741-32.911-85.421-57.592
	c-24.68-24.68-44.057-53.419-57.592-85.42c-14.014-33.133-21.119-68.326-21.119-104.604c0-36.277,7.105-71.472,21.119-104.604
	c13.535-32.001,32.912-60.741,57.592-85.421c24.68-24.68,53.419-44.057,85.421-57.592c33.132-14.015,68.326-21.12,104.605-21.12
	s71.473,7.106,104.604,21.12c32.001,13.535,60.741,32.912,85.421,57.592c24.68,24.68,44.056,53.42,57.592,85.421
	c14.014,33.132,21.119,68.326,21.119,104.604c0,36.278-7.105,71.472-21.119,104.604c-13.536,32.001-32.912,60.74-57.592,85.42
	c-24.68,24.681-53.42,44.057-85.421,57.592C359.267,549.493,324.072,556.6,287.794,556.6z M287.794,22.527
	c-146.307,0-265.336,119.029-265.336,265.336s119.029,265.336,265.336,265.336S553.13,434.17,553.13,287.863
	S434.101,22.527,287.794,22.527z"/>
<g>
	<path stroke="#000000" stroke-width="6" stroke-linecap="square" stroke-miterlimit="10" d="M128.058,5.641"/>
	<g>
		<line x1="282.776" y1="5.641" x2="282.776" y2="19.242"/>
		<rect x="281.502" y="4.365" width="2.55" height="16.152"/>
	</g>
	<g>
		<line x1="253.303" y1="7.72" x2="254.725" y2="21.247"/>
		
			<rect x="245.937" y="13.209" transform="matrix(0.1045 0.9945 -0.9945 0.1045 241.8656 -239.6522)" width="16.153" height="2.55"/>
	</g>
	<g>
		<line x1="224.208" y1="12.869" x2="227.036" y2="26.174"/>
		
			<rect x="217.546" y="18.246" transform="matrix(0.2079 0.9781 -0.9781 0.2079 197.8034 -205.2289)" width="16.152" height="2.551"/>
	</g>
	<g>
		<line x1="195.811" y1="21.03" x2="200.014" y2="33.967"/>
		<rect x="189.836" y="26.224" transform="matrix(0.3091 0.951 -0.951 0.3091 162.899 -169.2228)" width="16.153" height="2.551"/>
	</g>
	<g>
		<line x1="168.422" y1="32.116" x2="173.954" y2="44.542"/>
		
			<rect x="163.112" y="37.054" transform="matrix(0.4068 0.9135 -0.9135 0.4068 136.5699 -133.6481)" width="16.153" height="2.55"/>
	</g>
	<g>
		<line x1="142.342" y1="46.004" x2="149.143" y2="57.783"/>
		<rect x="137.666" y="50.619" transform="matrix(0.5 0.866 -0.866 0.5 117.8045 -100.2682)" width="16.153" height="2.55"/>
	</g>
	<g>
		<line x1="117.856" y1="62.541" x2="125.851" y2="73.545"/>
		<rect x="113.777" y="66.768" transform="matrix(0.5878 0.809 -0.809 0.5878 105.2766 -70.5331)" width="16.152" height="2.55"/>
	</g>
	<g>
		<line x1="95.233" y1="81.547" x2="104.336" y2="91.655"/>
		<rect x="91.709" y="85.326" transform="matrix(0.6692 0.7431 -0.7431 0.6692 97.3659 -45.5007)" width="16.152" height="2.551"/>
	</g>
	<g>
		<line x1="74.722" y1="102.814" x2="84.83" y2="111.916"/>
		<rect x="71.7" y="106.09" transform="matrix(0.7432 0.6691 -0.6691 0.7432 92.3275 -25.8036)" width="16.152" height="2.55"/>
	</g>
	<g>
		<line x1="56.545" y1="126.109" x2="67.55" y2="134.104"/>
		<rect x="53.971" y="128.831" transform="matrix(0.8091 0.5877 -0.5877 0.8091 88.3129 -11.6246)" width="16.152" height="2.551"/>
	</g>
	<g>
		<line x1="40.903" y1="151.176" x2="52.683" y2="157.977"/>
		<rect x="38.717" y="153.301" transform="matrix(0.866 0.5 -0.5 0.866 83.5576 -2.6871)" width="16.152" height="2.551"/>
	</g>
	<g>
		<line x1="27.967" y1="177.74" x2="40.393" y2="183.272"/>
		<rect x="26.104" y="179.231" transform="matrix(0.9136 0.4067 -0.4067 0.9136 76.3694 1.7025)" width="16.152" height="2.55"/>
	</g>
	<g>
		<line x1="17.878" y1="205.512" x2="30.814" y2="209.715"/>
		<rect x="16.27" y="206.338" transform="matrix(0.9511 0.309 -0.309 0.9511 65.3489 2.6382)" width="16.152" height="2.55"/>
	</g>
	<g>
		<line x1="10.748" y1="234.186" x2="24.052" y2="237.014"/>
		<rect x="9.324" y="234.324" transform="matrix(0.9782 0.2079 -0.2079 0.9782 49.3547 1.5295)" width="16.152" height="2.551"/>
	</g>
	<g>
		<line x1="6.653" y1="263.447" x2="20.181" y2="264.869"/>
		<rect x="5.341" y="262.883" transform="matrix(0.9945 0.1045 -0.1045 0.9945 27.6864 0.0446)" width="16.153" height="2.55"/>
	</g>
	<g>
		<line x1="5.641" y1="292.978" x2="19.242" y2="292.978"/>
		<rect x="4.365" y="291.703" width="16.152" height="2.55"/>
	</g>
	<g>
		<line x1="7.72" y1="322.451" x2="21.247" y2="321.029"/>
		<rect x="13.208" y="313.664" transform="matrix(0.1045 0.9945 -0.9945 0.1045 332.9459 273.7)" width="2.55" height="16.153"/>
	</g>
	<g>
		<line x1="12.868" y1="351.546" x2="26.173" y2="348.719"/>
		<rect x="18.245" y="342.056" transform="matrix(0.208 0.9781 -0.9781 0.208 357.938 258.2235)" width="2.55" height="16.153"/>
	</g>
	<g>
		<line x1="21.029" y1="379.943" x2="33.966" y2="375.741"/>
		<rect x="26.222" y="369.766" transform="matrix(0.309 0.9511 -0.9511 0.309 378.3545 234.9427)" width="2.551" height="16.152"/>
	</g>
	<g>
		<line x1="32.115" y1="407.333" x2="44.541" y2="401.801"/>
		<rect x="37.053" y="396.491" transform="matrix(0.4066 0.9136 -0.9136 0.4066 392.3523 205.0418)" width="2.55" height="16.152"/>
	</g>
	<g>
		<line x1="46.002" y1="433.413" x2="57.782" y2="426.612"/>
		
			<rect x="50.617" y="421.936" transform="matrix(0.4999 0.8661 -0.8661 0.4999 398.3819 170.1121)" width="2.549" height="16.152"/>
	</g>
	<g>
		<line x1="62.54" y1="457.898" x2="73.544" y2="449.903"/>
		<rect x="66.767" y="445.825" transform="matrix(0.5877 0.8091 -0.8091 0.5877 395.2839 132.0804)" width="2.55" height="16.152"/>
	</g>
	<g>
		<line x1="81.547" y1="480.521" x2="91.655" y2="471.42"/>
		<rect x="85.325" y="467.894" transform="matrix(0.6692 0.7431 -0.7431 0.6692 382.3366 93.1027)" width="2.551" height="16.152"/>
	</g>
	<g>
		<line x1="102.813" y1="501.033" x2="111.915" y2="490.926"/>
		<rect x="106.089" y="487.904" transform="matrix(0.7429 0.6694 -0.6694 0.7429 359.617 55.6486)" width="2.55" height="16.152"/>
	</g>
	<g>
		<line x1="126.108" y1="519.21" x2="134.104" y2="508.205"/>
		<rect x="128.831" y="505.632" transform="matrix(0.8091 0.5877 -0.5877 0.8091 326.7636 21.6214)" width="2.55" height="16.152"/>
	</g>
	<g>
		<line x1="151.175" y1="534.852" x2="157.977" y2="523.072"/>
		<rect x="153.301" y="520.886" transform="matrix(0.8659 0.5002 -0.5002 0.8659 285.3011 -6.3933)" width="2.55" height="16.152"/>
	</g>
	<g>
		<line x1="177.739" y1="547.788" x2="183.272" y2="535.361"/>
		
			<rect x="179.231" y="533.498" transform="matrix(0.9136 0.4067 -0.4067 0.9136 235.8376 -26.6014)" width="2.551" height="16.154"/>
	</g>
	<g>
		<line x1="205.512" y1="557.877" x2="209.715" y2="544.94"/>
		<rect x="206.338" y="543.333" transform="matrix(0.951 0.3093 -0.3093 0.951 180.741 -37.1766)" width="2.551" height="16.152"/>
	</g>
	<g>
		<line x1="234.186" y1="565.008" x2="237.014" y2="551.703"/>
		<rect x="234.325" y="550.279" transform="matrix(0.9781 0.208 -0.208 0.9781 121.2692 -36.7887)" width="2.55" height="16.152"/>
	</g>
	<g>
		<line x1="263.447" y1="569.102" x2="264.869" y2="555.574"/>
		<rect x="262.883" y="554.261" transform="matrix(0.9945 0.1045 -0.1045 0.9945 60.2379 -24.5352)" width="2.55" height="16.153"/>
	</g>
	<g>
		<line x1="292.977" y1="570.115" x2="292.977" y2="556.512"/>
		<rect x="291.702" y="555.237" width="2.55" height="16.153"/>
	</g>
	<g>
		<line x1="322.451" y1="568.036" x2="321.029" y2="554.508"/>
		
			<rect x="313.664" y="559.996" transform="matrix(0.1045 0.9945 -0.9945 0.1045 846.3049 182.6235)" width="16.153" height="2.55"/>
	</g>
	<g>
		<line x1="351.547" y1="562.887" x2="348.718" y2="549.582"/>
		<rect x="342.056" y="554.959" transform="matrix(0.2079 0.9781 -0.9781 0.2079 821.4136 98.1043)" width="16.153" height="2.55"/>
	</g>
	<g>
		<line x1="379.943" y1="554.726" x2="375.74" y2="541.789"/>
		<rect x="369.766" y="546.982" transform="matrix(0.309 0.9511 -0.9511 0.309 782.5156 19.4943)" width="16.153" height="2.551"/>
	</g>
	<g>
		<line x1="407.333" y1="543.641" x2="401.801" y2="531.213"/>
		<rect x="396.49" y="536.152" transform="matrix(0.4067 0.9136 -0.9136 0.4067 731.0064 -50.7385)" width="16.153" height="2.55"/>
	</g>
	<g>
		<line x1="433.414" y1="529.753" x2="426.611" y2="517.972"/>
		<rect x="421.936" y="522.588" transform="matrix(0.5 0.866 -0.866 0.5 668.7024 -110.4634)" width="16.153" height="2.55"/>
	</g>
	<g>
		<line x1="457.899" y1="513.215" x2="449.903" y2="502.209"/>
		<rect x="445.824" y="506.437" transform="matrix(0.5878 0.809 -0.809 0.5878 597.8616 -157.9256)" width="16.155" height="2.55"/>
	</g>
	<g>
		<line x1="480.521" y1="494.209" x2="471.419" y2="484.099"/>
		
			<rect x="467.893" y="487.879" transform="matrix(0.669 0.7432 -0.7432 0.669 521.0735 -191.8636)" width="16.154" height="2.549"/>
	</g>
	<g>
		<line x1="501.034" y1="472.941" x2="490.925" y2="463.839"/>
		
			<rect x="487.902" y="467.114" transform="matrix(0.7431 0.6691 -0.6691 0.7431 440.8189 -211.5672)" width="16.154" height="2.551"/>
	</g>
	<g>
		<line x1="519.211" y1="449.647" x2="508.206" y2="441.65"/>
		<rect x="505.632" y="444.373" transform="matrix(0.809 0.5878 -0.5878 0.809 360.0909 -216.847)" width="16.153" height="2.55"/>
	</g>
	<g>
		<line x1="534.852" y1="424.58" x2="523.072" y2="417.778"/>
		<rect x="520.886" y="419.904" transform="matrix(0.866 0.5 -0.5 0.866 281.4924 -208.0681)" width="16.153" height="2.55"/>
	</g>
	<g>
		<line x1="547.79" y1="398.015" x2="535.362" y2="392.482"/>
		
			<rect x="533.499" y="393.974" transform="matrix(0.9135 0.4067 -0.4067 0.9135 207.5886 -186.1105)" width="16.153" height="2.55"/>
	</g>
	<g>
		<line x1="557.878" y1="370.243" x2="544.94" y2="366.04"/>
		
			<rect x="543.332" y="366.866" transform="matrix(0.9511 0.309 -0.309 0.9511 140.7334 -152.3636)" width="16.154" height="2.552"/>
	</g>
	<g>
		<line x1="565.009" y1="341.569" x2="551.703" y2="338.741"/>
		<rect x="550.279" y="338.88" transform="matrix(0.9781 0.2079 -0.2079 0.9781 82.925 -108.6568)" width="16.153" height="2.551"/>
	</g>
	<g>
		<line x1="569.102" y1="312.308" x2="555.574" y2="310.886"/>
		<rect x="554.262" y="310.322" transform="matrix(0.9945 0.1045 -0.1045 0.9945 35.6525 -57.0751)" width="16.153" height="2.55"/>
	</g>
	<g>
		<line x1="570.115" y1="282.778" x2="556.513" y2="282.777"/>
		<rect x="555.237" y="281.502" width="16.153" height="2.551"/>
	</g>
	<g>
		<line x1="568.037" y1="253.304" x2="554.508" y2="254.725"/>
		
			<rect x="559.997" y="245.937" transform="matrix(0.1045 0.9945 -0.9945 0.1045 755.2157 -330.7387)" width="2.55" height="16.154"/>
	</g>
	<g>
		<line x1="562.888" y1="224.209" x2="549.582" y2="227.036"/>
		<rect x="554.96" y="217.545" transform="matrix(0.208 0.9781 -0.9781 0.208 661.2419 -365.3737)" width="2.55" height="16.154"/>
	</g>
	<g>
		<line x1="554.727" y1="195.811" x2="541.788" y2="200.014"/>
		
			<rect x="546.982" y="189.835" transform="matrix(0.3086 0.9512 -0.9512 0.3086 567.2994 -384.6617)" width="2.55" height="16.155"/>
	</g>
	<g>
		<line x1="543.642" y1="168.422" x2="531.213" y2="173.954"/>
		
			<rect x="536.152" y="163.111" transform="matrix(0.407 0.9134 -0.9134 0.407 475.0888 -389.3896)" width="2.551" height="16.154"/>
	</g>
	<g>
		<line x1="529.753" y1="142.342" x2="517.972" y2="149.143"/>
		
			<rect x="522.587" y="137.666" transform="matrix(0.4998 0.8662 -0.8662 0.4998 388.2902 -380.8434)" width="2.55" height="16.153"/>
	</g>
	<g>
		<line x1="513.216" y1="117.856" x2="502.21" y2="125.852"/>
		
			<rect x="506.438" y="113.777" transform="matrix(0.5877 0.8091 -0.8091 0.5877 307.9024 -360.5323)" width="2.55" height="16.154"/>
	</g>
	<g>
		<line x1="494.21" y1="95.233" x2="484.1" y2="104.335"/>
		<rect x="487.879" y="91.708" transform="matrix(0.669 0.7433 -0.7433 0.669 236.0759 -330.5415)" width="2.55" height="16.153"/>
	</g>
	<g>
		<line x1="472.942" y1="74.722" x2="463.839" y2="84.83"/>
		
			<rect x="467.115" y="71.699" transform="matrix(0.7431 0.6692 -0.6692 0.7431 173.7199 -292.9481)" width="2.551" height="16.153"/>
	</g>
	<g>
		<line x1="449.647" y1="56.545" x2="441.65" y2="67.549"/>
		<rect x="444.375" y="53.97" transform="matrix(0.8089 0.5879 -0.5879 0.8089 121.6318 -250.1483)" width="2.55" height="16.153"/>
	</g>
	<g>
		<line x1="424.58" y1="40.902" x2="417.777" y2="52.683"/>
		<rect x="419.904" y="38.716" transform="matrix(0.8659 0.5002 -0.5002 0.8659 79.8753 -204.3912)" width="2.55" height="16.153"/>
	</g>
	<g>
		<line x1="398.015" y1="27.966" x2="392.481" y2="40.393"/>
		<rect x="393.973" y="26.103" transform="matrix(0.9134 0.4071 -0.4071 0.9134 48.1426 -157.9329)" width="2.55" height="16.153"/>
	</g>
	<g>
		<line x1="370.244" y1="17.877" x2="366.039" y2="30.814"/>
		<rect x="366.867" y="16.269" transform="matrix(0.951 0.3091 -0.3091 0.951 25.5534 -112.6004)" width="2.55" height="16.153"/>
	</g>
	<g>
		<line x1="341.569" y1="10.746" x2="338.741" y2="24.052"/>
		<rect x="338.88" y="9.323" transform="matrix(0.9781 0.2079 -0.2079 0.9781 11.0528 -70.35)" width="2.55" height="16.153"/>
	</g>
	<g>
		<line x1="312.308" y1="6.652" x2="310.885" y2="20.181"/>
		<rect x="310.321" y="5.34" transform="matrix(0.9945 0.1045 -0.1045 0.9945 3.1102 -32.5026)" width="2.55" height="16.153"/>
	</g>
</g>
<path d="M286.96,485.421c-26.811,0-52.82-5.251-77.307-15.608c-23.65-10.003-44.89-24.323-63.129-42.562
	c-18.238-18.239-32.559-39.478-42.562-63.128c-10.356-24.487-15.608-50.497-15.608-77.308s5.252-52.82,15.608-77.307
	c10.003-23.65,24.323-44.889,42.562-63.128c18.239-18.238,39.479-32.559,63.129-42.562c24.486-10.357,50.496-15.608,77.307-15.608
	c26.811,0,52.82,5.251,77.307,15.608c23.65,10.003,44.89,24.323,63.129,42.562c18.238,18.239,32.559,39.479,42.562,63.128
	c10.356,24.486,15.608,50.496,15.608,77.307s-5.252,52.82-15.608,77.308c-10.003,23.649-24.323,44.889-42.562,63.128
	c-18.239,18.238-39.478,32.559-63.129,42.562C339.78,480.17,313.77,485.421,286.96,485.421z M286.96,92.887
	c-106.934,0-193.93,86.996-193.93,193.929c0,106.934,86.996,193.931,193.93,193.931s193.93-86.997,193.93-193.931
	C480.89,179.883,393.893,92.887,286.96,92.887z"/>
<g>
	<g>
		<path d="M150.266,85.098l-0.94-6.607c-0.464-3.123-0.854-4.916-1.174-5.379c-0.281-0.407-0.794-0.526-1.537-0.357
			c-0.652,0.135-1.266-0.216-1.842-1.051c-0.644-0.932-1.008-1.554-1.095-1.867c-0.087-0.312,0.073-0.609,0.481-0.891l6.755-4.66
			c0.485-0.335,0.909-0.24,1.271,0.284l1.427,2.067c0.269,0.389,0.25,0.945-0.052,1.67c-0.303,0.725-0.422,1.278-0.357,1.663
			l3.25,19.632l21.983,16.006c0.662,0.461,1.106,0.741,1.334,0.843c0.227,0.101,0.608,0.124,1.145,0.069
			c0.64-0.068,1.104-0.038,1.395,0.091c0.29,0.13,0.643,0.496,1.058,1.098c0.604,0.873,0.959,1.545,1.068,2.015
			c0.108,0.47-0.07,0.864-0.536,1.187l-12.319,8.499c-0.622,0.429-1.119,0.371-1.495-0.173l-1.285-1.864
			c-0.402-0.582-0.438-1.217-0.107-1.903c0.367-0.797,0.396-1.42,0.088-1.867c-0.388-0.562-0.95-1.106-1.685-1.632l-7.89-5.734
			l1.661,10.035c0.197,1.325,0.45,2.21,0.758,2.656c0.254,0.369,0.895,0.529,1.919,0.48c0.222-0.009,0.429,0.013,0.622,0.065
			c0.194,0.053,0.632,0.574,1.315,1.564c0.59,0.854,0.895,1.389,0.914,1.604s-0.155,0.451-0.524,0.705l-7.019,4.843
			c-0.603,0.415-1.09,0.351-1.466-0.193l-1.486-2.154c-0.228-0.33-0.142-0.892,0.258-1.683c0.337-0.634,0.509-1.226,0.517-1.775
			c0.008-0.549-0.111-1.542-0.356-2.978l-3.09-17.516l-21.871-15.896c-0.776-0.585-1.741-0.924-2.895-1.019
			c-0.537-0.03-0.906-0.191-1.107-0.482l-1.226-1.777c-0.415-0.602-0.244-1.164,0.515-1.687l12.214-8.427
			c0.486-0.335,0.924-0.221,1.312,0.342l1.387,2.01c0.361,0.524,0.335,1.087-0.081,1.689c-0.441,0.648-0.534,1.157-0.28,1.525
			c0.335,0.485,0.946,1.039,1.833,1.659L150.266,85.098z"/>
		<path d="M160.958,62.08l-0.857-1.668c-0.334-0.649-0.154-1.153,0.537-1.509l15.075-7.746c0.566-0.291,0.971-0.406,1.215-0.346
			c0.243,0.061,0.554,0.458,0.931,1.192c0.571,1.112,0.869,1.834,0.895,2.166c0.024,0.332-0.146,0.632-0.513,0.899
			c-1.183,0.899-1.406,2.062-0.674,3.489l19.438,37.827c0.41,0.798,1.206,1.185,2.387,1.161c0.76-0.019,1.262,0.055,1.506,0.221
			c0.245,0.166,0.513,0.532,0.804,1.099l0.63,1.228c0.346,0.672,0.477,1.081,0.394,1.229c-0.082,0.149-0.387,0.358-0.911,0.628
			l-15.357,7.892c-0.588,0.302-0.999,0.222-1.236-0.24c-0.776-1.51-1.199-2.46-1.267-2.85s0.165-0.841,0.697-1.353
			c0.972-0.897,1.23-1.786,0.778-2.668l-19.196-37.355c-0.453-0.881-0.9-1.493-1.342-1.837c-0.441-0.343-1.095-0.478-1.959-0.405
			c-0.643,0.039-1.068-0.001-1.275-0.12S161.217,62.583,160.958,62.08z"/>
	</g>
	<g>
		<path d="M67.733,180.523l-4.118-5.253c-1.964-2.472-3.198-3.829-3.706-4.069c-0.448-0.213-0.951-0.06-1.51,0.457
			c-0.498,0.443-1.205,0.447-2.121,0.012c-1.022-0.485-1.649-0.841-1.882-1.069c-0.231-0.228-0.241-0.565-0.028-1.012l3.52-7.414
			c0.253-0.532,0.668-0.662,1.243-0.39l2.269,1.078c0.427,0.202,0.689,0.693,0.79,1.472c0.101,0.779,0.274,1.318,0.522,1.618
			l12.631,15.378l27.041,2.869c0.804,0.068,1.328,0.09,1.576,0.063c0.247-0.026,0.59-0.197,1.026-0.513
			c0.521-0.379,0.938-0.586,1.253-0.618c0.316-0.033,0.805,0.108,1.466,0.421c0.958,0.455,1.603,0.858,1.932,1.212
			c0.328,0.351,0.372,0.782,0.129,1.294l-6.419,13.521c-0.324,0.682-0.784,0.881-1.381,0.598l-2.046-0.972
			c-0.64-0.304-0.987-0.836-1.045-1.595c-0.08-0.874-0.366-1.429-0.856-1.661c-0.618-0.293-1.377-0.483-2.275-0.57l-9.7-1.022
			l6.456,7.861c0.833,1.049,1.495,1.688,1.984,1.921c0.405,0.192,1.039,0.012,1.902-0.544c0.188-0.118,0.378-0.203,0.572-0.255
			c0.193-0.051,0.834,0.183,1.921,0.698c0.938,0.444,1.469,0.755,1.594,0.933c0.125,0.177,0.091,0.469-0.102,0.872l-3.657,7.704
			c-0.313,0.66-0.769,0.848-1.365,0.564l-2.365-1.121c-0.362-0.173-0.568-0.702-0.618-1.588c-0.024-0.717-0.172-1.314-0.44-1.795
			c-0.268-0.479-0.867-1.279-1.797-2.4l-11.434-13.624l-26.889-2.831c-0.965-0.118-1.97,0.071-3.017,0.566
			c-0.48,0.242-0.88,0.287-1.2,0.135l-1.949-0.925c-0.66-0.313-0.794-0.887-0.398-1.719l6.364-13.405
			c0.253-0.533,0.689-0.653,1.307-0.359l2.206,1.047c0.575,0.273,0.834,0.774,0.774,1.504c-0.058,0.782,0.116,1.27,0.521,1.461
			c0.532,0.253,1.338,0.427,2.416,0.521L67.733,180.523z"/>
	</g>
	<g>
		<path d="M30.697,312.796l-1.871,0.122c-0.729,0.047-1.12-0.318-1.17-1.095l-1.096-16.913c-0.042-0.636,0.015-1.053,0.167-1.251
			c0.152-0.2,0.642-0.325,1.465-0.379c1.248-0.081,2.028-0.066,2.343,0.043c0.314,0.11,0.521,0.387,0.62,0.828
			c0.354,1.443,1.332,2.112,2.932,2.009l42.441-2.751c0.895-0.059,1.567-0.634,2.016-1.727c0.286-0.704,0.552-1.136,0.803-1.293
			c0.25-0.158,0.692-0.258,1.328-0.299l1.377-0.089c0.754-0.05,1.182-0.006,1.285,0.129s0.174,0.498,0.213,1.086l1.115,17.23
			c0.044,0.659-0.194,1.005-0.713,1.039c-1.695,0.109-2.733,0.118-3.118,0.024c-0.384-0.093-0.705-0.486-0.963-1.179
			c-0.435-1.248-1.147-1.84-2.136-1.776l-41.911,2.718c-0.989,0.063-1.729,0.229-2.22,0.498c-0.491,0.268-0.874,0.813-1.152,1.635
			c-0.221,0.605-0.427,0.979-0.619,1.121C31.643,312.67,31.264,312.76,30.697,312.796z"/>
		<path d="M43.96,269.101l-5.768-3.357c-2.738-1.571-4.388-2.375-4.948-2.411c-0.495-0.033-0.906,0.295-1.233,0.983
			c-0.299,0.596-0.955,0.86-1.967,0.795c-1.13-0.073-1.845-0.173-2.145-0.299c-0.298-0.125-0.432-0.435-0.4-0.93l0.53-8.189
			c0.038-0.588,0.375-0.862,1.011-0.821l2.507,0.162c0.472,0.031,0.896,0.39,1.277,1.076c0.382,0.687,0.743,1.123,1.084,1.311
			l17.421,9.618l26.187-7.332c0.771-0.233,1.267-0.409,1.487-0.524s0.475-0.4,0.765-0.854c0.343-0.546,0.655-0.892,0.936-1.039
			c0.281-0.146,0.788-0.196,1.518-0.149c1.058,0.068,1.806,0.205,2.242,0.41c0.436,0.206,0.635,0.591,0.599,1.156l-0.966,14.936
			c-0.049,0.754-0.402,1.108-1.062,1.065l-2.259-0.146c-0.706-0.046-1.226-0.411-1.561-1.096c-0.398-0.782-0.868-1.191-1.41-1.227
			c-0.683-0.045-1.458,0.06-2.325,0.311l-9.391,2.638l8.904,4.916c1.163,0.667,2.015,1.017,2.556,1.052
			c0.446,0.029,0.97-0.374,1.566-1.209c0.13-0.18,0.275-0.328,0.436-0.447c0.162-0.119,0.844-0.141,2.044-0.062
			c1.035,0.066,1.645,0.159,1.825,0.277c0.182,0.118,0.258,0.401,0.229,0.848l-0.551,8.51c-0.046,0.73-0.399,1.073-1.059,1.03
			l-2.612-0.168c-0.4-0.026-0.788-0.441-1.161-1.245c-0.288-0.657-0.646-1.159-1.072-1.506c-0.426-0.347-1.279-0.868-2.558-1.566
			l-15.661-8.432l-26.028,7.312c-0.941,0.246-1.805,0.793-2.596,1.641c-0.355,0.402-0.712,0.592-1.064,0.568l-2.153-0.139
			c-0.729-0.047-1.065-0.529-1.005-1.448l0.957-14.809c0.038-0.59,0.398-0.862,1.081-0.817l2.436,0.157
			c0.637,0.041,1.062,0.411,1.276,1.11c0.235,0.748,0.577,1.137,1.023,1.166c0.589,0.037,1.401-0.099,2.438-0.41L43.96,269.101z"/>
	</g>
	<g>
		<path d="M99.039,411.616l-25.584,11.043c-0.222,0.096-0.439,0.217-0.653,0.365c-0.779,0.537-1.061,1.461-0.846,2.775
			c0.121,0.834,0.036,1.35-0.253,1.549c-0.135,0.094-0.276,0.178-0.425,0.25l-0.462,0.32c-0.867,0.598-1.44,0.93-1.723,0.994
			c-0.281,0.066-0.557-0.094-0.823-0.482l-4.97-7.201c-0.227-0.33-0.271-0.592-0.136-0.785c0.136-0.195,0.59-0.559,1.36-1.09
			c0.906-0.625,1.479-0.99,1.717-1.098c0.239-0.107,0.507-0.092,0.802,0.049c0.791,0.314,1.381,0.451,1.77,0.412
			s1.236-0.338,2.543-0.895l43.091-18.533l2.624-1.123c0.24-0.107,0.488,0.021,0.742,0.391l4.036,5.85
			c0.174,0.252,0.191,0.527,0.052,0.824c-0.139,0.297-0.764,1.014-1.872,2.15l-33.464,34.295c-0.851,0.844-1.238,1.799-1.163,2.865
			c0.037,0.549,0.022,0.908-0.043,1.082c-0.064,0.174-0.299,0.4-0.704,0.68c-0.135,0.094-0.276,0.178-0.425,0.25
			c-0.226,0.127-0.435,0.258-0.628,0.391c-0.135,0.092-0.253,0.189-0.355,0.289l-0.405,0.279c-0.636,0.438-1.114,0.424-1.437-0.043
			l-9.137-13.242c-0.308-0.447-0.058-0.949,0.751-1.508c0.019-0.014,0.591-0.379,1.716-1.098c0.277-0.133,0.63-0.076,1.057,0.174
			c0.997,0.574,1.94,0.553,2.832-0.062c0.213-0.146,0.436-0.344,0.666-0.59L99.039,411.616z"/>
		<path d="M63.5,415.063l-1.659,0.873c-0.646,0.342-1.151,0.168-1.515-0.521l-7.897-14.996c-0.297-0.562-0.416-0.967-0.357-1.211
			c0.058-0.244,0.452-0.559,1.183-0.943c1.106-0.582,1.825-0.887,2.157-0.916c0.332-0.027,0.633,0.141,0.904,0.504
			c0.912,1.174,2.076,1.385,3.495,0.639l37.631-19.818c0.793-0.418,1.172-1.217,1.136-2.398c-0.025-0.76,0.043-1.262,0.206-1.508
			c0.164-0.246,0.527-0.518,1.091-0.814l1.221-0.643c0.668-0.352,1.077-0.488,1.227-0.406s0.361,0.383,0.636,0.904l8.046,15.277
			c0.309,0.584,0.232,0.998-0.227,1.24c-1.503,0.791-2.448,1.223-2.838,1.293c-0.389,0.072-0.842-0.156-1.359-0.684
			c-0.906-0.961-1.798-1.211-2.675-0.75l-37.161,19.57c-0.876,0.463-1.483,0.916-1.822,1.361s-0.468,1.1-0.387,1.963
			c0.046,0.643,0.01,1.068-0.107,1.275C64.311,414.563,64.001,414.8,63.5,415.063z"/>
		<path d="M53.092,394.96l-1.73,0.723c-0.674,0.283-1.162,0.066-1.463-0.652l-6.545-15.633c-0.246-0.588-0.329-1-0.25-1.238
			c0.08-0.238,0.5-0.518,1.262-0.836c1.153-0.482,1.896-0.723,2.229-0.723c0.334,0.002,0.619,0.195,0.857,0.582
			c0.805,1.248,1.946,1.562,3.426,0.943L90.106,361.7c0.827-0.346,1.275-1.109,1.344-2.287c0.041-0.76,0.153-1.254,0.338-1.484
			s0.57-0.469,1.158-0.715l1.272-0.533c0.697-0.293,1.116-0.391,1.257-0.297c0.143,0.094,0.327,0.414,0.555,0.957l6.668,15.928
			c0.256,0.609,0.144,1.014-0.335,1.215c-1.566,0.656-2.547,1.002-2.94,1.039s-0.825-0.23-1.294-0.801
			c-0.818-1.039-1.685-1.367-2.599-0.984l-38.74,16.221c-0.914,0.383-1.559,0.781-1.937,1.195c-0.376,0.412-0.562,1.053-0.557,1.92
			c-0.012,0.645-0.085,1.066-0.22,1.262C53.942,394.532,53.613,394.741,53.092,394.96z"/>
		<path d="M44.499,374.024l-1.786,0.568c-0.697,0.223-1.164-0.037-1.399-0.779l-5.141-16.15c-0.192-0.607-0.239-1.025-0.14-1.256
			c0.101-0.229,0.544-0.469,1.331-0.721c1.191-0.379,1.953-0.553,2.284-0.521c0.331,0.029,0.599,0.248,0.802,0.654
			c0.691,1.314,1.801,1.729,3.329,1.242l40.527-12.898c0.854-0.271,1.367-0.992,1.54-2.16c0.107-0.752,0.263-1.236,0.467-1.449
			c0.205-0.213,0.61-0.416,1.217-0.609l1.315-0.42c0.72-0.229,1.146-0.289,1.278-0.184c0.133,0.107,0.288,0.441,0.467,1.002
			l5.237,16.455c0.2,0.629,0.053,1.021-0.441,1.18c-1.618,0.516-2.625,0.773-3.021,0.775s-0.802-0.303-1.219-0.912
			c-0.724-1.105-1.558-1.51-2.501-1.209L48.625,369.37c-0.944,0.299-1.622,0.639-2.034,1.018c-0.411,0.379-0.652,1-0.725,1.865
			c-0.068,0.641-0.178,1.053-0.33,1.236C45.385,373.675,45.039,373.853,44.499,374.024z"/>
	</g>
	<g>
		<path d="M186.63,488.909l-16.637,22.355c-0.144,0.193-0.271,0.406-0.384,0.643c-0.405,0.855-0.187,1.797,0.655,2.826
			c0.522,0.662,0.707,1.15,0.557,1.469c-0.07,0.148-0.151,0.291-0.243,0.43l-0.241,0.506c-0.451,0.951-0.781,1.527-0.993,1.725
			c-0.211,0.197-0.529,0.195-0.954-0.006l-7.905-3.754c-0.361-0.172-0.531-0.375-0.51-0.611c0.021-0.236,0.231-0.777,0.634-1.623
			c0.472-0.996,0.785-1.598,0.938-1.811c0.153-0.213,0.393-0.332,0.719-0.357c0.841-0.125,1.421-0.301,1.738-0.529
			c0.318-0.227,0.902-0.908,1.755-2.045l28.052-37.596l1.711-2.285c0.154-0.213,0.434-0.225,0.838-0.033l6.421,3.049
			c0.276,0.131,0.429,0.361,0.456,0.688c0.028,0.326-0.154,1.26-0.545,2.799l-11.834,46.432c-0.314,1.156-0.173,2.178,0.426,3.062
			c0.306,0.457,0.474,0.777,0.504,0.959c0.03,0.184-0.06,0.498-0.271,0.941c-0.07,0.148-0.151,0.293-0.243,0.43
			c-0.132,0.223-0.248,0.439-0.348,0.65c-0.07,0.148-0.125,0.291-0.164,0.428l-0.211,0.445c-0.332,0.697-0.754,0.926-1.266,0.682
			l-14.534-6.9c-0.49-0.232-0.524-0.793-0.104-1.68c0.01-0.021,0.322-0.625,0.937-1.811c0.174-0.254,0.508-0.379,1.003-0.377
			c1.149,0,1.956-0.492,2.421-1.471c0.111-0.234,0.205-0.516,0.283-0.842L186.63,488.909z"/>
		<path d="M155.347,508.358l-1.016,1.576c-0.396,0.613-0.922,0.711-1.576,0.289l-14.246-9.182c-0.535-0.346-0.837-0.639-0.906-0.879
			s0.12-0.709,0.567-1.402c0.677-1.051,1.153-1.67,1.429-1.857s0.62-0.189,1.035-0.006c1.37,0.572,2.489,0.188,3.357-1.162
			l23.041-35.748c0.486-0.754,0.423-1.637-0.188-2.648c-0.396-0.646-0.583-1.119-0.562-1.414s0.205-0.709,0.551-1.244l0.747-1.16
			c0.409-0.635,0.698-0.953,0.868-0.955c0.17-0.004,0.504,0.154,0.999,0.477l14.513,9.354c0.556,0.357,0.692,0.754,0.411,1.189
			c-0.92,1.428-1.531,2.27-1.835,2.521c-0.304,0.254-0.811,0.277-1.521,0.072c-1.263-0.393-2.161-0.172-2.698,0.66l-22.753,35.303
			c-0.537,0.832-0.843,1.525-0.92,2.08c-0.076,0.555,0.134,1.188,0.628,1.9c0.355,0.537,0.533,0.926,0.533,1.164
			C155.807,507.524,155.653,507.882,155.347,508.358z"/>
		<path d="M134.318,494.444l-1.165,1.469c-0.455,0.572-0.987,0.617-1.597,0.133l-13.275-10.535
			c-0.499-0.396-0.771-0.717-0.816-0.965c-0.045-0.246,0.188-0.693,0.702-1.34c0.777-0.98,1.312-1.549,1.604-1.707
			c0.293-0.16,0.637-0.127,1.031,0.096c1.308,0.705,2.459,0.43,3.456-0.826l26.438-33.314c0.558-0.701,0.581-1.586,0.072-2.652
			c-0.33-0.684-0.471-1.172-0.42-1.465c0.051-0.291,0.273-0.686,0.669-1.184l0.858-1.08c0.469-0.592,0.788-0.881,0.958-0.867
			c0.169,0.016,0.485,0.205,0.947,0.572l13.524,10.732c0.518,0.412,0.615,0.818,0.293,1.225c-1.057,1.332-1.747,2.107-2.074,2.33
			s-0.834,0.197-1.52-0.076c-1.219-0.516-2.135-0.385-2.751,0.393l-26.108,32.898c-0.615,0.775-0.988,1.436-1.119,1.979
			c-0.131,0.545,0.016,1.195,0.438,1.951c0.301,0.57,0.439,0.975,0.416,1.213C134.858,493.659,134.671,494.001,134.318,494.444z"/>
	</g>
	<g>
		<path d="M301.136,511.976l-3.23,27.678c-0.027,0.239-0.031,0.489-0.01,0.749c0.074,0.943,0.734,1.648,1.98,2.119
			c0.783,0.312,1.188,0.644,1.217,0.994c0.012,0.163,0.014,0.327,0.002,0.492l0.047,0.561c0.084,1.049,0.084,1.713,0,1.989
			c-0.082,0.277-0.359,0.435-0.83,0.472l-8.721,0.703c-0.398,0.031-0.648-0.061-0.748-0.275c-0.102-0.215-0.189-0.789-0.264-1.723
			c-0.088-1.097-0.119-1.775-0.092-2.036c0.025-0.261,0.174-0.484,0.441-0.669c0.668-0.528,1.082-0.971,1.244-1.326
			c0.16-0.356,0.324-1.24,0.494-2.65l5.498-46.584l0.338-2.834c0.027-0.263,0.264-0.412,0.709-0.447l7.086-0.57
			c0.305-0.025,0.551,0.098,0.738,0.366s0.496,1.168,0.926,2.696l12.969,46.128c0.307,1.159,0.939,1.973,1.9,2.44
			c0.494,0.242,0.797,0.435,0.916,0.578s0.197,0.46,0.236,0.95c0.012,0.163,0.016,0.328,0.004,0.493
			c-0.002,0.259,0.006,0.504,0.023,0.738c0.014,0.162,0.037,0.313,0.072,0.452l0.039,0.491c0.062,0.77-0.189,1.178-0.754,1.223
			l-16.037,1.291c-0.541,0.044-0.852-0.424-0.93-1.403c-0.002-0.023-0.033-0.702-0.094-2.035c0.023-0.307,0.25-0.583,0.68-0.829
			c0.994-0.575,1.449-1.403,1.361-2.483c-0.021-0.258-0.08-0.548-0.178-0.872L301.136,511.976z"/>
		<path d="M283.765,544.459l-0.091,1.873c-0.036,0.729-0.442,1.076-1.221,1.038l-16.928-0.828c-0.636-0.031-1.043-0.135-1.225-0.309
			c-0.181-0.174-0.25-0.673-0.209-1.497c0.06-1.25,0.164-2.023,0.308-2.324c0.146-0.299,0.442-0.474,0.894-0.522
			c1.474-0.188,2.249-1.083,2.328-2.685l2.078-42.48c0.045-0.896-0.45-1.628-1.485-2.198c-0.668-0.363-1.065-0.678-1.194-0.944
			c-0.128-0.267-0.177-0.717-0.146-1.353l0.068-1.379c0.036-0.754,0.127-1.175,0.273-1.262c0.146-0.088,0.515-0.116,1.104-0.088
			l17.245,0.844c0.661,0.033,0.977,0.308,0.952,0.826c-0.084,1.696-0.192,2.73-0.329,3.102c-0.136,0.371-0.563,0.646-1.279,0.823
			c-1.291,0.291-1.96,0.932-2.009,1.921l-2.052,41.949c-0.049,0.989,0.032,1.742,0.243,2.262c0.211,0.518,0.709,0.961,1.493,1.33
			c0.577,0.288,0.925,0.535,1.044,0.742C283.749,543.507,283.794,543.894,283.765,544.459z"/>
	</g>
	<g>
		<path d="M411.761,474.735l11.042,25.584c0.096,0.223,0.217,0.439,0.365,0.654c0.537,0.779,1.462,1.061,2.775,0.846
			c0.834-0.121,1.35-0.037,1.55,0.252c0.093,0.135,0.176,0.277,0.25,0.426l0.318,0.461c0.599,0.867,0.931,1.441,0.996,1.723
			s-0.095,0.557-0.482,0.824l-7.203,4.969c-0.329,0.227-0.591,0.271-0.784,0.137c-0.194-0.137-0.558-0.59-1.089-1.361
			c-0.625-0.906-0.991-1.479-1.099-1.717s-0.092-0.506,0.049-0.801c0.314-0.791,0.452-1.381,0.412-1.77
			c-0.038-0.389-0.337-1.236-0.895-2.543l-18.533-43.092l-1.123-2.623c-0.107-0.24,0.022-0.488,0.391-0.742l5.851-4.037
			c0.252-0.174,0.527-0.191,0.823-0.051c0.297,0.139,1.014,0.764,2.15,1.871l34.295,33.465c0.845,0.85,1.8,1.238,2.865,1.162
			c0.549-0.037,0.909-0.021,1.083,0.043s0.4,0.299,0.68,0.705c0.093,0.135,0.177,0.275,0.25,0.424
			c0.127,0.227,0.257,0.436,0.39,0.629c0.093,0.135,0.189,0.252,0.289,0.355l0.279,0.404c0.438,0.637,0.425,1.115-0.042,1.438
			l-13.243,9.137c-0.446,0.307-0.949,0.057-1.508-0.752c-0.013-0.018-0.379-0.59-1.098-1.715c-0.133-0.277-0.075-0.631,0.174-1.057
			c0.574-0.998,0.553-1.941-0.062-2.832c-0.147-0.213-0.343-0.436-0.589-0.666L411.761,474.735z"/>
	</g>
	<g>
		<path d="M526.609,381.435l1.719,0.752c0.67,0.293,0.849,0.796,0.537,1.51l-6.79,15.529c-0.255,0.582-0.496,0.928-0.723,1.035
			c-0.227,0.106-0.719-0.006-1.476-0.337c-1.146-0.501-1.833-0.872-2.062-1.113c-0.229-0.242-0.286-0.583-0.171-1.021
			c0.348-1.444-0.213-2.487-1.683-3.13l-38.968-17.037c-0.821-0.359-1.683-0.157-2.583,0.607c-0.577,0.494-1.013,0.755-1.307,0.78
			c-0.295,0.025-0.734-0.09-1.317-0.344l-1.265-0.553c-0.691-0.304-1.053-0.538-1.081-0.705c-0.03-0.167,0.073-0.521,0.31-1.062
			l6.917-15.82c0.265-0.605,0.635-0.804,1.11-0.596c1.556,0.68,2.483,1.149,2.782,1.408c0.298,0.259,0.403,0.756,0.313,1.489
			c-0.186,1.31,0.176,2.162,1.083,2.56l38.481,16.825c0.908,0.397,1.641,0.589,2.2,0.575c0.56-0.013,1.151-0.32,1.774-0.923
			c0.475-0.437,0.83-0.674,1.065-0.712S526.091,381.209,526.609,381.435z"/>
		<path d="M478.249,406.503l20.619,18.742c0.18,0.163,0.38,0.312,0.604,0.445c0.811,0.487,1.77,0.362,2.876-0.377
			c0.71-0.453,1.215-0.591,1.517-0.409c0.141,0.084,0.274,0.179,0.402,0.284l0.481,0.288c0.902,0.543,1.442,0.929,1.618,1.158
			c0.177,0.229,0.145,0.546-0.099,0.949l-4.509,7.5c-0.205,0.343-0.426,0.492-0.658,0.448c-0.233-0.044-0.752-0.308-1.554-0.79
			c-0.943-0.566-1.513-0.937-1.71-1.109c-0.196-0.174-0.292-0.423-0.286-0.75c-0.04-0.85-0.158-1.444-0.354-1.783
			c-0.195-0.337-0.818-0.985-1.865-1.946l-34.672-31.594l-2.106-1.926c-0.197-0.174-0.182-0.453,0.049-0.837l3.662-6.092
			c0.158-0.264,0.401-0.393,0.729-0.387c0.327,0.003,1.238,0.275,2.731,0.816l45.053,16.317c1.12,0.425,2.15,0.385,3.09-0.124
			c0.484-0.261,0.818-0.396,1.004-0.408c0.186-0.012,0.488,0.108,0.91,0.361c0.14,0.084,0.274,0.18,0.403,0.284
			c0.209,0.152,0.413,0.29,0.614,0.411c0.14,0.083,0.276,0.152,0.409,0.203l0.422,0.254c0.662,0.398,0.848,0.84,0.555,1.326
			l-8.288,13.79c-0.28,0.465-0.842,0.445-1.684-0.062c-0.02-0.013-0.59-0.383-1.708-1.109c-0.235-0.197-0.329-0.542-0.278-1.035
			c0.111-1.144-0.298-1.994-1.227-2.553c-0.222-0.134-0.492-0.255-0.811-0.364L478.249,406.503z"/>
	</g>
	<g>
		<path d="M541.827,248.907l1.863-0.208c0.727-0.082,1.134,0.265,1.22,1.038l1.885,16.844c0.07,0.632,0.034,1.052-0.108,1.258
			s-0.625,0.354-1.445,0.446c-1.243,0.139-2.024,0.161-2.343,0.066c-0.319-0.095-0.539-0.361-0.658-0.799
			c-0.422-1.425-1.429-2.047-3.022-1.869l-42.267,4.729c-0.891,0.101-1.535,0.707-1.933,1.818c-0.252,0.717-0.499,1.16-0.741,1.33
			c-0.242,0.169-0.68,0.289-1.313,0.359l-1.371,0.154c-0.75,0.084-1.18,0.061-1.289-0.069c-0.11-0.131-0.197-0.489-0.263-1.075
			l-1.92-17.159c-0.074-0.657,0.147-1.013,0.664-1.071c1.688-0.188,2.726-0.246,3.114-0.17c0.387,0.074,0.726,0.452,1.016,1.132
			c0.494,1.227,1.233,1.785,2.218,1.675l41.739-4.67c0.983-0.11,1.715-0.311,2.192-0.602s0.836-0.854,1.075-1.687
			c0.193-0.615,0.381-0.998,0.565-1.149C540.891,249.077,541.265,248.971,541.827,248.907z"/>
		<path d="M544.328,273.971l1.876-0.026c0.73-0.01,1.103,0.374,1.113,1.153l0.232,16.946c0.009,0.637-0.068,1.05-0.231,1.241
			s-0.656,0.292-1.482,0.304c-1.249,0.018-2.029-0.037-2.337-0.162c-0.308-0.126-0.502-0.413-0.578-0.859
			c-0.28-1.459-1.221-2.177-2.825-2.155l-42.525,0.584c-0.897,0.012-1.598,0.553-2.102,1.621c-0.32,0.688-0.609,1.105-0.868,1.25
			c-0.257,0.146-0.703,0.223-1.341,0.231l-1.38,0.019c-0.755,0.011-1.18-0.055-1.275-0.194c-0.098-0.141-0.149-0.506-0.158-1.095
			l-0.236-17.266c-0.01-0.66,0.246-0.994,0.766-1.001c1.697-0.023,2.736,0.021,3.115,0.134c0.378,0.113,0.68,0.521,0.901,1.227
			c0.371,1.269,1.052,1.896,2.043,1.883l41.994-0.577c0.992-0.013,1.738-0.142,2.242-0.385c0.505-0.242,0.915-0.767,1.235-1.573
			c0.251-0.594,0.477-0.957,0.675-1.089C543.381,274.049,543.763,273.978,544.328,273.971z"/>
		<path d="M544.372,299.158l1.87,0.157c0.729,0.062,1.06,0.48,0.993,1.256l-1.426,16.889c-0.054,0.635-0.171,1.038-0.352,1.213
			c-0.181,0.174-0.683,0.226-1.504,0.157c-1.246-0.105-2.016-0.236-2.311-0.391c-0.295-0.155-0.459-0.459-0.492-0.912
			c-0.135-1.479-1.002-2.285-2.601-2.421l-42.378-3.58c-0.894-0.075-1.644,0.394-2.25,1.407c-0.388,0.654-0.716,1.041-0.986,1.159
			c-0.271,0.12-0.723,0.152-1.357,0.099l-1.374-0.115c-0.754-0.064-1.171-0.17-1.252-0.319c-0.082-0.149-0.099-0.518-0.049-1.104
			l1.453-17.206c0.056-0.658,0.343-0.966,0.859-0.922c1.693,0.144,2.722,0.289,3.088,0.438c0.366,0.148,0.625,0.586,0.777,1.309
			c0.245,1.299,0.862,1.99,1.849,2.074l41.851,3.535c0.987,0.084,1.743,0.029,2.269-0.163c0.524-0.192,0.986-0.675,1.382-1.445
			c0.309-0.566,0.568-0.905,0.779-1.018C543.421,299.143,543.81,299.11,544.372,299.158z"/>
	</g>
	<g>
		<path d="M488.672,126.568l1.51-1.112c0.589-0.434,1.114-0.338,1.576,0.289l10.053,13.645c0.378,0.513,0.557,0.894,0.536,1.144
			c-0.021,0.25-0.364,0.62-1.029,1.109c-1.007,0.742-1.672,1.151-1.995,1.229c-0.324,0.078-0.647-0.043-0.97-0.362
			c-1.077-1.023-2.261-1.059-3.552-0.107l-34.239,25.229c-0.722,0.531-0.977,1.379-0.765,2.541c0.14,0.747,0.147,1.254,0.022,1.521
			c-0.125,0.269-0.444,0.591-0.957,0.969l-1.11,0.818c-0.608,0.448-0.992,0.643-1.151,0.585c-0.16-0.058-0.415-0.325-0.765-0.799
			l-10.242-13.901c-0.393-0.532-0.379-0.951,0.039-1.259c1.367-1.008,2.237-1.576,2.611-1.705c0.373-0.129,0.855,0.028,1.446,0.473
			c1.041,0.815,1.96,0.93,2.758,0.342L486.26,132.3c0.798-0.588,1.33-1.127,1.599-1.617c0.269-0.491,0.298-1.157,0.088-1.999
			c-0.141-0.628-0.169-1.055-0.085-1.277C487.945,127.183,488.216,126.904,488.672,126.568z"/>
		<path d="M503.37,147.021l1.611-0.96c0.628-0.374,1.142-0.227,1.54,0.441l8.675,14.561c0.326,0.547,0.466,0.943,0.421,1.19
			c-0.046,0.246-0.423,0.581-1.132,1.004c-1.074,0.64-1.776,0.982-2.105,1.028c-0.33,0.045-0.641-0.106-0.931-0.455
			c-0.972-1.124-2.146-1.275-3.523-0.454l-36.537,21.769c-0.771,0.459-1.106,1.277-1.009,2.454c0.066,0.757,0.024,1.263-0.126,1.517
			c-0.15,0.255-0.499,0.545-1.046,0.871l-1.186,0.706c-0.649,0.387-1.05,0.543-1.203,0.47c-0.154-0.073-0.382-0.363-0.684-0.87
			l-8.838-14.833c-0.338-0.567-0.284-0.984,0.162-1.25c1.459-0.869,2.381-1.35,2.766-1.441c0.384-0.092,0.849,0.111,1.394,0.611
			c0.956,0.913,1.859,1.116,2.711,0.608l36.08-21.496c0.852-0.508,1.434-0.992,1.749-1.454c0.315-0.463,0.409-1.123,0.282-1.98
			c-0.079-0.64-0.065-1.066,0.041-1.28C502.588,147.563,502.884,147.311,503.37,147.021z"/>
	</g>
	<g>
		<path d="M403.544,57.115l0.909-1.641c0.354-0.64,0.871-0.771,1.552-0.395l14.828,8.211c0.557,0.309,0.877,0.581,0.963,0.816
			c0.085,0.236-0.072,0.715-0.473,1.438c-0.605,1.094-1.04,1.744-1.301,1.948c-0.263,0.206-0.607,0.23-1.033,0.075
			c-1.406-0.48-2.496-0.02-3.273,1.383l-20.604,37.206c-0.435,0.785-0.312,1.661,0.365,2.63c0.438,0.619,0.656,1.077,0.654,1.373
			c-0.002,0.297-0.157,0.722-0.466,1.279l-0.669,1.206c-0.365,0.661-0.633,0.999-0.803,1.012c-0.169,0.015-0.512-0.121-1.027-0.406
			l-15.105-8.365c-0.578-0.32-0.741-0.707-0.49-1.161c0.823-1.485,1.377-2.365,1.664-2.639c0.285-0.271,0.789-0.331,1.512-0.174
			c1.285,0.308,2.168,0.028,2.648-0.839l20.347-36.741c0.479-0.867,0.738-1.579,0.778-2.138c0.039-0.558-0.212-1.176-0.754-1.853
			c-0.39-0.513-0.593-0.888-0.609-1.127C403.141,57.977,403.27,57.61,403.544,57.115z"/>
	</g>
	<g>
		<path d="M269.489,43.788l2.489-6.192c1.159-2.937,1.717-4.686,1.672-5.246c-0.04-0.493-0.424-0.853-1.151-1.078
			c-0.632-0.209-0.989-0.819-1.07-1.83c-0.091-1.129-0.097-1.851-0.016-2.165c0.082-0.313,0.37-0.491,0.863-0.53l8.182-0.658
			c0.586-0.048,0.906,0.246,0.957,0.881l0.201,2.504c0.039,0.471-0.255,0.943-0.879,1.42c-0.625,0.477-1.005,0.896-1.141,1.263
			l-7.002,18.626l11.036,24.854c0.343,0.73,0.587,1.195,0.733,1.396s0.465,0.412,0.955,0.633c0.59,0.261,0.977,0.52,1.164,0.775
			c0.187,0.258,0.308,0.751,0.367,1.479c0.086,1.059,0.058,1.818-0.083,2.278c-0.14,0.461-0.492,0.715-1.056,0.76l-14.919,1.201
			c-0.754,0.061-1.156-0.238-1.209-0.896l-0.182-2.258c-0.057-0.705,0.229-1.272,0.858-1.702c0.717-0.507,1.054-1.031,1.011-1.572
			c-0.055-0.682-0.27-1.434-0.643-2.257l-3.967-8.911l-3.579,9.522c-0.491,1.246-0.715,2.139-0.671,2.68
			c0.035,0.446,0.509,0.905,1.422,1.375c0.196,0.104,0.364,0.226,0.506,0.367c0.142,0.144,0.26,0.813,0.356,2.014
			c0.084,1.034,0.08,1.649-0.01,1.846c-0.092,0.197-0.36,0.313-0.807,0.35l-8.5,0.684c-0.729,0.059-1.119-0.24-1.173-0.899
			l-0.21-2.61c-0.032-0.398,0.322-0.842,1.064-1.328c0.608-0.379,1.053-0.806,1.334-1.278c0.282-0.472,0.676-1.391,1.181-2.757
			l6.082-16.715l-10.993-24.7c-0.38-0.896-1.047-1.671-1.998-2.33c-0.449-0.294-0.688-0.618-0.717-0.972l-0.173-2.151
			c-0.059-0.729,0.37-1.13,1.288-1.204l14.792-1.19c0.588-0.048,0.909,0.271,0.965,0.952l0.194,2.434
			c0.053,0.635-0.253,1.109-0.914,1.422c-0.706,0.342-1.041,0.735-1.005,1.182c0.047,0.588,0.299,1.372,0.758,2.353L269.489,43.788z
			"/>
		<path d="M290.261,29.202l0.092-1.874c0.035-0.729,0.441-1.076,1.219-1.038l16.928,0.828c0.637,0.031,1.045,0.135,1.227,0.309
			c0.179,0.174,0.25,0.673,0.209,1.498c-0.061,1.249-0.164,2.022-0.309,2.323c-0.145,0.3-0.443,0.474-0.895,0.522
			c-1.472,0.188-2.249,1.083-2.326,2.685l-2.08,42.479c-0.043,0.896,0.452,1.628,1.487,2.198c0.667,0.364,1.065,0.678,1.193,0.944
			c0.129,0.267,0.177,0.717,0.146,1.353l-0.067,1.379c-0.036,0.754-0.128,1.175-0.274,1.262c-0.145,0.088-0.513,0.117-1.103,0.088
			l-17.245-0.844c-0.66-0.033-0.977-0.308-0.951-0.826c0.083-1.696,0.191-2.73,0.328-3.102s0.563-0.646,1.28-0.823
			c1.29-0.291,1.958-0.931,2.008-1.921l2.053-41.949c0.049-0.989-0.033-1.742-0.243-2.261c-0.212-0.519-0.709-0.962-1.494-1.331
			c-0.576-0.288-0.925-0.535-1.045-0.742C290.278,30.153,290.232,29.767,290.261,29.202z"/>
		<path d="M315.428,30.737l0.274-1.854c0.107-0.724,0.547-1.028,1.316-0.914l16.766,2.486c0.63,0.094,1.025,0.236,1.188,0.427
			c0.163,0.191,0.184,0.694,0.062,1.512c-0.183,1.237-0.362,1.997-0.535,2.28c-0.174,0.285-0.487,0.43-0.94,0.434
			c-1.484,0.043-2.345,0.856-2.579,2.443l-6.239,42.07c-0.133,0.887,0.289,1.664,1.263,2.333c0.628,0.428,0.994,0.779,1.097,1.058
			c0.102,0.277,0.105,0.73,0.013,1.36l-0.203,1.364c-0.111,0.748-0.242,1.157-0.397,1.229c-0.153,0.073-0.522,0.065-1.105-0.021
			l-17.079-2.533c-0.654-0.098-0.942-0.401-0.866-0.915c0.249-1.681,0.459-2.698,0.632-3.054c0.172-0.356,0.623-0.588,1.354-0.693
			c1.312-0.164,2.04-0.735,2.186-1.715l6.161-41.546c0.145-0.979,0.139-1.737-0.02-2.274c-0.16-0.536-0.611-1.026-1.356-1.471
			c-0.546-0.343-0.868-0.623-0.966-0.841C315.353,31.686,315.345,31.297,315.428,30.737z"/>
	</g>
</g>
<g>
	
		<rect x="199.309" y="208.355" transform="matrix(0.026 0.9997 -0.9997 0.026 491.2254 -76.8098)" width="171.437" height="10.627"/>
	<g>
		<path d="M283.016,136.178l16.718,9.583l0.358-0.572l-11.357-26.559c-2.299-9.296-4.598-18.593-6.899-27.889
			c-1.814,9.403-3.627,18.806-5.443,28.209l-9.962,27.112l0.296,0.555L283.016,136.178z"/>
	</g>
</g>
<g>
	
		<rect x="140.407" y="179.1" transform="matrix(0.2441 0.9697 -0.9697 0.2441 374.6202 -111.7883)" width="237.224" height="10.627"/>
	<g>
		<path d="M232.065,77.344l18.409,5.691l0.225-0.636l-16.894-23.43c-4.277-8.567-8.556-17.136-12.836-25.702
			c0.288,9.571,0.576,19.143,0.863,28.716l-3.787,28.636l0.41,0.477L232.065,77.344z"/>
	</g>
</g>
<g>
	<circle cx="287.81" cy="288.94" r="10.412"/>
	<path d="M287.816,302.328c-0.168,0-0.337-0.004-0.507-0.01c-3.573-0.134-6.881-1.65-9.312-4.272
		c-2.433-2.621-3.699-6.033-3.565-9.607c0.277-7.395,6.428-13.155,13.878-12.877c3.574,0.133,6.882,1.65,9.315,4.272
		c2.432,2.621,3.697,6.033,3.564,9.606C300.919,296.667,295.045,302.328,287.816,302.328z M287.804,281.503
		c-4.014,0-7.274,3.145-7.425,7.159c-0.074,1.985,0.629,3.881,1.979,5.337c1.352,1.456,3.188,2.299,5.174,2.372
		c4.133,0.157,7.557-3.044,7.709-7.152c0.074-1.986-0.629-3.881-1.98-5.337c-1.351-1.456-3.188-2.299-5.173-2.373
		C287.993,281.505,287.898,281.503,287.804,281.503z"/>
</g>
</svg>
