<?xml version="1.0" encoding="UTF-8" standalone="no"?>
<!-- Created with Inkscape (http://www.inkscape.org/) -->

<svg
   xmlns:dc="http://purl.org/dc/elements/1.1/"
   xmlns:cc="http://creativecommons.org/ns#"
   xmlns:rdf="http://www.w3.org/1999/02/22-rdf-syntax-ns#"
   xmlns:svg="http://www.w3.org/2000/svg"
   xmlns="http://www.w3.org/2000/svg"
   version="1.1"
   width="303.16602"
   height="352.40402"
   id="svg26574">
  <defs
     id="defs26576">
    <clipPath
       id="clipPath13135">
      <path
         d="m 19.5,19.5 1444.5,0 0,666 -1444.5,0 0,-666 z"
         id="path13137" />
    </clipPath>
    <clipPath
       id="clipPath13199">
      <path
         d="m 19.5,19.5 1444.5,0 0,666 -1444.5,0 0,-666 z"
         id="path13201" />
    </clipPath>
    <clipPath
       id="clipPath13235">
      <path
         d="m 19.5,19.5 1444.5,0 0,666 -1444.5,0 0,-666 z"
         id="path13237" />
    </clipPath>
    <clipPath
       id="clipPath13255">
      <path
         d="m 19.5,19.5 1444.5,0 0,666 -1444.5,0 0,-666 z"
         id="path13257" />
    </clipPath>
  </defs>
  <metadata
     id="metadata26579">
    <rdf:RDF>
      <cc:Work
         rdf:about="">
        <dc:format>image/svg+xml</dc:format>
        <dc:type
           rdf:resource="http://purl.org/dc/dcmitype/StillImage" />
        <dc:title></dc:title>
      </cc:Work>
    </rdf:RDF>
  </metadata>
  <g
     transform="translate(-349.32697,-210.11579)"
     id="layer1">
    <g
       transform="matrix(5.8427136,0,0,5.8427136,-3075.2357,-1151.163)"
       id="g25905">
      <g
         transform="matrix(1.25,0,0,-1.25,-552.1875,972.98718)"
         id="g13131">
        <g
           clip-path="url(#clipPath13135)"
           id="g13133">
          <g
             transform="translate(934.1735,587.9841)"
             id="g13139">
            <path
               d="M 0,0 C 0.148,-0.02 0.298,-0.033 0.447,-0.047 L 0.49,-0.228 c -0.248,0.015 -0.501,0.018 -0.749,0.018 -0.237,0 -0.479,-0.002 -0.715,-0.019 l 0.034,0.18 c 0.124,0.017 0.249,0.028 0.373,0.048 0.012,0.218 0.015,0.896 0.015,1.204 l 0,0.142 c 0,0.105 -0.003,0.665 -0.014,0.844 -0.124,0.026 -0.254,0.032 -0.379,0.042 l -0.026,0.177 0.887,0.003 C 0.304,2.411 0.643,2.38 0.829,2.304 1.171,2.162 1.211,1.922 1.211,1.816 1.211,1.195 0.6,0.911 0.069,0.838 l 0.023,0.193 c 0.323,0.081 0.555,0.26 0.555,0.657 0,0.199 -0.096,0.358 -0.259,0.438 C 0.293,2.172 0.141,2.194 -0.001,2.198 -0.012,2.036 -0.014,1.606 -0.014,1.334 l 0,-0.149 C -0.014,0.908 -0.011,0.194 0,0"
               id="path13141"
               style="fill:#005294;fill-opacity:1;fill-rule:nonzero;stroke:none" />
          </g>
          <g
             transform="translate(936.7317,587.9817)"
             id="g13143">
            <path
               d="m 0,0 c 0.121,-0.022 0.246,-0.033 0.369,-0.045 l 0.044,-0.183 c -0.253,0.023 -0.52,0.021 -0.773,0.021 -0.206,0 -0.415,-0.005 -0.621,-0.019 l 0.035,0.182 c 0.124,0.008 0.25,0.026 0.373,0.045 0.011,0.203 0.014,0.792 0.014,1.115 l 0,0.21 c 0,0.108 -0.003,0.677 -0.014,0.862 -0.122,0.018 -0.245,0.033 -0.368,0.046 l -0.044,0.184 c 0.254,-0.027 0.527,-0.022 0.78,-0.022 0.203,0 0.415,-10e-4 0.618,0.023 L 0.369,2.234 C 0.245,2.221 0.123,2.2 -0.001,2.185 -0.011,2.06 -0.013,1.699 -0.013,1.309 l 0,-0.222 C -0.013,0.664 -0.01,0.145 0,0"
               id="path13145"
               style="fill:#005294;fill-opacity:1;fill-rule:nonzero;stroke:none" />
          </g>
          <g
             transform="translate(939.3035,588.3663)"
             id="g13147">
            <path
               d="m 0,0 c -0.192,0.224 -0.353,0.43 -0.445,0.541 -0.127,-0.171 -0.438,-0.661 -0.58,-0.932 0.088,-0.016 0.176,-0.029 0.265,-0.04 l 0.025,-0.175 -0.061,0 c -0.057,0 -0.361,0.014 -0.564,0.014 -0.157,0 -0.309,-0.008 -0.465,-0.021 l 0.06,0.182 c 0.08,0.012 0.166,0.019 0.241,0.05 0.152,0.1 0.765,0.912 0.925,1.119 -0.125,0.159 -0.291,0.377 -0.448,0.579 -0.161,0.209 -0.31,0.397 -0.393,0.485 -0.08,0.024 -0.167,0.035 -0.249,0.051 l -0.027,0.184 c 0.197,-0.033 0.414,-0.025 0.609,-0.025 0.224,0 0.447,0.006 0.671,0.017 L -0.487,1.849 C -0.575,1.84 -0.663,1.829 -0.75,1.812 -0.651,1.654 -0.39,1.269 -0.276,1.117 -0.156,1.281 0.088,1.63 0.193,1.814 L 0.13,1.826 C 0.078,1.836 0.025,1.843 -0.028,1.852 L -0.062,2.031 C 0.125,2.015 0.313,2.012 0.5,2.012 c 0.144,0 0.287,0.007 0.43,0.018 L 0.913,1.856 C 0.829,1.834 0.744,1.819 0.66,1.798 L 0.629,1.769 C 0.505,1.652 0.393,1.521 0.28,1.393 0.115,1.207 -0.054,1.01 -0.13,0.919 0.265,0.379 0.651,-0.172 1.058,-0.703 L 0.768,-0.759 C 0.486,-0.547 0.229,-0.267 0,0"
               id="path13149"
               style="fill:#005294;fill-opacity:1;fill-rule:nonzero;stroke:none" />
          </g>
          <g
             transform="translate(942.5648,587.9777)"
             id="g13151">
            <path
               d="M 0,0 C -0.108,0.316 -0.205,0.647 -0.338,0.953 -0.495,0.95 -0.932,0.93 -1.09,0.911 -1.131,0.783 -1.276,0.266 -1.32,0 c 0.096,-0.022 0.195,-0.031 0.292,-0.041 l 0.035,-0.181 c -0.211,0.014 -0.425,0.019 -0.637,0.019 -0.158,0 -0.318,-0.006 -0.475,-0.02 l 0.026,0.182 c 0.107,0.011 0.213,0.025 0.318,0.048 0.139,0.274 0.727,1.855 0.853,2.195 C -0.994,2.219 -1.083,2.228 -1.17,2.24 L -1.178,2.418 C -0.996,2.406 -0.81,2.4 -0.626,2.4 c 0.233,0 0.472,0.003 0.705,0.018 L 0.053,2.239 C -0.031,2.229 -0.116,2.219 -0.198,2.202 -0.136,1.997 0.037,1.505 0.159,1.166 0.257,0.9 0.469,0.325 0.63,0.007 0.738,-0.014 0.847,-0.028 0.956,-0.043 l 0.026,-0.186 c -0.214,0.036 -0.474,0.026 -0.687,0.026 -0.223,0 -0.45,-0.003 -0.672,-0.02 l 0.044,0.182 C -0.222,-0.031 -0.11,-0.021 0,0 M -0.699,2.026 C -0.801,1.742 -0.947,1.35 -1.006,1.178 l 0.602,-0.011 c -0.075,0.221 -0.215,0.62 -0.295,0.859"
               id="path13153"
               style="fill:#005294;fill-opacity:1;fill-rule:nonzero;stroke:none" />
          </g>
          <g
             transform="translate(944.1842,590.1692)"
             id="g13155">
            <path
               d="m 0,0 c -0.125,0.019 -0.254,0.027 -0.38,0.039 l -0.025,0.176 0.864,0.004 c 0.335,0 0.805,-0.003 1.06,-0.103 C 1.722,0.035 1.858,-0.117 1.858,-0.34 1.858,-0.582 1.604,-0.872 1.34,-1.034 1.591,-1.46 2.073,-2.128 2.396,-2.47 L 2.089,-2.511 C 1.832,-2.393 1.045,-1.5 0.818,-1.227 0.719,-1.234 0.619,-1.241 0.551,-1.244 l 0,-0.042 c 0,-0.215 0.007,-0.704 0.016,-0.902 0.121,-0.022 0.247,-0.033 0.369,-0.044 L 0.97,-2.414 c -0.224,0.018 -0.454,0.019 -0.678,0.019 -0.231,0 -0.471,0 -0.702,-0.02 l 0.036,0.183 c 0.123,0.009 0.252,0.021 0.373,0.044 0.012,0.177 0.015,0.792 0.015,1.134 l 0,0.218 C 0.014,-0.715 0.01,-0.153 0,0 m 0.916,-0.965 c 0.143,0.053 0.372,0.203 0.372,0.525 0,0.181 -0.16,0.439 -0.721,0.453 -0.01,-0.205 -0.016,-0.755 -0.016,-0.985 l 0,-0.057 c 0.114,0.003 0.24,0.017 0.365,0.064"
               id="path13157"
               style="fill:#005294;fill-opacity:1;fill-rule:nonzero;stroke:none" />
          </g>
          <g
             transform="translate(916.7523,589.4042)"
             id="g13159">
            <path
               d="m 0,0 c -0.207,-0.081 -0.414,-0.184 -0.592,-0.362 -0.059,-0.074 -0.103,-0.192 -0.066,-0.296 0.303,-0.533 0.865,-0.932 1.39,-1.176 0.037,-0.185 0.037,-0.385 0.156,-0.518 0.103,-0.03 0.214,0 0.295,0.007 0.112,0.045 0.097,0.185 0.119,0.281 0.902,-0.214 1.894,-0.133 2.619,0.4 0.473,0.355 0.695,0.888 0.569,1.465 C 4.291,0.415 3.825,0.97 3.284,1.391 1.99,2.279 0.37,2.922 -1.273,2.419 -1.457,2.353 -1.509,2.161 -1.569,1.998 c 0.074,-0.126 0.252,-0.096 0.386,-0.111 0.044,0.015 0.155,0.007 0.14,0.089 -0.074,0.103 -0.2,0.059 -0.281,0.11 0.022,0.052 0.096,0.045 0.148,0.075 C -0.244,2.316 0.658,2.146 1.465,1.85 2.389,1.472 3.469,0.903 3.884,-0.118 4.009,-0.502 3.951,-0.969 3.617,-1.242 2.989,-1.746 2.093,-1.79 1.302,-1.642 1.28,-1.146 1.273,-0.776 1.28,-0.274 c 0.037,0.067 0.104,0.023 0.17,0.038 0.436,-0.045 0.873,-0.089 1.25,-0.281 0,-0.06 -0.037,-0.097 -0.059,-0.133 -0.059,-0.09 -0.207,-0.105 -0.2,-0.215 0.096,-0.044 0.215,-0.059 0.319,-0.052 0.132,0.066 0.31,0.185 0.347,0.34 0.044,0.156 -0.03,0.281 -0.104,0.4 C 2.545,0.222 1.916,0.259 1.317,0.252 L 1.287,0.274 1.25,0.888 C 1.228,1.051 1.139,1.243 0.969,1.302 0.792,0.977 0.821,0.57 0.769,0.2 0.511,0.141 0.251,0.096 0,0 l 0.178,-0.333 c 0.192,0.03 0.377,0.045 0.576,0.059 0,-0.399 -0.029,-0.784 -0.044,-1.19 -0.444,0.162 -0.91,0.399 -1.213,0.828 -0.03,0.089 0.074,0.155 0.141,0.178 0.17,0.059 0.354,0.096 0.54,0.125 L 0,0 z"
               id="path13161"
               style="fill:#005294;fill-opacity:1;fill-rule:nonzero;stroke:none" />
          </g>
          <g
             transform="translate(921.5829,589.6042)"
             id="g13163">
            <path
               d="M 0,0 C 0.03,0.045 0.052,0.118 0.118,0.133 0.267,0.111 0.296,-0.052 0.333,-0.177 0.37,-0.755 0.422,-1.302 0.392,-1.901 0.311,-1.968 0.207,-1.997 0.104,-1.968 -0.111,-1.923 -0.052,-1.664 -0.089,-1.494 -0.096,-0.984 -0.081,-0.481 0,0"
               id="path13165"
               style="fill:#005294;fill-opacity:1;fill-rule:nonzero;stroke:none" />
          </g>
          <g
             transform="translate(921.139,590.3295)"
             id="g13167">
            <path
               d="M 0,0 C -0.163,0.162 -0.192,0.406 -0.111,0.614 -0.059,0.71 0,0.792 0.074,0.865 L 0.289,0.695 C 0.237,0.643 0.185,0.577 0.155,0.517 0.141,0.459 0.104,0.37 0.155,0.325 0.311,0.525 0.518,0.717 0.696,0.91 0.651,0.91 0.592,0.902 0.548,0.88 0.451,0.828 0.363,0.769 0.289,0.695 l -0.215,0.17 c 0.178,0.2 0.421,0.356 0.651,0.422 0.237,0.045 0.518,0.082 0.718,-0.059 L 1.532,1.109 C 1.642,1.124 1.716,1.065 1.798,1.021 1.953,0.91 1.924,0.695 1.864,0.54 1.738,0.318 1.532,0.111 1.31,-0.037 L 1.162,0.214 C 1.228,0.244 1.295,0.273 1.361,0.318 1.502,0.421 1.665,0.569 1.628,0.762 1.591,0.888 1.457,0.858 1.361,0.851 1.029,0.74 0.718,0.443 0.526,0.141 0.74,0.103 0.955,0.141 1.162,0.214 L 1.31,-0.037 C 1.184,-0.118 1.065,-0.178 0.925,-0.222 0.725,-0.281 0.503,-0.244 0.318,-0.185 0.289,-0.222 0.244,-0.377 0.148,-0.37 0.081,-0.37 0.052,-0.333 0.007,-0.215 -0.007,-0.17 0,-0.03 0,0"
               id="path13169"
               style="fill:#005294;fill-opacity:1;fill-rule:nonzero;stroke:none" />
          </g>
          <g
             transform="translate(922.4932,588.3835)"
             id="g13171">
            <path
               d="M 0,0 C -0.044,-0.044 -0.052,-0.104 -0.037,-0.148 0.148,-0.333 0.473,-0.251 0.718,-0.244 0.969,-0.192 1.309,-0.14 1.42,0.052 1.383,0.259 1.146,0.259 0.983,0.326 0.614,0.4 0.2,0.37 -0.17,0.451 -0.244,0.481 -0.304,0.57 -0.326,0.644 -0.333,0.851 -0.267,1.043 -0.082,1.139 0.444,1.428 1.227,1.494 1.79,1.258 1.842,1.213 1.783,1.169 1.775,1.125 1.679,0.999 1.524,1.006 1.376,0.984 0.932,0.932 0.451,0.954 0.051,0.792 0.059,0.725 0.148,0.732 0.192,0.711 0.695,0.548 1.376,0.77 1.701,0.273 1.783,0.074 1.753,-0.236 1.649,-0.384 1.368,-0.695 0.917,-0.762 0.503,-0.695 c -0.289,0.066 -0.607,0.229 -0.718,0.54 -0.007,0.118 0.045,0.229 0.111,0.31 0.237,0.178 0.548,0.118 0.836,0.089 0.163,-0.03 0.363,-0.089 0.451,-0.162 0,-0.06 0,-0.171 -0.37,-0.207 C 0.591,-0.163 0.244,0.155 0,0"
               id="path13173"
               style="fill:#005294;fill-opacity:1;fill-rule:nonzero;stroke:none" />
          </g>
          <g
             transform="translate(924.6232,589.5229)"
             id="g13175">
            <path
               d="m 0,0 c 0.044,0.067 0.119,0.133 0.2,0.081 0.37,-0.362 0.569,-0.813 0.865,-1.213 0.06,0.008 0.023,0.074 0.045,0.111 0,0.525 -0.192,0.969 -0.289,1.458 0,0.051 -0.007,0.118 0.045,0.14 C 0.999,0.569 1.088,0.414 1.162,0.325 1.465,-0.111 1.605,-0.636 1.539,-1.198 1.495,-1.391 1.428,-1.605 1.221,-1.694 1.154,-1.731 1.065,-1.753 0.999,-1.709 0.614,-1.398 0.488,-0.954 0.245,-0.563 L 0.208,-0.636 0.141,-1.709 C 0.119,-1.775 0.067,-1.857 0,-1.864 -0.096,-1.872 -0.177,-1.79 -0.222,-1.709 -0.325,-1.48 -0.251,-1.177 -0.236,-0.917 -0.192,-0.599 -0.133,-0.281 0,0"
               id="path13177"
               style="fill:#005294;fill-opacity:1;fill-rule:nonzero;stroke:none" />
          </g>
          <g
             transform="translate(926.3911,588.7979)"
             id="g13179">
            <path
               d="M 0,0 C -0.022,0.074 0.074,0.089 0.119,0.111 0.245,0.104 0.237,0.266 0.289,0.34 L 0.341,0.496 C 0.193,0.533 0,0.57 -0.037,0.762 c 0,0.059 0.082,0.044 0.119,0.074 C 0.511,0.888 0.94,0.984 1.391,0.954 1.539,0.888 1.687,0.74 1.672,0.577 1.539,0.466 1.332,0.503 1.155,0.474 L 0.74,0.458 0.651,0.17 0.674,0.155 c 0.199,0 0.429,0.03 0.613,-0.037 C 1.332,0.052 1.302,-0.044 1.31,-0.118 1.199,-0.222 1.036,-0.207 0.873,-0.207 0.74,-0.229 0.511,-0.141 0.474,-0.318 L 0.377,-0.636 0.393,-0.651 c 0.31,0.022 0.606,0.163 0.917,0.097 C 1.362,-0.621 1.421,-0.725 1.384,-0.806 1.043,-1.072 0.674,-1.309 0.215,-1.243 0.023,-1.162 -0.088,-0.954 -0.111,-0.755 -0.14,-0.473 0.141,-0.281 0,0"
               id="path13181"
               style="fill:#005294;fill-opacity:1;fill-rule:nonzero;stroke:none" />
          </g>
          <g
             transform="translate(928.9583,589.0125)"
             id="g13183">
            <path
               d="m 0,0 c -0.17,-0.192 -0.318,-0.399 -0.474,-0.584 -0.029,0.059 -0.014,0.103 -0.014,0.17 0.044,0.459 0.51,0.762 0.459,1.235 -0.097,0.008 -0.156,-0.096 -0.223,-0.148 -0.34,-0.414 -0.621,-0.88 -0.547,-1.45 0.015,-0.088 0.074,-0.177 0.096,-0.258 -0.192,-0.452 -0.31,-0.948 -0.406,-1.443 0,-0.133 -0.045,-0.281 0.007,-0.4 0.074,-0.155 0.244,-0.325 0.414,-0.303 0.081,0.614 0.259,1.191 0.444,1.761 l 0.31,0.007 c 0.511,0.119 1.029,0.599 1.14,1.125 C 1.28,0.015 1.191,0.304 0.999,0.533 0.925,0.599 0.829,0.636 0.725,0.607 0.451,0.466 0.214,0.252 0,0 l 0.385,-0.288 c 0.133,0.17 0.266,0.34 0.436,0.503 C 0.895,0.229 0.902,0.133 0.925,0.089 0.954,-0.192 0.858,-0.436 0.651,-0.622 0.474,-0.762 0.266,-0.873 0.037,-0.873 0.148,-0.68 0.259,-0.481 0.385,-0.288 L 0,0 z"
               id="path13185"
               style="fill:#005294;fill-opacity:1;fill-rule:nonzero;stroke:none" />
          </g>
          <g
             transform="translate(931.4365,588.9609)"
             id="g13187">
            <path
               d="M 0,0 C 0,0.207 0.168,0.376 0.376,0.376 0.583,0.376 0.751,0.207 0.751,0 0.751,-0.207 0.583,-0.375 0.376,-0.375 0.168,-0.375 0,-0.207 0,0"
               id="path13189"
               style="fill:#005294;fill-opacity:1;fill-rule:nonzero;stroke:none" />
          </g>
        </g>
      </g>
      <g
         transform="matrix(1.25,0,0,-1.25,589.60738,276.32968)"
         id="g13191">
        <path
           d="M 0,0 1.723,13.555 32.584,12.394 34.615,2.498 0,0 z"
           id="path13193"
           style="fill:#e23d39;fill-opacity:1;fill-rule:nonzero;stroke:none" />
      </g>
      <g
         transform="matrix(1.25,0,0,-1.25,-552.1875,972.98718)"
         id="g13195">
        <g
           clip-path="url(#clipPath13199)"
           id="g13197">
          <g
             transform="translate(923.8511,577.6877)"
             id="g13203">
            <path
               d="M 0,0 C 0.186,0.459 0.416,0.896 0.684,1.307 L -0.147,1.342 0,0 z"
               id="path13205"
               style="fill:#ffffff;fill-opacity:1;fill-rule:nonzero;stroke:none" />
          </g>
          <g
             transform="translate(923.8511,577.6877)"
             id="g13207">
            <path
               d="M 0,0 C 0.186,0.459 0.416,0.896 0.684,1.307 L -0.147,1.342 0,0 z"
               id="path13209"
               style="fill:none;stroke:#ffffff;stroke-width:0.68300003;stroke-linecap:butt;stroke-linejoin:miter;stroke-miterlimit:3.86299992;stroke-opacity:1;stroke-dasharray:none" />
          </g>
          <g
             transform="translate(929.1882,574.9871)"
             id="g13211">
            <path
               d="m 0,0 c 0,-1.037 0.841,-1.878 1.878,-1.878 1.037,0 1.878,0.841 1.878,1.878 0,1.037 -0.841,1.878 -1.878,1.878 C 0.841,1.878 0,1.037 0,0 m 14.402,-6.872 -6.731,0.58 0.151,1.318 C 6.415,-6.716 4.261,-7.831 1.846,-7.831 c -4.242,0 -7.68,3.439 -7.68,7.68 0,4.241 3.438,7.679 7.68,7.679 1.273,0 2.473,-0.309 3.529,-0.857 l -1.578,3.865 7.515,-0.754 1.131,-4.033 1.93,3.859 7.514,-0.667 -6.876,-10.126 -0.609,-5.687 z"
               id="path13213"
               style="fill:#005294;fill-opacity:1;fill-rule:nonzero;stroke:none" />
          </g>
          <g
             transform="translate(930.2007,574.8723)"
             id="g13215">
            <path
               d="m 0,0 c 0,-0.458 0.372,-0.83 0.83,-0.83 0.458,0 0.83,0.372 0.83,0.83 0,0.458 -0.372,0.83 -0.83,0.83 C 0.372,0.83 0,0.458 0,0 m -1.183,-0.084 c 0,1.149 0.931,2.079 2.079,2.079 1.148,0 2.079,-0.93 2.079,-2.079 0,-1.148 -0.931,-2.079 -2.079,-2.079 -1.148,0 -2.079,0.931 -2.079,2.079"
               id="path13217"
               style="fill:#005294;fill-opacity:1;fill-rule:nonzero;stroke:none" />
          </g>
          <g
             transform="translate(930.2007,574.8723)"
             id="g13219">
            <path
               d="m 0,0 c 0,-0.458 0.372,-0.83 0.83,-0.83 0.458,0 0.83,0.372 0.83,0.83 0,0.458 -0.372,0.83 -0.83,0.83 C 0.372,0.83 0,0.458 0,0 z m -1.183,-0.084 c 0,1.149 0.931,2.079 2.079,2.079 1.148,0 2.079,-0.93 2.079,-2.079 0,-1.148 -0.931,-2.079 -2.079,-2.079 -1.148,0 -2.079,0.931 -2.079,2.079 z"
               id="path13221"
               style="fill:none;stroke:#ffffff;stroke-width:0.077;stroke-linecap:butt;stroke-linejoin:miter;stroke-miterlimit:4;stroke-opacity:1;stroke-dasharray:none" />
          </g>
          <g
             transform="translate(921.846,566.1873)"
             id="g13223">
            <path
               d="m 0,0 c -0.512,0.192 -1.276,0.32 -1.931,0.32 -1.522,0 -2.312,-0.544 -2.312,-1.602 0,-1.449 1.891,-1.295 1.891,-1.865 0,-0.154 -0.155,-0.269 -0.356,-0.269 -0.427,0 -0.926,0.314 -1.212,0.763 l -0.524,-1.596 c 0.687,-0.263 1.406,-0.359 2.209,-0.359 1.568,0 2.319,0.577 2.319,1.57 0,0.372 -0.117,0.673 -0.337,0.891 -0.544,0.538 -1.853,0.711 -1.853,1.057 0,0.167 0.117,0.283 0.376,0.283 0.441,0 0.875,-0.257 1.199,-0.699 L 0,0 z"
               id="path13225"
               style="fill:#fcc200;fill-opacity:1;fill-rule:nonzero;stroke:none" />
          </g>
        </g>
      </g>
      <g
         transform="matrix(1.25,0,0,-1.25,600.97725,267.5923)"
         id="g13227">
        <path
           d="m 0,0 1.076,0 0,-2.66 2.137,0 0,2.66 1.076,0 0,2.115 L 0,2.115 0,0 z"
           id="path13229"
           style="fill:#fcc200;fill-opacity:1;fill-rule:nonzero;stroke:none" />
      </g>
      <g
         transform="matrix(1.25,0,0,-1.25,-552.1875,972.98718)"
         id="g13231">
        <g
           clip-path="url(#clipPath13235)"
           id="g13233">
          <g
             transform="translate(927.5035,564.0467)"
             id="g13239">
            <path
               d="m 0,0 c 0,-1.385 1.088,-2.467 2.474,-2.467 1.387,0 2.475,1.082 2.475,2.467 0,1.378 -1.088,2.461 -2.475,2.461 C 1.088,2.461 0,1.378 0,0 m 1.995,0.128 c 0,0.289 0.201,0.5 0.479,0.5 0.279,0 0.48,-0.211 0.48,-0.5 0,-0.288 -0.201,-0.499 -0.48,-0.499 -0.278,0 -0.479,0.211 -0.479,0.499"
               id="path13241"
               style="fill:#fcc200;fill-opacity:1;fill-rule:nonzero;stroke:none" />
          </g>
          <g
             transform="translate(933.5797,566.4313)"
             id="g13243">
            <path
               d="m 0,0 0,-4.775 2.138,0 0,1.769 c 0.577,0 0.849,-0.5 0.939,-1.769 l 2.216,0 C 5.196,-3.859 4.878,-3.07 4.36,-2.487 4.717,-2.244 4.911,-1.872 4.911,-1.43 4.911,-0.718 4.373,0 3.155,0 L 0,0 z m 2.138,-0.981 0.13,0 c 0.401,0 0.505,-0.269 0.505,-0.474 0,-0.308 -0.188,-0.449 -0.577,-0.449 l -0.058,0 0,0.923 z"
               id="path13245"
               style="fill:#fcc200;fill-opacity:1;fill-rule:nonzero;stroke:none" />
          </g>
        </g>
      </g>
      <g
         transform="matrix(1.25,0,0,-1.25,626.30725,270.91731)"
         id="g13247">
        <path
           d="m 0,0 0,2.083 1.84,2.692 -2.164,0 -0.745,-1.083 -0.745,1.083 -2.164,0 1.84,-2.692 L -2.138,0 0,0 z"
           id="path13249"
           style="fill:#fcc200;fill-opacity:1;fill-rule:nonzero;stroke:none" />
      </g>
      <g
         transform="matrix(1.25,0,0,-1.25,-552.1875,972.98718)"
         id="g13251">
        <g
           clip-path="url(#clipPath13255)"
           id="g13253">
          <g
             transform="translate(929.1826,574.881)"
             id="g13259">
            <path
               d="m 0,0 c 0,-1.008 0.817,-1.825 1.824,-1.825 1.008,0 1.824,0.817 1.824,1.825 0,1.008 -0.816,1.824 -1.824,1.824 C 0.817,1.824 0,1.008 0,0 m -4.736,-0.083 c 0,3.504 2.9,6.343 6.477,6.343 3.577,0 6.477,-2.839 6.477,-6.343 0,-3.502 -2.9,-6.342 -6.477,-6.342 -3.577,0 -6.477,2.84 -6.477,6.342"
               id="path13261"
               style="fill:#fcc200;fill-opacity:1;fill-rule:nonzero;stroke:none" />
          </g>
          <g
             transform="translate(936.4865,580.1375)"
             id="g13263">
            <path
               d="m 0,0 c 1.332,-1.369 2.158,-3.234 2.174,-5.291 l 0,-0.063 c 0,-0.533 -0.054,-1.053 -0.157,-1.554 L 1.683,-10.313 5.948,-10.711 6.44,-5.953 12.3,2.722 7.633,3.128 4.73,-2.819 2.974,3.418 -1.668,3.883 0,0 z"
               id="path13265"
               style="fill:#fcc200;fill-opacity:1;fill-rule:nonzero;stroke:none" />
          </g>
        </g>
      </g>
      <g
         transform="matrix(1.25,0,0,-1.25,590.10712,244.7573)"
         id="g13267">
        <path
           d="m 0,0 11.835,1.289 0.435,-3.532 -3.918,0.146 1.277,-11.229 0.028,0 L 5.3,-13.761 4.14,-2.666 0.435,-3.656 0,0 z"
           id="path13269"
           style="fill:#fcc200;fill-opacity:1;fill-rule:nonzero;stroke:none" />
      </g>
      <g
         transform="matrix(1.25,0,0,-1.25,603.98463,263.10318)"
         id="g13271">
        <path
           d="M 0,0 -6.867,-0.697 -8.086,10.154 -11.714,9.277 -12.466,15.603 1.828,17.14 2.612,10.944 -1.221,11.109 0,0 z"
           id="path13273"
           style="fill:#005294;fill-opacity:1;fill-rule:nonzero;stroke:none" />
      </g>
      <g
         transform="matrix(1.25,0,0,-1.25,590.10712,244.7573)"
         id="g13275">
        <path
           d="m 0,0 11.835,1.289 0.435,-3.532 -3.918,0.146 1.277,-11.229 0.028,0 L 5.3,-13.761 4.14,-2.666 0.435,-3.656 0,0 z"
           id="path13277"
           style="fill:#fcc200;fill-opacity:1;fill-rule:nonzero;stroke:none" />
      </g>
      <g
         transform="matrix(1.25,0,0,-1.25,633.22412,289.9308)"
         id="g13287">
        <path
           d="m 0,0 c -0.173,0.026 -0.26,0.039 -0.434,0.064 -0.455,0.067 -0.682,0.098 -1.137,0.16 -0.174,0.023 -0.261,0.035 -0.434,0.058 -0.003,0.17 -0.004,0.256 -0.007,0.426 -0.02,1.285 -0.053,2.503 -0.085,3.788 -0.006,0.226 -0.009,0.339 -0.014,0.566 0.239,-0.031 0.36,-0.046 0.6,-0.077 0.934,-0.122 1.4,-0.188 2.332,-0.328 C 1.06,4.621 1.18,4.603 1.42,4.566 1.352,4.35 1.318,4.242 1.25,4.026 0.865,2.799 0.495,1.639 0.123,0.408 0.074,0.245 0.049,0.163 0,0"
           id="path13289"
           style="fill:#005294;fill-opacity:1;fill-rule:nonzero;stroke:none" />
      </g>
      <g
         transform="matrix(1.25,0,0,-1.25,632.77025,289.24418)"
         id="g13291">
        <path
           d="M 0,0 C -0.457,0.067 -0.686,0.099 -1.143,0.161 -1.156,1.446 -1.186,2.664 -1.212,3.949 -0.282,3.828 0.183,3.763 1.111,3.623 0.732,2.394 0.368,1.232 0,0"
           id="path13293"
           style="fill:#fcc200;fill-opacity:1;fill-rule:nonzero;stroke:none" />
      </g>
      <g
         transform="matrix(1.25,0,0,-1.25,598.94438,292.0938)"
         id="g13295">
        <path
           d="M 0,0 C -0.196,-0.018 -0.295,-0.027 -0.491,-0.046 -1.37,-0.13 -1.81,-0.177 -2.688,-0.279 -2.883,-0.301 -2.981,-0.313 -3.177,-0.336 -3.2,-0.142 -3.212,-0.045 -3.235,0.15 -3.343,1.043 -3.396,1.489 -3.504,2.382 -3.596,2.227 -3.641,2.149 -3.732,1.994 -3.867,1.764 -3.933,1.649 -4.067,1.419 c -0.186,0.19 -0.279,0.284 -0.466,0.473 -0.127,0.128 -0.191,0.192 -0.318,0.32 0.118,-0.892 0.177,-1.337 0.294,-2.229 0.026,-0.194 0.039,-0.292 0.065,-0.486 -0.196,-0.026 -0.294,-0.039 -0.489,-0.065 -0.876,-0.12 -1.314,-0.184 -2.188,-0.321 -0.195,-0.031 -0.293,-0.046 -0.487,-0.078 -0.032,0.194 -0.047,0.291 -0.078,0.485 -0.335,2.079 -0.67,4.16 -1.006,6.24 -0.031,0.193 -0.046,0.29 -0.077,0.484 0.207,0.033 0.311,0.05 0.519,0.082 0.939,0.147 1.41,0.216 2.351,0.344 0.104,0.015 0.156,0.022 0.261,0.035 0.072,-0.069 0.109,-0.104 0.182,-0.173 0.364,-0.35 0.545,-0.525 0.903,-0.877 0.26,0.43 0.391,0.645 0.657,1.073 0.053,0.086 0.08,0.129 0.133,0.214 0.105,0.013 0.157,0.019 0.261,0.031 0.943,0.11 1.415,0.16 2.36,0.25 0.209,0.021 0.314,0.03 0.523,0.049 C -0.649,7.076 -0.64,6.978 -0.623,6.783 -0.43,4.685 -0.238,2.586 -0.045,0.488 -0.027,0.293 -0.018,0.195 0,0"
           id="path13297"
           style="fill:#005294;fill-opacity:1;fill-rule:nonzero;stroke:none" />
      </g>
      <g
         transform="matrix(1.25,0,0,-1.25,598.27163,291.54106)"
         id="g13299">
        <path
           d="M 0,0 C -0.883,-0.085 -1.324,-0.132 -2.206,-0.234 -2.352,1.024 -2.424,1.652 -2.57,2.91 -2.596,3.133 -2.609,3.245 -2.635,3.469 -2.746,3.285 -2.802,3.193 -2.913,3.008 -3.204,2.523 -3.347,2.279 -3.631,1.792 c -0.396,0.401 -0.596,0.601 -0.999,1 -0.153,0.151 -0.23,0.226 -0.384,0.377 0.03,-0.223 0.046,-0.335 0.076,-0.558 0.172,-1.255 0.257,-1.881 0.428,-3.136 -0.879,-0.12 -1.319,-0.185 -2.196,-0.322 -0.327,2.082 -0.653,4.163 -0.979,6.244 0.936,0.147 1.405,0.216 2.343,0.344 0.491,-0.47 0.735,-0.707 1.217,-1.182 0.066,-0.064 0.099,-0.097 0.165,-0.162 0.048,0.079 0.071,0.119 0.119,0.198 0.349,0.58 0.527,0.87 0.886,1.447 0.939,0.109 1.409,0.159 2.35,0.249 C -0.403,4.194 -0.202,2.097 0,0"
           id="path13301"
           style="fill:#fcc200;fill-opacity:1;fill-rule:nonzero;stroke:none" />
      </g>
      <g
         transform="matrix(1.25,0,0,-1.25,620.3635,291.81343)"
         id="g13303">
        <path
           d="m 0,0 c -0.197,0.012 -0.295,0.018 -0.491,0.029 -0.882,0.049 -1.322,0.069 -2.204,0.102 -0.197,0.007 -0.295,0.01 -0.492,0.017 0.006,0.195 0.009,0.294 0.015,0.489 0.068,2.106 0.123,4.259 0.191,6.365 0.007,0.196 0.01,0.294 0.016,0.49 0.209,-0.007 0.314,-0.01 0.524,-0.018 C -1.503,7.44 -1.033,7.418 -0.095,7.366 0.114,7.354 0.219,7.348 0.428,7.335 0.417,7.14 0.41,7.042 0.398,6.846 0.272,4.743 0.157,2.593 0.03,0.489 0.018,0.294 0.012,0.196 0,0"
           id="path13305"
           style="fill:#005294;fill-opacity:1;fill-rule:nonzero;stroke:none" />
      </g>
      <g
         transform="matrix(1.25,0,0,-1.25,619.78287,291.16568)"
         id="g13307">
        <path
           d="m 0,0 c -0.885,0.05 -1.328,0.07 -2.213,0.102 0.077,2.106 0.141,4.259 0.218,6.364 C -1.06,6.432 -0.593,6.411 0.342,6.358 0.224,4.255 0.118,2.104 0,0"
           id="path13309"
           style="fill:#fcc200;fill-opacity:1;fill-rule:nonzero;stroke:none" />
      </g>
      <g
         transform="matrix(1.25,0,0,-1.25,631.58825,293.01805)"
         id="g13311">
        <path
           d="m 0,0 c -0.641,0.09 -1.097,0.678 -1.014,1.317 0.083,0.64 0.685,1.09 1.34,0.998 C 0.982,2.223 1.436,1.623 1.339,0.986 1.242,0.348 0.642,-0.09 0,0"
           id="path13313"
           style="fill:#005294;fill-opacity:1;fill-rule:nonzero;stroke:none" />
      </g>
      <g
         transform="matrix(1.25,0,0,-1.25,630.93838,291.4533)"
         id="g13315">
        <path
           d="M 0,0 C 0.05,0.371 0.399,0.631 0.778,0.578 1.157,0.524 1.421,0.178 1.366,-0.192 1.312,-0.563 0.963,-0.819 0.589,-0.766 0.214,-0.713 -0.05,-0.371 0,0"
           id="path13317"
           style="fill:#fcc200;fill-opacity:1;fill-rule:nonzero;stroke:none" />
      </g>
      <g
         transform="matrix(1.25,0,0,-1.25,614.9005,284.05855)"
         id="g13319">
        <path
           d="M 0,0 C 0.005,0.238 -0.195,0.435 -0.447,0.439 -0.699,0.443 -0.905,0.253 -0.908,0.015 -0.911,-0.222 -0.711,-0.417 -0.461,-0.421 -0.211,-0.425 -0.005,-0.237 0,0"
           id="path13321"
           style="fill:#ffffff;fill-opacity:1;fill-rule:nonzero;stroke:none" />
      </g>
      <g
         transform="matrix(1.25,0,0,-1.25,618.99087,290.13793)"
         id="g13323">
        <path
           d="m 0,0 c 0.012,0.238 -0.175,0.44 -0.416,0.451 -0.242,0.011 -0.446,-0.173 -0.456,-0.41 -0.01,-0.238 0.176,-0.438 0.416,-0.45 C -0.216,-0.419 -0.012,-0.237 0,0"
           id="path13325"
           style="fill:#ffffff;fill-opacity:1;fill-rule:nonzero;stroke:none" />
      </g>
      <g
         transform="matrix(1.25,0,0,-1.25,619.08938,288.17893)"
         id="g13327">
        <path
           d="M 0,0 C 0.012,0.237 -0.178,0.44 -0.423,0.451 -0.668,0.462 -0.875,0.278 -0.885,0.041 -0.894,-0.196 -0.706,-0.397 -0.462,-0.408 -0.219,-0.419 -0.012,-0.237 0,0"
           id="path13329"
           style="fill:#ffffff;fill-opacity:1;fill-rule:nonzero;stroke:none" />
      </g>
      <g
         transform="matrix(1.25,0,0,-1.25,619.18725,286.22055)"
         id="g13331">
        <path
           d="M 0,0 C 0.012,0.237 -0.18,0.44 -0.428,0.451 -0.677,0.463 -0.887,0.279 -0.897,0.041 -0.907,-0.196 -0.715,-0.397 -0.468,-0.408 -0.222,-0.419 -0.012,-0.237 0,0"
           id="path13333"
           style="fill:#ffffff;fill-opacity:1;fill-rule:nonzero;stroke:none" />
      </g>
      <g
         transform="matrix(1.25,0,0,-1.25,619.2855,284.2618)"
         id="g13335">
        <path
           d="M 0,0 C 0.012,0.237 -0.183,0.44 -0.435,0.451 -0.686,0.463 -0.899,0.279 -0.909,0.042 -0.919,-0.195 -0.724,-0.396 -0.474,-0.408 -0.225,-0.419 -0.012,-0.237 0,0"
           id="path13337"
           style="fill:#ffffff;fill-opacity:1;fill-rule:nonzero;stroke:none" />
      </g>
      <g
         transform="matrix(1.25,0,0,-1.25,615.92563,291.62468)"
         id="g13339">
        <path
           d="m 0,0 c -0.197,0.005 -0.295,0.008 -0.492,0.013 -0.667,0.017 -1.001,0.023 -1.668,0.029 -0.112,10e-4 -0.169,10e-4 -0.282,0.002 -0.056,0.098 -0.085,0.147 -0.141,0.244 -0.24,0.415 -0.36,0.622 -0.604,1.035 0,-0.293 -0.001,-0.439 -0.001,-0.731 0,-0.197 0,-0.295 0,-0.491 -0.197,0 -0.296,0 -0.493,-0.001 C -4.563,0.097 -5.005,0.091 -5.887,0.07 -6.084,0.066 -6.182,0.064 -6.379,0.058 -6.385,0.254 -6.387,0.352 -6.393,0.548 -6.45,2.654 -6.508,4.76 -6.567,6.867 c -0.005,0.196 -0.008,0.294 -0.013,0.49 0.209,0.006 0.314,0.008 0.524,0.014 0.664,0.015 0.997,0.021 1.662,0.026 0.119,0.002 0.179,0.003 0.298,0.003 0.061,-0.096 0.092,-0.144 0.153,-0.24 0.307,-0.479 0.458,-0.719 0.758,-1.2 0,0.381 0,0.571 0,0.952 0,0.197 10e-4,0.295 10e-4,0.491 0.21,0 0.314,-10e-4 0.524,-0.002 C -1.721,7.397 -1.251,7.39 -0.312,7.367 -0.102,7.362 0.002,7.359 0.212,7.353 0.207,7.157 0.203,7.059 0.198,6.863 0.137,4.738 0.075,2.615 0.014,0.49 0.008,0.294 0.006,0.196 0,0"
           id="path13341"
           style="fill:#005294;fill-opacity:1;fill-rule:nonzero;stroke:none" />
      </g>
      <g
         transform="matrix(1.25,0,0,-1.25,615.32575,290.99518)"
         id="g13343">
        <path
           d="M 0,0 C -0.67,0.016 -1.005,0.022 -1.675,0.028 -2.14,0.836 -2.376,1.239 -2.856,2.041 -2.992,2.267 -3.06,2.38 -3.196,2.605 -3.202,2.331 -3.204,2.195 -3.209,1.922 -3.207,1.188 -3.205,0.821 -3.203,0.088 -4.089,0.084 -4.532,0.078 -5.418,0.057 -5.467,2.164 -5.516,4.27 -5.565,6.376 c 0.661,0.016 0.993,0.021 1.655,0.027 0.553,-0.859 0.824,-1.291 1.357,-2.157 0.137,-0.222 0.205,-0.333 0.341,-0.556 0.008,0.27 0.011,0.404 0.019,0.674 0.004,0.818 0.006,1.226 0.01,2.044 C -1.247,6.402 -0.779,6.395 0.156,6.373 0.104,4.248 0.052,2.124 0,0"
           id="path13345"
           style="fill:#fcc200;fill-opacity:1;fill-rule:nonzero;stroke:none" />
      </g>
      <g
         transform="matrix(1.25,0,0,-1.25,610.3535,289.90893)"
         id="g13347">
        <path
           d="M 0,0 C -0.002,0.238 -0.201,0.429 -0.442,0.425 -0.684,0.422 -0.877,0.225 -0.873,-0.012 -0.869,-0.249 -0.671,-0.439 -0.43,-0.435 -0.19,-0.432 0.003,-0.237 0,0"
           id="path13349"
           style="fill:#ffffff;fill-opacity:1;fill-rule:nonzero;stroke:none" />
      </g>
      <g
         transform="matrix(1.25,0,0,-1.25,610.33312,287.94755)"
         id="g13351">
        <path
           d="M 0,0 C -0.003,0.238 -0.204,0.428 -0.449,0.425 -0.694,0.421 -0.89,0.225 -0.885,-0.012 -0.881,-0.25 -0.68,-0.439 -0.437,-0.436 -0.194,-0.432 0.002,-0.237 0,0"
           id="path13353"
           style="fill:#ffffff;fill-opacity:1;fill-rule:nonzero;stroke:none" />
      </g>
      <g
         transform="matrix(1.25,0,0,-1.25,610.31188,285.92993)"
         id="g13355">
        <path
           d="m 0,0 c -0.003,0.238 -0.206,0.428 -0.455,0.425 -0.249,-0.004 -0.447,-0.2 -0.443,-0.438 0.005,-0.238 0.209,-0.426 0.456,-0.423 C -0.196,-0.432 0.003,-0.238 0,0"
           id="path13357"
           style="fill:#ffffff;fill-opacity:1;fill-rule:nonzero;stroke:none" />
      </g>
      <g
         transform="matrix(1.25,0,0,-1.25,610.292,284.02543)"
         id="g13359">
        <path
           d="M 0,0 C -0.003,0.238 -0.209,0.428 -0.461,0.424 -0.713,0.421 -0.913,0.225 -0.909,-0.013 -0.904,-0.25 -0.699,-0.439 -0.449,-0.435 -0.199,-0.432 0.003,-0.237 0,0"
           id="path13361"
           style="fill:#ffffff;fill-opacity:1;fill-rule:nonzero;stroke:none" />
      </g>
      <g
         transform="matrix(1.25,0,0,-1.25,611.90112,286.09855)"
         id="g13363">
        <path
           d="M 0,0 C 0,0.238 -0.202,0.43 -0.45,0.43 -0.698,0.429 -0.898,0.235 -0.896,-0.003 -0.895,-0.24 -0.693,-0.431 -0.447,-0.43 -0.2,-0.43 0,-0.237 0,0"
           id="path13365"
           style="fill:#ffffff;fill-opacity:1;fill-rule:nonzero;stroke:none" />
      </g>
      <g
         transform="matrix(1.25,0,0,-1.25,613.24662,287.87431)"
         id="g13367">
        <path
           d="M 0,0 C 0.002,0.238 -0.195,0.432 -0.44,0.433 -0.685,0.435 -0.884,0.243 -0.885,0.005 -0.886,-0.232 -0.688,-0.425 -0.446,-0.426 -0.202,-0.428 -0.002,-0.237 0,0"
           id="path13369"
           style="fill:#ffffff;fill-opacity:1;fill-rule:nonzero;stroke:none" />
      </g>
      <g
         transform="matrix(1.25,0,0,-1.25,614.77312,289.9303)"
         id="g13371">
        <path
           d="M 0,0 C 0.005,0.238 -0.188,0.435 -0.429,0.438 -0.671,0.442 -0.869,0.252 -0.873,0.015 -0.876,-0.223 -0.684,-0.418 -0.443,-0.422 -0.203,-0.426 -0.005,-0.238 0,0"
           id="path13373"
           style="fill:#ffffff;fill-opacity:1;fill-rule:nonzero;stroke:none" />
      </g>
      <g
         transform="matrix(1.25,0,0,-1.25,614.8135,287.9698)"
         id="g13375">
        <path
           d="M 0,0 C 0.005,0.238 -0.19,0.434 -0.435,0.439 -0.68,0.442 -0.882,0.252 -0.885,0.015 -0.888,-0.222 -0.693,-0.417 -0.45,-0.422 -0.206,-0.426 -0.005,-0.237 0,0"
           id="path13377"
           style="fill:#ffffff;fill-opacity:1;fill-rule:nonzero;stroke:none" />
      </g>
      <g
         transform="matrix(1.25,0,0,-1.25,614.85388,286.0093)"
         id="g13379">
        <path
           d="M 0,0 C 0.005,0.238 -0.193,0.434 -0.441,0.439 -0.69,0.443 -0.894,0.253 -0.897,0.015 -0.9,-0.222 -0.702,-0.417 -0.456,-0.422 -0.209,-0.425 -0.005,-0.237 0,0"
           id="path13381"
           style="fill:#ffffff;fill-opacity:1;fill-rule:nonzero;stroke:none" />
      </g>
      <g
         transform="matrix(1.25,0,0,-1.25,614.894,284.04868)"
         id="g13383">
        <path
           d="M 0,0 C 0.005,0.238 -0.196,0.434 -0.447,0.439 -0.699,0.443 -0.906,0.253 -0.909,0.015 -0.912,-0.222 -0.712,-0.417 -0.462,-0.422 -0.212,-0.425 -0.005,-0.237 0,0"
           id="path13385"
           style="fill:#ffffff;fill-opacity:1;fill-rule:nonzero;stroke:none" />
      </g>
      <g
         transform="matrix(1.25,0,0,-1.25,595.66725,284.8913)"
         id="g13387">
        <path
           d="M 0,0 C -0.026,0.236 0.157,0.45 0.407,0.476 0.658,0.503 0.882,0.332 0.906,0.096 0.93,-0.141 0.747,-0.353 0.498,-0.379 0.249,-0.405 0.026,-0.236 0,0"
           id="path13389"
           style="fill:#ffffff;fill-opacity:1;fill-rule:nonzero;stroke:none" />
      </g>
      <g
         transform="matrix(1.25,0,0,-1.25,595.883,286.86905)"
         id="g13391">
        <path
           d="M 0,0 C -0.025,0.236 0.154,0.45 0.401,0.476 0.649,0.502 0.87,0.33 0.894,0.094 0.917,-0.142 0.738,-0.354 0.492,-0.38 0.246,-0.405 0.026,-0.236 0,0"
           id="path13393"
           style="fill:#ffffff;fill-opacity:1;fill-rule:nonzero;stroke:none" />
      </g>
      <g
         transform="matrix(1.25,0,0,-1.25,596.09988,288.84631)"
         id="g13395">
        <path
           d="M 0,0 C -0.026,0.236 0.151,0.449 0.395,0.475 0.64,0.501 0.857,0.329 0.882,0.093 0.906,-0.143 0.728,-0.355 0.486,-0.38 0.243,-0.406 0.026,-0.236 0,0"
           id="path13397"
           style="fill:#ffffff;fill-opacity:1;fill-rule:nonzero;stroke:none" />
      </g>
      <g
         transform="matrix(1.25,0,0,-1.25,596.31637,290.82393)"
         id="g13399">
        <path
           d="M 0,0 C -0.025,0.236 0.148,0.449 0.389,0.475 0.63,0.5 0.846,0.328 0.869,0.092 0.893,-0.144 0.719,-0.355 0.48,-0.38 0.241,-0.406 0.026,-0.236 0,0"
           id="path13401"
           style="fill:#ffffff;fill-opacity:1;fill-rule:nonzero;stroke:none" />
      </g>
      <g
         transform="matrix(1.25,0,0,-1.25,589.51325,285.69455)"
         id="g13403">
        <path
           d="M 0,0 C -0.036,0.235 0.138,0.456 0.388,0.493 0.637,0.53 0.868,0.368 0.902,0.133 0.935,-0.102 0.761,-0.321 0.513,-0.358 0.266,-0.395 0.036,-0.235 0,0"
           id="path13405"
           style="fill:#ffffff;fill-opacity:1;fill-rule:nonzero;stroke:none" />
      </g>
      <g
         transform="matrix(1.25,0,0,-1.25,589.81188,287.66143)"
         id="g13407">
        <path
           d="M 0,0 C -0.036,0.235 0.135,0.456 0.382,0.492 0.628,0.529 0.855,0.367 0.889,0.132 0.923,-0.103 0.752,-0.323 0.508,-0.359 0.263,-0.395 0.036,-0.235 0,0"
           id="path13409"
           style="fill:#ffffff;fill-opacity:1;fill-rule:nonzero;stroke:none" />
      </g>
      <g
         transform="matrix(1.25,0,0,-1.25,590.1105,289.62868)"
         id="g13411">
        <path
           d="M 0,0 C -0.036,0.235 0.133,0.456 0.376,0.492 0.619,0.527 0.844,0.365 0.878,0.13 0.911,-0.105 0.743,-0.324 0.501,-0.36 0.26,-0.395 0.035,-0.234 0,0"
           id="path13413"
           style="fill:#ffffff;fill-opacity:1;fill-rule:nonzero;stroke:none" />
      </g>
      <g
         transform="matrix(1.25,0,0,-1.25,590.40913,291.59518)"
         id="g13415">
        <path
           d="M 0,0 C -0.036,0.235 0.13,0.455 0.37,0.49 0.609,0.526 0.832,0.363 0.865,0.128 0.899,-0.107 0.734,-0.325 0.496,-0.361 0.258,-0.396 0.036,-0.235 0,0"
           id="path13417"
           style="fill:#ffffff;fill-opacity:1;fill-rule:nonzero;stroke:none" />
      </g>
      <g
         transform="matrix(1.25,0,0,-1.25,591.23837,286.5943)"
         id="g13419">
        <path
           d="M 0,0 C -0.033,0.235 0.141,0.454 0.389,0.488 0.638,0.522 0.864,0.359 0.895,0.123 0.927,-0.112 0.753,-0.33 0.506,-0.364 0.26,-0.398 0.033,-0.235 0,0"
           id="path13421"
           style="fill:#ffffff;fill-opacity:1;fill-rule:nonzero;stroke:none" />
      </g>
      <g
         transform="matrix(1.25,0,0,-1.25,595.47425,286.05943)"
         id="g13423">
        <path
           d="M 0,0 C -0.026,0.236 -0.249,0.405 -0.498,0.376 -0.747,0.347 -0.926,0.132 -0.898,-0.104 -0.87,-0.34 -0.646,-0.507 -0.399,-0.479 -0.152,-0.45 0.026,-0.236 0,0"
           id="path13425"
           style="fill:#ffffff;fill-opacity:1;fill-rule:nonzero;stroke:none" />
      </g>
      <g
         transform="matrix(1.25,0,0,-1.25,592.93675,287.4733)"
         id="g13427">
        <path
           d="M 0,0 C -0.031,0.235 0.144,0.453 0.391,0.484 0.638,0.515 0.861,0.348 0.89,0.113 0.919,-0.123 0.744,-0.339 0.499,-0.37 0.254,-0.401 0.031,-0.235 0,0"
           id="path13429"
           style="fill:#ffffff;fill-opacity:1;fill-rule:nonzero;stroke:none" />
      </g>
      <g
         transform="matrix(1.25,0,0,-1.25,608.721,291.53705)"
         id="g13431">
        <path
           d="M 0,0 C -0.249,-0.005 -0.373,-0.009 -0.622,-0.015 -1.423,-0.037 -1.823,-0.052 -2.623,-0.089 -2.76,-0.095 -2.827,-0.098 -2.963,-0.105 -3.008,0.024 -3.031,0.088 -3.075,0.216 -3.187,0.536 -3.243,0.697 -3.357,1.017 -4.092,0.979 -4.46,0.957 -5.195,0.907 -5.27,0.576 -5.307,0.41 -5.38,0.079 -5.41,-0.054 -5.424,-0.12 -5.453,-0.252 c -0.136,-0.01 -0.204,-0.015 -0.339,-0.025 -0.8,-0.059 -1.199,-0.092 -1.998,-0.165 -0.247,-0.022 -0.371,-0.034 -0.618,-0.058 0.052,0.242 0.078,0.363 0.13,0.604 0.48,2.166 0.977,4.387 1.514,6.54 0.032,0.129 0.049,0.193 0.082,0.322 0.141,0.011 0.211,0.017 0.353,0.027 1.335,0.098 2.003,0.138 3.339,0.199 0.141,0.006 0.212,0.009 0.353,0.015 0.048,-0.123 0.072,-0.185 0.12,-0.309 C -1.721,4.825 -0.944,2.68 -0.204,0.586 -0.122,0.352 -0.081,0.234 0,0 m -4.682,3.253 c 0.223,0.014 0.334,0.02 0.557,0.033 -0.134,0.381 -0.201,0.571 -0.337,0.951 -0.089,-0.393 -0.133,-0.59 -0.22,-0.984"
           id="path13433"
           style="fill:#005294;fill-opacity:1;fill-rule:nonzero;stroke:none" />
      </g>
      <g
         transform="matrix(1.25,0,0,-1.25,607.92737,290.99093)"
         id="g13435">
        <path
           d="M 0,0 C -0.804,-0.022 -1.206,-0.037 -2.01,-0.074 -2.165,0.375 -2.243,0.6 -2.4,1.049 -3.415,1 -3.922,0.97 -4.936,0.899 -5.039,0.434 -5.09,0.202 -5.191,-0.263 c -0.802,-0.059 -1.204,-0.092 -2.006,-0.165 0.487,2.163 0.993,4.383 1.536,6.533 1.33,0.098 1.996,0.138 3.327,0.198 C -1.531,4.233 -0.747,2.09 0,0 M -3.901,5.018 C -4.217,3.94 -4.37,3.401 -4.669,2.322 c 0.742,0.05 1.113,0.072 1.856,0.11 -0.427,1.036 -0.644,1.553 -1.088,2.586"
           id="path13437"
           style="fill:#fcc200;fill-opacity:1;fill-rule:nonzero;stroke:none" />
      </g>
      <g
         transform="matrix(1.25,0,0,-1.25,633.16338,285.40955)"
         id="g13439">
        <path
           d="M 0,0 C 0.033,0.227 -0.137,0.44 -0.379,0.474 -0.622,0.509 -0.844,0.351 -0.875,0.123 -0.906,-0.105 -0.736,-0.316 -0.495,-0.35 -0.254,-0.384 -0.033,-0.227 0,0"
           id="path13441"
           style="fill:#ffffff;fill-opacity:1;fill-rule:nonzero;stroke:none" />
      </g>
      <g
         transform="matrix(1.25,0,0,-1.25,632.75725,288.28193)"
         id="g13443">
        <path
           d="M 0,0 C 0.033,0.228 -0.132,0.44 -0.37,0.474 -0.608,0.507 -0.827,0.349 -0.858,0.121 -0.889,-0.107 -0.723,-0.318 -0.486,-0.351 -0.25,-0.384 -0.033,-0.227 0,0"
           id="path13445"
           style="fill:#ffffff;fill-opacity:1;fill-rule:nonzero;stroke:none" />
      </g>
      <g
         transform="matrix(1.25,0,0,-1.25,632.29625,291.64256)"
         id="g13447">
        <path
           d="M 0,0 C 0.031,0.219 -0.124,0.422 -0.347,0.454 -0.57,0.485 -0.776,0.332 -0.806,0.113 -0.836,-0.105 -0.68,-0.308 -0.459,-0.339 -0.237,-0.37 -0.032,-0.219 0,0"
           id="path13449"
           style="fill:#ffffff;fill-opacity:1;fill-rule:nonzero;stroke:none" />
      </g>
      <g
         transform="matrix(1.25,0,0,-1.25,632.9615,286.83468)"
         id="g13451">
        <path
           d="M 0,0 C 0.033,0.227 -0.135,0.44 -0.375,0.474 -0.615,0.508 -0.836,0.349 -0.867,0.122 -0.898,-0.106 -0.73,-0.317 -0.491,-0.351 -0.253,-0.384 -0.033,-0.228 0,0"
           id="path13453"
           style="fill:#ffffff;fill-opacity:1;fill-rule:nonzero;stroke:none" />
      </g>
      <g
         transform="matrix(1.25,0,0,-1.25,601.45675,284.31731)"
         id="g13455">
        <path
           d="M 0,0 C -0.017,0.237 0.174,0.443 0.425,0.46 0.677,0.477 0.893,0.297 0.908,0.06 0.923,-0.177 0.732,-0.382 0.482,-0.398 0.233,-0.415 0.016,-0.237 0,0"
           id="path13457"
           style="fill:#ffffff;fill-opacity:1;fill-rule:nonzero;stroke:none" />
      </g>
      <g
         transform="matrix(1.25,0,0,-1.25,600.919,286.35081)"
         id="g13459">
        <path
           d="M 0,0 C -0.018,0.237 0.169,0.444 0.417,0.462 0.665,0.479 0.879,0.3 0.895,0.063 0.911,-0.174 0.724,-0.379 0.478,-0.396 0.231,-0.414 0.018,-0.237 0,0"
           id="path13461"
           style="fill:#ffffff;fill-opacity:1;fill-rule:nonzero;stroke:none" />
      </g>
      <g
         transform="matrix(1.25,0,0,-1.25,600.39925,288.38606)"
         id="g13463">
        <path
           d="M 0,0 C -0.019,0.237 0.164,0.444 0.409,0.463 0.654,0.482 0.866,0.303 0.883,0.067 0.9,-0.17 0.716,-0.377 0.474,-0.395 0.231,-0.413 0.019,-0.237 0,0"
           id="path13465"
           style="fill:#ffffff;fill-opacity:1;fill-rule:nonzero;stroke:none" />
      </g>
      <g
         transform="matrix(1.25,0,0,-1.25,599.89775,290.4233)"
         id="g13467">
        <path
           d="M 0,0 C -0.02,0.236 0.16,0.445 0.401,0.465 0.642,0.484 0.853,0.307 0.871,0.07 0.889,-0.167 0.709,-0.374 0.47,-0.393 0.23,-0.412 0.02,-0.236 0,0"
           id="path13469"
           style="fill:#ffffff;fill-opacity:1;fill-rule:nonzero;stroke:none" />
      </g>
      <g
         transform="matrix(1.25,0,0,-1.25,604.67725,284.1273)"
         id="g13471">
        <path
           d="M 0,0 C -0.011,0.238 -0.225,0.42 -0.477,0.407 -0.729,0.394 -0.922,0.19 -0.909,-0.047 -0.895,-0.284 -0.682,-0.465 -0.432,-0.452 -0.182,-0.439 0.012,-0.237 0,0"
           id="path13473"
           style="fill:#ffffff;fill-opacity:1;fill-rule:nonzero;stroke:none" />
      </g>
      <g
         transform="matrix(1.25,0,0,-1.25,605.45075,286.08306)"
         id="g13475">
        <path
           d="M 0,0 C -0.01,0.238 -0.22,0.421 -0.468,0.409 -0.717,0.398 -0.908,0.195 -0.896,-0.043 -0.884,-0.28 -0.674,-0.461 -0.428,-0.45 -0.181,-0.438 0.01,-0.237 0,0"
           id="path13477"
           style="fill:#ffffff;fill-opacity:1;fill-rule:nonzero;stroke:none" />
      </g>
      <g
         transform="matrix(1.25,0,0,-1.25,606.2065,288.0423)"
         id="g13479">
        <path
           d="m 0,0 c -0.01,0.237 -0.216,0.422 -0.461,0.411 -0.245,-0.01 -0.435,-0.212 -0.424,-0.449 0.011,-0.237 0.218,-0.421 0.461,-0.41 C -0.181,-0.438 0.009,-0.238 0,0"
           id="path13481"
           style="fill:#ffffff;fill-opacity:1;fill-rule:nonzero;stroke:none" />
      </g>
      <g
         transform="matrix(1.25,0,0,-1.25,606.943,290.00643)"
         id="g13483">
        <path
           d="m 0,0 c -0.008,0.237 -0.211,0.423 -0.452,0.414 -0.242,-0.009 -0.43,-0.21 -0.42,-0.447 0.01,-0.238 0.213,-0.422 0.453,-0.413 C -0.179,-0.436 0.008,-0.237 0,0"
           id="path13485"
           style="fill:#ffffff;fill-opacity:1;fill-rule:nonzero;stroke:none" />
      </g>
      <g
         transform="matrix(1.25,0,0,-1.25,601.9365,289.02368)"
         id="g13487">
        <path
           d="M 0,0 C -0.015,0.222 0.158,0.415 0.386,0.43 0.615,0.445 0.81,0.276 0.824,0.054 0.838,-0.168 0.666,-0.36 0.439,-0.375 0.212,-0.389 0.015,-0.222 0,0"
           id="path13489"
           style="fill:#ffffff;fill-opacity:1;fill-rule:nonzero;stroke:none" />
      </g>
      <g
         transform="matrix(1.25,0,0,-1.25,603.71825,288.9118)"
         id="g13491">
        <path
           d="M 0,0 C -0.013,0.227 0.165,0.422 0.399,0.434 0.632,0.446 0.831,0.272 0.842,0.044 0.853,-0.183 0.674,-0.376 0.443,-0.388 0.211,-0.4 0.013,-0.227 0,0"
           id="path13493"
           style="fill:#ffffff;fill-opacity:1;fill-rule:nonzero;stroke:none" />
      </g>
      <g
         transform="matrix(1.25,0,0,-1.25,630.17813,292.74531)"
         id="g13495">
        <path
           d="M 0,0 C -0.248,0.032 -0.371,0.048 -0.619,0.079 -1.415,0.178 -1.814,0.225 -2.611,0.31 -2.747,0.325 -2.815,0.332 -2.95,0.346 -2.975,0.479 -2.987,0.546 -3.012,0.679 -3.075,1.013 -3.106,1.18 -3.17,1.514 -3.903,1.588 -4.271,1.622 -5.005,1.684 -5.129,1.368 -5.191,1.21 -5.313,0.893 -5.363,0.766 -5.387,0.703 -5.435,0.577 c -0.136,0.011 -0.204,0.016 -0.34,0.027 -0.799,0.063 -1.199,0.091 -2,0.139 -0.247,0.015 -0.371,0.023 -0.619,0.037 0.088,0.231 0.131,0.346 0.22,0.577 0.802,2.068 1.616,4.215 2.473,6.262 0.051,0.122 0.077,0.183 0.129,0.306 C -5.43,7.915 -5.36,7.909 -5.219,7.898 -3.884,7.793 -3.217,7.731 -1.885,7.589 -1.744,7.574 -1.674,7.566 -1.533,7.551 -1.504,7.421 -1.49,7.356 -1.461,7.227 -0.988,5.057 -0.529,2.791 -0.113,0.609 -0.068,0.365 -0.045,0.244 0,0 M -4.142,3.925 C -3.92,3.904 -3.809,3.894 -3.587,3.873 -3.661,4.269 -3.699,4.468 -3.775,4.865 -3.922,4.489 -3.996,4.301 -4.142,3.925"
           id="path13497"
           style="fill:#005294;fill-opacity:1;fill-rule:nonzero;stroke:none" />
      </g>
      <g
         transform="matrix(1.25,0,0,-1.25,629.47437,292.08581)"
         id="g13499">
        <path
           d="M 0,0 C -0.799,0.1 -1.199,0.146 -2,0.232 -2.086,0.7 -2.129,0.934 -2.218,1.402 -3.229,1.507 -3.736,1.554 -4.748,1.636 -4.921,1.193 -5.006,0.972 -5.177,0.527 -5.979,0.59 -6.381,0.619 -7.184,0.668 -6.375,2.733 -5.554,4.876 -4.691,6.92 -3.361,6.815 -2.697,6.753 -1.37,6.612 -0.889,4.444 -0.423,2.18 0,0 M -3.1,5.551 C -3.576,4.534 -3.81,4.025 -4.269,3.003 -3.527,2.94 -3.157,2.906 -2.416,2.831 -2.682,3.92 -2.818,4.464 -3.1,5.551"
           id="path13501"
           style="fill:#fcc200;fill-opacity:1;fill-rule:nonzero;stroke:none" />
      </g>
      <g
         transform="matrix(1.25,0,0,-1.25,624.08175,284.50805)"
         id="g13503">
        <path
           d="M 0,0 C 0.02,0.236 0.24,0.412 0.491,0.39 0.742,0.369 0.928,0.158 0.907,-0.079 0.886,-0.315 0.666,-0.488 0.417,-0.467 0.167,-0.445 -0.019,-0.237 0,0"
           id="path13505"
           style="fill:#ffffff;fill-opacity:1;fill-rule:nonzero;stroke:none" />
      </g>
      <g
         transform="matrix(1.25,0,0,-1.25,623.24187,286.43655)"
         id="g13507">
        <path
           d="M 0,0 C 0.018,0.236 0.235,0.413 0.482,0.393 0.731,0.373 0.916,0.163 0.895,-0.073 0.875,-0.309 0.659,-0.484 0.413,-0.464 0.167,-0.445 -0.018,-0.237 0,0"
           id="path13509"
           style="fill:#ffffff;fill-opacity:1;fill-rule:nonzero;stroke:none" />
      </g>
      <g
         transform="matrix(1.25,0,0,-1.25,622.42,288.37018)"
         id="g13511">
        <path
           d="M 0,0 C 0.017,0.237 0.23,0.415 0.475,0.396 0.72,0.377 0.902,0.169 0.883,-0.068 0.865,-0.304 0.652,-0.48 0.409,-0.461 0.166,-0.443 -0.018,-0.237 0,0"
           id="path13513"
           style="fill:#ffffff;fill-opacity:1;fill-rule:nonzero;stroke:none" />
      </g>
      <g
         transform="matrix(1.25,0,0,-1.25,621.61562,290.3073)"
         id="g13515">
        <path
           d="M 0,0 C 0.016,0.237 0.225,0.416 0.467,0.399 0.708,0.381 0.889,0.174 0.872,-0.063 0.853,-0.299 0.644,-0.477 0.405,-0.46 0.165,-0.442 -0.016,-0.237 0,0"
           id="path13517"
           style="fill:#ffffff;fill-opacity:1;fill-rule:nonzero;stroke:none" />
      </g>
      <g
         transform="matrix(1.25,0,0,-1.25,627.29662,284.80818)"
         id="g13519">
        <path
           d="M 0,0 C 0.025,0.236 -0.159,0.449 -0.409,0.475 -0.661,0.5 -0.883,0.327 -0.906,0.091 -0.929,-0.146 -0.745,-0.357 -0.496,-0.381 -0.247,-0.406 -0.024,-0.236 0,0"
           id="path13521"
           style="fill:#ffffff;fill-opacity:1;fill-rule:nonzero;stroke:none" />
      </g>
      <g
         transform="matrix(1.25,0,0,-1.25,627.76638,286.85868)"
         id="g13523">
        <path
           d="M 0,0 C 0.026,0.236 -0.154,0.449 -0.402,0.475 -0.65,0.502 -0.87,0.33 -0.894,0.094 -0.918,-0.142 -0.738,-0.354 -0.491,-0.38 -0.246,-0.406 -0.026,-0.236 0,0"
           id="path13525"
           style="fill:#ffffff;fill-opacity:1;fill-rule:nonzero;stroke:none" />
      </g>
      <g
         transform="matrix(1.25,0,0,-1.25,628.21725,288.91068)"
         id="g13527">
        <path
           d="M 0,0 C 0.027,0.236 -0.15,0.45 -0.394,0.477 -0.638,0.503 -0.856,0.333 -0.882,0.097 -0.906,-0.139 -0.73,-0.352 -0.487,-0.378 -0.245,-0.405 -0.027,-0.236 0,0"
           id="path13529"
           style="fill:#ffffff;fill-opacity:1;fill-rule:nonzero;stroke:none" />
      </g>
      <g
         transform="matrix(1.25,0,0,-1.25,628.64988,290.96343)"
         id="g13531">
        <path
           d="M 0,0 C 0.028,0.236 -0.145,0.45 -0.386,0.478 -0.626,0.506 -0.843,0.336 -0.869,0.1 -0.895,-0.136 -0.722,-0.349 -0.484,-0.376 -0.244,-0.404 -0.028,-0.236 0,0"
           id="path13533"
           style="fill:#ffffff;fill-opacity:1;fill-rule:nonzero;stroke:none" />
      </g>
      <g
         transform="matrix(1.25,0,0,-1.25,623.83025,289.2318)"
         id="g13535">
        <path
           d="M 0,0 C 0.019,0.228 0.224,0.397 0.458,0.377 0.693,0.357 0.867,0.154 0.846,-0.073 0.825,-0.301 0.619,-0.469 0.386,-0.449 0.154,-0.428 -0.019,-0.228 0,0"
           id="path13537"
           style="fill:#ffffff;fill-opacity:1;fill-rule:nonzero;stroke:none" />
      </g>
      <g
         transform="matrix(1.25,0,0,-1.25,625.61975,289.3918)"
         id="g13539">
        <path
           d="M 0,0 C 0.022,0.228 0.229,0.394 0.463,0.37 0.697,0.347 0.868,0.143 0.844,-0.084 0.821,-0.311 0.614,-0.476 0.381,-0.453 0.149,-0.43 -0.021,-0.227 0,0"
           id="path13541"
           style="fill:#ffffff;fill-opacity:1;fill-rule:nonzero;stroke:none" />
      </g>
      <g
         transform="matrix(1.25,0,0,-1.25,597.00412,282.57418)"
         id="g13543">
        <path
           d="M 0,0 C -0.149,-0.013 -0.298,-0.026 -0.447,-0.04 -1.172,-0.106 -1.898,-0.177 -2.622,-0.254 -2.771,-0.27 -2.92,-0.286 -3.068,-0.303 -3.09,-0.13 -3.121,0.042 -3.143,0.215 -3.239,0.977 -3.335,1.741 -3.432,2.505 -3.532,2.332 -3.633,2.16 -3.733,1.988 -3.828,1.824 -3.922,1.66 -4.016,1.496 -4.15,1.634 -4.284,1.771 -4.419,1.909 -4.561,2.053 -4.703,2.198 -4.846,2.342 -4.74,1.578 -4.557,0.816 -4.452,0.055 c 0.024,-0.172 0.047,-0.344 0.071,-0.516 -0.148,-0.018 -0.296,-0.036 -0.444,-0.054 -0.724,-0.09 -1.446,-0.184 -2.167,-0.285 -0.148,-0.021 -0.296,-0.041 -0.444,-0.063 -0.028,0.172 -0.056,0.343 -0.084,0.515 -0.338,2.068 -0.757,4.145 -1.098,6.232 -0.029,0.174 -0.057,0.348 -0.085,0.522 0.156,0.023 0.313,0.045 0.47,0.067 0.772,0.108 1.545,0.211 2.319,0.307 0.072,0.009 0.144,0.018 0.215,0.027 0.055,-0.055 0.111,-0.109 0.166,-0.163 0.323,-0.318 0.645,-0.636 0.964,-0.956 0.227,0.383 0.456,0.765 0.687,1.147 0.04,0.066 0.079,0.131 0.119,0.196 0.072,0.008 0.143,0.015 0.215,0.023 0.776,0.084 1.553,0.161 2.33,0.232 0.157,0.015 0.315,0.028 0.473,0.043 C -0.727,7.153 -0.71,6.978 -0.692,6.802 -0.481,4.698 -0.271,2.604 -0.062,0.519 -0.044,0.346 -0.017,0.173 0,0"
           id="path13545"
           style="fill:#005294;fill-opacity:1;fill-rule:nonzero;stroke:none" />
      </g>
      <g
         transform="matrix(1.25,0,0,-1.25,596.36612,281.97568)"
         id="g13547">
        <path
           d="M 0,0 C -0.729,-0.066 -1.457,-0.138 -2.185,-0.216 -2.312,0.825 -2.44,1.867 -2.568,2.912 -2.59,3.098 -2.613,3.285 -2.636,3.471 -2.727,3.318 -2.817,3.166 -2.907,3.014 -3.144,2.613 -3.378,2.212 -3.611,1.811 -3.94,2.147 -4.271,2.483 -4.605,2.818 -4.732,2.945 -4.86,3.072 -4.987,3.199 c 0.026,-0.186 0.052,-0.371 0.079,-0.557 0.147,-1.043 0.373,-2.083 0.52,-3.12 -0.726,-0.09 -1.452,-0.185 -2.176,-0.286 -0.331,2.069 -0.742,4.148 -1.075,6.236 0.769,0.108 1.539,0.21 2.31,0.305 0.407,-0.398 0.811,-0.798 1.212,-1.2 0.054,-0.055 0.109,-0.109 0.164,-0.164 0.038,0.065 0.077,0.131 0.116,0.197 0.285,0.48 0.572,0.961 0.864,1.44 0.772,0.083 1.546,0.16 2.32,0.231 C -0.434,4.178 -0.217,2.084 0,0"
           id="path13549"
           style="fill:#f9c108;fill-opacity:1;fill-rule:nonzero;stroke:none" />
      </g>
      <g
         transform="matrix(1.25,0,0,-1.25,629.85925,282.81455)"
         id="g13551">
        <path
           d="M 0,0 C -0.974,0.099 -1.948,0.188 -2.925,0.267 -3,0.651 -3.077,1.035 -3.154,1.42 -3.772,1.468 -4.39,1.512 -5.009,1.552 -5.148,1.183 -5.287,0.814 -5.424,0.446 -6.402,0.507 -7.38,0.557 -8.359,0.598 -7.474,3.005 -6.545,5.417 -5.571,7.832 -4.245,7.755 -2.921,7.659 -1.598,7.546 -1.022,5.02 -0.489,2.504 0,0 M -4.149,3.713 C -3.982,3.702 -3.814,3.69 -3.647,3.678 -3.706,3.975 -3.764,4.273 -3.824,4.571 -3.933,4.285 -4.041,4 -4.149,3.713"
           id="path13553"
           style="fill:#005294;fill-opacity:1;fill-rule:nonzero;stroke:none" />
      </g>
      <g
         transform="matrix(1.25,0,0,-1.25,629.14837,282.0893)"
         id="g13555">
        <path
           d="m 0,0 c -0.662,0.064 -1.324,0.124 -1.987,0.179 -0.075,0.385 -0.151,0.77 -0.228,1.156 -0.836,0.067 -1.673,0.127 -2.51,0.179 -0.14,-0.37 -0.278,-0.739 -0.415,-1.109 -0.664,0.04 -1.328,0.076 -1.992,0.106 0.777,2.061 1.587,4.126 2.431,6.193 C -3.605,6.638 -2.51,6.559 -1.417,6.468 -0.912,4.304 -0.44,2.148 0,0 M -3.131,5.455 C -3.525,4.522 -3.911,3.589 -4.291,2.656 -3.68,2.616 -3.069,2.572 -2.458,2.524 -2.676,3.5 -2.9,4.477 -3.131,5.455 c 0,0 0,0 0,0"
           id="path13557"
           style="fill:#f9c108;fill-opacity:1;fill-rule:nonzero;stroke:none" />
      </g>
      <g
         transform="matrix(1.25,0,0,-1.25,601.271,282.29255)"
         id="g13559">
        <path
           d="m 0,0 c -0.149,-0.009 -0.377,-0.019 -0.526,-0.029 -0.728,-0.048 -1.376,-0.102 -2.103,-0.162 -0.149,-0.013 -0.367,-0.025 -0.516,-0.037 -0.017,0.172 -0.044,0.345 -0.061,0.518 -0.204,2.086 -0.41,4.18 -0.616,6.284 -0.019,0.191 -0.037,0.382 -0.056,0.573 0.158,0.013 0.316,0.027 0.474,0.04 0.771,0.064 1.543,0.121 2.315,0.173 0.158,0.011 0.317,0.021 0.475,0.031 C -0.6,7.2 -0.586,7.009 -0.573,6.818 -0.42,4.709 -0.189,2.61 -0.038,0.52 -0.025,0.347 -0.012,0.173 0,0"
           id="path13561"
           style="fill:#005294;fill-opacity:1;fill-rule:nonzero;stroke:none" />
      </g>
      <g
         transform="matrix(1.25,0,0,-1.25,600.56337,281.67893)"
         id="g13563">
        <path
           d="M 0,0 C -0.731,-0.048 -1.461,-0.103 -2.191,-0.163 -2.389,1.938 -2.588,4.048 -2.788,6.168 -2.02,6.232 -1.252,6.289 -0.483,6.341 -0.321,4.218 -0.16,2.104 0,0"
           id="path13565"
           style="fill:#f9c108;fill-opacity:1;fill-rule:nonzero;stroke:none" />
      </g>
      <g
         transform="matrix(1.25,0,0,-1.25,601.59075,273.65655)"
         id="g13567">
        <path
           d="M 0,0 C 0.88,0.051 1.761,0.094 2.642,0.129 3.64,0.168 4.501,-0.002 5.22,-0.685 5.807,-1.242 6.17,-2.08 6.185,-3.014 6.205,-4.173 5.662,-5.364 4.726,-5.861 4.249,-6.111 3.802,-6.167 2.788,-6.207 1.997,-6.239 1.206,-6.278 0.416,-6.323 0.28,-4.264 0.142,-2.156 0,0 z m 2.549,-4.688 c 0.053,0.003 0.107,0.005 0.16,0.007 0.406,0.016 0.777,0.057 1.063,0.404 0.183,0.225 0.371,0.568 0.348,1.253 C 4.1,-2.43 3.925,-2.023 3.66,-1.747 3.333,-1.409 2.889,-1.388 2.498,-1.404 2.463,-1.406 2.428,-1.407 2.393,-1.408 2.445,-2.504 2.497,-3.597 2.549,-4.688 z"
           id="path13569"
           style="fill:none;stroke:#005294;stroke-width:1.06400001;stroke-linecap:butt;stroke-linejoin:miter;stroke-miterlimit:4;stroke-opacity:1;stroke-dasharray:none" />
      </g>
      <g
         transform="matrix(1.25,0,0,-1.25,616.607,281.3018)"
         id="g13571">
        <path
           d="M 0,0 C -0.314,1.154 -0.638,2.31 -0.971,3.468 -1.35,2.323 -1.72,1.179 -2.081,0.037 c -0.481,0.005 -0.961,0.007 -1.442,0.007 -0.678,2.098 -1.388,4.2 -2.132,6.306 0.729,0.011 1.459,0.016 2.189,0.016 0.265,-0.899 0.524,-1.798 0.778,-2.695 0.282,0.894 0.57,1.79 0.864,2.686 C -1.214,6.349 -0.603,6.339 0.008,6.324 0.265,5.418 0.516,4.513 0.762,3.61 1.047,4.498 1.337,5.386 1.632,6.276 2.364,6.25 3.096,6.219 3.827,6.182 3.004,4.104 2.214,2.028 1.457,-0.044 0.972,-0.027 0.486,-0.012 0,0"
           id="path13573"
           style="fill:#f9c108;fill-opacity:1;fill-rule:nonzero;stroke:none" />
      </g>
      <g
         transform="matrix(1.25,0,0,-1.25,616.607,281.3018)"
         id="g13575">
        <path
           d="M 0,0 C -0.314,1.154 -0.638,2.31 -0.971,3.468 -1.35,2.323 -1.72,1.179 -2.081,0.037 c -0.481,0.005 -0.961,0.007 -1.442,0.007 -0.678,2.098 -1.388,4.2 -2.132,6.306 0.729,0.011 1.459,0.016 2.189,0.016 0.265,-0.899 0.524,-1.798 0.778,-2.695 0.282,0.894 0.57,1.79 0.864,2.686 C -1.214,6.349 -0.603,6.339 0.008,6.324 0.265,5.418 0.516,4.513 0.762,3.61 1.047,4.498 1.337,5.386 1.632,6.276 2.364,6.25 3.096,6.219 3.827,6.182 3.004,4.104 2.214,2.028 1.457,-0.044 0.972,-0.027 0.486,-0.012 0,0 z m 11.165,-0.812 c 0.113,0.93 0.241,1.921 0.354,2.854 C 10.955,3.28 10.49,4.517 9.888,5.753 10.731,5.676 11.455,5.592 12.295,5.5 12.56,4.935 12.821,4.369 13.078,3.803 c 0.379,0.492 0.761,0.984 1.148,1.474 0.692,-0.085 1.303,-0.155 1.993,-0.25 -0.873,-1.068 -1.65,-2.16 -2.488,-3.238 -0.13,-0.931 -0.274,-1.919 -0.404,-2.846 -0.719,0.087 -1.44,0.169 -2.162,0.245 z"
           id="path13577"
           style="fill:none;stroke:#005294;stroke-width:0.94499999;stroke-linecap:butt;stroke-linejoin:miter;stroke-miterlimit:4;stroke-opacity:1;stroke-dasharray:none" />
      </g>
      <g
         transform="matrix(1.25,0,0,-1.25,601.59075,273.65655)"
         id="g13579">
        <path
           d="M 0,0 C 0.88,0.051 1.761,0.094 2.642,0.129 3.64,0.168 4.501,-0.002 5.22,-0.685 5.807,-1.242 6.17,-2.08 6.185,-3.014 6.205,-4.173 5.662,-5.364 4.726,-5.861 4.249,-6.111 3.802,-6.167 2.788,-6.207 1.997,-6.239 1.206,-6.278 0.416,-6.323 0.278,-4.225 0.139,-2.117 0,0 m 2.549,-4.688 c 0.053,0.003 0.107,0.005 0.16,0.007 0.406,0.016 0.777,0.057 1.063,0.404 0.183,0.225 0.371,0.568 0.348,1.253 C 4.1,-2.43 3.925,-2.023 3.66,-1.747 3.333,-1.409 2.889,-1.388 2.498,-1.404 2.463,-1.406 2.428,-1.407 2.393,-1.408 2.445,-2.504 2.497,-3.597 2.549,-4.688"
           id="path13581"
           style="fill:#f9c108;fill-opacity:1;fill-rule:nonzero;stroke:none" />
      </g>
      <g
         transform="matrix(1.25,0,0,-1.25,616.607,281.3018)"
         id="g13583">
        <path
           d="M 0,0 C -0.314,1.154 -0.638,2.31 -0.971,3.468 -1.35,2.323 -1.72,1.179 -2.081,0.037 c -0.481,0.005 -0.961,0.007 -1.442,0.007 -0.678,2.098 -1.388,4.2 -2.132,6.306 0.729,0.011 1.459,0.016 2.189,0.016 0.265,-0.899 0.524,-1.798 0.778,-2.695 0.282,0.894 0.57,1.79 0.864,2.686 C -1.214,6.349 -0.603,6.339 0.008,6.324 0.265,5.418 0.516,4.513 0.762,3.61 1.047,4.498 1.337,5.386 1.632,6.276 2.364,6.25 3.096,6.219 3.827,6.182 3.004,4.104 2.214,2.028 1.457,-0.044 0.972,-0.027 0.486,-0.012 0,0"
           id="path13585"
           style="fill:#f9c108;fill-opacity:1;fill-rule:nonzero;stroke:none" />
      </g>
      <g
         transform="matrix(1.25,0,0,-1.25,630.56337,282.31655)"
         id="g13587">
        <path
           d="M 0,0 C 0.112,0.93 0.241,1.92 0.354,2.854 -0.21,4.091 -0.675,5.329 -1.277,6.565 -0.434,6.488 0.289,6.404 1.13,6.312 1.395,5.747 1.656,5.181 1.912,4.615 2.292,5.107 2.674,5.598 3.061,6.089 3.753,6.004 4.364,5.934 5.054,5.839 4.181,4.771 3.404,3.679 2.566,2.601 2.436,1.67 2.292,0.682 2.162,-0.246 1.442,-0.158 0.721,-0.076 0,0"
           id="path13589"
           style="fill:#f9c108;fill-opacity:1;fill-rule:nonzero;stroke:none" />
      </g>
      <g
         transform="matrix(1.25,0,0,-1.25,593.66737,275.2993)"
         id="g13591">
        <path
           d="M 0,0 C -0.029,0.233 0.148,0.446 0.395,0.475 0.642,0.505 0.865,0.339 0.891,0.107 0.918,-0.125 0.741,-0.337 0.496,-0.367 0.251,-0.396 0.029,-0.232 0,0"
           id="path13593"
           style="fill:#ffffff;fill-opacity:1;fill-rule:nonzero;stroke:none" />
      </g>
      <g
         transform="matrix(1.25,0,0,-1.25,593.95412,277.24618)"
         id="g13595">
        <path
           d="M 0,0 C -0.029,0.233 0.145,0.446 0.389,0.475 0.633,0.504 0.852,0.338 0.88,0.106 0.906,-0.127 0.732,-0.338 0.49,-0.367 0.248,-0.396 0.029,-0.232 0,0"
           id="path13597"
           style="fill:#ffffff;fill-opacity:1;fill-rule:nonzero;stroke:none" />
      </g>
      <g
         transform="matrix(1.25,0,0,-1.25,594.19563,279.19205)"
         id="g13599">
        <path
           d="M 0,0 C -0.029,0.232 0.143,0.445 0.383,0.474 0.623,0.502 0.841,0.336 0.868,0.104 0.895,-0.128 0.723,-0.339 0.484,-0.368 0.246,-0.397 0.029,-0.233 0,0"
           id="path13601"
           style="fill:#ffffff;fill-opacity:1;fill-rule:nonzero;stroke:none" />
      </g>
      <g
         transform="matrix(1.25,0,0,-1.25,594.43725,281.1383)"
         id="g13603">
        <path
           d="M 0,0 C -0.029,0.232 0.14,0.445 0.377,0.473 0.614,0.501 0.829,0.335 0.855,0.103 0.883,-0.13 0.713,-0.34 0.478,-0.369 0.243,-0.397 0.029,-0.232 0,0"
           id="path13605"
           style="fill:#ffffff;fill-opacity:1;fill-rule:nonzero;stroke:none" />
      </g>
      <g
         transform="matrix(1.25,0,0,-1.25,587.74937,276.13268)"
         id="g13607">
        <path
           d="M 0,0 C -0.038,0.232 0.13,0.452 0.375,0.492 0.621,0.532 0.85,0.376 0.887,0.144 0.924,-0.086 0.755,-0.306 0.511,-0.346 0.268,-0.385 0.039,-0.23 0,0"
           id="path13609"
           style="fill:#ffffff;fill-opacity:1;fill-rule:nonzero;stroke:none" />
      </g>
      <g
         transform="matrix(1.25,0,0,-1.25,588.07137,278.06693)"
         id="g13611">
        <path
           d="M 0,0 C -0.038,0.231 0.127,0.451 0.37,0.49 0.612,0.53 0.838,0.373 0.875,0.142 0.912,-0.089 0.746,-0.308 0.506,-0.347 0.265,-0.386 0.039,-0.231 0,0"
           id="path13613"
           style="fill:#ffffff;fill-opacity:1;fill-rule:nonzero;stroke:none" />
      </g>
      <g
         transform="matrix(1.25,0,0,-1.25,588.348,279.91006)"
         id="g13615">
        <path
           d="M 0,0 C -0.038,0.231 0.124,0.451 0.364,0.489 0.602,0.529 0.827,0.372 0.863,0.14 0.9,-0.091 0.737,-0.309 0.5,-0.348 0.262,-0.386 0.038,-0.231 0,0"
           id="path13617"
           style="fill:#ffffff;fill-opacity:1;fill-rule:nonzero;stroke:none" />
      </g>
      <g
         transform="matrix(1.25,0,0,-1.25,588.716,281.79881)"
         id="g13619">
        <path
           d="M 0,0 C -0.038,0.231 0.122,0.45 0.358,0.488 0.593,0.526 0.815,0.37 0.851,0.139 0.888,-0.093 0.728,-0.31 0.494,-0.349 0.26,-0.387 0.038,-0.232 0,0"
           id="path13621"
           style="fill:#ffffff;fill-opacity:1;fill-rule:nonzero;stroke:none" />
      </g>
      <g
         transform="matrix(1.25,0,0,-1.25,589.46287,276.99493)"
         id="g13623">
        <path
           d="M 0,0 C -0.036,0.231 0.133,0.45 0.377,0.487 0.621,0.524 0.847,0.365 0.881,0.134 0.915,-0.098 0.747,-0.315 0.504,-0.351 0.262,-0.389 0.036,-0.231 0,0"
           id="path13625"
           style="fill:#ffffff;fill-opacity:1;fill-rule:nonzero;stroke:none" />
      </g>
      <g
         transform="matrix(1.25,0,0,-1.25,593.448,276.3623)"
         id="g13627">
        <path
           d="M 0,0 C -0.029,0.233 -0.251,0.396 -0.497,0.364 -0.741,0.333 -0.915,0.117 -0.884,-0.115 -0.852,-0.347 -0.629,-0.508 -0.387,-0.477 -0.144,-0.445 0.03,-0.232 0,0"
           id="path13629"
           style="fill:#ffffff;fill-opacity:1;fill-rule:nonzero;stroke:none" />
      </g>
      <g
         transform="matrix(1.25,0,0,-1.25,591.14975,277.83705)"
         id="g13631">
        <path
           d="M 0,0 C -0.034,0.232 0.136,0.448 0.378,0.482 0.621,0.516 0.844,0.355 0.875,0.123 0.907,-0.109 0.738,-0.324 0.497,-0.357 0.256,-0.391 0.034,-0.232 0,0"
           id="path13633"
           style="fill:#ffffff;fill-opacity:1;fill-rule:nonzero;stroke:none" />
      </g>
      <g
         transform="matrix(1.25,0,0,-1.25,599.67475,280.68918)"
         id="g13635">
        <path
           d="m 0,0 c -0.019,0.234 -0.228,0.407 -0.465,0.386 -0.238,-0.021 -0.414,-0.227 -0.393,-0.46 0.021,-0.234 0.23,-0.405 0.466,-0.385 C -0.156,-0.438 0.019,-0.233 0,0"
           id="path13637"
           style="fill:#ffffff;fill-opacity:1;fill-rule:nonzero;stroke:none" />
      </g>
      <g
         transform="matrix(1.25,0,0,-1.25,599.51513,278.76218)"
         id="g13639">
        <path
           d="M 0,0 C -0.019,0.233 -0.231,0.406 -0.472,0.385 -0.713,0.364 -0.891,0.158 -0.87,-0.076 -0.848,-0.309 -0.637,-0.481 -0.398,-0.459 -0.159,-0.439 0.02,-0.234 0,0"
           id="path13641"
           style="fill:#ffffff;fill-opacity:1;fill-rule:nonzero;stroke:none" />
      </g>
      <g
         transform="matrix(1.25,0,0,-1.25,599.35563,276.83593)"
         id="g13643">
        <path
           d="M 0,0 C -0.019,0.234 -0.234,0.406 -0.477,0.385 -0.722,0.364 -0.903,0.157 -0.882,-0.076 -0.861,-0.31 -0.647,-0.481 -0.404,-0.46 -0.162,-0.438 0.019,-0.233 0,0"
           id="path13645"
           style="fill:#ffffff;fill-opacity:1;fill-rule:nonzero;stroke:none" />
      </g>
      <g
         transform="matrix(1.25,0,0,-1.25,599.19588,274.90868)"
         id="g13647">
        <path
           d="M 0,0 C -0.019,0.233 -0.237,0.406 -0.483,0.384 -0.731,0.363 -0.914,0.156 -0.893,-0.077 -0.872,-0.31 -0.656,-0.482 -0.41,-0.46 -0.165,-0.439 0.019,-0.233 0,0"
           id="path13649"
           style="fill:#ffffff;fill-opacity:1;fill-rule:nonzero;stroke:none" />
      </g>
      <g
         transform="matrix(1.25,0,0,-1.25,613.49575,279.96843)"
         id="g13651">
        <path
           d="m 0,0 c -0.066,0.225 -0.306,0.352 -0.534,0.283 -0.229,-0.068 -0.359,-0.306 -0.291,-0.53 0.068,-0.224 0.307,-0.35 0.535,-0.282 C -0.064,-0.461 0.066,-0.225 0,0"
           id="path13653"
           style="fill:#ffffff;fill-opacity:1;fill-rule:nonzero;stroke:none" />
      </g>
      <g
         transform="matrix(1.25,0,0,-1.25,612.94788,278.11418)"
         id="g13655">
        <path
           d="M 0,0 C -0.066,0.225 -0.308,0.351 -0.54,0.282 -0.771,0.212 -0.904,-0.026 -0.836,-0.25 -0.768,-0.474 -0.527,-0.6 -0.297,-0.531 -0.067,-0.462 0.067,-0.224 0,0"
           id="path13657"
           style="fill:#ffffff;fill-opacity:1;fill-rule:nonzero;stroke:none" />
      </g>
      <g
         transform="matrix(1.25,0,0,-1.25,612.40062,276.26031)"
         id="g13659">
        <path
           d="M 0,0 C -0.067,0.225 -0.312,0.351 -0.546,0.28 -0.781,0.21 -0.916,-0.03 -0.848,-0.254 -0.78,-0.478 -0.536,-0.602 -0.302,-0.532 -0.07,-0.463 0.066,-0.224 0,0"
           id="path13661"
           style="fill:#ffffff;fill-opacity:1;fill-rule:nonzero;stroke:none" />
      </g>
      <g
         transform="matrix(1.25,0,0,-1.25,611.85262,274.40568)"
         id="g13663">
        <path
           d="M 0,0 C -0.066,0.225 -0.314,0.349 -0.551,0.278 -0.79,0.207 -0.927,-0.033 -0.859,-0.257 -0.791,-0.482 -0.544,-0.605 -0.308,-0.534 -0.072,-0.463 0.066,-0.225 0,0"
           id="path13665"
           style="fill:#ffffff;fill-opacity:1;fill-rule:nonzero;stroke:none" />
      </g>
      <g
         transform="matrix(1.25,0,0,-1.25,617.96463,279.90893)"
         id="g13667">
        <path
           d="M 0,0 C -0.08,0.221 -0.327,0.332 -0.551,0.249 -0.775,0.166 -0.89,-0.079 -0.807,-0.299 -0.725,-0.518 -0.479,-0.628 -0.257,-0.546 -0.035,-0.464 0.081,-0.219 0,0"
           id="path13669"
           style="fill:#ffffff;fill-opacity:1;fill-rule:nonzero;stroke:none" />
      </g>
      <g
         transform="matrix(1.25,0,0,-1.25,617.301,278.0928)"
         id="g13671">
        <path
           d="m 0,0 c -0.081,0.22 -0.33,0.33 -0.557,0.247 -0.227,-0.085 -0.344,-0.331 -0.262,-0.55 0.082,-0.219 0.331,-0.329 0.556,-0.246 C -0.038,-0.465 0.08,-0.22 0,0"
           id="path13673"
           style="fill:#ffffff;fill-opacity:1;fill-rule:nonzero;stroke:none" />
      </g>
      <g
         transform="matrix(1.25,0,0,-1.25,616.63663,276.27718)"
         id="g13675">
        <path
           d="M 0,0 C -0.081,0.22 -0.333,0.329 -0.562,0.245 -0.792,0.16 -0.912,-0.088 -0.83,-0.307 -0.748,-0.527 -0.496,-0.635 -0.268,-0.55 -0.04,-0.466 0.08,-0.22 0,0"
           id="path13677"
           style="fill:#ffffff;fill-opacity:1;fill-rule:nonzero;stroke:none" />
      </g>
      <g
         transform="matrix(1.25,0,0,-1.25,615.97275,274.46155)"
         id="g13679">
        <path
           d="M 0,0 C -0.08,0.22 -0.335,0.329 -0.568,0.243 -0.801,0.156 -0.923,-0.092 -0.841,-0.311 -0.759,-0.53 -0.505,-0.638 -0.273,-0.552 -0.043,-0.467 0.08,-0.22 0,0"
           id="path13681"
           style="fill:#ffffff;fill-opacity:1;fill-rule:nonzero;stroke:none" />
      </g>
      <g
         transform="matrix(1.25,0,0,-1.25,618.84863,278.37555)"
         id="g13683">
        <path
           d="M 0,0 C 0.082,0.219 -0.035,0.466 -0.262,0.551 -0.488,0.634 -0.738,0.524 -0.819,0.304 -0.899,0.084 -0.782,-0.161 -0.557,-0.244 -0.332,-0.328 -0.082,-0.219 0,0"
           id="path13685"
           style="fill:#ffffff;fill-opacity:1;fill-rule:nonzero;stroke:none" />
      </g>
      <g
         transform="matrix(1.25,0,0,-1.25,619.52862,276.56618)"
         id="g13687">
        <path
           d="M 0,0 C 0.083,0.22 -0.037,0.467 -0.266,0.552 -0.496,0.638 -0.749,0.529 -0.83,0.308 -0.91,0.089 -0.79,-0.157 -0.561,-0.243 -0.334,-0.327 -0.082,-0.219 0,0"
           id="path13689"
           style="fill:#ffffff;fill-opacity:1;fill-rule:nonzero;stroke:none" />
      </g>
      <g
         transform="matrix(1.25,0,0,-1.25,620.20888,274.75643)"
         id="g13691">
        <path
           d="M 0,0 C 0.083,0.22 -0.04,0.468 -0.272,0.554 -0.505,0.641 -0.759,0.532 -0.84,0.313 -0.921,0.093 -0.799,-0.154 -0.567,-0.24 -0.336,-0.326 -0.082,-0.219 0,0"
           id="path13693"
           style="fill:#ffffff;fill-opacity:1;fill-rule:nonzero;stroke:none" />
      </g>
      <g
         transform="matrix(1.25,0,0,-1.25,614.32213,278.52043)"
         id="g13695">
        <path
           d="M 0,0 C 0.083,0.219 -0.037,0.467 -0.266,0.552 -0.496,0.638 -0.749,0.529 -0.829,0.308 -0.91,0.089 -0.79,-0.158 -0.561,-0.242 -0.334,-0.327 -0.082,-0.219 0,0"
           id="path13697"
           style="fill:#ffffff;fill-opacity:1;fill-rule:nonzero;stroke:none" />
      </g>
      <g
         transform="matrix(1.25,0,0,-1.25,615.00313,276.71031)"
         id="g13699">
        <path
           d="M 0,0 C 0.082,0.219 -0.04,0.468 -0.272,0.554 -0.505,0.641 -0.76,0.532 -0.841,0.312 -0.922,0.093 -0.799,-0.155 -0.568,-0.241 -0.337,-0.326 -0.082,-0.219 0,0"
           id="path13701"
           style="fill:#ffffff;fill-opacity:1;fill-rule:nonzero;stroke:none" />
      </g>
      <g
         transform="matrix(1.25,0,0,-1.25,603.9155,280.37943)"
         id="g13703">
        <path
           d="M 0,0 C -0.011,0.234 -0.213,0.414 -0.451,0.403 -0.689,0.391 -0.873,0.191 -0.86,-0.043 -0.847,-0.277 -0.645,-0.456 -0.408,-0.445 -0.172,-0.432 0.011,-0.234 0,0"
           id="path13705"
           style="fill:#ffffff;fill-opacity:1;fill-rule:nonzero;stroke:none" />
      </g>
      <g
         transform="matrix(1.25,0,0,-1.25,606.08362,280.31843)"
         id="g13707">
        <path
           d="M 0,0 C -0.011,0.234 -0.213,0.415 -0.451,0.403 -0.689,0.391 -0.873,0.191 -0.86,-0.043 -0.847,-0.277 -0.645,-0.456 -0.408,-0.445 -0.172,-0.432 0.011,-0.234 0,0"
           id="path13709"
           style="fill:#ffffff;fill-opacity:1;fill-rule:nonzero;stroke:none" />
      </g>
      <g
         transform="matrix(1.25,0,0,-1.25,607.94612,279.40218)"
         id="g13711">
        <path
           d="M 0,0 C -0.011,0.234 -0.213,0.414 -0.451,0.403 -0.689,0.391 -0.873,0.191 -0.86,-0.043 -0.847,-0.277 -0.645,-0.456 -0.408,-0.444 -0.172,-0.432 0.011,-0.234 0,0"
           id="path13713"
           style="fill:#ffffff;fill-opacity:1;fill-rule:nonzero;stroke:none" />
      </g>
      <g
         transform="matrix(1.25,0,0,-1.25,608.58738,277.35631)"
         id="g13715">
        <path
           d="M 0,0 C -0.011,0.234 -0.213,0.414 -0.451,0.402 -0.69,0.391 -0.873,0.191 -0.86,-0.043 -0.847,-0.277 -0.645,-0.456 -0.408,-0.444 -0.172,-0.432 0.011,-0.234 0,0"
           id="path13717"
           style="fill:#ffffff;fill-opacity:1;fill-rule:nonzero;stroke:none" />
      </g>
      <g
         transform="matrix(1.25,0,0,-1.25,607.82413,275.43281)"
         id="g13719">
        <path
           d="M 0,0 C -0.011,0.234 -0.213,0.414 -0.451,0.403 -0.69,0.391 -0.873,0.191 -0.86,-0.043 -0.847,-0.277 -0.645,-0.456 -0.408,-0.444 -0.172,-0.432 0.011,-0.234 0,0"
           id="path13721"
           style="fill:#ffffff;fill-opacity:1;fill-rule:nonzero;stroke:none" />
      </g>
      <g
         transform="matrix(1.25,0,0,-1.25,603.82625,278.44781)"
         id="g13723">
        <path
           d="M 0,0 C -0.011,0.234 -0.216,0.414 -0.457,0.402 -0.699,0.39 -0.885,0.189 -0.872,-0.044 -0.859,-0.278 -0.655,-0.457 -0.415,-0.445 -0.175,-0.432 0.011,-0.234 0,0"
           id="path13725"
           style="fill:#ffffff;fill-opacity:1;fill-rule:nonzero;stroke:none" />
      </g>
      <g
         transform="matrix(1.25,0,0,-1.25,603.737,276.51743)"
         id="g13727">
        <path
           d="M 0,0 C -0.011,0.235 -0.219,0.415 -0.463,0.403 -0.708,0.39 -0.897,0.19 -0.884,-0.044 c 0.012,-0.234 0.22,-0.413 0.464,-0.4 C -0.178,-0.432 0.011,-0.234 0,0"
           id="path13729"
           style="fill:#ffffff;fill-opacity:1;fill-rule:nonzero;stroke:none" />
      </g>
      <g
         transform="matrix(1.25,0,0,-1.25,603.64788,274.58555)"
         id="g13731">
        <path
           d="m 0,0 c -0.011,0.234 -0.222,0.414 -0.469,0.402 -0.249,-0.012 -0.44,-0.213 -0.427,-0.447 0.013,-0.233 0.223,-0.412 0.469,-0.4 C -0.181,-0.432 0.01,-0.234 0,0"
           id="path13733"
           style="fill:#ffffff;fill-opacity:1;fill-rule:nonzero;stroke:none" />
      </g>
      <g
         transform="matrix(1.25,0,0,-1.25,605.81575,274.4938)"
         id="g13735">
        <path
           d="m 0,0 c -0.011,0.234 -0.222,0.414 -0.469,0.401 -0.248,-0.012 -0.439,-0.212 -0.427,-0.446 0.013,-0.233 0.223,-0.413 0.469,-0.4 C -0.181,-0.433 0.011,-0.234 0,0"
           id="path13737"
           style="fill:#ffffff;fill-opacity:1;fill-rule:nonzero;stroke:none" />
      </g>
      <g
         transform="matrix(1.25,0,0,-1.25,623.55687,274.80606)"
         id="g13739">
        <path
           d="M 0,0 C 0.013,0.234 0.225,0.413 0.473,0.398 0.721,0.384 0.91,0.182 0.896,-0.052 0.881,-0.286 0.67,-0.463 0.423,-0.448 0.177,-0.434 -0.013,-0.234 0,0"
           id="path13741"
           style="fill:#ffffff;fill-opacity:1;fill-rule:nonzero;stroke:none" />
      </g>
      <g
         transform="matrix(1.25,0,0,-1.25,622.78162,276.72918)"
         id="g13743">
        <path
           d="M 0,0 C 0.011,0.234 0.22,0.414 0.465,0.4 0.71,0.387 0.898,0.187 0.884,-0.047 0.871,-0.281 0.663,-0.46 0.42,-0.447 0.177,-0.434 -0.012,-0.234 0,0"
           id="path13745"
           style="fill:#ffffff;fill-opacity:1;fill-rule:nonzero;stroke:none" />
      </g>
      <g
         transform="matrix(1.25,0,0,-1.25,622.02475,278.65705)"
         id="g13747">
        <path
           d="M 0,0 C 0.011,0.234 0.215,0.415 0.457,0.403 0.699,0.391 0.885,0.191 0.872,-0.043 0.86,-0.277 0.656,-0.456 0.416,-0.444 0.175,-0.432 -0.011,-0.234 0,0"
           id="path13749"
           style="fill:#ffffff;fill-opacity:1;fill-rule:nonzero;stroke:none" />
      </g>
      <g
         transform="matrix(1.25,0,0,-1.25,621.2855,280.5883)"
         id="g13751">
        <path
           d="M 0,0 C 0.009,0.234 0.211,0.416 0.449,0.406 0.687,0.395 0.872,0.196 0.861,-0.038 0.849,-0.272 0.648,-0.452 0.411,-0.442 0.175,-0.431 -0.01,-0.234 0,0"
           id="path13753"
           style="fill:#ffffff;fill-opacity:1;fill-rule:nonzero;stroke:none" />
      </g>
      <g
         transform="matrix(1.25,0,0,-1.25,626.73325,275.0128)"
         id="g13755">
        <path
           d="M 0,0 C 0.018,0.233 -0.169,0.438 -0.417,0.456 -0.666,0.474 -0.88,0.298 -0.896,0.064 -0.912,-0.169 -0.725,-0.372 -0.478,-0.39 -0.232,-0.408 -0.018,-0.234 0,0"
           id="path13757"
           style="fill:#ffffff;fill-opacity:1;fill-rule:nonzero;stroke:none" />
      </g>
      <g
         transform="matrix(1.25,0,0,-1.25,627.25212,277.0208)"
         id="g13759">
        <path
           d="M 0,0 C 0.019,0.233 -0.165,0.439 -0.409,0.458 -0.654,0.476 -0.866,0.301 -0.883,0.068 -0.901,-0.165 -0.717,-0.369 -0.474,-0.388 -0.231,-0.407 -0.019,-0.233 0,0"
           id="path13761"
           style="fill:#ffffff;fill-opacity:1;fill-rule:nonzero;stroke:none" />
      </g>
      <g
         transform="matrix(1.25,0,0,-1.25,627.75275,279.03106)"
         id="g13763">
        <path
           d="M 0,0 C 0.02,0.233 -0.16,0.439 -0.401,0.459 -0.642,0.479 -0.853,0.305 -0.871,0.072 -0.889,-0.162 -0.71,-0.367 -0.47,-0.386 -0.23,-0.406 -0.02,-0.233 0,0"
           id="path13765"
           style="fill:#ffffff;fill-opacity:1;fill-rule:nonzero;stroke:none" />
      </g>
      <g
         transform="matrix(1.25,0,0,-1.25,628.23588,281.04193)"
         id="g13767">
        <path
           d="M 0,0 C 0.021,0.234 -0.155,0.44 -0.393,0.461 -0.631,0.481 -0.84,0.308 -0.859,0.074 -0.878,-0.159 -0.703,-0.364 -0.466,-0.384 -0.23,-0.405 -0.021,-0.233 0,0"
           id="path13769"
           style="fill:#ffffff;fill-opacity:1;fill-rule:nonzero;stroke:none" />
      </g>
      <g
         transform="matrix(1.25,0,0,-1.25,623.438,279.46755)"
         id="g13771">
        <path
           d="M 0,0 C 0.012,0.225 0.21,0.397 0.442,0.384 0.674,0.37 0.85,0.176 0.836,-0.049 0.821,-0.274 0.624,-0.445 0.393,-0.432 0.164,-0.418 -0.012,-0.226 0,0"
           id="path13773"
           style="fill:#ffffff;fill-opacity:1;fill-rule:nonzero;stroke:none" />
      </g>
      <g
         transform="matrix(1.25,0,0,-1.25,625.20637,279.5763)"
         id="g13775">
        <path
           d="M 0,0 C 0.015,0.225 0.215,0.394 0.446,0.377 0.678,0.361 0.852,0.165 0.835,-0.06 0.818,-0.284 0.618,-0.452 0.388,-0.436 0.159,-0.42 -0.015,-0.225 0,0"
           id="path13777"
           style="fill:#ffffff;fill-opacity:1;fill-rule:nonzero;stroke:none" />
      </g>
      <g
         transform="matrix(1.25,0,0,-1.25,632.70262,281.3713)"
         id="g13779">
        <path
           d="M 0,0 C 0.035,0.232 -0.128,0.448 -0.364,0.483 -0.601,0.517 -0.819,0.356 -0.852,0.125 -0.885,-0.108 -0.721,-0.322 -0.487,-0.357 -0.253,-0.391 -0.035,-0.232 0,0"
           id="path13781"
           style="fill:#ffffff;fill-opacity:1;fill-rule:nonzero;stroke:none" />
      </g>
      <g
         transform="matrix(1.25,0,0,-1.25,632.9595,279.33731)"
         id="g13783">
        <path
           d="M 0,0 C 0.035,0.232 -0.131,0.449 -0.37,0.483 -0.61,0.518 -0.831,0.358 -0.864,0.126 -0.897,-0.106 -0.731,-0.321 -0.493,-0.356 -0.256,-0.391 -0.035,-0.232 0,0"
           id="path13785"
           style="fill:#ffffff;fill-opacity:1;fill-rule:nonzero;stroke:none" />
      </g>
      <g
         transform="matrix(1.25,0,0,-1.25,634.11987,277.62756)"
         id="g13787">
        <path
           d="M 0,0 C 0.035,0.231 -0.131,0.448 -0.37,0.483 -0.61,0.518 -0.831,0.358 -0.864,0.126 -0.897,-0.105 -0.731,-0.321 -0.493,-0.356 -0.256,-0.39 -0.035,-0.232 0,0"
           id="path13789"
           style="fill:#ffffff;fill-opacity:1;fill-rule:nonzero;stroke:none" />
      </g>
      <g
         transform="matrix(1.25,0,0,-1.25,632.19625,277.29168)"
         id="g13791">
        <path
           d="M 0,0 C 0.035,0.232 -0.132,0.449 -0.37,0.484 -0.61,0.518 -0.831,0.358 -0.864,0.127 -0.897,-0.105 -0.731,-0.321 -0.493,-0.356 -0.256,-0.39 -0.035,-0.232 0,0"
           id="path13793"
           style="fill:#ffffff;fill-opacity:1;fill-rule:nonzero;stroke:none" />
      </g>
      <g
         transform="matrix(1.25,0,0,-1.25,631.35362,275.4713)"
         id="g13795">
        <path
           d="M 0,0 C 0.035,0.232 -0.134,0.449 -0.376,0.485 -0.619,0.52 -0.843,0.36 -0.876,0.128 -0.909,-0.104 -0.74,-0.32 -0.499,-0.355 -0.258,-0.39 -0.035,-0.232 0,0"
           id="path13797"
           style="fill:#ffffff;fill-opacity:1;fill-rule:nonzero;stroke:none" />
      </g>
      <g
         transform="matrix(1.25,0,0,-1.25,635.33575,276.12405)"
         id="g13799">
        <path
           d="M 0,0 C 0.034,0.231 -0.137,0.449 -0.382,0.485 -0.628,0.521 -0.855,0.361 -0.887,0.13 -0.921,-0.102 -0.749,-0.318 -0.505,-0.354 -0.261,-0.39 -0.035,-0.232 0,0"
           id="path13801"
           style="fill:#ffffff;fill-opacity:1;fill-rule:nonzero;stroke:none" />
      </g>
    </g>
  </g>
</svg>
