<?xml version="1.0" encoding="UTF-8" standalone="no"?>
<svg xmlns:rdf="http://www.w3.org/1999/02/22-rdf-syntax-ns#" xmlns="http://www.w3.org/2000/svg" xml:space="preserve" height="212.19" viewBox="0 0 384.50006 212.18558" width="384.5" version="1.1" xmlns:cc="http://creativecommons.org/ns#" xmlns:dc="http://purl.org/dc/elements/1.1/"><g transform="matrix(1.25 0 0 -1.25 -190.75 599.64)"><g style="" transform="matrix(.5 0 0 .5 153.68 197.9)"><path d="m428.84 288.77c-1.3564 0-5.4585 3.651-13.141 6.3574-4.7508 1.6071-9.102 1.4206-9.0957 4.5898 0 1.0929 0.9445 2.0195 1.5938 2.0195 1.3564 0 2.2814-0.21875 2.5-0.21875 4.5514-0.006 7.027 3.6245 7.0332 10.182l0.16796 120.23c0.0129 12.253-11.764 6.8211-11.758 11.797 0 2.2758 1.1297 2.2754 3.8555 2.2754 3.2142-0.007 7.9145-0.92539 14.285-0.93164 7.7465-0.0129 12.697 0.89297 14.773 0.88672 2.4815 0 3.3676-0.20487 3.3613-2.2812-0.006-4.9758-11.797 0.71225-11.816-11.766l-0.0508-41.521c-0.0385-25.824 6.7764-39.485 23.992-39.504 16.097-0.0258 21.773 11.764 21.805 35.389l0.0586 45.572c0.0192 12.259-11.977 6.8275-11.971 11.797 0.006 2.2819 1.1201 2.2816 3.8457 2.2754 3.2144 0 7.9577-0.91953 14.303-0.92578 7.7079-0.0129 12.691 0.89492 14.729 0.88867 2.52 0 3.3988-0.20683 3.3926-2.2832-0.006-4.9758-11.757 0.7142-11.77-11.764l-0.0781-56.721c-0.0256-19.716-11.848-33.332-28.633-33.312-8.1964 0.0129-13.364 2.7713-19.734 8.2227-5.8886 5.2265-8.1523 10.414-9.3223 10.414-0.4435 0-0.66211-0.66202-0.66211-2.4941l-0.0898-64.17c0-3.1885-0.21134-5.0078-1.5742-5.0078zm-366.28 10.51c-34.958 0.05-62.62 32.29-62.562 75.6 0.057857 43.579 26.003 75.736 60.686 75.691 17.923-0.0258 31.057-7.535 34.934-12.986 1.7871-2.7129 2.0115-10.889 1.9922-25.816-0.0064-2.5329-0.91953-3.8965-2.2695-3.8965-2.2628 0-2.256 4.1133-4.7695 10.664-6.0428 16.804-14.684 25.432-28.975 25.451-24.036 0.0321-43.816-28.755-43.867-69.133-0.06429-43.515 19.207-69.44 43.225-69.473 12.022-0.02 20.425 5.44 26.545 16.78 3.8764 6.9944 3.676 12.451 6.6074 12.451 1.1378 0 2.0449-1.3561 2.0449-2.9375-0.01927-13.86-1.1771-22.263-2.5078-24.057-2.7386-3.1564-16.148-8.3631-31.082-8.3438zm224.52 3.793c-4.0758 0.006-7.9066 5.2257-7.9004 11.346 0.006 5.8758 3.6586 10.885 7.9336 10.879 4.5514-0.006 8.1508-5.2472 8.1445-10.904-0.0129-5.8885-3.8385-11.327-8.1777-11.32zm245.67 20.99c-2.0186 0-3.3804 6.5878-9.9375 14.508-6.5829 7.9329-12.047 10.441-12.047 12.916 0 1.1379 1.1823 2.0824 3.4258 2.0762h3.4395c2.7-0.006 3.1699 0.87463 3.1699 3.8125l-0.59961 54.256 0.0137 10.641c0.0258 18.129 6.8212 27.668 18.656 27.648 11.764-0.0127 21.721-12.509 21.715-15.672 0-0.9065-0.45067-1.8203-0.91992-1.8203-1.5814 0-7.469 8.3896-15.209 8.4023-7.2579 0.007-10.833-5.6501-10.846-17.189l-0.0898-66.285c-0.006-2.9378 0.43672-3.8184 3.1367-3.8184l17.012-0.0254c2.4686 0 2.9555-1.1516 2.9492-3.8516v-0.94531c-0.007-2.2628-0.23714-2.9242-2.9629-2.918l-16.799 0.0254c-2.7128 0-3.1363-0.93111-3.1426-3.8496l-0.0195-15.23c0-1.5622-0.50181-2.6797-0.94531-2.6797zm190.16 17.395c-7.2194 0.0128-13.154 2.7712-19.229 8.2227-5.6765 5.0079-7.9648 10.414-9.0898 10.414-0.47575 0-0.89453-0.66201-0.89453-2.4941l-0.0117-10.633c-0.006-3.3942-0.0126-5.4707-1.3691-5.4707-1.6071 0.007-4.7576 5.7154-12.459 11.18-3.3815 2.4815-7.2699 2.7062-7.2637 5.4062 0.007 3.8571 9.077-1.1116 9.0898 7.7598l0.0898 65.738c0.0129 12.028-11.784 7.0461-11.777 11.797 0.006 2.0765 0.88633 2.2816 3.3613 2.2754 4.1144 0 9.1107-0.91953 14.787-0.92578 7.6886-0.0129 12.709 0.89297 14.715 0.88672 2.5136 0 3.4062-0.20671 3.4062-2.2832-0.006-4.9758-11.758 0.71421-11.777-11.764l-0.0566-41.527c-0.0321-26.074 6.955-39.479 23.104-39.498 15.583-0.0257 20.841 11.765 20.873 35.396l0.0586 45.572c0.0192 12.253-11.77 6.8198-11.764 11.789 0 2.282 1.098 2.2816 3.8301 2.2754 3.1758 0 7.9532-0.91953 14.305-0.92578 7.7335-0.0129 12.702 0.89297 14.746 0.88672 2.4814 0 3.4199-0.20488 3.4199-2.2812-0.0129-4.9758-11.827 0.7142-11.84-11.764l-0.0781-55.568c-0.0258-21.092-11.365-34.484-28.176-34.465zm-109.38 0.14844c-25.656 0.0322-44.408 21.374-44.369 54.076 0.045 32.201 17.537 54.175 43.373 54.143 28.851-0.0386 46.479-21.852 46.434-54.496-0.045-32.265-16.856-53.761-45.438-53.723zm-260.8 0.35352c-19.568 0.0258-33.588 15.937-33.562 36.373 0.0321 23.561 19.973 32.619 19.973 34.213 0 0.45-0.63545 1.1313-2.0176 1.832l-13.598 6.9941c-3.15 1.6458-4.9688 2.757-4.9688 3.8691 0.006 0.46925 0.9129 2.7385 3.1758 5.207l8.4277 9.7793c1.1056 1.3371 2.0312 2.2231 2.0312 2.9238 0.006 4.3008-20.834 11.816-20.814 27.875 0.0194 14.734 13.408 24.692 38.113 24.66 28.144-0.0385 48.518-17.537 48.492-37.896-0.0258-18.141-12.716-27.192-38.109-27.16-5.0142 0.007-9.8029 0.46875-13.859 0.46875-8.8714 0.0127-12.742-4.7189-12.742-7.1875-0.006-3.4456 5.4392-8.1893 21.324-9.5586 20.899-1.8579 33.589-15.468 33.557-35.898-0.007-6.8079-1.6194-12.927-4.8144-19.49l10.883 0.42969h1.5762c2.7321-0.006 3.4453-0.69376 3.4453-3.1816-0.006-4.7892-0.94495-6.1195-4.3457-6.1133-1.3564 0-2.4744 0.23047-2.9629 0.23047l-5.4199 0.44531c-0.24425 0-1.3569 0.21055-2.9512 0.2168-8.3765 0.007-16.606-9.0505-30.832-9.0312zm-128.65 0.17383c-24.223 0.0321-44.858 20.925-44.812 54.289 0.045 32.908 17.49 53.962 42.459 53.93 22.031-0.0321 35.846-16.831 35.84-23.395 0-1.17-0.46341-1.8574-1.582-1.8574-2.07 0-8.8637 14.535-27.455 14.561-20.404 0.0258-35.178-17.627-35.217-47.783-0.0129-7.4829 0.43078-9.5348 4.3008-9.541l54-0.0703c4.995-0.006 6.7816-1.3819 6.7754-4.7891-0.0258-18.347-12.979-35.376-34.309-35.344zm-61.688 0.084c-7.02 0.006-13.842 4.3444-20.168 12.984l-4.0742 5.9023c-0.64937 0.9065-1.3823 1.1191-1.5879 1.1191-0.42437 0-0.88086-0.6572-0.88086-1.5957l-0.0195-12.908c-0.006-3.3942-0.007-5.4707-1.3828-5.4707-1.8 0.006-4.9956 5.9401-12.016 10.697-3.8314 2.7386-7.7075 3.4008-7.7012 5.8887 0 4.0886 9.0653-2.0384 9.0781 8.8516l0.0762 60.096c0.0129 7.9522-0.66214 11.359-4.5 12.734-4.9886 1.8-7.2578 0.43765-7.2578 3.6133 0.006 2.0765 0.89463 2.2816 3.4082 2.2754 3.6322 0 8.6064-0.91953 14.707-0.92578 9.3344-0.0129 16.354 1.1113 20.25 1.1113 2.475-0.006 3.5879-0.68091 3.5879-2.5195-0.006-4.095-4.513-1.1127-12.24-4.0762-4.5514-1.7615-5.2197-4.4994-5.2324-12.227l-0.0449-37.408c-0.0386-25.386 8.3255-36.078 14.908-36.084 7.0586-0.0129 9.3141 8.807 15.428 8.8008 3.8442-0.007 7.7074-4.3256 7.7012-10.201-0.006-6.1071-4.5306-10.671-12.039-10.658zm130.19 0.74414c-1.7935 0-5.6558 4.7898-14.064 9.5469-3.8056 3.1886-8.1703 3.6329-8.1641 6.6094 0 1.9864 1.5998 2.268 4.1133 2.2617 4.9886-0.007 7.0457 2.9131 7.0586 8.3516l0.084 62.389c0.0127 12.259-13.59 7.0455-13.584 11.803 0.006 2.0764 1.3444 2.2754 3.8516 2.2754 3.3814-0.006 8.5944-0.92539 15.646-0.93164 8.6208-0.0129 14.046 0.88672 15.865 0.88672 2.4942-0.006 3.4145-0.005 3.4082-2.2871-0.007-4.9694-12.472 0.72006-12.484-11.758l-0.11523-84.607c-0.007-3.3878-0.008-4.5453-1.6152-4.5391zm321.4 2.752c18.386-0.0192 30.394 19.023 30.439 52.098 0.045 31.095-11.462 47.693-30.748 47.719-17.691 0.0256-30.428-19.492-30.473-51.217-0.0386-31.577 11.965-48.574 30.781-48.6zm-391.22 0.7461c11.539-0.0129 20.868 10.6 20.881 20.391 0.0129 8.6079-8.5829 9.9783-27.213 10.004l-18.617 0.0254c-1.3692 0-2.4805-1.1181-2.4805-2.0566-0.0129-12.446 12.663-28.344 27.43-28.363zm131.07 0.0644c12.272-0.0192 20.648 12.207 20.674 31.73 0.0257 19.016-8.3177 31.27-20.59 31.289-12.234 0.0127-20.892-11.964-20.918-31.23-0.0323-19.524 8.8125-31.77 20.834-31.789zm3.5488 97.277c18.566-0.0256 28.364 7.7136 28.383 21.471 0.0194 14.927-12.928 25.361-33.57 25.387-17.428 0.0258-27.688-10.806-27.701-23.965-0.0129-7.0072 4.5383-14.877 9.752-18.754 2.9185-2.2756 11.122-4.1258 23.137-4.1387zm277.85 56.256c-1.4142 0-1.7288 1.1069-2.0117 2.084l-3.3379 13.461-0.0898 0.35937c-0.16713 0.6365-0.32031 1.2407-0.32031 1.9414 0 1.3564 0.70647 2.3457 1.6836 2.3457 1.3306-0.006 1.8905-1.2458 2.5977-2.8144 0.47575-1.0479 1.0611-2.3592 2.0254-3.7734 2.25-3.3429 5.8501-5.5934 8.9551-5.5996h3.8047c0.37275 0 0.52735-0.007 0.52735 1.4394l0.0703 50.061c0 4.5579 0.007 4.8265-2.7891 5.4629-0.55925 0.15425-1.1518 0.19914-1.7305 0.24414-1.2858 0.09-3.0453 0.22572-3.0391 2.3086 0 1.4658 1.1894 2.416 3.0215 2.416 0.60425 0 1.4068-0.0755 2.416-0.17187 1.5814-0.14788 3.7423-0.35508 6.4102-0.36133 2.7129 0 4.9111 0.19978 6.5117 0.34765 1.0029 0.09 1.7991 0.16016 2.3906 0.16016 2.07 0 3.0082-1.1444 3.002-2.2051 0-2.2565-1.8052-2.4103-3.123-2.5195-0.53362-0.0515-1.099-0.0892-1.6582-0.25-2.7-0.62362-2.8106-1.1062-2.8106-4.6934l-0.0703-50.805c0-1.4464 0.18716-1.4473 0.56641-1.4473l2.6543-0.006c7.1679-0.0129 9.001 1.4973 10.203 4.6602 0.61712 1.6008 0.86117 2.9314 1.0605 3.9922 0.29563 1.5814 0.56511 3.0727 2.2559 3.0664 1.6521 0 1.7482-1.4644 1.8125-2.3516l0.77149-14.15v-0.32032c0-1.7421-0.98361-2.5332-1.8965-2.5332-1.3242 0-1.7025 1.1045-1.9531 1.8438-0.17363 0.51425-0.34161 0.99678-0.74024 1.3633-0.52712 0.46925-4.4419 0.47617-6.1133 0.48242-1.3242 0-2.8422-0.0197-4.5586-0.0391-2.25-0.0256-4.8412-0.057-7.8047-0.0508l-12.221 0.0137c-4.3264 0.006-4.7754-0.30929-4.7754-1.0293v-1.0352c0-0.47563-0.007-1.9027-1.6973-1.8965zm-122.6 2.3086c-10.652 0.0129-17.801 7.489-17.781 18.598 0.0129 9.0835 4.3645 12.985 13.506 17.826 8.9421 4.8471 13.159 8.0484 13.172 16.502 0.0129 7.2771-4.7312 12.368-11.539 12.381-5.04 0.006-8.9801-2.6296-10.793-7.2324-0.91925-2.25-1.0798-4.3649-1.2148-6.0684-0.14137-1.8708-0.27597-3.6387-1.9023-3.6387-2.2112 0.006-2.2051 2.9771-2.2051 4.25 0 0.585-0.0133 1.3058-0.0391 2.1543-0.0321 1.2471-0.0703 2.7763-0.0703 4.5957 0.007 2.9121 0.14667 4.8024 2.1074 6.5059 2.1021 1.8836 7.2718 3.8832 12.717 3.877 11.694-0.0129 20.493-9.2779 20.48-21.537-0.0129-10.331-5.7328-15.434-14.971-20.326-8.6079-4.5642-12.461-7.6307-12.467-13.699-0.007-6.2165 3.8186-9.9332 10.234-9.9394 4.3521-0.006 7.1944 2.1926 9.2129 7.1426 0.46937 1.1379 0.73853 2.1344 0.95703 2.9316 0.405 1.485 0.76002 2.7715 2.2129 2.7715 0.87425 0 1.8887-0.76 1.8887-2.875-0.0129-9.4244-0.69433-10.311-0.9707-10.678-1.1829-1.4142-6.7944-3.5473-12.535-3.541zm235.13 1.5098c-1.7744 0.007-2.4043 1.0549-2.4043 2.0449 0.006 2.025 1.9486 2.3141 3.2344 2.4941 1.8321 0.27637 2.3652 0.51997 2.3652 1.5742-0.0257 0.38575-0.73201 2.8999-2.7441 6.6543l-10.023 18.238c-0.0256 0.045-0.0499 0.0956-0.082 0.14063-0.006-0.0129-0.0133-0.025-0.0195-0.0508l-11.07-20.533c-1.08-2.0958-1.5293-3.9029-1.5293-4.4043 0-0.73288 0.41649-0.93788 1.8437-1.2656 1.1378-0.26362 2.8613-0.66194 2.8613-2.5391 0-1.3179-0.77818-2.1094-2.0703-2.1094-0.12212 0-0.34009 0.0206-0.66797 0.0527-0.82287 0.0771-2.3396 0.23047-4.7246 0.23047-4.635 0.006-7.7471-0.24339-9.4121-0.38477-0.68137-0.0579-1.1504-0.0898-1.4141-0.0898-1.6136 0-2.7383 0.99475-2.7383 2.4219 0.006 1.6715 1.6124 1.7888 2.5703 1.8594 0.4435 0.0386 0.90658 0.0626 1.1895 0.17187 0.77787 0.34713 2.051 1.403 3.7031 4.4824l15.152 28.406 0.0195 18.182c0.006 4.5515 0.0115 5.773-5.0156 5.7793-1.2214 0-2.1016 0.93835-2.1016 2.2305 0 1.4465 1.1825 2.4223 2.9375 2.416 0.54 0 1.2861-0.0638 2.2246-0.16016 1.5365-0.15425 3.6452-0.36719 6.2617-0.36719 2.5971-0.006 4.7 0.20042 6.2363 0.3418 0.945 0.0965 1.7036 0.16602 2.25 0.16602 2.0829-0.006 3.0274-1.1507 3.0274-2.2051-0.006-2.2821-1.7486-2.3905-3.0215-2.4805-0.65575-0.0386-1.3958-0.0834-2.1094-0.33399-2.128-0.75225-2.1266-1.2082-2.1328-4.7695l-0.0273-19.807 14.877-27.322 0.33399-0.61133c0.92575-1.6842 1.5871-2.9109 3.3613-3.4316 0.47575-0.1285 0.92703-0.19408 1.332-0.25196 1.2214-0.19274 2.7441-0.4229 2.7441-2.5508-0.006-1.3564-0.77811-2.1289-2.1152-2.1289-0.26363 0-0.66847 0.0576-1.2148 0.13476-1.0029 0.14788-2.5316 0.38047-4.6016 0.38672-2.5264 0-4.4163-0.26387-5.6699-0.4375-0.70713-0.0964-1.2425-0.17383-1.6152-0.17383zm-158.13 0.21289c-0.50138 0.006-1.1454 0.10329-2.0391 0.23829-1.5814 0.23787-3.9792 0.60312-7.1484 0.60937-2.79 0.006-4.9504-0.32658-6.5254-0.56445-0.945-0.14138-1.6956-0.25781-2.2871-0.25781-1.35-0.00001-2.2891 0.92626-2.2891 2.2441 0 2.0764 1.691 2.1789 3.041 2.2754 0.70075 0.0385 1.4903 0.0953 2.3066 0.32031 1.4271 0.41137 1.6988 0.59211 1.7051 3.8965l0.0625 46.812c0.006 4.4614-0.0639 4.8097-2.8926 5.459-0.56575 0.15437-1.1621 0.19914-1.7344 0.24414-1.2728 0.0964-3.0215 0.22376-3.0215 2.3066 0.006 1.1185 0.79724 2.4242 3.0215 2.418 0.60437 0 1.4318-0.078 2.4668-0.16797 1.6071-0.15438 3.8197-0.35938 6.4297-0.35938 2.7256-0.006 4.8669 0.19197 6.4356 0.33985 0.97712 0.09 1.7543 0.16836 2.3457 0.16211 2.1086 0 3.0469-1.1064 3.0469-2.1992 0-2.2692-1.7671-2.4161-3.0527-2.5254-0.53362-0.045-1.0875-0.0976-1.666-0.25196-2.861-0.61712-2.8609-1.169-2.8672-5.4375l-0.0645-46.814c0-3.285 0.16716-3.6249 2.0508-4.0234 0.7135-0.1415 1.3818-0.19328 1.9668-0.23828 1.3692-0.0965 3.0668-0.21862 3.0606-2.25 0-1.2986-0.98869-2.2363-2.3516-2.2363zm-159.44 0.22c-1.935 0-3.6445 0.071-5.168 0.12891-4.4486 0.18-7.5289 0.0451-9.6504-0.0449-0.87425-0.0321-1.5549-0.0645-2.0371-0.0645-2.3592 0.007-2.6113 1.5672-2.6113 2.2422 0 2.0636 1.57 2.1854 2.7207 2.2754 0.56562 0.045 1.2135 0.0909 1.8691 0.32227 1.2665 0.39862 1.4156 0.79734 1.4219 3.9023l0.0645 46.807c0 0.75213-0.0382 1.2862-0.0703 1.627-0.0131 0.19925-0.0195 0.33917-0.0195 0.43554 0 2.6615-0.83594 3.6016-3.1953 3.6016-0.79713 0-3.2524 0.006-3.2461 2.3457 0 1.4464 1.1054 2.4242 2.7383 2.418 0.34712 0 0.87375-0.0532 1.5938-0.13672 1.4142-0.14788 3.549-0.38438 6.4805-0.39063 2.7835-0.006 4.9038 0.21736 6.2988 0.36524 0.78425 0.0836 1.3836 0.14258 1.7949 0.14258 1.8386 0 2.7969-1.1123 2.7969-2.2051-0.007-2.1794-1.5895-2.3471-2.7402-2.4629-0.69425-0.0706-1.4771-0.14797-2.2871-0.52735-1.4658-0.65562-1.5953-1.0994-1.6016-5.2266l-0.0254-20.289c-0.006-0.70063 0.0574-0.86695 0.0703-0.89258 0.0129-0.007 0.11676-0.0645 0.54101-0.0645h1.2266c4.4614-0.006 4.9817 1.2401 7.1738 6.4922l9.1172 21.248c1.0414 2.565 1.716 3.9066 4.5254 3.9004 0.52063 0 1.1319-0.0317 1.8262-0.0703 0.9065-0.0514 1.9668-0.10937 3.2012-0.10937 0.57213 0 1.0531 0.0512 1.4902 0.0898 0.4115 0.045 0.77867 0.084 1.1387 0.084 1.1958-0.006 1.9102-0.68686 1.9102-1.8184-0.006-1.6392-1.4409-2.0584-2.8359-2.457-0.585-0.16712-1.2528-0.36664-1.9922-0.68164-0.82275-0.27637-1.9412-2.9115-3.3555-6.248l-5.9277-14.053c-1.5172-3.6386-2.6997-6.4672-4.9883-8.1836 7.9008-2.1021 12.207-7.7583 12.201-16.135-0.0192-11.031-6.705-16.386-20.449-16.367zm-66.445 0.0899-33.012 0.0449c-2.3465 0-2.5977 1.5613-2.5977 2.2363 0.006 2.0765 1.705 2.1854 3.0742 2.2754 0.69438 0.045 1.484 0.0966 2.2812 0.32812 1.5492 0.43075 1.6715 0.72074 1.6777 3.8965l0.0645 46.807c0 4.3329-0.084 4.8265-2.6875 5.4629-0.53363 0.15437-1.0922 0.19978-1.6387 0.23828-1.1635 0.09-2.9242 0.2317-2.918 2.3144 0 1.4658 1.1557 2.418 2.9492 2.418 0.30225 0 0.86881-0.0445 1.7109-0.11523 2.3015-0.1865 6.5889-0.53477 13.107-0.54102 8.1258-0.0129 13.835 0.48825 17.248 0.79688 1.3821 0.12212 2.3462 0.20703 2.8926 0.20703 2.8414-0.006 3.4021-1.0222 3.7363-4.3008l0.89258-9.5859c0.1285-1.125 0.19336-1.8765 0.19336-1.9473 0-0.78425-1.028-1.557-1.793-1.5508-1.4721 0-1.9555 1.4544-2.457 2.9844-0.42425 1.3179-0.96441 2.9568-2.1602 4.5703-2.7771 3.735-6.2347 5.2008-12.342 5.207-6.8721 0.006-8.2223-2.2575-8.2285-6.166l-0.0332-21.945c0.00001-1.0735 0.0399-1.0742 0.66993-1.0742l5.6309-0.006c2.4556-0.006 5.6817 0.52576 7.0703 3.1035 1.2792 2.25 1.5947 4.1605 1.8262 5.5684 0.23138 1.4142 0.46941 2.8789 2.0508 2.8789 0.8615 0 1.7875-0.69391 1.7812-2.6289 0-0.12212-0.006-0.38486-0.0254-0.80273-0.0514-1.3821-0.17344-4.2689-0.17969-8.9297 0-3.3556 0.17853-5.8124 0.30078-7.4453 0.0643-0.78425 0.10352-1.3615 0.10352-1.7344 0-1.7421-0.63569-2.623-1.8828-2.623-1.6265 0-1.8908 1.4068-2.1094 2.5254-0.21212 1.0992-0.46918 2.4631-1.6328 3.7617-1.0735 1.1506-3.6333 1.7867-7.2012 1.793l-5.1289 0.006c-0.37925 0-1.176 0.00056-1.2402 0.0391-0.0386-0.10287-0.0391-0.46329-0.0391-0.59179l-0.0195-16.746c-0.007-4.7828 1.0991-6.1773 8.4277-6.1836 4.6992-0.006 7.8761 1.4144 10.312 4.6094 1.0736 1.4272 1.6123 2.9755 2.043 4.2226 0.56575 1.6392 1.0616 3.0469 2.5273 3.0469 1.8641-0.006 1.8574-2.3585 1.8574-3.3613l-0.0137-8.7949c-0.006-4.1079-1.0591-4.2738-5.0898-4.2676zm-72.168 0.0957c-0.28925 0-0.75867 0.0702-1.3887 0.16016-1.1958 0.1865-2.9951 0.46289-5.3223 0.46289-2.0571 0.007-3.5739-0.23797-4.6797-0.41797-0.66862-0.10925-1.1904-0.18555-1.5762-0.18555-1.8579 0-2.5195 1.1003-2.5195 2.1289 0 1.8835 1.6974 2.1779 2.9316 2.3965 1.7744 0.3085 2.777 0.57968 2.7832 2.5918 0 0.9-0.2702 3.2846-1.2988 6.5117l-10.748 35.795c-0.09 0.27638-0.16805 0.50619-0.23242 0.67969-0.0706-0.14788-0.14047-0.32124-0.23047-0.55274l-12.498-38.885c-0.5465-1.5942-0.88672-2.7338-0.88672-3.5117 0-2.1408 0.83586-2.2628 2.1152-2.4492 0.95775-0.14787 2.5586-0.37806 2.5586-2.3516 0-2.1021-1.4211-2.3281-2.0254-2.3281-0.46925 0-1.0271 0.12258-1.7344 0.28321-1.1121 0.24437-2.4943 0.55859-4.1914 0.55859-2.1729 0-4.161-0.25547-5.916-0.48047-1.4336-0.18-2.6738-0.3418-3.7988-0.3418-1.5492 0-2.5 1.2155-2.5 2.334 0.006 1.7615 1.633 1.9924 2.8223 2.166 0.86138 0.12213 1.7548 0.25138 2.3398 0.76563 1.6714 1.485 3.362 6.5181 5.4063 12.953l12.934 39.934c0.675 2.0892 1.1645 3.8511 1.5566 5.2461 0.92575 3.2979 1.2337 4.3965 2.3008 4.3965 1.0285 0 1.4854-1.0847 2.8418-5.3789l14.594-47.348c1.3564-4.455 2.4682-7.9584 3.4453-9.2441 0.855-1.1379 1.9147-1.3167 2.9434-1.4902 1.0671-0.1865 2.5273-0.43872 2.5273-2.2773-0.006-0.63638-0.25123-2.1274-2.5527-2.1211zm-87.268 0.11524c-0.52062 0-1.1698 0.10328-2.0762 0.23828-1.5814 0.24425-3.9662 0.60508-7.1484 0.61132-2.7964 0.006-4.951-0.32853-6.5195-0.5664-0.93862-0.14138-1.6782-0.25586-2.2695-0.25586-1.3565 0-2.2949 0.92495-2.2949 2.2363 0 2.0765 1.6972 2.1854 3.0664 2.2754 0.70713 0.045 1.5111 0.10312 2.334 0.32812 1.3692 0.405 1.6324 0.58586 1.6387 3.8965l0.0586 46.812c0.006 4.4615-0.0584 4.8142-2.8613 5.457-0.57213 0.15425-1.1758 0.19914-1.748 0.24414-1.2921 0.09-3.059 0.22572-3.0527 2.3086 0 1.1186 0.80888 2.416 3.0781 2.416 0.57862 0 1.3832-0.076 2.3926-0.16602 1.62-0.15425 3.8302-0.36093 6.498-0.36718 2.7258 0 4.8859 0.19926 6.4609 0.35351 0.97713 0.0836 1.7418 0.1543 2.3203 0.1543 2.0958 0 3.0469-1.1444 3.0469-2.2051 0-2.2629-1.7663-2.4103-3.0586-2.5195-0.54-0.0515-1.0933-0.0957-1.6719-0.25-2.848-0.62363-2.8473-1.1708-2.8535-5.4394l-0.0644-46.812c0-3.24 0.0631-3.6119 1.998-4.0234 0.7135-0.14138 1.389-0.19328 1.9805-0.23828 1.3756-0.0964 3.0801-0.2185 3.0801-2.25 0-1.2728-1.0032-2.2383-2.334-2.2383zm-61.662 0.084c-0.5465 0-1.2219 0.0528-2.0254 0.11719-1.1122 0.09-2.4942 0.19297-4.082 0.19922-1.3564 0-2.5392-0.0916-3.5742-0.18164-0.81637-0.0643-1.5365-0.11524-2.1602-0.11524-2.16 0-3.125 1.1704-3.125 2.334 0.006 1.9735 1.8514 2.07 3.0664 2.1406 0.91288 0.0515 1.8576 0.0956 2.4297 0.60352 1.4721 1.2729 1.4793 6.4875 1.4922 15.121l0.0312 27.102v0.008c-0.0192-0.0321-0.0314-0.0592-0.0508-0.0977l-27.27-45.463c-0.89356-1.4786-1.6648-1.7168-3.1562-1.7168l-9.2715 0.0137c-1.2921 0-2.1211 0.88127-2.1211 2.2441 0.0064 2.0379 1.5817 2.1475 2.7324 2.2246 0.65571 0.0514 1.4007 0.0952 2.1914 0.36524 1.2278 0.39225 1.4721 0.74584 1.4785 3.9023l0.05273 38.783c0.01285 10.562-0.11568 13.906-2.9121 13.906-0.315 0.006-0.63617-0.0206-0.95117-0.0527-0.33429-0.0258-0.64936-0.0512-0.92578-0.0449-1.3693 0-2.2129 0.85484-2.2129 2.2305 0 0.5915 0.23239 2.5336 3.1445 2.5273 0.70715 0 1.5107-0.0716 2.4043-0.16797 1.8964-0.17362 4.4361-0.25625 6.6797-0.0312 0.93213 0.0964 1.8068 0.18555 2.6875 0.18555 2.2307-0.006 3.2266-1.1619 3.2266-2.3125 0-1.395-0.92033-2.4574-2.1289-2.4512-0.61714 0-1.1246 0.0465-1.5039 0.0723-0.18 0.0193-0.32097 0.0312-0.42383 0.0312-2.6807 0.007-2.9768-2.8028-2.9961-13.898l-0.0449-36.283c0-0.19925-0.00064-0.36045 0.006-0.50195l32.723 54.9c0.23787 0.42437 0.86103 1.2211 1.5039 1.2148 0.72638 0 1.293-0.66047 1.293-1.4961l-0.0644-48.164c-0.0192-10.196 0.30097-12.787 3.2773-12.793h1.0938c0.855 0 2.6488 0.00092 2.6426-2.127 0-1.1636-0.977-2.3281-3.1562-2.3281zm-90.83 0.12305c-0.16071 0-0.4499 0.026-0.86133 0.0645-0.95786 0.0836-2.7383 0.24375-5.2969 0.25-2.0507 0-3.6391-0.12939-4.6934-0.21289-0.585-0.0515-1.0226-0.082-1.3184-0.082-1.4593 0-2.3262 0.83495-2.3262 2.2363 0 2.025 1.8823 2.193 3.123 2.3086 0.77144 0.0707 1.57 0.14673 1.9043 0.47461 1.4079 1.5042 1.5164 6.9877 1.5293 15.178l0.02539 22.309c0.01286 7.4379-0.15342 12.207-2.5898 15.697-2.4621 3.4521-6.6543 5.2789-12.125 5.2852-11.076 0.0129-13.184-6.5582-13.197-18.695l-0.05273-36.02c-0.0064-3.3106 0.0457-3.6253 1.8457-4.0176 0.73286-0.15425 1.408-0.19914 2.0059-0.24414 1.44-0.10288 3.0723-0.22449 3.0723-2.2559 0-1.2729-1.0019-2.2305-2.3262-2.2305-0.50786 0-1.1572 0.0968-2.0508 0.23828-1.5878 0.23787-3.98 0.60352-7.1621 0.60352-2.8157 0.007-4.968-0.32204-6.543-0.56641-0.93857-0.135-1.6781-0.25625-2.2695-0.25-1.3243 0-2.1738 0.87983-2.1738 2.2363 0.006428 2.0764 1.6523 2.1873 2.9766 2.2773 0.68786 0.045 1.4656 0.0953 2.2949 0.32031 1.4593 0.42425 1.6967 0.57885 1.7031 3.9024l0.044922 36.219c0.012856 6.0685 0.21991 11.03 2.7656 15.1 3.2979 5.2715 9.3023 7.8371 18.373 7.8242 7.92-0.0129 13.667-2.8148 16.611-8.1055 2.7514-4.8022 2.7453-10.608 2.7324-17.326l-0.0332-23.926c-0.01286-11.269 0.2966-14.13 3.1895-14.137 1.2857 0 3.4453-0.00087 3.4453-2.2187 0-1.4079-0.98376-2.2363-2.623-2.2363zm380.13 3.709c6.4221-0.006 10.576 5.2064 10.582 13.287 0.0127 8.4279-4.7434 12.53-14.547 12.543l-2.0586 0.006c-0.39225 0-0.50666-0.0566-0.51953-0.0566-0.0258-0.0386-0.0977-0.21188-0.0977-0.90625l-0.0254-20.404c-0.007-3.4264-0.007-4.4625 6.666-4.4688zm-61.115 147.37c-2.8544 0-5.914 0.90546-8.209 3.1426-2.8542 2.7194-3.8969 7.0395-3.8906 11.777v1.6016l-4.7305 0.006 0.006 4.666 4.7324-0.006 0.0449 29.037 6.0547-0.006-0.0391-29.043 8.1524-0.008-0.006-4.666-8.1524 0.006v-1.8125c-0.006-5.1494 1.3048-9.7469 6.5312-9.7598 1.7421 0 2.9958 0.34775 3.9024 0.76562l0.83007-4.7383c-1.1829-0.48212-3.0666-0.96914-5.2266-0.96289zm144.08 0.57227-6.125 0.006 0.0176 20.127h-0.14062c-1.53-2.7129-5.0142-5.1488-10.17-5.1426-8.2156 0.0129-15.171 6.9175-15.088 18.129 0.0129 10.241 6.2881 17.126 14.439 17.113 5.5029-0.006 9.6098-2.8676 11.48-6.6348h0.13476l0.28906 5.8555 5.5039-0.0117c-0.21225-2.295-0.28281-5.7079-0.28906-8.6973l-0.0527-40.744zm-221.12 0.29492-6.125 0.006 0.0625 49.449 6.127-0.006-0.0644-49.449zm-122.21 0.16016 0.0703 49.449 6.127-0.006-0.0332-20.334c0-1.1829 0.0708-2.0895 0.41797-2.9316 1.1121-3.3429 4.2426-6.1266 8.209-6.1328 5.7794-0.0129 7.8056 4.5835 7.8184 10.016l0.0254 19.363 6.127-0.008-0.0254-20.062c-0.0192-11.629-7.2653-14.407-11.791-14.4-2.3015 0.006-4.4612 0.70799-6.2676 1.7559-1.8771 1.0479-3.4062 2.5762-4.377 4.3184h-0.14258l-0.0254-21.027h-6.1328zm-52.605 1.8203c-9.1221 0.0129-15.171 5.4441-15.158 12.76 0.006 6.615 4.7448 10.583 12.414 13.289 6.3386 2.4236 8.8512 4.9296 8.8574 9.3203 0.006 4.7314-3.6128 8.0106-9.8164 8.0234-4.1786 0-8.144-1.3833-10.863-3.0547l-1.5312 5.0918c2.5136 1.665 7.4586 2.9828 11.984 2.9766 11.076-0.0129 16.431-6.2928 16.418-13.531-0.006-6.8979-4.0504-10.724-11.996-13.777-6.48-2.4942-9.3335-4.6548-9.3398-9.0391-0.006-3.2079 2.4292-7.0387 8.832-7.0449 4.2493-0.006 7.386 1.3817 8.916 2.2109l1.666-4.9434c-2.0892-1.1829-5.5807-2.2875-10.383-2.2812zm457.65 0.0703c-2.2242 0.006-3.8242 1.6838-3.8242 3.8438 0.007 2.0829 1.5353 3.7539 3.6953 3.7539 2.4364-0.006 3.9672-1.6828 3.8965-3.7656-0.006-2.16-1.4661-3.832-3.7676-3.832zm-48.156 0.0703c-2.2308 0-3.832 1.672-3.832 3.832 0.006 2.0892 1.5431 3.7598 3.7031 3.7598 2.43-0.006 3.9594-1.6783 3.8887-3.7676 0-2.16-1.4648-3.8305-3.7598-3.8242zm-90.656 0.19336-7.7324 0.006-8.3262 22.719c-2.0828 5.9271-3.7473 11.077-4.9238 15.814h-0.20508c-1.1892-4.8729-2.8034-10.023-4.7578-15.803l-8.043-22.691-7.7266 0.0117-3.2148 46.941 5.7793-0.006 1.2285-20.127c0.41138-7.0392 0.7465-14.908 0.875-20.758h0.14063c1.3306 5.5671 3.2199 11.621 5.457 18.236l7.625 22.346 4.5957-0.006 8.2559-22.783c2.3594-6.4864 4.3003-12.329 5.8945-17.838h0.21289c-0.0644 5.85 0.36461 13.725 0.72461 20.27l1.209 20.609 5.9219-0.008-2.9902-46.934zm204.74 12.188c-9.8229 0.0128-15.796 8.0292-15.783 18.199 0.007 10.17 6.2175 16.986 16.6 16.973 5.3614-0.006 9.0515-1.1264 11.205-2.1035l-1.0488-4.3906c-2.295 0.97725-4.9438 1.7496-9.3281 1.7559-6.1329 0.006-11.428-3.3946-11.576-11.688l23.676-0.0254c0.0707-0.63 0.21133-1.6078 0.20508-2.8613-0.007-6.1971-2.9436-15.872-13.949-15.859zm-35.562 0.0469c-5.5671 0.006-9.4698 3.1497-11.135 6.3574h-0.14062l-0.35547-5.5742-5.4316 0.006c0.21862 2.7836 0.29062 5.6388 0.29687 9.123l0.0312 24.582h6.127l-0.0254-20.27c0-1.0414 0.13378-2.0879 0.41015-2.8594 1.0415-3.4071 4.1717-6.2691 8.209-6.2754 5.7792-0.0129 7.8055 4.5127 7.8184 9.9512l0.0254 19.428 6.127-0.006-0.0254-20.129c-0.0192-11.565-7.2645-14.34-11.932-14.334zm-49.275 0.13476c-11.006 0.0193-18.097 7.552-18.084 17.928 0.0129 10.305 6.6406 17.191 16.811 17.178 4.5258-0.006 8.075-1.1252 9.6758-1.9609l-1.0488-4.5957c-1.7421 0.765-4.0372 1.6777-7.5215 1.6777-6.6858 0.0129-11.707-4.7902-11.713-12.588-0.0129-7.0329 4.1596-12.747 11.887-12.76 3.3429-0.006 5.6436 0.758 7.1094 1.5938l1.3887-4.7383c-1.6779-0.83563-4.8783-1.7344-8.5039-1.7344zm-93.748 0.0625c-9.8165 0.0129-15.794 8.0297-15.781 18.193 0.0129 10.17 6.222 16.992 16.598 16.973 5.3615-0.006 9.0509-1.1264 11.211-2.1035l-1.0547-4.3906c-2.295 0.98362-4.9419 1.7496-9.3262 1.7559-6.1329 0.006-11.43-3.3953-11.578-11.682l23.682-0.0312c0.0642-0.6235 0.20547-1.6018 0.19922-2.8555-0.006-6.2035-2.9435-15.879-13.949-15.859zm-130.14 0.17383c-9.3279 0.0129-16.7 6.6422-16.688 17.918 0.0129 10.658 7.0576 17.337 16.18 17.324 8.1514-0.0129 16.778-5.4588 16.766-17.924-0.0194-10.305-6.5764-17.338-16.258-17.318zm-70.424 0.0977c-9.3342 0.0129-16.708 6.6339-16.695 17.916 0.0129 10.659 7.0589 17.331 16.188 17.318 8.145-0.006 16.771-5.451 16.758-17.916-0.0129-10.311-6.5686-17.331-16.25-17.318zm-38.553 0.0449c-9.3344 0.0129-16.708 6.6461-16.695 17.922 0.0129 10.658 7.0595 17.339 16.182 17.326 8.1515-0.0129 16.778-5.4588 16.766-17.924-0.0129-10.312-6.577-17.337-16.252-17.324zm-69.107 0.16602c-11.006 0.0129-18.103 7.5481-18.084 17.924 0.0129 10.305 6.6347 17.196 16.805 17.184 4.5258-0.006 8.0815-1.1317 9.6758-1.9609l-1.0488-4.6035c-1.7356 0.77138-4.0372 1.6793-7.5215 1.6856-6.6858 0.006-11.707-4.7895-11.713-12.594-0.006-7.0329 4.159-12.749 11.893-12.762 3.3429 0 5.6441 0.7645 7.1035 1.5938l1.3887-4.7363c-1.6714-0.83562-4.8788-1.7367-8.498-1.7305zm423.96 0.12304-6.127 0.006 0.0508 33.711 6.127-0.006-0.0508-33.711zm-48.158 0.0645-6.1328 0.0117 0.0527 33.705 6.127-0.006-0.0469-33.711zm110.53 3.4766c6.8979-0.0129 8.576 6.0432 8.5117 9.9453l-17.896 0.0254c0.47563-4.2492 3.1876-9.9644 9.3848-9.9707zm-178.59 0.23828c6.8979-0.006 8.576 6.0489 8.5117 9.9512l-17.896 0.0195c0.47575-4.2492 3.1876-9.9644 9.3848-9.9707zm36.193 0.36719c4.5964-0.007 7.9446 3.1942 8.8574 7.0898 0.20575 0.765 0.27734 1.8131 0.27734 2.5781l0.0137 5.8496c0 0.97713-0.0716 1.8127-0.27735 2.6484-1.1058 4.5964-4.8667 7.3238-8.9746 7.3301-6.615 0.006-9.9638-5.626-9.9766-12.453-0.007-7.4571 3.7414-13.03 10.08-13.043zm-165.98 0.0195c7.2386-0.0129 10.107 7.2251 10.113 12.934 0.0129 7.5986-4.3707 13.109-10.221 13.115-5.985 0.006-10.241-5.5614-10.254-12.941-0.006-6.4094 3.1163-13.095 10.361-13.107zm-70.43 0.0957c7.245-0.0129 10.104 7.2264 10.117 12.941 0.007 7.5921-4.3707 13.095-10.221 13.107-5.9914 0.006-10.248-5.5609-10.254-12.947-0.0128-6.4029 3.1124-13.095 10.357-13.102zm-38.553 0.0508c7.245-0.0129 10.106 7.2269 10.119 12.936 0.006 7.5986-4.372 13.101-10.229 13.107-5.985 0.0129-10.242-5.5536-10.248-12.934-0.0129-6.4094 3.1124-13.096 10.357-13.109z" transform="matrix(.8 0 0 -.8 0 792)" fill="#3c4982"/><path d="m0 301.26h610.17" stroke="#3c4982" stroke-miterlimit="10" stroke-width="3.8571" fill="none"/></g></g></svg>
