<?xml version="1.0" encoding="UTF-8" standalone="no"?>
<!-- Created with Inkscape (http://www.inkscape.org/) -->

<svg
   xmlns:dc="http://purl.org/dc/elements/1.1/"
   xmlns:cc="http://creativecommons.org/ns#"
   xmlns:rdf="http://www.w3.org/1999/02/22-rdf-syntax-ns#"
   xmlns:svg="http://www.w3.org/2000/svg"
   xmlns="http://www.w3.org/2000/svg"
   xmlns:sodipodi="http://sodipodi.sourceforge.net/DTD/sodipodi-0.dtd"
   xmlns:inkscape="http://www.inkscape.org/namespaces/inkscape"
   version="1.1"
   id="svg67"
   xml:space="preserve"
   width="261.21497"
   height="100.60075"
   viewBox="0 0 261.21497 100.60075"
   sodipodi:docname="logo.svg"
   inkscape:version="0.92+devel unknown"><metadata
     id="metadata73"><rdf:RDF><cc:Work
         rdf:about=""><dc:format>image/svg+xml</dc:format><dc:type
           rdf:resource="http://purl.org/dc/dcmitype/StillImage" /><dc:title></dc:title></cc:Work></rdf:RDF></metadata><defs
     id="defs71"><clipPath
       clipPathUnits="userSpaceOnUse"
       id="clipPath107"><path
         d="m 221.82,493.675 h 184.5 v 71.27 h -184.5 z"
         id="path105"
         inkscape:connector-curvature="0" /></clipPath><clipPath
       clipPathUnits="userSpaceOnUse"
       id="clipPath207"><path
         d="m 220.418,401 h 185.054 v 71.27 H 220.418 Z"
         id="path205"
         inkscape:connector-curvature="0" /></clipPath><clipPath
       clipPathUnits="userSpaceOnUse"
       id="clipPath309"><path
         d="m 220.418,302.38 h 183.69 v 71.27 h -183.69 z"
         id="path307"
         inkscape:connector-curvature="0" /></clipPath><clipPath
       clipPathUnits="userSpaceOnUse"
       id="clipPath487"><path
         d="m 220.418,195.145 h 183.69 v 71.27 h -183.69 z"
         id="path485"
         inkscape:connector-curvature="0" /></clipPath></defs><sodipodi:namedview
     pagecolor="#ffffff"
     bordercolor="#666666"
     inkscape:document-rotation="0"
     borderopacity="1"
     objecttolerance="10"
     gridtolerance="10"
     guidetolerance="10"
     inkscape:pageopacity="0"
     inkscape:pageshadow="2"
     inkscape:window-width="1920"
     inkscape:window-height="1061"
     id="namedview69"
     showgrid="false"
     fit-margin-top="0"
     fit-margin-left="0"
     fit-margin-right="0"
     fit-margin-bottom="0"
     inkscape:zoom="1"
     inkscape:cx="119.84764"
     inkscape:cy="-127.44657"
     inkscape:window-x="0"
     inkscape:window-y="0"
     inkscape:window-maximized="0"
     inkscape:current-layer="g75" /><g
     id="g75"
     inkscape:groupmode="layer"
     inkscape:label="16-0046rockforduniversitybrandstandardsguide-aug2015"
     transform="matrix(1.3333333,0,0,-1.3333333,-288.15236,756.04733)"><g
       id="g101"
       transform="matrix(1.2215333,0,0,1.2215333,-69.576954,-117.25987)"><g
         id="g103"
         clip-path="url(#clipPath107)"><g
           id="g109"
           transform="translate(302.4801,504.0086)"><path
             d="m 0,0 v 1.534 c 0,0.28 0,0.42 -0.176,0.42 -0.222,0 -1.1,-0.456 -1.357,-0.561 -0.059,-0.024 -0.117,-0.047 -0.164,-0.047 -0.035,0 -0.094,0.059 -0.094,0.129 0,0.07 0.059,0.128 0.117,0.163 0.047,0.024 2.294,1.498 2.704,1.803 0.105,0.07 0.21,0.152 0.304,0.152 0.105,0 0.14,-0.128 0.14,-0.246 0,-0.093 -0.07,-1.252 -0.07,-3.042 v -2.166 c 0,-1.123 0,-2.118 0.047,-2.633 0.035,-0.375 0.093,-0.55 0.468,-0.632 0.176,-0.035 0.679,-0.07 0.773,-0.07 0.046,0 0.105,-0.035 0.105,-0.117 0,-0.082 -0.059,-0.105 -0.187,-0.105 -0.889,0 -1.639,0.035 -1.955,0.035 -0.269,0 -1.252,-0.035 -2.001,-0.035 -0.129,0 -0.199,0.023 -0.199,0.105 0,0.082 0.047,0.117 0.094,0.117 0.128,0 0.725,0.035 0.936,0.082 0.374,0.082 0.433,0.245 0.468,0.62 0.047,0.515 0.07,1.51 0.059,2.633 z"
             style="fill:#53369a;fill-opacity:1;fill-rule:nonzero;stroke:none"
             id="path111"
             inkscape:connector-curvature="0" /></g><g
           id="g113"
           transform="translate(310.0851,507.0987)"><path
             d="m 0,0 c -1.019,0 -1.428,-0.726 -1.428,-1.381 0,-0.726 0.503,-1.206 1.568,-1.802 0.34,0.151 1.147,0.608 1.147,1.79 C 1.287,-0.515 0.702,0 0,0 m -0.071,-8.134 c 0.913,0 1.65,0.69 1.65,1.767 0,1.17 -0.936,1.721 -1.977,2.329 -0.632,-0.363 -1.381,-1.076 -1.381,-2.27 0,-1.042 0.76,-1.826 1.708,-1.826 m -3.031,1.755 c 0,1.3 1.019,2.165 2.154,2.622 -0.971,0.503 -1.698,1.147 -1.698,2.142 0,0.912 0.785,2.118 2.775,2.118 1.427,0 2.399,-0.655 2.399,-1.79 0,-1.229 -1.077,-1.92 -1.721,-2.165 0.831,-0.445 2.13,-1.171 2.13,-2.622 0,-1.381 -1.135,-2.598 -3.101,-2.598 -1.732,0 -2.938,0.854 -2.938,2.293"
             style="fill:#53369a;fill-opacity:1;fill-rule:nonzero;stroke:none"
             id="path115"
             inkscape:connector-curvature="0" /></g><g
           id="g117"
           transform="translate(317.5731,505.4604)"><path
             d="M 0,0 H -0.035 C -0.304,-0.387 -2.247,-3.09 -2.646,-3.617 H 0 Z m -3.593,-4.53 c -0.141,0 -0.293,0.047 -0.293,0.176 0,0.14 0.106,0.246 0.152,0.304 0.082,0.094 4.448,5.864 4.541,5.981 0.094,0.105 0.187,0.211 0.304,0.211 0.106,0 0.141,-0.083 0.141,-0.2 C 1.252,1.767 1.24,0.948 1.24,0.187 v -3.804 h 0.902 c 0.316,0 0.468,0.117 0.538,0.117 0.058,0 0.105,-0.046 0.105,-0.14 0,-0.105 -0.117,-0.585 -0.199,-0.737 C 2.528,-4.483 2.469,-4.53 2.27,-4.53 H 1.24 c 0,-0.374 -0.011,-0.901 0.035,-1.416 0.035,-0.362 0.106,-0.573 0.492,-0.655 0.164,-0.035 0.409,-0.047 0.527,-0.047 0.058,0 0.105,-0.035 0.105,-0.117 0,-0.082 -0.058,-0.105 -0.187,-0.105 -0.655,0 -1.405,0.035 -1.65,0.035 -0.328,0 -0.96,-0.035 -1.604,-0.035 -0.129,0 -0.187,0.023 -0.187,0.105 0,0.082 0.034,0.117 0.093,0.117 0.106,0 0.363,0.012 0.551,0.035 0.444,0.047 0.526,0.305 0.55,0.667 C 0.012,-5.431 0,-4.904 0,-4.53 Z"
             style="fill:#53369a;fill-opacity:1;fill-rule:nonzero;stroke:none"
             id="path119"
             inkscape:connector-curvature="0" /></g><g
           id="g121"
           transform="translate(326.9682,507.4027)"><path
             d="m 0,0 c 0.223,0 0.281,-0.035 0.281,-0.093 0,-0.071 -0.046,-0.165 -0.082,-0.211 -0.971,-1.381 -2.797,-6.028 -2.972,-7.526 -0.024,-0.198 0,-0.28 0,-0.433 0,-0.234 -0.948,-0.713 -1.475,-0.713 -0.128,0 -0.164,0.035 -0.164,0.14 0,0.117 0.023,0.293 0.082,0.48 0.328,1.124 1.826,4.576 3.441,7.279 h -3.032 c -0.327,0 -0.819,-0.023 -1.099,-0.21 -0.211,-0.141 -0.363,-0.515 -0.387,-0.702 -0.012,-0.094 -0.046,-0.153 -0.117,-0.153 -0.082,0 -0.093,0.059 -0.093,0.176 0,0.433 0.175,1.802 0.175,1.919 0,0.117 0.048,0.164 0.117,0.164 0.07,0 0.339,-0.117 1.58,-0.117 z"
             style="fill:#53369a;fill-opacity:1;fill-rule:nonzero;stroke:none"
             id="path123"
             inkscape:connector-curvature="0" /></g><g
           id="g125"
           transform="translate(239.1552,548.2848)"><path
             d="m 0,0 c 0,-0.158 0.063,-0.284 0.221,-0.379 0.474,-0.284 1.927,-0.506 3.317,-0.506 0.758,0 1.643,0.095 2.369,0.601 1.106,0.758 1.927,2.464 1.927,4.865 0,3.948 -2.085,6.317 -5.465,6.317 -0.947,0 -1.8,-0.095 -2.116,-0.189 C 0.095,10.646 0,10.519 0,10.33 Z m -2.527,2.748 c 0,4.928 0,5.813 -0.063,6.824 -0.064,1.074 -0.316,1.579 -1.359,1.8 -0.252,0.063 -0.789,0.095 -1.074,0.095 -0.126,0 -0.253,0.063 -0.253,0.19 0,0.189 0.159,0.252 0.506,0.252 1.422,0 3.412,-0.095 3.57,-0.095 0.347,0 2.748,0.095 3.727,0.095 1.99,0 4.107,-0.189 5.781,-1.39 0.79,-0.568 2.18,-2.116 2.18,-4.296 0,-2.338 -0.98,-4.675 -3.823,-7.297 2.591,-3.317 4.739,-6.128 6.571,-8.087 1.706,-1.801 3.064,-2.148 3.854,-2.275 0.6,-0.094 1.042,-0.094 1.232,-0.094 0.158,0 0.284,-0.095 0.284,-0.19 0,-0.189 -0.189,-0.253 -0.758,-0.253 h -2.243 c -1.769,0 -2.559,0.158 -3.38,0.601 -1.358,0.726 -2.464,2.274 -4.264,4.644 -1.327,1.737 -2.812,3.853 -3.444,4.675 -0.126,0.126 -0.221,0.189 -0.41,0.189 L 0.221,-1.801 C 0.063,-1.801 0,-1.895 0,-2.053 v -0.759 c 0,-3.032 0,-5.528 0.158,-6.855 0.095,-0.915 0.284,-1.611 1.232,-1.737 0.442,-0.063 1.137,-0.126 1.421,-0.126 0.19,0 0.253,-0.095 0.253,-0.19 0,-0.158 -0.158,-0.253 -0.505,-0.253 -1.738,0 -3.728,0.095 -3.886,0.095 -0.031,0 -2.021,-0.095 -2.969,-0.095 -0.348,0 -0.506,0.064 -0.506,0.253 0,0.095 0.064,0.19 0.253,0.19 0.284,0 0.664,0.063 0.948,0.126 0.632,0.126 0.79,0.822 0.916,1.737 0.158,1.327 0.158,3.823 0.158,6.855 z"
             style="fill:#53369a;fill-opacity:1;fill-rule:nonzero;stroke:none"
             id="path127"
             inkscape:connector-curvature="0" /></g><g
           id="g129"
           transform="translate(266.3537,537.0704)"><path
             d="m 0,0 c 2.496,0 7.518,1.327 7.518,9.098 0,6.444 -3.917,9.824 -8.308,9.824 -4.643,0 -7.992,-2.906 -7.992,-8.75 C -8.782,3.917 -5.023,0 0,0 m -0.632,19.933 c 6.255,0 10.994,-3.822 10.994,-10.077 0,-6.002 -4.455,-10.961 -11.152,-10.961 -7.613,0 -10.867,5.717 -10.867,10.55 0,4.328 3.349,10.488 11.025,10.488"
             style="fill:#53369a;fill-opacity:1;fill-rule:nonzero;stroke:none"
             id="path131"
             inkscape:connector-curvature="0" /></g><g
           id="g133"
           transform="translate(281.2329,538.8395)"><path
             d="m 0,0 c -2.717,2.338 -3.38,5.402 -3.38,7.961 0,1.8 0.663,4.928 3.127,7.328 1.675,1.611 4.202,2.875 8.466,2.875 1.106,0 2.685,-0.095 4.044,-0.316 1.042,-0.189 1.927,-0.379 2.843,-0.411 0.284,0 0.347,-0.126 0.347,-0.284 0,-0.221 -0.063,-0.537 -0.126,-1.516 -0.032,-0.885 -0.032,-2.369 -0.063,-2.748 -0.032,-0.411 -0.158,-0.569 -0.316,-0.569 -0.19,0 -0.221,0.189 -0.221,0.569 0,1.042 -0.443,2.116 -1.169,2.685 -0.979,0.821 -3.001,1.484 -5.465,1.484 -3.57,0 -5.276,-0.947 -6.255,-1.864 -2.053,-1.895 -2.495,-4.296 -2.495,-7.013 0,-5.148 4.075,-9.729 10.013,-9.729 2.085,0 3.475,0.158 4.581,1.264 0.6,0.6 0.979,1.737 1.074,2.243 0.063,0.284 0.095,0.379 0.284,0.379 0.127,0 0.253,-0.19 0.253,-0.379 0,-0.19 -0.379,-2.528 -0.663,-3.444 -0.158,-0.505 -0.221,-0.6 -0.695,-0.789 C 13.046,-2.717 10.961,-2.875 9.161,-2.875 4.991,-2.875 2.18,-1.895 0,0"
             style="fill:#53369a;fill-opacity:1;fill-rule:nonzero;stroke:none"
             id="path135"
             inkscape:connector-curvature="0" /></g><g
           id="g137"
           transform="translate(301.0078,548.8532)"><path
             d="m 0,0 c 0,4.17 0,4.928 -0.063,5.781 -0.063,0.916 -0.221,1.358 -1.138,1.485 -0.221,0.031 -0.694,0.063 -0.947,0.063 -0.095,0 -0.221,0.126 -0.221,0.221 0,0.158 0.126,0.221 0.442,0.221 1.263,0 2.97,-0.063 3.128,-0.063 0.252,0 1.926,0.063 2.748,0.063 0.316,0 0.442,-0.063 0.442,-0.221 0,-0.095 -0.094,-0.221 -0.221,-0.221 -0.19,0 -0.347,0 -0.695,-0.063 C 2.748,7.108 2.558,6.729 2.495,5.781 2.432,4.928 2.432,4.17 2.432,0 v -1.611 h 0.126 c 0.443,0.506 5.403,5.402 6.445,6.476 0.79,0.79 1.517,1.485 1.517,1.927 0,0.347 -0.127,0.505 -0.348,0.537 -0.158,0.031 -0.253,0.158 -0.253,0.253 0,0.126 0.127,0.189 0.316,0.189 0.569,0 1.421,-0.063 2.085,-0.063 0.158,0 1.99,0.063 2.685,0.063 0.284,0 0.411,-0.063 0.411,-0.189 0,-0.127 -0.063,-0.222 -0.285,-0.222 -0.41,0 -1.01,-0.158 -1.547,-0.378 C 12.446,6.476 11.909,5.876 10.678,4.707 9.982,4.075 5.244,-0.474 4.644,-1.137 c 0.726,-0.79 6.507,-6.571 7.644,-7.613 2.338,-2.085 2.654,-2.433 3.98,-2.97 0.727,-0.284 1.517,-0.379 1.706,-0.379 0.19,0 0.348,-0.094 0.348,-0.221 0,-0.126 -0.127,-0.221 -0.6,-0.221 H 16.3 c -0.79,0 -1.295,0 -1.927,0.063 -1.453,0.127 -2.18,0.727 -3.38,1.643 -1.263,0.979 -7.107,7.139 -8.435,8.719 H 2.432 v -2.622 c 0,-2.591 0,-4.707 0.126,-5.813 0.095,-0.789 0.222,-1.295 1.075,-1.421 0.379,-0.063 0.821,-0.127 1.074,-0.127 0.158,0 0.221,-0.126 0.221,-0.221 0,-0.126 -0.126,-0.221 -0.442,-0.221 -1.359,0 -3.033,0.095 -3.254,0.095 -0.221,0 -1.896,-0.095 -2.748,-0.095 -0.285,0 -0.442,0.063 -0.442,0.221 0,0.095 0.063,0.221 0.221,0.221 0.252,0 0.599,0.064 0.852,0.127 0.538,0.126 0.601,0.632 0.727,1.421 C 0,-9.445 0,-7.329 0,-4.738 Z"
             style="fill:#53369a;fill-opacity:1;fill-rule:nonzero;stroke:none"
             id="path139"
             inkscape:connector-curvature="0" /></g><g
           id="g141"
           transform="translate(319.6771,548.8532)"><path
             d="m 0,0 c 0,4.17 0,4.928 -0.064,5.781 -0.063,0.916 -0.221,1.358 -1.137,1.485 -0.221,0.031 -0.694,0.063 -0.947,0.063 -0.095,0 -0.221,0.126 -0.221,0.221 0,0.158 0.126,0.221 0.442,0.221 1.263,0 3.001,-0.063 3.159,-0.063 0.537,0 6.571,-0.032 7.202,0 0.537,0.031 1.011,0.031 1.264,0.126 0.158,0.032 0.284,0.158 0.38,0.158 0.125,0 0.189,-0.126 0.189,-0.253 C 10.267,7.55 10.14,7.234 10.046,6.476 10.014,6.223 9.982,5.023 9.918,4.707 9.888,4.581 9.793,4.423 9.666,4.423 9.54,4.423 9.445,4.549 9.445,4.739 9.445,4.96 9.35,5.402 9.192,5.749 9.034,6.097 8.371,6.539 7.297,6.539 L 2.748,6.602 C 2.59,6.602 2.527,6.539 2.527,6.318 v -7.329 c 0,-0.158 0,-0.252 0.189,-0.252 l 3.791,0.031 c 0.474,0 0.885,0 1.264,0.032 0.663,0.063 1.042,0.158 1.295,0.474 0.126,0.158 0.253,0.284 0.347,0.284 0.127,0 0.158,-0.095 0.158,-0.221 0,-0.158 -0.19,-0.6 -0.252,-1.485 -0.063,-0.537 -0.095,-1.611 -0.095,-1.801 0,-0.252 -0.064,-0.537 -0.253,-0.537 -0.158,0 -0.19,0.127 -0.19,0.253 -0.031,0.284 -0.062,0.663 -0.189,0.98 -0.126,0.379 -0.569,0.726 -1.421,0.852 -0.696,0.095 -3.981,0.063 -4.455,0.063 -0.158,0 -0.189,-0.063 -0.189,-0.252 v -2.148 c 0,-2.654 0,-4.77 0.126,-5.813 0.095,-0.789 0.252,-1.295 1.011,-1.421 0.411,-0.063 1.011,-0.127 1.264,-0.127 0.158,0 0.221,-0.126 0.221,-0.221 0,-0.126 -0.126,-0.221 -0.442,-0.221 -1.549,0 -3.349,0.095 -3.475,0.095 -0.158,0 -1.896,-0.095 -2.748,-0.095 -0.285,0 -0.443,0.063 -0.443,0.221 0,0.095 0.064,0.221 0.222,0.221 0.252,0 0.599,0.095 0.852,0.127 0.537,0.095 0.6,0.632 0.727,1.421 C 0,-9.445 0,-7.329 0,-4.738 Z"
             style="fill:#53369a;fill-opacity:1;fill-rule:nonzero;stroke:none"
             id="path143"
             inkscape:connector-curvature="0" /></g><g
           id="g145"
           transform="translate(342.7053,537.0704)"><path
             d="m 0,0 c 2.495,0 7.519,1.327 7.519,9.098 0,6.444 -3.918,9.824 -8.309,9.824 -4.643,0 -7.991,-2.906 -7.991,-8.75 C -8.781,3.917 -5.023,0 0,0 m -0.631,19.933 c 6.255,0 10.993,-3.822 10.993,-10.077 0,-6.002 -4.454,-10.961 -11.152,-10.961 -7.612,0 -10.866,5.717 -10.866,10.55 0,4.328 3.348,10.488 11.025,10.488"
             style="fill:#53369a;fill-opacity:1;fill-rule:nonzero;stroke:none"
             id="path147"
             inkscape:connector-curvature="0" /></g><g
           id="g149"
           transform="translate(358.9117,546.5789)"><path
             d="m 0,0 c 0,-0.158 0.064,-0.253 0.189,-0.348 0.412,-0.22 1.833,-0.41 3.065,-0.41 0.663,0 1.421,0.031 2.084,0.474 0.948,0.632 1.675,2.053 1.675,4.106 0,3.349 -1.832,5.276 -4.802,5.276 C 1.39,9.098 0.505,9.003 0.221,8.94 0.094,8.877 0,8.782 0,8.624 Z m -2.4,2.274 c 0,4.17 0,4.928 -0.064,5.782 -0.064,0.915 -0.221,1.358 -1.138,1.484 -0.221,0.032 -0.694,0.063 -0.947,0.063 -0.095,0 -0.221,0.127 -0.221,0.221 0,0.158 0.126,0.222 0.442,0.222 1.263,0 3.127,-0.064 3.285,-0.064 0.285,0 2.623,0.064 3.475,0.064 1.769,0 3.727,-0.159 5.181,-1.169 C 8.308,8.371 9.54,7.076 9.54,5.212 c 0,-1.99 -0.822,-3.917 -3.412,-6.128 2.275,-2.843 4.202,-5.275 5.813,-6.95 1.484,-1.516 2.401,-1.769 3.095,-1.864 0.537,-0.094 0.821,-0.094 0.98,-0.094 0.158,0 0.252,-0.127 0.252,-0.221 0,-0.158 -0.158,-0.222 -0.663,-0.222 h -1.737 c -1.58,0 -2.275,0.158 -2.969,0.537 -1.201,0.632 -2.212,1.928 -3.791,3.949 -1.169,1.453 -2.401,3.191 -3.001,3.917 -0.127,0.127 -0.19,0.158 -0.38,0.158 L 0.189,-1.643 C 0.064,-1.643 0,-1.706 0,-1.864 v -0.631 c 0,-2.591 0,-4.676 0.126,-5.781 0.095,-0.79 0.253,-1.296 1.105,-1.422 0.38,-0.063 0.98,-0.126 1.233,-0.126 0.189,0 0.221,-0.127 0.221,-0.221 0,-0.127 -0.127,-0.222 -0.442,-0.222 -1.517,0 -3.286,0.095 -3.412,0.095 -0.032,0 -1.896,-0.095 -2.748,-0.095 -0.285,0 -0.443,0.064 -0.443,0.222 0,0.094 0.064,0.221 0.221,0.221 0.253,0 0.601,0.063 0.853,0.126 0.537,0.126 0.601,0.632 0.727,1.422 0.159,1.105 0.159,3.222 0.159,5.812 z"
             style="fill:#53369a;fill-opacity:1;fill-rule:nonzero;stroke:none"
             id="path151"
             inkscape:connector-curvature="0" /></g><g
           id="g153"
           transform="translate(377.8976,545.947)"><path
             d="m 0,0 c 0,-2.843 0,-5.338 0.031,-5.844 0.032,-0.663 0.094,-1.642 0.316,-1.927 0.347,-0.505 1.327,-1.074 4.612,-1.074 2.559,0 4.833,0.853 6.508,2.433 1.453,1.358 2.179,3.916 2.179,6.381 0,3.411 -1.485,5.591 -2.621,6.728 C 8.403,9.351 5.338,9.698 2.021,9.698 1.484,9.698 0.6,9.603 0.347,9.508 0.094,9.414 0,9.288 0,8.971 Z m -2.528,2.906 c 0,4.17 0,4.928 -0.063,5.781 -0.063,0.916 -0.221,1.359 -1.137,1.485 -0.221,0.032 -0.695,0.063 -0.947,0.063 -0.095,0 -0.221,0.127 -0.221,0.221 0,0.158 0.126,0.221 0.441,0.221 1.264,0 3.065,-0.063 3.222,-0.063 0.317,0 2.085,0.063 3.728,0.063 2.78,0 7.865,0.253 11.151,-3.064 1.39,-1.39 2.717,-3.633 2.717,-6.823 0,-3.38 -1.453,-5.971 -3.001,-7.55 -1.201,-1.232 -3.696,-3.096 -8.434,-3.096 -1.201,0 -2.685,0.095 -3.886,0.158 -1.201,0.095 -2.148,0.158 -2.275,0.158 -0.062,0 -0.568,-0.032 -1.137,-0.032 -0.569,-0.031 -1.232,-0.063 -1.674,-0.063 -0.284,0 -0.442,0.063 -0.442,0.221 0,0.095 0.063,0.222 0.221,0.222 0.253,0 0.6,0.063 0.852,0.126 0.538,0.126 0.601,0.632 0.728,1.422 0.157,1.105 0.157,3.222 0.157,5.812 z"
             style="fill:#53369a;fill-opacity:1;fill-rule:nonzero;stroke:none"
             id="path155"
             inkscape:connector-curvature="0" /></g><g
           id="g157"
           transform="translate(245.1342,522.7723)"><path
             d="M 0,0 C 0,2.2 0,2.601 -0.033,3.051 -0.067,3.501 -0.15,3.768 -0.634,3.835 -0.75,3.851 -1,3.868 -1.134,3.868 c -0.05,0 -0.116,0.066 -0.116,0.116 0,0.084 0.066,0.117 0.233,0.117 0.667,0 1.55,-0.033 1.684,-0.033 0.133,0 1.05,0.033 1.484,0.033 0.167,0 0.25,-0.033 0.25,-0.117 0,-0.05 -0.067,-0.116 -0.133,-0.116 -0.1,0 -0.184,0 -0.367,-0.033 C 1.517,3.768 1.434,3.518 1.401,3.051 1.367,2.601 1.367,2.2 1.367,0 v -1.984 c 0,-2.051 0.45,-2.901 1.084,-3.468 0.717,-0.651 1.351,-0.767 2.184,-0.767 0.9,0 1.767,0.4 2.267,1 0.684,0.818 0.834,1.984 0.834,3.435 V 0 c 0,2.2 -0.017,2.601 -0.033,3.051 -0.017,0.45 -0.1,0.717 -0.584,0.784 -0.116,0.016 -0.366,0.033 -0.5,0.033 -0.067,0 -0.116,0.066 -0.116,0.116 0,0.084 0.066,0.117 0.233,0.117 0.65,0 1.5,-0.033 1.584,-0.033 0.1,0 0.8,0.033 1.233,0.033 0.167,0 0.234,-0.033 0.234,-0.117 0,-0.05 -0.05,-0.116 -0.117,-0.116 -0.1,0 -0.183,0 -0.367,-0.033 C 8.903,3.751 8.82,3.518 8.786,3.051 8.753,2.601 8.77,2.2 8.77,0 v -1.517 c 0,-1.534 -0.2,-3.251 -1.367,-4.252 -1.067,-0.917 -2.201,-1.033 -3.068,-1.033 -0.484,0 -2.017,0.033 -3.051,1 C 0.567,-5.135 0,-4.151 0,-2.085 Z"
             style="fill:#53369a;fill-opacity:1;fill-rule:nonzero;stroke:none"
             id="path159"
             inkscape:connector-curvature="0" /></g><g
           id="g161"
           transform="translate(263.3738,518.0871)"><path
             d="m 0,0 c 0.033,-1.167 0.167,-1.517 0.567,-1.617 0.267,-0.067 0.6,-0.084 0.733,-0.084 0.067,0 0.117,-0.05 0.117,-0.116 0,-0.084 -0.1,-0.117 -0.267,-0.117 -0.833,0 -1.417,0.05 -1.55,0.05 -0.134,0 -0.751,-0.05 -1.417,-0.05 -0.15,0 -0.234,0.016 -0.234,0.117 0,0.066 0.05,0.116 0.117,0.116 0.117,0 0.384,0.017 0.6,0.084 0.367,0.1 0.417,0.483 0.417,1.767 v 8.12 c 0,0.567 0.083,0.716 0.2,0.716 0.167,0 0.417,-0.283 0.567,-0.433 C 0.083,8.32 2.218,6.052 4.485,3.718 5.935,2.217 7.503,0.534 7.953,0.067 l -0.15,7.102 c -0.017,0.917 -0.1,1.234 -0.551,1.317 -0.266,0.05 -0.6,0.067 -0.716,0.067 -0.1,0 -0.117,0.083 -0.117,0.134 0,0.082 0.117,0.099 0.283,0.099 0.667,0 1.367,-0.033 1.534,-0.033 0.167,0 0.65,0.033 1.251,0.033 0.15,0 0.267,-0.017 0.267,-0.099 0,-0.051 -0.067,-0.134 -0.167,-0.134 -0.067,0 -0.184,0 -0.351,-0.033 C 8.753,8.42 8.72,8.136 8.72,7.286 L 8.686,-1.017 c 0,-0.934 -0.016,-1.017 -0.116,-1.017 -0.151,0 -0.301,0.116 -1.118,0.867 C 7.303,-1.034 5.185,1.051 3.635,2.668 1.934,4.452 0.283,6.186 -0.167,6.686 Z"
             style="fill:#53369a;fill-opacity:1;fill-rule:nonzero;stroke:none"
             id="path163"
             inkscape:connector-curvature="0" /></g><g
           id="g165"
           transform="translate(282.314,520.2714)"><path
             d="m 0,0 c 0,-1.367 0,-2.484 0.067,-3.068 0.05,-0.417 0.1,-0.683 0.533,-0.75 0.217,-0.034 0.534,-0.067 0.667,-0.067 0.083,0 0.117,-0.066 0.117,-0.117 0,-0.066 -0.067,-0.116 -0.234,-0.116 -0.817,0 -1.767,0.05 -1.834,0.05 -0.083,0 -1,-0.05 -1.45,-0.05 -0.15,0 -0.234,0.033 -0.234,0.116 0,0.051 0.034,0.117 0.117,0.117 0.133,0 0.317,0.033 0.45,0.067 0.284,0.067 0.334,0.333 0.384,0.75 0.066,0.584 0.083,1.701 0.083,3.068 v 2.501 c 0,2.2 0,2.601 -0.033,3.051 -0.034,0.483 -0.15,0.7 -0.467,0.766 -0.167,0.034 -0.35,0.051 -0.45,0.051 -0.067,0 -0.117,0.066 -0.117,0.116 0,0.084 0.067,0.117 0.234,0.117 0.483,0 1.4,-0.033 1.483,-0.033 0.067,0 1.017,0.033 1.468,0.033 0.166,0 0.233,-0.033 0.233,-0.117 0,-0.05 -0.067,-0.116 -0.117,-0.116 -0.1,0 -0.2,0 -0.366,-0.033 C 0.133,6.252 0.05,6.052 0.017,5.552 0,5.102 0,4.701 0,2.501 Z"
             style="fill:#53369a;fill-opacity:1;fill-rule:nonzero;stroke:none"
             id="path167"
             inkscape:connector-curvature="0" /></g><g
           id="g169"
           transform="translate(295.3517,518.004)"><path
             d="m 0,0 c 0.85,1.901 2.768,6.736 3.084,7.752 0.067,0.217 0.134,0.417 0.134,0.534 0,0.117 -0.05,0.25 -0.2,0.3 -0.167,0.051 -0.334,0.051 -0.501,0.051 -0.083,0 -0.166,0.049 -0.166,0.116 0,0.083 0.1,0.117 0.333,0.117 0.584,0 1.25,-0.034 1.434,-0.034 0.083,0 0.717,0.034 1.151,0.034 0.15,0 0.233,-0.034 0.233,-0.1 0,-0.067 -0.05,-0.133 -0.167,-0.133 -0.1,0 -0.434,0 -0.7,-0.168 C 4.435,8.336 4.201,8.136 3.818,7.169 3.651,6.769 2.934,5.068 2.184,3.334 1.284,1.267 0.633,-0.267 0.3,-0.967 c -0.4,-0.851 -0.484,-1.067 -0.634,-1.067 -0.166,0 -0.266,0.183 -0.55,0.867 l -3.601,8.686 c -0.334,0.8 -0.533,0.95 -1.017,1.067 -0.233,0.051 -0.484,0.051 -0.567,0.051 -0.083,0 -0.116,0.082 -0.116,0.133 0,0.082 0.15,0.1 0.383,0.1 0.7,0 1.534,-0.034 1.717,-0.034 0.15,0 0.8,0.034 1.367,0.034 0.267,0 0.4,-0.034 0.4,-0.1 0,-0.067 -0.05,-0.133 -0.15,-0.133 -0.166,0 -0.4,-0.017 -0.533,-0.068 -0.15,-0.066 -0.167,-0.149 -0.167,-0.25 0,-0.183 0.184,-0.617 0.4,-1.183 z"
             style="fill:#53369a;fill-opacity:1;fill-rule:nonzero;stroke:none"
             id="path171"
             inkscape:connector-curvature="0" /></g><g
           id="g173"
           transform="translate(307.6891,522.7723)"><path
             d="M 0,0 C 0,2.2 0,2.601 -0.033,3.051 -0.066,3.534 -0.149,3.768 -0.633,3.835 -0.75,3.851 -1,3.868 -1.134,3.868 c -0.05,0 -0.116,0.066 -0.116,0.116 0,0.084 0.066,0.117 0.233,0.117 0.667,0 1.618,-0.033 1.701,-0.033 0.1,0 3.168,-0.017 3.501,0 0.284,0.016 0.55,0.067 0.667,0.083 0.067,0.017 0.134,0.067 0.2,0.067 0.05,0 0.067,-0.067 0.067,-0.134 0,-0.1 -0.083,-0.266 -0.117,-0.666 C 4.986,3.284 4.952,2.651 4.919,2.484 4.902,2.417 4.852,2.334 4.785,2.334 c -0.083,0 -0.117,0.067 -0.117,0.184 0,0.1 -0.016,0.333 -0.083,0.5 -0.1,0.233 -0.25,0.333 -1.05,0.433 -0.251,0.033 -1.951,0.05 -2.118,0.05 -0.066,0 -0.083,-0.05 -0.083,-0.15 V -0.5 c 0,-0.101 0,-0.15 0.083,-0.15 0.184,0 2.118,0 2.451,0.033 0.351,0.033 0.567,0.049 0.717,0.2 0.1,0.1 0.167,0.183 0.217,0.183 0.05,0 0.083,-0.033 0.083,-0.116 0,-0.084 -0.083,-0.317 -0.117,-0.784 -0.033,-0.283 -0.066,-0.817 -0.066,-0.917 0,-0.117 -0.034,-0.267 -0.133,-0.267 -0.067,0 -0.1,0.051 -0.1,0.134 0,0.133 0,0.283 -0.067,0.466 -0.05,0.201 -0.183,0.367 -0.75,0.434 -0.401,0.05 -1.968,0.067 -2.218,0.067 -0.083,0 -0.1,-0.05 -0.1,-0.101 v -1.183 c 0,-0.484 -0.016,-2.134 0,-2.417 0.034,-0.951 0.3,-1.134 1.751,-1.134 0.383,0 1.083,0 1.467,0.15 0.383,0.166 0.584,0.416 0.667,0.984 0.033,0.166 0.067,0.216 0.15,0.216 0.083,0 0.1,-0.117 0.1,-0.216 0,-0.1 -0.117,-1.068 -0.2,-1.367 -0.1,-0.367 -0.25,-0.367 -0.817,-0.367 -1.101,0 -1.951,0.033 -2.551,0.049 -0.617,0.034 -1.001,0.034 -1.217,0.034 -0.033,0 -0.317,0 -0.634,-0.017 -0.283,-0.017 -0.617,-0.033 -0.85,-0.033 -0.15,0 -0.233,0.033 -0.233,0.116 0,0.051 0.033,0.117 0.116,0.117 0.134,0 0.317,0.05 0.45,0.067 0.284,0.05 0.318,0.333 0.384,0.75 C 0,-4.985 0,-3.868 0,-2.501 Z"
             style="fill:#53369a;fill-opacity:1;fill-rule:nonzero;stroke:none"
             id="path175"
             inkscape:connector-curvature="0" /></g><g
           id="g177"
           transform="translate(322.8114,521.5714)"><path
             d="M 0,0 C 0,-0.083 0.033,-0.133 0.1,-0.183 0.317,-0.3 1.067,-0.4 1.717,-0.4 c 0.351,0 0.75,0.017 1.1,0.25 0.5,0.334 0.884,1.084 0.884,2.167 0,1.768 -0.966,2.785 -2.534,2.785 -0.433,0 -0.9,-0.05 -1.05,-0.083 C 0.049,4.685 0,4.635 0,4.552 Z m -1.267,1.201 c 0,2.2 0,2.601 -0.034,3.051 -0.033,0.483 -0.116,0.717 -0.6,0.784 -0.117,0.016 -0.366,0.033 -0.499,0.033 -0.051,0 -0.117,0.066 -0.117,0.116 0,0.084 0.066,0.117 0.233,0.117 0.667,0 1.65,-0.033 1.733,-0.033 0.151,0 1.384,0.033 1.834,0.033 0.934,0 1.968,-0.083 2.735,-0.617 0.367,-0.266 1.017,-0.95 1.017,-1.934 0,-1.05 -0.434,-2.067 -1.801,-3.234 1.2,-1.501 2.218,-2.785 3.068,-3.668 0.783,-0.8 1.267,-0.933 1.634,-0.984 0.283,-0.05 0.433,-0.05 0.517,-0.05 0.083,0 0.133,-0.066 0.133,-0.117 0,-0.083 -0.083,-0.116 -0.35,-0.116 H 7.319 c -0.834,0 -1.2,0.083 -1.567,0.283 C 5.119,-4.801 4.585,-4.118 3.751,-3.051 3.134,-2.284 2.484,-1.367 2.167,-0.983 2.101,-0.917 2.068,-0.9 1.967,-0.9 L 0.1,-0.867 C 0.033,-0.867 0,-0.9 0,-0.983 v -0.333 c 0,-1.368 0,-2.468 0.066,-3.052 0.051,-0.417 0.134,-0.683 0.584,-0.75 0.2,-0.034 0.517,-0.067 0.65,-0.067 0.1,0 0.117,-0.066 0.117,-0.117 0,-0.066 -0.066,-0.116 -0.234,-0.116 -0.799,0 -1.734,0.05 -1.8,0.05 -0.017,0 -1,-0.05 -1.451,-0.05 -0.15,0 -0.233,0.033 -0.233,0.116 0,0.051 0.034,0.117 0.117,0.117 0.133,0 0.317,0.033 0.45,0.067 0.283,0.067 0.317,0.333 0.383,0.75 0.084,0.584 0.084,1.701 0.084,3.068 z"
             style="fill:#53369a;fill-opacity:1;fill-rule:nonzero;stroke:none"
             id="path179"
             inkscape:connector-curvature="0" /></g><g
           id="g181"
           transform="translate(336.0324,516.3536)"><path
             d="m 0,0 c -0.2,0.1 -0.216,0.15 -0.216,0.533 0,0.7 0.066,1.267 0.083,1.501 0,0.15 0.033,0.233 0.116,0.233 0.084,0 0.133,-0.05 0.133,-0.167 0,-0.116 0,-0.316 0.051,-0.517 0.233,-1.033 1.333,-1.4 2.317,-1.4 1.45,0 2.201,0.817 2.201,1.884 0,1.017 -0.55,1.5 -1.85,2.468 l -0.667,0.5 c -1.584,1.183 -2.101,2.05 -2.101,3.034 0,1.667 1.317,2.667 3.251,2.667 0.583,0 1.167,-0.083 1.517,-0.166 0.284,-0.067 0.4,-0.067 0.517,-0.067 0.117,0 0.15,-0.017 0.15,-0.1 0,-0.066 -0.067,-0.534 -0.067,-1.5 0,-0.217 -0.016,-0.317 -0.116,-0.317 -0.1,0 -0.116,0.066 -0.134,0.183 C 5.169,8.936 5.052,9.32 4.969,9.469 4.868,9.636 4.385,10.17 3.068,10.17 2.001,10.17 1.117,9.636 1.117,8.636 c 0,-0.901 0.451,-1.417 1.9,-2.401 L 3.435,5.952 C 5.219,4.735 5.836,3.751 5.836,2.534 5.836,1.7 5.518,0.8 4.469,0.116 3.851,-0.284 2.935,-0.383 2.134,-0.383 1.451,-0.383 0.601,-0.284 0,0"
             style="fill:#53369a;fill-opacity:1;fill-rule:nonzero;stroke:none"
             id="path183"
             inkscape:connector-curvature="0" /></g><g
           id="g185"
           transform="translate(351.6714,520.2714)"><path
             d="m 0,0 c 0,-1.367 0,-2.484 0.066,-3.068 0.051,-0.417 0.1,-0.683 0.534,-0.75 0.216,-0.034 0.534,-0.067 0.667,-0.067 0.083,0 0.117,-0.066 0.117,-0.117 0,-0.066 -0.067,-0.116 -0.233,-0.116 -0.818,0 -1.768,0.05 -1.835,0.05 -0.083,0 -1.001,-0.05 -1.45,-0.05 -0.15,0 -0.233,0.033 -0.233,0.116 0,0.051 0.032,0.117 0.116,0.117 0.133,0 0.317,0.033 0.45,0.067 0.284,0.067 0.333,0.333 0.384,0.75 0.066,0.584 0.083,1.701 0.083,3.068 v 2.501 c 0,2.2 0,2.601 -0.033,3.051 -0.034,0.483 -0.15,0.7 -0.467,0.766 -0.167,0.034 -0.351,0.051 -0.45,0.051 -0.067,0 -0.117,0.066 -0.117,0.116 0,0.084 0.066,0.117 0.233,0.117 0.483,0 1.401,-0.033 1.484,-0.033 0.067,0 1.017,0.033 1.467,0.033 0.167,0 0.234,-0.033 0.234,-0.117 0,-0.05 -0.067,-0.116 -0.117,-0.116 -0.1,0 -0.201,0 -0.366,-0.033 C 0.133,6.252 0.049,6.052 0.017,5.552 0,5.102 0,4.701 0,2.501 Z"
             style="fill:#53369a;fill-opacity:1;fill-rule:nonzero;stroke:none"
             id="path187"
             inkscape:connector-curvature="0" /></g><g
           id="g189"
           transform="translate(364.6922,520.2714)"><path
             d="m 0,0 c 0,-1.367 0,-2.484 0.067,-3.068 0.049,-0.417 0.117,-0.683 0.567,-0.75 0.2,-0.034 0.533,-0.067 0.667,-0.067 0.1,0 0.117,-0.066 0.117,-0.117 0,-0.066 -0.067,-0.116 -0.234,-0.116 -0.8,0 -1.734,0.05 -1.818,0.05 -0.066,0 -1.083,-0.05 -1.517,-0.05 -0.166,0 -0.233,0.033 -0.233,0.116 0,0.051 0.033,0.101 0.116,0.101 0.133,0 0.301,0.033 0.434,0.066 0.3,0.067 0.384,0.35 0.433,0.767 0.068,0.584 0.068,1.701 0.068,3.068 V 5.952 L -3.451,5.919 C -4.368,5.902 -4.718,5.802 -4.935,5.469 -5.101,5.218 -5.119,5.119 -5.169,5.018 -5.201,4.902 -5.252,4.885 -5.318,4.885 c -0.033,0 -0.1,0.033 -0.1,0.117 0,0.15 0.299,1.417 0.317,1.534 0.033,0.083 0.099,0.266 0.149,0.266 0.101,0 0.251,-0.117 0.65,-0.166 0.418,-0.051 0.984,-0.067 1.151,-0.067 h 5.535 c 0.484,0 0.817,0.033 1.051,0.067 0.217,0.033 0.35,0.066 0.416,0.066 0.067,0 0.067,-0.083 0.067,-0.166 0,-0.434 -0.05,-1.451 -0.05,-1.618 0,-0.117 -0.067,-0.183 -0.133,-0.183 -0.067,0 -0.101,0.05 -0.117,0.25 L 3.602,5.135 C 3.552,5.568 3.234,5.886 1.834,5.919 L 0,5.952 Z"
             style="fill:#53369a;fill-opacity:1;fill-rule:nonzero;stroke:none"
             id="path191"
             inkscape:connector-curvature="0" /></g><g
           id="g193"
           transform="translate(378.3299,519.8378)"><path
             d="m 0,0 c 0,0.767 -0.099,1.051 -0.317,1.45 -0.117,0.217 -2.101,3.368 -2.601,4.119 -0.35,0.533 -0.699,0.85 -0.966,1.033 -0.218,0.133 -0.5,0.201 -0.617,0.201 -0.084,0 -0.15,0.066 -0.15,0.133 0,0.066 0.05,0.1 0.183,0.1 0.283,0 1.384,-0.034 1.45,-0.034 0.1,0 0.701,0.034 1.268,0.034 0.166,0 0.199,-0.034 0.199,-0.1 0,-0.051 -0.099,-0.1 -0.233,-0.15 -0.117,-0.051 -0.183,-0.117 -0.183,-0.233 0,-0.201 0.1,-0.367 0.2,-0.551 L 0.901,1.584 c 0.3,0.6 2.134,3.634 2.4,4.102 0.183,0.316 0.251,0.549 0.251,0.733 0,0.2 -0.068,0.316 -0.234,0.367 C 3.184,6.819 3.1,6.885 3.1,6.953 c 0,0.049 0.084,0.083 0.235,0.083 0.383,0 0.9,-0.034 1.016,-0.034 0.101,0 1.151,0.034 1.435,0.034 0.1,0 0.183,-0.034 0.183,-0.083 0,-0.068 -0.066,-0.15 -0.183,-0.15 C 5.619,6.803 5.335,6.752 5.102,6.619 4.818,6.452 4.685,6.303 4.369,5.919 3.885,5.352 1.817,2.017 1.518,1.417 1.267,0.917 1.334,0.466 1.334,0 v -1.217 c 0,-0.234 0,-0.834 0.05,-1.417 0.034,-0.417 0.134,-0.684 0.567,-0.751 0.201,-0.033 0.533,-0.066 0.667,-0.066 0.083,0 0.117,-0.067 0.117,-0.117 0,-0.067 -0.084,-0.117 -0.234,-0.117 -0.817,0 -1.767,0.05 -1.85,0.05 -0.068,0 -1.001,-0.05 -1.435,-0.05 -0.166,0 -0.233,0.033 -0.233,0.117 0,0.05 0.034,0.117 0.117,0.117 0.133,0 0.3,0.033 0.433,0.066 0.3,0.067 0.4,0.334 0.433,0.751 C 0,-2.051 0,-1.451 0,-1.217 Z"
             style="fill:#53369a;fill-opacity:1;fill-rule:nonzero;stroke:none"
             id="path195"
             inkscape:connector-curvature="0" /></g><g
           id="g197"
           transform="translate(245.3052,502.2008)"><path
             d="M 0,0 H 48.75 M 86.9,0 h 48.751"
             style="fill:none;stroke:#53369a;stroke-width:0.73100001;stroke-linecap:butt;stroke-linejoin:miter;stroke-miterlimit:4;stroke-dasharray:none;stroke-opacity:1"
             id="path199"
             inkscape:connector-curvature="0" /></g></g></g></g></svg>