<?xml version="1.0" encoding="UTF-8" standalone="no"?>
<!-- Created with Inkscape (http://www.inkscape.org/) -->

<svg
   xmlns:dc="http://purl.org/dc/elements/1.1/"
   xmlns:cc="http://creativecommons.org/ns#"
   xmlns:rdf="http://www.w3.org/1999/02/22-rdf-syntax-ns#"
   xmlns:svg="http://www.w3.org/2000/svg"
   xmlns="http://www.w3.org/2000/svg"
   xmlns:sodipodi="http://sodipodi.sourceforge.net/DTD/sodipodi-0.dtd"
   xmlns:inkscape="http://www.inkscape.org/namespaces/inkscape"
   width="236.33084"
   height="164.53162"
   viewBox="0 0 62.5292 43.532325"
   version="1.1"
   id="svg4270"
   inkscape:version="0.92.0 r15299"
   sodipodi:docname="snet.svg">
  <defs
     id="defs4264" />
  <sodipodi:namedview
     id="base"
     pagecolor="#ffffff"
     bordercolor="#666666"
     borderopacity="1.0"
     inkscape:pageopacity="0.0"
     inkscape:pageshadow="2"
     inkscape:zoom="2.0738654"
     inkscape:cx="117.16517"
     inkscape:cy="81.266002"
     inkscape:document-units="mm"
     inkscape:current-layer="layer1"
     showgrid="false"
     fit-margin-top="0"
     fit-margin-left="0"
     fit-margin-right="0"
     fit-margin-bottom="0"
     units="px"
     inkscape:window-width="1280"
     inkscape:window-height="744"
     inkscape:window-x="-4"
     inkscape:window-y="-4"
     inkscape:window-maximized="1" />
  <metadata
     id="metadata4267">
    <rdf:RDF>
      <cc:Work
         rdf:about="">
        <dc:format>image/svg+xml</dc:format>
        <dc:type
           rdf:resource="http://purl.org/dc/dcmitype/StillImage" />
        <dc:title></dc:title>
      </cc:Work>
    </rdf:RDF>
  </metadata>
  <g
     inkscape:label="Layer 1"
     inkscape:groupmode="layer"
     id="layer1"
     transform="translate(54.434476,-126.80263)">
    <g
       id="g4490"
       transform="translate(0.26458426,-0.26459128)">
      <path
         d="m -42.075218,146.78961 c 0.08188,-0.57326 -0.111866,-0.91722 -0.439032,-1.12359 -0.327272,-0.20603 -0.780944,-0.29775 -1.308312,-0.29775 -1.192001,0 -1.823543,0.34361 -2.004201,0.9398 -0.750076,2.47601 9.206372,0.9398 7.386673,6.94637 -1.160004,3.8286 -4.909255,5.68551 -9.448377,5.68551 -4.355959,0 -6.42771,-2.54469 -5.639329,-5.5251 h 5.181141 c -0.066,0.59613 0.123049,1.03174 0.498158,1.3068 0.352248,0.2752 0.883743,0.41271 1.410829,0.41271 1.352691,0 2.378781,-0.43561 2.614965,-1.215 0.757097,-2.49894 -9.255019,-0.77957 -7.344939,-7.08388 1.062743,-3.50767 4.623752,-5.27297 8.750265,-5.27297 4.585159,0 5.962932,2.33821 5.47744,5.2271 h -5.135281"
         style="fill:#231f20;fill-opacity:1;fill-rule:evenodd;stroke:none;stroke-width:0.03527778"
         id="path4286"
         inkscape:connector-curvature="0" />
      <path
         d="m -26.682499,151.00781 2.523454,-9.00962 h 4.761795 l -4.441966,16.55868 h -6.743842 l -1.142259,-8.8295 -2.516435,8.8295 h -4.971415 l 5.000908,-16.55868 h 6.324635 l 1.205125,9.00962"
         style="fill:#231f20;fill-opacity:1;fill-rule:evenodd;stroke:none;stroke-width:0.03527778"
         id="path4288"
         inkscape:connector-curvature="0" />
      <path
         d="m -4.9093711,141.99819 -0.6529917,3.84492 -2.4443974,-3.84492 h -9.5429918 l -4.306712,16.50615 h 12.2403315 l 0.6787444,-3.85145 h -6.1309249 l 0.596194,-1.75193 h 5.4109059 l 1.0981973,-4.41053 h -5.5509582 l 0.555977,-2.1051 h 9.639301 l -3.6882919,12.11901 h 5.4102003 l 3.6882919,-12.11901 h 4.1613669 l 1.3126862,-4.38714 H -4.9093711"
         style="fill:#231f20;fill-opacity:1;fill-rule:evenodd;stroke:none;stroke-width:0.03527778"
         id="path4290"
         inkscape:connector-curvature="0" />
      <path
         d="m -38.256398,136.8374 c 0,0 23.064965,-12.02196 32.8503157,7.82814 l 0.8385529,-4.89268 c 0,0 -12.0219616,-14.95742 -33.6888686,-2.93546"
         style="fill:#c8c7c7;fill-opacity:1;fill-rule:evenodd;stroke:none;stroke-width:0.03527778"
         id="path4292"
         inkscape:connector-curvature="0" />
      <path
         d="m -1.2126126,141.96291 0.69885286,-4.14726 c 0,0 -6.29038096,-8.52699 -21.52720726,-7.96784 0,0 -14.677814,0.69886 -24.183376,10.76396 0,0 10.064785,-9.64565 25.021929,-9.64565 0,0 15.3768789,0.37289 19.9898014,10.99679"
         style="fill:#c8c7c7;fill-opacity:1;fill-rule:evenodd;stroke:none;stroke-width:0.03527778"
         id="path4294"
         inkscape:connector-curvature="0" />
      <path
         d="m 2.4220571,139.49346 1.2580056,-4.05412 c 0,0 -4.8926753,-8.10754 -23.3447177,-8.10754 0,0 -22.366042,0.2794 -34.248022,19.71005 0,0 10.484098,-17.19404 34.248022,-18.45204 0,0 18.91806191,0.55915 22.0867121,10.90365"
         style="fill:#c8c7c7;fill-opacity:1;fill-rule:evenodd;stroke:none;stroke-width:0.03527778"
         id="path4296"
         inkscape:connector-curvature="0" />
      <path
         d="m -53.672224,166.85142 c -0.0157,0.0783 0.03129,0.10181 0.117405,0.0156 0.125271,-0.12514 2.074369,-2.84936 2.152791,-2.95893 0.195686,-0.2818 0.258233,-0.51661 0.258233,-0.64974 0,-0.10968 -0.08611,-0.22695 -0.242675,-0.22695 h -0.132962 c -0.04713,0 -0.07045,-0.0157 -0.06272,-0.047 l 0.03916,-0.18013 c 0.0078,-0.047 0.02357,-0.0625 0.09398,-0.0625 0.07825,0 0.281799,0.0236 0.673171,0.0236 0.438326,0 0.641879,-0.0236 0.735859,-0.0236 0.05486,0 0.08611,0.0236 0.07041,0.0782 l -0.03912,0.1487 c -0.01573,0.047 -0.03129,0.0627 -0.08615,0.0627 h -0.17212 c -0.164395,0 -0.23495,0.0938 -0.274073,0.39134 l -0.414938,3.44428 c -0.01556,0.10184 0.02357,0.11754 0.07842,0.0705 0.179952,-0.15667 1.072374,-1.63601 1.182088,-1.82397 0.352213,-0.59489 0.829698,-1.44818 0.907979,-1.65957 0.07828,-0.21925 0.06255,-0.42263 -0.156668,-0.42263 h -0.125131 c -0.03916,0 -0.05486,-0.0157 -0.04699,-0.0627 l 0.03126,-0.1487 c 0.0079,-0.0547 0.03143,-0.0782 0.08615,-0.0782 0.101811,0 0.289666,0.0236 0.657578,0.0236 0.422663,0 0.62618,-0.0236 0.743726,-0.0236 0.05472,0 0.07814,0.0312 0.07031,0.0782 l -0.03129,0.1487 c -0.0077,0.047 -0.03129,0.0627 -0.06258,0.0627 h -0.133103 c -0.17212,0 -0.320816,0.0547 -0.453919,0.22695 -0.09398,0.13313 -1.252502,2.06664 -1.448188,2.3719 -0.219252,0.36008 -1.2839,1.94137 -1.62045,2.33274 -0.07055,0.0784 -0.164394,0.20352 -0.258374,0.20352 -0.101812,0 -0.14097,-0.0938 -0.125272,-0.23481 l 0.375673,-3.50697 c 0.0157,-0.10957 -0.03902,-0.12527 -0.09384,-0.0548 -0.07828,0.10184 -2.411024,3.30359 -2.70069,3.61668 -0.08613,0.0938 -0.156545,0.17995 -0.273953,0.17995 -0.07841,0 -0.101699,-0.10171 -0.0627,-0.34438 l 0.696732,-4.37597 c 0.04699,-0.27393 0.0079,-0.41476 -0.250507,-0.41476 h -0.187844 c -0.0627,0 -0.08613,-0.0157 -0.07827,-0.0784 l 0.03128,-0.1487 c 0.0079,-0.039 0.02356,-0.0625 0.09398,-0.0625 0.07827,0 0.391361,0.0236 0.798432,0.0236 0.485351,0 0.782884,-0.0236 0.876723,-0.0236 0.07041,0 0.08611,0.0236 0.07825,0.0782 l -0.03126,0.1487 c -0.0079,0.0392 -0.02342,0.0627 -0.07828,0.0627 h -0.172262 c -0.2661,0 -0.352213,0.10167 -0.414796,0.43833 l -0.618455,3.38173"
         style="fill:#231f20;fill-opacity:1;fill-rule:evenodd;stroke:none;stroke-width:0.03527778"
         id="path4298"
         inkscape:connector-curvature="0" />
      <path
         d="m -49.171696,167.32104 c 0,-0.65758 0.430495,-1.47945 1.001854,-2.04308 0.250507,-0.25051 0.673311,-0.52448 1.04909,-0.52448 0.305224,0 0.446194,0.22698 0.446194,0.41494 0,0.38351 -0.289772,0.79058 -0.727993,1.01752 -0.422804,0.21142 -0.845432,0.29753 -1.135098,0.3211 -0.03926,0.0938 -0.101705,0.3521 -0.101705,0.72016 0,0.35221 0.258127,0.49307 0.406929,0.49307 0.383646,0 0.728027,-0.28952 0.892422,-0.55576 0.01573,-0.0234 0.03916,-0.0392 0.07056,-0.008 l 0.08601,0.0706 c 0.03912,0.0236 0.03912,0.0468 0.0078,0.0704 -0.195686,0.27397 -0.665445,0.79072 -1.26806,0.79072 -0.508917,0 -0.728027,-0.25051 -0.728027,-0.76729"
         style="fill:#231f20;fill-opacity:1;fill-rule:evenodd;stroke:none;stroke-width:0.03527778"
         id="path4300"
         inkscape:connector-curvature="0" />
      <path
         d="m -48.475101,166.27995 c 0.273967,0.0234 1.299492,-0.30526 1.299492,-0.88459 0,-0.15653 -0.07825,-0.2975 -0.250507,-0.2975 -0.501051,0 -0.986261,0.90026 -1.048985,1.18209"
         style="fill:#ffffff;fill-opacity:1;fill-rule:evenodd;stroke:none;stroke-width:0.03527778"
         id="path4302"
         inkscape:connector-curvature="0" />
      <path
         d="m -45.704808,169.30954 c 0,-0.57944 0.939412,-0.96294 1.322917,-1.12737 -0.226977,-0.1644 -0.297533,-0.30523 -0.297533,-0.45392 0,-0.14884 0.14097,-0.2818 0.665445,-0.57933 -0.211384,-0.0548 -0.610588,-0.33666 -0.610588,-0.90026 0,-0.5872 0.516608,-1.49518 1.385606,-1.49518 0.391371,0 0.594889,0.25055 0.665339,0.36795 0.08611,-0.0862 0.375779,-0.28967 0.665444,-0.28967 0.258234,0 0.328648,0.21139 0.328648,0.30537 0,0.0861 -0.05472,0.24253 -0.250366,0.24253 -0.148696,0 -0.21142,-0.0625 -0.25841,-0.1174 -0.03912,-0.039 -0.101671,-0.0547 -0.148661,-0.0547 -0.07055,0 -0.195685,0.0547 -0.226977,0.10958 0.03129,0.0782 0.06255,0.32092 0.06255,0.43832 0,0.37582 -0.219111,1.25251 -1.119364,1.40907 -0.14097,0.0236 -0.211385,0.0391 -0.234809,0.0548 -0.148837,0.0627 -0.40707,0.24268 -0.40707,0.37581 0,0.086 0.07825,0.17212 0.132962,0.21125 0.133138,0.094 0.508917,0.32879 1.017693,0.66544 0.453919,0.29753 0.579332,0.55577 0.579332,0.84529 0,0.12542 -0.133139,1.01784 -1.66744,1.01784 -0.814141,0 -1.604716,-0.46193 -1.604716,-1.02542"
         style="fill:#231f20;fill-opacity:1;fill-rule:evenodd;stroke:none;stroke-width:0.03527778"
         id="path4304"
         inkscape:connector-curvature="0" />
      <path
         d="m -42.902447,165.47364 c 0,-0.36008 -0.140828,-0.52447 -0.352213,-0.52447 -0.469794,0 -0.868997,0.91599 -0.868997,1.50301 0,0.35239 0.133138,0.53234 0.368088,0.53234 0.571324,0 0.853122,-0.94724 0.853122,-1.51088"
         style="fill:#ffffff;fill-opacity:1;fill-rule:evenodd;stroke:none;stroke-width:0.03527778"
         id="path4306"
         inkscape:connector-curvature="0" />
      <path
         d="m -43.943529,170.09214 c 0.532306,0 0.978535,-0.18782 0.978535,-0.62618 0,-0.34452 -0.328789,-0.55577 -0.524475,-0.68887 -0.07041,-0.047 -0.579332,-0.37567 -0.688904,-0.44623 -0.64188,0.25838 -0.986402,0.55577 -0.986402,0.92386 0,0.54003 0.696736,0.83742 1.221246,0.83742"
         style="fill:#ffffff;fill-opacity:1;fill-rule:evenodd;stroke:none;stroke-width:0.03527778"
         id="path4308"
         inkscape:connector-curvature="0" />
      <path
         d="m -41.821077,167.07836 c 0,-0.98626 0.743585,-2.32488 1.784809,-2.32488 0.52451,0 0.8376,0.38365 0.8376,0.91599 0,0.86085 -0.681178,2.41886 -1.816135,2.41886 -0.430636,0 -0.806274,-0.4149 -0.806274,-1.00997"
         style="fill:#231f20;fill-opacity:1;fill-rule:evenodd;stroke:none;stroke-width:0.03527778"
         id="path4310"
         inkscape:connector-curvature="0" />
      <path
         d="m -39.511758,165.55193 c 0.0077,-0.24268 -0.133279,-0.43837 -0.391513,-0.43837 -0.328789,0 -0.743585,0.2974 -1.135098,0.93155 -0.2661,0.42266 -0.45406,0.90029 -0.45406,1.26823 0,0.25037 0.172261,0.39921 0.36008,0.39921 0.814141,0 1.620591,-1.64402 1.620591,-2.16062"
         style="fill:#ffffff;fill-opacity:1;fill-rule:evenodd;stroke:none;stroke-width:0.03527778"
         id="path4312"
         inkscape:connector-curvature="0" />
      <path
         d="m -36.012943,162.9922 c -0.06255,0 -0.08611,-0.0312 -0.07041,-0.0784 l 0.04699,-0.12527 c 0.0157,-0.0468 0.03143,-0.0626 0.07828,-0.0626 h 0.994128 c 0.07041,0 0.08611,0.0706 0.05482,0.14097 l -1.260192,2.84152 0.04685,0.0157 c 0.383646,-0.48536 0.986402,-0.97071 1.416897,-0.97071 0.399204,0 0.555766,0.25055 0.555766,0.59489 0,0.44623 -0.258268,1.21338 -1.02556,1.98053 -0.414761,0.40707 -0.915705,0.75943 -1.659432,0.75943 -0.320921,0 -0.524474,-0.22709 -0.524474,-0.51675 0,-0.12513 0.05472,-0.31323 0.117404,-0.45392 0.579332,-1.34662 1.119399,-2.59899 1.62045,-3.79677 0.03912,-0.0939 0.05472,-0.15656 0.05472,-0.21128 0,-0.0706 -0.08615,-0.11741 -0.219252,-0.11741 h -0.226977"
         style="fill:#231f20;fill-opacity:1;fill-rule:evenodd;stroke:none;stroke-width:0.03527778"
         id="path4314"
         inkscape:connector-curvature="0" />
      <path
         d="m -36.459136,167.82209 c 0.626321,0 1.745685,-1.33075 1.745685,-2.34845 0,-0.24267 -0.125271,-0.33651 -0.2661,-0.33651 -0.297498,0 -0.876688,0.49308 -1.275927,1.04881 -0.305364,0.43067 -0.540173,1.07241 -0.540173,1.29949 0,0.31309 0.164394,0.33666 0.336515,0.33666"
         style="fill:#ffffff;fill-opacity:1;fill-rule:evenodd;stroke:none;stroke-width:0.03527778"
         id="path4316"
         inkscape:connector-curvature="0" />
      <path
         d="m -33.955508,167.32104 c 0,-0.65758 0.430495,-1.47945 1.00196,-2.04308 0.250402,-0.25051 0.673312,-0.52448 1.048949,-0.52448 0.305259,0 0.446229,0.22698 0.446229,0.41494 0,0.38351 -0.289666,0.79058 -0.728028,1.01752 -0.422627,0.21142 -0.845432,0.29753 -1.135097,0.3211 -0.03912,0.0938 -0.101706,0.3521 -0.101706,0.72016 0,0.35221 0.258268,0.49307 0.406964,0.49307 0.383646,0 0.728134,-0.28952 0.892387,-0.55576 0.01573,-0.0234 0.0393,-0.0392 0.07055,-0.008 l 0.08615,0.0706 c 0.03898,0.0236 0.03898,0.0468 0.0077,0.0704 -0.195686,0.27397 -0.665339,0.79072 -1.268095,0.79072 -0.508918,0 -0.727993,-0.25051 -0.727993,-0.76729"
         style="fill:#231f20;fill-opacity:1;fill-rule:evenodd;stroke:none;stroke-width:0.03527778"
         id="path4318"
         inkscape:connector-curvature="0" />
      <path
         d="m -33.258772,166.27995 c 0.273791,0.0234 1.299352,-0.30526 1.299352,-0.88459 0,-0.15653 -0.07814,-0.2975 -0.250543,-0.2975 -0.500909,0 -0.986261,0.90026 -1.048809,1.18209"
         style="fill:#ffffff;fill-opacity:1;fill-rule:evenodd;stroke:none;stroke-width:0.03527778"
         id="path4320"
         inkscape:connector-curvature="0" />
      <path
         d="m -31.296727,165.88071 c -0.01559,-0.008 -0.02342,-0.0313 -0.0077,-0.0704 0.04685,-0.094 0.461786,-1.05682 0.939412,-1.05682 0.242535,0 0.328789,0.19569 0.391372,0.88456 0.07825,0.89228 0.132962,1.80841 0.14866,2.31704 l 0.03129,-0.008 c 0.219251,-0.35222 0.688904,-1.2839 0.798583,-1.65958 0.03898,-0.1331 0.117263,-0.34448 0.117263,-0.68114 0,-0.086 -0.0157,-0.22698 -0.03898,-0.28952 -0.03143,-0.0704 -0.08629,-0.17999 -0.08629,-0.28184 0,-0.12523 0.07055,-0.2818 0.321098,-0.2818 0.211243,0 0.31309,0.19569 0.31309,0.39137 0,0.50892 -0.297533,1.1665 -0.524616,1.65972 -0.344381,0.75131 -1.166389,2.15261 -1.847391,2.81806 -0.21142,0.21911 -0.727887,0.71233 -1.189814,0.71233 -0.305223,0 -0.438503,-0.18796 -0.438503,-0.36795 0,-0.19569 0.172403,-0.31309 0.313232,-0.32092 0.133138,-0.008 0.203553,0.0547 0.289666,0.12523 0.05472,0.047 0.133138,0.0938 0.195686,0.0938 0.07828,0 0.211384,-0.0469 0.367947,-0.16439 0.430495,-0.32092 0.735859,-0.77498 0.860989,-1.05682 0.06269,-0.14869 0.07056,-0.32078 0.06269,-0.43822 -0.0157,-0.18009 -0.164395,-2.30932 -0.250367,-2.71639 -0.03143,-0.1488 -0.07055,-0.21921 -0.133138,-0.21921 -0.14097,0 -0.391477,0.46189 -0.45406,0.63401 -0.0157,0.0314 -0.04699,0.0314 -0.07041,0.0236 l -0.109678,-0.047"
         style="fill:#231f20;fill-opacity:1;fill-rule:evenodd;stroke:none;stroke-width:0.03527778"
         id="path4322"
         inkscape:connector-curvature="0" />
      <path
         d="m -28.197116,167.07836 c 0,-0.98626 0.743585,-2.32488 1.784703,-2.32488 0.524475,0 0.837706,0.38365 0.837706,0.91599 0,0.86085 -0.681178,2.41886 -1.816241,2.41886 -0.43053,0 -0.806168,-0.4149 -0.806168,-1.00997"
         style="fill:#231f20;fill-opacity:1;fill-rule:evenodd;stroke:none;stroke-width:0.03527778"
         id="path4324"
         inkscape:connector-curvature="0" />
      <path
         d="m -25.887938,165.55193 c 0.008,-0.24268 -0.132962,-0.43837 -0.391372,-0.43837 -0.328789,0 -0.743585,0.2974 -1.134956,0.93155 -0.266207,0.42266 -0.454202,0.90029 -0.454202,1.26823 0,0.25037 0.172262,0.39921 0.360222,0.39921 0.81414,0 1.620308,-1.64402 1.620308,-2.16062"
         style="fill:#ffffff;fill-opacity:1;fill-rule:evenodd;stroke:none;stroke-width:0.03527778"
         id="path4326"
         inkscape:connector-curvature="0" />
      <path
         d="m -25.089496,168.01008 c -0.08615,0 -0.101847,-0.0157 -0.08615,-0.0705 l 0.555766,-1.44819 c 0.187854,-0.48535 0.40707,-1.04899 0.40707,-1.18209 0,-0.0783 -0.03126,-0.13314 -0.117404,-0.13314 -0.148696,0 -0.524475,0.37582 -0.657437,0.52465 -0.02371,0.0234 -0.04699,0.0234 -0.07842,-0.008 l -0.07041,-0.0706 c -0.03129,-0.0313 -0.03916,-0.047 -0.0157,-0.0783 0.117546,-0.14083 0.696737,-0.79058 1.260334,-0.79058 0.180129,0 0.250543,0.13311 0.250543,0.23481 0,0.24268 -0.336656,0.9864 -0.39938,1.16639 l 0.03143,0.0157 c 0.234809,-0.37578 1.088108,-1.4169 1.784844,-1.4169 0.234597,0 0.39123,0.11741 0.39123,0.32096 0,0.34449 -0.179916,0.75142 -0.438361,1.38561 -0.211279,0.5165 -0.399239,0.95497 -0.399239,1.08024 0,0.047 0.03143,0.10184 0.09398,0.10184 0.11744,0 0.462104,-0.2898 0.563704,-0.39934 0.0314,-0.0235 0.06279,-0.0156 0.08608,0.0156 l 0.05468,0.0627 c 0.0314,0.0313 0.03916,0.047 0.0081,0.0861 -0.09419,0.12524 -0.728133,0.68115 -1.252608,0.68115 -0.101847,0 -0.18796,-0.0393 -0.18796,-0.15667 0,-0.1487 0.281799,-0.76715 0.524475,-1.44032 0.109537,-0.3054 0.391512,-0.95501 0.391512,-1.12723 0,-0.10958 -0.05486,-0.18013 -0.195685,-0.18013 -0.3054,0 -1.080241,0.72016 -1.424764,1.27607 -0.140829,0.22697 -0.2661,0.43049 -0.469653,0.97839 l -0.195651,0.52451 c -0.01573,0.0314 -0.03129,0.0471 -0.109714,0.0471 h -0.305223"
         style="fill:#231f20;fill-opacity:1;fill-rule:evenodd;stroke:none;stroke-width:0.03527778"
         id="path4328"
         inkscape:connector-curvature="0" />
      <path
         d="m -18.492022,162.9922 c -0.06244,0 -0.07056,-0.0312 -0.06244,-0.0548 l 0.04692,-0.16443 c 0.0078,-0.0312 0.02328,-0.047 0.09384,-0.047 h 0.963083 c 0.109361,0 0.124883,0.0783 0.09384,0.14097 -0.117475,0.27397 -1.487311,3.93764 -1.620661,4.40712 -0.0702,0.24267 -0.07832,0.36008 0.0314,0.36008 0.132997,0 0.509058,-0.36008 0.547864,-0.40693 0.0314,-0.0236 0.06279,-0.0236 0.08643,0.008 l 0.07796,0.0783 c 0.02364,0.0156 0.02364,0.0468 0,0.0782 -0.05468,0.0704 -0.72778,0.69674 -1.142647,0.69674 -0.125236,0 -0.211667,-0.0393 -0.211667,-0.1801 0,-0.1567 0.172509,-0.6889 0.344664,-1.13509 l -0.06279,-0.0157 c -0.38347,0.61059 -1.119364,1.33089 -1.651706,1.33089 -0.265994,0 -0.500944,-0.1801 -0.500944,-0.51675 0,-0.61835 0.43815,-1.55004 1.080205,-2.18391 0.250825,-0.24282 0.70485,-0.63419 1.229078,-0.63419 0.211314,0 0.360186,0.10185 0.493184,0.25824 l 0.602897,-1.71426 c 0.05468,-0.14883 0.01552,-0.30526 -0.195792,-0.30526 h -0.242711"
         style="fill:#231f20;fill-opacity:1;fill-rule:evenodd;stroke:none;stroke-width:0.03527778"
         id="path4330"
         inkscape:connector-curvature="0" />
      <path
         d="m -19.415594,166.61661 c 0.219075,-0.29753 0.508705,-0.79075 0.508705,-1.09598 0,-0.36794 -0.164394,-0.5166 -0.414866,-0.5166 -0.735895,0 -1.565628,1.71439 -1.565628,2.43441 0,0.16443 0.117475,0.25054 0.227189,0.25054 0.328789,0 0.931333,-0.64188 1.2446,-1.07237"
         style="fill:#ffffff;fill-opacity:1;fill-rule:evenodd;stroke:none;stroke-width:0.03527778"
         id="path4332"
         inkscape:connector-curvature="0" />
      <path
         d="m -15.173088,165.25453 h -0.548217 c -0.04657,0 -0.06244,-0.0157 -0.04657,-0.0627 l 0.06244,-0.17226 c 0.01552,-0.0391 0.03916,-0.0548 0.08608,-0.0548 h 0.563386 l 0.407458,-0.90798 c 0.03881,-0.0783 0.06244,-0.094 0.124883,-0.11741 0.08608,-0.0234 0.289631,-0.1017 0.352426,-0.13299 0.04692,-0.0236 0.08608,-0.0471 0.117475,-0.0471 0.04692,0 0.06244,0.0471 0.0078,0.15671 l -0.51682,1.04881 h 0.798689 c 0.03916,0 0.05468,0.0236 0.0314,0.0863 l -0.07056,0.16425 c -0.0081,0.0236 -0.03916,0.0393 -0.07056,0.0393 h -0.798336 l -0.759531,1.76128 c -0.09384,0.21925 -0.179916,0.41494 -0.179916,0.50091 0,0.0862 0.0314,0.13314 0.101953,0.13314 0.226836,0 0.735541,-0.44623 0.782461,-0.50094 0.02364,-0.0313 0.04727,-0.0236 0.07055,0 l 0.08608,0.0939 c 0.02364,0.0235 0.02364,0.0393 0.0078,0.0705 -0.1016,0.1251 -0.829733,0.77499 -1.43263,0.77499 -0.195439,0 -0.25012,-0.0783 -0.25012,-0.18796 0,-0.11741 0.03916,-0.25051 0.08608,-0.36795 l 0.986367,-2.27789"
         style="fill:#231f20;fill-opacity:1;fill-rule:evenodd;stroke:none;stroke-width:0.03527778"
         id="path4334"
         inkscape:connector-curvature="0" />
      <path
         d="m -14.030441,168.01008 c -0.04692,0 -0.06279,-0.0236 -0.05503,-0.0393 l 1.792816,-4.43851 c 0.09419,-0.23481 0.1016,-0.32095 0.1016,-0.38364 0,-0.0938 -0.109361,-0.15643 -0.258233,-0.15643 h -0.242711 c -0.04692,0 -0.08608,-0.0236 -0.0702,-0.0705 l 0.03881,-0.1331 c 0.01588,-0.039 0.02364,-0.0626 0.08643,-0.0626 h 1.05657 c 0.06279,0 0.09419,0.0236 0.09419,0.094 0,0.0313 -0.02364,0.11744 -0.07056,0.23485 l -1.229078,2.88078 0.03916,0.0313 c 0.391231,-0.5559 0.90805,-1.21338 1.550106,-1.21338 0.359833,0 0.540103,0.29754 0.540103,0.65748 0,0.63415 -0.266348,1.30746 -0.540103,1.81624 -0.313267,0.58705 -0.735895,1.03325 -1.174397,1.03325 -0.226837,0 -0.399345,-0.1644 -0.399345,-0.33652 0,-0.18009 0.117475,-0.38364 0.28187,-0.38364 0.156633,0 0.258233,0.12527 0.274108,0.23481 0.0078,0.0704 0.04692,0.15656 0.132997,0.15656 0.172156,0 0.430389,-0.50878 0.579261,-0.90812 0.172156,-0.44609 0.313267,-1.04098 0.313267,-1.4169 0,-0.19568 -0.01588,-0.43822 -0.23495,-0.43822 -0.414867,0 -1.103842,0.81414 -1.315156,1.08024 -0.187677,0.23481 -0.359833,0.5322 -0.516466,0.90798 l -0.328789,0.79844 c -0.01587,0.047 -0.05503,0.055 -0.109714,0.055 h -0.33655"
         style="fill:#231f20;fill-opacity:1;fill-rule:evenodd;stroke:none;stroke-width:0.03527778"
         id="path4336"
         inkscape:connector-curvature="0" />
      <path
         d="m -10.431049,167.32104 c 0,-0.65758 0.430389,-1.47945 1.0018887,-2.04308 0.2504722,-0.25051 0.6734528,-0.52448 1.0491612,-0.52448 0.3051528,0 0.4462639,0.22698 0.4462639,0.41494 0,0.38351 -0.2899834,0.79058 -0.7281334,1.01752 -0.4226278,0.21142 -0.8456084,0.29753 -1.1352389,0.3211 -0.039158,0.0938 -0.1016001,0.3521 -0.1016001,0.72016 0,0.35221 0.2582334,0.49307 0.4071056,0.49307 0.3834695,0 0.7277806,-0.28952 0.8921751,-0.55576 0.015875,-0.0234 0.039511,-0.0392 0.070555,-0.008 l 0.086078,0.0706 c 0.039158,0.0236 0.039158,0.0468 0.00776,0.0704 -0.1954389,0.27397 -0.6653389,0.79072 -1.2682362,0.79072 -0.5087049,0 -0.7277799,-0.25051 -0.7277799,-0.76729"
         style="fill:#231f20;fill-opacity:1;fill-rule:evenodd;stroke:none;stroke-width:0.03527778"
         id="path4338"
         inkscape:connector-curvature="0" />
      <path
         d="m -9.7343131,166.27995 c 0.2741084,0.0234 1.2992806,-0.30526 1.2992806,-0.88459 0,-0.15653 -0.077964,-0.2975 -0.2504722,-0.2975 -0.5009445,0 -0.9863667,0.90026 -1.0488084,1.18209"
         style="fill:#ffffff;fill-opacity:1;fill-rule:evenodd;stroke:none;stroke-width:0.03527778"
         id="path4340"
         inkscape:connector-curvature="0" />
      <path
         d="m -6.2206462,167.36803 c 0,-1.06465 0.8688917,-2.61455 1.7772945,-2.61455 0.3675945,0 0.446264,0.29754 0.446264,0.43836 0,0.18782 -0.1802695,0.32879 -0.3210278,0.32879 -0.1019528,0 -0.1721556,-0.0549 -0.2039056,-0.17226 -0.023283,-0.0861 -0.1171222,-0.20352 -0.2423584,-0.20352 -0.1957916,0 -0.3993444,0.18796 -0.5715,0.54018 -0.2113139,0.45392 -0.33655,1.12723 -0.33655,1.36991 0,0.5715 0.1721556,0.64974 0.3129139,0.64974 0.3055056,0 0.6028973,-0.31309 0.688975,-0.42263 0.023636,-0.0313 0.046919,-0.047 0.070556,-0.0313 l 0.086078,0.0781 c 0.023636,0.0157 0.039158,0.0391 0.00776,0.0861 -0.1097139,0.16439 -0.6261806,0.67331 -1.1271251,0.67331 -0.2741083,0 -0.587375,-0.19569 -0.587375,-0.7203"
         style="fill:#231f20;fill-opacity:1;fill-rule:evenodd;stroke:none;stroke-width:0.03527778"
         id="path4342"
         inkscape:connector-curvature="0" />
      <path
         d="m -0.7511792,164.75348 c 0.0310445,0 0.0391583,0.0391 0.0232833,0.0704 -0.14851945,0.32095 -0.5478639,1.40134 -0.5870222,1.52647 -0.04692,0.1331 -0.3757084,1.1038 -0.3757084,1.17422 0,0.0705 0.039158,0.094 0.086078,0.094 0.093839,0 0.4931834,-0.40707 0.5478639,-0.47749 0.023636,-0.0234 0.04692,-0.0391 0.0627945,-0.0157 l 0.0702028,0.0783 c 0.0236361,0.0236 0.0313972,0.0392 0.015875,0.0627 -0.0860778,0.15656 -0.7672918,0.82201 -1.2135557,0.82201 -0.093839,0 -0.1640417,-0.0314 -0.1640417,-0.13325 0,-0.11726 0.077964,-0.35994 0.3753556,-1.18981 l -0.039158,-0.0157 c -0.3287889,0.50119 -1.119364,1.33876 -1.674989,1.33876 -0.1802695,0 -0.4226278,-0.1488 -0.4226278,-0.50105 0,-1.14293 1.2837584,-2.8338 2.2387279,-2.8338 0.3287889,0 0.4776612,0.14097 0.555625,0.2661 l 0.1488723,-0.21124 c 0.023636,-0.0313 0.046919,-0.0549 0.078317,-0.0549 h 0.27410844"
         style="fill:#231f20;fill-opacity:1;fill-rule:evenodd;stroke:none;stroke-width:0.03527778"
         id="path4344"
         inkscape:connector-curvature="0" />
      <path
         d="m -1.7375459,166.11552 c 0.1093611,-0.22694 0.1876778,-0.42262 0.1876778,-0.64974 0,-0.21125 -0.078317,-0.46175 -0.3679473,-0.46175 -0.7200195,0 -1.5578668,1.6517 -1.5578668,2.39543 0,0.17995 0.078317,0.27397 0.2116667,0.27397 0.3912306,0 1.3853584,-1.26824 1.5264696,-1.55791"
         style="fill:#ffffff;fill-opacity:1;fill-rule:evenodd;stroke:none;stroke-width:0.03527778"
         id="path4346"
         inkscape:connector-curvature="0" />
      <path
         d="m 1.0243515,163.48528 c 0.117475,-0.29739 0.1097139,-0.49308 -0.11712226,-0.49308 H 0.68004033 c -0.0546806,0 -0.0627944,-0.0312 -0.0469194,-0.0705 l 0.0469194,-0.14083 c 0.0155222,-0.047 0.0310445,-0.0549 0.0783167,-0.0549 H 1.7292015 c 0.070203,0 0.093839,0.047 0.070203,0.11741 l -1.62806952,4.14115 c -0.0705556,0.17999 -0.25823335,0.61062 -0.09419168,0.61062 0.12523612,0 0.48542226,-0.30536 0.57926115,-0.40707 0.0313972,-0.0314 0.0472722,-0.0236 0.0705556,0 l 0.0860778,0.094 c 0.015875,0.0156 0.0236361,0.0469 -0.007761,0.0781 -0.0391583,0.0627 -0.76729171,0.72814 -1.26823619,0.72814 -0.10160001,0 -0.17215557,-0.047 -0.17215557,-0.22709 0,-0.1174 0.19579168,-0.61048 0.28963058,-0.84543 l 1.36983623,-3.53053"
         style="fill:#231f20;fill-opacity:1;fill-rule:evenodd;stroke:none;stroke-width:0.03527778"
         id="path4348"
         inkscape:connector-curvature="0" />
      <path
         d="M 2.855621,163.48528 C 2.973096,163.18789 2.9649821,162.9922 2.738146,162.9922 H 2.5113099 c -0.055033,0 -0.062795,-0.0312 -0.04692,-0.0705 l 0.04692,-0.14083 c 0.015522,-0.047 0.031044,-0.0549 0.077964,-0.0549 h 0.9708445 c 0.070556,0 0.093839,0.047 0.070556,0.11741 l -1.6284224,4.14115 c -0.070203,0.17999 -0.2582333,0.61062 -0.093839,0.61062 0.1252362,0 0.4854223,-0.30536 0.5792612,-0.40707 0.031397,-0.0314 0.046919,-0.0236 0.070555,0 l 0.086078,0.094 c 0.015522,0.0156 0.023283,0.0469 -0.00811,0.0781 -0.038806,0.0627 -0.7669389,0.72814 -1.2678834,0.72814 -0.1019528,0 -0.1721555,-0.047 -0.1721555,-0.22709 0,-0.1174 0.1954389,-0.61048 0.2896305,-0.84543 l 1.3698362,-3.53053"
         style="fill:#231f20;fill-opacity:1;fill-rule:evenodd;stroke:none;stroke-width:0.03527778"
         id="path4350"
         inkscape:connector-curvature="0" />
    </g>
  </g>
</svg>
