<?xml version="1.0" encoding="UTF-8" standalone="no"?>
<svg xmlns:rdf="http://www.w3.org/1999/02/22-rdf-syntax-ns#" xmlns="http://www.w3.org/2000/svg" xml:space="preserve" height="114.66" viewBox="0 0 199.31802 114.658" width="199.32" version="1.1" xmlns:cc="http://creativecommons.org/ns#" xmlns:dc="http://purl.org/dc/elements/1.1/"><g transform="matrix(1.25 0 0 -1.25 -748.22 593.28)"><g transform="matrix(2.5648 0 0 2.5648 681.43 404.8)" stroke="#000" stroke-width=".61135"><path d="m0 0c-8.617 0-14.774 3.718-14.774 9.32s6.157 9.32 14.774 9.32c13.95 0 17.696-7.519 17.696-7.519h11.4s-8.152 15.463-29.096 15.463c-18.651 0-25.519-15.771-30.816-17.264 5.297-1.492 12.165-17.264 30.816-17.264 20.944 0 29.096 15.464 29.096 15.464h-11.4s-3.746-7.52-17.696-7.52" stroke="#000" stroke-width=".61135" fill="#800"/></g></g></svg>
