<?xml version="1.0" encoding="UTF-8" standalone="no"?>
<svg enable-background="new 0 0 468 648" height="150.89244" viewBox="0 0 250 150.89244" width="250" xmlns="http://www.w3.org/2000/svg">
   <g transform="matrix(1.7777778 0 0 1.7777778 -523.00001 -967.17779)">
      <path d="m362.662 583.332h4.218l5.308-5.301v-6.88l-9.525-7.765v-1.937h12.113v23.657h-12.113v-1.774zm-9.253-36.482l-5.251 5.25v7.129l8.572 6.975v10.014h5.932v-5.188l3.592 2.923v3.449h-12.163v-3.477h-5.933v4.107l5.251 5.301h3.321v7.696l18.669.01 5.305-5.304.003-24.97-5.308-5.246h-18.669v3.032l-2.64-2.152v-3.616h12.163v1.56h5.934v-2.24l-5.308-5.252h-13.47z" fill="#ac1e23"/>
      <path d="m324.518 600.631c0 .92.033 1.16.208 1.423.208.336.672.535 1.214.535.465 0 .854-.145 1.088-.407.207-.239.278-.552.278-1.237v-2.222c0-.6-.007-.703-.063-.784-.063-.087-.144-.104-.526-.104v-.19h1.533v.19c-.384 0-.464.017-.527.104-.057.081-.064.185-.064.784v2.222c0 .853-.095 1.253-.375 1.573-.312.358-.863.543-1.622.543-.743 0-1.278-.185-1.598-.551-.264-.305-.344-.672-.344-1.565v-2.222c0-.6-.008-.703-.063-.784-.063-.087-.145-.104-.528-.104v-.19h1.981v.19c-.383 0-.463.017-.527.104-.055.081-.063.185-.063.784v1.908z"/>
      <path d="m335.411 603.061l-3.029-3.747-.238-.296c-.057-.08-.104-.145-.295-.399v.192.303.303 2.479c0 .598.007.704.063.782.064.089.145.104.527.104v.192h-1.534v-.192c.383 0 .463-.016.527-.104.056-.078.063-.185.063-.782v-3.628l-.223-.265c-.128-.136-.185-.15-.464-.167v-.191h1.237l2.533 3.156c.168.199.296.358.384.472.072.087.097.112.207.255-.008-.487-.008-.766-.008-.847v-1.957c0-.6-.007-.703-.063-.784-.064-.087-.146-.104-.527-.104v-.191h1.533v.191c-.383 0-.462.017-.527.104-.056.081-.063.185-.063.784v4.338h-.103z"/>
      <path d="m340.343 601.894c0 .6.009.704.064.782.063.09.145.105.526.105v.191h-1.98v-.191c.385 0 .464-.016.527-.105.057-.078.063-.183.063-.782v-3.172c0-.599-.007-.703-.063-.783-.063-.088-.143-.103-.527-.103v-.192h1.98v.192c-.382 0-.463.015-.526.103-.056.08-.064.185-.064.783z"/>
      <path d="m346.066 603.125l-1.844-4.396c-.265-.623-.281-.662-.376-.759-.089-.08-.178-.112-.394-.135v-.192h1.935v.192c-.392.016-.543.08-.543.223 0 .072.071.279.215.632l1.056 2.572c.055.136.095.256.135.351.04.089.04.105.088.225.04-.088.097-.239.232-.575l1.015-2.572c.04-.104.079-.2.119-.296.072-.168.098-.247.098-.32 0-.176-.089-.216-.513-.238v-.192h1.462v.192c-.287.022-.358.048-.447.175-.071.104-.087.15-.335.719l-1.781 4.396h-.122z"/>
      <path d="m355.05 598.803l-.191.022c-.2-.727-.407-.854-1.406-.854h-.831v2.055h.768c.711 0 .822-.089.886-.713h.177v1.743h-.177c-.095-.671-.127-.705-.943-.705h-.71v2.295h1.126c.919 0 1.199-.184 1.486-.984l.177.025-.336 1.286h-3.843v-.191c.383 0 .462-.016.527-.104.055-.078.063-.184.063-.783v-3.171c0-.6-.009-.703-.063-.784-.065-.087-.145-.103-.527-.103v-.192h3.739z"/>
      <path d="m359.635 601.889c0 .599.007.704.064.783.063.088.145.103.526.103v.192h-1.98v-.192c.383 0 .464-.015.527-.103.057-.079.063-.185.063-.783v-3.172c0-.6-.007-.702-.063-.783-.063-.088-.145-.104-.527-.104v-.192h2.093c.672 0 1.103.12 1.431.384.287.239.447.599.447 1.03 0 .448-.16.824-.471 1.095-.208.192-.399.279-.792.384.137.112.191.176.487.56l.903 1.205c.313.4.398.448.79.479v.192h-1.198l-1.237-1.622c-.393-.52-.393-.52-.473-.56-.047-.031-.175-.048-.303-.048h-.288v1.152zm0-1.43c.151.015.232.022.36.022.847 0 1.367-.471 1.367-1.245 0-.814-.496-1.271-1.385-1.271h-.343v2.494z"/>
      <path d="m368.583 599.033c-.104-.367-.193-.543-.354-.728-.229-.255-.592-.407-.974-.407-.527 0-.872.295-.872.76 0 .336.191.56.734.855l.864.471c.784.424 1.087.839 1.087 1.479 0 .919-.72 1.598-1.71 1.598-.32 0-.431-.023-1.048-.226-.086-.022-.167-.037-.229-.037-.12 0-.185.037-.433.263v-1.902h.192c.223.943.742 1.432 1.535 1.432.592 0 1.013-.376 1.013-.896 0-.415-.199-.63-.959-1.046l-.718-.383c-.775-.424-1.047-.768-1.047-1.358 0-.792.639-1.351 1.524-1.351.201 0 .4.032.665.097.367.095.382.095.494.095.113 0 .224-.024.424-.095v1.381h-.188z"/>
      <path d="m373.37 601.894c0 .6.007.704.063.782.064.09.145.105.526.105v.191h-1.979v-.191c.384 0 .463-.016.526-.105.057-.078.063-.183.063-.782v-3.172c0-.599-.007-.703-.063-.783-.063-.088-.143-.103-.526-.103v-.192h1.979v.192c-.382 0-.462.015-.526.103-.057.08-.063.185-.063.783z"/>
      <path d="m379.212 601.894c0 .583.007.704.064.782.065.09.145.105.525.105v.191h-1.98v-.191c.384 0 .464-.016.529-.105.056-.078.063-.183.063-.782v-3.915c-1.263-.023-1.558.152-1.685 1.031h-.193l.064-1.366c.144.009.661.016 1.565.023h1.671c.111 0 .935-.015 1.191-.023l-.073 1.366h-.194c-.062-.941-.223-1.063-1.355-1.031h-.192z"/>
      <path d="m383.414 598.578c-.438-.654-.52-.72-.937-.743v-.19h2.063v.19c-.429.023-.484.04-.484.167 0 .098 0 .098.229.464l.735 1.159c.175.287.28.472.319.535.119-.191.137-.215.366-.583l.696-1.111c.175-.271.216-.366.216-.446 0-.153-.055-.168-.518-.185v-.19h1.548v.19c-.365.017-.383.031-.862.743l-1.237 1.87v1.445c0 .6.007.705.064.782.063.09.133.105.613.105v.192h-2.157v-.192c.471 0 .543-.016.615-.105.057-.077.063-.183.063-.782v-1.311z"/>
      <path d="m398.74 598.067c.688.503 1.056 1.278 1.056 2.245 0 1.606-1.101 2.748-2.66 2.748-1.55 0-2.662-1.142-2.662-2.74 0-1.638 1.097-2.765 2.687-2.765.574.001 1.134.184 1.579.512m-3.409 2.053c0 1.414.831 2.533 1.876 2.533 1.025 0 1.735-.91 1.735-2.229 0-.679-.17-1.277-.487-1.741-.335-.489-.777-.721-1.359-.721-1.039 0-1.765.889-1.765 2.158"/>
      <path d="m405.737 598.841l-.19.017c-.216-.759-.408-.887-1.312-.887h-.917v2.056h.767c.719 0 .823-.09.885-.714h.194v1.742h-.194c-.086-.671-.126-.704-.941-.704h-.71v1.543c0 .6.006.704.063.783.063.089.143.104.526.104v.191h-1.979v-.191c.382 0 .463-.016.524-.104.057-.079.065-.167.065-.783v-3.172c0-.615-.009-.703-.065-.784-.062-.086-.143-.102-.524-.102v-.192h3.763z"/>
      <path d="m314.62 609.521c-.19-.671-.351-.993-.643-1.328-.425-.47-1.082-.747-1.784-.747-.964 0-1.594.541-1.594 1.389 0 .612.352 1.023 1.346 1.564l1.579.862c1.432.774 1.986 1.534 1.986 2.705 0 1.679-1.314 2.922-3.128 2.922-.584 0-.789-.043-1.914-.409-.161-.043-.308-.073-.425-.073-.219 0-.335.073-.788.482v-3.478h.351c.408 1.724 1.359 2.617 2.807 2.617 1.081 0 1.856-.689 1.856-1.639 0-.761-.365-1.154-1.755-1.914l-1.314-.702c-1.418-.775-1.915-1.403-1.915-2.485 0-1.447 1.169-2.468 2.791-2.468.366 0 .731.057 1.214.174.672.174.701.174.906.174.205 0 .409-.042.773-.174v2.527h-.349z"/>
      <path d="m324.721 607.753c1.257.922 1.93 2.338 1.93 4.106 0 2.938-2.017 5.028-4.867 5.028-2.835 0-4.868-2.091-4.868-5.012 0-2.998 2.004-5.057 4.912-5.057 1.051.001 2.074.335 2.893.935m-6.242 3.756c0 2.588 1.521 4.633 3.436 4.633 1.871 0 3.171-1.665 3.171-4.077 0-1.243-.307-2.339-.892-3.187-.613-.892-1.418-1.314-2.485-1.314-1.899-.001-3.23 1.621-3.23 3.945"/>
      <path d="m330.496 612.445c0 1.681.058 2.118.38 2.602.38.613 1.227.98 2.222.98.847 0 1.563-.265 1.988-.747.378-.439.511-1.008.511-2.268v-4.062c0-1.097-.014-1.286-.116-1.433-.118-.161-.264-.188-.966-.188v-.352h2.806v.352c-.701 0-.847.026-.964.188-.102.146-.116.336-.116 1.433v4.062c0 1.566-.177 2.297-.687 2.881-.571.657-1.579.993-2.968.993-1.359 0-2.339-.336-2.923-1.007-.483-.556-.629-1.229-.629-2.867v-4.062c0-1.097-.016-1.286-.117-1.433-.117-.161-.264-.188-.965-.188v-.352h3.625v.352c-.701 0-.849.026-.965.188-.102.146-.116.336-.116 1.433z"/>
      <path d="m342.907 614.753c0 1.068.013 1.288.115 1.434.117.159.264.189.966.189v.351h-3.625v-.351c.7 0 .847-.03.964-.189.103-.146.117-.336.117-1.434v-7.16c-2.31-.045-2.851.276-3.085 1.884h-.35l.116-2.497c.264.014 1.215.027 2.865.041h3.055c.205 0 1.711-.027 2.178-.041l-.132 2.497h-.351c-.117-1.725-.408-1.943-2.485-1.884h-.349v7.16z"/>
      <path d="m349.631 612.022v2.73c0 1.097.015 1.288.117 1.434.116.158.263.189.964.189v.351h-3.625v-.351c.701 0 .848-.031.966-.189.101-.146.116-.337.116-1.434v-5.802c0-1.096-.016-1.286-.116-1.434-.118-.16-.265-.188-.966-.188v-.352h3.625v.352c-.701 0-.848.027-.964.188-.103.147-.117.338-.117 1.434v2.472h4.808v-2.472c0-1.096-.014-1.286-.116-1.434-.118-.16-.263-.188-.963-.188v-.352h3.623v.352c-.701 0-.848.027-.964.188-.104.147-.118.338-.118 1.434v5.802c0 1.097.015 1.288.118 1.434.116.158.263.189.964.189v.351h-3.623v-.351c.7 0 .845-.031.963-.189.103-.146.116-.337.116-1.434v-2.73z"/>
      <path d="m362.976 608.951c0-1.096-.013-1.286-.115-1.433-.118-.161-.266-.188-.966-.188v-.351h3.916c2.106 0 3.379.392 4.327 1.357.833.833 1.258 1.96 1.258 3.333 0 1.491-.496 2.734-1.462 3.654-1.037.98-2.323 1.403-4.312 1.403h-3.728v-.352c.7 0 .848-.031.966-.188.103-.147.115-.336.115-1.435v-5.8zm1.462 5.043c.029 1.65.029 1.681.102 1.886.061.189.396.263 1.184.263 1.565 0 2.618-.452 3.319-1.418.526-.715.789-1.682.789-2.79 0-1.551-.554-2.852-1.535-3.627-.73-.585-1.665-.849-2.938-.849-.306 0-.51.017-.92.045v6.49z"/>
      <path d="m374.392 613.41l-.612 1.606c-.235.584-.294.789-.294.964 0 .25.177.336.833.396v.351h-2.47v-.351c.644-.06.745-.189 1.287-1.578l3.274-8.2h.233l3.231 7.908c.511 1.184.628 1.432.774 1.593.146.16.278.218.673.277v.351h-3.244v-.351c.568 0 .742-.088.742-.379 0-.161-.014-.221-.218-.746l-.716-1.841zm1.741-4.431l-1.507 3.829h3.026z"/>
      <path d="m384.875 614.753c0 1.097.014 1.288.115 1.434.118.158.265.189.966.189v.351h-3.625v-.351c.702 0 .847-.031.965-.189.102-.146.115-.337.115-1.434v-5.802c0-1.096-.014-1.286-.115-1.434-.118-.16-.263-.188-.965-.188v-.35h3.625v.35c-.701 0-.848.027-.966.188-.102.147-.115.338-.115 1.434zm5.086.439c.906.979 1.228 1.184 1.812 1.184v.351h-3.901v-.351c.803-.015 1.008-.059 1.008-.248 0-.131-.029-.16-.584-.774l-3.362-3.757 2.837-2.85c.641-.658.861-.938.861-1.097 0-.248-.146-.308-.861-.32v-.35h3.215v.35c-.806.072-1.068.218-2.192 1.24l-2.604 2.471z"/>
      <path d="m399.532 607.753c1.256.922 1.93 2.338 1.93 4.106 0 2.938-2.018 5.028-4.867 5.028-2.837 0-4.867-2.091-4.867-5.012 0-2.998 2.001-5.057 4.91-5.057 1.051.001 2.074.335 2.894.935m-6.243 3.756c0 2.588 1.523 4.633 3.437 4.633 1.87 0 3.173-1.665 3.173-4.077 0-1.243-.307-2.339-.893-3.187-.614-.892-1.421-1.314-2.485-1.314-1.902-.001-3.232 1.621-3.232 3.945"/>
      <path d="m407.263 614.753c0 1.068.013 1.288.115 1.434.117.159.264.189.966.189v.351h-3.628v-.351c.703 0 .851-.03.967-.189.102-.146.118-.336.118-1.434v-7.16c-2.311-.045-2.851.276-3.085 1.884h-.352l.118-2.497c.261.014 1.211.027 2.863.041h3.056c.205 0 1.71-.027 2.176-.041l-.13 2.497h-.349c-.12-1.725-.411-1.943-2.487-1.884h-.349v7.16z"/>
      <path d="m412.683 613.41l-.614 1.606c-.236.584-.292.789-.292.964 0 .25.173.336.833.396v.351h-2.471v-.351c.644-.06.743-.189 1.286-1.578l3.273-8.2h.235l3.229 7.908c.513 1.184.628 1.432.775 1.593.146.16.277.218.672.277v.351h-3.244v-.351c.571 0 .746-.088.746-.379 0-.161-.015-.221-.221-.746l-.716-1.841zm1.737-4.431l-1.504 3.829h3.027z"/>
      <path d="m297.177 624.274c.111.752.707 1.474 1.502 1.474.531 0 1.135-.316 1.135-.929 0-.508-.265-.751-1.135-1.208-1.34-.707-1.627-.993-1.627-1.687 0-.884.751-1.303 1.474-1.303.251 0 .479.058.67.116.198.06.354.119.457.119.19 0 .33-.066.448-.147-.015.221-.021.449-.021.678 0 .22.007.449.021.67h-.177c-.11-.647-.662-1.171-1.311-1.171-.611 0-.987.382-.987.795 0 .361.214.656 1.422 1.26.737.368 1.341.736 1.341 1.644 0 .891-.767 1.517-1.621 1.517-.589 0-1.155-.236-1.385-.236-.162 0-.28.127-.383.236.015-.309.015-.612.015-.914 0-.302 0-.61-.015-.913h.177z"/>
      <path d="m301.187 625.836c.368 0 .465-.228.691-.772l1.857-4.457c.021-.053.037-.088.073-.088.029 0 .052.029.074.088l1.856 4.604c.199.479.316.626.618.626v.177c-.294-.021-.59-.036-.892-.036-.288 0-.574.015-.861.036v-.177c.154 0 .42 0 .42-.184 0-.111-.066-.273-.118-.405l-.391-1.009h-1.937l-.42 1.031c-.06.14-.089.242-.089.309 0 .25.258.258.457.258v.177c-.243-.021-.486-.036-.73-.036-.205 0-.404.015-.61.036v-.178zm2.386-4.044l-.884 2.181h1.724z"/>
      <path d="m307.959 621.284l-.221-.243c-.104-.111-.155-.154-.288-.154h-.169v-.178c.206.015.405.037.612.037.205 0 .411-.022.617-.037l3.14 3.897h.014v-3.309c0-.271-.051-.411-.398-.411h-.205v-.178c.258.023.516.037.759.037.243 0 .501-.014.759-.037v.178h-.207c-.345 0-.397.14-.397.411v4.582c0 .142 0 .223-.036.223-.037 0-.081-.046-.317-.34l-3.337-4.109h-.014v3.771c0 .272.051.412.396.412h.206v.177c-.258-.021-.515-.036-.758-.036-.243 0-.501.015-.759.036v-.177h.207c.345 0 .396-.14.396-.412z"/>
      <path d="m313.693 625.837h.177c.332 0 .412-.074.412-.457v-4.036c0-.384-.08-.457-.412-.457h-.177v-.177c.655.021 1.304.036 1.945.036.67 0 1.554-.015 1.752-.036 0 .397.038.81.089 1.208h-.176c-.141-.885-.649-.899-1.577-.899-.287 0-.515.008-.692.021v2.138h.885c.529 0 .67-.126.735-.473l.044-.229h.177c-.021.215-.028.494-.028.789 0 .28.007.56.028.832h-.177c-.051-.641-.338-.655-.965-.655h-.699v1.938c0 .383.081.457.412.457h.177v.176c-.332-.021-.678-.036-.936-.036-.316 0-.662.015-.994.036z"/>
      <path d="m318.458 623.361c0-1.518 1.105-2.74 2.637-2.74 1.532 0 2.638 1.223 2.638 2.74 0 1.621-1.098 2.74-2.638 2.74-1.538.001-2.637-1.119-2.637-2.74m4.464-.095c0-1.002-.538-2.38-1.952-2.38-.671 0-1.701.642-1.701 2.255 0 1.186.766 2.563 2.032 2.563.826 0 1.621-.583 1.621-2.438"/>
      <path d="m324.821 625.837h.177c.332 0 .413-.074.413-.457v-4.037c0-.383-.081-.457-.413-.457h-.177v-.176c.332.021.678.036.995.036.449 0 .788-.036 1.127-.036.965 0 1.842.302 1.842 1.442 0 .686-.435 1.261-1.319 1.444.118.096.273.236.436.442l1.053 1.362c.294.384.442.413.737.436v.176c-.199-.021-.398-.036-.604-.036-.199 0-.397.016-.59.036l-1.436-1.871c-.273-.354-.287-.396-.899-.396v1.635c0 .383.081.457.413.457h.177v.176c-.332-.021-.678-.036-.936-.036-.317 0-.663.016-.995.036v-.176zm1.341-2.328c.096.007.221.014.346.014 1.268 0 1.467-.758 1.467-1.229 0-.647-.162-1.318-1.539-1.318-.236 0-.273.015-.273.177v2.356z"/>
      <path d="m330.71 625.837h.177c.332 0 .413-.075.413-.458v-4.036c0-.384-.081-.457-.413-.457h-.177v-.177c.465.023.693.037 1.105.037.441 0 .854-.037 1.245-.037 1.649 0 2.858.914 2.858 2.622 0 1.518-1.061 2.682-3.095 2.682-.323 0-.648-.036-.957-.036-.368 0-.774.015-1.157.036v-.176zm1.341-.472c0 .339.243.383.649.383 1.112 0 2.364-.383 2.364-2.284 0-.979-.376-2.488-2.594-2.488-.367 0-.42.072-.42.205v4.184z"/>
      <path d="m340.041 624.274c.111.752.707 1.474 1.502 1.474.531 0 1.136-.316 1.136-.929 0-.508-.266-.751-1.136-1.208-1.34-.707-1.627-.993-1.627-1.687 0-.884.751-1.303 1.474-1.303.25 0 .479.058.67.116.198.06.354.119.457.119.19 0 .331-.066.448-.147-.015.221-.021.449-.021.678 0 .22.007.449.021.67h-.177c-.109-.647-.662-1.171-1.311-1.171-.611 0-.987.382-.987.795 0 .361.214.656 1.422 1.26.737.368 1.341.736 1.341 1.644 0 .891-.767 1.517-1.621 1.517-.589 0-1.156-.236-1.385-.236-.162 0-.28.127-.383.236.015-.309.015-.612.015-.914 0-.302 0-.61-.015-.913h.177z"/>
      <path d="m348.655 622.507c-.111-.803-.715-1.621-1.496-1.621-.973 0-1.826.642-1.826 2.307 0 1.554 1.031 2.468 1.93 2.468.678 0 1.333-.413 1.599-.893l.177.074c-.412.737-1.15 1.26-2.085 1.26-1.333 0-2.432-1.098-2.432-2.527 0-1.87 1.105-2.953 2.453-2.953.259 0 .479.037.687.082.323.08.574.176.743.176.147 0 .279-.021.361-.052 0 .066-.022.132-.022.251 0 .206.03 1.023.089 1.429h-.178z"/>
      <path d="m351.361 623.442v1.937c0 .383.081.457.413.457h.176v.177c-.331-.021-.677-.036-.964-.036-.288 0-.634.015-.966.036v-.177h.177c.332 0 .413-.074.413-.457v-4.036c0-.384-.081-.457-.413-.457h-.177v-.177c.332.023.678.037.966.037.287 0 .633-.014.964-.037v.177h-.176c-.332 0-.413.073-.413.457v1.834h2.71v-1.834c0-.384-.08-.457-.412-.457h-.177v-.177c.332.023.678.037.965.037.288 0 .634-.014.966-.037v.177h-.177c-.332 0-.413.073-.413.457v4.036c0 .383.081.457.413.457h.177v.177c-.332-.021-.678-.036-.966-.036-.287 0-.633.015-.965.036v-.177h.177c.332 0 .412-.074.412-.457v-1.937z"/>
      <path d="m356.476 623.361c0-1.518 1.105-2.74 2.638-2.74 1.531 0 2.637 1.223 2.637 2.74 0 1.621-1.097 2.74-2.637 2.74-1.54.001-2.638-1.119-2.638-2.74m4.464-.095c0-1.002-.538-2.38-1.952-2.38-.671 0-1.702.642-1.702 2.255 0 1.186.767 2.563 2.033 2.563.826 0 1.621-.583 1.621-2.438"/>
      <path d="m363.043 623.361c0-1.518 1.104-2.74 2.637-2.74 1.533 0 2.637 1.223 2.637 2.74 0 1.621-1.097 2.74-2.637 2.74-1.539.001-2.637-1.119-2.637-2.74m4.464-.095c0-1.002-.537-2.38-1.952-2.38-.67 0-1.701.642-1.701 2.255 0 1.186.766 2.563 2.033 2.563.825 0 1.62-.583 1.62-2.438"/>
      <path d="m369.429 625.837h.177c.331 0 .412-.074.412-.457v-4.036c0-.384-.081-.457-.412-.457h-.177v-.177c.331.021.679.036.994.036.258 0 .605-.015.937-.036v.177h-.178c-.332 0-.412.073-.412.457v4.22c0 .11.022.14.191.14h.958c.729 0 1.156-.095 1.465-1.111h.186c-.067.206-.332 1.297-.332 1.421-.537-.021-1.091-.036-1.606-.036-.67 0-1.51.015-2.202.036v-.177z"/>
      <path d="m377.263 623.361c0-1.518 1.105-2.74 2.638-2.74 1.533 0 2.638 1.223 2.638 2.74 0 1.621-1.098 2.74-2.638 2.74-1.54 0-2.638-1.119-2.638-2.74m4.465-.095c0-1.002-.538-2.38-1.953-2.38-.67 0-1.7.642-1.7 2.255 0 1.186.766 2.563 2.032 2.563.825 0 1.621-.583 1.621-2.438"/>
      <path d="m383.601 625.837h.178c.331 0 .412-.074.412-.457v-4.036c0-.384-.081-.457-.412-.457h-.178v-.177c.655.021 1.305.036 1.945.036.67 0 1.554-.015 1.752-.036 0 .397.038.81.089 1.208h-.176c-.141-.885-.649-.899-1.576-.899-.288 0-.516.008-.693.021v2.138h.885c.529 0 .67-.126.735-.473l.044-.229h.178c-.022.215-.029.494-.029.789 0 .28.007.56.029.832h-.178c-.051-.641-.338-.655-.965-.655h-.699v1.938c0 .383.08.457.412.457h.178v.176c-.332-.021-.679-.036-.937-.036-.315 0-.662.015-.994.036z"/>
      <path d="m390.794 625.837h.206c.317 0 .405-.097.412-.34l.096-4.066c.009-.397-.014-.544-.603-.544v-.177c.235.021.471.036.714.036.236 0 .471-.015.686-.036.597 1.378 1.186 2.688 1.693 4.11h.016c.508-1.437 1.09-2.741 1.642-4.11.236.021.465.036.693.036.235 0 .464-.015.691-.036v.177c-.522 0-.597.036-.597.596 0 .184.008.376.008.561l.06 3.389c.007.396.271.405.618.405v.176c-.324-.021-.664-.036-.986-.036-.398 0-.568.015-.98.036v-.176c.545 0 .598-.097.598-.457l-.023-4.052h-.014l-1.797 4.435c-.053.133-.104.25-.134.25-.044 0-.11-.191-.228-.472l-1.746-4.213h-.015l-.029 4.272c0 .236.338.236.618.236v.176c-.287-.021-.567-.036-.848-.036-.25 0-.501.015-.751.036z"/>
      <path d="m399.604 623.177h.884c.53 0 .672-.125.737-.472l.044-.228h.177c-.021.214-.029.493-.029.787 0 .281.008.562.029.833h-.177c-.052-.641-.339-.655-.965-.655h-.7v1.908c0 .205 0 .354.287.354h.892c.729 0 1.156-.096 1.467-.987h.183c-.065.206-.331 1.171-.331 1.296-.538-.021-1.09-.036-1.635-.036-.671 0-1.511.015-2.203.036v-.177h.177c.332 0 .412-.073.412-.457v-4.036c0-.383-.08-.456-.412-.456h-.177v-.178c.656.023 1.304.037 1.916.037.699 0 1.584-.014 1.782-.037 0 .398.037.812.089 1.208h-.177c-.141-.884-.648-.897-1.576-.897-.288 0-.517.007-.693.021v2.136z"/>
      <path d="m403.471 625.837h.177c.332 0 .412-.075.412-.458v-4.036c0-.384-.08-.457-.412-.457h-.177v-.177c.465.023.691.037 1.104.037.442 0 .855-.037 1.245-.037 1.65 0 2.859.914 2.859 2.622 0 1.518-1.063 2.682-3.094 2.682-.325 0-.649-.036-.958-.036-.369 0-.774.015-1.157.036v-.176zm1.341-.472c0 .339.243.383.649.383 1.11 0 2.363-.383 2.363-2.284 0-.979-.376-2.488-2.593-2.488-.368 0-.42.072-.42.205v4.184z"/>
      <path d="m410.353 621.343c0-.383-.081-.456-.412-.456h-.177v-.177c.331.021.679.036.994.036.258 0 .605-.015.937-.036v.177h-.178c-.332 0-.411.073-.411.456v4.036c0 .384.079.457.411.457h.178v.177c-.331-.021-.679-.037-.937-.037-.315 0-.663.016-.994.037v-.177h.177c.331 0 .412-.073.412-.457z"/>
      <path d="m416.925 622.507c-.111-.803-.715-1.621-1.496-1.621-.973 0-1.826.642-1.826 2.307 0 1.554 1.031 2.468 1.93 2.468.678 0 1.333-.413 1.599-.893l.177.074c-.412.737-1.149 1.26-2.085 1.26-1.333 0-2.432-1.098-2.432-2.527 0-1.87 1.105-2.953 2.454-2.953.258 0 .479.037.686.082.322.08.573.176.743.176.147 0 .279-.021.361-.052 0 .066-.022.132-.022.251 0 .206.028 1.023.089 1.429h-.178z"/>
      <path d="m418.928 621.343c0-.383-.081-.456-.413-.456h-.176v-.177c.331.021.678.036.994.036.258 0 .604-.015.936-.036v.177h-.176c-.332 0-.413.073-.413.456v4.036c0 .384.081.457.413.457h.176v.177c-.331-.021-.678-.037-.936-.037-.316 0-.663.016-.994.037v-.177h.176c.332 0 .413-.073.413-.457z"/>
      <path d="m422.097 621.284l-.222-.243c-.103-.111-.153-.154-.287-.154h-.169v-.178c.205.015.405.037.611.037.207 0 .412-.022.619-.037l3.138 3.897h.015v-3.309c0-.271-.052-.411-.397-.411h-.206v-.178c.258.023.517.037.758.037.243 0 .501-.014.76-.037v.178h-.206c-.347 0-.398.14-.398.411v4.582c0 .142 0 .223-.037.223-.037 0-.081-.046-.316-.34l-3.338-4.109h-.014v3.771c0 .272.051.412.398.412h.205v.177c-.258-.021-.516-.036-.759-.036-.242 0-.501.015-.759.036v-.177h.207c.346 0 .397-.14.397-.412z"/>
      <path d="m429.172 623.177h.884c.53 0 .671-.125.737-.472l.044-.228h.176c-.021.214-.029.493-.029.787 0 .281.008.562.029.833h-.176c-.052-.641-.339-.655-.965-.655h-.7v1.908c0 .205 0 .354.287.354h.892c.729 0 1.156-.096 1.466-.987h.183c-.065.206-.331 1.171-.331 1.296-.538-.021-1.09-.036-1.636-.036-.67 0-1.511.015-2.202.036v-.177h.177c.332 0 .413-.073.413-.457v-4.036c0-.383-.081-.456-.413-.456h-.177v-.178c.655.023 1.304.037 1.916.037.698 0 1.584-.014 1.781-.037 0 .398.037.812.089 1.208h-.177c-.14-.884-.647-.897-1.576-.897-.287 0-.516.007-.692.021z"/>
   </g>
</svg>
