<?xml version="1.0" encoding="utf-8"?>
<!-- Generator: Adobe Illustrator 22.0.1, SVG Export Plug-In . SVG Version: 6.00 Build 0)  -->
<svg version="1.1" id="Layer_1" xmlns="http://www.w3.org/2000/svg" xmlns:xlink="http://www.w3.org/1999/xlink" x="0px" y="0px"
	 width="250.1px" height="46.41px" viewBox="0 0 250.1 46.41" enable-background="new 0 0 250.1 46.41" xml:space="preserve">
<g>
	<path fill="#75787B" d="M61.39,13.72c0,1.77-1.14,2.67-2.71,2.67h-2.17c-1.56,0-2.71-0.91-2.71-2.67V6.84
		c0-1.77,1.15-2.67,2.71-2.67h2.17c1.57,0,2.71,0.91,2.71,2.67V7.9h-2.84V5.98h-1.91v8.6h1.91v-1.92h2.84V13.72z M70.26,16.39h-2.84
		V14.6l-1.18,1.79h-0.86c-1.56,0-2.71-0.91-2.71-2.67v-0.65c0-1.77,1.15-2.67,2.72-2.67h2.03V8.02h-1.85v1.24h-2.62V8.88
		c0-1.77,1.15-2.67,2.71-2.67h1.88c1.57,0,2.71,0.91,2.71,2.67V16.39z M67.42,14.58v-2.37h-1.91v2.37H67.42z M76.22,16.39h-1.55
		c-1.56,0-2.71-0.91-2.71-2.67V2.64h2.84v11.94h1.42V16.39z M80.2,4.69h-2.84V2.64h2.84V4.69z M80.2,16.39h-2.84V6.21h2.84V16.39z
		 M86.76,8.06h-1.61v8.33h-2.84V8.06h-1.14V6.34h1.14V5.32c0-1.77,1.15-2.67,2.71-2.67h1.75v1.72h-1.61v1.98h1.61V8.06z M95.2,13.72
		c0,1.77-1.14,2.67-2.71,2.67h-2.17c-1.56,0-2.71-0.91-2.71-2.67V8.88c0-1.77,1.15-2.67,2.71-2.67h2.17c1.57,0,2.71,0.91,2.71,2.67
		V13.72z M92.36,14.58V8.02h-1.91v6.56H92.36z M102.07,8.75h-2.32v7.64H96.9V6.21h2.84v1.81l1.19-1.81h1.14V8.75z M110.51,16.39
		h-2.84V8.02h-1.91v8.37h-2.84V6.21h2.84v1.8l1.18-1.8h0.86c1.57,0,2.71,0.91,2.71,2.67V16.39z M115.05,4.69h-2.84V2.64h2.84V4.69z
		 M115.05,16.39h-2.84V6.21h2.84V16.39z M124.34,16.39h-2.84V14.6l-1.18,1.79h-0.86c-1.56,0-2.71-0.91-2.71-2.67v-0.65
		c0-1.77,1.15-2.67,2.72-2.67h2.02V8.02h-1.85v1.24h-2.62V8.88c0-1.77,1.15-2.67,2.71-2.67h1.88c1.57,0,2.71,0.91,2.71,2.67V16.39z
		 M121.5,14.58v-2.37h-1.91v2.37H121.5z M137.99,13.67c0,1.77-1.14,2.67-2.71,2.67h-2.17c-1.56,0-2.71-0.91-2.71-2.67v-0.72h2.84
		v1.58h1.91v-3.07h-2.04c-1.56,0-2.71-0.9-2.71-2.68V6.79c0-1.77,1.15-2.67,2.71-2.67h2.17c1.57,0,2.71,0.91,2.71,2.67v0.73h-2.84
		V5.93h-1.91V9h2.04c1.57,0,2.71,0.91,2.71,2.68V13.67z M144.53,16.34h-1.73c-1.56,0-2.71-0.91-2.71-2.67V8.01h-1.14V6.29h1.14V4.12
		h2.84v2.18h1.6v1.72h-1.6v6.61h1.6V16.34z M153.26,16.34h-2.84v-1.79l-1.17,1.79h-0.86c-1.56,0-2.71-0.91-2.71-2.67v-0.65
		c0-1.77,1.15-2.67,2.72-2.67h2.03V7.97h-1.85v1.24h-2.62V8.83c0-1.77,1.15-2.67,2.71-2.67h1.88c1.57,0,2.71,0.91,2.71,2.67V16.34z
		 M150.42,14.53v-2.37h-1.91v2.37H150.42z M159.81,16.34h-1.73c-1.56,0-2.71-0.91-2.71-2.67V8.01h-1.14V6.29h1.14V4.12h2.84v2.18
		h1.6v1.72h-1.6l0,6.61h1.6V16.34z M168.54,13.67c0,1.77-1.14,2.67-2.71,2.67h-2.17c-1.56,0-2.71-0.91-2.71-2.67V8.83
		c0-1.77,1.15-2.67,2.71-2.67h2.17c1.57,0,2.71,0.91,2.71,2.67v3.32h-4.75v2.37h1.91V13.3h2.84V13.67z M165.7,10.35V7.97h-1.91v2.37
		H165.7z M181.82,13.58c0,1.74-1.12,2.64-2.68,2.64h-2.14c-1.54,0-2.68-0.89-2.68-2.64V4.15h2.81v10.28h1.89V4.15h2.8V13.58z
		 M191.15,16.22h-2.81V7.95h-1.88v8.26h-2.81V6.17h2.81v1.77l1.17-1.77h0.84c1.55,0,2.68,0.89,2.68,2.64V16.22z M195.78,4.66h-2.81
		V2.64h2.81V4.66z M195.78,16.22h-2.81V6.17h2.81V16.22z M205.1,12.2l-2.62,4.02h-2.26l-2.62-4.02V6.17h2.81v6.17l0.95,1.44
		l0.93-1.44V6.17h2.81V12.2z M214.43,13.58c0,1.74-1.13,2.64-2.68,2.64h-2.14c-1.54,0-2.68-0.89-2.68-2.64V8.8
		c0-1.74,1.14-2.64,2.68-2.64h2.14c1.55,0,2.68,0.89,2.68,2.64v3.28h-4.69v2.34h1.88v-1.22h2.81V13.58z M211.62,10.3V7.95h-1.88
		v2.34H211.62z M221.35,8.67h-2.29v7.55h-2.8V6.17h2.8v1.79l1.17-1.79h1.12V8.67z M229.84,13.58c0,1.74-1.13,2.64-2.68,2.64h-2.14
		c-1.54,0-2.68-0.89-2.68-2.64v-0.37h2.81v1.22h1.88V12.4h-2.01c-1.54,0-2.68-0.89-2.68-2.64V8.8c0-1.74,1.14-2.64,2.68-2.64h2.14
		c1.55,0,2.68,0.89,2.68,2.64v0.37h-2.81V7.95h-1.88v2.02h2.01c1.55,0,2.68,0.89,2.68,2.64V13.58z M234.47,4.66h-2.81V2.64h2.81
		V4.66z M234.47,16.22h-2.81V6.17h2.81V16.22z M241.09,16.22h-1.71c-1.54,0-2.68-0.89-2.68-2.64V7.99h-1.13V6.3h1.13V4.15h2.81V6.3
		h1.58v1.7h-1.58v6.53h1.58V16.22z M249.86,17.09c0,1.76-1.13,2.65-2.69,2.65h-3.67v-1.79h3.55v-3.5l-1.16,1.77h-0.85
		c-1.54,0-2.68-0.89-2.68-2.64V6.17h2.8v8.26h1.89V6.17h2.8V17.09z M67.16,38.35c0,3.13-2.03,4.73-4.83,4.73h-8.68V21.43h8.68
		c2.79,0,4.83,1.6,4.83,4.73V38.35z M62.11,39.87V24.64h-3.39v15.23H62.11z M82.95,38.35c0,3.13-2.03,4.73-4.83,4.73h-3.86
		c-2.77,0-4.83-1.6-4.83-4.73V26.16c0-3.13,2.05-4.73,4.83-4.73h3.86c2.79,0,4.83,1.6,4.83,4.73V38.35z M77.89,39.87V24.64h-3.39
		v15.23H77.89z M107.18,43.08h-5.06V28.64l-1.08-2.66l-2.31,3.71v13.39h-5.06V29.69l-2.31-3.71l-1.08,2.66v14.44h-5.06V28.64
		l2.64-7.21h5.06l3.27,5.16l3.29-5.16h5.06l2.64,7.21V43.08z M114.51,43.08h-5.06V21.43h5.06V43.08z M130.3,43.08h-5.06v-8.23
		l-3.39-5.18v13.41h-5.06V21.43h5.06v2.01l3.39,5.17v-7.18h5.06V43.08z M146.08,43.08h-8.68c-2.77,0-4.83-1.6-4.83-4.73V26.16
		c0-3.13,2.05-4.73,4.83-4.73h3.86c2.79,0,4.83,1.6,4.83,4.73v1.88h-5.06v-3.4h-3.39v15.23h3.39v-4.2h-1.54v-3.21h6.6V43.08z
		 M161.86,38.35c0,3.13-2.03,4.73-4.83,4.73h-3.86c-2.77,0-4.83-1.6-4.83-4.73V21.43h5.06v18.44h3.39V21.43h5.06V38.35z
		 M173.25,43.08h-4.29c-2.78,0-4.83-1.6-4.83-4.73V26.16c0-3.13,2.05-4.73,4.83-4.73h4.29v3.21h-4.06v6.01h4.06v3.21h-4.06v6.01
		h4.06V43.08z M184.62,43.08h-10.39v-3.21l5.37-15.23h-5.37v-3.21h10.39v3.21l-5.35,15.23h5.35V43.08z M207.19,43.08h-5.06v-9.22
		h-3.39v9.22h-5.06V21.43h5.06v9.22h3.39v-9.22h5.06V43.08z M214.52,43.08h-5.06V21.43h5.06V43.08z M225.91,43.08h-4.29
		c-2.77,0-4.83-1.6-4.83-4.73V21.43h5.06v18.44h4.06V43.08z M235.78,43.08h-4.29c-2.77,0-4.83-1.6-4.83-4.73V21.43h5.06v18.44h4.06
		V43.08z M250.05,38.35c0,3.13-2.03,4.73-4.83,4.73h-3.86c-2.77,0-4.83-1.6-4.83-4.73v-1.28h5.06v2.8h3.4v-5.44h-3.63
		c-2.77,0-4.83-1.59-4.83-4.74v-3.53c0-3.13,2.05-4.73,4.83-4.73h3.86c2.79,0,4.83,1.6,4.83,4.73v1.29h-5.06v-2.81h-3.4v5.44h3.63
		c2.79,0,4.83,1.61,4.83,4.74V38.35z"/>
	<path fill-rule="evenodd" clip-rule="evenodd" fill="#860038" d="M6.71,39.61c-4.26-4.35-6.66-10.25-6.66-16.4S2.44,11.15,6.71,6.8
		c4.15-4.24,9.74-6.67,15.6-6.79V46.4C16.45,46.28,10.86,43.85,6.71,39.61L6.71,39.61z M38.84,6.8c4.26,4.35,6.66,10.25,6.66,16.4
		s-2.39,12.05-6.66,16.4c-4.12,4.21-9.67,6.63-15.48,6.79v-9.71c4.47-0.11,8.72-1.98,11.89-5.21c3.27-3.34,5.11-7.87,5.11-12.59
		c0-4.72-1.84-9.25-5.11-12.59c-3.17-3.23-7.43-5.09-11.89-5.21V0.01C29.18,0.17,34.72,2.59,38.84,6.8L38.84,6.8z M30.74,7.64
		c2.08,2.12,3.25,5.01,3.25,8.01c0,3.01-1.17,5.89-3.25,8.01c-1.97,2.01-4.6,3.19-7.38,3.31v-5.4c1.95-0.1,3.81-0.94,5.19-2.36
		c1.49-1.52,2.32-3.58,2.32-5.72c0-2.15-0.84-4.2-2.32-5.72c-1.39-1.42-3.24-2.26-5.19-2.36V4.33C26.13,4.45,28.77,5.63,30.74,7.64
		L30.74,7.64z M34.51,7.06c3.07,3.14,4.8,7.39,4.8,11.83c0,4.44-1.72,8.69-4.8,11.83c-2.97,3.03-6.96,4.78-11.14,4.89v-7.56
		c3.03-0.13,5.91-1.42,8.07-3.62c2.28-2.33,3.56-5.48,3.56-8.78c0-3.29-1.28-6.45-3.56-8.77c-2.16-2.2-5.04-3.49-8.07-3.62V2.17
		C27.55,2.28,31.54,4.03,34.51,7.06L34.51,7.06z"/>
</g>
</svg>
