<?xml version="1.0" encoding="UTF-8" standalone="no"?>
<svg xmlns:rdf="http://www.w3.org/1999/02/22-rdf-syntax-ns#" xmlns="http://www.w3.org/2000/svg" xml:space="preserve" height="249.43" viewBox="0 0 244 249.42802" width="244" version="1.1" xmlns:cc="http://creativecommons.org/ns#" xmlns:dc="http://purl.org/dc/elements/1.1/"><g transform="matrix(1.25 0 0 -1.25 -16.157 688.18)"><g><path d="m0.90625 1.0938v45.74h17.039l12.262 30.033h58.365l-12.662-30.033h17.352v-45.74l-92.356-0.0002zm149.64 0v45.74h17.36l-12.66 30.037h58.36l12.26-30.037h17.04v-45.74l-92.36-0.0002zm-95.392 135.66l46.572 111.77h40.36l46.57-111.77h-59.02l-7.73 17.47-7.73-17.47h-59.022z" transform="matrix(.8 0 0 -.8 12.926 550.54)" fill="#f84c1e"/><path d="m110.41 85.943c-10.877 0-18.976 8.547-19.053 20.677-0.077 13 8.302 21.02 18.563 21.05 7.71 0.03 10.59-1.51 14.99-5.49v-17.24h-9.32l-0.04 12.12c-1.42 0.91-2.41 1.06-5.01 1.01-5.57-0.1-9.72-4.14-9.72-11.69 0-7.564 6.01-10.723 10.95-10.958 3.89-0.187 6.9 1.437 10.2 3.59l3.69-8.477c-3.5-3.776-9.73-4.592-15.25-4.592zm-101.09 0.537l14.92 40.54h4.674l14.873-40.54h-10.193l-6.92 20.02h-0.094l-7.51-20.02h-9.7498zm36.795 0v40.53h9.162v-40.53h-9.162zm15.18 0v40.54h9.164v-15.71h3.299l6.791 15.71h9.701l-8.117-18.97c4.796-2.64 5.254-8.935 4.818-11.359-1.401-7.71-5.515-10.277-12.162-10.211h-13.494zm69.411 0v40.53h9.16v-40.53h-9.16zm54.5 0v40.53h9.16v-40.53h-9.16zm-39.19 0.002v40.538h9.16v-22.44h0.1l16.2 22.44h7.58v-40.538h-9.16v22.238h-0.1l-15.8-22.238h-7.98zm63.99 0l-13.09 40.538h9.95l2.41-7.11h12.56l2.5 7.11h10.15l-14.18-40.538h-10.3zm-139.55 8.541h3.541c2.809 0 3.413 1.372 3.49 3.711 0.081 2.426-1.175 3.536-3.98 3.536h-3.051v-7.247zm144.98 5.227l3.79 11.11h-7.54l3.75-11.11z" transform="matrix(.8 0 0 -.8 12.926 550.54)" fill="#002f6c"/></g></g></svg>
