<?xml version="1.0" encoding="UTF-8" standalone="no"?>
<svg xmlns:rdf="http://www.w3.org/1999/02/22-rdf-syntax-ns#" xmlns="http://www.w3.org/2000/svg" xml:space="preserve" height="138.61" viewBox="0 0 150 138.61084" width="150" version="1.1" xmlns:cc="http://creativecommons.org/ns#" xmlns:dc="http://purl.org/dc/elements/1.1/"><g transform="matrix(1.25 0 0 -1.25 -42.686 531.42)"><g transform="matrix(2.9534 0 0 2.9534 -181.54 -719.8)"><path d="m112.32 352.07c-0.014 0.013-0.799 0.556-0.794 1.69v16.884l-5.8 0.003 0.959-1.019c0.219-0.232 0.71-0.952 0.707-1.554-0.003-0.83 0.007-11.014 0.01-13.481-0.675-0.03-1.876-0.076-2.958-0.091-1.673-0.025-2.707 0.019-3.526 0.058v13.309c-0.014 1.9-2.493 2.534-2.6 2.56-0.005 0.001-7.092 1.612-7.818 1.778 0 0.003-0.34 0.087-0.34 0.087v3.07h7.069s0.961-0.001 1.537-0.483c0 0 1.948 1.611 4.09 2.166l-0.28-0.076-12.801-0.002c-0.473 0-0.833-0.136-1.069-0.401-0.236-0.267-0.273-0.587-0.273-0.765 0-0.043 0.002-0.077 0.004-0.101 0 0-0.002-3.436-0.002-3.44 0-0.052-0.002-0.106-0.002-0.162 0-0.572 0.092-1.272 1.254-1.542l7.11-1.633c0.022-0.004 2.329-0.395 2.338-1.731 0-0.184 0.002-0.564 0.002-1.081 0-3.232-0.018-11.91-0.022-13.093 0.29-0.017 0.956-0.052 0.956-0.052 0.851-0.052 2.97-0.165 4.269-0.165 1.661 0 3.108 0.103 4.029 0.186 0 0 0.446 0.037 0.626 0.053v16.016h0.71l-0.001-16.703-0.126-0.015c-0.78-0.098-2.879-0.284-5.238-0.284-1.97 0-4.902 0.222-5.866 0.308l-0.13 0.013v8.907c-0.12-0.083-0.325-0.189-0.685-0.241l-1.346-0.145c-0.573-0.048-1.992-0.138-3.261-0.138-1.641 0-4.062 0.27-5.234 0.432l-0.122 0.016v0.914l0.184-0.057c0.411-0.126 1.998-0.544 5.15-0.544 3.762 0 4.842 0.31 5.083 0.569 0.177 0.19 0.265 0.454 0.265 0.805v4.07c0 0.032-0.021 0.838-1.655 1.223 0 0-7.655 1.769-7.66 1.77-0.313 0.085-1.335 0.466-1.364 1.752v3.952c0 0.075 0.007 0.746 0.254 1.116 0.052 0.076 0.101 0.135 0.15 0.191-0.712 0-8.361 0.001-8.625 0.001v-8.184h-0.799v8.179h-4.244v0.758h4.244v7.754l0.127 0.013c0.743 0.082 3.333 0.345 5.411 0.345 2.667 0 4.895-0.257 5.515-0.336l0.126-0.017-0.03-1.114-0.189 0.075c-0.417 0.166-0.921 0.28-1.541 0.35-0.772 0.085-3.529 0.219-3.839 0.233-1.331 0.033-3.07-0.095-4.117-0.176 0 0-0.48-0.035-0.664-0.049v-7.078h23.128l0.225-0.058c-2.148 0.554-4.007 1.99-4.026 2.005-0.522-0.439-1.566-0.341-1.566-0.341-0.003 0-13.763-0.003-16.034-0.003v4.014c1.009 0.06 2.383 0.139 4.165 0.063 2.48-0.108 3.223-0.312 3.624-0.422 1.56-0.429 2.59-1.257 2.59-1.257l-0.015 5.104-0.254 0.035c-0.042 0.004-4.258 0.533-6.954 0.533-3.399 0-8.195-0.723-8.242-0.731l-0.748-0.113 1.174-0.796c0.55-0.426 0.632-1.292 0.632-1.292l0.003-5.15h-1.145c-0.997 0-1.924 0.252-2.019 0.279l-0.585 0.174 1.002-2.044v-0.754l-1.132-2.112 0.706 0.22c0.009 0.003 0.984 0.287 2.028 0.287h1.142v-4.632-0.676s0.025-1.24-0.818-1.852c-0.842-0.612-1.39-0.97-1.39-0.97l0.064-0.01h8.411s-0.62 0.453-1.44 1.021c-0.822 0.571-0.796 1.98-0.796 1.98v0.653l-0.001 4.486h4.892l-0.002-4.268v-0.005l0.002-0.007c0-0.021 0.109-2.199 2.465-2.754 0 0 6.806-1.566 8.19-1.885l-0.003-3.125c-0.913-0.151-3.285-0.221-4.203-0.182h-0.007-0.006c-4.696 0-6.362 1.849-6.362 1.849 0.005-0.005 0.009-5.324 0.009-5.324s3.725-0.563 6.311-0.563c1.95 0 3.568 0.109 4.248 0.163l0.014-8.317 0.671-0.069c-0.004 0 0.019-0.002 0.019-0.002 0.637-0.081 3.968-0.483 7.008-0.483 2.71 0 7.21 0.624 7.21 0.624l1.727 0.214-1.07 0.84z" fill="#782f40"/><path d="m79.482 377.72v7.078c0.184 0.014 0.664 0.048 0.664 0.048 1.047 0.08 2.786 0.21 4.117 0.177 0.31-0.015 3.067-0.148 3.839-0.233 0.62-0.069 1.124-0.184 1.541-0.35l0.189-0.076 0.03 1.114-0.127 0.018c-0.619 0.079-2.848 0.335-5.514 0.335-2.078 0-4.668-0.263-5.411-0.344l-0.127-0.014v-7.753h-4.245v-0.759h4.245v-8.179h0.799v8.184c0.264 0 7.913-0.001 8.624-0.001-0.048-0.055-0.097-0.113-0.149-0.191-0.247-0.369-0.255-1.04-0.255-1.115v-3.953c0.03-1.286 1.052-1.666 1.365-1.751 0.005-0.001 7.66-1.77 7.66-1.77 1.634-0.386 1.654-1.191 1.654-1.224v-4.069c0-0.353-0.087-0.615-0.264-0.805-0.241-0.26-1.321-0.569-5.084-0.569-3.151 0-4.738 0.418-5.149 0.544l-0.184 0.057v-0.915l0.122-0.016c1.172-0.161 3.593-0.431 5.234-0.431 1.269 0 2.687 0.09 3.26 0.137l1.347 0.146c0.36 0.052 0.565 0.157 0.685 0.241v-8.908l0.13-0.012c0.964-0.086 3.896-0.308 5.866-0.308 2.358 0 4.458 0.185 5.238 0.284l0.126 0.015v16.702h-0.709v-16.015c-0.18-0.016-0.627-0.053-0.627-0.053-0.921-0.083-2.367-0.186-4.028-0.186-1.299 0-3.419 0.113-4.269 0.165 0 0-0.667 0.035-0.956 0.051 0.004 1.184 0.022 9.862 0.022 13.094 0 0.517-0.002 0.895-0.003 1.081-0.008 1.336-2.315 1.727-2.337 1.731l-7.111 1.632c-1.161 0.271-1.253 0.971-1.253 1.543 0 0.056 0.001 0.11 0.001 0.162 0 0.003 0.003 3.439 0.003 3.439-0.003 0.024-0.004 0.059-0.004 0.101 0 0.179 0.037 0.498 0.274 0.766 0.235 0.265 0.595 0.4 1.068 0.4l12.801 0.003 0.28 0.076 1.161 0.313h-0.003l-1.408 0.363h-23.128" fill="#ceb888"/></g></g></svg>
