<?xml version="1.0" encoding="UTF-8" standalone="no"?>
<svg xmlns:rdf="http://www.w3.org/1999/02/22-rdf-syntax-ns#" xmlns="http://www.w3.org/2000/svg" xml:space="preserve" height="125.94" viewBox="0 0 128.48518 125.93658" width="128.49" version="1.1" xmlns:cc="http://creativecommons.org/ns#" xmlns:dc="http://purl.org/dc/elements/1.1/"><g transform="matrix(1.25 0 0 -1.25 -1203.5 712.18)"><g><path d="m82.289 1.0938c-0.532-0.0484-1.134 0.1002-1.736 0.5214l-12.639 8.8498c-4.972-2.0989-11.516-0.299-16.33 4.035-5.967 5.372-8.495 14.139-3.645 19.525 0.335 0.373 0.685 0.71 1.047 1.018-7.095 1.231-13.932 5.251-21.517 12.08l-26.553 23.91 6.1895 6.873c5.1115-4.602 5.1445-6.253 9.8495-1.027l28.434 31.581c4.706 5.23 3.06 5.08-2.051 9.69l6.187 6.87 24.811-22.34c6.317-5.685 10.532-10.79 13.158-15.711 0.86 0.452 1.934 0.726 3.106 0.726 2.222 0 4.107-0.971 4.804-2.326h3.934c3.522 0.02 7.542-1.458 11.522-5.041 4.81-4.334 7.28-10.653 5.72-15.818l10.12-11.645c1.93-2.217-0.48-4.873-2.88-3.17l-12.4 8.828c-1.87-0.883-3.98-1.188-6.16-0.992 0.55-0.415 1.1-0.867 1.65-1.361 4.81-4.334 7.28-10.651 5.71-15.816l10.13-11.645c1.93-2.218-0.49-4.876-2.88-3.172l-12.4 8.828c-3.91-1.844-8.876-1.163-13.212 1.323 2.54-3.71 3.69-8.116 2.228-12.293l10.074-11.411c1.95-2.2021-0.44-4.878-2.85-3.193l-12.64 8.85c-4.972-2.099-11.516-0.299-16.33 4.035-0.365 0.329-0.718 0.671-1.056 1.025 0.458-2.137 0.396-4.34-0.354-6.482l10.076-11.41c1.46-1.6523 0.48-3.5702-1.117-3.7152zm-0.5 2.2871l-10.982 12.437c2.246 4.209 0.462 10.542-4.51 15.02-5.589 5.032-13.09 5.814-16.754 1.744-3.664-4.069-2.104-11.448 3.486-16.48 4.832-4.352 11.092-5.526 15.067-3.133l13.693-9.5881zm23.161 7.1761l-10.987 12.437c2.247 4.209 0.463 10.543-4.51 15.02-5.59 5.033-13.09 5.814-16.754 1.744-3.664-4.069-2.103-11.448 3.487-16.481 4.831-4.351 11.091-5.522 15.066-3.131l13.698-9.589zm16.17 16.738l-10.97 12.615c1.97 4.204 0.15 10.308-4.69 14.658-5.586 5.033-13.086 5.814-16.751 1.744-3.664-4.068-2.102-11.447 3.486-16.48 4.973-4.477 11.455-5.591 15.415-2.916l13.51-9.621zm-52.202 3.893c-0.701 2.974-0.457 5.963 1.033 8.464-2.522-1.545-5.158-2.786-7.846-3.648 2.492-1.105 4.858-2.784 6.813-4.816zm-15.635 5.607c0.53-0.009 1.062-0.002 1.596 0.021 8.295 0.424 16.216 4.693 23.098 12.334 6.877 7.64 10.908 15.829 10.961 24.11-0.042 2.734-0.457 5.426-1.372 8.164-0.446 1.336-1.013 2.683-1.714 4.053-2.452 4.783-6.552 9.836-12.959 15.603l-23.207 20.9-3.303-3.67c5.442-4.9 5.165-6.23 0.607-11.29l-28.433-31.582c-4.557-5.062-5.85-5.478-11.293-0.577l-3.3031-3.67 24.951-22.464c8.902-8.015 16.427-11.795 24.371-11.932zm33.967 5.365c-1.385 2.005-2.212 4.024-2.568 5.959-0.347 1.608-0.55 3.714-0.137 5.768-2.326-3.517-5.164-6.782-8.336-9.588 3.51 0.871 7.496-0.075 11.041-2.139zm-43.992 6.129c-3.829 0.029-7.415 1.583-10.891 4.713l-3.512 3.158c-2.382 2.145-2.237 3.179 1.067 6.848l30.156 33.492c3.774 4.19 4.749 4.46 7.326 2.137l2.549-2.295c4.501-4.053 6.931-9.041 6.281-15.059-0.553-5.98-4.033-12.379-10.443-19.498-6.497-7.216-12.463-11.596-18.619-13.019-1.335-0.327-2.638-0.487-3.914-0.477zm0.074 2.158c1.092-0.004 2.203 0.138 3.34 0.416 5.514 1.275 11.126 5.265 17.517 12.364 6.282 6.976 9.408 12.968 9.899 18.273 0.562 5.19-1.479 9.55-5.576 13.24l-2.549 2.295c-0.616 0.554-0.959 0.785-1.16 0.877-0.072-0.02-0.359-0.107-0.934-0.609-0.559-0.488-1.256-1.208-2.189-2.246l-30.155-33.491c-0.812-0.901-1.36-1.567-1.716-2.089-0.365-0.535-0.415-0.761-0.42-0.791 0.097-0.165 0.355-0.422 0.91-0.922l3.51-3.16c3.137-2.826 6.246-4.144 9.523-4.157zm81.738 1.004l-10.96 12.617c1.96 4.204 0.14 10.309-4.69 14.659-4.86 4.371-11.155 5.53-15.127 3.095-0.115-0.07-0.227-0.144-0.338-0.22-0.47-0.324-0.904-0.699-1.295-1.131-3.664-4.07-2.102-11.448 3.486-16.481 4.974-4.477 11.464-5.591 15.414-2.916l13.51-9.623zm-37.697 7.34c1.389 1.148 3.359 1.991 6.121 2.287 0.839 0.14 1.715 0.193 2.621 0.147-0.485 0.363-0.956 0.752-1.412 1.162-1.852 1.667-3.253 3.392-4.254 5.113-0.622-2.931-1.673-5.866-3.076-8.709zm6.697 2.34c0.654 0.05 1.349 0.072 2.09 0.06-0.717 0.04-1.415 0.019-2.09-0.06zm-5.91 21.928h1.834v0.369h-0.699v1.941 0.004h-0.438v-0.004-1.941h-0.697v-0.369zm2.278 0h0.667l0.624 1.777h0.017l0.623-1.777h0.67v2.31 0.004h-0.437v-0.004-1.928h-0.014l-0.672 1.928-0.002 0.004h-0.353l-0.002-0.004-0.672-1.928h-0.012v1.928 0.004h-0.437v-0.004-2.31z" transform="matrix(.8 0 0 -.8 962.81 569.74)" fill="#ffc72c"/><path d="m81.789 3.3809l-13.693 9.5881c-3.975-2.391-10.235-1.217-15.067 3.133-5.59 5.033-7.15 12.411-3.486 16.48 3.664 4.07 11.165 3.288 16.754-1.744 4.972-4.478 6.756-10.811 4.51-15.02l10.982-12.437zm23.161 7.1761l-13.698 9.588c-3.975-2.392-10.237-1.218-15.068 3.132-5.59 5.033-7.15 12.413-3.487 16.483 3.664 4.07 11.166 3.288 16.756-1.744 4.973-4.478 6.756-10.813 4.51-15.022l10.987-12.437zm16.17 16.736l-13.52 9.623c-3.95-2.674-10.432-1.561-15.405 2.916-5.59 5.033-7.15 12.41-3.486 16.48s11.164 3.289 16.751-1.744c4.84-4.351 6.66-10.454 4.69-14.658l10.97-12.617zm-67.837 9.502c-7.944 0.137-15.471 3.917-24.371 11.932l-24.951 22.464 3.3027 3.67c5.4423-4.901 6.7373-4.485 11.295 0.577l28.431 31.582c4.558 5.06 4.835 6.39-0.607 11.29l3.305 3.67 23.207-20.9c6.406-5.769 10.505-10.82 12.957-15.605 0.701-1.369 1.268-2.715 1.714-4.051 0.917-2.738 1.33-5.429 1.372-8.164-0.052-8.281-4.086-16.471-10.963-24.11-6.882-7.641-14.802-11.91-23.098-12.334-0.534-0.023-1.064-0.03-1.594-0.021zm-10.025 11.492c1.276-0.01 2.579 0.15 3.914 0.477 6.156 1.423 12.122 5.805 18.619 13.021 6.409 7.119 9.888 13.52 10.443 19.5 0.65 6.016-1.781 11.004-6.281 15.057l-2.547 2.295c-2.577 2.323-3.554 2.053-7.328-2.137l-30.154-33.49c-3.304-3.67-3.449-4.705-1.067-6.85l3.51-3.16c3.476-3.13 7.062-4.684 10.891-4.713zm81.812 3.164l-13.51 9.623c-3.95-2.674-10.44-1.561-15.414 2.916-5.588 5.033-7.15 12.411-3.486 16.481 0.39 0.432 0.827 0.807 1.297 1.131 0.111 0.076 0.221 0.15 0.336 0.22 3.972 2.435 10.267 1.275 15.117-3.095 4.84-4.352 6.66-10.455 4.7-14.659l10.96-12.617zm-36.91 31.608v0.369h0.699v1.941 0.004h0.436v-0.004-1.941h0.699v-0.369h-1.834zm2.278 0v2.308 0.006h0.437v-0.006-1.926h0.014l0.67 1.926v0.006h0.353v-0.006l0.672-1.926h0.014v1.926 0.006h0.437v-0.006-2.308h-0.666l-0.623 1.777h-0.017l-0.624-1.777h-0.667z" transform="matrix(.8 0 0 -.8 962.81 569.74)"/></g></g></svg>
