<?xml version="1.0" encoding="UTF-8" standalone="no"?>
<svg xmlns:rdf="http://www.w3.org/1999/02/22-rdf-syntax-ns#" xmlns="http://www.w3.org/2000/svg" xml:space="preserve" height="135.95" viewBox="0 0 154.3175 135.95375" width="154.32" version="1.1" xmlns:cc="http://creativecommons.org/ns#" xmlns:dc="http://purl.org/dc/elements/1.1/"><g transform="matrix(1.25 0 0 -1.25 -165.21 780.67)"><g><path d="m132.96 614.86 1.681 8.867 118.61-8.916-8.839-38.455-17.39 12.537h-36.53l-2.845-12.395h37.553l-4.977-21.616h-37.707l-9.166-38.318h-38.506l18.512 80.614-20.398 17.682z" fill="#bcbec0"/><path d="m134.53 623.71 120.29-0.049-8.841-38.455-17.385 12.531h-36.051l-2.85-12.385h37.552l-4.973-21.623h-37.591l-9.166-38.314h-39.108l18.52 80.622-20.398 17.673z" fill="#231f20"/><path d="m144.26 531.66 17.602 76.638-10.57 9.155 95.683-0.045-4.978-21.629-11.391 8.208h-43.043l-5.721-24.892h37.552l-2.095-9.122h-37.551l-9.166-38.313h-26.322z" fill="#e0143e"/></g></g></svg>
