<svg xmlns="http://www.w3.org/2000/svg" height="76" width="100" viewBox="0 0 100 76"><g transform="matrix(0 -1.25 -1.25 0 1260.1 188.5)"><g><path d="m103.28 965.76v9.372l6.8201 9.2162 4.484-1.1069v9.8348l6.662 9.4054 21.108-5.1776 8.5052 10.79-0.003-45.476-11.007 2.7008v-9.9294l-6.7197-9.6351-6.5581 1.6205v-19.281l-14.188 3.4787v3.7915l-10.462 2.5646v6.3884l-1.7324 0.4686v3.5572l-10.185 2.4988v18.173l13.277-3.2548" fill="#fff"/><path d="m105.04 963.5v11.043l5.7744 7.8011 5.5297-1.3654v11.529l5.6428 7.9639 21.043-5.1604 6.0548 7.6799-0.003-38.126-11.226 2.7539 0.21814-0.41897v-11.263l-5.7074-8.182-7.5714 1.8709v-19.286l-10.653 2.6142v3.7903l-10.462 2.5646v9.9895l-11.917 2.9235v14.535l13.277-3.2571"/><path d="m124.9 952.49v8.7129l5.2931-1.3077v9.6698l-2.3684-3.017-14.891 3.6807v-6.0698l6.67-1.647v-5.4593l2.4007 3.0101v-26.15l-5.0588 1.2408v17.377l-2.3753-3.0159-3.0263 0.7433v-9.9895l-5.06 1.2408v9.9883l-11.917 2.9236v8.773l15.37-3.7707-2.0937 3.855v10.347l4.1158 5.5597 9.5797-2.3661-2.5392 4.5983v10.25l4.1124 5.8056 20.95-5.1384 2.3776 3.0159-0.002-12.371-22.378 5.4882v-5.9568l20.001-4.9053 2.3765 3.0147 0.001-12.371-13.812 3.3864 2.6569-5.1165v-9.6975l-4.1043-5.8852-6.2776 1.5524" fill="#b5985a"/><path d="m20.188 6.9316l1.169 0.9219-6.408 26.134 1.334 0.946 6.516-26.469 6.334 0.0018 0.375-1.5352h-9.32zm27.732 0.002l-9.32 0.0019c0.083 0.0664 1.17 0.9219 1.17 0.9219l-6.635 27.049h-8.92l-0.377 1.533h10.488l6.863-27.97 6.356-0.0002 0.375-1.5352zm4.404 13.943l-8.984 4.666-5.535 22.41 1.328 0.983 5.545-22.346 8.029-4.178h13.117l-2.199-1.535h-11.301zm9.43 4.941l-1.256 5.082h1.57l1.258-5.082h-1.572zm2.543 11.657l1.172 0.923-7.463 30.418h1.568l7.321-29.806h23.572l0.377-1.535h-26.547zm-6.164 3.002l-2.061 8.335h-9.058l-0.379 1.534h10.631l2.058-8.336h3.141l0.379-1.533h-4.711zm13.846 10.074c-0.211 0.855-0.375 1.533-0.375 1.533h10.919c0.114-0.463 0.235-0.965 0.375-1.533h-10.919z" transform="matrix(0 -.8 -.8 0 150.8 1008.1)" fill="#fff"/></g></g></svg>
