<?xml version="1.0" encoding="UTF-8" standalone="no"?>
<!-- Created with Inkscape (http://www.inkscape.org/) -->

<svg
   xmlns:dc="http://purl.org/dc/elements/1.1/"
   xmlns:cc="http://creativecommons.org/ns#"
   xmlns:rdf="http://www.w3.org/1999/02/22-rdf-syntax-ns#"
   xmlns:svg="http://www.w3.org/2000/svg"
   xmlns="http://www.w3.org/2000/svg"
   xmlns:sodipodi="http://sodipodi.sourceforge.net/DTD/sodipodi-0.dtd"
   xmlns:inkscape="http://www.inkscape.org/namespaces/inkscape"
   width="117.91506"
   height="110.73373"
   viewBox="0 0 31.19836 29.298297"
   version="1.1"
   id="svg4972"
   inkscape:version="0.92.0 r15299"
   sodipodi:docname="babcock.svg">
  <defs
     id="defs4966">
    <clipPath
       id="clipPath4515"
       clipPathUnits="userSpaceOnUse">
      <path
         inkscape:connector-curvature="0"
         id="path4513"
         d="m 30.527,668.881 h 93.535 v 82.301 H 30.527 Z" />
    </clipPath>
  </defs>
  <sodipodi:namedview
     id="base"
     pagecolor="#ffffff"
     bordercolor="#666666"
     borderopacity="1.0"
     inkscape:pageopacity="0.0"
     inkscape:pageshadow="2"
     inkscape:zoom="4.8572298"
     inkscape:cx="61.857595"
     inkscape:cy="54.367053"
     inkscape:document-units="mm"
     inkscape:current-layer="layer1"
     showgrid="false"
     fit-margin-top="0"
     fit-margin-left="0"
     fit-margin-right="0"
     fit-margin-bottom="0"
     units="px"
     inkscape:window-width="1280"
     inkscape:window-height="744"
     inkscape:window-x="-4"
     inkscape:window-y="-4"
     inkscape:window-maximized="1" />
  <metadata
     id="metadata4969">
    <rdf:RDF>
      <cc:Work
         rdf:about="">
        <dc:format>image/svg+xml</dc:format>
        <dc:type
           rdf:resource="http://purl.org/dc/dcmitype/StillImage" />
        <dc:title></dc:title>
      </cc:Work>
    </rdf:RDF>
  </metadata>
  <g
     inkscape:label="Layer 1"
     inkscape:groupmode="layer"
     id="layer1"
     transform="translate(-44.109702,-155.84227)">
    <g
       id="g5243"
       transform="translate(0.13229172,-0.13229799)">
      <g
         transform="matrix(0.35277777,0,0,-0.35277777,52.534741,156.10686)"
         id="g4517">
        <path
           inkscape:connector-curvature="0"
           id="path4519"
           style="fill:#1b3e90;fill-opacity:1;fill-rule:nonzero;stroke:none"
           d="m 0,0 c 0,0 36.163,-13.372 45.358,-47.606 -0.051,0.274 -25.634,-30.18 -44.541,-9.467 0,0 -13.843,12.088 -0.817,57.073" />
      </g>
      <g
         transform="matrix(0.35277777,0,0,-0.35277777,52.714093,171.83158)"
         id="g4521">
        <path
           inkscape:connector-curvature="0"
           id="path4523"
           style="fill:#ffffff;fill-opacity:1;fill-rule:nonzero;stroke:none"
           d="m 0,0 c -0.37,0 -0.753,0.05 -1.085,0.217 -0.18,0.089 -0.345,0.216 -0.55,0.205 0,-0.155 0.038,-0.32 -0.179,-0.32 h -1.059 c -0.091,0 -0.168,0.076 -0.168,0.165 v 8.612 c 0,0.089 0.077,0.166 0.168,0.166 h 1.199 c 0.09,0 0.167,-0.077 0.167,-0.166 V 6.195 c 0.242,0 0.307,0.039 0.524,0.129 0.409,0.178 0.792,0.267 1.238,0.267 1.841,0 2.837,-1.545 2.837,-3.257 C 3.092,1.482 1.942,0 0,0 M -0.242,5.531 C -0.549,5.531 -0.856,5.467 -1.124,5.314 -1.419,5.148 -1.507,4.955 -1.507,4.625 V 2.018 c 0,-0.754 0.651,-0.957 1.29,-0.957 0.472,0 0.933,0.178 1.265,0.51 0.447,0.447 0.511,1.137 0.511,1.737 0,1.189 -0.459,2.223 -1.801,2.223" />
      </g>
      <g
         transform="matrix(0.35277777,0,0,-0.35277777,55.762657,171.79552)"
         id="g4525">
        <path
           inkscape:connector-curvature="0"
           id="path4527"
           style="fill:#ffffff;fill-opacity:1;fill-rule:nonzero;stroke:none"
           d="m 0,0 h -1.06 c -0.205,0 -0.179,0.178 -0.168,0.319 h -0.113 c -0.23,0 -0.41,-0.104 -0.614,-0.192 -0.422,-0.191 -0.716,-0.255 -1.176,-0.255 -1.174,0 -2.07,0.625 -2.07,1.864 0,1.315 0.92,1.725 2.033,2.096 l 1.315,0.434 c 0.269,0.089 0.498,0.116 0.498,0.46 0,0.575 -0.639,0.703 -1.099,0.703 -0.728,0 -1.379,-0.218 -2.018,-0.524 C -4.535,4.879 -4.6,4.841 -4.677,4.841 c -0.114,0 -0.14,0.115 -0.14,0.205 v 0.703 c 0,0.204 0.076,0.255 0.256,0.331 0.702,0.294 1.571,0.409 2.325,0.409 1.201,0 2.402,-0.345 2.402,-1.763 V 0.165 C 0.166,0.076 0.09,0 0,0 M -1.367,3.333 -2.338,3.014 c -0.563,-0.18 -1.329,-0.447 -1.329,-1.15 0,-0.664 0.588,-0.906 1.163,-0.906 0.306,0 0.625,0.051 0.869,0.242 0.242,0.191 0.268,0.408 0.268,0.703 z" />
      </g>
      <g
         transform="matrix(0.35277777,0,0,-0.35277777,57.105859,171.83158)"
         id="g4529">
        <path
           inkscape:connector-curvature="0"
           id="path4531"
           style="fill:#ffffff;fill-opacity:1;fill-rule:nonzero;stroke:none"
           d="m 0,0 c -0.371,0 -0.754,0.05 -1.087,0.217 -0.178,0.089 -0.345,0.216 -0.549,0.205 0,-0.155 0.039,-0.32 -0.178,-0.32 h -1.061 c -0.089,0 -0.166,0.076 -0.166,0.165 v 8.612 c 0,0.089 0.077,0.166 0.166,0.166 h 1.2 c 0.09,0 0.167,-0.077 0.167,-0.166 V 6.195 c 0.243,0 0.307,0.039 0.524,0.129 0.409,0.178 0.792,0.267 1.239,0.267 1.84,0 2.837,-1.545 2.837,-3.257 C 3.092,1.482 1.941,0 0,0 M -0.243,5.531 C -0.55,5.531 -0.857,5.467 -1.125,5.314 -1.419,5.148 -1.508,4.955 -1.508,4.625 V 2.018 c 0,-0.754 0.651,-0.957 1.291,-0.957 0.472,0 0.932,0.178 1.263,0.51 0.448,0.447 0.512,1.137 0.512,1.737 0,1.189 -0.46,2.223 -1.801,2.223" />
      </g>
      <g
         transform="matrix(0.35277777,0,0,-0.35277777,60.173332,171.7056)"
         id="g4533">
        <path
           inkscape:connector-curvature="0"
           id="path4535"
           style="fill:#ffffff;fill-opacity:1;fill-rule:nonzero;stroke:none"
           d="m 0,0 c -0.499,-0.23 -1.316,-0.357 -1.865,-0.357 -2.032,0 -3.157,1.251 -3.157,3.243 0,1.943 1.215,3.374 3.208,3.374 0.472,0 0.958,-0.063 1.405,-0.191 C -0.166,6.004 0.217,5.941 0.217,5.622 V 4.931 c 0,-0.076 -0.039,-0.152 -0.127,-0.152 -0.078,0 -0.18,0.038 -0.245,0.076 -0.432,0.218 -0.919,0.344 -1.404,0.344 -1.418,0 -1.929,-0.931 -1.929,-2.248 0,-1.252 0.459,-2.223 1.853,-2.223 0.523,0 1.06,0.141 1.519,0.384 0.065,0.038 0.141,0.076 0.218,0.076 0.179,0 0.115,-0.716 0.115,-0.843 C 0.217,0.116 0.191,0.09 0,0" />
      </g>
      <g
         transform="matrix(0.35277777,0,0,-0.35277777,62.206531,171.61966)"
         id="g4537">
        <path
           inkscape:connector-curvature="0"
           id="path4539"
           style="fill:#ffffff;fill-opacity:1;fill-rule:nonzero;stroke:none"
           d="m 0,0 c -0.626,-0.563 -1.33,-0.691 -2.148,-0.691 -0.816,0 -1.494,0.128 -2.12,0.691 -0.765,0.688 -0.996,1.673 -0.996,2.669 0,1.01 0.231,1.981 1.01,2.671 0.663,0.574 1.341,0.676 2.197,0.676 2.108,0 3.054,-1.378 3.054,-3.371 C 0.997,1.646 0.78,0.688 0,0 m -2.122,4.956 c -1.251,0 -1.609,-1.226 -1.609,-2.261 0,-1.035 0.344,-2.313 1.609,-2.313 1.24,0 1.586,1.24 1.586,2.263 0,1.009 -0.346,2.311 -1.586,2.311" />
      </g>
      <g
         transform="matrix(0.35277777,0,0,-0.35277777,64.513239,171.7056)"
         id="g4541">
        <path
           inkscape:connector-curvature="0"
           id="path4543"
           style="fill:#ffffff;fill-opacity:1;fill-rule:nonzero;stroke:none"
           d="m 0,0 c -0.499,-0.23 -1.319,-0.357 -1.872,-0.357 -2.033,0 -3.156,1.251 -3.156,3.243 0,1.943 1.213,3.374 3.208,3.374 0.475,0 0.963,-0.063 1.411,-0.191 C -0.166,6.004 0.217,5.941 0.217,5.622 V 4.931 c 0,-0.076 -0.037,-0.152 -0.128,-0.152 -0.077,0 -0.179,0.038 -0.242,0.076 -0.435,0.218 -0.923,0.344 -1.41,0.344 -1.422,0 -1.932,-0.931 -1.932,-2.248 0,-1.252 0.458,-2.223 1.855,-2.223 0.525,0 1.065,0.141 1.524,0.384 0.064,0.038 0.141,0.076 0.218,0.076 0.179,0 0.115,-0.716 0.115,-0.843 C 0.217,0.116 0.192,0.09 0,0" />
      </g>
      <g
         transform="matrix(0.35277777,0,0,-0.35277777,66.72191,171.79552)"
         id="g4545">
        <path
           inkscape:connector-curvature="0"
           id="path4547"
           style="fill:#ffffff;fill-opacity:1;fill-rule:nonzero;stroke:none"
           d="m 0,0 h -1.367 c -0.219,0 -0.242,0.051 -0.358,0.216 l -1.853,2.695 c -0.076,0.116 -0.191,0.09 -0.32,0.09 V 0.165 C -3.898,0.076 -3.974,0 -4.064,0 H -5.265 C -5.353,0 -5.43,0.076 -5.43,0.165 v 8.611 c 0,0.089 0.077,0.167 0.165,0.167 h 1.201 c 0.09,0 0.166,-0.078 0.166,-0.167 V 3.934 h 0.154 c 0.09,0 0.128,0.025 0.191,0.09 l 1.929,2.172 c 0.102,0.115 0.155,0.192 0.307,0.192 h 1.176 c 0.076,0 0.179,-0.052 0.179,-0.141 0,-0.089 -0.091,-0.179 -0.14,-0.242 L -2.326,3.628 0.075,0.395 C 0.14,0.319 0.204,0.229 0.204,0.127 0.204,0.025 0.075,0 0,0" />
      </g>
      <g
         transform="matrix(0.35277777,0,0,-0.35277777,45.44426,185.00158)"
         id="g4549">
        <path
           inkscape:connector-curvature="0"
           id="path4551"
           style="fill:#1b3e90;fill-opacity:1;fill-rule:nonzero;stroke:none"
           d="m 0,0 c 0,-0.053 -0.036,-0.097 -0.106,-0.142 -0.071,-0.052 -0.16,-0.091 -0.271,-0.129 -0.11,-0.033 -0.232,-0.065 -0.365,-0.083 -0.134,-0.026 -0.264,-0.04 -0.39,-0.04 -0.589,0 -1.008,0.135 -1.255,0.406 -0.248,0.271 -0.371,0.665 -0.371,1.18 v 3.682 c 0,0.103 -0.035,0.155 -0.105,0.155 h -0.719 c -0.134,0 -0.201,0.064 -0.201,0.192 v 0.278 c 0,0.123 0.067,0.187 0.201,0.187 h 0.719 c 0.07,0 0.105,0.052 0.105,0.142 v 1.297 c 0,0.134 0.065,0.199 0.192,0.199 h 0.406 c 0.136,0 0.204,-0.065 0.204,-0.199 V 5.828 c 0,-0.09 0.039,-0.142 0.118,-0.142 h 1.65 C -0.062,5.686 0,5.622 0,5.499 V 5.221 C 0,5.093 -0.062,5.029 -0.188,5.029 h -1.65 c -0.079,0 -0.118,-0.052 -0.118,-0.155 V 1.206 c 0,-0.329 0.069,-0.575 0.206,-0.729 0.138,-0.162 0.355,-0.245 0.654,-0.245 0.158,0 0.293,0.013 0.407,0.045 0.113,0.025 0.208,0.051 0.282,0.083 0.075,0.032 0.138,0.065 0.189,0.091 0.051,0.026 0.092,0.039 0.124,0.039 C -0.031,0.49 0,0.458 0,0.386" />
      </g>
      <g
         transform="matrix(0.35277777,0,0,-0.35277777,46.915802,183.2117)"
         id="g4553">
        <path
           inkscape:connector-curvature="0"
           id="path4555"
           style="fill:#1b3e90;fill-opacity:1;fill-rule:nonzero;stroke:none"
           d="m 0,0 c 0,-0.09 -0.043,-0.141 -0.129,-0.141 -0.039,0 -0.081,0.013 -0.124,0.025 -0.044,0.012 -0.096,0.032 -0.16,0.046 -0.062,0.019 -0.145,0.031 -0.247,0.051 C -0.762,-0.005 -0.888,0 -1.036,0 -1.178,0 -1.309,-0.013 -1.431,-0.039 -1.553,-0.065 -1.661,-0.116 -1.756,-0.187 -1.85,-0.258 -1.925,-0.355 -1.98,-0.471 -2.035,-0.586 -2.062,-0.735 -2.062,-0.902 v -4.282 c 0,-0.122 -0.063,-0.186 -0.188,-0.186 h -0.401 c -0.126,0 -0.189,0.064 -0.189,0.186 v 5.61 c 0,0.129 0.06,0.187 0.176,0.187 h 0.414 c 0.102,0 0.153,-0.053 0.153,-0.162 V 0.323 c 0,-0.065 0.027,-0.097 0.082,-0.097 0.079,0 0.172,0.026 0.277,0.077 0.107,0.052 0.226,0.11 0.36,0.168 0.133,0.064 0.278,0.123 0.435,0.174 0.158,0.052 0.322,0.077 0.495,0.077 0.182,0 0.301,-0.019 0.361,-0.052 C -0.029,0.645 0,0.594 0,0.535" />
      </g>
      <g
         transform="matrix(0.35277777,0,0,-0.35277777,48.907021,185.04028)"
         id="g4557">
        <path
           inkscape:connector-curvature="0"
           id="path4559"
           style="fill:#1b3e90;fill-opacity:1;fill-rule:nonzero;stroke:none"
           d="M 0,0 C 0,-0.123 -0.051,-0.187 -0.156,-0.187 H -0.55 c -0.104,0 -0.155,0.059 -0.155,0.174 0,0.071 -0.036,0.109 -0.108,0.109 -0.087,0 -0.177,-0.019 -0.27,-0.057 -0.094,-0.045 -0.206,-0.085 -0.334,-0.135 -0.13,-0.046 -0.281,-0.091 -0.453,-0.13 -0.173,-0.038 -0.377,-0.058 -0.612,-0.058 -0.344,0 -0.665,0.045 -0.962,0.135 -0.298,0.091 -0.538,0.245 -0.717,0.459 -0.094,0.109 -0.171,0.225 -0.23,0.341 -0.058,0.122 -0.103,0.264 -0.135,0.412 -0.032,0.156 -0.052,0.329 -0.064,0.523 -0.012,0.193 -0.017,0.412 -0.017,0.664 v 3.359 c 0,0.13 0.059,0.187 0.179,0.187 h 0.443 c 0.12,0 0.178,-0.057 0.178,-0.187 V 1.824 c 0,-0.258 0.026,-0.483 0.077,-0.67 0.05,-0.187 0.138,-0.341 0.263,-0.464 0.125,-0.122 0.289,-0.213 0.491,-0.278 0.202,-0.064 0.453,-0.096 0.749,-0.096 0.132,0 0.282,0.019 0.449,0.05 0.168,0.034 0.318,0.072 0.451,0.13 0.179,0.072 0.311,0.148 0.397,0.227 0.086,0.083 0.128,0.225 0.128,0.419 v 4.467 c 0,0.13 0.056,0.187 0.169,0.187 h 0.454 C -0.06,5.796 0,5.739 0,5.609" />
      </g>
      <g
         transform="matrix(0.35277777,0,0,-0.35277777,50.648967,184.53306)"
         id="g4561">
        <path
           inkscape:connector-curvature="0"
           id="path4563"
           style="fill:#1b3e90;fill-opacity:1;fill-rule:nonzero;stroke:none"
           d="m 0,0 c 0,-0.568 -0.172,-0.992 -0.513,-1.282 -0.341,-0.291 -0.831,-0.44 -1.467,-0.44 -0.252,0 -0.461,0.013 -0.63,0.046 -0.169,0.025 -0.332,0.063 -0.489,0.123 -0.166,0.05 -0.269,0.102 -0.313,0.154 -0.043,0.045 -0.065,0.109 -0.065,0.2 v 0.484 c 0,0.083 0.044,0.129 0.129,0.129 0.048,0 0.105,-0.027 0.172,-0.079 0.067,-0.05 0.151,-0.109 0.253,-0.167 0.103,-0.057 0.224,-0.11 0.366,-0.155 0.14,-0.05 0.314,-0.07 0.519,-0.07 0.416,0 0.72,0.07 0.913,0.225 0.192,0.154 0.288,0.393 0.288,0.729 0,0.194 -0.043,0.361 -0.13,0.503 -0.087,0.141 -0.267,0.308 -0.542,0.496 L -2.51,1.579 c -0.338,0.225 -0.564,0.447 -0.678,0.658 -0.114,0.213 -0.171,0.452 -0.171,0.71 0,0.457 0.151,0.818 0.455,1.089 0.301,0.271 0.759,0.407 1.372,0.407 0.251,0 0.458,-0.013 0.618,-0.045 0.162,-0.033 0.332,-0.085 0.514,-0.156 0.116,-0.044 0.193,-0.097 0.228,-0.141 0.037,-0.046 0.054,-0.104 0.054,-0.175 v -0.45 c 0,-0.091 -0.039,-0.142 -0.118,-0.142 -0.048,0 -0.106,0.025 -0.177,0.07 -0.07,0.051 -0.156,0.097 -0.259,0.155 -0.102,0.059 -0.224,0.102 -0.365,0.155 -0.142,0.045 -0.307,0.071 -0.495,0.071 -0.369,0 -0.639,-0.078 -0.808,-0.226 C -2.508,3.411 -2.593,3.23 -2.593,3.03 c 0,-0.174 0.047,-0.322 0.142,-0.458 0.094,-0.128 0.267,-0.276 0.519,-0.451 L -0.884,1.424 C -0.562,1.211 -0.334,0.993 -0.201,0.767 -0.067,0.541 0,0.284 0,0" />
      </g>
      <g
         transform="matrix(0.35277777,0,0,-0.35277777,52.183162,185.00158)"
         id="g4565">
        <path
           inkscape:connector-curvature="0"
           id="path4567"
           style="fill:#1b3e90;fill-opacity:1;fill-rule:nonzero;stroke:none"
           d="m 0,0 c 0,-0.053 -0.036,-0.097 -0.106,-0.142 -0.07,-0.052 -0.161,-0.091 -0.271,-0.129 -0.11,-0.033 -0.232,-0.065 -0.365,-0.083 -0.135,-0.026 -0.264,-0.04 -0.39,-0.04 -0.59,0 -1.008,0.135 -1.255,0.406 -0.248,0.271 -0.371,0.665 -0.371,1.18 v 3.682 c 0,0.103 -0.035,0.155 -0.106,0.155 h -0.718 c -0.134,0 -0.201,0.064 -0.201,0.192 v 0.278 c 0,0.123 0.067,0.187 0.201,0.187 h 0.718 c 0.071,0 0.106,0.052 0.106,0.142 v 1.297 c 0,0.134 0.064,0.199 0.192,0.199 h 0.406 c 0.135,0 0.203,-0.065 0.203,-0.199 V 5.828 c 0,-0.09 0.04,-0.142 0.119,-0.142 h 1.65 C -0.063,5.686 0,5.622 0,5.499 V 5.221 C 0,5.093 -0.063,5.029 -0.188,5.029 h -1.65 c -0.079,0 -0.119,-0.052 -0.119,-0.155 V 1.206 c 0,-0.329 0.069,-0.575 0.207,-0.729 0.138,-0.162 0.355,-0.245 0.653,-0.245 0.159,0 0.294,0.013 0.407,0.045 0.114,0.025 0.208,0.051 0.283,0.083 0.075,0.032 0.138,0.065 0.189,0.091 0.051,0.026 0.092,0.039 0.123,0.039 C -0.032,0.49 0,0.458 0,0.386" />
      </g>
      <g
         transform="matrix(0.35277777,0,0,-0.35277777,54.307273,183.99172)"
         id="g4569">
        <path
           inkscape:connector-curvature="0"
           id="path4571"
           style="fill:#1b3e90;fill-opacity:1;fill-rule:nonzero;stroke:none"
           d="M 0,0 C 0,-0.141 -0.07,-0.213 -0.212,-0.213 H -4.03 c -0.118,0 -0.177,-0.058 -0.177,-0.168 0,-0.69 0.173,-1.223 0.518,-1.624 0.347,-0.394 0.85,-0.587 1.51,-0.587 0.305,0 0.56,0.02 0.765,0.065 0.204,0.038 0.373,0.09 0.507,0.141 0.133,0.059 0.237,0.11 0.312,0.148 0.074,0.045 0.14,0.065 0.195,0.065 0.086,0 0.129,-0.053 0.129,-0.148 v -0.342 c 0,-0.078 -0.011,-0.135 -0.036,-0.167 -0.023,-0.04 -0.07,-0.071 -0.14,-0.098 -0.519,-0.219 -1.121,-0.328 -1.803,-0.328 -0.975,0 -1.689,0.27 -2.145,0.799 -0.456,0.535 -0.684,1.29 -0.684,2.257 0,0.529 0.063,0.992 0.188,1.38 0.126,0.393 0.307,0.715 0.543,0.967 0.236,0.258 0.519,0.446 0.848,0.574 0.33,0.122 0.695,0.187 1.097,0.187 0.329,0 0.64,-0.051 0.93,-0.161 C -1.183,2.631 -0.927,2.47 -0.707,2.25 -0.486,2.031 -0.314,1.747 -0.188,1.412 -0.063,1.077 0,0.683 0,0.232 m -0.86,0.354 c 0,0.523 -0.154,0.929 -0.46,1.226 C -1.626,2.102 -2.026,2.25 -2.521,2.25 -2.797,2.25 -3.038,2.199 -3.246,2.102 -3.454,1.999 -3.629,1.87 -3.771,1.709 -3.912,1.548 -4.018,1.367 -4.089,1.168 -4.16,0.974 -4.195,0.774 -4.195,0.574 c 0,-0.04 0.008,-0.071 0.023,-0.09 0.016,-0.027 0.055,-0.039 0.119,-0.039 h 3.052 c 0.047,0 0.082,0.006 0.105,0.027 0.024,0.012 0.036,0.05 0.036,0.114" />
      </g>
      <g
         transform="matrix(0.35277777,0,0,-0.35277777,56.548258,185.04028)"
         id="g4573">
        <path
           inkscape:connector-curvature="0"
           id="path4575"
           style="fill:#1b3e90;fill-opacity:1;fill-rule:nonzero;stroke:none"
           d="m 0,0 c 0,-0.123 -0.056,-0.187 -0.168,-0.187 h -0.395 c -0.105,0 -0.156,0.052 -0.156,0.154 0,0.052 -0.036,0.078 -0.107,0.078 -0.062,0 -0.132,-0.013 -0.212,-0.051 -0.077,-0.034 -0.175,-0.071 -0.293,-0.11 -0.118,-0.038 -0.264,-0.078 -0.44,-0.116 -0.176,-0.032 -0.395,-0.052 -0.653,-0.052 -0.861,0 -1.531,0.265 -2.01,0.793 -0.477,0.522 -0.716,1.264 -0.716,2.212 0,0.522 0.069,0.98 0.206,1.372 0.137,0.401 0.329,0.73 0.575,0.994 0.247,0.259 0.543,0.457 0.888,0.592 0.344,0.136 0.724,0.201 1.14,0.201 0.235,0 0.436,-0.019 0.605,-0.051 0.168,-0.04 0.312,-0.071 0.428,-0.11 0.118,-0.045 0.211,-0.078 0.277,-0.115 0.066,-0.033 0.116,-0.053 0.147,-0.053 0.054,0 0.083,0.053 0.083,0.155 v 2.391 c 0,0.13 0.062,0.201 0.191,0.201 h 0.43 C -0.06,8.298 0,8.227 0,8.097 M -0.801,4.454 c 0,0.24 -0.132,0.426 -0.394,0.582 -0.263,0.148 -0.598,0.218 -1.005,0.218 -0.688,0 -1.212,-0.205 -1.574,-0.625 -0.359,-0.413 -0.539,-1.044 -0.539,-1.883 0,-0.361 0.038,-0.69 0.116,-0.985 C -4.118,1.469 -3.993,1.213 -3.82,0.999 -3.648,0.792 -3.429,0.625 -3.163,0.516 -2.897,0.4 -2.575,0.342 -2.2,0.342 c 0.424,0 0.762,0.077 1.016,0.239 0.256,0.153 0.383,0.346 0.383,0.573 z" />
      </g>
      <g
         transform="matrix(0.35277777,0,0,-0.35277777,59.345962,185.00158)"
         id="g4577">
        <path
           inkscape:connector-curvature="0"
           id="path4579"
           style="fill:#1b3e90;fill-opacity:1;fill-rule:nonzero;stroke:none"
           d="m 0,0 c 0,-0.053 -0.035,-0.097 -0.106,-0.142 -0.07,-0.052 -0.16,-0.091 -0.271,-0.129 -0.109,-0.033 -0.232,-0.065 -0.365,-0.083 -0.134,-0.026 -0.265,-0.04 -0.39,-0.04 -0.59,0 -1.007,0.135 -1.255,0.406 -0.247,0.271 -0.37,0.665 -0.37,1.18 v 3.682 c 0,0.103 -0.036,0.155 -0.106,0.155 h -0.719 c -0.133,0 -0.201,0.064 -0.201,0.192 v 0.278 c 0,0.123 0.068,0.187 0.201,0.187 h 0.719 c 0.07,0 0.106,0.052 0.106,0.142 v 1.297 c 0,0.134 0.063,0.199 0.191,0.199 h 0.406 c 0.137,0 0.204,-0.065 0.204,-0.199 V 5.828 c 0,-0.09 0.04,-0.142 0.117,-0.142 h 1.651 C -0.063,5.686 0,5.622 0,5.499 V 5.221 C 0,5.093 -0.063,5.029 -0.188,5.029 h -1.651 c -0.077,0 -0.117,-0.052 -0.117,-0.155 V 1.206 c 0,-0.329 0.069,-0.575 0.206,-0.729 0.137,-0.162 0.355,-0.245 0.654,-0.245 0.157,0 0.292,0.013 0.406,0.045 0.114,0.025 0.209,0.051 0.283,0.083 0.075,0.032 0.138,0.065 0.188,0.091 0.052,0.026 0.094,0.039 0.125,0.039 C -0.032,0.49 0,0.458 0,0.386" />
      </g>
      <g
         transform="matrix(0.35277777,0,0,-0.35277777,61.623919,184.04616)"
         id="g4581">
        <path
           inkscape:connector-curvature="0"
           id="path4583"
           style="fill:#1b3e90;fill-opacity:1;fill-rule:nonzero;stroke:none"
           d="m 0,0 c 0,-0.465 -0.057,-0.883 -0.172,-1.265 -0.113,-0.373 -0.283,-0.703 -0.512,-0.973 -0.227,-0.277 -0.514,-0.49 -0.861,-0.639 -0.345,-0.148 -0.753,-0.224 -1.223,-0.224 -0.905,0 -1.588,0.277 -2.052,0.818 -0.463,0.548 -0.695,1.303 -0.695,2.257 0,0.458 0.056,0.877 0.165,1.257 0.11,0.381 0.279,0.709 0.508,0.98 0.227,0.271 0.513,0.478 0.859,0.626 0.345,0.154 0.754,0.225 1.226,0.225 0.911,0 1.598,-0.271 2.062,-0.813 C -0.232,1.708 0,0.96 0,0 m -0.836,0.025 c 0,0.419 -0.05,0.774 -0.148,1.078 -0.098,0.302 -0.232,0.554 -0.401,0.746 -0.168,0.194 -0.372,0.343 -0.606,0.439 -0.236,0.09 -0.496,0.136 -0.777,0.136 -0.284,0 -0.542,-0.046 -0.774,-0.136 C -3.773,2.199 -3.973,2.056 -4.143,1.857 -4.311,1.657 -4.442,1.398 -4.537,1.089 -4.631,0.772 -4.678,0.399 -4.678,-0.046 c 0,-0.837 0.179,-1.445 0.535,-1.825 0.359,-0.38 0.819,-0.566 1.386,-0.566 0.282,0 0.539,0.044 0.771,0.135 0.232,0.097 0.434,0.245 0.607,0.444 0.173,0.201 0.306,0.452 0.402,0.761 0.092,0.309 0.141,0.684 0.141,1.122" />
      </g>
      <g
         transform="matrix(0.35277777,0,0,-0.35277777,64.970192,185.04028)"
         id="g4585">
        <path
           inkscape:connector-curvature="0"
           id="path4587"
           style="fill:#1b3e90;fill-opacity:1;fill-rule:nonzero;stroke:none"
           d="m 0,0 c 0,-0.123 -0.055,-0.187 -0.167,-0.187 h -0.396 c -0.102,0 -0.154,0.052 -0.154,0.154 0,0.052 -0.036,0.078 -0.107,0.078 -0.063,0 -0.134,-0.013 -0.212,-0.051 -0.078,-0.034 -0.176,-0.071 -0.295,-0.11 -0.117,-0.038 -0.264,-0.078 -0.44,-0.116 -0.176,-0.032 -0.393,-0.052 -0.651,-0.052 -0.863,0 -1.532,0.265 -2.011,0.793 -0.477,0.522 -0.716,1.264 -0.716,2.212 0,0.522 0.067,0.98 0.204,1.372 0.137,0.401 0.331,0.73 0.577,0.994 0.247,0.259 0.543,0.457 0.887,0.592 0.346,0.136 0.725,0.201 1.141,0.201 0.235,0 0.437,-0.019 0.604,-0.051 0.17,-0.04 0.312,-0.071 0.43,-0.11 0.117,-0.045 0.211,-0.078 0.275,-0.115 0.068,-0.033 0.117,-0.053 0.147,-0.053 0.055,0 0.082,0.053 0.082,0.155 v 2.391 c 0,0.13 0.064,0.201 0.192,0.201 h 0.431 C -0.059,8.298 0,8.227 0,8.097 M -0.802,4.454 c 0,0.24 -0.13,0.426 -0.391,0.582 -0.265,0.148 -0.597,0.218 -1.005,0.218 -0.689,0 -1.214,-0.205 -1.575,-0.625 -0.359,-0.413 -0.539,-1.044 -0.539,-1.883 0,-0.361 0.039,-0.69 0.116,-0.985 0.079,-0.292 0.203,-0.548 0.376,-0.762 0.175,-0.207 0.391,-0.374 0.657,-0.483 0.268,-0.116 0.589,-0.174 0.965,-0.174 0.422,0 0.761,0.077 1.015,0.239 0.256,0.153 0.381,0.346 0.381,0.573 z" />
      </g>
      <g
         transform="matrix(0.35277777,0,0,-0.35277777,67.323608,183.99172)"
         id="g4589">
        <path
           inkscape:connector-curvature="0"
           id="path4591"
           style="fill:#1b3e90;fill-opacity:1;fill-rule:nonzero;stroke:none"
           d="m 0,0 c 0,-0.141 -0.07,-0.213 -0.213,-0.213 h -3.818 c -0.118,0 -0.177,-0.058 -0.177,-0.168 0,-0.69 0.173,-1.223 0.519,-1.624 0.347,-0.394 0.848,-0.587 1.51,-0.587 0.305,0 0.56,0.02 0.765,0.065 0.204,0.038 0.373,0.09 0.506,0.141 0.134,0.059 0.238,0.11 0.313,0.148 0.074,0.045 0.139,0.065 0.195,0.065 0.084,0 0.128,-0.053 0.128,-0.148 v -0.342 c 0,-0.078 -0.011,-0.135 -0.035,-0.167 -0.022,-0.04 -0.071,-0.071 -0.141,-0.098 -0.519,-0.219 -1.12,-0.328 -1.803,-0.328 -0.975,0 -1.69,0.27 -2.145,0.799 -0.456,0.535 -0.683,1.29 -0.683,2.257 0,0.529 0.062,0.992 0.188,1.38 0.126,0.393 0.307,0.715 0.542,0.967 0.236,0.258 0.519,0.446 0.848,0.574 0.331,0.122 0.696,0.187 1.096,0.187 0.33,0 0.641,-0.051 0.931,-0.161 C -1.184,2.631 -0.927,2.47 -0.708,2.25 -0.487,2.031 -0.316,1.747 -0.189,1.412 -0.064,1.077 0,0.683 0,0.232 m -0.861,0.354 c 0,0.523 -0.153,0.929 -0.46,1.226 C -1.627,2.102 -2.028,2.25 -2.523,2.25 -2.798,2.25 -3.04,2.199 -3.248,2.102 -3.455,1.999 -3.63,1.87 -3.771,1.709 -3.914,1.548 -4.018,1.367 -4.09,1.168 -4.16,0.974 -4.195,0.774 -4.195,0.574 c 0,-0.04 0.007,-0.071 0.022,-0.09 0.016,-0.027 0.056,-0.039 0.118,-0.039 h 3.053 c 0.047,0 0.083,0.006 0.106,0.027 0.023,0.012 0.035,0.05 0.035,0.114" />
      </g>
      <g
         transform="matrix(0.35277777,0,0,-0.35277777,68.166994,185.04028)"
         id="g4593">
        <path
           inkscape:connector-curvature="0"
           id="path4595"
           style="fill:#1b3e90;fill-opacity:1;fill-rule:nonzero;stroke:none"
           d="m 0,0 c 0,-0.123 -0.066,-0.187 -0.2,-0.187 h -0.377 c -0.133,0 -0.2,0.064 -0.2,0.187 v 8.097 c 0,0.13 0.059,0.201 0.177,0.201 h 0.424 C -0.058,8.298 0,8.227 0,8.097" />
      </g>
      <g
         transform="matrix(0.35277777,0,0,-0.35277777,69.215344,182.32245)"
         id="g4597">
        <path
           inkscape:connector-curvature="0"
           id="path4599"
           style="fill:#1b3e90;fill-opacity:1;fill-rule:nonzero;stroke:none"
           d="m 0,0 c 0,-0.218 -0.051,-0.373 -0.149,-0.457 -0.098,-0.084 -0.234,-0.129 -0.405,-0.129 -0.173,0 -0.309,0.051 -0.407,0.148 -0.099,0.098 -0.147,0.245 -0.147,0.452 0,0.2 0.048,0.341 0.147,0.438 0.098,0.091 0.234,0.142 0.407,0.142 0.171,0 0.307,-0.051 0.405,-0.142 C -0.051,0.355 0,0.207 0,0 m -0.165,-7.704 c 0,-0.123 -0.063,-0.187 -0.189,-0.187 h -0.389 c -0.134,0 -0.201,0.064 -0.201,0.187 v 5.609 c 0,0.129 0.063,0.188 0.188,0.188 h 0.402 c 0.126,0 0.189,-0.059 0.189,-0.188 z" />
      </g>
      <g
         transform="matrix(0.35277777,0,0,-0.35277777,71.434704,183.0274)"
         id="g4601">
        <path
           inkscape:connector-curvature="0"
           id="path4603"
           style="fill:#1b3e90;fill-opacity:1;fill-rule:nonzero;stroke:none"
           d="M 0,0 C 0,-0.032 -0.027,-0.123 -0.082,-0.264 L -2.063,-5.648 C -2.116,-5.789 -2.167,-5.879 -2.21,-5.925 -2.252,-5.964 -2.322,-5.99 -2.416,-5.99 h -0.53 c -0.095,0 -0.164,0.019 -0.206,0.058 -0.043,0.04 -0.095,0.143 -0.159,0.297 l -1.956,5.383 c -0.04,0.11 -0.06,0.182 -0.06,0.213 0,0.092 0.052,0.13 0.155,0.13 h 0.542 c 0.101,0 0.169,-0.045 0.2,-0.143 l 1.683,-4.925 c 0.032,-0.097 0.069,-0.148 0.107,-0.148 0.04,0 0.075,0.051 0.107,0.148 l 1.708,4.965 c 0.024,0.07 0.079,0.103 0.165,0.103 h 0.531 C -0.043,0.091 0,0.058 0,0" />
      </g>
      <g
         transform="matrix(0.35277777,0,0,-0.35277777,73.480074,183.99172)"
         id="g4605">
        <path
           inkscape:connector-curvature="0"
           id="path4607"
           style="fill:#1b3e90;fill-opacity:1;fill-rule:nonzero;stroke:none"
           d="m 0,0 c 0,-0.141 -0.069,-0.213 -0.211,-0.213 h -3.818 c -0.118,0 -0.178,-0.058 -0.178,-0.168 0,-0.69 0.173,-1.223 0.519,-1.624 0.346,-0.394 0.849,-0.587 1.51,-0.587 0.305,0 0.561,0.02 0.765,0.065 0.203,0.038 0.372,0.09 0.508,0.141 0.133,0.059 0.235,0.11 0.311,0.148 0.074,0.045 0.139,0.065 0.195,0.065 0.085,0 0.129,-0.053 0.129,-0.148 v -0.342 c 0,-0.078 -0.012,-0.135 -0.036,-0.167 -0.024,-0.04 -0.071,-0.071 -0.141,-0.098 -0.519,-0.219 -1.12,-0.328 -1.802,-0.328 -0.976,0 -1.691,0.27 -2.146,0.799 -0.455,0.535 -0.683,1.29 -0.683,2.257 0,0.529 0.062,0.992 0.188,1.38 0.126,0.393 0.307,0.715 0.541,0.967 0.238,0.258 0.519,0.446 0.849,0.574 0.33,0.122 0.697,0.187 1.097,0.187 0.329,0 0.639,-0.051 0.93,-0.161 C -1.182,2.631 -0.926,2.47 -0.706,2.25 -0.487,2.031 -0.314,1.747 -0.188,1.412 -0.063,1.077 0,0.683 0,0.232 m -0.86,0.354 c 0,0.523 -0.153,0.929 -0.459,1.226 C -1.625,2.102 -2.027,2.25 -2.521,2.25 -2.796,2.25 -3.038,2.199 -3.246,2.102 -3.453,1.999 -3.629,1.87 -3.771,1.709 -3.912,1.548 -4.018,1.367 -4.088,1.168 -4.16,0.974 -4.195,0.774 -4.195,0.574 c 0,-0.04 0.007,-0.071 0.024,-0.09 0.016,-0.027 0.054,-0.039 0.117,-0.039 h 3.053 c 0.047,0 0.083,0.006 0.106,0.027 0.023,0.012 0.035,0.05 0.035,0.114" />
      </g>
      <g
         transform="matrix(0.35277777,0,0,-0.35277777,75.043479,183.2117)"
         id="g4609">
        <path
           inkscape:connector-curvature="0"
           id="path4611"
           style="fill:#1b3e90;fill-opacity:1;fill-rule:nonzero;stroke:none"
           d="m 0,0 c 0,-0.09 -0.042,-0.141 -0.13,-0.141 -0.039,0 -0.081,0.013 -0.123,0.025 -0.043,0.012 -0.098,0.032 -0.159,0.046 -0.063,0.019 -0.146,0.031 -0.249,0.051 C -0.762,-0.005 -0.888,0 -1.037,0 -1.178,0 -1.31,-0.013 -1.433,-0.039 -1.553,-0.065 -1.661,-0.116 -1.756,-0.187 -1.849,-0.258 -1.924,-0.355 -1.979,-0.471 -2.035,-0.586 -2.064,-0.735 -2.064,-0.902 v -4.282 c 0,-0.122 -0.062,-0.186 -0.187,-0.186 h -0.401 c -0.125,0 -0.189,0.064 -0.189,0.186 v 5.61 c 0,0.129 0.061,0.187 0.178,0.187 h 0.412 c 0.102,0 0.153,-0.053 0.153,-0.162 V 0.323 c 0,-0.065 0.028,-0.097 0.082,-0.097 0.079,0 0.172,0.026 0.278,0.077 0.106,0.052 0.225,0.11 0.358,0.168 0.135,0.064 0.28,0.123 0.436,0.174 0.159,0.052 0.322,0.077 0.497,0.077 0.18,0 0.3,-0.019 0.358,-0.052 C -0.03,0.645 0,0.594 0,0.535" />
      </g>
    </g>
  </g>
</svg>
