<?xml version="1.0" encoding="UTF-8" standalone="no"?>
<svg xmlns:rdf="http://www.w3.org/1999/02/22-rdf-syntax-ns#" xmlns="http://www.w3.org/2000/svg" xml:space="preserve" height="60.312" viewBox="0 0 76.813476 60.311538" width="76.813" version="1.1" xmlns:cc="http://creativecommons.org/ns#" xmlns:xlink="http://www.w3.org/1999/xlink" xmlns:dc="http://purl.org/dc/elements/1.1/"><g transform="matrix(1.25 0 0 -1.25 -221.59 343.94)"><path d="m238.27 274.79-38.922-0.0789c0.167-0.9135-0.008-1.927-0.52188-2.993l-15.331-31.578c-0.325-0.6695-0.75544-1.2584-1.2859-1.7859h38.508l5.2688 8.1438c-0.357-0.107-6.2948-1.9148-11.494-1.7773l-13.683-0.1375 4.5156 9.432h11.767l3.2836 5.8789-12.178 0.13593 4.5172 9.2953 10.672 0.13672c4.349 0 8.83-1.3668 11.22-2.7328l3.6641 8.0609zm-58.001-42.706-2.65-4.743 44.414 4.1414-41.764 0.60156z" fill="#4c151e"/></g></svg>
