<?xml version="1.0" encoding="UTF-8" standalone="no"?>
<!-- Created with Inkscape (http://www.inkscape.org/) -->
<svg
   xmlns:svg="http://www.w3.org/2000/svg"
   xmlns="http://www.w3.org/2000/svg"
   version="1.0"
   width="536"
   height="135"
   id="svg2"
   xml:space="preserve"><defs
     id="defs5" /><g
     transform="matrix(0,1.25,1.25,0,-59.0625,-252.38039)"
     id="g11"><path
       d="M 207.93004,179.42194 L 207.94828,189.08789 L 238.90777,189.04778 C 240.88398,189.04778 242.5758,189.63482 242.55028,192.37672 C 242.55757,194.87798 240.37717,195.6692 238.64524,195.64368 L 207.97015,195.64368 L 207.97015,205.30963 L 237.65349,205.28775 C 244.58483,205.30963 249.95926,202.15571 249.95926,192.34755 C 249.95926,184.20205 246.07246,179.45111 237.65349,179.45111 L 207.93004,179.42194"
       id="path29"
       style="fill:#0c3d91;fill-opacity:1;fill-rule:evenodd;stroke:none" /><path
       d="M 218.36898,218.46495 L 222.16098,218.47589 L 222.16098,218.57069 C 219.82744,219.41295 217.47932,221.8814 217.45744,224.64883 C 217.47932,228.76169 219.72171,232.38232 223.87468,232.39326 L 248.94928,232.4042 L 248.96751,223.71542 L 227.076,223.71906 C 225.654,223.5878 224.49452,223.06275 224.60755,221.41834 C 224.64401,219.90518 225.50086,219.07751 227.09788,219.07751 L 248.98938,219.07751 L 248.94928,210.35955 L 218.33617,210.37778 L 218.36898,218.46495"
       id="path31"
       style="fill:#0c3d91;fill-opacity:1;fill-rule:evenodd;stroke:none" /><path
       d="M 215.3208,238.46046 L 207.94828,238.46046 L 207.93004,247.193 L 215.34997,247.193 L 215.3208,238.46046 z M 248.94928,238.44952 L 218.33617,238.44952 L 218.34711,247.20029 L 248.96751,247.16383 L 248.94928,238.44952"
       id="path33"
       style="fill:#0c3d91;fill-opacity:1;fill-rule:evenodd;stroke:none" /><path
       d="M 224.60755,251.22929 L 218.33617,251.21106 L 218.34711,254.67491 L 209.59269,254.67491 L 209.61092,263.37463 L 218.34711,263.37463 L 218.33617,267.5276 L 224.60755,267.53489 L 224.6586,263.34911 L 240.74178,263.37463 C 242.52475,263.37463 242.94041,264.11845 242.92218,265.2998 C 242.75081,266.25874 242.75081,266.58689 242.75081,267.53489 L 248.92011,267.5276 C 249.17898,265.64983 249.38317,263.82675 249.38317,261.93805 C 249.41598,257.2418 247.01681,254.67126 242.33515,254.65668 L 224.60755,254.67126 L 224.60755,251.22929"
       id="path35"
       style="fill:#0c3d91;fill-opacity:1;fill-rule:evenodd;stroke:none" /><path
       d="M 235.08295,294.44351 L 226.29208,294.41434 C 219.70712,294.44351 217.38817,288.78832 217.45744,282.68831 C 217.53037,276.00491 220.12278,271.01332 227.94743,271.04614 L 240.42821,271.04614 C 247.46529,271.04614 249.99572,276.47891 249.95926,282.71383 C 249.828,290.25408 246.2256,294.51643 238.3572,294.06066 L 238.39366,285.45938 C 240.94961,285.29895 243.85924,285.60523 243.65506,282.40391 C 243.55297,280.48968 242.13097,279.72034 240.42821,279.73128 L 235.08295,279.72034 L 235.08295,294.44351 z M 229.34026,279.72034 L 227.33123,279.72034 C 225.17635,279.69846 223.2366,280.28914 223.20743,282.78675 C 223.21837,284.99997 225.20552,285.73649 226.32124,285.73649 L 229.34026,285.73285 L 229.34026,279.72034"
       id="path37"
       style="fill:#0c3d91;fill-opacity:1;fill-rule:evenodd;stroke:none" /><path
       d="M 248.98938,313.18109 L 245.40521,313.16651 L 245.40521,313.06806 C 248.35495,311.48563 249.95926,308.82758 249.94832,306.3008 C 249.74049,299.92732 243.7608,298.69492 238.61608,298.68763 L 227.96931,298.73138 C 223.17097,298.68763 217.44651,300.40497 217.45744,306.11849 C 217.47932,308.42651 218.45649,310.66889 221.09266,312.44822 L 221.09266,312.58677 L 207.97015,312.55395 L 207.93004,321.25368 L 248.94928,321.25368 L 248.98938,313.18109 z M 237.91237,307.40194 C 239.74638,307.38735 242.83103,307.40194 242.84561,309.87768 C 242.79821,312.24403 240.46832,312.56489 237.54775,312.54302 L 230.32108,312.57583 C 227.67397,312.58677 224.50546,312.17475 224.57838,310.07822 C 224.58932,307.30349 228.05681,307.37642 230.00751,307.36548 L 237.91237,307.40194"
       id="path39"
       style="fill:#0c3d91;fill-opacity:1;fill-rule:evenodd;stroke:none" /><path
       d="M 257.65994,178.34632 L 257.68181,203.26414 L 265.87472,203.26414 L 265.90754,195.50148 L 298.66458,195.51606 L 298.66458,185.87928 L 265.89295,185.83552 L 265.87472,178.33903 L 257.65994,178.34632"
       id="path41"
       style="fill:#0c3d91;fill-opacity:1;fill-rule:evenodd;stroke:none" /><path
       d="M 284.81649,226.07448 L 276.0402,226.08906 C 269.43701,226.04531 267.10348,220.44117 267.16181,214.37397 C 267.26391,207.64317 269.79798,202.66252 277.68461,202.69169 L 290.16175,202.66252 C 297.15872,202.63335 299.71103,208.14998 299.66363,214.39585 C 299.55789,221.9288 295.94091,226.17657 288.06886,225.75726 L 288.08709,217.10494 C 290.64304,216.93357 293.55632,217.29818 293.3886,214.06405 C 293.27921,212.13158 291.85721,211.34402 290.13988,211.36589 L 284.79826,211.34402 L 284.81649,226.07448 z M 279.05557,211.34402 L 277.04289,211.34402 C 274.90624,211.36589 272.90086,211.98938 272.92638,214.42866 C 272.90086,216.68198 274.95729,217.40757 276.01468,217.38934 L 279.07015,217.3784 L 279.05557,211.34402"
       id="path43"
       style="fill:#0c3d91;fill-opacity:1;fill-rule:evenodd;stroke:none" /><path
       d="M 279.41654,253.0232 C 270.99392,253.52637 267.26391,250.14274 267.16181,241.54511 C 267.17275,234.81795 269.77975,230.77802 277.6518,230.74885 L 290.13988,230.77072 C 297.13684,230.7452 299.6454,235.30289 299.67092,241.54511 C 299.67092,242.82855 299.53966,243.64165 299.51049,244.42922 C 299.08024,248.22486 297.36655,251.52828 293.53809,252.61483 C 291.90826,253.13258 288.08709,253.37688 286.23484,253.37688 L 286.25308,244.94332 C 288.54651,244.93603 293.36672,245.47931 293.36672,242.27069 C 293.34849,240.01737 291.72231,239.47774 289.81901,239.45222 L 277.18509,239.44492 C 275.21617,239.45222 273.46237,239.85694 273.46237,242.1212 C 273.46237,243.39371 274.11868,244.07918 275.39848,244.45109 C 276.56524,244.65528 277.70284,244.60058 278.8842,244.80112 L 279.44206,244.83394 L 279.41654,253.0232"
       id="path45"
       style="fill:#0c3d91;fill-opacity:1;fill-rule:evenodd;stroke:none" /><path
       d="M 270.46158,266.80566 L 270.46158,266.9114 C 267.85823,268.94231 267.19098,271.07895 267.17275,273.52552 C 267.16181,277.75142 270.18448,280.47509 274.14055,280.49697 L 298.64271,280.48603 L 298.68281,271.81548 L 276.92621,271.78266 C 275.17241,271.77537 274.29004,271.34512 274.30098,269.30692 C 274.30098,267.42915 275.96728,266.80566 277.52783,266.79108 L 298.68281,266.80566 L 298.68281,258.09865 L 257.65994,258.12052 L 257.65994,266.81295 L 270.46158,266.80566"
       id="path47"
       style="fill:#0c3d91;fill-opacity:1;fill-rule:evenodd;stroke:none" /><path
       d="M 268.03324,293.84554 L 271.89088,293.86012 L 271.89088,293.95857 C 269.52088,294.79354 267.16181,297.30574 267.13994,300.04765 C 267.16181,304.14592 269.41878,307.82125 273.56811,307.81395 L 298.66458,307.82125 L 298.66458,299.13611 L 276.81318,299.1434 C 275.36931,298.99026 274.20618,298.48709 274.30098,296.82809 C 274.32286,295.30035 275.2344,294.46174 276.82412,294.4982 L 298.68281,294.46174 L 298.66458,285.80942 L 268.04783,285.78754 L 268.03324,293.84554"
       id="path49"
       style="fill:#0c3d91;fill-opacity:1;fill-rule:evenodd;stroke:none" /><path
       d="M 290.16175,312.8894 C 297.15872,312.92586 299.6454,318.03777 299.66363,324.27634 C 299.66363,330.90505 297.11132,335.18928 290.16175,335.65963 L 277.68461,335.65963 C 270.78974,335.63775 267.16181,331.92597 267.17275,324.26905 C 267.17275,317.54918 269.83444,312.89669 277.70284,312.89669 L 290.16175,312.8894 z M 277.01737,321.59277 C 275.07397,321.58183 273.45508,322.25637 273.45508,324.32738 C 273.46237,326.29631 275.07397,326.97449 277.04289,326.95262 L 290.66128,326.94532 C 292.44424,326.79218 293.3886,326.08483 293.3886,324.26905 C 293.3886,322.44962 292.44424,321.76414 290.67586,321.59642 L 277.01737,321.59277"
       id="path51"
       style="fill:#0c3d91;fill-opacity:1;fill-rule:evenodd;stroke:none" /><path
       d="M 298.66458,341.38774 L 257.68181,341.42055 L 257.65994,350.08746 L 298.68281,350.09475 L 298.66458,341.38774"
       id="path53"
       style="fill:#0c3d91;fill-opacity:1;fill-rule:evenodd;stroke:none" /><path
       d="M 290.16175,355.7864 C 297.17695,355.7864 299.68915,360.93112 299.67092,367.13323 C 299.62717,373.75465 297.08944,378.03888 290.12894,378.54205 L 277.72108,378.54205 C 270.7788,378.54205 267.17275,374.80109 267.16181,367.16969 C 267.16181,360.41702 269.83444,355.7864 277.68461,355.7864 L 290.16175,355.7864 z M 277.04289,364.44966 C 275.05574,364.45331 273.45508,365.13514 273.45508,367.13323 C 273.46237,369.18237 275.05574,369.82045 277.06112,369.84232 L 290.71232,369.84232 C 292.46248,369.66002 293.3886,368.94172 293.36672,367.13323 C 293.3886,365.35391 292.44424,364.66478 290.69044,364.42414 L 277.04289,364.44966"
       id="path55"
       style="fill:#0c3d91;fill-opacity:1;fill-rule:evenodd;stroke:none" /><path
       d="M 300.39651,382.95389 C 307.46275,383.14349 309.01966,387.53346 309.01966,394.11112 C 308.99049,400.59763 306.44548,405.76058 299.28078,405.72777 L 268.06606,405.76058 L 268.04783,397.67342 L 271.78878,397.65883 L 271.78878,397.5458 C 268.70049,396.08369 267.29308,393.66629 267.16181,390.63269 C 267.16181,384.91552 272.88263,383.12526 277.72108,383.20912 L 288.27669,383.1836 C 293.00575,383.16902 297.8916,385.36035 297.93171,390.81865 C 297.93171,393.19229 296.62638,395.20132 294.58454,397.00982 L 294.58454,397.12285 L 300.73924,397.09368 C 302.73004,397.07545 303.10195,396.27694 303.26238,394.47209 C 303.43375,391.98177 302.50398,391.63538 300.37463,391.64268 L 300.39651,382.95389 z M 278.82951,391.87603 C 277.27624,391.81405 274.29004,391.98177 274.29369,394.21322 C 274.29004,396.57957 276.26261,397.07545 278.33363,397.06451 L 286.82917,397.06451 C 288.68871,397.05357 290.79618,396.78011 290.77795,394.4174 C 290.81441,392.41566 289.20646,391.82134 287.51829,391.86509 L 278.82951,391.87603"
       id="path57"
       style="fill:#0c3d91;fill-opacity:1;fill-rule:evenodd;stroke:none" /><path
       d="M 265.03611,411.77309 L 257.68181,411.77309 L 257.65994,420.50198 L 265.04704,420.48375 L 265.03611,411.77309 z M 298.66458,411.78403 L 268.04783,411.76215 L 268.04783,420.47282 L 298.66458,420.45823 L 298.66458,411.78403"
       id="path59"
       style="fill:#0c3d91;fill-opacity:1;fill-rule:evenodd;stroke:none" /><path
       d="M 284.81649,434.61989 L 290.16175,434.59437 C 291.86086,434.61989 293.25004,435.41111 293.3886,437.31805 C 293.51986,440.49385 290.64304,440.19122 288.05428,440.40269 L 288.08709,449.00762 C 295.95914,449.41598 299.59071,445.17915 299.6454,437.62068 C 299.76208,431.39669 297.15872,425.92382 290.12894,425.93475 L 277.70284,425.92382 C 269.79798,425.92382 267.26391,430.89352 267.19098,437.61338 C 267.13994,443.66965 269.43701,449.37223 276.03655,449.34306 L 284.79826,449.33942 L 284.81649,434.61989 z M 279.07015,440.64334 L 276.0402,440.6324 C 274.91718,440.6324 272.90086,439.93234 272.90086,437.67172 C 272.88263,435.24703 274.90624,434.61989 277.04289,434.61989 L 279.05557,434.63812 L 279.07015,440.64334"
       id="path61"
       style="fill:#0c3d91;fill-opacity:1;fill-rule:evenodd;stroke:none" /><path
       d="M 277.11581,474.50517 C 270.34855,474.81145 267.17275,469.74329 267.16181,463.39898 C 267.20921,457.32814 270.00581,452.04851 276.6564,452.05945 C 278.8842,452.08497 280.66352,452.80326 282.39544,454.27631 C 285.5202,456.99634 286.83646,461.88948 288.67048,465.36062 C 289.22469,466.08255 290.09248,466.50551 291.0186,466.49457 C 293.01304,466.49457 293.91364,465.26946 293.91364,463.40263 C 293.89177,460.78834 291.46343,460.15026 289.31584,460.28517 L 289.31584,451.96829 C 296.69566,451.60368 299.66363,456.46035 299.66363,463.32971 C 299.67092,469.74329 296.76858,474.92448 289.93934,474.95 C 282.67255,474.92812 281.17763,468.85363 278.59615,463.23855 C 277.95808,461.92229 277.15592,460.55498 275.48963,460.55498 C 273.6702,460.56228 272.92638,461.72175 272.92638,463.45368 C 272.91909,466.25392 275.05574,466.12631 277.13769,466.36695 L 277.11581,474.50517"
       id="path63"
       style="fill:#0c3d91;fill-opacity:1;fill-rule:evenodd;stroke:none" /><path
       d="M 249.31024,116.93415 L 242.77998,146.62478 C 241.7226,146.43154 240.67251,146.17995 239.64429,145.91743 L 246.18914,116.15752 C 247.20641,116.50026 248.24557,116.7482 249.31024,116.93415"
       id="path65"
       style="fill:#0c3d91;fill-opacity:1;fill-rule:evenodd;stroke:none" /><path
       d="M 245.02601,115.71634 L 229.96011,142.21658 C 228.99752,141.70977 228.05681,141.19566 227.13069,140.64509 L 242.16378,114.22506 C 243.07168,114.79386 244.01603,115.30797 245.02601,115.71634"
       id="path67"
       style="fill:#0c3d91;fill-opacity:1;fill-rule:evenodd;stroke:none" /><path
       d="M 237.22324,109.75852 L 210.93083,125.1854 C 210.1068,123.96029 209.3484,122.70966 208.66292,121.40798 L 234.92981,105.97746 C 235.54966,107.33383 236.31535,108.60269 237.22324,109.75852"
       id="path69"
       style="fill:#0c3d91;fill-opacity:1;fill-rule:evenodd;stroke:none" /><path
       d="M 240.93138,113.38645 L 219.24771,134.86594 C 218.25595,133.97263 217.30795,133.04651 216.39641,132.09851 L 238.01811,110.70652 C 238.89318,111.69828 239.86306,112.58794 240.93138,113.38645"
       id="path71"
       style="fill:#0c3d91;fill-opacity:1;fill-rule:evenodd;stroke:none" /><path
       d="M 234.67458,105.45971 L 205.18814,113.27706 C 204.72143,111.81495 204.33129,110.33462 203.98855,108.82511 L 233.42031,101.02598 C 233.68283,102.55737 234.09484,104.05229 234.67458,105.45971"
       id="path73"
       style="fill:#0c3d91;fill-opacity:1;fill-rule:evenodd;stroke:none" /><path
       d="M 252.37666,117.19668 C 263.0052,117.19668 271.61377,108.58811 271.61377,97.974154 C 271.61377,87.3602 263.0052,78.751631 252.37666,78.751631 C 241.76635,78.751631 233.15778,87.3602 233.15778,97.974154 C 233.15778,98.681508 233.21612,99.396154 233.28175,100.1108 L 233.15778,100.07798 L 202.82543,100.07798 C 202.8072,99.366985 202.78897,98.670569 202.78897,97.974154 C 202.78897,97.099077 202.8072,96.238585 202.8546,95.389031 L 233.15778,95.389031 L 203.90469,87.531569 C 204.26566,85.777769 204.74331,84.064077 205.29388,82.386846 L 232.70201,89.763015 L 208.15246,75.532077 C 209.04577,73.745462 210.05575,72.009892 211.16783,70.361831 L 234.09484,83.659354 L 215.53957,64.761338 C 216.9324,63.219015 218.41274,61.778785 219.97694,60.415123 L 237.61703,78.751631 L 225.12166,56.521031 C 226.90098,55.346969 228.75688,54.293231 230.6784,53.345231 L 242.77998,74.055385 L 236.54141,50.960646 C 238.59784,50.267877 240.74178,49.699077 242.92218,49.265185 L 248.64664,71.014492 L 248.86541,48.488554 C 250.02854,48.419277 251.19531,48.35 252.37666,48.35 C 253.56895,48.35 254.75031,48.419277 255.91343,48.488554 L 255.91343,70.307138 L 261.63424,49.232369 C 264.05164,49.684492 266.43623,50.329862 268.71872,51.132015 L 263.86204,70.5332 L 273.80511,53.206677 C 276.0876,54.311462 278.28258,55.580323 280.33901,56.991385 L 271.37677,73.103738 L 284.28415,59.984877 C 286.40986,61.760554 288.35691,63.722185 290.16175,65.826015 L 278.6472,78.036985 L 293.06409,69.574262 C 294.62464,71.834877 296.06123,74.259569 297.24623,76.775415 L 284.26228,84.833415 L 299.01461,81.023185 C 300.00637,83.732277 300.73924,86.568985 301.25335,89.471323 L 288.24388,93.263323 L 301.78569,93.507615 C 301.91331,94.977015 301.99352,96.464646 301.99352,97.974154 C 301.99352,99.633154 301.91331,101.27757 301.731,102.90011 L 288.96217,102.90011 L 301.16949,106.95828 C 300.58975,110.15595 299.68915,113.2406 298.52603,116.19034 L 286.85469,113.20778 L 296.91808,119.83649 C 295.35752,122.97948 293.49069,125.92922 291.34675,128.64925 L 281.93238,122.81905 L 289.04603,131.35834 C 286.59581,134.06378 283.83568,136.49212 280.81666,138.59231 L 273.72489,131.02289 L 278.06381,140.41903 C 274.6656,142.47546 271.01215,144.13446 267.16181,145.33405 L 263.16563,137.35991 L 264.03341,146.17995 C 260.28152,147.08055 256.39472,147.57278 252.37666,147.57278 L 252.37666,117.19668"
       id="path75"
       style="fill:#0c3d91;fill-opacity:1;fill-rule:evenodd;stroke:none" /></g></svg>