<?xml version="1.0" encoding="UTF-8" standalone="no"?>
<svg xmlns:rdf="http://www.w3.org/1999/02/22-rdf-syntax-ns#" xmlns="http://www.w3.org/2000/svg" xml:space="preserve" height="71.567" viewBox="0 0 418.49091 71.566803" width="418.49" version="1.1" xmlns:cc="http://creativecommons.org/ns#" xmlns:dc="http://purl.org/dc/elements/1.1/"><g transform="matrix(1.25 0 0 -1.25 -624.74 175.92)"><g style="" transform="matrix(.25 0 0 .25 500.38 84.066)"><path d="m75.123 217.09c2.955 0.139 5.853-1.447 8.801-1.543-0.685 1.204-3.636 1.535-5.2 1.854-1.707 0.35-2.54 0.681-3.601 0.318-1.039-0.356-0.723-0.109 0-0.629zm55.784-47.752-1.174 0.256c1.852-1.742 4.693-3.858 6.598-5.432 1.077-0.841 2.37-1.3 3.082-2.376 0.904-0.775 10.207-8.773 12.094-9.622 3.602-1.905 12.354-10.19 14.647-11.217 1.286-1.56 5.755-3.873 6.44-4.957 0.867-0.395 2.533-1.482 3.369-1.411-2.944 2.758-7.2 5.155-10.311 7.712-0.844 1.486-2.214 1.594-3.16 3.023-0.343 0.579-21.2 16.528-31.585 24.024zm-8.698 6.058-1.201 0.163c2.076-1.37 5.43-3.574 7.306-4.977-1.111 2.088-3.834 3.272-6.105 4.814zm-16.83 16.065-0.491 0.771 0.18 0.552c15.224-7.206 28.476-16.168 41.016-26.618 1.327-0.382 1.236-1.16 2.122-1.48 9.227-7.447 19.329-14.206 28.256-21.742 4.355-3.632 8.957-6.898 13.878-10.003 0.316-0.123 8.174-4.983 12.08-6.551l0.67 0.585c-1.179 1.056-4.481 2.635-5.211 3.304-2.21 1.51-8.687 5.89-9.843 5.934-1.499 0.709-9.365 7.865-12.213 9.601-0.891 1.6-3.07 1.904-3.72 3.415-1.582 1.199-3.126 2.75-4.857 3.539 0.007 0.542-2.818 2.363-3.785 3.242-0.448 0.175-0.563 0.418-0.806 0.502-0.89 1.596-2.795 1.959-4.017 3.393-2.532 0.813-3.681 3.224-6.066 4.241-0.837 0.817-1.396 0.954-1.875 1.674-1.925 1.498-3.83 3.076-6.002 4.395-2.027 2.81-5.439 3.657-7.622 6.239-2.111 1.012-7.714 4.832-7.888 5.621 0 0-7.987 5.042-8.968 5.587-2.191 1.204-4.34 2.786-7.718 4.556l-1.152 1.116c0.433 0.488 2.51-0.002 3.099-0.666 1.62-1.391 5.02-3.093 6.98-3.973 1.365-1.301 4.119-2.694 5.56-4.021 4.359-2.36 8.144-4.88 12.201-7.859 0.724-0.263 1.119-0.953 1.77-1.455 0.68-0.149 1.483-1 2.194-1.335 0.959-0.899 1.845-1.801 2.947-2.554 1.268-1.08 4.265-3.388 4.265-3.388 6.831-3.654 9.702-7.151 15.312-11.139 0.525 0.192 1.975-1.596 2.412-1.106-0.031 1.198 2.589 0.895 1.003 2.097l-1.81 1.384c-3.066 1.631-6.709 5.014-10.494 7.445 0 0-4.571 3.16-4.427 3.754-0.666 0.687-11.178 7.596-12.612 9.473-1.301 0.179-3.404 2.702-6.032 4.579-0.788 0.104-5.028 3.334-6.827 4.424-0.791 1.104-2.101 1.016-2.869 2.204-4.616 1.9-9.401 5.14-14.396 7.542 0 0-1.757 0.711-2.433 0.852-1.329 1.389-3.184 1.316-4.812 2.346-1.487 0.709-3.491 1.506-4.975 2.208-1.289 0.737-3.651 1.889-3.636 2.343 0.822 0.261 1.89-0.187 2.537-0.582 3.541-0.797 8.969-3.359 8.969-3.359 1.867-0.578 6.446-2.4 8.903-3.862 4.892-1.909 8.204-4.48 12.757-7.102 5.724-2.654 10.243-6.35 15.929-9.359 4.176-3.93 9.558-6.749 13.761-10.605 2.544-2.357 6.275-3.86 8.687-6.352 0.7-0.072 1.046-0.652 1.422-1.142 1.628-1.303 4.18-3.208 5.804-4.248 1.575-1.001 4.021-4.127 6.261-4.868 0.707-0.23 1.727-1.549 2.332-0.122-4.318 4.065-9.202 7.532-14.195 10.935-7.151 4.827-12.472 10.207-19.413 14.732-1.262 1.353-3.822 2.419-4.99 4.015-3.781 1.698-6.393 4.81-9.923 6.145-4.115 3.099-13.031 6.853-17.519 9.892-2.172 2.092 8.421-2.73 10.345-4.504 0.943-0.374 0.94-0.677 1.172-0.761 1.376-1.022 2.46-0.793 3.891-2.08 0.753-0.498 2.597-0.989 3.45-1.985 1.152-0.315 1.917-1.498 3.252-1.879 2.16-0.586 2.613-2.66 5.108-3.08 1.521-1.357 3.419-2.286 4.651-3.729 2.203-1.984 4.432-2.574 6.428-4.469 1.967-0.974 2.283-2.517 4.001-3.178 1.153-0.865 2.339-1.678 3.291-2.842 1.452-0.534 4.267-3.383 4.788-3.475 2.328-1.913 4.477-2.965 6.804-4.882l0.764-0.259 0.161 0.777c-0.412 0.839-1.404 1.702-2.226 2.27-1.844 0.737-3.099 2.975-5.321 3.393-1.179 0.783-1.635 2.156-2.875 2.776-0.7 0.339-3.628 2.732-4.618 3.812-0.212 0.163-1.954 1.686-2.76 2.244-2.88 1.381-5.675 3.636-8.254 5.368-2.217 1.239-3.522 3.198-5.782 4.282-1.871 1.654-4.024 2.879-6.625 4.198-1.517 0.632-2.556 2.097-4.078 2.439-3.183 1.038-5.746 3.591-8.583 4.868 0 0-3.971 2.405-5.74 2.846-0.928 0.424-4.614 2.251-6.576 3.256-8.292 4.318-16.796 6.599-23.749 8.885l-0.514 1.042c1.058-0.373 3.218-0.309 4.12-1.088 2.35-0.44 4.195-1.506 6.093-2.084 5.846-1.78 11.113-3.914 16.362-6.592 4.713-1.389 9.228-4.079 13.115-6.271 2.708-1.321 5.412-2.736 8.242-4.007 1.505-0.897 3.476-1.775 5.05-2.975 0.259-0.083 3.929-3.114 5.892-3.722 0.935-1.235 2.381-1.02 3.302-2.252 1.738-0.526 2.757-2.347 4.545-3.188-0.034-0.06 3.012-2.168 5.123-3.575 1.296-0.464 5.937-6.139 7.649-4.653-3.853 3.557-7.87 6.843-12.419 9.719-0.894 1.598-5.29 3.606-5.876 4.264-2.027 2.267-5.892 2.644-7.907 4.91-1.195 0.986-3.846 2.819-5.53 3.226-1.56 1.008-4.458 2.837-5.812 3.13l-3.652 2.104c-0.03 0.411 0.772 0.482 1.286 0.307 0.628-0.215 1.677-0.797 2.403-1.14 3.66-1.53 7.844-4.427 8.886-4.306l0.707 0.684c-1.525 1.195-5.298 3.1-7.31 4.053-8.284 5.483-25.655 11.338-26.042 11.557-1.693 0.873-3.953 0.94-5.66 2.005-3.484 0.94-9.186 3.084-13.251 3.698-1.465 0.247-3.652 1.395-5.565 1.301-1.973-0.122-4.701 0.5-6.85 0.863-1.293-0.072-2.16-0.034-4.145 0.394 0.692 0.393 4.758 0.343 5.666 0.247l4.466-0.649c2.518-0.347 5.344-0.391 7.618-1.188 1.621-0.163 2.465-0.432 3.754-0.888 6.576-0.773 13.423-3.559 19.919-5.313 12.654-4.591 22.007-9.433 30.805-14.905 21.051-11.383 30.396-19.892 36.885-25.152 3.541-2.892 6.968-5.839 10.836-8.3 0.651-0.498 5.412-4.557 7.383-5.707 1.004-1.542 23.06-16.259 24.946-17.65 2.23-1.714 3.45-1.812 5.059-2.979 3.499-1.959 5.938-3.446 10.562-5.189 12.358-5.645 25.708-6.584 30.607-6.659 2.579-0.186 8.177 0.552 11.779 1.46 0.217-0.195 6.112 1.22 14.073 4.328 0.506 0.18 0.749 0.213 0.829 0.1 0.08-0.124 0.231-0.319-0.209-0.674-6.542-6.231-14.134-10.78-16.427-11.936-8.688-5.306-21.178-8.277-25.187-8.771-5.359-1.213-13.65-1.479-20.325-0.921-7.653 0.251-20.901 3.36-23.814 5.554-2.442 0.59-4.191 2.411-6.321 3.349-1.099 1.025-2.701 0.853-3.716 2.137-1.27 0.533-2.024 0.988-3.348 1.626-0.479 0.717-1.567 1.073-2.444 1.578-0.804 0.58-1.069 1.47-1.697 1.753-4.705 1.921-7.623 5.803-11.799 8.182-2.362 2.255-9.847 7.524-12.653 10.489l-0.316 0.371 0.95 0.031 1.663-1.594 0.833-0.434c4.845-4.077 13.643-10.517 19.066-13.98 1.111-1.439 4.614-2.276 6.336-3.607 0.875-0.076 0.777-0.757 1.325-0.769 3.408-1.475 6.515-3.762 9.759-4.906 0.536-0.908 3.682-2.267 3.975-1.128-2.883 1.383-5.877 3.254-8.752 4.912-2.327 0.917-4.359 2.637-6.706 3.736-6.431 3.734-12.163 7.883-18.115 12.442l-4.611 3.428-0.501 0.992c-1.685 1.411-3.157 2.837-5.747 3.864-1.381 1.217-2.545 1.99-3.689 3.397l-1.145 0.691c-1.667 1.495-2.655 2.565-4.442 3.93-1.134 0.946-2.819 1.088-3.781 2.24l-0.776 0.639c-1.488 0.439-2.339 1.65-3.051 2.722-1.255 1.078-2.263 1.614-3.678 2.485-2.495 1.975-13.392 9.794-13.988 10.993-1.777 2.176-8.24 4.366-9.993 6.626-5.8 3.688-8.173 4.549-14.049 7.809l-0.685 0.347" fill="#fc0"/><path d="m231.63 39.666c-0.81273-0.01551-1.6116-0.01-2.2988 0.03125 0.225 0.26875 0.23438 0.59336 0.82813 0.56836 1.44 0.18125 2.3948 0.14906 3.5273 0.16406 0.97875 0.31625 2.5101 0.52094 3.2988 0.39844 0.5475 0.175 1.232 0.28906 1.582 0.19531 1.1088 0.4125 2.8367 0.19844 3.9492 0.61719l3.4121 0.63281c2.425 0.47625 13.46 4.1208 14.301 5.1445-0.0662 0.0225 2.1119 0.84383 2.6719 1.2676 0 0 2.086 1.1983 3.1035 1.582 0.13375 0.055 2.0654 1.1668 3.7441 2.248 1.9012 1.195 3.3364 2.3756 3.4414 2.4844l0.0801 1.0254-1.1641-0.16797c-1.18-0.6675-2.3108-1.5315-3.5195-2.1465-1.0775-0.7675-2.1429-1.1962-3.4316-2.0137-1.2038-0.7825-2.6707-1.6463-3.9707-2.0801-2.9662-1.5762-5.4946-2.6471-8.8184-3.7559-1.0838-0.36-2.7427-1.1555-4.0215-1.293-5.345-1.43-3.5859-1.0465-9.0059-1.709l-0.14649 0.39648c0.75125 0.27625 2.2681 0.44633 3.4844 0.58008 0.57 0.0525 1.2217 0.28453 1.5742 0.26953 0.51875 0.21375 1.1738 0.32 1.9863 0.59375 4.4125 1.45 9.4906 3.3638 13.797 5.6875 0.42375 0.5425 6.0391 3.5762 6.0391 3.5762l2.1856 1.4355c2.9375 1.44 12.434 8.2029 13.119 8.9629 4.0225 2.4775 7.6152 5.803 11.209 8.668 2.8012 1.945 4.688 4.3678 7.0742 6.6641-0.385 0.7525-0.92094-0.215-1.3359-0.125-1.15 0.25625-2.7238-2.141-3.5937-2.7285-0.86126-0.8675-3.0657-2.9498-3.4707-2.9961-1.3262-1.3975-3.3614-2.3885-4.7539-3.7285-2.335-2.1825-5.1393-3.0186-7.4356-5.2461-3.22-1.7638-6.0809-4.8577-9.3184-6.4414-2.5538-1.5112-4.5449-2.868-7.3262-4.0293-0.82375-0.80875-2.2212-1.0371-3.0762-1.8184-1.4312-0.64375-4.1033-2.4462-11.957-4.8574l-1.6309-0.27734c0.0325 0.23625 4.5681 1.7911 5.2969 2.2148 0.84 0.41875 3.4839 1.5597 4.3164 1.9922 0.92625 0.59 4.2539 2.3965 4.2539 2.3965 2.825 1.4225 5.3594 3.4779 7.9844 4.6191 0.40375 0.66375 3.8222 2.1616 4.5547 3.0879 1.4687 0.99125 6.4752 4.4928 7.5215 5.8203 1.2888 0.87375 3.6173 2.397 3.9785 2.7832 0.72375 0.545 2.8203 2.3184 2.8203 2.3184 2.125 1.4075 5.8092 4.6755 6.1367 4.793 0.0812 0.0825 0.22336 1.0376-1.1504 0.89258-3.1288-2.2912-3.4517-2.8512-6.4805-5.25 0 0-4.1033-2.9987-4.8008-3.6074-0.61-0.4375-1.1659-0.88852-1.6934-1.3848l-2.1406-1.5195c-2.2575-1.7138-4.6352-3.4133-7.0977-4.8008-0.80375-0.7525-2.2963-1.2087-3.0488-1.9512-1.1212-0.51875-4.0165-2.1555-4.5527-2.5293-1.82-0.82625-2.7446-1.3837-4.0996-1.7324l-0.19336 0.19141c0.9975 0.775 2.2245 1.1884 3.3145 2.0059 1.6638 0.6325 3.0948 1.8038 4.6348 2.6875 0.55625 0.30875 5.0352 3.2441 5.0352 3.2441l2.8848 2.2188c1.4462 0.7125 8.0499 6.2302 9.1387 7.084 0.25125 0.40625 5.7859 4.7616 6.6797 5.4941l2.5234 1.9629c0.98875 0.46375 5.022 3.6885 5.502 4.5723l2.2578 1.9043c0.2125 0.25875-0.0954 1.0768-0.93164 0.6543-4.9725-4.275-10.977-8.4908-16.107-12.738-0.50375-0.19375-2.2109-2.518-2.8672-2.373-6.96-5.9488-14.116-10.905-22.74-15.18l0.0957 0.49414 0.35742 0.36133c3.3088 1.9 6.1949 4.0009 9.4512 6.1484 0.955 1.2625 10.202 7.7125 11.594 8.8438 0.8 0.4975 1.647 1.203 2.332 1.8105 1.045 1.5375 4.7435 4.2023 5.666 5.0586-0.0375 0.09 2.654 1.9241 3.4277 2.6191 1.2888 0.58375 3.4805 2.7246 3.4805 2.7246l1.5352 1.6133c1.3125 1.2025-1.7787 0.78391-0.66993 2.1914 2.4488 2.2988 7.4924 5.8656 11.482 8.2344 4.4388 2.7725 16.867 9.8208 34.311 7.4883 3.4275-0.385 13.079-3.4909 14.33-4.1934 0.675-0.28125 2.1642-0.99391 3.9805-2.0352 0.9175-0.605-0.41992-0.63281-0.41992-0.63281-7.0262-0.0275-13.217-1.6403-18.404-2.9453-3.46-0.8675-5.5849-1.9661-8.2949-3.0586-1.8875-0.8675-3.9993-1.9262-5.9668-3.0762-2.1925-1.2038-5.1546-3.2523-6.1621-3.8848-1.735-1.2175-10.108-7.1382-10.65-8.002-1.1062-0.66-8.1907-6.3666-10.158-8.0078-3.6138-2.675-12.334-9.4388-12.889-9.5-1.8362-1.345-13.661-10.012-24.957-13.938-3.6562-1.31-7.9302-3.2277-11.709-3.8164-0.7275-0.27875-4.7775-1.0423-6.2188-1.291 0 0-4.2218-0.52164-5.5293-0.55664-0.0722-0.01875-2.638-0.25426-5.0762-0.30078zm17.609 14.346 0.46093 0.73633c2.4625 0.90875 4.4297 2.3352 6.0547 2.6914l-0.0781-0.57617c-0.83625-0.38375-0.88149-0.35625-1.6465-0.8125-2.0788-1.2175-4.3635-1.8816-4.791-2.0391zm11.271 9.9551c0.60375 0.94125 4.7588 5.2055 5.5625 5.373 0.59875 0.5175 9.807 7.7205 10.939 8.248 2.1388 1.1512 7.7262 7.1718 11.107 8.6543 0.49375 0.6 1.053 0.55047 1.748 1.0742 0.51375 0.24375 1.3934 0.14281 1.9121 0.13281-1.7062-1.5938-3.8326-2.7936-5.6426-4.2773-0.4625-0.8225-1.9797-1.6043-2.5547-2.2168-6.1188-4.35-11.682-9.147-17.775-13.551 0 0-3.6374-2.5585-4.7461-3.291l-0.55078-0.14648zm115.98 56.904-11.875 11.543-51.666 115.64-23.424-67.18c-1.84-5.21-2.7138-7.1758-4.6113-7.1758-1.84 0-2.5495 1.4306-4.6133 7.0293l-27.027 72.5s-12.704-45.391-14.691-52.748l-7.5625-27.24h-23.734l0.78516 4.5059c1.1988 0 4.1251 0.17218 5.5176 0.71093 2.92 1.12 4.4614 2.69 6.5352 9.5312l23.746 79.109c2.7375 9.3062 3.4755 11.514 5.9668 11.514 2.6338 0 3.523-2.3376 5.6543-7.9414 4.2162-10.88 26.713-71.162 26.713-71.162l25.045 71.262c1.95 5.435 2.9197 7.8418 5.2734 7.8418 2.535 0 3.2839-2.1407 6.8789-12.377l57.09-145.37zm200.21 50.135c-2.8188-0.2325-2.9414 3.8912-2.9414 8.0312v85.697c-0.26625 4.7675-2.1307 6.7091-5.2207 7.2578-1.565 0.27375-2.8485 0.41211-4.2598 0.41211l-0.63281 3.7012h20.805v-77.457c4.5025 5.0762 15.446 17.101 30.746 33.59 14.254 15.336 33.461 34.927 34.893 36.232 7.6538 7.6675 9.0129 8.9024 10.65 8.9024 0.6025 0 1.1064-0.19063 1.4726-0.57813 0.86625-0.845 1.1758-2.1578 1.1758-10.258v-72.682l0.1836-9.2695c0.26625-4.7725 2.0166-6.7009 5.1016-7.2734 1.5738-0.25375 2.7488-0.38672 4.1738-0.38672l0.72851-3.7031h-21.252v78.895c-2.0012-2.0625-1.8168-2.5974-7.2168-8.5274l-20.32-22.11c-20.705-22.18-40.473-43.542-42.408-45.738-0.38125-0.38375-3.5902-4.5464-5.6777-4.7227zm296.96 0.1582c-2.8088-0.22375-2.9336 3.9026-2.9336 8.0176v85.699c-0.26375 4.785-2.1298 6.6977-5.2148 7.2852-1.57 0.25875-2.8445 0.38476-4.2695 0.38476l-0.62304 3.7246h20.803v-77.461c4.51 5.065 15.443 17.096 30.74 33.59 14.254 15.328 33.464 34.934 34.906 36.232 7.6488 7.6538 8.9894 8.8828 10.641 8.8828 0.605 0 1.103-0.1968 1.4805-0.56055 0.8575-0.87125 1.1621-2.1591 1.1621-10.258l0.17969-81.953c0.28125-4.78 2.0309-6.699 5.1172-7.2715 1.5638-0.26 2.7366-0.39844 4.1641-0.39844l0.72656-3.6973h-21.248v78.908c-2.0025-2.0775-1.8147-2.6034-7.2109-8.5371l-20.334-22.133c-20.682-22.166-40.469-43.519-42.389-45.734-0.38625-0.37125-3.6048-4.5607-5.6973-4.7207zm-868.2 0.12c-1.4162 0-1.8916 0.97946-2.2441 2.5332l-3.2188 19.22h2.8906c1.1412-3.0238 1.4637-3.9465 2.9512-6.1777 1.7362-2.55 4.4281-5.123 12.516-5.4043h20.088v83.35c-0.01125 4.7075-2.0164 6.691-5.0977 7.2598-1.57 0.27375-2.7582 0.38672-4.1895 0.38672l-0.70898 3.6582h23.445v-94.654h18.365c16.169 0.7375 17.221 12.004 17.221 12.004h3.3887l-3.1836-21.346c-0.87625 0.17375-6.9377 0.92188-13.223 0.92188h-49.777c-4.26 0-9.3962-0.2525-13.375-0.65625-1.9775-0.16-5.2902-1.0898-5.8477-1.0898zm144.11 0.0273c-21.394 0-34.174 10.048-41.135 18.477-8.0062 9.6712-12.777 22.781-12.777 35.047 0 15.181 5.6528 29.545 15.508 39.414 9.4038 9.395 22.412 14.371 37.602 14.371 15.176 0 28.484-5.2967 38.5-15.324 10.37-10.362 16.08-24.787 16.08-40.604 0-14.606-4.8548-27.17-14.041-36.357-9.6838-9.6875-23.8-15.023-39.736-15.023zm248.97 0c-17.325 0-28.969 10.198-28.969 25.367 0 9.215 3.0372 17.843 17.836 29.998l6.0059 4.9395c11.654 9.6075 14.848 14.567 14.848 22.961 0 8.15-6.0988 16.391-17.719 16.391-4.7825 0-16.596-1.2009-18.893-12.523-0.37125-1.7338-0.37109-3.2238-0.37109-5.5625h-4.2324c0 1.2038-0.67969 10.275-0.67969 15.715 0 3.6262 0.14391 4.9665 2.7539 6.2715 5.1725 2.5212 11.21 3.752 18.479 3.752 8.215 0 15.436-2.0306 20.924-5.8594 8.7862-6.2362 11.92-16.1 11.92-23.244 0-10.556-3.2722-19.244-19.992-32.418l-3.7402-2.9414c-12.661-10.366-15.762-14.555-15.762-21.35 0-3.9925 1.3174-7.4248 3.8262-9.9023 2.6962-2.7325 6.6892-4.2207 11.23-4.2207 10.849 0 15.024 5.4304 16.064 7.3379 1.4312 2.63 1.6866 5.9783 1.8066 7.457h3.3809l1.0352-17.885c0-0.24375 0.23391-1.3945-0.58984-1.6133-1.8012-0.46875-3.9212-0.76633-6.4824-1.2988-3.855-0.94125-7.8972-1.3711-12.68-1.3711zm95.955 0c-21.4 0-34.178 10.048-41.129 18.477-8.005 9.6712-12.779 22.781-12.779 35.047 0 15.181 5.652 29.545 15.502 39.414 9.41 9.395 22.413 14.371 37.598 14.371 15.176 0 28.499-5.2967 38.512-15.324 10.368-10.362 16.074-24.787 16.074-40.604 0-14.606-4.8591-27.17-14.039-36.357-9.68-9.6875-23.787-15.023-39.738-15.023zm963.71 0.13476c-1.4375 0-1.9 0.985-2.25 2.5312l-3.2109 19.225h2.875c1.15-3.0462 1.4617-3.9534 2.9492-6.1934 1.75-2.545 4.4379-5.1172 12.525-5.3984h20.074v83.34c0 4.7175-2.0004 6.7001-5.0879 7.2676-1.575 0.26875-2.7625 0.40625-4.1875 0.40625l-0.7109 3.6406h23.449v-94.654h18.363c16.162 0.7375 17.211 12.016 17.211 12.016h3.4004l-3.1992-21.348c-0.875 0.17875-6.9504 0.91602-13.213 0.91602h-49.775c-4.275 0-9.3863-0.25313-13.361-0.67188-1.9875-0.14875-5.3016-1.0762-5.8516-1.0762zm-95.537 0.0352c-17.338 0-28.963 10.192-28.963 25.355 0 9.2212 3.0254 17.843 17.838 29.998l6 4.9434c11.662 9.6188 14.85 14.551 14.85 22.965 0 8.14-6.0871 16.395-17.725 16.395-4.775 0-16.588-1.2266-18.875-12.525-0.375-1.7375-0.375-3.2371-0.375-5.5684h-4.2246c0 1.2075-0.6875 10.289-0.6875 15.709 0 3.625 0.125 4.9609 2.75 6.2734 5.175 2.5125 11.212 3.7305 18.475 3.7305 8.2125 0 15.437-2.0152 20.912-5.834 8.7875-6.2388 11.926-16.103 11.926-23.252 0-10.564-3.2625-19.232-20-32.408l-3.7246-2.9453c-12.662-10.364-15.764-14.576-15.764-21.346 0-3.995 1.3258-7.4176 3.8008-9.9238 2.725-2.705 6.7242-4.2031 11.262-4.2031 10.838 0 15.025 5.418 16.062 7.3418 1.4375 2.6275 1.6766 5.9854 1.7891 7.4629h3.3984l1.0391-17.879c0-0.26 0.2234-1.425-0.6016-1.625-1.8-0.45-3.9121-0.76453-6.4746-1.3008-3.85-0.92875-7.9125-1.3633-12.688-1.3633zm-129.37 1.6484 0.6992 3.7266c1.4025 0 2.6155 0.12461 4.1855 0.38086 3.06 0.57125 4.8739 2.4431 5.1426 7.2031v91.824h14.022v-93.916c0-0.94375 5.7879-1.7598 9.3379-1.7598 6.6625 0 12.636 1.8214 16.799 5.4727 3.9875 3.485 6.9121 7.7308 6.3496 15.582-1.125 15.241-12.623 21.828-17.461 24.969 1.6375 22.611 24.312 49.895 42.975 49.895h2.5371l-0.625-3.7109c-1.0125 0-24.575-16.261-31.412-45.336 0 0 18.236-8.016 18.236-27.604 0-9.8975-3.3242-16.623-9.3867-20.986-7.4125-5.3562-17.338-5.7402-25.463-5.7402h-35.936zm-489.27 0.0644 0.77929 3.6309c2.0738 0 3.8227 0.15562 4.7402 0.39062 3.8 0.80125 5.3828 2.37 5.3828 7.0312v47.877c0 17.368 3.7646 28.154 12.256 35.959 9.5088 8.7188 23.519 9.3906 29.42 9.3906 9.0575 0 19.068-1.7084 27.445-9.3809 11.781-10.78 10.867-24.514 10.867-41.195v-42.65c0-4.77 1.4952-6.4597 4.5664-7.0234 1.5612-0.27375 2.6768-0.39844 4.0918-0.39844l0.78125-3.6309h-20.369v56.119c0 14.26-0.43149 25.719-7.459 32.732-6.3375 6.3512-16.192 7.043-19.506 7.043-4.8538 0-11.339-0.64398-17.059-5.334-5.305-4.3388-10.064-11.263-10.064-32.43v-58.131h-25.873zm247.2 0 0.74414 3.8203c2.0825 0 3.0915 0.16516 3.9902 0.37891 3.81 0.8075 5.1158 2.3921 5.3946 7.0371v91.834h24.213l-0.9414-4.1113c-2.0825 0-2.8891-0.15445-3.7891-0.37695-3.8025-0.81375-5.3122-2.3829-5.5859-7.0254v-91.557h-24.025zm39.709 0 0.67 3.5977c1.4275 0 2.9794 0.18289 4.5332 0.43164 4.6375 0.7625 7.016 2.5373 10.072 9.8398l32.961 81.779c2.5925 6.4038 4.1432 8.5684 6.3769 8.5684 2.9738 0 4.4782-4.9953 6.7207-9.8203 0 0 28.319-68.236 32.094-77.086 5.7687-13.495 11.631-17.223 11.631-17.223h-16.756l-32.096 80.955-30.418-81.043h-25.789zm114.81 0 0.627 3.5977c1.405 0 2.673 0.14093 4.248 0.39843 3.07 0.565 4.8382 2.2759 5.1094 7.0234v92.051h53.154l3.6563-18.598h-3.8262c-0.9188 5.405-2.4577 7.6852-5.6602 9.1602-3.3575 1.5438-12.712 2.1367-16.064 2.1367-13.721 0-17.922-4.626-17.922-12.791v-30.756h28.803l1.5762-8.7305h-30.379v-35.197c0.017-0.01 24.408-0.085 26.674 0 6.645 0.21875 7.7329 2.7582 8.5391 4.8457 0.6013 1.4388 0.7676 3.4927 0.7676 4.9902h2.998l3.3477-18.131h-65.648zm261.66 0 0.7246 3.8203c2.1 0 3.0875 0.16516 4 0.37891 3.8125 0.8075 5.1254 2.3921 5.4004 7.0371v91.834h24.213l-0.9492-4.1113c-2.0625 0-2.8879-0.15445-3.7754-0.37695-3.8375-0.81375-5.3133-2.3829-5.6133-7.0254v-91.557h-24zm140.2 0 0.6621 3.5918c1.425 0 2.9754 0.16375 4.5254 0.4375 4.6625 0.7625 6.3984 2.5723 10.211 9.4961 6.325 11.462 17.275 30.506 22.963 40.701l0.025 0.084c1.75 3.8825 3.0879 6.7491 3.0879 13.807v35.064h23.725l-0.6992-3.6465c-1.425 0-2.6125-0.13094-4.1875-0.36719-3.05-0.58625-5.0879-2.45-5.0879-7.25v-23.895c0-4.3288-0.35-8.7112 2.1875-13.125 6.05-10.551 19.887-34.571 22.574-38.768 8.325-13.088 14.975-16.131 14.975-16.131h-16.938l-27.924 50.254-26.451-50.254h-23.648zm-1399 5.3711c9.7262 0 18.895 3.7982 25.826 10.721 8.7538 8.7575 13.369 21.6 13.369 37.143 0 42.274-29.534 44.396-35.459 44.396-10.511 0-19.944-3.8722-27.285-11.211-9.065-9.0612-14.053-22.735-14.053-38.521 0-13.889 3.918-25.157 11.324-32.564 6.5375-6.5162 15.609-9.9629 26.277-9.9629zm344.93 0c9.7175 0 18.902 3.7982 25.824 10.721 8.7388 8.7575 13.369 21.6 13.369 37.143 0 42.274-29.547 44.396-35.467 44.396-10.516 0-19.946-3.8722-27.291-11.211-9.0512-9.0612-14.053-22.735-14.053-38.521 0-13.889 3.9177-25.157 11.334-32.564 6.5175-6.5162 15.618-9.9629 26.283-9.9629zm1134 78.236v2.3047h6.5371v17.076h2.6504v-17.076h6.5254v-2.3047h-15.713zm19.826 0v19.381h2.5v-11.438c0-0.4625 0-1.1747-0.039-2.1484-0.025-0.97375-0.037-1.6988-0.037-2.1738v-0.59375l5.5879 16.354h2.5996l5.5371-16.354c0 1.0512-0.011 2.0316-0.023 2.9453-0.025 0.915-0.039 1.567-0.039 1.9707v11.438h2.5137v-19.381h-3.7383l-5.5254 16.387-5.5859-16.387h-3.75z" transform="matrix(.8 0 0 -.8 0 223)"/></g></g></svg>
