<?xml version="1.0" encoding="UTF-8" standalone="no"?>
<svg xmlns:rdf="http://www.w3.org/1999/02/22-rdf-syntax-ns#" xmlns="http://www.w3.org/2000/svg" xml:space="preserve" height="157.17" viewBox="0 0 302 157.16696" width="302" version="1.1" xmlns:cc="http://creativecommons.org/ns#" xmlns:dc="http://purl.org/dc/elements/1.1/"><g transform="matrix(1.25 0 0 -1.25 -164.68 854.7)"><g transform="matrix(3.3333 0 0 3.3333 -586.8 -1446.3)"><path d="m287.75 622.11c0.008 0.242 0.001 0.406-0.224 0.728-1.398 1.995-1.956 3.887-2.448 5.557l-0.154 0.517c-0.072 0.241-0.12 0.467-0.167 0.688-0.153 0.73-0.299 1.419-1.281 2.295-1.47 1.31-2.084 2.267-2.345 3.657-0.042 0.223-0.081 0.458-0.12 0.694-0.204 1.241-0.397 2.414-1.129 2.414-0.14 0-0.286-0.049-0.433-0.145-0.373-0.245-0.685-1.115-1.014-2.822-0.036-0.187-0.037-0.343-0.037-0.469-0.001-0.067-0.001-0.151-0.006-0.165-0.018-0.013-0.086-0.028-0.306-0.028h-0.033c-1.14 0.012-2.307 0.122-4.042 1.312-0.652 0.446-1.075 0.645-1.371 0.645-0.425 0-0.531-0.366-0.581-0.543-0.012-0.038-0.041-0.14-0.068-0.155-0.034 0-0.116 0.01-0.276 0.082-0.344 0.152-0.708 0.348-1.078 0.547-0.729 0.392-1.418 0.763-1.929 0.763-0.212 0-0.388-0.062-0.525-0.183-0.345-0.309-0.169-0.663-0.074-0.853 0.113-0.228 0.118-0.282 0.037-0.383 0 0-0.019-0.011-0.085-0.011-0.231 0-0.699 0.131-1.409 0.331l-0.466 0.131c-1.176 0.328-2.015 0.89-2.689 1.341-0.565 0.38-0.973 0.653-1.38 0.653-0.262 0-0.491-0.118-0.683-0.351-0.137-0.167-0.197-0.368-0.175-0.579 0.067-0.638 0.87-1.283 1.579-1.852 0.186-0.149 0.537-0.431 0.686-0.584-0.051-0.017-0.129-0.03-0.246-0.03-0.547 0-1.439 0.283-2.304 0.558-0.832 0.265-1.619 0.514-2.117 0.514-0.402 0-0.568-0.17-0.636-0.313-0.3-0.628 0.542-1.362 1.404-1.997l0.026-0.019c0.078-0.058 0.17-0.109 0.266-0.162 0.042-0.023 0.078-0.044 0.108-0.062-0.103-0.064-0.318-0.173-0.758-0.33-1.591-0.569-4.222-1.247-7.721-1.247-1.43 0-2.898 0.116-4.364 0.344-0.811 0.126-1.61 0.19-2.375 0.19-3.384 0-5.748-1.222-7.833-2.301l-0.548-0.282c-0.558-0.285-3.087-1.347-4.441-1.347-0.35 0-0.582 0.07-0.669 0.203-0.284 0.434-0.493 0.816-0.678 1.154-0.588 1.075-0.977 1.786-2.711 2.098-0.412 0.074-0.903-0.008-1.529-0.137-0.678-0.14-1.523-0.314-2.747-0.314-0.5 0-1.032 0.03-1.579 0.089-2.783 0.3-4.452 1.755-4.758 2.044-0.429 0.405-0.955 0.458-1.261 0.138-0.22-0.232-0.323-0.632-0.297-1.155 0.105-2.1 3.561-6.257 9.463-5.967 0.458 0.022 0.81 0.074 1.067 0.112 0.221 0.032 0.395 0.058 0.554 0.058 0.344 0 0.66-0.122 1.432-0.792 1.316-1.145 3.741-1.48 4.654-1.605l0.258-0.037c0.579-0.086 0.579-0.086 0.691-0.655l0.045-0.239c0.119-0.642 0.212-1.149 0.933-1.846 0.558-0.539 0.714-0.973 0.879-1.433 0.247-0.687 0.502-1.398 1.965-2.366 0.371-0.244 0.727-0.472 1.069-0.69 2.252-1.439 3.878-2.478 4.888-5.563l0.078-0.242c0.412-1.281 0.661-2.055 2.751-2.15 0.691-0.032 1.199 0.006 1.606 0.035l0.107 0.009c0.617 0.047 0.916 0.104 1.526-0.485-0.171-0.255-0.504-0.713-0.904-1.071-0.198-0.176-0.4-0.2-0.589-0.2-0.095 0-0.191 0.007-0.293 0.014-0.109 0.009-0.216 0.017-0.322 0.017-0.378 0-0.856-0.092-1.202-0.804l-0.261-0.538c-0.38-0.78-0.589-1.21-0.692-1.528-0.031-0.096-0.118-0.429 0.075-0.695 0.086-0.118 0.256-0.259 0.579-0.259 0.444 0 1.087 0.264 1.968 0.807 0.556 0.343 0.843 0.349 1.176 0.356 0.425 0.008 0.906 0.017 1.823 0.755 0.204 0.164 0.365 0.319 0.509 0.457 0.177 0.172 0.295 0.286 0.383 0.286 0.067 0 0.167-0.062 0.308-0.187 0.341-0.307 0.582-0.604 0.816-0.893 0.502-0.619 0.975-1.204 2.245-1.512 0.91-0.221 1.962-1.344 2.448-2.046 0.013-0.019 0.025-0.043 0.044-0.08 0.089-0.173 0.274-0.533 0.808-0.533 0.052 0 0.108 0.004 0.168 0.011 0.542 0.066 1.427 0.319 1.82 0.443 0.258 0.082 0.44 0.282 0.499 0.548 0.076 0.343-0.065 0.76-0.343 1.014-0.3 0.274-0.807 0.676-1.166 0.928 0.282 0.366 0.339 0.802 0.148 1.194-0.347 0.708-0.95 0.969-1.532 1.221l-0.21 0.091c-0.318 0.142-0.556 0.378-0.831 0.65-0.244 0.243-0.52 0.518-0.899 0.768-0.037 0.024-0.078 0.05-0.122 0.077-0.083 0.051-0.303 0.187-0.321 0.245 0 0 0.005 0.02 0.044 0.063 1.186 1.293 2.094 1.564 2.648 1.564 0.024 0 0.049-0.001 0.074-0.002 2.098-0.089 3.737-0.325 5.656-0.815l0.136-0.037c0.177-0.048 0.36-0.099 0.56-0.099 0.276 0 0.517 0.098 0.734 0.299 0.275 0.255 0.509 0.565 0.716 0.839 0.107 0.142 0.208 0.275 0.291 0.369 0.318 0.354 0.355 0.69 0.141 1.287-0.042 0.117-0.108 0.249-0.184 0.401-0.276 0.551-0.738 1.472-0.66 2.996 0.006 0.136 0.031 0.273 0.058 0.419 0.116 0.63 0.247 1.343-0.67 2.87 0.483 2.606 1.523 4.147 3.698 5.483 1.413 0.866 4.474 2.025 6.972 2.639l0.037 0.009c0.051 0.013 0.098 0.026 0.151 0.026 0.19 0 0.423-0.192 0.691-0.569 0.108-0.151 0.202-0.303 0.299-0.46 0.43-0.693 0.875-1.41 2.325-1.774 0.576-0.145 1.013-0.274 1.383-0.606 0.136-0.122 0.309-0.235 0.512-0.366 0.46-0.299 1.032-0.67 1.398-1.329 0.065-0.116 0.059-0.297 0.052-0.509-0.012-0.369-0.027-0.828 0.346-1.23 0.575-0.62 1.933-0.942 2.5-0.776 0.602 0.176 0.795 0.499 1.02 0.973 0.156 0.331 0.347 0.517 0.532 0.699 0.226 0.221 0.46 0.45 0.438 0.855-0.005 0.095-0.002 0.169 0 0.233m-31.966-8.014c-0.587 0.018-0.817 0.131-0.869 0.418-0.064 0.358-0.205 0.768-0.719 0.768-0.064 0-0.132-0.006-0.207-0.017-0.175-0.026-0.59-0.044-1.056-0.044-0.443 0-0.866 0.014-1.159 0.039-0.413 0.036-0.727-0.147-0.829-0.466-0.086-0.264-0.079-0.815 0.924-1.536 0.098-0.07 0.188-0.15 0.285-0.237 0.277-0.247 0.59-0.527 1.282-0.767 0.098-0.034 0.192-0.063 0.305-0.096 0.324-0.096 0.474-0.153 0.551-0.288-0.098-0.177-0.287-0.399-0.473-0.555-0.154 0.103-0.3 0.24-0.452 0.385-0.42 0.395-0.895 0.843-1.85 1.01-0.885 0.155-1.849 0.453-2.285 1.492-0.57 1.355-1.262 3.962-1.362 4.462l-0.028 0.137c-0.029 0.135-0.082 0.386-0.059 0.438 0 0 0.028 0.018 0.123 0.018 0.059 0 0.129-0.007 0.209-0.02 0.812-0.135 1.697-0.471 2.635-0.828 1.397-0.53 2.842-1.079 4.31-1.079 0.311 0 0.616 0.025 0.907 0.076 0.066 0.012 0.132 0.026 0.201 0.041 0.116 0.024 0.225 0.047 0.305 0.047 0.067 0 0.069-0.006 0.084-0.044 0.05-0.133 0.112-0.314 0.183-0.522 0.081-0.236 0.164-0.479 0.231-0.646-0.269-0.754-0.668-1.489-1.187-2.186m7.416-1.69c-0.022-0.047-0.109-0.134-0.443-0.197-0.065-0.012-0.161-0.018-0.287-0.018-0.436 0-1.127 0.073-1.746 0.145l-0.352 0.04c-0.287 0.032-0.341 0.1-0.341 0.1-0.017 0.052 0.082 0.234 0.12 0.303l0.027 0.05c0.15 0.283 1.038 1.619 1.379 2.134 0.032 0.047 0.055 0.073 0.071 0.087 0.041-0.034 0.101-0.113 0.123-0.143 0.131-0.174 1.102-1.661 1.354-2.124 0.133-0.242 0.111-0.344 0.095-0.377" fill="#354ca1"/><path d="m287.21 622.13c0.006 0.172 0.007 0.212-0.128 0.404-1.447 2.066-2.018 4.003-2.522 5.711l-0.154 0.516c-0.079 0.265-0.129 0.502-0.178 0.732-0.146 0.696-0.262 1.247-1.113 2.005-1.57 1.4-2.229 2.436-2.515 3.958-0.042 0.222-0.081 0.457-0.12 0.693-0.107 0.651-0.325 1.978-0.603 1.978-0.02 0-0.064-0.007-0.14-0.057-0.058-0.038-0.371-0.338-0.782-2.476-0.026-0.138-0.027-0.256-0.028-0.37-0.002-0.47-0.137-0.725-0.846-0.725l-0.038 0.001c-1.226 0.012-2.48 0.129-4.34 1.404-0.7 0.48-0.97 0.552-1.068 0.552-0.027-0.016-0.057-0.118-0.068-0.156-0.05-0.176-0.156-0.543-0.581-0.543-0.138 0-0.299 0.042-0.493 0.128-0.364 0.162-0.738 0.363-1.101 0.558-0.653 0.352-1.314 0.707-1.689 0.707-0.077 0-0.132-0.015-0.168-0.048-0.023-0.02-0.028-0.029-0.028-0.03-0.003-0.028 0.055-0.143 0.076-0.186 0.106-0.214 0.284-0.571-0.026-0.957-0.114-0.141-0.278-0.21-0.501-0.21-0.305 0-0.746 0.125-1.547 0.35l-0.471 0.133c-1.26 0.35-2.175 0.964-2.844 1.412-0.449 0.301-0.838 0.562-1.082 0.562-0.066 0-0.156-0.018-0.269-0.155-0.047-0.058-0.064-0.115-0.057-0.184 0.043-0.416 0.817-1.037 1.381-1.491 0.597-0.478 0.909-0.741 0.938-1.013 0.011-0.1-0.017-0.196-0.078-0.273-0.153-0.189-0.4-0.28-0.754-0.28-0.632 0-1.563 0.296-2.464 0.583-0.795 0.252-1.542 0.489-1.957 0.489-0.107 0-0.155-0.017-0.164-0.024-0.005-0.017-0.1-0.327 1.25-1.321l0.025-0.018c0.059-0.044 0.131-0.083 0.2-0.121 0.221-0.122 0.488-0.27 0.465-0.558-0.024-0.294-0.334-0.506-1.186-0.81-1.63-0.583-4.324-1.279-7.902-1.279-1.456 0-2.952 0.118-4.446 0.351-0.784 0.122-1.555 0.184-2.292 0.184-3.253 0-5.555-1.191-7.587-2.242l-0.551-0.283c-0.36-0.184-3.107-1.405-4.684-1.405-0.547 0-0.923 0.149-1.116 0.445-0.295 0.449-0.51 0.842-0.7 1.189-0.569 1.04-0.854 1.562-2.336 1.829-0.325 0.058-0.761-0.018-1.325-0.134-0.702-0.145-1.577-0.325-2.857-0.325-0.521 0-1.072 0.031-1.637 0.092-2.951 0.318-4.738 1.877-5.067 2.186-0.206 0.194-0.402 0.268-0.506 0.158-0.114-0.119-0.169-0.396-0.151-0.759 0.099-1.994 3.582-5.711 8.903-5.46 0.423 0.021 0.747 0.068 1.008 0.106 0.24 0.036 0.442 0.066 0.639 0.066 0.545 0 0.978-0.225 1.783-0.924 1.197-1.041 3.507-1.359 4.377-1.479l0.262-0.037c0.725-0.108 0.962-0.185 1.138-1.082l0.046-0.244c0.113-0.612 0.181-0.981 0.778-1.558 0.648-0.626 0.833-1.14 1.011-1.638 0.228-0.633 0.442-1.23 1.758-2.1 0.367-0.243 0.721-0.469 1.061-0.686 2.345-1.498 4.039-2.581 5.108-5.848l0.079-0.243c0.398-1.239 0.547-1.702 2.267-1.781 0.663-0.029 1.136 0.005 1.535 0.035l0.075 0.006c0.846 0.063 1.277 0.108 2.139-0.795l0.14-0.148-0.105-0.175c-0.019-0.031-0.477-0.794-1.118-1.367-0.338-0.302-0.701-0.337-0.945-0.337-0.108 0-0.217 0.008-0.325 0.016-0.453 0.035-0.745 0.061-1.011-0.488l-0.261-0.537c-0.369-0.759-0.573-1.178-0.665-1.46-0.027-0.084-0.027-0.178 0-0.215 0.017-0.024 0.072-0.038 0.146-0.038 0.19 0 0.661 0.095 1.687 0.727 0.681 0.419 1.087 0.428 1.446 0.435 0.389 0.008 0.725 0.014 1.499 0.637 0.188 0.152 0.334 0.293 0.463 0.417 0.261 0.252 0.466 0.451 0.761 0.451 0.208 0 0.414-0.102 0.668-0.331 0.375-0.336 0.641-0.665 0.875-0.954 0.5-0.617 0.861-1.063 1.955-1.328 1.055-0.257 2.229-1.493 2.761-2.261 0.027-0.039 0.053-0.087 0.08-0.14 0.093-0.18 0.164-0.271 0.435-0.236 0.464 0.055 1.285 0.283 1.724 0.421 0.079 0.025 0.121 0.071 0.139 0.154 0.035 0.16-0.043 0.377-0.181 0.503-0.344 0.313-1.063 0.876-1.356 1.044l-0.336 0.192 0.299 0.247c0.139 0.113 0.44 0.418 0.254 0.799-0.26 0.531-0.703 0.723-1.264 0.965l-0.213 0.094c-0.409 0.181-0.692 0.462-0.991 0.76-0.238 0.235-0.483 0.479-0.818 0.7l-0.086 0.055c-0.244 0.15-0.55 0.339-0.592 0.647-0.016 0.118 0.002 0.299 0.18 0.492 1.058 1.152 2.081 1.737 3.041 1.737 0.033 0 0.066-0.001 0.099-0.003 2.136-0.091 3.807-0.332 5.766-0.832 0.048-0.012 0.096-0.025 0.144-0.039 0.312-0.086 0.563-0.132 0.788 0.078 0.24 0.221 0.459 0.511 0.652 0.766 0.115 0.153 0.222 0.295 0.321 0.405 0.166 0.185 0.192 0.312 0.035 0.75-0.031 0.087-0.09 0.205-0.158 0.342-0.3 0.598-0.801 1.598-0.717 3.262 0.009 0.17 0.037 0.322 0.066 0.484 0.102 0.553 0.216 1.174-0.653 2.586l-0.053 0.087 0.018 0.1c0.505 2.836 1.616 4.503 3.963 5.944 1.453 0.891 4.581 2.078 7.123 2.702l0.033 0.009c0.068 0.017 0.164 0.042 0.284 0.042 0.384 0 0.742-0.252 1.127-0.794 0.115-0.162 0.218-0.326 0.318-0.488 0.408-0.658 0.761-1.226 2.001-1.537 0.652-0.164 1.148-0.312 1.61-0.726 0.107-0.096 0.271-0.203 0.445-0.315 0.483-0.314 1.143-0.743 1.575-1.519 0.136-0.245 0.127-0.52 0.119-0.785-0.011-0.313-0.02-0.608 0.203-0.849 0.357-0.385 1.197-0.653 1.728-0.653 0.093 0 0.174 0.009 0.229 0.025 0.382 0.112 0.492 0.278 0.687 0.689 0.199 0.418 0.444 0.659 0.642 0.853 0.204 0.199 0.286 0.287 0.278 0.444-0.006 0.113-0.003 0.202-0.001 0.279m-29.705-5.923c-0.301-0.881-0.766-1.736-1.383-2.541l-0.081-0.105-0.133 0.001c-0.445 0.002-1.37 0.01-1.524 0.86-0.06 0.332-0.122 0.332-0.167 0.332-0.047 0-0.097-0.007-0.153-0.015-0.206-0.032-0.621-0.05-1.136-0.05-0.457 0-0.896 0.015-1.203 0.04-0.136 0.011-0.255-0.029-0.276-0.096-0.038-0.117 0.066-0.462 0.727-0.938 0.122-0.087 0.221-0.176 0.327-0.271 0.264-0.236 0.512-0.457 1.103-0.662 0.099-0.035 0.193-0.063 0.283-0.089 0.39-0.116 0.794-0.236 0.945-0.731l0.028-0.089-0.035-0.088c-0.143-0.361-0.541-0.786-0.843-0.99l-0.129-0.087-0.139 0.07c-0.279 0.139-0.493 0.339-0.719 0.552-0.367 0.346-0.78 0.736-1.577 0.876-1.027 0.179-2.15 0.534-2.686 1.811-0.584 1.389-1.291 4.055-1.393 4.564l-0.027 0.132c-0.068 0.32-0.139 0.652 0.053 0.889 0.157 0.196 0.414 0.254 0.83 0.185 0.864-0.143 1.773-0.489 2.735-0.854 1.355-0.515 2.753-1.046 4.123-1.046 0.281 0 0.555 0.024 0.815 0.069 0.053 0.009 0.106 0.02 0.158 0.031 0.158 0.034 0.302 0.064 0.44 0.064 0.281 0 0.489-0.138 0.584-0.389 0.051-0.137 0.115-0.321 0.18-0.51 0.103-0.301 0.202-0.592 0.264-0.728l0.043-0.097-0.034-0.1zm6.173-4.028c-0.157-0.332-0.548-0.441-0.828-0.494-0.106-0.019-0.24-0.029-0.41-0.029-0.481 0-1.172 0.08-1.782 0.151l-0.351 0.04c-0.396 0.044-0.644 0.17-0.756 0.386-0.153 0.292 0.014 0.6 0.124 0.804l0.025 0.046c0.146 0.274 0.828 1.308 1.407 2.178 0.148 0.224 0.321 0.338 0.513 0.338 0.276 0 0.45-0.23 0.553-0.367 0.147-0.196 1.132-1.705 1.397-2.191 0.186-0.341 0.221-0.623 0.108-0.862" fill="#cd2027"/></g></g></svg>
