<?xml version="1.0" encoding="UTF-8" standalone="no"?>
<svg xmlns:rdf="http://www.w3.org/1999/02/22-rdf-syntax-ns#" xmlns="http://www.w3.org/2000/svg" xml:space="preserve" height="289.97" viewBox="0 0 289.99234 289.97375" width="289.99" version="1.1" xmlns:cc="http://creativecommons.org/ns#" xmlns:dc="http://purl.org/dc/elements/1.1/"><g transform="matrix(1.25 0 0 -1.25 -239.87 639.04)"><g><path d="m422.38 395.33c0 63.173-51.219 114.39-114.39 114.39-63.182 0-114.4-51.212-114.4-114.39 0-63.182 51.217-114.39 114.4-114.39 63.176 0 114.39 51.207 114.39 114.39" fill="#ef3340"/><path d="m222.8 100.94c-29.07 0-46.9 19.61-46.9 48.26 0 28.53 16.86 48.29 46.35 48.29 21.26 0 34.57-10.29 41.15-25.25l-25.38-9.04c-2.6 7.27-7.4 11.66-15.64 11.66-11.93 0-17.97-9.61-17.97-25.66 0-16.17 6.04-26.04 17.97-26.04 8.78 0 13.86 5.34 16.2 14.39l24.26-11.66c-4.66-12.2-17.82-24.95-40.04-24.95zm-189.68 1.63v55.14c0 13.03 1.377 19.33 5.086 25.66 6.171 10.28 22.624 14.25 37.033 14.25 14.39 0 30.854-3.97 37.024-14.25 3.7-6.33 5.09-12.63 5.09-25.66v-55.14h-27.995v55.68c0 6.32-0.826 10.44-3.152 13.18-2.198 2.6-5.762 3.84-10.967 3.84-5.222 0-8.782-1.24-10.976-3.84-2.328-2.74-3.156-6.86-3.156-13.18v-55.68h-27.987zm101.22 0v93.27h27.98v-93.27h-27.98z" transform="matrix(.8 0 0 -.8 191.9 511.23)" fill="#fff"/></g></g></svg>
