<?xml version="1.0" encoding="UTF-8" standalone="no"?>
<svg xmlns:rdf="http://www.w3.org/1999/02/22-rdf-syntax-ns#" xmlns="http://www.w3.org/2000/svg" xml:space="preserve" viewBox="0 0 182 182" version="1.1" xmlns:cc="http://creativecommons.org/ns#" xmlns:dc="http://purl.org/dc/elements/1.1/"><g transform="matrix(1.25 0 0 -1.25 -67.5 924.5)"><g transform="translate(.79418 .79418)"><path d="m126 605.36c33.493 0 60.645 27.15 60.645 60.645 0 33.493-27.152 60.645-60.645 60.645s-60.645-27.152-60.645-60.645c0-33.495 27.152-60.645 60.645-60.645" fill="#fff"/><path d="m198 666c0 39.764-32.237 71.999-71.999 71.999-39.765 0-72.001-32.235-72.001-71.999 0-39.765 32.236-72.001 72.001-72.001 39.762 0 71.999 32.236 71.999 72.001m-29.346-22.795h-12.982l-17.641 31.622-18.141-31.622h-12.9l24.716 42.857-5.409 9.818-30.374-52.758h-12.566l43.523 75.393 41.774-75.31zm0-18.141h-85.38v10.902h85.38v-10.902z" fill="#e2231a"/></g></g></svg>
