<svg xmlns="http://www.w3.org/2000/svg" height="47.022" viewBox="0 0 250 47.021839" width="250"><g transform="matrix(1.25 0 0 -1.25 -52.286 56.514)"><g transform="matrix(.70340 0 0 .70340 42.533 8.2978)"><path d="m0 0.99414c1.9275 0.99496 3.2441 3.0068 3.2441 5.3243v52.637c0 2.3175-1.3179 4.3285-3.2441 5.3223h15.15c-1.9262-0.99375-3.2422-3.0048-3.2422-5.3223v-48.094l47.567 54.139v-13.916l-43.926-50.09-15.549 0.00014zm56.23 0c1.9262 0.995 3.2441 3.0055 3.2441 5.3242v32.787c0.001 14.3 14.818 25.895 33.098 25.895 18.278 0 33.098-11.595 33.098-25.895v2.4629l0.004-0.38867v-34.861c0-2.3188 1.3159-4.3292 3.2422-5.3242h-16.135c4.2875 2.1562 7.2344 7.0074 7.2344 14.764 0 23.414-21.957 32.831-21.957 43.299-15.468-4.2412-32.926-19.885-32.926-43.299 0-7.7562 2.9449-12.607 7.2324-14.764h-16.133zm144.97 10.971c-0.12375 0.9475-0.28844 1.1543-0.74219 1.1543h-20.574v0.49414c1.0312 0.0825 1.1543 0.37094 1.1543 0.74219v19.215c0 0.37125-0.12305 0.65969-1.1543 0.74219v0.49414h20.574c0.45375 0 0.61844 0.20625 0.74219 0.90625h0.49609v-7.1738h-0.49609c-0.12375 1.03-0.28844 1.2383-0.74219 1.2383h-13.234v-3.834h7.668c0.825 0 1.1145 0.41102 1.2383 0.94727h0.49414v-6.4316h-0.49414c-0.12375 0.535-0.41328 0.94727-1.2383 0.94727h-7.668v-3.4219h13.234c0.45375 0 0.61844 0.2068 0.74219 1.1543h0.49609v-7.1738h-0.49609zm-56.684 1.1543v0.49414c1.0312 0.0825 1.1543 0.37094 1.1543 0.74219v19.215c0 0.37125-0.12305 0.65969-1.1543 0.74219v0.49414h7.8359v-0.49414c-1.0312-0.0825-1.1562-0.37094-1.1562-0.74219v-12.947c10.885 12.162 11.916 12.7 11.916 13.236 0 0.28875-0.20477 0.45312-0.94727 0.45312v0.49414h7.832v-0.49414c-1.03-0.0825-1.1523-0.37094-1.1523-0.74219v-19.215c0-0.37125 0.12234-0.65969 1.1523-0.74219v-0.49414h-7.5449v0.49414c0.53625 0.04125 0.86523 0.24719 0.86523 0.74219v11.01c-2.885-3.175-10.018-10.762-10.018-11.215 0-0.2475 0.20554-0.49586 1.1543-0.53711v-0.49414h-9.9375zm66.088 0v0.49414c0.1225 0 0.32766 0.12508 0.41016 0.45508 0.20625 0.7425 6.4336 19.254 6.4336 19.543 0 0.53625-0.37242 0.61867-0.82617 0.70117v0.49414h8.9062v-0.49414c-0.53625 0-0.90625-0.24812-0.90625-0.57812 0-0.74125 3.0098-9.6459 4.3711-14.43h0.082c1.525 5.525 3.957 13.111 3.957 14.43 0 0.33-0.24477 0.49562-0.82227 0.57812v0.49414h8.5762v-0.49414c-0.37125-0.04125-0.82617-0.08313-0.82617-0.57812 0-0.495 6.3509-18.636 6.4746-19.336 0.0825-0.4125 0.28867-0.74391 0.70117-0.78516v-0.49414h-6.9277v0.49414c0.4125 0.12375 0.86523 0.20617 0.86523 0.70117 0 0.535-3.546 10.679-4.041 12.658h-0.082c-0.5775-2.7212-3.4629-12.493-3.4629-12.74 0-0.4125 0.32992-0.49539 0.70117-0.61914v-0.49414h-9.8125v0.49414c0.32875 0.0825 0.86523 0.16539 0.86523 0.61914 0 0.4125-2.8452 9.6477-3.834 12.74h-0.084c-1.0312-3.3388-4.041-12.288-4.041-12.74 0-0.45375 0.37218-0.53664 0.86718-0.61914v-0.49414h-7.5449zm45.219 0v0.49414c1.0312 0.0825 1.1562 0.37094 1.1562 0.74219v19.215c0 0.37125-0.125 0.65969-1.1562 0.74219v0.49414h7.2578v-0.49414c-1.0312-0.0825-1.1543-0.37094-1.1543-0.74219v-15.42h0.082l7.2559 16.162 7.3398-15.998 0.084 0.08203v15.174c0 0.37125-0.125 0.65969-1.1562 0.74219v0.49414h8.248v-0.49414c-1.0325-0.0825-1.1543-0.37094-1.1543-0.74219v-19.215c0-0.37125 0.12179-0.65969 1.1543-0.74219v-0.49414h-11.176v0.49414c0.66 0.04125 0.99024 0.24719 0.99024 0.74219 0 0.535-2.2256 4.7827-4.123 8.8652-0.41125-1.1138-3.875-8.5765-3.875-8.8652 0-0.495 0.32828-0.70094 0.98828-0.74219v-0.49414h-10.762zm44.15 0v0.49414c0.37125 0.04125 0.82422 0.12336 0.82422 0.41211 0 0.2475-6.9666 18.39-7.3379 19.338-0.2475 0.66-0.49672 0.82547-1.0742 0.94922v0.49414h7.2988v-0.49414c-0.5775 0-0.74219-0.16531-0.74219-0.41406 0-0.24625 0.24782-0.78297 1.3203-3.793h9.7715c0.165 0.53625 1.4023 3.5479 1.4023 3.7129 0 0.2475-0.2057 0.45289-0.7832 0.49414v0.49414h8.123v-0.49414c-0.495 0-0.74375-0.24828-1.1562-1.2383-2.5562-6.2675-7.627-18.594-7.627-18.924 0-0.4125 0.28844-0.49586 0.74219-0.53711v-0.49414h-10.762zm27.121 0v0.49414c1.0312 0.0825 1.1543 0.37094 1.1543 0.74219v19.215c0 0.37125-0.12304 0.65969-1.1543 0.74219v0.49414h7.834v-0.49414c-1.0312-0.0825-1.1543-0.37094-1.1543-0.74219v-12.947c10.885 12.162 11.914 12.7 11.914 13.236 0 0.28875-0.20602 0.45312-0.94727 0.45312v0.49414h7.834v-0.49414c-1.03-0.0825-1.1543-0.37094-1.1543-0.74219v-19.215c0-0.37125 0.1243-0.65969 1.1543-0.74219v-0.49414h-7.5449v0.49414c0.535 0.04125 0.86719 0.24719 0.86719 0.74219v11.01c-2.8875-3.175-10.021-10.762-10.021-11.215 0-0.2475 0.20679-0.49586 1.1543-0.53711v-0.49414h-9.9355zm-22.131 3.875 3.998 9.8125h-7.6699l3.6719-9.8125z" transform="matrix(.8 0 0 -.8 0 52)" fill="#051c48"/><path d="m85.119 0.99414c3.8425 1.855 5.9142 6.0414 6.293 12.035-4.7475-0.0775-9.1634-0.52062-12.93-1.2344v4.6387c3.7825-0.7175 8.2202-1.1606 12.99-1.2344-0.075 10.558-1.7708 21.279-4.0508 28.441h10.303c-2.2812-7.1625-3.9765-17.884-4.0527-28.441 4.7712 0.07375 9.2077 0.51688 12.99 1.2344v-4.6387c-3.7662 0.71375-8.1841 1.1569-12.932 1.2344 0.37875-5.9938 2.4517-10.18 6.293-12.035h-14.904zm86.421 39.522c-0.17375 0-0.22461 0.24164-0.22461 0.58789l-0.15625 10.236c-0.0175 1.5038-0.0871 2.0051-0.53711 2.1426-0.24125 0.07-0.55235 0.08789-0.77735 0.08789-0.1725 0-0.27539 0.03492-0.27539 0.13867 0 0.155 0.15391 0.17188 0.37891 0.17188 0.89875 0 1.7109-0.05273 1.8672-0.05273 0.32875 0 1.0208 0.05273 2.1445 0.05273 0.2425 0 0.39648-0.03312 0.39648-0.17188 0-0.10375-0.10297-0.13867-0.29297-0.13867-0.27625 0-0.60468-0.01734-0.89843-0.12109-0.34625-0.12125-0.57172-0.57117-0.60547-1.9199l-0.18946-7.2617h0.0508c0.31125 0.32875 2.2302 2.4899 4.1152 4.3574 1.7988 1.7812 4.0116 4.0465 5.1016 5.084 0.19 0.19 0.39789 0.37891 0.58789 0.37891 0.15625 0 0.22461-0.15516 0.22461-0.53516l0.18946-10.91c0.0175-0.96875 0.15687-1.332 0.64062-1.4707 0.2075-0.05125 0.34383-0.05078 0.51758-0.05078 0.2075 0 0.3125-0.0525 0.3125-0.15625 0-0.1375-0.17219-0.15625-0.39844-0.15625-0.84625 0-1.5053 0.05273-1.6953 0.05273-0.36375 0-1.193-0.05273-2.0918-0.05273-0.25875 0-0.44922 0.01875-0.44922 0.15625 0 0.10375 0.0699 0.15625 0.27735 0.15625 0.24125 0 0.65601 0.001 0.91601 0.10352 0.415 0.17375 0.57039 0.50164 0.58789 1.5566l0.17383 7.7617h-0.0879c-0.29375-0.27625-2.6284-2.7664-3.8047-3.9414-2.5238-2.5075-5.1519-5.3258-5.3594-5.5508-0.2925-0.31-0.44867-0.53516-0.63867-0.53516zm113.71 0.05273c-2.4025 0-3.9922 1.3663-3.9922 3.2676 0 1.4012 0.6561 2.6102 2.5586 4.0977l0.79492 0.62305c1.435 1.1062 1.6934 1.9181 1.6934 2.7656 0 0.91625-0.76016 1.9707-2.3164 1.9707-1.0725 0-2.0926-0.46734-2.4726-1.7461-0.0863-0.295-0.15625-0.65781-0.15625-0.88281 0-0.1375-0.0169-0.29297-0.17188-0.29297-0.1375 0-0.18953 0.18922-0.20703 0.44922-0.0175 0.27625-0.0879 1.3144-0.0879 2.2656 0 0.38 0.0526 0.46664 0.33008 0.58789 0.74375 0.32875 1.5209 0.44922 2.5234 0.44922 0.91625 0 1.885-0.15648 2.75-0.70898 1.245-0.81375 1.625-2.0053 1.625-3.0078 0-1.6425-0.76093-2.8014-2.8359-4.4102l-0.48438-0.36328c-1.435-1.0887-1.832-1.6933-1.832-2.4883 0-1.0375 0.77664-1.7812 2.0566-1.7812 1.1238 0 1.6248 0.51891 1.8848 0.84766 0.3625 0.45 0.44922 0.98562 0.44922 1.1406 0 0.2075 0.0526 0.31055 0.17382 0.31055 0.1375 0 0.18946-0.13758 0.18946-0.51758 0-1.3488 0.0703-1.8512 0.0703-2.0762 0-0.12125-0.0879-0.17203-0.24414-0.20703-0.44875-0.12-1.1738-0.29297-2.2988-0.29297zm32.834 0c-0.10374 0-0.15453 0.10312-0.20703 0.32812-0.0337 0.1375-0.36328 1.7101-0.36328 1.9863 0 0.19125 0.035 0.2793 0.15625 0.2793 0.10375 0 0.15571-0.07023 0.18946-0.20898 0.035-0.13875 0.12242-0.34477 0.29492-0.60352 0.26-0.38 0.67328-0.46891 1.6758-0.50391l2.5762-0.06836v7.0898c0 1.59 0.00031 2.9573-0.0859 3.6836-0.0525 0.50125-0.155 0.88242-0.5 0.95117-0.15625 0.03375-0.36429 0.06836-0.62304 0.06836-0.2075 0-0.27735 0.05117-0.27735 0.13867 0 0.12 0.12071 0.17188 0.34571 0.17188 0.6925 0 1.7822-0.05273 2.1797-0.05273 0.48375 0 1.5736 0.05273 2.7148 0.05273 0.19 0 0.32812-0.05188 0.32812-0.17188 0-0.0875-0.0873-0.13867-0.27734-0.13867-0.25875 0-0.64031-0.03461-0.88281-0.06836-0.5175-0.06875-0.62133-0.44984-0.67383-0.93359-0.0863-0.74375-0.0859-2.1112-0.0859-3.7012v-7.0898l2.1797 0.05273c1.5388 0.03375 2.0053 0.51875 2.0391 0.96875l0.0176 0.18945c0.0175 0.25875 0.0519 0.3457 0.18945 0.3457 0.10375 0 0.13875-0.10484 0.15625-0.27734 0-0.45 0.0508-1.6421 0.0508-2.0059 0-0.25875-0.0167-0.36133-0.13672-0.36133-0.13875 0-0.5539 0.17188-1.6602 0.17188h-6.8477c-0.57 0-1.2273-0.03344-1.7285-0.08594-0.4325-0.03375-0.60665-0.20703-0.74415-0.20703zm-73.229 0.10352c-0.0875 0-0.19109 0.05281-0.27734 0.07031-0.1375 0.03375-0.41469 0.06656-0.74219 0.10156-0.32875 0.0175-3.7698 0.01758-4.3223 0.01758-0.485 0-1.574-0.05273-2.4902-0.05273-0.26 0-0.38086 0.035-0.38086 0.15625s0.10367 0.15625 0.29492 0.15625c0.24125 0 0.53508 0.01703 0.67383 0.05078 0.57 0.12125 0.70914 0.39883 0.74414 0.98633 0.0337 0.55375 0.0332 1.0385 0.0332 3.666v3.043c0 1.59 0.00032 2.9573-0.0859 3.6836-0.0687 0.50125-0.15571 0.88242-0.50196 0.95117-0.155 0.03375-0.36429 0.06836-0.62304 0.06836-0.20751 0-0.2754 0.05117-0.2754 0.13867 0 0.12 0.12071 0.17188 0.34571 0.17188 0.69125 0 1.7802-0.05273 2.1777-0.05273 1.02 0 2.1798 0.10352 4.791 0.10352 0.6575 0 0.81234 0.000781 0.93359-0.44922 0.0863-0.345 0.22461-1.5192 0.22461-1.918 0-0.1725 0.00008-0.3125-0.13867-0.3125-0.12125 0-0.15766 0.06977-0.19141 0.25977-0.12125 0.70875-0.32734 1.0738-0.77734 1.2812-0.44875 0.2075-1.175 0.20703-1.625 0.20703-1.7638 0-2.0412-0.26062-2.0762-1.4531-0.0175-0.5025 0-2.0922 0-2.6797v-1.3652c0-0.10375 0.0173-0.17383 0.10351-0.17383 0.415 0 2.1283 0.01773 2.457 0.05273 0.63875 0.06875 0.88055 0.32883 0.9668 0.67383 0.0525 0.225 0.0541 0.44859 0.0703 0.62109 0 0.0875 0.035 0.15625 0.15625 0.15625 0.155 0 0.1543-0.18938 0.1543-0.32812 0-0.12125 0.0353-0.81195 0.0703-1.1582 0.0525-0.88125 0.13672-1.158 0.13672-1.2617 0-0.10375-0.0504-0.13867-0.11914-0.13867-0.0875 0-0.15609 0.08516-0.27734 0.22266-0.15625 0.17375-0.41508 0.22797-0.83008 0.26172-0.3975 0.035-2.3876 0.0332-2.7676 0.0332-0.10375 0-0.12109-0.0682-0.12109-0.18945v-4.375c0-0.12125 0.0348-0.17188 0.12109-0.17188 0.34625 0 2.1613 0.03461 2.4551 0.06836 0.865 0.10375 1.0389 0.3118 1.1602 0.62305 0.0863 0.2075 0.10351 0.49984 0.10351 0.62109 0 0.15625 0.035 0.24219 0.15625 0.24219 0.12 0 0.15438-0.1032 0.17188-0.18945 0.0337-0.20875 0.0684-0.96883 0.0859-1.1426 0.0525-0.795 0.13868-1.0011 0.13867-1.1211 0-0.08625-0.0173-0.15625-0.10351-0.15625zm-100.13 0.136c-0.25875 0-0.38086 0.035-0.38086 0.15625s0.10492 0.15625 0.29492 0.15625c0.2425 0 0.53633 0.01703 0.67383 0.05078 0.57125 0.12125 0.70844 0.39883 0.74219 0.98633 0.035 0.55375 0.0352 1.0385 0.0352 3.666v2.5254c0 2.5062 0.65656 3.7851 1.5391 4.5801 1.2625 1.1412 2.9236 1.1934 3.8398 1.1934 1.1238 0 2.3682-0.19039 3.5957-1.2441 1.4525-1.245 1.6426-3.2851 1.6426-5.2051v-1.8496c0-2.6275 0.00016-3.1123 0.0352-3.666 0.0337-0.60375 0.17117-0.90008 0.63867-0.98633 0.2075-0.03375 0.31125-0.05078 0.5-0.05078 0.2075 0 0.3125-0.035 0.3125-0.15625s-0.12078-0.15625-0.36328-0.15625c-0.675 0-1.7632 0.05273-1.9707 0.05273-0.0175 0-1.1058-0.05273-1.9883-0.05273-0.24125 0-0.36328 0.035-0.36328 0.15625s0.10297 0.15625 0.29297 0.15625 0.48555 0.01703 0.62305 0.05078c0.57 0.12125 0.70914 0.39883 0.74414 0.98633 0.0337 0.55375 0.0332 1.0385 0.0332 3.666v2.1602c0 1.7812-0.0507 3.3391-1.002 4.2891-0.69125 0.6925-1.6255 0.93359-2.3867 0.93359-0.5875 0-1.3814-0.06898-2.1602-0.70898-0.8475-0.69125-1.3496-1.7477-1.3496-4.2539v-2.4199c0-2.6275 0.00016-3.1123 0.0352-3.666 0.035-0.60375 0.17312-0.90008 0.64062-0.98633 0.2075-0.03375 0.31-0.05078 0.5-0.05078 0.1725 0 0.27735-0.035 0.27735-0.15625s-0.12211-0.15625-0.38086-0.15625c-0.6225 0-1.71 0.05273-2.125 0.05273-0.51875 0-1.6091-0.05273-2.5254-0.05273zm52.166 0c-0.27625 0-0.41406 0.03492-0.41406 0.13867 0 0.13875 0.10359 0.17383 0.27734 0.17383 0.2075 0 0.4318 0.01711 0.62305 0.06836 0.38 0.08625 0.55289 0.38125 0.58789 0.96875 0.035 0.55375 0.0352 1.0385 0.0352 3.666v3.043c0 1.6762-0.00039 3.0433-0.0879 3.7695-0.0513 0.50125-0.155 0.79648-0.5 0.86523-0.15625 0.03375-0.365 0.06836-0.625 0.06836-0.2075 0-0.27539 0.05117-0.27539 0.13867 0 0.12 0.1207 0.17188 0.3457 0.17188 0.69125 0 1.7809-0.05273 2.1797-0.05273 0.46625 0 1.5548 0.05273 2.6973 0.05273 0.19 0 0.32813-0.05188 0.32813-0.17188 0-0.0875-0.0873-0.13867-0.27735-0.13867-0.25875 0-0.64031-0.03461-0.88281-0.06836-0.51875-0.06875-0.63891-0.38016-0.69141-0.84766-0.0687-0.74375-0.0684-2.1109-0.0684-3.7871v-3.043c0-2.6275-0.00055-3.1123 0.0332-3.666 0.035-0.60375 0.17508-0.90008 0.64258-0.98633 0.20625-0.03375 0.34507-0.05078 0.51757-0.05078 0.17376 0 0.2754-0.03508 0.2754-0.17383 0-0.10375-0.13633-0.13867-0.36133-0.13867-0.6575 0-1.6769 0.05273-2.1094 0.05273-0.5025 0-1.5925-0.05273-2.25-0.05273zm15.615 0c-0.26 0-0.44922 0.01875-0.44922 0.15625 0 0.10375 0.0508 0.15625 0.20703 0.15625 0.1375 0 0.41383-0.000391 0.67383 0.06836 0.6225 0.1725 0.9157 0.36445 1.3144 1.3145l4.3574 10.564c0.32875 0.8125 0.43125 1.0547 0.65625 1.0547 0.2425 0 0.34688-0.27555 0.79688-1.2793 0.38-0.865 1.1926-2.7484 2.2988-5.2734 0.93375-2.1275 1.4024-3.0612 2.0762-4.6875 0.46625-1.1062 0.72547-1.3997 0.94922-1.5547 0.31125-0.2075 0.67515-0.20703 0.84765-0.20703s0.27735-0.035 0.27735-0.15625-0.13828-0.15625-0.36329-0.15625c-0.51874 0-1.332 0.05273-1.627 0.05273-0.22375 0-0.94945-0.05273-1.8144-0.05273-0.3275 0-0.48438 0.03508-0.48438 0.17383 0 0.12125 0.13797 0.13867 0.29297 0.13867 0.225 0 0.48586 0.01719 0.69336 0.08594 0.155 0.05125 0.22461 0.19062 0.22461 0.32812 0 0.15625-0.07 0.41438-0.15625 0.64062-0.415 1.14-2.6625 6.7088-3.4062 8.6113h-0.0684l-2.9746-7.8516c-0.2425-0.6225-0.39843-1.1051-0.39843-1.3301 0-0.15625 0.0526-0.27703 0.17382-0.36328 0.1375-0.10375 0.39758-0.12109 0.67383-0.12109 0.15625 0 0.25977-0.035 0.25977-0.15625s-0.19094-0.15625-0.39844-0.15625c-0.86375 0-1.6925 0.05273-2.125 0.05273-0.605 0-1.5916-0.05273-2.5078-0.05273zm45.477 0c-0.25875 0-0.38086 0.035-0.38086 0.15625s0.10367 0.15625 0.29492 0.15625c0.24125 0 0.53508 0.01703 0.67383 0.05078 0.57 0.12125 0.70844 0.39883 0.74219 0.98633 0.035 0.55375 0.0351 1.0385 0.0351 3.666v3.043c0 1.59 0.00032 2.9573-0.0859 3.6836-0.0688 0.50125-0.15571 0.88242-0.50196 0.95117-0.155 0.03375-0.36109 0.06836-0.62109 0.06836-0.20625 0-0.27734 0.05117-0.27734 0.13867 0 0.12 0.1207 0.17188 0.3457 0.17188 0.69 0 1.7819-0.05273 2.1094-0.05273 0.26 0 1.5385 0.05273 2.541 0.05273 0.225 0 0.3457-0.05188 0.3457-0.17188 0-0.0875-0.0683-0.13867-0.20703-0.13867-0.2075 0-0.58695-0.03461-0.8457-0.06836-0.52-0.06875-0.62453-0.44992-0.67578-0.95117-0.0862-0.72625-0.0859-2.0924-0.0859-3.7012v-0.24219c0-0.10375 0.0524-0.13867 0.13867-0.13867l1.5039 0.03516c0.12125 0 0.225 0.01734 0.3125 0.12109 0.225 0.25875 1.0197 1.4348 1.7109 2.3848 0.96874 1.3325 1.6247 2.1455 2.3672 2.543 0.45 0.2425 0.88407 0.32812 1.8516 0.32812h1.6426c0.2075 0 0.32813-0.03312 0.32813-0.17188 0-0.0875-0.0683-0.13867-0.20703-0.13867-0.1375 0-0.29438-0.01773-0.48438-0.05273-0.26-0.05125-0.96804-0.17328-1.9355-1.1758-1.0213-1.0725-2.2152-2.6106-3.7539-4.5469 1.7462-1.4188 2.2832-2.5943 2.2832-3.873 0-1.1588-0.69203-2.0397-1.1758-2.3672-0.9325-0.64-2.0929-0.74609-3.1816-0.74609-0.53625 0-1.85 0.05273-2.4375 0.05273-0.3625 0-1.4541-0.05273-2.3691-0.05273zm43.176 0c-0.2775 0-0.41406 0.03492-0.41406 0.13867 0 0.13875 0.10289 0.17383 0.27539 0.17383 0.2075 0 0.43305 0.01711 0.62305 0.06836 0.38 0.08625 0.55414 0.38125 0.58789 0.96875 0.035 0.55375 0.0351 1.0385 0.0351 3.666v3.043c0 1.6762 0.00031 3.0433-0.0859 3.7695-0.0525 0.50125-0.15696 0.79648-0.50196 0.86523-0.155 0.03375-0.3643 0.06836-0.62304 0.06836-0.2075 0-0.27735 0.05117-0.27735 0.13867 0 0.12 0.12391 0.17188 0.34766 0.17188 0.69125 0 1.7802-0.05273 2.1777-0.05273 0.46625 0 1.556 0.05273 2.6973 0.05273 0.19 0 0.32812-0.05188 0.32812-0.17188 0-0.0875-0.0873-0.13867-0.27734-0.13867-0.25875 0-0.63961-0.03461-0.88086-0.06836-0.51875-0.06875-0.64016-0.38016-0.69141-0.84766-0.07-0.74375-0.0703-2.1109-0.0703-3.7871v-3.043c0-2.6275 0.00016-3.1123 0.0352-3.666 0.035-0.60375 0.17312-0.90008 0.64062-0.98633 0.2075-0.03375 0.34578-0.05078 0.51953-0.05078 0.1725 0 0.27539-0.03508 0.27539-0.17383 0-0.10375-0.13703-0.13867-0.36328-0.13867-0.65625 0-1.6769 0.05273-2.1094 0.05273-0.50125 0-1.5918-0.05273-2.248-0.05273zm37.992 0c-0.2075 0-0.32813 0.0525-0.32813 0.15625 0 0.12125 0.12032 0.15625 0.25782 0.15625 0.2075 0 0.50226 0.10211 0.72851 0.22461 0.3275 0.18875 0.75891 0.62297 1.1914 1.2617 0.605 0.9 2.923 4.7042 3.043 4.9805 0.225 0.50125 0.39843 0.8807 0.39843 1.8145v1.418c0 0.27625-0.00023 1.0042-0.0527 1.7305-0.035 0.50125-0.18891 0.88242-0.53516 0.95117-0.155 0.03375-0.36297 0.06836-0.60547 0.06836-0.19 0-0.27734 0.05117-0.27734 0.13867 0 0.13875 0.13961 0.17188 0.38086 0.17188 0.64 0 1.7296-0.05273 2.1621-0.05273 0.46625 0 1.5558 0.05273 2.6445 0.05273 0.225 0 0.36328-0.05188 0.36328-0.17188 0-0.0875-0.0854-0.13867-0.27539-0.13867-0.2425 0-0.62398-0.03461-0.86523-0.06836-0.51875-0.06875-0.67399-0.44992-0.70899-0.95117-0.0525-0.72625-0.0527-1.4542-0.0527-1.7305v-1.418c0-0.57-0.00024-1.106 0.25976-1.7285 0.31125-0.74375 2.7315-4.8068 3.3027-5.498 0.38-0.4675 0.56984-0.67516 0.93359-0.84766 0.25875-0.13875 0.58727-0.20703 0.75977-0.20703 0.19125 0 0.32812-0.05258 0.32812-0.17383 0-0.10375-0.12054-0.13867-0.31054-0.13867-0.32875 0-1.4684 0.05273-1.8496 0.05273-0.50125 0-1.055-0.05273-1.625-0.05273-0.2075 0-0.29297 0.035-0.29297 0.15625 0 0.10375 0.15429 0.13883 0.31054 0.17383 0.29375 0.06875 0.36133 0.25914 0.36133 0.43164 0 0.225-0.0677 0.51914-0.24023 0.90039-0.2425 0.535-2.4212 4.3402-2.5938 4.7539-0.2775-0.48375-2.697-4.6524-2.9395-5.1699-0.12-0.2425-0.20898-0.44914-0.20898-0.58789 0-0.1375 0.0891-0.2775 0.24414-0.3125 0.26-0.06875 0.37891-0.0857 0.37891-0.18945s-0.0853-0.15625-0.25781-0.15625c-0.77875 0-1.4891 0.05273-1.8516 0.05273-0.57125 0-1.8665-0.05273-2.1777-0.05273zm-76.689 0.81445c1.0188 0 2.6465 0.70906 2.6465 3.1641 0 1.4188-0.50274 2.2138-1.0215 2.5938-0.31125 0.225-0.53601 0.29297-1.2285 0.29297-0.43125 0-0.94875-0.05063-1.3125-0.17188-0.12125-0.0525-0.15625-0.1225-0.15625-0.3125v-5.2559c0-0.13875 0.035-0.20719 0.15625-0.24219 0.17375-0.0525 0.48226-0.06836 0.91601-0.06836z" transform="matrix(.8 0 0 -.8 0 52)" fill="#b32d33"/></g></g></svg>
