<svg xmlns="http://www.w3.org/2000/svg" xml:space="preserve" height="86.1" viewBox="0 0 300.3 86.1" width="300.3" version="1.1">
  <defs>
    <clipPath clipPathUnits="userSpaceOnUse">
      <path d="m0 612h792v-612h-792v612z"/>
    </clipPath>
  </defs>
  <g transform="matrix(1.25 0 0 -1.25 -316.63 425.51)">
    <path d="m253.3 271.5h68.9v68.9h-68.9v-68.9z" fill="#e5801c"/>
    <g fill="#e5801c">
      <g fill="#e5801c" clip-path="url(#a)">
        <g transform="translate(309.22 286.96)">
          <path d="m0 0 0.1 19.6c0 4.7-0.1 7.5 5 7.3l0 2.1c-3.2 0-6.5-0.1-9.7-0.2-2.8 0.1-5.5 0.2-8.3 0.3l0-2.1c5.1 0.2 5-2.6 5-7.3l0-8-15.6 0.1 0 2c0 2.6-0.1 4.2-0.1 6.2 0 2.2 0.3 3.8 0.7 5.4 0.6 1.2 1.9 1.8 4.4 1.7l0 2.1c-2.4 0-4.9-0.1-7.3-0.2-5.9 4.7-16.2 4.1-16.2 10.9 0 3.2 2.9 5.1 6.3 5.1 4.2 0 8.8-3.7 10-7.8 0.4-1.4 0.6-2.3 1.6-2.3 0.8 0 1.1 0.5 1.1 1.2 0 0.6-0.8 5.7-0.7 8.9 0 0.7-0.2 1.1-0.9 1.1-1.8 0-6.9 1.4-11.6 1.5-6.5 0-11.1-5.1-11.1-10.9-0.1-10.6 9.7-11.7 15.7-14.5 0-0.7 0-1.5 0-2.3l0-9.3c-0.7-0.2-1.6-0.3-2.4-0.3-5.1 0-9.1 4-11.1 8.4-0.4 0.8-0.6 2.4-1.7 2.4-0.9 0-1.1-0.4-1.2-0.8 0-0.5 0.3-1.3 0.4-1.8l1.9-7.8c0.2-0.8 1.1-0.8 1.6-1 3.3-0.7 6.4-1.9 9.9-1.9 0.9 0 1.8 0.1 2.6 0.2l0-7.6c0-4.7 0.1-7.5-5-7.3l0-2.1c2.9 0 5.7 0.1 8.6 0.2 3.1-0.1 6.2-0.2 9.3-0.3l0 2.1c-5.1-0.1-4.9 2.6-4.9 7.3l0 8.6 15.6-0.1 0-8.6c0-4.7 0-7.5-5-7.3l0-2.1c3 0 5.8 0.1 8.8 0.2 3.1-0.1 6.2-0.2 9.2-0.3l0 2.1c-5.1-0.2-4.9 2.6-4.9 7.3" fill="#e5801c"/>
        </g>
        <g transform="translate(327.89 279.05)">
          <path d="m0 0v-0.6h-1.6v-4.3h-0.7v4.3h-1.6v0.6h3.9z" fill="#e5801c"/>
        </g>
        <g transform="translate(328.48 279.05)">
          <path d="m0 0h0.9l1.4-4.1 1.4 4.1h0.9v-4.8h-0.6v2.9c0 0.1 0 0.3 0 0.5 0 0.2 0 0.5 0 0.7l-1.4-4.1h-0.6l-1.4 4.1v-0.1c0-0.1 0-0.3 0-0.5 0-0.2 0-0.4 0-0.5v-2.9h-0.6v4.8z" fill="#e5801c"/>
        </g>
        <g transform="translate(350.41 310.16)">
          <path d="m0 0c-2.1 0-3.4 0.6-3.9 0.9-0.4 0.5-0.7 2.2-0.7 3.7 0.2 0.3 0.7 0.3 0.9 0.1 0.5-1.5 2-3.6 4-3.6 1.7 0 2.5 1.2 2.5 2.3 0 1.9-1.7 3-3.1 3.7-1.7 0.8-3.5 2.2-3.5 4.5 0 2.6 2 4.4 5.3 4.4 0.8 0 1.7-0.1 2.6-0.4 0.3-0.1 0.5-0.1 0.8-0.2 0.2-0.5 0.4-1.7 0.4-3.3-0.1-0.3-0.7-0.3-0.9-0.1-0.4 1.2-1.4 2.9-3 2.9-1.5 0-2.3-1-2.3-2.1 0-1.1 0.9-2 2.1-2.6l1.5-0.8c1.4-0.8 3.2-2.1 3.2-4.6 0-2.8-2.3-4.7-5.8-4.7" fill="#e5801c"/>
        </g>
        <g transform="translate(362.37 314.28)">
          <path d="m0 0c0 0.4 0 0.4-0.2 0.4-1-0.1-1.9-0.5-1.9-1.6 0-0.7 0.5-1.4 1.2-1.4 0.7 0 0.9 0.4 0.9 1.1l0 1.4zm2.8-0.6c-0.1-1.6 0.6-2 1-2 0.3 0 0.5 0.1 0.9 0.3 0.2 0 0.3-0.3 0.3-0.5-0.3-0.4-1.4-1.2-2.7-1.2-0.8 0-1.3 0.3-1.9 0.8-0.2 0.1-0.3 0.2-0.4 0.2s-0.3-0.1-0.5-0.3c-0.4-0.3-1.1-0.7-2-0.7-1.3 0-2.6 0.8-2.6 2.4 0 1.2 0.7 1.9 2.4 2.4 0.9 0.3 1.5 0.5 2.2 0.6 0.4 0.1 0.5 0.3 0.6 0.5 0 0.3 0 0.5 0 0.8 0 0.9-0.3 2-1.3 2-0.6 0-1-0.3-1.2-1.3 0-0.4-0.2-0.6-0.4-0.7-0.3-0.3-1.2-0.5-1.7-0.5-0.4 0-0.5 0.3-0.5 0.6 0 0.6 0.6 1.3 1.1 1.8 0.8 0.6 2.2 1.4 3.9 1.4 1.9 0 3.1-1 2.9-3.3l-0.2-3z" fill="#e5801c"/>
        </g>
        <g transform="translate(368.72 316.67)">
          <path d="m0 0c0 0.9 0 1.2-0.4 1.5l-0.3 0.2c-0.2 0.1-0.2 0.6 0 0.7 1.1 0.3 2.7 0.9 3.4 1.3 0.2 0 0.3-0.1 0.4-0.2 0-0.3-0.1-0.9-0.1-1 0-0.1 0-0.2 0.1-0.2s0.3 0.1 0.4 0.2c0.5 0.3 1.5 0.9 2.6 0.9 0.8 0 1.5-0.3 2.1-0.9 0.3-0.3 0.4-0.4 0.6-0.4 0.1 0 0.3 0.2 0.7 0.4 0.5 0.3 1.4 0.9 2.6 0.9 1.8 0 2.8-1.3 2.8-2.9v-4c0-1.6 0.1-1.8 0.9-1.9l0.4 0c0.2-0.1 0.2-0.7 0-0.8-0.7 0-1.6 0.1-2.7 0.1-0.9 0-1.9 0-2.5-0.1-0.2 0.1-0.2 0.7 0 0.8l0.4 0c0.6 0.1 0.7 0.3 0.7 1.5v3.9c0 0.9-0.5 1.6-1.5 1.6-0.6 0-1.1-0.3-1.3-0.6-0.1-0.1-0.2-0.4-0.2-0.7v-4.3c0-1.3 0.1-1.5 0.6-1.5l0.4 0c0.2-0.1 0.2-0.7 0-0.8-0.7 0-1.4 0.1-2.5 0.1-0.9 0-1.8 0-2.4-0.1-0.2 0.1-0.2 0.7 0 0.8l0.4 0c0.5 0.1 0.6 0.3 0.6 1.5v3.9c0 0.9-0.5 1.6-1.6 1.6-0.6 0-1.1-0.3-1.2-0.6-0.1-0.2-0.2-0.4-0.2-0.8v-4.1c0-1.3 0.1-1.5 0.7-1.5l0.4 0c0.2-0.1 0.2-0.7 0-0.8-0.7 0-1.4 0.1-2.6 0.1-1 0-1.9 0-2.6-0.1-0.2 0.1-0.2 0.7 0 0.8l0.4 0c0.8 0.1 0.9 0.3 0.9 1.9v3.5z" fill="#e5801c"/>
        </g>
        <g transform="translate(397.72 317.82)">
          <path d="m0 0c-0.9 0-1 0-1-0.7v-3.3c0-2.1 0.1-2.3 1.2-2.5l0.7-0.1c0.2-0.1 0.2-0.7 0-0.8-1.3 0-2.5 0.1-3.5 0.1-1.1 0-2.3 0-3.4-0.1-0.2 0.1-0.2 0.7 0 0.8l0.6 0.1c1.1 0.1 1.2 0.4 1.2 2.5v8.6c0 2.1-0.1 2.4-1.2 2.5l-0.6 0.1c-0.2 0.1-0.2 0.7 0 0.8 1.1 0 2.3-0.1 3.4-0.1 1 0 2.2 0 3.2 0.1 0.2-0.1 0.2-0.7 0-0.8l-0.5-0.1c-1-0.1-1.1-0.4-1.1-2.5v-2.7c0-0.7 0-0.7 1-0.7h4.8c1 0 1 0 1 0.7v2.7c0 2.1-0.1 2.3-1.2 2.5l-0.6 0.1c-0.2 0.1-0.2 0.7 0 0.8 1.3 0 2.4-0.1 3.5-0.1 1.1 0 2.2 0 3.2 0.1 0.2-0.1 0.2-0.7 0-0.8l-0.5-0.1c-1.1-0.2-1.2-0.4-1.2-2.5v-8.6c0-2.1 0.1-2.3 1.2-2.5l0.6-0.1c0.2-0.1 0.2-0.7 0-0.8-1.1 0-2.3 0.1-3.3 0.1-1.1 0-2.3 0-3.4-0.1-0.2 0.1-0.2 0.7 0 0.8l0.5 0.1c1.1 0.1 1.2 0.4 1.2 2.5v3.3c0 0.6 0 0.7-1 0.7h-4.8z" fill="#e5801c"/>
        </g>
        <g transform="translate(413 315.45)">
          <path d="m0 0c0-2.4 0.8-4.2 2.1-4.2 1.3 0 1.7 1.5 1.7 3.6 0 2.2-0.7 4.2-2 4.2-1 0-1.8-1-1.8-3.5m-3.3-0.5c0 3.3 2.6 5.1 5.3 5.1 2.7 0 5.2-1.7 5.2-4.9 0-3.4-2.5-4.9-5.3-4.9-2.7 0-5.1 1.6-5.2 4.7" fill="#e5801c"/>
        </g>
        <g transform="translate(431.67 313.56)">
          <path d="m0 0c0-1.4 0.1-2 0.6-2 0.3 0 0.6 0.1 0.9 0.2 0.2 0 0.2-0.9-0.1-1-2.3-0.1-4.2-0.8-4.3-0.8-0.2 0-0.3 0.1-0.3 0.3 0 0.3 0.1 0.6 0.1 0.8 0 0.1-0.1 0.2-0.3 0.2-0.9-0.6-1.7-1.1-3.1-1.1-1.9 0-2.7 1-2.7 2.9v3.9c0 1.2-0.1 1.3-0.7 1.5l-0.3 0.1c-0.2 0.2-0.1 0.6 0.1 0.8 0.8 0 1.6 0.1 2.2 0.2 0.7 0.1 1.4 0.4 1.5 0.4 0.1 0 0.3-0.2 0.3-0.3 0-0.6-0.1-1.2-0.1-2v-3.8c0-1.1 0.2-2.1 1.6-2.1 0.6 0 1 0.3 1.2 0.4 0.2 0.1 0.3 0.5 0.3 0.7v4.3c0 0.9-0.2 1.1-1 1.2l-0.3 0c-0.2 0.2-0.2 0.7 0.1 0.8 0.8 0 1.7 0.1 2.4 0.2 0.8 0.1 1.5 0.4 1.6 0.4 0.1 0 0.2-0.1 0.2-0.3 0-0.4-0.1-1.2-0.1-2v-4.2z" fill="#e5801c"/>
        </g>
        <g transform="translate(434.27 310.92)">
          <path d="m0 0c-0.3 0.5-0.4 1.6-0.4 2.6 0.1 0.2 0.6 0.3 0.8 0 0.3-0.9 1.2-2.3 2.3-2.3 0.7 0 1.2 0.4 1.2 1.2 0 0.9-0.7 1.3-1.5 1.7-1.4 0.7-2.4 1.5-2.4 2.9 0 2 1.7 3 3.7 3 1.2 0 2.2-0.3 2.5-0.5 0.2-0.5 0.3-1.4 0.3-2.3-0.1-0.3-0.7-0.3-0.8-0.1-0.5 1.3-1 1.8-1.8 1.8-0.7 0-1.2-0.4-1.2-1 0-0.5 0.4-1 1.5-1.5 1.6-0.8 2.5-1.7 2.5-3.2 0-2-1.8-3.1-3.9-3.1-1.3 0-2.2 0.2-2.9 0.7" fill="#e5801c"/>
        </g>
        <g transform="translate(446.67 318.48)">
          <path d="m0 0c-0.3 0-0.3 0-0.3-0.5v-3.4c0-1.3 0-2.7 1.6-2.7 0.3 0 0.7 0.2 1 0.3 0.2-0.1 0.4-0.3 0.3-0.6-0.6-0.7-1.9-1.3-3.3-1.3-1.9 0-2.6 1.1-2.6 2.6v5.1c0 0.5 0 0.5-0.4 0.5h-0.7c-0.3 0.1-0.3 0.6-0.1 0.7 0.7 0.3 1.4 0.7 1.9 1 0.4 0.3 1 0.8 1.7 1.8 0.2 0.1 0.6 0.1 0.7-0.1v-1.7c0-0.4 0-0.5 0.4-0.5h2c0.1-0.1 0.2-0.2 0.2-0.4 0-0.3-0.1-0.7-0.3-0.8h-2.1z" fill="#e5801c"/>
        </g>
        <g transform="translate(453.04 315.45)">
          <path d="m0 0c0-2.4 0.8-4.2 2.1-4.2 1.3 0 1.7 1.5 1.7 3.6 0 2.2-0.7 4.2-2 4.2-1 0-1.8-1-1.8-3.5m-3.3-0.5c0 3.3 2.6 5.1 5.3 5.1 2.7 0 5.2-1.7 5.2-4.9 0-3.4-2.5-4.9-5.3-4.9-2.7 0-5.1 1.6-5.2 4.7" fill="#e5801c"/>
        </g>
        <g transform="translate(462.81 316.67)">
          <path d="m0 0c0 0.9 0 1.2-0.4 1.5l-0.3 0.2c-0.2 0.1-0.2 0.6 0 0.7 1.1 0.3 2.7 0.9 3.4 1.3 0.2 0 0.3-0.1 0.4-0.2 0-0.3-0.1-0.9-0.1-1 0-0.1 0-0.2 0.1-0.2 0.1 0 0.3 0.1 0.4 0.2 0.5 0.3 1.6 0.9 2.6 0.9 1.9 0 2.9-1.3 2.9-2.9v-4c0-1.6 0.1-1.8 0.9-1.9l0.4 0c0.2-0.1 0.2-0.7 0-0.8-0.7 0-1.7 0.1-2.8 0.1-0.9 0-1.8 0-2.5-0.1-0.2 0.1-0.2 0.7 0 0.8l0.4 0.1c0.5 0.1 0.6 0.3 0.6 1.5v3.9c0 0.9-0.5 1.6-1.6 1.6-0.6 0-1.1-0.3-1.3-0.6-0.1-0.2-0.2-0.4-0.2-0.8v-4.1c0-1.3 0.1-1.5 0.7-1.5l0.4 0c0.2-0.1 0.2-0.7 0-0.8-0.7 0-1.4 0.1-2.6 0.1-1 0-1.9 0-2.7-0.1-0.2 0.1-0.2 0.7 0 0.8l0.4 0c0.8 0.1 0.9 0.3 0.9 1.9v3.5z" fill="#e5801c"/>
        </g>
        <g transform="translate(350.41 291.16)">
          <path d="m0 0c-2.1 0-3.4 0.6-3.9 0.9-0.4 0.5-0.7 2.2-0.7 3.7 0.2 0.3 0.7 0.3 0.9 0.1 0.5-1.5 2-3.6 4-3.6 1.7 0 2.5 1.2 2.5 2.3 0 1.9-1.7 3-3.1 3.7-1.7 0.8-3.5 2.2-3.5 4.5 0 2.6 2 4.4 5.3 4.4 0.8 0 1.7-0.1 2.6-0.4 0.3-0.1 0.5-0.1 0.8-0.2 0.2-0.5 0.4-1.7 0.4-3.3-0.1-0.3-0.7-0.3-0.9-0.1-0.4 1.2-1.4 2.9-3 2.9-1.5 0-2.3-1-2.3-2.1 0-1.1 0.9-2 2.1-2.6l1.5-0.8c1.4-0.8 3.2-2.1 3.2-4.6 0-2.8-2.3-4.7-5.8-4.7" fill="#e5801c"/>
        </g>
        <g transform="translate(361.41 299.48)">
          <path d="m0 0c-0.3 0-0.3 0-0.3-0.5v-3.4c0-1.3 0-2.7 1.6-2.7 0.3 0 0.7 0.2 1 0.3 0.2-0.1 0.4-0.3 0.3-0.6-0.6-0.7-1.9-1.3-3.3-1.3-1.9 0-2.6 1.1-2.6 2.6v5.1c0 0.5 0 0.5-0.4 0.5h-0.7c-0.3 0.1-0.3 0.6-0.1 0.7 0.7 0.3 1.4 0.7 1.9 1 0.4 0.3 1 0.8 1.7 1.8 0.2 0.1 0.6 0.1 0.7-0.1v-1.7c0-0.4 0-0.5 0.4-0.5h2c0.1-0.1 0.2-0.2 0.2-0.4 0-0.3-0.1-0.7-0.3-0.8h-2.1z" fill="#e5801c"/>
        </g>
        <g transform="translate(369.53 295.28)">
          <path d="m0 0c0 0.4 0 0.4-0.2 0.4-1-0.1-1.9-0.5-1.9-1.6 0-0.7 0.5-1.4 1.2-1.4 0.7 0 0.9 0.4 0.9 1.1l0 1.4zm2.8-0.6c-0.1-1.6 0.6-2 1-2 0.3 0 0.5 0.1 0.9 0.3 0.2 0 0.3-0.3 0.3-0.5-0.3-0.4-1.4-1.2-2.7-1.2-0.8 0-1.3 0.3-1.9 0.8-0.2 0.1-0.3 0.2-0.4 0.2s-0.3-0.1-0.5-0.3c-0.4-0.3-1.1-0.7-2-0.7-1.3 0-2.6 0.8-2.6 2.4 0 1.2 0.7 1.9 2.4 2.4 0.9 0.3 1.5 0.5 2.2 0.6 0.4 0.1 0.5 0.3 0.6 0.5 0 0.3 0 0.5 0 0.8 0 0.9-0.3 2-1.3 2-0.6 0-1-0.3-1.2-1.3 0-0.4-0.2-0.6-0.4-0.7-0.3-0.3-1.2-0.5-1.7-0.5-0.4 0-0.5 0.3-0.5 0.6 0 0.6 0.6 1.3 1.1 1.8 0.8 0.6 2.2 1.4 3.9 1.4 1.9 0 3.1-1 2.9-3.3l-0.2-3z" fill="#e5801c"/>
        </g>
        <g transform="translate(379.02 299.48)">
          <path d="m0 0c-0.3 0-0.3 0-0.3-0.5v-3.4c0-1.3 0-2.7 1.6-2.7 0.3 0 0.7 0.2 1 0.3 0.2-0.1 0.4-0.3 0.3-0.6-0.6-0.7-1.9-1.3-3.3-1.3-1.9 0-2.6 1.1-2.6 2.6v5.1c0 0.5 0 0.5-0.4 0.5h-0.7c-0.3 0.1-0.3 0.6-0.1 0.7 0.7 0.3 1.4 0.7 1.9 1 0.4 0.3 1 0.8 1.7 1.8 0.2 0.1 0.6 0.1 0.7-0.1v-1.7c0-0.4 0-0.5 0.4-0.5h2c0.1-0.1 0.2-0.2 0.2-0.4 0-0.3-0.1-0.7-0.3-0.8h-2.1z" fill="#e5801c"/>
        </g>
        <g transform="translate(387.03 297.99)">
          <path d="m0 0c0.3 0 0.7 0 0.9 0.2 0.1 0.1 0.2 0.3 0.2 0.5 0 0.8-0.4 1.3-1.2 1.3-1 0-1.8-0.9-1.8-1.7 0-0.3 0.3-0.3 1.1-0.3h0.9zm-1.5-1c-0.5 0-0.6 0-0.6-0.4 0-1.7 1.1-3.4 3.2-3.4 0.6 0 1.5 0.1 2.1 1.2 0.3 0 0.6-0.1 0.6-0.5-0.9-2-2.6-2.6-4-2.6-3.1 0-4.8 2.2-4.8 4.7 0 2.9 2.1 5.2 5 5.2 2.4 0 3.7-1.5 3.7-3.3 0-0.4-0.1-0.8-0.8-0.8h-4.4z" fill="#e5801c"/>
        </g>
        <g transform="translate(399.06 303.39)">
          <path d="m0 0c0 2.1-0.1 2.3-1.2 2.5l-0.6 0.1c-0.2 0.1-0.2 0.6 0 0.8 1.1 0 2.3-0.1 3.4-0.1 1.1 0 2.3 0 3.4 0.1 0.2-0.1 0.2-0.6 0-0.8l-0.6-0.1c-1-0.2-1.2-0.4-1.2-2.5v-5.3c0-2.7 0.3-5.7 3.8-5.7 2.9 0 3.8 2.6 3.8 5.7v2.8c0 1.9-0.1 3.6-0.3 4.2-0.2 0.5-0.7 0.6-1.3 0.7l-0.6 0.1c-0.2 0.2-0.1 0.6 0 0.8 1.2 0 2.1-0.1 3.1-0.1 0.9 0 1.7 0 2.6 0.1 0.1-0.1 0.2-0.6 0-0.8l-0.4-0.1c-0.6-0.1-1-0.3-1.2-0.8-0.3-0.6-0.3-2.3-0.3-4.2v-2.6c0-2.2-0.2-4.1-1.5-5.5-1-1.1-2.7-1.7-4.6-1.7-1.7 0-3.3 0.3-4.6 1.3-1.2 1-1.7 2.7-1.7 5.2v5.7z" fill="#e5801c"/>
        </g>
        <g transform="translate(414.54 297.67)">
          <path d="m0 0c0 0.9 0 1.2-0.4 1.5l-0.3 0.2c-0.2 0.1-0.2 0.6 0 0.7 1.1 0.3 2.7 0.9 3.4 1.3 0.2 0 0.3-0.1 0.4-0.2 0-0.3-0.1-0.9-0.1-1 0-0.1 0-0.2 0.1-0.2 0.1 0 0.3 0.1 0.4 0.2 0.5 0.3 1.6 0.9 2.6 0.9 1.9 0 2.9-1.3 2.9-2.9v-4c0-1.6 0.1-1.8 0.9-1.9l0.4 0c0.2-0.1 0.2-0.7 0-0.8-0.7 0-1.7 0.1-2.8 0.1-0.9 0-1.8 0-2.5-0.1-0.2 0.1-0.2 0.7 0 0.8l0.4 0.1c0.5 0.1 0.6 0.3 0.6 1.5v3.9c0 0.9-0.5 1.6-1.6 1.6-0.6 0-1.1-0.3-1.3-0.6-0.1-0.2-0.2-0.4-0.2-0.8v-4.1c0-1.3 0.1-1.5 0.7-1.5l0.4 0c0.2-0.1 0.2-0.7 0-0.8-0.7 0-1.4 0.1-2.6 0.1-1 0-1.9 0-2.7-0.1-0.2 0.1-0.2 0.7 0 0.8l0.4 0c0.8 0.1 0.9 0.3 0.9 1.9v3.5z" fill="#e5801c"/>
        </g>
        <g transform="translate(430.36 304.59)">
          <path d="m0 0c0-1.1-0.9-1.7-1.7-1.7-1 0-1.6 0.7-1.6 1.6 0 1 0.8 1.7 1.7 1.7 1 0 1.6-0.7 1.6-1.6m-0.2-10.4c0-1.6 0.1-1.8 0.9-1.9l0.4 0c0.2-0.1 0.2-0.7 0-0.8-0.8 0-1.7 0.1-2.8 0.1-1 0-2 0-2.8-0.1-0.2 0.1-0.2 0.7 0 0.8l0.4 0c0.8 0.1 0.8 0.3 0.8 1.9v3.5c0 0.9 0 1.2-0.4 1.5l-0.3 0.2c-0.2 0.1-0.2 0.6 0 0.7 1.1 0.3 2.7 0.9 3.4 1.3 0.2 0 0.3-0.1 0.4-0.2 0-0.7-0.1-1.7-0.1-2.7v-4.2z" fill="#e5801c"/>
        </g>
        <g transform="translate(431.72 299.99)">
          <path d="m0 0c-0.2 0.2-0.2 0.7 0.1 0.8 0.9 0 1.6-0.1 2.9-0.1 0.8 0 1.7 0 2.6 0.1 0.2-0.1 0.2-0.7 0-0.8l-0.4-0.1c-0.3-0.1-0.4-0.1-0.4-0.2 0-0.1 0.1-0.5 0.2-0.8 0.5-1.3 1-2.5 1.4-3.6 0.5 1.2 1.1 2.4 1.6 3.8 0.1 0.2 0.1 0.4 0.1 0.6 0 0.1-0.2 0.2-0.6 0.3l-0.3 0.1c-0.2 0.1-0.2 0.7 0 0.8 0.7 0 1.2-0.1 1.9-0.1 0.7 0 1.3 0 1.8 0.1 0.3-0.1 0.2-0.7 0-0.8l-0.4-0.1c-0.7-0.1-0.9-0.4-1.3-1.3-1.2-2.4-2.2-4.8-3.3-7.3-0.1-0.1-0.3-0.2-0.5-0.2-0.2 0-0.4 0.1-0.6 0.2-1.2 2.9-1.7 4-3.1 7.1-0.6 1.1-0.7 1.3-1.3 1.4l-0.5 0.1z" fill="#e5801c"/>
        </g>
        <g transform="translate(447.31 297.99)">
          <path d="m0 0c0.3 0 0.7 0 0.9 0.2 0.1 0.1 0.2 0.3 0.2 0.5 0 0.8-0.4 1.3-1.2 1.3-1 0-1.8-0.9-1.8-1.7 0-0.3 0.3-0.3 1.1-0.3h0.9zm-1.5-1c-0.5 0-0.6 0-0.6-0.4 0-1.7 1.1-3.4 3.2-3.4 0.6 0 1.5 0.1 2.1 1.2 0.3 0 0.6-0.1 0.6-0.5-0.9-2-2.6-2.6-4-2.6-3.1 0-4.8 2.2-4.8 4.7 0 2.9 2.1 5.2 5 5.2 2.4 0 3.7-1.5 3.7-3.3 0-0.4-0.1-0.8-0.8-0.8h-4.4z" fill="#e5801c"/>
        </g>
        <g transform="translate(453.24 297.62)">
          <path d="m0 0c0 0.9 0 1.2-0.4 1.5l-0.3 0.2c-0.2 0.1-0.2 0.6 0 0.7 1.1 0.3 2.6 0.9 3.4 1.4 0.2 0 0.3-0.1 0.4-0.2 0-0.5-0.1-0.8-0.1-1 0-0.2 0-0.2 0.2-0.3 0.6 0.4 1.3 1.1 2.3 1.1 0.6 0 1.3-0.5 1.3-1.4 0-1.1-0.7-1.5-1.5-1.5-0.3 0-0.6 0.1-0.9 0.4-0.5 0.4-0.7 0.5-0.9 0.5-0.3 0-0.4-0.5-0.4-1.4v-3.5c0-1.6 0.1-1.8 0.9-1.9l0.7-0.1c0.2-0.1 0.2-0.7 0-0.8-1.1 0-2 0.1-3.1 0.1-0.9 0-2 0-2.7-0.1-0.2 0.1-0.2 0.7 0 0.8l0.4 0c0.8 0.1 0.9 0.3 0.9 1.9v3.5z" fill="#e5801c"/>
        </g>
        <g transform="translate(460.77 291.92)">
          <path d="m0 0c-0.3 0.5-0.4 1.6-0.4 2.6 0.1 0.2 0.6 0.3 0.8 0 0.3-0.9 1.2-2.3 2.3-2.3 0.7 0 1.2 0.4 1.2 1.2 0 0.9-0.7 1.3-1.5 1.7-1.4 0.7-2.4 1.5-2.4 2.9 0 2 1.7 3 3.7 3 1.2 0 2.2-0.3 2.5-0.5 0.2-0.5 0.3-1.4 0.3-2.3-0.1-0.3-0.7-0.3-0.8-0.1-0.5 1.3-1 1.8-1.8 1.8-0.7 0-1.1-0.4-1.1-1 0-0.5 0.4-1 1.5-1.5 1.6-0.8 2.5-1.7 2.5-3.2 0-2-1.8-3.1-3.9-3.1-1.3 0-2.2 0.2-2.9 0.7" fill="#e5801c"/>
        </g>
        <g transform="translate(473.18 304.59)">
          <path d="m0 0c0-1.1-0.8-1.7-1.7-1.7-1 0-1.6 0.7-1.6 1.6 0 1 0.8 1.7 1.7 1.7 1 0 1.6-0.7 1.6-1.6m-0.2-10.4c0-1.6 0.1-1.8 0.9-1.9l0.4 0c0.2-0.1 0.2-0.7 0-0.8-0.8 0-1.7 0.1-2.8 0.1-1 0-2 0-2.8-0.1-0.2 0.1-0.2 0.7 0 0.8l0.4 0c0.8 0.1 0.9 0.3 0.9 1.9v3.5c0 0.9 0 1.2-0.4 1.5l-0.3 0.2c-0.2 0.1-0.2 0.6 0 0.7 1.1 0.3 2.7 0.9 3.4 1.3 0.2 0 0.3-0.1 0.4-0.2 0-0.7-0.1-1.7-0.1-2.7v-4.2z" fill="#e5801c"/>
        </g>
        <g transform="translate(479.74 299.48)">
          <path d="m0 0c-0.3 0-0.3 0-0.3-0.5v-3.4c0-1.3 0-2.7 1.6-2.7 0.3 0 0.7 0.2 1 0.3 0.2-0.1 0.4-0.3 0.3-0.6-0.6-0.7-1.9-1.3-3.3-1.3-1.9 0-2.6 1.1-2.6 2.6v5.1c0 0.5 0 0.5-0.4 0.5h-0.7c-0.3 0.1-0.3 0.6-0.1 0.7 0.7 0.3 1.4 0.7 1.9 1 0.4 0.3 1 0.8 1.7 1.8 0.2 0.1 0.6 0.1 0.7-0.1v-1.7c0-0.4 0-0.5 0.4-0.5h2c0.1-0.1 0.2-0.2 0.2-0.4 0-0.3-0.1-0.7-0.3-0.8h-2.1z" fill="#e5801c"/>
        </g>
        <g transform="translate(481.95 299.99)">
          <path d="m0 0c-0.2 0.2-0.2 0.7 0.1 0.8 0.8 0 1.8-0.1 3-0.1 0.9 0 1.7 0 2.6 0.1 0.2-0.1 0.3-0.6 0.1-0.8l-0.5-0.1c-0.6-0.1-0.7-0.2-0.7-0.4 0-0.3 0.3-0.9 0.7-2 0.3-0.6 0.8-2 1-2.6 0.3 0.5 0.5 1 0.7 1.5l0.4 0.9c0.5 1.1 0.9 2.1 0.9 2.3 0 0.2-0.2 0.3-0.5 0.3l-0.5 0.1c-0.2 0.2-0.2 0.7 0.1 0.8 0.5 0 1.2-0.1 2.2-0.1 0.6 0 1.2 0 1.8 0.1 0.2-0.1 0.3-0.7 0-0.8l-0.4 0c-0.5 0-0.9-0.2-1.1-0.5-0.3-0.4-0.8-1.4-1.4-2.4l-1.2-2.5c-0.8-1.7-2.7-5.5-3.5-7.2-0.5-1-1.1-1.5-2-1.5-1.2 0-1.5 0.8-1.5 1.4 0 0.7 0.5 1.2 1.3 1.2h0.6c0.6 0 0.9 0.2 1.1 0.5 0.3 0.3 0.4 0.8 0.7 1.3 0.1 0.3 0.3 0.7 0.3 1 0 0.3-0.1 0.7-0.4 1.7l-2.2 5.6c-0.4 1.1-0.6 1.5-1.4 1.6l-0.4 0.1z" fill="#e5801c"/>
        </g>
      </g>
    </g>
    <path d="m53.8 77.2c0-1.1 0-1.1 1.1-1.3 2.3-0.3 2.6-0.5 3.5-1.3 1.3-1.3 1.5-2.5 1.7-11.1l0.2-7.7h-9.9-9.9l0.1 8.5c0.1 8 0.1 8.5 0.6 9.4 0.7 1.2 2.5 2.1 4.1 2.1h1.3v1.2 1.2l-11.2 0-11.2 0v-1.1-1.1l1.5-0.1c2.7-0.2 4-1.4 4.5-3.9 0.1-0.8 0.3-4.4 0.3-8.1l0-6.7-3.7 0c-3.5 0-4-0.1-8.4-1.2-2.6-0.7-4.8-1.4-5-1.5-0.4-0.4-3-11.1-3-12.2 0-0.5 0.2-0.8 0.7-1 0.6-0.3 0.8-0.2 1.3 0.3 0.3 0.3 0.9 1.3 1.2 2.1 0.8 2.1 3.2 5.6 4.8 7 3 2.7 6.2 3.9 9.8 3.8 1.2-0.1 2.3-0.2 2.3-0.2 0.1-0.1 0.2-3.4 0.2-7.5l0.1-7.4-4.5-1.7c-9-3.5-11.7-5.4-13.7-9.7-2-4.2-1.7-9.9 0.7-13.7 1.8-2.8 5-5.2 8.2-5.9 2.5-0.6 7.1-0.4 13.8 0.7l5 0.8 0.2 3.3c0.1 1.8 0.3 4.2 0.5 5.3 0.6 4.1 0.3 5.3-1.2 4.8-0.6-0.2-0.9-0.7-1.5-2.4-1.1-2.9-1.9-4.2-3.9-6.1-3.1-2.9-6.1-4.2-9.4-4-2.5 0.1-4.4 0.9-5.8 2.4-2.4 2.6-2 7 1 9.3 1.4 1.1 3.1 1.9 8.4 3.9 5.2 1.9 6.2 2.4 8.2 3.7l1.4 0.9 4.5-0.2 4.5-0.2v1.2 1.2l-1.4 0.1c-4.4 0.5-4.9 1.8-4.9 12.6l0 6.8h9.9 9.9l-0.1-7.8c-0.1-7.5-0.1-7.9-0.7-9-0.7-1.5-2-2.2-4.1-2.5l-1.5-0.2v-1.2-1.2l1.8 0.2c1 0.1 6 0.2 11.2 0.2l9.4 0v1.2 1.2h-1.3c-1.6 0-3.4 0.9-4.1 2-0.3 0.5-0.6 1.8-0.7 3.3-0.4 3.7-0.3 32.2 0 33.9 0.5 2.3 2.3 3.6 4.9 3.6 0.8 0 0.9 0 0.9 1.1v1.1l-11 0-11 0 0-1.1 0 0z" transform="matrix(.8 0 0 -.8 253.3 340.4)" fill="#fff"/>
  </g>
</svg>
