<?xml version="1.0" encoding="UTF-8" standalone="no"?>
<!-- Created with Inkscape (http://www.inkscape.org/) -->

<svg
   xmlns:dc="http://purl.org/dc/elements/1.1/"
   xmlns:cc="http://creativecommons.org/ns#"
   xmlns:rdf="http://www.w3.org/1999/02/22-rdf-syntax-ns#"
   xmlns:svg="http://www.w3.org/2000/svg"
   xmlns="http://www.w3.org/2000/svg"
   version="1.1"
   width="892.91339"
   height="131.4567"
   id="svg6180">
  <defs
     id="defs6182">
    <clipPath
       id="clipPath6061">
      <path
         d="m 48.6,502.008 273.9,0 0,54.08 -273.9,0 0,-54.08 z"
         id="path6063" />
    </clipPath>
  </defs>
  <metadata
     id="metadata6185">
    <rdf:RDF>
      <cc:Work
         rdf:about="">
        <dc:format>image/svg+xml</dc:format>
        <dc:type
           rdf:resource="http://purl.org/dc/dcmitype/StillImage" />
        <dc:title></dc:title>
      </cc:Work>
    </rdf:RDF>
  </metadata>
  <g
     transform="translate(29.772145,-384.32482)"
     id="layer1">
    <g
       transform="matrix(3.3169082,0,0,-3.3169082,-199.73962,2215.7874)"
       clip-path="url(#clipPath6061)"
       id="g6059">
      <path
         d="m 62.582,551.073 -10.271,0 c 0.59,-0.69 1.356,-1.436 1.744,-2.26 0.318,-0.676 0.454,-1.692 0.453,-2.434 l -0.043,-19.765 c 0.162,-3.156 0.428,-6.118 2.691,-8.592 0.963,-1.054 2.637,-2.095 4.177,-2.842 1.54,-0.747 3.225,-1.153 5.039,-1.184 1.813,-0.031 4.077,0.092 5.727,0.516 1.65,0.426 3.125,0.923 4.026,1.508 0.794,0.515 1.636,0.939 2.412,1.485 0.818,0.576 0.795,0.411 0.839,-0.429 l 0.087,-2.262 5.878,0 c -0.945,1.258 -1.766,2.22 -1.766,3.855 l 0,1.097 -0.042,21.661 c 0.062,0.475 0.22,0.259 0.452,0.022 l 18.99,-23.211 c 1.568,-1.636 3.7,-3.963 6.072,-4.436 l 0.97,-0.194 0.085,32.329 c 0.016,0.369 -0.085,0.805 0.324,0.98 0.328,0.142 0.791,0.241 1.55,0.323 0.758,0.083 1.98,0.215 2.993,0.172 4.973,-0.205 10.757,-2.25 13.35,-6.846 1.589,-2.819 2.309,-6.267 1.829,-9.474 -0.237,-1.592 -0.75,-3.745 -1.7,-5.232 -0.952,-1.488 -1.612,-2.722 -3.101,-3.811 -1.488,-1.091 -3.09,-2.075 -4.349,-2.39 l -0.975,-0.244 c -0.402,-0.088 -1.041,-0.196 -1.445,-0.283 l -1.434,-0.313 c -0.019,0.035 -0.217,-0.861 -0.238,-1.653 -0.019,-0.683 0.106,-1.1 0.302,-1.965 2.531,0.147 4.882,0.248 7.33,1.055 5.432,1.792 9.502,5.806 11.037,11.348 1.606,5.798 1.029,12.434 -3.123,17.053 -2.774,3.086 -6.7,4.83 -10.679,5.749 -2.302,0.531 -4.43,0.565 -6.761,0.603 l -12.532,0.043 c 1.13,-0.938 2.764,-1.862 2.855,-3.51 l 0.095,-1.743 0.021,-20.541 c -0.07,-0.494 -0.109,-0.449 -0.517,-0.216 l -21.079,26.01 -8.031,0.021 c 0.745,-0.587 1.478,-1.166 2.051,-1.94 0.956,-1.29 0.873,-3.064 0.937,-4.584 l 0.048,-18.947 c -0.015,-0.474 -0.009,-0.828 -0.093,-1.392 -0.261,-1.752 -1.056,-3.192 -2.577,-4.207 -1.155,-0.772 -3.724,-1.519 -4.974,-1.701 -2.828,-0.411 -5.807,0.597 -7.988,2.39 -2.713,2.23 -2.756,5.517 -2.756,8.677 l 0,15.158 c 0.074,1.338 0.19,2.568 0.495,3.886 0.251,1.085 0.951,1.807 1.615,2.66"
         id="path6065"
         style="fill:#009a66;fill-opacity:1;fill-rule:evenodd;stroke:none" />
      <path
         d="m 117.198,540.804 c 0.619,-0.814 1.079,-1.517 1.296,-2.565 0.177,-0.849 0.419,-2.124 0.102,-3.156 -0.337,-1.086 -0.629,-1.94 -1.37,-3.113 -1.318,-2.084 -3.279,-3.496 -3.974,-5.991 -0.29,-1.038 -0.171,-2.028 -0.085,-3.044 0.156,-1.849 0.838,-4.996 2.114,-6.427 l 1.156,-1.296 c -0.095,0.516 -0.259,0.963 -0.282,1.549 -0.055,1.338 0.184,2.751 0.873,3.918 0.337,0.57 0.978,1.16 1.551,1.889 1.371,1.743 2.928,3.588 3.523,5.778 0.821,3.026 0.612,6.362 -0.902,9.132 -0.51,0.935 -1.963,2.444 -2.959,2.875 l -1.043,0.451"
         id="path6067"
         style="fill:#f5821f;fill-opacity:1;fill-rule:evenodd;stroke:none" />
      <path
         d="m 122.782,535.574 c 0.159,-0.474 0.354,-0.764 0.478,-1.419 0.125,-0.655 0.253,-1.709 0.264,-2.491 0.044,-3.067 -1.39,-5.94 -3.216,-8.329 -0.797,-1.041 -2.037,-1.788 -2.59,-3.02 l -0.346,-0.773 c 2.147,0.464 3.931,1.049 5.756,2.358 2.461,1.764 4.64,4.784 4.041,7.966 -0.287,1.526 -1.355,3.745 -2.705,4.619 l -1.682,1.089"
         id="path6069"
         style="fill:#f5821f;fill-opacity:1;fill-rule:evenodd;stroke:none" />
      <path
         d="m 154.203,535.977 c -1.091,-1.438 -3.124,-2.033 -4.859,-2.033 -1.637,0 -3.372,0.52 -4.488,1.735 -1.314,1.438 -1.265,3.099 -1.265,4.884 l 0,6.621 c 0,1.115 0.174,2.925 -1.091,3.396 l 0,0.074 4.711,0 0,-0.074 c -1.239,-0.471 -1.091,-2.281 -1.091,-3.396 l 0,-6.621 c 0,-3.297 1.388,-4.834 3.942,-4.834 1.389,0 2.802,0.57 3.62,1.736 0.545,0.743 0.521,1.363 0.521,2.256 l 0,7.463 c 0,1.115 0.149,2.925 -1.091,3.396 l 0,0.074 4.711,0 0.025,-0.074 c -1.265,-0.471 -1.117,-2.281 -1.117,-3.421 l 0,-9.347 c 0,-1.116 -0.148,-2.926 1.117,-3.397 l 0,-0.074 -3.645,0 0,1.636"
         id="path6071"
         style="fill:#000000;fill-opacity:1;fill-rule:nonzero;stroke:none" />
      <path
         d="m 162.682,537.564 c 0,-1.389 -0.024,-2.38 1.29,-3.149 l 0,-0.074 -4.389,0 0,0.074 c 1.314,0.769 1.314,1.76 1.314,3.149 l 0,9.892 c 0,1.388 0,2.38 -1.289,3.124 l 0,0.074 3.62,0 0,-0.024 c 0.098,-0.298 0.198,-0.422 0.371,-0.62 l 0.348,-0.496 9.074,-11.454 0,9.396 c 0,1.388 0.025,2.38 -1.289,3.124 l 0,0.074 4.363,0 0,-0.074 c -1.289,-0.744 -1.289,-1.736 -1.289,-3.124 l 0,-13.909 c -1.76,0.595 -2.529,1.413 -3.62,2.827 l -8.504,10.785 0,-9.595"
         id="path6073"
         style="fill:#000000;fill-opacity:1;fill-rule:nonzero;stroke:none" />
      <path
         d="m 178.624,547.159 c 0,1.14 0.173,2.95 -1.091,3.421 l 0,0.074 4.711,0 0,-0.074 c -1.24,-0.471 -1.091,-2.306 -1.091,-3.421 l 0,-9.347 c 0,-1.116 -0.149,-2.926 1.091,-3.397 l 0,-0.074 -4.711,0 0,0.074 c 1.24,0.446 1.091,2.281 1.091,3.397 l 0,9.347"
         id="path6075"
         style="fill:#000000;fill-opacity:1;fill-rule:nonzero;stroke:none" />
      <path
         d="m 194.244,546.167 c 0.669,1.76 1.512,3.793 -0.025,4.413 l 0,0.074 3.694,0 -6.545,-17.057 c -1.736,1.14 -2.306,1.338 -3.025,3.297 l -3.744,10.14 c -0.471,1.265 -0.843,2.703 -1.934,3.546 l 0,0.074 3.62,0 -0.025,-0.297 c 0,-0.545 0.471,-1.76 0.67,-2.306 l 3.942,-10.785 3.372,8.901"
         id="path6077"
         style="fill:#000000;fill-opacity:1;fill-rule:nonzero;stroke:none" />
      <path
         d="m 202.128,536.423 3.148,-0.298 c 1.637,-0.148 3.348,0.372 4.587,1.464 l 0.074,0 -1.115,-3.248 -10.339,0 0,0.074 c 1.264,0.446 1.116,2.281 1.116,3.397 l 0,9.347 c 0,1.14 0.148,2.95 -1.116,3.421 l 0,0.074 7.934,0 c 0.421,0 0.843,-0.049 1.165,0.125 l 0.074,0 0,-2.901 -0.074,0 c -0.768,0.892 -1.785,0.991 -2.926,0.991 -0.867,0 -1.735,-0.025 -2.528,-0.173 l 0,-4.612 2.95,0 c 0.397,0 0.793,0 1.091,0.149 l 0.074,0 0,-2.628 -0.074,0 c -0.397,0.719 -1.438,0.694 -2.207,0.694 l -1.834,0 0,-5.876"
         id="path6079"
         style="fill:#000000;fill-opacity:1;fill-rule:nonzero;stroke:none" />
      <path
         d="m 216.706,550.654 c 3.322,0 5.132,-1.735 5.132,-3.991 0,-2.182 -1.909,-3.893 -3.942,-4.364 l 3.571,-4.487 c 1.041,-1.29 2.603,-2.579 4.016,-3.471 l -2.281,0 c -1.314,0 -2.133,0.322 -2.876,1.239 l -3.025,3.744 -2.281,3.496 c 1.983,0.297 4.289,1.215 4.289,3.545 0,1.786 -1.537,2.827 -3.198,2.752 -0.57,-0.025 -1.116,-0.099 -1.686,-0.198 l 0,-11.107 c 0,-1.141 -0.149,-2.951 1.116,-3.397 l 0,-0.074 -4.736,0 0,0.074 c 1.265,0.446 1.091,2.281 1.091,3.397 l 0,9.347 c 0,1.14 0.174,2.95 -1.091,3.421 l 0,0.074 5.901,0"
         id="path6081"
         style="fill:#000000;fill-opacity:1;fill-rule:nonzero;stroke:none" />
      <path
         d="m 234.334,547.704 c -0.967,0.992 -2.504,1.562 -3.892,1.562 -1.414,0 -3.199,-0.545 -3.199,-2.256 0,-3.397 8.529,-3.347 8.529,-7.934 0,-2.653 -2.777,-5.132 -6.645,-5.132 -1.512,0 -3.024,0.223 -4.437,0.743 l -0.719,3.1 c 1.462,-1.265 3.495,-2.058 5.429,-2.058 1.414,0 3.545,0.843 3.545,2.578 0,3.868 -8.528,3.174 -8.528,8.43 0,3.124 3.198,4.314 6.223,4.314 1.24,0 2.504,-0.174 3.694,-0.546 l 0,-2.801"
         id="path6083"
         style="fill:#000000;fill-opacity:1;fill-rule:nonzero;stroke:none" />
      <path
         d="m 238.623,547.159 c 0,1.14 0.173,2.95 -1.091,3.421 l 0,0.074 4.711,0 0,-0.074 c -1.24,-0.471 -1.091,-2.306 -1.091,-3.421 l 0,-9.347 c 0,-1.116 -0.149,-2.926 1.091,-3.397 l 0,-0.074 -4.711,0 0,0.074 c 1.24,0.446 1.091,2.281 1.091,3.397 l 0,9.347"
         id="path6085"
         style="fill:#000000;fill-opacity:1;fill-rule:nonzero;stroke:none" />
      <path
         d="m 249.879,537.564 c 0,-1.414 -0.025,-2.38 1.289,-3.149 l 0,-0.074 -4.909,0 0,0.074 c 1.24,0.471 1.092,2.281 1.092,3.397 l 0,11.057 -2.182,0 c -1.067,0 -2.182,-0.272 -2.951,-0.991 l -0.075,0 0.868,2.95 0.075,0 c 0.297,-0.124 0.62,-0.124 0.942,-0.174 l 0.62,0 9.248,0 c 0.421,0 0.818,0.025 1.14,0.174 l 0.075,0 -0.794,-2.95 -0.074,0 c -0.323,0.868 -1.314,0.991 -2.132,0.991 l -2.232,0 0,-11.305"
         id="path6087"
         style="fill:#000000;fill-opacity:1;fill-rule:nonzero;stroke:none" />
      <path
         d="m 262.672,537.564 c 0,-1.488 0,-2.232 1.264,-3.149 l 0,-0.074 -4.834,0 0,0.074 c 1.215,0.62 1.041,2.231 1.041,3.397 l 0,3.669 -4.116,6.62 c -0.669,1.091 -1.165,1.909 -2.354,2.553 l 2.256,0 c 0.793,0 1.536,-0.173 1.859,-0.694 l 3.967,-6.47 3.074,4.611 c 0.422,0.62 0.992,1.81 -0.396,2.479 l 0,0.074 4.338,0 -6.099,-9.173 0,-3.917"
         id="path6089"
         style="fill:#000000;fill-opacity:1;fill-rule:nonzero;stroke:none" />
      <path
         d="m 278.193,542.77 c 0,-3.471 2.454,-7.041 6.347,-7.041 3.769,0 6.173,2.752 6.173,6.446 0,3.62 -2.305,7.116 -6.223,7.116 -3.843,0 -6.297,-2.777 -6.297,-6.521 m 15.347,-0.099 c 0,-5.058 -4.19,-8.727 -9.125,-8.727 -4.908,0 -9.048,3.521 -9.048,8.603 0,4.711 4.09,8.653 9.297,8.529 5.206,0.025 8.876,-3.942 8.876,-8.405"
         id="path6091"
         style="fill:#000000;fill-opacity:1;fill-rule:nonzero;stroke:none" />
      <path
         d="m 298.647,537.812 c 0,-1.116 -0.198,-2.926 1.042,-3.397 l 0,-0.074 -4.686,0 0,0.074 c 1.264,0.446 1.115,2.281 1.115,3.397 l 0,9.347 c 0,1.14 0.149,2.95 -1.115,3.421 l 0,0.074 7.934,0 c 0.421,0 0.843,-0.049 1.165,0.125 l 0.074,0 0,-2.877 -0.074,0 c -0.769,0.868 -1.785,0.967 -2.926,0.967 -0.867,0 -1.735,-0.025 -2.529,-0.173 l 0,-4.612 2.976,0 c 0.371,0 0.768,0 1.066,0.149 l 0.074,0 0,-2.628 -0.074,0 c -0.397,0.744 -1.439,0.694 -2.207,0.694 l -1.835,0 0,-4.487"
         id="path6093"
         style="fill:#000000;fill-opacity:1;fill-rule:nonzero;stroke:none" />
      <path
         d="m 145.823,517.935 c 0,-1.388 -0.025,-2.38 1.289,-3.148 l 0,-0.075 -4.388,0 0,0.075 c 1.314,0.768 1.314,1.76 1.314,3.148 l 0,9.893 c 0,1.389 0,2.38 -1.289,3.124 l 0,0.075 3.619,0 0,-0.025 c 0.099,-0.298 0.199,-0.422 0.372,-0.62 l 0.347,-0.496 9.074,-11.455 0,9.397 c 0,1.389 0.025,2.38 -1.289,3.124 l 0,0.075 4.364,0 0,-0.075 c -1.289,-0.744 -1.289,-1.735 -1.289,-3.124 l 0,-13.909 c -1.761,0.595 -2.53,1.413 -3.62,2.826 l -8.504,10.785 0,-9.595"
         id="path6095"
         style="fill:#000000;fill-opacity:1;fill-rule:nonzero;stroke:none" />
      <path
         d="m 162.657,523.142 c 0,-3.471 2.455,-7.041 6.347,-7.041 3.769,0 6.174,2.752 6.174,6.446 0,3.62 -2.306,7.116 -6.223,7.116 -3.843,0 -6.298,-2.777 -6.298,-6.521 m 15.347,-0.099 c 0,-5.058 -4.19,-8.727 -9.124,-8.727 -4.909,0 -9.049,3.52 -9.049,8.603 0,4.711 4.091,8.653 9.297,8.529 5.207,0.025 8.876,-3.943 8.876,-8.405"
         id="path6097"
         style="fill:#000000;fill-opacity:1;fill-rule:nonzero;stroke:none" />
      <path
         d="m 184.971,531.027 c 3.322,0 5.132,-1.736 5.132,-3.992 0,-2.182 -1.909,-3.893 -3.942,-4.364 l 3.571,-4.488 c 1.041,-1.289 2.603,-2.578 4.016,-3.471 l -2.281,0 c -1.314,0 -2.132,0.323 -2.876,1.24 l -3.025,3.744 -2.281,3.496 c 1.983,0.297 4.289,1.215 4.289,3.545 0,1.785 -1.537,2.826 -3.198,2.752 -0.57,-0.025 -1.116,-0.099 -1.686,-0.198 l 0,-11.108 c 0,-1.14 -0.148,-2.95 1.116,-3.396 l 0,-0.075 -4.736,0 0,0.075 c 1.265,0.446 1.091,2.281 1.091,3.396 l 0,9.347 c 0,1.141 0.174,2.951 -1.091,3.422 l 0,0.075 5.901,0"
         id="path6099"
         style="fill:#000000;fill-opacity:1;fill-rule:nonzero;stroke:none" />
      <path
         d="m 198.31,517.935 c 0,-1.413 -0.025,-2.38 1.289,-3.148 l 0,-0.075 -4.909,0 0,0.075 c 1.24,0.471 1.091,2.281 1.091,3.396 l 0,11.058 -2.182,0 c -1.066,0 -2.182,-0.272 -2.95,-0.991 l -0.075,0 0.868,2.95 0.074,0 c 0.298,-0.124 0.62,-0.124 0.942,-0.173 l 0.621,0 9.248,0 c 0.421,0 0.817,0.024 1.14,0.173 l 0.075,0 -0.794,-2.95 -0.075,0 c -0.322,0.867 -1.313,0.991 -2.132,0.991 l -2.231,0 0,-11.306"
         id="path6101"
         style="fill:#000000;fill-opacity:1;fill-rule:nonzero;stroke:none" />
      <path
         d="m 207.334,522.671 0,-4.488 c 0,-1.115 -0.148,-2.925 1.091,-3.396 l 0,-0.075 -4.711,0 0,0.075 c 1.241,0.471 1.092,2.281 1.092,3.396 l 0,9.372 c 0,1.116 0.173,2.926 -1.092,3.397 l 0,0.075 4.711,0 0,-0.075 c -1.239,-0.471 -1.091,-2.281 -1.091,-3.422 l 0,-3.074 8.95,0 0,3.074 c 0,1.141 0.174,2.951 -1.09,3.422 l 0,0.075 4.736,0 0,-0.075 c -1.265,-0.471 -1.116,-2.281 -1.116,-3.397 l 0,-9.372 c 0,-1.115 -0.149,-2.925 1.116,-3.396 l 0,-0.075 -4.736,0 0,0.075 c 1.264,0.471 1.09,2.281 1.09,3.396 l 0,4.488 -8.95,0"
         id="path6103"
         style="fill:#000000;fill-opacity:1;fill-rule:nonzero;stroke:none" />
      <path
         d="m 232.202,516.671 c 0.595,-0.124 1.19,-0.173 1.81,-0.173 3.694,0 6.992,1.933 6.992,6.223 0,4.338 -2.43,6.52 -6.571,6.52 -0.744,0 -1.487,-0.099 -2.231,-0.272 l 0,-12.298 z m -2.529,10.959 c 0,1.14 0.174,2.95 -1.091,3.322 l 0,0.075 6.075,0 c 5.652,0 9.173,-3.075 9.173,-8.009 0,-4.884 -3.744,-8.306 -9.297,-8.306 l -5.951,0 0,0.075 c 1.24,0.843 1.091,2.033 1.091,3.496 l 0,9.347"
         id="path6105"
         style="fill:#000000;fill-opacity:1;fill-rule:nonzero;stroke:none" />
      <path
         d="m 251.144,528.919 -2.454,-6.248 4.884,0 -2.43,6.248 z m -3.099,-8.083 -1.29,-3.496 c -0.52,-1.388 -0.693,-2.107 0.497,-2.553 l 0,-0.075 -4.563,0 0,0.075 c 1.439,0.719 1.86,2.107 2.405,3.521 l 4.141,10.338 c 0.347,0.892 0.818,1.934 -0.372,2.306 l 0,0.075 3.917,0 5.158,-12.719 c 0.569,-1.414 1.016,-2.802 2.429,-3.521 l 0,-0.075 -5.082,0 0,0.075 c 1.214,0.545 1.016,0.818 0.347,2.553 l -1.34,3.496 -6.247,0"
         id="path6107"
         style="fill:#000000;fill-opacity:1;fill-rule:nonzero;stroke:none" />
      <path
         d="m 268.077,527.505 c 0.819,1.166 2.306,2.703 0.645,3.447 l 0,0.075 4.463,0 0,-0.025 -5.703,-7.314 5.009,-6.571 c 0.769,-1.016 1.711,-1.71 2.975,-2.33 l 0,-0.075 -2.33,0 c -1.215,0 -2.356,0.471 -2.802,1.066 l -5.504,7.414 3.247,4.313 z m -6.098,0.05 c 0,1.116 0.148,2.926 -1.116,3.397 l 0,0.075 4.76,0 0,-0.075 c -1.265,-0.446 -1.116,-2.281 -1.116,-3.397 l 0,-9.347 c 0,-1.14 -0.149,-2.95 1.116,-3.421 l 0,-0.075 -4.76,0 0,0.075 c 1.264,0.471 1.116,2.306 1.116,3.421 l 0,9.347"
         id="path6109"
         style="fill:#000000;fill-opacity:1;fill-rule:nonzero;stroke:none" />
      <path
         d="m 276.21,523.142 c 0,-3.471 2.454,-7.041 6.347,-7.041 3.769,0 6.173,2.752 6.173,6.446 0,3.62 -2.305,7.116 -6.223,7.116 -3.843,0 -6.297,-2.777 -6.297,-6.521 m 15.347,-0.099 c 0,-5.058 -4.19,-8.727 -9.124,-8.727 -4.91,0 -9.05,3.52 -9.05,8.603 0,4.711 4.091,8.653 9.298,8.529 5.206,0.025 8.876,-3.943 8.876,-8.405"
         id="path6111"
         style="fill:#000000;fill-opacity:1;fill-rule:nonzero;stroke:none" />
      <path
         d="m 298.97,517.935 c 0,-1.413 -0.025,-2.38 1.289,-3.148 l 0,-0.075 -4.909,0 0,0.075 c 1.239,0.471 1.091,2.281 1.091,3.396 l 0,11.058 -2.182,0 c -1.065,0 -2.182,-0.272 -2.95,-0.991 l -0.075,0 0.868,2.95 0.075,0 c 0.297,-0.124 0.62,-0.124 0.942,-0.173 l 0.62,0 9.248,0 c 0.421,0 0.818,0.024 1.14,0.173 l 0.074,0 -0.793,-2.95 -0.074,0 c -0.323,0.867 -1.315,0.991 -2.133,0.991 l -2.231,0 0,-11.306"
         id="path6113"
         style="fill:#000000;fill-opacity:1;fill-rule:nonzero;stroke:none" />
      <path
         d="m 310.152,528.919 -2.455,-6.248 4.884,0 -2.429,6.248 z m -3.1,-8.083 -1.289,-3.496 c -0.521,-1.388 -0.694,-2.107 0.496,-2.553 l 0,-0.075 -4.562,0 0,0.075 c 1.438,0.719 1.86,2.107 2.405,3.521 l 4.141,10.338 c 0.347,0.892 0.818,1.934 -0.372,2.306 l 0,0.075 3.918,0 5.156,-12.719 c 0.57,-1.414 1.017,-2.802 2.43,-3.521 l 0,-0.075 -5.083,0 0,0.075 c 1.215,0.545 1.017,0.818 0.347,2.553 l -1.339,3.496 -6.248,0"
         id="path6115"
         style="fill:#000000;fill-opacity:1;fill-rule:nonzero;stroke:none" />
    </g>
  </g>
</svg>
