<?xml version="1.0" encoding="utf-8"?>
<!-- Generator: Adobe Illustrator 22.0.1, SVG Export Plug-In . SVG Version: 6.00 Build 0)  -->
<svg version="1.1" id="Layer_1" xmlns="http://www.w3.org/2000/svg" xmlns:xlink="http://www.w3.org/1999/xlink" x="0px" y="0px"
	 width="250px" height="193.89px" viewBox="0 0 250 193.89" enable-background="new 0 0 250 193.89" xml:space="preserve">
<rect fill="#C25E03" width="250" height="193.89"/>
<path fill="#FFFFFF" d="M124.85,84.98c0.21,18.56-24.47,44.13-51.77,44.13c-25.17,0-51.03-25.15-51.04-44.96
	c-0.02-16.61-0.07-57.74-0.07-57.74l48.94-0.01l-6.75,23.76H33.61l24.71,18.18L49.2,96.42l24.09-17.34l23.88,17.35l-9.33-28.08
	l25.02-18.28l-30.45,0.1l-7.07-23.76l49.53-0.01C124.88,26.4,124.68,69.51,124.85,84.98z M130.42,26.4l0.04,50.33h24.1l0.09,52.81
	l49.31-0.1l0.1-52.91l24.02-0.03l-0.09-50.1H130.42z M228.74,168.31v0.84h-8.83c-0.84-2.58-0.86-5.08-0.91-7.75
	c-0.03-2.12-0.45-3.53-1.26-4.24c-0.81-0.71-2.33-1.06-4.55-1.06h-7.81v13.05h-7.81v-33.26h18.29c2.61,0.04,4.63,0.33,6.03,0.86
	c3.57,1.33,6.21,4.77,6.21,8.62c0,3.8-2.43,6.85-5.91,7.89c1.77,0.62,3.02,1.49,3.75,2.62c2.02,3.17,0.45,7.11,1.31,10.53
	C227.47,167.27,227.96,167.9,228.74,168.31z M220.09,146.31c0-2.02-0.73-3.37-2.2-4.06c-0.82-0.4-2.05-0.59-3.69-0.59h-8.82v8.94
	h8.61c1.71,0,2.99-0.18,3.84-0.54C219.34,149.43,220.09,148.17,220.09,146.31z M181.29,163.16h-21.17v-8.55h18.58v-5.78h-18.58
	v-7.06h20.24v-5.89h-28.05v33.26h28.99V163.16z M142.14,163.16h-19.09v-27.27h-7.99v33.26h27.09V163.16z M102.75,135.88h-9.05
	l-7.6,14.49l-7.94-14.49h-9.42l13.23,20.79v12.48h7.99v-12.48L102.75,135.88z M55.2,135.88H24.23v5.89h11.49v27.37h8.04v-27.37H55.2
	V135.88z"/>
</svg>
