<?xml version="1.0" encoding="UTF-8" standalone="no"?>
<svg
   xmlns:dc="http://purl.org/dc/elements/1.1/"
   xmlns:cc="http://creativecommons.org/ns#"
   xmlns:rdf="http://www.w3.org/1999/02/22-rdf-syntax-ns#"
   xmlns:svg="http://www.w3.org/2000/svg"
   xmlns="http://www.w3.org/2000/svg"
   xmlns:sodipodi="http://sodipodi.sourceforge.net/DTD/sodipodi-0.dtd"
   xmlns:inkscape="http://www.inkscape.org/namespaces/inkscape"
   version="1.1"
   id="svg11173"
   viewBox="0 0 500.00001 453.27427"
   height="127.92407mm"
   width="141.11111mm"
   inkscape:version="0.91 r13725"
   sodipodi:docname="Warner Animation Group logo.svg">
  <sodipodi:namedview
     pagecolor="#ffffff"
     bordercolor="#666666"
     borderopacity="1"
     objecttolerance="10"
     gridtolerance="10"
     guidetolerance="10"
     inkscape:pageopacity="0"
     inkscape:pageshadow="2"
     inkscape:window-width="1345"
     inkscape:window-height="766"
     id="namedview62"
     showgrid="false"
     fit-margin-top="0"
     fit-margin-left="0"
     fit-margin-right="0"
     fit-margin-bottom="0"
     inkscape:zoom="1.3778481"
     inkscape:cx="130.97145"
     inkscape:cy="0.83558517"
     inkscape:window-x="0"
     inkscape:window-y="0"
     inkscape:window-maximized="0"
     inkscape:current-layer="svg11173" />
  <defs
     id="defs11175" />
  <metadata
     id="metadata11178">
    <rdf:RDF>
      <cc:Work
         rdf:about="">
        <dc:format>image/svg+xml</dc:format>
        <dc:type
           rdf:resource="http://purl.org/dc/dcmitype/StillImage" />
        <dc:title></dc:title>
      </cc:Work>
    </rdf:RDF>
  </metadata>
  <g
     id="g4357"
     transform="matrix(7.4148925,0,0,7.4148925,0.00756326,0.06994305)">
    <path
       inkscape:connector-curvature="0"
       d="m 58.02264,18.621211 c 0,0 0.319783,1.989238 0.385621,2.934478 0.06113,0.940538 0.06113,2.135021 0.06113,2.135021 l -3.842097,0.173999 -0.04232,-3.197828 c 0,0 -0.907619,-0.917025 -2.972099,-2.135021 -2.191454,-1.297942 -3.832692,-2.078589 -3.832692,-2.078589 l -0.0047,23.348852 c 0,0 1.349672,-0.82297 3.310693,-3.470584 1.80113,-2.440696 2.276102,-4.491069 2.276102,-4.491069 l -3.197829,0.41854 0.02822,-3.884422 7.637168,-0.813565 c 0,0 -0.390323,5.097715 -2.751073,8.949218 -2.356048,3.846799 -11.874291,13.129908 -11.874291,13.129908 l -0.01881,-39.488481 c 0,0 3.809178,1.415509 8.126247,4.034907 4.552203,2.769884 6.710737,4.434636 6.710737,4.434636"
       style="fill:#000000;fill-opacity:1;fill-rule:nonzero;stroke:none"
       id="path6730" />
    <path
       inkscape:connector-curvature="0"
       d="m 24.636839,10.919617 0,37.875459 c 0,0 -2.708749,-2.948586 -4.505176,-5.741984 -1.834049,-2.835721 -3.301288,-5.600903 -3.301288,-5.600903 0,0 -0.484377,0.41854 -1.133348,1.232105 -0.644269,0.813565 -1.142754,1.55659 -1.142754,1.55659 0,0 -3.893826,-4.937823 -6.0711714,-10.120187 C 6.4656479,25.314549 5.8495956,19.944078 5.8495956,19.944078 l 3.3200986,-0.982862 c 0,0 0.5925389,3.724529 2.0221568,7.961652 1.429617,4.251231 3.249558,7.270358 3.249558,7.270358 l 1.349672,-1.55659 c 0,0 -0.874701,-2.718155 -1.60832,-6.569657 -0.827673,-4.373501 -1.095727,-10.609267 -1.095727,-10.609267 l 3.743341,-1.156861 c 0,0 0.178702,5.520957 0.841781,10.044944 1.321456,9.038568 3.23545,12.001263 3.23545,12.001263 l 0.06584,-24.609173"
       style="fill:#000000;fill-opacity:1;fill-rule:nonzero;stroke:none"
       id="path6734" />
    <path
       inkscape:connector-curvature="0"
       d="m 36.353119,28.424437 -4.632149,-0.0047 0,-15.391901 2.356047,-0.719512 2.276102,0.724214 0,15.391902 z M 33.940639,7.8031449 27.19228,9.359735 l 0.136378,41.773988 4.21361,2.106805 0.141081,-20.649508 4.665067,0 0.08935,20.696535 4.128962,-2.163237 0.07524,-41.7363669"
       style="fill:#000000;fill-opacity:1;fill-rule:nonzero;stroke:none"
       id="path6738" />
    <path
       inkscape:connector-curvature="0"
       d="m 56.515899,40.015155 c -5.003661,7.434952 -10.94786,11.878993 -15.396604,14.564228 -3.348315,2.017454 -6.221658,2.9721 -7.552519,3.498801 C 32.226509,57.551483 29.357869,56.596837 26.014257,54.579383 21.56081,51.894148 15.616611,47.450107 10.608247,40.015155 6.7473392,34.273171 4.9368039,28.418323 4.0009687,24.298768 3.4554568,21.900396 3.149782,18.885972 3.1309712,17.451652 L 7.7819308,15.64582 7.8007416,13.068746 12.04727,11.535669 12.127216,8.63411 c 2.290209,-0.8417814 6.085279,-2.1538317 10.134295,-3.2777744 4.970742,-1.3778879 9.852134,-2.163237 11.305265,-2.3936688 1.443725,0.2304318 6.339225,1.0157809 11.300562,2.3936688 4.049015,1.1239427 7.83468,2.435993 10.138998,3.2777744 l 0.07054,2.901559 4.251231,1.533077 0.01881,2.577074 4.655662,1.805832 c -0.02351,1.43432 -0.329188,4.448744 -0.8747,6.847116 -0.935835,4.119555 -2.751073,9.974403 -6.611981,15.716387 M 62.300207,14.004581 62.276693,11.173562 57.545788,9.4617833 57.40941,6.2404412 c 0,0 -5.271715,-2.0268591 -11.75202,-3.7668541 -5.948902,-1.59891431 -11.949534,-2.48301988 -11.949534,-2.48301988 0,0 -5.991226,0.88410557 -11.930722,2.48301988 -6.485009,1.739995 -11.75202,3.7668541 -11.75202,3.7668541 l -0.1457838,3.2213421 -4.7309053,1.7117787 -0.018811,2.835722 -5.13063391,2.031561 c 0,0 0.17870219,13.402665 8.46484061,25.295766 10.4869974,15.05801 25.2440354,19.784213 25.2440354,19.784213 0,0 14.766444,-4.726203 25.253441,-19.784213 8.286139,-11.893101 8.469544,-25.295766 8.469544,-25.295766"
       style="fill:#000000;fill-opacity:1;fill-rule:nonzero;stroke:none"
       id="path6750" />
  </g>
</svg>
