<?xml version="1.0" encoding="UTF-8" standalone="no"?>
<!-- Created with Inkscape (http://www.inkscape.org/) -->

<svg
   xmlns:dc="http://purl.org/dc/elements/1.1/"
   xmlns:cc="http://creativecommons.org/ns#"
   xmlns:rdf="http://www.w3.org/1999/02/22-rdf-syntax-ns#"
   xmlns:svg="http://www.w3.org/2000/svg"
   xmlns="http://www.w3.org/2000/svg"
   xmlns:sodipodi="http://sodipodi.sourceforge.net/DTD/sodipodi-0.dtd"
   xmlns:inkscape="http://www.inkscape.org/namespaces/inkscape"
   version="1.0"
   width="885.82678"
   height="266.46268"
   id="svg17582"
   inkscape:version="0.48.4 r9939"
   sodipodi:docname="Uppsala_University_logo.svg">
  <metadata
     id="metadata3219">
    <rdf:RDF>
      <cc:Work
         rdf:about="">
        <dc:format>image/svg+xml</dc:format>
        <dc:type
           rdf:resource="http://purl.org/dc/dcmitype/StillImage" />
      </cc:Work>
    </rdf:RDF>
  </metadata>
  <sodipodi:namedview
     pagecolor="#ffffff"
     bordercolor="#666666"
     borderopacity="1"
     objecttolerance="10"
     gridtolerance="10"
     guidetolerance="10"
     inkscape:pageopacity="0"
     inkscape:pageshadow="2"
     inkscape:window-width="640"
     inkscape:window-height="480"
     id="namedview3217"
     showgrid="false"
     inkscape:zoom="0.26293997"
     inkscape:cx="211.67933"
     inkscape:cy="484.46637"
     inkscape:window-x="943"
     inkscape:window-y="238"
     inkscape:window-maximized="0"
     inkscape:current-layer="svg17582"
     fit-margin-top="0"
     fit-margin-left="0"
     fit-margin-right="0"
     fit-margin-bottom="0" />
  <defs
     id="defs17584" />
  <path
     d="m 514.83746,262.58716 c -4.18504,-1.91213 -7.54029,-4.04073 -9.99359,-7.82891 -4.79836,-7.54029 -21.35813,-31.27957 -24.13613,-35.9697 -0.39686,-0.61332 -0.50509,-1.83997 0.28862,-2.34507 l 4.54582,-1.26272 c 5.41169,-0.93803 10.10182,-5.51993 11.90572,-10.60691 2.12859,-6.02502 1.65958,-13.45707 0.0361,-19.6264 -1.08233,-4.2572 -4.25719,-8.37008 -8.08145,-11.07592 -1.40704,-0.93803 -2.66977,-1.44312 -4.5819,-1.87606 -2.09252,-0.46901 -4.04073,-0.86587 -6.78265,-0.86587 -13.89,0.0361 -26.04827,0.14431 -39.83004,0.0361 -0.6494,0 -1.47919,0.61333 -1.37096,1.37096 0.10823,1.01018 1.44312,0.86587 2.66977,1.33489 2.38114,0.90194 3.71602,3.86033 3.64387,7.35989 l -0.10823,72.66096 c 0.3247,4.69013 -3.03055,7.54029 -5.88071,7.54029 -1.40704,0 -1.73174,2.34506 0.64941,2.20075 7.35989,-0.43294 15.80213,-0.36078 23.12595,0.46901 0.61332,0.0722 1.65958,-0.43293 1.65958,-1.37096 0,-0.54117 -0.3247,-0.90195 -1.26272,-1.19057 -4.00465,-1.15449 -5.62816,-1.58743 -6.09717,-6.78265 l 0.21646,-28.39333 c 0,-0.57725 0.14432,-5.37562 0.14432,-5.95286 0,-2.02037 7.07127,-1.1545 9.88535,-0.93803 2.4533,0.18039 3.60779,2.34507 4.87052,4.14896 8.80302,12.62728 14.03432,21.14167 21.06951,31.85682 2.05644,3.13878 4.61798,5.12306 7.82891,6.74657 4.72621,2.41722 9.19988,2.88624 14.61157,3.39133 0.46901,0.0361 1.22665,-0.43294 1.40704,-0.8298 0.3247,-0.61332 0.54116,-1.76781 -0.43294,-2.20075 z m -47.94757,-50.22048 c -3.21094,0.18039 -6.96304,-0.25255 -10.1379,-1.04626 -0.86587,-0.21647 -1.04626,-0.86587 -1.04626,-2.09252 0.10823,-14.61156 0.28862,-27.09453 0.28862,-29.33136 0,-2.02036 3.96858,-1.69566 6.20541,-1.73174 6.81873,-0.18039 14.28686,-0.79372 18.58013,2.05644 2.70585,1.76782 4.14896,4.65405 5.08699,6.89089 1.40704,3.35524 1.08234,8.26184 0.86587,11.94179 -0.28862,4.14896 -3.03055,7.86499 -6.63834,10.4626 -1.08234,0.79372 -7.46813,2.52546 -13.20452,2.85016"
     id="path9869"
     style="fill:#231f20;fill-opacity:1;fill-rule:evenodd;stroke:none"
     inkscape:connector-curvature="0" />
  <path
     d="m 561.84738,95.005176 c -3.06662,-0.75764 -5.44777,-2.52546 -6.78265,-5.19522 -8.73086,-17.46172 -28.57372,-68.0069 -28.57372,-68.0069 -3.35525,-7.97323 -7.32382,-18.1832799 -8.55047,-21.03343994 -0.43294,-1.58743 -1.62351,-0.3247 -2.23684,0.28863004 -9.19987,20.9251999 -36.15008,78.7220399 -39.93827,85.4686199 -2.38114,4.29327 -5.44776,6.5301 -6.74657,7.54028 -1.62351,1.33489 -3.82426,1.08234 -3.82426,2.38115 0,0.54117 0.61333,1.26272 1.19057,1.26272 3.13878,0 13.78177,-1.11841 21.43029,-0.25254 0.86587,0.0722 1.33489,-0.79372 1.33489,-1.51527 0,-0.93803 -1.76782,-1.22665 -2.70585,-2.16468 -1.98428,-1.94821 -2.27291,-3.89642 -1.6235,-5.84462 2.95839,-8.55047 6.78265,-16.16292 10.24613,-24.13614 0.36078,-0.86587 1.15449,-1.69566 2.09252,-1.69566 l 33.01131,0.0722 c 0.72155,0 0.82979,0.39686 1.04626,0.86587 l 7.57636,18.7966 c 0.93803,3.57172 2.63369,7.21559 1.65959,11.22024 -0.72156,2.66977 -4.36543,1.58743 -4.36543,3.67995 0,0.57725 0.6494,0.90195 1.47919,0.90195 8.76694,-0.25255 16.41546,-1.08234 24.8577,-0.18039 0.72156,0.0722 1.11841,-0.50509 1.11841,-1.08234 0,-0.72156 -0.72156,-1.11841 -1.69566,-1.37096 z m -39.03632,-40.5516 -22.65694,0 c -0.50509,-0.18039 -0.50509,-0.72155 -0.25255,-1.04626 4.65405,-10.28221 9.4885,-20.52834 13.96216,-30.91878 0.25255,-0.3247 0.90195,-1.04626 1.11842,-0.46902 1.83997,4.5819 11.07592,27.92432 11.86964,29.83645 1.01018,2.52546 -0.10824,2.59761 -4.04073,2.59761"
     id="path9873"
     style="fill:#231f20;fill-opacity:1;fill-rule:evenodd;stroke:none"
     inkscape:connector-curvature="0" />
  <path
     d="m 738.37535,95.005176 c -3.03055,-0.75764 -5.44777,-2.52546 -6.78265,-5.19522 -8.69478,-17.46172 -28.53765,-68.0069 -28.53765,-68.0069 -3.35524,-7.97323 -7.32382,-18.1832799 -8.55047,-21.03343994 -0.46901,-1.58743 -1.6235,-0.3247 -2.23683,0.28863004 -9.23595,20.9251999 -36.11401,78.7220399 -39.93827,85.4686199 -2.38114,4.29327 -5.44777,6.5301 -6.71049,7.54028 -1.65959,1.33489 -3.86034,1.08234 -3.86034,2.38115 0,0.54117 0.61332,1.26272 1.19057,1.26272 3.13878,0 13.81785,-1.11841 21.43029,-0.25254 0.82979,0.0722 1.33488,-0.79372 1.33488,-1.51527 0,-0.93803 -1.76781,-1.22665 -2.70584,-2.16468 -2.02036,-1.94821 -2.27291,-3.89642 -1.62351,-5.84462 2.95839,-8.55047 6.74658,-16.16292 10.24614,-24.13614 0.36078,-0.86587 1.15449,-1.69566 2.09252,-1.69566 l 33.04738,0.0722 c 0.68548,0 0.79372,0.39686 1.01018,0.86587 l 7.54029,18.7966 c 0.97411,3.57172 2.66977,7.21559 1.65959,11.22024 -0.72156,2.66977 -4.32936,1.58743 -4.32936,3.67995 0,0.57725 0.61333,0.90195 1.4792,0.90195 8.76694,-0.25255 16.41546,-1.08234 24.85769,-0.18039 0.72156,0.0722 1.11842,-0.50509 1.11842,-1.08234 0,-0.72156 -0.75764,-1.11841 -1.73174,-1.37096 z m -39.00024,-40.5516 -22.65695,0 c -0.50509,-0.18039 -0.50509,-0.72155 -0.21646,-1.04626 4.58189,-10.28221 9.48849,-20.52834 13.92608,-30.91878 0.21647,-0.3247 0.90195,-1.04626 1.15449,-0.46902 1.8039,4.5819 11.07593,27.92432 11.83356,29.83645 1.01019,2.52546 -0.10823,2.59761 -4.04072,2.59761"
     id="path9877"
     style="fill:#231f20;fill-opacity:1;fill-rule:evenodd;stroke:none"
     inkscape:connector-curvature="0" />
  <path
     d="m 447.80379,4.4496161 c 2.20075,0.50509 1.94821,1.91213 1.94821,3.57172 0,4.4014999 0.0361,7.5402799 0.18039,12.7355099 0.0361,1.01018 0.21647,2.41722 -0.90195,2.41722 -2.23683,0 -2.38114,-5.05091 -3.93249,-6.96304 -2.23684,-2.81408 -8.15362,-7.0351999 -15.33313,-7.0351999 -8.73086,0 -14.97234,5.0869899 -14.97234,12.1943399 0,8.83909 1.65959,11.58102 13.09629,16.95663 7.17951,3.39132 23.52281,8.04538 29.2592,16.95663 2.88624,4.47366 3.57172,9.27202 3.57172,14.68371 -0.25255,6.85481 -2.66977,13.45707 -6.99912,18.90484 -9.74104,12.266504 -34.02149,10.31829 -46.46838,8.94733 -1.69566,-0.14431 -3.82426,0.90195 -4.04072,-1.29881 0.3247,-6.2054 0.21646,-11.86964 0.21646,-18.00289 0,-1.73174 0.90195,-2.23683 1.55135,-1.65958 0.72156,0.9741 0.79372,2.1286 1.33489,3.13878 4.36543,8.22577 11.07592,11.32847 23.88359,11.32847 8.11753,0 16.55977,-4.47366 19.51816,-12.98806 1.83997,-5.19522 0.68548,-11.29239 -3.06662,-15.04449 -7.14343,-8.55047 -17.8225,-11.58102 -27.52747,-15.47744 -5.70031,-2.27291 -15.18881,-8.47831 -15.18881,-23.88359 0,-6.67441 4.11289,-13.67353 8.80302,-16.7762399 9.4885,-6.27756004 25.1824,-4.94267 35.06775,-2.70584"
     id="path9881"
     style="fill:#231f20;fill-opacity:1;fill-rule:nonzero;stroke:none"
     inkscape:connector-curvature="0" />
  <path
     d="m 598.14178,4.5936361 c 0.75764,-0.0722 0.9741,1.33488 -0.0361,2.02036 -1.94821,1.33489 -4.18504,1.40704 -5.26738,4.0407299 -1.80389,5.51993 -1.01018,11.72533 -1.26272,17.35349 l -0.14432,34.92344 c 0.28863,13.49314 -1.65958,19.51816 6.31364,25.68748 3.03055,2.34507 18.39975,1.65959 22.4044,1.29881 8.51439,-0.79372 11.50886,-5.37561 13.34883,-8.51439 0.39686,-0.75764 0.64941,-1.8039 1.58743,-1.8039 1.22665,0 1.19057,0.93803 1.04626,2.23683 -0.54117,4.43759 -1.15449,10.10182 -1.58743,13.42099 -0.21646,0.97411 -1.26272,1.94821 -2.16467,2.02037 -17.4978,0.72156 -44.12331,-0.57725 -58.08547,0.25254 -0.68548,0 -1.73174,-0.14431 -1.73174,-1.08234 0,-0.93802 0.86587,-1.55135 1.76781,-2.05644 1.94821,-1.04626 3.53564,-0.93802 4.94268,-3.53563 1.22665,-2.30899 1.55135,-4.9066 1.62351,-7.75676 0.61332,-28.64588 0.36078,-62.4509 -0.72156,-71.90332 -0.28862,-2.8140799 -3.75211,-3.4995599 -6.02501,-4.6179699 -0.93803,-0.43294 -0.46902,-2.1286 0.79371,-2.02037 2.99447,0.3247 17.75034,0.72156 23.19811,0.0361"
     id="path9885"
     style="fill:#231f20;fill-opacity:1;fill-rule:nonzero;stroke:none"
     inkscape:connector-curvature="0" />
  <path
     d="m 185.80655,243.39377 0.10823,-57.25568 c -0.0722,-2.52545 -0.39685,-3.53564 -1.01018,-5.33953 -1.08234,-3.06663 -2.59761,-5.30346 -5.70031,-6.92696 -1.19057,-0.61333 -1.01018,-2.30899 -0.14431,-2.27291 6.99912,0.50509 13.13236,0.21646 19.48208,0 0.75764,0 1.44312,0.21646 1.44312,0.72155 0,1.73174 -1.94821,1.76782 -3.13878,2.99447 -1.83998,1.91213 -3.21094,3.49956 -3.39133,6.42187 -0.86587,12.05003 -0.14431,67.39358 -0.14431,67.39358 0.14431,5.41169 0.0361,9.52458 0.25255,15.11665 0.0361,1.62351 -1.19058,2.34507 -1.69567,1.83998 -3.46348,-3.53564 -7.54029,-6.92696 -11.65317,-11.68925 -15.26096,-14.07039 -48.3805,-47.15386 -63.96617,-61.07994 -0.36078,-0.3247 -1.04626,0.18039 -1.04626,0.46901 0,0 -0.3247,53.72004 1.22665,62.73953 0.3247,1.98428 3.64387,5.26738 5.84463,6.13325 0.36077,0.10823 0.82979,0.28862 0.90194,0.90194 0,0.5051 -0.25254,0.8298 -1.15449,0.75764 -7.57637,-0.75764 -15.0445,-1.26273 -22.224008,-0.18039 -0.72156,0.0722 -0.93802,-0.54117 -0.93802,-1.04626 0,-1.94821 4.726208,-1.33488 6.818728,-6.06109 1.69566,-3.82426 1.26272,-81.10319 1.26272,-81.10319 l 0,-8.51439 c 0,-0.79372 0.90195,-0.8298 1.40704,-0.39686 0,0 70.38805,70.27981 77.45932,76.37698"
     id="path9889"
     style="fill:#231f20;fill-opacity:1;fill-rule:nonzero;stroke:none"
     inkscape:connector-curvature="0" />
  <path
     d="m 716.26115,171.31007 c 0.43294,0 0.82979,0.36078 0.9741,0.72156 l 0.0361,15.29704 c 0,3.17486 -2.16467,2.52546 -2.88623,0.28863 -0.79372,-2.48938 -1.73174,-4.69014 -2.41722,-5.51993 -2.52546,-3.13878 -5.77247,-4.87052 -9.4885,-5.19522 l -17.31741,0.0361 c -2.27291,-0.0361 -3.21093,0.90195 -3.24701,2.88623 -0.46901,27.74393 -1.26273,68.94493 0.54117,75.00602 1.69566,5.59208 4.87052,5.95286 6.92696,6.81873 1.22665,0.50509 1.87605,2.16468 -0.6494,2.16468 -6.74658,0 -26.40905,0.0721 -26.40905,0.0721 -2.16467,0 -1.87605,-1.98428 -0.36078,-2.38114 2.48938,-0.68548 4.36543,-1.29881 5.556,-3.35525 1.11842,-1.94821 1.69567,-3.31917 1.8039,-6.5301 0.18039,-4.2572 0.3247,-51.41106 0.21647,-67.39358 -0.0361,-5.19522 -0.75764,-6.60226 -1.83998,-6.96304 -3.13878,-0.97411 -17.38956,-1.11842 -24.13613,1.08234 -4.00465,1.40704 -6.16933,5.15914 -6.16933,9.19987 0,0.79371 -0.54117,1.40704 -1.37096,1.40704 -0.61333,0 -0.9741,-0.18039 -0.9741,-1.1545 l 0.18038,-15.40527 c 0,-0.79372 0.75764,-1.40704 2.77801,-1.40704 l 78.25303,0.3247"
     id="path9893"
     style="fill:#231f20;fill-opacity:1;fill-rule:nonzero;stroke:none"
     inkscape:connector-curvature="0" />
  <path
     d="m 411.54666,173.18614 c 0,4.14896 -0.0722,6.74657 0.14431,10.53476 0.0361,0.3247 -0.36078,0.75763 -0.75763,0.75763 -1.19058,0 -2.4533,-3.82426 -5.01484,-5.19522 -6.92696,-3.78818 -15.11665,-2.4533 -23.91967,-2.41722 0,0 -4.94267,0.18039 -5.05091,1.19057 0,0.3247 -0.46901,21.28598 -0.46901,32.07328 0,0.3247 0.28862,0.64941 0.93803,0.64941 1.2988,0 27.99647,-0.18039 27.99647,-0.18039 2.30899,-0.0361 2.88624,-2.38115 3.13878,-3.10271 0.50509,-1.2988 2.27291,-1.47919 2.16468,-0.0721 -0.39686,5.33953 -0.57725,10.39044 -0.61333,15.47743 0,0.36078 -0.72156,0.61333 -1.26272,-0.25255 -2.02037,-3.28309 -4.97876,-5.15914 -9.12772,-5.15914 -7.97322,-0.0361 -15.0445,-0.50509 -22.87341,0.39686 -0.50509,0.0361 -0.57725,0.50509 -0.57725,1.15449 0,9.77712 -0.39685,17.53388 -0.18039,27.34707 0.0722,3.39133 0.93803,6.60227 3.6078,8.8391 5.30345,3.46348 12.55512,2.48937 18.61621,2.20075 4.87052,-0.21647 10.53476,0.46901 13.45707,-3.86034 1.69566,-2.4533 0.79371,-3.7521 2.99447,-6.5301 0.36078,-0.43294 1.40704,-0.28863 1.37096,0.46901 -0.36078,6.63834 -0.25255,8.26185 -0.43294,15.65782 -0.0361,1.01018 -1.08234,0.86587 -1.08234,0.86587 0,0 -54.04474,0.21647 -56.28157,0.0361 -0.86587,-0.0361 -1.40704,-1.58743 -0.14431,-2.02036 2.99447,-0.93803 6.5301,-1.11842 6.49403,-7.28775 l 0.18039,-28.32117 c 0.28862,-15.00842 1.47919,-30.77448 -0.39686,-46.03544 -0.28862,-2.4533 -1.11842,-5.08699 -3.9325,-5.98894 -0.90194,-0.3247 -2.63368,-0.14431 -2.63368,-1.37096 0,-1.26273 0.46901,-1.76782 2.30898,-1.76782 16.16292,0.18039 32.43406,-0.10823 48.48874,-0.18039 1.51528,-0.0361 2.85016,0.39686 2.85016,2.09252"
     id="path9897"
     style="fill:#231f20;fill-opacity:1;fill-rule:nonzero;stroke:none"
     inkscape:connector-curvature="0" />
  <path
     d="m 343.61106,171.31007 c 1.33488,0 1.73174,1.15449 0.79371,1.73174 -1.83997,1.15449 -5.08698,1.94821 -6.31363,4.87052 -12.01395,29.69214 -24.533,58.30194 -36.90773,87.74153 -0.14431,0.39686 -0.9741,0.79372 -1.37096,-0.21647 0,0 -23.52281,-51.41105 -41.45354,-87.99407 -1.44312,-2.99447 -4.72621,-2.66977 -7.07128,-4.00465 -0.39686,-0.21647 -0.57724,-0.72156 -0.50509,-1.22665 0,-0.18039 0.10823,-0.86587 1.19057,-0.86587 5.77247,0.14431 16.95663,0.18039 23.59497,-0.21647 0.54117,-0.0361 1.22665,0.46901 1.11842,1.29881 -0.36078,2.38114 -5.08699,2.4533 -3.06663,7.1795 5.44777,12.80767 13.96216,33.55248 28.46549,62.01797 0.50509,0.9741 1.37096,-1.58743 1.94821,-2.81408 7.86499,-17.93073 14.71979,-36.54694 22.11577,-54.65807 0.68548,-1.65958 2.52546,-7.82891 -1.47919,-9.92143 -0.90195,-0.50509 -2.48938,-0.90195 -2.48938,-1.69566 0,-0.54117 0.14431,-1.26273 1.04626,-1.26273 7.25166,0 13.06021,0.0361 20.38403,0.0361"
     id="path9901"
     style="fill:#231f20;fill-opacity:1;fill-rule:nonzero;stroke:none"
     inkscape:connector-curvature="0" />
  <path
     d="m 241.6542,171.49039 c 1.08234,0 1.55135,2.23683 -0.0361,2.38114 -4.36543,0.50509 -5.91678,2.85016 -6.09717,10.67907 -0.21647,9.63281 -0.21647,64.43519 -0.21647,64.43519 0,4.43758 1.33489,8.94733 2.23684,10.10182 2.34506,2.92231 5.51992,2.52545 5.51992,3.93249 0,0.50509 -0.0722,1.40704 -0.86587,1.29881 -8.22577,-1.08234 -16.70408,0.54117 -24.67731,0.3247 -0.68548,-0.0361 -0.90194,-0.79371 -0.90194,-1.11842 0,-2.02036 3.1027,-0.79371 4.58189,-2.34506 1.37096,-1.40704 2.05644,-3.35525 2.09252,-5.15915 0.61333,-36.51086 0.79372,-49.46284 0.21647,-75.3668 -0.10823,-5.19522 -6.34972,-6.24148 -8.18969,-7.21558 -0.46901,-0.25255 -0.28862,-2.20076 0.9741,-2.16468 8.5144,0.0722 16.81232,0.0361 25.36279,0.21647"
     id="path9905"
     style="fill:#231f20;fill-opacity:1;fill-rule:nonzero;stroke:none"
     inkscape:connector-curvature="0" />
  <path
     d="m 226.28548,4.3770161 c 1.04626,0 1.11842,0.57725 1.11842,0.90195 0,0.54117 -0.46902,0.90195 -1.11842,1.11841 -5.37561,1.76782 -6.60226,7.3598999 -6.85481,12.3025799 0.0361,14.68372 -0.0361,31.20741 0.14431,46.36014 -0.46901,8.22577 -1.73174,15.58567 -6.8548,21.68284 -3.96857,4.69013 -10.21006,9.09164 -20.42011,10.7873 -6.92696,1.15449 -13.81785,1.76782 -20.88912,0.6494 -10.17398,-1.6235 -13.63746,-3.67995 -20.05933,-9.92143 -5.80855,-5.70031 -6.89089,-12.37473 -7.46813,-22.07969 l 0.0361,-51.3389 c -0.25255,-4.61798 -0.86587,-7.5042099 -5.62816,-9.2359499 -0.21647,-0.10823 -0.36078,-0.86587 -0.25255,-1.11842 0.36078,-0.72155 2.59761,-0.3247 3.89642,-0.28862 7.17951,0.10823 13.60138,0.0722 20.96127,0.10823 0.3247,0 0.79372,0.25255 0.79372,0.75764 0,0.9741 -1.69566,0.93803 -2.63369,1.44312 -5.98893,3.13878 -4.58189,9.0916399 -4.83444,15.3691999 l 0.0361,31.92897 c -0.0361,12.41081 -1.69566,29.22312 12.19434,35.03167 4.87052,2.02036 10.60691,1.8039 15.08057,1.8039 19.98717,0 26.55336,-12.87983 26.87806,-21.14167 0.57725,-13.92608 0.39686,-51.12243 -0.28862,-54.22513 -1.01019,-4.76229 -5.08699,-7.3959799 -8.04538,-9.2359599 -0.50509,-0.82979 -0.21647,-1.9482 1.19057,-1.83997 4.36543,0.36078 19.40993,0.50509 23.01772,0.18039"
     id="path9909"
     style="fill:#231f20;fill-opacity:1;fill-rule:nonzero;stroke:none"
     inkscape:connector-curvature="0" />
  <path
     d="m 289.45971,4.7024661 c -14.07039,-1.55135 -29.36744,0.21647 -43.61822,-0.21647 -1.11842,0 -2.85016,0 -2.85016,1.08234 0,1.83997 2.16468,1.37096 3.49956,1.8039 2.23683,0.72156 5.12307,3.7881799 5.33954,10.4625999 0.18039,5.33953 0.28862,49.82362 0.10823,58.48233 -0.14431,5.8807 0.68548,17.02878 -6.2054,19.26561 -0.72156,0.25255 -1.94821,0.82979 -1.94821,1.37096 0,0.61333 0.18039,0.97411 0.72156,0.97411 5.66423,0 16.19899,-0.75764 25.18239,0.14431 0.86587,0.10823 1.04626,-0.39686 1.01019,-1.19057 -0.0722,-0.93803 -2.1286,-1.1545 -3.39133,-1.87606 -3.35525,-1.83997 -3.71603,-7.07127 -3.71603,-11.07592 0,-10.82338 -0.46901,-19.48208 -0.28862,-28.68196 0.0361,-1.91213 0.93803,-2.16467 1.87605,-2.09252 35.71715,3.1027 40.65983,-13.81785 40.44336,-26.58943 -0.14431,-10.53476 -4.4015,-20.5283499 -16.16291,-21.8632299 z m -7.25166,41.4174699 c -3.2831,0.0361 -11.72533,0.21646 -16.37939,0.10823 -1.47919,-0.0722 -1.80389,-1.69566 -1.83997,-2.48938 -0.50509,-10.75122 -0.79371,-22.76517 -0.14431,-31.85681 0.14431,-1.58743 2.02036,-1.26273 3.24701,-1.37096 7.17951,-0.43294 12.48297,-0.50509 18.43583,0.36078 2.45329,0.36078 5.15914,2.12859 6.5301,4.58189 2.09252,3.75211 2.23683,8.11754 2.63369,12.48297 0.93803,10.39044 -6.24148,18.00289 -12.48296,18.18328"
     id="path9913"
     style="fill:#231f20;fill-opacity:1;fill-rule:evenodd;stroke:none"
     inkscape:connector-curvature="0" />
  <path
     d="m 368.93819,4.7024661 c -14.07039,-1.55135 -29.36744,0.21647 -43.6543,-0.21647 -1.11841,0 -2.81408,0 -2.81408,1.08234 0,1.83997 2.16468,1.37096 3.46349,1.8039 2.2729,0.72156 5.15914,3.7881799 5.37561,10.4625999 0.18039,5.33953 0.28862,49.82362 0.10823,58.48233 -0.14431,5.8807 0.68548,17.02878 -6.2054,19.26561 -0.75764,0.25255 -1.94821,0.82979 -1.94821,1.37096 0,0.61333 0.18039,0.97411 0.72156,0.97411 5.66423,0 16.19899,-0.75764 25.14632,0.14431 0.90194,0.10823 1.08233,-0.39686 1.04626,-1.19057 -0.0722,-0.93803 -2.1286,-1.1545 -3.42741,-1.87606 -3.31917,-1.83997 -3.67995,-7.07127 -3.67995,-11.07592 0,-10.82338 -0.46901,-19.48208 -0.28862,-28.68196 0.0361,-1.91213 0.93803,-2.16467 1.87605,-2.09252 35.71715,3.1027 40.62375,-13.81785 40.44336,-26.58943 -0.14431,-10.53476 -4.4015,-20.5283499 -16.16291,-21.8632299 z m -7.25166,41.4174699 c -3.2831,0.0361 -11.76141,0.21646 -16.37939,0.10823 -1.47919,-0.0722 -1.80389,-1.69566 -1.83997,-2.48938 -0.50509,-10.75122 -0.79371,-22.76517 -0.14431,-31.85681 0.14431,-1.58743 2.02036,-1.26273 3.24701,-1.37096 7.17951,-0.43294 12.48297,-0.50509 18.43583,0.36078 2.41722,0.36078 5.15914,2.12859 6.5301,4.58189 2.09252,3.75211 2.23683,8.11754 2.63369,12.48297 0.93803,10.39044 -6.24148,18.00289 -12.48296,18.18328"
     id="path9917"
     style="fill:#231f20;fill-opacity:1;fill-rule:evenodd;stroke:none"
     inkscape:connector-curvature="0" />
  <path
     d="m 88.288412,172.10377 c 1.04626,0 1.11842,0.57725 1.11842,0.90195 0,0.54117 -0.5051,0.90195 -1.11842,1.08234 -5.37561,1.76781 -6.60226,7.39597 -6.85481,12.30257 0,14.7198 -0.0361,31.24349 0.14431,46.39622 -0.50509,8.18969 -1.73174,15.58567 -6.8548,21.64676 -4.00465,4.72621 -10.210057,9.12772 -20.420112,10.82338 -6.963041,1.11842 -13.853926,1.73174 -20.889123,0.61333 -10.173976,-1.58743 -13.673536,-3.64388 -20.05933,-9.88536 -5.8085473,-5.70031 -6.8908853,-12.37473 -7.4681323,-22.11577 l 0.03608,-51.30282 c -0.288623,-4.61798 -0.901948,-7.50421 -5.62815696,-9.23595 -0.252546,-0.14431 -0.360779,-0.90195 -0.252546,-1.11842 0.324702,-0.72155 2.56153396,-0.3247 3.86033896,-0.28862 7.1795093,0.0722 13.6374583,0.0361 20.9973563,0.10823 0.324702,0 0.793715,0.25255 0.793715,0.72156 -0.03608,1.01018 -1.731741,0.97411 -2.669767,1.4792 -5.988937,3.13878 -4.545819,9.09164 -4.834443,15.33312 l 0.07216,31.92897 c -0.07216,12.44689 -1.695663,29.22312 12.194341,35.06775 4.870521,1.98429 10.606912,1.76782 15.044498,1.76782 19.987171,0 26.589431,-12.84375 26.914141,-21.10559 0.57724,-13.92608 0.36078,-51.12243 -0.28863,-54.22513 -1.01018,-4.79837 -5.08699,-7.39598 -8.081454,-9.23596 -0.469013,-0.82979 -0.18039,-1.9482 1.226654,-1.83997 4.36543,0.3247 19.37384,0.46901 23.01772,0.18039"
     id="path9921"
     style="fill:#231f20;fill-opacity:1;fill-rule:nonzero;stroke:none"
     inkscape:connector-curvature="0" />
  <path
     d="m 568.37653,170.7328 c 2.16468,0.46901 1.91213,1.87605 1.91213,3.53564 0,4.40151 0.0722,7.54029 0.21647,12.73551 0,1.01018 0.21647,2.41722 -0.90195,2.41722 -2.27291,0 -2.38114,-5.05091 -3.93249,-6.96304 -2.23684,-2.81408 -8.1897,-7.07128 -15.3692,-7.07128 -8.69479,0 -14.93627,5.15915 -14.93627,12.23042 0,8.87517 1.62351,11.58102 13.06021,16.99271 7.21559,3.39132 23.52282,8.04538 29.25921,16.92055 2.88623,4.47366 3.60779,9.3081 3.57171,14.68372 -0.25254,6.8548 -2.63369,13.45707 -6.99912,18.94091 -9.70496,12.23042 -34.02149,10.28221 -46.46837,8.94733 -1.69567,-0.18039 -3.78819,0.86587 -4.00465,-1.33489 0.3247,-6.16932 0.18039,-11.86964 0.18039,-18.00288 0,-1.73174 0.90194,-2.20076 1.58742,-1.65959 0.72156,1.01018 0.79372,2.16468 1.33489,3.17486 4.40151,8.22577 11.03985,11.32847 23.88359,11.32847 8.11753,0 16.52369,-4.50974 19.51816,-13.02413 1.8039,-5.19523 0.6494,-11.32847 -3.1027,-15.0445 -7.14343,-8.55047 -17.78642,-11.58102 -27.52746,-15.47743 -5.66424,-2.27291 -15.15274,-8.44224 -15.15274,-23.84752 0,-6.67441 4.11289,-13.70961 8.76694,-16.81231 9.4885,-6.24149 25.21848,-4.94268 35.10383,-2.66977"
     id="path9925"
     style="fill:#231f20;fill-opacity:1;fill-rule:nonzero;stroke:none"
     inkscape:connector-curvature="0" />
  <path
     d="m 619.60763,171.05752 c 1.08234,0.0361 1.55135,2.23683 0,2.41722 -4.40151,0.50509 -5.95286,2.81408 -6.13325,10.64299 -0.21647,9.63281 -0.21647,64.43519 -0.21647,64.43519 0,4.47366 1.33489,8.94733 2.23684,10.10182 2.38114,2.92231 5.51992,2.52545 5.51992,3.96857 0.0361,0.46901 -0.0722,1.37096 -0.86587,1.26273 -8.22577,-1.08234 -16.70408,0.54117 -24.67731,0.3247 -0.68548,0 -0.90194,-0.79371 -0.90194,-1.11842 0,-2.05644 3.1027,-0.82979 4.58189,-2.30898 1.37096,-1.44312 2.05644,-3.39133 2.09252,-5.15915 0.61333,-36.51086 0.79372,-49.49892 0.25255,-75.40288 -0.14431,-5.19522 -6.3858,-6.24148 -8.22577,-7.21558 -0.50509,-0.25255 -0.3247,-2.16468 0.9741,-2.16468 8.5144,0.10824 16.81232,0.0361 25.36279,0.21647"
     id="path9929"
     style="fill:#231f20;fill-opacity:1;fill-rule:nonzero;stroke:none"
     inkscape:connector-curvature="0" />
  <path
     d="m 787.26235,173.18614 c 0,4.14896 -0.0722,6.74657 0.14431,10.53476 0.0361,0.3247 -0.36078,0.75763 -0.75763,0.75763 -1.19058,0 -2.48938,-3.82426 -5.01484,-5.19522 -6.92696,-3.78818 -15.08057,-2.48938 -23.91967,-2.41722 0,0 -4.94267,0.14431 -5.05091,1.15449 0,0.36078 -0.43293,21.28598 -0.43293,32.10936 0,0.3247 0.25254,0.64941 0.90195,0.64941 1.2988,-0.0361 27.96039,-0.18039 27.96039,-0.18039 2.34507,-0.0722 2.95839,-2.38115 3.21094,-3.10271 0.46901,-1.2988 2.23683,-1.47919 2.1286,-0.0721 -0.39686,5.30345 -0.61333,10.39044 -0.61333,15.47743 0,0.36078 -0.72156,0.57725 -1.26272,-0.25255 -2.02037,-3.28309 -4.97876,-5.15914 -9.12772,-5.19522 -7.97322,0 -15.0445,-0.46901 -22.87341,0.39686 -0.50509,0.0722 -0.57725,0.50509 -0.57725,1.15449 0,9.77712 -0.39685,17.53388 -0.21647,27.38315 0.10824,3.39133 0.97411,6.60227 3.64388,8.80302 5.30345,3.49956 12.55512,2.48938 18.61621,2.23683 4.87052,-0.21647 10.53476,0.46901 13.45707,-3.86034 1.69566,-2.4533 0.79371,-3.7521 2.99447,-6.56618 0.36078,-0.39686 1.40704,-0.25255 1.37096,0.50509 -0.36078,6.63834 -0.25255,8.26185 -0.39686,15.65782 -0.0722,1.01018 -1.11842,0.86587 -1.11842,0.86587 0,0 -54.04474,0.18039 -56.28157,0.0361 -0.86587,-0.0722 -1.44312,-1.62351 -0.18039,-2.02036 3.03055,-0.93803 6.56618,-1.11842 6.53011,-7.28775 l 0.18039,-28.32117 c 0.28862,-15.00842 1.47919,-30.81056 -0.39686,-46.03544 -0.28862,-2.4533 -1.11842,-5.08699 -3.9325,-5.98894 -0.90194,-0.3247 -2.66976,-0.14431 -2.66976,-1.40704 0,-1.22665 0.54117,-1.76782 2.34506,-1.73174 16.16292,0.18039 32.47014,-0.10823 48.48874,-0.21647 1.51528,0 2.85016,0.43294 2.85016,2.1286"
     id="path9933"
     style="fill:#231f20;fill-opacity:1;fill-rule:nonzero;stroke:none"
     inkscape:connector-curvature="0" />
  <path
     d="m 884.81655,171.02147 c 0.39686,0 0.82979,0.36078 0.9741,0.75764 l 0.0361,15.26096 c 0,3.17486 -2.16467,2.56153 -2.88623,0.3247 -0.82979,-2.48937 -1.73174,-4.69013 -2.4533,-5.556 -2.52546,-3.13878 -5.77247,-4.87052 -9.45242,-5.15914 l -17.35349,0 c -2.23683,0 -3.21093,0.90195 -3.21093,2.92231 -0.46901,27.70785 -1.29881,68.90885 0.50509,74.96994 1.69566,5.62816 4.9066,5.98894 6.96304,6.81873 1.22665,0.50509 1.87605,2.20076 -0.68548,2.20076 -6.7105,0 -26.37297,0.0361 -26.37297,0.0361 -2.16467,0 -1.87605,-1.98428 -0.39686,-2.38114 2.52546,-0.6494 4.40151,-1.26273 5.59208,-3.35525 1.11842,-1.91213 1.69567,-3.31917 1.8039,-6.5301 0.14431,-4.2572 0.3247,-51.41106 0.21647,-67.39358 -0.0361,-5.15914 -0.75764,-6.60226 -1.83998,-6.92696 -3.17485,-1.01019 -17.38956,-1.11842 -24.17221,1.04626 -3.96857,1.44311 -6.13325,5.15914 -6.13325,9.19987 0,0.79371 -0.57725,1.40704 -1.40704,1.40704 -0.57725,0 -0.93802,-0.21647 -0.93802,-1.11842 l 0.18038,-15.44135 c 0,-0.75764 0.75764,-1.37096 2.74193,-1.37096 l 78.28911,0.28862"
     id="path9937"
     style="fill:#231f20;fill-opacity:1;fill-rule:nonzero;stroke:none"
     inkscape:connector-curvature="0" />
</svg>
