<?xml version="1.0" encoding="UTF-8" standalone="no"?>
<svg xmlns:rdf="http://www.w3.org/1999/02/22-rdf-syntax-ns#" xmlns="http://www.w3.org/2000/svg" xml:space="preserve" height="79.632" viewBox="0 0 83.283249 79.631607" width="83.283" version="1.1" xmlns:cc="http://creativecommons.org/ns#" xmlns:dc="http://purl.org/dc/elements/1.1/"><defs><clipPath id="d" clipPathUnits="userSpaceOnUse"><path d="m623.23 139.92v-7.1157h1.9709v-23.652l-1.5528-2.661-1.9567-0.706 0.0132-0.6218h2.0923l2.6742 1.3278 1.3262 2.661v24.154h-1.8887v6.6135h-2.6786zm-29.592-0.002v-7.3868h1.9869v-12.602h2.6397v13.376h-2.0144v6.6126h-2.6122zm1.9869-27.577v-5.1502l-0.4013-2.1064 6.1546-6.2441h3.6221l-7.0024 7.0041 0.2667 1.3464v5.1502h-2.6397z"/></clipPath><clipPath id="c" clipPathUnits="userSpaceOnUse"><path d="m45.882 34.941h700.24v542.12h-700.24v-542.12z"/></clipPath><clipPath id="b" clipPathUnits="userSpaceOnUse"><path d="m577.7 152.93v-6.5984h2.0614v-27.049h-2.0844v-6.7508h2.506v6.4514h2.0046v27.599h-2.0046v6.3478h-2.483zm32.823-33.949h2.5112v5.8021h-2.5112v-5.8021z"/></clipPath><clipPath id="a" clipPathUnits="userSpaceOnUse"><path d="m45.882 34.941h700.24v542.12h-700.24v-542.12z"/></clipPath></defs><g transform="matrix(1.25 0 0 -1.25 -717.08 198.33)"><g transform="translate(.81079 .81079)"><g><path d="m619.41 143.79v-14.854h-9.5057v14.854h-16.078v13.277h-20.164v-14.899h2.0152v-18.765l-0.1427-0.0009h-1.8725v-14.875l13.43-0.0009v-2.568h4.3555l-0.4668-2.3191 8.6809-8.6774h29.111l8.6828 8.6774-0.7751 3.8604v21.39h0.1408l1.8673-0.0008v1.8717 13.03h-19.279z" fill="#fff"/><path d="m606.03 130.76h2.001v11.16h-16.421v-11.158h2.0142v-11.232h12.406v11.23z"/><path d="m636.82 130.76v11.16h-15.621v-11.16h1.8973v-20.999l-0.69708-1.3659-1.3738-0.6821h-13.093l-1.3746 0.6821-0.68823 1.3641v2.7513h-12.47v-5.1934l-0.61445-3.0667 7.4597-7.4249h27.708l7.4597 7.4249-0.61435 3.0684v23.443l2.0221-0.002z"/><path d="m25.619 22.119v7.582h2.5176v16.086h9.1309v-16.09h2.5117v-7.5781h-14.16zm37.086 0v7.5781h2.3633v30.195l-1.6719 3.3242-3.3418 1.6621h-17.777l-3.3398-1.6621-1.6699-3.3223v-3.3496h-9.1309v5.7969l-0.49609 2.6328 7.1465 7.1387h31.812l7.1465-7.1387-0.49609-2.4766v-32.801h2.5156v-7.5781h-13.061z" transform="matrix(.8 0 0 -.8 573.66 157.07)" fill="#e31937"/></g><g clip-path="url(#d)" transform="matrix(1.0134 0 0 1.0028 -8.4088 -.39215)" fill="#fff"><g clip-path="url(#c)" fill="#fff"><path d="m634.27 133.31v6.0633h-10.448v-6.0633h1.8896v-24.155l-1.3376-2.6601-2.6725-1.3287h-14.222l-2.6726 1.3287-1.3358 2.6584v2.6787h-7.3054v-4.6373l-0.3958-2.1064 5.717-5.71h25.449l5.718 5.71-0.3978 1.9824v26.24h2.0134z"/><path d="m603.48 133.31h2.009v6.0633h-11.329v-6.0651h2.0144v-12.869h7.3053v12.871z"/></g></g><path d="m620.79 110.4-45.253 0.004v11.135h2.0127v22.502h-2.0127v11.158h16.421v-11.157h-2.0162v-22.495l0.01-0.0115h18.444v5.5355h12.401l-0.007-16.671z"/><path d="m578.08 112.95 40.16-0.004 0.005 11.577h-7.3035v-5.5364h-22.04l-1.5077 1.498v26.104h2.0135v6.0634h-11.328v-6.0634h2.0151v-27.6h-2.0151v-6.0386z" fill="#e31937"/><g clip-path="url(#b)" transform="matrix(1.0097 0 0 1 -5.9417 0)" fill="#fff"><g fill="#fff" clip-path="url(#a)"><path d="m578.08 112.95 40.16-0.004 0.005 11.577h-7.3035v-5.5364h-22.04l-1.5077 1.498v26.104h2.0135v6.0634h-11.328v-6.0634h2.0151v-27.6h-2.0151v-6.0386z" fill="#fff"/></g></g></g></g></svg>