<?xml version="1.0" encoding="UTF-8" standalone="no"?>
<!-- Created with Inkscape (http://www.inkscape.org/) -->

<svg
   xmlns:dc="http://purl.org/dc/elements/1.1/"
   xmlns:cc="http://creativecommons.org/ns#"
   xmlns:rdf="http://www.w3.org/1999/02/22-rdf-syntax-ns#"
   xmlns:svg="http://www.w3.org/2000/svg"
   xmlns="http://www.w3.org/2000/svg"
   xmlns:sodipodi="http://sodipodi.sourceforge.net/DTD/sodipodi-0.dtd"
   xmlns:inkscape="http://www.inkscape.org/namespaces/inkscape"
   width="135.46666mm"
   height="15.315022mm"
   viewBox="0 0 135.46666 15.315022"
   version="1.1"
   id="svg1888"
   inkscape:version="0.92.1 r15371"
   sodipodi:docname="prairie logo.svg">
  <defs
     id="defs1882" />
  <sodipodi:namedview
     id="base"
     pagecolor="#ffffff"
     bordercolor="#666666"
     borderopacity="1.0"
     inkscape:pageopacity="0.0"
     inkscape:pageshadow="2"
     inkscape:zoom="0.98994949"
     inkscape:cx="235.88621"
     inkscape:cy="57.030799"
     inkscape:document-units="mm"
     inkscape:current-layer="layer1"
     showgrid="false"
     fit-margin-top="0"
     fit-margin-left="0"
     fit-margin-right="0"
     fit-margin-bottom="0"
     inkscape:window-width="1600"
     inkscape:window-height="838"
     inkscape:window-x="-8"
     inkscape:window-y="-8"
     inkscape:window-maximized="1" />
  <metadata
     id="metadata1885">
    <rdf:RDF>
      <cc:Work
         rdf:about="">
        <dc:format>image/svg+xml</dc:format>
        <dc:type
           rdf:resource="http://purl.org/dc/dcmitype/StillImage" />
        <dc:title></dc:title>
      </cc:Work>
    </rdf:RDF>
  </metadata>
  <g
     inkscape:label="Layer 1"
     inkscape:groupmode="layer"
     id="layer1"
     transform="translate(18.596428,-111.69368)">
    <g
       id="g300"
       transform="matrix(0.83387403,0,0,-0.83387403,-11.54102,117.79223)">
      <path
         d="m 0,0 5.15,-0.03 c 0,0 1.025,-0.095 1.508,-1.192 C 7.004,-2.009 6.94,-2.136 6.721,-2.889 6.58,-3.375 4.083,-7.413 4.083,-7.413 l -5.748,-0.029 2.67,4.491 c 0,0 0.314,0.786 0.314,1.192 C 1.319,-0.584 0,0 0,0"
         style="fill:#1d6434;fill-opacity:1;fill-rule:nonzero;stroke:none"
         id="path302"
         inkscape:connector-curvature="0" />
    </g>
    <g
       id="g304"
       transform="matrix(0.83387403,0,0,-0.83387403,-11.54102,117.79223)">
      <path
         d="m 0,0 -2.549,4.478 c 0,0 -0.431,0.932 0.28,1.903 0.507,0.69 0.648,0.699 1.411,0.885 0.491,0.119 5.236,-0.023 5.236,-0.023 L 7.279,2.28 2.053,2.347 c 0,0 -0.836,-0.12 -1.189,-0.324 C -0.153,1.435 0,0 0,0"
         style="fill:#1d6434;fill-opacity:1;fill-rule:nonzero;stroke:none"
         id="path306"
         inkscape:connector-curvature="0" />
    </g>
    <g
       id="g308"
       transform="matrix(0.83387403,0,0,-0.83387403,-11.54102,117.79223)">
      <path
         d="m 0,0 -2.603,-4.445 c 0,0 -0.593,-0.841 -1.788,-0.708 -0.852,0.093 -0.929,0.211 -1.473,0.776 -0.35,0.368 -2.597,4.547 -2.597,4.547 l 2.846,4.995 2.554,-4.557 c 0,0 0.524,-0.667 0.878,-0.87 C -1.167,-0.85 0,0 0,0"
         style="fill:#1d6434;fill-opacity:1;fill-rule:nonzero;stroke:none"
         id="path310"
         inkscape:connector-curvature="0" />
    </g>
    <g
       id="g312"
       transform="matrix(0.83387403,0,0,-0.83387403,-0.95457525,119.51001)">
      <path
         d="M 0,0 C 2.001,-0.032 2.745,0.447 2.745,2.497 2.745,4.38 2.149,5.009 0.794,5.009 0.232,5.009 0.018,4.795 0,4.432 Z m -4.066,-5.173 c 0.81,0.132 0.843,0.151 0.959,0.231 0.198,0.152 0.429,0.365 0.429,1.288 v 7.308 c 0,1.389 -0.512,1.437 -1.388,1.521 v 0.413 h 5.324 c 1.321,0 4.33,-0.248 4.33,-3.04 C 5.588,1.968 5.406,0.796 4.084,0.051 3.025,-0.544 2.183,-0.562 0,-0.578 V -3.654 C 0,-4.99 0.316,-5.022 1.456,-5.173 v -0.413 h -5.522 z"
         style="fill:#1d6434;fill-opacity:1;fill-rule:nonzero;stroke:none"
         id="path314"
         inkscape:connector-curvature="0" />
    </g>
    <g
       id="g316"
       transform="matrix(0.83387403,0,0,-0.83387403,7.9187651,124.16861)">
      <path
         d="m 0,0 h -4.396 v 0.398 c 0.529,0.099 0.892,0.166 0.892,0.991 v 4.86 c 0,0.828 -0.396,0.909 -0.892,0.975 v 0.398 h 3.125 V 6.315 h 0.032 c 0.348,0.511 1.091,1.504 2.167,1.504 1.123,0 1.369,-0.892 1.369,-1.289 0,-0.431 -0.229,-1.107 -1.057,-1.107 -0.957,0 -0.942,0.974 -1.471,0.974 -0.247,0 -0.974,-0.363 -0.974,-1.571 V 1.701 C -1.205,0.695 -1.007,0.445 0,0.398 Z"
         style="fill:#1d6434;fill-opacity:1;fill-rule:nonzero;stroke:none"
         id="path318"
         inkscape:connector-curvature="0" />
    </g>
    <g
       id="g320"
       transform="matrix(0.83387403,0,0,-0.83387403,14.009216,120.79175)">
      <path
         d="m 0,0 c -0.38,-0.082 -2.016,-0.562 -2.016,-1.999 0,-0.513 0.247,-1.107 0.843,-1.107 0.562,0 0.943,0.446 1.173,0.71 z M 3.225,-3.34 C 2.761,-3.884 2.149,-4.28 1.406,-4.28 c -1.158,0 -1.289,0.693 -1.39,1.156 -1.073,-1.073 -2.231,-1.156 -2.628,-1.156 -0.794,0 -1.818,0.512 -1.818,1.768 0,1.72 2.101,2.38 4.446,3.092 v 1.205 c 0,0.844 -0.231,1.456 -1.453,1.456 -0.596,0 -0.976,-0.33 -0.976,-0.596 0,-0.347 0.496,-0.481 0.496,-1.123 0,-0.297 -0.248,-0.929 -1.107,-0.929 -0.2,0 -1.091,0 -1.091,1.126 0,1.042 1.04,2.051 3.09,2.051 1.835,0 3.306,-0.71 3.306,-2.265 V -2.81 c 0,-0.099 0,-0.412 0.363,-0.412 0.067,0 0.117,0.015 0.167,0.066 l 0.165,0.167 z"
         style="fill:#1d6434;fill-opacity:1;fill-rule:nonzero;stroke:none"
         id="path322"
         inkscape:connector-curvature="0" />
    </g>
    <g
       id="g324"
       transform="matrix(0.83387403,0,0,-0.83387403,18.763961,114.64303)">
      <path
         d="M 0,0 C 0.71,0 1.272,-0.58 1.272,-1.291 1.272,-2.017 0.71,-2.565 0,-2.565 -0.76,-2.565 -1.29,-2 -1.29,-1.291 -1.29,-0.595 -0.745,0 0,0 m 1.935,-11.424 h -3.952 v 0.399 c 0.595,0.148 0.878,0.198 0.878,0.991 v 4.86 c 0,0.743 -0.25,0.86 -0.878,0.975 v 0.397 h 3.174 v -6.282 c 0,-0.512 0.133,-0.877 0.778,-0.941 z"
         style="fill:#1d6434;fill-opacity:1;fill-rule:nonzero;stroke:none"
         id="path326"
         inkscape:connector-curvature="0" />
    </g>
    <g
       id="g328"
       transform="matrix(0.83387403,0,0,-0.83387403,24.756435,124.16861)">
      <path
         d="m 0,0 h -4.396 v 0.398 c 0.53,0.099 0.892,0.166 0.892,0.991 v 4.86 c 0,0.828 -0.396,0.909 -0.892,0.975 v 0.398 h 3.123 V 6.315 h 0.033 c 0.349,0.511 1.093,1.504 2.167,1.504 1.124,0 1.371,-0.892 1.371,-1.289 0,-0.431 -0.23,-1.107 -1.058,-1.107 -0.958,0 -0.94,0.974 -1.47,0.974 -0.248,0 -0.976,-0.363 -0.976,-1.571 V 1.701 c 0,-1.006 0.2,-1.256 1.206,-1.303 z"
         style="fill:#1d6434;fill-opacity:1;fill-rule:nonzero;stroke:none"
         id="path330"
         inkscape:connector-curvature="0" />
    </g>
    <g
       id="g332"
       transform="matrix(0.83387403,0,0,-0.83387403,28.710247,114.64303)">
      <path
         d="M 0,0 C 0.71,0 1.273,-0.58 1.273,-1.291 1.273,-2.017 0.71,-2.565 0,-2.565 -0.76,-2.565 -1.288,-2 -1.288,-1.291 -1.288,-0.595 -0.744,0 0,0 m 1.935,-11.424 h -3.952 v 0.399 c 0.595,0.148 0.876,0.198 0.876,0.991 v 4.86 c 0,0.743 -0.247,0.86 -0.876,0.975 v 0.397 h 3.174 v -6.282 c 0,-0.512 0.133,-0.877 0.778,-0.941 z"
         style="fill:#1d6434;fill-opacity:1;fill-rule:nonzero;stroke:none"
         id="path334"
         inkscape:connector-curvature="0" />
    </g>
    <g
       id="g336"
       transform="matrix(0.83387403,0,0,-0.83387403,34.745661,120.28085)">
      <path
         d="M 0,0 C -0.018,0.512 -0.018,1.371 -0.149,1.868 -0.249,2.232 -0.462,2.645 -1.042,2.645 -1.655,2.645 -2.216,2.28 -2.216,0 Z m 2.117,-2.828 c -1.009,-1.537 -1.951,-2.065 -3.274,-2.065 -1.67,0 -3.356,1.224 -3.356,4.049 0,2.446 1.505,4.001 3.405,4.001 2.876,0 3.09,-2.875 3.141,-3.77 h -4.166 c 0.051,-1.404 0.414,-3.089 1.984,-3.089 0.975,0 1.554,0.726 1.866,1.107 z"
         style="fill:#1d6434;fill-opacity:1;fill-rule:nonzero;stroke:none"
         id="path338"
         inkscape:connector-curvature="0" />
    </g>
    <g
       id="g340"
       transform="matrix(0.83387403,0,0,-0.83387403,46.485685,117.62119)">
      <path
         d="m 0,0 c -0.297,1.157 -1.289,3.059 -3.24,3.059 -0.858,0 -1.769,-0.496 -1.769,-1.57 0,-0.894 0.315,-1.257 1.703,-1.953 l 2.431,-1.205 c 0.561,-0.281 1.818,-1.239 1.818,-3.043 0,-1.453 -1.057,-3.454 -4.099,-3.454 -1.57,0 -2.314,0.562 -2.828,0.562 -0.347,0 -0.43,-0.297 -0.496,-0.562 h -0.478 v 4.085 h 0.478 c 0.332,-1.672 1.29,-3.54 3.39,-3.54 1.983,0 2.065,1.637 2.065,1.852 0,1.107 -0.776,1.506 -1.851,2.017 l -1.107,0.529 c -2.826,1.356 -2.826,2.778 -2.826,3.539 0,1.007 0.512,3.256 3.653,3.256 1.322,0 2.099,-0.549 2.577,-0.549 0.381,0 0.465,0.251 0.545,0.564 H 0.463 V 0 Z"
         style="fill:#1d6434;fill-opacity:1;fill-rule:nonzero;stroke:none"
         id="path342"
         inkscape:connector-curvature="0" />
    </g>
    <g
       id="g344"
       transform="matrix(0.83387403,0,0,-0.83387403,52.065973,118.41988)">
      <path
         d="m 0,0 h -1.554 v -4.977 c 0,-0.263 -0.015,-0.941 0.644,-0.941 0.481,0 0.761,0.514 0.944,0.859 L 0.446,-5.24 c -0.347,-0.711 -0.942,-1.852 -2.428,-1.852 -1.787,0 -1.852,1.389 -1.869,1.735 V 0 H -4.71 v 0.446 c 0.876,0.743 1.618,1.471 2.743,3.074 h 0.413 V 0.728 H 0 Z"
         style="fill:#1d6434;fill-opacity:1;fill-rule:nonzero;stroke:none"
         id="path346"
         inkscape:connector-curvature="0" />
    </g>
    <g
       id="g348"
       transform="matrix(0.83387403,0,0,-0.83387403,56.487339,120.79175)">
      <path
         d="m 0,0 c -0.38,-0.082 -2.016,-0.562 -2.016,-1.999 0,-0.513 0.246,-1.107 0.841,-1.107 0.563,0 0.943,0.446 1.175,0.71 z m 3.224,-3.34 c -0.465,-0.544 -1.075,-0.94 -1.82,-0.94 -1.156,0 -1.288,0.693 -1.387,1.156 -1.074,-1.073 -2.233,-1.156 -2.628,-1.156 -0.794,0 -1.819,0.512 -1.819,1.768 0,1.72 2.099,2.38 4.447,3.092 v 1.205 c 0,0.844 -0.232,1.456 -1.456,1.456 -0.595,0 -0.975,-0.33 -0.975,-0.596 0,-0.347 0.497,-0.481 0.497,-1.123 0,-0.297 -0.248,-0.929 -1.108,-0.929 -0.197,0 -1.089,0 -1.089,1.126 0,1.042 1.04,2.051 3.091,2.051 1.833,0 3.304,-0.71 3.304,-2.265 V -2.81 c 0,-0.099 0,-0.412 0.364,-0.412 0.067,0 0.114,0.015 0.165,0.066 l 0.166,0.167 z"
         style="fill:#1d6434;fill-opacity:1;fill-rule:nonzero;stroke:none"
         id="path350"
         inkscape:connector-curvature="0" />
    </g>
    <g
       id="g352"
       transform="matrix(0.83387403,0,0,-0.83387403,63.543577,118.41988)">
      <path
         d="m 0,0 h -1.554 v -4.977 c 0,-0.263 -0.015,-0.941 0.646,-0.941 0.478,0 0.76,0.514 0.941,0.859 L 0.447,-5.24 c -0.349,-0.711 -0.944,-1.852 -2.43,-1.852 -1.785,0 -1.852,1.389 -1.867,1.735 V 0 h -0.86 v 0.446 c 0.875,0.743 1.619,1.471 2.742,3.074 h 0.414 V 0.728 H 0 Z"
         style="fill:#1d6434;fill-opacity:1;fill-rule:nonzero;stroke:none"
         id="path354"
         inkscape:connector-curvature="0" />
    </g>
    <g
       id="g356"
       transform="matrix(0.83387403,0,0,-0.83387403,68.034076,120.28085)">
      <path
         d="M 0,0 C -0.017,0.512 -0.017,1.371 -0.148,1.868 -0.248,2.232 -0.462,2.645 -1.041,2.645 -1.653,2.645 -2.215,2.28 -2.215,0 Z m 2.115,-2.828 c -1.007,-1.537 -1.949,-2.065 -3.272,-2.065 -1.669,0 -3.356,1.224 -3.356,4.049 0,2.446 1.505,4.001 3.406,4.001 2.876,0 3.09,-2.875 3.14,-3.77 h -4.166 c 0.05,-1.404 0.413,-3.089 1.985,-3.089 0.974,0 1.554,0.726 1.867,1.107 z"
         style="fill:#1d6434;fill-opacity:1;fill-rule:nonzero;stroke:none"
         id="path358"
         inkscape:connector-curvature="0" />
    </g>
    <g
       id="g360"
       transform="matrix(0.83387403,0,0,-0.83387403,82.959005,122.41847)">
      <path
         d="m 0,0 c -1.207,-1.37 -2.497,-2.412 -4.61,-2.412 -3.854,0 -5.935,2.71 -5.935,5.802 0,3.355 2.378,5.935 5.851,5.935 1.486,0 2.759,-0.812 3.189,-0.812 0.447,0 0.594,0.348 0.761,0.762 h 0.446 V 5.407 h -0.413 c -0.579,1.438 -1.967,3.37 -3.851,3.37 -2.412,0 -3.058,-2.528 -3.058,-5.321 0,-0.991 0.097,-2.579 0.709,-3.637 0.696,-1.189 2.002,-1.438 2.513,-1.438 1.29,0 2.53,0.496 3.902,2.035 z"
         style="fill:#1d6434;fill-opacity:1;fill-rule:nonzero;stroke:none"
         id="path362"
         inkscape:connector-curvature="0" />
    </g>
    <g
       id="g364"
       transform="matrix(0.83387403,0,0,-0.83387403,86.913481,123.93372)">
      <path
         d="m 0,0 c 1.14,0 1.27,1.405 1.27,3.505 0,2.544 -0.278,3.52 -1.288,3.52 -1.222,0 -1.305,-1.635 -1.305,-3.52 C -1.323,1.72 -1.323,0 0,0 m -0.018,7.537 c 2.166,0 3.718,-1.736 3.718,-4.032 0,-2.199 -1.469,-4.017 -3.718,-4.017 -2.297,0 -3.736,1.866 -3.736,4.017 0,2.131 1.439,4.032 3.736,4.032"
         style="fill:#1d6434;fill-opacity:1;fill-rule:nonzero;stroke:none"
         id="path366"
         inkscape:connector-curvature="0" />
    </g>
    <g
       id="g368"
       transform="matrix(0.83387403,0,0,-0.83387403,93.844812,124.16861)">
      <path
         d="m 0,0 h -3.949 v 0.398 c 0.66,0 0.841,0.595 0.841,0.991 v 8.43 c 0,0.182 -0.033,0.958 -0.841,0.958 v 0.398 H -0.81 V 1.389 C -0.81,0.91 -0.645,0.398 0,0.398 Z"
         style="fill:#1d6434;fill-opacity:1;fill-rule:nonzero;stroke:none"
         id="path370"
         inkscape:connector-curvature="0" />
    </g>
    <g
       id="g372"
       transform="matrix(0.83387403,0,0,-0.83387403,97.675379,124.16861)">
      <path
         d="m 0,0 h -3.951 v 0.398 c 0.662,0 0.843,0.595 0.843,0.991 v 8.43 c 0,0.182 -0.035,0.958 -0.843,0.958 v 0.398 H -0.81 V 1.389 C -0.81,0.91 -0.646,0.398 0,0.398 Z"
         style="fill:#1d6434;fill-opacity:1;fill-rule:nonzero;stroke:none"
         id="path374"
         inkscape:connector-curvature="0" />
    </g>
    <g
       id="g376"
       transform="matrix(0.83387403,0,0,-0.83387403,102.09616,120.28085)">
      <path
         d="M 0,0 C -0.016,0.512 -0.016,1.371 -0.149,1.868 -0.248,2.232 -0.462,2.645 -1.041,2.645 -1.653,2.645 -2.215,2.28 -2.215,0 Z m 2.118,-2.828 c -1.01,-1.537 -1.952,-2.065 -3.275,-2.065 -1.669,0 -3.356,1.224 -3.356,4.049 0,2.446 1.504,4.001 3.405,4.001 2.878,0 3.094,-2.875 3.143,-3.77 h -4.166 c 0.049,-1.404 0.413,-3.089 1.982,-3.089 0.977,0 1.554,0.726 1.867,1.107 z"
         style="fill:#1d6434;fill-opacity:1;fill-rule:nonzero;stroke:none"
         id="path378"
         inkscape:connector-curvature="0" />
    </g>
    <g
       id="g380"
       transform="matrix(0.83387403,0,0,-0.83387403,107.41319,121.66023)">
      <path
         d="m 0,0 c 1.042,0 1.093,1.189 1.093,2.133 0,0.743 0,2.166 -1.093,2.166 -1.006,0 -1.089,-1.124 -1.089,-2.166 C -1.089,0.993 -0.974,0 0,0 m -1.47,-3.867 c -0.428,-0.348 -0.578,-0.562 -0.578,-0.925 0,-1.059 1.736,-1.091 2.016,-1.091 0.661,0 2.745,0 2.745,1.174 0,0.594 -0.464,0.842 -1.324,0.842 z M 2.661,3.572 C 2.828,3.406 3.325,2.927 3.325,1.935 3.325,0.926 2.778,0.066 1.588,-0.315 1.11,-0.462 1.11,-0.462 -0.495,-0.462 c -0.313,0 -0.926,-0.331 -0.926,-0.826 0,-0.563 0.43,-0.579 1.654,-0.594 L 1.306,-1.9 c 0.812,-0.017 2.712,-0.182 2.712,-2.019 0,-2.047 -2.182,-2.495 -4.249,-2.495 -2.049,0 -3.272,0.58 -3.272,1.507 0,0.657 0.596,1.156 1.522,1.238 v 0.033 c -0.745,0.264 -1.291,0.513 -1.291,1.372 0,1.043 1.224,1.685 1.935,1.884 v 0.034 c -1.224,0.445 -2.018,1.339 -2.018,2.528 0,1.325 1.124,2.629 3.389,2.629 0.595,0 1.157,-0.099 1.82,-0.364 H 4.001 V 3.572 Z"
         style="fill:#1d6434;fill-opacity:1;fill-rule:nonzero;stroke:none"
         id="path382"
         inkscape:connector-curvature="0" />
    </g>
    <g
       id="g384"
       transform="matrix(0.83387403,0,0,-0.83387403,115.10576,120.28085)">
      <path
         d="M 0,0 C -0.017,0.512 -0.017,1.371 -0.149,1.868 -0.249,2.232 -0.465,2.645 -1.042,2.645 -1.653,2.645 -2.216,2.28 -2.216,0 Z m 2.116,-2.828 c -1.01,-1.537 -1.951,-2.065 -3.274,-2.065 -1.67,0 -3.355,1.224 -3.355,4.049 0,2.446 1.504,4.001 3.405,4.001 2.876,0 3.09,-2.875 3.14,-3.77 h -4.166 c 0.051,-1.404 0.413,-3.089 1.985,-3.089 0.974,0 1.554,0.726 1.867,1.107 z"
         style="fill:#1d6434;fill-opacity:1;fill-rule:nonzero;stroke:none"
         id="path386"
         inkscape:connector-curvature="0" />
    </g>
  </g>
</svg>
