<?xml version="1.0" encoding="UTF-8" standalone="no"?>
<svg xmlns:rdf="http://www.w3.org/1999/02/22-rdf-syntax-ns#" xmlns="http://www.w3.org/2000/svg" xml:space="preserve" height="40.823" viewBox="0 0 289.125 40.8232" width="289.12" version="1.1" xmlns:cc="http://creativecommons.org/ns#" xmlns:dc="http://purl.org/dc/elements/1.1/"><g transform="matrix(1.25 0 0 -1.25 -13.986 43.689)"><g style="" transform="translate(.54296 .81444)"><path d="m107.67 2.293h-0.5v30.95h0.5v-30.95z" fill="#98002e"/><path d="m64.75 3.3105c-0.28625 0-0.51406 0.22734-0.91406 0.68359-0.4 0.62875-1.1991 2.1151-1.7129 2.7988-0.115 0.17125-0.11524 0.28773-0.11524 0.45898 0 0.28375-0.11305 0.74102-0.3418 1.1973-0.8825 2.165-2.2552 5.6938-3.7227 9.4863-2.7162 7.0188-5.7608 14.949-6.6133 16.838-1.655 3.7138-2.3989 3.8842-5.2539 4.8555-0.855 0.28375-1.2559 0.79938-1.2559 1.1406 0 0.345 0.28625 0.57227 1.3125 0.57227 0.8575 0 3.8257-0.28516 5.9395-0.28516 2.1112 0 3.5417 0.17188 4.5117 0.17188 0.74375 0 1.5996-0.17219 1.5996-0.74219 0-0.4-0.57102-0.74234-1.541-1.0273-2.5725-0.8-2.7988-1.7708-2.7988-2.457 0-1.4262 1.4838-6.2822 2.9688-9.9922 0.11375-0.17125 0.40016-0.45898 0.62891-0.45898 1.1975-0.17 6.2233-0.22656 9.3633-0.22656 1.6575 0 1.8839 0.34156 1.9414 0.57031 1.315 3.655 2.743 7.4244 3.1992 9.7656 0.22875 1.1988 0.4568 2.3402-2.2832 2.9102-1.0275 0.1725-1.3711 0.62852-1.3711 0.91602 0 0.28375 0.34398 0.68555 1.7715 0.68555h23.875c1.085 0 1.5898-0.28516 1.5898-0.62891 0-0.5125-0.51289-0.91274-1.3691-1.084-3.7138-0.685-3.8273-1.8284-3.8848-3.5996-0.058-1.657-0.288-9.65-0.229-10.735 0.057-0.23 0.285-0.686 0.455-0.686 1.2012-0.17 3.9423-0.16992 5.0273-0.16992 1.1412 0 3.1987 0.16945 3.8262 0.2832 1.085 0.28625 1.7705 0.57219 2.3418 2.7422 0.22875 0.8 0.57117 1.1992 0.85742 1.1992 0.57 0 0.85547-0.68695 0.85547-1.3145 0-1.255-0.11523-1.7705-0.11523-4.5117 0-0.65375 0.11422-1.6303 0.19922-2.4453 0.05-0.4675 0.0879-0.88109 0.0879-1.1523 0-0.685-0.11367-1.2559-0.51367-1.2559-0.51375 0-0.74344 0.56984-1.0859 1.3711-0.11125 0.27-0.21797 0.51242-0.32422 0.73242-0.6425 1.3438-1.2373 1.7463-2.7598 1.8926-1.3712 0.115-5.9939 0.05859-8.2227 0.05859-0.285 0-0.57031-0.57078-0.57031-2.1133 0-0.4025 0.000156-0.84726 0.0039-1.3223 0.02-3.975 0.12016-10.073 0.22266-11.297 0-0.1725 0.34352-0.68469 0.91602-0.74219 1.1975-0.11375 6.9084-0.17297 8.8496 0.11328 1.885 0.28375 2.512 0.79891 3.4258 3.5977 0.3425 1.1412 0.80157 1.7715 1.2578 1.7715 0.5125 0 0.85507-0.80172 0.79882-1.543-0.0562-1.94-0.28562-3.9407-0.17187-5.5957 0-0.34375-0.3993-0.62781-0.68555-0.57031-0.455 0-5.708 0.16992-9.1367 0.16992h-7.4238c-1.77 0-3.8241-0.16992-6.3379-0.16992-0.9125 0-1.5996 0.22734-1.5996 0.68359 0 0.4 0.28578 0.6857 1.4258 0.9707 2.5138 0.62875 3.4859 1.5985 3.5996 3.541 0.1025 1.3362 0.11398 4.2024 0.11523 8.6699v1.5527c0 11.304-0.28453 15.531-0.45703 17.301-0.055 0.72875-0.41945 2.7528-3.0957 2.7578-0.01625-0.0063-3.2271 0.1818-5.4121-5.7832-0.68625-1.8712-3.5709-9.2212-6.1797-16.344-0.71-1.9388-1.406-3.8581-2.041-5.6406-1.086-2.97-2.054-5.5408-2.512-7.0821-0.457-1.2562-0.686-1.4844-0.914-1.4844zm54.475 0c-3.9962 0-6.6812 1.1988-8.4512 2.7988-1.9438 1.7125-3.1406 4.2811-3.1406 6.9648 0 3.675 1.9648 6.4662 5.0274 8.9688 0.9825 0.80125 2.0732 1.5761 3.252 2.3398 5.995 3.8262 7.1387 6.3955 7.1387 8.793 0 4.1112-2.9689 6.9102-6.9102 6.9102-2.1688 0-5.9388-1.4271-7.4238-4.5684-0.79875-1.7712-1.6551-3.2559-2.1113-3.2559-0.2275 0-0.80078 0.85789-0.80078 1.0879 0 0.9125 0.57367 3.424 0.85742 5.3652 0 0.22875 0.74375 1.4844 1.3125 1.8281 1.7725 0.8575 5.6549 1.4844 7.4824 1.4844 2.57 0 5.9381-0.85789 7.7656-2.0566 3.0838-1.9988 4.6816-5.197 4.6816-8.0508 0-2.5675-0.86891-4.592-2.2852-6.3457-1.4212-1.76-3.3938-3.2469-5.5938-4.7344-5.0262-3.3675-7.9394-5.1377-7.9394-9.1914 0-3.8263 2.7409-6.6816 6.5684-6.6816 1.655 0 3.0259 0.5125 4.0547 1.3125 0.57 0.3425 2.1126 2.0563 2.7988 4.1113 0.2275 0.8 0.91164 1.1992 1.3691 1.1992 0.4 0 0.40039-0.57102 0.40039-1.541 0-0.22875-0.45726-3.542-0.57226-4.627 0-0.11375-0.3418-0.97023-0.68555-1.084-1.0275-0.17125-3.9962-1.0273-6.7949-1.0273zm-103.58 0.8555c-0.915 0-1.6562 0.2293-1.6562 0.68555 0 0.51375 0.6275 0.79945 1.3125 0.9707 2.1688 0.4575 2.967 1.3701 3.082 2.4551 0.0575 0.7425 0.23047 5.3107 0.23047 13.533 0 1.0738 0.01773 2.0758 0.05273 3.0195 0.27625 7.4912 1.6744 11.082 4.5156 13.77 1.37 1.2588 5.1965 3.3711 10.334 3.3711 2.5138 0 5.5984-0.34117 8.2246-1.8262 4.1112-2.285 6.8524-7.3098 7.1387-17.246 0.04-1.07 0.1132-2.5766 0.18945-4.1816 0.135-2.8512 0.28922-6.0108 0.32422-7.582 0.115-3.5988 1.2559-4.5689 3.7109-5.2539 0.8-0.28625 1.2578-0.6868 1.2578-1.0293 0-0.45625-0.51523-0.62891-1.4277-0.62891-1.5988 0-2.7981 0.11523-5.1406 0.11523-1.825 0-3.426-0.17188-4.8535-0.17188-0.97 0-1.3125 0.22977-1.3125 0.57227 0 0.4 0.62602 0.91234 1.1973 1.0273 3.1975 0.74125 3.6002 1.5429 3.7715 3.7129 0.05625 0.685 0.22656 3.6533 0.22656 7.3633 0 0.73625-0.0077 1.4474-0.02148 2.1387-0.10875 5.4312-0.62562 9.5116-1.2344 12.195-1.425 6.2825-6.9677 7.9961-10.678 7.9961-2.97 0-6.6825-1.3687-8.2812-3.1387-1.77-2-3.1973-4.4552-3.1973-10.91 0-0.5575 0.000547-1.1012-0.002-1.6387-0.0038-7.2638-0.03703-12.538 0.23047-14.293 0.34125-2.2837 1.4262-2.8559 3.4824-3.2559 1.085-0.2275 1.7129-0.62648 1.7129-1.084 0-0.45625-0.68453-0.62891-1.7695-0.62891-1.2562 0-3.4253 0.11523-5.5391 0.11523-2.1125 0-3.4821-0.17188-5.8809-0.17188zm225.83 5.902c-0.075 0-0.13524 0.06094-0.24024 0.17969-0.105 0.16625-0.31422 0.55562-0.44922 0.73438-0.0288 0.045-0.0293 0.07609-0.0293 0.12109 0 0.07375-0.0318 0.19445-0.0918 0.31445-0.65875 1.62-2.3666 6.1464-2.7129 6.9102-0.43375 0.97375-0.62891 1.0204-1.3789 1.2754-0.225 0.07375-0.33008 0.21078-0.33008 0.30078 0 0.08875 0.0757 0.14844 0.34571 0.14844 0.22375 0 1.0023-0.07422 1.5586-0.07422 0.55375 0 0.9286 0.04492 1.1836 0.04492 0.195 0 0.41993-0.04406 0.41993-0.19531 0-0.105-0.1493-0.19453-0.4043-0.26953-0.67375-0.21-0.73437-0.46578-0.73437-0.64453-0.00001-0.375 0.38929-1.65 0.77929-2.625 0.03-0.045 0.10406-0.11719 0.16406-0.11719 0.315-0.045 1.6352-0.0625 2.459-0.0625 0.43625 0 0.49476 0.09039 0.50976 0.15039 0.34375 0.96 0.72055 1.9495 0.8418 2.5645 0.0588 0.315 0.11844 0.61367-0.60156 0.76367-0.27 0.045-0.35938 0.16648-0.35938 0.24023 0 0.07625 0.0879 0.17969 0.46289 0.17969 0.375 0 0.58641-0.0293 1.0664-0.0293 0.66 0 1.3949 0.07422 1.8887 0.07422 0.375 0 0.48047-0.08836 0.48047-0.19336s-0.12133-0.18211-0.36133-0.25586c-0.675-0.165-0.9132-0.28492-1.4082-1.5137-0.255-0.615-1.3782-3.5847-2.1582-5.7734-0.285-0.77875-0.54016-1.4544-0.66016-1.8594-0.11875-0.32875-0.18023-0.38867-0.24023-0.38867zm-102.55 0.22461c-0.23875 0-0.43359 0.06039-0.43359 0.18164 0 0.13375 0.16445 0.20891 0.3457 0.25391 0.56875 0.12 0.77859 0.35953 0.80859 0.64453 0.015 0.195 0.0605 1.394 0.0605 3.5527 0 2.5188 0.36047 3.6125 1.1992 4.4062 0.36 0.33 1.3641 0.88477 2.7129 0.88477 0.66 0 1.4694-0.08977 2.1582-0.47852 1.08-0.60125 1.8012-1.9186 1.875-4.5273 0.0312-0.77875 0.11852-2.4441 0.13477-3.0879 0.0288-0.945 0.33086-1.2009 0.97461-1.3809 0.21-0.075 0.33008-0.17883 0.33008-0.26758 0-0.12125-0.13625-0.16602-0.375-0.16602-0.42 0-0.73586 0.0293-1.3496 0.0293-0.48 0-0.89844-0.04492-1.2734-0.04492-0.255 0-0.3457 0.06039-0.3457 0.15039 0 0.105 0.16445 0.23953 0.31445 0.26953 0.84 0.195 0.94524 0.40586 0.99024 0.97461 0.015 0.18125 0.0605 0.95859 0.0605 1.9336 0 1.7088-0.15008 2.9687-0.33008 3.7637-0.375 1.6488-1.8309 2.0977-2.8047 2.0977-0.78 0-1.7538-0.35922-2.1738-0.82422-0.46375-0.525-0.83789-1.1695-0.83789-2.8633 0-2.1288-0.0157-3.6879 0.0605-4.1816 0.0888-0.6 0.37407-0.75047 0.91407-0.85547 0.285-0.06 0.44726-0.16445 0.44726-0.2832 0-0.12125-0.17789-0.16602-0.46289-0.16602-0.33 0-0.89883 0.0293-1.4551 0.0293-0.55375 0-0.91492-0.04492-1.5449-0.04492zm-76.111 0.44726c0.07141 0.0072 0.14289 0.10867 0.22852 0.2793 0.2975 0.4625 1.4113 3.5102 2.4863 6.5664 0.78875 2.2362 1.5575 4.4797 1.9688 5.7109 0.05625 0.17375-0.11563 0.45703-0.17188 0.45703-1.8838 0.1725-6.6245 0.11312-8.9082 0.17188-0.22875 0-0.34336-0.17164-0.28711-0.40039 0.22375-0.86625 1.0474-3.2207 1.9512-5.7207 0.945-2.6125 1.9789-5.3839 2.5039-6.7852 0.08625-0.19938 0.15711-0.28648 0.22852-0.2793zm178.15 1.2793c0.0186 0.0019 0.0361 0.02727 0.0586 0.07227 0.135 0.21 0.91493 2.4596 1.1699 3.2246 0.015 0.04375-0.0299 0.11914-0.0449 0.11914-0.495 0.045-1.7391 0.02867-2.3379 0.04492-0.06 0-0.0892-0.04352-0.0742-0.10352 0.11999-0.465 0.89992-2.5652 1.1699-3.2852 0.0219-0.0525 0.04-0.07414 0.0586-0.07227zm-42.057 0.77734c-0.045 0-0.22656 0.08953-0.22656 0.26953 0 0.36-0.16399 1.0646-0.17774 1.3496 0 0.12 0.0577 0.29883 0.17774 0.29883 0.12 0 0.1657-0.1343 0.3457-0.4043 0.255-0.405 0.465-0.53836 0.75-0.56836 0.31375-0.03 1.2437 0.04484 1.5137 0.08984 0.09 0.015 0.15039 0.14969 0.15039 0.17969 0 1.7388-0.0448 3.2984-0.0898 4.6172-0.03 0.585-0.046 0.76461-0.88477 0.97461-0.195 0.04625-0.41992 0.11828-0.41992 0.23828 0 0.12125 0.165 0.21094 0.375 0.21094 0.37375 0 1.1835-0.07422 1.5723-0.07422 0.72125 0 0.87125 0.05859 1.5 0.05859 0.195 0 0.40625-0.09031 0.40625-0.19531 0-0.10375-0.105-0.19195-0.375-0.25195-0.615-0.165-0.7486-0.22656-0.83985-0.57031-0.0738-0.25625-0.10547-0.75117-0.10547-1.5762 0-1.5288 0-3.191 0.0313-3.416 0.0138-0.075 0.0604-0.21094 0.11914-0.21094 0.48-0.045 1.3198-0.05992 1.6348-0.04492s0.55422 0.05914 0.82422 0.83789c0.045 0.165 0.13523 0.27148 0.24023 0.27148 0.0737 0 0.21094-0.12008 0.21094-0.33008 0-0.16375-0.0769-0.78008-0.0469-1.4551 0-0.17875-0.16461-0.25391-0.22461-0.22266-0.37625 0.23875-0.51133 0.34375-2.2051 0.34375h-1.9629c-1.5738 0-1.8884-0.11953-2.0234-0.23828-0.06-0.06-0.16453-0.18164-0.26953-0.18164zm68.771 0.17969c-0.075 0.000001-0.1346 0.01469-0.25585 0.17969-0.10375 0.135-0.285 0.25492-0.375 0.38867-0.10501 0.105-0.16469 0.19773-0.17969 0.27148-0.03 0.19625-0.15 0.52336-0.34375 0.97461-0.195 0.47875-1.426 3.3884-1.666 3.8672-0.38875 0.72-0.59805 0.84031-1.123 0.97656-0.21001 0.05875-0.35938 0.11828-0.35938 0.23828s0.16383 0.17969 0.29883 0.17969c0.375 0 0.74914-0.07422 1.2441-0.07422 0.39 0 0.7057 0.04492 1.0957 0.04492 0.17875 0 0.34375-0.05969 0.34375-0.17969 0-0.15-0.16437-0.18023-0.32812-0.24023-0.495-0.15-0.58594-0.28469-0.58594-0.58594 0-0.3 0.25437-0.8993 0.35937-1.1543 0.045-0.075 0.1786-0.07484 0.46485-0.08984 0.50875-0.015 1.5452-0.015 1.7402 0 0.27 0.015 0.32938 0.06164 0.35938 0.15039 0.105 0.24125 0.35937 1.0206 0.35937 1.1406 0 0.17875-0.14961 0.41844-0.59961 0.52344-0.255 0.06-0.35937 0.13461-0.35937 0.22461 0 0.105 0.13437 0.21094 0.35937 0.21094 0.48 0 0.73375-0.04492 1.0938-0.04492 0.495 0 1.0508 0.07422 1.7695 0.07422 0.16625 0 0.31446-0.12023 0.31446-0.24023 0-0.07375-0.0894-0.14961-0.35938-0.22461-0.645-0.16375-0.76508-0.28516-1.0801-1.0352-0.375-0.82375-1.6488-4.0478-1.8438-4.6016-0.03-0.06-0.10468-0.28492-0.17968-0.79492-0.015-0.105-0.10407-0.17969-0.16407-0.17969zm23.893 0c-0.075 0-0.1339 0.01469-0.2539 0.17969-0.10375 0.135-0.285 0.25492-0.375 0.38867-0.105 0.105-0.16469 0.19773-0.17969 0.27148-0.03 0.19625-0.15 0.52336-0.34375 0.97461-0.195 0.47875-1.426 3.3884-1.666 3.8672-0.39 0.72-0.59804 0.84031-1.123 0.97656-0.21 0.05875-0.35938 0.11828-0.35938 0.23828s0.16383 0.17969 0.29883 0.17969c0.375 0 0.74914-0.07422 1.2441-0.07422 0.39 0 0.7057 0.04492 1.0957 0.04492 0.17875 0 0.34375-0.05969 0.34375-0.17969 0-0.15-0.16633-0.18023-0.33007-0.24023-0.495-0.15-0.58399-0.28469-0.58399-0.58594 0-0.3 0.25438-0.8993 0.35938-1.1543 0.045-0.075 0.17984-0.07484 0.46484-0.08984 0.50875-0.015 1.5433-0.015 1.7383 0 0.27 0.015 0.33133 0.06164 0.36133 0.15039 0.105 0.24125 0.35937 1.0206 0.35937 1.1406 0 0.17875-0.14961 0.41844-0.59961 0.52344-0.255 0.06-0.36132 0.13461-0.36132 0.22461 0 0.105 0.13632 0.21094 0.36132 0.21094 0.48 0 0.73375-0.04492 1.0938-0.04492 0.495 0 1.0488 0.07422 1.7676 0.07422 0.16625 0 0.31641-0.12023 0.31641-0.24023 0-0.07375-0.0894-0.14961-0.35938-0.22461-0.645-0.16375-0.76507-0.28516-1.0801-1.0352-0.375-0.82375-1.6488-4.0478-1.8438-4.6016-0.03-0.06-0.10469-0.28492-0.17969-0.79492-0.015-0.105-0.10602-0.17969-0.16602-0.17969zm-101.35 0.002c-1.4988 0-2.4316 0.82352-2.4316 1.9473 0 0.9 0.69047 1.4851 1.2305 1.8301 0.33 0.20875 0.73555 0.4175 1.1856 0.6875 0.55375 0.345 0.86914 0.66109 0.86914 1.2461 0 0.50875-0.40539 1.1094-1.2441 1.1094-0.66 0-1.1856-0.36047-1.5606-0.85547-0.12-0.195-0.27-0.51008-0.34375-0.70508-0.06-0.165-0.10398-0.33008-0.24023-0.33008-0.105 0-0.21094 0.12125-0.21094 0.40625 0 0.225 0.12172 0.94375 0.13672 1.125 0.015 0.09 0.0441 0.2382 0.16406 0.31445 0.345 0.255 0.99117 0.46289 1.8887 0.46289 0.66125 0 1.3491-0.25289 1.6641-0.46289 0.43501-0.27 0.9004-0.8393 0.9004-1.5293 0-0.84-0.51063-1.3939-1.1406-1.7539-0.435-0.25625-0.83836-0.4507-1.3184-0.7207-0.50875-0.285-0.92969-0.68797-0.92969-1.1992 0-0.64375 0.50977-1.1699 1.2598-1.1699 0.35875 0 0.70539 0.13578 0.90039 0.30078 0.19375 0.165 0.38781 0.40359 0.50781 0.83984 0.045 0.17875 0.10524 0.35938 0.24024 0.35938 0.045 0 0.16593-0.04383 0.21093-0.33008 0.03-0.19375 0.0156-0.53961 0.0156-0.97461 0-0.165-0.0454-0.34438-0.15039-0.35938-0.42-0.06-0.83977-0.23828-1.6035-0.23828zm31.648 0c-0.75 0-1.7699 0.22312-2.6387 1.0469-0.675 0.63-1.0801 1.5301-1.0801 2.5801 0 1.7975 1.3791 3.6133 3.8516 3.6133 0.375 0 1.5903-0.12164 2.4141-0.90039 0.81-0.735 1.2012-1.5746 1.2012-2.8184 0-1.9638-1.6493-3.5215-3.748-3.5215zm62.354 0c-1.4988 0-2.4297 0.82352-2.4297 1.9473 0 0.9 0.69047 1.4851 1.2305 1.8301 0.33 0.20875 0.73359 0.4175 1.1836 0.6875 0.55375 0.345 0.86914 0.66109 0.86914 1.2461 0 0.50875-0.40539 1.1094-1.2441 1.1094-0.66 0-1.1836-0.36047-1.5586-0.85547-0.11875-0.195-0.27-0.51008-0.34375-0.70508-0.06-0.165-0.10594-0.33008-0.24219-0.33008-0.105 0-0.20898 0.12125-0.20898 0.40625 0 0.225 0.11976 0.94375 0.13476 1.125 0.015 0.09 0.046 0.2382 0.16602 0.31445 0.345 0.255 0.98992 0.46289 1.8887 0.46289 0.66 0 1.3491-0.25289 1.6641-0.46289 0.43375-0.27 0.89844-0.8393 0.89844-1.5293 0-0.84-0.50867-1.3939-1.1387-1.7539-0.435-0.25625-0.83961-0.4507-1.3184-0.7207-0.51-0.285-0.93164-0.68797-0.93164-1.1992 0-0.64375 0.51172-1.1699 1.2617-1.1699 0.35875 0 0.70343 0.13578 0.89843 0.30078 0.19375 0.165 0.38977 0.40359 0.50977 0.83984 0.045 0.17875 0.10398 0.35938 0.24023 0.35938 0.0437 0 0.16399-0.04383 0.20899-0.33008 0.03-0.19375 0.0156-0.53961 0.0156-0.97461 0-0.165-0.0454-0.34438-0.15039-0.35938-0.42-0.06-0.83976-0.23828-1.6035-0.23828zm14.879 0c-1.4988 0-2.4297 0.82352-2.4297 1.9473 0 0.9 0.69046 1.4851 1.2305 1.8301 0.33 0.20875 0.7336 0.4175 1.1836 0.6875 0.55375 0.345 0.86914 0.66109 0.86914 1.2461 0 0.50875-0.40539 1.1094-1.2441 1.1094-0.66 0-1.1836-0.36047-1.5586-0.85547-0.11875-0.195-0.27-0.51008-0.34375-0.70508-0.06-0.165-0.10593-0.33008-0.24218-0.33008-0.105 0-0.20899 0.12125-0.20899 0.40625 0 0.225 0.11977 0.94375 0.13477 1.125 0.015 0.09 0.046 0.2382 0.16601 0.31445 0.345 0.255 0.98922 0.46289 1.8867 0.46289 0.66125 0 1.3523-0.25289 1.666-0.46289 0.435-0.27 0.90039-0.8393 0.90039-1.5293 0-0.84-0.51063-1.3939-1.1406-1.7539-0.435-0.25625-0.84031-0.4507-1.3203-0.7207-0.50875-0.285-0.92773-0.68797-0.92773-1.1992 0-0.64375 0.50976-1.1699 1.2598-1.1699 0.35875 0 0.70539 0.13578 0.90039 0.30078 0.19375 0.165 0.38781 0.40359 0.50781 0.83984 0.045 0.17875 0.10524 0.35938 0.24024 0.35938 0.045 0 0.16398-0.04383 0.20898-0.33008 0.03-0.19375 0.0156-0.53961 0.0156-0.97461 0-0.165-0.0454-0.34438-0.15039-0.35938-0.42-0.06-0.83977-0.23828-1.6035-0.23828zm-137.19 0.14844c-0.32875 0.045-0.98812 0.08984-1.4531 0.08984-0.435 0-1.4855-0.02867-1.6055-0.04492-0.165-0.015-0.20899 0.07602-0.20899 0.13477 0 0.09125 0.0445 0.19516 0.31446 0.28516 0.585 0.165 0.83976 0.35891 0.88476 1.0039 0.015 0.24 0.0156 1.2902 0.0156 2.8652 0 0.49375-0.015 0.95852-0.0312 1.2285-0.0288 0.56875-0.16602 0.73406-0.88477 0.91406-0.135 0.045-0.35937 0.14945-0.35937 0.2832 0 0.105 0.13437 0.16602 0.35937 0.16602 0.285 0 1.0806-0.07422 1.5156-0.07422 0.645 0 1.0488 0.04492 1.4688 0.04492 0.14875 0 0.29883-0.03172 0.29883-0.13672 0-0.13375-0.165-0.25188-0.34375-0.29688-0.705-0.165-0.80985-0.30125-0.83985-1.1562-0.015-0.315-0.0156-1.0786-0.0156-1.9336 0-0.975 0.001-1.7396 0.0312-2.0684 0.03-0.54 0.0898-0.66109 0.80859-0.87109 0.18125-0.03 0.375-0.16258 0.375-0.26758 0-0.07625-0.22508-0.18102-0.33008-0.16602zm35.086 0c-0.33 0.045-0.99008 0.08984-1.4551 0.08984-0.43375 0-1.4855-0.02867-1.6055-0.04492-0.165-0.015-0.20898 0.07602-0.20898 0.13477 0 0.09125 0.0445 0.19516 0.31445 0.28516 0.585 0.165 0.83977 0.35891 0.88477 1.0039 0.015 0.24 0.0156 1.2902 0.0156 2.8652 0 0.49375-0.015 0.95852-0.0312 1.2285-0.0288 0.56875-0.16406 0.73406-0.88281 0.91406-0.135 0.045-0.36133 0.14945-0.36133 0.2832 0 0.105 0.13758 0.16602 0.36133 0.16602 0.285 0 1.0799-0.07422 1.5137-0.07422 0.645 0 1.0488 0.04492 1.4688 0.04492 0.15 0 0.29883-0.03172 0.29883-0.13672 0-0.13375-0.165-0.25188-0.34375-0.29688-0.705-0.165-0.80984-0.30125-0.83984-1.1562-0.015-0.315-0.0156-1.0786-0.0156-1.9336 0-0.975 0-1.7396 0.0312-2.0684 0.0288-0.54 0.0906-0.66109 0.81055-0.87109 0.18-0.03 0.375-0.16258 0.375-0.26758 0-0.07625-0.22508-0.18102-0.33008-0.16602zm-33.6 0.01563c-0.21 0-0.43359 0.02773-0.43359 0.17773 0 0.105 0.19437 0.17961 0.32812 0.22461 0.525 0.12125 0.73602 0.34703 0.91602 0.67578 0.45 0.885 1.5 3.3898 1.8438 4.1836 0.3 0.69 0.52398 1.4542 0.55273 1.5742 0.0312 0.135 0.12156 0.30078 0.22656 0.30078 0.12 0 0.33063-0.2275 0.39063-0.40625 0.075-0.18 0.31516-0.94516 1.0352-2.5352 0.47875-1.0625 0.86914-2.0979 1.2129-2.7129 0.37625-0.705 0.65937-0.9425 1.1406-1.0625 0.20875-0.06125 0.38867-0.12078 0.38867-0.26953 0-0.105-0.16508-0.15039-0.33007-0.15039-0.24 0-0.70352 0.07422-1.2285 0.07422-0.37625 0-0.57086-0.04687-0.97461-0.04687-0.24125 0-0.36133 0.12227-0.36133 0.16602 0 0.09 0.18141 0.19398 0.31641 0.24023 0.6 0.15 0.62804 0.31648 0.40429 0.99023-0.23999 0.68875-1.2294 3.1191-1.4082 3.5391-0.0613 0.165-0.12039 0.08859-0.18164 0.02734-0.17875-0.19375-0.53781-1.1991-0.88281-1.9629-0.315-0.765-0.54008-1.3787-0.73633-1.8574-0.13375-0.34625-0.16383-0.6007 0.41992-0.7207 0.24-0.07375 0.34571-0.15148 0.34571-0.24024 0-0.09-0.0919-0.18164-0.39063-0.18164-0.345 0-0.77976 0.04687-1.2285 0.04687-0.48 0-1.079-0.07422-1.3652-0.07422zm18.959 0c-1.2438 0-1.8295 0.06055-2.1895 0.06055h-0.83789c-0.19625 0-0.375 0.05906-0.375 0.16406 0 0.10375 0.15 0.19453 0.375 0.23828 0.74875 0.12125 0.76297 0.36078 0.79297 0.67578 0.0312 0.36 0.0156 0.73516 0.0156 1.3789 0 1.4088-0.0612 2.7144-0.0762 3.0156-0.03 0.65875-0.13484 0.79078-0.80859 0.95703-0.255 0.06-0.375 0.18148-0.375 0.27148 0 0.105 0.15055 0.17969 0.4043 0.17969 0.46625 0 0.93078-0.10547 1.3945-0.10547 0.375 0 0.68992 0.04492 1.1699 0.04492 0.15-0.000001 0.4043-0.03023 0.4043-0.20898 0-0.12-0.17758-0.19781-0.29883-0.22656-0.38875-0.12125-0.64516-0.18016-0.66016-0.62891-0.0312-0.80875-0.0449-1.6049-0.0449-1.9199 0-0.045 0.0306-0.08914 0.0606-0.11914 0.10375-0.09 0.18023-0.10547 0.24023-0.10547 0.34375 0 0.77906 0.19625 0.91406 0.40625 0.24 0.36 1.0796 1.7078 1.3496 2.0078 0.64375 0.71875 1.1975 0.92969 1.8125 0.92969 0.555 0 0.90039-0.09023 0.90039-0.27148 0-0.13375-0.0458-0.16398-0.26953-0.20898-0.42-0.07375-0.89914-0.44922-1.2441-0.82422-0.615-0.69-1.2137-1.6644-1.5137-2.2344-0.015-0.015 0.0298-0.07484 0.0586-0.08984 0.45125-0.135 1.291-0.60039 1.291-1.6504 0-0.44875-0.16477-0.83859-0.54102-1.1836-0.31375-0.32875-0.97422-0.55273-1.9492-0.55273zm24.723 0c-0.225 0-0.36133 0.08914-0.36133 0.15039 0 0.105 0.10508 0.19195 0.33008 0.25195 0.615 0.165 0.74992 0.34656 1.1699 0.97656 0.33 0.43375 1.2288 1.9777 1.4238 2.4727 0.09 0.24 0.10547 0.25523 0.10547 0.61523 0 0.24-0.0312 1.1532-0.0449 1.4395-0.015 0.25375-0.18094 0.43461-0.96094 0.59961-0.195 0.045-0.29883 0.14898-0.29883 0.20898 0 0.15 0.13563 0.19531 0.39063 0.19531 0.54 0 1.3026-0.07422 1.7226-0.07422 0.57 0 0.55625 0.04492 1.125 0.04492 0.27 0 0.39063-0.09031 0.39063-0.19531 0-0.135-0.17992-0.18023-0.41992-0.24023-0.495-0.12-0.67571-0.25524-0.72071-0.61524-0.0288-0.34375-0.0294-1.2142-0.0156-1.543 0.015-0.345 0.0611-0.43469 0.12109-0.55469 0.3-0.59875 1.0638-1.9034 1.4688-2.3984 0.46375-0.58375 0.58532-0.78164 1.2891-0.90039 0.12-0.015 0.36132-0.10453 0.36132-0.26953 0-0.105-0.22758-0.15039-0.36132-0.15039-0.09 0-0.94485 0.06055-1.1836 0.06055-0.435 0-0.46484-0.04687-0.83984-0.04687-0.225 0-0.35938 0.07727-0.35938 0.16602 0 0.09 0.0445 0.16398 0.31446 0.24023 0.435 0.13375 0.48007 0.21102 0.33007 0.50977-0.225 0.495-1.2453 2.2634-1.3203 2.3984-0.015 0.03-0.11969 0.045-0.14844 0-0.48-0.855-1.1398-2.0092-1.2598-2.3242-0.105-0.24-0.13422-0.44969 0.30078-0.55469 0.18-0.04375 0.33008-0.14828 0.33008-0.26953 0-0.08875-0.16641-0.16602-0.34766-0.16602-0.31375 0-0.53883 0.04687-1.0488 0.04687-0.45 0-1.1824-0.07422-1.4824-0.07422zm43.361 0c-1.2438 0-1.8282 0.06055-2.1894 0.06055h-0.83985c-0.19625 0-0.375 0.05906-0.375 0.16406 0 0.10375 0.15 0.19453 0.375 0.23828 0.74875 0.12125 0.76492 0.36078 0.79492 0.67578 0.0312 0.36 0.0156 0.73516 0.0156 1.3789 0 1.4088-0.0612 2.7144-0.0762 3.0156-0.03 0.65875-0.13485 0.79078-0.8086 0.95703-0.255 0.06-0.375 0.18148-0.375 0.27148 0 0.105 0.15055 0.17969 0.4043 0.17969 0.46625 0 0.93078-0.10547 1.3945-0.10547 0.37375 0 0.68797 0.04492 1.168 0.04492 0.15-0.000001 0.40625-0.03023 0.40625-0.20898 0-0.12-0.17953-0.19781-0.30078-0.22656-0.38875-0.12125-0.6432-0.18016-0.6582-0.62891-0.0312-0.80875-0.0449-1.6049-0.0449-1.9199 0-0.045 0.0306-0.08914 0.0606-0.11914 0.105-0.09 0.17828-0.10547 0.23828-0.10547 0.34375 0 0.77906 0.19625 0.91407 0.40625 0.24 0.36 1.0816 1.7078 1.3516 2.0078 0.64375 0.71875 1.1975 0.92969 1.8125 0.92969 0.555 0 0.89844-0.09023 0.89844-0.27148-0.00001-0.13375-0.0438-0.16398-0.26758-0.20898-0.42-0.07375-0.9011-0.44922-1.2461-0.82422-0.615-0.69-1.2137-1.6644-1.5137-2.2344-0.015-0.015 0.0298-0.07484 0.0586-0.08984 0.45125-0.135 1.291-0.60039 1.291-1.6504 0-0.44875-0.16477-0.83859-0.54102-1.1836-0.31375-0.32875-0.97226-0.55273-1.9473-0.55273zm11.863 0c-0.105 0-0.97602 0.10352-1.6348 0.10352h-0.88477c-0.15 0-0.34375 0.04602-0.34375 0.16602 0 0.13375 0.0737 0.19391 0.38867 0.28516 0.225 0.05875 0.36086 0.17938 0.25586 0.32812-0.21 0.315-1.0946 1.1546-1.7246 1.7246-0.38875 0.33-0.7043 0.54102-0.7793 0.54102s-0.11914-0.11961-0.11914-0.22461c0-0.555 0.0149-1.3205 0.0449-1.9043 0.015-0.33 0.13382-0.43539 0.64257-0.55664 0.18125-0.04375 0.375-0.13391 0.375-0.25391 0-0.09-0.17867-0.17969-0.38867-0.17969-0.42 0-0.62945 0.04492-1.0644 0.04492-0.855 0-0.85438-0.06055-1.4531-0.06055-0.225 0-0.40625 0.07539-0.40625 0.15039 0.015 0.12 0.10493 0.21008 0.41993 0.29883 0.57 0.15 0.63078 0.34703 0.67578 0.67578 0.0288 0.24125 0.0293 0.73344 0.0293 1.6484 0 0.85375-0.0161 2.2938-0.0898 2.8926-0.06 0.42-0.28555 0.66-0.81055 0.75-0.25375 0.045-0.43359 0.13516-0.43359 0.28516 0 0.135 0.22492 0.19531 0.41992 0.19531 0.315 0 0.9725-0.07422 1.4375-0.07422 0.36 0 0.89985 0.04492 1.2148 0.04492 0.32875 0 0.38868-0.12031 0.38868-0.19531 0-0.135-0.13313-0.21086-0.32813-0.25586-0.525-0.135-0.69008-0.28445-0.70508-0.68945-0.015-0.645 0.0312-1.8877 0.0312-2.0527 0-0.11875 0.0299-0.21094 0.0899-0.21094 0.09 0 0.1489 0.05969 0.2539 0.17969 0.525 0.615 1.7834 1.9505 2.0234 2.2793 0.21 0.27 0.165 0.39047 0 0.48047-0.225 0.09-0.33008 0.18016-0.33008 0.25391 0 0.105 0.13571 0.17969 0.34571 0.17969 0.18 0 0.34437-0.0293 0.73437-0.0293 0.38875 0 1.7085 0.08984 1.9785 0.08984 0.17875 0 0.41992-0.05898 0.41992-0.20898 0-0.09-0.15117-0.19586-0.41992-0.25586-0.9-0.16375-1.1238-0.44922-1.8125-1.168-0.57125-0.585-1.4554-1.575-1.9941-2.2188-0.0763-0.09125-0.0756-0.21156-0.0156-0.25781 0.70625-0.68875 1.7685-1.6036 2.3535-1.9023 0.36-0.18125 0.65945-0.39109 1.0644-0.46484 0.405-0.07625 0.49609-0.16516 0.49609-0.28516 0-0.15-0.2107-0.14844-0.3457-0.14844zm-112.71 0.01367c-0.195 0-0.375 0.09039-0.375 0.15039 0 0.12 0.12063 0.19328 0.39063 0.23828 0.315 0.06 0.47953 0.13719 0.61328 0.24219 0.3 0.225 0.52476 0.59875 0.54101 0.71875 0.0138 0.12125 0.0293 0.52547 0.0293 1.2305 0 1.3188-0.0891 2.7285-0.11914 3.1035-0.045 0.375-0.13672 0.64226-0.85547 0.82226-0.285 0.07625-0.3457 0.13594-0.3457 0.21094 0 0.15 0.16437 0.19531 0.35937 0.19531 0.33 0 0.96094-0.08984 1.3359-0.08984 0.42 0 0.88469 0.04492 0.92969 0.04492 0.13375-0.000001 0.34375-0.04531 0.34375-0.19531 0-0.105-0.10383-0.16461-0.26758-0.22461-0.45-0.15-0.7968-0.35984-0.8418-0.83984-0.075-0.98875 0.00063-3.1638 0.0156-3.6738 0-0.105 0.10476-0.10359 0.13476-0.05859 0.885 0.93 1.9343 2.2188 2.623 2.9688 0.82625 0.88375 1.4091 1.6785 1.6641 1.9785 0.12 0.105 0.34618 0.22461 0.45118 0.22461 0.13375 0 0.19531-0.1643 0.19531-0.4043 0-0.105-0.0449-1.0968-0.0449-1.9355 0-0.87 0.0728-2.7874 0.13281-3.3574 0.06-0.585 0.18062-0.77836 0.76562-0.94336 0.23875-0.09 0.31641-0.13523 0.31641-0.24023s-0.16766-0.16602-0.31641-0.16602c-0.375 0-0.74882 0.06055-1.0488 0.06055-0.375 0-0.7654-0.06055-1.2754-0.06055-0.045 0-0.35937 0.001-0.35937 0.16602 0 0.135 0.1957 0.19523 0.31445 0.24023 0.72 0.165 0.88469 0.40289 0.92969 0.83789 0.075 0.72 0.001 2.686-0.0137 3.5098 0 0.09-0.0905 0.07359-0.10547 0.05859-0.765-0.81-2.7141-2.923-3.1191-3.3867-0.38875-0.45125-0.72016-0.77938-1.0039-1.1406-0.105-0.13375-0.18078-0.19531-0.30078-0.19531-0.345 0-1.3496-0.08984-1.6934-0.08984zm22.635 0c-0.23875 0-0.4043 0.06102-0.4043 0.16602 0 0.135 0.17938 0.20891 0.35938 0.25391 0.63 0.15 0.71812 0.36078 0.73437 0.67578 0.03 0.64375 0.0312 1.4096 0.0312 2.0996 0 0.97375-0.0169 1.9466-0.0469 2.3516-0.0437 0.525-0.0734 0.70539-0.91211 0.90039-0.16625 0.045-0.34571 0.11891-0.34571 0.25391 0 0.15 0.25493 0.19531 0.45118 0.19531 0.35875 0 0.86695-0.07422 1.3457-0.07422 2.0538 0 2.0392 0.07422 3.4492 0.07422 0.33 0 0.41851-0.02977 0.47851-0.13476 0.105-0.15 0.40625-1.0791 0.40625-1.3203 0-0.07375-0.00039-0.32812-0.15039-0.32812-0.09 0-0.17953 0.10578-0.30078 0.30078-0.43375 0.67375-0.61312 0.74906-1.0781 0.88281-0.19375 0.06-0.61469 0.08984-0.96094 0.08984-0.345 0-0.80844-0.10406-0.89844-0.16406-0.06-0.03-0.23891-0.18023-0.25391-0.24023-0.09-0.35875-0.0762-1.8745-0.0312-2.1445 0.03-0.105 0.10539-0.20898 0.15039-0.20898 0.24-0.02875 1.1247-0.0014 1.3047 0.05859 0.13625 0.06 0.19508 0.19609 0.33008 0.49609 0.075 0.18 0.15024 0.29883 0.24024 0.29883 0.12 0 0.20898-0.08992 0.20898-0.41992 0-0.315-0.0449-0.35867-0.0449-0.79492 0-0.38875 0.0449-0.58445 0.0449-0.68945 0-0.19375-0.016-0.34375-0.13477-0.34375-0.105 0-0.21015 0.16578-0.28515 0.30078-0.21 0.50875-0.28274 0.58398-0.92774 0.58398-0.135 0-0.46507 0.000703-0.70507-0.0293-0.12-0.03125-0.18164-0.10469-0.18164-0.17969-0.03-0.465-0.015-1.9801 0.0312-2.2051 0.015-0.05875 0.0748-0.19531 0.13477-0.19531 1.1088 0 1.2744 0.0443 1.4844 0.06055 0.46375 0.06 0.64406 0.25484 0.91406 0.80859 0.12 0.24 0.23945 0.30078 0.31445 0.30078 0.045 0 0.15039-0.08953 0.15039-0.26953 0-0.20875-0.10547-0.84039-0.10547-1.2754 0-0.06125-0.0884-0.14977-0.17968-0.13477-0.35875 0.07375-0.42133 0.06055-3.2988 0.06055-0.56875 0-1.0484-0.06055-1.3184-0.06055zm55.213 0c-0.21 0-0.34375 0.09039-0.34375 0.15039 0 0.12 0.0599 0.19391 0.41992 0.28516 0.585 0.135 0.74867 0.45086 0.76367 0.59961 0.015 0.18125 0.0469 1.1541 0.0469 1.6191 0 1.3938-0.0306 2.788-0.0606 3.0117-0.075 0.54-0.16492 0.64625-0.76367 0.78125-0.255 0.06-0.40625 0.19383-0.40625 0.29883s0.20992 0.15039 0.41992 0.15039c0.435 0 0.77984-0.07422 1.2148-0.07422 0.48 0 1.3044 0.05859 1.4844 0.05859s0.38867-0.04469 0.38867-0.17969c0-0.09-0.0751-0.17891-0.33008-0.25391-0.58375-0.15-0.74742-0.31578-0.76367-0.64453-0.0288-0.57125-0.0293-1.3643-0.0293-1.9043 0-0.09 0.0455-0.21094 0.10547-0.21094 0.585 0 1.0772 0.03117 1.2422 0.07617 0.225 0.06 0.38922 0.27031 0.48047 0.53906 0.0737 0.18 0.16461 0.33008 0.25586 0.33008 0.17875 0.000001 0.22273-0.2257 0.20898-0.3457-0.0312-0.24-0.0449-0.56844-0.0449-0.89844 0-0.3 0.0293-0.56922 0.0293-0.82422 0-0.165-0.0747-0.28516-0.17969-0.28516-0.0737 0-0.17961 0.16516-0.22461 0.28516-0.12 0.28375-0.1939 0.55531-0.6289 0.57031-0.64501 0.01375-1.0213 0.05992-1.1563 0.04492-0.015-0.000001-0.0879-0.07602-0.0879-0.13477 0-0.825 0.0143-1.6799 0.0293-2.2949 0-0.09125 0.12024-0.24023 0.20899-0.24023 0.885 0 1.4984 0.04422 1.6797 0.10547 0.19375 0.06 0.38961 0.14875 0.59961 0.71875 0.105 0.285 0.17953 0.375 0.26953 0.375 0.105 0 0.21094-0.08992 0.21094-0.41992 0-0.29875-0.0312-0.71812-0.0312-1.1094 0-0.04375-0.10406-0.16344-0.16406-0.14844-0.18 0.06-2.7743 0.0293-3.373 0.0293-0.54 0-1.0657-0.06055-1.4707-0.06055zm44.744 0c-0.19375 0-0.375 0.09039-0.375 0.15039 0 0.12 0.12062 0.19328 0.39062 0.23828 0.315 0.06 0.48024 0.13719 0.61524 0.24219 0.3 0.225 0.52531 0.59875 0.53906 0.71875 0.0163 0.12125 0.0312 0.52547 0.0312 1.2305 0 1.3188-0.0911 2.7285-0.12109 3.1035-0.045 0.375-0.13477 0.64226-0.85352 0.82226-0.28625 0.07625-0.3457 0.13594-0.3457 0.21094 0 0.15 0.16437 0.19531 0.35937 0.19531 0.33 0 0.96094-0.08984 1.3359-0.08984 0.42 0 0.88274 0.04492 0.92774 0.04492 0.135 0 0.3457-0.04531 0.3457-0.19531 0-0.105-0.10649-0.16461-0.27149-0.22461-0.45-0.15-0.79289-0.35984-0.83789-0.83984-0.075-0.98875-0.00007-3.1638 0.0137-3.6738 0-0.105 0.10546-0.10359 0.13671-0.05859 0.88375 0.93 1.9343 2.2188 2.623 2.9688 0.825 0.88375 1.4071 1.6785 1.6621 1.9785 0.12 0.105 0.34617 0.22461 0.45117 0.22461 0.13375 0 0.19531-0.1643 0.19531-0.4043 0.00001-0.105-0.0449-1.0968-0.0449-1.9355 0-0.87 0.0748-2.7874 0.13477-3.3574 0.06-0.585 0.17867-0.77836 0.76367-0.94336 0.24-0.09 0.31641-0.13523 0.31641-0.24023s-0.16641-0.16602-0.31641-0.16602c-0.375 0-0.75008 0.06055-1.0488 0.06055-0.375 0-0.76469-0.06055-1.2734-0.06055-0.045 0-0.36133 0.001-0.36133 0.16602 0 0.135 0.1964 0.19523 0.3164 0.24023 0.71875 0.165 0.88399 0.40289 0.92774 0.83789 0.0763 0.72-0.00063 2.686-0.0156 3.5098 0 0.09-0.0885 0.07359-0.10351 0.05859-0.76375-0.81-2.7141-2.923-3.1191-3.3867-0.39-0.45125-0.71821-0.77938-1.002-1.1406-0.105-0.13375-0.18273-0.19531-0.30273-0.19531-0.34375 0-1.3484-0.08984-1.6934-0.08984zm-50.506 0.25586c1.92 0 2.5801 2.2941 2.5801 3.1641 0 0.91375-0.18024 1.8422-0.58399 2.3672-0.57 0.71875-1.2755 0.82422-1.6367 0.82422-1.0038 0-2.5332-1.1988-2.5332-3.3125 0-1.275 0.35938-1.9635 0.73438-2.3535 0.435-0.495 1.0807-0.68945 1.4394-0.68945zm-39.822 0.16406c1.3038 0 1.7832 0.82508 1.7832 1.4551 0 0.59875-0.40391 0.99055-0.62891 1.1543-0.19375 0.135-0.96039 0.25391-1.6191 0.25391-0.09 0-0.15039-0.07531-0.15039-0.16406 0-0.13625 0.0449-2.2348 0.0449-2.3848 0-0.11875 0.0741-0.21023 0.15039-0.24023 0.105-0.045 0.26992-0.07422 0.41992-0.07422zm68.084 0c1.3038 0 1.7832 0.82508 1.7832 1.4551 0 0.59875-0.40586 0.99055-0.63086 1.1543-0.19375 0.135-0.95844 0.25391-1.6172 0.25391-0.09 0-0.1504-0.07531-0.1504-0.16406 0-0.13625 0.0449-2.2348 0.0449-2.3848 0-0.11875 0.0741-0.21023 0.15039-0.24023 0.105-0.045 0.26992-0.07422 0.41992-0.07422zm17.17 1.209c0.0336 0.0094 0.0625 0.02766 0.0625 0.03516 0.075 0.18125 0.58547 1.4707 0.85547 2.1895 0.03 0.07625-0.0605 0.15039-0.10547 0.15039-0.23875 0.045-1.4246 0.02992-1.6934 0.01367-0.06 0-0.10547-0.08852-0.10547-0.13477 0.225-0.615 0.62844-1.5444 0.89844-2.2344 0.0156-0.03 0.0543-0.02891 0.0879-0.01953zm23.895 0c0.0336 0.0094 0.0625 0.02766 0.0625 0.03516 0.075 0.18125 0.58547 1.4707 0.85547 2.1895 0.03 0.07625-0.0605 0.15039-0.10547 0.15039-0.23875 0.045-1.4246 0.02992-1.6934 0.01367-0.06 0-0.10547-0.08852-0.10547-0.13477 0.225-0.615 0.62844-1.5444 0.89844-2.2344 0.0156-0.03 0.0543-0.02891 0.0879-0.01953zm-113.27 10.283c-1.05 0-1.755 0.31438-2.2188 0.73438-0.51 0.45-0.82421 1.1251-0.82421 1.8301 0 1.275 0.90007 2.1438 2.1738 2.9688 1.575 1.005 1.873 1.6786 1.873 2.3086 0 1.0788-0.7775 1.8125-1.8125 1.8125-0.56875 0-1.5592-0.37547-1.9492-1.1992-0.21-0.465-0.43469-0.85352-0.55469-0.85352-0.0613 0-0.20898 0.22516-0.20898 0.28516 0 0.24 0.14836 0.8982 0.22461 1.4082 0 0.06125 0.195 0.39047 0.34375 0.48047 0.465 0.225 1.4829 0.38867 1.9629 0.38867 0.675 0 1.5591-0.22406 2.0391-0.53906 0.81-0.52375 1.2285-1.3633 1.2285-2.1133 0-1.3488-0.91336-2.1302-2.0684-2.9102-1.3175-0.88375-2.084-1.3471-2.084-2.4121 0-1.0038 0.72157-1.7539 1.7266-1.7539 0.435 0 0.79445 0.13375 1.0644 0.34375 0.15 0.09 0.55312 0.54133 0.73438 1.0801 0.0588 0.21125 0.23937 0.31445 0.35937 0.31445 0.105-0.000001 0.10547-0.15125 0.10547-0.40625 0-0.06-0.12039-0.92789-0.15039-1.2129 0-0.03-0.0897-0.25516-0.17969-0.28516-0.27-0.045-1.0514-0.26953-1.7852-0.26953zm-38.789 0.22461c-0.23875 0-0.41992 0.05969-0.41992 0.17969 0 0.105 0.0762 0.18086 0.375 0.25586 0.66125 0.165 0.91656 0.41969 0.94531 0.92969 0.0312 0.38875 0.0312 1.2729 0.0312 2.6816 0 2.9688-0.0754 4.0792-0.11914 4.543-0.0162 0.195-0.0462 0.54062-0.85742 0.73438-0.23875 0.06-0.4043 0.18078-0.4043 0.30078 0 0.09 0.12188 0.15039 0.42188 0.15039 0.315 0 1.1832-0.08984 1.7832-0.08984 0.57 0 1.0351 0.04492 1.4238 0.04492 0.285 0 0.41992-0.08969 0.41992-0.17969 0-0.135-0.13633-0.24016-0.36133-0.28516-0.97375-0.18-1.0038-0.48031-1.0176-0.94531-0.015-0.43375-0.0755-2.5334-0.0605-2.8184 0.015-0.06125 0.0748-0.17969 0.12109-0.17969 0.315-0.045 1.0334-0.04492 1.3184-0.04492 0.3 0.000001 0.83891 0.04617 1.0039 0.07617 0.285 0.075 0.46523 0.15 0.61523 0.71875 0.06 0.21 0.14961 0.31445 0.22461 0.31445 0.15 0 0.22656-0.17875 0.22656-0.34375 0-0.33125-0.0312-0.46555-0.0312-1.1855 0-0.27 0.0742-0.74961 0.0742-0.94336 0-0.18125-0.0298-0.33008-0.13476-0.33008-0.135 0-0.19446 0.14938-0.28321 0.35938-0.21 0.51-0.3475 0.64445-0.8125 0.68945-0.35875 0.03-1.5712 0.01563-2.1562 0.01563-0.075 0-0.15039-0.15039-0.15039-0.55664 0-0.98875 0.0299-2.9525 0.0586-3.3125 0-0.045 0.0902-0.17836 0.24023-0.19336 0.315-0.03 1.8155-0.0457 2.3242 0.0293 0.49625 0.075 0.65969 0.21031 0.89844 0.94531 0.09 0.29875 0.21008 0.46289 0.33008 0.46289 0.135 0 0.22593-0.20859 0.21093-0.40234-0.015-0.51-0.0749-1.0357-0.0449-1.4707 0-0.09-0.10469-0.16539-0.17969-0.15039-0.12 0-1.5004 0.04492-2.4004 0.04492h-1.9473c-0.465 0-1.0048-0.04492-1.666-0.04492zm24.393 2.5039c-0.045 0-0.22656 0.08953-0.22656 0.26953 0 0.36-0.16469 1.0646-0.17969 1.3496 0 0.12 0.0597 0.29883 0.17969 0.29883 0.12125 0 0.16695-0.1343 0.3457-0.4043 0.25625-0.405 0.465-0.53836 0.75-0.56836 0.315-0.03 1.2424 0.04484 1.5137 0.08984 0.0888 0.015 0.14844 0.14969 0.14844 0.17969 0 1.7388-0.0436 3.2984-0.0898 4.6172-0.03 0.585-0.0428 0.76461-0.88282 0.97461-0.195 0.04625-0.41992 0.11828-0.41992 0.23828 0 0.12125 0.165 0.21094 0.375 0.21094 0.37375 0 1.1848-0.07422 1.5723-0.07422 0.72125 0 0.87195 0.05859 1.502 0.05859 0.19375 0 0.40234-0.09031 0.40234-0.19531 0-0.10375-0.10429-0.19195-0.37304-0.25195-0.615-0.165-0.74985-0.22656-0.83985-0.57031-0.075-0.25625-0.10546-0.75117-0.10546-1.5762-0.00001-1.5288-0.00071-3.191 0.0293-3.416 0.0138-0.075 0.0604-0.21094 0.11914-0.21094 0.48125-0.045 1.3198-0.05992 1.6348-0.04492s0.55547 0.05914 0.82422 0.83789c0.0462 0.165 0.13718 0.27148 0.24218 0.27148 0.0737 0 0.20899-0.12008 0.20899-0.33008 0-0.16375-0.0737-0.78008-0.0449-1.4551 0-0.17875-0.16461-0.25391-0.22461-0.22266-0.375 0.23875-0.51133 0.34375-2.2051 0.34375h-1.9629c-1.575 0-1.8897-0.11953-2.0234-0.23828-0.0613-0.06-0.16453-0.18164-0.26953-0.18164zm33.838 0c-0.045 0-0.22461 0.08953-0.22461 0.26953 0 0.36-0.16664 1.0646-0.18164 1.3496 0 0.12 0.0616 0.29883 0.18164 0.29883 0.12 0 0.16375-0.1343 0.34375-0.4043 0.25375-0.405 0.46375-0.53836 0.75-0.56836 0.31375-0.03 1.2437 0.04484 1.5137 0.08984 0.09 0.015 0.15039 0.14969 0.15039 0.17969 0 1.7388-0.0448 3.2984-0.0898 4.6172-0.03 0.585-0.0441 0.76461-0.88281 0.97461-0.19625 0.04625-0.42188 0.11828-0.42188 0.23828 0 0.12125 0.165 0.21094 0.375 0.21094 0.37375 0 1.1855-0.07422 1.5742-0.07422 0.72125 0 0.87125 0.05859 1.5 0.05859 0.195 0 0.4043-0.09031 0.4043-0.19531 0-0.10375-0.105-0.19195-0.375-0.25195-0.615-0.165-0.74985-0.22656-0.83985-0.57031-0.0737-0.25625-0.10546-0.75117-0.10546-1.5762 0-1.5288 0-3.191 0.0312-3.416 0.0137-0.075 0.0591-0.21094 0.11914-0.21094 0.48-0.045 1.3198-0.05992 1.6348-0.04492s0.55422 0.05914 0.82422 0.83789c0.045 0.165 0.13524 0.27148 0.24024 0.27148 0.075 0 0.20898-0.12008 0.20898-0.33008 0-0.16375-0.0749-0.78008-0.0449-1.4551 0-0.17875-0.16391-0.25391-0.22266-0.22266-0.37625 0.23875-0.51133 0.34375-2.2051 0.34375h-1.9648c-1.5738 0-1.8891-0.11953-2.0254-0.23828-0.0588-0.06-0.16258-0.18164-0.26758-0.18164zm-47.057 0.18164c-0.75 0-1.7687 0.22312-2.6387 1.0469-0.67375 0.63-1.0781 1.5301-1.0781 2.5801 0 1.7975 1.3791 3.6133 3.8516 3.6133 0.375 0 1.5903-0.12164 2.4141-0.90039 0.80875-0.735 1.2012-1.5746 1.2012-2.8184 0-1.9638-1.65-3.5215-3.75-3.5215zm45.15 0.14844c-0.33 0.045-0.99008 0.08984-1.4551 0.08984-0.43375 0-1.4835-0.02867-1.6035-0.04492-0.165-0.015-0.21094 0.07602-0.21094 0.13477 0 0.09125 0.0444 0.19516 0.31445 0.28516 0.585 0.165 0.84172 0.35891 0.88672 1.0039 0.015 0.24 0.0137 1.2902 0.0137 2.8652 0 0.49375-0.015 0.95852-0.0312 1.2285-0.0288 0.56875-0.16406 0.73406-0.88281 0.91406-0.135 0.045-0.36133 0.14945-0.36133 0.2832 0 0.105 0.13758 0.16602 0.36133 0.16602 0.285 0 1.0799-0.07422 1.5137-0.07422 0.645 0 1.0488 0.04492 1.4688 0.04492 0.15-0.000001 0.29883-0.03172 0.29883-0.13672 0-0.13375-0.165-0.25188-0.34375-0.29688-0.705-0.165-0.80984-0.30125-0.83984-1.1562-0.015-0.315-0.0137-1.0786-0.0137-1.9336-0.00001-0.975-0.00001-1.7396 0.0312-2.0684 0.0287-0.54 0.0886-0.66109 0.8086-0.87109 0.18-0.03 0.375-0.16258 0.375-0.26758 0-0.07625-0.22508-0.18102-0.33008-0.16602zm-36.449 0.01563c-1.245 0-1.8294 0.06055-2.1894 0.06055h-0.83789c-0.19625 0-0.375 0.05906-0.375 0.16406 0 0.10375 0.15 0.19453 0.375 0.23828 0.74875 0.12125 0.76297 0.36078 0.79297 0.67578 0.03 0.36 0.0156 0.73516 0.0156 1.3789 0 1.4088-0.0612 2.7144-0.0762 3.0156-0.03 0.65875-0.13359 0.79078-0.80859 0.95703-0.25375 0.06-0.375 0.18148-0.375 0.27148 0 0.105 0.14929 0.17969 0.40429 0.17969 0.46625 0 0.92953-0.10547 1.3945-0.10547 0.375 0 0.68993 0.04492 1.1699 0.04492 0.15 0 0.40429-0.03023 0.40429-0.20898 0-0.12-0.18078-0.19781-0.30078-0.22656-0.38875-0.12125-0.6432-0.18016-0.6582-0.62891-0.0312-0.80875-0.0449-1.6049-0.0449-1.9199 0-0.045 0.0293-0.08914 0.0605-0.11914 0.105-0.09 0.17899-0.10547 0.24024-0.10547 0.34375 0 0.77906 0.19625 0.91406 0.40625 0.24 0.36 1.0789 1.7078 1.3477 2.0078 0.645 0.71875 1.1982 0.92969 1.8144 0.92969 0.55375 0 0.90039-0.09023 0.90039-0.27148 0-0.13375-0.0458-0.16398-0.26953-0.20898-0.42-0.07375-0.89984-0.44922-1.2461-0.82422-0.61375-0.69-1.2117-1.6644-1.5117-2.2344-0.015-0.015 0.0298-0.07484 0.0586-0.08984 0.45125-0.135 1.2891-0.60039 1.2891-1.6504 0-0.44875-0.16406-0.83859-0.53906-1.1836-0.315-0.32875-0.97422-0.55273-1.9492-0.55273zm23.057 0c-0.28625 0-0.375 0.08914-0.375 0.15039 0 0.105 0.0599 0.16453 0.41992 0.26953 0.73375 0.17875 0.86719 0.38922 0.86719 0.82422 0 0.315-0.22304 3.1173-0.40429 4.1973-0.10501 0.61375-0.32969 0.88516-0.89844 1.0352-0.225 0.06-0.40625 0.13328-0.40625 0.23828 0 0.12 0.1507 0.19531 0.3457 0.19531 0.18 0 1.0953-0.07422 1.2891-0.07422 0.3 0 0.70586 0.06055 1.0059 0.06055 0.22375 0 0.37305-0.06094 0.37305-0.21094 0-0.105-0.1782-0.19461-0.31445-0.22461-0.6275-0.15-0.69008-0.495-0.70508-0.75-0.0288-0.80875 0.0161-2.8317 0.12109-3.7617 0.03-0.03 0.10539-0.13625 0.15039-0.03125 0.51 1.1238 1.4088 2.8622 1.7676 3.8672 0.3 0.825 0.47961 1.1113 0.59961 1.1113s0.28563-0.18125 0.35938-0.40625c0.27-0.79375 1.1408-2.4578 2.1445-4.6016 0.0438-0.06 0.14843-0.09008 0.14843 0.01367 0 1.2312-0.0123 3.1788-0.0273 3.6738-0.015 0.465-0.23969 0.71922-0.55469 0.82422-0.31375 0.105-0.40625 0.14953-0.40625 0.26953s0.13625 0.21094 0.40625 0.21094c0.42 0 0.67367-0.04492 1.1074-0.04492 0.40625 0 0.90071 0.07422 1.4707 0.07422 0.15 0 0.43554-0.04531 0.43554-0.19531 0-0.12-0.12054-0.19328-0.43554-0.23828-0.69-0.105-0.82539-0.38984-0.86914-1.2148-0.0613-0.97375-0.0899-2.2956-0.0899-4.1094 0-0.24 0.16352-0.61242 0.85352-0.73242 0.39-0.07625 0.50976-0.16586 0.50976-0.25586 0-0.12-0.16445-0.16406-0.31445-0.16406-0.645 0-1.0044 0.08789-1.8594 0.08789-0.045 0-0.14907 0.08976-0.16407 0.16602-0.075 0.285-0.18 0.61391-0.375 1.0039-0.225 0.48-1.6338 3.3302-1.8301 3.6289-0.045 0.06125-0.13414 0.10492-0.15039 0.04492-0.37376-0.69-1.4545-2.8034-1.7832-3.5684-0.225-0.50875-0.34625-0.8832-0.40625-1.0645 0-0.015-0.13336-0.21094-0.19336-0.21094-0.87 0-1.5588-0.08789-1.8125-0.08789zm31.406 0.01367c-0.405 0.03125-0.99015 0.06055-1.4102 0.06055-0.59875 0-0.75125-0.04492-1.125-0.04492-0.345 0-0.375 0.07609-0.375 0.12109 0 0.13375 0.09 0.22383 0.375 0.29883 0.38875 0.12 0.47914 0.25391 0.49414 0.62891 0.0162 0.42 0.045 1.1554 0.0312 1.6191-0.015 0.375-0.0909 0.40625-0.17969 0.40625-0.22625 0-1.1694-0.01563-1.8144-0.01563h-1.5449c-0.075 0-0.13476-0.12102-0.13476-0.16602-0.015-1.035-0.015-1.6779 0.0312-1.9629 0.0288-0.24 0.23867-0.35976 0.73242-0.50976 0.24125-0.075 0.33008-0.13328 0.33008-0.23828 0-0.12125-0.12008-0.18164-0.33008-0.18164-0.40375 0-0.86766 0.04492-1.3477 0.04492-0.49375 0-0.91406-0.04492-1.2891-0.04492-0.24 0-0.375 0.09039-0.375 0.15039 0 0.12 0.10438 0.19453 0.35938 0.26953 0.555 0.15 0.64508 0.37445 0.67383 0.68945 0.0463 0.405 0.0469 1.2298 0.0469 2.7148 0 0.72-0.0155 1.5735-0.0606 1.9785-0.06 0.38875-0.26914 0.46391-0.86914 0.62891-0.195 0.05875-0.3164 0.10586-0.3164 0.22461 0 0.105 0.12062 0.19531 0.39062 0.19531 0.42 0 0.62992-0.04492 1.1699-0.04492 0.465 0 0.79313 0.04492 1.4531 0.04492 0.26875 0 0.3457-0.09023 0.3457-0.20898 0-0.075-0.12203-0.15219-0.30078-0.21094-0.465-0.18-0.58391-0.22367-0.62891-0.76367-0.045-0.51-0.0756-1.5001-0.0156-1.7988 0.015-0.06 0.0747-0.13664 0.17969-0.15039 0.255-0.045 3.105-0.0607 3.3438 0.0293 0.13625 0.03 0.13539 0.04336 0.15039 0.19336 0.0137 0.165 0.0137 1.6043-0.0312 1.9355-0.0288 0.29875-0.19383 0.37602-0.67383 0.54102-0.24 0.06-0.35938 0.14953-0.35938 0.23828 0 0.165 0.1186 0.19531 0.40235 0.19531 0.42 0 0.82609-0.04492 1.2461-0.04492 0.915 0 1.0794 0.05859 1.4844 0.05859 0.13375 0 0.23828-0.05906 0.23828-0.13281 0-0.07625-0.045-0.21078-0.375-0.30078-0.62875-0.19625-0.77735-0.34617-0.77735-1.5137v-0.94531c0-0.81 0.0436-2.5038 0.0586-2.9238 0.03-0.405 0.1964-0.47953 0.6914-0.64453 0.23875-0.075 0.34375-0.19383 0.34375-0.29883s-0.10453-0.13484-0.23828-0.12109zm-63.344 0.25586c1.9188 0 2.5781 2.2941 2.5781 3.1641 0 0.91375-0.17899 1.8422-0.58399 2.3672-0.56875 0.71875-1.2748 0.82422-1.6348 0.82422-1.0038 0-2.5332-1.1988-2.5332-3.3125 0-1.275 0.35938-1.9635 0.73438-2.3535 0.435-0.495 1.0794-0.68945 1.4394-0.68945zm8.3848 0.16406c1.305 0 1.7852 0.82508 1.7852 1.4551 0 0.59875-0.40515 0.99055-0.6289 1.1543-0.19625 0.135-0.96039 0.25391-1.6191 0.25391-0.09 0-0.15039-0.07531-0.15039-0.16406 0-0.13625 0.0449-2.2348 0.0449-2.3848 0-0.11875 0.0741-0.21023 0.15039-0.24023 0.105-0.045 0.26922-0.07422 0.41797-0.07422z" transform="matrix(.8 0 0 -.8 0 36)" fill="#002d56"/></g></g></svg>
