<?xml version="1.0" encoding="utf-8"?>
<!-- Generator: Adobe Illustrator 22.0.1, SVG Export Plug-In . SVG Version: 6.00 Build 0)  -->
<svg version="1.1" id="Layer_1" xmlns="http://www.w3.org/2000/svg" xmlns:xlink="http://www.w3.org/1999/xlink" x="0px" y="0px"
	 width="250.1px" height="152.46px" viewBox="0 0 250.1 152.46" style="enable-background:new 0 0 250.1 152.46;"
	 xml:space="preserve">
<path style="fill:#D0202E;" d="M171.75,109.1c-6.88,7.77-14.54,14.25-23.2,20.04c-11.17,7.47-21.17,11.08-29.8,13.19
	c-7.89-2.11-16.62-5.72-25.18-13.19c-2.09-1.82-4.04-3.73-5.88-5.71c-2.13-2.6-0.52-6,8.25-8.57c5.25-1.54,17.65-3.66,20.18-4.08
	c2.05-0.34,3.01-0.91,3.03-1.73l-59.56,0.05h-0.73c4.9,10.5,11.74,19.42,20.91,27.43c8.61,7.52,18.06,12.47,29.75,15.59l1.4,0.31
	l1.49-0.31c12.78-3.12,23.97-8.08,35.21-15.59c11.98-8.01,21.94-16.93,30.52-27.43H171.75z"/>
<path style="fill:#D0202E;" d="M69.72,44.18c0.77-4.4,2.1-10.1,2.1-10.1s30.94-19.45,69.09-19.59c21.65-0.08,38.01,0.14,64.23,13.58
	c0,0-0.96,6.82-2.57,16.11c-0.09,0.49-0.18,1-0.28,1.51h6.2c0.64-1.92,1.72-8,2.15-10.11c1.16-5.64,2.04-10.65,2.21-11.76
	c0,0-6.04-4.66-12.36-8.41c-6.9-4.09-16.13-7.76-28.32-11c-12.99-3.45-28.3-4.37-34.58-4.37c-6.28,0-21.89,1-36.11,4.37
	C72.3,11.32,54.85,23.55,54.85,23.55s-1.81,7.78-2.96,14.35c-0.37,2.12-0.79,4.77-1.16,7.79h18.75
	C69.55,45.17,69.64,44.67,69.72,44.18"/>
<path d="M89.91,82.73c0.08,0.2,0.04,0.44-0.13,0.64c-0.16,0.2-0.41,0.32-0.65,0.32h-8.49c-0.24,0-0.43-0.12-0.52-0.31
	c-0.52-1.25-1.05-2.49-1.57-3.74l-0.01-0.02c-1.53-3.65-3.2-7.57-4.79-11.27c-0.37-0.86-0.66-1.62-0.15-2.98
	c0.14-0.38,0.72-0.44,1.07-0.44h8.15l1.49-7.21h-9.89l-5.22,25.35c-0.07,0.35-0.43,0.64-0.81,0.64h-7.95c-0.36,0-0.6-0.27-0.55-0.61
	c0.01-0.05,6.6-32.07,6.61-32.12c0.08-0.34,0.44-0.61,0.8-0.61h23.02c0.05,0,0.1,0.01,0.15,0.02c3,0.64,4.24,2.81,3.48,6.1
	c-0.47,2.04-1.85,8.9-2.15,10.29c-0.59,2.73-2.77,4.44-5.69,4.45c-0.37,0-0.74,0-1.13,0L89.91,82.73z M192.33,83.72h22.24
	c0.37,0,0.73-0.29,0.8-0.64l3.87-18.8c0.07-0.34-0.16-0.66-0.51-0.68c-0.08,0-11.29-0.01-11.29-0.01h-0.01
	c-0.75,0-1.27,0.31-1.64,0.96c-0.67,1.19-2.61,4.51-2.89,4.99c-0.11,0.19-0.13,0.41-0.04,0.58c0.09,0.17,0.28,0.27,0.5,0.27h6.17
	l-1.22,5.95h-9.95l3.83-18.63h15.54c0.28,0,0.57-0.17,0.72-0.42c0,0,3.53-5.99,3.6-6.11c0.1-0.19,0.11-0.4,0.02-0.56
	c-0.09-0.16-0.28-0.26-0.49-0.26h-21.68c0,0-0.73,0.01-1.12,0.09c-1.29,0.27-2.41,0.68-3.57,1.81c-1.03,1-1.67,2.12-1.93,3.32
	c-1.61,7.73-3.18,15.3-4.71,22.89c-0.52,2.6,0.8,4.68,3.57,5.2C192.14,83.69,192.2,83.7,192.33,83.72 M244.63,76.66L244.63,76.66
	c-0.09-0.17-0.28-0.27-0.5-0.27h-15.68l1.27-6.18h13.06c0.37,0,0.73-0.29,0.81-0.64l1.13-5.47c0.07-0.35-0.17-0.64-0.54-0.64h-13.07
	l1.2-5.8c0,0,9.55,0,12.66,0.01c0.81,0,1.34-0.31,1.74-1.02c0.76-1.32,2.94-4.96,3.24-5.45c0.12-0.2,0.13-0.42,0.04-0.58
	c-0.09-0.17-0.28-0.28-0.5-0.28H225.1c-0.37,0-0.73,0.29-0.81,0.64l-6.6,32.08c-0.07,0.35,0.17,0.64,0.54,0.64h22.1
	c0.28,0,0.57-0.17,0.72-0.42c0,0,3.4-5.81,3.53-6.02C244.71,77.05,244.73,76.83,244.63,76.66 M124.65,50.34H99.02
	c-0.28,0-0.57,0.17-0.72,0.42l-3.55,6.06c-0.11,0.19-0.13,0.41-0.04,0.58c0.09,0.17,0.28,0.27,0.49,0.27h10.01l-5.2,25.38
	c-0.07,0.35,0.17,0.64,0.54,0.64h7.95c0.35,0,0.7-0.26,0.79-0.59c0.02-0.08,0.05-0.18,0.07-0.27c0.04-0.2,5.24-25.18,5.24-25.18
	h8.53c0.37,0,0.73-0.28,0.81-0.64l1.24-6.04C125.26,50.63,125.02,50.34,124.65,50.34 M56.31,50.99c0.22,2.47,2.58,30.98,2.66,31.9
	c0.02,0.19-0.07,0.4-0.23,0.56c-0.16,0.16-0.38,0.25-0.59,0.25h-8.5c-0.21,0-0.52-0.12-0.66-0.27c-0.14-0.15-0.28-0.29-0.29-0.68
	c-0.06-1.63-0.16-4.33-0.22-5.81H35.8c0,0-2.69,5.8-2.9,6.27c-0.13,0.29-0.44,0.49-0.76,0.49h-8.36c-0.21,0-0.39-0.09-0.48-0.25
	c-0.09-0.16-0.09-0.36,0-0.55c0,0,15.47-31.2,15.9-32.08c0.14-0.28,0.44-0.47,0.75-0.47h15.77c0.27,0,0.49,0.15,0.54,0.39
	C56.26,50.74,56.3,50.89,56.31,50.99 M48.19,69.91c-0.03-0.81-0.35-7.74-0.51-11.15c0,0,0,0,0-0.01l-3.24-0.02
	c-0.03,0.06-0.05,0.11-0.08,0.16c0,0-4.22,8.89-5.23,11.01H48.19z M184.51,50.99c0.22,2.47,2.58,30.98,2.66,31.9
	c0.02,0.19-0.07,0.4-0.23,0.56c-0.16,0.16-0.38,0.25-0.59,0.25h-8.5c-0.21,0-0.52-0.12-0.66-0.27c-0.14-0.15-0.28-0.29-0.29-0.68
	c-0.06-1.63-0.16-4.33-0.22-5.81H164c0,0-2.69,5.8-2.9,6.27c-0.13,0.29-0.44,0.49-0.76,0.49h-8.35c-0.21,0-0.39-0.09-0.48-0.25
	c-0.09-0.16-0.09-0.36,0-0.55c0,0,15.47-31.2,15.9-32.08c0.14-0.28,0.44-0.47,0.75-0.47h15.77c0.27,0,0.49,0.15,0.54,0.39
	C184.46,50.74,184.5,50.89,184.51,50.99 M176.39,69.91c-0.03-0.81-0.35-7.74-0.51-11.15c0,0,0,0,0-0.01l-3.24-0.02
	c-0.03,0.06-0.05,0.11-0.08,0.16c0,0-4.22,8.89-5.23,11.01H176.39z M24.75,77.18c0.26-0.44,0.07-0.69,0.07-0.69
	c-0.08-0.13-0.3-0.16-0.47-0.16H9.96l3.84-18.66h15.34c0.28,0,0.57-0.17,0.72-0.42l3.58-6.05c0.17-0.28,0.12-0.62-0.15-0.78
	c-0.09-0.06-0.21-0.08-0.33-0.08H11.59c-0.39,0-0.79,0.01-0.99,0.05c-1.31,0.22-2.64,0.73-3.8,1.85c-1.03,1-1.68,2.12-1.93,3.32
	C3.27,63.29,1.7,70.85,0.17,78.46c-0.52,2.6,0.7,4.63,3.36,5.17c0.26,0.05,0.53,0.06,0.83,0.06H20.9c0.28,0,0.57-0.17,0.72-0.42
	L24.75,77.18 M156.51,50.99c0.04-0.17,0-0.34-0.1-0.46c-0.1-0.12-0.26-0.19-0.44-0.19h-8.1c-0.18,0-0.36,0.07-0.52,0.19
	c-0.15,0.12-0.26,0.28-0.29,0.45c0,0-1.76,8.64-2.54,12.42H133.3l2.56-12.42c0.07-0.35-0.17-0.64-0.54-0.64h-7.97
	c-0.36,0-0.72,0.27-0.8,0.61c-0.01,0.05-6.62,32.13-6.62,32.19c-0.06,0.34,0.18,0.61,0.55,0.61h7.97c0.37,0,0.73-0.29,0.81-0.64
	l2.54-12.34H143c-0.76,3.69-2.55,12.34-2.55,12.34c-0.04,0.17,0,0.33,0.1,0.45c0.1,0.12,0.26,0.19,0.44,0.19h8.1
	c0.18,0,0.37-0.07,0.52-0.19c0.15-0.12,0.26-0.29,0.29-0.46C149.92,83.01,156.49,51.08,156.51,50.99"/>
<path style="fill:#D0202E;" d="M62.63,89.85h3.53l7.45,15.01h-4l-1.59-3.34h-7.35l-1.59,3.34h-3.9L62.63,89.85z M66.66,98.62
	l-2.31-4.83l-2.31,4.83H66.66z M76.94,104.86h3.83V92.98h5.29v-3.02H71.65v3.02h5.29V104.86z M87.52,104.86h3.83v-5.98h7.05v5.98
	h3.83v-14.9H98.4v5.9h-7.05v-5.9h-3.83V104.86z M105.87,104.86h12.49v-2.96h-8.67V89.95h-3.83V104.86z M120.3,104.86h13.21v-2.92
	h-9.44v-3.13h8.2v-2.92h-8.2v-3.02h9.32v-2.92H120.3V104.86z M140.34,104.86h3.83V92.98h5.29v-3.02h-14.41v3.02h5.29V104.86z
	 M151.5,104.86h3.83v-14.9h-3.83V104.86z M166.62,105.11c0.84,0,1.61-0.06,2.29-0.18c0.68-0.12,1.3-0.3,1.87-0.53
	c0.57-0.23,1.1-0.51,1.58-0.84c0.48-0.33,0.94-0.7,1.39-1.11l-2.43-2.11c-0.68,0.54-1.36,0.97-2.05,1.28
	c-1.37,0.62-3.18,0.65-4.57,0.1c-0.62-0.25-1.15-0.59-1.59-1.01c-0.44-0.43-0.78-0.92-1.03-1.49c-0.25-0.57-0.39-1.23-0.37-1.85
	c0-0.64,0.12-1.24,0.37-1.8c0.25-0.56,0.6-1.05,1.04-1.48c0.45-0.42,0.98-0.76,1.6-1c1.37-0.53,3.05-0.49,4.4,0.09
	c0.7,0.3,1.4,0.71,2.07,1.23l2.44-2.41c-0.4-0.34-0.83-0.65-1.29-0.94c-0.46-0.28-0.97-0.52-1.52-0.72
	c-2.39-0.87-5.33-0.9-7.73-0.03c-1.11,0.4-2.06,0.96-2.85,1.66c-0.8,0.7-1.42,1.52-1.86,2.45c-0.45,0.94-0.68,1.99-0.67,3.03
	c0,1.06,0.22,2.07,0.67,3c0.45,0.94,1.07,1.75,1.86,2.44c0.79,0.69,1.74,1.23,2.83,1.63C164.17,104.92,165.35,105.11,166.62,105.11
	 M182.1,105.07c0.94,0,1.8-0.1,2.58-0.31c1.34-0.36,2.63-1.09,3.31-2.34c0.33-0.6,0.49-1.33,0.47-2.01c0-0.65-0.12-1.21-0.36-1.68
	c-0.24-0.47-0.6-0.88-1.07-1.22c-0.47-0.35-1.05-0.65-1.74-0.9c-0.69-0.25-1.47-0.47-2.35-0.67c-0.75-0.17-1.37-0.32-1.85-0.45
	c-0.49-0.13-0.88-0.26-1.16-0.4c-0.28-0.14-0.48-0.3-0.59-0.48c-0.12-0.19-0.16-0.45-0.16-0.67c0-0.37,0.19-0.68,0.56-0.93
	c1.07-0.71,2.8-0.37,3.91,0.02c0.75,0.26,1.51,0.62,2.29,1.08l1.99-2.47c-0.89-0.61-1.88-1.08-2.94-1.41
	c-1.88-0.57-4.07-0.72-5.97-0.17c-0.74,0.21-1.38,0.52-1.91,0.92c-0.54,0.4-0.95,0.87-1.25,1.42c-0.3,0.56-0.46,1.25-0.44,1.89
	c0,0.74,0.14,1.36,0.41,1.85c0.27,0.5,0.66,0.91,1.16,1.25c0.5,0.33,1.1,0.61,1.82,0.84c0.72,0.23,1.51,0.43,2.39,0.62
	c0.73,0.16,1.32,0.31,1.78,0.45c0.46,0.14,0.82,0.28,1.07,0.43c0.26,0.14,0.43,0.29,0.52,0.46c0.1,0.18,0.14,0.4,0.14,0.61
	c0,0.44-0.22,0.78-0.66,1.03c-2.14,1.22-5.26-0.2-7.04-1.44l-2.26,2.32c1.04,0.81,2.2,1.41,3.48,1.8
	C179.47,104.88,180.77,105.07,182.1,105.07"/>
</svg>
