<?xml version="1.0" encoding="UTF-8" standalone="no"?>
<!-- Created with Inkscape (http://www.inkscape.org/) -->

<svg
   xmlns:svg="http://www.w3.org/2000/svg"
   xmlns="http://www.w3.org/2000/svg"
   version="1.1"
   width="250"
   height="180.18018"
   viewBox="0 0 250 180.18018"
   id="svg2"
   style="overflow:visible">
  <defs
     id="defs4" />
  <path
     d="m 154.5708,56.587632 0.1484,0 14.6912,-32.201935 13.50404,-2.671128 -6.82622,32.053539 12.02008,-32.943916 13.50404,-2.671128 -19.73667,44.073617 -16.62036,2.077544 5.49065,-25.078927 -11.42649,25.820907 -16.47196,2.077544 6.97462,-39.176548 12.31687,-2.22594 -7.5682,30.866371 z"
     id="path2871"
     style="fill:#000000;stroke:none" />
  <path
     d="m 176.08822,53.768108 0.1484,0 z"
     id="path2867"
     style="fill:#ffffff;stroke:none" />
  <path
     d="m 142.21716,28.887881 c -1.62619,-0.13602 -3.62953,0.08657 -6.02859,0.556485 -9.59627,1.879684 -15.61251,6.498507 -18.08577,13.819379 l -6.39957,18.178511 c -1.08825,3.264713 -0.59976,5.657598 1.5767,7.141559 1.87968,1.286088 4.8476,1.786937 8.90377,1.391212 9.29947,-0.989306 15.24151,-5.033097 17.71477,-12.057176 l 1.9477,-5.935841 -11.77894,1.762203 -1.7622,5.101113 c -0.79145,2.473269 -2.02807,3.784098 -3.7099,4.08089 -1.68183,0.197872 -2.00952,-0.865644 -1.02022,-3.33891 l 2.68968,-7.883538 16.6018,-2.689678 3.52441,-10.665963 c 2.07754,-5.86164 0.70488,-9.052154 -4.17364,-9.460246 z m -7.6053,7.883538 c 0.79763,0.129846 1.02022,0.853274 0.64923,2.040445 l -1.94769,5.472103 -4.82287,0.74198 1.85495,-5.379355 c 0.49466,-1.58289 1.65708,-2.485631 3.33891,-2.782426 0.39571,-0.0742 0.66161,-0.136019 0.92747,-0.09275 z"
     id="path2865"
     style="fill:#000000;stroke:none" />
  <path
     d="m 119.69774,22.308153 0.14839,0 z"
     id="path2855"
     style="fill:#ffffff;stroke:none" />
  <path
     d="m 107.52926,18.153064 0.1484,0 z"
     id="path2851"
     style="fill:#ffffff;stroke:none" />
  <path
     d="m 102.03861,40.412466 0.1484,0 z"
     id="path2847"
     style="fill:#ffffff;stroke:none" />
  <path
     d="M 112.72312,73.653174 80.076,167.29106 79.185624,169.517 11.813833,87.008815 46.241708,82.853727 69.243091,110.90057 80.224396,77.956658 112.72312,73.653174 z"
     id="path12"
     style="fill:#ffe700;fill-opacity:1;stroke:none" />
  <path
     d="m 79.185624,169.66539 0.890376,-2.37433 32.64712,-93.637886 64.70067,-8.310177 c 23.14977,-2.176474 39.91852,-0.840913 50.30624,4.006692 9.10164,4.155089 12.31687,10.189859 9.64575,18.104314 -2.57221,7.419801 -9.29948,14.147087 -20.18186,20.181857 -11.57489,6.4305 -24.38642,9.89307 -38.43457,10.38772 l 54.60973,51.9386 -64.10708,0 -35.46664,-47.63511 -15.72998,47.33832 -38.879756,0 z M 173.2687,103.48077 c 5.83692,-4.155086 8.75536,-8.5575 8.75536,-13.207243 0,-3.561504 -2.62165,-5.93584 -7.86499,-7.123008 l -27.75005,0.890376 -9.20055,28.046845 c 15.82889,0 27.84897,-2.86899 36.06023,-8.60697 z"
     id="path14"
     style="fill:#ff0000;stroke:none" />
  <g
     transform="matrix(2.9679203,0,0,2.9679203,-252.238,-174.41466)"
     id="g2935"
     style="fill:#ff0000;fill-opacity:1;stroke:none">
    <path
       d="m 129.125,61.9375 c -0.1651,0.0036 -0.35833,0.04375 -0.5625,0.09375 -1.47692,0.393845 -2.43111,1.322055 -2.90625,2.75 l -0.9375,2.90625 -0.0625,0.1875 c -0.43333,1.5 0.0958,2.083334 1.5625,1.75 1.33333,-0.233334 2.25,-0.927085 2.75,-2.09375 l -0.1875,0.0625 c -0.46667,1.066668 -1.3,1.675001 -2.5,1.875 -1.3333,0.266666 -1.80625,-0.287501 -1.40625,-1.6875 l 0.46875,-1.5 4.375,-1 c 0.75834,-2.245833 0.56198,-3.369271 -0.59375,-3.34375 z m -0.0937,0.1875 c 0.99167,0.01823 1.17291,1.016666 0.53125,3 l -4.15625,0.96875 0.375,-1.25 c 0.50247,-1.448911 1.42394,-2.325198 2.78125,-2.65625 0.175,-0.0375 0.32708,-0.0651 0.46875,-0.0625 z"
       id="path2861"
       style="fill:#ff0000;fill-opacity:1;stroke:none" />
    <path
       d="m 122.0625,62.03125 -0.1875,0.09375 -2.71875,8.90625 0.21875,-0.0625 1.59375,-5.28125 c 0.4,-1.233333 1.23333,-2.0125 2.5,-2.3125 0.13333,-0.03333 0.2625,-0.04896 0.375,-0.0625 0.7875,-0.09479 1.04584,0.28125 0.8125,1.15625 l -1.6875,5.71875 0.1875,0 1.71875,-5.8125 c 0.36667,-1.1 -0.0771,-1.489584 -1.34375,-1.15625 -1.03333,0.266666 -1.8125,0.822916 -2.3125,1.65625 l 0.84375,-2.84375 z"
       id="path2933"
       style="fill:#ff0000;fill-opacity:1;stroke:none" />
    <path
       d="m 120.71875,62.46875 -1.5625,0.40625 -1.6875,0.40625 -0.0625,0.15625 1.5,-0.34375 -2.53125,8.5 0.1875,-0.0625 2.5625,-8.5 1.5,-0.34375 0.0937,-0.21875 z"
       id="path2853"
       style="fill:#ff0000;fill-opacity:1;stroke:none" />
  </g>
  <path
     d="m 101.40825,36.400429 -7.69804,1.48396 -0.556485,0.185495 -0.278094,0 -11.593439,36.913509 10.665964,-1.48396 8.161784,-26.711283 c 0.89037,-2.176474 1.96007,-3.326534 3.24616,-3.524405 1.38513,-0.296793 1.7993,0.605951 1.20572,2.782425 L 96.400036,72.942948 107.066,71.73723 116.15526,41.037804 c 1.48396,-4.748672 0.48846,-7.141558 -2.87518,-7.141558 l -0.55648,0 -1.20572,0.09275 c -4.05617,0.890376 -7.18483,3.035933 -9.46025,6.399578 l 1.29847,-4.451881 -1.29847,0.278243 -0.64923,0.185495 z"
     id="path2853-1"
     style="fill:#000000;stroke:none" />
</svg>
