<?xml version="1.0" encoding="UTF-8" standalone="no"?>
<!-- Generator: Adobe Illustrator 18.1.0, SVG Export Plug-In  -->

<svg
   xmlns:dc="http://purl.org/dc/elements/1.1/"
   xmlns:cc="http://creativecommons.org/ns#"
   xmlns:rdf="http://www.w3.org/1999/02/22-rdf-syntax-ns#"
   xmlns:svg="http://www.w3.org/2000/svg"
   xmlns="http://www.w3.org/2000/svg"
   xmlns:sodipodi="http://sodipodi.sourceforge.net/DTD/sodipodi-0.dtd"
   xmlns:inkscape="http://www.inkscape.org/namespaces/inkscape"
   version="1.1"
   x="0px"
   y="0px"
   width="512"
   height="71.849236"
   viewBox="0 0 511.99999 71.849236"
   enable-background="new 0 0 401 55"
   xml:space="preserve"
   id="svg16"
   sodipodi:docname="menlo logo.svg"
   inkscape:version="0.92.1 r15371"><metadata
     id="metadata20"><rdf:RDF><cc:Work
         rdf:about=""><dc:format>image/svg+xml</dc:format><dc:type
           rdf:resource="http://purl.org/dc/dcmitype/StillImage" /><dc:title></dc:title></cc:Work></rdf:RDF></metadata><sodipodi:namedview
     pagecolor="#ffffff"
     bordercolor="#666666"
     borderopacity="1"
     objecttolerance="10"
     gridtolerance="10"
     guidetolerance="10"
     inkscape:pageopacity="0"
     inkscape:pageshadow="2"
     inkscape:window-width="1600"
     inkscape:window-height="838"
     id="namedview18"
     showgrid="false"
     fit-margin-top="0"
     fit-margin-left="0"
     fit-margin-right="0"
     fit-margin-bottom="0"
     inkscape:zoom="1.0015877"
     inkscape:cx="155.64246"
     inkscape:cy="-139.27669"
     inkscape:window-x="-8"
     inkscape:window-y="-8"
     inkscape:window-maximized="1"
     inkscape:current-layer="svg16" /><defs
     id="defs2" /><style
     type="text/css"
     id="style4">
	.st0{fill:#AAAAAA;}
	.st1{fill:#003A70;}
</style><g
     id="g14"
     transform="matrix(1.4844883,0,0,1.4844883,0,-2.3751813)"><g
       id="g10"><path
         class="st0"
         d="m 59.7,11.3 c 0,-5 4,-9.7 4,-9.7 H 39 L 33.1,23.2 39.1,45 48,12.3 h 0.1 V 50 h 15.5 c 0,0 -4,-4.1 -4,-10 V 11.3 Z"
         id="path6"
         inkscape:connector-curvature="0"
         style="fill:#aaaaaa" /><path
         class="st1"
         d="M 24.6,1.6 H 0 c 0,0 4,4.7 4,9.7 V 40 C 4,45.9 0,50 0,50 H 15.5 V 12.3 h 0.1 L 25.9,50 h 11.9 z"
         id="path8"
         inkscape:connector-curvature="0"
         style="fill:#003a70" /></g><path
       class="st1"
       d="m 132.5,17.6 c -7.1,0 -10.7,5.6 -10.7,12 0,2.9 0.7,6 2.5,8.4 1,1.4 2,2.2 3.6,2.9 1.4,0.6 3.4,1.1 4.9,1.1 4.7,0 9.8,-2.5 10.2,-7.6 h -5.6 c -0.4,2.2 -2,3.8 -4.4,3.8 -4,0 -5.4,-3.9 -5.4,-7.2 h 15.6 c 0.2,-4.1 -0.4,-7.8 -2.5,-10.2 -1.8,-2.2 -5,-3.2 -8.2,-3.2 z m -4.6,10.1 c 0.3,-3.1 1.5,-6.4 5.1,-6.4 3.3,0 4.4,3.8 4.4,6.4 z m -26.1,6.8 v 0 L 95.2,10.1 h -13 v 4 h 3.6 v 23.6 h -3.6 v 4 H 94 v -4 h -3.1 v -23.6 0 l 7.8,27.5 h 5.5 l 8,-27.5 v 0 23.5 H 109 v 4 h 12.6 v -4 H 118 V 14.1 h 3.6 v -4 h -13.2 z m 76.8,-24.4 h -8.8 v 3.7 h 3 v 24 h -5.9 V 25.2 c 0,-1 0,-1.9 -0.3,-3.2 -0.5,-2.2 -3.3,-4.4 -6.9,-4.4 -3.3,0 -5.5,1.4 -7,4.4 v -3.8 h -8.5 V 22 h 3.1 v 15.9 h -3.1 v 3.7 h 11.7 v -3.7 h -2.8 V 29 c 0,-3.3 0.3,-7.3 4.5,-7.3 1.5,0 2.7,1.1 3.1,2.5 0.4,1.1 0.3,2.1 0.3,3.2 v 14.2 h 20.4 v -3.7 h -2.8 z m 14.7,7.5 c -3,0 -6.1,1.1 -8.2,3.3 -2.3,2.5 -3.1,5.4 -3.1,8.7 0,3 0.7,6.1 2.7,8.5 2,2.5 5.6,3.9 8.7,3.9 7.2,0 11.4,-5.4 11.4,-12.2 0.1,-6.9 -4,-12.2 -11.5,-12.2 z m 4.6,17.4 c -0.8,1.8 -2.2,3.3 -4.4,3.3 -2,0 -3.5,-1.3 -4.3,-2.9 -0.9,-1.8 -1.1,-3.5 -1.1,-5.4 0,-3.3 1.1,-8.4 5.3,-8.4 2,0 3.4,1.3 4.2,2.9 0.9,1.8 1.1,3.4 1.1,5.4 0.1,1.5 -0.1,3.5 -0.8,5.1 z m 29.2,5 c -6,0 -10.9,-4.7 -10.9,-14.2 0,-9.4 4.9,-14.1 10.9,-14.1 5.4,0 8.9,3.7 9.1,9.4 h 2.1 v -11 h -2.1 v 4.7 h -0.1 c -1.4,-3.3 -4.5,-5.3 -8.7,-5.3 -9.3,0 -13.7,7.5 -13.7,16.3 0,8.7 4.4,16.3 13.7,16.3 6.6,0 10.5,-4.2 11.2,-11 H 236 c -0.7,5.4 -3.3,8.9 -8.9,8.9 z m 24.2,-21.7 c -6,0 -9.7,5 -9.7,12 0,6.9 3.7,12 9.7,12 6,0 9.7,-5 9.7,-12 0,-7 -3.1,-12 -9.7,-12 z m 0,22.1 c -4.9,0 -7.3,-4.5 -7.3,-10.1 0,-6.5 3.3,-10.1 7.3,-10.1 4.9,0 7.3,4.5 7.3,10.1 0,6.4 -3.3,10.1 -7.3,10.1 z m 26.1,-30.3 h -6.2 V 12 h 3.8 v 27.8 h -7.3 V 10.1 h -6.2 V 12 h 3.8 v 27.8 h -3.8 v 1.8 h 19.3 v -1.8 h -3.5 V 10.1 Z m 14.3,8.2 c -6.6,0 -9.7,5 -9.7,12 0,6.9 3.1,12 9.7,12 4.6,0 7.9,-2.4 8.7,-7.4 h -2.1 c -0.7,4 -3.3,5.5 -6.6,5.5 -4.6,0 -7.3,-3.8 -7.3,-9.7 h 16.5 c -0.1,-6.4 -2.6,-12.4 -9.2,-12.4 z m -0.3,1.9 c 4.5,0 7,3.3 7.1,8.7 h -14.2 c 0.5,-5.2 3.1,-8.7 7.1,-8.7 z m 28.1,3 v 0 c -1.2,-3.2 -4.1,-4.9 -7.5,-4.9 -5.9,0 -9,5.4 -9,11.6 0,6.2 3.1,11.6 9,11.6 3.5,0 6.3,-1.7 7.4,-5.1 h 0.1 v 2.8 c 0,6.4 -2,8.4 -6.9,8.4 -3.1,0 -5.4,-0.8 -6,-4.1 h -2.4 c 0.2,4.5 4.2,5.9 8.3,5.9 6.2,0 9.4,-2.8 9.4,-9 V 20.8 h 3.3 V 19 h -5.7 z m -6.8,16.6 c -5.1,0 -7.3,-5.1 -7.3,-9.6 0,-6 2.7,-10 7.2,-10 4.3,0 6.9,4 6.9,10 0,4.5 -2.2,9.6 -6.8,9.6 z m 23,0.6 c -4.6,0 -7.3,-3.8 -7.3,-9.7 h 16.5 c 0,-6.4 -2.5,-12.4 -9.2,-12.4 -6.6,0 -9.7,5 -9.7,12 0,6.9 3.1,12 9.7,12 4.6,0 7.9,-2.4 8.7,-7.4 h -2.1 c -0.7,3.9 -3.3,5.5 -6.6,5.5 z m -0.4,-20.2 c 4.5,0 7,3.3 7.1,8.7 h -14.2 c 0.6,-5.2 3.1,-8.7 7.1,-8.7 z"
       id="path12"
       inkscape:connector-curvature="0"
       style="fill:#003a70" /></g></svg>