<?xml version="1.0" encoding="UTF-8" standalone="no"?>
<svg xmlns:rdf="http://www.w3.org/1999/02/22-rdf-syntax-ns#" xmlns="http://www.w3.org/2000/svg" xml:space="preserve" height="229.51" viewBox="0 0 191.9668 229.50976" width="191.97" version="1.1" xmlns:cc="http://creativecommons.org/ns#" xmlns:dc="http://purl.org/dc/elements/1.1/"><g transform="matrix(0 1.25 1.25 0 -286.56 -83)"><path d="m67.332 230.25h1.8141c0.158 2.997 0.57894 5.4414 1.2609 7.3344 0.684 1.892 1.7875 3.5488 3.3125 4.9688 1.683 1.682 3.8141 2.8122 6.3891 3.3922 2.576 0.578 6.5709 0.86718 11.986 0.86718h58.123c5.415 0 9.4125-0.28918 11.988-0.86718 2.576-0.58 4.7055-1.7102 6.3875-3.3922 1.472-1.42 2.5629-3.0647 3.2719-4.9297 0.71-1.867 1.1441-4.3244 1.3031-7.3734h1.8125v50.394h-1.8125c-0.159-3.049-0.59312-5.5084-1.3031-7.3734-0.709-1.867-1.7999-3.5087-3.2719-4.9297-1.682-1.629-3.8246-2.746-6.4266-3.35-2.604-0.605-6.5864-0.90781-11.948-0.90781h-29.102v55.994h29.102c5.415 0 9.4125-0.3028 11.988-0.9078 2.576-0.604 4.7055-1.721 6.3875-3.35 1.472-1.473 2.5629-3.1434 3.2719-5.0094 0.71-1.867 1.1441-4.3249 1.3031-7.3719h1.8125v50.392h-1.8125c-0.159-2.997-0.59312-5.4303-1.3031-7.2953-0.709-1.866-1.7999-3.5372-3.2719-5.0062-1.735-1.631-3.8902-2.7501-6.4672-3.3531-2.575-0.605-6.5458-0.90624-11.908-0.90624h-58.123c-5.363 0-9.3439 0.30124-11.947 0.90624-2.603 0.603-4.7451 1.7221-6.4281 3.3531-1.525 1.469-2.6285 3.1402-3.3125 5.0062-0.682 1.865-1.1029 4.2983-1.2609 7.2953h-1.8141v-50.392h1.8141c0.158 3.047 0.57894 5.5049 1.2609 7.3719 0.684 1.866 1.7875 3.5364 3.3125 5.0094 1.683 1.629 3.8141 2.746 6.3891 3.35 2.576 0.605 6.5709 0.9078 11.986 0.9078h25.317v-55.994h-25.317c-5.363 0-9.3439 0.30281-11.947 0.90781-2.603 0.604-4.7451 1.721-6.4281 3.35-1.525 1.472-2.6285 3.1408-3.3125 5.0078-0.682 1.866-1.1029 4.2993-1.2609 7.2953h-1.8141v-50.394zm71.734 36.025h1.8125c0.158 3.048 0.57894 5.5043 1.2609 7.3703 0.684 1.864 1.7879 3.507 3.3109 4.925 1.682 1.682 3.8104 2.8126 6.3844 3.3906 2.576 0.578 6.5702 0.86719 11.981 0.86719h47.847c6.045 0 10.221 0.15844 12.533 0.47344 6.515 0.893 11.771 3.6249 15.764 8.1969 6.255 7.041 9.3797 17.999 9.3797 32.87 0 14.24-3.3102 25.195-9.9312 32.867-2.889 3.364-6.0821 5.6096-9.5781 6.7406-3.494 1.13-8.9201 1.6938-16.278 1.6938h-49.736c-5.36 0-9.3406 0.30281-11.941 0.90781-2.603 0.603-4.743 1.722-6.425 3.35-1.523 1.47-2.6269 3.1387-3.3109 5.0047-0.682 1.866-1.1029 4.2966-1.2609 7.2906h-1.8125v-36.338h1.8125c0.158 2.996 0.57894 5.4268 1.2609 7.2938 0.684 1.864 1.7879 3.5321 3.3109 5.0031 1.682 1.628 3.8104 2.746 6.3844 3.35 2.576 0.605 6.5702 0.90625 11.981 0.90625h44.062c8.04 0 13.137-0.10607 15.292-0.31407 3.311-0.317 6.0444-0.95968 8.1984-1.9297 2.155-0.975 4.1501-2.4854 5.9891-4.5344 2.943-3.31 5.2419-7.4491 6.8969-12.414 1.655-4.966 2.4828-10.183 2.4828-15.648 0-5.623-0.93087-10.283-2.7969-13.989-1.865-3.705-4.874-6.8176-9.025-9.3406-2.731-1.682-5.7159-2.799-8.9469-3.35-3.233-0.552-8.4736-0.82813-15.727-0.82813h-44.612c-6.411 0-10.93 0.27613-13.558 0.82813-2.627 0.551-4.8349 1.6951-6.6219 3.4281-1.523 1.419-2.6269 3.0736-3.3109 4.9656-0.682 1.892-1.1029 4.3363-1.2609 7.3313h-1.8125v-50.369z" fill="#4f2683"/></g></svg>
