<?xml version="1.0" encoding="UTF-8" standalone="no"?>
<!-- Created with Inkscape (http://www.inkscape.org/) -->

<svg
   xmlns:dc="http://purl.org/dc/elements/1.1/"
   xmlns:cc="http://creativecommons.org/ns#"
   xmlns:rdf="http://www.w3.org/1999/02/22-rdf-syntax-ns#"
   xmlns:svg="http://www.w3.org/2000/svg"
   xmlns="http://www.w3.org/2000/svg"
   xmlns:sodipodi="http://sodipodi.sourceforge.net/DTD/sodipodi-0.dtd"
   xmlns:inkscape="http://www.inkscape.org/namespaces/inkscape"
   width="100"
   height="90"
   id="svg2"
   version="1.1"
   inkscape:version="0.48.2 r9819"
   inkscape:export-filename="/Users/feinbera/Documents/WikiEd/Brain Revised.png"
   inkscape:export-xdpi="540"
   inkscape:export-ydpi="540"
   sodipodi:docname="Brain Export.svg">
  <defs
     id="defs4" />
  <sodipodi:namedview
     id="base"
     pagecolor="#ffffff"
     bordercolor="#666666"
     borderopacity="1.0"
     inkscape:pageopacity="0.0"
     inkscape:pageshadow="2"
     inkscape:zoom="7.9195959"
     inkscape:cx="51.097893"
     inkscape:cy="34.767831"
     inkscape:document-units="px"
     inkscape:current-layer="text3794"
     showgrid="true"
     inkscape:window-width="1499"
     inkscape:window-height="1018"
     inkscape:window-x="6"
     inkscape:window-y="0"
     inkscape:window-maximized="0"
     inkscape:snap-global="false">
    <inkscape:grid
       type="xygrid"
       id="grid3802"
       empspacing="5"
       visible="true"
       enabled="true"
       snapvisiblegridlinesonly="true"
       spacingx="10px"
       spacingy="10px" />
  </sodipodi:namedview>
  <metadata
     id="metadata7">
    <rdf:RDF>
      <cc:Work
         rdf:about="">
        <dc:format>image/svg+xml</dc:format>
        <dc:type
           rdf:resource="http://purl.org/dc/dcmitype/StillImage" />
        <dc:title></dc:title>
      </cc:Work>
    </rdf:RDF>
  </metadata>
  <g
     inkscape:label="Layer 1"
     inkscape:groupmode="layer"
     id="layer1"
     transform="translate(0,-962.36218)">
    <g
       transform="translate(-273.37456,301.53947)"
       id="use3074">
      <path
         inkscape:connector-curvature="0"
         id="path3808"
         d="m 286.33225,722.33294 c 0.54044,8.20426 21.1448,16.27863 32.9441,-2.26096"
         style="color:#000000;fill:none;stroke:#000000;stroke-width:1.8125;stroke-linecap:butt;stroke-linejoin:miter;stroke-miterlimit:4;stroke-opacity:1;stroke-dasharray:none;stroke-dashoffset:0;marker:none;visibility:visible;display:inline;overflow:visible;enable-background:accumulate"
         sodipodi:nodetypes="cc" />
      <path
         sodipodi:nodetypes="cssssssc"
         inkscape:connector-curvature="0"
         d="m 341.50963,707.83878 c 4.84879,1.62397 23.34152,0.73806 27.65913,-8.24284 7.87734,-16.38537 -5.81065,-37.96254 -53.43261,-33.48194 -39.29075,3.69674 -41.0184,42.04343 -40.05993,47.50722 0.95846,5.46379 6.92838,9.12051 10.49799,8.90869 3.56962,-0.21181 8.10924,-3.13315 16.53902,-4.35954 14.18554,-2.06375 32.278,10.57469 39.14701,-4.91728 1.61634,-3.64541 -2.82227,-10.33999 -7.29297,-12.96852"
         style="color:#000000;fill:none;stroke:#000000;stroke-width:1.8125;stroke-linecap:butt;stroke-linejoin:miter;stroke-miterlimit:4;stroke-opacity:1;stroke-dasharray:none;stroke-dashoffset:0;marker:none;visibility:visible;display:inline;overflow:visible;enable-background:accumulate"
         id="path3810" />
      <path
         id="path2999"
         transform="translate(273.37456,660.82271)"
         style="color:#000000;fill:none;stroke:#000000;stroke-width:1;stroke-linecap:butt;stroke-linejoin:miter;stroke-miterlimit:4;stroke-opacity:1;stroke-dasharray:none;stroke-dashoffset:0;marker:none;visibility:visible;display:inline;overflow:visible;enable-background:accumulate"
         d="M 25.714286,47.142858 C 26.607143,48.75 28.571429,51.160714 34.732143,51.25 M 53.7689,20.19631 c 5.72267,5.85077 3.2471,11.07626 1.16674,12.95575 M 51.07405,12.99731 c 4.38816,2.94848 3.48599,9.77979 -0.36374,10.58305 m -26.9979,34.84425 c 3.82383,-2.1977 4.642166,-5.231829 4.963769,-8.229083 M 61.17125,39.8453 C 58.38282,38.20585 53.28072,36.87851 48.80296,37.81866 46.00872,33.63405 38.53162,35.89115 38.15022,40.60366 M 36.8336,32.70138 c 5.64592,-4.21199 4.35978,-12.96351 -6.5238,-14.98984 m 3.56007,8.00215 c 0.11218,4.2991 3.65982,8.60254 6.59495,10.79565 m 2.45372,21.72164 c 4.06551,-2.24226 5.33461,-8.22619 4.99163,-9.71553 m -11.95355,14.2664 c -0.99922,2.35511 -2.52286,5.33934 -6.13487,7.62169 m 0.55312,-6.91975 c -1.89649,2.36369 -3.59447,4.33728 -7.99083,6.16034 m -5.80838,-2.58117 c 5.60237,-1.33295 9.25678,-5.68583 7.81495,-4.09058 m -2.96363,-35.6247 c -0.32764,8.47912 5.09458,5.46944 6.09204,13.7559 m 1.59685,-12.44339 c 1.06967,-3.35087 -5.60805,-14.06513 -10.23493,-4.3484 -8.75968,2.63874 -8.26707,7.63489 0.65976,12.0452 m 7.7176,-26.8527 c 5.21811,-0.8481 8.27451,2.47296 8.69788,4.34107 6.00371,2.3103 12.54385,1.43702 10.33686,18.09714 m 34.7182,-6.94867 c 5.17021,6.73583 1.49178,17.87063 -4.93722,22.27307 M 60.98179,39.60051 c 3.49406,-2.53888 3.66753,-9.62745 3.66753,-9.62745 M 9.78802,44.07328 C 6.3593,42.29358 6.19888,40.25168 4.53039,34.86575 M 3.41924,55.09659 c 4.20872,-5.8508 9.72756,-1.69099 12.53799,-8.82559 2.81043,-7.1346 -1.68334,-8.79749 -4.6815,-8.28906 m 5.66734,22.19303 c -2.53194,-8.34516 2.82989,-6.95709 3.1506,-10.5851 0.3207,-3.62802 1.41214,-8.4184 6.97327,-8.48933 5.56112,-0.0709 2.63904,3.07587 7.75195,3.72437 3.16867,0.40191 5.04154,-2.66112 8.61709,-0.18282 M 69.23301,22.09587 c 2.40607,-2.5631 6.51728,-3.73468 10.09373,-3.7676 4.83163,-0.17057 9.53989,2.69412 9.622,9.15223 0,0 6.38013,-0.32822 8.22718,5.91349 M 45.75516,12.65805 c 0,0 -0.98304,-3.64239 4.55299,-3.99452 3.74126,-0.23797 6.68733,1.14004 8.55553,3.94438 3.85946,-1.65312 6.98543,-0.77351 10.30737,2.64905 2.08327,-2.39438 10.83907,-4.57695 17.28413,-3.07711 M 69.43045,37.53263 c 12.66142,-0.84958 7.9277,-11.17062 2.12399,-11.67366 -1.0336,-5.08624 -6.33446,-4.86575 -8.1698,-4.30013 -0.70854,-1.82769 -1.77986,-3.48857 -4.03751,-4.38422 m 2.81393,35.97566 c 0,0 -2.37968,-4.49954 -6.5511,-4.04209 -3.81561,-9.13332 -15.49454,-7.18022 -15.81455,3.72915 m 43.26318,-16.2527 c 3.35815,1.66414 6.90378,-0.37534 8.71935,-2.35281"
         inkscape:connector-curvature="0"
         sodipodi:nodetypes="ccccccccccccccccccccccccccccccccccccccsccsssccccccscccccccccccc" />
    </g>
    <g
       style="font-size:12px;font-style:normal;font-variant:normal;font-weight:normal;font-stretch:normal;text-align:center;line-height:125%;letter-spacing:0px;word-spacing:0px;text-anchor:middle;fill:#000000;fill-opacity:1;stroke:none;font-family:Open Sans;-inkscape-font-specification:Open Sans"
       id="text3794">
      <path
         d="m 3.7167969,1044.7712 2.2851562,-4.2832 1.078125,0 -2.859375,5.2442 0,3.3222 -1.0078125,0 0,-3.2753 -2.8535156,-5.2911 1.0898437,0 2.2675782,4.2832"
         style="font-size:12px;font-style:normal;font-variant:normal;font-weight:normal;font-stretch:normal;text-align:center;line-height:125%;writing-mode:lr-tb;text-anchor:middle;font-family:Open Sans;-inkscape-font-specification:Open Sans"
         id="path3790" />
      <path
         d="m 13.039063,1049.0544 -4.7753911,0 0,-8.5664 4.7753911,0 0,0.8848 -3.7792974,0 0,2.7598 3.5507814,0 0,0.8789 -3.5507814,0 0,3.1523 3.7792974,0 0,0.8906"
         style="font-size:12px;font-style:normal;font-variant:normal;font-weight:normal;font-stretch:normal;text-align:center;line-height:125%;writing-mode:lr-tb;text-anchor:middle;font-family:Open Sans;-inkscape-font-specification:Open Sans"
         id="path3792" />
      <path
         d="m 20.328125,1049.0544 -1.066406,-2.7246 -3.433594,0 -1.054687,2.7246 -1.007813,0 3.386719,-8.6015 0.83789,0 3.369141,8.6015 -1.03125,0 m -1.376953,-3.6211 -0.996094,-2.6542 c -0.12891,-0.336 -0.261723,-0.7481 -0.398437,-1.2364 -0.08594,0.375 -0.208988,0.7871 -0.369141,1.2364 l -1.007813,2.6542 2.771485,0"
         style="font-size:12px;font-style:normal;font-variant:normal;font-weight:normal;font-stretch:normal;text-align:center;line-height:125%;writing-mode:lr-tb;text-anchor:middle;font-family:Open Sans;-inkscape-font-specification:Open Sans"
         id="path3794" />
      <path
         d="m 23.533203,1045.4919 0,3.5625 -0.996094,0 0,-8.5664 2.34961,0 c 1.050776,0 1.826166,0.2012 2.326172,0.6036 0.5039,0.4023 0.755852,1.0078 0.755859,1.8164 -7e-6,1.1328 -0.574225,1.8984 -1.722656,2.2968 l 2.326172,3.8496 -1.177735,0 -2.074219,-3.5625 -1.787109,0 m 0,-0.8554 1.365234,0 c 0.703121,0 1.218746,-0.1387 1.546875,-0.416 0.32812,-0.2813 0.492182,-0.7012 0.492188,-1.2598 -6e-6,-0.5664 -0.167974,-0.9746 -0.503906,-1.2246 -0.332036,-0.25 -0.867192,-0.375 -1.605469,-0.375 l -1.294922,0 0,3.2754"
         style="font-size:12px;font-style:normal;font-variant:normal;font-weight:normal;font-stretch:normal;text-align:center;line-height:125%;writing-mode:lr-tb;text-anchor:middle;font-family:Open Sans;-inkscape-font-specification:Open Sans"
         id="path3796" />
      <path
         d="m 40.519531,1044.7595 c -8e-6,1.3711 -0.347664,2.4492 -1.042969,3.2344 -0.691413,0.7852 -1.654302,1.1777 -2.888671,1.1777 -1.261723,0 -2.236331,-0.3847 -2.923829,-1.1543 -0.683594,-0.7734 -1.025391,-1.8632 -1.02539,-3.2695 -10e-7,-1.3945 0.343749,-2.4746 1.03125,-3.2402 0.687497,-0.7696 1.664059,-1.1543 2.929687,-1.1543 1.230463,0 2.1914,0.3906 2.882813,1.1718 0.691398,0.7813 1.037101,1.8594 1.037109,3.2344 m -6.826172,0 c -10e-7,1.1602 0.246092,2.041 0.738282,2.6426 0.49609,0.5977 1.21484,0.8965 2.15625,0.8965 0.949213,0 1.666009,-0.2988 2.15039,-0.8965 0.484368,-0.5977 0.726555,-1.4785 0.726563,-2.6426 -8e-6,-1.1523 -0.242195,-2.0254 -0.726563,-2.6191 -0.480475,-0.5977 -1.193365,-0.8965 -2.138672,-0.8965 -0.949222,0 -1.671878,0.3008 -2.167968,0.9023 -0.49219,0.5977 -0.738283,1.4688 -0.738282,2.6133"
         style="font-size:12px;font-style:normal;font-variant:normal;font-weight:normal;font-stretch:normal;text-align:center;line-height:125%;writing-mode:lr-tb;text-anchor:middle;font-family:Open Sans;-inkscape-font-specification:Open Sans"
         id="path3798" />
      <path
         d="m 43.431641,1049.0544 -0.996094,0 0,-8.5664 4.77539,0 0,0.8848 -3.779296,0 0,3.1348 3.550781,0 0,0.8847 -3.550781,0 0,3.6621"
         style="font-size:12px;font-style:normal;font-variant:normal;font-weight:normal;font-stretch:normal;text-align:center;line-height:125%;writing-mode:lr-tb;text-anchor:middle;font-family:Open Sans;-inkscape-font-specification:Open Sans"
         id="path3800" />
      <path
         d="m 56.697266,1046.6755 c -7e-6,0.7735 -0.279303,1.3829 -0.837891,1.8282 -0.554692,0.4453 -1.328129,0.6679 -2.320313,0.6679 -0.914064,0 -1.722657,-0.1718 -2.425781,-0.5156 l 0,-1.6875 c 0.578124,0.2578 1.066405,0.4395 1.464844,0.5449 0.402341,0.1055 0.769528,0.1582 1.101562,0.1582 0.398434,0 0.703122,-0.076 0.914063,-0.2285 0.21484,-0.1523 0.322261,-0.3789 0.322266,-0.6797 -5e-6,-0.1679 -0.04688,-0.3164 -0.140625,-0.4453 -0.09375,-0.1328 -0.232426,-0.2597 -0.416016,-0.3808 -0.179691,-0.1211 -0.548831,-0.3145 -1.107422,-0.5801 -0.52344,-0.2461 -0.916017,-0.4824 -1.177734,-0.709 -0.26172,-0.2266 -0.470704,-0.4902 -0.626953,-0.791 -0.156251,-0.3008 -0.234376,-0.6524 -0.234375,-1.0547 -10e-7,-0.7578 0.255858,-1.3535 0.767578,-1.7871 0.515623,-0.4336 1.22656,-0.6504 2.132812,-0.6504 0.445309,0 0.869136,0.053 1.271485,0.1582 0.406244,0.1055 0.830072,0.2539 1.271484,0.4453 l -0.585938,1.4121 c -0.457036,-0.1875 -0.835942,-0.3183 -1.136718,-0.3926 -0.296879,-0.074 -0.589848,-0.1113 -0.878907,-0.1113 -0.343753,0 -0.607424,0.08 -0.791015,0.2402 -0.183596,0.1602 -0.275393,0.3692 -0.275391,0.627 -2e-6,0.1602 0.03711,0.3008 0.111328,0.4219 0.07422,0.1172 0.191404,0.2324 0.351563,0.3457 0.164059,0.1094 0.548825,0.3086 1.154297,0.5976 0.800776,0.3828 1.349604,0.7676 1.646484,1.1543 0.296869,0.3828 0.445306,0.8535 0.445313,1.4121"
         style="font-size:12px;font-style:normal;font-variant:normal;font-weight:bold;font-stretch:normal;text-align:center;line-height:125%;writing-mode:lr-tb;text-anchor:middle;font-family:Open Sans;-inkscape-font-specification:Open Sans Bold"
         id="path3802" />
      <path
         d="m 61.888672,1041.8767 c -0.683598,0 -1.212894,0.2578 -1.587891,0.7734 -0.375003,0.5118 -0.562502,1.2266 -0.5625,2.1446 -2e-6,1.9101 0.716794,2.8652 2.150391,2.8652 0.601557,0 1.330072,-0.1504 2.185547,-0.4512 l 0,1.5235 c -0.703131,0.2929 -1.488287,0.4394 -2.355469,0.4394 -1.246097,0 -2.199221,-0.3769 -2.859375,-1.1308 -0.660157,-0.7578 -0.990235,-1.8438 -0.990234,-3.2578 -10e-7,-0.8907 0.162108,-1.67 0.486328,-2.3379 0.324217,-0.6719 0.78906,-1.1856 1.394531,-1.541 0.609372,-0.3594 1.322262,-0.5391 2.138672,-0.5391 0.832026,0 1.667962,0.2012 2.507812,0.6035 l -0.585937,1.4766 c -0.320319,-0.1524 -0.642584,-0.2852 -0.966797,-0.3985 -0.324224,-0.1132 -0.642583,-0.1699 -0.955078,-0.1699"
         style="font-size:12px;font-style:normal;font-variant:normal;font-weight:bold;font-stretch:normal;text-align:center;line-height:125%;writing-mode:lr-tb;text-anchor:middle;font-family:Open Sans;-inkscape-font-specification:Open Sans Bold"
         id="path3804" />
      <path
         d="m 65.890625,1049.0544 0,-8.5664 1.816406,0 0,8.5664 -1.816406,0"
         style="font-size:12px;font-style:normal;font-variant:normal;font-weight:bold;font-stretch:normal;text-align:center;line-height:125%;writing-mode:lr-tb;text-anchor:middle;font-family:Open Sans;-inkscape-font-specification:Open Sans Bold"
         id="path3806" />
      <path
         d="m 74.808594,1049.0544 -4.933594,0 0,-8.5664 4.933594,0 0,1.4883 -3.117188,0 0,1.8809 2.900391,0 0,1.4883 -2.900391,0 0,2.2089 3.117188,0 0,1.5"
         style="font-size:12px;font-style:normal;font-variant:normal;font-weight:bold;font-stretch:normal;text-align:center;line-height:125%;writing-mode:lr-tb;text-anchor:middle;font-family:Open Sans;-inkscape-font-specification:Open Sans Bold"
         id="path3809" />
      <path
         d="m 84.201172,1049.0544 -2.308594,0 -3.726562,-6.4804 -0.05273,0 c 0.07422,1.1445 0.111326,1.9609 0.111328,2.4492 l 0,4.0312 -1.623047,0 0,-8.5664 2.291016,0 3.720703,6.4161 0.04102,0 c -0.0586,-1.1133 -0.0879,-1.9004 -0.08789,-2.3614 l 0,-4.0547 1.634766,0 0,8.5664"
         style="font-size:12px;font-style:normal;font-variant:normal;font-weight:bold;font-stretch:normal;text-align:center;line-height:125%;writing-mode:lr-tb;text-anchor:middle;font-family:Open Sans;-inkscape-font-specification:Open Sans Bold"
         id="path3811" />
      <path
         d="m 89.990234,1041.8767 c -0.683597,0 -1.212894,0.2578 -1.58789,0.7734 -0.375003,0.5118 -0.562503,1.2266 -0.5625,2.1446 -3e-6,1.9101 0.716793,2.8652 2.15039,2.8652 0.601558,0 1.330072,-0.1504 2.185547,-0.4512 l 0,1.5235 c -0.703131,0.2929 -1.488286,0.4394 -2.355469,0.4394 -1.246097,0 -2.199221,-0.3769 -2.859375,-1.1308 -0.660157,-0.7578 -0.990235,-1.8438 -0.990234,-3.2578 -10e-7,-0.8907 0.162109,-1.67 0.486328,-2.3379 0.324217,-0.6719 0.789061,-1.1856 1.394531,-1.541 0.609372,-0.3594 1.322262,-0.5391 2.138672,-0.5391 0.832026,0 1.667963,0.2012 2.507813,0.6035 l -0.585938,1.4766 c -0.320318,-0.1524 -0.642584,-0.2852 -0.966797,-0.3985 -0.324224,-0.1132 -0.642583,-0.1699 -0.955078,-0.1699"
         style="font-size:12px;font-style:normal;font-variant:normal;font-weight:bold;font-stretch:normal;text-align:center;line-height:125%;writing-mode:lr-tb;text-anchor:middle;font-family:Open Sans;-inkscape-font-specification:Open Sans Bold"
         id="path3813" />
      <path
         d="m 98.925781,1049.0544 -4.933594,0 0,-8.5664 4.933594,0 0,1.4883 -3.117187,0 0,1.8809 2.90039,0 0,1.4883 -2.90039,0 0,2.2089 3.117187,0 0,1.5"
         style="font-size:12px;font-style:normal;font-variant:normal;font-weight:bold;font-stretch:normal;text-align:center;line-height:125%;writing-mode:lr-tb;text-anchor:middle;font-family:Open Sans;-inkscape-font-specification:Open Sans Bold"
         id="path3815" />
    </g>
  </g>
</svg>
