<?xml version="1.0" encoding="UTF-8" standalone="no"?>
<svg xmlns:rdf="http://www.w3.org/1999/02/22-rdf-syntax-ns#" xmlns="http://www.w3.org/2000/svg" xml:space="preserve" height="85.957" width="110.95" version="1.1" xmlns:cc="http://creativecommons.org/ns#" xmlns:dc="http://purl.org/dc/elements/1.1/" viewBox="0 0 110.94542 85.957497"><g><path d="m4.1152 1.5698h47.618v14.622h-8.9475l14.281 38.351 14.838-38.351h-10.742v-14.622h46.306v14.622h-10.116l-29.905 68.335h-23.042l-29.819-68.335h-10.47v-14.622z" fill-rule="evenodd" stroke="#000" stroke-miterlimit="2.61"/><path d="m6.1027 3.5948h43.635v10.596h-9.8862l17.221 46.141 17.8-46.141h-11.721v-10.596h42.3v10.596h-9.47l-29.901 68.375h-20.345l-29.766-68.375h-9.8662v-10.596z" stroke="#fff" stroke-miterlimit="2.613" stroke-width=".83125" fill="#c00"/><g fill-rule="evenodd"><path d="m1.4465 35.001c-0.125-1.1962 0.5975-1.2662 1.3675-1.1988 1.5475 0.1075 2.8175 0.03 4.3875 0.0425 2.5475 0.0175 5.68-1.8388 8.0925-1.44 0.8525 0.1675 1.3025 1.6738 0.36875 3.7325 19.844-16.151 56.516-17.618 79.398-0.16375-0.9075-2.8488-0.42-4.365 2.4225-3.61 2.4212 0.64375 2.1562 0.75875 5.2088 1.265 1.835 0.18375 3.74 0.18375 5.7325-0.015 0.88375-0.05125 1.1588 0.50875 0.78375 1.5612l-6.2662 17.525c-0.33125 1.0388-0.37625 1.1738-1.305 1.3425-2.9788 0.675-4.1575 2.555-5.115 6.3562-0.15 0.57875-1.0362 1.2038-1.4125 1.1838-1.485-0.04625-2.3688 0.0275-4.5 0.02375-0.51625 0.0325-0.855-0.14375-1.0175-0.5275-21.709-19.485-52.585-15.992-68.618 0.4225-0.09875 0.135-0.27 0.2425-0.575 0.23125-1.7588-0.1225-1.3338-0.1975-4.5525-0.10625-0.8175-0.10875-1.3075-0.47875-1.6662-1.3312-0.4525-1.1888-0.83375-2.4075-1.3575-3.4825-0.61-1.055-2.16-2.4-3.5362-2.5938-1.2475-0.17375-1.1762-0.73625-1.3362-1.185l-6.5015-18.033z" stroke="#000" stroke-miterlimit="2.61"/><path d="m96.199 33.762c-0.139 1.05 1.62 4.282 3.16 6.402 0.165 0.25 0.054 0.515 0 0.645l-7.697 19.052c1.728-0.165 3.412 0.549 4.209-2.83l7.549-17.183c0.58-1.595 0.47-2.616-1.32-3.881-2.342-1.426-4.503-2.054-5.901-2.205zm-81.637 0.156c-2.564 0.51-3.85 0.965-5.7358 2.076-1.79 1.265-2.0839 2.301-1.2676 4.377 2.7124 5.698 5.2674 11.78 7.6704 18.014 0.63 1.669 1.256 1.508 3.843 1.551l-7.625-18.68c-0.126-0.294-0.195-0.658-0.095-0.86 1.398-2.212 2.612-3.788 3.21-6.478zm92.798 1.473l-3.31 0.005c0.86 1.124 1.84 2.168 0.98 4.879-1.8 4.095-3.82 8.827-5.622 12.922 0.682-0.352 1.282-0.594 1.892-0.756l6.06-17.05zm-100.64 0.129l-3.3204 0.039 6.0645 16.939c0.7401 0.14 1.2491 0.408 1.8891 0.793-1.7992-4.097-3.5897-8.512-5.3872-12.607-1.1524-3.045-0.1498-4.053 0.754-5.164z" transform="translate(-.0026093)" stroke="#000" stroke-miterlimit="2.61" fill="#fff"/><path d="m13.038 40.726c18.986-19.519 61.054-22.084 84.618-0.245l-7.5275 18.764c-23.319-19.454-50.842-15.742-69.48 0.12l-7.61-18.639z" fill="#fff"/><path d="m51.881 29.314-2.0586 10.543-1.0215-0.0039-0.01172 2.8145 4.4492 0.01563 0.41602-3.2539 2.2539 0.0059 0.41211 3.2578 4.5234 0.01953 0.0098-2.8164-0.94336-0.0039-1.9648-10.561-6.0645-0.01758zm-4.7617 0.1875-11.564 2.3926 1.0176 4.9004 2.6777-0.55469-0.44727-2.166 1.248-0.25976 1.5703 7.5977-1.0176 0.21289 0.56836 2.752 5.75-1.1895-0.56836-2.752-1.0195 0.21094-1.5684-7.5996 1.2402-0.25976 0.44727 2.1719 2.6816-0.55273-1.0156-4.9043zm15.176 0.13281-0.99024 4.9102 2.6777 0.53711 0.44141-2.166 1.2441 0.25-1.5391 7.6035-1.0156-0.20508-0.55664 2.7598 5.7559 1.1602 0.55664-2.7598-1.0195-0.20508 1.5371-7.6035 1.2461 0.25-0.44141 2.1699 2.6816 0.54102 0.98828-4.9062-11.566-2.3359zm-7.457 1.9609 0.84766 5.3945-1.752-0.0059 0.9043-5.3887zm21.881 1.1133-1.0742 2.5762 0.99219 0.41406-2.9902 7.1602-0.99219-0.41406-1.084 2.5977 9.4512 3.9453 1.7656-4.2305-3.0371-1.2695-0.68164 1.6387-1.9727-0.82617 1.082-2.5938 2.6289 1.0957 0.94141-2.2559-2.6289-1.0977 0.96484-2.3086 1.9727 0.82227-0.57227 1.3672 2.8613 1.1992 1.6484-3.9473-9.2754-3.873zm-44.438 0.47656-5.9688 2.4102c-1.4462 0.5825-1.9883 1.9038-1.3633 3.4551l0.92188 2.2871c0.63 1.5525 1.9419 2.1241 3.3906 1.5391l2.998-1.2109 1.0098 2.5-1.9277 0.7793-0.50195-1.2344-3.2676 1.3203 1.5566 3.8379 6.1914-2.5c1.4462-0.585 1.987-1.9227 1.3633-3.459l-1.0293-2.5547c-0.62125-1.5338-1.9378-2.1221-3.3828-1.5371l-2.9277 1.1797-0.91211-2.248 1.9297-0.7793 0.43945 1.0879 2.9668-1.1953-1.4863-3.6777z" stroke="#000" stroke-miterlimit="2.61"/></g></g></svg>
