<svg xmlns="http://www.w3.org/2000/svg" height="110.59" viewBox="0 0 250 110.58923" width="250"><g transform="matrix(1.25 0 0 -1.25 -376.86 438.79)"><g><path d="m84.1 1.1191c-2.958 0.0138-5.999 1.1553-8.551 3.2129-2.442 1.9702-4.181 4.6587-4.895 7.568l-2.308 9.348h12.39l-6.373 25.391h10.6c2.903 0 5.466-0.662 7.615-1.969 1.052-0.639 1.979-1.417 2.76-2.315l4.287-4.925 0.072 9.209h10.873c2.49-0.012 5.08-0.907 7.28-2.524l1.58-1.162 1.49 1.274c1.85 1.579 4.1 2.412 6.51 2.412h8l2.58-5.118 2.38 1.901c3.69 2.943 8.32 3.562 11.56 3.562h0.12c10.56-0.049 19.4-6.779 21.99-16.744l7.36-29.121-11.58 0.0001c-2.65 0-5.31 0.952-7.48 2.6797-0.43 0.3377-0.83 0.705-1.21 1.0899l-1.91 1.9629-1.76-2.1016c-1.93-2.3071-4.82-3.6309-7.94-3.6309h-6.04c-2.71 0.0132-5.35 0.8898-7.62 2.5352l-1.57 1.1367-1.48-1.2539c-1.84-1.5589-4.18-2.4178-6.6-2.418h-42.13zm-80.957 53.906l2.5898 9.961c0.7402 2.877 2.424 5.469 4.7536 7.332l-9.6051 37.392h10.387c6.307 0 11.808-4.27 13.377-10.374l1.707-6.566c1.541-0.378 8.143-2.06 11.097-2.821l-2.601 10.601h68.822c2.84 1.99 6.27 3.12 9.78 3.12h4.86l0.84-3.12h61.15c3.7 0 9.9-2.558 12.09-8.239 0.2-0.519 0.7-0.854 1.27-0.854 0.38 0 0.74 0.153 1 0.422l5.98 6.5 0.02 0.019c1.46 1.426 3.49 2.152 6.03 2.152h21.24c3.57-0.01 6.93-1.121 9.72-3.218 2.82-2.122 4.77-5.054 5.65-8.484l0.93-3.752c1.03-4.154 0.13-8.491-2.46-11.897-0.18-0.233-0.36-0.463-0.55-0.685 3.1-2.283 5.3-5.695 6.06-9.448l1.6-8.041h-26.47c-3.88 0.023-8.31 1.802-10.79 4.289-1.16-1.175-5.05-4.289-13.49-4.289h-151.97l-1.109 4.352c-4.686-3.581-9.185-4.352-12.186-4.352h-29.722z" transform="matrix(.8 0 0 -.8 301.48 351.04)" fill="#850928"/><path d="m84.127 7.4277c-1.604 0.0074-3.397 0.7302-4.637 1.795-1.239 1.0643-1.748 1.8053-2.07 2.4683s-0.556 1.166-0.705 1.78l-0.387 1.564h0.002 12.422l-6.373 25.363h2.545c2.701 0 5.2-0.957 6.207-2.916 0.346-0.674 0.512-1.018 0.668-1.628l5.158-20.819h7.673c0.61 0 1.1 0.491 1.1 1.098l0.16 24.265h4.6c2.11-0.009 4.29-1.342 5.42-3.285 0.08-0.135 6.93-14.045 6.93-14.045l0.18 12.047c0.04 2.551 1.74 5.283 4.37 5.283h4.17l12.61-25.146c0.06-0.105 0.19-0.172 0.31-0.172 0.12 0.001 0.21 0.07 0.18 0.213l-3.15 12.764c-0.9 3.675-0.4 6.86 1.46 9.211 1.89 2.396 4.99 3.503 8.94 3.503 2.34 0 4.67-0.445 6.82-1.357 2.04-0.865 5.21-3.231 6.61-5.193 1.07-1.5 2.28-4.176 2.64-5.561l5.37-21.232-3.51-0.0003c-2.09 0-4.14 1.2963-5.17 3.1663 0 0-0.35 0.593-0.57 1.412-0.07 0.271-4 15.748-4 15.748-0.19 0.795-0.49 1.57-0.92 2.273-1.24 2.037-3.33 3.204-5.91 3.215h-0.02c-1.08 0-2.52-0.205-3.31-1.211-0.82-1.036-0.67-2.577-0.4-3.687l3.9-15.948c0.34-1.333 0.06-2.5456-0.7-3.5151-0.74-0.9548-1.88-1.4532-3.2-1.4532h-6.01c-2.4 0.0116-4.77 1.4069-6.02 3.6113 0 0-0.18 0.316-0.26 0.481l-6.88 14.255-0.19-14.476c-0.03-2.1624-1.79-3.8713-3.95-3.8713h-3.23l-9.26 18.351 0.23-14.039c0.02-1.186-0.39-2.3122-1.16-3.0955-0.76-0.7732-1.84-1.1865-3.04-1.2168h-25.643zm-73.387 53.797l0.576 2.16c0.749 2.907 3.133 5.142 6.014 5.642l-8.8554 34.383h2.3104c3.445 0 6.452-2.34 7.309-5.672l7.373-28.711h2.486s7.57-0.207 7.57 5.834c0 7.401-7.867 9.737-9.964 10.983-0.35 0.207-0.105 0.743 0.279 0.609 4.425-1.541 18.582-1.876 18.582-14.764 0-9.114-10.175-10.358-16.92-10.464h-16.76zm39.836 0l-8.279 32.968h2.547c3.305 0 6.022-1.293 6.842-4.494l7.054-28.474h-8.164zm18.256 0c-3.329 0-6.236 2.188-7.062 5.412l-7.043 27.556h20.451c3.415 0 6.396-2.378 7.244-5.685l7.008-27.283h-20.598zm24.91 0l-8.447 32.968h8.164l4.961-19.431 4.16 14.785c1.31 4.646 5.55 7.857 10.38 7.857l7.19-28.336c0.02-0.075 0.03-0.149 0.05-0.224 0.61 0.159 1.25 0.231 1.9 0.23h2.66l-6.4 25.119h18.74c3.45 0.003 6.46-2.391 7.32-5.726l0.57-2.065h-16.47l1.18-5.17h10.44c3.44 0.003 6.45-1.952 7.31-5.287l0.58-2.213h-16.3l1.19-4.658h21.32l-6.39 25.119h18.95c3.44 0.003 6.45-2.391 7.31-5.726l0.58-2.065h-16.69l1.18-5.17h10.44c3.44 0.003 6.45-1.952 7.31-5.287l0.58-2.213h-16.3l1.18-4.658 21.17-0.008-6.05 25.129h2.31c3.44 0 6.45-2.399 7.31-5.734l4.6-19.387c0.28-0.004 0.36 0 0.36 0h2.5s4.6-0.135 7.01 2.235c0.01 0.026 0.02 0.047 0.03 0.074 2.53 5.314-5.24 6.616-6.8 7.221-1.56 0.604-0.64 2.371-0.64 2.371l9.96 10.63c1.54 1.648 3.7 2.59 5.96 2.59h17.32c4.39-0.008 8.23-2.647 9.32-6.902l0.91-3.699c1.2-4.839-2.38-9.714-7.36-9.86h-6.59c-0.86-0.025-1.48-0.87-1.25-1.703l0.73-2.957h8.34c4.43-0.002 8.24-3.509 9.13-7.849h-18.7c-3.37 0.018-6.27 2.772-6.97 6.072l-1.24 5.885c-1.05 3.607 1.63 8.004 5.39 8.05h9.32c0.82 0.017 1.41 0.125 1.2 0.918l-0.14 1.522c-0.59 1.907-2.37 2.777-4.36 2.73h-10.86c-0.83 0.001-1.76-0.031-2.75 0-0.89 0.028-1.74-0.268-2.34-0.922l-4.82-5.283c3.81-1.062 7.22-3.413 7.22-8.814 0-9.308-10.56-10.118-18-10.158h-79.61l-5.36 20.837-5.89-20.837h-9.008zm-22.594 7.849h8.151l-3.99 15.342c-0.306 1.191-1.378 1.984-2.608 1.986h-7.846l4.069-15.828c0.26-1.016 1.175-1.499 2.224-1.5z" transform="matrix(.8 0 0 -.8 301.48 351.04)" fill="#fff"/></g></g></svg>
