<?xml version="1.0" encoding="UTF-8" standalone="no"?>
<!-- Created with Inkscape (http://www.inkscape.org/) -->

<svg
   xmlns:dc="http://purl.org/dc/elements/1.1/"
   xmlns:cc="http://creativecommons.org/ns#"
   xmlns:rdf="http://www.w3.org/1999/02/22-rdf-syntax-ns#"
   xmlns:svg="http://www.w3.org/2000/svg"
   xmlns="http://www.w3.org/2000/svg"
   version="1.1"
   width="194.27591"
   height="146.73885"
   id="svg6718"
   xml:space="preserve"><metadata
     id="metadata6724"><rdf:RDF><cc:Work
         rdf:about=""><dc:format>image/svg+xml</dc:format><dc:type
           rdf:resource="http://purl.org/dc/dcmitype/StillImage" /><dc:title></dc:title></cc:Work></rdf:RDF></metadata><defs
     id="defs6722"><clipPath
       id="clipPath6732"><path
         d="m 0,0 1003.465,0 0,708.661 L 0,708.661 0,0 z"
         id="path6734" /></clipPath><clipPath
       id="clipPath6740"><path
         d="m -1003.465,7906.769 1505.197,0 0,-15104.882 -1505.197,0 0,15104.882 z"
         id="path6742" /></clipPath><clipPath
       id="clipPath6752"><path
         d="m 8.616,-13.339 -438.462,0 0,-272.126 438.462,0 0,272.126 z"
         id="path6754" /></clipPath><clipPath
       id="clipPath6794"><path
         d="m 501.732,7906.769 1505.197,0 0,-15104.882 -1505.197,0 0,15104.882 z"
         id="path6796" /></clipPath><clipPath
       id="clipPath6804"><path
         d="m 8.616,-13.339 -438.462,0 0,-272.126 438.462,0 0,272.126 z"
         id="path6806" /></clipPath><clipPath
       id="clipPath6740-1"><path
         d="m -1003.465,7906.769 1505.197,0 0,-15104.882 -1505.197,0 0,15104.882 z"
         id="path6742-4" /></clipPath><clipPath
       id="clipPath6752-2"><path
         d="m 8.616,-13.339 -438.462,0 0,-272.126 438.462,0 0,272.126 z"
         id="path6754-3" /></clipPath><clipPath
       id="clipPath6752-2-2"><path
         d="m 8.616,-13.339 -438.462,0 0,-272.126 438.462,0 0,272.126 z"
         id="path6754-3-2" /></clipPath></defs><g
     transform="matrix(1.25,0,0,-1.25,-657.78494,610.22426)"
     id="g6726"><g
       transform="matrix(0.53081055,0,0,0.53081055,319.82237,229.04863)"
       id="g7333"><g
         transform="matrix(1.0630493,0,0,-1.0641785,801.81895,184.39369)"
         id="g6748"><g
           clip-path="url(#clipPath6752-2-2)"
           id="g6750"><path
             d="m -250.757,-353.082 c -76.059,0 -137.719,61.661 -137.719,137.718 0,76.061 61.66,137.716 137.719,137.716 76.063,0 137.714,-61.655 137.714,-137.716 0,-76.057 -61.651,-137.718 -137.714,-137.718"
             id="path6756"
             style="fill:#000000;fill-opacity:1;fill-rule:nonzero;stroke:none" /></g></g><g
         transform="matrix(1.0630493,0,0,-1.0641785,801.81895,184.39369)"
         id="g6758"><path
           d="m -362.907,-250.366 5.096,0 0,12.957 c 0,5.451 -0.067,6.694 -0.407,11.724 l 0.278,0.066 c 2.616,-3.859 6.066,-5.72 10.538,-5.72 8.618,0 14.348,6.204 14.348,15.516 0,9.091 -6.001,15.506 -14.412,15.506 -4.55,0 -8.202,-2.065 -10.549,-5.852 l -0.203,0.061 c 0.34,1.245 0.407,1.863 0.407,2.616 l 0,1.925 -5.096,0 0,-48.799 z m 5.096,34.404 c 0,6.543 4.005,11.099 9.663,11.099 5.644,0 9.642,-4.626 9.642,-11.166 0,-6.417 -3.929,-10.835 -9.642,-10.835 -5.726,0 -9.663,4.491 -9.663,10.902"
           id="path6760"
           style="fill:#ffffff;fill-opacity:1;fill-rule:nonzero;stroke:none" /></g><g
         transform="matrix(1.0630493,0,0,-1.0641785,801.81895,184.39369)"
         id="g6762"><path
           d="m -303.691,-206.169 c -2.265,3.787 -5.926,5.781 -10.611,5.781 -8.476,0 -14.269,-6.206 -14.269,-15.164 0,-9.374 5.927,-15.856 14.684,-15.856 4.696,0 8.482,2.205 10.196,5.86 l 0.284,-0.071 c -0.348,-1.174 -0.415,-1.579 -0.415,-2.684 l 0,-1.932 5.03,0 0,28.668 -5.03,0 0,-1.987 c 0,-1.246 0.067,-1.521 0.346,-2.554 l -0.215,-0.061 z m -19.498,-9.793 c 0,6.685 3.782,11.026 9.642,11.026 5.799,0 9.725,-4.414 9.725,-10.887 0,-6.487 -3.993,-10.97 -9.859,-10.97 -5.657,0 -9.508,4.42 -9.508,10.831"
           id="path6764"
           style="fill:#ffffff;fill-opacity:1;fill-rule:nonzero;stroke:none" /></g><g
         transform="matrix(1.0630493,0,0,-1.0641785,801.81895,184.39369)"
         id="g6766"><path
           d="m -292.933,-230.235 5.101,0 0,2.065 c 0,0.762 -0.14,1.377 -0.489,2.896 l 0.276,0.066 c 1.933,-3.855 4.414,-5.576 8.004,-5.576 2.073,0 3.517,0.48 5.373,1.924 l -2.826,3.934 c -1.515,-0.962 -2.547,-1.312 -3.786,-1.312 -3.797,0 -6.552,4.278 -6.552,10.132 l 0,14.539 -5.101,0 0,-28.668 z"
           id="path6768"
           style="fill:#ffffff;fill-opacity:1;fill-rule:nonzero;stroke:none" /></g><g
         transform="matrix(1.0630493,0,0,-1.0641785,801.81895,184.39369)"
         id="g6770"><path
           d="m -270.831,-250.366 5.108,0 0,12.957 c 0,5.451 -0.07,6.694 -0.417,11.724 l 0.28,0.066 c 2.616,-3.859 6.057,-5.72 10.541,-5.72 8.625,0 14.339,6.204 14.339,15.516 0,9.091 -6,15.506 -14.408,15.506 -4.548,0 -8.205,-2.065 -10.552,-5.852 l -0.2,0.061 c 0.347,1.245 0.417,1.863 0.417,2.616 l 0,1.925 -5.108,0 0,-48.799 z m 5.108,34.404 c 0,6.543 3.989,11.099 9.646,11.099 5.651,0 9.644,-4.626 9.644,-11.166 0,-6.417 -3.924,-10.835 -9.644,-10.835 -5.73,0 -9.646,4.491 -9.646,10.902"
           id="path6772"
           style="fill:#ffffff;fill-opacity:1;fill-rule:nonzero;stroke:none" /></g><g
         transform="matrix(1.0630493,0,0,-1.0641785,801.81895,184.39369)"
         id="g6774"><path
           d="m -229.359,-240.644 c 0,1.927 -1.583,3.506 -3.519,3.506 -1.863,0 -3.454,-1.579 -3.454,-3.506 0,-1.867 1.591,-3.444 3.454,-3.444 1.936,0 3.519,1.577 3.519,3.444 m -5.997,10.409 5.094,0 0,28.669 -5.094,0 0,-28.669 z"
           id="path6776"
           style="fill:#ffffff;fill-opacity:1;fill-rule:nonzero;stroke:none" /></g><g
         transform="matrix(1.0630493,0,0,-1.0641785,801.81895,184.39369)"
         id="g6778"><path
           d="m -200.545,-202.593 c -2.479,1.448 -5.302,2.14 -8.613,2.14 -9.441,0 -15.641,-6.068 -15.641,-15.299 0,-9.312 6.263,-15.52 15.714,-15.52 3.038,0 5.72,0.624 8.54,2.003 l 0,5.855 c -1.994,-2.071 -4.958,-3.233 -8.264,-3.233 -6.066,0 -10.478,4.543 -10.478,10.824 0,6.271 4.412,10.748 10.613,10.748 3.313,0 6.279,-1.167 8.129,-3.175 l 0,5.657 z"
           id="path6780"
           style="fill:#ffffff;fill-opacity:1;fill-rule:nonzero;stroke:none" /></g><g
         transform="matrix(1.0630493,0,0,-1.0641785,801.81895,184.39369)"
         id="g6782"><path
           d="m -171.897,-206.169 c -2.28,3.787 -5.939,5.781 -10.622,5.781 -8.484,0 -14.266,-6.206 -14.266,-15.164 0,-9.374 5.928,-15.856 14.681,-15.856 4.692,0 8.476,2.205 10.207,5.86 l 0.271,-0.071 c -0.35,-1.174 -0.41,-1.579 -0.41,-2.684 l 0,-1.932 5.029,0 0,28.668 -5.029,0 0,-1.987 c 0,-1.246 0.06,-1.521 0.346,-2.554 l -0.207,-0.061 z m -19.511,-9.793 c 0,6.685 3.785,11.026 9.648,11.026 5.791,0 9.724,-4.414 9.724,-10.887 0,-6.487 -4.001,-10.97 -9.859,-10.97 -5.651,0 -9.513,4.42 -9.513,10.831"
           id="path6784"
           style="fill:#ffffff;fill-opacity:1;fill-rule:nonzero;stroke:none" /></g><g
         transform="matrix(1.0630493,0,0,-1.0641785,801.81895,184.39369)"
         id="g6786"><path
           d="m -142.154,-201.567 0,-16.949 c 0,-4.967 -2.409,-7.787 -6.69,-7.787 -4.138,0 -7.172,3.309 -7.172,7.856 l 0,16.88 -5.102,0 0,-28.668 5.102,0 0,1.656 c 0,0.684 -0.066,1.171 -0.417,2.276 l 0.286,0.065 c 2.136,-3.24 4.885,-4.823 8.484,-4.823 7.032,0 10.607,4.132 10.607,12.205 l 0,17.289 -5.098,0 z"
           id="path6788"
           style="fill:#ffffff;fill-opacity:1;fill-rule:nonzero;stroke:none" /></g></g></g></svg>