<?xml version="1.0" encoding="UTF-8" standalone="no"?>
<svg xmlns:rdf="http://www.w3.org/1999/02/22-rdf-syntax-ns#" xmlns="http://www.w3.org/2000/svg" xml:space="preserve" height="104.07" viewBox="0 0 104.4837 104.06809" width="104.48" version="1.1" xmlns:cc="http://creativecommons.org/ns#" xmlns:dc="http://purl.org/dc/elements/1.1/"><g transform="matrix(1.25 0 0 -1.25 -444.47 318.75)"><g transform="translate(.75686 .75686)"><g><path d="m406.76 227.51v-8.706l-5.177-4.839h-6.293v-8.964h15.447v4.081h9.003v-7.744l-4.856-5.168h-23.401l-4.919 5.246v12.532h-7.671l-5.324 4.84v27.877l-2.951 5.534h14.68l-2.777-5.565v-23.928h4.043v8.412l4.829 5.283h6.604v10.294l-3.162 5.515h14.677l-2.749-5.576v-10.215h8.111l4.863-5.236v-7.262h-9.013v3.589h-3.964z" fill="#fff"/><path d="m406.76 227.51v-8.706l-5.177-4.839h-6.292v-8.964h15.446v4.081h9.003v-7.744l-4.856-5.168h-23.401l-4.918 5.246v12.532h-7.672l-5.324 4.84v27.877l-2.951 5.534h14.68l-2.776-5.565v-23.928h4.043v8.412l4.829 5.283h6.603v10.294l-3.162 5.515h14.677l-2.749-5.576v-10.215h8.111l4.863-5.236v-7.262h-9.013v3.589h-3.964z" fill="#fff"/><path d="m368.69 253.4 3.6797-7.0328v-28.088l6.0844-5.5219h6.8891v-11.759l5.6406-6.0188h24.386l5.5422 5.875v9.4219h-11.391v-4.0453h-12.978v6.5531h5.4797l5.9031 5.4937v8.0609h1.5938v-3.6125h11.386v8.9062l-5.5516 5.9797h-7.4203v8.6844l3.4281 7.0859h-18.533l3.975-6.9688v-8.8047h-5.9031l-5.5281-6.0563v-7.6531h-1.6828v22.436l3.5047 7.0641h-18.505zm26.133-1.1906h14.675l-2.7484-5.5766v-10.214h8.1125l4.8609-5.2359v-7.2625h-9.0109v3.5891h-3.9641v-8.7063l-5.1781-4.8391h-6.2922v-8.9641h15.447v4.0812h9.0031v-7.7438l-4.8562-5.1688h-23.402l-4.9172 5.2469v12.531h-7.6719l-5.325 4.8406v27.877l-2.95 5.5344h14.68l-2.7766-5.5656v-23.927h4.0438v8.4109l4.8281 5.2828h6.6031v10.294l-3.1609 5.5156zm-2.9188-16.977-4.1578-4.5266 0.24844-28.841 4.1547-4.4797h22.273l4.1328 4.4578v6.0594h-6.65v-4.0922h-17.786v24.869h3.875v6.5531h-6.0906zm14.839 0v-6.5531h5.1625v-3.5938-0.003h6.65v0.003 5.6516l-4.1453 4.4953h-7.6672zm-11.466-7.7391v-4.7656h2.7406v4.7656h-2.7406zm0.8625-1.1469h0.96094v-2.3969h-0.96094v2.3969z" fill="#2d6cc0"/><path d="m411.87 225.1h6.642v0.003h-6.642v-0.003z" fill="#231f20"/><path d="m372.48 251.03 2.2891-4.2719v-27.459l4.525-4.1562h7.2812v6.3734h-5.2562v25.242l2.1 4.2719h-10.939zm24.234 0 2.4359-4.2719v-25.242h-3.8594v-6.3734h5.8062l4.4812 4.1562v27.459l2.0766 4.2719h-10.941zm-36.475-59.295-0.0813-0.24531c-1.38-4.251-2.7596-8.501-4.1406-12.75-0.027-0.083-0.0552-0.16544-0.0812-0.24844 0.094-0.03 0.18781-0.0602 0.28281-0.0922 0.681-0.219 1.3644-0.43162 2.0484-0.64062 0.095-0.029 0.19038-0.0569 0.28438-0.0859 0.001 0.005 0.003 0.009 0.005 0.0141 0.0152-0.005 0.0301-0.009 0.0453-0.0141 0.025 0.083 0.049 0.16488 0.075 0.24688 0.50257 1.6653 1.0042 3.3316 1.5078 4.9969 0.45893-0.14698 0.91823-0.29242 1.3781-0.43281-0.175-1.772-0.33794-3.5459-0.48594-5.3219-0.007-0.074-0.0133-0.14631-0.0203-0.22031 0.081-0.023 0.16119-0.0436 0.24219-0.0656 0.725-0.202 1.4522-0.3985 2.1812-0.5875 0.119-0.031 0.23825-0.0628 0.35625-0.0937 0.00003 0.004-0.00004 0.008 0 0.0125 0.0165-0.004 0.0335-0.008 0.05-0.0125 0.001 0.109 0.001 0.218 0.003 0.325 0.023 1.979 0.0672 3.9551 0.13125 5.9281 0.507 0.253 1.0109 0.50919 1.5109 0.76719 0.034 0.018 0.0681 0.0367 0.10313 0.0547 0.009 0.035 0.0181 0.0712 0.0281 0.10625 0.394 1.534 0.78937 3.0681 1.1844 4.6031 0.009 0.031 0.017 0.0639 0.025 0.0969-0.016 0.029-0.033 0.0601-0.05 0.0891-0.336 0.61-0.66819 1.2208-0.99219 1.8328-0.018 0.034-0.0351 0.0681-0.0531 0.10313-0.037 0.009-0.0745 0.0197-0.1125 0.0297-1.716 0.468-3.4229 0.97644-5.1219 1.5234-0.084 0.028-0.16812 0.0542-0.25312 0.0812-0.001-0.005-0.003-0.009-0.005-0.0141-0.0151 0.005-0.0301 0.009-0.0453 0.0141zm72.497-0.0203c-0.084-0.027-0.16869-0.0553-0.25469-0.0812-1.521-0.491-3.0515-0.948-4.5875-1.375-0.085-0.023-0.17125-0.0458-0.25625-0.0688 0.023-0.083 0.0457-0.16757 0.0688-0.25157 1.184-4.308 2.3691-8.6176 3.5531-12.927 0.023-0.083 0.0457-0.166 0.0687-0.25 0.0155 0.004 0.0313 0.008 0.0469 0.0125 0.001-0.004 0.002-0.008 0.003-0.0125 0.095 0.026 0.18994 0.0527 0.28594 0.0797 1.742 0.483 3.4777 1.0024 5.2047 1.5594 0.095 0.031 0.18837 0.0596 0.28437 0.0906-0.028 0.082-0.0542 0.16544-0.0812 0.24844-0.234 0.72-0.46913 1.4399-0.70313 2.1609-0.026 0.081-0.0527 0.16332-0.0797 0.24532-0.0152-0.005-0.0302-0.009-0.0453-0.0141-0.002 0.005-0.003 0.009-0.005 0.0141-0.093-0.031-0.18356-0.0606-0.27656-0.0906-0.76296-0.24614-1.53-0.48483-2.2969-0.71562-0.28056 0.92827-0.56006 1.8577-0.84063 2.7859 0.625 0.188 1.2489 0.38169 1.8719 0.57969 0.09 0.029 0.18188 0.0559 0.27188 0.0859-0.027 0.082-0.0527 0.16644-0.0797 0.24844-0.207 0.644-0.41432 1.2878-0.62032 1.9328-0.027 0.083-0.0537 0.16388-0.0797 0.24688-0.0153-0.005-0.0301-0.009-0.0453-0.0141-0.002 0.005-0.003 0.009-0.005 0.0141-0.089-0.028-0.17762-0.0564-0.26562-0.0844-0.5954-0.18935-1.1926-0.37481-1.7891-0.55469-0.27159 0.90327-0.54305 1.8077-0.81562 2.7109 0.71 0.214 1.4186 0.4355 2.1266 0.6625 0.086 0.028 0.17237 0.0548 0.25937 0.0828-0.027 0.083-0.0532 0.16488-0.0812 0.24688-0.235 0.728-0.47182 1.4569-0.70782 2.1859-0.026 0.081-0.0527 0.16331-0.0797 0.24531-0.0149-0.005-0.0304-0.009-0.0453-0.0141-0.002 0.005-0.003 0.009-0.005 0.0141zm-9.4734-2.6391c-0.045-0.01-0.0894-0.0207-0.13438-0.0297-1.687-0.388-3.3796-0.73588-5.0766-1.0469-0.086-0.015-0.17338-0.0309-0.25938-0.0469 0.015-0.085 0.0309-0.16969 0.0469-0.25469 0.81-4.396 1.6181-8.7909 2.4281-13.186 0.015-0.084 0.0319-0.1697 0.0469-0.2547 0.016 0.003 0.0324 0.005 0.0484 0.008 0.00047-0.002 0.001-0.006 0.002-0.008 0.097 0.017 0.19363 0.0346 0.29063 0.0516 1.932 0.356 3.8612 0.75388 5.7812 1.1969 0.051 0.011 0.10369 0.0239 0.15469 0.0359 0.019 0.045 0.0404 0.0888 0.0594 0.13282 0.368 0.824 0.72756 1.6496 1.0766 2.4766 0.011 0.025 0.0213 0.05 0.0312 0.075-0.006 0.026-0.0117 0.0521-0.0187 0.0781l-2.1922 8.8015c-0.006 0.026-0.0149 0.0527-0.0219 0.0797-0.02 0.018-0.0415 0.0361-0.0625 0.0531-0.692 0.577-1.3744 1.1604-2.0484 1.7484-0.034 0.03-0.0676 0.0591-0.10156 0.0891-0.013-0.003-0.026-0.006-0.0391-0.009-0.004 0.003-0.007 0.006-0.0109 0.009zm-53.422-0.0141c-0.02-0.084-0.0404-0.16812-0.0594-0.25312-1.017-4.352-2.0314-8.7032-3.0484-13.056-0.018-0.084-0.0378-0.16757-0.0578-0.25157 0.096-0.023 0.19207-0.0452 0.28907-0.0672 0.72-0.167 1.4416-0.32781 2.1656-0.48281 0.094-0.02 0.19306-0.0399 0.28906-0.0609 0.00066 0.003 0.00088 0.006 0.002 0.009 0.0162-0.003 0.0322-0.006 0.0484-0.009 0.018 0.085 0.0361 0.17069 0.0531 0.25469 0.923 4.373 1.8442 8.7442 2.7672 13.117 0.018 0.085 0.0351 0.16968 0.0531 0.25468-0.085 0.017-0.17338 0.0367-0.25938 0.0547-0.646 0.138-1.2904 0.28069-1.9344 0.42969-0.086 0.021-0.17182 0.0409-0.25782 0.0609-0.00088-0.004-0.002-0.007-0.003-0.0109-0.0157 0.004-0.0312 0.007-0.0469 0.0109zm-7.9469-0.48281c0.78254-0.23534 1.5667-0.46446 2.3531-0.68438-0.30571-1.0954-0.61205-2.1906-0.91875-3.2859-0.80914 0.22595-1.615 0.45985-2.4203 0.70312 0.32971 1.0888 0.65722 2.1794 0.98594 3.2672zm12.664-0.51719c-0.005-0.099-0.009-0.19687-0.0141-0.29687-0.221-4.506-0.37-9.0223-0.45-13.545-0.002-0.075-0.002-0.149-0.003-0.225 0.083-0.015 0.16812-0.0298 0.25312-0.0438 1.441-0.247 2.8852-0.47019 4.3312-0.66719 0.082-0.012 0.16644-0.0239 0.24844-0.0359 0.00067 0.002 0.00088 0.004 0.002 0.006 0.0161-0.002 0.0324-0.004 0.0484-0.006 0.024 0.071 0.0468 0.13994 0.0688 0.21094 1.427 4.317 2.7691 8.6532 4.0281 13.006 0.028 0.098 0.0554 0.19675 0.0844 0.29375-0.104 0.012-0.20481 0.0239-0.30781 0.0359-0.77 0.09-1.5404 0.18931-2.3094 0.29531-0.075 0.01-0.15056 0.0203-0.22656 0.0312-0.0006-0.002-0.00096-0.004-0.002-0.006-0.0161 0.002-0.0322 0.004-0.0484 0.006-0.021-0.073-0.0415-0.14362-0.0625-0.21562-0.96126-3.2725-1.9637-6.5356-3.0078-9.7891-0.0679 0.0103-0.13677 0.0207-0.20468 0.0312 0.049 3.408 0.13694 6.8131 0.26094 10.214 0.002 0.076 0.005 0.15213 0.008 0.22813-0.076 0.013-0.15369 0.0261-0.22969 0.0391-0.707 0.12-1.4138 0.24556-2.1188 0.37656-0.1 0.019-0.20044 0.0383-0.29844 0.0563-0.00016-0.003 0.00016-0.006 0-0.009-0.0166 0.003-0.0334 0.006-0.05 0.009zm40.556-0.59062c-0.088-0.014-0.17394-0.0266-0.26094-0.0406-0.65-0.104-1.3011-0.20019-1.9531-0.29219-0.086-0.012-0.17494-0.0245-0.26094-0.0375 0.012-0.086 0.0239-0.17025 0.0359-0.25625 0.614-4.426 1.2261-8.8537 1.8391-13.28 0.013-0.086 0.0245-0.17125 0.0375-0.25625 0.0161 0.002 0.0323 0.004 0.0484 0.006 0.00032-0.002 0.001-0.004 0.002-0.006 0.097 0.013 0.19363 0.0266 0.29063 0.0406 0.729 0.102 1.4589 0.21256 2.1859 0.32656 0.096 0.016 0.19262 0.0303 0.29062 0.0453-0.014 0.086-0.0276 0.17182-0.0406 0.25782-0.709 4.412-1.417 8.8239-2.125 13.236-0.013 0.085-0.0261 0.17025-0.0391 0.25625-0.0163-0.003-0.0322-0.005-0.0484-0.008-0.0004 0.003-0.001 0.005-0.002 0.008zm-6.9562-0.90313c-0.04-0.004-0.0787-0.008-0.11875-0.0109-1.092-0.108-2.1867-0.20113-3.2797-0.27813-0.043-0.003-0.0846-0.006-0.12656-0.009-0.025-0.034-0.0489-0.0681-0.0719-0.10313-0.472-0.683-0.95319-1.3611-1.4422-2.0391-0.017-0.024-0.0351-0.0484-0.0531-0.0734 0.002-0.03 0.003-0.0591 0.005-0.0891 0.07-1.269 0.13938-2.5388 0.20938-3.8078l0.003-0.0594c0.011-0.017 0.0213-0.0351 0.0312-0.0531 0.244-0.408 0.49106-0.81644 0.73906-1.2234 0.018-0.032 0.0367-0.0622 0.0547-0.0922 0.037-0.01 0.0724-0.0201 0.10937-0.0281 1.338-0.348 2.688-0.67413 4.05-0.97813 0.08-0.851 0.1575-1.7027 0.2375-2.5547-0.78232-0.0725-1.5645-0.13784-2.3469-0.19687-0.0189 0.25945-0.0395 0.52024-0.0594 0.77969-0.005 0.086-0.0117 0.17181-0.0187 0.25781l-0.05-0.003c-0.00009 0.001 0.00008 0.002 0 0.003l-0.28594-0.0219c-0.648-0.046-1.2952-0.088-1.9422-0.125-0.095-0.006-0.18993-0.0106-0.28593-0.0156 0.005-0.087 0.0101-0.17337 0.0141-0.25937 0.021-0.375 0.0425-0.75 0.0625-1.125 0.002-0.029 0.003-0.0601 0.005-0.0891 0.022-0.023 0.0436-0.0452 0.0656-0.0672 0.596-0.617 1.2032-1.2274 1.8172-1.8344 0.031-0.031 0.0633-0.0623 0.0953-0.0953 0.0158 0.002 0.0312 0.002 0.0469 0.003l0.003-0.003c0.049 0.004 0.0952 0.007 0.14219 0.011 1.278 0.09 2.5516 0.198 3.8266 0.325 0.048 0.004 0.0952 0.009 0.14219 0.0141 0.027 0.036 0.0531 0.0718 0.0781 0.10782 0.508 0.703 1.0069 1.4082 1.4969 2.1172 0.019 0.025 0.0367 0.0521 0.0547 0.0781-0.004 0.03-0.007 0.0575-0.0109 0.0875-0.151 1.301-0.3 2.6037-0.45 3.9047-0.004 0.029-0.006 0.0585-0.009 0.0875-0.022 0.021-0.0436 0.0409-0.0656 0.0609-0.361 0.349-0.72 0.69844-1.075 1.0484-0.021 0.021-0.0415 0.0409-0.0625 0.0609-0.03 0.005-0.0596 0.0101-0.0906 0.0141-1.256 0.205-2.5038 0.42831-3.7438 0.67031-0.071 0.945-0.14262 1.8899-0.21562 2.8359 0.7258 0.0547 1.4517 0.11694 2.1766 0.18593 0.0278-0.28544 0.056-0.57079 0.0828-0.85625 0.009-0.087 0.0164-0.17181 0.0234-0.25781 0.0173 0.002 0.0344 0.003 0.0516 0.005 0.00016-0.002-0.00016-0.003 0-0.005 0.089 0.008 0.17932 0.017 0.27032 0.025 0.639 0.063 1.2761 0.13056 1.9141 0.20156 0.091 0.01 0.18031 0.0222 0.27031 0.0312-0.009 0.086-0.0191 0.17181-0.0281 0.25781-0.046 0.395-0.0931 0.78994-0.13906 1.1859-0.003 0.031-0.007 0.0627-0.009 0.0937-0.024 0.022-0.0479 0.0421-0.0719 0.0641-0.637 0.58-1.2669 1.1647-1.8859 1.7547-0.031 0.028-0.0585 0.0558-0.0875 0.0828-0.016-0.002-0.0311-0.003-0.0469-0.005-0.002 0.001-0.003 0.003-0.005 0.005zm-22.869-0.0406c-0.008-0.085-0.017-0.17281-0.025-0.25781-0.427-4.449-0.85581-8.8958-1.2828-13.344-0.008-0.087-0.017-0.17337-0.025-0.25937 0.097-0.009 0.19519-0.0186 0.29219-0.0266 1.787-0.169 3.5746-0.29975 5.3656-0.39375 0.099-0.005 0.19675-0.0106 0.29375-0.0156 0.00007 0.0008-0.00007 0.002 0 0.003 0.0165-0.0008 0.0335-0.002 0.05-0.003 0.006 0.086 0.009 0.17237 0.0141 0.25937 0.037 0.756 0.0771 1.5128 0.11407 2.2688 0.005 0.087 0.0101 0.17181 0.0141 0.25781-0.096 0.005-0.1915 0.0106-0.2875 0.0156-0.808 0.043-1.6154 0.0935-2.4234 0.15154 0.0689 0.97096 0.13945 1.9421 0.20938 2.9141 0.62693-0.0454 1.256-0.0868 1.8828-0.12188 0.092-0.005 0.18669-0.0106 0.27969-0.0156 0.00007 0.001-0.00008 0.002 0 0.003 0.0172-0.00096 0.0345-0.002 0.0516-0.003 0.005 0.086 0.0106 0.17238 0.0156 0.25938 0.036 0.676 0.0708 1.3521 0.10781 2.0281 0.004 0.086 0.0101 0.17338 0.0141 0.25938-0.091 0.005-0.183 0.01-0.275 0.0156-0.632 0.035-1.2643 0.0753-1.8953 0.12031 0.0679 0.94497 0.1362 1.89 0.20313 2.8359 0.71544-0.0524 1.4321-0.0963 2.1484-0.13437 0.09-0.005 0.17975-0.0101 0.26875-0.0141 0.00006 0.001-0.00006 0.002 0 0.003 0.0173-0.0008 0.0343-0.002 0.0516-0.003 0.005 0.086 0.008 0.17338 0.0125 0.25938 0.039 0.765 0.0782 1.5282 0.11719 2.2922 0.004 0.087 0.009 0.17238 0.0141 0.25938-0.088 0.004-0.1755 0.009-0.2625 0.0141-1.579 0.084-3.1578 0.20044-4.7328 0.34844-0.086 0.008-0.17394 0.0154-0.26094 0.0234-0.00016-0.002 0.00016-0.003 0-0.005-0.0168 0.002-0.0331 0.003-0.05 0.005zm7.8047-0.4875c-0.003-0.086-0.006-0.17338-0.008-0.25938-0.131-4.467-0.26119-8.933-0.39219-13.4-0.002-0.086-0.004-0.17393-0.006-0.26093 0.097-0.002 0.19519-0.005 0.29219-0.008 0.708-0.019 1.4149-0.031 2.1219-0.039 0.0171 0 0.0344 0.00011 0.0516 0 0.0813 0 0.16209-0.002 0.24375-0.003 0.0168-0.00022 0.0331 0.00016 0.05 0 0.00096 0.087 0.002 0.17237 0.002 0.25937 0.016 1.7435 0.0313 3.4888 0.0453 5.2312 0.47482-0.0105 0.95019-0.0198 1.425-0.0266 0.326-1.749 0.66575-3.4978 1.0188-5.2438 0.015-0.072 0.0298-0.14419 0.0438-0.21719 0.0172 0.00041 0.0343-0.00034 0.0516 0 0.0657 0.002 0.13189 0.002 0.19687 0.003 0.0167 0.0002 0.0334-0.0002 0.05 0 0.746 0.01 1.4925 0.0265 2.2375 0.0484 0.122 0.004 0.24363 0.008 0.36563 0.011-0.03 0.104-0.0585 0.20849-0.0875 0.3125-0.529 1.906-1.037 3.8151-1.525 5.7281 0.412 0.385 0.81943 0.77194 1.2234 1.1609 0.028 0.027 0.0558 0.0511 0.0828 0.0781-0.002 0.037-0.003 0.0749-0.005 0.11094-0.05 1.564-0.1 3.1266-0.15 4.6906-0.00096 0.032-0.003 0.0654-0.005 0.0984-0.022 0.023-0.0448 0.0479-0.0688 0.0719-0.49 0.51-0.97468 1.0231-1.4547 1.5391-0.025 0.029-0.0527 0.0559-0.0797 0.0859-0.0168-0.00042-0.0336-0.001-0.05-0.002-0.00051 0.00056-0.001 0.001-0.002 0.002-0.039-0.00096-0.0797-0.002-0.11875-0.003-0.86431-0.0157-1.7279-0.0207-2.5922-0.0172-0.005 0.00002-0.0104-0.00003-0.0156 0-0.8763 0.004-1.7534 0.0183-2.6297 0.0422-0.087 0.002-0.1755 0.004-0.2625 0.006-0.00002-0.00052 0.00002-0.001 0-0.002-0.0167 0.00044-0.0333 0.001-0.05 0.002zm30.072-0.13438c0.57716-2.5443 1.1525-5.0864 1.7297-7.6297-0.76984-0.17433-1.5392-0.34221-2.3109-0.50312-0.52826 2.5544-1.0602 5.1097-1.5875 7.6641 0.72283 0.14965 1.4478 0.30477 2.1688 0.46875zm-25.198-2.425c0.013-1.142 0.0276-2.2846 0.0406-3.4266-0.83081-0.01-1.6614-0.01-2.4922-0.003 0.009 1.142 0.0181 2.283 0.0281 3.425 0.80828-0.006 1.6161-0.004 2.4234 0.005z" fill="#f1ab00"/></g><path d="m360.29 191.74c-0.026-0.082-0.0542-0.16331-0.0813-0.24531-1.381-4.251-2.7618-8.501-4.1438-12.75-0.026-0.083-0.0511-0.16544-0.0781-0.24844 0.095-0.03 0.18781-0.0602 0.28281-0.0922 0.68-0.219 1.3644-0.43162 2.0484-0.64062 0.095-0.029 0.18937-0.0569 0.28437-0.0859 0.025 0.083 0.049 0.16488 0.075 0.24688 0.504 1.67 1.0075 3.3409 1.5125 5.0109 0.474-0.152 0.94844-0.30187 1.4234-0.44687-0.176-1.772-0.3385-3.5459-0.4875-5.3219-0.007-0.074-0.0127-0.14631-0.0188-0.22031 0.08-0.023 0.16119-0.0436 0.24219-0.0656 0.725-0.202 1.4532-0.3985 2.1812-0.5875 0.119-0.031 0.23825-0.0628 0.35625-0.0937 0.001 0.109 0.001 0.218 0.003 0.325 0.023 1.979 0.0672 3.9551 0.13125 5.9281 0.507 0.253 1.0109 0.50919 1.5109 0.76719 0.034 0.018 0.0681 0.0367 0.10313 0.0547 0.009 0.035 0.0181 0.0712 0.0281 0.10625 0.394 1.534 0.78937 3.0681 1.1844 4.6031 0.009 0.031 0.017 0.0639 0.025 0.0969-0.016 0.029-0.033 0.0601-0.05 0.0891-0.336 0.61-0.66819 1.2208-0.99219 1.8328-0.018 0.034-0.0351 0.0681-0.0531 0.10313-0.037 0.009-0.0745 0.0197-0.1125 0.0297-1.716 0.468-3.4229 0.97644-5.1219 1.5234-0.084 0.028-0.16812 0.0542-0.25312 0.0812zm72.497-0.0203c-0.084-0.027-0.16869-0.0553-0.25469-0.0812-1.522-0.491-3.0521-0.948-4.5891-1.375-0.085-0.023-0.16968-0.0458-0.25468-0.0688 0.022-0.083 0.0457-0.16757 0.0688-0.25157 1.184-4.308 2.3681-8.6176 3.5531-12.927 0.023-0.083 0.0447-0.166 0.0687-0.25 0.095 0.026 0.18993 0.0527 0.28593 0.0797 1.742 0.483 3.4777 1.0024 5.2047 1.5594 0.095 0.031 0.18837 0.0596 0.28437 0.0906-0.028 0.082-0.0542 0.16544-0.0813 0.24844-0.234 0.72-0.46912 1.4399-0.70312 2.1609-0.026 0.081-0.0527 0.16332-0.0797 0.24532-0.093-0.031-0.18356-0.0606-0.27656-0.0906-0.779-0.251-1.5602-0.49469-2.3422-0.72969-0.282 0.933-0.56331 1.867-0.84531 2.8 0.625 0.188 1.2489 0.38169 1.8719 0.57969 0.09 0.029 0.18187 0.0559 0.27187 0.0859-0.027 0.082-0.0527 0.16644-0.0797 0.24844-0.207 0.644-0.41431 1.2878-0.62031 1.9328-0.027 0.083-0.0537 0.16388-0.0797 0.24688-0.09-0.028-0.17762-0.0564-0.26562-0.0844-0.611-0.194-1.2214-0.38475-1.8344-0.56875-0.273 0.908-0.54631 1.817-0.82031 2.725 0.71 0.214 1.4186 0.4355 2.1266 0.6625 0.086 0.028 0.17237 0.0548 0.25937 0.0828-0.027 0.083-0.0532 0.16488-0.0812 0.24688-0.235 0.728-0.47182 1.4569-0.70782 2.1859-0.026 0.081-0.0527 0.16331-0.0797 0.24531zm-9.4734-2.6391c-0.044-0.01-0.0888-0.0207-0.13282-0.0297-1.687-0.388-3.3801-0.73588-5.0781-1.0469-0.086-0.015-0.17238-0.0309-0.25938-0.0469 0.016-0.085 0.0319-0.16969 0.0469-0.25469 0.81-4.396 1.6191-8.7909 2.4281-13.186 0.016-0.084 0.0319-0.1697 0.0469-0.2547 0.097 0.017 0.19363 0.0346 0.29063 0.0516 1.932 0.356 3.8612 0.75388 5.7812 1.1969 0.051 0.011 0.10369 0.0239 0.15469 0.0359 0.019 0.045 0.0404 0.0888 0.0594 0.13282 0.368 0.824 0.72756 1.6496 1.0766 2.4766 0.011 0.025 0.0212 0.05 0.0312 0.075-0.006 0.026-0.0118 0.0521-0.0188 0.0781l-2.1922 8.8015c-0.006 0.026-0.0149 0.0527-0.0219 0.0797-0.02 0.018-0.0415 0.0361-0.0625 0.0531-0.692 0.577-1.3744 1.1604-2.0484 1.7484-0.034 0.03-0.0676 0.0591-0.10156 0.0891zm-53.422-0.0141c-0.02-0.084-0.0388-0.16812-0.0578-0.25312-1.017-4.352-2.0324-8.7032-3.0484-13.056-0.019-0.084-0.0378-0.16757-0.0578-0.25157 0.095-0.023 0.1915-0.0452 0.2875-0.0672 0.721-0.167 1.4426-0.32781 2.1656-0.48281 0.095-0.02 0.19206-0.0399 0.28906-0.0609 0.018 0.085 0.0361 0.17069 0.0531 0.25469 0.923 4.373 1.8442 8.7442 2.7672 13.117 0.018 0.085 0.0351 0.16968 0.0531 0.25468-0.085 0.017-0.17337 0.0367-0.25937 0.0547-0.646 0.138-1.2904 0.28069-1.9344 0.42969-0.086 0.021-0.17181 0.0409-0.25781 0.0609zm-7.9922-0.47031c0.798-0.24 1.5974-0.47288 2.3984-0.69688-0.307-1.1-0.61487-2.2-0.92187-3.3-0.825 0.23-1.6462 0.46919-2.4672 0.71719 0.331 1.093 0.66063 2.1877 0.99063 3.2797zm12.709-0.52969c-0.005-0.099-0.009-0.19687-0.0141-0.29687-0.221-4.506-0.371-9.0223-0.45-13.545-0.002-0.075-0.003-0.149-0.005-0.225 0.085-0.015 0.16868-0.0298 0.25468-0.0438 1.44-0.247 2.8858-0.47019 4.3328-0.66719 0.082-0.012 0.16487-0.0239 0.24687-0.0359 0.024 0.071 0.0467 0.13994 0.0687 0.21094 1.427 4.317 2.7691 8.6532 4.0281 13.006 0.028 0.098 0.0554 0.19675 0.0844 0.29375-0.104 0.012-0.20481 0.0239-0.30781 0.0359-0.77 0.09-1.5404 0.18931-2.3094 0.29531-0.075 0.01-0.15057 0.0203-0.22657 0.0312-0.021-0.073-0.0415-0.14362-0.0625-0.21562-0.962-3.275-1.9644-6.5409-3.0094-9.7969-0.084 0.013-0.16912 0.0261-0.25312 0.0391 0.049 3.408 0.13694 6.8131 0.26094 10.214 0.002 0.076 0.005 0.15212 0.008 0.22812-0.076 0.013-0.15369 0.0261-0.22969 0.0391-0.707 0.12-1.4138 0.24556-2.1188 0.37656-0.1 0.019-0.20044 0.0383-0.29844 0.0563zm40.556-0.59062c-0.088-0.014-0.17394-0.0266-0.26094-0.0406-0.65-0.104-1.3011-0.20019-1.9531-0.29219-0.086-0.012-0.17394-0.0245-0.26094-0.0375 0.012-0.086 0.0239-0.17025 0.0359-0.25625 0.614-4.426 1.2276-8.8537 1.8406-13.28 0.012-0.086 0.0229-0.17125 0.0359-0.25625 0.097 0.013 0.19362 0.0266 0.29062 0.0406 0.729 0.102 1.4589 0.21256 2.1859 0.32656 0.096 0.016 0.19262 0.0303 0.29062 0.0453-0.014 0.086-0.0276 0.17182-0.0406 0.25782-0.709 4.412-1.417 8.8239-2.125 13.236-0.013 0.085-0.0261 0.17025-0.0391 0.25625zm-6.9547-0.90313c-0.041-0.004-0.0803-0.008-0.12031-0.0109-1.092-0.108-2.1867-0.20113-3.2797-0.27813-0.043-0.003-0.0851-0.006-0.12812-0.009-0.023-0.034-0.0479-0.0681-0.0719-0.10313-0.471-0.683-0.95163-1.3611-1.4406-2.0391-0.018-0.024-0.0351-0.0484-0.0531-0.0734 0.002-0.03 0.003-0.0591 0.005-0.0891 0.07-1.269 0.13938-2.5388 0.20938-3.8078l0.003-0.0594c0.011-0.017 0.0212-0.0351 0.0312-0.0531 0.244-0.408 0.49107-0.81644 0.73907-1.2234 0.018-0.032 0.0357-0.0622 0.0547-0.0922 0.036-0.01 0.0739-0.0201 0.11093-0.0281 1.337-0.348 2.6874-0.67413 4.0484-0.97813 0.08-0.851 0.1575-1.7027 0.2375-2.5547-0.798-0.074-1.5969-0.14156-2.3969-0.20156-0.019 0.261-0.0394 0.52338-0.0594 0.78438-0.005 0.086-0.0117 0.17181-0.0187 0.25781l-0.28594-0.0219c-0.647-0.046-1.2942-0.088-1.9422-0.125-0.094-0.006-0.18994-0.0106-0.28594-0.0156 0.005-0.087 0.0101-0.17337 0.0141-0.25937 0.021-0.375 0.0415-0.75 0.0625-1.125 0.00096-0.029 0.003-0.0601 0.005-0.0891 0.022-0.023 0.0436-0.0452 0.0656-0.0672 0.596-0.617 1.2032-1.2274 1.8172-1.8344l0.0953-0.0953c0.049 0.004 0.0952 0.007 0.14218 0.011 1.278 0.09 2.5516 0.198 3.8266 0.325 0.048 0.004 0.0952 0.009 0.14218 0.0141 0.027 0.036 0.0531 0.0718 0.0781 0.10782 0.508 0.703 1.0069 1.4082 1.4969 2.1172 0.019 0.025 0.0367 0.0521 0.0547 0.0781-0.004 0.03-0.007 0.0575-0.0109 0.0875-0.151 1.301-0.3 2.6037-0.45 3.9047-0.004 0.029-0.006 0.0585-0.009 0.0875-0.022 0.021-0.0436 0.0409-0.0656 0.0609-0.361 0.349-0.72 0.69844-1.075 1.0484-0.021 0.021-0.0415 0.0409-0.0625 0.0609-0.03 0.005-0.0596 0.0101-0.0906 0.0141-1.256 0.205-2.5038 0.42831-3.7438 0.67031-0.071 0.945-0.14262 1.8899-0.21562 2.8359 0.743 0.056 1.4861 0.11962 2.2281 0.19062 0.028-0.287 0.0553-0.57394 0.0812-0.86094 0.009-0.087 0.016-0.17181 0.025-0.25781 0.089 0.008 0.17931 0.017 0.27031 0.025 0.639 0.063 1.2761 0.13056 1.9141 0.20156 0.091 0.01 0.18031 0.0222 0.27031 0.0312-0.009 0.086-0.0191 0.17181-0.0281 0.25781-0.046 0.395-0.0931 0.78994-0.13906 1.1859-0.003 0.031-0.007 0.0627-0.009 0.0937-0.024 0.022-0.0479 0.0421-0.0719 0.0641-0.637 0.58-1.2669 1.1647-1.8859 1.7547-0.031 0.028-0.0585 0.0558-0.0875 0.0828zm-22.87-0.0406c-0.009-0.085-0.016-0.17281-0.025-0.25781-0.427-4.449-0.85525-8.8958-1.2812-13.344-0.009-0.087-0.017-0.17337-0.025-0.25937 0.097-0.009 0.19519-0.0186 0.29219-0.0266 1.787-0.169 3.5741-0.29975 5.3641-0.39375 0.1-0.005 0.19675-0.0106 0.29375-0.0156 0.006 0.086 0.009 0.17237 0.0141 0.25937 0.037 0.756 0.0771 1.5128 0.11407 2.2688 0.005 0.087 0.0101 0.17181 0.0141 0.25781-0.096 0.005-0.1915 0.0106-0.2875 0.0156-0.808 0.043-1.6154 0.0935-2.4234 0.15154 0.069 0.972 0.13938 1.9442 0.20938 2.9172 0.644-0.047 1.2888-0.089 1.9328-0.125 0.093-0.005 0.18825-0.0106 0.28125-0.0156 0.005 0.086 0.0106 0.17238 0.0156 0.25938 0.036 0.676 0.0708 1.3521 0.10781 2.0281 0.004 0.086 0.0101 0.17338 0.0141 0.25938-0.091 0.005-0.183 0.01-0.275 0.0156-0.632 0.035-1.2643 0.0753-1.8953 0.12031 0.068 0.946 0.13612 1.8921 0.20312 2.8391 0.732-0.054 1.467-0.0985 2.2-0.1375 0.089-0.005 0.17875-0.0101 0.26875-0.0141 0.005 0.086 0.008 0.17338 0.0125 0.25938 0.039 0.765 0.0782 1.5282 0.11719 2.2922 0.004 0.087 0.009 0.17238 0.0141 0.25938-0.088 0.004-0.1755 0.009-0.2625 0.0141-1.579 0.084-3.1578 0.20044-4.7328 0.34844-0.086 0.008-0.17393 0.0154-0.26093 0.0234zm7.8047-0.4875c-0.003-0.086-0.004-0.17338-0.006-0.25938-0.13-4.467-0.26063-8.933-0.39063-13.4-0.003-0.086-0.006-0.17393-0.008-0.26093 0.097-0.002 0.19575-0.005 0.29375-0.008 0.707-0.019 1.4123-0.031 2.1203-0.039 0.098 0 0.19476-0.002 0.29376-0.003 0.00096 0.087 0.002 0.17237 0.002 0.25937 0.016 1.744 0.0313 3.4898 0.0453 5.2328 0.492-0.011 0.982-0.0211 1.475-0.0281 0.326-1.749 0.66631-3.4977 1.0203-5.2437 0.014-0.072 0.0298-0.14419 0.0437-0.21719 0.083 0.002 0.16488 0.002 0.24688 0.003 0.746 0.01 1.4925 0.0265 2.2375 0.0484 0.122 0.004 0.24362 0.008 0.36562 0.011-0.03 0.104-0.0585 0.2085-0.0875 0.3125-0.529 1.906-1.037 3.8151-1.525 5.7281 0.412 0.385 0.81944 0.77194 1.2234 1.1609 0.028 0.027 0.0558 0.0511 0.0828 0.0781-0.002 0.037-0.003 0.0749-0.005 0.11094-0.05 1.564-0.1 3.1266-0.15 4.6906-0.00096 0.032-0.003 0.0654-0.005 0.0984-0.022 0.023-0.0448 0.0479-0.0688 0.0719-0.49 0.51-0.97469 1.0231-1.4547 1.5391-0.025 0.029-0.0527 0.0559-0.0797 0.0859-0.04-0.00096-0.0788-0.002-0.11875-0.003-1.763-0.032-3.5261-0.023-5.2891 0.025-0.087 0.002-0.1755 0.004-0.2625 0.006zm30.07-0.12344c0.578-2.548 1.1548-5.0936 1.7328-7.6406-0.786-0.178-1.5729-0.35006-2.3609-0.51406-0.529 2.558-1.0611 5.117-1.5891 7.675 0.739 0.153 1.4802 0.31169 2.2172 0.47969zm-25.197-2.4359c0.015-1.142 0.0276-2.2846 0.0406-3.4266-0.848-0.01-1.6942-0.0101-2.5422-0.003 0.009 1.142 0.0181 2.283 0.0281 3.425 0.824-0.007 1.6504-0.004 2.4734 0.005z" stroke="#003066" stroke-miterlimit="10" stroke-width="0.646" fill="none"/><path d="m399.15 221.52 2.826-0.977v26.153l-5.262 4.335 2.436-4.268v-25.243zm-21.659-1.025v26.241l-5.037 4.297 2.288-4.27v-27.493l4.549-4.125h7.281v2.777h-6.208l-2.873 2.573zm25.553 0.146-3.068-2.702h-4.689v-2.793h5.809l4.478 4.156-2.53 1.339z" fill="#bb8900"/><path d="m391.45 229.86 2.663-1.169h3.869v2.744h-4.894l-1.638-1.575zm20.447-4.771h6.651l-3.895 2.563v3.783h-7.918v-2.744h5.162v-3.602zm-21.404-22.106v26.607l-2.754 1.12v-28.841l4.157-4.479h22.519l4.133 4.44-2.542 1.07-2.74-2.759-20.112 0.021-2.661 2.821zm24.233 3.52-2.829 1.403-0.001-4.101 2.83-1.047v3.745z" fill="#003066"/></g></g></svg>
