<?xml version="1.0" standalone="no"?>
<!DOCTYPE svg PUBLIC "-//W3C//DTD SVG 20010904//EN"
 "http://www.w3.org/TR/2001/REC-SVG-20010904/DTD/svg10.dtd">
<svg version="1.0" xmlns="http://www.w3.org/2000/svg"
 width="900.000000pt" height="348.000000pt" viewBox="0 0 900.000000 348.000000"
 preserveAspectRatio="xMidYMid meet">
<metadata>
Created by potrace 1.10, written by Peter Selinger 2001-2011
</metadata>
<g transform="translate(0.000000,348.000000) scale(0.100000,-0.100000)"
fill="#900028" stroke="none">
<path d="M1645 3410 c-33 -16 -63 -30 -67 -30 -5 0 -77 -33 -160 -74 -84 -40
-184 -88 -223 -106 -158 -73 -226 -105 -335 -157 -63 -30 -133 -63 -155 -73
-62 -28 -220 -103 -223 -106 -8 -6 -3 -1099 5 -1099 11 0 1235 613 1246 624 5
5 9 242 9 527 1 595 11 547 -97 494z"/>
<path d="M3290 3095 c-14 -8 -31 -14 -39 -15 -21 0 -91 -60 -115 -99 -57 -93
-68 -170 -38 -268 13 -45 29 -70 74 -115 32 -32 70 -60 85 -63 16 -4 36 -10
45 -16 28 -15 140 -11 194 7 67 23 124 71 159 135 27 49 30 62 30 150 0 76 -4
104 -20 135 -32 62 -95 118 -162 142 -70 26 -174 29 -213 7z m188 -95 c21 -11
54 -42 73 -68 28 -39 34 -57 37 -112 4 -81 -23 -139 -86 -187 -39 -29 -51 -33
-109 -33 -47 0 -74 5 -97 19 -42 26 -96 89 -96 111 0 11 -4 22 -10 25 -14 9
-13 88 2 122 20 45 59 93 97 119 47 31 133 33 189 4z"/>
<path d="M6359 3062 c-58 -128 -68 -151 -89 -202 -12 -30 -40 -92 -61 -138
-22 -46 -39 -87 -39 -93 0 -5 -9 -26 -20 -46 -30 -56 -27 -63 25 -63 40 0 47
3 56 28 26 70 46 103 64 107 11 3 76 4 145 3 139 -3 124 5 167 -95 14 -34 23
-43 46 -44 15 -1 33 -2 39 -3 17 -1 22 32 10 58 -6 11 -20 44 -32 71 -23 52
-29 67 -79 178 -17 37 -31 69 -31 72 0 3 -13 33 -29 68 -16 34 -36 81 -46 104
-17 40 -19 41 -61 41 -43 0 -45 -1 -65 -46z m81 -112 c0 -5 18 -47 40 -94 22
-47 40 -89 40 -94 0 -12 -111 -20 -159 -12 -20 3 -35 10 -34 16 5 23 71 175
83 188 12 16 30 13 30 -4z"/>
<path d="M2457 3094 c-4 -4 -7 -134 -7 -290 l0 -282 38 -5 c54 -7 60 7 55 119
-2 64 0 101 8 110 9 11 43 14 149 14 l138 0 4 28 c7 51 6 52 -142 52 -101 0
-140 3 -148 13 -13 15 -11 142 2 154 4 4 74 9 154 9 81 1 153 2 160 3 9 1 12
13 10 39 l-3 37 -206 3 c-113 1 -208 -1 -212 -4z"/>
<path d="M3944 3089 c-5 -9 -8 -364 -4 -552 0 -15 7 -18 43 -15 l42 3 5 95 5
95 49 3 c74 5 91 -3 124 -55 48 -77 107 -148 120 -147 7 1 30 2 52 3 38 1 40
2 30 22 -6 11 -38 56 -71 99 -32 43 -59 83 -59 89 0 5 18 20 40 32 59 33 83
77 83 153 0 100 -41 154 -134 175 -62 15 -316 14 -325 0z m316 -95 c63 -36 66
-121 6 -162 -30 -21 -43 -22 -132 -20 l-99 3 -3 88 c-2 55 1 94 8 102 18 22
177 14 220 -11z"/>
<path d="M4664 3089 c-10 -16 -13 -545 -3 -561 9 -14 236 -11 299 4 64 15 89
30 139 82 138 141 93 371 -89 454 -49 23 -71 26 -196 30 -112 4 -143 2 -150
-9z m293 -92 c43 -23 103 -86 103 -108 0 -10 5 -21 10 -24 16 -10 12 -99 -7
-136 -44 -87 -115 -129 -222 -129 -36 0 -73 5 -81 10 -12 7 -16 42 -18 185 -4
225 -5 224 105 221 50 -2 90 -9 110 -19z"/>
<path d="M5427 3094 c-9 -10 -9 -572 1 -577 4 -2 24 -2 45 0 l37 5 0 108 c0
60 3 115 6 124 5 14 27 16 139 16 97 0 135 -4 143 -13 6 -7 13 -64 14 -128 l3
-114 33 0 c19 0 38 3 44 6 12 8 11 560 -1 572 -5 5 -24 7 -42 5 l-34 -3 -5
-110 c-3 -60 -9 -116 -13 -122 -12 -19 -260 -18 -275 0 -6 7 -13 62 -14 123
l-3 109 -35 3 c-20 2 -39 0 -43 -4z"/>
<path d="M6951 3081 c-13 -23 -8 -548 5 -560 5 -5 26 -6 47 -4 l37 5 0 194 c0
149 3 194 13 194 11 0 32 -24 47 -55 15 -29 102 -154 118 -168 18 -17 20 -15
47 25 15 24 36 54 46 68 10 14 30 45 45 70 27 45 55 73 63 64 3 -3 4 -87 3
-187 -2 -100 1 -187 5 -193 7 -11 47 -18 81 -15 10 1 12 62 10 289 l-3 287
-51 3 -51 3 -77 -116 c-42 -63 -79 -122 -82 -130 -9 -23 -43 -18 -53 8 -12 29
-140 220 -155 229 -23 16 -85 9 -95 -11z"/>
<path d="M0 1586 l0 -1432 155 -76 c148 -73 155 -76 160 -55 3 12 4 656 3
1430 l-3 1408 -35 19 c-19 10 -90 46 -157 79 l-123 60 0 -1433z"/>
<path d="M1705 2201 c-9 -8 -425 -218 -465 -235 -8 -3 -22 -10 -30 -15 -8 -5
-51 -27 -95 -49 -44 -22 -138 -69 -210 -105 -71 -35 -137 -67 -145 -71 -8 -3
-35 -17 -59 -31 -24 -14 -48 -25 -52 -25 -5 0 -31 -13 -59 -30 -28 -16 -57
-30 -64 -30 -7 0 -20 -8 -30 -19 -15 -17 -16 -82 -17 -796 0 -428 2 -779 4
-781 5 -5 91 36 172 81 33 19 83 46 110 60 28 14 70 38 95 51 25 14 87 48 139
76 52 28 112 61 133 74 21 13 44 24 51 24 7 0 17 4 22 9 6 6 44 28 85 49 41
22 91 49 110 60 40 24 112 62 223 120 43 22 89 49 101 61 l22 20 -3 753 c-2
773 -3 783 -38 749z"/>
<path d="M2452 2193 c-5 -10 -8 -110 -7 -223 1 -202 2 -206 27 -245 36 -56 65
-80 122 -99 93 -30 210 -12 269 43 63 58 70 86 74 306 4 228 1 239 -57 227
l-35 -8 -5 -208 -5 -208 -44 -39 c-38 -34 -50 -39 -93 -39 -68 0 -115 24 -138
71 -18 34 -20 60 -20 228 0 104 -3 192 -7 194 -5 3 -22 8 -40 11 -25 6 -34 3
-41 -11z"/>
<path d="M3210 2202 c-6 -3 -10 -105 -10 -293 l0 -290 43 3 42 3 3 198 c2 151
5 198 15 194 12 -4 127 -143 174 -212 16 -22 33 -44 39 -50 6 -5 30 -36 54
-68 43 -57 67 -72 111 -65 l24 3 0 278 c1 152 -2 281 -5 286 -9 15 -68 21 -78
8 -6 -7 -9 -84 -8 -183 1 -94 0 -178 -3 -187 -5 -14 -8 -14 -27 1 -12 9 -56
64 -100 122 -43 58 -106 139 -141 181 -54 65 -67 76 -92 75 -17 -1 -35 -2 -41
-4z"/>
<path d="M3985 2198 c-3 -7 -4 -139 -3 -293 l3 -280 43 -3 42 -3 0 290 0 291
-24 0 c-13 0 -31 3 -40 6 -9 3 -18 0 -21 -8z"/>
<path d="M4316 2203 c-9 -9 -7 -41 4 -61 5 -9 19 -39 30 -67 11 -27 25 -58 30
-67 6 -10 10 -23 10 -29 0 -7 10 -33 21 -58 12 -25 29 -62 37 -81 8 -19 19
-43 23 -52 5 -10 9 -23 9 -31 0 -7 9 -29 20 -50 11 -20 20 -43 20 -50 0 -41
74 -62 102 -29 18 19 51 93 93 202 25 65 35 90 89 213 52 118 58 139 44 152
-8 8 -26 11 -46 8 -29 -5 -37 -13 -58 -62 -30 -67 -37 -84 -57 -136 -26 -69
-79 -199 -87 -215 -12 -24 -33 -17 -43 15 -5 17 -15 44 -23 62 -8 17 -14 36
-14 41 0 6 -6 23 -14 39 -25 48 -46 100 -46 115 0 7 -7 22 -15 32 -8 11 -15
29 -15 40 -1 32 -32 62 -72 69 -20 3 -39 3 -42 0z"/>
<path d="M5288 2202 c-180 -2 -198 -4 -198 -20 -3 -177 1 -545 5 -552 4 -6 85
-10 204 -10 214 0 226 3 219 52 -3 23 -5 23 -157 26 -93 1 -160 7 -168 13 -14
12 -18 125 -5 146 5 8 53 13 147 15 l140 3 3 38 c4 42 18 39 -171 37 -63 -1
-104 3 -113 11 -18 14 -19 130 -2 147 8 8 59 12 165 12 l153 0 0 39 c0 23 -5
40 -12 42 -7 2 -102 3 -210 1z"/>
<path d="M5777 2202 c-16 -3 -17 -28 -15 -290 l3 -287 40 0 40 0 3 92 c3 105
6 109 84 112 55 1 61 -3 128 -104 68 -101 73 -105 131 -105 48 0 50 1 43 23
-4 12 -18 36 -33 54 -43 52 -91 122 -91 131 0 5 17 21 38 36 66 45 82 76 82
153 0 97 -40 150 -131 173 -41 10 -284 19 -322 12z m295 -98 c87 -45 90 -137
7 -180 -28 -14 -181 -20 -213 -8 -23 9 -23 165 0 188 22 22 163 22 206 0z"/>
<path d="M6595 2200 c-3 -5 -17 -10 -29 -10 -15 0 -37 -15 -60 -40 -34 -38
-36 -44 -36 -109 0 -58 4 -72 24 -94 30 -32 90 -63 141 -73 64 -11 139 -49
154 -76 27 -52 -30 -103 -114 -101 -53 1 -145 35 -145 53 0 17 -46 11 -64 -9
-26 -29 -17 -51 34 -82 55 -34 95 -43 185 -43 131 0 204 61 205 169 0 75 -64
140 -160 163 -106 25 -123 31 -146 53 -29 28 -31 58 -3 93 18 23 27 26 85 26
52 0 74 -5 109 -25 l43 -26 21 30 c12 16 21 34 21 40 0 41 -243 97 -265 61z"/>
<path d="M7165 2201 l-30 -6 0 -285 0 -285 39 -3 c21 -2 42 1 45 6 9 14 6 556
-3 570 -4 7 -10 11 -14 11 -4 -1 -20 -4 -37 -8z"/>
<path d="M7672 2202 l-213 -2 3 -42 3 -42 60 1 c33 1 72 -1 87 -3 l28 -6 2
-241 3 -242 39 -3 c24 -2 42 2 47 10 5 7 9 116 9 241 0 266 -14 241 133 245
32 1 50 7 53 17 10 24 -4 62 -23 66 -10 2 -114 3 -231 1z"/>
<path d="M8122 2202 c-6 -2 -12 -8 -12 -14 0 -5 48 -83 108 -171 l107 -161 5
-116 5 -115 43 -3 c29 -2 42 1 43 10 0 7 1 60 2 118 l2 105 108 159 c59 88
107 165 107 173 0 9 -14 13 -47 13 l-48 0 -60 -97 c-33 -53 -71 -109 -85 -125
l-25 -30 -85 128 c-81 123 -86 129 -120 130 -19 0 -41 -1 -48 -4z"/>
<path d="M2465 1327 c-3 -7 -4 -136 -3 -287 l3 -275 40 0 40 0 3 80 c3 100 9
105 118 105 81 0 142 17 185 52 32 26 49 76 49 143 0 148 -68 193 -298 194
-98 1 -134 -2 -137 -12z m285 -92 c40 -21 60 -53 60 -96 0 -47 -30 -85 -78
-99 -51 -14 -155 -13 -170 2 -17 17 -16 195 1 201 29 12 159 6 187 -8z"/>
<path d="M3135 1327 c-3 -7 -4 -136 -3 -287 l3 -275 45 0 45 0 3 89 c2 50 8
96 14 103 12 15 66 17 100 4 13 -5 54 -52 92 -105 l70 -96 48 0 c34 0 48 4 48
13 0 8 -27 50 -60 95 -33 44 -60 87 -60 96 0 9 18 27 40 41 65 41 82 77 77
163 -4 66 -7 76 -36 106 -49 51 -113 66 -280 66 -105 0 -143 -3 -146 -13z
m341 -109 c21 -20 27 -36 27 -69 0 -36 -5 -47 -32 -70 -37 -31 -69 -39 -151
-39 -91 0 -90 -1 -90 104 0 51 3 96 8 100 4 4 53 6 109 4 96 -3 104 -5 129
-30z"/>
<path d="M3855 1328 c-3 -8 -4 -137 -3 -288 l3 -275 210 0 210 0 0 35 0 35
-159 2 c-88 2 -161 5 -164 8 -12 11 -14 123 -3 143 11 20 21 22 149 24 l137 3
0 35 0 35 -135 3 c-155 3 -160 6 -160 83 0 82 -7 79 165 79 167 0 179 4 173
57 l-3 28 -208 3 c-162 2 -209 0 -212 -10z"/>
<path d="M4587 1319 c-59 -31 -79 -71 -75 -151 4 -77 26 -109 87 -129 20 -6
40 -15 46 -20 5 -5 21 -9 36 -9 36 0 119 -38 141 -64 25 -30 22 -44 -16 -82
-48 -48 -108 -48 -202 2 l-67 35 -26 -25 c-33 -34 -23 -52 50 -88 67 -34 185
-48 245 -28 89 30 134 101 119 188 -11 67 -60 107 -165 136 -85 23 -132 48
-150 80 -13 23 -13 29 0 53 30 54 112 58 208 12 l43 -21 24 27 c30 31 30 37 8
57 -59 50 -234 65 -306 27z"/>
<path d="M5230 1321 c-59 -32 -80 -70 -80 -145 0 -58 3 -69 28 -97 29 -32 78
-55 147 -69 60 -11 111 -36 134 -66 28 -35 27 -40 -14 -81 -35 -35 -37 -36
-97 -30 -33 3 -65 10 -71 16 -6 6 -18 11 -27 11 -9 0 -25 9 -35 20 -24 27 -39
25 -69 -7 l-25 -27 20 -22 c74 -79 297 -97 372 -31 60 53 75 146 33 207 -28
42 -62 60 -177 94 -51 16 -94 35 -107 49 -41 43 -23 90 44 113 34 12 45 12 89
-3 28 -9 60 -23 73 -31 22 -14 25 -13 50 12 33 33 25 52 -39 83 -59 30 -196
32 -249 4z"/>
</g>
</svg>
