<?xml version="1.0" encoding="UTF-8" standalone="no"?>
<svg xmlns:rdf="http://www.w3.org/1999/02/22-rdf-syntax-ns#" xmlns="http://www.w3.org/2000/svg" xml:space="preserve" height="442.42" viewBox="0 0 359.34875 442.42117" width="359.35" version="1.1" xmlns:cc="http://creativecommons.org/ns#" xmlns:dc="http://purl.org/dc/elements/1.1/"><g transform="matrix(1.25 0 0 -1.25 -205.72 742.27)"><g fill-rule="evenodd" transform="translate(-.64352)"><path d="m310.25 592.86c55.736 0.267 105.34-13.067 142.14-32 0 0-4.158-168.51-4.533-180.93-0.4-13.2-1.867-23.067-10.134-38.534-6.071-11.36-13.667-25.066-51.736-55.733-23.328-18.793-76.361-44.686-76.361-44.686l-1.242-0.447s-52.143 26.34-75.47 45.133c-38.069 30.667-45.664 44.373-51.736 55.733-8.267 15.467-9.734 25.334-10.134 38.534-0.376 12.42-4.533 180.93-4.533 180.93 36.802 18.933 86.404 32.267 142.14 32h1.599" fill="#fff"/><path d="m179.75 9.6133c-69.15-0.165-123.41 15.615-168.92 36.754 0 0 5.28 200.23 5.75 215.75 0.5 16.5 1.0835 29.584 11.416 48.918 7.59 14.2 17.085 31.332 64.67 69.666 23.199 18.689 69.197 43.349 87.033 52.65l0.0547-11.053c-21.09-11.221-58.822-32.023-79.086-48.348-47.586-38.334-57.081-55.466-64.67-69.666-10.334-19.334-9.418-33.668-9.918-50.168-0.47-15.525-5.5-197.25-5.5-197.25 45.751-20.75 89.254-32.251 159.17-33.75v-13.504zm0 28.504c-62.419 2.75-95.171 9.25-143.92 27.5 0 0 4.0307 170.23 4.502 185.75 0.5 16.5-0.41773 30.834 9.916 50.168 7.59 14.2 11.334 26.082 61.838 65.082 20.594 15.905 47.25 29.499 67.668 39.25v-367.75z" transform="matrix(.8 0 0 -.8 164.58 593.82)" stroke="#004c99" stroke-width="0.8" fill="#004d99"/><path d="m179.68 9.5352v13.504c69.92 1.4988 113.42 12.998 159.17 33.748 0 0-5.03 181.73-5.5 197.25-0.5 16.5 0.41648 30.835-9.916 50.168-7.59 14.201-17.084 31.334-64.67 69.668-20.264 16.324-57.922 37.205-79.014 48.426l-0.0176 10.975c17.835-9.3012 63.832-33.963 87.031-52.65 47.585-38.334 57.08-55.467 64.67-69.668 10.334-19.331 10.916-32.418 11.416-48.918 0.47-15.525 5.75-215.75 5.75-215.75-45.51-21.142-99.77-36.92-168.92-36.755zm0 28.502v367.75c20.418-9.75 47.075-23.345 67.67-39.25 50.501-39 54.245-50.883 61.834-65.084 10.334-19.332 9.418-33.668 9.918-50.168 0.47-15.525 4.5-185.75 4.5-185.75-48.751-18.25-81.503-24.75-143.92-27.5z" transform="matrix(.8 0 0 -.8 164.58 593.82)" stroke="#000" stroke-width="0.8"/><path d="m233.45 336.59v28.266h18.134v140h-23.201v32.267h92.004s24.669 0.533 41.202-7.867c13.51-6.864 22.872-20.89 23.868-38.8 0.933-16.801-3.803-30.88-13.6-39.733-11.068-10-25.069-11.6-25.069-11.6s28.002-1.734 40.269-19.066c11.455-16.184 12.467-36.198 2.401-54.933-10.534-19.603-36.402-27.603-49.203-29.203-12.8-1.6-106.8 0.669-106.8 0.669" fill="#fff"/><path d="m181.12 111.58c-10.279-0.084-19.533 0.78711-19.533 0.78711v66s22.914 0.27375 34.002-1.5c12.5-2 25.499-10.75 28.25-30 2.62-18.35-8.5-27.75-20.75-32.5-5.3599-2.0781-13.974-2.7217-21.969-2.7871zm-1.5332 106.11c-9.8395 0.0488-17.75 0.92774-17.75 0.92774v68s36.752 1.75 48.252-3.25 24-16.5 21-37c-2.6788-18.299-17-25-33-27.5-6.0005-0.9375-12.598-1.207-18.502-1.1777z" transform="matrix(.8 0 0 -.8 164.58 593.82)" stroke="#000" stroke-width="0.8"/><path d="m179.66 23.084v15c62.419 2.75 95.171 9.25 143.92 27.5 0 0-4.03 170.22-4.5 185.75-0.5 16.5 0.41578 30.835-9.918 50.166-7.5888 14.201-11.331 26.084-61.834 65.084-20.595 15.904-47.254 29.5-67.67 39.25l0.0723 16.51c21.091-11.221 58.75-32.102 79.014-48.426 47.586-38.334 57.08-55.467 64.67-69.668 10.334-19.331 9.418-33.666 9.918-50.166 0.47-15.525 5.5-197.25 5.5-197.25-45.752-20.75-89.255-32.25-159.17-33.75zm-100.33 47.533v40.75h29.25v174.75h-22.5v35.25l11.75-18.75h37.002v-210.75h-39.502l-16-21.25zm55.502 21.25 26.746 20.498s29.251-2.75 41.504 2c12.25 4.75 23.371 14.15 20.75 32.5-2.75 19.25-15.751 28-28.252 30-11.088 1.7738-34.002 1.5-34.002 1.5l0.25 40.25s20.251-2.25 36.252 0.25 30.325 9.2 33.004 27.5c3 20.5-9.502 32-21.002 37-11.501 5-48.254 3.25-48.254 3.25l-25.996 16.752s55.003 2.5 74.504 0c13.82-1.7712 42.252-9 50.502-37.25s-3.7457-44.501-22.752-56.75c-22.501-14.5-60.252-15.25-60.252-15.25s12.001-1.75 21.752-4.25c9.75-2.5 19.799-3.5488 35-14 16-11 16-28 15.75-42s-12.5-27.5-26.75-34.75c-14.251-7.25-39.002-7.25-39.002-7.25h-49.752z" transform="matrix(.8 0 0 -.8 164.58 593.82)" fill="#666"/></g></g></svg>
