<svg width="37" height="40" viewBox="0 0 37 40" xmlns="http://www.w3.org/2000/svg"><title>Group 2</title><desc>Created with Sketch.</desc><g fill="#081A2B"><g><path d="M30.565 27.44l-1.688 7.972c-.06.281-.343.512-.629.512h-4.602c-.286 0-.472-.23-.413-.512l1.688-7.972c.059-.281.343-.512.629-.512h4.602c.287 0 .472.23.413.512m4.574-4.132h-13.043c-.745 0-1.481.599-1.636 1.33l-2.874 13.575c-.155.732.328 1.33 1.073 1.33h13.043c.745 0 1.481-.599 1.636-1.33l2.874-13.575c.155-.732-.328-1.33-1.073-1.33" id="Fill-1"/><path d="M17.734 23.308h-13.043c-.745 0-1.481.599-1.636 1.33l-2.874 13.575c-.155.732.328 1.33 1.073 1.33h13.043c.745 0 1.481-.599 1.636-1.33l1.006-4.754h.002l.652-3.082h-7.878l-.653 3.082h2.822l-.413 1.953c-.06.281-.343.512-.629.512h-4.602c-.286 0-.472-.23-.413-.512l1.688-7.972c.06-.281.343-.512.629-.512h4.602c.286 0 .472.23.413.512l-.238 1.124h5.054l.831-3.925c.155-.732-.328-1.33-1.073-1.33" id="Fill-3"/></g><g><g><path d="M0 22.089v-.797l.407-.393h3.29l.125-.124v-.845l-.09-.091h-3.054l-.678-.677v-1.94l.782-.781h4.428v.859l-.318.325h-3.213l-.124.124v.824l.089.089h3.048l.677.679v1.966l-.78.781z"/><path d="M10.016 19.176l.227-.227v-1.081l-.227-.228h-2.12v1.536h2.12zm-3.676-2.734h4.596l.87.871v2.092l-.87.871h-3.04v1.813h-1.556v-5.647z"/><path d="M16.295 20.766l.321-.315v-2.465l-.321-.319h-1.809l-.317.319v2.465l.317.315h1.809zm-3.674.454v-3.908l.863-.871h3.814l.871.871v3.908l-.871.868h-3.814l-.863-.868z"/><path d="M22.833 18.865l.221-.221v-.823l-.221-.221h-2.094v1.266h2.094zm-3.648-2.423h4.643l.781.781v1.803l-.746.746.982 2.318h-1.729l-.731-2.048h-1.646v2.048h-1.554v-5.647z"/><path d="M26.931 17.75h-1.797v-1.309h5.149v1.309h-1.797v4.338h-1.555z"/><path d="M30.777 22.089v-.797l.408-.393h3.29l.124-.124v-.845l-.09-.091h-3.054l-.679-.677v-1.94l.782-.781h4.429v.859l-.318.325h-3.212l-.124.124v.824l.089.089h3.049l.677.679v1.966l-.782.781z"/></g><g><path d="M18.355 10.827v-6.119c0-.696-.607-1.323-1.292-1.323-.682 0-1.236.627-1.236 1.323l-.002 6.101c0 .698.556 1.264 1.238 1.264.685 0 1.292-.546 1.292-1.246zm-8.61-3.059c0-4.11 3.266-7.447 7.296-7.447 4.034 0 7.301 3.337 7.301 7.447 0 4.116-3.268 7.45-7.301 7.45-4.03 0-7.296-3.334-7.296-7.45z"/><path d="M.355.09v15.318h4.313v-4.951h4.239v-4.182h-4.209v-1.996h5.164l-.284-4.189z"/><path d="M30.982.113l-1.916 3.298-1.883-3.298h-4.779l4.272 7.377-4.525 7.905 4.642-.002 2.216-3.871 2.239 3.864h4.775l-4.615-7.947 4.194-7.326z"/></g></g></g></svg>