<?xml version="1.0" encoding="UTF-8" standalone="no"?>
<svg
   xmlns:dc="http://purl.org/dc/elements/1.1/"
   xmlns:cc="http://creativecommons.org/ns#"
   xmlns:rdf="http://www.w3.org/1999/02/22-rdf-syntax-ns#"
   xmlns:svg="http://www.w3.org/2000/svg"
   xmlns="http://www.w3.org/2000/svg"
   xmlns:sodipodi="http://sodipodi.sourceforge.net/DTD/sodipodi-0.dtd"
   xmlns:inkscape="http://www.inkscape.org/namespaces/inkscape"
   width="536.59943"
   height="159.19135"
   viewBox="0 0 429.27954 127.35308"
   version="1.1"
   id="svg2"
   inkscape:version="0.48.1 "
   sodipodi:docname="Lewis-Clark State College logo.svg">
  <metadata
     id="metadata56">
    <rdf:RDF>
      <cc:Work
         rdf:about="">
        <dc:format>image/svg+xml</dc:format>
        <dc:type
           rdf:resource="http://purl.org/dc/dcmitype/StillImage" />
        <dc:title></dc:title>
      </cc:Work>
    </rdf:RDF>
  </metadata>
  <defs
     id="defs54" />
  <sodipodi:namedview
     pagecolor="#ffffff"
     bordercolor="#666666"
     borderopacity="1"
     objecttolerance="10"
     gridtolerance="10"
     guidetolerance="10"
     inkscape:pageopacity="0"
     inkscape:pageshadow="2"
     inkscape:window-width="1680"
     inkscape:window-height="994"
     id="namedview52"
     showgrid="false"
     fit-margin-top="0"
     fit-margin-left="0"
     fit-margin-right="0"
     fit-margin-bottom="0"
     inkscape:zoom="2.0425208"
     inkscape:cx="268.29971"
     inkscape:cy="79.595587"
     inkscape:window-x="-4"
     inkscape:window-y="-4"
     inkscape:window-maximized="1"
     inkscape:current-layer="svg2" />
  <path
     d="m 298.25604,1.2051849 1.22135,0 c 0.0618,3.0912806 -0.45485,6.1629103 -0.42959,9.2569971 -0.0225,10.394122 -0.014,20.785438 -0.006,31.176753 0.0843,1.996283 -0.12073,4.242446 1.15115,5.935488 1.33647,1.448774 3.42822,1.684624 5.27007,1.976621 0.46327,0.103886 1.28593,0.08987 1.22416,0.774933 0.13476,0.671036 -0.39589,1.229768 -1.07255,1.080958 -6.34822,-0.620501 -12.78067,-0.845118 -19.11766,-0.003 -0.70754,0.13477 -1.18204,-0.721581 -0.81984,-1.297158 1.10623,-0.685076 2.54659,-0.890042 3.36644,-1.999088 1.08377,-1.235391 0.93777,-2.967744 1.0192,-4.495132 0.16002,-2.150703 0.0898,-4.307019 0.10387,-6.460528 0,-6.833947 0,-13.667903 0,-20.501859 0.0169,-2.038391 -0.009,-4.09082 -0.31727,-6.112375 -0.21338,-1.2803132 -0.71315,-2.7431261 -2.02997,-3.2597409 -1.0248,-0.5587323 -2.36969,-0.092613 -3.29624,-0.808622 -0.56997,-0.901265 0.39307,-1.5638834 1.21855,-1.6003892 4.29297,-0.7131536 8.65333,-1.5554658 12.51394,-3.6640521 z"
     id="path4"
     inkscape:connector-curvature="0"
     style="fill:#004685" />
  <path
     d="m 392.5556,1.943611 c 0.59804,-0.3818444 1.31681,-0.7524652 2.044,-0.4773128 0.35939,0.3902718 0.27798,0.9546257 0.23025,1.4375503 -0.40712,2.6841636 -0.3201,5.4104449 -0.33132,8.1142595 0.0112,8.364159 -0.028,16.725503 0.0196,25.086845 3.22044,-2.066468 6.40438,-4.191909 9.61077,-6.286456 1.15678,-0.791768 2.38655,-1.530193 3.31029,-2.60555 0.33412,-0.381845 0.64296,-1.005151 0.21058,-1.440347 -0.91811,-1.159582 -2.50167,-1.139931 -3.79601,-1.513357 -0.87039,-0.555927 0.0253,-1.577923 0.82827,-1.372966 2.91158,0.171276 5.82037,0.527847 8.74599,0.401504 2.45394,0.03365 4.87699,-0.645773 7.33092,-0.415544 0.67386,0.01687 1.10062,0.957432 0.56434,1.420705 -0.46045,0.339727 -1.04726,0.423962 -1.57791,0.578383 -3.72303,0.898469 -7.24669,2.47078 -10.57382,4.34071 -1.54985,0.904081 -3.2401,1.70147 -4.40249,3.113747 1.23258,1.993467 2.8414,3.714587 4.38845,5.46098 3.14181,3.394522 6.42965,6.659874 9.87469,9.748349 1.72674,1.55267 4.25087,1.255051 6.18538,2.350049 l 0,1.089396 c -1.22416,0.297619 -2.45674,-0.02531 -3.68091,-0.120731 -2.98459,-0.202161 -5.9776,0.0088 -8.95096,0.224616 -1.73236,0.176879 -3.04355,-1.095007 -4.20313,-2.175975 -3.82971,-3.650014 -7.62292,-7.403912 -10.66647,-11.750244 -1.08097,0.741232 -2.14508,1.499319 -3.21482,2.248978 0.014,1.76885 -0.0534,3.543322 0.0253,5.312171 0.003,1.333664 0.64297,2.622395 1.72394,3.408551 1.42912,1.215738 3.35239,1.358937 5.1409,1.482473 0.97989,-0.02805 1.13993,1.535815 0.19655,1.729548 -1.46282,0.334116 -2.97899,0.06456 -4.45021,-0.05337 -2.99302,-0.291997 -6.00849,-0.353766 -9.01274,-0.235851 -1.9682,0.06181 -3.91956,0.541887 -5.89057,0.404311 -0.46606,0.01963 -0.73561,-0.443613 -0.72157,-0.856351 0.40149,-0.640152 1.19046,-0.819846 1.81378,-1.176427 1.18485,-0.561539 2.01873,-1.766044 2.15069,-3.068814 0.2162,-3.902709 0.13758,-7.816651 0.15162,-11.722174 0,-7.485332 0,-14.967868 0,-22.453208 -0.0505,-1.482464 -0.16004,-3.2120119 -1.36454,-4.2564845 -1.10343,-0.9096924 -2.61397,-0.7019202 -3.92517,-0.9293434 -0.584,-0.044933 -0.68509,-0.8675846 -0.19374,-1.1343194 1.0585,-0.6682302 2.33882,-0.8310789 3.54333,-1.0921922 3.05759,-0.5110029 6.20783,-1.1286979 8.86673,-2.816128 z"
     id="path6"
     inkscape:connector-curvature="0"
     style="fill:#004685" />
  <path
     d="m 250.72722,3.6591196 c 5.37394,-0.614889 10.91074,-0.3762326 16.1106,1.1876606 2.26021,0.6569968 4.35476,1.7520045 6.50826,2.6869695 0.81424,0.3593875 1.98786,0.4548463 2.55501,-0.3790385 0.49417,-0.4745069 0.82547,-1.3140035 1.62567,-1.2887408 0.59242,-0.011184 1.1315,0.3902719 1.26908,0.9686649 0.48012,3.1418157 -0.0786,6.3734887 0.57558,9.5012647 0.28077,1.392627 0.81423,2.785243 0.59241,4.228406 -0.16002,0.803001 -1.2466,1.033239 -1.85869,0.606462 -0.42957,-0.811429 -0.67946,-1.712693 -1.21574,-2.467975 -1.97382,-3.001433 -4.36878,-5.775444 -7.3281,-7.841912 -4.32949,-3.1699041 -9.66131,-5.0482517 -15.05211,-4.9443656 -3.96728,-0.078584 -8.02442,1.0248119 -11.22239,3.4169781 -3.39733,2.4960425 -5.81195,6.2611745 -6.71883,10.3716555 -1.0136,4.537248 -0.72159,9.380544 0.90126,13.74371 1.87555,4.96122 5.81757,8.931308 10.41379,11.463857 4.46704,2.484819 9.8045,3.214827 14.80783,2.240551 4.78151,-0.932159 9.62762,-2.594317 13.3029,-5.910215 0.93777,-0.746853 1.78008,-1.622856 2.80209,-2.260202 0.46889,-0.1825 1.27188,-0.238656 1.4235,0.398689 0.13196,1.10062 -0.71316,1.973816 -1.34489,2.7684 -4.1554,4.523209 -9.71466,7.71557 -15.69226,9.105381 -5.1409,1.193282 -10.50923,1.246623 -15.71472,0.446428 -5.37395,-0.819845 -10.61031,-2.978977 -14.7236,-6.578454 -3.08847,-2.667319 -5.47503,-6.216252 -6.49702,-10.189156 -1.29717,-4.888218 -0.94901,-10.217234 1.10903,-14.84995 1.99629,-4.627096 5.33464,-8.68142 9.57428,-11.4245463 4.12452,-2.7234753 8.90603,-4.3715938 13.79706,-5.0005221 z"
     id="path8"
     inkscape:connector-curvature="0"
     style="fill:#004685" />
  <path
     d="M 4.0619536,4.5828513 C 4.741417,3.8921545 5.7521896,4.0943149 6.6169684,4.1645011 8.4672473,4.3778948 10.331556,4.3863124 12.187457,4.551967 c 2.630812,0.2246173 5.261634,-0.087021 7.88403,-0.247074 2.796477,-0.2526957 5.604178,-0.3285033 8.409072,-0.2863858 0.752465,0.030904 1.721121,0.061807 2.097353,0.8479239 0.01687,0.4492345 -0.28357,0.8760023 -0.73561,0.9490041 -1.255051,0.2555016 -2.630822,0.1656547 -3.748287,0.8928474 -1.294353,0.7580868 -1.80255,2.3332035 -1.813784,3.7623264 -0.01118,10.203195 0.0059,20.4064 -0.0059,30.609594 0.05338,1.791317 0.117926,3.655635 0.828273,5.329025 0.303231,0.803001 1.050085,1.372967 1.906426,1.457192 3.09129,0.449235 6.235912,0.193733 9.332814,-0.08143 4.989289,-0.575577 10.147048,-1.971011 13.973949,-5.387988 1.212923,-1.024812 2.060847,-2.493237 3.501203,-3.231663 0.584005,-0.05338 0.887236,0.575577 0.890042,1.072541 0.238656,3.560167 -1.76885,6.954687 -4.562521,9.035195 -2.411817,1.796928 -5.525565,2.296698 -8.465229,2.190006 -7.016447,-0.230229 -14.030096,-0.707541 -21.052164,-0.609267 -3.37486,0.08143 -6.744109,0.289191 -10.10493,0.575577 -0.7552713,0 -1.6144285,0.202151 -2.2826684,-0.252696 C 7.894224,50.744317 7.9756435,49.98623 8.5540267,49.806537 10.005616,49.303961 11.667774,48.986691 12.667313,47.69795 c 1.218545,-1.544233 1.322431,-3.621934 1.401045,-5.505903 0.01403,-9.824157 0,-19.651129 0.0088,-29.478091 C 14.088349,11.245522 13.698126,9.698483 12.670508,8.6062811 11.553034,7.3596579 9.8656037,6.8570823 8.2567969,6.6493102 6.8501308,6.4022361 5.3283552,6.492083 4.0620811,5.734006 l 0,-1.1511646 z"
     id="path10"
     inkscape:connector-curvature="0"
     style="fill:#004685" />
  <path
     d="m 162.51195,4.9899681 c 0.48292,-0.3088426 1.07535,-0.084176 1.50493,0.2077722 1.44596,0.9574315 2.60554,2.2630076 3.82128,3.4815523 0.44643,0.5222364 1.11746,1.0472785 0.9827,1.8222004 -0.1488,0.659813 -0.65981,1.156777 -1.08658,1.650935 -1.19608,1.218544 -2.38375,2.498858 -3.87744,3.360821 -0.64857,0.415534 -1.52178,0.269541 -2.05805,-0.258308 -1.07254,-0.960238 -2.05804,-2.013127 -3.16148,-2.939674 -0.55031,-0.544694 -1.31961,-1.027618 -1.46281,-1.844658 0.12635,-0.7440379 0.73281,-1.2831192 1.2017,-1.8362398 1.28874,-1.3055858 2.57467,-2.6617068 4.13575,-3.6444011 z"
     id="path12"
     inkscape:connector-curvature="0"
     style="fill:#004685" />
  <path
     d="m 166.2855,21.370122 c 0.46328,-0.261123 1.24663,-0.603665 1.54986,0.05338 -0.19093,7.016455 -0.0309,14.044134 -0.0871,21.063396 0.0589,1.785704 0.0618,3.767938 1.1989,5.256024 1.24662,1.375781 3.23447,1.580738 4.98086,1.726742 0.53908,0.08417 1.30839,0 1.58074,0.606461 0.19936,0.443623 -0.22462,0.803001 -0.61208,0.895663 -2.16473,0.583996 -4.4137,0.176878 -6.60934,0.07299 -3.34397,-0.33692 -6.72164,-0.404301 -10.06281,-0.0059 -1.20169,0.05612 -2.42024,0.415545 -3.61071,0.07859 0.014,-0.376232 -0.2218,-0.923731 0.20216,-1.156766 0.93216,-0.561547 2.1844,-0.640162 2.85543,-1.591971 0.76932,-1.047279 1.22417,-2.344437 1.21294,-3.650013 -0.006,-3.927981 -0.003,-7.855962 -0.003,-11.786749 0,-1.356121 0.0589,-2.737514 -0.28919,-4.062751 -0.17128,-0.645764 -0.5419,-1.274692 -1.15117,-1.589156 -1.14273,-0.668231 -2.52693,-0.131965 -3.73705,-0.51943 -0.58681,-0.123538 -0.60085,-0.996734 -0.16004,-1.291537 0.61769,-0.477313 1.42071,-0.617695 2.17036,-0.769311 3.6472,-0.614889 7.3253,-1.490891 10.571,-3.329936 z"
     id="path14"
     inkscape:connector-curvature="0"
     style="fill:#004685" />
  <path
     d="m 359.63526,21.844619 c 0.83951,-0.35096 1.67902,-1.005161 2.63925,-0.699115 0.16003,1.872737 -0.11512,3.739861 -0.23024,5.606985 -0.12634,0.463273 0.22742,0.800194 0.51101,1.100619 1.26066,-0.66823 1.99346,-1.948543 3.09127,-2.818934 1.47968,-1.190466 3.10252,-2.232123 4.84891,-2.993016 1.41508,-0.628928 2.91721,0.168461 4.19471,0.769311 1.47405,0.8367 3.06601,1.614428 4.1891,2.920013 0.55031,0.561539 -0.0674,1.210118 -0.33693,1.737966 -0.92654,1.398239 -1.77446,3.029512 -3.33274,3.810055 -1.02762,0.553122 -2.0047,-0.294802 -2.78805,-0.87038 -1.97101,-1.521776 -4.62149,-2.161937 -7.05576,-1.589165 -1.11466,0.258306 -2.14228,0.954616 -2.67575,1.979428 -0.71035,1.342091 -0.70193,2.905974 -0.70473,4.385642 0.0196,2.799273 -0.028,5.601362 0.0225,8.400645 0.0196,1.60039 0.56434,3.293441 1.85308,4.323864 1.39262,1.151165 3.22605,1.510553 4.97525,1.721131 0.52223,0.03091 1.17082,0.381845 1.02201,1.007957 -0.028,0.831088 -1.04446,0.772126 -1.62847,0.718775 -3.72863,-0.390272 -7.47974,-0.575578 -11.22802,-0.508197 -2.4399,0.0059 -4.86575,0.412738 -7.30003,0.41835 -0.77773,0.08427 -1.36174,-0.83669 -0.89004,-1.47123 0.71035,-0.544703 1.69305,-0.502586 2.4399,-0.999549 1.37016,-0.847924 1.86712,-2.571861 1.8952,-4.099248 -0.0729,-4.848907 -0.003,-9.703425 -0.0394,-14.555137 -0.0703,-0.974277 -0.14319,-2.097354 -0.89004,-2.818935 -1.1287,-0.8367 -2.61959,-0.699124 -3.92237,-0.996734 -0.74403,-0.387465 -0.3622,-1.561086 0.43519,-1.589165 3.72865,-0.508197 7.48816,-1.243817 10.90513,-2.891936 z"
     id="path16"
     inkscape:connector-curvature="0"
     style="fill:#004685" />
  <path
     d="m 70.452931,22.434236 c 4.784332,-0.887236 9.995432,-0.03091 13.990794,2.835779 2.352853,1.715509 4.62991,3.930787 5.334637,6.859229 0.09261,0.718765 0.409923,1.707081 -0.247074,2.251774 -1.179234,0.805816 -2.72067,0.362193 -4.054324,0.421155 -5.048251,0.0674 -10.099319,0.05052 -15.144764,0.19654 -1.271886,0.07583 -2.560627,-0.21619 -3.812862,0.05896 -0.482924,0.06181 -0.738426,0.547509 -0.78335,0.985511 -0.174072,2.928432 1.165204,5.789483 3.220439,7.827873 2.128238,2.223706 5.028601,3.751093 8.125494,3.970099 2.765592,0.160032 5.626644,-0.199345 8.13392,-1.434735 1.15397,-0.564354 2.117013,-1.426317 3.141825,-2.184394 0.457653,-0.390272 1.145543,-0.359387 1.631274,-0.03649 0.474507,0.766505 -0.286386,1.496503 -0.791767,2.0047 -3.613517,3.214828 -8.176039,5.466602 -13.024945,5.929875 -4.132938,0.373427 -8.487686,-0.16846 -12.134894,-2.254589 -3.186748,-1.808162 -5.823182,-4.778711 -6.738497,-8.378189 -0.943382,-3.765132 -0.558732,-7.982305 1.58635,-11.284164 2.602745,-3.992555 6.856423,-6.93222 11.567744,-7.76892 m 1.125892,1.707091 c -3.551749,0.704725 -6.370682,4.298591 -6.036568,7.928953 0.0674,0.70192 0.839507,0.839507 1.40386,0.861964 3.655625,0.207772 7.31126,-0.115119 10.966894,-0.176888 0.91812,-0.04209 1.926077,-0.1825 2.628007,-0.831079 0.659813,-0.876002 0.258307,-2.052429 -0.04209,-2.993016 -1.45158,-3.335549 -5.323404,-5.449746 -8.920076,-4.789934 z"
     id="path18"
     inkscape:connector-curvature="0"
     style="fill:#004685" />
  <path
     d="m 187.5623,22.456703 c 3.7595,-0.645773 7.63413,-0.370622 11.32626,0.539071 0.71316,0.185315 1.65655,0.617695 1.61444,1.490892 0.0843,1.709896 0.31727,3.408559 0.44923,5.112835 0.073,0.710348 -0.99955,0.892847 -1.44316,0.522236 -1.00515,-0.699124 -1.62005,-1.78851 -2.37531,-2.72067 -1.41509,-1.841851 -3.48998,-3.240089 -5.81476,-3.57702 -2.12824,-0.381844 -4.5176,0.05896 -6.14326,1.555476 -0.7637,0.671036 -1.22978,1.743577 -0.95462,2.754359 0.23023,1.050074 1.04446,1.844658 1.92046,2.40339 1.85028,1.198894 4.03749,1.648129 6.09273,2.358476 1.97662,0.673842 4.00098,1.271886 5.84002,2.277047 1.77728,1.092192 3.3524,2.70662 3.95887,4.747827 0.71315,2.453934 0.39588,5.264441 -1.11466,7.367415 -1.95697,2.748748 -5.18303,4.450208 -8.50736,4.82644 -4.1582,0.48574 -8.25464,-0.640152 -12.32862,-1.28312 -0.84231,-0.10107 -2.44832,-0.04209 -2.22931,-1.330848 0.21058,-2.622395 -0.0674,-5.250412 -0.0703,-7.869991 -0.11511,-1.044472 1.32804,-1.002355 1.94012,-0.651395 0.58121,0.873197 0.67386,1.999089 1.24944,2.894742 1.14554,1.93732 2.42305,3.930787 4.37439,5.149332 2.11702,1.37016 4.81803,1.698663 7.2495,1.128697 1.7829,-0.468885 3.63598,-1.78851 3.83533,-3.756704 0.22742,-1.642508 -0.71877,-3.265363 -2.12824,-4.068363 -4.18629,-2.411817 -9.2935,-2.762788 -13.25517,-5.623839 -3.43944,-2.406196 -3.63879,-7.962644 -0.7272,-10.85458 1.91485,-1.951359 4.59621,-2.936859 7.24108,-3.391705 z"
     id="path20"
     inkscape:connector-curvature="0"
     style="fill:#004685" />
  <path
     d="m 313.55803,24.851674 c 3.6809,-2.175976 8.0553,-2.818933 12.27247,-2.748747 3.58263,0.137576 7.37022,0.578393 10.40816,2.650473 1.93732,1.294352 2.78805,3.664052 2.96494,5.901797 0.19934,4.054324 -0.26393,8.10023 -0.41554,12.148932 -0.0534,1.541437 -0.33973,3.43664 0.92374,4.599027 1.45438,1.235391 3.55174,0.85073 5.23636,0.365 0.53066,-0.247074 1.20731,0.33692 0.8339,0.890041 -0.68509,1.299964 -2.34444,1.499319 -3.54895,2.117014 -2.01874,1.050075 -4.38844,1.58635 -6.63179,1.013579 -1.99629,-0.494158 -3.53491,-2.013128 -4.68045,-3.644401 -3.34117,1.631273 -6.79184,3.147436 -10.47274,3.798822 -2.29951,0.412729 -4.73378,0.463273 -6.95749,-0.328504 -1.7492,-0.623306 -3.28221,-2.013117 -3.78198,-3.838124 -0.66261,-2.501674 -0.0758,-5.371143 1.70708,-7.28319 1.59478,-1.721121 3.80165,-2.729087 6.03376,-3.338365 4.14698,-1.15396 8.42031,-1.757617 12.66275,-2.445507 0.95463,-2.799283 0.42115,-6.174143 -1.72955,-8.285536 -1.64531,-1.715508 -4.16943,-2.336009 -6.47736,-2.007505 -1.05009,0.126343 -2.27706,0.516614 -2.70944,1.583543 -0.41554,0.968655 0.006,2.004701 0.003,3.001434 -0.219,0.800195 -1.01358,1.207311 -1.73796,1.454395 -1.83905,0.56715 -3.79041,0.5475 -5.69123,0.496964 -0.63453,0.05896 -1.25785,-0.474507 -1.11465,-1.137125 0.31165,-1.923271 1.08658,-3.986934 2.90317,-4.964017 m 13.70158,12.07032 c -2.47638,0.339726 -4.79274,1.518969 -6.64021,3.178321 -1.12308,1.033239 -2.01875,2.473586 -1.9317,4.048712 -0.009,1.412268 0.56154,2.92282 1.84747,3.644401 1.7885,0.946189 3.91955,0.673842 5.82037,0.258308 1.45158,-0.365 3.15587,-1.002355 3.58263,-2.616784 0.61489,-2.420244 0.39869,-4.949987 0.42958,-7.423572 -0.0674,-0.393078 0.009,-1.106232 -0.56435,-1.097814 -0.8395,-0.171267 -1.70428,-0.106692 -2.54379,0.0088 z"
     id="path22"
     inkscape:connector-curvature="0"
     style="fill:#004685" />
  <path
     d="m 90.328677,24.141327 c -0.474507,-0.541888 -0.05896,-1.628477 0.744037,-1.403861 4.747827,0.572772 9.557436,0.741242 14.319296,0.252696 0.83951,-0.05896 1.69305,-0.199344 2.52974,-0.05052 0.64577,0.09826 0.82547,1.165194 0.19374,1.426308 -0.7244,0.342542 -1.5274,0.513818 -2.20405,0.954624 -0.87601,0.51381 -1.49931,1.544234 -1.31402,2.577473 0.15724,1.005161 0.72439,1.872735 1.18767,2.757165 1.69023,3.161476 3.38047,6.325759 5.07071,9.487235 0.39027,0.662618 0.82827,1.420696 1.61162,1.662158 0.57558,0.134771 0.99393,-0.39869 1.29717,-0.803001 1.92889,-2.642055 3.85497,-5.292529 5.78105,-7.93738 0.3257,-0.474507 0.70474,-0.940587 0.82547,-1.516165 -0.18531,-0.999539 -0.74123,-1.86993 -1.26627,-2.717854 -0.81143,-1.235389 -1.59759,-2.560626 -2.87228,-3.37486 -0.75528,-0.544693 -1.66498,-0.774932 -2.53817,-1.055696 -0.60927,-0.176888 -0.68509,-1.002355 -0.29761,-1.429123 0.45203,-0.35097 1.05008,-0.224617 1.57232,-0.165654 5.12405,0.727193 10.31549,0.463273 15.46202,0.151615 0.63454,-0.0365 1.53582,-0.0674 1.76604,0.687891 -0.0197,0.362194 -0.15723,0.819845 -0.54749,0.932149 -1.04448,0.35097 -2.33882,0.247084 -3.13902,1.131514 -0.75528,0.940576 -0.51943,2.293891 0.0309,3.279392 2.00189,3.767938 4.02064,7.527458 6.03937,11.286969 0.26112,0.511003 0.76932,1.179243 1.42351,0.859167 0.77211,-0.474507 1.25505,-1.274701 1.73516,-2.015934 1.81659,-2.970559 3.8297,-5.854067 5.15495,-9.094157 0.44923,-1.2017 0.93778,-2.594317 0.33411,-3.829707 -0.55874,-1.095008 -1.83623,-1.549854 -2.98459,-1.679012 -0.6598,-0.123538 -1.47966,-0.02521 -1.94294,-0.612074 -0.29198,-0.454856 0.0113,-1.106241 0.54471,-1.184854 3.84655,-0.345349 7.70434,0.547499 11.54527,0.03934 0.55031,-0.05337 1.36736,-0.06181 1.51617,0.620501 0.14599,0.55312 -0.32289,0.951809 -0.79458,1.106231 -2.58028,0.912508 -3.93921,3.495591 -5.17741,5.750182 -4.05713,6.968725 -8.14796,13.917791 -12.22756,20.872478 -0.60927,1.255041 -2.28546,0.572772 -2.74031,-0.454855 -2.79086,-5.034213 -5.49187,-10.121777 -8.25746,-15.170028 -0.2218,-0.446418 -0.62331,-0.752465 -1.00515,-1.05289 -0.49416,0.384661 -0.97147,0.805816 -1.32805,1.325237 -3.43664,5.006144 -6.87888,10.006666 -10.3099,15.015605 -0.35938,0.530654 -0.85354,1.072542 -1.55265,1.052891 -0.56434,-0.01963 -0.83388,-0.541887 -1.08939,-0.963044 -3.88026,-7.092263 -7.785766,-14.170487 -11.668824,-21.259935 -0.842312,-1.575127 -1.614429,-3.307479 -3.13901,-4.349137 -0.682279,-0.527848 -1.549854,-0.687891 -2.28828,-1.109036 z"
     id="path24"
     inkscape:connector-curvature="0"
     style="fill:#004685" />
  <path
     d="m 220.69039,29.484382 c 0.51101,-0.10108 1.34209,-0.381845 1.56109,0.306046 0.26673,0.819846 0.0843,1.709887 0.13756,2.560627 -0.0618,0.957421 0.21058,2.049624 -0.39025,2.886314 -0.58681,0.482925 -1.35331,0.651385 -2.06086,0.864779 -3.84094,1.021996 -7.67907,2.055235 -11.5144,3.085659 -0.83389,0.219005 -1.66216,0.482924 -2.52132,0.575587 -0.73281,-0.04778 -0.80299,-0.926548 -0.80582,-1.48528 0.009,-1.238195 -0.073,-2.487624 0.0674,-3.720208 0.12916,-0.937771 1.15958,-1.232584 1.9317,-1.454396 4.52602,-1.224157 9.06608,-2.400584 13.5949,-3.619128 z"
     id="path26"
     inkscape:connector-curvature="0"
     style="fill:#004685" />
  <path
     d="m 74.653259,69.019674 c 2.145092,-0.373427 4.354748,-0.244279 6.477374,0.213383 1.681818,0.353766 3.256935,1.095008 4.947181,1.409462 1.123076,0.221811 2.114198,-0.979889 3.220429,-0.527848 0.272346,0.96585 -0.003,1.976632 0.09546,2.959326 0.210578,1.875542 0.763689,3.728626 0.74966,5.618217 -0.07025,0.78335 -1.33647,0.772116 -1.420705,0.0059 -0.96585,-3.700548 -4.262097,-6.283641 -7.740843,-7.493759 -2.397778,-0.774932 -5.160555,-0.943393 -7.451641,0.252686 -1.364548,0.727202 -2.689785,1.954165 -2.782438,3.599478 -0.0674,1.639701 1.182039,3.015482 2.616783,3.633177 4.003779,1.777277 8.364149,2.633619 12.278091,4.635513 1.499309,0.738426 2.908781,1.721131 3.899903,3.085669 1.60039,2.136664 1.976622,5.062291 1.179233,7.5808 -1.162388,3.285013 -4.217173,5.58172 -7.426378,6.676728 -3.832513,1.30838 -7.920536,0.39028 -11.733398,-0.50819 -1.190467,-0.362201 -2.445507,-0.440814 -3.621934,-0.839513 -0.502586,-0.937771 -0.43239,-2.066468 -0.814234,-3.051969 -0.511003,-1.917669 -1.544242,-3.753909 -1.504931,-5.775454 -0.08427,-0.85073 1.361733,-1.139931 1.510543,-0.266734 1.448773,4.009409 4.767476,7.263539 8.754421,8.731964 2.622394,0.932154 5.702451,0.83388 8.072151,-0.71596 1.322431,-0.890051 2.633629,-2.117014 2.886324,-3.767948 0.272347,-1.445967 -0.294813,-3.012667 -1.476861,-3.899892 -1.810968,-1.381394 -4.065548,-1.942932 -6.168523,-2.72067 -3.534903,-1.257856 -7.2158,-2.392167 -10.28743,-4.615862 -2.970549,-2.184394 -3.332743,-6.69638 -1.434735,-9.692201 1.569505,-2.473586 4.323865,-4.040285 7.17649,-4.526016 z"
     id="path28"
     inkscape:connector-curvature="0"
     style="fill:#ed1c24" />
  <path
     d="m 208.07818,71.557833 c 0.69632,-0.949004 1.13713,-2.097353 2.04401,-2.883508 1.05569,0.95181 1.68743,2.24054 2.39498,3.447862 4.43617,7.928954 8.87514,15.860724 13.31413,23.792484 0.74404,1.342082 1.87273,2.521314 3.33555,3.066017 0.84793,0.373417 1.7857,0.429574 2.6589,0.724388 0.24707,0.370614 0.10108,0.805804 -0.014,1.193264 -4.68045,-0.39869 -9.38896,-0.58961 -14.07784,-0.25269 -0.92934,0.0562 -1.8615,0.33974 -2.79085,0.1825 -0.48573,-0.14319 -0.52504,-0.951809 0.0169,-1.044458 1.43756,-0.435199 3.21484,-1.159585 3.46191,-2.849821 -0.2499,-1.825007 -1.32805,-3.405745 -2.17317,-5.00895 -0.53628,-0.949004 -1.19046,-2.145082 -2.42024,-2.204045 -2.71224,-0.247074 -5.43853,-0.103886 -8.15638,-0.143197 -1.67058,-0.04493 -3.36924,0.03934 -4.98648,0.460468 -1.29435,0.906886 -1.91204,2.431467 -2.65048,3.767937 -0.54188,1.033239 -1.22135,2.23493 -0.69068,3.419784 0.57837,1.37016 2.14508,1.886775 3.49278,2.139471 0.75527,0.185305 1.606,0.08427 2.30231,0.474511 0.40993,0.28076 0.15724,0.96304 -0.30324,1.00235 -1.6032,0.17688 -3.18112,-0.30605 -4.77871,-0.33973 -2.62239,-0.0758 -5.23636,0.23584 -7.85314,0.30603 -0.49978,0.0561 -1.13431,-0.14881 -0.9827,-0.77774 0.32569,-0.54469 1.01077,-0.581186 1.54143,-0.817037 1.06693,-0.331309 1.85869,-1.179232 2.47359,-2.074896 1.4235,-2.080508 2.57466,-4.329476 3.81285,-6.519482 3.61072,-6.393149 6.95189,-12.946331 11.02867,-19.061512 m -0.39027,5.166177 c -0.46046,0.525042 -0.89004,1.075357 -1.22977,1.687431 -1.29716,2.265823 -2.55502,4.554092 -3.85217,6.822722 -0.23023,0.421156 -0.49697,0.833885 -0.6177,1.30278 0.12354,0.637346 0.93777,0.631724 1.44596,0.70192 2.89756,0.0365 5.79792,-0.0088 8.69828,0.01963 0.56435,0.02531 1.12028,-0.0674 1.66497,-0.224608 -1.23539,-2.599938 -2.75998,-5.048261 -4.11049,-7.589227 -0.56434,-0.974277 -1.06973,-2.0384 -1.99908,-2.72067 z"
     id="path30"
     inkscape:connector-curvature="0"
     style="fill:#ed1c24" />
  <path
     d="m 124.78483,70.260675 c 0.0646,-0.828273 1.05289,-0.85073 1.67901,-0.803001 2.71224,0.174073 5.4329,0.08417 8.15357,0.103886 8.04688,0.140383 16.10499,0.112304 24.14906,-0.219005 0.74966,0.02531 1.61443,-0.115119 2.25459,0.373427 0.41553,0.435195 0.32007,1.106231 0.40712,1.659351 0.0758,1.51897 0.53065,2.995823 0.55031,4.520404 0.0561,0.873197 -1.28032,0.993928 -1.58356,0.286386 -0.37903,-0.811428 -0.60645,-1.715509 -1.21291,-2.397778 -0.98551,-1.238196 -2.59714,-1.693042 -4.09926,-1.898008 -2.044,-0.221812 -4.11047,-0.14881 -6.15168,0.03934 -0.75808,0.120731 -1.70708,0.16846 -2.17035,0.881614 -0.59804,0.912507 -0.4717,2.055245 -0.48293,3.094096 0.006,5.418863 0.006,10.837735 0,16.259413 0.003,1.931698 0.16004,4.121704 1.54423,5.60979 1.3814,1.43755 3.49279,1.530202 5.34307,1.771665 0.6542,0.01403 0.94339,1.097812 0.26393,1.299972 -3.36364,0.16845 -6.72446,-0.34255 -10.08808,-0.16566 -3.31871,0.006 -6.6318,0.48573 -9.94771,0.34815 -0.0478,-0.49976 -0.14319,-1.277506 0.5447,-1.361731 1.4937,-0.162849 3.15305,-0.244268 4.30983,-1.342081 0.99393,-0.912509 1.35331,-2.316359 1.28311,-3.627557 -0.0224,-7.010833 0.009,-14.024484 -0.0169,-21.035317 0.0729,-0.915315 -0.63454,-1.726742 -1.53301,-1.822201 -1.84185,-0.199355 -3.70336,-0.0088 -5.54801,0.06456 -1.75201,0.174072 -3.66406,0.339727 -5.09038,1.479658 -1.04446,1.285934 -1.26347,3.012666 -1.98785,4.467062 -0.30324,0.760882 -1.8924,0.66823 -1.76885,-0.272347 0.36781,-2.439895 0.78615,-4.87979 1.19889,-7.314074 z"
     id="path32"
     inkscape:connector-curvature="0"
     style="fill:#ed1c24" />
  <path
     d="m 259.94491,69.620523 c 0.46327,-0.224617 0.99392,-0.171276 1.49651,-0.154431 2.73751,0.171276 5.48344,0.07299 8.22657,0.09546 8.04969,0.154421 16.10499,0.09261 24.15187,-0.221812 0.73843,0.02531 1.76324,-0.101079 2.1872,0.66823 0.24709,1.061318 0.18251,2.170355 0.41835,3.237285 0.12635,0.960237 0.41274,1.934514 0.27235,2.905974 -0.0589,0.56716 -0.78615,0.49977 -1.17924,0.415545 -0.73562,-0.642968 -0.72438,-1.752014 -1.34208,-2.490441 -1.26346,-1.816579 -3.6444,-2.218083 -5.70245,-2.299503 -2.01031,-0.02531 -4.05713,-0.07583 -6.02534,0.384651 -1.12588,0.283579 -1.41789,1.606009 -1.40104,2.611171 0.0112,6.084286 -0.003,12.168583 0.009,18.255685 0.0871,1.774472 0.38746,3.793211 1.81659,5.020184 1.40947,1.17362 3.31589,1.266274 5.05105,1.490891 0.62612,0.02521 0.96586,1.064107 0.30043,1.294357 -2.51851,0.14318 -5.04263,-0.12636 -7.55834,-0.1797 -3.95606,-0.0703 -7.90088,0.33973 -11.84852,0.43239 -0.99111,0.21619 -0.90127,-1.510552 -0.0337,-1.448783 1.20169,-0.126343 2.4792,-0.160032 3.5377,-0.819845 1.26346,-0.690697 1.9654,-2.139471 1.97101,-3.546137 0.006,-7.117526 -0.003,-14.235061 0.003,-21.352588 0,-0.628928 -0.10108,-1.361733 -0.67385,-1.729547 -0.83108,-0.569966 -1.90362,-0.39869 -2.85262,-0.435196 -2.2939,0.08702 -4.63553,0.04778 -6.85922,0.699125 -0.8002,0.291997 -1.72674,0.603655 -2.15351,1.40385 -0.72438,1.255041 -1.01359,2.701009 -1.63689,4.000973 -0.32009,0.752465 -1.86994,0.659813 -1.76605,-0.280764 0.34254,-2.347243 0.76931,-4.686058 1.14274,-7.030496 0.0758,-0.320075 0.10107,-0.769309 0.44923,-0.926537 z"
     id="path34"
     inkscape:connector-curvature="0"
     style="fill:#ed1c24" />
  <path
     d="m 327.77624,70.743599 c -0.73843,-0.0088 -0.77492,-1.274691 -0.003,-1.266274 9.08854,0.126343 18.18831,0.275153 27.27965,0.05896 0.75528,0.07299 1.76605,-0.381844 2.36689,0.230229 0.19935,1.934514 0.59524,3.87463 0.46608,5.825989 -0.009,0.836701 -0.83951,1.353316 -1.60319,1.058502 -0.12636,-1.252235 -0.16566,-2.703814 -1.24382,-3.560166 -1.73516,-1.356121 -4.06275,-1.490891 -6.17414,-1.60601 -2.38935,0.04778 -4.79275,-0.14881 -7.16526,0.154431 -1.19046,0.182499 -1.51616,1.535815 -1.46843,2.55781 0.0365,2.420245 -0.11793,4.848907 0.0983,7.26354 0.014,0.780534 0.69912,1.367345 1.46562,1.342082 1.88958,0.04493 3.78479,0.05052 5.67718,-0.0088 1.74359,-0.04493 3.34679,-1.120272 4.18629,-2.630823 0.35657,-0.539072 0.60926,-1.401045 1.40385,-1.392617 0.48854,-0.117926 0.81704,0.306036 0.71315,0.76931 -0.26954,3.386093 0.53066,6.744109 0.33974,10.135814 -0.39027,0.05896 -0.89847,0.252696 -1.18766,-0.115119 -0.43239,-0.83669 -0.46328,-1.853085 -1.06412,-2.608356 -0.73,-1.072541 -1.99627,-1.679003 -3.27098,-1.726732 -2.06085,-0.129158 -4.12733,-0.204966 -6.18536,-0.10108 -0.70193,0.03934 -1.60601,0.1825 -1.82221,0.977082 -0.46888,1.507737 -0.32008,3.11936 -0.35938,4.677631 0.0477,2.204044 -0.20497,4.570949 0.80861,6.609339 0.4717,1.055696 1.65093,1.454386 2.7319,1.431928 3.33274,0 6.72726,-0.255501 9.89435,-1.370159 2.30232,-0.788962 4.41652,-2.209668 5.79791,-4.23963 0.28077,-0.671046 1.26066,-0.297619 1.26346,0.342533 -0.0926,3.301868 -2.58027,6.412803 -5.81475,7.15404 -2.53536,0.60927 -5.17179,0.36219 -7.74927,0.31445 -5.05105,-0.35938 -10.12177,-0.4408 -15.17563,-0.0814 -0.73562,0.0337 -1.47124,0.1432 -2.20125,0.0534 -0.56154,0.0309 -0.65139,-0.93497 -0.15442,-1.055701 0.9827,-0.482923 2.27424,-0.614888 2.90317,-1.62566 0.81703,-1.429123 0.88723,-3.133399 0.94619,-4.736593 -0.003,-6.084297 0.006,-12.165787 -0.006,-18.247279 -0.0646,-1.176427 -0.19654,-2.563432 -1.19327,-3.352393 -1.32804,-0.88443 -2.97898,-0.954616 -4.50075,-1.232585 z"
     id="path36"
     inkscape:connector-curvature="0"
     style="fill:#ed1c24" />
  <path
     d="m 75.203573,117.01738 c 2.204045,-1.61443 5.767026,-1.10343 7.210179,1.29435 -0.179694,0.41273 -0.665425,0.57558 -0.996734,0.84792 -0.555926,-0.84231 -1.358927,-1.57231 -2.383739,-1.752 -1.827812,-0.46608 -3.880251,0.71878 -4.32667,2.56624 -0.704736,2.06928 0.640152,4.68044 2.88913,4.96402 1.715499,0.37624 3.24009,-0.78334 4.12451,-2.14509 0.334125,0.26674 0.673851,0.53347 1.013588,0.8002 -0.774931,1.27751 -1.999088,2.28547 -3.498407,2.55502 l -1.8222,0 c -0.940577,-0.13478 -1.861503,-0.49978 -2.563433,-1.15117 -2.324776,-2.00188 -2.170354,-6.20502 0.353776,-7.97949 z"
     id="path38"
     inkscape:connector-curvature="0"
     style="fill:#004685" />
  <path
     d="m 120.97476,117.27568 c 2.09736,-1.84746 5.76142,-1.52738 7.3955,0.78616 0.97148,1.25506 1.08377,2.9509 0.79739,4.46144 -0.39588,1.85308 -2.02435,3.31029 -3.87743,3.62476 l -1.83625,0 c -0.87319,-0.12916 -1.72112,-0.46048 -2.39216,-1.04166 -2.32197,-1.88397 -2.3697,-5.899 -0.0871,-7.8307 m 1.93453,0.30323 c -2.31076,0.89848 -2.95372,4.14979 -1.46564,6.02815 1.10905,1.4937 3.41418,1.81378 4.92752,0.75809 1.95417,-1.32525 2.1479,-4.52323 0.3959,-6.09554 -0.98832,-0.99111 -2.5859,-1.18766 -3.85778,-0.6907 z"
     id="path40"
     inkscape:connector-curvature="0"
     style="fill:#004685" />
  <path
     d="m 301.52982,117.00053 c 2.2237,-1.606 5.74738,-1.05849 7.21299,1.32244 -0.27797,0.35096 -0.67104,0.57838 -1.02481,0.83668 -0.95181,-1.65374 -3.17832,-2.35566 -4.87698,-1.44876 -2.26021,1.09219 -2.67013,4.49512 -0.9097,6.21344 1.36454,1.47685 3.95887,1.37859 5.26445,-0.12915 0.52504,-0.47732 0.34254,-1.23258 0.4043,-1.85871 -0.88442,0 -1.76603,-0.003 -2.64766,0 -0.003,-0.37622 -0.003,-0.74965 0.003,-1.12308 1.30558,-0.003 2.61116,-0.009 3.91955,0.0197 -0.028,0.97989 0.0505,1.9654 -0.0562,2.94248 -0.60084,1.27749 -1.94854,2.06366 -3.28781,2.37251 l -1.8194,0 c -0.93777,-0.13758 -1.86432,-0.48854 -2.55782,-1.14835 -2.336,-2.00752 -2.17316,-6.23592 0.37623,-7.99915 z"
     id="path42"
     inkscape:connector-curvature="0"
     style="fill:#004685" />
  <path
     d="m 166.67578,116.32949 c 0.43239,-0.003 0.87039,-0.003 1.30558,0 -0.014,2.82174 -0.009,5.64348 -0.003,8.46803 2.07489,0.006 4.14698,0.009 6.22188,-0.003 0,0.36219 0.003,0.72719 0.009,1.09501 -2.50727,0.0449 -5.02859,0.19373 -7.52745,-0.0196 0.003,-3.18114 0.0112,-6.36227 -0.006,-9.54059 z"
     id="path44"
     inkscape:connector-curvature="0"
     style="fill:#004685" />
  <path
     d="m 210.99259,116.30703 c 0.43239,0.0112 0.87038,0.028 1.30838,0.0534 -0.0478,2.81052 -0.0196,5.62384 -0.0169,8.43715 2.07489,0.006 4.15258,0.003 6.22749,0.003 0,0.35376 0.003,0.71034 0.009,1.06973 -2.49885,0.27796 -5.01736,-0.0196 -7.52465,0.0169 -0.0112,-3.19235 -0.006,-6.38752 -0.003,-9.57988 z"
     id="path46"
     inkscape:connector-curvature="0"
     style="fill:#004685" />
  <path
     d="m 255.169,116.34353 c 2.56625,-0.028 5.13249,-0.0562 7.69592,0.014 -0.0365,0.3987 -0.0702,0.79738 -0.10669,1.19608 -2.08893,-0.0393 -4.17506,0.0112 -6.26118,-0.0309 -0.028,0.9097 -0.028,1.81659 -0.0225,2.72628 1.29155,0.003 2.58591,-0.003 3.88025,0.0112 -0.003,0.36782 -0.003,0.73563 0.003,1.10343 -1.29715,0.0169 -2.58869,0.009 -3.88305,0.0113 -0.003,1.13994 -0.003,2.27987 0,3.42259 2.24055,0.003 4.48391,0.0112 6.72726,-0.006 0,0.3594 0.003,0.71879 0.014,1.07817 -2.68135,0 -5.37674,0.22461 -8.04969,-0.0449 0.0365,-3.16148 0.028,-6.32294 0.003,-9.48162 z"
     id="path48"
     inkscape:connector-curvature="0"
     style="fill:#004685" />
  <path
     d="m 346.64963,116.32949 c 2.54378,-0.0196 5.08476,-0.003 7.62854,-0.009 -0.006,0.40431 -0.009,0.80861 -0.003,1.21573 -2.09455,-0.003 -4.18629,0.0196 -6.27803,-0.014 -0.0646,0.90689 -0.0646,1.81939 -0.042,2.7291 1.26347,0 2.52694,0 3.79322,0 -0.006,0.37342 -0.006,0.74683 0.003,1.12308 -1.26908,0 -2.53535,0 -3.79882,0 -0.006,1.13992 -0.009,2.27985 0,3.42258 2.22651,0.014 4.45301,-0.0111 6.67952,0.014 0,0.34254 0.003,0.68789 0.0111,1.03324 -1.55265,0.23023 -3.11935,0.0225 -4.67763,0.0758 -1.10624,0.0337 -2.20966,0.0534 -3.31028,-0.0365 0,-3.18676 0.0111,-6.37069 -0.006,-9.55463 z"
     id="path50"
     inkscape:connector-curvature="0"
     style="fill:#004685" />
</svg>
