<?xml version="1.0" encoding="utf-8"?>
<!-- Generator: Adobe Illustrator 22.0.1, SVG Export Plug-In . SVG Version: 6.00 Build 0)  -->
<svg version="1.1" id="Layer_1" xmlns="http://www.w3.org/2000/svg" xmlns:xlink="http://www.w3.org/1999/xlink" x="0px" y="0px"
	 width="250.1px" height="45.02px" viewBox="0 0 250.1 45.02" enable-background="new 0 0 250.1 45.02" xml:space="preserve">
<g>
	<path d="M58.04,25.26h7.1v2.59H55.05V13.56h2.99V25.26z M74.63,13.56l5.03,14.29h-3.24l-0.91-2.95h-5.27l-1,2.95h-3.15l5.1-14.29
		H74.63z M74.67,22.44l-1.77-5.65h-0.04l-1.83,5.65H74.67z M88.42,24.82h-0.04L85.8,13.56h-4.36v14.29h2.78V15.91h0.04l2.6,11.94
		h2.93l2.67-11.94h0.04v11.94h2.78V13.56h-4.32L88.42,24.82z M105.58,13.56l5.03,14.29h-3.24l-0.92-2.95h-5.27l-1,2.95h-3.14
		l5.1-14.29H105.58z M105.62,22.44l-1.77-5.65h-0.04l-1.83,5.65H105.62z M123.84,24.62c0,2.09,0,2.6,0.63,2.84v0.38h-3.3
		c-0.2-0.68-0.32-1.41-0.32-2.89c0-1.95-0.12-2.71-2.33-2.71h-3.08v5.59h-2.93V13.56h7.22c3.8,0,4.5,2.81,4.5,4.04
		c0,1.57-0.8,2.92-2.21,3.4C123.21,21.52,123.84,21.96,123.84,24.62 M118.95,19.85c1.55,0,2.31-0.54,2.31-1.95
		c0-0.76-0.34-1.87-2.09-1.87h-3.72v3.82H118.95 M140.82,22.97c0,1.73-0.83,2.73-2.88,2.73c-1.39,0-2.55-0.88-2.55-2.87v-9.27h-3.04
		v9.47c0,3.27,2.02,5.19,5.65,5.19c3.6,0,5.87-1.61,5.87-5.37v-9.29h-3.05V22.97z M155.51,23.51h-0.04l-5.67-9.95h-3.14v14.29h2.79
		V17.66h0.04l5.83,10.19h2.99V13.56h-2.79V23.51z M160.92,27.85h2.99V13.56h-2.99V27.85z M171.86,24.38h-0.04l-3.07-10.82h-3.2
		l4.81,14.29h2.85l4.86-14.29h-3.11L171.86,24.38z M182.89,21.62h6.97v-2.53h-6.97v-3h7.58v-2.53h-10.51v14.29h10.84v-2.53h-7.92
		V21.62z M204.56,24.62c0,2.09,0,2.6,0.64,2.84v0.38h-3.3c-0.2-0.68-0.32-1.41-0.32-2.89c0-1.95-0.12-2.71-2.33-2.71h-3.09v5.59
		h-2.93V13.56h7.22c3.8,0,4.5,2.81,4.5,4.04c0,1.57-0.79,2.92-2.21,3.4C203.92,21.52,204.56,21.96,204.56,24.62 M199.66,19.85
		c1.55,0,2.31-0.54,2.31-1.95c0-0.76-0.34-1.87-2.09-1.87h-3.72v3.82H199.66 M209.87,17.36c0-1.29,1.35-1.71,2.49-1.71
		c2.61,0,2.85,1.51,2.92,2.15h2.86c-0.02-1.75-1.19-4.62-5.57-4.62c-4.64,0-5.49,2.81-5.49,4.4c0,5.72,8.66,3.36,8.66,6.33
		c0,1.51-1.57,1.85-2.99,1.85c-2.61,0-3.01-1.51-3.02-2.31h-2.87c0,1.77,0.89,4.77,6.11,4.77c1.25,0,5.63-0.38,5.63-4.68
		C218.61,18.09,209.87,20.3,209.87,17.36 M220.64,27.85h2.99V13.56h-2.99V27.85z M225.17,16.09h4.32v11.76h2.99V16.09h4.32v-2.53
		h-11.62V16.09z M246.66,13.56l-2.82,6.21l-2.97-6.21h-3.52l4.93,8.89v5.39h2.99V22.5l4.78-8.94H246.66z"/>
	<path d="M23.82,4.26l3.5,10.9l11.45-0.04l-9.29,6.69l3.58,10.88l-9.24-6.77l-9.24,6.77l3.58-10.88l-9.29-6.69l11.45,0.04
		L23.82,4.26z M24.67,0.01l1.78,5.47l2.47,0l-0.76-2.34l11.45,0.02l-1.02-3.15L24.67,0.01z M26.64,6.07l2.43,7.48l13.81,0
		l-0.95-2.92l-11.31-0.05l-0.45-1.37L41.5,9.16l-1.01-3.1L26.64,6.07z M43.32,14.51l-4.65,3.38l0.76,2.35l1.99-1.44l3.52,10.9
		l2.68-1.94L43.32,14.51z M38.16,18.26l-6.36,4.62l4.27,13.13l2.48-1.8L35.1,23.44l1.16-0.85l3.55,10.75l2.64-1.92L38.16,18.26z
		 M35.07,36.84l-4.65-3.38l-2,1.45l1.99,1.44l-9.27,6.71l2.67,1.94L35.07,36.84z M29.91,33.09l-6.36-4.62l-11.17,8.12l2.48,1.8
		l9.18-6.6l1.16,0.85l-9.13,6.69l2.64,1.92L29.91,33.09z M11.3,35.85l1.78-5.47l-2-1.45l-0.76,2.34l-9.25-6.75l-1.02,3.15
		L11.3,35.85z M13.27,29.78l2.43-7.48L4.53,14.19L3.58,17.1l9.12,6.69l-0.44,1.37l-9.19-6.62l-1.01,3.1L13.27,29.78z"/>
	<path fill="#DC0031" d="M9.13,0.01h3.31L8.88,10.89h2.46l-0.77,2.35H4.82L9.13,0.01z M11.2,13.24h7.86L23.32,0.1h-3.07l-3.55,10.74
		h-1.44l3.45-10.79h-3.26L11.2,13.24z"/>
</g>
</svg>
