<?xml version="1.0" encoding="UTF-8" standalone="no"?>
<svg xmlns:svg="http://www.w3.org/2000/svg" xmlns="http://www.w3.org/2000/svg" version="1.1"
     width="1085px" height="260px" viewBox="1 1 217 52">
	<defs id="defs13" />
	<rect x="1" y="1" width="217" height="52" style="fill :#FFFFFF; stroke :none;" />
	<path style="fill :#ED1C24; stroke :none;" d="M 107.55,9.036 C 107.77,9.036 107.98,9.036 108.19,9.036 111.15,9.036 114.38,9.569 117.13,10.557 118.14,10.904 119.32,11.384 120.25,12.024 120.6,12.264 121.02,12.451 121.45,12.451 122.25,12.451 123,11.944 123.27,11.223 H 132.31 V 25.736 L 121.19,25.763 C 120.52,22.322 118.01,19.413 114.7,18.373 113.45,17.999 111.98,17.786 110.62,17.786 109.61,17.786 108.54,17.919 107.55,18.16 V 36.115 C 108.46,36.328 109.45,36.462 110.38,36.462 112.68,36.462 115.05,35.768 116.92,34.487 118.71,33.26 120.12,31.312 120.95,29.339 L 132.66,32.087 C 131.24,36.088 128.5,40.037 124.71,42.065 120.36,44.413 115,45.453 110.03,45.453 109.21,45.453 108.38,45.427 107.55,45.373 V 50.976 H 143.04 V 2.9 H 107.55 V 9.036 z M 86.903,32.033 C 86.049,29.979 84.475,28.111 82.422,27.124 84.476,26.137 86.183,24.376 86.93,22.242 88.451,17.76 91.839,13.891 96.107,11.81 99.656,10.102 103.6,9.142 107.55,9.036 V 2.9 H 75.058 V 50.975 H 107.55 V 45.372 C 103.79,45.105 100.06,44.278 96.721,42.704 92.239,40.624 88.771,36.542 86.903,32.033 L 86.903,32.033 z M 107.55,18.16 V 36.115 C 107.23,36.062 106.94,35.955 106.65,35.875 104.56,35.208 102.78,33.607 101.79,31.687 101.23,30.299 100.91,28.699 100.91,27.205 100.91,25.551 101.28,23.737 102.03,22.269 103.04,20.242 105.05,18.748 107.23,18.214 107.34,18.187 107.45,18.187 107.55,18.16 z" />
	<path style="fill :#ED1C24; stroke :none;" d="M 35.014,9.036 C 35.227,9.036 35.441,9.036 35.654,9.036 38.642,9.036 41.87,9.569 44.618,10.557 45.632,10.904 46.832,11.384 47.766,12.024 48.086,12.264 48.513,12.451 48.967,12.451 49.767,12.451 50.514,11.944 50.781,11.223 H 59.799 V 25.736 L 48.674,25.763 C 48.007,22.322 45.499,19.413 42.191,18.373 40.964,17.999 39.47,17.786 38.136,17.786 37.095,17.786 36.029,17.919 35.015,18.16 V 36.115 C 35.949,36.328 36.935,36.462 37.869,36.462 40.19,36.462 42.537,35.768 44.432,34.487 46.193,33.26 47.634,31.312 48.434,29.339 L 60.146,32.087 C 58.759,36.088 55.984,40.037 52.223,42.065 47.874,44.413 42.512,45.453 37.55,45.453 36.696,45.453 35.869,45.427 35.016,45.373 V 50.976 H 70.525 V 2.9 H 35.014 V 9.036 z M 14.391,32.033 C 13.537,29.979 11.937,28.111 9.909,27.124 11.937,26.137 13.671,24.376 14.418,22.242 15.939,17.76 19.327,13.891 23.595,11.81 27.143,10.102 31.092,9.142 35.014,9.036 V 2.9 H 2.519 V 50.975 H 35.014 V 45.372 C 31.279,45.105 27.543,44.278 24.209,42.704 19.727,40.624 16.258,36.542 14.391,32.033 L 14.391,32.033 z M 35.014,18.16 V 36.115 C 34.72,36.062 34.4,35.955 34.133,35.875 32.052,35.208 30.265,33.607 29.278,31.687 28.717,30.299 28.398,28.699 28.398,27.205 28.398,25.551 28.772,23.737 29.492,22.269 30.533,20.242 32.507,18.748 34.695,18.214 34.8,18.187 34.907,18.187 35.014,18.16 z" />
	<path style="fill :#00539F; stroke :none;" d="M 182.04,25.924 182.76,27.551 189.35,11.223 H 210.56 V 19.947 H 207.65 V 35.208 H 210.56 V 44.439 H 191.43 V 35.208 H 194.34 V 23.042 L 185.27,44.439 H 182.04 V 50.975 H 215.57 V 2.9 H 182.04 V 25.924 z M 168.99,44.439 H 153.55 V 35.208 H 157.71 V 19.947 H 153.55 V 11.223 H 175.72 L 182.04,25.923 V 2.9 H 147.54 V 50.975 H 182.04 V 44.439 H 175.13 L 166.78,23.042 V 35.208 H 168.99 V 44.439 z" />
</svg>