<?xml version="1.0" encoding="UTF-8" standalone="no"?>
<svg xmlns:rdf="http://www.w3.org/1999/02/22-rdf-syntax-ns#" xmlns="http://www.w3.org/2000/svg" xml:space="preserve" height="51.697" viewBox="0 0 41.372501 51.697498" width="41.373" version="1.1" xmlns:cc="http://creativecommons.org/ns#" xmlns:dc="http://purl.org/dc/elements/1.1/"><g transform="matrix(1.25 0 0 -1.25 -338.19 185.31)"><g transform="translate(.46539 .38783)"><path d="m295.4 147.45h-17.404l-7.447-7.446v-25.666l7.447-7.446h17.404l7.447 7.446v25.665l-7.447 7.447z"/><path d="m300.89 129.94v9.255l-6.3 6.299h-15.783l-6.3-6.299v-24.045l6.3-6.299h15.783l6.3 6.299v9.163h-11.696v-5.501h-5.032v5.014c0.049 0.262 0.073 0.47 0.073 0.566 0 0.004-0.001 0.006-0.001 0.01-0.024-0.014-0.048-0.032-0.072-0.049v11.179h5.032v-5.592h11.696z" fill="#b5b4b4"/><path d="m295.12 127.74c-0.444-0.663-0.734-1.06-1.049-1.233v0.003c0 0.438 0.447 2.055 0.484 2.194 0.188 0.101 0.844 0.455 0.844 0.455l0.346 1.782s-0.684-0.355-0.688-0.357c0.028 0.108 0.064 0.249 0.104 0.404h1.528c-0.821-0.872-1.459-2.142-1.569-3.248m-2.249 1.839-0.356-0.164-0.545-2.066s0.181 0.093 0.357 0.184c-0.103-0.397-0.202-0.796-0.261-1.18-0.366-0.535-0.6-0.869-0.763-1.053 0.051 0.368 0.212 1.067 0.331 1.51 0 0.002 0.662 2.506 0.662 2.506l-1.035-0.476s-0.591-0.598-0.888-0.898c-0.223 0.151-0.562 0.241-1.075 0.005-0.948-0.436-2.693-2.36-2.955-4.272-0.192-0.307-0.368-0.563-0.541-0.789l0.707 3.755-0.757-0.349s-0.605-0.554-0.866-0.774c-0.312 0.114-0.637 0.093-1.007-0.077-0.26-0.119-0.521-0.297-0.773-0.516v11.654h7.139v-5.591h3.001l-0.375-1.409zm-3.237-2.697c0.078-0.558-0.592-2.699-1.258-3.017-0.117 0.643 0.702 2.736 1.258 3.017m-5.819-9.13c0.65 0.769 1.213 1.901 1.602 3.264 0.474 0.403 0.821 0.756 1.163 1.19 0.22-0.318 0.685-0.639 1.356-0.33 0.539 0.249 1.021 0.746 1.571 1.636 0.135-0.294 0.361-0.513 0.738-0.494v-5.266h-6.43zm-0.694 3.816c-0.166 0.459 0.346 2.378 1.111 2.828 0-0.005 0.001-0.006 0.001-0.011-0.027-0.777-0.535-2.655-1.112-2.817m16.296 9.42h0.417v7.763l-5.683 5.682h-14.91l-5.682-5.682v-23.17l5.682-5.683h14.91l5.683 5.683v7.672h-8.957c0.419 0.272 0.8 0.744 1.359 1.515 0.212-0.334 0.656-0.609 1.304-0.311 0.555 0.255 1.09 0.783 1.886 1.883 0.205-0.248 0.744-0.673 1.796-0.189 0.867 0.4 1.485 1.013 2.544 2.524l0.063 0.09v1.855l-0.663-0.957c-0.626-0.903-0.97-1.4-1.478-1.634-0.339-0.157-0.466-0.098-0.552 0.079 1.119 0.873 2.201 1.877 2.281 2.88" fill="#fff"/><path d="m291.3 116.7h-9.247c-0.565 0-0.791 0.531-0.791 0.988 0 0.601 0.341 1.193 0.791 1.728v0.058c-0.15 0.009-0.293 0.052-0.421 0.134-0.351 0.226-0.545 0.699-0.545 1.331 0 0.841 0.393 1.871 0.966 2.75v13.946h9.247v-5.592h7.481v6.273l-5.065 5.066h-14.037l-5.065-5.066v-22.298l5.065-5.064h14.037l5.065 5.064v6.183h-7.481v-5.501z" fill="#8e0a26"/><path d="m280.39 126.88-0.223 0.013s-1.011-1.655-1.011-1.809c0-0.115 0.049-0.224 0.136-0.298 0.155-0.132 0.353-0.1 0.438-0.086 0.073 0.007 0.112 0.001 0.13-0.004 0.003-0.012 0.006-0.03 0.006-0.061 0-0.29-0.171-0.61-1.101-1.552l-0.14-0.142 0.266-1.018 0.425 0.344c1.478 1.197 2.26 2.371 2.26 3.395 0 0.729-0.432 1.173-1.186 1.218" fill="#fff"/><g><path d="m280.37 126.53s-0.863-1.391-0.863-1.446c0-0.044 0.054-0.051 0.164-0.034 0.371 0.04 0.546-0.098 0.546-0.415 0-0.447-0.273-0.858-1.202-1.798l0.077-0.293c1.376 1.114 2.13 2.215 2.13 3.122 0 0.536-0.284 0.831-0.852 0.864"/><path d="m297.68 130.97c0.24 0.11 0.372-0.015 0.372-0.343 0-0.688-0.47-1.385-1.366-2.049 0 1.279 0.59 2.206 0.994 2.392m-9.155-7.427c-0.295-0.135-0.503 0.031-0.503 0.414 0 0.896 0.699 2.9 1.486 3.262 0.306 0.141 0.492-0.014 0.492-0.407 0-0.896-0.689-2.907-1.475-3.269m-5.223-2.283c-0.338-0.156-0.557 0.049-0.557 0.541 0 0.906 0.568 2.577 1.41 2.965 0.251 0.115 0.437-0.04 0.437-0.378 0-0.284-0.328-2.686-1.29-3.128m-0.764-3.695c-0.306-0.142-0.514-0.008-0.514 0.309 0 0.557 0.547 1.257 1.726 2.226-0.371-1.58-0.721-2.309-1.212-2.535m15.306 10.148c-0.59-0.272-0.984-0.081-1.115 0.525 0.896 0.685 2.35 1.846 2.35 2.873 0 0.557-0.437 0.728-1.093 0.426-1.231-0.567-2.412-2.435-2.516-3.916-0.52-0.78-0.856-1.264-1.297-1.467-0.262-0.12-0.448 0.024-0.448 0.362 0 0.634 0.415 1.94 0.535 2.432l0.831 0.448 0.175 0.9-0.731-0.337 0.534 2.06-1.39-0.814-0.498-1.871-0.421-0.193-0.302-1.143 0.415 0.213c-0.154-0.626-0.372-1.342-0.461-1.985-0.677-0.989-0.895-1.294-1.145-1.409-0.197-0.091-0.328 0.013-0.328 0.308 0 0.327 0.241 1.334 0.361 1.783l0.47 1.778-0.295-0.136-1.093-1.104c-0.175 0.324-0.491 0.386-0.929 0.185-0.921-0.424-2.561-2.33-2.765-4.078-0.545-0.881-0.951-1.364-1.43-1.775 0 0 0.689 3.813 0.82 4.277l-0.121-0.055c-0.448-0.414-0.644-0.592-1.005-0.889-0.284 0.175-0.557 0.18-0.917 0.014-1.257-0.578-2.59-2.732-2.59-4.185 0-0.885 0.416-1.306 1.005-1.034 0.481 0.221 0.907 0.712 1.639 1.869l-0.229-1.155c-0.907-0.745-2.24-1.861-2.24-2.932 0-0.568 0.371-0.779 0.929-0.523 1.037 0.478 1.999 2.002 2.567 4.055 0.646 0.542 1.057 0.975 1.569 1.723 0.09-0.678 0.542-1.002 1.108-0.742 0.623 0.287 1.18 0.98 1.911 2.366-0.01-0.333-0.021-1.496 0.798-1.119 0.536 0.247 0.989 0.878 1.873 2.116 0.045-0.739 0.446-1.048 1.022-0.783 0.568 0.262 1.148 0.889 2.098 2.266v0.001c0.143-0.732 0.74-0.96 1.584-0.572 0.798 0.367 1.388 0.956 2.404 2.407v0.612c-0.656-0.947-1.038-1.505-1.639-1.782"/><path d="m295.4 147.45h-17.404l-7.447-7.446v-25.666l7.447-7.446h17.404l7.447 7.446v25.665l-7.447 7.447z"/></g><path d="m300.89 129.94v9.255l-6.3 6.299h-15.783l-6.3-6.299v-24.045l6.3-6.299h15.783l6.3 6.299v9.163h-11.696v-5.501h-5.032v5.014c0.049 0.262 0.073 0.47 0.073 0.566 0 0.004-0.001 0.006-0.001 0.01-0.024-0.014-0.048-0.032-0.072-0.049v11.179h5.032v-5.592h11.696z" fill="#b5b4b4"/><path d="m295.12 127.74c-0.444-0.663-0.734-1.06-1.049-1.233v0.003c0 0.438 0.447 2.055 0.484 2.194 0.188 0.101 0.844 0.455 0.844 0.455l0.346 1.782s-0.684-0.355-0.688-0.357c0.028 0.108 0.064 0.249 0.104 0.404h1.528c-0.821-0.872-1.459-2.142-1.569-3.248m-2.249 1.839-0.356-0.164-0.545-2.066s0.181 0.093 0.357 0.184c-0.103-0.397-0.202-0.796-0.261-1.18-0.366-0.535-0.6-0.869-0.763-1.053 0.051 0.368 0.212 1.067 0.331 1.51 0 0.002 0.662 2.506 0.662 2.506l-1.035-0.476s-0.591-0.598-0.888-0.898c-0.223 0.151-0.562 0.241-1.075 0.005-0.948-0.436-2.693-2.36-2.955-4.272-0.192-0.307-0.368-0.563-0.541-0.789l0.707 3.755-0.757-0.349s-0.605-0.554-0.866-0.774c-0.312 0.114-0.637 0.093-1.007-0.077-0.26-0.119-0.521-0.297-0.773-0.516v11.654h7.139v-5.591h3.001l-0.375-1.409zm-3.237-2.697c0.078-0.558-0.592-2.699-1.258-3.017-0.117 0.643 0.702 2.736 1.258 3.017m-5.819-9.13c0.65 0.769 1.213 1.901 1.602 3.264 0.474 0.403 0.821 0.756 1.163 1.19 0.22-0.318 0.685-0.639 1.356-0.33 0.539 0.249 1.021 0.746 1.571 1.636 0.135-0.294 0.361-0.513 0.738-0.494v-5.266h-6.43zm-0.694 3.816c-0.166 0.459 0.346 2.378 1.111 2.828 0-0.005 0.001-0.006 0.001-0.011-0.027-0.777-0.535-2.655-1.112-2.817m16.296 9.42h0.417v7.763l-5.683 5.682h-14.91l-5.682-5.682v-23.17l5.682-5.683h14.91l5.683 5.683v7.672h-8.957c0.419 0.272 0.8 0.744 1.359 1.515 0.212-0.334 0.656-0.609 1.304-0.311 0.555 0.255 1.09 0.783 1.886 1.883 0.205-0.248 0.744-0.673 1.796-0.189 0.867 0.4 1.485 1.013 2.544 2.524l0.063 0.09v1.855l-0.663-0.957c-0.626-0.903-0.97-1.4-1.478-1.634-0.339-0.157-0.466-0.098-0.552 0.079 1.119 0.873 2.201 1.877 2.281 2.88" fill="#fff"/><path d="m291.3 116.7h-9.247c-0.565 0-0.791 0.531-0.791 0.988 0 0.601 0.341 1.193 0.791 1.728v0.058c-0.15 0.009-0.293 0.052-0.421 0.134-0.351 0.226-0.545 0.699-0.545 1.331 0 0.841 0.393 1.871 0.966 2.75v13.946h9.247v-5.592h7.481v6.273l-5.065 5.066h-14.037l-5.065-5.066v-22.298l5.065-5.064h14.037l5.065 5.064v6.183h-7.481v-5.501z" fill="#8e0a26"/><path d="m13.117 7.3359c-0.48125 0.4825-5.298 5.3-5.7793 5.7813v27.092c0.1125 0.11375 0.4632 0.46516 0.93945 0.94141v-27.645c0.4814-0.48 4.7498-4.7464 5.2308-5.2277h17.316c-0.476-0.4775-0.829-0.8276-0.941-0.9414h-16.766zm15.076 6.2422v6.0488h0.94141v-6.0488h-0.94141zm0 20.234v6.875h-12.498v0.94336h13.439v-6.877h6.5293v-0.94141h-7.4707z" transform="matrix(.8 0 0 -.8 269.5 148.5)" fill="#b9505a"/><path d="m280.39 126.88-0.223 0.013s-1.011-1.655-1.011-1.809c0-0.115 0.049-0.224 0.136-0.298 0.155-0.132 0.353-0.1 0.438-0.086 0.073 0.007 0.112 0.001 0.13-0.004 0.003-0.012 0.006-0.03 0.006-0.061 0-0.29-0.171-0.61-1.101-1.552l-0.14-0.142 0.266-1.018 0.425 0.344c1.478 1.197 2.26 2.371 2.26 3.395 0 0.729-0.432 1.173-1.186 1.218" fill="#fff"/><path d="m31.959 20.602-1.7383 1.0176-0.62305 2.3398-0.52539 0.24024-0.37695 1.4297 0.51758-0.26758c-0.1925 0.7825-0.46492 1.6787-0.57617 2.4824-0.84625 1.2362-1.1191 1.618-1.4316 1.7617-0.24625 0.11375-0.41016-0.01797-0.41016-0.38672 0-0.40875 0.30117-1.6673 0.45117-2.2285l0.58789-2.2227-0.36914 0.16992-1.3652 1.3809c-0.21875-0.405-0.61461-0.48172-1.1621-0.23047-1.1512 0.53-3.2001 2.9127-3.4551 5.0977-0.68125 1.1012-1.1884 1.705-1.7871 2.2188 0 0 0.85969-4.7677 1.0234-5.3477l-0.152 0.068c-0.56 0.5175-0.80461 0.74008-1.2559 1.1113-0.355-0.21875-0.69648-0.22508-1.1465-0.01758-1.5712 0.7225-3.2383 3.4162-3.2383 5.2324 0 1.1062 0.51961 1.633 1.2559 1.293 0.60125-0.27625 1.1338-0.89164 2.0488-2.3379l-0.28516 1.4453c-1.1338 0.93125-2.8008 2.3253-2.8008 3.6641 0 0.71 0.46461 0.9743 1.1621 0.6543 1.2962-0.5975 2.499-2.5021 3.209-5.0684 0.8075-0.6775 1.3209-1.2193 1.9609-2.1543 0.1125 0.8475 0.67726 1.2527 1.3848 0.92773 0.77875-0.35875 1.4749-1.2245 2.3887-2.957-0.0125 0.41625-0.0257 1.8697 0.99805 1.3984 0.67-0.30875 1.2348-1.099 2.3398-2.6465 0.05625 0.92375 0.5593 1.3117 1.2793 0.98047 0.71-0.3275 1.4336-1.1127 2.6211-2.834 0.17875 0.915 0.92547 1.1998 1.9805 0.71484 0.9975-0.45875 1.7359-1.196 3.0059-3.0098v-0.76367c-0.82 1.1838-1.2976 1.8803-2.0488 2.2266-0.7375 0.34-1.2308 0.10125-1.3945-0.65625 1.12-0.85625 2.9375-2.308 2.9375-3.5918 0-0.69625-0.54523-0.90875-1.3652-0.53125-1.5388 0.70875-3.0165 3.0433-3.1465 4.8945-0.65 0.975-1.0698 1.5802-1.6211 1.834-0.3275 0.15-0.56055-0.03063-0.56055-0.45312 0-0.7925 0.51992-2.4241 0.66992-3.0391l1.0391-0.56055 0.21875-1.125-0.91406 0.42188 0.66797-2.5762zm3.4629 1.2637c0.17297 0.0052 0.26562 0.16906 0.26562 0.47656 0 0.86-0.58703 1.7325-1.707 2.5625 0-1.5988 0.73719-2.7577 1.2422-2.9902 0.075-0.03438 0.14156-0.05055 0.19922-0.04883zm-10.158 4.6738c0.22676 0.0032 0.35742 0.20383 0.35742 0.57227 0 1.12-0.86125 3.6334-1.8438 4.0859-0.36875 0.16875-0.62695-0.03883-0.62695-0.51758 0-1.12 0.87367-3.6256 1.8574-4.0781 0.09562-0.04406 0.18027-0.06355 0.25586-0.0625zm-11.674 0.92188s-1.0781 1.7379-1.0781 1.8066c0 0.055 0.06758 0.06422 0.20508 0.04297 0.46375-0.05 0.68164 0.12328 0.68164 0.51953 0 0.55875-0.3407 1.0711-1.502 2.2461l0.0957 0.36719c1.72-1.3925 2.6641-2.7686 2.6641-3.9023 0-0.67-0.35641-1.0388-1.0664-1.0801zm4.9434 2.1621c0.19775 0.01365 0.32812 0.2007 0.32812 0.51758 0 0.355-0.40883 3.3577-1.6113 3.9102-0.4225 0.195-0.69727-0.06078-0.69727-0.67578 0-1.1325 0.71117-3.222 1.7637-3.707 0.07844-0.03594 0.15088-0.04947 0.2168-0.04492zm-0.724 5.876c-0.46375 1.975-0.89992 2.8874-1.5137 3.1699-0.3825 0.1775-0.64258 0.0095-0.64258-0.38672 0-0.69625 0.6825-1.572 2.1562-2.7832z" transform="matrix(.8 0 0 -.8 269.5 148.5)"/></g></g></svg>
