<?xml version="1.0" encoding="UTF-8" standalone="no"?>
<svg xmlns:rdf="http://www.w3.org/1999/02/22-rdf-syntax-ns#" xmlns="http://www.w3.org/2000/svg" xml:space="preserve" height="141.8" viewBox="0 0 196.64125 141.80074" width="196.64" version="1.1" xmlns:cc="http://creativecommons.org/ns#" xmlns:xlink="http://www.w3.org/1999/xlink" xmlns:dc="http://purl.org/dc/elements/1.1/"><g transform="matrix(1.25 0 0 -1.25 -459.98 323.23)"><g fill-rule="evenodd" transform="translate(1.0313 .82502)"><path d="m396.56 173.58h-28.175v17.056l6.459 6.345v19.53l-6.459 6.346v17.055h16.193v7.679h50.562l10.702 8.879 10.7-8.879h50.563v-7.679h16.193v-17.055l-6.46-6.346v-19.53l6.46-6.345v-17.056h-28.175c-3.617-7.808-9.682-14.276-16.895-18.949-7.52-4.871-16.183-7.768-25.067-8.727v-0.28l-4.751-0.047c-0.838-0.008-1.673-0.035-2.511-0.026h-0.057-0.059c-0.836-0.009-1.673 0.018-2.51 0.026l-3.184 0.031-0.035 0.15c-9.417 0.779-18.647 3.721-26.599 8.873-7.214 4.673-13.279 11.141-16.895 18.949" stroke="#9e9c9d" stroke-width="0.8" fill="#9e9c9d"/><path d="m398.98 177.24h-26.934v11.857l6.46 6.346v22.602l-6.46 6.346v11.858h16.193v7.679h48.221l9.381 7.783 9.38-7.783h48.221v-7.679h16.193v-11.858l-6.459-6.346v-22.602l6.459-6.346v-11.857h-26.934c-3.141-8.117-9.172-14.814-16.465-19.538-7.958-5.156-17.295-7.937-26.738-8.42v-0.035l-1.125-0.011c-0.813-0.025-1.626-0.034-2.438-0.026l-0.094 0.001-0.095-0.001c-0.813-0.008-1.625 0.001-2.438 0.026l-0.326 0.003-0.002 0.008c-9.713 0.364-19.352 3.154-27.535 8.455-7.293 4.724-13.324 11.421-16.465 19.538" stroke="#fff" stroke-width="0.48" fill="#fff"/><path stroke-linejoin="bevel" d="m445.84 152.87-0.128-0.002c-21.384 0-39.308 11.949-44.116 28.031h-25.885v6.66l6.459 6.345v25.675l-6.459 6.345v6.661h20.075l-3.882 2.795v4.884h18.838 22.073 4.97l8.055 6.684v-0.027l0.007 0.027 8.056-6.684h4.969 22.073 18.839v-4.884l-3.883-2.795h20.077v-6.661l-6.461-6.345v-25.675l6.461-6.345v-6.66h-25.888c-4.806-16.082-22.73-28.031-44.115-28.031l-0.128 0.002-0.007 0.029v-0.029z" stroke="#000" stroke-width="0.8"/><path d="m445.57 160.41c20.701 0 37.456 11.429 37.589 25.674l0.004 0.092v43.996l3.523 3.467h-21.625l3.524-3.462v-44.001l0.009-0.086c-0.412-9.979-10.552-17.882-23.024-17.882s-22.676 7.882-23.088 17.862l-0.005 0.106v43.996l3.524 3.467h-21.625l3.523-3.462v-44.001l0.012-0.139c0.132-14.245 16.958-25.627 37.659-25.627" stroke="#be0f34" stroke-width=".56" fill="#be0f34"/><path d="m432.89 227.94 11.088 9.753v-65.956l-44.306 37.906v-18l4.472-4.399h-18.853l4.523 4.345v30.81l-4.523 4.68h15.764l31.835-26.445v27.306zm14.333 9.753v-65.956l11.009 9.467v27.59l26.124-21.55h21.375l-4.424 4.517v30.568l4.424 4.75h-18.753l4.472-4.803v-22.521l-44.227 37.938z" stroke="#fff" stroke-width="0.8" fill="#fff"/></g></g></svg>
