<?xml version="1.0" encoding="UTF-8" standalone="no"?>
<svg xmlns:rdf="http://www.w3.org/1999/02/22-rdf-syntax-ns#" xmlns="http://www.w3.org/2000/svg" xml:space="preserve" height="134.9" viewBox="0 0 223.47084 134.89975" width="223.47" version="1.1" xmlns:cc="http://creativecommons.org/ns#" xmlns:dc="http://purl.org/dc/elements/1.1/"><g transform="matrix(1.25 0 0 -1.25 -104.04 419.81)"><g style=""><path d="m197.81 1.2129-3.957 15.244c25.228 31.318 13.986 79.671 0.3164 99.246l3.5352 18.41c24.09-25.37 40.97-92.965 0.1-132.9zm-193.71 19.049s-10.897 34.74 8.5039 65.059c-3.5725-34.842 1.6289-54.225 1.6289-54.225l-10.133-10.834zm107.75 38.125-5.6738 10.059h-3.6289l-3.9102 6.9414h22.793l-9.5801-17z" transform="matrix(.8 0 0 -.8 83.233 335.85)" stroke="#ffd200" stroke-width="0.1" fill="#ffd200"/><path d="m22.793 43.475 4.1055 4.541v36.912h15.379v-25.086l22.754 25.086h8.3262l7.9922-14.264v-27.189h-19.486l4.1094 4.541v18.244l-21.18-22.785h-22zm71.463 0 4.1113 4.541-20.775 36.912h12.037l10.984-19.49 3.623-0.002 7.61-13.506 14.66 26.07-16 0.002 3.8926 6.9258h31.779l-23.404-41.453h-28.508zm42.898 0 4.1035 4.541v20.463l9.2774 16.449h43.494v-41.453h-19.553l4.1113 4.541v27.371h-21.959v-31.912h-19.475z" transform="matrix(.8 0 0 -.8 83.233 335.85)" fill="#003466"/><path d="m197.81 1.2129s-51.546 30.434-193.71 19.049l10.132 10.834c135.42 7.781 179.62-14.641 179.62-14.641l3.96-15.242zm-82.46 95.773c-3.3599 0.04233-6.8177 0.17266-10.371 0.4043 0 0 39.193 1.4839 92.721 36.723l-3.5312-18.41s-28.42-19.352-78.818-18.717z" transform="matrix(.8 0 0 -.8 83.233 335.85)" stroke="#fbb040" stroke-width="0.1" fill="#fbb040"/></g></g></svg>
