<?xml version="1.0" encoding="UTF-8" standalone="no"?>
<!-- Created with Inkscape (http://www.inkscape.org/) -->

<svg
   xmlns:dc="http://purl.org/dc/elements/1.1/"
   xmlns:cc="http://creativecommons.org/ns#"
   xmlns:rdf="http://www.w3.org/1999/02/22-rdf-syntax-ns#"
   xmlns:svg="http://www.w3.org/2000/svg"
   xmlns="http://www.w3.org/2000/svg"
   xmlns:sodipodi="http://sodipodi.sourceforge.net/DTD/sodipodi-0.dtd"
   xmlns:inkscape="http://www.inkscape.org/namespaces/inkscape"
   version="1.1"
   id="svg2"
   xml:space="preserve"
   width="512"
   height="78.522446"
   viewBox="0 0 512 78.522446"
   sodipodi:docname="cca logo.svg"
   inkscape:version="0.92.1 r15371"><metadata
     id="metadata8"><rdf:RDF><cc:Work
         rdf:about=""><dc:format>image/svg+xml</dc:format><dc:type
           rdf:resource="http://purl.org/dc/dcmitype/StillImage" /><dc:title></dc:title></cc:Work></rdf:RDF></metadata><defs
     id="defs6"><clipPath
       clipPathUnits="userSpaceOnUse"
       id="clipPath20"><path
         d="M 0,612 H 792 V 0 H 0 Z"
         id="path18"
         inkscape:connector-curvature="0" /></clipPath><clipPath
       clipPathUnits="userSpaceOnUse"
       id="clipPath38"><path
         d="M 0,612 H 792 V 0 H 0 Z"
         id="path36"
         inkscape:connector-curvature="0" /></clipPath><clipPath
       clipPathUnits="userSpaceOnUse"
       id="clipPath178"><path
         d="M 0,0 H 792 V 612 H 0 Z"
         id="path176"
         inkscape:connector-curvature="0" /></clipPath><clipPath
       clipPathUnits="userSpaceOnUse"
       id="clipPath198"><path
         d="M 0,0 H 792 V 612 H 0 Z"
         id="path196"
         inkscape:connector-curvature="0" /></clipPath><clipPath
       clipPathUnits="userSpaceOnUse"
       id="clipPath250"><path
         d="M 0,0 H 792 V 612 H 0 Z"
         id="path248"
         inkscape:connector-curvature="0" /></clipPath><clipPath
       clipPathUnits="userSpaceOnUse"
       id="clipPath286"><path
         d="M 0,0 H 792 V 612 H 0 Z"
         id="path284"
         inkscape:connector-curvature="0" /></clipPath><clipPath
       clipPathUnits="userSpaceOnUse"
       id="clipPath314"><path
         d="M 0,0 H 792 V 612 H 0 Z"
         id="path312"
         inkscape:connector-curvature="0" /></clipPath><clipPath
       clipPathUnits="userSpaceOnUse"
       id="clipPath346"><path
         d="M 0,0 H 792 V 612 H 0 Z"
         id="path344"
         inkscape:connector-curvature="0" /></clipPath><clipPath
       clipPathUnits="userSpaceOnUse"
       id="clipPath374"><path
         d="M 0,0 H 792 V 612 H 0 Z"
         id="path372"
         inkscape:connector-curvature="0" /></clipPath><clipPath
       clipPathUnits="userSpaceOnUse"
       id="clipPath394"><path
         d="M 0,0 H 792 V 612 H 0 Z"
         id="path392"
         inkscape:connector-curvature="0" /></clipPath><clipPath
       clipPathUnits="userSpaceOnUse"
       id="clipPath426"><path
         d="M 0,0 H 792 V 612 H 0 Z"
         id="path424"
         inkscape:connector-curvature="0" /></clipPath><clipPath
       clipPathUnits="userSpaceOnUse"
       id="clipPath458"><path
         d="M 0,0 H 792 V 612 H 0 Z"
         id="path456"
         inkscape:connector-curvature="0" /></clipPath></defs><sodipodi:namedview
     pagecolor="#ffffff"
     bordercolor="#666666"
     borderopacity="1"
     objecttolerance="10"
     gridtolerance="10"
     guidetolerance="10"
     inkscape:pageopacity="0"
     inkscape:pageshadow="2"
     inkscape:window-width="1600"
     inkscape:window-height="838"
     id="namedview4"
     showgrid="false"
     fit-margin-top="0"
     fit-margin-left="0"
     fit-margin-right="0"
     fit-margin-bottom="0"
     inkscape:zoom="0.40901275"
     inkscape:cx="901.71574"
     inkscape:cy="-289.22673"
     inkscape:window-x="-8"
     inkscape:window-y="-8"
     inkscape:window-maximized="1"
     inkscape:current-layer="g10" /><g
     id="g10"
     inkscape:groupmode="layer"
     inkscape:label="cca_brand_guidelines_logo"
     transform="matrix(1.3333333,0,0,-1.3333333,26.173404,551.65282)"><g
       id="g280"
       transform="matrix(1.407939,0,0,1.407939,-70.316421,-156.76838)"><g
         id="g282"
         clip-path="url(#clipPath286)"><g
           id="g296"
           transform="translate(57.1814,363.3809)"><path
             d="m 0,0 c -11.923,0 -21.181,9.03 -21.181,20.843 0,11.856 9.35,20.984 21.181,20.984 4.424,0 7.974,-0.953 11.632,-3.358 v -7.704 c -4.132,3.656 -7.407,5.106 -11.82,5.106 -8.374,0 -14.243,-6.243 -14.243,-15.084 0,-8.869 5.772,-14.727 14.243,-14.727 4.612,0 7.688,1.253 11.921,4.99 V 3.468 C 7.699,0.965 4.424,0 0,0"
             style="fill:#3dbdae;fill-opacity:1;fill-rule:nonzero;stroke:none"
             id="path298"
             inkscape:connector-curvature="0" /></g><g
           id="g300"
           transform="translate(103.0933,363.3809)"><path
             d="m 0,0 c -11.945,0 -21.177,9.03 -21.177,20.843 0,11.856 9.33,20.984 21.177,20.984 4.408,0 7.979,-0.953 11.637,-3.358 v -7.704 c -4.153,3.656 -7.418,5.106 -11.825,5.106 -8.395,0 -14.248,-6.243 -14.248,-15.084 0,-8.869 5.76,-14.727 14.248,-14.727 4.596,0 7.672,1.253 11.908,4.99 V 3.468 C 7.683,0.965 4.408,0 0,0"
             style="fill:#3dbdae;fill-opacity:1;fill-rule:nonzero;stroke:none"
             id="path302"
             inkscape:connector-curvature="0" /></g></g></g><g
       id="g304"
       transform="matrix(1.407939,0,0,1.407939,122.28414,412.16962)"><path
         d="m 0,0 -3.496,-6.111 h 24.992 v -33.594 h 6.438 V 0 Z"
         style="fill:#3dbdae;fill-opacity:1;fill-rule:nonzero;stroke:none"
         id="path306"
         inkscape:connector-curvature="0" /></g><g
       id="g308"
       transform="matrix(1.407939,0,0,1.407939,-70.316421,-156.76838)"><g
         id="g310"
         clip-path="url(#clipPath314)"><g
           id="g316"
           transform="translate(179.7825,367.9718)"><path
             d="m 0,0 c 0,-2.082 1.651,-3.747 3.837,-3.747 2.186,0 3.836,1.665 3.836,3.747 0,2.082 -1.65,3.762 -3.836,3.762 C 1.651,3.762 0,2.082 0,0 m 1.933,0 c 0,1.086 0.773,1.978 1.904,1.978 C 4.967,1.978 5.74,1.086 5.74,0 5.74,-1.086 4.967,-1.963 3.837,-1.963 2.706,-1.963 1.933,-1.086 1.933,0 m 12.506,6.974 c -0.401,0.104 -0.758,0.134 -1.145,0.134 -0.981,0 -1.74,-0.357 -2.245,-0.847 C 10.543,5.77 10.276,5.071 10.276,3.911 V 3.614 H 8.417 V 1.978 h 1.859 v -5.577 h 1.933 v 5.577 h 2.23 v 1.636 h -2.23 v 0.223 c 0,0.669 0.104,0.936 0.267,1.145 0.238,0.282 0.61,0.416 1.086,0.416 0.178,0 0.416,-0.03 0.58,-0.074 z M 25.22,-1.963 c -0.133,-0.03 -0.505,-0.074 -0.788,-0.074 -0.476,0 -0.788,0.134 -0.981,0.357 -0.164,0.193 -0.238,0.461 -0.238,0.907 v 2.751 h 2.379 V 3.614 H 23.213 V 5.621 H 21.28 V 3.614 H 19.272 V 1.978 H 21.28 V -0.55 c 0,-1.026 0.163,-1.666 0.535,-2.156 0.491,-0.655 1.338,-1.041 2.498,-1.041 0.372,0 0.952,0.059 1.205,0.148 z m 3.941,3.049 c 0.268,0.371 0.937,0.892 1.755,0.892 0.446,0 0.833,-0.149 1.086,-0.402 0.267,-0.267 0.431,-0.639 0.431,-1.353 v -3.822 h 1.933 v 3.673 c 0,1.235 -0.268,1.963 -0.744,2.528 -0.594,0.714 -1.501,1.16 -2.498,1.16 -0.743,0 -1.427,-0.253 -1.963,-0.669 V 6.959 H 27.228 V -3.599 h 1.933 z m 12.402,-2.439 c -0.342,-0.372 -0.996,-0.833 -1.814,-0.833 -1.026,0 -1.844,0.699 -1.948,1.71 h 4.997 c 0.029,0.164 0.044,0.357 0.044,0.55 0,2.008 -1.412,3.688 -3.405,3.688 -2.142,0 -3.51,-1.754 -3.51,-3.762 0,-2.26 1.621,-3.747 3.777,-3.747 1.116,0 2.261,0.461 2.96,1.293 z m -3.673,2.29 c 0.09,0.654 0.744,1.264 1.547,1.264 0.788,0 1.368,-0.625 1.427,-1.264 z m 11.733,-4.536 0.982,2.305 h 4.178 l 0.982,-2.305 h 2.096 L 53.4,6.811 h -1.412 l -4.462,-10.41 z m 3.063,7.168 1.324,-3.078 h -2.647 z m 10.826,0.134 c -0.208,0.03 -0.372,0.059 -0.654,0.059 -0.878,0 -1.666,-0.342 -2.097,-0.877 v 0.729 h -1.859 v -7.213 h 1.933 v 4.536 c 0.238,0.431 0.908,1.041 1.755,1.041 0.283,0 0.565,-0.03 0.699,-0.075 z m 6.989,-5.666 c -0.134,-0.03 -0.505,-0.074 -0.788,-0.074 -0.476,0 -0.788,0.134 -0.981,0.357 -0.164,0.193 -0.238,0.461 -0.238,0.907 v 2.751 h 2.379 V 3.614 H 68.494 V 5.621 H 66.56 V 3.614 H 64.553 V 1.978 H 66.56 V -0.55 c 0,-1.026 0.164,-1.666 0.536,-2.156 0.491,-0.655 1.338,-1.041 2.498,-1.041 0.372,0 0.952,0.059 1.205,0.148 z m 1.591,-0.818 c 0.848,-0.624 1.904,-0.966 2.9,-0.966 1.517,0 2.87,0.847 2.87,2.23 0,2.498 -3.494,2.127 -3.494,3.064 0,0.371 0.446,0.579 0.981,0.579 0.52,0 1.011,-0.223 1.383,-0.49 l 0.907,1.398 c -0.476,0.371 -1.502,0.728 -2.439,0.728 -1.427,0 -2.766,-0.862 -2.766,-2.245 0,-2.32 3.495,-1.933 3.495,-3.019 0,-0.357 -0.402,-0.61 -0.922,-0.61 -0.729,0 -1.487,0.268 -1.978,0.714 z"
             style="fill:#231f20;fill-opacity:1;fill-rule:nonzero;stroke:none"
             id="path318"
             inkscape:connector-curvature="0" /></g><g
           id="g320"
           transform="translate(185.1805,388.7801)"><path
             d="M 0,0 C 1.026,0 1.903,-0.446 2.528,-1.071 L 3.822,0.297 C 2.885,1.205 1.561,1.784 0.015,1.784 c -3.242,0 -5.487,-2.364 -5.487,-5.353 0,-2.989 2.275,-5.353 5.517,-5.353 1.903,0 3.45,0.817 4.372,1.992 l -1.383,1.235 c -0.61,-0.789 -1.592,-1.443 -2.945,-1.443 -2.007,0 -3.554,1.547 -3.554,3.569 C -3.465,-1.591 -1.978,0 0,0 m 10.885,-6.246 c -0.371,-0.535 -1.011,-0.892 -1.74,-0.892 -1.085,0 -1.903,0.833 -1.903,1.963 0,1.041 0.729,1.978 1.859,1.978 0.743,0 1.383,-0.357 1.784,-0.892 z m 1.933,4.685 H 10.96 v -0.58 c -0.565,0.461 -1.294,0.728 -2.112,0.728 -1.963,0 -3.539,-1.635 -3.539,-3.762 0,-0.981 0.357,-1.874 0.922,-2.528 0.639,-0.744 1.65,-1.219 2.721,-1.219 0.729,0 1.413,0.223 2.008,0.728 v -0.58 h 1.858 z m 4.238,3.345 H 15.123 V -8.774 h 1.933 z m 4.239,-3.345 h -1.933 v -7.212 h 1.933 z m -2.231,2.557 c 0,-0.699 0.565,-1.234 1.264,-1.234 0.699,0 1.264,0.535 1.264,1.234 0,0.699 -0.565,1.235 -1.264,1.235 -0.699,0 -1.264,-0.536 -1.264,-1.235 m 9.74,0.803 c -0.401,0.104 -0.758,0.134 -1.145,0.134 -0.981,0 -1.74,-0.357 -2.245,-0.847 -0.506,-0.491 -0.774,-1.19 -0.774,-2.35 v -0.297 h -1.858 v -1.636 h 1.858 v -5.577 h 1.934 v 5.577 h 2.23 v 1.636 h -2.23 v 0.223 c 0,0.669 0.104,0.937 0.267,1.145 0.238,0.282 0.61,0.416 1.086,0.416 0.178,0 0.416,-0.03 0.58,-0.074 z m 0.669,-6.974 c 0,-2.082 1.651,-3.747 3.837,-3.747 2.186,0 3.837,1.665 3.837,3.747 0,2.082 -1.651,3.762 -3.837,3.762 -2.186,0 -3.837,-1.68 -3.837,-3.762 m 1.934,0 c 0,1.086 0.773,1.978 1.903,1.978 1.13,0 1.903,-0.892 1.903,-1.978 0,-1.086 -0.773,-1.963 -1.903,-1.963 -1.13,0 -1.903,0.877 -1.903,1.963 m 12.06,3.703 c -0.209,0.03 -0.372,0.059 -0.655,0.059 -0.877,0 -1.665,-0.342 -2.096,-0.877 v 0.729 h -1.859 v -7.213 h 1.933 v 4.536 c 0.238,0.431 0.907,1.041 1.755,1.041 0.282,0 0.565,-0.03 0.699,-0.075 z m 3.494,-7.302 v 4.685 c 0.268,0.371 0.937,0.892 1.755,0.892 0.446,0 0.833,-0.149 1.085,-0.402 0.268,-0.267 0.432,-0.639 0.432,-1.353 v -3.822 h 1.933 v 3.673 c 0,1.235 -0.268,1.963 -0.744,2.528 -0.595,0.714 -1.502,1.16 -2.498,1.16 -0.803,0 -1.487,-0.282 -2.037,-0.728 v 0.58 h -1.859 v -7.213 z m 9.294,7.213 h -1.933 v -7.212 h 1.933 z m -2.23,2.557 c 0,-0.699 0.565,-1.234 1.264,-1.234 0.698,0 1.264,0.535 1.264,1.234 0,0.699 -0.566,1.235 -1.264,1.235 -0.699,0 -1.264,-0.536 -1.264,-1.235 m 9.517,-7.242 c -0.372,-0.535 -1.011,-0.892 -1.74,-0.892 -1.086,0 -1.904,0.833 -1.904,1.963 0,1.041 0.729,1.978 1.859,1.978 0.744,0 1.383,-0.357 1.785,-0.892 z m 1.933,4.685 h -1.859 v -0.58 c -0.565,0.461 -1.294,0.728 -2.112,0.728 -1.962,0 -3.539,-1.635 -3.539,-3.762 0,-0.981 0.357,-1.874 0.922,-2.528 0.64,-0.744 1.651,-1.219 2.722,-1.219 0.728,0 1.412,0.223 2.007,0.728 v -0.58 h 1.859 z M 76.672,0 c 1.026,0 1.904,-0.446 2.528,-1.071 l 1.294,1.368 c -0.937,0.908 -2.26,1.487 -3.807,1.487 -3.242,0 -5.487,-2.364 -5.487,-5.353 0,-2.989 2.275,-5.353 5.517,-5.353 1.903,0 3.45,0.817 4.372,1.992 l -1.383,1.235 c -0.61,-0.789 -1.591,-1.443 -2.945,-1.443 -2.007,0 -3.554,1.547 -3.554,3.569 0,1.978 1.487,3.569 3.465,3.569 m 5.309,-5.175 c 0,-2.082 1.651,-3.747 3.837,-3.747 2.186,0 3.836,1.665 3.836,3.747 0,2.082 -1.65,3.762 -3.836,3.762 -2.186,0 -3.837,-1.68 -3.837,-3.762 m 1.933,0 c 0,1.086 0.773,1.978 1.904,1.978 1.13,0 1.903,-0.892 1.903,-1.978 0,-1.086 -0.773,-1.963 -1.903,-1.963 -1.131,0 -1.904,0.877 -1.904,1.963 m 9.384,6.959 H 91.365 V -8.774 h 1.933 z m 4.238,0 H 95.603 V -8.774 h 1.933 z m 7.346,-8.312 c -0.342,-0.372 -0.997,-0.833 -1.814,-0.833 -1.026,0 -1.844,0.699 -1.948,1.71 h 4.996 c 0.03,0.164 0.045,0.357 0.045,0.55 0,2.008 -1.413,3.688 -3.406,3.688 -2.141,0 -3.509,-1.754 -3.509,-3.762 0,-2.26 1.621,-3.747 3.777,-3.747 1.115,0 2.26,0.461 2.959,1.293 z m -3.673,2.29 c 0.089,0.654 0.743,1.264 1.546,1.264 0.788,0 1.368,-0.625 1.428,-1.264 z m 13.725,2.677 h -1.859 v -0.58 c -0.565,0.461 -1.293,0.728 -2.111,0.728 -1.963,0 -3.54,-1.635 -3.54,-3.762 0,-0.981 0.342,-1.874 0.908,-2.528 0.639,-0.744 1.665,-1.219 2.736,-1.219 0.728,0 1.353,0.208 1.933,0.654 v -0.238 c 0,-0.922 -0.149,-1.368 -0.446,-1.695 -0.327,-0.387 -0.848,-0.58 -1.472,-0.58 -1.19,0 -1.859,0.624 -2.246,1.041 l -1.219,-1.264 c 0.714,-0.833 2.052,-1.487 3.465,-1.487 1.383,0 2.543,0.535 3.197,1.442 0.431,0.61 0.654,1.383 0.654,2.677 z m -1.933,-4.685 c -0.372,-0.535 -1.011,-0.892 -1.74,-0.892 -1.086,0 -1.903,0.833 -1.903,1.963 0,1.041 0.728,1.978 1.858,1.978 0.744,0 1.383,-0.357 1.785,-0.892 z m 9.279,-0.282 c -0.342,-0.372 -0.996,-0.833 -1.814,-0.833 -1.026,0 -1.844,0.699 -1.948,1.71 h 4.996 c 0.03,0.164 0.045,0.357 0.045,0.55 0,2.008 -1.413,3.688 -3.405,3.688 -2.142,0 -3.51,-1.754 -3.51,-3.762 0,-2.26 1.621,-3.747 3.777,-3.747 1.116,0 2.261,0.461 2.96,1.293 z m -3.673,2.29 c 0.089,0.654 0.744,1.264 1.547,1.264 0.788,0 1.368,-0.625 1.427,-1.264 z"
             style="fill:#231f20;fill-opacity:1;fill-rule:nonzero;stroke:none"
             id="path322"
             inkscape:connector-curvature="0" /></g><g
           id="g324"
           transform="translate(141.5854,368.9775)"><path
             d="m 0,0 c -4.471,0 -8.107,3.701 -8.107,8.173 0,4.469 3.636,8.17 8.107,8.17 4.47,0 8.107,-3.701 8.107,-8.17 C 8.107,3.701 4.47,0 0,0 m 0,21.94 c -7.592,0 -13.77,-6.175 -13.77,-13.767 0,-7.594 6.178,-13.771 13.77,-13.771 7.592,0 13.769,6.177 13.769,13.771 C 13.769,15.765 7.592,21.94 0,21.94"
             style="fill:#3dbdae;fill-opacity:1;fill-rule:nonzero;stroke:none"
             id="path326"
             inkscape:connector-curvature="0" /></g></g></g></g></svg>