<?xml version="1.0" encoding="UTF-8" standalone="no"?>
<svg xmlns:rdf="http://www.w3.org/1999/02/22-rdf-syntax-ns#" xmlns="http://www.w3.org/2000/svg" xml:space="preserve" height="58.629" viewBox="0 0 124.75 58.629132" width="124.75" version="1.1" xmlns:cc="http://creativecommons.org/ns#" xmlns:dc="http://purl.org/dc/elements/1.1/"><g transform="matrix(1.25 0 0 -1.25 -229.5 630.26)"><path d="m274.85 503.75c-0.189 0-0.3058-0.2125-0.5328-0.7625l-4.7609-11.912c-0.378-0.945-0.7375-1.5902-1.6125-1.7062-0.152-0.018-0.41794-0.0375-0.58594-0.0375-0.155 0-0.22969-0.039-0.22969-0.15 0-0.153 0.11494-0.19063 0.36094-0.19063 0.987 0 2.0286 0.0578 2.2406 0.0578 0.583 0 1.4018-0.0578 2.0078-0.0578 0.21 0 0.32187 0.0376 0.32187 0.19063 0 0.111-0.0554 0.15-0.28438 0.15h-0.2828c-0.589 0-0.75938 0.24506-0.75938 0.58906 0 0.226 0.0965 0.68369 0.2875 1.1547l1.0188 2.7141c0.039 0.115 0.078 0.15313 0.175 0.15313h4.2266c0.097 0 0.15418-0.0389 0.19218-0.13594l1.5141-4.0188c0.098-0.227-0.0356-0.39894-0.16562-0.43594-0.193-0.019-0.26875-0.0593-0.26875-0.17031 0-0.134 0.22875-0.13256 0.56875-0.15156 1.519-0.038 2.9029-0.0391 3.5859-0.0391 0.703 0 0.87031 0.0376 0.87031 0.19063 0 0.133-0.0912 0.15-0.24219 0.15-0.229 0-0.515 0.02-0.8 0.075-0.399 0.096-0.94719 0.36118-1.6672 2.0672-1.214 2.885-4.2512 10.624-4.7062 11.667-0.189 0.43501-0.30088 0.60938-0.47188 0.60938zm-27.047-0.0359c-0.19 0-0.30325-0.20981-0.53125-0.75781l-4.7625-11.914c-0.379-0.949-0.73794-1.5922-1.6109-1.7062-0.127-0.015-0.33481-0.0337-0.45781 0.0953 0.128 0.458 0.36719 1.6478 0.36719 2.2328 0 0.44-0.0364 0.56875-0.18438 0.56875-0.11 0-0.14781-0.10975-0.18281-0.29375-0.055-0.257-0.16625-0.58612-0.33125-0.87812-0.294-0.549-1.0044-1.0062-2.8734-1.0062h-4.4703c2.579 3.932 5.4178 8.6651 7.9438 12.764 0.075 0.127 0.14531 0.23731 0.14531 0.34531 0 0.091-0.12493 0.14688-0.31093 0.14688h-5.6375c-0.75 0-1.6268-0.0179-3.3688 0.0531-0.454 0.02-0.56425 0.12969-0.73125 0.12969-0.106 0-0.18063-0.0929-0.21563-0.34687-0.091-0.548-0.36875-2.2139-0.36875-2.6359 0-0.218 0.0199-0.31094 0.14688-0.31094 0.11 0 0.18387 0.0762 0.22187 0.33125 0.054 0.42 0.38194 1.0986 0.98594 1.4266 0.585 0.331 1.7029 0.38594 2.6359 0.38594h3.6125c-2.45-3.86-5.2716-8.5959-7.8516-12.622-0.221-0.326-0.275-0.42144-0.275-0.54844s0.10994-0.21875 0.31094-0.21875h9.8812c0.107 0 0.19406 0.0144 0.26406 0.0484 0.058-0.038 0.15307-0.0484 0.28907-0.0484 0.987 0 2.0279 0.0609 2.2359 0.0609 0.589 0 1.4055-0.0609 2.0125-0.0609 0.208 0 0.32188 0.0412 0.32188 0.19219 0 0.113-0.0569 0.15-0.28594 0.15h-0.28437c-0.586 0-0.75938 0.24706-0.75938 0.58906 0 0.227 0.0969 0.68325 0.28594 1.1562l1.0266 2.7141c0.037 0.115 0.0727 0.15 0.16875 0.15h4.2297c0.094 0 0.15319-0.0358 0.19219-0.13281l1.5156-4.0188c0.093-0.229-0.0409-0.40106-0.17187-0.43906-0.191-0.019-0.26563-0.0558-0.26563-0.16875 0-0.131 0.22631-0.13157 0.57031-0.15157 1.517-0.041 2.9014-0.0406 3.5844-0.0406 0.701 0 0.87187 0.0412 0.87187 0.19219 0 0.133-0.0959 0.15-0.24687 0.15-0.227 0-0.51388 0.018-0.79688 0.075-0.399 0.096-0.94675 0.36431-1.6688 2.0703-1.216 2.882-4.2471 10.622-4.7031 11.666-0.189 0.434-0.30444 0.60625-0.47344 0.60625zm-31.944-0.0609c-0.188 0-0.24531-0.26488-0.24531-0.64688l-0.17031-11.228c-0.021-1.648-0.0971-2.2006-0.58907-2.3516-0.268-0.075-0.60612-0.0953-0.85312-0.0953-0.189 0-0.30156-0.039-0.30156-0.15 0-0.172 0.16706-0.19062 0.41406-0.19062 0.987 0 1.8804 0.0578 2.0484 0.0578 0.362 0 1.1207-0.0578 2.3547-0.0578 0.264 0 0.43594 0.0376 0.43594 0.19062 0 0.111-0.11587 0.15-0.32187 0.15-0.306 0-0.6665 0.0204-0.9875 0.13438-0.382 0.132-0.62763 0.62412-0.66563 2.1031l-0.20781 7.9672h0.0578c0.34-0.36 2.4461-2.7287 4.5141-4.7797 1.972-1.955 4.4003-4.439 5.5953-5.575 0.207-0.21 0.43431-0.41875 0.64531-0.41875 0.17 0 0.24531 0.17106 0.24531 0.58906l0.20938 11.969c0.019 1.062 0.17012 1.4579 0.70312 1.6109 0.227 0.056 0.37919 0.0562 0.56719 0.0562 0.227 0 0.34219 0.0583 0.34219 0.17031 0 0.153-0.18994 0.17344-0.43594 0.17344-0.93 0-1.6509-0.0578-1.8609-0.0578-0.397 0-1.3078 0.0578-2.2938 0.0578-0.285 0-0.49531-0.0204-0.49531-0.17344 0-0.112 0.0807-0.17031 0.30469-0.17031 0.267 0 0.72225 0.0005 1.0062-0.1125 0.457-0.19 0.62687-0.54881 0.64687-1.7078l0.1875-8.5156h-0.0937c-0.323 0.303-2.883 3.035-4.175 4.325-2.769 2.751-5.6481 5.8421-5.8781 6.0891-0.32 0.34-0.49413 0.5875-0.70313 0.5875zm45.886-0.0547c-1.592 0-3.2821-0.13694-5.1031-1.2359-1.725-1.043-3.3-3.1671-3.3-6.2031 0-5.235 4.1169-7.4344 8.7609-7.4344 1.481 0 3.3404 0.20756 4.5734 0.85156 0.228 0.135 0.24375 0.17094 0.24375 0.68594v2.0844c0 0.951-0.00012 1.7081 0.0218 2.2781 0.017 0.663 0.20831 0.98569 0.72031 1.0797 0.227 0.039 0.36049 0.0578 0.51249 0.0578 0.132 0 0.24844 0.036 0.24844 0.15 0 0.154-0.13524 0.18906-0.38124 0.18906-0.626 0-1.6318-0.0547-2.2188-0.0547-0.571 0-1.762 0.0547-2.75 0.0547-0.266 0-0.4-0.0351-0.4-0.18906 0-0.114 0.11538-0.15 0.28438-0.15 0.263 0 0.58862-0.0188 0.74062-0.0578 0.627-0.133 0.79563-0.43569 0.81563-1.0797 0.018-0.57 0.0187-1.2885 0.0187-2.2375v-1.7828c0-0.323-0.0764-0.57013-0.35938-0.70313-0.455-0.21-1.1195-0.20937-1.6125-0.20937-4.002 0-6.6016 3.0547-6.6016 7.1297 0 2.336 0.68275 3.758 1.7438 4.65 1.328 1.098 2.7142 1.175 3.7562 1.175 2.145 0 3.6627-0.87169 4.2297-1.4797 0.494-0.53 0.58831-1.1374 0.64531-1.5734 0.019-0.151 0.0576-0.24844 0.19062-0.24844 0.152 0 0.20938 0.098 0.20938 0.4 0 2.371 0.13281 2.9019 0.13281 3.1109 0 0.132-0.0392 0.20956-0.26719 0.22656-0.437 0.018-1.1014 0.13182-1.4984 0.20782-0.377 0.074-2.0472 0.30781-3.3562 0.30781zm-69.383-0.002c-1.593 0-3.28-0.13538-5.1-1.2344-1.728-1.043-3.3016-3.1671-3.3016-6.2031 0-5.235 4.1145-7.4344 8.7625-7.4344 1.478 0 3.3393 0.20756 4.5703 0.85156 0.228 0.135 0.24687 0.17094 0.24687 0.68594v2.0844c0 0.951 0.00088 1.7076 0.0219 2.2766 0.018 0.664 0.20575 0.98725 0.71875 1.0812 0.227 0.039 0.36019 0.058 0.64219 0.075 0.161-3.277 2.3878-7.0547 7.6078-7.0547 4.801 0 7.825 3.4316 7.825 7.7766 0 4.344-2.9299 7.0953-7.6359 7.0953-5.671 0-7.8062-4.1929-7.8062-7.5219-0.064 0.02-0.14869 0.0266-0.25469 0.0266-0.624 0-1.6302-0.0547-2.2172-0.0547-0.569 0-1.764 0.0547-2.75 0.0547-0.266 0-0.39844-0.0351-0.39844-0.18906 0-0.114 0.11282-0.15 0.28282-0.15 0.267 0 0.58962-0.0188 0.74062-0.0578 0.624-0.133 0.79819-0.43625 0.81719-1.0812 0.018-0.569 0.0172-1.2869 0.0172-2.2359v-1.7828c0-0.323-0.0775-0.57013-0.3625-0.70313-0.453-0.21-1.1169-0.20937-1.6109-0.20937-4.001 0-6.6 3.0537-6.6 7.1297 0 2.336 0.68388 3.758 1.7469 4.65 1.326 1.098 2.7111 1.175 3.7531 1.175 2.144 0 3.6617-0.87169 4.2297-1.4797 0.494-0.53 0.58931-1.1374 0.64531-1.5734 0.021-0.151 0.0576-0.24843 0.19063-0.24843 0.15 0 0.20781 0.098 0.20781 0.4 0 2.371 0.13125 2.9019 0.13125 3.1109 0 0.132-0.0376 0.20957-0.26563 0.22657-0.436 0.018-1.0979 0.13281-1.4969 0.20781-0.378 0.075-2.0478 0.30625-3.3578 0.30625zm13.809-0.9125c3.099 0 5.5375-2.6359 5.5375-6.8859 0-5.481-3.0629-6.125-4.3859-6.125-3.628 0-5.8016 3.127-5.8016 7.075 0 4.723 2.476 5.9359 4.65 5.9359zm68.203-2.825c0.059 0 0.0747-0.0969 0.0938-0.17188l1.7062-4.6828c0.019-0.057 0.00026-0.11563-0.0937-0.11563h-3.4922c-0.072 0-0.0919 0.0574-0.0718 0.13438l1.7453 4.6641c0.019 0.075 0.0555 0.17188 0.1125 0.17188zm-27.045-0.0359c0.056 0 0.0738-0.0937 0.0937-0.16875l1.6109-4.8h-3.4891l-0.0766 0.13437 1.7438 4.6656c0.02 0.075 0.0592 0.16875 0.11719 0.16875zm-46.073-13.619c-0.061 0-0.0813-0.0901-0.0813-0.21406l-0.0547-3.725c-0.008-0.548-0.0349-0.73025-0.19688-0.78125-0.088-0.025-0.20237-0.0297-0.28437-0.0297-0.061 0-0.10156-0.0146-0.10156-0.0516 0-0.057 0.0602-0.0625 0.14218-0.0625 0.326 0 0.62413 0.0188 0.67813 0.0188 0.122 0 0.37269-0.0188 0.77969-0.0188 0.089 0 0.14687 0.0125 0.14687 0.0625 0 0.037-0.0394 0.0516-0.10937 0.0516-0.1 0-0.21857 0.005-0.32657 0.0437-0.125 0.042-0.20675 0.20644-0.21875 0.69844l-0.0672 2.6438c0.132-0.12 0.8255-0.90706 1.5125-1.5891 0.654-0.647 1.4587-1.4724 1.8547-1.8484 0.07-0.071 0.1435-0.1375 0.2125-0.1375 0.056 0 0.0844 0.0557 0.0844 0.19375l0.0672 3.9719c0.007 0.35 0.0578 0.48325 0.23281 0.53125 0.077 0.02 0.12762 0.0203 0.19062 0.0203 0.075 0 0.11094 0.0198 0.11094 0.0578 0 0.051-0.0617 0.0562-0.14375 0.0562-0.306 0-0.54619-0.0187-0.61719-0.0187-0.131 0-0.43337 0.0187-0.75937 0.0187-0.095 0-0.1625-0.005-0.1625-0.0562 0-0.038 0.023-0.0578 0.1-0.0578 0.088 0 0.23981 0.0005 0.33281-0.0375 0.152-0.062 0.20806-0.1815 0.21406-0.5625l0.0625-2.8266c-0.141 0.1-0.98563 1.0064-1.4156 1.4344-0.914 0.912-1.8714 1.9343-1.9484 2.0203-0.107 0.112-0.16538 0.19375-0.23438 0.19375zm47.522-0.0203c-0.873 0-1.4516-0.4965-1.4516-1.1875 0-0.511 0.23869-0.95219 0.92969-1.4922l0.29218-0.22344c0.522-0.404 0.61563-0.70137 0.61563-1.0094 0-0.334-0.27663-0.72032-0.84063-0.72032-0.394 0-0.76212 0.17307-0.90312 0.63907-0.031 0.106-0.0547 0.23931-0.0547 0.32031 0 0.049-0.006 0.10625-0.0641 0.10625-0.049 0-0.0676-0.0685-0.0766-0.1625-0.005-0.102-0.0328-0.47744-0.0328-0.82344 0-0.138 0.0213-0.17062 0.12031-0.21562 0.272-0.119 0.55388-0.16094 0.92188-0.16094 0.33 0 0.684 0.0553 1 0.25625 0.453 0.295 0.59062 0.72875 0.59062 1.0938 0 0.597-0.27781 1.0217-1.0328 1.6047l-0.175 0.13125c-0.523 0.399-0.66719 0.61781-0.66719 0.90781 0 0.375 0.28444 0.64531 0.74844 0.64531 0.407 0 0.5915-0.18669 0.6875-0.30469 0.129-0.167 0.1625-0.35975 0.1625-0.41875 0-0.073 0.0199-0.1125 0.0609-0.1125 0.053 0 0.0719 0.0516 0.0719 0.19063 0 0.489 0.0281 0.67169 0.0281 0.75469 0 0.041-0.0373 0.063-0.0953 0.075-0.162 0.045-0.42494 0.10625-0.83594 0.10625zm14.248 0c-0.039 0-0.0576-0.0388-0.0766-0.11875-0.014-0.051-0.13281-0.62344-0.13281-0.72344 0-0.07 0.0128-0.10156 0.0578-0.10156 0.039 0 0.0552 0.025 0.0672 0.075 0.013 0.054 0.0448 0.12587 0.10781 0.22187 0.093 0.137 0.2455 0.16925 0.6125 0.18125l0.93437 0.025v-2.5781c0-0.579 0.00032-1.0781-0.0297-1.3391-0.019-0.185-0.0568-0.32343-0.18281-0.34843-0.056-0.01-0.13-0.0234-0.225-0.0234-0.075 0-0.10312-0.0216-0.10312-0.0516 0-0.044 0.0457-0.0625 0.12969-0.0625 0.248 0 0.64305 0.0188 0.78905 0.0188 0.176 0 0.57307-0.0188 0.98907-0.0188 0.068 0 0.11875 0.0185 0.11875 0.0625 0 0.03-0.0314 0.0516-0.0984 0.0516-0.095 0-0.23787 0.0134-0.32187 0.0234-0.191 0.025-0.22832 0.16362-0.24532 0.34062-0.033 0.269-0.0328 0.76788-0.0328 1.3469v2.5781l0.7922-0.0203c0.56-0.01 0.73062-0.18556 0.74062-0.35156l0.011-0.0688c0.007-0.094 0.0166-0.125 0.0656-0.125 0.04 0 0.0514 0.0384 0.0594 0.0984 0 0.165 0.0172 0.60038 0.0172 0.73438 0 0.092-0.003 0.12969-0.0515 0.12969-0.025 0-0.0742-0.0128-0.16718-0.0328-0.096-0.01-0.23382-0.0297-0.43282-0.0297h-2.4938c-0.206 0-0.44668 0.0147-0.62968 0.0297-0.156 0.016-0.22075 0.0766-0.26875 0.0766zm-31.428-0.0375c-0.034 0-0.0691-0.0194-0.10312-0.0234-0.049-0.016-0.15119-0.0266-0.26719-0.0406-0.119-0.005-1.373-0.005-1.575-0.005-0.087 0-0.23187 0.005-0.39687 0.0141-0.156 0-0.34038 0.005-0.50938 0.005-0.093 0-0.1375-0.0143-0.1375-0.0562 0-0.046 0.0377-0.0578 0.10469-0.0578 0.089 0 0.19744-0.006 0.24844-0.0203 0.206-0.043 0.25775-0.14324 0.26875-0.35625 0.012-0.201 0.0109-0.37737 0.0109-1.3344v-1.1062c0-0.579-0.00012-1.0781-0.0281-1.3391-0.027-0.185-0.0578-0.32344-0.18281-0.34844-0.057-0.01-0.13212-0.0234-0.22812-0.0234-0.072 0-0.10157-0.0216-0.10157-0.0516 0-0.044 0.0457-0.0625 0.12969-0.0625 0.123 0 0.28781 0.006 0.43281 0.0125 0.15 0 0.28794 0.006 0.36094 0.006 0.187 0 0.38-0.006 0.65-0.0188 0.271-0.008 0.61806-0.0187 1.0891-0.0187 0.239 0 0.29763-0.0005 0.34063 0.1625 0.029 0.123 0.0797 0.555 0.0797 0.7 0 0.061 0 0.1125-0.05 0.1125-0.043 0-0.0557-0.0253-0.0687-0.0953-0.042-0.257-0.11625-0.39106-0.28126-0.46406-0.16399-0.076-0.42706-0.0766-0.58906-0.0766-0.644 0-0.74537 0.0957-0.75937 0.52969-0.005 0.182 0 0.761 0 0.975v0.49531c0 0.038 0.008 0.0625 0.0375 0.0625 0.151 0 0.77375-0.005 0.89375-0.0172 0.234-0.025 0.32213-0.12087 0.35313-0.24687 0.018-0.079 0.0184-0.16344 0.0234-0.22344 0-0.034 0.0134-0.0594 0.0594-0.0594 0.055 0 0.0562 0.0713 0.0562 0.12032 0 0.046 0.0124 0.29787 0.0234 0.42187 0.02 0.321 0.0516 0.42181 0.0516 0.45781 0 0.039-0.0183 0.0531-0.0453 0.0531-0.03 0-0.0544-0.0322-0.0984-0.0813-0.058-0.063-0.15156-0.0819-0.30156-0.0969-0.148-0.012-0.87037-0.0125-1.0094-0.0125-0.036 0-0.0438 0.0267-0.0438 0.0688v1.5922c0 0.043 0.0138 0.0625 0.0438 0.0625 0.126 0 0.78831-0.012 0.89531-0.025 0.315-0.038 0.37431-0.11412 0.42031-0.22812 0.034-0.073 0.0391-0.18044 0.0391-0.22344 0-0.057 0.0117-0.0875 0.0547-0.0875 0.046 0 0.0596 0.0362 0.0656 0.0672 0.009 0.076 0.0237 0.35462 0.0297 0.41562 0.018 0.289 0.0516 0.36294 0.0516 0.41094 0 0.031-0.008 0.0547-0.0375 0.0547zm-41.028-0.05c-0.095 0-0.13906-0.0143-0.13906-0.0562 0-0.046 0.0368-0.0578 0.10781-0.0578 0.088 0 0.19675-0.006 0.24375-0.0203 0.211-0.043 0.25987-0.14324 0.27187-0.35625 0.012-0.201 0.0125-0.37737 0.0125-1.3344v-0.91719c0-0.91 0.23782-1.3772 0.55782-1.6672 0.461-0.417 1.0654-0.43281 1.3984-0.43281 0.409 0 0.86294 0.068 1.3109 0.45 0.526 0.455 0.59375 1.1958 0.59375 1.8938v0.67344c0 0.957 0.00006 1.1334 0.0141 1.3344 0.013 0.219 0.0618 0.32725 0.23281 0.35625 0.075 0.014 0.11325 0.0203 0.18125 0.0203 0.077 0 0.11406 0.0118 0.11406 0.0578 0 0.042-0.0433 0.0562-0.13125 0.0562-0.245 0-0.64119-0.0187-0.71719-0.0187-0.007 0-0.40243 0.0187-0.72343 0.0187-0.088 0-0.13125-0.0143-0.13125-0.0562 0-0.046 0.0372-0.0578 0.10625-0.0578 0.069 0 0.17456-0.006 0.22656-0.0203 0.208-0.043 0.25831-0.14324 0.27031-0.35625 0.013-0.201 0.0141-0.37737 0.0141-1.3344v-0.78594c0-0.648-0.0196-1.2145-0.36562-1.5625-0.252-0.249-0.59275-0.33594-0.86875-0.33594-0.213 0-0.5025 0.0202-0.7875 0.25626-0.307 0.25299-0.48906 0.63587-0.48906 1.5469v0.88125c0 0.957-0.0005 1.1334 0.0125 1.3344 0.012 0.219 0.0598 0.32725 0.23281 0.35625 0.075 0.014 0.11225 0.0203 0.18125 0.0203 0.062 0 0.1 0.0118 0.1 0.0578 0 0.042-0.0415 0.0562-0.1375 0.0562-0.225 0-0.62144-0.0187-0.77344-0.0187-0.191 0-0.58475 0.0187-0.91875 0.0187zm21.025 0c-0.099 0-0.15-0.0141-0.15-0.0531 0-0.049 0.037-0.0609 0.1-0.0609 0.076 0 0.15756-0.006 0.22656-0.0219 0.138-0.036 0.20106-0.14168 0.21406-0.35468 0.013-0.201 0.0125-0.37738 0.0125-1.3344v-1.1062c0-0.61-0.00025-1.1069-0.0312-1.3719-0.02-0.185-0.0573-0.29063-0.18125-0.31563-0.057-0.01-0.13312-0.0234-0.22812-0.0234-0.076 0-0.10157-0.0216-0.10157-0.0516 0-0.044 0.046-0.0625 0.125-0.0625 0.252 0 0.64832 0.0188 0.79532 0.0188 0.17 0 0.56468-0.0188 0.97968-0.0188 0.071 0 0.11875 0.0185 0.11875 0.0625 0 0.03-0.0304 0.0516-0.0984 0.0516-0.094 0-0.23432 0.0134-0.32032 0.0234-0.191 0.025-0.23556 0.14081-0.25156 0.30781-0.026 0.272-0.0266 0.76969-0.0266 1.3797v1.1062c0 0.957 0.001 1.1334 0.0141 1.3344 0.013 0.219 0.0613 0.32725 0.23125 0.35625 0.077 0.014 0.12507 0.0203 0.18907 0.0203 0.065 0 0.10156 0.0119 0.10156 0.0609 0 0.039-0.0518 0.0531-0.13281 0.0531-0.239 0-0.60919-0.0187-0.76719-0.0187-0.184 0-0.58075 0.0187-0.81875 0.0187zm6.9891 0c-0.097 0-0.16562-0.005-0.16562-0.0562 0-0.038 0.0206-0.0578 0.0766-0.0578 0.051 0 0.15031 0.00012 0.24531-0.0219 0.226-0.067 0.33256-0.13568 0.47656-0.47968l1.5875-3.8438c0.119-0.297 0.15706-0.38282 0.23906-0.38282 0.089 0 0.12763 0.0991 0.29063 0.46407 0.137 0.314 0.43294 1.0002 0.83594 1.9172 0.338 0.774 0.50868 1.1152 0.75468 1.7062 0.167 0.401 0.26319 0.50919 0.34219 0.56719 0.114 0.073 0.2485 0.0734 0.3125 0.0734 0.062 0 0.1 0.0118 0.1 0.0578 0 0.042-0.0503 0.0563-0.13125 0.0563-0.19 0-0.48419-0.0188-0.59219-0.0188-0.081 0-0.34693 0.0188-0.66093 0.0188-0.12 0-0.17813-0.0141-0.17813-0.0641 0-0.042 0.0524-0.05 0.10938-0.05 0.079 0 0.17456-0.006 0.25156-0.0312 0.056-0.018 0.0813-0.0687 0.0813-0.11875 0-0.058-0.0247-0.15237-0.0547-0.23437-0.152-0.416-0.97062-2.4397-1.2406-3.1297l-1.1078 2.8547c-0.087 0.226-0.14375 0.39937-0.14375 0.48437 0 0.056 0.0189 0.10225 0.0609 0.13125 0.052 0.038 0.14487 0.0438 0.24687 0.0438 0.057 0 0.0922 0.0118 0.0922 0.0578 0 0.042-0.0683 0.0563-0.14531 0.0563-0.313 0-0.61531-0.0188-0.77031-0.0188-0.221 0-0.5805 0.0188-0.9125 0.0188zm19.03 0c-0.093 0-0.13594-0.0143-0.13594-0.0562 0-0.046 0.0352-0.0578 0.10625-0.0578 0.087 0 0.19331-0.006 0.24531-0.0203 0.206-0.043 0.25788-0.14324 0.27188-0.35625 0.009-0.201 0.009-0.37737 0.009-1.3344v-1.1062c0-0.579-0.0008-1.0781-0.0328-1.3391-0.023-0.185-0.0537-0.32344-0.17969-0.34844-0.056-0.01-0.13156-0.0234-0.22656-0.0234-0.076 0-0.0984-0.0216-0.0984-0.0516 0-0.044 0.041-0.0625 0.125-0.0625 0.25 0 0.64463 0.0188 0.76563 0.0188 0.094 0 0.55956-0.0188 0.92656-0.0188 0.082 0 0.12344 0.0185 0.12344 0.0625 0 0.03-0.024 0.0516-0.075 0.0516-0.075 0-0.21425 0.0134-0.30625 0.0234-0.191 0.025-0.22732 0.16344-0.24532 0.34844-0.032 0.261-0.0312 0.76075-0.0312 1.3438v0.0875c0 0.038 0.017 0.0516 0.05 0.0516l0.54687-0.0125c0.043 0 0.0801-0.006 0.11406-0.0453 0.082-0.094 0.36988-0.52019 0.62188-0.86719 0.354-0.484 0.59094-0.782 0.86094-0.925 0.165-0.09 0.321-0.11875 0.675-0.11875h0.59531c0.076 0 0.12344 0.0125 0.12344 0.0625 0 0.03-0.0281 0.0516-0.0781 0.0516-0.052 0-0.10356 0.005-0.17656 0.0188-0.095 0.019-0.35313 0.0626-0.70313 0.42656-0.373 0.392-0.80462 0.94882-1.3656 1.6578 0.637 0.513 0.82968 0.94281 0.82968 1.4078 0 0.419-0.25156 0.74137-0.42656 0.85937-0.34 0.233-0.76337 0.27188-1.1594 0.27188-0.193 0-0.6745-0.0187-0.8875-0.0187-0.133 0-0.5285 0.0187-0.8625 0.0187zm18.195 0c-0.098 0-0.15-0.0141-0.15-0.0531 0-0.049 0.0366-0.0609 0.10156-0.0609 0.074 0 0.156-0.006 0.225-0.0219 0.141-0.036 0.2015-0.14168 0.2125-0.35468 0.015-0.201 0.0156-0.37738 0.0156-1.3344v-1.1062c0-0.61 0.00031-1.1069-0.0297-1.3719-0.02-0.185-0.0574-0.29063-0.18437-0.31563-0.056-0.01-0.13313-0.0234-0.22813-0.0234-0.076 0-0.1-0.0216-0.1-0.0516 0-0.044 0.0456-0.0625 0.12656-0.0625 0.255 0 0.64875 0.0188 0.79375 0.0188 0.168 0 0.56613-0.0188 0.97813-0.0188 0.073 0 0.12031 0.0185 0.12031 0.0625 0 0.03-0.031 0.0516-0.1 0.0516-0.093 0-0.23387 0.0134-0.32187 0.0234-0.188 0.025-0.23 0.14081-0.25 0.30781-0.024 0.272-0.0234 0.76969-0.0234 1.3797v1.1062c0 0.957-0.001 1.1334 0.0109 1.3344 0.012 0.219 0.0614 0.32725 0.23438 0.35625 0.075 0.014 0.1235 0.0203 0.1875 0.0203 0.062 0 0.1 0.0119 0.1 0.0609 0 0.039-0.0498 0.0531-0.13282 0.0531-0.238 0-0.61018-0.0187-0.76718-0.0187-0.182 0-0.57575 0.0187-0.81875 0.0187zm16.311 0c-0.075 0-0.12188-0.0192-0.12188-0.0562 0-0.046 0.0473-0.0578 0.0953-0.0578 0.077 0 0.18419-0.0372 0.26719-0.0813 0.12-0.068 0.27637-0.22638 0.43437-0.45938 0.22-0.326 1.0612-1.7135 1.1062-1.8125 0.079-0.182 0.14375-0.31981 0.14375-0.65781v-0.51719c0-0.102-0.002-0.36712-0.0203-0.62812-0.013-0.185-0.0673-0.32344-0.19532-0.34844-0.054-0.01-0.12974-0.0234-0.21874-0.0234-0.069 0-0.10157-0.0216-0.10157-0.0516 0-0.05 0.055-0.0625 0.13907-0.0625 0.237 0 0.62993 0.0188 0.78593 0.0188 0.171 0 0.56794-0.0188 0.96094-0.0188 0.086 0 0.13281 0.0185 0.13281 0.0625 0 0.03-0.0304 0.0516-0.0984 0.0516-0.089 0-0.22805 0.0134-0.31406 0.0234-0.19 0.025-0.24637 0.16344-0.25937 0.34844-0.017 0.261-0.0172 0.52612-0.0172 0.62812v0.51719c0 0.205 0.00031 0.40156 0.0953 0.62656 0.114 0.27 0.992 1.751 1.2 2 0.139 0.171 0.20907 0.24694 0.33907 0.31094 0.096 0.051 0.21613 0.0734 0.27813 0.0734 0.07 0 0.11874 0.0199 0.11874 0.0609 0 0.039-0.0461 0.0531-0.11406 0.0531-0.117 0-0.53288-0.0187-0.67188-0.0187-0.181 0-0.38618 0.0187-0.59218 0.0187-0.077 0-0.10625-0.0142-0.10625-0.0562 0-0.038 0.0575-0.0501 0.1125-0.0641 0.107-0.025 0.13281-0.0938 0.13281-0.15781 0-0.081-0.027-0.18656-0.0891-0.32656-0.089-0.193-0.88019-1.5781-0.94219-1.7281-0.102 0.176-0.98275 1.6897-1.0688 1.8797-0.045 0.088-0.075 0.1645-0.075 0.2125 0 0.054 0.0299 0.10506 0.0859 0.11406 0.095 0.025 0.13906 0.0323 0.13906 0.0703 0 0.037-0.0338 0.0562-0.0969 0.0562-0.283 0-0.53787-0.0187-0.67187-0.0187-0.208 0-0.67919 0.0187-0.79219 0.0187zm-32.875-0.29531c0.371 0 0.96094-0.25956 0.96094-1.1516 0-0.517-0.18188-0.80475-0.37188-0.94375-0.109-0.08-0.19375-0.10782-0.44375-0.10782-0.16 0-0.34869 0.0205-0.47969 0.0625-0.043 0.02-0.0547 0.0456-0.0547 0.11562v1.9109c0 0.051 0.0117 0.0755 0.0547 0.0875 0.063 0.021 0.17838 0.0266 0.33438 0.0266zm-55.292-12.536v-0.48438h99v0.48438h-99zm20.347-7.8984c-1.458 0-2.3797-0.59506-2.3797-2.6891v-2.0953c0-2.874 1.4151-2.9359 2.3391-2.9359 0.482 0 2.1348 0.001 2.0938 2.3422h-0.975c-0.01-1.449-0.88175-1.5516-1.1688-1.5516-0.729 0-1.325 0.21581-1.325 2.0328v1.9812c0 1.272 0.18463 1.4586 0.21563 1.5406 0.031 0.103 0.33875 0.575 1.1188 0.575 0.195 0 0.63625-0.0843 0.83125-0.32031 0.195-0.236 0.22562-0.65713 0.21562-1.0781h0.975c0.093 1.438-0.47262 2.1984-1.9406 2.1984zm13.011 0c-1.571 0-2.3312-0.94488-2.3312-2.4219v-2.4344c0-2.052 0.76025-2.8641 2.3312-2.8641 1.57 0 2.3312 0.81206 2.3312 2.8641v2.4344c0 1.477-0.76125 2.4219-2.3312 2.4219zm6.7875 0c-1.571 0-2.3297-0.94488-2.3297-2.4219v-2.4344c0-2.052 0.75868-2.8641 2.3297-2.8641s2.3312 0.81206 2.3312 2.8641v2.4344c0 1.477-0.76025 2.4219-2.3312 2.4219zm14.655 0c-1.571 0-2.3312-0.94488-2.3312-2.4219v-2.4344c0-2.052 0.76025-2.8641 2.3312-2.8641 1.57 0 2.3297 0.81206 2.3297 2.8641v2.4344c0 1.477-0.75969 2.4219-2.3297 2.4219zm-40.828-0.002c-1.243 0-2.1781-0.69694-2.1781-2.0109 0-2.227 3.3266-2.0424 3.3266-3.6844 0-0.884-0.57443-1.2016-1.3234-1.2016-0.606 0-1.2422 0.31744-1.2422 1.3234v0.21563h-0.93438c-0.021-0.709-0.0214-2.3809 2.1656-2.3609 1.221 0 2.3 0.50306 2.3 2.0641 0 2.35-3.3266 2.1149-3.3266 3.7469 0 0.801 0.57562 1.0891 1.1406 1.0891 0.893 0 1.1491-0.53531 1.1391-1.3453h0.98438c0.062 1.509-0.69756 2.1641-2.0516 2.1641zm10.361-0.15313v-7.4109h0.94375v3.3875h2.5969v-3.3875h0.94531v7.4109h-0.94531v-3.2031h-2.5969v3.2031h-0.94375zm20.302 0v-7.4109h3.6641v0.82187h-2.7203v6.5891h-0.94375zm14.581 0v-7.4109h0.94375v3.3875h2.5875v0.82031h-2.5875v2.3812h2.7312v0.82187h-3.675zm7.9375 0v-7.4109h3.6641v0.82187h-2.7203v6.5891h-0.94375zm6.7453 0-2.35-7.4109h0.95312l0.55469 1.7656h2.8641l0.53438-1.7656h1.0562l-2.4109 7.4109h-1.2016zm3.9641 0 1.8078-7.4109h1.1484l1.5 6.4266h0.0203l1.4047-6.4266h1.15l1.9609 7.4109h-0.98438l-1.5094-6.4266h-0.0203l-1.3438 6.4266h-1.2234l-1.4891-6.4266h-0.0187l-1.3969 6.4266h-1.0062zm-44.505-0.63593c0.297 0 1.3656-0.0516 1.3656-1.6016v-2.5047c0-1.623-0.47263-2.0328-1.3656-2.0328-0.893 0-1.3656 0.40982-1.3656 2.0328v2.5047c0 1.55 1.0676 1.6016 1.3656 1.6016zm6.7875 0c0.297 0 1.3656-0.0516 1.3656-1.6016v-2.5047c0-1.623-0.47263-2.0328-1.3656-2.0328-0.893 0-1.3641 0.40982-1.3641 2.0328v2.5047c0 1.55 1.0661 1.6016 1.3641 1.6016zm14.655 0c0.298 0 1.3641-0.0516 1.3641-1.6016v-2.5047c0-1.623-0.47106-2.0328-1.3641-2.0328-0.894 0-1.3656 0.40982-1.3656 2.0328v2.5047c0 1.55 1.0676 1.6016 1.3656 1.6016zm19.653-0.23594h0.0203l1.1906-3.9531h-2.3719l1.1609 3.9531z" fill="#06274f"/></g></svg>
