<svg xmlns="http://www.w3.org/2000/svg" height="114.87" viewBox="0 0 250.00002 114.8717" width="250"><g transform="matrix(1.25 0 0 -1.25 -369.99 690.53)"><g stroke-linecap="square" stroke-miterlimit="10"><path d="m322.62 551.06-25.277-77.561h44.712 4.7688 22.119l3.0406 9.8062 0.71407-20.564 10.314 15.809-1.6094-5.0516h24.562l0.9375 2.8781 1.3281-1.0359 1.6094-0.77344 1.7891-0.59374 2.0266-0.35626 2.2063-0.11874h22.595l2.4438 0.11874 2.2656 0.35626 2.1453 0.65312 1.9672 0.89219 1.8484 1.1297 1.6703 1.3078 1.4297 1.4859 1.1922 1.6641 1.0141 1.8422 0.83438 2.0203 16.991 52.183 1.0734 1.1297 1.3719 1.0703 0.0594 0.0594 1.4312 0.83125 1.4297 0.53593 1.3719 0.35625 1.4312 0.11875 13.234 9.7469-41.494 0.0594-18.659-57.234h-2.6234l18.719 57.234h-18.361-6.2-17.35l-16.811-24.07-1.0141 24.07h-22.534l-18.634-57.175h-20.238l14.011 42.97 0.71562 0.89219 0.83438 0.83125 1.0734 0.77344 0.0594 0.0594 1.4906 0.83125 1.3703 0.59531 1.4312 0.35625 1.4312 0.11875 13.175 9.7469h-13.175-28.259z" stroke="#002461" stroke-width=".94273" fill="#002461"/><path d="m323.81 549.45-24.266-74.352h44.297 1.7875 21.642l5.5438 17.889 0.89375-25.022 14.248 21.812-4.7687-14.68h21.105l1.6734 5.1281 0.0547-0.13594 0.41719-0.77344 0.47812-0.65312 1.0125-1.0703 1.1922-0.89063 1.3719-0.71406 1.6094-0.475 1.7297-0.29688 1.9672-0.0594h22.594l2.2062 0.0594 2.0875 0.35625 1.9672 0.59375 1.7875 0.77344 1.6703 1.0703 1.4906 1.1281 1.3109 1.3672 1.0734 1.4859 0.89375 1.6641 0.71563 1.7828 17.05 52.303 0.83593 1.0688 1.0719 1.0109 1.2531 0.95156h0.0594l1.6688 0.95 1.6094 0.65469 1.6703 0.41563 1.6094 0.11874 8.8828 6.5375h-36.009l-18.659-57.234h-6.0812l18.72 57.234h-18.72-2.4438-18.064l-19.019-27.398-1.1922 27.398h-19.792l-18.633-57.234h-23.219l14.725 45.289 0.89375 1.1875 1.0734 1.0703 1.3125 1.0109h0.0594l1.6688 0.95 1.6094 0.65469 1.6703 0.41563 1.6094 0.11874 8.8828 6.5375h-8.8828-27.006z" stroke="#fff" stroke-width=".94273" fill="#fff"/><path d="m369.96 546.9-22.595-69.181h18.005l9.5375 30.491 1.1328-32.036 20.389 31.381-9.7172-29.836h15.739l22.237 68.291 0.29844 0.89063h-15.561l-22.655-32.569-1.4297 32.569h-15.381zm58.186-0.0594-19.614-60.206-0.41718-1.5453-0.11875-1.4266 0.11875-1.3078 0.35781-1.1297 0.59531-1.0688 0.89531-0.89218 1.1328-0.7125 1.3703-0.53594 1.6094-0.29688 1.8484-0.0594h22.595l1.9078 0.0594 1.7891 0.29688 1.6094 0.47656 1.55 0.65313 1.4297 0.89219 1.4906 1.2484 1.2531 1.425 1.0125 1.6641 0.775 1.8437 17.111 52.48 1.0734 1.5453 1.3703 1.3672 1.6688 1.2484 1.9688 1.1297 2.0266 0.77187 1.9672 0.475 2.0266 0.17813 2.2656 1.4266h-27.364l-18.839-57.294h-11.447l18.661 57.294h-15.68zm-102.54-0.0594-22.594-69.241h41.373l3.9344 12.006h-25.814l15.978 48.914 1.1328 1.6047 1.4297 1.4859 1.7297 1.2484 1.9672 1.1297 1.9672 0.83125 2.0266 0.475 1.9688 0.17969 2.1453 1.3656h-27.245z" stroke="#002461" stroke-width=".94240" fill="#002461"/><path d="m430.59 543.98-18.839-59.314 3.8766 3.9219 16.453 53.194-1.4906 2.1984zm-102.54-0.59376-18.839-59.316 3.875 3.9828 16.455 53.134-1.4906 2.1984zm43.639-0.475-18.78-59.316 3.8156 3.9219 15.62 49.925-0.65624 5.4687z" stroke="#d1d1cc" stroke-width=".94273" fill="#d1d1cc"/></g></g></svg>
