<?xml version="1.0" encoding="utf-8"?>
<!DOCTYPE svg PUBLIC "-//W3C//DTD SVG 1.1//EN" "http://www.w3.org/Graphics/SVG/1.1/DTD/svg11.dtd">
 
<svg xmlns="http://www.w3.org/2000/svg"
     xmlns:xlink="http://www.w3.org/1999/xlink" xmlns:ev="http://www.w3.org/2001/xml-events"
     version="1.1" baseProfile="full"
     width="106px" height="98.3828125px">
     
<g>
	<g>
		<linearGradient id="SVGID_1_" gradientUnits="userSpaceOnUse" x1="52.9995117" y1="76.1875" x2="52.9995117" y2="84.6074066">
			<stop  offset="0" style="stop-color:#1F1F1F"/>
			<stop  offset="0.3504911" style="stop-color:#1A1A1A"/>
			<stop  offset="0.7470915" style="stop-color:#0D0D0D"/>
			<stop  offset="1" style="stop-color:#000000"/>
		</linearGradient>
		<path fill="url(#SVGID_1_)" d="M8.8139648,94.5722656c0.3999023,0.0820313,0.8120117,0.125,1.2348633,0.125h85.9023438
			c3.4199219,0,6.21875-2.7988281,6.21875-6.21875V76.8105469H3.8300781v11.640625
			C3.8300781,91.46875,5.9702148,93.9863281,8.8139648,94.5722656z"/>
		
			<linearGradient id="SVGID_2_" gradientUnits="userSpaceOnUse" x1="-18.1054688" y1="-12.5375977" x2="145.8135834" y2="112.7856979">
			<stop  offset="0" style="stop-color:#B11117"/>
			<stop  offset="0.0768661" style="stop-color:#B61016"/>
			<stop  offset="0.1679399" style="stop-color:#C40D11"/>
			<stop  offset="0.2662472" style="stop-color:#DC080A"/>
			<stop  offset="0.3690324" style="stop-color:#FD0000"/>
			<stop  offset="0.373626" style="stop-color:#FF0000"/>
			<stop  offset="0.4271449" style="stop-color:#E60101"/>
			<stop  offset="0.5458794" style="stop-color:#B50203"/>
			<stop  offset="0.6362018" style="stop-color:#960304"/>
			<stop  offset="0.686813" style="stop-color:#8B0304"/>
			<stop  offset="1" style="stop-color:#9E0B0F"/>
		</linearGradient>
		<path fill="url(#SVGID_2_)" d="M95.9208984,3.6787109H10.0810547c-3.4501953,0-6.2509766,2.8022461-6.2509766,6.2548828
			v66.8769531h98.3417969V9.9335938C102.171875,6.4790039,99.3691406,3.6787109,95.9208984,3.6787109z"/>
		
			<linearGradient id="SVGID_3_" gradientUnits="userSpaceOnUse" x1="151.6484375" y1="-18.3173828" x2="-19.3917675" y2="98.7309418">
			<stop  offset="0" style="stop-color:#EBEBEB"/>
			<stop  offset="0.134831" style="stop-color:#0D0D0D"/>
			<stop  offset="0.247191" style="stop-color:#0D0D0D"/>
			<stop  offset="0.395604" style="stop-color:#8E8E8E"/>
			<stop  offset="0.483146" style="stop-color:#404040"/>
			<stop  offset="0.542125" style="stop-color:#636363"/>
			<stop  offset="0.717949" style="stop-color:#EBEBEB"/>
			<stop  offset="0.791209" style="stop-color:#EBEBEB"/>
			<stop  offset="0.898876" style="stop-color:#454545"/>
			<stop  offset="1" style="stop-color:#9E9E9E"/>
		</linearGradient>
		<path fill="url(#SVGID_3_)" d="M97.6884766,0H8.3120117C3.7265625,0,0,3.7285156,0,8.3154297v81.7568359
			c0,4.5820313,3.7265625,8.3105469,8.3120117,8.3105469h89.3764648c4.5791016,0,8.3115234-3.7304688,8.3115234-8.3144531V8.3154297
			C106,3.7285156,102.2675781,0,97.6884766,0z M102.171875,76.8105469h-0.0019531v11.6679688
			c0,3.4199219-2.7988281,6.21875-6.21875,6.21875H10.0488281c-0.4228516,0-0.8349609-0.0429688-1.2348633-0.125
			c-2.84375-0.5859375-4.9838867-3.1035156-4.9838867-6.1210938V9.9335938c0-3.4526367,2.8007813-6.2548828,6.2509766-6.2548828
			h85.8398438c3.4482422,0,6.2509766,2.800293,6.2509766,6.2548828V76.8105469z"/>
	</g>
	<g>
		<g>
			<path fill="#FFFFFF" d="M96.671875,15.2724609h0.3398438v-2.3466797h-0.3144531l-0.7802734,0.9663086l-0.7802734-0.9663086
				h-0.3183594v2.3466797h0.3359375v-1.8251953h0.0068359l0.7226563,0.9086914h0.0595703l0.7207031-0.9086914h0.0078125V15.2724609
				L96.671875,15.2724609z M93.6894531,13.230957h0.8144531v-0.3051758h-1.9667969v0.3051758h0.8125v2.0415039h0.3398438V13.230957
				L93.6894531,13.230957z"/>
			<g>
				<path fill="#FFFFFF" d="M56.4423828,20.6625977c-2.4931641,0-4.5195313-2.0258789-4.5195313-4.5200195
					s2.0263672-4.5200195,4.5195313-4.5200195h18.0693359c2.5,0,4.5185547,2.0258789,4.5185547,4.5200195
					s-2.0185547,4.5200195-4.5185547,4.5200195h-3.3828125c-0.6289063,0-1.1367188,0.5063477-1.1367188,1.1274414v21.4697266
					c0,2.4921875-2.0205078,4.5146484-4.5146484,4.5146484c-2.5,0-4.5205078-2.0224609-4.5205078-4.5146484V21.7900391
					c0-0.6210938-0.5-1.1274414-1.1289063-1.1274414H56.4423828z"/>
				<path fill="#FFFFFF" d="M49.6625977,43.2597656c0,2.4921875-2.0224609,4.5146484-4.5219727,4.5146484
					c-2.4921875,0-4.5146484-2.0224609-4.5146484-4.5146484V28.8618164c0-0.3144531-0.2548828-0.5693359-0.5732422-0.5693359
					c-0.1494141,0-0.2910156,0.0668945-0.3891602,0.1665039L21.2324219,46.4438477
					c-0.8188477,0.8222656-1.9458008,1.3305664-3.1977539,1.3305664c-2.4995117,0-4.5219727-2.0224609-4.5219727-4.5205078
					c0-1.2475586,0.5019531-2.3828125,1.324707-3.1953125L41.940918,12.9414063
					c0.8208008-0.8168945,1.9516602-1.3188477,3.1958008-1.3188477c2.503418,0,4.5219727,2.0258789,4.5219727,4.5200195v27.4663086"
					/>
				<path fill="#FFFFFF" d="M90.3515625,43.2597656c0,2.4921875-2.0205078,4.5146484-4.515625,4.5146484
					c-2.4960938,0-4.5166016-2.0224609-4.5166016-4.5146484V16.1425781c0-2.4921875,2.0205078-4.5200195,4.5166016-4.5200195
					c2.4951172,0,4.515625,2.027832,4.515625,4.5200195V43.2597656z M85.8359375,19.2900391
					c1.7324219,0,3.1455078-1.4125977,3.1455078-3.1474609c0-1.7407227-1.4130859-3.1474609-3.1455078-3.1474609
					c-1.7431641,0-3.1630859,1.4067383-3.1630859,3.1474609C82.6728516,17.8774414,84.0927734,19.2900391,85.8359375,19.2900391z"/>
				<path fill="#FFFFFF" d="M32.7358398,38.7207031c0-1.7368164,1.4106445-3.1401367,3.1494141-3.1401367
					s3.1499023,1.4033203,3.1499023,3.1401367c0,1.7441406-1.4111328,3.1586914-3.1499023,3.1586914
					S32.7358398,40.4648438,32.7358398,38.7207031z"/>
			</g>
		</g>
		<g>
			<path fill="#FFFFFF" d="M96.6699219,58.6113281h0.3398438v-2.3476563h-0.3125l-0.7822266,0.9667969l-0.7802734-0.9667969
				h-0.3164063v2.3476563h0.3339844v-1.8242188h0.0068359l0.7246094,0.9082031h0.0576172l0.7207031-0.9082031h0.0078125V58.6113281
				L96.6699219,58.6113281z M93.6894531,56.5683594h0.8144531v-0.3046875h-1.9667969v0.3046875h0.8105469v2.0429688h0.3417969
				V56.5683594L93.6894531,56.5683594z"/>
			<g>
				<path fill="#FFFFFF" d="M30.7958984,85.5605469v1.1132813c0,1.8144531-0.5712891,2.1914063-3.2988281,2.1914063
					c-2.4521484,0-3.3701172-0.34375-3.3701172-2.4199219v-1.4082031c0-2.0429688,1.0004883-2.4023438,3.3701172-2.4023438
					c1.8686523,0,3.3388672-0.0742188,3.2890625,1.8964844h-1.4604492c0-0.8984375-0.5522461-0.890625-1.8286133-0.890625
					c-1.7158203,0-1.8789063,0.2128906-1.8999023,1.3964844v1.4082031c0.0209961,1.2832031,0.2666016,1.4140625,1.8999023,1.4140625
					c1.3989258,0,1.8286133-0.0253906,1.8286133-1.1855469V86.453125h-1.9306641v-0.8925781H30.7958984z"/>
				<path fill="#FFFFFF" d="M34.190918,86.7890625v2.0273438H32.71875v-6.1328125h3.9121094
					c1.6757813,0.0332031,2.3178711,0.4492188,2.3178711,1.8398438c0,0.9082031-0.0615234,1.5703125-1.3574219,1.7265625v0.03125
					c1.0429688,0.0742188,1.2958984,0.5234375,1.2958984,1.390625v1.1445313h-1.4682617V87.671875
					c0-0.515625-0.2666016-0.8769531-0.9697266-0.8828125H34.190918z M36.1308594,85.78125
					c1.0830078,0,1.3496094-0.1699219,1.3496094-1.0683594c0-0.8691406-0.1958008-1.0253906-1.2460938-1.0253906h-2.043457v2.09375
					H36.1308594z"/>
				<path fill="#FFFFFF" d="M42.1308594,87.6542969l-0.480957,1.1621094h-1.5224609l2.5439453-6.1328125h2.1660156
					l2.5917969,6.1328125h-1.4912109l-0.4985352-1.1621094H42.1308594z M43.7949219,83.5839844h-0.0214844l-1.3071289,3.1796875
					h2.6455078L43.7949219,83.5839844z"/>
				<path fill="#FFFFFF" d="M48.4951172,82.6835938h3.3930664c2.0512695,0,2.7260742,0.3925781,2.7260742,2.109375
					c0,1.734375-0.7246094,2.0351563-2.7260742,2.0351563h-1.9208984v1.9882813h-1.472168V82.6835938z M51.8881836,85.8242188
					c1.050293-0.0175781,1.253418-0.171875,1.253418-1.03125c0-0.8671875-0.1513672-1.1113281-1.253418-1.1054688h-1.9208984
					v2.1367188H51.8881836z"/>
				<path fill="#FFFFFF" d="M62.2666016,88.8164063h-1.4707031v-2.6171875h-3.5634766v2.6171875h-1.4716797v-6.1328125h1.4716797
					v2.5097656h3.5634766v-2.5097656h1.4707031V88.8164063z"/>
				<path fill="#FFFFFF" d="M65.9775391,88.8164063h-1.4716797v-6.1328125h1.4716797V88.8164063z"/>
				<path fill="#FFFFFF" d="M72.7597656,84.734375v-0.3320313c0-0.7148438-0.3466797-0.7617188-1.6328125-0.7617188
					c-1.4824219,0-1.7373047,0.1953125-1.7373047,1.3964844v1.3574219c0.0097656,1.2265625,0.1943359,1.4648438,1.7373047,1.4648438
					c1.1845703,0,1.7158203-0.03125,1.7158203-0.9082031v-0.3339844H74.3125v0.4003906
					c0.03125,1.8476563-1.2880859,1.78125-3.1855469,1.8476563c-2.6972656,0.0820313-3.1787109-0.6289063-3.2089844-2.4199219
					v-1.4082031c0-1.9609375,0.9501953-2.4023438,3.2089844-2.4023438c1.9091797,0,3.0019531,0.0078125,3.1054688,1.7675781
					v0.3320313H72.7597656z"/>
				<path fill="#FFFFFF" d="M77.1455078,86.8632813v0.2851563c0,0.703125,0.3759766,0.7519531,1.7373047,0.7519531
					c1.3378906,0,1.5205078-0.1953125,1.5205078-0.90625c0-0.8769531-0.5810547-0.7617188-1.7255859-0.8125
					c-1.6542969-0.0800781-2.9619141-0.03125-2.9619141-1.8125c0-1.6855469,1.3261719-1.734375,3.1669922-1.734375
					c1.5605469,0,2.8369141,0.0410156,2.8369141,1.6523438v0.1953125h-1.46875v-0.1953125
					c0-0.6640625-0.3369141-0.6875-1.3681641-0.6875c-1.4609375,0-1.6962891,0.1132813-1.6962891,0.7695313
					c0,0.7519531,0.1933594,0.7753906,1.6845703,0.8496094c2.3603516,0.1152344,3.0019531,0.2128906,3.0019531,1.7753906
					c0,1.7246094-1.0195313,1.8710938-2.9902344,1.8710938c-1.6962891,0-3.2089844,0.0410156-3.2089844-1.7167969v-0.2851563
					H77.1455078z"/>
			</g>
			<g>
				<path fill="#FFFFFF" d="M12.6748047,56.2636719h8.925293c2.2680664,0,2.8774414,1.1269531,2.8774414,2.8535156v0.5429688
					c0,1.2851563-0.2929688,2.0429688-1.6425781,2.359375v0.0292969c0.8740234,0.15625,1.6025391,0.5390625,1.6025391,2.1171875
					v3.0117188h-2.940918v-2.5351563c0-1.0078125-0.296875-1.3398438-1.2094727-1.3398438h-4.6660156v3.875h-2.9462891V56.2636719z
					 M15.6210938,60.921875h4.9038086c0.7973633,0,1.0888672-0.3203125,1.0888672-1.0117188v-0.25
					c0-0.8515625-0.4257813-1.0097656-1.3535156-1.0097656h-4.6391602V60.921875z"/>
				<path fill="#FFFFFF" d="M40.7504883,56.2636719h7.7275391c2.9404297,0,3.9775391,0.96875,3.9775391,3.3417969v4.2285156
					c0,2.375-1.0371094,3.34375-3.9775391,3.34375h-7.7275391V56.2636719z M43.6933594,64.7128906h4.0654297
					c1.265625,0,1.7543945-0.359375,1.7543945-1.7265625v-2.609375c0-1.3671875-0.4887695-1.7265625-1.7543945-1.7265625h-4.0654297
					V64.7128906z"/>
				<path fill="#FFFFFF" d="M54.1806641,56.2636719h10.890625v2.2285156h-7.9482422v2.1894531h7.5458984v1.9882813h-7.5458984
					v2.2011719h8.1201172v2.3066406h-11.0625V56.2636719z"/>
				<path fill="#FFFFFF" d="M80.03125,56.2636719h4.5625l4.2744141,8.0214844l0.0263672,0.0742188v-8.0957031h2.9414063v10.9140625
					H87.28125l-4.2832031-8.2851563l-0.0185547,0.3632813v7.921875H80.03125V56.2636719z"/>
				<path fill="#FFFFFF" d="M30.4912109,56.2636719c-2.6225586,0-4.1831055,0.6582031-4.1831055,3.4394531v7.4746094h2.9887695
					v-3.8320313h6.1152344v3.8320313h2.9116211V56.2636719H30.4912109z M35.4121094,61.1835938H29.296875V60.609375
					c0-1.1816406,0.2915039-1.9042969,1.8266602-1.9042969h2.2124023l0,0h2.0761719V61.1835938z"/>
				<path fill="#FFFFFF" d="M74.1845703,56.2636719h-7.4228516v7.5058594c0,2.7578125,1.5449219,3.4082031,4.1484375,3.4082031
					h3.2744141c2.6025391,0,4.1484375-0.6503906,4.1484375-3.4082031V59.671875
					C78.3330078,56.9140625,76.7871094,56.2636719,74.1845703,56.2636719z M75.3710938,62.8730469
					c0,1.3613281-0.2900391,1.8828125-1.6503906,1.8828125h-2.3388672c-1.3691406,0-1.6523438-0.5214844-1.6523438-1.8828125
					v-4.1875h2.0371094l0,0h1.796875c1.5175781,0,1.8076172,0.7128906,1.8076172,1.8847656V62.8730469z"/>
			</g>
		</g>
	</g>
</g>
</svg>
