<?xml version="1.0" encoding="utf-8"?>
<!-- Generator: Adobe Illustrator 14.0.0, SVG Export Plug-In . SVG Version: 6.00 Build 43363)  -->
<!DOCTYPE svg PUBLIC "-//W3C//DTD SVG 1.1//EN" "http://www.w3.org/Graphics/SVG/1.1/DTD/svg11.dtd">
<svg version="1.1" id="Layer_1" xmlns="http://www.w3.org/2000/svg" xmlns:xlink="http://www.w3.org/1999/xlink" x="0px" y="0px"
	 width="439px" height="255.304px" viewBox="0 0 439 255.304" enable-background="new 0 0 439 255.304" xml:space="preserve">
<g>
	<circle fill="#00A3C9" cx="218.68" cy="82.456" r="71.959"/>
	<path fill="#FFD520" d="M268.813,99.284c-5.383-9.248-13.883-9.352-14.938-9.328c0-0.01,0.004-0.018,0.008-0.027l35.867-7.473
		l-35.867-7.475l-0.004-0.012c0.375-0.334,7.348-6.488,17.805-6.645c7.891-0.117,14.719-9.775,10.363-17.195
		c0,0-1.293,11.658-16.016,7.773c-10.359-2.734-16.445,3.211-17.164,3.967c-0.008-0.004-0.012-0.01-0.016-0.016l20.086-30.652
		l-30.652,20.082c-0.004-0.004-0.008-0.006-0.016-0.008c0.027-0.451,0.586-9.766,7.895-17.295c5.496-5.662,3.5-17.32-4.828-19.486
		c0,0,7.324,9.16-5.832,16.822c-9.254,5.387-9.355,13.891-9.332,14.939c-0.004,0-0.012-0.002-0.02-0.004l-7.473-35.867
		l-7.477,35.867c0,0.002-0.008,0.002-0.016,0.004c-0.289-0.328-6.488-7.316-6.646-17.809c-0.117-7.893-9.773-14.723-17.195-10.363
		c0,0,11.66,1.293,7.775,16.018c-2.742,10.381,3.238,16.471,3.971,17.17c-0.004,0.002-0.008,0.006-0.012,0.008l-30.654-20.084l0,0
		l0,0l16.363,24.979l3.719,5.676c-0.002,0.002-0.004,0.006-0.006,0.008c-0.305-0.014-9.713-0.523-17.303-7.891
		c-5.664-5.496-17.324-3.498-19.488,4.83c0,0,9.16-7.33,16.822,5.832c5.402,9.279,13.939,9.355,14.949,9.328
		c-0.002,0.008-0.004,0.016-0.004,0.023l-35.869,7.475l35.869,7.473c0,0.002,0,0.006,0,0.006c-0.236,0.215-7.246,6.498-17.813,6.656
		c-7.893,0.117-14.723,9.773-10.363,17.195c0,0,1.293-11.66,16.018-7.775c10.396,2.746,16.492-3.258,17.17-3.975
		c0.008,0.01,0.014,0.018,0.02,0.025l-20.08,30.648l30.646-20.078c-0.016,0.314-0.529,9.717-7.891,17.301
		c-5.498,5.664-3.5,17.322,4.83,19.488c0,0-7.33-9.16,5.832-16.822c9.273-5.4,9.352-13.934,9.328-14.949
		c0.012,0.004,0.02,0.006,0.027,0.008l7.477,35.867l7.473-35.867c0,0,0-0.002,0.004-0.002c0.266,0.297,6.492,7.291,6.648,17.811
		c0.117,7.893,9.777,14.723,17.199,10.363c0,0-11.66-1.293-7.777-16.016c2.742-10.375-3.23-16.465-3.969-17.168
		c0.012-0.008,0.016-0.014,0.027-0.02l30.648,20.08l-10.598-16.18l-9.484-14.471l0,0c0.422,0.021,9.758,0.572,17.301,7.891
		c5.66,5.498,17.316,3.5,19.484-4.83C285.637,105.116,276.477,112.446,268.813,99.284z"/>
</g>
<g>
	<path d="M123.445,174.996c-0.734-2.722-1.9-5.702-5.659-5.702c-3.326,0-4.795,2.376-4.795,4.709c0,3.153,2.073,4.665,5.486,6.393
		c3.413,1.771,7.473,3.759,7.473,8.64c0,4.536-3.844,8.165-9.59,8.165c-1.771,0-3.196-0.346-4.233-0.648
		c-1.08-0.346-1.728-0.691-2.16-0.907c-0.302-0.907-0.864-4.622-1.167-6.695l1.296-0.303c0.648,2.635,2.592,6.998,7.084,6.998
		c3.283,0,5.184-2.03,5.184-5.184c0-3.196-2.375-4.709-5.616-6.437c-2.765-1.512-7.127-3.629-7.127-8.51
		c0-4.147,3.326-7.689,8.899-7.689c1.987,0,3.801,0.476,5.443,0.994c0.173,1.512,0.389,3.239,0.734,5.961L123.445,174.996z"/>
	<path d="M153.296,196.552v-1.123c2.549-0.26,3.024-0.432,3.024-3.499v-7.214c0-3.067-1.08-5.011-3.801-5.011
		c-1.555,0-3.197,0.907-4.838,2.246c0.086,0.519,0.13,1.036,0.13,1.814v8.423c0,2.722,0.389,2.98,2.765,3.24v1.123h-9.245v-1.123
		c2.678-0.26,3.067-0.476,3.067-3.326v-7.43c0-3.154-1.123-4.968-3.802-4.968c-1.685,0-3.413,1.166-4.708,2.246v10.151
		c0,2.808,0.389,3.066,2.506,3.326v1.123h-9.115v-1.123c2.851-0.26,3.24-0.519,3.24-3.326v-8.942c0-2.765-0.13-2.98-2.635-3.369
		v-0.993c1.901-0.346,4.061-0.907,6.004-1.771v3.499c0.907-0.604,1.814-1.382,3.154-2.16c1.123-0.69,2.16-1.209,3.499-1.209
		c2.073,0,3.931,1.339,4.838,3.585c1.253-0.993,2.505-1.771,3.585-2.462c0.907-0.604,2.03-1.123,3.283-1.123
		c3.326,0,5.486,2.376,5.486,6.609v8.337c0,2.895,0.302,3.066,2.808,3.326v1.123H153.296z"/>
	<path d="M165.739,196.552v-1.123c2.722-0.26,3.024-0.519,3.024-3.456v-8.898c0-2.679-0.13-2.895-2.722-3.283v-1.037
		c2.203-0.345,4.277-0.906,6.134-1.685v14.903c0,2.938,0.302,3.196,3.067,3.456v1.123H165.739z M168.028,171.194
		c0-1.296,1.037-2.246,2.203-2.246c1.209,0,2.16,0.95,2.16,2.246c0,1.167-0.95,2.203-2.203,2.203
		C169.065,173.397,168.028,172.361,168.028,171.194z"/>
	<path d="M186.215,196.509c-0.734,0.389-1.382,0.562-1.814,0.562c-2.721,0-4.233-1.729-4.233-5.141v-12.527h-2.98l-0.173-0.476
		l1.209-1.252h1.944v-3.11l2.808-2.895l0.604,0.086v5.919h4.881c0.432,0.475,0.302,1.382-0.259,1.728h-4.622v11.059
		c0,3.499,1.426,4.146,2.549,4.146c1.08,0,2.073-0.432,2.635-0.734l0.389,1.124L186.215,196.509z"/>
	<path d="M203.625,196.552v-1.123c2.505-0.26,2.851-0.519,2.851-3.326v-7.171c0-3.542-1.339-5.313-4.233-5.313
		c-1.642,0-3.283,0.821-4.493,2.203v10.281c0,2.765,0.216,3.066,2.808,3.326v1.123h-9.201l0.043-1.123
		c2.592-0.216,2.938-0.476,2.938-3.326v-20.605c0-2.722-0.086-2.895-2.938-3.153v-1.037c2.073-0.302,4.666-0.993,6.35-1.512v14.515
		c1.555-1.556,3.845-3.153,6.177-3.153c3.499,0,5.961,2.203,5.961,7.387v7.56c0,2.851,0.345,3.11,2.851,3.326v1.123H203.625z"/>
	<path d="M226.866,182.814c-0.864-2.592-2.333-4.276-4.449-4.276c-1.685,0-2.808,1.253-2.808,2.98c0,1.901,1.728,2.895,3.628,3.716
		c3.283,1.339,5.486,2.894,5.486,5.874c0,3.932-3.672,5.962-7.128,5.962c-2.203,0-4.189-0.821-4.924-1.469
		c-0.303-0.604-0.735-3.542-0.735-5.098l1.167-0.216c0.734,2.851,2.678,5.356,5.271,5.356c1.598,0,3.066-1.166,3.066-3.023
		c0-1.901-1.253-2.938-3.412-3.932c-2.592-1.166-5.4-2.635-5.4-5.918c0-3.023,2.592-5.615,6.566-5.615
		c1.771,0,2.938,0.389,3.802,0.777c0.389,0.95,0.863,3.542,0.95,4.579L226.866,182.814z"/>
	<path d="M251.662,186.789c0,6.955-5.098,10.281-9.374,10.281c-5.918,0-9.46-4.752-9.46-9.547c0-7.128,5.529-10.367,9.503-10.367
		C247.688,177.156,251.662,181.476,251.662,186.789z M236.845,186.142c0,5.442,2.333,9.503,5.919,9.503
		c2.678,0,4.881-1.987,4.881-7.905c0-5.011-2.03-9.158-5.875-9.158C239.178,178.581,236.845,181.26,236.845,186.142z"/>
	<path d="M267.215,196.552v-1.123c2.549-0.26,2.851-0.604,2.851-3.586v-7.214c0-2.98-1.036-4.924-3.931-4.924
		c-1.728,0-3.413,1.079-4.709,2.203v10.151c0,2.938,0.26,3.109,2.809,3.369v1.123h-9.374v-1.123
		c2.938-0.303,3.153-0.519,3.153-3.369v-8.899c0-2.765-0.26-2.938-2.592-3.369v-0.993c2.073-0.389,4.104-0.907,6.004-1.729v3.413
		c0.864-0.648,1.814-1.296,2.895-2.03c1.21-0.777,2.333-1.296,3.586-1.296c3.455,0,5.572,2.419,5.572,6.565v8.338
		c0,2.938,0.259,3.109,2.765,3.369v1.123H267.215z"/>
	<path d="M279.484,196.552v-1.123c2.721-0.26,3.023-0.519,3.023-3.456v-8.898c0-2.679-0.13-2.895-2.722-3.283v-1.037
		c2.203-0.345,4.276-0.906,6.134-1.685v14.903c0,2.938,0.303,3.196,3.067,3.456v1.123H279.484z M281.773,171.194
		c0-1.296,1.037-2.246,2.203-2.246c1.209,0,2.16,0.95,2.16,2.246c0,1.167-0.951,2.203-2.203,2.203
		C282.811,173.397,281.773,172.361,281.773,171.194z"/>
	<path d="M305.706,197.07c-0.648,0-1.556-0.389-2.03-0.864c-0.563-0.562-0.821-1.166-1.037-1.9
		c-1.728,1.166-3.802,2.765-5.098,2.765c-3.066,0-5.184-2.549-5.184-5.271c0-2.116,1.123-3.456,3.499-4.276
		c2.592-0.864,5.745-2.03,6.695-2.808v-0.734c0-3.153-1.469-4.882-3.671-4.882c-0.821,0-1.469,0.303-1.944,0.821
		c-0.519,0.604-0.907,1.555-1.253,2.851c-0.216,0.691-0.647,0.994-1.253,0.994c-0.777,0-1.857-0.821-1.857-1.857
		c0-0.605,0.519-1.124,1.34-1.729c1.166-0.864,4.017-2.505,6.479-3.023c1.296,0,2.592,0.389,3.542,1.166
		c1.512,1.296,1.944,3.024,1.944,5.313v7.991c0,1.944,0.777,2.592,1.512,2.592c0.519,0,1.123-0.216,1.555-0.475l0.432,1.123
		L305.706,197.07z M302.552,186.185c-0.906,0.475-2.98,1.382-3.888,1.814c-1.685,0.777-2.635,1.598-2.635,3.196
		c0,2.203,1.728,3.283,3.067,3.283c1.123,0,2.635-0.734,3.455-1.556V186.185z"/>
	<path d="M323.721,196.552v-1.123c2.549-0.26,2.851-0.604,2.851-3.586v-7.214c0-2.98-1.036-4.924-3.931-4.924
		c-1.728,0-3.413,1.079-4.709,2.203v10.151c0,2.938,0.26,3.109,2.809,3.369v1.123h-9.374v-1.123
		c2.938-0.303,3.153-0.519,3.153-3.369v-8.899c0-2.765-0.26-2.938-2.592-3.369v-0.993c2.073-0.389,4.104-0.907,6.004-1.729v3.413
		c0.864-0.648,1.814-1.296,2.895-2.03c1.21-0.777,2.333-1.296,3.586-1.296c3.455,0,5.572,2.419,5.572,6.565v8.338
		c0,2.938,0.259,3.109,2.765,3.369v1.123H323.721z"/>
	<path d="M34,239.752H23.806l0.302-1.166c2.981-0.303,3.154-0.778,2.895-2.636c-0.259-1.813-0.648-3.888-1.08-6.393h-9.028
		c-0.734,1.382-2.03,3.888-2.98,5.875c-1.253,2.592-0.95,2.894,2.333,3.153l-0.259,1.166H6.7l0.302-1.166
		c2.678-0.346,3.11-0.562,5.141-4.147l12.959-23.024l1.339-0.346l1.209,7.689c0.864,5.529,1.814,10.929,2.765,16.069
		c0.519,3.11,0.821,3.456,3.888,3.759L34,239.752z M23.936,216.598h-0.086c-2.16,3.932-4.147,7.517-6.004,11.146h7.818
		L23.936,216.598z"/>
	<path d="M43.16,227.527c2.246-4.233,4.795-7.171,6.523-7.171c0.734,0,1.469,0.519,1.857,1.123c0.302,0.519,0.302,1.253-0.043,1.814
		c-0.302,0.519-0.734,0.993-1.166,1.296c-0.346,0.259-0.691,0.216-0.951,0c-0.475-0.476-0.95-0.734-1.425-0.734
		c-0.519,0-1.209,0.475-2.203,1.857c-0.95,1.339-2.29,3.369-3.11,5.313c-0.648,2.894-1.166,5.572-1.728,8.423
		c-0.907,0.173-2.074,0.476-3.067,0.778l-0.302-0.303c1.08-4.622,2.333-9.936,3.153-14.515c0.259-1.469,0.216-1.9-0.086-1.9
		c-0.389,0-1.814,0.907-3.067,2.073l-0.604-0.993c2.203-2.419,4.881-4.233,6.047-4.233c1.123,0,1.167,1.987,0.519,5.011l-0.475,2.16
		H43.16z"/>
	<path d="M65.019,235.476c-2.635,3.066-6.091,4.795-8.64,4.795c-2.765,0-4.622-2.203-4.622-6.307c0-3.629,1.685-7.862,4.492-10.368
		c1.728-1.598,4.752-3.239,6.869-3.239c1.857,0,3.24,1.08,3.283,2.159c0.043,0.648-0.432,1.469-1.382,1.987
		c-0.389,0.216-0.691,0.13-0.951-0.259c-0.907-1.253-1.944-1.857-3.283-1.857c-1.512,0-2.722,1.296-3.585,2.894
		c-1.037,1.901-1.857,4.839-1.857,7.776c0,3.066,1.166,4.665,3.023,4.665c2.203,0,4.838-1.987,6.004-3.196L65.019,235.476z"/>
	<path d="M86.488,236.123c-2.29,2.636-4.968,4.147-6.22,4.147c-1.124,0-1.426-1.21-0.734-4.19l2.289-9.979
		c0.562-2.333,0.346-3.11-0.345-3.11c-1.987,0-7.042,4.838-9.115,8.597c-0.475,1.943-1.253,5.788-1.642,7.861
		c-0.994,0.217-2.117,0.476-3.067,0.821l-0.303-0.346c1.858-8.337,3.758-17.063,5.486-25.875c0.432-2.29,0.216-2.42-1.469-2.42
		l-1.253-0.043l0.173-1.08c3.37-0.346,5.702-1.512,6.264-1.512c0.389,0,0.432,0.346,0.173,1.512l-3.845,17.928h0.086
		c2.851-3.845,6.048-6.135,7.992-7.171c1.123-0.605,2.117-0.907,2.938-0.907c1.08,0,2.246,0.82,1.167,5.486l-2.247,9.633
		c-0.259,1.253-0.173,1.555,0.13,1.598c0.432,0,1.814-0.82,3.023-1.986L86.488,236.123z"/>
	<path d="M97.375,235.994c-1.469,1.728-4.795,4.276-6.264,4.276c-0.864,0-1.469-0.691-0.605-4.233l2.722-11.016
		c0.216-0.95,0.216-1.382-0.043-1.382c-0.346,0-1.642,0.734-2.98,1.813l-0.519-0.95c2.376-2.332,5.4-4.104,6.523-4.104
		c0.994,0,0.95,1.383,0.432,3.413l-2.938,11.879c-0.259,1.037-0.173,1.382,0.086,1.382c0.518,0,1.987-1.123,3.024-2.03
		L97.375,235.994z M98.455,214.05c0.043,1.296-0.95,2.462-2.289,2.462c-0.994,0-1.728-0.734-1.728-1.857
		c-0.043-1.123,0.821-2.549,2.29-2.549C97.851,212.105,98.455,213.013,98.455,214.05z"/>
	<path d="M107.873,235.994c1.771-2.203,6.695-8.511,6.695-11.404c0-0.734-0.129-1.426-0.432-1.901c-0.173-0.302-0.173-0.69,0-1.036
		c0.259-0.734,1.037-1.296,1.814-1.296c1.037,0,1.814,1.036,1.857,2.462c0,1.339-0.691,3.067-2.635,5.789
		c-2.549,3.499-6.394,8.466-8.985,11.663h-1.166c-0.13-4.018-0.605-10.8-0.821-13.435c-0.173-2.549-0.432-3.326-0.778-3.326
		c-0.345,0-1.166,0.691-2.505,2.289l-0.734-0.95c1.555-2.246,3.801-4.492,5.184-4.492c1.124,0,1.642,1.642,1.858,4.795
		c0.216,3.801,0.432,7.3,0.562,10.843H107.873z"/>
	<path d="M133.23,235.389c-3.758,4.061-6.998,4.882-9.071,4.882c-2.03,0-4.795-1.167-4.795-6.307c0-4.018,1.814-8.554,5.227-11.146
		c1.814-1.426,4.104-2.462,5.961-2.462c2.29,0,3.758,1.642,3.758,3.456c0,4.276-7.214,6.608-11.404,7.646
		c-0.043,0.562-0.043,0.993-0.043,1.383c0,2.332,0.691,4.881,3.326,4.881c1.814,0,4.147-1.21,6.35-3.326L133.23,235.389z
		 M127.14,222.646c-1.123,0.691-3.283,2.679-4.061,7.517c6.177-1.685,8.035-3.629,8.035-5.659c0-1.469-0.907-2.332-2.16-2.332
		C128.306,222.171,127.615,222.344,127.14,222.646z"/>
	<path d="M134.917,237.16c-0.043-0.734,0.518-1.383,1.252-1.814c0.562-0.259,0.864-0.173,1.08,0.13
		c1.123,1.685,2.721,2.635,4.147,2.635c1.728,0,2.894-1.209,2.894-2.592c0-1.08-0.475-2.03-2.548-3.629
		c-1.944-1.469-3.758-3.066-3.758-5.27c0-1.253,0.519-2.679,2.246-4.147c1.339-1.166,3.413-2.116,4.838-2.116
		c1.857,0,3.326,1.296,3.326,2.419c0,0.734-0.432,1.382-1.08,1.814c-0.389,0.259-0.691,0.173-0.95-0.216
		c-0.864-1.08-1.901-1.944-3.37-1.944c-1.252,0-2.333,0.95-2.333,2.419c0,1.556,1.253,2.635,2.851,3.845
		c2.549,1.944,3.585,3.196,3.585,5.054c0,3.283-4.32,6.523-7.819,6.523C137.249,240.271,134.917,238.672,134.917,237.16z"/>
	<path d="M160.836,233.574c0-5.615,2.98-9.935,6.566-11.792c1.555-0.864,3.326-1.426,4.708-1.426c3.542,0,5.702,2.462,5.702,6.738
		c0,3.715-1.599,7.948-4.622,10.454c-1.858,1.555-4.233,2.722-6.653,2.722C162.434,240.271,160.836,237.03,160.836,233.574z
		 M169.519,238.283c2.29-0.993,4.708-5.572,4.665-11.102c0-3.499-1.512-5.141-3.499-5.141c-0.648,0-1.166,0.13-1.641,0.346
		c-1.685,0.777-4.579,4.319-4.579,10.929c0,3.196,1.339,5.227,3.628,5.227C168.611,238.542,169.043,238.456,169.519,238.283z"/>
	<path d="M184.812,221.134c0.648-3.283,1.728-6.522,3.671-8.683c1.987-2.203,4.45-3.456,6.177-3.456c1.512,0,2.635,1.08,2.592,1.814
		c0,0.691-0.648,1.469-1.08,1.814c-0.389,0.259-0.778,0.302-1.08-0.043c-0.907-0.994-1.814-1.513-2.721-1.513
		c-1.599,0-2.938,2.074-4.233,10.065h4.881l-0.864,1.382l-4.32,0.433c-0.821,4.752-1.252,7.257-2.246,12.052
		c-1.512,7.431-3.11,10.67-5.486,13.132c-1.9,2.03-3.715,2.722-4.838,2.722c-1.253,0-2.722-0.907-2.722-1.857
		c0-0.562,0.562-1.296,1.21-1.814c0.345-0.302,0.562-0.259,0.82,0c0.648,0.648,1.944,1.08,2.722,1.08
		c0.734,0,1.382-0.346,1.857-0.864c0.562-0.647,1.555-2.462,3.024-10.842c0.994-5.918,1.598-9.461,2.29-13.694h-3.542l-0.129-0.518
		l1.296-1.21H184.812z"/>
	<path d="M226.8,239.752h-10.194l0.303-1.166c2.98-0.303,3.153-0.778,2.894-2.636c-0.259-1.813-0.647-3.888-1.079-6.393h-9.029
		c-0.734,1.382-2.03,3.888-2.98,5.875c-1.253,2.592-0.95,2.894,2.333,3.153l-0.259,1.166H199.5l0.302-1.166
		c2.678-0.346,3.11-0.562,5.141-4.147l12.959-23.024l1.339-0.346l1.21,7.689c0.864,5.529,1.814,10.929,2.765,16.069
		c0.519,3.11,0.82,3.456,3.888,3.759L226.8,239.752z M216.735,216.598h-0.087c-2.16,3.932-4.146,7.517-6.004,11.146h7.818
		L216.735,216.598z"/>
	<path d="M259.977,236.123c-2.289,2.592-5.011,4.147-6.091,4.147c-1.036,0-1.425-1.253-0.647-4.406l2.289-9.979
		c0.519-2.117,0.26-2.808-0.389-2.808c-2.073,0-7.301,6.091-8.813,8.984c-0.519,2.03-1.209,4.882-1.685,7.431
		c-1.166,0.129-2.246,0.432-3.153,0.734l-0.259-0.26c1.079-4.363,2.203-8.769,3.109-12.959c0.605-2.938,0.519-3.931-0.345-3.931
		c-2.117,0-7.344,6.22-8.727,8.984c-0.604,1.944-1.253,4.839-1.771,7.431c-1.123,0.129-2.203,0.432-3.11,0.734l-0.303-0.26
		c1.296-4.881,2.506-9.806,3.586-14.644c0.345-1.599,0.216-1.814-0.044-1.857c-0.432,0-1.943,1.123-2.98,2.116l-0.519-1.08
		c2.419-2.592,4.968-4.146,6.091-4.146c1.08,0,1.253,1.598,0.346,5.356l-0.777,3.023h0.087c2.98-4.146,5.961-6.437,7.775-7.517
		c0.993-0.562,1.814-0.863,2.635-0.863c1.21,0,2.289,1.08,1.037,6.565l-0.389,1.771h0.086c2.938-4.104,6.048-6.479,7.948-7.517
		c1.08-0.562,1.814-0.82,2.592-0.82c0.907,0,2.29,0.519,0.95,6.264l-2.116,9.028c-0.26,1.08-0.173,1.382,0.086,1.382
		c0.389,0,1.685-0.777,2.938-1.987L259.977,236.123z"/>
	<path d="M277.129,235.389c-3.759,4.061-6.998,4.882-9.072,4.882c-2.03,0-4.795-1.167-4.795-6.307c0-4.018,1.814-8.554,5.228-11.146
		c1.814-1.426,4.104-2.462,5.961-2.462c2.289,0,3.758,1.642,3.758,3.456c0,4.276-7.214,6.608-11.403,7.646
		c-0.044,0.562-0.044,0.993-0.044,1.383c0,2.332,0.691,4.881,3.326,4.881c1.814,0,4.147-1.21,6.351-3.326L277.129,235.389z
		 M271.037,222.646c-1.123,0.691-3.282,2.679-4.061,7.517c6.178-1.685,8.035-3.629,8.035-5.659c0-1.469-0.907-2.332-2.16-2.332
		C272.204,222.171,271.513,222.344,271.037,222.646z"/>
	<path d="M286.936,227.527c2.246-4.233,4.795-7.171,6.522-7.171c0.734,0,1.469,0.519,1.857,1.123
		c0.303,0.519,0.303,1.253-0.043,1.814c-0.302,0.519-0.734,0.993-1.166,1.296c-0.346,0.259-0.691,0.216-0.95,0
		c-0.476-0.476-0.95-0.734-1.426-0.734c-0.519,0-1.21,0.475-2.203,1.857c-0.95,1.339-2.289,3.369-3.11,5.313
		c-0.647,2.894-1.166,5.572-1.728,8.423c-0.907,0.173-2.073,0.476-3.067,0.778l-0.302-0.303c1.079-4.622,2.332-9.936,3.153-14.515
		c0.259-1.469,0.216-1.9-0.087-1.9c-0.389,0-1.814,0.907-3.066,2.073l-0.605-0.993c2.203-2.419,4.882-4.233,6.048-4.233
		c1.123,0,1.166,1.987,0.519,5.011l-0.476,2.16H286.936z"/>
	<path d="M305.035,235.994c-1.469,1.728-4.795,4.276-6.264,4.276c-0.863,0-1.469-0.691-0.604-4.233l2.722-11.016
		c0.216-0.95,0.216-1.382-0.043-1.382c-0.346,0-1.642,0.734-2.981,1.813l-0.518-0.95c2.375-2.332,5.399-4.104,6.522-4.104
		c0.993,0,0.95,1.383,0.432,3.413l-2.938,11.879c-0.259,1.037-0.173,1.382,0.087,1.382c0.519,0,1.987-1.123,3.023-2.03
		L305.035,235.994z M306.115,214.05c0.043,1.296-0.95,2.462-2.289,2.462c-0.994,0-1.729-0.734-1.729-1.857
		c-0.043-1.123,0.821-2.549,2.29-2.549C305.511,212.105,306.115,213.013,306.115,214.05z"/>
	<path d="M321.624,235.476c-2.635,3.066-6.091,4.795-8.64,4.795c-2.765,0-4.622-2.203-4.622-6.307c0-3.629,1.685-7.862,4.493-10.368
		c1.728-1.598,4.751-3.239,6.868-3.239c1.857,0,3.24,1.08,3.283,2.159c0.043,0.648-0.433,1.469-1.383,1.987
		c-0.389,0.216-0.69,0.13-0.95-0.259c-0.907-1.253-1.943-1.857-3.283-1.857c-1.512,0-2.721,1.296-3.585,2.894
		c-1.037,1.901-1.857,4.839-1.857,7.776c0,3.066,1.166,4.665,3.023,4.665c2.203,0,4.838-1.987,6.005-3.196L321.624,235.476z"/>
	<path d="M342.792,235.777c-2.376,2.895-5.27,4.493-6.35,4.493c-0.821,0-1.383-0.648-0.734-3.802l0.863-4.104h-0.129
		c-1.642,2.376-3.715,4.449-5.572,5.961c-1.426,1.167-2.852,1.944-4.018,1.944c-1.123,0-2.506-1.426-2.506-4.838
		c0-4.363,2.03-9.115,5.184-11.75c2.203-1.814,5.356-3.326,8.078-3.326c0.864,0,1.728,0.129,2.679,0.346
		c0.562,0.129,1.166,0.259,1.642,0.259l0.086,0.173c-0.691,2.679-1.987,8.553-2.98,14.039c-0.26,1.469-0.13,1.857,0.086,1.857
		c0.389,0,1.857-1.036,3.153-2.289L342.792,235.777z M337.134,229.039c0.518-1.685,1.166-4.795,1.425-6.178
		c-0.604-0.302-1.728-0.604-2.851-0.604c-1.167,0-2.333,0.346-3.11,0.907c-2.938,2.16-4.665,7.214-4.665,11.49
		c0,1.944,0.518,2.852,1.166,2.852C330.783,237.506,335.708,232.063,337.134,229.039z"/>
	<path d="M364.521,236.08c-2.549,2.808-4.968,4.19-6.091,4.19c-1.037,0-1.469-1.167-0.648-4.493c0.778-3.196,1.513-6.393,2.247-9.59
		c0.604-2.462,0.346-3.066-0.303-3.066c-1.9,0-6.912,5.313-9.071,8.985c-0.519,2.116-1.167,4.665-1.685,7.3
		c-1.123,0.216-2.29,0.519-3.11,0.821l-0.26-0.303c1.21-4.709,2.463-9.85,3.543-14.645c0.302-1.382,0.173-1.728-0.087-1.728
		c-0.389,0-1.685,0.907-2.765,1.944l-0.604-1.037c2.376-2.506,4.881-4.104,6.091-4.104c0.95,0,1.123,1.469,0.346,4.795l-0.907,3.758
		h0.086c2.938-4.018,6.135-6.522,7.948-7.56c1.124-0.691,2.03-0.993,2.852-0.993c1.08,0,2.289,0.647,0.993,6.177
		c-0.69,2.938-1.425,5.962-2.116,8.942c-0.26,1.166-0.216,1.555,0.086,1.555c0.389,0,1.556-0.734,2.808-1.987L364.521,236.08z"/>
	<path d="M402.537,239.752h-10.194l0.302-1.166c2.98-0.303,3.153-0.778,2.895-2.636c-0.259-1.813-0.648-3.888-1.08-6.393h-9.028
		c-0.734,1.382-2.03,3.888-2.98,5.875c-1.253,2.592-0.95,2.894,2.333,3.153l-0.26,1.166h-9.287l0.302-1.166
		c2.679-0.346,3.11-0.562,5.141-4.147l12.96-23.024l1.339-0.346l1.209,7.689c0.864,5.529,1.814,10.929,2.765,16.069
		c0.519,3.11,0.821,3.456,3.889,3.759L402.537,239.752z M392.472,216.598h-0.086c-2.16,3.932-4.147,7.517-6.005,11.146h7.819
		L392.472,216.598z"/>
	<path d="M411.696,227.527c2.246-4.233,4.795-7.171,6.522-7.171c0.734,0,1.469,0.519,1.857,1.123
		c0.303,0.519,0.303,1.253-0.043,1.814c-0.302,0.519-0.734,0.993-1.166,1.296c-0.346,0.259-0.691,0.216-0.95,0
		c-0.476-0.476-0.95-0.734-1.426-0.734c-0.519,0-1.21,0.475-2.203,1.857c-0.95,1.339-2.289,3.369-3.11,5.313
		c-0.647,2.894-1.166,5.572-1.728,8.423c-0.907,0.173-2.073,0.476-3.067,0.778l-0.302-0.303c1.079-4.622,2.332-9.936,3.153-14.515
		c0.259-1.469,0.216-1.9-0.087-1.9c-0.389,0-1.814,0.907-3.066,2.073l-0.605-0.993c2.203-2.419,4.882-4.233,6.048-4.233
		c1.123,0,1.166,1.987,0.519,5.011l-0.476,2.16H411.696z"/>
	<path d="M433.512,222.646l-4.319,0.173l-2.506,11.836c-0.475,2.117-0.216,2.592,0.259,2.592c0.734,0,2.809-1.425,3.845-2.505
		l0.648,0.907c-1.426,1.728-4.709,4.622-6.998,4.622c-0.993,0-1.857-1.253-0.864-5.702l2.506-11.707h-3.197l-0.129-0.389l1.08-1.339
		h2.635l0.993-4.061l3.24-2.722l0.432,0.26l-1.555,6.522h5.054L433.512,222.646z"/>
</g>
</svg>
