<?xml version="1.0" encoding="UTF-8"?>
<svg width="267px" height="98px" viewBox="0 0 267 98" version="1.1" xmlns="http://www.w3.org/2000/svg" xmlns:xlink="http://www.w3.org/1999/xlink">
    <!-- Generator: Sketch 46.2 (44496) - http://www.bohemiancoding.com/sketch -->
    <title>Media,767339,en</title>
    <desc>Created with Sketch.</desc>
    <defs></defs>
    <g id="Page-1" stroke="none" stroke-width="1" fill="none" fill-rule="evenodd">
        <g id="Media,767339,en" transform="translate(0.000000, -1.000000)" fill-rule="nonzero">
            <g id="Layer_1">
                <g id="Style-guide">
                    <g id="_x31_.-Logos">
                        <g id="QUB--logo--web">
                            <g id="Group-3" transform="translate(0.000000, 0.132099)" fill="#D6000D">
                                <path d="M85.454,51.522 L85.454,0.883 L0,0.883 L0,51.62 C0,77.535 19.187,98.7 42.727,98.7 C66.266,98.701 85.454,77.536 85.454,51.522" id="Fill-1"></path>
                            </g>
                            <path d="M15.429,80.603 L42.826,52.81 L70.025,80.8 C72.794,77.636 75.168,73.877 76.948,69.821 L51.728,44.007 L80.904,14.534 L80.904,5.83 L72.299,5.83 L42.826,35.6 L13.451,5.83 L4.748,5.83 L4.748,14.336 L34.123,44.007 L8.605,69.821 C10.385,73.778 12.66,77.438 15.429,80.603" id="Fill-4" fill="#FFFFFF"></path>
                            <path d="M47.672,67.547 L46.782,68.833 L46.584,65.568 C46.98,65.471 47.276,65.371 47.573,65.272 L47.573,67.546 L47.672,67.546 L47.672,67.547 Z M42.826,67.35 C43.122,67.251 43.419,67.052 43.716,66.954 C43.815,66.855 43.913,66.855 44.111,66.757 L44.013,72.89 L43.122,74.175 L42.826,67.35 Z M42.727,74.668 L41.837,76.053 L41.639,67.844 C42.035,67.745 42.43,67.547 42.925,67.35 L42.727,74.668 Z M41.441,76.548 L40.551,77.735 L40.255,68.142 C40.651,68.041 41.046,67.943 41.442,67.844 L41.442,76.548 L41.441,76.548 Z M45.299,71.009 L44.409,72.294 L44.211,66.656 C44.607,66.459 45.002,66.26 45.398,66.063 L45.299,71.009 Z M45.398,66.063 C45.794,65.866 46.189,65.667 46.585,65.568 L46.486,69.228 L45.596,70.513 L45.398,66.063 Z M51.233,65.568 L51.233,65.074 C51.233,65.074 49.453,62.7 43.42,64.678 C38.969,66.161 36.299,62.799 36.299,62.799 L36.299,65.272 C36.299,65.272 38.772,67.645 43.717,65.471 C48.662,63.392 50.244,64.579 50.937,65.074 C50.343,64.58 48.662,63.887 43.717,65.965 C39.761,67.646 37.387,66.459 36.595,65.965 L36.595,67.547 C36.595,67.547 37.782,68.536 40.453,68.041 L40.354,78.13 L40.354,78.229 C40.551,78.625 40.651,78.92 40.849,79.219 L49.453,66.855 C49.749,66.459 50.244,66.261 50.739,66.261 C50.937,66.261 51.135,66.261 51.234,66.362 L51.234,65.867 L51.234,65.568 L51.233,65.568 Z" id="Fill-6" fill="#FFFFFF"></path>
                            <path d="M50.738,66.756 C50.342,66.756 49.947,66.953 49.65,67.35 L49.65,67.35 L41.145,80.01 C41.441,80.603 41.837,81.098 42.232,81.691 L49.65,69.032 L49.65,69.032 L42.628,82.185 C42.727,82.285 42.925,82.483 43.024,82.581 L44.508,82.581 L50.145,70.118 L49.551,69.722 L49.848,69.228 C50.046,69.425 50.342,69.524 50.639,69.524 C51.332,69.524 52.023,68.931 52.023,68.141 C52.024,67.35 51.43,66.756 50.738,66.756" id="Fill-8" fill="#FFFFFF"></path>
                            <path d="M36.594,68.142 C36.594,68.635 36.495,69.129 36.495,69.525 C36.495,73.482 37.978,77.141 40.352,80.01 C40.056,79.812 39.759,79.614 39.363,79.614 C38.572,79.614 37.978,80.208 37.978,80.998 C37.978,81.789 38.572,82.383 39.363,82.383 C39.66,82.383 40.056,82.284 40.253,82.087 C40.549,81.889 40.847,81.691 41.242,81.691 C41.737,81.691 42.034,81.988 42.43,82.383 C39.859,79.712 38.276,75.955 38.276,71.998 C38.276,70.909 38.375,69.821 38.672,68.734 C37.188,68.734 36.594,68.142 36.594,68.142" id="Fill-10" fill="#FFFFFF"></path>
                            <path d="M68.245,35.403 C68.245,35.403 67.453,36.095 67.552,35.205 C67.652,34.314 68.64,35.205 68.64,35.205 L68.245,35.403 Z M78.432,33.227 C77.64,32.238 74.673,29.37 68.838,32.634 C68.838,32.634 74.871,29.073 77.838,32.139 C73.684,26.303 67.255,30.754 67.255,30.754 C67.255,30.754 68.738,31.545 68.047,32.93 C68.047,32.93 66.959,33.82 66.761,34.413 C66.761,34.413 66.86,36.194 65.574,37.083 C64.882,37.677 63.991,37.479 63.991,37.479 C63.596,38.568 65.277,39.359 65.277,39.359 C65.969,39.853 66.761,38.667 66.761,38.667 C68.245,37.875 69.629,38.074 69.629,38.074 C71.509,38.173 72.201,37.183 72.399,36.59 L72.498,35.997 C72.498,36.294 72.596,36.491 72.695,36.59 C72.695,36.689 72.794,36.689 72.794,36.788 C73.486,38.172 74.971,37.084 74.971,37.084 C74.971,39.655 77.146,38.37 77.146,38.37 C76.752,40.052 77.839,40.249 78.433,40.151 C79.717,37.282 78.63,34.019 78.432,33.227 L78.432,33.227 Z" id="Fill-12" fill="#FFFFFF"></path>
                            <path d="M77.937,43.513 C76.85,47.865 73.981,44.7 73.981,44.7 L76.751,42.227 C76.454,41.337 74.673,39.062 71.805,39.162 C71.113,39.754 70.322,40.052 70.322,40.052 C66.662,41.14 66.464,43.514 66.464,43.514 C65.277,47.371 69.036,49.844 69.036,49.844 C70.323,50.636 73.29,53.108 73.29,53.108 C75.07,54.888 73.982,55.975 73.982,55.975 C72.894,57.361 71.608,56.471 71.608,56.471 C71.41,56.272 71.213,56.074 71.213,55.679 C71.213,55.184 71.608,54.789 72.103,54.789 C72.597,54.789 72.993,55.184 72.993,55.679 L72.993,55.778 C73.092,55.58 73.092,55.284 73.092,55.086 C73.092,53.899 72.103,52.909 70.916,52.909 C70.026,52.909 69.234,53.504 68.938,54.294 C67.751,58.351 71.213,59.142 71.213,59.142 C75.366,60.131 76.356,56.57 76.356,56.57 C76.356,56.472 76.455,56.372 76.455,56.273 C76.356,55.086 75.565,53.701 73.586,52.218 C68.147,48.261 69.234,44.701 69.433,44.207 L69.433,44.108 C69.433,44.108 69.433,44.108 69.433,44.207 C69.234,44.602 68.74,47.174 74.081,51.03 C75.366,51.921 76.059,52.909 76.455,53.8 C76.059,52.02 75.267,50.636 75.267,50.636 C78.333,51.13 76.157,48.954 76.157,48.954 C77.443,48.756 78.136,47.964 78.136,47.964 C80.014,45.491 77.937,43.513 77.937,43.513" id="Fill-14" fill="#FFFFFF"></path>
                            <path d="M11.77,46.975 C11.77,46.975 14.936,41.041 18.792,42.622 C18.792,42.721 15.034,41.931 11.77,46.975 M22.551,39.359 C22.551,38.864 22.353,37.875 22.056,37.677 C21.66,37.182 20.77,37.281 20.473,37.776 C19.879,38.666 20.177,44.006 20.177,44.6 C16.517,44.304 14.836,48.358 14.836,48.358 C14.836,48.358 16.121,43.908 19.583,43.809 C19.583,34.611 19.583,33.325 19.484,32.831 C19.385,32.237 19.187,31.643 18.296,31.643 C17.505,31.643 17.307,32.236 17.307,32.731 L17.307,40.841 C17.604,40.841 17.901,40.94 18.197,41.039 C17.703,40.939 17.11,40.939 16.615,40.939 L16.615,31.642 C16.615,30.554 16.219,30.257 15.428,30.356 C14.736,30.356 14.439,31.048 14.439,31.345 L14.439,41.137 C14.142,41.038 13.846,41.038 13.647,41.038 L13.647,33.62 C13.647,33.62 13.746,32.235 12.559,32.334 C12.559,32.334 11.669,32.432 11.669,33.521 C11.669,34.312 11.669,39.356 11.669,41.433 C10.68,41.632 10.086,41.73 10.086,41.73 C10.382,41.631 10.778,41.433 11.075,41.334 L11.075,37.081 C11.075,37.081 11.174,35.697 10.185,35.697 C9.592,35.697 9.394,36.192 9.394,36.785 C9.394,36.785 9.394,36.884 9.394,37.081 L9.295,43.807 L9.394,45.29 C9.394,47.071 9.493,48.851 9.987,50.433 L9.987,50.433 C9.987,50.533 10.086,50.632 10.086,50.829 C10.185,51.126 10.382,51.521 10.58,51.817 C11.768,53.5 14.24,53.796 14.24,53.796 C13.251,53.995 12.46,53.796 11.866,53.5 C11.866,53.599 11.866,53.696 11.866,53.796 C11.866,53.896 11.866,54.093 11.866,54.29 C11.866,54.488 11.866,54.686 11.866,54.885 C11.866,55.378 11.866,55.972 12.064,56.269 C12.46,56.269 14.339,56.269 15.723,56.269 C17.503,56.269 18.493,56.269 18.789,56.269 C18.789,55.873 18.394,54.787 18.591,53.996 C18.69,53.402 18.887,52.906 19.086,52.412 C20.669,49.643 22.449,46.874 22.449,45.391 C22.548,43.907 22.548,41.335 22.548,41.335 C22.649,40.545 22.551,40.051 22.551,39.359" id="Fill-16" fill="#FFFFFF"></path>
                            <path d="M49.156,10.776 C48.167,10.875 47.474,10.479 47.474,10.479 C46.386,9.687 45.397,9.787 44.804,9.984 L44.804,8.995 C45.398,8.798 46.387,8.798 47.474,9.49 C47.474,9.49 48.166,9.886 49.156,9.787 L49.156,10.776 Z M49.156,14.435 C48.167,14.535 47.474,14.139 47.474,14.139 C46.386,13.347 45.397,13.446 44.804,13.644 L44.804,12.655 C45.398,12.457 46.387,12.457 47.474,13.15 C47.474,13.15 48.166,13.546 49.156,13.446 L49.156,14.435 Z M49.156,17.896 C48.167,17.995 47.474,17.6 47.474,17.6 C46.386,16.808 45.397,16.908 44.804,17.106 L44.804,16.116 C45.398,15.919 46.387,15.919 47.474,16.611 C47.474,16.611 48.166,17.007 49.156,16.908 L49.156,17.896 Z M40.848,9.885 C40.254,9.687 39.265,9.687 38.177,10.38 C38.177,10.38 37.485,10.776 36.496,10.677 L36.496,9.688 C37.485,9.787 38.177,9.391 38.177,9.391 C39.265,8.6 40.254,8.699 40.848,8.897 L40.848,9.885 Z M40.848,13.545 C40.254,13.347 39.265,13.347 38.177,14.04 C38.177,14.04 37.485,14.435 36.496,14.337 L36.496,13.348 C37.485,13.447 38.177,13.051 38.177,13.051 C39.265,12.259 40.254,12.359 40.848,12.556 L40.848,13.545 Z M40.848,17.106 C40.254,16.908 39.265,16.908 38.177,17.6 C38.177,17.6 37.485,17.996 36.496,17.896 L36.496,16.908 C37.485,17.006 38.177,16.611 38.177,16.611 C39.265,15.82 40.254,15.919 40.848,16.116 L40.848,17.106 Z M49.65,7.611 C48.463,7.71 47.573,7.215 47.573,7.215 C46.881,6.621 46.287,6.423 45.793,6.423 C44.21,6.226 42.925,7.017 42.826,8.203 C42.727,7.016 41.441,6.225 39.859,6.423 C39.364,6.522 38.771,6.72 38.078,7.215 C38.078,7.215 37.287,7.709 36.001,7.611 L34.814,7.512 L34.814,20.666 L36.001,20.765 C37.188,20.864 38.078,20.369 38.078,20.369 C38.771,19.875 39.364,19.677 39.859,19.578 C41.441,19.38 42.727,20.171 42.826,21.259 L42.826,21.259 L42.826,21.259 C42.826,21.259 42.826,21.259 42.826,21.16 C42.826,21.16 42.826,21.16 42.826,21.259 L42.826,21.259 L42.826,21.259 C42.925,20.072 44.211,19.38 45.793,19.578 C46.287,19.677 46.881,19.875 47.573,20.369 C47.573,20.369 48.364,20.864 49.65,20.765 L50.838,20.666 L50.838,7.512 L49.65,7.611 Z" id="Fill-18" fill="#FFFFFF"></path>
                            <path d="M52.123,7.413 L52.123,21.952 L44.31,21.952 C43.519,21.952 42.926,22.545 42.827,23.336 C42.728,22.545 42.135,21.952 41.343,21.952 L33.53,21.952 L33.53,7.413 C32.738,7.512 32.244,8.105 32.244,8.896 L32.244,23.237 L41.343,23.237 C41.343,23.237 41.64,24.226 42.827,24.325 L42.827,24.325 L42.827,24.325 L42.827,24.325 L42.827,24.325 C44.014,24.226 44.31,23.237 44.31,23.237 L53.409,23.237 L53.409,8.896 C53.408,8.105 52.914,7.512 52.123,7.413" id="Fill-20" fill="#FFFFFF"></path>
                            <path d="M42.826,48.557 L42.826,48.557 L42.826,48.557 C45.695,48.557 47.376,49.15 48.068,49.448 L48.068,49.448 C48.167,44.601 49.749,42.326 49.749,42.227 L49.848,42.03 L49.749,42.03 C48.761,41.536 47.969,42.721 47.672,43.117 C47.474,42.92 47.276,42.721 47.079,42.721 C46.683,42.622 46.387,43.117 46.387,43.117 L46.288,43.216 C46.288,43.216 46.882,43.414 46.882,44.305 C46.882,44.305 47.08,45.491 45.299,45.097 C43.519,44.701 43.222,43.118 43.222,43.118 L44.607,43.613 L44.607,41.338 L43.321,41.833 L43.717,40.25 L42.827,40.25 L42.827,40.25 L42.728,40.25 L42.728,40.25 L42.629,40.25 L42.629,40.25 L41.739,40.25 L42.135,41.833 L40.849,41.338 L40.849,43.613 L42.233,43.118 C42.233,43.118 42.036,44.701 40.156,45.097 C38.375,45.492 38.573,44.305 38.573,44.305 C38.573,43.414 39.167,43.216 39.167,43.216 L39.067,43.117 C39.067,43.117 38.771,42.721 38.375,42.721 C38.177,42.721 37.979,42.919 37.782,43.117 C37.485,42.721 36.694,41.436 35.704,42.03 L35.506,42.129 L35.605,42.326 C35.605,42.326 37.188,44.7 37.287,49.546 L37.287,49.546 C38.276,49.15 39.958,48.557 42.826,48.557 L42.826,48.557 L42.826,48.557 L42.826,48.557 Z" id="Fill-22" fill="#FFFFFF"></path>
                            <path d="M41.639,36.393 C38.968,36.789 36.892,38.667 36.001,41.14 L36.001,41.239 C36.496,41.042 36.892,41.14 37.287,41.436 L37.287,41.337 C38.177,39.162 40.353,37.579 42.826,37.579 L42.826,37.579 L41.639,36.393 Z" id="Fill-24" fill="#FFFFFF"></path>
                            <path d="M49.65,41.14 C48.76,38.667 46.584,36.788 44.013,36.393 L42.826,37.579 L42.826,37.579 C45.299,37.579 47.474,39.162 48.365,41.337 L48.365,41.436 C48.661,41.14 49.156,41.041 49.65,41.14 L49.65,41.14 Z" id="Fill-26" fill="#FFFFFF"></path>
                            <path d="M42.925,49.448 L42.925,49.448 L42.925,49.448 L42.925,49.448 L42.925,49.448 L42.727,49.448 L42.727,49.448 L42.727,49.448 C40.155,49.448 38.078,49.942 38.078,50.535 C38.078,51.029 39.661,51.524 41.738,51.623 L42.727,50.635 L43.716,51.623 C45.892,51.524 47.573,51.129 47.573,50.535 C47.573,49.942 45.496,49.448 42.925,49.448" id="Fill-28" fill="#FFFFFF"></path>
                            <path d="M28.584,88.811 C28.584,88.912 28.584,88.912 28.682,88.912 L31.056,88.912 C31.155,88.912 31.155,88.811 31.155,88.811 L31.155,88.317 C31.155,88.219 31.155,88.219 31.056,88.219 L29.276,88.219 L29.276,87.131 L30.759,87.131 C30.858,87.131 30.858,87.131 30.858,87.031 L30.858,86.536 C30.858,86.437 30.759,86.437 30.759,86.437 L29.276,86.437 L29.276,85.449 L31.056,85.449 C31.155,85.449 31.155,85.35 31.155,85.35 L31.155,84.856 C31.155,84.756 31.155,84.756 31.056,84.756 L28.682,84.756 C28.584,84.756 28.584,84.856 28.584,84.856 L28.584,88.811 Z" id="Fill-30" fill="#FFFFFF"></path>
                            <path d="M32.638,88.515 C32.737,88.614 33.232,89.009 33.924,89.009 C34.716,89.009 35.309,88.416 35.309,87.823 C35.309,87.031 34.617,86.734 34.122,86.437 C33.627,86.24 33.43,86.041 33.43,85.747 C33.43,85.548 33.628,85.351 33.924,85.351 C34.221,85.351 34.716,85.647 34.716,85.647 C34.814,85.647 34.913,85.647 34.913,85.548 L35.111,85.251 C35.111,85.152 35.111,85.053 35.111,85.053 C35.012,84.955 34.518,84.657 33.924,84.657 C33.034,84.657 32.638,85.251 32.638,85.845 C32.638,86.536 33.232,86.932 33.726,87.131 C34.221,87.328 34.518,87.526 34.518,87.823 C34.518,88.119 34.32,88.316 34.023,88.316 C33.627,88.316 33.132,87.92 33.132,87.92 C33.033,87.92 32.935,87.92 32.935,87.92 L32.638,88.316 C32.54,88.416 32.638,88.515 32.638,88.515" id="Fill-32" fill="#FFFFFF"></path>
                            <path d="M37.386,88.811 C37.386,88.912 37.485,88.912 37.485,88.912 L38.078,88.912 C38.177,88.912 38.177,88.811 38.177,88.811 L38.177,85.45 L39.067,85.45 C39.167,85.45 39.167,85.351 39.167,85.351 L39.167,84.857 C39.167,84.757 39.167,84.757 39.067,84.757 L36.496,84.757 C36.397,84.757 36.397,84.857 36.397,84.857 L36.397,85.351 C36.397,85.45 36.397,85.45 36.496,85.45 L37.387,85.45 L37.387,88.811 L37.386,88.811 Z" id="Fill-34" fill="#FFFFFF"></path>
                            <path d="M44.309,88.811 C44.309,88.912 44.309,88.912 44.408,88.912 L44.903,88.912 C45.001,88.912 45.001,88.811 45.001,88.811 L45.001,84.956 C45.001,84.857 45.001,84.857 44.903,84.857 L44.507,84.857 L43.616,85.548 L43.616,85.647 L43.616,85.944 C43.616,86.043 43.715,86.043 43.715,86.043 L44.21,85.944 L44.21,88.811 L44.309,88.811 Z" id="Fill-36" fill="#FFFFFF"></path>
                            <path d="M47.177,87.823 C47.177,87.525 47.375,87.328 47.771,87.229 C48.167,87.328 48.364,87.625 48.364,87.823 C48.364,88.119 48.068,88.416 47.771,88.416 C47.474,88.416 47.177,88.219 47.177,87.823 M47.771,86.536 C47.375,86.437 47.276,86.24 47.276,85.943 C47.276,85.646 47.474,85.449 47.771,85.449 C48.068,85.449 48.364,85.646 48.364,85.943 C48.364,86.24 48.167,86.438 47.771,86.536 M46.386,87.823 C46.386,88.514 46.881,89.009 47.771,89.009 C48.661,89.009 49.156,88.515 49.156,87.823 C49.156,87.328 48.661,86.931 48.464,86.834 L48.464,86.834 C48.662,86.734 49.057,86.339 49.057,85.943 C49.057,85.251 48.464,84.856 47.772,84.856 C47.08,84.856 46.486,85.251 46.486,85.943 C46.486,86.437 46.882,86.734 47.08,86.834 L47.08,86.834 C46.98,86.932 46.386,87.328 46.386,87.823" id="Fill-38" fill="#FFFFFF"></path>
                            <path d="M50.936,87.427 L52.123,86.042 L52.123,87.427 L50.936,87.427 Z M50.343,88.119 L52.123,88.119 L52.123,88.911 C52.123,89.009 52.222,89.009 52.222,89.009 L52.717,89.009 C52.816,89.009 52.816,88.911 52.816,88.911 L52.816,88.119 L53.31,88.119 C53.409,88.119 53.409,88.021 53.409,88.021 L53.409,87.625 C53.409,87.525 53.409,87.525 53.31,87.525 L52.816,87.525 L52.816,84.955 C52.816,84.856 52.717,84.856 52.717,84.856 L52.42,84.856 L52.321,84.856 L50.244,87.426 L50.244,87.92 C50.243,88.021 50.243,88.119 50.343,88.119 L50.343,88.119 Z" id="Fill-40" fill="#FFFFFF"></path>
                            <path d="M54.398,88.515 C54.497,88.713 54.893,89.009 55.585,89.009 C56.377,89.009 56.97,88.416 56.97,87.625 C56.97,86.834 56.475,86.339 55.585,86.339 L55.09,86.339 L55.09,85.548 L56.377,85.548 C56.476,85.548 56.476,85.449 56.476,85.449 L56.476,85.053 C56.476,84.955 56.476,84.955 56.377,84.955 L54.497,84.955 C54.398,84.955 54.398,85.053 54.398,85.053 L54.398,86.834 C54.398,86.932 54.497,87.031 54.596,87.031 L55.486,87.031 C55.98,87.031 56.178,87.328 56.178,87.723 C56.178,88.118 55.882,88.415 55.486,88.415 C55.09,88.415 54.794,88.118 54.695,88.118 L54.596,88.118 L54.398,88.315 C54.398,88.416 54.398,88.416 54.398,88.515" id="Fill-42" fill="#FFFFFF"></path>
                            <path d="M40.452,88.515 C40.452,88.219 40.65,88.022 40.947,88.022 C41.243,88.022 41.441,88.219 41.441,88.515 C41.441,88.811 41.243,89.009 40.947,89.009 C40.65,89.009 40.452,88.713 40.452,88.515" id="Fill-44" fill="#FFFFFF"></path>
                            <path d="M40.65,86.932 L41.045,86.932 C41.441,86.932 41.837,86.637 41.837,86.141 C41.837,85.647 41.54,85.351 41.045,85.351 L40.65,85.351 L40.65,86.932 Z M41.045,87.525 L40.155,87.525 C40.056,87.525 40.056,87.426 40.056,87.328 L40.056,84.856 C40.056,84.756 40.155,84.657 40.155,84.657 L41.045,84.657 C41.837,84.657 42.43,85.251 42.43,86.042 C42.43,86.932 41.837,87.525 41.045,87.525 L41.045,87.525 Z" id="Fill-46" fill="#FFFFFF"></path>
                            <path d="M133.323,26.105 C128.477,26.105 124.817,22.545 124.817,17.797 L124.817,4.94 C124.817,4.544 125.213,4.148 125.509,4.148 L128.378,4.148 C128.774,4.148 129.071,4.445 129.071,4.94 L129.071,17.6 C129.071,20.072 130.751,21.754 133.225,21.754 C135.697,21.754 137.476,20.072 137.476,17.6 L137.476,5.039 C137.476,4.643 137.774,4.247 138.169,4.247 L141.037,4.247 C141.433,4.247 141.729,4.643 141.729,5.039 L141.729,17.896 C141.829,22.645 138.17,26.105 133.323,26.105" id="Fill-48" fill="#D6000D"></path>
                            <path d="M157.358,25.809 L145.193,25.809 C144.797,25.809 144.501,25.513 144.501,25.018 L144.501,5.039 C144.501,4.643 144.797,4.247 145.193,4.247 L157.358,4.247 C157.754,4.247 158.05,4.544 158.05,5.039 L158.05,7.512 C158.05,7.908 157.753,8.304 157.358,8.304 L148.655,8.304 L148.655,12.952 L155.875,12.952 C156.271,12.952 156.566,13.348 156.566,13.744 L156.566,16.217 C156.566,16.612 156.27,17.008 155.875,17.008 L148.655,17.008 L148.655,21.954 L157.358,21.954 C157.754,21.954 158.05,22.25 158.05,22.745 L158.05,25.218 C158.149,25.513 157.753,25.809 157.358,25.809" id="Fill-50" fill="#D6000D"></path>
                            <path d="M173.875,25.809 L161.71,25.809 C161.314,25.809 161.017,25.513 161.017,25.018 L161.017,5.039 C161.017,4.643 161.315,4.247 161.71,4.247 L173.875,4.247 C174.27,4.247 174.566,4.544 174.566,5.039 L174.566,7.512 C174.566,7.908 174.269,8.304 173.875,8.304 L165.171,8.304 L165.171,12.952 L172.391,12.952 C172.787,12.952 173.084,13.348 173.084,13.744 L173.084,16.217 C173.084,16.612 172.787,17.008 172.391,17.008 L165.171,17.008 L165.171,21.954 L173.875,21.954 C174.27,21.954 174.566,22.25 174.566,22.745 L174.566,25.218 C174.567,25.513 174.27,25.809 173.875,25.809" id="Fill-52" fill="#D6000D"></path>
                            <path d="M194.843,26.105 L194.447,26.105 C194.151,26.105 193.952,26.006 193.853,25.808 L181.786,12.358 L181.786,25.018 C181.786,25.414 181.49,25.809 181.096,25.809 L178.325,25.809 C177.929,25.809 177.633,25.414 177.633,25.018 L177.633,4.742 C177.633,4.347 177.93,4.05 178.325,4.05 L178.819,4.05 C179.116,4.05 179.313,4.149 179.414,4.347 L191.38,17.304 L191.38,5.039 C191.38,4.643 191.678,4.247 192.074,4.247 L194.843,4.247 C195.239,4.247 195.534,4.643 195.534,5.039 L195.534,25.414 C195.534,25.809 195.239,26.105 194.843,26.105" id="Fill-54" fill="#D6000D"></path>
                            <path d="M199.492,10.578 C199.294,10.578 199.193,10.479 199.096,10.479 L198.303,9.885 C198.206,9.786 197.908,9.489 198.303,8.995 C199.194,7.908 199.689,6.621 199.689,5.632 C199.689,5.533 199.689,5.435 199.689,5.336 C199.391,5.435 199.194,5.534 198.898,5.534 C197.81,5.534 197.019,4.643 197.019,3.358 C197.019,2.072 198.008,1.182 199.391,1.182 C200.678,1.182 202.063,2.27 202.063,4.743 C202.063,7.314 200.876,9.194 199.986,10.381 C199.689,10.479 199.59,10.578 199.492,10.578" id="Fill-56" fill="#D6000D"></path>
                            <path d="M209.48,26.105 C205.525,26.105 203.546,24.325 202.756,23.731 C202.36,23.434 202.261,23.138 202.557,22.644 L203.646,20.764 C203.746,20.566 203.942,20.368 204.239,20.368 C204.436,20.368 204.734,20.368 204.931,20.566 C206.217,21.555 207.502,22.445 209.381,22.445 C210.767,22.445 211.954,21.456 211.954,20.269 C211.954,18.884 210.865,17.895 208.294,16.807 C205.822,15.818 202.557,14.038 202.557,10.081 C202.557,7.213 204.734,4.048 209.48,4.048 C212.646,4.048 215.119,5.73 215.612,6.126 C215.811,6.225 215.91,6.422 215.91,6.62 C216.009,6.916 215.91,7.115 215.811,7.312 L214.624,8.994 C214.524,9.192 214.327,9.39 214.03,9.489 C213.733,9.588 213.535,9.588 213.338,9.39 L213.139,9.291 C211.954,8.5 210.767,7.807 209.284,7.807 C207.601,7.807 206.81,8.797 206.81,9.786 C206.81,11.072 207.798,12.06 210.271,13.05 C213.438,14.336 216.601,16.216 216.601,20.072 C216.601,22.941 214.129,26.105 209.48,26.105" id="Fill-58" fill="#D6000D"></path>
                            <path d="M138.072,55.381 L137.676,55.381 C137.38,55.381 137.181,55.283 137.084,55.085 L125.017,41.634 L125.017,54.293 C125.017,54.689 124.72,55.085 124.325,55.085 L121.555,55.085 C121.159,55.085 120.864,54.689 120.864,54.293 L120.864,33.919 C120.864,33.523 121.16,33.227 121.555,33.227 L122.049,33.227 C122.346,33.227 122.545,33.326 122.643,33.524 L134.513,46.381 L134.513,34.314 C134.513,33.919 134.808,33.523 135.203,33.523 L137.974,33.523 C138.37,33.523 138.665,33.919 138.665,34.314 L138.665,54.688 C138.765,55.085 138.466,55.381 138.072,55.381" id="Fill-60" fill="#D6000D"></path>
                            <path d="M146.379,55.085 L143.609,55.085 C143.213,55.085 142.917,54.689 142.917,54.293 L142.917,34.314 C142.917,33.919 143.313,33.523 143.609,33.523 L146.379,33.523 C146.775,33.523 147.071,33.919 147.071,34.314 L147.071,54.393 C147.17,54.789 146.776,55.085 146.379,55.085" id="Fill-62" fill="#D6000D"></path>
                            <path d="M160.028,55.381 L159.732,55.381 C159.535,55.381 159.238,55.283 159.04,54.987 L159.04,54.987 L149.742,34.612 C149.644,34.414 149.644,34.117 149.742,33.92 C149.841,33.723 150.138,33.623 150.336,33.623 L153.401,33.623 C153.698,33.623 153.996,33.821 154.094,34.019 L159.829,46.876 L165.566,34.019 C165.666,33.821 165.863,33.623 166.258,33.623 L169.324,33.623 C169.621,33.623 169.819,33.723 169.918,33.92 C170.017,34.118 170.017,34.414 169.918,34.612 L160.62,54.987 C160.524,55.283 160.226,55.381 160.028,55.381" id="Fill-64" fill="#D6000D"></path>
                            <path d="M185.447,55.085 L173.281,55.085 C172.886,55.085 172.591,54.789 172.591,54.293 L172.591,34.314 C172.591,33.919 172.887,33.523 173.281,33.523 L185.447,33.523 C185.843,33.523 186.139,33.819 186.139,34.314 L186.139,36.788 C186.139,37.183 185.843,37.579 185.447,37.579 L176.745,37.579 L176.745,42.227 L183.965,42.227 C184.36,42.227 184.656,42.623 184.656,43.019 L184.656,45.491 C184.656,45.887 184.359,46.283 183.965,46.283 L176.745,46.283 L176.745,51.229 L185.447,51.229 C185.843,51.229 186.139,51.525 186.139,52.019 L186.139,54.492 C186.139,54.789 185.843,55.085 185.447,55.085" id="Fill-66" fill="#D6000D"></path>
                            <path d="M194.052,43.216 L198.798,43.216 C200.283,43.216 201.569,41.832 201.569,40.249 C201.569,38.766 200.284,37.479 198.798,37.479 L194.052,37.479 L194.052,43.216 Z M204.734,55.085 L201.569,55.085 C201.173,55.085 200.976,54.789 200.976,54.689 L197.019,46.778 L193.953,46.778 L193.953,54.294 C193.953,54.69 193.557,55.086 193.262,55.086 L190.491,55.086 C190.096,55.086 189.8,54.79 189.8,54.294 L189.8,34.315 C189.8,33.92 190.097,33.524 190.491,33.524 L199.096,33.524 C202.756,33.524 205.822,36.491 205.822,40.249 C205.822,42.919 204.139,45.293 201.469,46.48 L205.525,53.998 C205.625,54.293 205.625,54.59 205.525,54.789 C205.228,54.987 205.03,55.085 204.734,55.085 L204.734,55.085 Z" id="Fill-68" fill="#D6000D"></path>
                            <path d="M215.218,55.381 C211.26,55.381 209.283,53.602 208.491,53.009 C208.096,52.71 207.997,52.414 208.294,51.92 L209.381,50.04 C209.48,49.843 209.678,49.645 209.976,49.645 C210.173,49.645 210.469,49.645 210.667,49.843 C211.954,50.832 213.239,51.723 215.118,51.723 C216.502,51.723 217.69,50.733 217.69,49.546 C217.69,48.161 216.6,47.172 214.03,46.085 C211.557,45.096 208.294,43.315 208.294,39.359 C208.294,36.49 210.469,33.325 215.218,33.325 C218.382,33.325 220.856,35.007 221.349,35.402 C221.546,35.501 221.646,35.699 221.646,35.897 C221.746,36.193 221.646,36.392 221.546,36.589 L220.459,38.271 C220.36,38.469 220.162,38.667 219.865,38.765 C219.569,38.864 219.371,38.864 219.174,38.666 L218.976,38.567 C217.788,37.775 216.601,37.083 215.119,37.083 C213.438,37.083 212.646,38.073 212.646,39.062 C212.646,40.348 213.635,41.336 216.108,42.326 C219.271,43.612 222.438,45.491 222.438,49.348 C222.338,52.217 219.865,55.381 215.218,55.381" id="Fill-70" fill="#D6000D"></path>
                            <path d="M229.459,55.085 L226.689,55.085 C226.293,55.085 225.997,54.689 225.997,54.293 L225.997,34.314 C225.997,33.919 226.294,33.523 226.689,33.523 L229.459,33.523 C229.855,33.523 230.151,33.919 230.151,34.314 L230.151,54.393 C230.152,54.789 229.855,55.085 229.459,55.085" id="Fill-72" fill="#D6000D"></path>
                            <path d="M241.13,55.085 L238.36,55.085 C237.964,55.085 237.668,54.689 237.668,54.293 L237.668,37.48 L233.218,37.48 C232.822,37.48 232.525,37.184 232.525,36.689 L232.525,34.217 C232.525,33.821 232.823,33.425 233.218,33.425 L246.273,33.425 C246.669,33.425 246.966,33.722 246.966,34.217 L246.966,36.689 C246.966,37.085 246.668,37.48 246.273,37.48 L241.823,37.48 L241.823,54.293 C241.922,54.789 241.526,55.085 241.13,55.085" id="Fill-74" fill="#D6000D"></path>
                            <path d="M259.131,55.085 L256.36,55.085 C255.965,55.085 255.67,54.789 255.67,54.293 L255.67,44.7 L248.846,34.612 C248.647,34.315 248.647,34.117 248.846,33.82 C248.945,33.622 249.24,33.424 249.537,33.424 L252.602,33.424 C252.8,33.424 253.097,33.523 253.197,33.721 L257.844,40.446 L262.493,33.721 C262.691,33.523 262.888,33.424 263.086,33.424 L266.153,33.424 C266.448,33.424 266.645,33.523 266.844,33.82 C266.944,34.018 266.944,34.314 266.844,34.612 L259.921,44.7 L259.921,54.293 C259.923,54.789 259.527,55.085 259.131,55.085" id="Fill-76" fill="#D6000D"></path>
                            <path d="M108.696,55.381 C103.85,55.381 100.191,51.82 100.191,47.173 L100.191,34.315 C100.191,33.92 100.487,33.623 100.883,33.623 L103.752,33.623 C104.147,33.623 104.444,33.92 104.444,34.315 L104.444,46.976 C104.444,49.547 106.125,51.229 108.696,51.229 C111.17,51.229 112.95,49.448 112.95,46.976 L112.95,34.315 C112.95,33.92 113.245,33.623 113.641,33.623 L116.508,33.623 C116.904,33.623 117.201,33.92 117.201,34.315 L117.201,47.173 C117.202,51.82 113.543,55.381 108.696,55.381" id="Fill-78" fill="#D6000D"></path>
                            <path d="M103.06,77.834 L103.06,71.7 L107.511,71.7 C109.191,71.7 110.477,72.986 110.477,74.668 C110.477,76.448 109.488,77.734 107.511,77.734 L103.06,77.734 L103.06,77.834 Z M103.157,69.229 L103.157,63.196 L106.817,63.196 C108.597,63.196 109.883,64.284 109.883,66.163 C109.883,67.943 108.695,69.229 106.817,69.229 L103.157,69.229 L103.157,69.229 Z M110.279,70.315 C111.862,69.524 113.05,67.942 113.05,65.766 C113.05,62.799 110.576,60.524 107.214,60.524 L100.884,60.524 C100.587,60.524 100.389,60.821 100.389,61.019 L100.389,79.91 C100.389,80.208 100.587,80.404 100.884,80.404 L107.511,80.404 C111.071,80.404 113.642,78.13 113.642,74.866 C113.543,72.492 111.96,71.009 110.279,70.315 L110.279,70.315 Z" id="Fill-80" fill="#D6000D"></path>
                            <path d="M115.818,80.01 C115.818,80.306 116.016,80.504 116.313,80.504 L127.588,80.504 C127.885,80.504 128.083,80.208 128.083,80.01 L128.083,78.427 C128.083,78.13 127.885,77.931 127.588,77.931 L118.687,77.931 L118.687,71.701 L126.205,71.701 C126.5,71.701 126.699,71.505 126.699,71.208 L126.699,69.625 C126.699,69.328 126.402,69.13 126.205,69.13 L118.687,69.13 L118.687,63.295 L127.588,63.295 C127.885,63.295 128.083,62.999 128.083,62.801 L128.083,61.218 C128.083,60.921 127.885,60.724 127.588,60.724 L116.313,60.724 C116.016,60.724 115.818,61.021 115.818,61.218 L115.818,80.01 Z" id="Fill-82" fill="#D6000D"></path>
                            <path d="M131.247,80.01 C131.247,80.306 131.445,80.504 131.742,80.504 L141.829,80.504 C142.126,80.504 142.324,80.208 142.324,80.01 L142.324,78.427 C142.324,78.13 142.126,77.931 141.829,77.931 L134.213,77.931 L134.213,61.118 C134.213,60.821 133.917,60.624 133.719,60.624 L131.841,60.624 C131.544,60.624 131.346,60.92 131.346,61.118 L131.346,80.01 L131.247,80.01 Z" id="Fill-84" fill="#D6000D"></path>
                            <path d="M144.5,80.01 C144.5,80.306 144.697,80.504 144.995,80.504 L146.874,80.504 C147.17,80.504 147.368,80.208 147.368,80.01 L147.368,72.492 L154.885,72.492 C155.183,72.492 155.38,72.194 155.38,71.998 L155.38,70.415 C155.38,70.118 155.082,69.921 154.885,69.921 L147.368,69.921 L147.368,63.294 L156.269,63.294 C156.565,63.294 156.763,62.998 156.763,62.8 L156.763,61.217 C156.763,60.92 156.565,60.723 156.269,60.723 L144.995,60.723 C144.697,60.723 144.5,61.02 144.5,61.217 L144.5,80.01 L144.5,80.01 Z" id="Fill-86" fill="#D6000D"></path>
                            <path d="M161.612,73.68 L165.073,65.867 L165.172,65.867 L168.634,73.68 L161.612,73.68 Z M156.369,80.504 L158.148,80.504 C158.445,80.504 158.743,80.306 158.841,80.108 L160.523,76.151 L169.721,76.151 L171.499,80.108 C171.601,80.404 171.797,80.504 172.192,80.504 L173.972,80.504 C174.368,80.504 174.664,80.108 174.467,79.712 L165.862,60.524 C165.763,60.326 165.565,60.228 165.367,60.228 L165.071,60.228 C164.972,60.228 164.675,60.326 164.576,60.524 L155.873,79.712 C155.676,80.108 155.874,80.504 156.369,80.504 L156.369,80.504 Z" id="Fill-88" fill="#D6000D"></path>
                            <path d="M176.446,78.525 C176.941,78.92 179.117,80.799 182.48,80.799 C186.139,80.799 188.809,78.327 188.809,75.36 C188.809,71.898 186.039,70.315 182.776,68.931 C180.404,67.942 179.216,66.952 179.216,65.37 C179.216,64.282 180.007,62.799 182.38,62.799 C184.062,62.799 185.05,63.491 186.237,64.183 C186.633,64.481 187.028,64.283 187.227,63.887 L187.917,62.799 C188.216,62.403 188.017,62.008 187.72,61.81 C187.424,61.613 185.347,60.129 182.479,60.129 C178.028,60.129 176.249,63.194 176.249,65.37 C176.249,68.634 178.524,70.217 181.392,71.403 C184.161,72.59 185.645,73.678 185.645,75.359 C185.645,76.843 184.359,78.03 182.48,78.03 C180.304,78.03 179.314,77.139 177.93,76.051 C177.633,75.755 177.238,75.953 176.941,76.248 L176.25,77.436 C175.95,78.13 176.249,78.328 176.446,78.525" id="Fill-90" fill="#D6000D"></path>
                            <path d="M195.041,80.01 C195.041,80.306 195.338,80.504 195.534,80.504 L197.413,80.504 C197.712,80.504 197.908,80.208 197.908,80.01 L197.908,63.196 L202.556,63.196 C202.854,63.196 203.05,62.899 203.05,62.701 L203.05,61.119 C203.05,60.822 202.854,60.625 202.556,60.625 L190.39,60.625 C190.095,60.625 189.897,60.921 189.897,61.119 L189.897,62.701 C189.897,62.999 190.095,63.196 190.39,63.196 L195.04,63.196 L195.04,80.01 L195.041,80.01 Z" id="Fill-92" fill="#D6000D"></path>
                            <path d="M122.444,15.029 C122.444,8.798 117.499,3.852 111.367,3.852 C105.235,3.852 100.289,8.896 100.289,15.029 C100.289,21.161 105.234,26.205 111.367,26.205 C112.356,26.205 113.246,26.105 114.136,25.809 L115.324,27.59 C115.423,27.886 115.818,28.184 116.116,28.184 L120.17,28.184 C120.467,28.184 120.566,27.986 120.467,27.59 L117.994,24.029 C120.664,22.051 122.444,18.787 122.444,15.029 M117.895,15.029 C117.895,17.204 116.906,19.084 115.324,20.369 L114.73,19.578 C114.632,19.282 114.236,18.985 113.94,18.985 L109.884,18.985 C109.587,18.985 109.488,19.183 109.587,19.578 L111.071,21.754 C107.511,21.655 104.741,18.688 104.741,15.128 C104.741,11.469 107.707,8.502 111.269,8.502 C115.027,8.402 117.895,11.369 117.895,15.029" id="Fill-94" fill="#D6000D"></path>
                        </g>
                    </g>
                </g>
            </g>
        </g>
    </g>
</svg>