<?xml version="1.0" encoding="UTF-8" standalone="no"?>
<!-- Created with Inkscape (http://www.inkscape.org/) -->

<svg
   xmlns:dc="http://purl.org/dc/elements/1.1/"
   xmlns:cc="http://creativecommons.org/ns#"
   xmlns:rdf="http://www.w3.org/1999/02/22-rdf-syntax-ns#"
   xmlns:svg="http://www.w3.org/2000/svg"
   xmlns="http://www.w3.org/2000/svg"
   version="1.1"
   width="1044.3644"
   height="481.60519"
   id="svg2">
  <defs
     id="defs4" />
  <metadata
     id="metadata7">
    <rdf:RDF>
      <cc:Work
         rdf:about="">
        <dc:format>image/svg+xml</dc:format>
        <dc:type
           rdf:resource="http://purl.org/dc/dcmitype/StillImage" />
        <dc:title></dc:title>
      </cc:Work>
    </rdf:RDF>
  </metadata>
  <g
     transform="translate(146.39782,-476.27972)"
     id="layer1">
    <path
       d="m 649.96657,622.28915 0,71.5 0,71.5 11,0 11,0 0,-71.5 0,-71.5 -11,0 -11,0 z m -260,38.875 0,75.0625 0,75.0625 11,0 11,0 0,-23 0,-23 22.96875,0 c 13.18438,0 25.20579,-0.4791 28.25,-1.125 15.50897,-3.2907 26.70578,-14.7713 29.8125,-30.5625 0.77436,-3.936 1.05675,-12.67485 0.8125,-24.46875 -0.37576,-18.1443 -0.4097,-18.40365 -3.53125,-25.03125 -4.01422,-8.5228 -10.54941,-15.0773 -19.09375,-19.125 l -6.71875,-3.1875 -37.25,-0.3125 -37.25,-0.3125 z m 197.0625,0.125 c -21.32892,0 -35.92087,0.4187 -39.25,1.125 -15.23649,3.2329 -26.8595,15.2291 -29.78125,30.75 -0.5577,2.9626 -1.03125,12.0251 -1.03125,20.125 0,8.0998 0.47355,17.1624 1.03125,20.125 2.80305,14.8903 13.40203,26.35835 28,30.28125 4.29832,1.155 12.94096,1.47925 40.21875,1.53125 l 34.75,0.0625 0,-52 0,-52 -33.9375,0 z m 236,0 c -7.55833,0.0798 -15.01822,0.61775 -18.59375,1.53125 -3.3048,0.8443 -8.54245,3.27805 -11.75,5.46875 l -5.78125,3.9375 -4.71875,-3.3125 c -8.9576,-6.3355 -12.58707,-7.125 -33.21875,-7.125 l -18.5,0 -6.6875,3.1875 c -11.424,5.412 -19.12092,15.0286 -21.6875,27.125 -0.70637,3.3291 -1.125,17.9211 -1.125,39.25 l 0,33.9375 11,0 11,0 0.0312,-32.25 c 0.0246,-33.1965 0.45634,-38.2682 3.75,-42.6875 3.67138,-4.926 7.85027,-6.48105 18.4375,-6.90625 14.55985,-0.5848 20.18842,0.37055 24.5,4.15625 6.21846,5.4599 6.28125,5.99935 6.28125,43.65625 l 0,34.03125 11,0 11,0 0,-34.03125 c 0,-37.6676 0.0796,-38.18365 6.3125,-43.65625 4.41365,-3.8752 8.83147,-4.65885 23.4375,-4.15625 12.14716,0.418 16.05214,1.92305 20,7.78125 2.2323,3.3125 2.25,3.69745 2.25,38.71875 l 0,35.34375 11.5,0 11.5,0 0,-33.9375 c 0,-21.3289 -0.41863,-35.9209 -1.125,-39.25 -3.21098,-15.1334 -14.52284,-26.4765 -29.65625,-29.6875 -3.93184,-0.83425 -11.59792,-1.20479 -19.15625,-1.125 z M 441.87282,683.4454 c 16.86749,-0.0161 20.45093,1.01342 24.6875,5.25 4.67361,4.6736 5.63924,9.59105 5.25,27.03125 -0.28764,12.8886 -0.63352,15.56525 -2.34375,18.46875 -2.57301,4.3683 -6.14546,6.9846 -11.0625,8.125 -6.36515,1.4762 -45.38455,1.24115 -45.96875,-0.28125 -0.26652,-0.6945 -0.36503,-14.082 -0.21875,-29.75 l 0.25,-28.5 21.3125,-0.28125 c 2.99193,-0.0379 5.68411,-0.0602 8.09375,-0.0625 z m 133.09375,0.34375 23.5,0 0,29.5 0,29.5 -21.5,0.15625 c -11.825,0.0865 -22.94503,-0.1983 -24.71875,-0.625 -4.50171,-1.0829 -8.02866,-3.59815 -10.3125,-7.34375 -1.74659,-2.8645 -1.96575,-5.10695 -1.96875,-21.78125 -0.004,-17.6467 0.11234,-18.79665 2.25,-21.96875 1.23937,-1.8391 3.82687,-4.2452 5.75,-5.375 3.25923,-1.9146 5.09534,-2.0625 27,-2.0625 z"
       id="path3018"
       style="fill:#7e8083" />
    <path
       d="m 87.983312,932.68687 c 0.008,-0.2211 9.867492,-27.4021 21.910518,-60.4021 l 21.89641,-60 33.33947,-0.5 33.33948,-0.5 5.71444,-2.8062 c 11.39535,-5.5958 10.41948,-3.5487 38.75343,-81.2925 20.6136,-56.5606 25.5427,-71.0556 25.8606,-76.0492 0.7675,-12.0523 -4.6152,-21.0136 -15.7619,-26.2414 l -5.5666,-2.6107 -46.4091,0 -46.40913,0 -55.353816,151.9296 c -30.444602,83.5613 -55.501772,152.0776 -55.682592,152.2584 -0.18082,0.1808 -4.89579,-1.028 -10.47771,-2.6863 -81.11404,-24.0971 -140.619092,-92.8795 -152.787062,-176.6078 -2.33009,-16.0334 -2.33009,-44.7544 0,-60.7878 11.39564,-78.4139 64.644732,-144.35293 138.918981,-172.02499 12.177481,-4.53692 16.248941,-5.45379 15.496541,-3.48973 -5.64659,14.73989 -108.79607,298.93142 -108.79607,299.74872 0,0.846 6.15699,1.1587 22.75,1.1554 l 22.75,-0.01 25.9568093,-71.2455 c 14.2762497,-39.185 27.4909007,-75.408 29.3658807,-80.4955 l 3.40906,-9.25 16.99112,0 c 15.77838,0 16.94182,0.1249 16.30062,1.75 -2.82454,7.1591 -57.5234915,157.8341 -57.5234915,158.4561 0,0.4369 10.2914005,0.7944 22.8697915,0.7944 l 22.86978,0 28.30665,-77.75 c 26.797458,-73.6047 28.308798,-78.1232 28.347068,-84.75 0.0495,-8.571 -2.66319,-14.8633 -8.597786,-19.9431 -7.103492,-6.0803 -10.636372,-6.7968 -36.045502,-7.3107 -12.5125,-0.2531 -22.72148,-0.7495 -22.68662,-1.1032 0.0349,-0.3536 9.8388,-27.418 21.78654,-60.143 l 21.72317,-59.50005 14.670662,0.18421 c 93.677406,1.17628 177.140706,65.75364 202.719706,156.84864 5.7972,20.6456 7.4536,33.6388 7.4536,58.4672 0,24.8284 -1.6564,37.8215 -7.4536,58.4672 -22.8626,81.4209 -92.31521,142.5486 -176.0012,154.9048 -10.15636,1.4996 -37.977068,3.3545 -37.948148,2.5301 z m 55.010878,-150.6521 c 0.0138,-0.4125 10.70993,-30 23.76929,-65.75 l 23.74429,-65 16.73071,-0.2742 c 9.20189,-0.1508 16.73975,0.074 16.75079,0.5 0.0111,0.4258 -10.67645,30.1364 -23.75,66.0236 l -23.77008,65.2493 -16.75,7e-4 c -9.2125,3e-4 -16.73875,-0.3369 -16.725,-0.7494 z"
       id="path3014"
       style="fill:#1d5290" />
  </g>
</svg>
