<svg xmlns="http://www.w3.org/2000/svg" height="221.7" viewBox="0 0 250 221.70291" width="250"><g transform="matrix(1.25 0 0 -1.25 -901.33 960.73)"><path d="m96.99 0.79883l13.28 80.898-72.362 37.533 78.352 11.5 4.7 30.28h16l-0.02-46.77-36.59-5.5 31.39-16.283-5.79-35.244 25.22 25.189 31.65-17.209-16.21 32.493 25.04 25.324-33.81-4.49 90.96 34.63-58.58-59.24 37.59-75.293-73.17 39.764-57.65-57.582zm-44.949 163.66l-2.951 20.99h11.465l1.045-7.79-6.858-1.51 7.311 0.02h5.142l-4.576 32.54h-4.359l-1.658 11.79h24.63l1.659-11.79h-4.362l4.311-31.05-6.844-1.51 7.309 0.02h5.131l-1.307 9.28h11.467l2.954-20.99h-49.509zm59.579 0l-14.7 44.25h-4.279l-1.659 11.79h18.658l3.2-12.12-6.82-1.5 7.22 0.01 0.01-0.03h9.45l-0.14 13.64h18.98l1.66-11.79h-3.96l-2.18-44.25h-25.44zm41.1 0l-1.64 11.7h4.52l-4.57 32.55h-4.53l-1.66 11.79h20.36l3.22-22.93h9.05l-2.52 17.93c-0.48 3.39 1.31 5 5.43 5h13.24l1.66-11.79h-4.44l1.18-8.4c0.68-4.84-1.53-6.94-7.01-8.16 5.59-0.72 8.6-3.14 9.25-7.75l1.21-8.64c0.99-7.03-2.69-11.3-9.23-11.3h-33.52zm-134.11 0c-6.538 0-11.34 4.27-12.328 11.3l-1.4528 10.34c-0.9881 7.03 2.6111 11.31 9.1528 11.31h13.568l-1.586 11.3h-8.725l0.782-5.57h-14.776l-2.4412 17.36h28.021c6.542 0 11.354-4.36 12.332-11.3l1.623-11.55c0.975-6.95-2.61-11.31-9.154-11.31h-13.242l1.164-8.67-6.873-1.52 7.308 0.02h8.551l-0.693 4.92h13.408l2.336-16.63h-26.975zm196.94 0c-6.54 0-11.34 4.27-12.33 11.3l-1.45 10.34c-0.99 7.03 2.61 11.31 9.15 11.31h13.57l-1.59 11.3h-8.72l0.78-5.57h-14.78l-2.44 17.36h28.02c6.55 0 11.36-4.36 12.33-11.3l1.63-11.55c0.97-6.95-2.61-11.31-9.16-11.31h-13.24l1.16-8.66-6.91-1.53 7.31 0.02h8.59l-0.69 4.92h13.41l2.33-16.63h-26.97zm-92.83 9.52l0.46 22.62h-7.35l6.89-22.62zm41.49 2.17l7.3 0.01h8.32l-1.53 10.91h-8.4l1.26-9.38-6.95-1.54z" transform="matrix(.8 0 0 -.8 721.06 768.59)" fill="#004b87"/></g></svg>
