<?xml version="1.0" encoding="UTF-8" standalone="no"?>
<svg xmlns:rdf="http://www.w3.org/1999/02/22-rdf-syntax-ns#" xmlns="http://www.w3.org/2000/svg" xml:space="preserve" height="102.88" viewBox="0 0 152.00003 102.88211" width="152" version="1.1" xmlns:cc="http://creativecommons.org/ns#" xmlns:xlink="http://www.w3.org/1999/xlink" xmlns:dc="http://purl.org/dc/elements/1.1/"><g transform="matrix(1.25 0 0 -1.25 -307.49 977.64)"><g transform="matrix(4.1561 0 0 4.1561 -964.97 -2335.2)"><path d="m0 0v3.3047h1.9727v9.707l4.332 2.1738 3.748 0.01172-0.0098 5.6211h-2.0039v3.4551h11.896v-3.4551h-1.9727v-1.3027l4.0742-1.7715 3.1758 3.1211-1.1172-0.04687v3.4551h11.99v-3.4551h-2.25l-5.6641-5.7305 5.9004-2.5664 2.0137 0.02344 0.0059-3.5527h-10.332v-5.7188h2.1914v-3.2734h-12.053v3.3047h2.1582v5.7285h-8.0117v-5.7285h1.9395l0.002-3.3048h-11.984zm0.61719 0.64648h10.721v2.0117h-1.9531v6.9922h9.2871v-6.9297h-2.125v-2.0742h10.756v2.0117h-2.0957v6.9785h10.273l-0.0039 2.2617h-1.6797l-6.8711 3.002 6.4629 6.5332h2.0801l0.002 2.1309h-10.789l0.0078-2.1309 1.9648 0.002-4.4688-4.4785-4.8691 2.127v2.3496h1.9727v2.1309h-10.602v-2.0996h1.9727v-6.8516h-4.0293l-4.0117-2.0312v-9.8613h-2.0098l0.007813-2.0742zm1.0312 0.37109v1.3281l2.0762 0.00391v10.178l3.2305 1.625h3.7344v-2.25h-2.4336v-9.5469h2.0996v-1.3379h-8.707zm15.914 0.021484v1.3105h2.2188v9.5859h-2.4961v2.2168l3.2676-0.02344 3.5742-1.5547v-10.225h2.0664l-0.0098-1.3105h-8.6211zm-7.8281 8.9844-0.00195 1.418h2.0059v10.379h-2.0039v1.3848h8.5078v-1.3809h-1.9727v-2.7227l6.3164-2.7598 5.332 5.5078h-2.127v1.3418h8.5996v-1.3418h-1.6035l-6.8613-6.9492 7.7363-3.4551h0.73633v-1.416h-8.916v1.4121h2.1895l-11.402 5.1777v-5.1758h2.002v-1.4199h-8.5371z" transform="matrix(.8 0 0 -.8 291.56 749.87)" fill="#005daa"/><path d="m8.7075 22.508v-1.0151h0.99302 0.99302v-3.4425-3.4425h-2.0196l-2.0192-0.001-1.986-1.01-1.986-1.009-0.0221-4.937-0.0221-4.9368-1.004-0.0118-1.0041-0.0119v-1.0143-1.0143h5.3402 5.3402v0.99302 0.99302h-0.97095-0.97095v3.5087 3.5087h4.6561 4.6561v-3.4866-3.4866h-1.0592-1.0592v-1.0151-1.0151h5.3623 5.3623v0.99302 0.99302h-1.0592-1.0592v3.5087 3.5087h5.1416 5.1416v1.1034 1.1034l-0.82751 0.0014-0.82751 0.0014-3.4204 1.4959c-1.8812 0.82274-3.4204 1.5163-3.4204 1.5412 0 0.02492 1.4399 1.504 3.1997 3.287l3.1997 3.2416 1.0482 0.0043 1.0482 0.0043v1.0372 1.0372h-5.3844-5.3844l0.000176-0.40824c0.000089-0.22453 0.01311-0.69125 0.02893-1.0372l0.02877-0.62891h0.97506 0.97506l-2.2551-2.2551-2.2551-2.2551-2.423 1.058-2.4231 1.058-0.01174 1.1971-0.01174 1.1971h0.97166 0.97166v1.0372 1.0372h-5.274-5.274v-1.0151zm9.533 0v-0.70615h-0.97159-0.97159l0.01167-1.351 0.01167-1.351 3.1293-1.3671 3.1293-1.3671 0.2768 0.27967c0.15224 0.15382 1.3418 1.3819 2.6434 2.7291l2.3666 2.4494-1.0393 0.01183-1.0393 0.01183v0.68328 0.68328h4.3031 4.3031v-0.68408-0.68408h-0.79012-0.79012l-3.4257-3.4704-3.4257-3.4704 3.8379-1.7136 3.8379-1.7136 0.38897-0.01279 0.38897-0.01279 0.01213-0.71718 0.01213-0.71718h-4.4807-4.4807v0.7274 0.7274l1.012 0.01185 1.012 0.01185-1.5968 0.72527c-0.87822 0.3989-3.3991 1.5435-5.6019 2.5436l-4.0052 1.8184v-2.5547-2.5547h0.99302 0.99302v-0.72821-0.72821h-4.281-4.281v0.72821 0.72821h0.99302 0.99302v5.1637 5.1637h-0.99302-0.99302v0.70615 0.70614h4.2589 4.2589v-0.70614zm-7.5469-9.4888v-1.1475h-1.2137-1.2137v-4.7444-4.7444h1.0592 1.0592v-0.68408-0.68408h-4.3693-4.3693v0.68408 0.68408h1.0372 1.0372v5.0867 5.0867l1.5999 0.80268 1.5999 0.80268 1.8867 0.0025 1.8867 0.0025v-1.1475zm11.63 0.36073 1.8086-0.78676 0.01122-5.1043 0.01122-5.1043 1.0259-0.011846 1.0259-0.011847 0.01499-0.17654c0.0082-0.097095 0.0013-0.39997-0.01539-0.67304l-0.03038-0.49651h-4.3208-4.3208v0.68408 0.68408h1.1034 1.1034v4.7665 4.7665h-1.2358-1.2358v1.1254 1.1254h1.6228 1.6228l1.8086-0.78675z" transform="matrix(.8 0 0 -.8 291.56 749.87)" stroke="#fff" stroke-miterlimit="6" stroke-width=".1" fill="#fff"/></g></g></svg>
