<?xml version="1.0" encoding="UTF-8" standalone="no"?>
<!-- Created with Inkscape (http://www.inkscape.org/) -->

<svg
   xmlns:svg="http://www.w3.org/2000/svg"
   xmlns="http://www.w3.org/2000/svg"
   version="1.1"
   width="294"
   height="35"
   id="svg3627">
  <defs
     id="defs3629" />
  <g
     transform="translate(-350.72687,-445.66637)"
     id="layer1">
    <path
       d="m 351.31088,480.04198 52.49869,0 0,-33.75123 -52.49869,0 0,33.75123 z"
       id="path58"
       style="fill:#cb132a;fill-opacity:1;fill-rule:nonzero;stroke:none" />
    <path
       d="m 373.6177,460.36732 3.48818,0 c 0,0 0.0293,-2.35559 -0.0293,-3.28317 -0.0293,-0.92759 -0.58625,-3.40116 -4.63137,-3.37675 -3.9865,0.0244 -4.83657,3.20995 -4.83657,4.51182 0,1.30595 -0.0586,8.52326 0,10.27671 0.0586,1.75754 1.26044,4.15382 4.77794,4.16603 3.69338,0.009 4.69,-1.99758 4.71931,-3.4866 0.0293,-1.70465 0,-3.17334 0,-3.17334 l -3.48818,0 c 0,0 -0.0293,1.68024 -0.0293,2.5468 0,0.62654 -0.32243,1.48903 -1.20181,1.4036 -1.05525,-0.10175 -1.05525,-0.8625 -1.08457,-2.03012 0,-1.28154 0,-8.47443 0,-9.57695 0,-1.10254 0.35175,-1.94877 1.20182,-1.92842 0.76212,0.0163 1.11387,0.6428 1.11387,1.92842 0,1.17982 0,2.02197 0,2.02197"
       id="path60"
       style="fill:#ffffff;fill-opacity:1;fill-rule:nonzero;stroke:none" />
    <path
       d="m 387.95151,460.14356 c 0,0 -0.0293,-1.34663 -0.0293,-2.94956 0,-1.60702 -0.58625,-3.47847 -4.221,-3.46219 -3.63475,0.0204 -4.51413,2.03011 -4.63138,3.86089 -0.14656,1.64362 0,2.75021 0.17589,3.16112 0.11725,0.33768 0.35174,0.87063 1.46562,1.904 1.08456,0.98861 2.72606,2.30676 3.40025,3.08383 0.55694,0.68756 0.49831,1.87958 0.49831,2.25387 0,0.37836 0,1.3385 -0.2345,1.65584 -0.20518,0.26851 -0.52762,0.35395 -0.96731,0.32546 -0.55694,-0.0406 -1.02594,-0.13425 -1.02594,-1.37917 0,-1.22865 0,-2.52647 0,-2.52647 l -3.48818,-0.009 c 0,0 0,2.6241 0,3.29945 0.0293,0.56552 0.38106,1.82264 1.05525,2.37187 0.938,0.74451 1.84668,0.95607 3.34162,0.952 1.81738,-0.0125 2.98988,-0.38649 3.78131,-1.24492 0.64488,-0.69162 1.05525,-1.71278 1.05525,-3.86902 0,-2.25389 -0.469,-3.18148 -1.96393,-4.66644 -1.55357,-1.5175 -3.10713,-2.53459 -3.42957,-3.38081 -0.29312,-0.65501 -0.20518,-1.79415 -0.17587,-2.27015 0.0586,-0.42311 0.2345,-0.82589 0.90869,-0.81368 0.52762,0.009 0.85005,0.13833 0.99662,0.67128 0.17588,0.52482 0.11725,3.03094 0.11725,3.03094"
       id="path62"
       style="fill:#ffffff;fill-opacity:1;fill-rule:nonzero;stroke:none" />
    <path
       d="m 399.82307,453.92708 0,18.51112 -3.31231,0.004 0,-2.26609 c 0,0 -0.32244,2.69327 -3.752,2.46137 -3.40025,-0.2319 -2.87263,-4.16195 -2.87263,-5.49231 0,-0.80146 0,-13.21814 0,-13.21814 l 3.72269,0 0,14.39391 c 0,0 0,0.75671 0.20519,1.00896 0.26381,0.29699 0.49831,0.39462 0.938,0.39462 0.43969,0 0.79143,-0.16274 1.02594,-0.46379 0.20518,-0.30106 0.29312,-0.90725 0.29312,-1.21237 0,-0.30106 0,-14.12134 0,-14.12134"
       id="path64"
       style="fill:#ffffff;fill-opacity:1;fill-rule:nonzero;stroke:none" />
    <path
       d="m 419.87282,455.88397 0,2.40035 -3.37094,0 0,12.04239 -3.01919,0 0,-12.04239 -3.34162,0 0,-2.40035"
       id="path66"
       style="fill:#75787B;fill-opacity:1;fill-rule:nonzero;stroke:none" />
    <path
       d="m 425.64738,470.32671 0,-6.96099 c 0,-0.89911 -0.14656,-1.59886 -1.05525,-1.59886 -0.90869,0 -1.05525,0.69976 -1.05525,1.59886 l 0,6.96099 -2.814,0 0,-14.44274 2.814,0 0,5.36213 0.0292,0 c 0.55694,-0.89912 1.31906,-1.22052 2.37431,-1.22052 1.34838,0 2.52088,0.80147 2.52088,2.20099 l 0,8.10014"
       id="path68"
       style="fill:#75787B;fill-opacity:1;fill-rule:nonzero;stroke:none" />
    <path
       d="m 435.08601,464.14685 c 0,-0.98048 0.0586,-2.38 -1.28975,-2.38 -1.28975,0 -1.28975,1.5175 -1.28975,2.38 l 2.5795,0 z m -2.5795,1.57852 c 0,1.20018 0.0586,2.9984 1.28975,2.9984 0.99662,0 1.20182,-0.96014 1.20182,-1.79822 l 2.8433,0 c -0.0292,1.09846 -0.38106,1.99757 -1.05525,2.62003 -0.67419,0.61839 -1.67081,0.98048 -2.98987,0.98048 -3.63475,0 -4.13306,-2.22134 -4.13306,-5.38246 0,-2.75837 0.41037,-5.11802 4.13306,-5.11802 3.81062,0 4.221,2.46137 4.13306,5.69979"
       id="path70"
       style="fill:#75787B;fill-opacity:1;fill-rule:nonzero;stroke:none" />
    <path
       d="m 443.35213,463.10535 c 0,-3.82022 0,-7.4614 4.98313,-7.4614 3.07781,0 4.30893,1.70057 4.19168,4.80067 l -2.96055,0 c 0,-1.92027 -0.32244,-2.64037 -1.23112,-2.64037 -1.70013,0 -1.93463,1.60293 -1.93463,5.3011 0,3.69815 0.2345,5.30108 1.93463,5.30108 1.407,0 1.34837,-1.80228 1.37768,-2.94143 l 2.98988,0 c 0,3.86088 -1.55356,5.10173 -4.36756,5.10173 -4.98313,0 -4.98313,-3.68187 -4.98313,-7.46138"
       id="path72"
       style="fill:#75787B;fill-opacity:1;fill-rule:nonzero;stroke:none" />
    <path
       d="m 456.4255,467.18592 c 0,0.7201 0.11725,1.59888 1.05525,1.59888 1.6415,0 1.407,-2.23761 1.407,-3.34014 -1.407,0.061 -2.46225,-0.061 -2.46225,1.74126 z m 5.21763,1.2612 c 0,0.61839 0.0586,1.25713 0.11725,1.87959 l -2.60881,0 -0.11725,-1.34256 -0.0292,0 c -0.61557,1.0415 -1.43632,1.54191 -2.63813,1.54191 -1.96394,0 -2.69675,-1.46055 -2.69675,-3.22215 0,-3.34014 2.5795,-3.47846 5.21763,-3.43779 l 0,-0.78112 c 0,-0.85843 -0.14657,-1.48089 -1.14319,-1.48089 -0.99663,0 -1.05525,0.74045 -1.05525,1.54191 l -2.78469,0 c 0,-1.22051 0.38106,-2.00164 1.05525,-2.46136 0.64488,-0.48008 1.55356,-0.65908 2.63813,-0.65908 3.57612,0 4.04512,1.53784 4.04512,3.38082"
       id="path74"
       style="fill:#75787B;fill-opacity:1;fill-rule:nonzero;stroke:none" />
    <path
       d="m 463.40188,470.32671 2.81401,0 0,-14.43866 -2.81401,0 0,14.43866 z"
       id="path76"
       style="fill:#75787B;fill-opacity:1;fill-rule:nonzero;stroke:none" />
    <path
       d="m 470.99382,470.32671 -2.814,0 0,-10.10178 2.814,0 0,10.10178 z m 0,-14.44274 0,2.22134 -2.814,0 0,-2.22134"
       id="path78"
       style="fill:#75787B;fill-opacity:1;fill-rule:nonzero;stroke:none" />
    <path
       d="m 477.64775,457.62523 c -1.14318,-0.0814 -1.407,0.35803 -1.407,1.37919 l 0,1.22051 1.34838,0 0,1.74127 -1.34838,0 0,8.36051 -2.814,0 0,-8.36051 -1.26043,0 0,-1.74127 1.28975,0 c -0.0293,-2.90075 -0.26382,-4.4386 3.16575,-4.4386 0.35175,0 0.67418,0.0204 1.02594,0.0407"
       id="path80"
       style="fill:#75787B;fill-opacity:1;fill-rule:nonzero;stroke:none" />
    <path
       d="m 483.53957,464.98493 c 0,-2.09928 -0.11725,-3.16113 -1.31907,-3.16113 -1.1725,0 -1.28975,1.06185 -1.28975,3.16113 0,3.07975 0.26382,3.73884 1.28975,3.73884 1.05525,0 1.31907,-0.65909 1.31907,-3.73884 z m -5.42282,0.15867 c 0,-2.75837 0.41038,-5.11802 4.10375,-5.11802 3.72269,0 4.13307,2.35965 4.13307,5.11802 0,3.16112 -0.469,5.38246 -4.13307,5.38246 -3.63475,0 -4.10375,-2.22134 -4.10375,-5.38246"
       id="path82"
       style="fill:#75787B;fill-opacity:1;fill-rule:nonzero;stroke:none" />
    <path
       d="m 490.54525,460.22493 0,1.30188 0.0292,0 c 0.52763,-1.15949 1.46563,-1.50123 2.60882,-1.50123 l 0,2.51833 c -2.46225,-0.15868 -2.52088,1.28154 -2.52088,2.28235 l 0,5.50045 -2.814,0 0,-10.10178"
       id="path84"
       style="fill:#75787B;fill-opacity:1;fill-rule:nonzero;stroke:none" />
    <path
       d="m 496.90607,461.2461 0.0586,0 c 0.55694,-0.89911 1.31906,-1.22052 2.37431,-1.22052 1.34838,0 2.52088,0.80147 2.52088,2.20099 l 0,8.10014 -2.814,0 0,-6.96099 c 0,-0.89911 -0.17588,-1.59886 -1.08456,-1.59886 -0.87938,0 -1.05525,0.69976 -1.05525,1.59886 l 0,6.96099 -2.814,0 0,-10.10178 2.814,0"
       id="path86"
       style="fill:#75787B;fill-opacity:1;fill-rule:nonzero;stroke:none" />
    <path
       d="m 506.54988,470.32671 -2.814,0 0,-10.10178 2.814,0 0,10.10178 z m 0,-14.44274 0,2.22134 -2.814,0 0,-2.22134"
       id="path88"
       style="fill:#75787B;fill-opacity:1;fill-rule:nonzero;stroke:none" />
    <path
       d="m 510.91744,467.18592 c 0,0.7201 0.11725,1.59888 1.02594,1.59888 1.67081,0 1.407,-2.23761 1.407,-3.34014 -1.40699,0.061 -2.43293,-0.061 -2.43293,1.74126 z m 5.18832,1.2612 c 0,0.61839 0.0879,1.25713 0.14656,1.87959 l -2.60882,0 -0.11725,-1.34256 -0.0586,0 c -0.58624,1.0415 -1.407,1.54191 -2.63813,1.54191 -1.96393,0 -2.66743,-1.46055 -2.66743,-3.22215 0,-3.34014 2.5795,-3.47846 5.18831,-3.43779 l 0,-0.78112 c 0,-0.85843 -0.11725,-1.48089 -1.14319,-1.48089 -0.96731,0 -1.05525,0.74045 -1.05525,1.54191 l -2.75537,0 c 0,-1.22051 0.38106,-2.00164 1.02593,-2.46136 0.64488,-0.48008 1.58288,-0.65908 2.63813,-0.65908 3.60545,0 4.04512,1.53784 4.04512,3.38082"
       id="path90"
       style="fill:#75787B;fill-opacity:1;fill-rule:nonzero;stroke:none" />
    <path
       d="m 526.54101,470.56673 c -3.752,0 -4.45551,-2.20098 -4.27962,-4.70303 l 3.01918,0 c 0,1.38325 0.0586,2.54273 1.70012,2.54273 1.02594,0 1.52425,-0.65907 1.52425,-1.63955 0,-2.59969 -6.06768,-2.76243 -6.06768,-7.0627 0,-2.25795 1.08457,-4.06023 4.74863,-4.06023 2.96056,0 4.39687,1.32221 4.221,4.34096 l -2.96056,0 c 0,-1.07813 -0.17588,-2.18066 -1.37769,-2.18066 -0.99664,0 -1.58289,0.5411 -1.58289,1.54191 0,2.73802 6.097,2.49799 6.097,7.03829 0,3.73883 -2.75536,4.18228 -5.04174,4.18228"
       id="path92"
       style="fill:#75787B;fill-opacity:1;fill-rule:nonzero;stroke:none" />
    <path
       d="m 532.02245,460.22493 1.14319,0 0,-1.59887 2.84331,-1.2612 0,2.86008 1.43631,0 0,1.74126 -1.43631,0 0,5.39873 c 0,0.76079 -0.0292,1.26119 0.87937,1.26119 0.17587,0 0.35175,0 0.49831,-0.0406 l 0,1.74126 c -0.38106,0.0406 -0.76213,0.0976 -1.46563,0.0976 -2.43293,0 -2.75537,-1.61921 -2.75537,-2.2376 l 0,-6.22055 -1.14319,0"
       id="path94"
       style="fill:#75787B;fill-opacity:1;fill-rule:nonzero;stroke:none" />
    <path
       d="m 540.99207,467.18592 c 0,0.7201 0.11725,1.59888 1.05525,1.59888 1.6415,0 1.37769,-2.23761 1.37769,-3.34014 -1.37769,0.061 -2.43294,-0.061 -2.43294,1.74126 z m 5.18831,1.2612 c 0,0.61839 0.088,1.25713 0.14657,1.87959 l -2.60881,0 -0.11725,-1.34256 -0.0586,0 c -0.58624,1.0415 -1.40699,1.54191 -2.63811,1.54191 -1.96394,0 -2.66745,-1.46055 -2.66745,-3.22215 0,-3.34014 2.57951,-3.47846 5.18831,-3.43779 l 0,-0.78112 c 0,-0.85843 -0.11725,-1.48089 -1.14318,-1.48089 -0.96732,0 -1.05524,0.74045 -1.05524,1.54191 l -2.75539,0 c 0,-1.22051 0.38107,-2.00164 1.05526,-2.46136 0.61556,-0.48008 1.55355,-0.65908 2.63813,-0.65908 3.57612,0 4.01581,1.53784 4.01581,3.38082"
       id="path96"
       style="fill:#75787B;fill-opacity:1;fill-rule:nonzero;stroke:none" />
    <path
       d="m 546.97182,460.22493 1.14318,0 0,-1.59887 2.814,-1.2612 0,2.86008 1.46563,0 0,1.74126 -1.46563,0 0,5.39873 c 0,0.76079 0,1.26119 0.90869,1.26119 0.17588,0 0.35175,0 0.49831,-0.0406 l 0,1.74126 c -0.38106,0.0406 -0.79143,0.0976 -1.46562,0.0976 -2.43294,0 -2.75538,-1.61921 -2.75538,-2.2376 l 0,-6.22055 -1.14318,0"
       id="path98"
       style="fill:#75787B;fill-opacity:1;fill-rule:nonzero;stroke:none" />
    <path
       d="m 558.433,464.14685 c 0,-0.98048 0.0292,-2.38 -1.28975,-2.38 -1.31906,0 -1.28975,1.5175 -1.28975,2.38 l 2.5795,0 z m -2.5795,1.57852 c 0,1.20018 0.0292,2.9984 1.28975,2.9984 0.99663,0 1.20182,-0.96014 1.20182,-1.79822 l 2.84331,0 c -0.0292,1.09846 -0.38106,1.99757 -1.08456,2.62003 -0.64488,0.61839 -1.6415,0.98048 -2.96057,0.98048 -3.63475,0 -4.13306,-2.22134 -4.13306,-5.38246 0,-2.75837 0.41038,-5.11802 4.13306,-5.11802 3.78132,0 4.221,2.46137 4.10375,5.69979"
       id="path100"
       style="fill:#75787B;fill-opacity:1;fill-rule:nonzero;stroke:none" />
    <path
       d="m 577.16369,455.88397 0,10.2401 c 0,2.16031 -1.20181,4.44266 -4.89519,4.44266 -3.31231,0 -4.92449,-1.72091 -4.92449,-4.44266 l 0,-10.2401 3.01919,0 0,10.04075 c 0,1.78195 0.76212,2.48171 1.876,2.48171 1.31906,0 1.9053,-0.88283 1.9053,-2.48171 l 0,-10.04075"
       id="path102"
       style="fill:#75787B;fill-opacity:1;fill-rule:nonzero;stroke:none" />
    <path
       d="m 581.82438,461.2461 0.0294,0 c 0.55693,-0.89911 1.31907,-1.22052 2.37431,-1.22052 1.34838,0 2.52087,0.80147 2.52087,2.20099 l 0,8.10014 -2.814,0 0,-6.96099 c 0,-0.89911 -0.17587,-1.59886 -1.05525,-1.59886 -0.90868,0 -1.05525,0.69976 -1.05525,1.59886 l 0,6.96099 -2.84331,0 0,-10.10178 2.84331,0"
       id="path104"
       style="fill:#75787B;fill-opacity:1;fill-rule:nonzero;stroke:none" />
    <path
       d="m 591.55614,470.32671 -2.81401,0 0,-10.10178 2.81401,0 0,10.10178 z m 0,-14.44274 0,2.22134 -2.81401,0 0,-2.22134"
       id="path106"
       style="fill:#75787B;fill-opacity:1;fill-rule:nonzero;stroke:none" />
    <path
       d="m 592.58208,460.22493 2.87261,0 1.40701,7.57938 0.0586,0 1.46562,-7.57938 2.75538,0 -2.75538,10.10178 -3.10712,0"
       id="path108"
       style="fill:#75787B;fill-opacity:1;fill-rule:nonzero;stroke:none" />
    <path
       d="m 607.12108,464.14685 c 0,-0.98048 0.0292,-2.38 -1.31908,-2.38 -1.28975,0 -1.26043,1.5175 -1.26043,2.38 l 2.57951,0 z m -2.57951,1.57852 c 0,1.20018 0.0294,2.9984 1.26043,2.9984 0.99663,0 1.20182,-0.96014 1.20182,-1.79822 l 2.87262,0 c -0.0586,1.09846 -0.41036,1.99757 -1.08456,2.62003 -0.64487,0.61839 -1.6708,0.98048 -2.98988,0.98048 -3.63475,0 -4.10374,-2.22134 -4.10374,-5.38246 0,-2.75837 0.38106,-5.11802 4.10374,-5.11802 3.81063,0 4.221,2.46137 4.13307,5.69979"
       id="path110"
       style="fill:#75787B;fill-opacity:1;fill-rule:nonzero;stroke:none" />
    <path
       d="m 614.12675,460.22493 0,1.30188 0.0292,0 c 0.52763,-1.15949 1.46563,-1.50123 2.60882,-1.50123 l 0,2.51833 c -2.46225,-0.15868 -2.52088,1.28154 -2.52088,2.28235 l 0,5.50045 -2.814,0 0,-10.10178"
       id="path112"
       style="fill:#75787B;fill-opacity:1;fill-rule:nonzero;stroke:none" />
    <path
       d="m 619.872,467.08421 c -0.0292,0.45972 0,0.89911 0.14658,1.22051 0.14655,0.3214 0.43967,0.48008 1.02593,0.48008 0.55693,0 1.02594,-0.35803 1.02594,-1.03744 0,-2.14404 -4.95381,-1.66396 -4.95381,-4.88205 0,-2.18065 2.16912,-2.83973 3.9865,-2.83973 1.9053,0 3.66405,0.91945 3.48819,3.1001 l -2.75538,0 c 0,-0.69976 -0.088,-1.1188 -0.29313,-1.30188 -0.17588,-0.17899 -0.41038,-0.21969 -0.70349,-0.21969 -0.61558,0 -0.96732,0.40277 -0.96732,1.08219 0,1.59887 4.95382,1.5175 4.95382,4.76 0,1.75753 -1.43632,3.07977 -3.78132,3.07977 -2.46225,0 -4.10375,-0.62246 -3.92787,-3.44185"
       id="path114"
       style="fill:#75787B;fill-opacity:1;fill-rule:nonzero;stroke:none" />
    <path
       d="m 629.01751,470.32671 -2.81401,0 0,-10.10178 2.81401,0 0,10.10178 z m 0,-14.44274 0,2.22134 -2.81401,0 0,-2.22134"
       id="path116"
       style="fill:#75787B;fill-opacity:1;fill-rule:nonzero;stroke:none" />
    <path
       d="m 629.9555,460.22493 1.14319,0 0,-1.59887 2.814,-1.2612 0,2.86008 1.46563,0 0,1.74126 -1.46563,0 0,5.39873 c 0,0.76079 -0.0292,1.26119 0.90869,1.26119 0.17587,0 0.35175,0 0.49831,-0.0406 l 0,1.74126 c -0.38106,0.0406 -0.79144,0.0976 -1.46562,0.0976 -2.43294,0 -2.75538,-1.61921 -2.75538,-2.2376 l 0,-6.22055 -1.14319,0"
       id="path118"
       style="fill:#75787B;fill-opacity:1;fill-rule:nonzero;stroke:none" />
    <path
       d="m 638.33888,470.40401 -2.72606,-10.17908 2.814,0 1.43632,7.09932 0.0294,0 1.52426,-7.09932 2.72607,0 -3.89857,13.91792 -2.96056,0"
       id="path120"
       style="fill:#75787B;fill-opacity:1;fill-rule:nonzero;stroke:none" />
  </g>
</svg>