<?xml version="1.0" encoding="UTF-8" standalone="no"?>
<!-- Created with Inkscape (http://www.inkscape.org/) -->

<svg
   xmlns:dc="http://purl.org/dc/elements/1.1/"
   xmlns:cc="http://creativecommons.org/ns#"
   xmlns:rdf="http://www.w3.org/1999/02/22-rdf-syntax-ns#"
   xmlns:svg="http://www.w3.org/2000/svg"
   xmlns="http://www.w3.org/2000/svg"
   xmlns:sodipodi="http://sodipodi.sourceforge.net/DTD/sodipodi-0.dtd"
   xmlns:inkscape="http://www.inkscape.org/namespaces/inkscape"
   id="svg5148"
   version="1.1"
   inkscape:version="0.48.2 r9819"
   width="136.51346"
   height="81.982903"
   xml:space="preserve"
   sodipodi:docname="Invista logo.svg"><metadata
     id="metadata5154"><rdf:RDF><cc:Work
         rdf:about=""><dc:format>image/svg+xml</dc:format><dc:type
           rdf:resource="http://purl.org/dc/dcmitype/StillImage" /><dc:title></dc:title></cc:Work></rdf:RDF></metadata><defs
     id="defs5152"><clipPath
       clipPathUnits="userSpaceOnUse"
       id="clipPath5162"><path
         d="m 193.977,642.493 0,149.507 418.023,0 0,-149.507 -418.023,0 z"
         id="path5164"
         inkscape:connector-curvature="0" /></clipPath><clipPath
       clipPathUnits="userSpaceOnUse"
       id="clipPath5176"><path
         d="M 0,0 612,0 612,792 0,792 0,0 z"
         id="path5178"
         inkscape:connector-curvature="0" /></clipPath><clipPath
       clipPathUnits="userSpaceOnUse"
       id="clipPath5192"><path
         d="M 0,0 612,0 612,792 0,792 0,0 z"
         id="path5194"
         inkscape:connector-curvature="0" /></clipPath><clipPath
       clipPathUnits="userSpaceOnUse"
       id="clipPath5212"><path
         d="M 0,0 612,0 612,792 0,792 0,0 z"
         id="path5214"
         inkscape:connector-curvature="0" /></clipPath><clipPath
       clipPathUnits="userSpaceOnUse"
       id="clipPath5316"><path
         d="M 0,0 612,0 612,792 0,792 0,0 z"
         id="path5318"
         inkscape:connector-curvature="0" /></clipPath><clipPath
       clipPathUnits="userSpaceOnUse"
       id="clipPath5504"><path
         d="M 0,0 612,0 612,792 0,792 0,0 z"
         id="path5506"
         inkscape:connector-curvature="0" /></clipPath><clipPath
       clipPathUnits="userSpaceOnUse"
       id="clipPath5550"><path
         d="M 0,0 612,0 612,792 0,792 0,0 z"
         id="path5552"
         inkscape:connector-curvature="0" /></clipPath><clipPath
       clipPathUnits="userSpaceOnUse"
       id="clipPath5570"><path
         d="M 0,0 612,0 612,792 0,792 0,0 z"
         id="path5572"
         inkscape:connector-curvature="0" /></clipPath><clipPath
       clipPathUnits="userSpaceOnUse"
       id="clipPath5700"><path
         d="M 0,0 612,0 612,792 0,792 0,0 z"
         id="path5702"
         inkscape:connector-curvature="0" /></clipPath><clipPath
       clipPathUnits="userSpaceOnUse"
       id="clipPath5718"><path
         d="M 0,0 612,0 612,792 0,792 0,0 z"
         id="path5720"
         inkscape:connector-curvature="0" /></clipPath><clipPath
       clipPathUnits="userSpaceOnUse"
       id="clipPath5734"><path
         d="M 0,0 612,0 612,792 0,792 0,0 z"
         id="path5736"
         inkscape:connector-curvature="0" /></clipPath></defs><sodipodi:namedview
     pagecolor="#ffffff"
     bordercolor="#666666"
     borderopacity="1"
     objecttolerance="10"
     gridtolerance="10"
     guidetolerance="10"
     inkscape:pageopacity="0"
     inkscape:pageshadow="2"
     inkscape:window-width="1920"
     inkscape:window-height="1137"
     id="namedview5150"
     showgrid="false"
     inkscape:zoom="0.95353535"
     inkscape:cx="-41.30935"
     inkscape:cy="-15.358227"
     inkscape:window-x="-4"
     inkscape:window-y="-4"
     inkscape:window-maximized="1"
     inkscape:current-layer="g5156"
     fit-margin-top="0"
     fit-margin-left="0"
     fit-margin-right="0"
     fit-margin-bottom="0" /><g
     id="g5156"
     inkscape:groupmode="layer"
     inkscape:label="DiscoveryOctober2012"
     transform="matrix(1.25,0,0,-1.25,-608.49178,794.61994)"><g
       id="g6284"
       transform="matrix(4.1570843,0,0,4.1570843,-1881.6356,-2006.9457)"><g
         transform="translate(582.86922,635.69595)"
         id="g5508"><path
           inkscape:connector-curvature="0"
           id="path5510"
           style="fill:#0067a6;fill-opacity:1;fill-rule:nonzero;stroke:none"
           d="m 0,0 0,0 13.135,-13.25 -10.562,0 c -0.515,0 -0.842,-0.049 -1.149,-0.228 -0.355,-0.193 -0.521,-0.451 -0.718,-0.866 L 0,-15.777 c 0,0 -0.707,1.433 -0.706,1.433 -0.2,0.415 -0.365,0.673 -0.719,0.866 -0.31,0.179 -0.633,0.228 -1.15,0.228 l -10.561,0 L 0,0 z" /></g><g
         transform="translate(582.48652,623.81955)"
         id="g5512"><path
           inkscape:connector-curvature="0"
           id="path5514"
           style="fill:#ffffff;fill-opacity:1;fill-rule:nonzero;stroke:none"
           d="m 0,0 c -0.616,-0.205 -1.527,-0.451 -2.702,-0.451 -2.566,0 -3.684,1.309 -3.684,2.977 0,1.916 1.523,3.065 3.74,3.065 1.161,0 1.869,-0.201 2.623,-0.512 l 0,-1.359 -0.197,0 c -0.544,0.417 -1.17,0.778 -2.209,0.778 -1.311,0 -2.136,-0.727 -2.136,-1.897 0,-1.034 0.515,-1.992 2.19,-1.937 0.165,0.008 0.445,0.043 0.629,0.097 l 0,1.072 -1.374,0 0,1.091 3.12,0 L 0,0 z" /></g><g
         transform="translate(588.11952,628.94305)"
         id="g5516"><path
           inkscape:connector-curvature="0"
           id="path5518"
           style="fill:#ffffff;fill-opacity:1;fill-rule:nonzero;stroke:none"
           d="m 0,0 c -0.48,0.269 -1.1,0.345 -1.805,0.345 l -2.999,0 0,-5.798 1.748,0 0,1.89 1.21,0 c 0.678,0 1.319,0.086 1.833,0.376 0.608,0.341 0.929,0.877 0.929,1.701 C 0.916,-0.768 0.608,-0.344 0,0 m -0.881,-1.586 c 0,-0.421 -0.231,-0.632 -0.469,-0.742 -0.223,-0.101 -0.554,-0.141 -0.847,-0.141 l -0.859,0 0,1.717 0.859,0 c 0.293,0 0.624,-0.012 0.847,-0.114 0.238,-0.109 0.469,-0.296 0.469,-0.72" /></g></g></g></svg>