<?xml version="1.0" encoding="UTF-8" standalone="no"?>
<!-- Created with Inkscape (http://www.inkscape.org/) -->
<svg xmlns:rdf="http://www.w3.org/1999/02/22-rdf-syntax-ns#" xmlns="http://www.w3.org/2000/svg" version="1.1" xmlns:cc="http://creativecommons.org/ns#" xmlns:dc="http://purl.org/dc/elements/1.1/" viewBox="0 0 59.857498 52.571251">
 <metadata>
  <rdf:RDF>
   <cc:Work rdf:about="">
    <dc:format>image/svg+xml</dc:format>
    <dc:type rdf:resource="http://purl.org/dc/dcmitype/StillImage"/>
    <dc:title/>
    <cc:license rdf:resource="http://creativecommons.org/licenses/publicdomain/"/>
    <dc:publisher>
     <cc:Agent>
      <dc:title>Winston-Salem State University</dc:title>
     </cc:Agent>
    </dc:publisher>
    <dc:subject>
     <rdf:Bag>
      <rdf:li>logo</rdf:li>
     </rdf:Bag>
    </dc:subject>
    <dc:language>en-US</dc:language>
   </cc:Work>
   <cc:License rdf:about="http://creativecommons.org/licenses/publicdomain/">
    <cc:permits rdf:resource="http://creativecommons.org/ns#Reproduction"/>
    <cc:permits rdf:resource="http://creativecommons.org/ns#Distribution"/>
    <cc:permits rdf:resource="http://creativecommons.org/ns#DerivativeWorks"/>
   </cc:License>
  </rdf:RDF>
 </metadata>
 <g fill-rule="nonzero" transform="translate(-346.66063,-693.65715)">
  <path fill="#FF0061" d="m346.66063,746.22843,59.8575,0,0-52.57125-59.8575,0,0,52.57125z"/>
  <g fill="#FFF">
   <path d="m352.36687,716.32243c-0.0462-0.17-0.0612-0.2625-0.0612-0.27875,0-0.23125,0.0462-0.35625,0.30875-0.35625,0.31,0,0.23249,0.465,0.77375,1.44,0.65,1.145,1.64,1.825,2.615,1.825,1.17625,0,2.12-0.77375,2.12-2.0425,0-1.20625-0.8975-1.53125-2.5375-2.2425-1.8875-0.805-3.06375-1.3-3.06375-3.31125,0-1.5625,1.19125-2.95625,3.0475-2.95625,1.19125,0,1.76375,0.52625,2.32125,0.52625,0.37125,0,0.495-0.20125,0.65-0.20125,0.21625,0,0.27875,0.10875,0.27875,0.34125,0,0.17-0.0312,0.34-0.0312,0.54125,0,0.71125,0.21625,1.45375,0.21625,1.99625,0,0.23125-0.0463,0.325-0.23125,0.325-0.44875,0-0.18625-0.44875-0.79-1.455-0.54125-0.88125-1.51625-1.42375-2.49125-1.42375-1.02125,0-1.7175,0.68125-1.7175,1.51625,0,0.96,0.7125,1.43875,2.16625,1.99625,1.0375,0.4025,1.8725,0.665,2.43,1.2075,0.6025,0.5875,0.9275,1.4075,0.9275,2.3975,0,2.135-1.4225,3.4975-3.3875,3.4975-1.0375,0-1.765-0.44875-2.38375-0.5425-0.5725-0.0925-0.54125-0.03-0.665-0.5725l-0.495-2.2275z"/>
   <path d="m364.884,714.83693c0.34,0,0.495-0.0775,0.495-0.20125,0-0.0312-0.0312-0.20125-0.13875-0.46375l-1.09875-2.615c-0.0775-0.20125-0.17-0.29375-0.2325-0.29375-0.0775,0-0.17,0.0775-0.2325,0.23125l-1.16,2.72375c-0.0775,0.185-0.1075,0.325-0.1075,0.38625,0,0.20125,0.2,0.2325,0.69625,0.2325h1.77875zm-0.63375-6.32875c0.0613-0.13875,0.0925-0.21625,0.2475-0.21625,0.1075,0,0.21625,0.10875,0.29375,0.27875l3.945,9.22125c0.21625,0.51125,0.43375,0.82,0.92875,0.99,0.4175,0.14,0.5725,0.10875,0.5725,0.43375,0,0.2625-0.0625,0.29375-0.27875,0.29375-0.4025,0-1.145-0.13875-2.18125-0.13875-1.16125,0-1.81125,0.155-1.965,0.155-0.14,0-0.2475-0.14-0.2475-0.325,0-0.43375,1.11375-0.27875,1.11375-1.2075,0-0.185-0.0462-0.4325-0.155-0.68125l-0.43375-1.03625c-0.2625-0.63375-0.4475-0.665-1.0675-0.665h-0.17-2.01125c-0.69625,0-0.95875,0-1.20625,0.665l-0.41875,1.17625c-0.0763,0.20125-0.12375,0.37125-0.12375,0.52625,0,0.46375,0.35625,0.7425,1.0675,0.88125,0.3725,0.0775,0.62,0.10875,0.62,0.35625,0,0.21625-0.125,0.325-0.35625,0.325-0.325,0-1.00625-0.155-1.99625-0.155-0.7425,0-1.17625,0.14-1.34625,0.14-0.21625,0-0.34-0.10875-0.34-0.31,0-0.325,0.34-0.29375,0.65-0.495,0.4175-0.27875,0.65-0.7425,0.95875-1.43875l3.9-8.77375z"/>
   <path d="m371.70725,709.52993c-0.5575-0.51-1.33125-0.155-1.33125-0.665,0-0.18625,0.125-0.325,0.3875-0.325,0.29375,0,0.975,0.12375,2.01125,0.12375,1.25375,0,1.99625-0.14,2.1975-0.14,0.185,0,0.29375,0.10875,0.29375,0.295,0,0.37125-0.46375,0.2625-0.85125,0.61875-0.4175,0.37125-0.4175,0.82-0.4175,1.53125v6.25125c0,1.0525,0,1.42375,1.2225,1.42375,1.03625,0,2.12-0.35625,2.75375-0.8975,0.665-0.5575,0.65-1.09875,0.96-1.09875,0.12375,0,0.23125,0.12375,0.23125,0.30875,0,0.325-0.21625,1.13-0.60375,1.6875-0.4325,0.61875-1.0975,0.88125-2.0575,0.88125-0.7425,0-1.70125-0.13875-2.8775-0.13875-1.315,0-2.15125,0.13875-2.445,0.13875-0.2475,0-0.38625-0.1075-0.38625-0.27875,0-0.355,0.34-0.37125,0.7275-0.6025,0.4325-0.27875,0.61875-0.7425,0.61875-1.455v-6.065c0-0.75875-0.0312-1.2225-0.43375-1.59375"/>
   <path d="m380.15525,709.52993c-0.5575-0.51-1.34625-0.155-1.34625-0.665,0-0.20125,0.14-0.325,0.4025-0.325,0.14,0,1.02125,0.12375,2.67625,0.12375,2.24375,0,3.69875-0.12375,4.37875-0.12375,0.52625,0,0.61875,0.0462,0.61875,0.55625v0.325c0,0.75875,0.0163,1.2075,0.0163,1.31625,0,0.23125-0.0312,0.30875-0.2475,0.30875-0.4175,0-0.18625-0.43375-0.4025-0.8975-0.325-0.665-1.0525-0.88125-2.58375-0.88125-0.9125,0-1.25375,0.21625-1.25375,0.8975v2.41375c0,0.46375,0.18625,0.64875,0.665,0.64875h0.49625c0.665,0,1.05125-0.12375,1.36125-0.525,0.29375-0.4025,0.29375-0.8825,0.665-0.8825,0.18625,0,0.2475,0.10875,0.2475,0.325,0,0.0925-0.0612,0.46375-0.0612,1.17625,0,1.16,0.12375,1.825,0.12375,2.01125,0,0.20125-0.0925,0.29375-0.26375,0.29375-0.38625,0-0.23125-0.37125-0.4175-0.8825-0.2475-0.64875-0.665-0.80375-1.5625-0.80375h-0.60375c-0.5725,0-0.65,0.23125-0.65,0.86625v2.41375c0,1.09875,0.0775,1.42375,1.23875,1.42375,1.03625,0,2.11875-0.35625,2.75375-0.8975,0.665-0.5575,0.665-1.09875,0.975-1.09875,0.12375,0,0.21625,0.12375,0.21625,0.30875,0,0.325-0.21625,1.13-0.60375,1.6875-0.4325,0.61875-1.0825,0.88125-2.0425,0.88125-0.7425,0-1.7175-0.13875-2.89375-0.13875-1.315,0-2.15,0.13875-2.44375,0.13875-0.2475,0-0.37125-0.1075-0.37125-0.27875,0-0.355,0.325-0.37125,0.71125-0.6025,0.43375-0.27875,0.61875-0.7425,0.61875-1.455v-6.065c0-0.75875-0.015-1.2225-0.4175-1.59375"/>
   <path d="m389.7175,712.45418c0-0.17,0.015-0.4175,0.015-0.7425,0-1.03625-0.0925-1.81-0.65-2.29-0.46375-0.4025-0.89625-0.17-0.89625-0.5875,0-0.20125,0.0763-0.27875,0.29375-0.27875,0.0775,0,0.495,0.0775,1.28375,0.0775,0.5725,0,0.9125-0.0462,0.99-0.0462,0.2325,0,0.31,0.0925,0.465,0.4325l3.41875,7.35c0.0625,0.13875,0.12375,0.21625,0.21625,0.21625,0.0775,0,0.155-0.0625,0.2175-0.18625l3.72875-7.55c0.0925-0.18625,0.18625-0.2475,0.4175-0.2475,0.13875,0,0.37125,0.0612,0.71125,0.0612,0.52625,0,0.92875-0.1075,1.1925-0.1075,0.23125,0,0.30875,0.0612,0.30875,0.325,0,0.355-0.2475,0.1075-0.8975,0.46375-0.37125,0.20125-0.495,0.61875-0.495,1.315v0.14l0.17,6.20375c0.0163,0.78875,0.0937,1.285,0.5725,1.64,0.52625,0.3875,0.8975,0.10875,0.8975,0.51125,0,0.2775-0.0925,0.355-0.4025,0.355-0.27875,0-0.88125-0.12375-1.795-0.12375-0.9275,0-1.515,0.14-1.79375,0.14-0.2475,0-0.3725-0.0937-0.3725-0.325,0-0.29375,0.31-0.2625,0.62-0.46375,0.38625-0.26375,0.47875-0.58875,0.47875-1.16125v-0.325l-0.20125-4.81125c-0.015-0.2475-0.0763-0.37125-0.12375-0.37125-0.0612,0-0.17,0.13875-0.30875,0.40125l-3.265,6.6075c-0.0925,0.20125-0.155,0.355-0.355,0.355-0.20125,0-0.2325-0.13875-0.34125-0.37125l-3.0175-6.6525c-0.0775-0.17-0.12375-0.29375-0.21625-0.29375-0.0775,0-0.12375,0.13875-0.13875,0.4025l-0.14,3.83625v0.29375,0.3725c0,0.86625,0.12375,1.4225,0.7275,1.7325,0.4175,0.20125,0.85125,0.0312,0.85125,0.48,0,0.23125-0.12375,0.2775-0.37125,0.2775-0.325,0-0.83625-0.1075-1.5325-0.1075-0.80375,0-1.36125,0.12375-1.62375,0.12375-0.10875,0-0.2325-0.155-0.2325-0.34125,0-0.30875,0.61875-0.32375,0.95875-0.64875,0.295-0.27875,0.41875-0.99125,0.465-2.15125l0.17-3.93z"/>
   <path d="m361.1885,699.66305c-0.155,0.0275-0.3675,0.0638-0.63,0.0638l-0.65-0.05-0.38-0.0325c-0.1775,0-0.28625,0.0375-0.28625,0.225,0,0.18999,0.13625,0.22624,0.30875,0.27249l0.12,0.0325c0.3075,0.10001,0.45625,0.3325,0.45625,0.71501,0,0.21-0.0562,0.47249-0.1725,0.79999l-1.08125,3.04876c-0.0225,0.0675-0.0587,0.10749-0.0975,0.10749-0.007-0.001-0.0387-0.025-0.0663-0.09,0,0-1.245-3.4375-1.245-3.4375-0.1125-0.30625-0.1625-0.62249-0.1625-0.8,0-0.28374,0.0987-0.36249,0.24625-0.39374,0.18375-0.035,0.28875-0.13125,0.28875-0.265,0-0.125-0.09-0.215-0.21375-0.215l-0.16375,0.0213c-0.19,0.03-0.5075,0.0812-0.95875,0.0812l-0.81-0.0537-0.33375-0.0287c-0.15875,0-0.245,0.035-0.245,0.215,0,0.17999,0.12125,0.2225,0.28875,0.2825l0.1175,0.0425c0.1525,0.0575,0.26125,0.28501,0.39875,0.6575l0.54625,1.48251c0,0.001,0.0288,0.16125,0.0288,0.16125,0,0.0925-0.0138,0.16874-0.0362,0.20625-0.001,0.004-1.11375,2.3825-1.11375,2.3825-0.0175,0.0425-0.0462,0.06-0.0575,0.06-0.0175,0-0.0387-0.0288-0.055-0.0762,0-0.001-1.37-3.76001-1.37-3.76001-0.0962-0.27-0.1525-0.52124-0.1525-0.68625,0-0.33875,0.17875-0.43499,0.3375-0.52,0.1125-0.06,0.21875-0.11749,0.21875-0.25249,0-0.11251-0.0962-0.215-0.20375-0.215l-0.24,0.02c-0.22625,0.025-0.56875,0.0625-1.0275,0.0625l-0.90125-0.055-0.365-0.0275c-0.17875,0-0.25625,0.07-0.25625,0.235,0,0.18499,0.14,0.24375,0.3375,0.30625,0.34,0.10625,0.58375,0.33999,0.705,0.67499,0.001,0,2.24625,6.12875,2.24625,6.12875,0.0438,0.12,0.13625,0.20126,0.2325,0.20126,0.12625,0,0.1575-0.0712,0.1975-0.16251,0.002-0.005,1.73375-3.76374,1.73375-3.76374,0.015-0.04,0.0425-0.05,0.0563-0.05,0,0.005,0.025,0.0475,0.025,0.0475s1.35875,3.72751,1.35875,3.72751c0.0438,0.12,0.1375,0.20125,0.23375,0.20125,0.1325,0,0.175-0.0838,0.2025-0.17251,0,0,2.09-5.72375,2.09-5.72375,0.19875-0.56,0.375-0.95875,0.59125-1.09249,0,0,0.1-0.0438,0.1375-0.0462,0.43375-0.0288,0.3275-0.0937,0.3275-0.26751,0-0.15625-0.0625-0.25874-0.33125-0.25374l-0.225,0.0287z"/>
   <path d="m362.20987,700.28093zm2.03375-0.63875c-0.20375,0.0212-0.74874,0.0737-1.6875,0.0737-0.40875,0-0.68875-0.035-0.85625-0.0575l-0.1425-0.0137c-0.1375,0-0.29749,0.0688-0.29749,0.255,0,0.2325,0.0462,0.225,0.38999,0.25625,0.16751,0.015,0.35125,0.0625,0.51126,0.1875,0.26249,0.20375,0.27374,0.4725,0.27374,1.06v4.0375c0,0.47625-0.12125,0.80375-0.34,0.9225,0,0.001-0.22249,0.1075-0.22249,0.1075-0.18125,0.0788-0.32375,0.14125-0.32375,0.34,0,0.10375,0.075,0.225,0.28624,0.225l0.41375-0.0325,0.9675-0.06,0.96,0.0575,0.47125,0.035c0.22,0,0.3275-0.0875,0.3275-0.26625,0-0.2225-0.20375-0.255-0.41875-0.28875l-0.30875-0.0675c-0.34-0.1175-0.4975-0.43625-0.4975-1.00375v-4.10875c0-0.48,0.0375-0.815,0.225-1.0025,0.0913-0.0913,0.21625-0.1275,0.3275-0.16,0.14875-0.0437,0.30125-0.0888,0.30125-0.26875,0-0.15-0.0925-0.23625-0.255-0.23625l-0.105,0.009z"/>
   <path d="m372.41413,699.67518-0.84625,0.0513-0.62001-0.0425-0.37874-0.0288c-0.22,0-0.26626,0.12125-0.26626,0.22375,0,0.18625,0.14626,0.215,0.33125,0.25,0.16375,0.0312,0.3675,0.0713,0.5925,0.21625,0.3225,0.20875,0.38375,0.60125,0.38375,1.25375v2.62625c0,0.37625-0.0562,0.455-0.105,0.455-0.0413,0-0.16875-0.0687-0.38125-0.325l-3.58125-4.3c-0.24625-0.29125-0.3375-0.4-0.63-0.4l-0.88625,0.0512-0.335-0.0275-0.2825-0.0238c-0.17625,0-0.245,0.0713-0.245,0.255,0,0.20875,0.13875,0.225,0.28625,0.2425,0.15375,0.0175,0.345,0.04,0.5375,0.23875,0.20625,0.20625,0.29875,0.5875,0.29875,1.23875v2.585c0,1.08-0.11,1.8325-0.3,2.06625-0.11,0.1375-0.26375,0.18625-0.4,0.23-0.14375,0.045-0.27875,0.0888-0.27875,0.2375,0,0.25,0.1475,0.28625,0.235,0.28625l0.26875-0.0263c0.215-0.0275,0.51-0.0662,0.895-0.0662,0.3575,0,0.63,0.0425,0.82875,0.0738l0.2525,0.03c0.19125,0,0.3075-0.0175,0.3075-0.25625,0-0.215-0.20125-0.24875-0.415-0.28375-0.1775-0.03-0.37875-0.0625-0.51375-0.1975-0.3125-0.3225-0.3275-0.965-0.3275-2.0725v-2.4c0-0.37375,0.07-0.3925,0.0838-0.3925,0.02,0.002,0.12,0.0638,0.2175,0.18125,0,0,4.3275,5.11625,4.3275,5.11625,0.195,0.23375,0.32375,0.3875,0.51125,0.3875,0.15375,0,0.17375-0.2525,0.17375-0.4725l0.0625-5.22125c0.01-0.595,0.03-0.9175,0.33375-1.15375,0.1-0.08,0.2-0.115,0.28875-0.1475,0.13-0.0462,0.2525-0.09,0.2525-0.265,0-0.1975-0.1175-0.225-0.245-0.225l-0.43125,0.0312z"/>
   <path d="m373.44362,701.55818c0,1.36125,0.81626,1.70875,2.05126,2.235,0.0125,0.005,0.17,0.0738,0.17,0.0738,0.9725,0.42,1.5075,0.65125,1.5075,1.38875,0,0.7775-0.565,1.32-1.37125,1.32-0.64375,0-1.2825-0.4475-1.70625-1.195-0.1575-0.2825-0.235-0.49875-0.29125-0.65625-0.075-0.2075-0.115-0.3225-0.25875-0.3225-0.22625,0-0.245,0.14375-0.245,0.2775l0.0425,0.195-0.001-0.001,0.3375,1.51375c0.07,0.30875,0.0838,0.3225,0.36625,0.365l0.10125,0.015c0.001,0,0.48125,0.135,0.48125,0.135,0.3125,0.10625,0.6675,0.22625,1.11125,0.22625,1.3725,0,2.295-0.95125,2.295-2.3675,0-0.66125-0.2175-1.2225-0.63-1.62375-0.325-0.31625-0.77625-0.4875-1.3475-0.70375l-0.2825-0.10875c-0.91875-0.35125-1.41625-0.66125-1.41625-1.29125,0-0.5525,0.47375-0.97,1.10375-0.97,0.64,0,1.2775,0.365,1.62375,0.92875,0.1825,0.30375,0.245,0.53375,0.28625,0.6875,0.0512,0.18625,0.0825,0.3,0.2725,0.3,0.18,0,0.19375-0.1325,0.19375-0.25625l-0.065-0.58125c-0.0387-0.245-0.0788-0.4975-0.0788-0.7475l0.0213-0.36c0-0.1325-0.0275-0.26625-0.225-0.26625l-0.1425,0.05c-0.0675,0.0375-0.15,0.0838-0.29,0.0838-0.14375,0-0.295-0.0575-0.47-0.12375-0.26625-0.10125-0.5975-0.22625-1.075-0.22625-1.18,0-2.06875,0.8625-2.06875,2.00625"/>
   <path d="m384.566,699.66418-1.31875,0.0425-2.44125,0-1.27625-0.0438-0.42375-0.0187c-0.2975,0-0.3175,0.1325-0.3375,0.46-0.0425,0.55625-0.11,0.95625-0.14625,1.17l-0.0288,0.20125c0,0.1775,0.0687,0.26625,0.20375,0.26625,0.225,0,0.265-0.1475,0.325-0.3725l0.175-0.505c0.2-0.4475,0.62375-0.5225,1.49875-0.5225,0.59125,0,0.64,0.0325,0.64,0.43375v4.665c0,0.52625-0.1675,0.83-0.5425,0.98375,0,0-0.2875,0.0863-0.2875,0.0863-0.185,0.0437-0.34375,0.0825-0.34375,0.28,0,0.1525,0.13125,0.255,0.3275,0.255l0.51-0.0362c0.31125-0.0288,0.6975-0.0662,1.1475-0.0662,0.4425,0,0.805,0.0362,1.06875,0.0625l0.39375,0.03c0.2675,0,0.3075-0.16,0.3075-0.255,0-0.2225-0.1875-0.2575-0.38625-0.29375l-0.30625-0.0825c-0.38875-0.17125-0.5325-0.44-0.5325-0.99375v-4.60375c0-0.44,0.0725-0.455,0.7425-0.455h0.0825c0.8,0,1.16625,0.0625,1.365,0.4525,0,0,0.11875,0.31875,0.11875,0.31875,0.0462,0.1625,0.0788,0.27875,0.2875,0.27875,0.18375,0,0.18375-0.0725,0.18375-0.26625v-0.0925c0-0.002-0.0825-1.05375-0.0825-1.05375-0.0225-0.31625-0.13-0.345-0.43-0.345l-0.49375,0.02z"/>
   <path d="m387.12763,702.93831c0-1.78751,0.87874-2.855,2.35-2.855,1.55375,0,2.63874,1.53875,2.63874,3.74125,0,1.70875-0.90874,2.77125-2.37124,2.77125-1.565,0-2.6175-1.47-2.6175-3.6575m-1.3975,0.47375c0,2.17125,1.57625,3.7475,3.7475,3.7475,2.3325,0,4.025-1.645,4.025-3.9125,0-2.15875-1.58875-3.72625-3.7775-3.72625-2.2775,0-3.995,1.67249-3.995,3.89125"/>
   <path d="m400.83925,699.67518-0.84625,0.0513-0.62-0.0425-0.37875-0.0288c-0.22,0-0.26625,0.12125-0.26625,0.22375,0,0.18625,0.14625,0.215,0.33125,0.25,0.16375,0.0312,0.3675,0.0713,0.5925,0.21625,0.3225,0.20875,0.38375,0.60125,0.38375,1.25375v2.62625c0,0.37625-0.0563,0.455-0.105,0.455-0.0412,0-0.16875-0.0687-0.38125-0.325,0,0-3.58125-4.3-3.58125-4.3-0.24625-0.29125-0.3375-0.4-0.63-0.4l-0.88625,0.0512-0.335-0.0275-0.2825-0.0238c-0.1475,0-0.24625,0.0425-0.24625,0.255,0,0.20875,0.14,0.225,0.2875,0.2425,0.15375,0.0175,0.345,0.04,0.5375,0.23875,0.20625,0.20625,0.29875,0.5875,0.29875,1.23875v2.585c0,1.08-0.11,1.8325-0.3,2.06625-0.11,0.1375-0.26375,0.18625-0.4,0.23-0.14375,0.045-0.27875,0.0888-0.27875,0.2375,0,0.25,0.1475,0.28625,0.235,0.28625l0.26875-0.0263c0.215-0.0275,0.51-0.0662,0.895-0.0662,0.3575,0,0.62875,0.0425,0.8275,0.0738l0.25375,0.03c0.19125,0,0.3075-0.0175,0.3075-0.25625,0-0.215-0.2025-0.24875-0.41625-0.28375-0.17625-0.03-0.3775-0.0625-0.5125-0.1975-0.3125-0.3225-0.3275-0.965-0.3275-2.0725v-2.4c0-0.37375,0.07-0.3925,0.0838-0.3925,0.02,0.002,0.12,0.065,0.21625,0.18125,0.001,0,4.3275,5.11625,4.3275,5.11625,0.19625,0.23375,0.325,0.3875,0.5125,0.3875,0.15375,0,0.17375-0.2525,0.17375-0.4725l0.0613-5.22125c0.0113-0.595,0.03-0.9175,0.335-1.15375,0.1-0.08,0.2-0.115,0.28875-0.1475,0.135-0.0475,0.2525-0.09,0.2525-0.265,0-0.1975-0.11875-0.225-0.24625-0.225l-0.43,0.0312z"/>
   <path d="m352.29025,729.63956c-0.05-0.1825-0.0663-0.2825-0.0663-0.29875,0-0.25,0.05-0.38251,0.3325-0.38251,0.3325,0,0.24875,0.49875,0.83125,1.54625,0.6975,1.23,1.76125,1.96126,2.80875,1.96126,1.26375,0,2.2775-0.83126,2.2775-2.19501,0-1.29625-0.96375-1.64499-2.72625-2.40999-2.0275-0.865-3.29125-1.39625-3.29125-3.5575,0-1.67876,1.28-3.17501,3.275-3.17501,1.28,0,1.895,0.565,2.49375,0.565,0.39875,0,0.53125-0.21625,0.6975-0.21625,0.23375,0,0.3,0.11625,0.3,0.365,0,0.18375-0.0337,0.36625-0.0337,0.58251,0,0.765,0.2325,1.5625,0.2325,2.145,0,0.24874-0.05,0.34875-0.24875,0.34875-0.4825,0-0.2-0.4825-0.8475-1.5625-0.5825-0.9475-1.63-1.53-2.6775-1.53-1.09625,0-1.845,0.73124-1.845,1.63,0,1.03,0.765,1.54625,2.3275,2.14374,1.11375,0.43251,2.01125,0.71501,2.61,1.29751,0.64875,0.63125,0.9975,1.5125,0.9975,2.57625,0,2.29375-1.52875,3.7575-3.64,3.7575-1.115,0-1.89625-0.4825-2.56125-0.5825-0.615-0.1-0.58125-0.0325-0.71375-0.615l-0.5325-2.39375z"/>
   <path d="m363.927,722.27506c-1.36375,0-2.1275,0.1-2.4775,0.88125-0.415,0.89749-0.24875,1.38-0.7475,1.38-0.1825,0-0.26625-0.11625-0.26625-0.36625,0-0.15,0.1825-0.89751,0.2825-2.21126,0.0337-0.53125,0.0662-0.68125,0.4825-0.68125,0.44875,0,1.38,0.10001,2.7425,0.10001h3.94c1.43,0,2.39375-0.10001,2.92625-0.10001,0.465,0,0.59875,0.0338,0.63125,0.49876l0.13375,1.69625v0.14874c0,0.31626,0,0.36626-0.2325,0.36626-0.45,0-0.3-0.34875-0.59875-0.93125-0.3325-0.64876-0.93125-0.765-2.26125-0.765h-0.1325c-1.065,0-1.26375,0.0175-1.26375,0.79875v7.43125c0,0.86375,0.21625,1.3625,0.8975,1.66125,0.4825,0.21625,1.08,0.0838,1.08,0.54875,0,0.23375-0.14875,0.35-0.43125,0.35-0.41625,0-1.21375-0.15-2.36125-0.15-1.21375,0-2.14375,0.16625-2.67625,0.16625-0.29875,0-0.465-0.15-0.465-0.35,0-0.39875,0.465-0.315,0.98-0.53125,0.64875-0.26625,0.915-0.7975,0.915-1.645v-7.53125c0-0.69875-0.11625-0.765-1.0975-0.765"/>
   <path d="m376.362,728.04368c0.36625,0,0.5325-0.0825,0.5325-0.21625,0-0.0325-0.0337-0.21625-0.15-0.49875l-1.18-2.81c-0.0838-0.215-0.18375-0.315-0.25-0.315-0.0825,0-0.1825,0.0825-0.24875,0.24875l-1.2475,2.92625c-0.0825,0.2-0.11625,0.34875-0.11625,0.41625,0,0.215,0.21625,0.24875,0.74875,0.24875h1.91125zm-0.68125-6.8c0.0663-0.14875,0.1-0.2325,0.265-0.2325,0.11625,0,0.23375,0.11625,0.31625,0.3l4.23875,9.9075c0.23375,0.54875,0.46625,0.88125,0.9975,1.06375,0.45,0.15,0.61625,0.1175,0.61625,0.46625,0,0.2825-0.0675,0.315-0.3,0.315-0.4325,0-1.23-0.14875-2.34375-0.14875-1.24625,0-1.945,0.16625-2.11125,0.16625-0.15,0-0.26625-0.15-0.26625-0.35,0-0.465,1.1975-0.29875,1.1975-1.29625,0-0.2-0.05-0.465-0.16625-0.73125l-0.46625-1.11375c-0.2825-0.68125-0.48125-0.715-1.14625-0.715h-0.18375-2.16c-0.74875,0-1.03125,0-1.2975,0.715l-0.44875,1.26375c-0.0825,0.215-0.1325,0.39875-0.1325,0.565,0,0.49875,0.3825,0.7975,1.14625,0.9475,0.4,0.0825,0.665,0.11625,0.665,0.3825,0,0.2325-0.1325,0.34875-0.3825,0.34875-0.34875,0-1.08-0.16625-2.14375-0.16625-0.79875,0-1.26375,0.15-1.44625,0.15-0.2325,0-0.36625-0.11625-0.36625-0.3325,0-0.34875,0.36625-0.31625,0.69875-0.5325,0.44875-0.29875,0.6975-0.7975,1.03-1.54625l4.19-9.42625z"/>
   <path d="m383.5935,722.27506c-1.36375,0-2.1275,0.1-2.47625,0.88125-0.41625,0.89749-0.25,1.38-0.74875,1.38-0.1825,0-0.26625-0.11625-0.26625-0.36625,0-0.15,0.1825-0.89751,0.2825-2.21126,0.0337-0.53125,0.0663-0.68125,0.4825-0.68125,0.44875,0,1.38,0.10001,2.7425,0.10001h3.94c1.43,0,2.39375-0.10001,2.92625-0.10001,0.465,0,0.59875,0.0338,0.63125,0.49876l0.13375,1.69625v0.14874c0,0.31626,0,0.36626-0.2325,0.36626-0.44875,0-0.3-0.34875-0.59875-0.93125-0.3325-0.64876-0.93125-0.765-2.26125-0.765h-0.1325c-1.06375,0-1.26375,0.0175-1.26375,0.79875v7.43125c0,0.86375,0.21625,1.3625,0.8975,1.66125,0.4825,0.21625,1.08125,0.0838,1.08125,0.54875,0,0.23375-0.15,0.35-0.4325,0.35-0.41625,0-1.21375-0.15-2.36125-0.15-1.21375,0-2.14375,0.16625-2.67625,0.16625-0.29875,0-0.465-0.15-0.465-0.35,0-0.39875,0.465-0.315,0.98-0.53125,0.64875-0.26625,0.915-0.7975,0.915-1.645v-7.53125c0-0.69875-0.11625-0.765-1.0975-0.765"/>
   <path d="m393.2355,722.34143c-0.59875-0.54875-1.44625-0.16625-1.44625-0.715,0-0.21625,0.15-0.34875,0.4325-0.34875,0.15,0,1.09625,0.1325,2.87625,0.1325,2.41,0,3.9725-0.1325,4.70375-0.1325,0.565,0,0.665,0.05,0.665,0.59875v0.34875c0,0.815,0.0175,1.29625,0.0175,1.4125,0,0.25-0.0337,0.3325-0.26625,0.3325-0.44875,0-0.2-0.465-0.4325-0.96375-0.34875-0.715-1.13-0.9475-2.77625-0.9475-0.98125,0-1.34625,0.2325-1.34625,0.96375v2.59375c0,0.49875,0.19875,0.69875,0.715,0.69875h0.53125c0.715,0,1.13125-0.13375,1.4625-0.56625,0.31625-0.43125,0.31625-0.94625,0.71625-0.94625,0.19875,0,0.265,0.115,0.265,0.34875,0,0.1-0.0663,0.49875-0.0663,1.2625,0,1.2475,0.1325,1.9625,0.1325,2.16125,0,0.21625-0.0987,0.31625-0.2825,0.31625-0.415,0-0.24875-0.39875-0.44875-0.9475-0.26625-0.6975-0.715-0.865-1.67875-0.865h-0.64875c-0.615,0-0.6975,0.25-0.6975,0.93125v2.59375c0,1.18,0.0825,1.52875,1.33,1.52875,1.11375,0,2.2775-0.38125,2.95875-0.96375,0.715-0.59875,0.715-1.18,1.0475-1.18,0.1325,0,0.2325,0.1325,0.2325,0.3325,0,0.34875-0.2325,1.21375-0.6475,1.81125-0.46625,0.665-1.165,0.94875-2.195,0.94875-0.7975,0-1.845-0.15-3.10875-0.15-1.41375,0-2.31125,0.15-2.62625,0.15-0.26625,0-0.39875-0.1175-0.39875-0.3,0-0.3825,0.34875-0.39875,0.76375-0.64875,0.46625-0.29875,0.665-0.7975,0.665-1.5625v-6.51625c0-0.815-0.0163-1.31375-0.44875-1.7125"/>
   <path d="m352.6385,735.02481c-0.29-0.11001-0.4775-0.0388-0.4775-0.23501,0-0.10124,0.0625-0.13374,0.20375-0.13374,0.16375,0,0.47,0.055,0.9,0.055,0.565,0,0.9175-0.0775,1.08125-0.0775,0.14125,0,0.21125,0.0388,0.21125,0.14,0,0.16501-0.20375,0.13376-0.39125,0.24376-0.2425,0.14124-0.25,0.50875-0.25,1.285v1.245,0.11749c0,0.56376,0.007,1.02625,0.21875,1.40251,0.25875,0.45375,0.705,0.72,1.26875,0.72,0.5175,0,0.96375-0.1875,1.25375-0.5325,0.36-0.4225,0.4225-1.01,0.4225-1.84875v-1.355c0-0.55625-0.0462-0.8775-0.3525-1.0025-0.32125-0.125-0.6025-0.055-0.6025-0.26625,0-0.1025,0.07-0.13375,0.195-0.13375,0.165,0,0.43875,0.055,0.815,0.055,0.36875,0,0.61125-0.0625,0.73625-0.0625,0.1175,0,0.1725,0.0312,0.1725,0.125,0,0.17999-0.20375,0.13375-0.39125,0.26625-0.1725,0.12624-0.1725,0.56499-0.1725,1.41v1.00249c0,1.88125-0.79875,2.82126-2.38125,2.82126s-2.115-0.87-2.115-2.63251v-1.91125c0-0.47874-0.0788-0.60374-0.345-0.69749"/>
   <path d="m359.2265,736.12156c0-0.47751-0.0625-0.79125-0.235-0.96375-0.305-0.31375-0.61875-0.0788-0.61875-0.345,0-0.1325,0.0475-0.16375,0.15625-0.16375,0.14125,0,0.2975,0.0388,0.47,0.0388,0.235,0,0.4625-0.0388,0.67375-0.0388,0.22,0,0.275,0.0787,0.48625,0.32874l2.695,3.235c0.14875,0.18001,0.2575,0.25876,0.3125,0.25876,0.0788,0,0.11-0.125,0.11-0.37625v-1.99751c0-0.47749-0.0387-0.80624-0.305-0.97875-0.37625-0.24249-0.69-0.11-0.69-0.32875,0-0.095,0.055-0.14124,0.1725-0.14124,0.1875,0,0.44625,0.055,0.76,0.055,0.4225,0,0.76-0.0625,0.97125-0.0625,0.11,0,0.15625,0.0312,0.15625,0.14,0,0.18875-0.20375,0.13374-0.39875,0.28999-0.24375,0.18876-0.25875,0.4475-0.26625,0.90125l-0.0475,3.97126c0,0.21999-0.0312,0.33-0.10125,0.33-0.14875,0-0.25125-0.15001-0.43875-0.36876l-3.22-3.80749c-0.0788-0.0937-0.165-0.14875-0.1875-0.14875-0.0638,0-0.095,0.11-0.095,0.32875v1.825c0,0.82374,0.007,1.34,0.25875,1.59875,0.235,0.23499,0.6975,0.0863,0.6975,0.345,0,0.14875-0.055,0.16375-0.20375,0.16375-0.125,0-0.4-0.0775-0.8225-0.0775-0.455,0-0.7525,0.07-0.885,0.07-0.1025,0-0.14875-0.07-0.14875-0.1875,0-0.18,0.32875-0.11,0.50875-0.3375,0.14125-0.1725,0.235-0.705,0.235-1.59v-1.96625z"/>
   <path d="m365.24275,735.11893c-0.2825-0.22-0.67375-0.055-0.67375-0.31375,0-0.0937,0.0625-0.16375,0.19625-0.16375,0.07,0,0.32125,0.0538,0.76,0.0538,0.8925,0,1.3075-0.0625,1.3625-0.0625,0.11,0,0.165,0.055,0.165,0.14875,0,0.20375-0.2975,0.13375-0.47,0.30625-0.14875,0.14875-0.18,0.4075-0.18,0.78375v3.125c0,0.43875,0.125,0.6975,0.39875,0.79125,0.25125,0.0862,0.5325,0.0312,0.5325,0.2425,0,0.12625-0.0775,0.1725-0.21875,0.1725-0.235,0-0.60375-0.07-1.08875-0.07-0.48625,0-0.84625,0.07-1.05,0.07-0.125,0-0.18875-0.0625-0.18875-0.14125,0-0.18,0.1725-0.1875,0.4-0.3125,0.1725-0.0937,0.27375-0.345,0.27375-0.72875v-3.07125c0-0.44625-0.007-0.66625-0.21875-0.83"/>
   <path d="m368.12537,735.51043c-0.10125-0.2425-0.19625-0.4-0.4225-0.485-0.2125-0.0788-0.3525-0.0788-0.3525-0.24375,0-0.10125,0.0537-0.14125,0.16375-0.14125,0.19625,0,0.58,0.0788,1.1125,0.0788,0.58,0,0.90125-0.0863,0.98-0.0863,0.0775,0,0.14,0.0712,0.14,0.14875,0,0.12625-0.10875,0.14875-0.28125,0.2275-0.19625,0.0862-0.2825,0.20375-0.2825,0.4225,0,0.15,0.055,0.29,0.1175,0.4475l1.16,2.78875c0.0387,0.10125,0.085,0.14875,0.1175,0.14875,0.0387,0,0.0775-0.04,0.10875-0.1175l1.12-2.53125c0.11-0.2425,0.15-0.46125,0.15-0.6175,0-0.29125-0.14125-0.48625-0.42375-0.565-0.19625-0.055-0.38375-0.0387-0.38375-0.195,0-0.11,0.055-0.1575,0.1725-0.1575,0.21125,0,0.5325,0.0712,0.94,0.0712,0.32875,0,0.54875-0.0712,0.65-0.0712,0.1025,0,0.14875,0.0388,0.14875,0.13375,0,0.14125-0.0937,0.16375-0.25,0.235-0.0712,0.0312-0.18125,0.1875-0.30625,0.47l-2.09875,4.73875c-0.0312,0.0713-0.0475,0.11-0.12625,0.11-0.0625,0-0.10875-0.0475-0.14875-0.13375l-2.005-4.67625z"/>
   <path d="m373.93788,735.14243c-0.28251-0.25875-0.68126-0.0788-0.68126-0.3375,0-0.10125,0.07-0.16375,0.20375-0.16375,0.07,0,0.51626,0.0625,1.35501,0.0625,1.13624,0,1.8725-0.0625,2.21749-0.0625,0.26626,0,0.3125,0.0238,0.3125,0.2825v0.16375c0,0.38375,0.007,0.61125,0.007,0.66625,0,0.1175-0.015,0.15625-0.125,0.15625-0.21125,0-0.0937-0.21875-0.20375-0.45375-0.16375-0.3375-0.5325-0.4475-1.3075-0.4475-0.4625,0-0.635,0.11-0.635,0.455v1.2225c0,0.235,0.0937,0.32875,0.33625,0.32875h0.25125c0.3375,0,0.5325-0.0625,0.69-0.26625,0.14876-0.20375,0.14876-0.4475,0.33626-0.4475,0.0937,0,0.125,0.055,0.125,0.165,0,0.0475-0.0312,0.235-0.0312,0.595,0,0.5875,0.0625,0.925,0.0625,1.01875,0,0.1025-0.0462,0.14875-0.1325,0.14875-0.19625,0-0.1175-0.1875-0.21125-0.44625-0.12625-0.32875-0.3375-0.4075-0.79125-0.4075h-0.30625c-0.29,0-0.32875,0.1175-0.32875,0.43875v1.2225c0,0.55625,0.0387,0.72,0.62625,0.72,0.525,0,1.07375-0.18,1.395-0.45375,0.33625-0.2825,0.33625-0.55625,0.49375-0.55625,0.0625,0,0.10875,0.0625,0.10875,0.15625,0,0.165-0.10875,0.5725-0.305,0.85375-0.22,0.31375-0.54875,0.44625-1.03375,0.44625-0.37625,0-0.87-0.07-1.465-0.07-0.66625,0-1.08875,0.07-1.2375,0.07-0.12625,0-0.18876-0.055-0.18876-0.14,0-0.18125,0.165-0.18875,0.36125-0.30625,0.21876-0.14125,0.3125-0.37625,0.3125-0.73625v-3.07c0-0.385-0.007-0.62-0.21124-0.8075"/>
   <path d="m380.29113,737.22593c0.775,0,1.15125-0.21875,1.15125-0.9325,0-0.8225-0.47751-1.33125-1.27625-1.33125-0.41501,0-0.47751,0.19625-0.47751,0.62625v1.26125c0,0.31375,0.0387,0.37625,0.60251,0.37625m-1.76251-2.08375c-0.25125-0.25125-0.61875-0.0863-0.61875-0.33625,0-0.1025,0.07-0.1575,0.19625-0.1575,0.10126,0,0.44625,0.055,1.0175,0.055,0.43126,0,0.91625-0.07,1.44126-0.07,1.19124,0,1.83374,0.54,1.83374,1.4725,0,0.62625-0.32874,1.03375-1.01874,1.26125,0.125,0.0625,0.19624,0.18,0.275,0.32875l0.79,1.465c0.19625,0.3525,0.32125,0.5175,0.565,0.5175,0.0863,0,0.15625-0.0163,0.20249-0.0163,0.0788,0,0.11001,0.0312,0.11001,0.11,0,0.1875-0.40625,0.4075-0.83,0.4075-0.50875,0-0.86125-0.43875-1.33125-1.4025-0.2825-0.5875-0.455-0.95625-0.5875-1.07375-0.14876-0.1325-0.32125-0.1325-0.57251-0.1325-0.25,0-0.32874,0.055-0.32874,0.27375v1.15125c0,0.4075,0.10125,0.65875,0.345,0.78375,0.1875,0.0937,0.4225,0.0475,0.4225,0.25125,0,0.1325-0.055,0.1725-0.1875,0.1725-0.14875,0-0.4625-0.0713-0.94-0.0713-0.525,0-0.90125,0.0713-1.07375,0.0713-0.125,0-0.1875-0.055-0.1875-0.14125,0-0.18,0.16375-0.18875,0.36-0.30625,0.21875-0.14125,0.31375-0.37625,0.31375-0.73625v-3.07c0-0.38375-0.009-0.6275-0.19625-0.8075"/>
   <path d="m383.6985,738.58143c-0.0238-0.0862-0.0312-0.13375-0.0312-0.14125,0-0.1175,0.0237-0.18,0.15625-0.18,0.1575,0,0.1175,0.235,0.3925,0.72875,0.32875,0.58,0.83,0.92375,1.32375,0.92375,0.595,0,1.0725-0.39125,1.0725-1.03375,0-0.61125-0.45375-0.775-1.28375-1.13625-0.95625-0.40625-1.55125-0.6575-1.55125-1.67625,0-0.79125,0.6025-1.49625,1.5425-1.49625,0.60375,0,0.89375,0.26625,1.175,0.26625,0.18875,0,0.25125-0.10125,0.33-0.10125,0.10875,0,0.14,0.055,0.14,0.1725,0,0.0862-0.015,0.1725-0.015,0.27375,0,0.36,0.11,0.73625,0.11,1.01,0,0.11875-0.0238,0.165-0.1175,0.165-0.2275,0-0.095-0.2275-0.4-0.73625-0.27375-0.44625-0.7675-0.72125-1.26125-0.72125-0.5175,0-0.87,0.345-0.87,0.76875,0,0.485,0.36125,0.72875,1.0975,1.01,0.525,0.20375,0.9475,0.33625,1.23,0.61125,0.305,0.2975,0.47,0.7125,0.47,1.21375,0,1.08125-0.72125,1.77125-1.71625,1.77125-0.525,0-0.8925-0.2275-1.20625-0.275-0.29-0.0462-0.27375-0.015-0.33625-0.29l-0.25125-1.1275z"/>
   <path d="m388.31263,735.11893c-0.28251-0.22-0.67375-0.055-0.67375-0.31375,0-0.0937,0.0625-0.16375,0.19624-0.16375,0.07,0,0.32126,0.0538,0.76,0.0538,0.8925,0,1.3075-0.0625,1.3625-0.0625,0.11001,0,0.165,0.055,0.165,0.14875,0,0.20375-0.2975,0.13375-0.47,0.30625-0.14999,0.14875-0.18124,0.4075-0.18124,0.78375v3.125c0,0.43875,0.12625,0.6975,0.39999,0.79125,0.25126,0.0862,0.53251,0.0312,0.53251,0.2425,0,0.12625-0.0775,0.1725-0.21876,0.1725-0.23499,0-0.60375-0.07-1.08874-0.07-0.48626,0-0.84626,0.07-1.05,0.07-0.12501,0-0.1875-0.0625-0.1875-0.14125,0-0.18,0.17125-0.1875,0.39875-0.3125,0.1725-0.0937,0.27375-0.345,0.27375-0.72875v-3.07125c0-0.44625-0.007-0.66625-0.21875-0.83"/>
   <path d="m392.11175,735.11093c-0.6425,0-1.0025,0.0475-1.1675,0.415-0.195,0.42375-0.1175,0.65-0.3525,0.65-0.0863,0-0.125-0.055-0.125-0.1725,0-0.07,0.0863-0.4225,0.1325-1.04125,0.0163-0.25,0.0325-0.32125,0.2275-0.32125,0.21125,0,0.65125,0.0475,1.2925,0.0475h1.8575c0.67375,0,1.1275-0.0475,1.37875-0.0475,0.21875,0,0.28125,0.0163,0.2975,0.235l0.0625,0.79875v0.0713c0,0.14875,0,0.1725-0.11,0.1725-0.21125,0-0.14125-0.165-0.2825-0.43875-0.15625-0.30625-0.4375-0.36125-1.065-0.36125h-0.0625c-0.50125,0-0.595,0.009-0.595,0.37625v3.5025c0,0.40625,0.10125,0.64125,0.4225,0.7825,0.2275,0.1025,0.51,0.04,0.51,0.25875,0,0.11-0.0713,0.165-0.205,0.165-0.195,0-0.57125-0.0713-1.11125-0.0713-0.5725,0-1.01125,0.0788-1.26125,0.0788-0.14125,0-0.22-0.0712-0.22-0.165,0-0.1875,0.22-0.14875,0.4625-0.25,0.305-0.12625,0.43125-0.37625,0.43125-0.77625v-3.54875c0-0.32875-0.055-0.36-0.5175-0.36"/>
   <path d="m397.93987,738.04068c0-0.20375-0.055-0.29-0.11-0.38375l-1.135-2.1c-0.1575-0.2975-0.3525-0.50125-0.49375-0.56375-0.18-0.0788-0.4075-0.0312-0.4075-0.21875,0-0.1025,0.0788-0.14125,0.21125-0.14125,0.07,0,0.4,0.055,0.995,0.055,0.5175,0,0.8075-0.055,0.8925-0.055,0.13375,0,0.18875,0.015,0.18875,0.1325,0,0.22-0.43875,0.11-0.43875,0.43125,0,0.0713,0.0312,0.18,0.11,0.32125l0.87625,1.66875c0.0238,0.0462,0.055,0.0788,0.0788,0.0788,0.04,0,0.0712-0.0325,0.11-0.1025l0.74375-1.37125c0.0788-0.14875,0.1575-0.27375,0.1575-0.4225,0-0.19625-0.11749-0.33625-0.345-0.4-0.2425-0.0625-0.415,0-0.415-0.1875,0-0.0937,0.055-0.14125,0.18-0.14125,0.0863,0,0.36,0.0475,0.83,0.0475,0.26625,0,0.50125-0.055,0.67375-0.055,0.13375,0,0.18875,0.0312,0.18875,0.1325,0,0.1575-0.12625,0.14125-0.24375,0.18875-0.14125,0.055-0.3125,0.2275-0.46999,0.50875l-1.13501,2.08375c-0.0787,0.14125-0.0863,0.2275-0.0863,0.32125v0.0475,0.68875,0.25125c0,0.4625,0.015,0.7125,0.2575,0.8775,0.24375,0.15625,0.66626,0.0388,0.66626,0.305,0,0.11-0.0625,0.165-0.19625,0.165-0.20375,0-0.57876-0.0712-1.10375-0.0712-0.56375,0-0.995,0.0788-1.25375,0.0788-0.14125,0-0.21875-0.07-0.21875-0.165,0-0.21875,0.32-0.14,0.57875-0.29,0.29-0.15625,0.31375-0.375,0.31375-0.8225v-0.33625-0.55625z"/>
  </g>
 </g>
</svg>