<?xml version="1.0" encoding="UTF-8" standalone="no"?>
<svg xmlns:rdf="http://www.w3.org/1999/02/22-rdf-syntax-ns#" xmlns="http://www.w3.org/2000/svg" xml:space="preserve" height="69.347" width="137" version="1.1" xmlns:cc="http://creativecommons.org/ns#" xmlns:dc="http://purl.org/dc/elements/1.1/" viewBox="0 0 136.9968 69.348555"><g transform="matrix(.5 0 0 .5 .70645 .44839)"><path fill="#999" d="m114.21 1.038v14.678c-24.034 1.1-47.386 4.186-67.809 9.09-3.733-7.812-11.739-10.237-24.6-6.075-2.915 0.999-5.914 2.069-8.809 3.147l-10.164 3.781 5.0472 16.037v52.606l-7.2265 28.603 20.175-7.26 0.541-0.19 18.807 20.28 6.693-1.86c27.753-7.68 56.995-11.79 87.225-11.79 30.22 0 59.46 4.11 87.2 11.79l6.69 1.85 19.18-20.68 1.64 0.59 20.19 7.27-7.06-27.949c0.02-1.261 0.02-2.634 0.04-4.078v-38.028l8.68-11.751-4.41-1.645c-0.09-0.036-50.73-18.94-109.82-23.535v-14.699l-42.21-0.182z"/><path style="" d="m117.75 4.6055v14.516c-26.191 0.992-51.687 4.354-73.557 9.882-2.233-7.663-7.91-11.23-21.281-6.902-2.886 0.988-5.827 2.039-8.693 3.105l-7.0061 2.607 4.2011 13.342v53.592l-5.7031 22.572 13.916-5.01c0.912-0.33 1.826-0.66 2.742-0.98l18.926 20.41 4.613-1.28c28.058-7.76 57.622-11.92 88.172-11.92 30.54 0 60.1 4.16 88.15 11.92l4.61 1.28 19.29-20.8c1.29 0.45 2.58 0.9 3.86 1.37l13.92 5.01-5.54-21.951c0.02-1.377 0.02-2.889 0.04-4.504v-39.177l6.58-8.907s-52.15-19.47-112.13-23.56v-14.465l-35.11-0.1505z"/><path d="m134.09 92.592c-36.189 0-71.116 5.4104-104.02 15.455h-0.0039l13.75 14.828c28.734-7.9548 59.003-12.211 90.268-12.211 31.257 0 61.517 4.2548 90.244 12.207l13.75-14.828c-32.89-10.049-67.81-15.458-103.99-15.458z" transform="translate(-.0037385)" stroke="#074230" stroke-width=".19999" fill="#074230"/><path d="m132.97 12.186-3.4004 3.4629v34.434l3.6797-5.9492c-0.02 0.013-0.0503 0.02797-0.0703 0.04297v-31.99h-0.20898zm-3.4004 37.896v29.588l-6.3496 4.9434c-0.01 0.019-0.0195 0.03569-0.0195 0.05469 3.3199-0.103 6.6486-0.15611 9.9785-0.16211v-31.344c1.33-0.74798 2.6603-1.4877 3.9902-2.2207l4.2305-6.8867v-0.03711l-11.83 6.0645zm11.83-6.0645 0.0391-0.01758-0.0391 0.05469v35.797l-4.0098 4.6738c2.5399 0.025 5.0792 0.08111 7.6191 0.16211v-72.32c-0.05-0.002-0.10039-0.0029-0.15039-0.0039l-3.459 3.2871v28.367zm17.08-16.4c2.04 0.146 4.0694 0.31214 6.1094 0.49414v-0.002c-2.04-0.182-4.0694-0.34619-6.1094-0.49219zm6.1094 0.49414-2.6797 4.1406 3.2988 42.762 0.0312 0.002-0.0312 0.0332 0.5 6.5039-3.2988 4.0176v0.125c2.3799 0.198 4.7394 0.41807 7.1094 0.66406-1.64-19.427-3.2897-38.843-4.9297-58.248zm0.61914 46.938v-0.03516l-10.609-0.72461-0.0703 0.06445v-0.06836l-0.58984 6.9824-4.3496 3.6016c2.3499 0.107 4.6991 0.23854 7.0391 0.39453 0.19999-2.3299 0.38985-4.6574 0.58984-6.9863 1.57 0.108 3.1508 0.22647 4.7207 0.35547l3.2695-3.584zm-10.68-0.76367 0.0703 0.002 3.209-2.8281c0.63998-10.784 1.2819-21.565 1.9219-32.344 0.04 0.56498 0.0696 1.1304 0.0996 1.6934v-0.01953l-0.37109-8.2539-4.9297 41.748v0.002zm-61.337-45.237c-0.017 0.002-0.03187 0.0039-0.04687 0.0059l-2.5449 4.0469-6.3477 0.84961v25.803l3.7676-5.2188v-17.643c1.723-0.23099 3.4449-0.44835 5.1719-0.65234v-7.1914zm23.303 0.0332-1.9883 1.7949v14.857c0 5.2199-0.75 5.9883-0.75 5.9883 1.17 1.9199 0.96938 1.9431 1.1094 5.459 0.15999 3.9029-0.1211 11.748-0.1211 14.256 0 2.9529-0.0488 9.377-0.0488 9.377l-3.8906 4.4297v0.0293c3.3199-0.22199 6.6408-0.39549 9.9707-0.52148-0.79997-2.1959-1.6006-4.3901-2.3906-6.582v-9.1055c-0.49999-7.0268 1.2993-17.739-3.8106-17.555 3.4399-3.7529 3.7715-4.991 3.7715-8.7969 0.03-0.91398 0.0598-1.8292 0.0898-2.7422 0.04-5.7938-0.16146-9.1387-1.9414-10.889zm-2.7383 22.641-10.16 5.4238v23.705l-6.584 5.6055c-0.003 0.005-0.0039 0.01258-0.0059 0.01758 3.3099-0.35499 6.6293-0.66388 9.9492-0.92188v-26.361c1.27-0.71598 2.5406-1.423 3.8106-2.125l2.9902-5.3438zm-77.795-22.475-1.6094 2.2695v0.0332l0.002 18.389c0 6.4738-0.74609 7.6328-0.74609 7.6328 1.161 2.0579 0.95961 2.1439 1.0996 6.4668 0.155 4.7939-0.11328 14.595-0.11328 17.705 0 3.6609-0.05078 11.643-0.05078 11.643l-4.2793 7.0254c3.2069-1.008 6.4234-1.9688 9.6523-2.8828-0.77498-2.5649-1.5483-5.1276-2.3203-7.6855 0.022-3.6789 0-7.6819 0-11.383 0.001-5.9838 1.2635-22.464-3.6934-21.086 3.3289-5.4608 3.6592-7.0879 3.6582-11.844 0.028-1.15 0.05499-2.3012 0.08398-3.4512 0.043-6.9328-0.15364-10.952-1.6836-12.832zm-2.3535 28.324-10.047 9.5137-0.0078 0.01758v29.383l-6.5508 8.3965c3.1659-1.14 6.3452-2.2315 9.5352-3.2715v-32.955c1.238-1.184 2.4778-2.3584 3.7188-3.5273v0.03906l3.3516-7.5957zm-10.05 9.514 3.206-7.734c-0.075 0.073-0.15152 0.14675-0.22852 0.21875v-21.602c1.238-0.40499 2.4778-0.80337 3.7188-1.1934v0.04102l4.0957-5.2656-10.799 3.8066v31.736l0.0078-0.0078zm153.96-37.42-3.0898 3.3418 4.5508 43.332 1.5-10.512c-0.17999-2.2109-2.011-24.597-2.9609-36.162zm-63.027 1.25-10.9 0.63867v25.584l3.5606-5.332c-0.07 0.038-0.13922 0.07624-0.19922 0.11523v-17.281c1.27-0.098 2.5482-0.19235 3.8281-0.27734l3.72-3.448zm76.43 0.73047-2.9902 3.5391 5.6484 43.043 0.95117-9.8613s-0.01-0.206-0.01-0.58398c-0.39999-3.9039-2.5301-24.865-3.5801-36.133-0.01 0-0.01-0.0019-0.0195-0.0039zm-116.34 0.36-3.504 5.459-6.16 49.756-0.064-12.213c-1.07-13.503-2.14-27-3.209-40.492l-2.8066 4.9336 6.0391 47.828 0.03906-0.05078 0.002 0.39063-0.04102-0.33984-3.8047 4.9844c2.462-0.533 4.93-1.035 7.404-1.512 2.032-19.6 4.068-39.182 6.105-58.744zm130.44 2.3105-3.6582 3.4316-5.3106 47.789-4.2695 3.877c2.4799 0.42199 4.9598 0.87358 7.4297 1.3516 1.95-18.831 3.8999-37.646 5.8398-56.443-0.01-0.002-0.0213-0.0029-0.0312-0.0059zm-13.238 55.098-5.4004-40.105-5.9805 33.471-4.5293 4.3008c2.4899 0.30699 4.9908 0.64196 7.4707 1.002 1.41-9.7807 2.8188-19.554 4.2188-29.318 1.41 10.208 2.8208 20.425 4.2207 30.65zm24.85-52.438-3.4902 3.1562 0.0801 22.266 3.5-2.2598v-23.141l-0.0898-0.02148zm-166.3 0.16016-3.4336 4.9746v48.924l-3.9824 5.6621c2.4679-0.67498 4.9391-1.3205 7.416-1.9375v-57.623zm178.13 2.9453-4.2598 3.1641-4.2695 20.682 4.8398 28.824-2.6992 3.2402 6.7695 1.8672-5.0391-32.6 4.7598-25.15-0.10156-0.02734zm8.2012 5.084v21.656l3.1387-2.5117v-14.119c1.17 0.37899 2.3398 0.76426 3.5098 1.1562l3.7305-2.6543v-0.01563l-10.379-3.5117zm10.379 3.5117 0.01 0.0059-0.01 0.0098-0.0391 7.2383-3.6602 3.4316v0.06836c2.4099 0.80698 4.8093 1.641 7.1992 2.502 0.03-3.7629 0.0501 0.96407 0.0801-2.7988 0.04-5.8668 0.00074-9.4876-1.4492-12.062l-2.1308 1.5938v0.01172zm-153.59 2.78c-0.002 0-0.0029 0.002-0.0039 0.002l-2.5879 4.4219-6.5996 4.0078v24.703l3.7676-3.9219v-19.389c1.807-1.057 3.6149-2.0999 5.4238-3.1289v-6.6953zm-9.1914 33.135-3.7754 4.0605c4.312-0.675 8.634-1.267 12.966-1.777v-6.6934l-0.0293 0.0039-2.2461 3.2734-6.916 1.1328zm128.96-22.004l-0.19141 26.463-6.0098 3.3164 9.7012 2.2539v-27.412l0.0293 0.18945 3.1895-3.3926-6.7188-1.418zm23.449 4.2441-2.3906 2.0039c1.48 2.5889 4.1704 3.9597 9.0703 5.5156l3.3496-3.3828 0.0195 28.166-10.469-3.9355-0.01 0.01172v-0.0039l-2.4414 1.5625c1.3 2.5699 3.8201 4.2718 8.6699 5.8418 8.4998 2.8799 8.0001-2.5498 8.0801-11.813 0.03-4.4149 0.0601-4.1496 0.0801-8.5645 0.05-7.2498 0.16034-10.885-1.8496-13.369l-2.0508 2.0234 0.041 0.01172-0.0703 0.06445v-0.04883l0.0293-0.02734-10.059-4.0566zm-0.42969 28.375 0.01-0.0078 3.5586-2.334v-13.09-0.002l-3.5684 1.5215v13.912z" fill="#999" transform="translate(-.0037385)"/><path d="m132.96 12.191c-2.6899 0.009-9.5508 0.0957-9.5508 0.0957l2.2109 5.7168v57.918c-0.80997 2.8959-1.6102 5.7944-2.4102 8.6953l6.3496-4.9414v-29.59-34.432l3.4004-3.4629zm-3.4004 37.895 11.83-6.0645v-28.363l3.459-3.2891c-2.5199-0.08-5.0504-0.13516-7.5703-0.16016v29.682c-1.34 0.74098-2.6891 1.492-4.0391 2.25l-3.6797 5.9453zm11.83-6.0645v0.03906l0.0391-0.05469-0.0391 0.01563zm0 0.03906-4.2305 6.8848 0.11914-0.06641v33.65c0.03 0.001 0.0716 0.002 0.10156 0.002l4.0098-4.6738v-35.797zm10.969-16.822c0.57998 2.5299 1.16 5.0628 1.75 7.5957-1.51 16.67-3.0193 33.35-4.5293 50.039l4.3496-3.5996 0.58984-6.9824v0.06836l0.0703-0.06445-0.0605-0.0059 4.9199-41.748 0.37109 8.252v0.01953c0.60999 10.312 1.2181 20.625 1.8281 30.939-1.28-0.104-2.5696-0.20006-3.8496-0.28906l-3.209 2.8301 10.609 0.72656-3.3008-42.762 2.6816-4.1445c-4.0699-0.36499-8.1508-0.65601-12.221-0.875zm12.84 47.781v0.0332l0.0293-0.03125-0.0293-0.002zm0 0.0332-3.2695 3.584c0.02 0.001 0.0388 0.000906 0.0488 0.0039 0.13999 2.3109 0.27992 4.6236 0.41992 6.9355l3.3008-4.0176-0.5-6.5059zm-54.3-47.584c-0.38819-0.0066-0.79782-0.0043-1.2266 0.0059-1.15 0.026-2.4387 0.11024-3.8887 0.24024-2.9299 0.26599-5.8574 0.56721-8.7793 0.9082 0.80598 2.0979 1.612 4.1998 2.418 6.3027v44.623c-0.80398 2.3019-1.6081 4.6061-2.4121 6.9141l6.584-5.6055v-23.705l10.158-5.4238s0.75-0.77038 0.75-5.9902v-14.854l1.9902-1.7949c-1.1287-1.1042-2.8764-1.575-5.5938-1.6211zm2.8535 24.26-2.9902 5.3418c0.01-0.007 0.021-0.01644 0.041-0.02344v28.205l3.8906-4.4316s0.0488-6.426 0.0488-9.3789c0-2.5079 0.27109-10.35 0.1211-14.252-0.14-3.5169 0.0586-3.541-1.1113-5.4609zm-81.479-23.772c-1.706 0.088-3.9432 0.6585-6.8711 1.6055-2.8209 0.96797-5.6316 1.9756-8.4355 3.0176 0.77198 2.4529 1.5473 4.9073 2.3203 7.3652v55.781c-0.77298 3.0559-1.5483 6.11-2.3203 9.1699l0.03125-0.01 6.5508-8.3926v-29.385l0.0078-0.01953-0.0078 0.0078v-31.736l10.801-3.8047v-0.03516l1.6094-2.2676c-0.805-0.991-1.98-1.387-3.685-1.299zm2.0762 3.5996-4.0996 5.2637v19.223c-1.165 1.099-2.3263 2.2035-3.4883 3.3145l-3.2051 7.7324 10.047-9.5137s0.75-1.159 0.75-7.6328l-0.0039-18.387zm135.61-2.768c1.9 18.787 5.6506 55.798 5.8906 58.176v0.04102c0.01 0.05 0.01 0.08008 0.01 0.08008l4.5293-4.2988 5.9805-33.473 5.4004 40.105 4.2695-3.877 5.3086-47.789 3.6602-3.4336c-2.4799-0.52298-4.969-1.0173-7.459-1.4863-0.98997 11.86-2.9707 35.592-2.9707 35.592s-0.0206-0.22373-0.0606-0.63672c0 0.37599 0.0117 0.58398 0.0117 0.58398l-0.95117 9.8613-5.6504-43.045 2.9902-3.5391c-2.2499-0.37699-4.5001-0.73246-6.75-1.0645-1.17 12.092-3.6797 35.426-3.6797 35.426s-0.01-0.06369-0.0195-0.17969l-1.4902 10.512-4.5488-43.33 3.0898-3.3418c-2.5199-0.32099-5.0406-0.61682-7.5606-0.88281zm-76.818 0.27148c-5.0469 0.59998-10.081 1.3089-15.102 2.1309 0.80098 2.1429 1.6023 4.2857 2.4043 6.4336v44.088 6.9492c0.01-0.002 0.0193-0.0029 0.0293-0.0039l3.7754-4.0605v-24.705l6.5996-4.0078 2.5879-4.4219c-1.808 1.029-3.614 2.0709-5.4199 3.1289v-0.05469l-3.7676 5.2207v-25.801l6.3477-0.85156 2.5449-4.0449zm21.35 1.8613-3.709 3.4434c0.01 0 0.01 0.001 0.0195 0v15.41c-1.22 0.67298-2.4404 1.3511-3.6504 2.0371l-3.5586 5.334v-25.586l10.898-0.63867zm-39.922 1.0898c-2.3679 0.41199-4.7348 0.84856-7.0957 1.3105-0.74198 8.7628-1.4827 17.527-2.2227 26.293v0.74219c0 4.8549-0.24616 9.7644-0.41016 14.654l0.0625 12.219 0.002-0.0039 6.1602-49.756 3.5039-5.459zm-12.938 2.5078c-2.4379 0.52199-4.8699 1.0695-7.2988 1.6445 2.2379 18.678 4.4797 37.38 6.7246 56.104l3.8047-4.9824 0.04297 0.33594v-0.39062l-0.04102 0.05078-6.0391-47.828 2.8066-4.9336zm147.71 0.74414v50.803l-2.3809 6.2949 0.0508 0.01172 6.0098-3.3164 0.18946-26.465 6.7207 1.418-3.1914 3.3945 5.2695 28.578 0.0605 0.01563 2.7012-3.2402-4.8398-28.826 4.2695-20.682 4.2598-3.1641-7.3398-1.9629-4.4102 22.094v-0.07227l-3.5 2.2598-0.0801-22.266 3.4902-3.1582-7.2793-1.7168zm-159.01 1.88c-2.4769 0.61698-4.9491 1.2616-7.416 1.9355v9.084 48.541l3.9805-5.6621v-48.926l3.4355-4.9727zm188.12 4.25c-5.4198-0.072-5.9683 6.6656-5.9883 10.02 0 9.3147 0.009 14.274 1.8086 17.428l2.3906-2.0039 10.061 4.0566-0.0312 0.02734v0.05078l0.0703-0.06445-0.0391-0.01563 2.0488-2.0195c-1.37-1.687-3.7199-2.8414-7.7598-4.2363-0.39999-0.098-0.809-0.19502-1.209-0.29102v-0.02734l-3.1406 2.5117v-21.658l10.379 3.5137v-0.01367l2.1309-1.5938c-1.29-2.2759-3.6702-3.736-8.0801-5.209-0.98997-0.31799-1.8606-0.46461-2.6406-0.47461zm8.5898 7.291v0.01367l0.0117-0.0098-0.0117-0.0039zm0 0.01367-3.7285 2.6562c0.01 0.003 0.0193 0.0039 0.0293 0.0059v8.0078l3.6602-3.4316 0.0391-7.2383zm-0.34961 22.273-3.3496 3.3867v19.705c-1.18-0.39299-2.3591-0.77912-3.5391-1.1621v-0.02734l-3.5508 2.332 10.459 3.9355-0.0195-28.17zm-203.78-22.811v48.543-48.543zm-9.3008 9.416-3.3516 7.5957v35.246h0.0078l4.2793-7.0254s0.05078-7.9817 0.05078-11.643c0-3.1099 0.26828-12.912 0.11328-17.707-0.14-4.3229 0.06136-4.4089-1.0996-6.4668zm198.93 19.945c-0.03 3.6279-0.0601 2.5743-0.0801 6.2012-0.05 6.1648-0.12988 10.159 1.3301 13.051l2.4394-1.5605v-13.912l3.5703-1.5215c-2.4199-0.77898-4.8398-1.5328-7.2598-2.2578zm3.6894 17.691v0.0039l0.01-0.01172-0.01 0.0078zm-142.82-15.021c-1.798 0.21199-3.5966 0.43674-5.3926 0.67774v-0.19336l-3.7656 3.9219 6.9121-1.1328 2.2461-3.2734zm37.613 16.582-0.27929 0.0078c-0.09 0.42499-0.19033 0.52911-0.57032 0.53711l-9.3301 0.22656c-0.37999 0.009-0.47962-0.08878-0.59961-0.50977l-0.30078 0.0078 0.0898 3.6445 0.30078-0.01c0.09-0.41998 0.19032-0.53101 0.57031-0.54101l3.1895-0.0703 0.16992 7.1113c0.01 0.37999-0.0898 0.47962-0.50977 0.59961l0.01 0.2793 4-0.0996v-0.2793c-0.42999-0.09-0.50953-0.19032-0.51953-0.57031l-0.16993-7.1133 3.1582-0.07617c0.37999-0.01 0.49156 0.08978 0.60156 0.50976l0.2793-0.01-0.0898-3.6445zm9.4492 0.56641-0.01 0.28125c0.41999 0.115 0.50023 0.21857 0.49023 0.60156l-0.30078 8.8438c-0.02 0.37999-0.0993 0.48055-0.5293 0.56054v0.29102l7.2891 0.23828c2.8999 0.1 4.4007-0.89826 4.4707-2.9082 0.04-1.13-0.62074-2.0008-1.9707-2.5508 1.23-0.49999 1.8196-1.19 1.8496-2.25 0.06-1.656-1.2186-2.7666-3.7285-2.8516l-7.5606-0.25586zm-34.799 0.9668c-0.21999 0-0.44946 0.0083-0.68945 0.02734-3.7299 0.30699-6.0039 2.9232-5.7539 5.9531 0.24999 3.0299 2.9644 5.2592 6.6543 4.9492 3.6999-0.29999 6.0098-2.9388 5.7598-5.9688-0.24-2.8399-2.6008-4.9599-5.9707-4.9609zm58.219 0.25976-0.0195 0.2832c0.21 0.04 0.28953 0.12471 0.26953 0.3457-0.01 0.08-0.0902 0.29743-0.24023 0.60742l-3.4707 7.3242c-0.28 0.60999-0.4701 1.1194-1.0801 1.3594l-0.0195 0.28125 3.5898 0.33984 0.0312-0.29101c-0.27999-0.1-0.41086-0.25954-0.38086-0.51953 0.01-0.1 0.0394-0.20009 0.10938-0.33008l0.53125-1.0996 4.8887 0.44922 0.32031 1.1797c0.06 0.23 0.0901 0.37071 0.0801 0.47071-0.02 0.17999-0.14993 0.29008-0.41992 0.33008l-0.0195 0.27929 3.8496 0.35156 0.0293-0.28125c-0.34999-0.16999-0.39875-0.35891-0.46875-0.6289l-2.5801-8.75c-0.09-0.33699-0.12109-0.58354-0.12109-0.64453 0.02-0.21999 0.11008-0.29102 0.33008-0.29102l0.0312-0.28125-5.2402-0.48438zm-20.01 1.0449 3.0703 0.10547c1.35 0.046 1.9204 0.26625 1.9004 0.99023-0.02 0.62998-0.6005 0.93063-1.7305 0.89063l-3.3008-0.11133 0.0606-1.875zm37.488 0.83594-0.0391 0.27929c0.40999 0.16 0.47015 0.2804 0.41015 0.65039l-1.3105 8.75c-0.05 0.37999-0.15009 0.46977-0.58008 0.50977l-0.0391 0.2793 9.8789 1.4805c0.37999 0.05 0.46977 0.15009 0.50977 0.58008l0.26953 0.041 0.53125-3.4805-0.28125-0.0508c-0.17 0.40999-0.27821 0.4914-0.6582 0.4414l-6.4414-0.9707 1.0703-7.1406c0.06-0.36999 0.16939-0.46 0.60938-0.5l0.041-0.26953-3.9707-0.59961zm-95.926 0.15039c-0.43199-0.01-0.88272 0.0201-1.3457 0.0801-3.7099 0.52999-5.8206 3.2692-5.3906 6.2891 0.42999 3.0099 3.2696 5.071 6.9395 4.541 3.6699-0.51998 5.8177-3.2909 5.3867-6.3008-0.37599-2.6399-2.5629-4.5294-5.5898-4.6094zm80.697 0.0996 1.4004 4.8008-3.5313-0.32032 2.1309-4.4805zm-60.949 0.0898c1.8999-0.16 3.2309 0.98005 3.3808 2.75 0.14 1.77-0.96114 3.09-2.8711 3.25-1.95 0.15999-3.2484-0.94052-3.3984-2.7305-0.14999-1.79 0.99873-3.1195 2.8887-3.2695zm-35.885 1.9297-0.27734 0.0605c-0.015 0.43999-0.09181 0.55891-0.4668 0.62891l-9.5996 1.9512 0.05664 0.26953c0.43499 0.02 0.53338 0.10048 0.60938 0.48047l1.7559 8.6699c0.076 0.36999 0.01804 0.47993-0.37695 0.66993l0.05664 0.26953 3.9277-0.78907-0.05469-0.28125c-0.43499-0.01-0.55391-0.0888-0.62891-0.46875l-0.625-3.0801 4.0488-0.82032c0.37499-0.08 0.51036-0.0208 0.69336 0.36914l0.27344-0.0488-0.65039-3.2207-0.27539 0.0606c-0.015 0.42999-0.11915 0.52938-0.49414 0.60938l-4.0469 0.82031-0.36133-1.7793 6.1816-1.25c0.37599-0.08 0.49474-0.002 0.67773 0.39844l0.27539-0.0586-0.69922-3.4609zm15.824 0.34961c1.54 0.05 2.6355 1.0599 2.8535 2.5898 0.25199 1.76-0.77107 3.1499-2.666 3.4199-1.9349 0.26999-3.3026-0.74934-3.5566-2.5293-0.25399-1.77 0.80864-3.1697 2.6836-3.4297 0.23699-0.04 0.46555-0.0508 0.68555-0.0508zm58.631 0.41015 3 0.10156c1.57 0.06 2.3191 0.39909 2.2891 1.2891-0.03 0.96997-0.79926 1.1498-2.4492 1.0898l-2.9297-0.0996 0.0899-2.3809zm57.559 0.25-0.0605 0.28125c0.39999 0.18 0.45891 0.29993 0.37891 0.66992l-1.8184 8.6582c-0.08 0.36999-0.18134 0.4607-0.61133 0.4707l-0.0605 0.26953 9.7812 2.0606c0.37999 0.08 0.45875 0.16939 0.46875 0.60937l0.28125 0.0606 0.71875-3.4492-0.2793-0.0605c-0.18 0.38998-0.29993 0.47062-0.66992 0.39062l-6.3809-1.3301 1.4902-7.0703c0.08-0.36999 0.19087-0.45094 0.63086-0.46094l0.0606-0.27929-3.9297-0.82032z" fill="#fff" transform="translate(-.0037385)"/></g></svg>