<?xml version="1.0" encoding="UTF-8" standalone="no"?>
<svg xmlns:rdf="http://www.w3.org/1999/02/22-rdf-syntax-ns#" xmlns="http://www.w3.org/2000/svg" xml:space="preserve" height="21.238" viewBox="0 0 102.77441 21.238119" width="102.77" version="1.1" xmlns:cc="http://creativecommons.org/ns#" xmlns:dc="http://purl.org/dc/elements/1.1/"><g transform="matrix(1.25 0 0 -1.25 -697.69 470.71)"><g transform="matrix(.5 0 0 .5 299.84 184.14)"><path d="m553.44 359.62-0.259 3.299c1.712 0.445 1.592 1.508 1.509 2.227l-0.022 0.218-0.418 4.229-0.225 2.27-0.796 0.099-0.133-0.307c-0.315-0.728-0.645-1.46-0.984-2.195-1.415-3.057-3.046-6.175-4.959-9.469-0.4 0.007-0.799 0.008-1.2 0.008-1.201-0.003-2.406-0.036-3.603-0.1-1.981 3.339-3.646 6.495-5.064 9.592-0.272 0.595-0.539 1.189-0.792 1.781l-0.139 0.322-0.781-0.132-0.246-1.849-0.619-4.657-0.03-0.216c-0.072-0.491-0.154-1.05 0.209-1.528 0.241-0.318 0.631-0.533 1.206-0.661l-0.373-3.316c-5.171-0.767-10.254-2.105-15.13-3.986l0.917 3.249c1.84 1.223 2.059 2.096 2.272 2.94l0.053 0.207 2.362 8.91 0.483 1.823 0.047 0.172c0.168 0.598 0.356 1.275-0.015 1.759-0.149 0.194-0.358 0.324-0.635 0.391l1 3.549c4.723 1.869 9.679 3.029 14.744 3.45 1.138-2.874 2.492-5.868 4.028-8.902l0.125-0.245h0.657l0.123 0.242c1.557 3.027 2.927 6.009 4.074 8.867 4.919-0.449 9.735-1.595 14.324-3.412l1.002-3.549c-0.276-0.067-0.486-0.197-0.636-0.391-0.371-0.484-0.182-1.161-0.015-1.758l0.422-1.592 2.47-9.313 0.054-0.208c0.212-0.845 0.431-1.717 2.273-2.94l0.915-3.249c-5.844 2.256-11.959 3.725-18.195 4.371m17.908-0.471c-1.675 1.081-1.842 1.741-2.033 2.503l-0.056 0.219-2.45 9.241-0.397 1.498-0.048 0.178c-0.09 0.318-0.238 0.851-0.136 0.983 0.034 0.045 0.168 0.096 0.436 0.096l0.656-0.014-0.661 2.342c-0.185 0.748-0.371 1.495-0.557 2.242l-0.083 0.03-0.124 0.442-0.205 0.082c-4.836 1.938-9.923 3.143-15.119 3.584l-0.332 0.028-0.123-0.308c-1.076-2.712-2.357-5.54-3.813-8.416-1.435 2.883-2.703 5.723-3.772 8.449l-0.12 0.306-0.331-0.024c-5.343-0.41-10.572-1.628-15.543-3.619l-0.205-0.082-0.124-0.442-0.082-0.03c-0.186-0.744-0.372-1.491-0.558-2.235l-0.661-2.349 0.655 0.014c0.269 0 0.403-0.051 0.437-0.096 0.102-0.133-0.047-0.666-0.136-0.983l-0.558-2.108-2.338-8.809-0.055-0.219c-0.193-0.762-0.358-1.422-2.035-2.503l-0.141-0.092-1.493-5.299 0.843 0.337c5.169 2.072 10.588 3.521 16.104 4.31l0.343 0.05 0.545 4.841-0.432 0.058c-0.544 0.074-0.905 0.21-1.043 0.392-0.129 0.171-0.101 0.441-0.038 0.865l0.032 0.232 0.626 4.711 0.012 0.086 0.041-0.089c1.503-3.333 3.291-6.73 5.443-10.336l0.139-0.232 0.272 0.016c1.748 0.098 3.518 0.134 5.27 0.101l0.264-0.005 0.131 0.226c2.074 3.555 3.825 6.908 5.327 10.197 0.064 0.141 0.131 0.284 0.194 0.425l0.04-0.412 0.421-4.251 0.025-0.231c0.084-0.741 0.125-1.113-1.176-1.343l-0.399-0.07 0.378-4.825 0.373-0.037c6.581-0.647 13.029-2.22 19.163-4.679l0.843-0.337-1.494 5.299-0.142 0.092z" fill="#ffcf00"/><path d="m536.22 369.55 0.053-0.003-0.041 0.089-0.012-0.086z" fill="#fdd804"/><path d="m552.98 358.77-0.373 0.037-0.378 4.825 0.399 0.07c1.301 0.23 1.259 0.601 1.175 1.342l-0.024 0.232-0.421 4.251-0.04 0.412c-0.063-0.142-0.13-0.284-0.194-0.426-1.502-3.289-3.253-6.641-5.327-10.196l-0.132-0.226-0.264 0.005c-1.751 0.032-3.522-0.003-5.27-0.101l-0.272-0.016-0.138 0.232c-2.152 3.606-3.94 7.002-5.444 10.335l-0.053 0.004-0.625-4.711-0.033-0.233c-0.062-0.423-0.09-0.694 0.039-0.864 0.138-0.183 0.499-0.318 1.043-0.392l0.432-0.058-0.545-4.842-0.343-0.049c-5.516-0.789-10.936-2.238-16.104-4.31l-0.844-0.337 1.494 5.299 0.141 0.091c1.677 1.082 1.842 1.741 2.034 2.504l0.055 0.219 2.338 8.809 0.559 2.107c0.089 0.318 0.237 0.851 0.135 0.984-0.033 0.045-0.168 0.095-0.436 0.095l-0.655-0.013 0.661 2.348c0.186 0.745 0.372 1.492 0.558 2.236l0.082 0.029 0.124 0.443 0.205 0.082c4.97 1.99 10.2 3.209 15.543 3.618l0.33 0.025 0.121-0.306c1.068-2.727 2.336-5.566 3.772-8.449 1.455 2.875 2.737 5.703 3.813 8.416l0.122 0.308 0.333-0.028c5.196-0.441 10.283-1.646 15.119-3.584l0.204-0.082 0.125-0.443 0.082-0.029c0.186-0.748 0.373-1.494 0.558-2.242l0.66-2.342-0.656 0.013c-0.267 0-0.401-0.05-0.436-0.095-0.101-0.133 0.047-0.666 0.136-0.984l0.048-0.178 0.398-1.498 2.45-9.24 0.056-0.219c0.191-0.763 0.357-1.422 2.033-2.504l0.142-0.091 1.494-5.299-0.843 0.337c-6.134 2.458-12.582 4.032-19.163 4.679m19.696 1.194-0.656 0.409c-1.124 0.698-1.18 0.95-1.301 1.501l-0.052 0.237-2.176 9.302-0.204 0.874 1.321-0.004-1.887 7.581-0.947 0.35c-5.134 1.9-10.506 3.082-15.966 3.514l-1.392 0.11-0.533-1.28c-0.772-1.854-1.631-3.762-2.565-5.702-0.923 1.946-1.771 3.862-2.537 5.725l-0.523 1.279-1.389-0.099c-5.616-0.401-11.138-1.594-16.411-3.547l-0.949-0.35-1.878-7.574h1.313l-0.318-1.361-2.062-8.818-0.053-0.236c-0.122-0.552-0.177-0.804-1.301-1.502l-0.656-0.409-2.113-8.485 3.402 1.259c5.049 1.87 10.316 3.177 15.658 3.888l1.505 0.201 0.473 4.803c0.641-1.159 1.313-2.334 2.022-3.532l0.589-0.999 1.166 0.061c1.694 0.091 3.409 0.121 5.106 0.092l1.134-0.02 0.563 0.978c0.622 1.08 1.217 2.141 1.787 3.189l0.293-4.291 1.626-0.149c6.367-0.584 12.632-2.003 18.622-4.221l3.404-1.259-2.115 8.485z"/><path d="m30.475 2.707c-6.3312 0.52625-12.527 1.975-18.43 4.3125l-1.25 4.4355c0.345 0.08375 0.60672 0.24578 0.79297 0.48828 0.46375 0.605 0.22828 1.4517 0.01953 2.1992l-0.05859 0.21484-0.60547 2.2773-2.9512 11.139-0.066406 0.25976c-0.265 1.0562-0.53984 2.1451-2.8398 3.6738l-1.1465 4.0605c6.0937-2.35 12.447-4.0217 18.912-4.9805l0.46875-4.1465c-0.72-0.16-1.2085-0.42867-1.5098-0.82617-0.45375-0.5975-0.34977-1.2964-0.25977-1.9102l0.03711-0.26953 0.77344-5.8203 0.30664-2.3125 0.97656-0.16406 0.17383 0.40234c0.3175 0.74 0.65024 1.4803 0.99024 2.2266 1.7725 3.87 3.8538 7.8165 6.3301 11.99 1.495-0.08 3.0027-0.12125 4.5039-0.125 0.5 0 1 0.001 1.5 0.0098 2.3912-4.1175 4.4298-8.0147 6.1973-11.836 0.42375-0.91875 0.83672-1.8341 1.2305-2.7441l0.16602-0.38477 0.99609 0.125 0.28125 2.8379 0.52148 5.2852 0.0293 0.27344c0.1025 0.89875 0.25133 2.227-1.8887 2.7832l0.32617 4.123c7.795 0.8075 15.437 2.6454 22.742 5.4629l-1.1426-4.0605c-2.3025-1.5288-2.5768-2.6176-2.8418-3.6738l-0.06836-0.25976-3.0859-11.643-0.52734-1.9902c-0.20875-0.74625-0.44492-1.5923 0.01758-2.1973 0.18875-0.2425 0.44992-0.40453 0.79492-0.48828l-1.251-4.4375c-5.7375-2.2712-11.757-3.7044-17.904-4.2656-1.435 3.5725-3.1475 7.3002-5.0938 11.084l-0.15234 0.30273h-0.82226l-0.1582-0.30664c-1.919-3.794-3.612-7.5345-5.033-11.127zm62.27 4.0449c-4.2762 0-4.2773 3.0998-4.2773 6.3535 0 3.22 0.0011 6.3555 4.2773 6.3555s4.2754-3.1355 4.2754-6.3555c0-3.2538 0.00086-6.3535-4.2754-6.3535zm72.295 0c-3.16 0-4.0879 1.532-4.0879 3.457 0 3.6638 5.2227 3.8006 5.2227 6.0156 0 0.83375-0.43039 1.3965-1.3066 1.3965-1.425 0-1.4766-0.98781-1.4766-2.1641h-2.5918c-0.1375 2.13 0.46258 4.0039 3.6738 4.0039 1.975 0 4.3281-0.37555 4.3281-3.5605 0-3.8675-5.2207-3.663-5.2207-5.998 0-0.85125 0.49859-1.3105 1.3398-1.3105 1.0475 0 1.2012 0.93547 1.2012 1.8555h2.5234c0.1725-2.5725-1.0805-3.6953-3.6055-3.6953zm-90.811 0.20312v12.301h2.5234v-9.4883h0.03516l2.2676 9.4883h2.4727l2.3867-9.4883h0.03516v9.4883h2.5234v-12.301h-4.0352l-2.0605 8.3652h-0.0332l-1.9414-8.3652h-4.1738zm34.404 0v12.301h6.9043v-1.8906h-4.3106v-3.5938h3.8457v-1.8926h-3.8457v-3.0312h4.1719v-1.8926h-6.7656zm8.6758 0v12.301h2.5918v-5.4844h2.9707v5.4844h2.5938v-12.301h-2.5938v4.9238h-2.9707v-4.9238h-2.5918zm10.408 0v12.301h6.9023v-1.8906h-4.3086v-3.5938h3.8457v-1.8926h-3.8457v-3.0312h4.1719v-1.8926h-6.7656zm41.961 0v2.0449h2.8867v10.256h2.5918v-10.256h2.8848v-2.0449h-8.3633zm17.021 0v2.0449h2.8867v10.256h2.5918v-10.256h2.8848v-2.0449h-8.3633zm9.5684 0v12.301h6.9023v-1.8906h-4.3086v-3.5938h3.8457v-1.8926h-3.8457v-3.0312h4.1719v-1.8926h-6.7656zm-97.236 0.00195v12.299h2.5938v-5.0938h0.66992c1.9912 0 1.8535 1.244 1.8535 2.709 0 0.8-0.0671 1.6348 0.27539 2.3848h2.543c-0.24125-0.51125-0.29297-2.8276-0.29297-3.6113 0-2.2138-1.6825-2.3512-2.25-2.4199v-0.0332c1.6838-0.2725 2.3008-1.4481 2.3008-3.0156 0-2.095-1.1323-3.2187-2.9023-3.2187h-4.791zm39.764 0-3.4355 12.299h2.5586l0.70508-2.7246h3.5371l0.6875 2.7246h2.7305l-3.3672-12.299h-3.416zm8.0566 0v12.299h4.2227c4.4312 0 4.1387-4.3275 4.1387-6.2188 0-3.8325-0.63516-6.0801-4.0352-6.0801h-4.3262zm33.854 0-3.4356 12.299h2.5586l0.70508-2.7246h3.5391l0.68554 2.7246h2.7305l-3.3672-12.299h-3.416zm-87.966 1.6348c1.46 0 1.6484 1.3624 1.6484 4.5137 0 3.1512-0.18844 4.5137-1.6484 4.5137s-1.6484-1.3624-1.6484-4.5137 0.18844-4.5137 1.6484-4.5137zm8.8809 0.25586h1.1504c0.82375 0 1.3223 0.44219 1.3223 1.6172 0 0.78375-0.29227 1.8066-1.3223 1.8066h-1.1504v-3.4238zm47.818 0h1.3398c1.8025 0 1.8027 1.9916 1.8027 4.2578 0 3.0838-0.30867 4.2598-1.8887 4.2598h-1.2539v-8.5176zm-9.1211 0.47656h0.0351l1.2539 5.3145h-2.4746l1.1856-5.3145zm41.91 0h0.0352l1.2539 5.3145h-2.4746l1.1855-5.3145zm-19.89 13.414c-2.0775 0-3.6426 1.1579-3.6426 3.3379 0 3.6975 5.5644 3.3909 5.5644 6.1172 0 1.465-0.96109 1.9922-2.2148 1.9922-1.0125 0-2.0781-0.52727-2.0781-2.1973v-0.35742h-1.5625c-0.035 1.175-0.0345 3.9517 3.623 3.918 2.0438 0 3.8477-0.83578 3.8477-3.4258 0-3.9012-5.5644-3.508-5.5644-6.2168 0-1.3288 0.96125-1.8066 1.9062-1.8066 1.4938 0 1.9225 0.88617 1.9062 2.2324h1.6484c0.10375-2.505-1.1673-3.5938-3.4336-3.5938zm-87.736 0.25391v7.8027c0 3.4075 1.2709 4.7539 3.8984 4.7539s3.8965-1.3464 3.8965-4.7539v-7.8027h-1.5801v7.8711c0 2.6912-0.82266 3.373-2.3164 3.373-1.495 0-2.3184-0.6818-2.3184-3.373v-7.8711h-1.5801zm15.578 0v12.301h1.4082v-10.664h0.0332l4.8965 10.664h2.1621v-12.301h-1.4082v10.529h-0.0332l-4.8262-10.529h-2.2324zm16.523 0v12.301h1.5801v-12.301h-1.5801zm8.3496 0 3.5879 12.301h1.8887l3.625-12.301h-1.6152l-2.9023 10.818h-0.0352l-2.832-10.818h-1.7168zm15.664 0v12.301h6.4902v-1.3633h-4.9102v-4.2578h4.4648v-1.3633h-4.4648v-3.9531h4.8086v-1.3633h-6.3887zm13.5 0v12.301h1.5801v-5.6562h1.8535c0.53375 0 1.753 0.06961 1.873 1.5684 0.1375 1.635 0.0342 3.2354 0.48047 4.0879h1.6484c-0.24125-0.76625-0.41218-2.6932-0.42968-3.2207-0.085-2.47-0.6004-2.9467-2.0254-3.168v-0.0332c1.46-0.255 2.2676-1.3638 2.2676-2.8125 0-1.5325-0.77515-3.0664-2.9726-3.0664h-4.2754zm29.234 0v12.301h1.5801v-12.301h-1.5801zm8.3652 0v1.3633h3.2637v10.938h1.5801v-10.938h3.2617v-1.3633h-8.1055zm13.432 0 3.332 7.6152v4.6855h1.5801v-4.6855l3.3828-7.6152h-1.5977l-2.5059 5.9473-2.4219-5.9473h-1.7695zm-49.451 1.3633h2.3867c1.2188 0 1.666 0.98875 1.666 1.875 0 1.0725-0.54984 2.043-1.6836 2.043h-2.3692v-3.918z" transform="matrix(.8 0 0 -.8 517.44 383.86)" fill="#005eb8"/></g></g></svg>
