<?xml version="1.0" encoding="UTF-8" standalone="no"?>
<!-- Created with Inkscape (http://www.inkscape.org/) -->

<svg
   xmlns:dc="http://purl.org/dc/elements/1.1/"
   xmlns:cc="http://creativecommons.org/ns#"
   xmlns:rdf="http://www.w3.org/1999/02/22-rdf-syntax-ns#"
   xmlns:svg="http://www.w3.org/2000/svg"
   xmlns="http://www.w3.org/2000/svg"
   version="1.1"
   width="484.30731"
   height="313.80414"
   id="svg5507">
  <defs
     id="defs5509" />
  <g
     transform="translate(-106.41778,-418.31725)"
     id="layer1">
    <path
       d="m 542.41285,511.11707 -2.23777,-3.87613 -12.12389,6.99835 0,-13.99936 -4.4782,0 0,13.99936 -12.12123,-6.99835 -2.24043,3.87613 12.12123,7.00101 -12.12123,6.99835 2.24043,3.87879 12.12123,-6.99834 0,13.99669 4.4782,0 0,-13.99669 12.12389,6.99834 2.23777,-3.87879 -12.12123,-6.99835 12.12123,-7.00101 z"
       id="path1540"
       style="fill:#47bb3a;fill-opacity:1;fill-rule:nonzero;stroke:none" />
    <path
       d="m 486.6384,430.19705 -2.23777,-3.87879 -12.12389,7.00101 0,-14.00202 -4.4782,0 0,14.00202 -12.12123,-7.00101 -2.24576,3.87879 12.1239,6.99835 -12.1239,7.00101 2.24576,3.87613 12.12123,-6.99835 0,13.99936 4.4782,0 0,-13.99936 12.12389,6.99835 2.23777,-3.87613 -12.12656,-7.00101 12.12656,-6.99835 z"
       id="path1544"
       style="fill:#ed1c24;fill-opacity:1;fill-rule:nonzero;stroke:none" />
    <path
       d="m 429.84232,444.26542 -2.23244,-3.87879 -12.12922,7.00101 0,-13.99669 -4.47553,0 0,13.99669 -12.1239,-7.00101 -2.24043,3.87879 12.12656,6.99835 -12.12656,7.00101 2.24043,3.87879 12.1239,-7.00367 0,14.00202 4.47553,0 0,-13.99936 12.12922,7.00101 2.23244,-3.87879 -12.12123,-7.00101 12.12123,-6.99835 z"
       id="path1548"
       style="fill:#d70a7a;fill-opacity:1;fill-rule:nonzero;stroke:none" />
    <path
       d="m 469.62739,530.56432 -2.23777,-3.88145 -12.12123,6.99834 0,-13.99669 -4.47819,0 0,14.00202 -12.1239,-7.00367 -2.24043,3.88145 12.12656,6.99835 -12.12656,7.00101 2.24043,3.87347 12.1239,-6.99835 0,14.00202 4.47819,0 0,-13.99936 12.12123,6.99569 2.23777,-3.87347 -12.12123,-7.00101 12.12123,-6.99835 z"
       id="path1552"
       style="fill:#f68712;fill-opacity:1;fill-rule:nonzero;stroke:none" />
    <path
       d="m 589.72508,607.95424 -2.23777,-3.87879 -12.12922,6.99835 0,-13.99936 -4.47287,0 0,13.99936 -12.12656,-6.99835 -2.2351,3.87879 12.12123,6.99569 -12.12123,7.00101 2.2351,3.87613 12.12656,-6.99569 0,13.99403 4.47287,0 0,-13.99403 12.12922,6.99569 2.23777,-3.87613 -12.12123,-7.00101 12.12123,-6.99569 z"
       id="path1556"
       style="fill:#3453ac;fill-opacity:1;fill-rule:nonzero;stroke:none" />
    <path
       d="m 429.84232,706.2449 -2.23244,-3.87613 -12.12922,6.99835 0,-13.99669 -4.47553,0 0,13.99669 -12.1239,-6.99835 -2.24043,3.87613 12.12922,6.99835 -12.12922,7.00367 2.24043,3.87613 12.1239,-7.00101 0,13.99936 4.47553,0 0,-13.99669 12.12922,6.99834 2.23244,-3.87613 -12.12656,-7.00367 12.12656,-6.99835 z"
       id="path1560"
       style="fill:#ab7d10;fill-opacity:1;fill-rule:nonzero;stroke:none" />
    <path
       d="m 403.48028,490.8485 c -1.64284,0.0186 -3.34127,0.49639 -5.03125,1.46875 -5.7063,3.28472 -6.87613,9.48681 -3,16.21875 3.67899,6.39362 9.49521,8.75554 15.96875,5.03125 2.52814,-1.45987 5.04219,-3.74768 6.0625,-5.9375 l -1.6875,-3.3125 c -0.96437,2.09658 -3.12248,4.47784 -5.4375,5.8125 -3.47919,1.99801 -7.10976,1.33464 -9.875,-2.78125 l 11.0625,-6.375 c 0.94306,-0.54079 1.55625,-1.07744 1.71875,-1.6875 0.18382,-0.67665 -0.0571,-1.46606 -0.53125,-2.28125 -2.30953,-4.01282 -5.63575,-6.19705 -9.25,-6.15625 z m -0.53125,3.6875 c 2.04148,0.0781 3.90052,1.55701 5.34375,4.0625 0.14918,0.25575 0.10482,0.50973 -0.15625,0.65625 l -9.25,5.3125 c -2.27773,-4.74459 -1.47651,-7.71819 1.1875,-9.25 0.99068,-0.57109 1.94705,-0.81677 2.875,-0.78125 z m -36.15625,5.15625 -4.21875,2.4375 16.875,29.34375 4.21875,-2.4375 -6.90625,-12 c -1.2068,-2.09923 -1.76906,-3.6351 -1.5,-5.15625 0.19181,-1.25208 1.20488,-2.57897 2.75,-3.46875 1.50516,-0.86047 2.87507,-1.0745 4.03125,-0.65625 1.35332,0.47153 2.13716,1.51747 3.21875,3.40625 l 7.3125,12.75 4.21875,-2.4375 -7.71875,-13.375 c -1.47586,-2.57343 -2.96922,-3.98635 -4.6875,-4.59375 -2.01665,-0.72461 -4.728,-0.38303 -7.5625,1.25 -2.05661,1.18549 -3.67724,3.0439 -4.25,5.03125 l -5.78125,-10.09375 z m -13.25,10.25 -3.4375,3.65625 3.0625,5.3125 -3.1875,1.8125 1.78125,3.09375 3.1875,-1.8125 6.71875,11.6875 c 1.30803,2.27773 2.37055,3.39332 3.84375,3.96875 1.47852,0.57809 3.58847,0.29112 5.5625,-0.84375 1.673,-0.96171 2.88922,-2.29925 3.53125,-3.46875 l -1.625,-3.0625 c -0.40759,0.98035 -1.36103,2.08861 -2.5625,2.78125 -2.01399,1.16151 -3.30488,0.37168 -4.6875,-2.03125 l -6.59375,-11.46875 4.90625,-2.8125 -1.78125,-3.09375 -4.9375,2.84375 -3.78125,-6.5625 z m -18.78125,8.375 c -1.29471,0.2291 -2.96882,0.834 -4.125,1.5 -2.36031,1.35864 -3.61372,2.88612 -4,4.59375 -0.44755,1.80087 0.16554,3.67935 1.375,5.78125 l 1.375,2.40625 -3.21875,1.84375 1.78125,3.09375 3.21875,-1.875 10.21875,17.71875 4.1875,-2.40625 -10.1875,-17.71875 5.15625,-2.96875 -1.78125,-3.09375 -5.15625,2.96875 -1.34375,-2.3125 c -0.79387,-1.37463 -1.04262,-2.24199 -1,-3.0625 0.0559,-0.88978 0.62241,-1.67508 1.78125,-2.34375 1.15618,-0.666 2.29874,-1.0628 3.375,-1.28125 l -1.65625,-2.84375 z m -14.875,20.71875 c -1.77391,0.049 -3.62354,0.60774 -5.5,1.6875 -6.00734,3.45788 -7.24867,9.29961 -3.25,16.25 4.00134,6.95039 9.65158,8.76772 15.65625,5.3125 6.00201,-3.45788 7.27992,-9.26836 3.28125,-16.21875 -2.75275,-4.77656 -6.2849,-7.13904 -10.1875,-7.03125 z m 82.15625,1.75 c -1.53352,0.0725 -3.25969,0.60435 -5.03125,1.625 -2.65868,1.52914 -4.45983,3.94399 -4.625,6.4375 l -2.1875,-2 -4.96875,2.84375 1.78125,3.09375 2.4375,-1.40625 10.1875,17.71875 4.21875,-2.40625 -6.90625,-12.03125 c -1.21212,-2.10457 -1.76906,-3.60385 -1.5,-5.125 0.19181,-1.25475 1.20488,-2.57897 2.75,-3.46875 1.5025,-0.86314 2.87507,-1.07716 4.03125,-0.65625 1.35864,0.47153 2.12651,1.51747 3.21875,3.40625 l 7.3125,12.71875 4.21875,-2.40625 -7.71875,-13.40625 c -1.47852,-2.57077 -2.96655,-3.98103 -4.6875,-4.59375 -0.75724,-0.26973 -1.61114,-0.38725 -2.53125,-0.34375 z m -83.375,2.09375 c 2.506,-0.1787 4.85854,1.63898 7.15625,5.625 3.06361,5.32269 2.72653,8.78324 -0.75,10.78125 -3.47386,2.00067 -6.65514,0.57002 -9.71875,-4.75 -3.06094,-5.32269 -2.72653,-8.80917 0.75,-10.8125 0.86847,-0.4995 1.72717,-0.78418 2.5625,-0.84375 z m 59.8125,11.65625 c -1.77399,0.0487 -3.62354,0.60691 -5.5,1.6875 -6.00467,3.45788 -7.25134,9.33352 -3.25,16.28125 3.99867,6.95039 9.6775,8.77038 15.6875,5.3125 6.00201,-3.45522 7.27726,-9.27102 3.28125,-16.21875 -2.75458,-4.77656 -6.31597,-7.16959 -10.21875,-7.0625 z m -87.46875,0.15625 -4.21875,2.40625 6.9375,12.03125 c 1.2068,2.09924 1.73249,3.60119 1.46875,5.125 -0.19447,1.25208 -1.2102,2.58164 -2.75,3.46875 -1.5025,0.8658 -2.84382,1.0745 -4,0.65625 -1.35864,-0.47419 -2.1345,-1.52013 -3.21875,-3.40625 l -7.34375,-12.71875 -4.21875,2.40625 7.71875,13.375 c 1.48119,2.57343 2.9978,4.01494 4.71875,4.625 2.01665,0.72461 4.69941,0.34912 7.53125,-1.28125 2.05661,-1.18548 3.74599,-3.12556 4.15625,-5.1875 l 0.90625,1.5625 c 1.45455,2.53347 1.91415,3.89432 1.5625,5.46875 -0.35964,1.46254 -1.65067,2.83143 -3.40625,3.84375 -2.48818,1.43057 -5.49646,1.96414 -7.625,1.9375 l 1.75,3.40625 c 2.34433,-0.0906 5.23036,-0.90109 7.84375,-2.40625 3.21812,-1.85148 5.50111,-4.26089 6.03125,-6.90625 0.47686,-2.44556 -0.0497,-4.42951 -2.125,-8.03125 l -11.71875,-20.375 z m 62.5625,1.875 -6.625,3.8125 1.78125,3.09375 2.4375,-1.40625 3.09375,5.40625 c -1.02298,0.30103 -2.19044,0.81484 -3.21875,1.40625 -3.13554,1.80087 -5.34906,4.32103 -6.15625,7.1875 -0.96171,3.29271 -0.25088,7.00051 1.875,10.6875 3.63104,6.30837 8.98407,8.14763 14.5625,4.9375 2.22977,-1.28672 3.73728,-3.11469 4.1875,-5.3125 0.34898,0.30902 0.67161,0.4918 1.03125,0.625 0.99634,0.34099 2.18203,0.17809 3.46875,-0.5625 1.32934,-0.76723 2.12704,-1.71801 2.5,-2.5625 l -1.3125,-2.6875 c -0.19714,0.45555 -0.78113,1.14251 -1.25,1.40625 -0.7326,0.42091 -1.24773,0.20443 -1.8125,-0.78125 l -14.5625,-25.25 z m 23.6875,1.8125 c 2.50625,-0.1797 4.8858,1.66823 7.1875,5.65625 3.06361,5.32002 2.72386,8.78324 -0.75,10.78125 -3.47386,2.00067 -6.65514,0.57002 -9.71875,-4.75 -3.06094,-5.32002 -2.72386,-8.84308 0.75,-10.84375 0.86847,-0.50017 1.69583,-0.78385 2.53125,-0.84375 z m -117.21875,5.40625 -3.4375,3.625 3.0625,5.34375 -3.1875,1.8125 1.78125,3.09375 3.15625,-1.84375 6.75,11.71875 c 1.31069,2.27506 2.37055,3.39066 3.84375,3.96875 1.47586,0.57809 3.55722,0.26519 5.53125,-0.875 1.673,-0.96437 2.92314,-2.27066 3.5625,-3.4375 l -1.65625,-3.0625 c -0.40493,0.98035 -1.3637,2.08594 -2.5625,2.78125 -2.01932,1.15884 -3.2683,0.36636 -4.65625,-2.03125 l -6.59375,-11.46875 4.875,-2.8125 -1.78125,-3.09375 -4.90625,2.84375 -3.78125,-6.5625 z m -14.5625,6.28125 c -0.37242,0.0509 -0.75009,0.1772 -1.09375,0.375 -1.3693,0.78855 -1.84644,2.52558 -1.03125,3.9375 0.81519,1.41725 2.5682,1.88496 3.9375,1.09375 1.37463,-0.79121 1.87769,-2.58808 1.0625,-4 -0.61339,-1.06294 -1.75774,-1.55897 -2.875,-1.40625 z m 110.4375,0.28125 5.53125,9.59375 c 1.19081,2.05661 1.5915,3.4517 1.34375,4.90625 -0.23443,1.27872 -1.1935,2.62282 -2.78125,3.53125 -3.43124,1.97936 -6.72278,-0.0716 -9.09375,-4.1875 -3.28206,-5.70897 -2.3118,-10.10219 2.0625,-12.625 1.02831,-0.58875 2.15162,-0.99231 2.9375,-1.21875 z m -104.375,7.0625 -6.65625,3.8125 1.78125,3.09375 2.4375,-1.40625 7.90625,13.71875 c 0.8658,1.49984 1.66934,2.36249 2.59375,2.6875 0.99634,0.33833 2.15345,0.20668 3.4375,-0.53125 1.32934,-0.76457 2.12438,-1.75192 2.5,-2.59375 l -1.28125,-2.6875 c -0.19714,0.45288 -0.78113,1.13452 -1.25,1.40625 -0.72994,0.41825 -1.27365,0.20177 -1.84375,-0.78125 l -9.625,-16.71875 z m 81.21875,3.25 c -1.53396,0.0716 -3.26302,0.60602 -5.03125,1.625 -2.66401,1.52914 -4.4625,3.94665 -4.625,6.4375 l -2.1875,-2 -4.96875,2.875 1.78125,3.09375 2.4375,-1.4375 10.1875,17.71875 4.21875,-2.40625 -6.90625,-12 c -1.20946,-2.09924 -1.73515,-3.63244 -1.46875,-5.15625 0.19181,-1.25475 1.17363,-2.57364 2.71875,-3.46875 1.49984,-0.86047 2.87507,-1.0745 4.03125,-0.65625 1.35598,0.47419 2.13184,1.51747 3.21875,3.40625 l 7.34375,12.71875 4.1875,-2.40625 -7.6875,-13.375 c -1.48385,-2.57343 -3.00047,-3.98369 -4.71875,-4.59375 -0.75624,-0.27073 -1.61087,-0.41797 -2.53125,-0.375 z m -91.75,3.4375 c -1.71296,0.30103 -3.78447,1.06452 -5.84375,2.25 -4.67533,2.69331 -6.66656,6.90123 -4.46875,10.71875 2.00067,3.47386 5.09262,3.45545 8.96875,2.65625 4.64603,-0.96437 6.39372,-1.22403 7.53125,0.75 1.05761,1.84616 -0.28457,3.79955 -2.6875,5.1875 -2.22977,1.27872 -4.95608,2.00605 -7.375,1.96875 l 1.625,3.53125 c 2.31502,-0.25042 5.03753,-1.08592 7.65625,-2.59375 5.06161,-2.91442 6.41901,-7.18218 4.34375,-10.78125 -2.09924,-3.64703 -5.04147,-3.70904 -9.6875,-2.75 -3.94539,0.78588 -5.69188,0.9855 -6.65625,-0.6875 -0.91375,-1.59041 0.0203,-3.61523 2.59375,-5.09375 1.63037,-0.94039 4.08479,-1.73309 5.875,-1.90625 l -1.875,-3.25 z m -16.96875,8.8125 c -0.30902,0.0639 -0.77847,0.25952 -1.25,0.53125 -2.35765,1.35598 -3.82869,3.75146 -3.6875,6.46875 l -2.4375,-2.4375 -5.15625,2.96875 1.78125,3.09375 2.46875,-1.40625 10.1875,17.71875 4.21875,-2.40625 -6.65625,-11.5625 c -1.23344,-2.14453 -1.73976,-3.71481 -1.5,-5.28125 0.20246,-1.43324 1.04012,-2.62959 2.5,-3.46875 0.38628,-0.22378 1.18493,-0.6335 1.53125,-0.71875 l -2,-3.5 z m 85.1875,1.5 c -1.77419,0.0486 -3.62354,0.63899 -5.5,1.71875 -6.00467,3.46054 -7.27992,9.30227 -3.28125,16.25 4.004,6.95306 9.68283,8.76772 15.6875,5.3125 6.00734,-3.45522 7.28259,-9.27102 3.28125,-16.21875 -2.75092,-4.7784 -6.28429,-7.16933 -10.1875,-7.0625 z m -1.21875,3.875 c 2.50662,-0.18007 4.86054,1.63698 7.15625,5.625 3.06361,5.32002 2.72386,8.78058 -0.75,10.78125 -3.47653,2.00067 -6.65514,0.57002 -9.71875,-4.75 -3.06361,-5.31736 -2.72386,-8.80917 0.75,-10.8125 0.86847,-0.50083 1.72696,-0.78373 2.5625,-0.84375 z m -31.3125,5.46875 -4.46875,2.5625 15.625,27.15625 16.0625,-9.25 -1.5,-3.375 -11.90625,6.875 -13.8125,-23.96875 z m -71.90625,1.46875 c -1.6425,0.019 -3.34294,0.5268 -5.03125,1.5 -5.7063,3.28206 -6.8788,9.4868 -3,16.21875 3.67899,6.39362 9.49255,8.75553 15.96875,5.03125 2.53081,-1.45988 5.04219,-3.77894 6.0625,-5.96875 l -1.65625,-3.3125 c -0.96437,2.09924 -3.15106,4.51175 -5.46875,5.84375 -3.47386,2.00333 -7.10443,1.33464 -9.875,-2.78125 l 11.09375,-6.375 c 0.94572,-0.54079 1.525,-1.10869 1.6875,-1.71875 0.18115,-0.67399 -0.065,-1.46606 -0.53125,-2.28125 -2.31136,-4.011 -5.63651,-6.1981 -9.25,-6.15625 z m -1.09375,3.71875 c 2.26611,-0.19368 4.32982,1.29798 5.90625,4.03125 0.14652,0.26107 0.0995,0.50707 -0.15625,0.65625 l -9.25,5.34375 c -2.27506,-4.7446 -1.47118,-7.7182 1.1875,-9.25 0.79387,-0.45621 1.55713,-0.71669 2.3125,-0.78125 z m -14.65625,4.4375 -3.9375,2.28125 2.71875,15.5 c 0.22644,1.18282 0.65132,2.95847 1.21875,4.34375 -0.88712,-1.14819 -2.04823,-2.29967 -3.03125,-3.21875 l -11.4375,-10.5625 -4.40625,2.53125 19.0625,16.71875 3.78125,-2.15625 -3.96875,-25.4375 z m -28.75,6.03125 c -0.55598,-0.0303 -1.11052,0.10955 -1.625,0.40625 -1.37197,0.79121 -1.87769,2.48633 -1.0625,3.90625 0.81518,1.41459 2.56287,1.88496 3.9375,1.09375 1.3693,-0.79121 1.90627,-2.55416 1.09375,-3.96875 -0.51116,-0.88412 -1.41712,-1.38693 -2.34375,-1.4375 z m 100.15625,2.75 c -1.71029,0.30103 -3.78447,1.03593 -5.84375,2.21875 -4.678,2.69331 -6.63531,6.92715 -4.4375,10.75 2.00067,3.4712 5.05871,3.46344 8.9375,2.65625 4.64336,-0.96171 6.39638,-1.22403 7.53125,0.75 1.06294,1.84083 -0.25332,3.79955 -2.65625,5.1875 -2.23244,1.27872 -4.95608,2.00605 -7.375,1.96875 l 1.625,3.53125 c 2.31502,-0.25042 5.00895,-1.08859 7.625,-2.59375 5.06161,-2.91442 6.45026,-7.17951 4.375,-10.78125 -2.09924,-3.64436 -5.07006,-3.70638 -9.71875,-2.75 -3.94273,0.78855 -5.69188,0.98283 -6.65625,-0.6875 -0.91375,-1.58775 0.0203,-3.61256 2.59375,-5.09375 1.63037,-0.94039 4.09012,-1.73575 5.875,-1.90625 l -1.875,-3.25 z m -94.625,4.625 -6.65625,3.8125 1.78125,3.09375 2.4375,-1.40625 7.90625,13.71875 c 0.8658,1.49717 1.63542,2.36516 2.5625,2.6875 0.999,0.34099 2.15345,0.18076 3.4375,-0.5625 1.332,-0.76723 2.16095,-1.74926 2.53125,-2.59375 l -1.3125,-2.65625 c -0.19447,0.45288 -0.78114,1.13452 -1.25,1.40625 -0.7326,0.42091 -1.24773,0.20443 -1.8125,-0.78125 l -9.625,-16.71875 z m 68.0625,1.3125 -3.4375,3.625 3.0625,5.34375 -3.1875,1.8125 1.78125,3.09375 3.1875,-1.84375 6.75,11.71875 c 1.30803,2.27506 2.3393,3.39066 3.8125,3.96875 1.47586,0.57809 3.58847,0.29378 5.5625,-0.84375 1.673,-0.96171 2.88922,-2.29925 3.53125,-3.46875 l -1.625,-3.0625 c -0.41026,0.98035 -1.35837,2.08861 -2.5625,2.78125 -2.01399,1.15884 -3.30488,0.34043 -4.6875,-2.0625 l -6.59375,-11.4375 4.90625,-2.8125 -1.78125,-3.09375 -4.9375,2.84375 -3.78125,-6.5625 z m -81.90625,7.40625 c -1.53485,0.071 -3.2301,0.57477 -5,1.59375 -2.65868,1.5318 -4.49375,3.94133 -4.65625,6.4375 l -2.15625,-2 -5,2.875 1.78125,3.09375 2.46875,-1.40625 10.1875,17.71875 4.1875,-2.4375 -6.90625,-12 c -1.21212,-2.1019 -1.73515,-3.6351 -1.46875,-5.15625 0.19181,-1.25741 1.20487,-2.57897 2.75,-3.46875 1.5025,-0.86314 2.84648,-1.07716 4,-0.65625 1.35864,0.47419 2.12917,1.52013 3.21875,3.40625 l 7.34375,12.75 4.21875,-2.4375 -7.71875,-13.375 c -1.48119,-2.57077 -3.00047,-3.98636 -4.71875,-4.59375 -0.75725,-0.27173 -1.61034,-0.38633 -2.53125,-0.34375 z m 76.3125,4.21875 c -0.30902,0.0666 -0.74988,0.25686 -1.21875,0.53125 -2.36031,1.35332 -3.85994,3.75146 -3.71875,6.46875 l -2.40625,-2.4375 -5.15625,2.96875 1.78125,3.09375 2.4375,-1.40625 10.21875,17.71875 4.1875,-2.4375 -6.625,-11.53125 c -1.2361,-2.14719 -1.77101,-3.74606 -1.53125,-5.3125 0.20246,-1.43057 1.07137,-2.601 2.53125,-3.4375 0.38628,-0.22378 1.18227,-0.63084 1.53125,-0.71875 l -2.03125,-3.5 z m -100.875,0.71875 -4.375,2.5 9.78125,17.03125 c 1.26274,2.18981 2.21527,4.21152 1.90625,6.15625 -0.23976,1.57176 -1.22781,3.01656 -3.375,4.25 -1.97137,1.13487 -3.84392,1.40196 -5.34375,0.78125 -1.5025,-0.62338 -2.73275,-2.00341 -4.3125,-4.75 l -9.8125,-17.03125 -4.46875,2.5625 9.90625,17.1875 c 2.14719,3.73494 4.11581,5.76135 6.84375,6.53125 2.68532,0.79387 5.60001,0.099 9.03125,-1.875 4.03064,-2.32568 5.98411,-5.08219 6.34375,-8.03125 0.34366,-2.77057 -0.51624,-5.17092 -2.34375,-8.34375 l -9.78125,-16.96875 z m 73.3125,7.03125 -8.15625,4.6875 1.84375,3.1875 2.4375,-1.40625 5.90625,28.5 4.375,-2.5 -1.53125,-7.0625 10.5,-6.03125 5.5,4.75 4.53125,-2.59375 -25.40625,-21.53125 z m 0.28125,5.71875 c 0.53014,0.72461 1.31801,1.638 2,2.21875 l 10.3125,8.96875 -8.5,4.90625 -2.875,-13.25 c -0.15451,-0.76723 -0.6004,-2.01596 -1,-2.8125 l 0.0625,-0.0312 z"
       id="path1572"
       style="fill:#3b5b70;fill-opacity:1;fill-rule:nonzero;stroke:none" />
  </g>
</svg>
