<svg xmlns="http://www.w3.org/2000/svg" height="77.907" viewBox="0 0 250.00002 77.907082" width="250"><g transform="matrix(1.25 0 0 -1.25 -68.503 847.51)"><g><path d="m55.741 648.3c0 15.915 12.901 28.815 28.815 28.815 15.915 0 28.817-12.901 28.817-28.815 0-15.915-12.902-28.815-28.817-28.815s-28.815 12.901-28.815 28.815" fill="#a29061"/><path d="m45.848 16.648c-3.996 0.116-8.543 1.094-13.162 2.995-8.321 3.42-14.753 8.957-17.366 14.32 2.701-1.955 5.874-3.734 9.369-5.172 12.232-5.03 23.801-3.984 25.84 2.336 0.455 1.41 0.398 2.962-0.101 4.58l-0.032-0.014c-4.557-1.999-12.009-1.675-19.685 1.287-7.534 2.905-13.356 7.61-15.721 12.165 2.444-1.661 5.316-3.171 8.483-4.393 11.072-4.272 21.546-3.384 23.392 1.984 0.892 2.59-0.389 5.751-3.199 8.809 7.878-4.524 12.55-10.928 10.896-15.734-0.348-1.015-0.957-1.891-1.781-2.625l-0.006-0.006c5.055-4.639 7.627-9.953 6.254-14.205-1.394-4.318-6.522-6.519-13.181-6.327zm-12.674 32.186c-1.023 0.21-2.078 0.488-3.151 0.836-6.686 2.171-11.441 6.236-10.619 9.078 0.824 2.842 6.912 3.388 13.598 1.217 4.56-1.481 8.22-3.841 9.828-6.094-1.538 1.066-3.541 2.052-5.807 2.787-5.592 1.816-10.668 1.421-11.334-0.881-0.607-2.099 2.661-5.062 7.485-6.943z" transform="matrix(.8 0 0 -.8 54.802 678.01)" fill="#fff"/><path d="m85.451 9.0098v48.045h20.339c3.24-0.004 5.8-0.182 7.7-0.534s3.41-0.85 4.52-1.5c1.12-0.647 2.1-1.42 2.97-2.316 1.29-1.257 2.3-2.741 3.03-4.449 0.73-1.71 1.11-3.528 1.12-5.455 0.06-2.426-0.44-4.684-1.5-6.774-1.07-2.091-3.04-3.715-5.92-4.869 0.7-0.31 1.5-0.799 2.41-1.465 0.91-0.667 1.71-1.66 2.39-2.982 0.69-1.319 1.05-3.116 1.08-5.389 0.04-1.711-0.37-3.509-1.21-5.394-0.85-1.884-2.35-3.493-4.51-4.826-2.15-1.3352-5.18-2.0324-9.07-2.0922h-23.349zm96.149 0v48.045h9.36v-48.045l-9.36-0.0002zm-18.47 2.8102v9.637h-4.28v6.689h4.28v21.616c-0.03 1.548 0.2 2.895 0.68 4.045 0.49 1.149 1.43 2.044 2.81 2.679 1.39 0.638 3.41 0.961 6.08 0.971h1.21c1.47-0.012 2.94-0.057 4.41-0.135v-7.093c-0.68 0.079-1.33 0.122-1.94 0.134-1.83 0.01-2.95-0.21-3.37-0.66-0.42-0.451-0.59-1.189-0.51-2.219v-19.338h5.82v-6.689h-5.82v-9.637h-9.37zm-4.28 16.326h-0.54v-6.689h0.54v-0.002h-9.36v20.543c-0.04 2.101-0.43 3.742-1.2 4.924-0.76 1.183-1.69 2.012-2.79 2.488-1.1 0.475-2.18 0.704-3.24 0.686-1.52 0.071-2.89-0.338-4.13-1.221-1.23-0.883-1.89-2.664-1.96-5.336v-22.084h-9.37v23.42c0.07 4.528 1.21 7.852 3.42 9.971 2.22 2.119 5.11 3.167 8.69 3.146 5.02-0.079 8.64-2.064 10.84-5.957h0.14v5.02h8.96v-28.909zm-63.762-10.837h11.512c2.3-0.034 4.09 0.331 5.38 1.093 1.3 0.762 1.96 2.117 1.98 4.059-0.05 1.892-0.74 3.258-2.07 4.105-1.33 0.846-3 1.262-5.02 1.246h-11.782v-10.503zm114.93 3.123c-3.87 0.06-6.95 0.796-9.25 2.209-2.3 1.414-4.01 3.141-5.13 5.183-1.13 2.043-1.86 4.037-2.21 5.987-0.35 1.947-0.51 3.489-0.48 4.619 0.04 4.854 0.83 8.709 2.37 11.562 1.54 2.854 3.65 4.895 6.31 6.119 2.66 1.226 5.68 1.822 9.06 1.791 2.06 0.018 4.13-0.332 6.21-1.047 2.08-0.714 3.96-1.904 5.64-3.572 1.67-1.666 2.94-3.919 3.8-6.756h-9.63c-0.41 1.274-1.18 2.238-2.31 2.893-1.13 0.656-2.37 0.986-3.71 0.988-2.48-0.057-4.31-0.611-5.48-1.66-1.16-1.049-1.93-2.246-2.28-3.594-0.36-1.346-0.56-2.496-0.61-3.445h24.42v-1.672c-0.07-5.361-1-9.466-2.77-12.312-1.78-2.844-3.94-4.787-6.5-5.825-2.55-1.038-5.04-1.528-7.45-1.468zm37.35 0.086c-2.78 0.071-4.88 0.801-6.29 2.193-1.42 1.39-2.58 3.024-3.48 4.9h-0.14v-6.156h-8.96v35.6h9.36v-18.535c-0.02-1.348 0.18-2.669 0.62-3.959 0.44-1.291 1.29-2.361 2.54-3.213 1.25-0.853 3.07-1.295 5.48-1.328 0.92-0.023 1.81 0.023 2.67 0.136v-9.504c-0.6-0.076-1.2-0.122-1.8-0.134zm-37.49 7.607c1.59-0.047 3.1 0.484 4.55 1.59 1.44 1.106 2.33 3.074 2.68 5.904h-14.52c0.26-2.361 0.99-4.194 2.19-5.502s2.9-1.973 5.1-1.992zm-114.79 7.785h12.782c1.88-0.021 3.54 0.421 4.97 1.328 1.43 0.909 2.18 2.405 2.26 4.492-0.02 2.43-0.69 4.213-2.02 5.346-1.33 1.134-3.22 1.694-5.68 1.682h-12.312v-12.848zm-4.262 26.717c-3.156 0-5.638 2.277-5.638 5.935 0 3.675 2.261 5.967 5.998 5.967 2.851 0 4.866-1.617 5.33-4.306v-0.01c0-0.128 0.023-0.239 0.031-0.361h-3.524c-0.142 1.084-0.706 1.914-1.9 1.914-1.884 0-2.228-1.491-2.228-3.077 0-2.183 0.783-3.298 2.087-3.298 1.162 0 1.9 0.674 2.01 1.853h3.518c-0.298-2.905-2.23-4.617-5.684-4.617zm5.721 7.225h0.043c-0.015 0.13-0.053 0.245-0.074 0.371 0.005 2.803 2.045 4.244 4.684 4.244 2.63 0 4.68-1.413 4.68-4.428 0-2.559-1.8-4.271-4.7-4.271-2.656 0-4.474 1.462-4.633 4.084zm60.123-7.225v2.324h3.27v-2.324h-3.27zm27.49 0c-3.15 0-5.63 2.277-5.63 5.935 0 3.675 2.26 5.967 6 5.967 2.98 0 5.07-1.757 5.4-4.677h-3.57c-0.14 1.084-0.7 1.914-1.9 1.914-1.88 0-2.23-1.491-2.23-3.077 0-2.183 0.79-3.298 2.09-3.298 1.16 0 1.9 0.674 2.01 1.853h3.52c-0.3-2.905-2.23-4.617-5.69-4.617zm16.29 0.299v11.304h3.26v-11.304h-3.26zm4.91 0v11.304h3.27v-11.304h-3.27zm-43.79 0.517v2.561h-1.21v1.885h1.16v3.437c0 2.842 0.52 3.142 4.81 2.906v-2.339h-0.52c-0.91 0-1.02-0.268-1.02-1.022v-2.982h1.53l-0.68-1.885h-0.85v-2.561h-3.22zm4.75 4.446l2.02 5.605c0.33 0.91 0.1 1.209-0.92 1.209-0.22 0-0.44-0.015-0.68-0.015v2.277c0.25 0 0.85 0.062 1.45 0.062 2.9 0 3.25-0.8 4.11-3.345l2.64-7.678h-3.14l-1.43 5.072-1.45-5.072h-2.56v1.885h-0.04zm-54.34-2.121c-1.18 0-2.2 0.832-2.61 1.461v-1.225h-3v8.228h3.27v-4.068c0-0.989 0.18-1.82 1.14-1.82 0.87 0 1.1 0.486 1.1 1.695v4.193h3.27v-4.068c0-0.989 0.19-1.82 1.14-1.82 0.87 0 1.1 0.486 1.1 1.695v4.193h3.27v-4.867c0-2.246-0.75-3.597-3.16-3.597-1.21 0-2.13 0.52-2.84 1.509-0.39-0.88-1.21-1.509-2.68-1.509zm15.55 0c-1.18 0-2.2 0.832-2.61 1.461v-1.225h-3v8.228h3.27v-4.068c0-0.989 0.19-1.82 1.15-1.82 0.86 0 1.1 0.486 1.1 1.695v4.193h3.26v-4.068c0-0.989 0.19-1.82 1.15-1.82 0.86 0 1.1 0.486 1.1 1.695v4.193h3.26v-4.867c0-2.246-0.75-3.597-3.15-3.597-1.21 0-2.14 0.52-2.84 1.509-0.4-0.88-1.21-1.509-2.69-1.509zm25.3 0c-1.24 0-2.04 0.534-2.78 1.523v-1.287h-2.98v8.228h3.26v-4.193c0-1.052 0.27-1.695 1.27-1.695 0.93 0 1.15 0.721 1.15 1.539v4.349h3.27v-4.931c0-2.26-1.02-3.533-3.19-3.533zm42.32 0c-2.78 0-4.67 1.587-4.67 4.445 0 2.81 2.05 4.254 4.68 4.254 2.64 0 4.68-1.413 4.68-4.428 0-2.559-1.79-4.271-4.69-4.271zm18.84 0c-2.64 0-4.67 1.727-4.67 4.427 0 2.765 2.04 4.272 4.68 4.272 1.92 0 3.99-0.676 4.56-2.717h-3.13c-0.23 0.488-0.7 0.725-1.22 0.725-0.87 0-1.62-0.646-1.62-1.62h6.23c0.05-2.984-1.79-5.087-4.83-5.087zm19.7 0c-2.63 0-4.66 1.727-4.66 4.427 0 2.765 2.04 4.272 4.68 4.272 1.92 0 3.99-0.676 4.56-2.717h-3.13c-0.24 0.488-0.71 0.725-1.23 0.725-0.86 0-1.61-0.646-1.61-1.62h6.23c0.05-2.984-1.79-5.087-4.84-5.087zm-10.64 0.002c-2.7 0-3.67 2.149-3.67 4.173 0 2.106 1.3 3.895 3.58 3.895 1.18 0 1.89-0.422 2.36-0.895v0.676c0 1.179-0.38 1.602-1.32 1.602-0.33 0-0.57-0.078-0.71-0.203-0.14-0.126-0.2-0.267-0.2-0.362h-3.29c0.16 1.208 1.39 2.371 4.29 2.371 4.05 0 4.34-1.931 4.34-4.396v-6.629h-2.88v1.084c-0.58-0.8-1.51-1.316-2.5-1.316zm-85.84 0.234v5.01c0 2.354 1.16 3.453 2.95 3.453 1.35 0 2.16-0.312 2.97-1.444v1.209h3.03v-8.228h-3.26v3.957c0 1.272-0.3 1.978-1.24 1.978-0.79 0-1.18-0.362-1.18-1.492v-4.443h-3.27zm19.46 0v8.228h3.27v-8.228h-3.27zm57.44 1.758c0.77 0 1.45 0.676 1.45 1.429h-2.97c0-0.879 0.55-1.429 1.52-1.429zm19.71 0c0.77 0 1.45 0.676 1.45 1.429h-2.97c0-0.879 0.55-1.429 1.52-1.429zm-132.59 0.205c0.85-0.048 1.38 0.863 1.38 2.072 0 1.554-0.53 2.231-1.41 2.231-0.84 0-1.417-0.677-1.417-2.231 0-0.926 0.327-2.072 1.447-2.072zm93.96 0c0.85-0.048 1.39 0.863 1.39 2.072 0 1.554-0.54 2.231-1.42 2.231-0.83 0-1.41-0.677-1.41-2.231 0-0.926 0.33-2.072 1.44-2.072zm28.75 0.14c1.03 0 1.38 0.865 1.38 1.776 0 0.878-0.38 1.743-1.38 1.695-0.88-0.014-1.29-0.785-1.29-1.601 0-1.068 0.3-1.886 1.29-1.87z" fill-rule="evenodd" transform="matrix(.8 0 0 -.8 54.802 678.01)" fill="#43215f"/></g></g></svg>
