<?xml version="1.0" encoding="UTF-8" standalone="no"?>
<!-- Created with Inkscape (http://www.inkscape.org/) -->

<svg
   xmlns:dc="http://purl.org/dc/elements/1.1/"
   xmlns:cc="http://creativecommons.org/ns#"
   xmlns:rdf="http://www.w3.org/1999/02/22-rdf-syntax-ns#"
   xmlns:svg="http://www.w3.org/2000/svg"
   xmlns="http://www.w3.org/2000/svg"
   version="1.1"
   width="100%"
   height="100%"
   viewBox="0 0 176.8462 92.007258"
   id="svg5463">
  <defs
     id="defs5465">
    <style
       type="text/css"
       id="style5467" />
    <style
       type="text/css"
       id="style5469" />
  </defs>
  <metadata
     id="metadata5471">
    <rdf:RDF>
      <cc:Work
         rdf:about="">
        <dc:format>image/svg+xml</dc:format>
        <dc:type
           rdf:resource="http://purl.org/dc/dcmitype/StillImage" />
        <dc:title></dc:title>
      </cc:Work>
    </rdf:RDF>
  </metadata>
  <path
     d="m 114.5,59.64 7.52,-0.004 -0.0244,-46.14 -7.107,0.004 c -2.523,0.002 -4.589,-2.132 -4.59,-4.742 -10e-4,-2.61 2.062,-4.746 4.586,-4.748 l 22.89,-0.0118 c 2.524,-0.002 4.59,2.133 4.59,4.743 0.001,2.609 -2.062,4.746 -4.585,4.747 l -7.027,0.004 0.0244,46.14 7.44,-0.004 c 2.615,-10e-4 4.754,2.136 4.756,4.751 10e-4,2.614 -2.136,4.754 -4.751,4.756 l -23.72,0.0125 c -2.614,0.002 -4.754,-2.136 -4.756,-4.751 -10e-4,-2.614 2.136,-4.754 4.751,-4.756 z"
     id="path5473"
     style="fill:#000000;fill-opacity:1;fill-rule:evenodd" />
  <path
     d="m 19.64,86.48 1.015,-8e-4 -0.0036,-7.317 -0.9559,2.8e-4 c -0.3622,7e-5 -0.6592,-0.3381 -0.659,-0.752 -2.56e-4,-0.414 0.2958,-0.7527 0.6583,-0.753 l 3.288,-0.002 c 0.3625,-8e-5 0.6592,0.3381 0.6594,0.752 2.56e-4,0.414 -0.2962,0.7527 -0.6583,0.753 l -0.9434,3.8e-4 0.004,7.317 1.002,-9e-4 c 0.3754,3e-5 0.683,0.3387 0.6832,0.7531 1.46e-4,0.415 -0.3071,0.7541 -0.6825,0.7544 l -3.406,0.002 c -0.3753,-3e-5 -0.6827,-0.3387 -0.6828,-0.7537 -5.52e-4,-0.4144 0.3064,-0.7538 0.682,-0.7538 z"
     id="path5475"
     style="fill:#000000;fill-opacity:1;fill-rule:evenodd" />
  <path
     d="m 86.57,86.44 1.015,2.1e-4 -0.004,-7.317 -0.9559,2.7e-4 c -0.3622,8e-5 -0.6588,-0.3384 -0.659,-0.752 -2.55e-4,-0.414 0.2958,-0.7527 0.6583,-0.753 l 3.288,-0.002 c 0.3625,-7e-5 0.6592,0.3381 0.6594,0.752 2.55e-4,0.414 -0.2962,0.7527 -0.6583,0.7527 l -0.9434,3.8e-4 0.004,7.317 1.002,-9e-4 c 0.3754,3e-5 0.683,0.3387 0.6832,0.753 1.47e-4,0.415 -0.3068,0.7541 -0.6825,0.7544 l -3.406,0.002 c -0.3753,-3e-5 -0.6826,-0.339 -0.6828,-0.7537 -1.5e-4,-0.4147 0.3067,-0.7538 0.6821,-0.7542 z"
     id="path5477"
     style="fill:#000000;fill-opacity:1;fill-rule:evenodd" />
  <path
     d="m 127.2,86.42 1.015,-8e-4 -0.004,-7.317 -0.9555,2.8e-4 c -0.3625,7e-5 -0.6592,-0.338 -0.6594,-0.752 -2.6e-4,-0.414 0.2962,-0.7527 0.6587,-0.753 l 3.288,-0.002 c 0.3625,-7e-5 0.6592,0.3381 0.6594,0.752 2.5e-4,0.414 -0.2962,0.7527 -0.6587,0.753 l -0.943,3.8e-4 0.004,7.317 1.002,-9e-4 c 0.3757,4e-5 0.683,0.3388 0.6832,0.7534 5.5e-4,0.4147 -0.3067,0.7538 -0.6821,0.7541 l -3.406,0.002 c -0.3757,-4e-5 -0.683,-0.3387 -0.6831,-0.7538 -1.5e-4,-0.4143 0.3067,-0.7538 0.682,-0.7538 z"
     id="path5479"
     style="fill:#000000;fill-opacity:1;fill-rule:evenodd" />
  <path
     d="m 153.5,86.41 1.015,-8e-4 -0.004,-7.317 -0.9559,2.7e-4 c -0.3625,7e-5 -0.6592,-0.338 -0.6594,-0.752 -2.6e-4,-0.414 0.2962,-0.7527 0.6587,-0.753 l 3.288,-0.002 c 0.3625,-7e-5 0.6592,0.3381 0.6594,0.752 2.6e-4,0.414 -0.2962,0.7527 -0.6586,0.7526 l -0.9431,3.8e-4 0.004,7.317 1.002,-9e-4 c 0.3754,3e-5 0.6827,0.3387 0.6829,0.753 4.5e-4,0.4151 -0.3068,0.7541 -0.6821,0.7545 l -3.406,0.002 c -0.3757,-4e-5 -0.6827,-0.3387 -0.6831,-0.7538 -1.5e-4,-0.4143 0.3067,-0.7538 0.6824,-0.7537 z"
     id="path5481"
     style="fill:#000000;fill-opacity:1;fill-rule:evenodd" />
  <rect
     width="18.120001"
     height="16.58"
     rx="3.451"
     ry="3.451"
     x="154.2"
     y="14.42"
     transform="matrix(0.99999986,-5.2778294e-4,5.2872299e-4,0.99999986,0,0)"
     id="rect5483"
     style="fill:#000000;fill-opacity:1;fill-rule:evenodd" />
  <rect
     width="18.120001"
     height="16.58"
     rx="3.451"
     ry="3.451"
     x="154.2"
     y="44.439999"
     transform="matrix(0.99999986,-5.2778294e-4,5.2872299e-4,0.99999986,0,0)"
     id="rect5485"
     style="fill:#000000;fill-opacity:1;fill-rule:evenodd" />
  <path
     d="m 4.3,13.05 c 7.8,-5.267 14.11,-7.116 20.01,-7.372 6.684,-0.2893 15.48,1.897 20.34,7.17 0.0018,3.06 0.0038,7.01 0.0056,10.07 l -8e-6,0.0697 c 0.0011,2.409 -1.968,4.38 -4.377,4.382 -2.409,10e-4 -4.38,-1.968 -4.382,-4.377 l 7e-6,-0.0697 -0.0061,2e-4 c -0.0018,-3.324 -0.0016,-2.571 -0.0025,-4.418 -2.558,-2.778 -7.546,-3.592 -11.65,-3.434 -4.505,0.1733 -8.146,1.553 -11.17,3.597 l 0.01494,40.45 c 1.816,2.328 6.657,3.393 11.26,3.264 4.898,-0.1377 9.569,-1.615 11.57,-3.788 -9.09e-4,-1.847 -8.4e-4,-1.968 -0.0026,-5.292 l 0.006,9e-5 9e-6,-0.0697 c -0.0011,-2.409 1.968,-4.38 4.377,-4.382 2.409,-10e-4 4.38,1.969 4.382,4.377 l -8e-6,0.0697 c 0.0015,3.06 0.0036,7.344 0.0055,10.4 -5.164,5.406 -14.52,8.131 -20.41,8.028 -7.127,-0.1251 -14.03,-2.22 -19.94,-6.466 l -0.0277,-52.22 z"
     id="path5487"
     style="fill:#000000;fill-opacity:1;fill-rule:evenodd" />
  <path
     d="m 4,78.82 c 1.123,-0.8238 2.032,-1.113 2.881,-1.152 0.9626,-0.0455 2.229,0.2964 2.928,1.121 1.4e-4,0.4783 1.5e-4,1.096 6.8e-4,1.574 l -10e-6,0.0107 c -4e-5,0.3764 -0.2832,0.6847 -0.63,0.685 -0.3471,1.9e-4 -0.631,-0.3079 -0.6312,-0.6843 v -0.0107 l -7e-4,-9e-5 c -8e-4,-0.5195 2.5e-4,-0.4018 -4.2e-4,-0.6907 -0.3683,-0.4341 -1.086,-0.5612 -1.677,-0.5366 -0.6488,0.0269 -1.173,0.2426 -1.608,0.5621 l 0.002,6.324 c 0.2614,0.3637 0.9584,0.5306 1.621,0.5102 0.7053,-0.0215 1.378,-0.2525 1.665,-0.592 3.3e-4,-0.2888 4.9e-4,-0.3078 -10e-4,-0.8272 l 10e-4,1.4e-4 2e-5,-0.0107 c 4e-5,-0.3764 0.2832,-0.6847 0.63,-0.685 0.3472,-1.9e-4 0.631,0.3079 0.6309,0.6842 l 3.8e-4,0.0107 c 1.3e-4,0.4783 7.2e-4,1.148 5.6e-4,1.626 -0.7435,0.845 -2.09,1.271 -2.939,1.255 -1.026,-0.019 -2.021,-0.3471 -2.87,-1.011 l -0.004,-8.162 z"
     id="path5489"
     style="fill:#000000;fill-opacity:1;fill-rule:evenodd" />
  <path
     d="m 52.82,78.79 c 1.123,-0.8238 2.032,-1.113 2.881,-1.152 0.9626,-0.0455 2.229,0.2963 2.928,1.121 2.35e-4,0.4783 5.47e-4,1.096 7.5e-4,1.574 l -1.3e-5,0.0107 c 2.59e-4,0.3764 -0.2832,0.6847 -0.6303,0.6849 -0.3468,1.9e-4 -0.6307,-0.3078 -0.6309,-0.6843 l 1.2e-5,-0.0107 -7.03e-4,-1e-4 c -5.03e-4,-0.5194 -4.53e-4,-0.4018 -5.2e-4,-0.6907 -0.3682,-0.4341 -1.087,-0.5616 -1.677,-0.5366 -0.6488,0.0269 -1.173,0.2426 -1.608,0.5621 l 0.0024,6.324 c 0.2614,0.3637 0.9585,0.5302 1.621,0.5102 0.7053,-0.0215 1.378,-0.2525 1.665,-0.592 -6.6e-5,-0.2888 -1.13e-4,-0.3078 -6.16e-4,-0.8272 l 0.0011,1.4e-4 1.2e-5,-0.0107 c -2.58e-4,-0.3764 0.2832,-0.6847 0.63,-0.685 0.3471,-2e-4 0.631,0.3079 0.6309,0.6842 l 3.85e-4,0.0107 c 2.35e-4,0.4783 4.26e-4,1.148 6.31e-4,1.626 -0.7435,0.845 -2.09,1.271 -2.939,1.255 -1.026,-0.019 -2.021,-0.3471 -2.87,-1.011 l -0.0044,-8.162 z"
     id="path5491"
     style="fill:#000000;fill-opacity:1;fill-rule:evenodd" />
  <path
     d="m 163.7,85.86 c -0.2876,0.3399 -0.9604,0.5705 -1.665,0.5924 -0.6626,0.0201 -1.36,-0.1455 -1.621,-0.5102 l -0.002,-6.324 c 0.4355,-0.3198 0.9596,-0.5352 1.608,-0.5625 0.5906,-0.0246 1.309,0.1026 1.677,0.537 m 1.266,7.066 c -0.7435,0.845 -2.09,1.271 -2.939,1.255 -1.026,-0.02 -2.021,-0.3472 -2.871,-1.011 l -0.004,-8.162 c 1.122,-0.8238 2.032,-1.113 2.881,-1.153 0.9626,-0.0451 2.229,0.2967 2.928,1.121 2.4e-4,0.4783 0.004,7.472 0.004,7.95 z"
     id="path5493"
     style="fill:#000000;fill-opacity:1;fill-rule:evenodd" />
  <path
     d="m 98.9,62.79 c -5.217,4.769 -12.39,7.571 -20.65,7.704 -5.69,0.1096 -14.72,-1.571 -19.71,-6.971 -0.0018,-3.06 -0.0038,-7.062 -0.0056,-10.12 L 58.533,53.3331 c -0.0011,-2.408 1.9,-4.38 4.226,-4.381 2.326,-0.001 4.229,1.968 4.23,4.377 l 0.0014,0.0699 0.0071,2.4e-4 c 0.0018,3.324 0.0014,2.299 0.0023,4.146 1.93,2.171 6.442,3.643 11.17,3.776 4.442,0.1248 10.23,-1.809 11.98,-4.138 l -0.0061,-11.79 -30.58,-9.659 c -0.0027,-4.647 -0.0099,-18.59 -0.01237,-23.29 5.981,-5.49 13.47,-7.691 19.16,-7.947 6.453,-0.2893 14.39,2.213 19.08,7.487 0.001,3.06 0.003,5.899 0.005,8.96 l 0.001,0.0699 c 0.001,2.408 -1.9,4.38 -4.225,4.381 -2.326,10e-4 -4.229,-1.968 -4.23,-4.377 l -0.0014,-0.0699 -0.0071,-2.3e-4 c -0.0018,-3.324 -9.68e-4,-1.661 -0.0019,-3.508 -2.47,-2.778 -6.792,-3.531 -10.75,-3.373 -4.349,0.1733 -7.355,1.492 -10.28,3.536 7.01e-4,1.84 0.0041,7.957 0.0058,11.23 l 30.58,9.659 0.013,24.3 z"
     id="path5495"
     style="fill:#000000;fill-opacity:1;fill-rule:evenodd" />
  <path
     d="m 50.77,86.77 c -0.7571,0.746 -1.799,1.184 -2.998,1.205 -0.8259,0.0172 -2.137,-0.2458 -2.861,-1.091 -2.33e-4,-0.4787 -4.76e-4,-1.105 -5.85e-4,-1.584 l 1.2e-5,-0.0107 c -2.56e-4,-0.3768 0.2758,-0.6853 0.6133,-0.6857 0.3374,7.3e-4 0.6138,0.3081 0.614,0.6848 l -1.2e-5,0.0107 7.49e-4,-2.4e-4 c 3.97e-4,0.5202 2.91e-4,0.36 3.58e-4,0.6488 0.28,0.3397 0.935,0.57 1.621,0.5907 0.6447,0.0197 1.484,-0.2827 1.738,-0.6474 l -9.32e-4,-1.844 -4.439,-1.511 c -7.25e-4,-0.7272 -0.0016,-2.909 -0.0019,-3.644 0.868,-0.8588 1.955,-1.203 2.782,-1.243 0.9365,-0.045 2.089,0.3467 2.769,1.172 5.29e-4,0.479 6.42e-4,0.923 8.32e-4,1.402 l -1.3e-5,0.0107 c 2.56e-4,0.3768 -0.2758,0.6853 -0.6132,0.6854 -0.3375,2.7e-4 -0.6139,-0.3077 -0.6141,-0.6845 l 1.3e-5,-0.0107 -0.0011,-1.4e-4 c -1.01e-4,-0.5198 -1.01e-4,-0.2599 -1.67e-4,-0.5487 -0.3585,-0.4346 -0.9859,-0.5525 -1.56,-0.5279 -0.6313,0.027 -1.067,0.2334 -1.491,0.553 1.72e-4,0.2882 6.51e-4,1.245 0.001,1.757 l 4.439,1.511 0.0021,3.802 z"
     id="path5497"
     style="fill:#000000;fill-opacity:1;fill-rule:evenodd" />
  <path
     d="m 119,86.73 c -0.7571,0.7459 -1.799,1.184 -2.998,1.205 -0.8258,0.0168 -2.137,-0.2461 -2.861,-1.091 -1.6e-4,-0.479 -3.8e-4,-1.105 -5.9e-4,-1.584 v -0.0107 c -2e-4,-0.3768 0.2754,-0.6854 0.6132,-0.6854 0.3374,7.2e-4 0.6138,0.3081 0.614,0.6849 v 0.0107 l 7.1e-4,1.1e-4 c 3.9e-4,0.5202 3.3e-4,0.3596 3.9e-4,0.6488 0.28,0.3397 0.935,0.57 1.621,0.5907 0.6448,0.0194 1.484,-0.283 1.738,-0.6474 l -9.3e-4,-1.844 -4.439,-1.512 c -3.3e-4,-0.7271 -0.001,-2.908 -0.002,-3.644 0.868,-0.8591 1.955,-1.203 2.782,-1.243 0.9365,-0.0453 2.089,0.3463 2.769,1.172 5.5e-4,0.4787 6.8e-4,0.9231 8.8e-4,1.402 l -2e-5,0.0107 c 2e-4,0.3768 -0.2758,0.6853 -0.6132,0.6854 -0.3374,-7.2e-4 -0.6138,-0.3081 -0.614,-0.6849 l -1e-5,-0.0107 -10e-4,-1.4e-4 c -5e-5,-0.5201 -0.001,-0.26 -1.6e-4,-0.5487 -0.3585,-0.4349 -0.9859,-0.5525 -1.56,-0.5279 -0.6313,0.027 -1.067,0.2331 -1.491,0.553 2.1e-4,0.2882 6.5e-4,1.245 0.001,1.757 l 4.439,1.511 0.002,3.802 z"
     id="path5499"
     style="fill:#000000;fill-opacity:1;fill-rule:evenodd" />
  <path
     d="m 150,87.22 c 3e-4,0.384 -0.314,0.6988 -0.6983,0.6991 -0.3846,-1.1e-4 -0.6992,-0.3141 -0.6994,-0.6984 -0.001,-2.709 -1.7e-4,-5.417 -0.002,-8.126 l -1.576,7.6e-4 c -0.3618,8e-5 -0.6592,-0.338 -0.659,-0.752 -2.6e-4,-0.414 0.2958,-0.7527 0.6583,-0.7527 l 4.478,-0.002 c 0.3622,-8e-5 0.6592,0.3381 0.6594,0.752 -1.5e-4,0.4139 -0.2965,0.7526 -0.6587,0.753 l -1.512,7.8e-4 c 0.001,2.708 0.009,5.417 0.0103,8.126 z"
     id="path5501"
     style="fill:#000000;fill-opacity:1;fill-rule:evenodd" />
  <path
     d="m 123.7,87.23 c 3e-4,0.384 -0.314,0.6988 -0.6983,0.6991 -0.3847,-1.1e-4 -0.6992,-0.3141 -0.6994,-0.6984 -0.001,-2.709 -1.7e-4,-5.417 -0.002,-8.126 l -1.576,8.6e-4 c -0.3622,8e-5 -0.6592,-0.3381 -0.6594,-0.752 -2.5e-4,-0.414 0.2962,-0.7527 0.6583,-0.7527 l 4.478,-0.002 c 0.3625,-7e-5 0.6592,0.3381 0.6594,0.752 2.5e-4,0.414 -0.2965,0.7526 -0.6586,0.7526 l -1.512,7.8e-4 c 0.001,2.709 0.009,5.417 0.0102,8.126 z"
     id="path5503"
     style="fill:#000000;fill-opacity:1;fill-rule:evenodd" />
  <path
     d="m 34.35,77.65 0,0 c 0.005,2.9e-4 0.009,1.8e-4 0.01396,-1.6e-4 0.0014,1.8e-4 0.0025,-3e-5 0.0039,1.7e-4 l 3.314,-0.002 c 0.3832,1e-4 0.6994,0.318 0.6994,0.707 2.55e-4,0.3893 -0.3142,0.7078 -0.6985,0.708 l -2.62,10e-4 0.0013,2.718 1.554,-5.4e-4 c 0.3832,1e-4 0.6992,0.3137 0.6991,0.6983 1.95e-4,0.3843 -0.3141,0.6992 -0.6983,0.6991 l -1.554,10e-4 0.0019,3.384 2.774,-0.002 c 0.3829,9e-5 0.699,0.318 0.699,0.7073 3.58e-4,0.389 -0.3141,0.7074 -0.6984,0.7076 l -3.473,0.002 c -0.0021,6e-5 -0.0047,9e-5 -0.0072,4e-5 -0.0021,-2.6e-4 -0.0044,1.5e-4 -0.0068,1.2e-4 -0.3914,-1.6e-4 -0.712,-0.314 -0.7123,-0.6987 l -0.0048,-8.932 c -4e-6,-0.3832 0.3181,-0.6968 0.7077,-0.6993 0.0014,-1.6e-4 0.0025,-2e-5 0.004,-1.7e-4 z"
     id="path5505"
     style="fill:#000000;fill-opacity:1;fill-rule:evenodd" />
  <path
     d="m 61.18,77.64 0,0 c 0.0036,-2.4e-4 0.0072,-6e-5 0.01431,-1e-4 0.0014,-1.7e-4 0.0029,-3.4e-4 0.0036,-2.5e-4 l 3.314,-0.002 c 0.3829,1e-4 0.699,0.3176 0.6994,0.707 3.57e-4,0.389 -0.3141,0.7074 -0.6984,0.7076 l -2.62,0.001 0.0017,2.718 1.554,-10e-4 c 0.3832,10e-5 0.6988,0.314 0.6991,0.6984 1.92e-4,0.3846 -0.3141,0.6992 -0.6984,0.6994 l -1.554,6.4e-4 0.0019,3.384 2.774,-0.001 c 0.3829,1e-4 0.699,0.3176 0.699,0.7069 3.57e-4,0.389 -0.3141,0.7074 -0.6984,0.7077 l -3.473,0.002 c -0.0021,7e-5 -0.0035,-1.1e-4 -0.0071,-2.3e-4 -0.0021,7e-5 -0.0036,2.3e-4 -0.0072,5e-5 -0.3915,-1.6e-4 -0.712,-0.314 -0.7123,-0.6983 l -0.0047,-8.932 c -6e-6,-0.3828 0.3181,-0.6968 0.7077,-0.6993 0.0011,1.5e-4 0.0025,-1e-5 0.0035,1.2e-4 z"
     id="path5507"
     style="fill:#000000;fill-opacity:1;fill-rule:evenodd" />
  <path
     d="m 75.57,77.63 0,0 c 0.0035,1.2e-4 0.01067,4.1e-4 0.01431,-10e-5 0.0014,1.8e-4 0.0028,10e-6 0.0035,10e-5 l 3.314,-0.002 c 0.3829,1e-4 0.699,0.318 0.6994,0.707 2.55e-4,0.3893 -0.3142,0.7077 -0.6985,0.708 l -2.62,10e-4 0.0017,2.718 1.554,-0.001 c 0.3832,1e-4 0.6988,0.314 0.699,0.6987 1.95e-4,0.3843 -0.314,0.6988 -0.6983,0.6991 l -1.554,0.001 0.0019,3.384 2.774,-0.002 c 0.3829,9e-5 0.699,0.318 0.699,0.7073 3.57e-4,0.389 -0.3141,0.7074 -0.6984,0.7076 l -3.473,0.002 c -0.0021,8e-5 -0.0036,2.5e-4 -0.0071,-2.2e-4 -0.0021,7e-5 -0.0036,5.2e-4 -0.0072,5e-5 -0.3915,-1.6e-4 -0.712,-0.314 -0.7123,-0.6983 l -0.0048,-8.932 c -4e-6,-0.3832 0.3181,-0.6968 0.7077,-0.6993 0.0011,-1.9e-4 0.0025,0 0.0036,-2.3e-4 z"
     id="path5509"
     style="fill:#000000;fill-opacity:1;fill-rule:evenodd" />
  <path
     d="m 107.7,77.61 0,0 c 0.004,-2.4e-4 0.007,-7e-5 0.0143,-1.1e-4 0.001,-1.8e-4 0.003,-3.3e-4 0.004,-2.5e-4 l 3.314,-0.002 c 0.3829,9e-5 0.699,0.3176 0.6994,0.707 3.6e-4,0.389 -0.3141,0.7074 -0.6984,0.7076 l -2.62,0.001 0.002,2.718 1.554,-0.001 c 0.3832,9e-5 0.6988,0.314 0.6991,0.6983 2.1e-4,0.3847 -0.3141,0.6992 -0.6984,0.6994 l -1.554,0.001 0.002,3.384 2.774,-0.001 c 0.3832,1e-4 0.6994,0.3177 0.6994,0.707 3.6e-4,0.389 -0.3145,0.7073 -0.6984,0.7076 l -3.473,0.002 c -0.002,1.2e-4 -0.004,-1.1e-4 -0.007,-2.3e-4 -0.002,7e-5 -0.004,2.3e-4 -0.007,5e-5 -0.3915,-1.6e-4 -0.712,-0.314 -0.7123,-0.6983 l -0.005,-8.932 c -9e-5,-0.3828 0.3177,-0.6969 0.7077,-0.6993 0.001,1.5e-4 0.003,-1e-5 0.004,1.3e-4 z"
     id="path5511"
     style="fill:#000000;fill-opacity:1;fill-rule:evenodd" />
  <path
     d="m 68.52,78.13 2.874,6.61 -0.0035,-6.412 c -1.95e-4,-0.3843 0.314,-0.6988 0.6987,-0.699 0.3843,10e-5 0.6988,0.314 0.6991,0.6983 l 0.0048,8.932 c 5.4e-4,0.4902 -0.4116,0.7123 -0.8228,0.6943 -0.4973,-0.0211 -0.6973,-0.3092 -0.8704,-0.7133 l -2.759,-6.445 0.0034,6.466 c 1.95e-4,0.3843 -0.3141,0.6992 -0.6984,0.6994 -0.3846,-1e-4 -0.6992,-0.3141 -0.6994,-0.6984 l -0.0047,-8.932 c -1.13e-4,-0.4686 0.3802,-0.6828 0.7392,-0.6972 0.359,-0.0143 0.6973,0.1698 0.8396,0.4969 z"
     id="path5513"
     style="fill:#000000;fill-opacity:1;fill-rule:evenodd" />
  <path
     d="m 93.9,78.12 2.874,6.61 -0.004,-6.412 c -1.9e-4,-0.3847 0.3141,-0.6992 0.6987,-0.6994 0.3843,1e-4 0.6988,0.3144 0.699,0.6987 l 0.005,8.932 c 5.4e-4,0.4898 -0.4116,0.7123 -0.8228,0.6943 -0.4972,-0.0216 -0.6973,-0.3095 -0.8704,-0.7133 l -2.759,-6.445 0.003,6.466 c 1.9e-4,0.3843 -0.3141,0.6992 -0.6983,0.6991 -0.3846,-1e-4 -0.6992,-0.3141 -0.6994,-0.6984 l -0.005,-8.932 c -1e-5,-0.469 0.3802,-0.6828 0.7392,-0.6976 0.359,-0.0144 0.6973,0.1701 0.8396,0.4972 z"
     id="path5515"
     style="fill:#000000;fill-opacity:1;fill-rule:evenodd" />
  <path
     d="m 168.6,78.08 2.874,6.61 -0.004,-6.412 c -1.9e-4,-0.3846 0.3141,-0.6992 0.6987,-0.6994 0.3843,1.1e-4 0.6988,0.3144 0.699,0.6987 l 0.005,8.932 c 1.4e-4,0.4897 -0.4116,0.7123 -0.8232,0.6943 -0.4969,-0.0215 -0.6973,-0.3092 -0.8701,-0.7133 l -2.759,-6.445 0.003,6.466 c 1.9e-4,0.3843 -0.3141,0.6992 -0.6987,0.6994 -0.3843,-1.1e-4 -0.6988,-0.314 -0.699,-0.6987 l -0.005,-8.932 c -4.1e-4,-0.469 0.3802,-0.6828 0.7392,-0.6972 0.359,-0.0143 0.6973,0.1698 0.8392,0.4968 z"
     id="path5517"
     style="fill:#000000;fill-opacity:1;fill-rule:evenodd" />
  <path
     d="m 100.9,78.17 1.708,6.745 1.683,-6.747 c 0.1135,-0.4549 0.5114,-0.6107 0.8504,-0.5366 0.3398,0.0739 0.6208,0.3787 0.5014,0.8436 l -2.227,8.657 c -0.1083,0.4213 -0.259,0.8173 -0.8017,0.8068 -0.5216,0.0109 -0.687,-0.3568 -0.7942,-0.7678 l -2.27,-8.693 c -0.1214,-0.4652 0.1587,-0.7696 0.4978,-0.8438 0.3391,-0.0742 0.7378,0.0806 0.8527,0.5354 z"
     id="path5519"
     style="fill:#000000;fill-opacity:1;fill-rule:evenodd" />
  <path
     d="m 141.5,87.37 0.7377,-2.746 2.141,-10e-4 0.7322,2.746 c 0.1213,0.4548 0.545,0.6099 0.9063,0.5358 0.3614,-0.0749 0.6604,-0.3796 0.5329,-0.8445 l -2.381,-8.654 c -0.1155,-0.4211 -0.2768,-0.8172 -0.8545,-0.8063 -0.5556,-0.0105 -0.7311,0.3576 -0.8449,0.7689 l -2.408,8.695 c -0.1289,0.4654 0.1695,0.7693 0.5307,0.8432 0.3613,0.0731 0.7855,-0.082 0.9072,-0.5365 z m 1.118,-4.161 0.6945,-2.586 0.6897,2.585 -1.384,6.2e-4 z"
     id="path5521"
     style="fill:#000000;fill-opacity:1;fill-rule:evenodd" />
  <path
     d="m 132.9,78.75 c 1.122,-0.8241 2.032,-1.113 2.881,-1.153 0.9622,-0.0452 2.229,0.2967 2.928,1.121 2.3e-4,0.4787 5.4e-4,1.096 7.5e-4,1.574 l -1e-5,0.0107 c 2.5e-4,0.3768 -0.2836,0.6847 -0.6303,0.6849 -0.3468,2e-4 -0.6307,-0.3075 -0.6309,-0.6842 l 1e-5,-0.0107 -7e-4,-1e-4 c -5e-4,-0.5194 -4.5e-4,-0.4018 -5.2e-4,-0.6907 -0.3682,-0.4341 -1.086,-0.5616 -1.677,-0.5366 -0.6484,0.0269 -1.173,0.2427 -1.608,0.5621 l 0.002,6.324 c 0.2614,0.3637 0.9585,0.5302 1.621,0.5102 0.7053,-0.0215 1.378,-0.2525 1.665,-0.592 0.001,-0.1993 -7.4e-4,-0.936 -0.001,-1.543 l -0.8598,0.001 c -0.3843,-1e-4 -0.699,-0.318 -0.6993,-0.7073 4e-5,-0.3889 0.3163,-0.7075 0.6988,-0.7076 l 1.418,-5.4e-4 c 0.5695,-4e-4 0.704,0.3473 0.7044,0.7738 4.3e-4,0.6517 0.001,2.542 0.001,2.983 -0.7435,0.845 -2.09,1.271 -2.939,1.254 -1.026,-0.0191 -2.021,-0.3472 -2.871,-1.011 l -0.004,-8.162 z"
     id="path5523"
     style="fill:#000000;fill-opacity:1;fill-rule:evenodd" />
  <path
     d="m 26.81,78.31 1.551,3.243 1.616,-3.403 c 0.3538,-0.7453 1.431,-0.703 1.431,0.3441 l 0.0046,8.788 c 1.95e-4,0.3843 -0.3023,0.6993 -0.6723,0.6993 -0.3704,1e-5 -0.6731,-0.3138 -0.6733,-0.6985 l -0.0034,-6.393 -0.8319,1.937 c -0.1789,0.4169 -0.4409,0.7337 -0.8655,0.7279 -0.375,0.005 -0.6676,-0.2638 -0.837,-0.6531 l -0.9165,-2.106 0.0032,6.489 c 2.98e-4,0.384 -0.3023,0.699 -0.6726,0.699 -0.37,1e-5 -0.6731,-0.3138 -0.6733,-0.6985 l -0.0045,-8.703 c -6.79e-4,-1.092 1.103,-1.284 1.544,-0.2725 z"
     id="path5525"
     style="fill:#000000;fill-opacity:1;fill-rule:evenodd" />
  <path
     d="m 16.7,77.66 0,0 c 0.3843,1.1e-4 0.6987,0.3148 0.699,0.6987 l 0.0031,5.527 c -1.02e-4,0.3839 -0.3141,0.6992 -0.6987,0.6994 -0.02687,4.6e-4 -0.05252,-0.002 -0.07886,-0.007 l -0.8584,10e-4 1.822,2.281 c 0.239,0.2989 0.1897,0.7441 -0.1137,0.9875 -0.3034,0.2438 -0.7493,0.1986 -0.9889,-0.1033 l -2.529,-3.166 -0.6842,4.7e-4 0.0015,2.711 c 1.95e-4,0.3843 -0.3198,0.6991 -0.7116,0.6991 -0.3918,-1.7e-4 -0.712,-0.314 -0.7123,-0.6983 l -0.005,-8.932 c -3e-4,-0.3836 0.3181,-0.6972 0.7077,-0.6993 0.0014,-1.8e-4 0.0025,-3e-5 0.004,-1.9e-4 0.0047,-1e-4 0.009,1.9e-4 0.0136,-2e-4 0.0018,-1.2e-4 0.0033,-2.9e-4 0.0047,-1e-4 l 4.1,-0.002 c 0.0025,-3e-5 0.0047,-9e-5 0.0072,-5e-5 0.0036,-2.4e-4 0.0075,-2e-5 0.01067,4.2e-4 0.0025,-4e-5 0.0047,-1.1e-4 0.0072,-7e-5 z m -4.144,0.002 z m 0.7127,1.414 0.0021,4.107 2.733,-0.001 -0.0021,-4.108 -2.733,0.002 z"
     id="path5527"
     style="fill:#000000;fill-opacity:1;fill-rule:evenodd" />
</svg>
