<?xml version="1.0" encoding="UTF-8" standalone="no"?>
<!-- Created with Inkscape (http://www.inkscape.org/) -->

<svg
   xmlns:dc="http://purl.org/dc/elements/1.1/"
   xmlns:cc="http://creativecommons.org/ns#"
   xmlns:rdf="http://www.w3.org/1999/02/22-rdf-syntax-ns#"
   xmlns:svg="http://www.w3.org/2000/svg"
   xmlns="http://www.w3.org/2000/svg"
   xmlns:sodipodi="http://sodipodi.sourceforge.net/DTD/sodipodi-0.dtd"
   xmlns:inkscape="http://www.inkscape.org/namespaces/inkscape"
   width="33.81728mm"
   height="38.099998mm"
   viewBox="0 0 33.81728 38.099998"
   version="1.1"
   id="svg975"
   inkscape:version="0.92.1 r15371"
   sodipodi:docname="cuy logo.svg">
  <defs
     id="defs969">
    <clipPath
       clipPathUnits="userSpaceOnUse"
       id="clipPath368">
      <path
         d="M 0,0 H 612 V 792 H 0 Z"
         id="path366"
         inkscape:connector-curvature="0" />
    </clipPath>
  </defs>
  <sodipodi:namedview
     id="base"
     pagecolor="#ffffff"
     bordercolor="#666666"
     borderopacity="1.0"
     inkscape:pageopacity="0.0"
     inkscape:pageshadow="2"
     inkscape:zoom="1.4"
     inkscape:cx="-112.62238"
     inkscape:cy="63.207939"
     inkscape:document-units="mm"
     inkscape:current-layer="g364"
     showgrid="false"
     fit-margin-top="0"
     fit-margin-left="0"
     fit-margin-right="0"
     fit-margin-bottom="0"
     inkscape:window-width="1600"
     inkscape:window-height="838"
     inkscape:window-x="-8"
     inkscape:window-y="-8"
     inkscape:window-maximized="1" />
  <metadata
     id="metadata972">
    <rdf:RDF>
      <cc:Work
         rdf:about="">
        <dc:format>image/svg+xml</dc:format>
        <dc:type
           rdf:resource="http://purl.org/dc/dcmitype/StillImage" />
        <dc:title></dc:title>
      </cc:Work>
    </rdf:RDF>
  </metadata>
  <g
     inkscape:label="Layer 1"
     inkscape:groupmode="layer"
     id="layer1"
     transform="translate(-72.758761,-78.378571)">
    <path
       d="M 72.758761,78.378571 H 106.57604 V 116.47857 H 72.758761 Z"
       style="fill:#008996;fill-opacity:1;fill-rule:nonzero;stroke:none;stroke-width:0.35277775"
       id="path360"
       inkscape:connector-curvature="0" />
    <g
       transform="matrix(0.35277777,0,0,-0.35277777,47.358762,319.67856)"
       id="g362">
      <g
         id="g364"
         clip-path="url(#clipPath368)">
        <g
           id="g370"
           transform="translate(104.0926,628.4879)">
          <path
             d="m 0,0 c -1.438,-1.759 -2.738,-2.327 -4.09,-2.327 -0.537,0 -1.906,0.284 -2.634,1.646 -0.641,1.21 -0.745,3.026 -0.745,4.161 0,3.197 0.676,6.091 3.206,6.091 1.976,0 3.431,-2.213 4.038,-3.859 h 0.433 v 4.426 H -0.26 c -0.173,-0.472 -0.329,-0.87 -0.797,-0.87 -0.451,0 -1.785,0.927 -3.345,0.927 -3.639,0 -6.134,-2.95 -6.134,-6.79 0,-3.537 2.184,-6.64 6.221,-6.64 2.218,0 3.57,1.192 4.835,2.762 z"
             style="fill:#ffffff;fill-opacity:1;fill-rule:nonzero;stroke:none"
             id="path372"
             inkscape:connector-curvature="0" />
        </g>
        <g
           id="g374"
           transform="translate(108.1053,629.9443)">
          <path
             d="M 0,0 C 0,2.156 0.086,4.029 1.369,4.029 2.426,4.029 2.72,2.913 2.72,0 2.72,-2.402 2.582,-4.01 1.386,-4.01 0,-4.01 0,-2.043 0,0 m -2.548,0 c 0,-2.459 1.508,-4.597 3.917,-4.597 2.356,0 3.899,2.081 3.899,4.597 0,2.629 -1.629,4.615 -3.899,4.615 C -1.04,4.615 -2.548,2.44 -2.548,0"
             style="fill:#ffffff;fill-opacity:1;fill-rule:nonzero;stroke:none"
             id="path376"
             inkscape:connector-curvature="0" />
        </g>
        <g
           id="g378"
           transform="translate(118.1463,626.0668)">
          <path
             d="m 0,0 c -0.676,0 -0.849,0.586 -0.849,1.135 v 11.198 h -3.292 v -0.454 c 0.849,0 0.883,-0.889 0.883,-1.097 V 1.135 C -3.258,0.681 -3.448,0 -4.141,0 V -0.454 H 0 Z"
             style="fill:#ffffff;fill-opacity:1;fill-rule:nonzero;stroke:none"
             id="path380"
             inkscape:connector-curvature="0" />
        </g>
        <g
           id="g382"
           transform="translate(122.924,626.0668)">
          <path
             d="m 0,0 c -0.676,0 -0.849,0.586 -0.849,1.135 v 11.198 h -3.293 v -0.454 c 0.849,0 0.884,-0.889 0.884,-1.097 V 1.135 C -3.258,0.681 -3.449,0 -4.142,0 V -0.454 H 0 Z"
             style="fill:#ffffff;fill-opacity:1;fill-rule:nonzero;stroke:none"
             id="path384"
             inkscape:connector-curvature="0" />
        </g>
        <g
           id="g386"
           transform="translate(126.1243,630.9467)">
          <path
             d="M 0,0 C 0,2.61 0.589,3.027 1.231,3.027 1.837,3.027 2.063,2.554 2.166,2.138 2.305,1.57 2.305,0.587 2.322,0 Z M 4.125,-2.97 C 3.795,-3.405 3.188,-4.237 2.166,-4.237 0.52,-4.237 0.139,-2.308 0.087,-0.7 H 4.454 C 4.402,0.322 4.176,3.613 1.161,3.613 c -1.992,0 -3.569,-1.778 -3.569,-4.578 0,-3.234 1.767,-4.634 3.517,-4.634 1.386,0 2.374,0.605 3.432,2.365 z"
             style="fill:#ffffff;fill-opacity:1;fill-rule:nonzero;stroke:none"
             id="path388"
             inkscape:connector-curvature="0" />
        </g>
        <g
           id="g390"
           transform="translate(139.2688,633.141)">
          <path
             d="m 0,0 v 1.003 h -2.253 c -0.693,0.302 -1.282,0.416 -1.906,0.416 -2.374,0 -3.552,-1.495 -3.552,-3.008 0,-1.362 0.832,-2.383 2.114,-2.894 v -0.038 c -0.745,-0.226 -2.028,-0.964 -2.028,-2.156 0,-0.984 0.572,-1.267 1.352,-1.57 v -0.038 c -0.97,-0.095 -1.594,-0.662 -1.594,-1.418 0,-1.06 1.282,-1.722 3.431,-1.722 2.166,0 4.453,0.511 4.453,2.856 0,2.1 -1.992,2.289 -2.842,2.308 l -1.126,0.019 c -1.282,0.018 -1.733,0.038 -1.733,0.681 0,0.567 0.641,0.946 0.971,0.946 1.681,0 1.681,0 2.183,0.17 1.248,0.435 1.82,1.418 1.82,2.572 0,1.135 -0.521,1.684 -0.694,1.873 z m -2.738,-8.512 c 0.901,0 1.386,-0.284 1.386,-0.965 0,-1.343 -2.183,-1.343 -2.876,-1.343 -0.295,0 -2.114,0.038 -2.114,1.249 0,0.416 0.155,0.662 0.606,1.059 z m -2.599,6.866 c 0,1.192 0.087,2.478 1.144,2.478 1.143,0 1.143,-1.627 1.143,-2.478 0,-1.078 -0.052,-2.44 -1.143,-2.44 -1.023,0 -1.144,1.135 -1.144,2.44"
             style="fill:#ffffff;fill-opacity:1;fill-rule:nonzero;stroke:none"
             id="path392"
             inkscape:connector-curvature="0" />
        </g>
        <g
           id="g394"
           transform="translate(142.3613,630.9467)">
          <path
             d="M 0,0 C 0,2.61 0.589,3.027 1.23,3.027 1.837,3.027 2.062,2.554 2.166,2.138 2.305,1.57 2.305,0.587 2.322,0 Z M 4.124,-2.97 C 3.795,-3.405 3.188,-4.237 2.166,-4.237 0.52,-4.237 0.139,-2.308 0.087,-0.7 H 4.453 C 4.402,0.322 4.176,3.613 1.161,3.613 c -1.993,0 -3.57,-1.778 -3.57,-4.578 0,-3.234 1.768,-4.634 3.518,-4.634 1.386,0 2.374,0.605 3.431,2.365 z"
             style="fill:#ffffff;fill-opacity:1;fill-rule:nonzero;stroke:none"
             id="path396"
             inkscape:connector-curvature="0" />
        </g>
        <g
           id="g398"
           transform="translate(87.3657,646.751)">
          <path
             d="m 0,0 c -1.438,-1.759 -2.738,-2.326 -4.09,-2.326 -0.537,0 -1.906,0.283 -2.634,1.645 -0.641,1.211 -0.745,3.027 -0.745,4.162 0,3.196 0.676,6.09 3.206,6.09 1.976,0 3.431,-2.213 4.038,-3.858 h 0.433 v 4.426 H -0.26 c -0.173,-0.473 -0.329,-0.87 -0.797,-0.87 -0.451,0 -1.785,0.927 -3.345,0.927 -3.639,0 -6.134,-2.951 -6.134,-6.791 0,-3.537 2.184,-6.639 6.221,-6.639 2.218,0 3.57,1.191 4.835,2.761 z"
             style="fill:#ffffff;fill-opacity:1;fill-rule:nonzero;stroke:none"
             id="path400"
             inkscape:connector-curvature="0" />
        </g>
        <g
           id="g402"
           transform="translate(91.3784,648.2075)">
          <path
             d="M 0,0 C 0,2.156 0.087,4.029 1.369,4.029 2.426,4.029 2.721,2.913 2.721,0 2.721,-2.402 2.582,-4.01 1.386,-4.01 0,-4.01 0,-2.043 0,0 m -2.547,0 c 0,-2.459 1.507,-4.596 3.916,-4.596 2.356,0 3.899,2.08 3.899,4.596 0,2.629 -1.629,4.615 -3.899,4.615 C -1.04,4.615 -2.547,2.44 -2.547,0"
             style="fill:#ffffff;fill-opacity:1;fill-rule:nonzero;stroke:none"
             id="path404"
             inkscape:connector-curvature="0" />
        </g>
        <g
           id="g406"
           transform="translate(111.1062,644.33)">
          <path
             d="m 0,0 c -0.866,0.019 -0.866,0.605 -0.866,1.078 v 4.748 c 0,2.081 -1.369,2.667 -2.322,2.667 -1.005,0 -1.785,-0.53 -2.565,-1.646 -0.26,0.606 -0.693,1.646 -2.27,1.646 -1.456,0 -2.218,-1.135 -2.461,-1.589 h -0.035 v 1.362 h -3.309 V 7.812 c 0.502,-0.076 0.953,-0.132 0.953,-1.116 V 1.135 c 0,-0.927 -0.381,-1.022 -0.953,-1.135 v -0.454 h 4.159 V 0 c -0.676,0.076 -0.797,0.492 -0.797,1.078 v 5.051 c 0,0.151 0.693,1.097 1.438,1.097 0.953,0 0.953,-0.965 0.953,-1.57 V 1.078 c 0,-0.435 0,-1.021 -0.832,-1.078 v -0.454 h 4.055 V 0 C -5.51,0.057 -5.666,0.473 -5.666,1.078 v 5.051 c 0,0.151 0.727,1.097 1.455,1.097 0.936,0 0.936,-0.984 0.936,-1.57 V 1.078 c 0,-0.454 0,-1.04 -0.849,-1.078 V -0.454 H 0 Z"
             style="fill:#ffffff;fill-opacity:1;fill-rule:nonzero;stroke:none"
             id="path408"
             inkscape:connector-curvature="0" />
        </g>
        <g
           id="g410"
           transform="translate(125.4333,644.33)">
          <path
             d="m 0,0 c -0.866,0.019 -0.866,0.605 -0.866,1.078 v 4.748 c 0,2.081 -1.369,2.667 -2.322,2.667 -1.006,0 -1.785,-0.53 -2.565,-1.646 -0.26,0.606 -0.693,1.646 -2.27,1.646 -1.456,0 -2.218,-1.135 -2.461,-1.589 h -0.035 v 1.362 h -3.309 V 7.812 c 0.502,-0.076 0.953,-0.132 0.953,-1.116 V 1.135 c 0,-0.927 -0.382,-1.022 -0.953,-1.135 V -0.454 H -9.67 V 0 c -0.675,0.076 -0.797,0.492 -0.797,1.078 v 5.051 c 0,0.151 0.694,1.097 1.439,1.097 0.953,0 0.953,-0.965 0.953,-1.57 V 1.078 c 0,-0.435 0,-1.021 -0.832,-1.078 v -0.454 h 4.055 V 0 C -5.51,0.057 -5.666,0.473 -5.666,1.078 v 5.051 c 0,0.151 0.727,1.097 1.455,1.097 0.936,0 0.936,-0.984 0.936,-1.57 V 1.078 c 0,-0.454 0,-1.04 -0.85,-1.078 V -0.454 H 0 Z"
             style="fill:#ffffff;fill-opacity:1;fill-rule:nonzero;stroke:none"
             id="path412"
             inkscape:connector-curvature="0" />
        </g>
        <g
           id="g414"
           transform="translate(134.9601,644.6892)">
          <path
             d="m 0,0 c -0.78,0.019 -0.97,0.359 -0.97,1.097 v 6.81 H -4.453 V 7.453 C -3.864,7.396 -3.379,7.377 -3.379,6.337 V 0.984 C -3.709,0.624 -4.141,0.151 -4.8,0.151 c -0.953,0 -0.971,0.814 -0.971,1.344 V 7.907 H -9.028 V 7.453 c 0.71,-0.133 0.849,-0.36 0.849,-1.116 V 1.57 c 0,-1.343 0.589,-2.648 2.357,-2.648 1.16,0 1.958,0.775 2.46,1.248 V -1.059 C -2.374,-0.7 -2.131,-0.681 0,-0.435 Z"
             style="fill:#ffffff;fill-opacity:1;fill-rule:nonzero;stroke:none"
             id="path416"
             inkscape:connector-curvature="0" />
        </g>
        <g
           id="g418"
           transform="translate(144.5551,644.33)">
          <path
             d="m 0,0 c -0.849,0.038 -0.849,0.624 -0.849,1.078 v 4.748 c 0,2.081 -1.369,2.667 -2.322,2.667 -1.473,0 -2.218,-1.135 -2.461,-1.589 h -0.034 v 1.362 h -3.31 V 7.812 C -8.283,7.699 -8.058,7.547 -8.058,6.696 V 1.135 C -8.058,0.208 -8.352,0.132 -8.976,0 V -0.454 H -4.8 V 0 c -0.797,0.095 -0.849,0.643 -0.849,1.078 v 5.051 c 0,0.17 0.745,1.097 1.438,1.097 0.936,0 0.953,-1.041 0.953,-1.57 V 1.078 C -3.258,0.378 -3.5,0.057 -4.072,0 V -0.454 H 0 Z"
             style="fill:#ffffff;fill-opacity:1;fill-rule:nonzero;stroke:none"
             id="path420"
             inkscape:connector-curvature="0" />
        </g>
        <g
           id="g422"
           transform="translate(149.1947,644.33)">
          <path
             d="M 0,0 C -0.676,0.076 -0.815,0.492 -0.815,1.078 V 8.266 H -4.142 V 7.812 C -3.483,7.68 -3.223,7.547 -3.223,6.696 V 1.135 C -3.223,0.227 -3.518,0.17 -4.142,0 V -0.454 H 0 Z m -3.379,11.141 c 0,-0.813 0.554,-1.456 1.351,-1.456 0.746,0 1.335,0.624 1.335,1.456 0,0.813 -0.589,1.476 -1.335,1.476 -0.779,0 -1.351,-0.681 -1.351,-1.476"
             style="fill:#ffffff;fill-opacity:1;fill-rule:nonzero;stroke:none"
             id="path424"
             inkscape:connector-curvature="0" />
        </g>
        <g
           id="g426"
           transform="translate(154.8385,652.5959)">
          <path
             d="M 0,0 H -1.629 V 3.197 H -2.063 C -3.241,1.362 -4.02,0.53 -4.939,-0.322 v -0.51 h 0.901 v -6.129 c 0.018,-0.397 0.087,-1.986 1.959,-1.986 1.559,0 2.183,1.305 2.547,2.118 L 0.034,-6.62 c -0.19,-0.398 -0.485,-0.984 -0.987,-0.984 -0.694,0 -0.676,0.775 -0.676,1.078 v 5.694 H 0 Z"
             style="fill:#ffffff;fill-opacity:1;fill-rule:nonzero;stroke:none"
             id="path428"
             inkscape:connector-curvature="0" />
        </g>
        <g
           id="g430"
           transform="translate(163.5949,652.5959)">
          <path
             d="m 0,0 h -2.617 v -0.454 c 0.433,-0.019 0.954,-0.019 0.954,-0.624 0,-0.284 -0.087,-0.53 -0.191,-0.851 l -1.178,-3.632 -1.248,3.499 c -0.156,0.416 -0.347,0.908 -0.347,1.097 0,0.454 0.468,0.473 0.918,0.511 V 0 H -8.04 v -0.454 c 0.433,-0.076 0.519,-0.076 0.727,-0.511 0.104,-0.227 0.624,-1.399 1.005,-2.421 l 2.08,-5.58 -0.312,-1.003 c -0.122,-0.416 -0.554,-1.551 -1.144,-1.551 -0.208,0 -0.294,0.227 -0.294,0.322 0,0.076 0.052,0.17 0.052,0.341 0,0.34 -0.191,0.964 -0.971,0.964 -1.04,0 -1.143,-0.964 -1.143,-1.229 0,-0.606 0.467,-1.476 1.594,-1.476 1.628,0 1.993,1.078 2.859,3.594 l 2.582,7.51 c 0.329,0.945 0.624,0.983 1.005,1.04 z"
             style="fill:#ffffff;fill-opacity:1;fill-rule:nonzero;stroke:none"
             id="path432"
             inkscape:connector-curvature="0" />
        </g>
        <g
           id="g434"
           transform="translate(94.039,665.0144)">
          <path
             d="m 0,0 c -1.438,-1.759 -2.738,-2.327 -4.09,-2.327 -0.537,0 -1.906,0.284 -2.634,1.646 -0.641,1.211 -0.745,3.026 -0.745,4.161 0,3.197 0.676,6.091 3.206,6.091 1.976,0 3.431,-2.213 4.038,-3.858 h 0.433 v 4.426 H -0.26 c -0.173,-0.473 -0.329,-0.87 -0.797,-0.87 -0.451,0 -1.785,0.926 -3.345,0.926 -3.639,0 -6.134,-2.95 -6.134,-6.79 0,-3.537 2.183,-6.64 6.221,-6.64 2.218,0 3.57,1.192 4.835,2.762 z"
             style="fill:#ffffff;fill-opacity:1;fill-rule:nonzero;stroke:none"
             id="path436"
             inkscape:connector-curvature="0" />
        </g>
        <g
           id="g438"
           transform="translate(104.3765,662.9526)">
          <path
             d="m 0,0 c -0.78,0.019 -0.97,0.359 -0.97,1.097 v 6.81 H -4.453 V 7.453 C -3.864,7.396 -3.379,7.377 -3.379,6.337 V 0.984 C -3.708,0.624 -4.141,0.151 -4.8,0.151 c -0.953,0 -0.97,0.814 -0.97,1.343 V 7.907 H -9.028 V 7.453 c 0.71,-0.133 0.849,-0.36 0.849,-1.116 V 1.57 c 0,-1.343 0.589,-2.648 2.357,-2.648 1.161,0 1.958,0.775 2.46,1.248 V -1.059 C -2.374,-0.7 -2.131,-0.681 0,-0.435 Z"
             style="fill:#ffffff;fill-opacity:1;fill-rule:nonzero;stroke:none"
             id="path440"
             inkscape:connector-curvature="0" />
        </g>
        <g
           id="g442"
           transform="translate(112.9495,670.8593)">
          <path
             d="m 0,0 h -2.617 v -0.454 c 0.433,-0.019 0.953,-0.019 0.953,-0.624 0,-0.284 -0.086,-0.53 -0.19,-0.851 l -1.179,-3.632 -1.247,3.499 c -0.156,0.416 -0.347,0.908 -0.347,1.097 0,0.454 0.468,0.473 0.918,0.511 V 0 h -4.332 v -0.454 c 0.434,-0.076 0.52,-0.076 0.728,-0.511 0.104,-0.227 0.624,-1.4 1.005,-2.421 l 2.08,-5.58 -0.312,-1.002 c -0.122,-0.417 -0.555,-1.552 -1.144,-1.552 -0.208,0 -0.295,0.227 -0.295,0.322 0,0.076 0.053,0.17 0.053,0.34 0,0.341 -0.191,0.965 -0.971,0.965 -1.04,0 -1.144,-0.965 -1.144,-1.229 0,-0.606 0.468,-1.476 1.595,-1.476 1.628,0 1.992,1.078 2.859,3.594 l 2.582,7.51 c 0.329,0.945 0.624,0.983 1.005,1.04 z"
             style="fill:#ffffff;fill-opacity:1;fill-rule:nonzero;stroke:none"
             id="path444"
             inkscape:connector-curvature="0" />
        </g>
        <g
           id="g446"
           transform="translate(121.4309,663.3499)">
          <path
             d="m 0,0 -0.173,-0.189 c -0.052,-0.057 -0.104,-0.076 -0.173,-0.076 -0.382,0 -0.382,0.359 -0.382,0.473 v 4.937 c 0,1.778 -1.542,2.591 -3.466,2.591 -2.148,0 -3.24,-1.153 -3.24,-2.345 0,-1.286 0.936,-1.286 1.144,-1.286 0.901,0 1.161,0.718 1.161,1.059 0,0.738 -0.52,0.889 -0.52,1.286 0,0.303 0.399,0.681 1.022,0.681 1.283,0 1.525,-0.7 1.525,-1.665 v -1.38 c -2.461,-0.814 -4.661,-1.57 -4.661,-3.538 0,-1.437 1.074,-2.023 1.906,-2.023 0.416,0 1.629,0.094 2.755,1.323 0.104,-0.529 0.243,-1.323 1.456,-1.323 0.78,0 1.421,0.453 1.906,1.078 z m -3.119,0.681 c -0.243,-0.303 -0.641,-0.814 -1.23,-0.814 -0.624,0 -0.884,0.681 -0.884,1.268 0,1.645 1.715,2.194 2.114,2.289 z"
             style="fill:#ffffff;fill-opacity:1;fill-rule:nonzero;stroke:none"
             id="path448"
             inkscape:connector-curvature="0" />
        </g>
        <g
           id="g450"
           transform="translate(131.0911,662.593)">
          <path
             d="m 0,0 c -0.849,0 -0.849,0.814 -0.849,1.135 v 4.691 c 0,2.081 -1.369,2.667 -2.322,2.667 -0.901,0 -1.647,-0.416 -2.478,-1.475 v 5.315 h -3.327 v -0.454 c 0.676,-0.151 0.918,-0.208 0.918,-1.097 V 1.135 C -8.058,0.208 -8.353,0.133 -8.976,0 V -0.454 H -4.8 V 0 c -0.797,0.095 -0.849,0.643 -0.849,1.078 v 5.051 c 0,0.17 0.745,1.097 1.438,1.097 0.936,0 0.953,-1.04 0.953,-1.57 V 1.078 C -3.258,0.378 -3.5,0.057 -4.072,0 V -0.454 H 0 Z"
             style="fill:#ffffff;fill-opacity:1;fill-rule:nonzero;stroke:none"
             id="path452"
             inkscape:connector-curvature="0" />
        </g>
        <g
           id="g454"
           transform="translate(134.3785,666.4709)">
          <path
             d="M 0,0 C 0,2.156 0.087,4.029 1.369,4.029 2.426,4.029 2.721,2.913 2.721,0 2.721,-2.402 2.582,-4.01 1.386,-4.01 0,-4.01 0,-2.043 0,0 m -2.547,0 c 0,-2.459 1.507,-4.596 3.916,-4.596 2.356,0 3.899,2.08 3.899,4.596 0,2.629 -1.629,4.615 -3.899,4.615 C -1.04,4.615 -2.547,2.44 -2.547,0"
             style="fill:#ffffff;fill-opacity:1;fill-rule:nonzero;stroke:none"
             id="path456"
             inkscape:connector-curvature="0" />
        </g>
        <g
           id="g458"
           transform="translate(148.3535,669.6675)">
          <path
             d="m 0,0 v 1.003 h -2.253 c -0.693,0.302 -1.282,0.416 -1.906,0.416 -2.374,0 -3.552,-1.495 -3.552,-3.008 0,-1.362 0.831,-2.383 2.114,-2.894 v -0.038 c -0.745,-0.227 -2.028,-0.964 -2.028,-2.156 0,-0.984 0.572,-1.267 1.352,-1.57 v -0.038 c -0.971,-0.095 -1.594,-0.662 -1.594,-1.418 0,-1.06 1.282,-1.722 3.431,-1.722 2.166,0 4.453,0.511 4.453,2.856 0,2.1 -1.993,2.289 -2.842,2.308 l -1.126,0.019 c -1.283,0.019 -1.733,0.038 -1.733,0.681 0,0.567 0.641,0.946 0.971,0.946 1.681,0 1.681,0 2.183,0.17 1.248,0.435 1.82,1.419 1.82,2.573 0,1.134 -0.521,1.683 -0.694,1.872 z m -2.738,-8.512 c 0.901,0 1.386,-0.284 1.386,-0.965 0,-1.343 -2.183,-1.343 -2.876,-1.343 -0.295,0 -2.114,0.038 -2.114,1.249 0,0.416 0.155,0.662 0.606,1.059 z m -2.6,6.866 c 0,1.192 0.087,2.478 1.144,2.478 1.144,0 1.144,-1.626 1.144,-2.478 0,-1.078 -0.052,-2.44 -1.144,-2.44 -1.022,0 -1.144,1.135 -1.144,2.44"
             style="fill:#ffffff;fill-opacity:1;fill-rule:nonzero;stroke:none"
             id="path460"
             inkscape:connector-curvature="0" />
        </g>
        <g
           id="g462"
           transform="translate(156.8005,663.3499)">
          <path
             d="m 0,0 -0.173,-0.189 c -0.053,-0.057 -0.104,-0.076 -0.174,-0.076 -0.381,0 -0.381,0.359 -0.381,0.473 v 4.937 c 0,1.778 -1.542,2.591 -3.466,2.591 -2.148,0 -3.241,-1.153 -3.241,-2.345 0,-1.286 0.937,-1.286 1.144,-1.286 0.902,0 1.162,0.718 1.162,1.059 0,0.738 -0.52,0.889 -0.52,1.286 0,0.303 0.398,0.681 1.022,0.681 1.282,0 1.525,-0.7 1.525,-1.665 v -1.38 c -2.461,-0.814 -4.661,-1.57 -4.661,-3.538 0,-1.437 1.074,-2.023 1.906,-2.023 0.416,0 1.628,0.094 2.755,1.323 0.104,-0.529 0.242,-1.323 1.456,-1.323 0.779,0 1.42,0.453 1.906,1.078 z m -3.12,0.681 c -0.242,-0.303 -0.64,-0.814 -1.23,-0.814 -0.623,0 -0.883,0.681 -0.883,1.268 0,1.645 1.715,2.194 2.113,2.289 z"
             style="fill:#ffffff;fill-opacity:1;fill-rule:nonzero;stroke:none"
             id="path464"
             inkscape:connector-curvature="0" />
        </g>
        <g
           id="g466"
           transform="translate(120.2381,606.0458)">
          <path
             d="M 0,0 C 0,0.854 0.703,1.544 1.572,1.544 2.44,1.544 3.144,0.854 3.144,0 3.144,-0.852 2.44,-1.544 1.572,-1.544 0.703,-1.544 0,-0.852 0,0"
             style="fill:#ffffff;fill-opacity:1;fill-rule:nonzero;stroke:none"
             id="path468"
             inkscape:connector-curvature="0" />
        </g>
        <g
           id="g470"
           transform="translate(125.9237,608.5992)">
          <path
             d="M 0,0 4.969,4.877 C 4.454,5.338 3.909,5.766 3.337,6.16 L -1.412,1.485 -1.436,1.476 C -1.622,1.324 -1.861,1.232 -2.122,1.232 c -0.591,0 -1.071,0.471 -1.071,1.052 V 2.279 l -10e-4,6.533 c -0.677,0.115 -1.368,0.19 -2.071,0.22 V 2.336 l 10e-4,0.009 c 0,-1.721 1.421,-3.116 3.173,-3.116 0.801,0 1.532,0.29 2.091,0.771"
             style="fill:#ffffff;fill-opacity:1;fill-rule:nonzero;stroke:none"
             id="path472"
             inkscape:connector-curvature="0" />
        </g>
        <g
           id="g474"
           transform="translate(119.2042,604.9707)">
          <path
             d="m 0,0 c 0.614,0.603 0.614,1.581 0,2.184 -0.614,0.603 -1.609,0.603 -2.223,0 C -2.837,1.581 -2.837,0.603 -2.223,0 -1.609,-0.602 -0.614,-0.602 0,0"
             style="fill:#ffffff;fill-opacity:1;fill-rule:nonzero;stroke:none"
             id="path476"
             inkscape:connector-curvature="0" />
        </g>
        <g
           id="g478"
           transform="translate(119.164,610.7258)">
          <path
             d="M 0,0 0.004,6.901 C -0.693,6.869 -1.387,6.793 -2.075,6.674 L -2.067,0.07 -2.078,0.046 c -0.022,-0.236 -0.125,-0.467 -0.31,-0.648 -0.418,-0.41 -1.095,-0.41 -1.513,0 l 0.002,-0.004 -4.702,4.619 C -9.163,3.624 -9.705,3.197 -10.224,2.73 l 4.82,-4.735 -0.006,0.008 c 1.239,-1.218 3.248,-1.218 4.487,0 C -0.357,-1.441 -0.049,-0.727 0,0"
             style="fill:#ffffff;fill-opacity:1;fill-rule:nonzero;stroke:none"
             id="path480"
             inkscape:connector-curvature="0" />
        </g>
        <g
           id="g482"
           transform="translate(117.024,603.4935)">
          <path
             d="M 0,0 C 0,0.852 -0.704,1.544 -1.572,1.544 -2.44,1.544 -3.144,0.852 -3.144,0 c 0,-0.854 0.704,-1.545 1.572,-1.545 C -0.704,-1.545 0,-0.854 0,0"
             style="fill:#ffffff;fill-opacity:1;fill-rule:nonzero;stroke:none"
             id="path484"
             inkscape:connector-curvature="0" />
        </g>
        <g
           id="g486"
           transform="translate(112.8533,607.5344)">
          <path
             d="M 0,0 -4.964,4.882 C -5.434,4.376 -5.87,3.841 -6.271,3.279 l 4.759,-4.666 0.009,-0.024 c 0.155,-0.182 0.249,-0.417 0.249,-0.674 0,-0.58 -0.48,-1.051 -1.071,-1.051 l 0.004,-10e-4 H -8.97 c -0.117,-0.665 -0.193,-1.344 -0.224,-2.034 h 6.816 -0.01 c 1.753,0 3.174,1.396 3.174,3.117 C 0.786,-1.267 0.489,-0.549 0,0"
             style="fill:#ffffff;fill-opacity:1;fill-rule:nonzero;stroke:none"
             id="path488"
             inkscape:connector-curvature="0" />
        </g>
        <g
           id="g490"
           transform="translate(116.5462,600.9329)">
          <path
             d="m 0,0 c -0.614,0.603 -1.609,0.603 -2.223,0 -0.614,-0.602 -0.614,-1.581 0,-2.183 0.614,-0.603 1.609,-0.603 2.223,0 0.614,0.602 0.614,1.581 0,2.183"
             style="fill:#ffffff;fill-opacity:1;fill-rule:nonzero;stroke:none"
             id="path492"
             inkscape:connector-curvature="0" />
        </g>
        <g
           id="g494"
           transform="translate(110.6882,600.8939)">
          <path
             d="m 0,0 -7.024,0.003 c 0.032,-0.683 0.109,-1.365 0.23,-2.041 l 6.723,0.007 0.024,-0.01 c 0.241,-0.022 0.476,-0.124 0.66,-0.304 0.419,-0.412 0.419,-1.077 0,-1.488 l 0.004,0.002 -4.702,-4.618 c 0.396,-0.552 0.831,-1.085 1.306,-1.595 l 4.82,4.735 -0.007,-0.006 c 1.239,1.218 1.239,3.191 0,4.408 C 1.468,-0.35 0.741,-0.048 0,0"
             style="fill:#ffffff;fill-opacity:1;fill-rule:nonzero;stroke:none"
             id="path496"
             inkscape:connector-curvature="0" />
        </g>
        <g
           id="g498"
           transform="translate(118.0509,598.7919)">
          <path
             d="m 0,0 c -0.868,0 -1.572,-0.691 -1.572,-1.545 0,-0.852 0.704,-1.544 1.572,-1.544 0.868,0 1.572,0.692 1.572,1.544 C 1.572,-0.691 0.868,0 0,0"
             style="fill:#ffffff;fill-opacity:1;fill-rule:nonzero;stroke:none"
             id="path500"
             inkscape:connector-curvature="0" />
        </g>
        <g
           id="g502"
           transform="translate(113.9371,594.6945)">
          <path
             d="m 0,0 -4.969,-4.877 c 0.515,-0.462 1.06,-0.891 1.632,-1.284 l 4.749,4.676 0.024,0.008 c 0.186,0.153 0.425,0.244 0.686,0.244 0.591,0 1.07,-0.471 1.07,-1.052 l 10e-4,0.004 v -6.531 c 0.677,-0.116 1.369,-0.19 2.072,-0.221 v 6.696 L 5.264,-2.346 C 5.264,-0.625 3.843,0.771 2.09,0.771 1.29,0.771 0.558,0.48 0,0"
             style="fill:#ffffff;fill-opacity:1;fill-rule:nonzero;stroke:none"
             id="path504"
             inkscape:connector-curvature="0" />
        </g>
        <g
           id="g506"
           transform="translate(120.6564,598.322)">
          <path
             d="m 0,0 c -0.614,-0.603 -0.614,-1.581 0,-2.184 0.614,-0.603 1.609,-0.603 2.223,0 0.614,0.603 0.614,1.581 0,2.184 C 1.609,0.603 0.614,0.603 0,0"
             style="fill:#ffffff;fill-opacity:1;fill-rule:nonzero;stroke:none"
             id="path508"
             inkscape:connector-curvature="0" />
        </g>
        <g
           id="g510"
           transform="translate(120.6969,592.5668)">
          <path
             d="m 0,0 -0.004,-6.9 c 0.696,0.032 1.39,0.107 2.078,0.226 l -0.007,6.605 0.011,0.023 c 0.022,0.237 0.125,0.468 0.309,0.649 0.418,0.411 1.096,0.411 1.514,0 L 3.899,0.606 8.6,-4.012 c 0.563,0.388 1.105,0.815 1.624,1.282 L 5.404,2.006 5.41,1.998 C 4.171,3.216 2.161,3.216 0.922,1.998 0.356,1.442 0.049,0.728 0,0"
             style="fill:#ffffff;fill-opacity:1;fill-rule:nonzero;stroke:none"
             id="path512"
             inkscape:connector-curvature="0" />
        </g>
        <g
           id="g514"
           transform="translate(122.8369,599.8003)">
          <path
             d="M 0,0 C 0,-0.852 0.704,-1.544 1.572,-1.544 2.44,-1.544 3.144,-0.852 3.144,0 3.144,0.853 2.44,1.544 1.572,1.544 0.704,1.544 0,0.853 0,0"
             style="fill:#ffffff;fill-opacity:1;fill-rule:nonzero;stroke:none"
             id="path516"
             inkscape:connector-curvature="0" />
        </g>
        <g
           id="g518"
           transform="translate(127.0076,595.7594)">
          <path
             d="m 0,0 4.964,-4.882 c 0.47,0.506 0.906,1.041 1.307,1.603 L 1.512,1.386 1.503,1.411 C 1.347,1.593 1.254,1.828 1.254,2.085 c 0,0.58 0.48,1.051 1.071,1.051 H 2.32 8.97 C 9.088,3.802 9.163,4.481 9.194,5.171 H 2.378 L 2.388,5.17 C 0.635,5.17 -0.786,3.775 -0.786,2.053 -0.786,1.267 -0.489,0.548 0,0"
             style="fill:#ffffff;fill-opacity:1;fill-rule:nonzero;stroke:none"
             id="path520"
             inkscape:connector-curvature="0" />
        </g>
        <g
           id="g522"
           transform="translate(123.3144,602.3599)">
          <path
             d="m 0,0 c 0.614,-0.603 1.609,-0.603 2.223,0 0.614,0.603 0.614,1.581 0,2.184 C 1.609,2.787 0.614,2.787 0,2.184 -0.614,1.581 -0.614,0.603 0,0"
             style="fill:#ffffff;fill-opacity:1;fill-rule:nonzero;stroke:none"
             id="path524"
             inkscape:connector-curvature="0" />
        </g>
        <g
           id="g526"
           transform="translate(129.1726,602.3998)">
          <path
             d="M 0,0 7.024,-0.004 C 6.992,0.68 6.915,1.362 6.794,2.037 L 0.071,2.03 0.047,2.042 c -0.241,0.021 -0.476,0.122 -0.66,0.303 -0.418,0.41 -0.418,1.076 0,1.488 L -0.617,3.83 4.085,8.449 C 3.689,9.001 3.254,9.533 2.779,10.043 l -4.82,-4.734 0.007,0.006 C -3.273,4.097 -3.273,2.124 -2.034,0.906 -1.468,0.35 -0.741,0.048 0,0"
             style="fill:#ffffff;fill-opacity:1;fill-rule:nonzero;stroke:none"
             id="path528"
             inkscape:connector-curvature="0" />
        </g>
      </g>
    </g>
  </g>
</svg>
