<svg xmlns="http://www.w3.org/2000/svg" height="58.74" viewBox="0 0 260.00708 58.740421" width="260.01"><g transform="matrix(1.25 0 0 -1.25 -253.32 525.34)"><g><path d="m378.41 417.54-1.8765 1.8669h9.5986v-36.917c0-0.30665 0.0534-0.99886 0.72374-0.99886h12.619c0.61485 0 0.71894 0.98408 0.71894 1.3254v36.591h9.5978l-1.8729-1.8669 0.00067-35.822c0-1.8482-1.3374-7.7273-7.4581-7.7273h-14.595c-6.0573 0-7.4557 5.7686-7.4557 7.7273v35.822" fill="#333"/><path d="m30.283 1.1465l2.397 4.0625v48.426l-2.397 4.053h28.672v-8.651h-17.326v-15.195h12.859v-8.852h-12.859v-15.193l17.326-0.0001v-8.6504h-28.672zm43.446 0l-9.479 52.488-2.4 4.054h10.939v-4.053l0.94-5.397h10.425l0.94 5.397v4.053h10.943l-2.394-4.053-9.489-52.488-10.425-0.0005zm19.441 0v8.6504h9.23v43.838l-2.39 4.053h13.73l-2.39-4.053v-43.838l9.24-0.0001v-8.6504h-27.42zm30.86 0v8.6504h9.23v43.838l-2.38 4.053h13.71l-2.38-4.053v-43.838l9.23-0.0001v-8.6504h-27.41zm30.58 0l2.4 4.0625v52.479h25.61v-8.651h-16.66v-47.89l-11.35-0.0005zm31.18 0l2.39 4.0625v48.426l-2.39 4.053h28.65v-8.651h-17.31v-15.195h12.86v-8.852h-12.86v-15.193l17.31-0.0001v-8.6504h-28.65zm-175.95 0.0117c-7.7511 0-8.9453 7.9076-8.9453 11.078l-0.00002 1.633c0 3.174-0.57073 7.542 6.7148 14.803 6.1247 6.763 11.239 9.081 11.239 15.291v2.644c-0.235 1.507-1.17 2.43-2.43 2.43h-5.215c-0.919 0-1.3632-0.938-1.3632-1.748v-8.039h-8.9453l-0.00002 8.074c0 3.186 1.1942 10.364 8.9453 10.364h9.3552c6.785 0 8.545-5.491 8.887-9.002v-3.915c0-7.363-2.874-10.76-8.752-16.613-8.277-8.25-9.4902-8.391-9.4902-13.174v-1.964c0-1.97 1.0282-3.2095 2.4902-3.2095h5.553c0.91 0 1.361 0.9465 1.361 1.7635v7.998l8.942-4.709v-2.627c0-4.7068-2.126-11.078-9.862-11.078l-8.4842 0.0002zm69.099 15.49l3.543 22.733h-7.089l3.546-22.733z" transform="matrix(.8 0 0 -.8 202.65 420.27)" fill="#a00"/></g></g></svg>
