<?xml version="1.0" encoding="UTF-8" standalone="no"?>
<svg xmlns:rdf="http://www.w3.org/1999/02/22-rdf-syntax-ns#" xmlns="http://www.w3.org/2000/svg" xml:space="preserve" height="116.55" viewBox="0 0 188.30426 116.54774" width="188.3" version="1.1" xmlns:cc="http://creativecommons.org/ns#" xmlns:dc="http://purl.org/dc/elements/1.1/"><g transform="matrix(1.25 0 0 -1.25 -557.2 327.28)"><g transform="translate(.70725 .70725)"><path d="m127.27 6.1309c-12.183-0.076291-26.517 4.0715-37.115 16.34-7.8762 9.1162-11.226 20.391-9.7539 31.756 4.2962-2.2725 9.7802-3.5098 16.285-3.5098 2.1762 0 4.2022 0.14914 6.0859 0.43164 0.33625-6.7188 2.6955-13.216 6.4805-17.096 16.438-17.351 50.395-16.708 50.994 10.725 1.93-8.54 0.8868-16.012-2.252-22.045-2.5438-4.8925-6.4824-8.8533-11.34-11.676-4.8862-2.84-10.707-4.5267-16.979-4.8555-0.79133-0.041484-1.5941-0.065227-2.4062-0.070312zm5.3027 35.844c-1.2917 0.01561-2.629 0.13242-4.0059 0.35742 21.75 12.604 11.525 37.087-11.24 32.607-3.34-0.88125-6.0413-2.4992-8.1738-4.6055h-7.6934c0.0562-4.04-2.1908-6.0625-6.9883-6.0625-3.285 0-5.7306 1.8525-6.0469 4.125-0.4775 3.4525 4.3378 4.547 13.664 8.9258 7.8738 3.6762 11.822 8.3155 11.957 14.762 4.3738 0.9225 8.9308 1.0558 13.426 0.11328 39.315-9.3716 31.366-50.54 5.1016-50.223z" transform="matrix(.8 0 0 -.8 445.76 260.22)" fill="#f0c33b"/><path d="m136.33 0c-13.059 0.067433-25.874 4.1012-36.055 12.311 9.9362-6.2313 20.466-8.7623 30.016-8.2598 6.575 0.345 12.7 2.1255 17.863 5.123 5.1962 3.0212 9.4162 7.2741 12.156 12.539 3.8155 7.3362 4.7236 16.616 1.334 27.227h0.0391l-0.008 0.02734h24.166c0.22375-2.05 0.3661-3.3995 0.3711-3.457 1.09-17.839-8.08-32.928-23.5-40.145-8.39-3.5991-17.44-5.4111-26.38-5.365zm25.346 48.967h-0.0391c0.003-0.0092 0.005-0.01819 0.008-0.02734h-7.7774c1.7212 2.9188 2.9001 6.1748 3.4863 9.5898h1.5547l2.7676-9.5625zm-64.99 1.75c-15.489 0-25.214 6.9898-26.791 18.354-1.3213 9.5138 4.29 13.979 15.594 19.281 6.0838 2.8638 9.9002 3.8707 9.4102 7.4082-0.43 3.115-2.9504 4.8828-7.2441 4.8828-5.81 0-8.6688-2.4411-8.0488-6.9023l0.02148-0.16797h-18.775c-1.7875 12.883 6.7812 20.893 24.295 20.893 16.84 0 27.044-7.4241 28.717-19.463 1.1088-7.9975-2.7579-13.47-11.775-17.68-9.3263-4.3788-14.143-5.472-13.664-8.9258 0.31625-2.2725 2.7631-4.125 6.0469-4.125 4.7988 0 7.0433 2.0225 6.9883 6.0625h18.1c0.78-12.295-7.38-19.618-22.871-19.618zm-58.639 1.599-38.051 60.534h19.631l4.0371-7.2422h19.281l-0.08008 7.2422h18.27l-3.7227-60.535h-19.365zm88.121 0-6.7774 22.955c16.29 2.0275 25.359-11.169 19.291-22.955h-12.514zm37.553 0-10.57 36.117c-2.2638 7.8312-4.9715 10.949-11.959 10.949-5.22 0-7.6741-2.9506-6.9141-8.4219 0.0437-0.31125 0.0984-0.62359 0.16211-0.93359-2.1362 0.83875-4.4538 1.5712-6.9688 2.1699-4.165 0.87375-8.388 0.82688-12.467 0.07813-1.57 14.471 6.8223 22.271 24.166 22.271 18.355 0 27.852-7.7566 32.902-25.352l10.676-36.879h-19.027zm-121.2 18.691 0.09375 22.395h-12.463l12.369-22.395z" transform="matrix(.8 0 0 -.8 445.76 260.22)" fill="#245397"/></g></g></svg>
