<?xml version="1.0" encoding="UTF-8" standalone="no"?>
<svg xmlns:rdf="http://www.w3.org/1999/02/22-rdf-syntax-ns#" xmlns="http://www.w3.org/2000/svg" xml:space="preserve" height="36.725" viewBox="0 0 106.7832 36.725108" width="106.78" version="1.1" xmlns:cc="http://creativecommons.org/ns#" xmlns:dc="http://purl.org/dc/elements/1.1/"><g transform="matrix(1.25 0 0 -1.25 -329.81 708.34)"><g transform="matrix(.25 0 0 .25 230.18 414.14)"><path d="m16.633 0v37.766h-10.775l7.5879 13.709h3.1875v28.021h14.709v-28.092h11.188c6.6138 0 11.996-5.3811 11.996-11.996v-27.41c-0.002-6.615-5.384-11.998-11.998-11.998h-25.896zm56.846 0c-6.615 0-11.996 5.383-11.996 11.998l-0.03906 55.5c0 6.6162 5.3823 11.998 11.996 11.998h13.473c6.615 0 11.994-5.3818 11.994-11.998l-0.03711-55.5c-0.001-6.615-5.383-11.998-11.997-11.998h-13.394zm32.67 0v79.496h14.703v-79.496h-14.703zm21.961 0v79.496h14.705v-34.051l10.955 34.051h14.547v-79.496h-14.703v32.816l-10.98-32.816h-14.54zm45.957 0v13.719h9.0898v65.777h14.707v-65.777h9.0879v-13.719h-32.885zm53.268 0v79.496h23.475l7.3418-13.514h-16.113v-65.982h-14.703zm46.109 0c-6.615 0-11.996 5.383-11.996 11.998l-0.0371 55.5c0 6.6162 5.3798 11.998 11.996 11.998h13.471c6.6138 0 11.994-5.3818 11.994-11.998l-0.0351-55.5c0.01-6.615-5.38-11.998-11.99-11.998h-13.396zm32.654 0v79.496h14.703v-31.457l9.7266 27.818 9.7285-27.816v31.455h14.707l-0.01-79.496h-12.53l-11.9 33.076-11.91-33.076h-12.52zm68.26 0c-6.6162 0-12 5.383-12 11.998l0.006 67.502 15.281-0.0039v-28.021h8.3203v28.021l15.283 0.0039v-28.025h3.1875l7.5879-13.709h-10.775l0.004-25.768c-0.01-6.615-5.39-11.998-12-11.998h-14.898zm-343.02 13.713h7.9297v24.053h-7.9297v-24.053zm346.3 0h8.3203v24.053h-8.3203v-24.053zm-300.92 0.0059h6.8965v52.264h-6.8965v-52.264zm199.97 0h6.8945v52.264h-6.8945v-52.264zm-24.77 103.98c-8.3838 0-14.674 4.7478-14.674 10.602v0.0586c0 5.855 6.2107 10.545 14.596 10.545 8.3862 0 14.674-4.7485 14.674-10.604v-0.0566c0-5.855-6.2107-10.545-14.596-10.545zm-148.17 0.0605c-6.5225 0-10.52 2.7352-10.52 6.5215v0.0586c0 4.195 4.4643 5.4182 10.248 6.4082 3.6888 0.64 4.5801 1.1062 4.5801 1.9512v0.0586c0 0.8725-1.0855 1.3984-3.1055 1.3984-3.1438 0-6.1313-0.84476-8.8125-2.4473l-4.1914 3.7578c3.3375 2.2425 7.9194 3.377 12.734 3.377 6.5975 0 10.984-2.4749 10.984-6.6387v-0.0586c0-3.815-3.8809-5.3289-10.131-6.3477-3.7662-0.6425-4.6992-1.0512-4.6992-1.9824v-0.0586c0-0.7275 0.89305-1.3106 2.7168-1.3106 2.4075 0 5.1244 0.69852 7.6094 2.0098l3.7656-3.9902c-2.95-1.7775-6.5609-2.707-11.18-2.707zm210.78 0c-6.5212 0-10.52 2.7352-10.52 6.5215v0.0586c0 4.195 4.463 5.4182 10.248 6.4082 3.6875 0.64 4.5801 1.1062 4.5801 1.9512v0.0586c0 0.8725-1.0867 1.3984-3.1055 1.3984-3.1438 0-6.1318-0.84476-8.8106-2.4473l-4.1953 3.7578c3.3388 2.2425 7.9206 3.377 12.734 3.377 6.5988 0 10.986-2.4749 10.986-6.6387v-0.0586c0-3.815-3.8821-5.3289-10.131-6.3477-3.7662-0.6425-4.6992-1.0512-4.6992-1.9824v-0.0586c0-0.7275 0.89304-1.3106 2.7168-1.3106 2.4088 0 5.1244 0.69852 7.6094 2.0098l3.7656-3.9902c-2.95-1.7775-6.5597-2.707-11.18-2.707zm-155.27 0.20312-11.568 20.533h7.918l1.9414-3.6406h10.482l1.9766 3.6406h8.0762l-11.57-20.533h-7.2559zm-37.617 0.14649v20.387h22.051v-4.8066h-14.596v-3.2324h13.041v-4.4551h-13.041v-3.0879h14.4v-4.8047h-21.855zm75.268 0v20.387h20.691v-4.9492h-13.16v-15.438h-7.5312zm27.172 0v20.387h7.5703v-20.387h-7.5703zm47.9 0v20.387h7.4551v-11.186l11.605 11.186h6.5996v-20.387h-7.4531v10.775l-11.18-10.775h-7.0274zm-20.145 4.6875c4.1525 0 6.9863 2.5639 6.9863 5.5039v0.0586c0 2.9438-2.7544 5.4473-6.9082 5.4473-4.1138 0-6.9492-2.5634-6.9492-5.5058v-0.0566c0-2.9425 2.7561-5.4473 6.8711-5.4473zm-89.006 1.8633 3.0254 5.7969h-6.0938l3.0684-5.7969z" transform="matrix(.8 0 0 -.8 138.11 606.75)" fill="#0e553f"/><path d="m22.822 5.6914v37.729h-7.3516l1.3516 2.3301h6v28.561h2.3301v-28.561h15.719c3.9662 0 7.1934-3.2284 7.1934-7.1934v-25.672c0-3.9675-3.2271-7.1934-7.1934-7.1934h-18.049zm52.291 0c-3.965 0-7.1914 3.2259-7.1914 7.1934v53.725c0 3.9675 3.2264 7.1953 7.1914 7.1953h10.104c3.9662 0 7.1914-3.2278 7.1914-7.1953v-53.725c0-3.9675-3.2252-7.1934-7.1914-7.1934h-10.104zm104.59 0v2.3301h9.6406v64.91h2.3281v-64.91h9.832v-2.3301h-21.801zm95.371 0c-3.9662 0-7.1934 3.2259-7.1934 7.1934v53.725c0 3.9675 3.2271 7.1953 7.1934 7.1953h10.102c3.9662 0 7.1914-3.2278 7.1914-7.1953v-53.725c0-3.9675-3.2252-7.1934-7.1914-7.1934h-10.102zm100.95 0c-3.9662 0-7.1934 3.2259-7.1934 7.1934v60.047h2.3301v-27.182h21.201v27.182h2.3301v-27.182h6.3613l1.3535-2.3301h-7.7148v-30.535c0-3.9675-3.2271-7.1934-7.1934-7.1934h-11.475zm-263.69 0.87305v66.367h2.3301v-66.367h-2.3301zm47.465 0v59.848l-23.082-59.543-0.0723-0.18555h-2.3457v66.248h2.3301v-59.846l23.127 59.66 0.0723 0.18555h2.3008v-66.367h-2.3301zm73.729 0.00195v67.238h14.682l1.3711-2.3301h-13.723v-64.908h-2.3301zm78.758 0.11719v66.248h2.332v-59.623l15.912 42.615 15.916-42.617v59.625h2.3301v-66.248h-2.3438l-15.902 42.582-15.828-42.395-0.0723-0.1875h-2.3438zm-287.13 1.3379h15.719c2.6812 0 4.8613 2.182 4.8613 4.8633v25.672c0 2.6812-2.1801 4.8633-4.8613 4.8633h-15.719v-35.398zm49.961 0h10.104c2.68 0 4.8613 2.1808 4.8613 4.8633v53.725c0 2.6838-2.1813 4.8652-4.8613 4.8652h-10.104c-2.6812 0-4.8613-2.1815-4.8613-4.8652v-53.725c0-2.6825 2.1801-4.8633 4.8613-4.8633zm199.96 0h10.102c2.6825 0 4.8633 2.1808 4.8633 4.8633v53.725c0 2.6838-2.1808 4.8652-4.8633 4.8652h-10.102c-2.6812 0-4.8633-2.1815-4.8633-4.8652v-53.725c0-2.6825 2.182-4.8633 4.8633-4.8633zm100.95 0h11.475c2.6812 0 4.8633 2.1808 4.8633 4.8633v30.535h-21.201v-30.535c0-2.6825 2.1808-4.8633 4.8633-4.8633zm-44.51 81.012c-33.906-0.23126-79.292 3.2936-138.88 14.57h226.5s-22.887-14.129-87.617-14.57zm-331.52 0.094s52.864 37.786 226.5 0h-226.5z" transform="matrix(.8 0 0 -.8 138.11 606.75)" fill="#fdb927"/></g></g></svg>
