<?xml version="1.0" encoding="UTF-8" standalone="no"?>
<svg xmlns:rdf="http://www.w3.org/1999/02/22-rdf-syntax-ns#" xmlns="http://www.w3.org/2000/svg" xml:space="preserve" height="88.174" viewBox="0 0 114.53855 88.174118" width="114.54" version="1.1" xmlns:cc="http://creativecommons.org/ns#" xmlns:xlink="http://www.w3.org/1999/xlink" xmlns:dc="http://purl.org/dc/elements/1.1/"><g transform="matrix(1.25 0 0 -1.25 -12.661 783.39)"><g transform="translate(.76952 .64127)"><path d="m97.311 625.11c-0.722 0.047-17.845-2.506-26.45-4.061-1.158-0.209-1.966-1.277-2.056-2.45l-1.398-13.179c-0.005-0.069-0.007-0.138-0.007-0.207 0-0.891 0.439-1.743 1.177-2.256 0.25-0.175 0.526-0.294 0.814-0.377-0.678-1.783-1.975-5.212-3.105-8.195-0.818 2.828-1.666 5.76-2.025 7.003 1.212 0.235 2.122 1.255 2.215 2.487l1.373 13.286c0.005 0.07 0.007 0.139 0.007 0.209 0 0.76-0.311 1.48-0.872 2.004-0.613 0.572-1.439 0.83-2.268 0.71-0.431-0.062-9.041-1.418-17.124-2.663-1.151-0.177-1.888-1.949-1.968-3.112l-1.283-13.285c-0.004-0.064-0.006-0.128-0.006-0.192 0-0.827 0.375-1.615 1.023-2.138 0.419-0.337 0.925-0.506 1.445-0.559-0.673-2.035-2.247-6.794-3.45-10.437-0.906 3.476-1.971 7.568-2.361 9.067 1.101 0.286 1.953 1.233 2.053 2.42l1.494 14.239c0.006 0.077 0.009 0.153 0.009 0.231 0 0.823-0.024 1.528-0.48 2.109-0.561 0.715-0.928 0.901-1.834 0.829-0.803-0.063-13.151-1.928-25.648-4.041-0.952-0.161-1.039-1.989-0.919-2.947l1.947-14.801c0.095-0.759 0.506-1.45 1.129-1.895 0.622-0.444 1.409-0.61 2.158-0.452 0.009 0.002 0.765 0.138 0.883-0.226l10.052-34.154c0.449-1.399 1.914-2.195 3.332-1.808l14.823 2.336c0.922 0.248 1.637 0.944 1.911 1.862 0 0 2.415 8.409 3.836 13.162 1.213-3.69 3.333-11.243 3.333-11.243 0.461-1.397 1.93-2.182 3.347-1.786l14.918 2.439c0.874 0.243 1.571 0.902 1.862 1.759 0 0 11.715 38.092 11.755 38.205 0.057 0.114 0.467 0.887 1.692 1.223 0.936 0.26 1.674 1.003 1.925 1.94l5.215 15.496c0.063 0.235 0.094 0.474 0.094 0.711 0 0.568-0.175 1.126-0.516 1.599" fill="#01265a"/><path d="m99.364 623.97c-0.481 0.669-1.228 1.085-2.052 1.138" fill="#01265a"/><path d="m98.725 621.95-5.218-15.497c-0.15-0.564-0.59-1.007-1.153-1.162-1.795-0.495-2.368-1.748-2.421-1.873l-11.775-38.261c-0.175-0.515-0.592-0.909-1.116-1.056l-14.919-2.439c-0.849-0.238-1.733 0.235-2.008 1.072l-4.427 14.565-4.838-16.514c-0.163-0.544-0.597-0.967-1.147-1.116l-14.823-2.337c-0.85-0.23-1.729 0.247-1.999 1.086l-10.053 34.157c-0.398 1.227-1.875 1.014-2.152 0.962-0.452-0.096-0.92 0.005-1.296 0.271-0.374 0.267-0.62 0.68-0.677 1.137l-1.946 14.801c-0.073 0.578 0.243 1.601 0.817 1.697 12.815 2.17 24.007 3.869 25.043 3.911 0.545 0.022 0.873-1.291 0.827-1.833l-1.494-14.24c-0.073-0.868-0.81-1.53-1.682-1.509-0.26 0.006-0.481 0-0.669-0.012l3.628-13.934 5.186 15.684-0.869-0.254c-0.518-0.152-1.076-0.04-1.496 0.299-0.421 0.337-0.648 0.861-0.611 1.398l1.282 13.285c0.049 0.698 0.47 2.025 1.162 2.129 7.378 1.101 16.563 2.573 16.993 2.634 0.494 0.073 0.995-0.083 1.361-0.425s0.557-0.83 0.52-1.328l-1.376-13.286c-0.054-0.743-0.603-1.357-1.337-1.495-0.5-0.093-0.875-0.186-1.159-0.268l3.265-11.279c1.5 3.963 3.947 10.427 4.875 12.877-0.066-0.025-0.13-0.052-0.189-0.079-0.531-0.243-1.151-0.189-1.63 0.145s-0.747 0.895-0.701 1.478l1.396 13.178c0.054 0.704 0.538 1.355 1.235 1.47 8.25 1.376 25.39 4.077 26.106 4.03 0.492-0.032 0.944-0.283 1.232-0.684 0.288-0.4 0.38-0.908 0.253-1.385" fill="#fff"/><path d="m74.663 578.55h-0.001l-0.004-0.004 0.005 0.004z" fill="#01265a"/><path d="m97.157 622.74c-0.707 0.046-16.861-2.7032-25.705-3.9922-0.157-0.022-0.263-0.17056-0.275-0.32656l-1.398-13.18c-0.01-0.13 0.05181-0.25568 0.15781-0.32968 0.106-0.075 0.2435-0.0853 0.3625-0.0312 0.738 0.339 1.9799 0.66269 2.3469 0.30469 0.032-0.071 0.12781-0.34926-0.04218-0.83126l-4.9578-13.1h-0.29219c-0.523 0-0.97744-0.35818-1.0984-0.86718l-0.04218-0.17344c-0.23501 0.299-0.53813 0.54206-0.90313 0.71406h0.0031c-0.17009 0.0799-0.35673 0.13708-0.55625 0.18594l-3.3359 11.527c-0.002 0.013-0.0075 0.0255-0.0125 0.0375-0.037 0.094-0.04994 0.21393-0.03594 0.26093 0.115 0.09 0.66738 0.45338 2.4344 0.78438 0.164 0.032 0.28487 0.16781 0.29688 0.33281l1.3734 13.286c0.009 0.111-0.03562 0.21875-0.11562 0.29375-0.082 0.076-0.19512 0.11231-0.30312 0.0953-0.104-0.016-6.6892-1.2601-16.792-2.7531-0.154-0.023-0.25675-0.17057-0.26875-0.32657l-1.282-13.8c-0.008-0.119 0.04038-0.23694 0.13438-0.31094 0.093-0.076 0.21781-0.0986 0.33281-0.0656l1.8766 0.54844c0.029 0.009 0.62544 0.21319 0.84844-0.0828 0.008-0.011 0.01913-0.0228 0.02813-0.0328 0.003-0.003 0.23181-0.28606 0.0078-0.86406-0.0026-0.008-1.4739-4.4577-2.9094-8.7984h-1.1422c-0.302 0-0.57881-0.12231-0.78281-0.32031-0.209 0.201-0.48456 0.32031-0.77656 0.32031h-4.2516c-0.04159 0-0.07245-0.003-0.1125-0.003l-1.8578 7.1312c-0.003 0.012-0.07387 0.30237 0.05313 0.38437-0.007-0.004 0.57794 0.31982 2.1359 0.28282 0.194-0.005 0.35588 0.14393 0.37188 0.33593l1.4953 14.239c0.01 0.121-0.04138 0.23806-0.13438 0.31406-0.095 0.077-0.21994 0.10219-0.33594 0.0672-0.122-0.035-10.065-1.6398-23.53-3.7688-0.128-0.02-0.15506-0.20737-0.13906-0.33437l1.9453-14.802c0.013-0.103 0.06756-0.19413 0.15156-0.25313 0.082-0.06 0.1875-0.0814 0.2875-0.0594 0.116 0.023 2.8634 0.55768 3.6344-1.8203l0.50469-1.7141h-1.3688c-0.414 0-0.78581-0.22588-0.98281-0.57188-0.194 0.341-0.56181 0.57188-0.98281 0.57188h-3.0141c-0.438 0-0.83588-0.253-1.0219-0.65l-0.69535-1.4812c-0.003 0.542-0.04844 1.1009-0.42344 1.5469-0.494 0.584-1.2161 0.58437-1.6031 0.58437h-3.1c-0.522 0-0.97744-0.35818-1.0984-0.86718l-0.10156-0.42344c-0.073-0.306-0.01506-0.63019 0.16094-0.89219 0.132-0.197 0.32162-0.34613 0.54062-0.42813l0.31875-8.8906v-0.006c0.021-0.514 0.08056-1.1019 0.52656-1.5469 0.502-0.502 1.1952-0.50313 1.5672-0.50313h2.4562c0.444 0 0.84669 0.26006 1.0297 0.66406l0.39375 0.87188c0.042-0.344 0.13944-0.667 0.37344-0.95 0.482-0.585 1.1914-0.58594 1.5734-0.58594h2.5922c0.434 0 0.83075 0.24919 1.0188 0.64219l0.05625 0.11562c0.252-0.426 0.74544-0.75781 1.5734-0.75781h2.9641c0.46436 0 0.85647 0.29072 1.0281 0.70625l5.7672-19.594c0.06-0.188 0.25631-0.29219 0.44531-0.24219l14.822 2.3359c0.122 0.033 0.21969 0.12844 0.25469 0.24844l4.9156 16.717c0.08332 0.0512 0.16204 0.10785 0.22969 0.17812 0.02-0.013 0.03782-0.0282 0.05782-0.0422 0.326-0.206 0.73488-0.30782 1.2469-0.30782h0.77031c1.3174-4.2768 4.4891-14.564 4.4891-14.564 0.061-0.186 0.25787-0.2915 0.44688-0.2375l14.919 2.4391c0.115 0.032 0.20944 0.11782 0.24844 0.23282l3.7328 12.13h0.04062c0.521 0 0.97488 0.36019 1.0969 0.86719l0.06094 0.25313c0.109-0.259 0.25462-0.51119 0.49062-0.71719 0.465-0.402 1.0098-0.40313 1.3688-0.40313h1.5734c0.499 0 1.0201 0.0511 1.4641 0.41407 0.009 0.008 0.01756 0.016 0.02656 0.025 0.059-0.049 0.11894-0.0961 0.18594-0.13907 0.324-0.201 0.7295-0.3 1.2375-0.3h2.7094c0.54 0 1.0044 0.38194 1.1094 0.91094l0.08125 0.42344c0.044 0.214 0.0216 0.43481-0.05936 0.63281h0.1l0.2-0.53594c0.133-0.364 0.302-0.818 0.75-1.125 0.442-0.305 0.932-0.30625 1.325-0.30625h2.1688c0.525 0 0.98356 0.36513 1.1016 0.87813l2.3703 10.381c0.051 0.212 0.0797 0.44675 0.0797 0.64375 0 0.564-0.26131 1.0549-0.72031 1.3469-0.323 0.207-0.72806 0.30782-1.2391 0.30782h-2.7109c-0.523 0-0.97444-0.35807-1.0984-0.86407l-0.03592-0.16093c-0.404 0.942-1.1487 1.025-1.8797 1.025h-3.3375c-0.523 0-0.97644-0.35819-1.0984-0.86719l-0.02813-0.12031c-0.094 0.119-0.19425 0.22956-0.30625 0.32656l-0.03125 0.0234c-0.698 0.56-1.5731 0.6375-2.4141 0.6375h-0.40938l3.8844 12.62c0.027 0.073 0.74813 1.9524 3.2781 2.6484 0.125 0.035 0.22281 0.13337 0.25781 0.25937l5.2156 15.495c0.028 0.106 0.0083 0.21881-0.05472 0.30781-0.066 0.088-0.166 0.14513-0.275 0.15313z" fill="#01265a"/><path d="m11.36 590.12-0.10156-0.425c0.542-0.085 0.69469-0.2865 0.72969-0.9125l0.32031-8.9953c0.034-0.832 0.16862-0.96562 0.96562-0.96562h2.4562l2.575 5.6906-0.05156-4.6594c0-0.913 0.10344-1.0312 0.84844-1.0312h2.5906l4.9812 10.4c0.102 0.204 0.15156 0.37244 0.15156 0.47344 0 0.289-0.20312 0.425-0.72812 0.425h-2.9141l-0.10156-0.425c0.356-0.033 0.50781-0.16788 0.50781-0.42188 0-0.186-0.06694-0.42425-0.23594-0.78125l-2.0328-4.4031-0.10156 6.0313h-3.0156l-2.8281-6.0313-0.01719 4.9641c0 0.932-0.11944 1.0672-0.89844 1.0672h-3.1zm16.911 0-0.10156-0.42344c0.322-0.034 0.49062-0.16963 0.49062-0.39063 0-0.134-0.08531-0.33856-0.27031-0.72656l-4.575-8.8594c-0.101-0.188-0.13437-0.32282-0.13437-0.45782 0-0.307 0.20294-0.43906 0.66094-0.43906h2.9641l0.08437 0.42188c-0.339 0.067-0.49062 0.20224-0.49062 0.45624 0 0.119 0.04994 0.27182 0.13594 0.45782l0.59219 1.3219h2.9125l0.05156-1.8125c0.017-0.728 0.13563-0.84531 0.91563-0.84531h3.1328l0.10156 0.42188c-0.44 0.083-0.62537 0.28574-0.65937 0.74374l-0.44062 9.0813c-0.016 0.54-0.03513 0.66031-0.10312 0.79531-0.118 0.188-0.30256 0.25469-0.72656 0.25469h-4.5406zm11.811 0c-0.88 0-1.2022-0.0499-1.5922-0.27188-0.559-0.288-1.0507-0.98188-1.3547-1.8969-0.255-0.797-0.45781-1.8109-0.45781-2.2859 0-0.813 0.44038-1.3389 1.6094-1.8969l1.1172-0.50937c0.643-0.271 0.83125-0.49106 0.83125-0.91406 0-0.339-0.15381-0.65926-0.40781-0.83126-0.254-0.169-0.4575-0.21874-1.2875-0.21874h-1.2703c-0.965 0-1.2188 0.11756-1.2188 0.67656h-0.475l-0.40625-1.7594c-0.034-0.171-0.11875-0.57768-0.11875-0.67968 0-0.305 0.18544-0.52413 0.47344-0.62813 0.187-0.068 0.38925-0.0844 0.88125-0.0844h3.3547c1.44 0 2.1008 0.27231 2.7438 1.1703 0.542 0.729 1.1016 2.6254 1.1016 3.7094 0 0.508-0.15281 0.93194-0.45781 1.2359-0.22 0.222-0.55969 0.42331-1.2547 0.74531l-1.1 0.50938c-0.559 0.254-0.69375 0.40593-0.69375 0.76093 0 0.408 0.169 0.72826 0.475 0.88126 0.203 0.101 0.42281 0.13593 1.0328 0.13593h1.4391c0.694 0 0.83119 0.13444 1.0172 0.89844l0.27031 1.2531h-4.2516zm5.8109 0-0.10313-0.42344c0.373-0.067 0.54219-0.23844 0.54219-0.52344 0-0.103-0.01738-0.18856-0.08438-0.47656l-2.05-8.9609c-0.034-0.151-0.05-0.28731-0.05-0.37031 0-0.375 0.25369-0.54375 0.82969-0.54375h3.2859l0.10156 0.42344c-0.373 0.067-0.54219 0.22-0.54219 0.525 0 0.102 0.01638 0.186 0.08438 0.475l0.84844 3.7094h2.1016l-0.98438-4.2188c-0.034-0.151-0.05-0.28731-0.05-0.37031 0-0.375 0.25369-0.54375 0.82969-0.54375h3.3031l0.08437 0.42344c-0.357 0.067-0.525 0.22-0.525 0.525 0 0.102 0.01694 0.186 0.08594 0.475l2.0484 8.9578c0.033 0.155 0.05156 0.274 0.05156 0.375 0 0.373-0.25425 0.54219-0.83125 0.54219h-3.2859l-0.10156-0.42344c0.355-0.067 0.525-0.23844 0.525-0.52344 0-0.103-0.01618-0.18856-0.06718-0.47656l-0.62656-2.7109h-2.0844l0.72969 3.2172c0.033 0.155 0.05 0.274 0.05 0.375 0 0.373-0.23669 0.54219-0.82969 0.54219h-3.2859zm11.094 0-0.10156-0.42344c0.372-0.068 0.54219-0.23844 0.54219-0.52344 0-0.103-0.01794-0.188-0.08594-0.475l-2.0484-8.9625c-0.034-0.151-0.06718-0.28788-0.06718-0.37188 0-0.372 0.27288-0.54218 0.84688-0.54218h6.0125c1.068 0 1.575 0.271 2.05 1.05 0.593 0.984 1.05 2.6773 1.05 3.8453 0 0.931-0.37312 1.4048-1.2531 1.5578 0.424 0.102 0.72925 0.271 0.93125 0.525 0.441 0.543 0.79688 1.7268 0.79688 2.6438 0 0.676-0.28969 1.2012-0.82969 1.4562-0.322 0.153-0.74481 0.22032-1.5578 0.22032h-6.2859zm10.366 0-0.1-0.425c0.357-0.066 0.525-0.23844 0.525-0.52344 0-0.102-0.01462-0.186-0.06562-0.475l-1.4422-6.2844c-0.118-0.509-0.22031-1.1356-0.22031-1.4406 0-1.575 1.3234-2.3359 4.1344-2.3359 1.846 0 2.9973 0.26988 3.8453 0.84688 0.778 0.526 1.0848 1.0994 1.4578 2.7094l1.5906 6.9109c0.049 0.205 0.06875 0.37519 0.06875 0.49219 0 0.357-0.25681 0.525-0.83281 0.525h-3.2828l-0.10312-0.425c0.356-0.066 0.54219-0.23844 0.54219-0.52344 0-0.102-0.01694-0.186-0.08594-0.475l-1.4562-6.3875c-0.219-0.93-0.54188-1.2344-1.3219-1.2344-0.559 0-0.84531 0.21913-0.84531 0.67813 0 0.15 0.01518 0.25312 0.11719 0.72812l1.5422 6.7219c0.034 0.121 0.05156 0.30719 0.05156 0.39219 0 0.357-0.25369 0.525-0.82969 0.525h-3.2891zm10.995 0-0.10156-0.42344c0.373-0.068 0.54219-0.23744 0.54219-0.52344 0-0.103-0.01638-0.189-0.08437-0.475l-2.05-8.9625c-0.033-0.15-0.06718-0.28788-0.06718-0.37188 0-0.372 0.26988-0.54218 0.84688-0.54218h3.2859l0.10156 0.425c-0.372 0.066-0.54219 0.21744-0.54219 0.52344 0 0.085 0.017 0.18587 0.05 0.32187l0.85 3.6938h0.31875l1.2891-4.1516c0.237-0.745 0.305-0.8125 0.95-0.8125h1.575c0.744 0 0.89662 0.1355 1.0656 0.8625l0.35625 1.5078h-0.25469c-0.626 0-0.67681 0.0517-0.98281 0.82969l-0.69376 1.7641c0.814 0.186 1.2709 0.47362 1.7109 1.0656 0.591 0.83 1.0172 2.1849 1.0172 3.3359 0 0.661-0.20494 1.2372-0.56094 1.5422-0.339 0.272-0.81294 0.39063-1.7109 0.39063h-6.9109zm10.792 0-0.10312-0.42344c0.373-0.068 0.54062-0.23844 0.54062-0.52344 0-0.103-0.01536-0.188-0.08437-0.475l-2.05-8.9641c-0.032-0.117-0.06562-0.2865-0.06562-0.3875 0-0.355 0.26931-0.52656 0.84531-0.52656h2.7109l0.08438 0.425c-0.356 0.067-0.525 0.22-0.525 0.525 0 0.101 0.01896 0.186 0.08594 0.475l0.98281 4.2844 1.8609-5.0141c0.23701-0.644 0.30519-0.69531 1.0172-0.69531h2.1688l2.3734 10.383c0.032 0.137 0.05 0.28962 0.05 0.39062 0 0.357-0.25525 0.52657-0.83125 0.52657h-2.7109l-0.10156-0.42344c0.374-0.068 0.54218-0.23844 0.54218-0.52344 0-0.103-0.0184-0.188-0.08438-0.475l-0.8125-3.5578-1.6781 4.5391c-0.135 0.391-0.23669 0.44063-0.87969 0.44063h-3.3359zm-28.375-2.1516h0.89688c0.644 0 0.79688-0.10181 0.79688-0.55781 0-0.458-0.10325-0.83019-0.30625-1.0672-0.17-0.221-0.42294-0.33906-0.76094-0.33906h-1.0656l0.43906 1.9641zm21.361 0h0.87969c0.797 0 1.0172-0.15112 1.0172-0.67812 0-0.457-0.13488-0.89657-0.37188-1.2016-0.237-0.289-0.54238-0.42656-1.0344-0.42656h-1.0156l0.525 2.3062zm-51.755-0.40625 0.11875-4.1172h-1.9812l1.8625 4.1172zm29.512-3.5062h0.83125c0.812 0 1.0484-0.17069 1.0484-0.72969 0-0.237-0.15262-1.2364-0.44062-1.6594-0.254-0.373-0.48881-0.475-1.0828-0.475h-1.0172l0.66094 2.8641z" fill="#fff"/></g></g></svg>