<svg xmlns="http://www.w3.org/2000/svg" height="136.12" width="202" viewBox="0 0 202 136.12465"><path fill="#E31B23" d="m75.885 107.86c-0.25916 0.56667-0.53657 1.2393-0.77058 2.0459-0.06962 0.24948-0.08788 0.42065-0.09368 0.55603 0.26883 0.0232 0.80781 0.0209 1.798-0.275 0.70011-0.21081 1.4066-0.89024 2.07-1.7799-1.0888 0.0445-2.1006-0.19304-3.0037-0.54697zm18.325-4.8259c-0.05609 0.0619-0.09911 0.0847-0.15713 0.16017-0.68657 0.85676-1.3046 3.1674-1.792 6.0316 0.46609-1.6246 1.0052-3.3571 1.7285-5.3125 0.12184-0.35199 0.18385-0.63182 0.2206-0.87937zm15.31-33.178c1.1295 0.15085 2.3158 0.29324 3.5748 0.41702 5.8852 0.60341 12.175 1.9875 13.453 2.9584 0.66917 0.51444 1.4933 0.7568 2.3268 0.76453-0.002 0.10637-0.002 0.21093-0.006 0.3173-0.20113 0.03094-0.40154 0.04037-0.56206 0.09065-0.95733 0.31911-3.2047 1.4949-3.46 5.5331l-0.43166 4.2966c-0.0155 0.26302-0.0161 0.65176 0.0574 1.1604 0.20887 1.0502 0.80334 2.1614 2.1939 2.7862-0.6885 3.9126-1.5774 7.7171-2.4961 10.794-1.9513-3.1369-5.373-6.7627-11.395-10.066-1.0753-0.58794-2.3683-0.64402-3.4843-0.14505-1.1236 0.49897-1.9467 1.4932-2.2272 2.6864-0.23788 1.0037-0.49486 2.0058-0.76755 3.0037-0.23208-0.40807-0.47032-0.75655-0.71014-1.0969 2.5258-3.7269 6.1736-10.169 6.1736-16.23v-0.21455c-0.0483-3.3574-1.0517-5.5862-2.2393-7.056zm34.26-4.6868c-0.5744 0.53959-1.3474 0.82811-2.1365 0.7585-4.4443-0.37713-7.0588 1.2486-8.5248 2.7862 1.4737-0.24949 4.6954-1.278 5.8172-1.6591 1.0308-0.34812 2.0595 0.11797 2.7983 0.91865 0.64015-1.2184 1.3496-2.1893 2.0459-2.8043zm-50.791-0.0031c1.408 0.7736 3.4079 1.6691 6.1676 2.5142-0.44482 0.21467-0.87115 0.45135-1.2541 0.74338-1.1256 0.66723-5.5326 3.7227-9.1956 12.468-0.12184 0.2843-2.5645 5.9125-5.0284 12.529-0.67883-0.45256-1.4136-0.85955-2.2453-1.1574-3.9395-1.4022-8.4233 0.11906-12.009 4.0645-0.11217 0.11217-0.35452 0.39888-0.66783 0.78568-1.1681-2.0327-2.8866-2.8818-4.0161-3.2183-5.539-1.6536-12.047 3.6274-13.012 4.6718-0.09863 0.1083-0.69129 0.76114-1.4958 1.8404 0.83936-4.3845 2.4375-9.0488 5.3094-12.054 5.5331 1.3867 19.784 4.0052 28.741-3.0249 5.2721-4.1406 7.7086-10.649 7.2677-19.34 0.4777-0.25529 0.96072-0.52411 1.4384-0.82195zm55.9-8.7572c0.0522 1.6883 0.45812 3.4023 1.5412 4.8683 0.84709 1.1449 2.2851 2.3511 4.6175 2.8617-0.59762 1.3557-1.3735 2.4964-2.2089 2.7228-0.57826 0.15859-1.3586 0.17429-1.6198 0.0544-0.0309-0.05028-0.0838-0.16499-0.13599-0.42608-0.0735-0.3868-0.20718-0.76586-0.39284-1.112-0.55506-1.0502-1.7914-2.2533-3.59-2.472-0.33845-0.04255-0.79754-0.0538-1.3236 0.03323-0.008-0.13538 0.006-0.27172-0.0152-0.41097-0.0986-0.60728-0.61114-2.7316-3.0944-4.4935-0.15472-0.1083-0.31886-0.20465-0.47745-0.30522 0.25335 0.02514 0.5223 0.04666 0.8008 0.0544 1.8972 0.03675 3.8661-0.43116 5.8987-1.375zm-44.781-4.965c-0.80261 1.143-1.5183 2.1522-2.1062 2.9644 0.88191 0.55119 1.7742 1.0295 2.6774 1.4414-0.47576-1.2706-0.60426-2.3073-0.62553-2.5414-0.0155-0.0967-0.0152-0.20247-0.0152-0.29917 0.004-0.53572 0.0289-1.0567 0.0695-1.5653zm57.95-50.405c-0.89691 0.028947-1.8532 0.20367-2.8617 0.55905-0.14126 0.052218-0.28272 0.10951-0.42003 0.17527-1.1159 0.54345-10.85 5.8189-17.165 25.082-1.5008 0.45642-4.1344 1.5071-6.9986 3.6867-0.90125-0.79101-2.0442-1.2624-3.3573-1.1483-3.8487 0.24562-9.1002 1.303-14.04 3.5658 0.34812-0.63629 0.69903-1.2698 1.0123-1.8887 4.8136-1.992 16.937-7.8369 18.081-16.541 0.11217-0.74459 0.56364-4.7782-2.5173-7.5245-2.5142-2.2357-6.257-2.6504-11.133-1.2269-0.0367 0.00774-0.074 0.021636-0.10878 0.03324-0.2843 0.092832-7.0815 2.361-12.456 9.9753-0.0503 0.06576-0.17007 0.26278-0.21455 0.3324l0.10577-0.17225c-0.41194 0.54926-1.6139 0.79246-3.7472-0.15713-0.0252-0.0116-0.10565-0.04026-0.17527-0.06347-0.46261-0.30944-1.572-2.3185-0.5276-7.5171 0.31525-1.5414-0.34038-3.1314-1.6439-4.0192-1.3074-0.88771-3.0195-0.90705-4.3424-0.04835-0.92252 0.59374-8.9605 6.0183-8.3222 13.774 0.35972 4.2857 3.2906 7.9987 8.6516 11.087-3.9203 6.4073-8.1506 12.891-10.441 15.814-4.365-1.9863-12.948-5.0259-19.458-1.7285-2.7656 1.4022-6.2467 4.5304-7.0803 11.483-0.33265 3.2819 1.1373 10.026 8.9236 12.786 0.03868 0.01741 0.09464 0.03747 0.1662 0.06648 0.0039 0.0019 0.006 0 0.006 0 0.82388 0.31331 3.6313 1.2608 7.449 1.375-3.8022 2.0674-10.84 3.7849-23.767 2.1546-2.927-0.636-33.954-6.88-42.629 10.943-0.02901 0.07736-0.066 0.15122-0.10274 0.22663-1.3151 3.2027-2.1025 10.474 4.3455 15.04 0.07156 0.05802 0.14952 0.10795 0.23268 0.16017 4.5952 2.7811 12.998 4.3513 17.298-2.7348 0.68464-1.1295 0.7348-2.5247 0.1662-3.7199-0.56279-1.1894-1.7055-2.0275-3.0129-2.215-1.4022-0.1992-3.0307-0.81602-2.7831-2.5837 0.01547-0.12378 0.02743-0.34764 0.03323-0.47142l-0.006 0.13598c0.04448-0.43902 0.35018-1.5017 2.1062-2.1033 1.0289-0.21854 6.1662-1.2054 11.208-0.06043-4.7499 4.8678-11 13.886-11.241 27.822v0.0665c0 0.10637 0.0053 0.2148 0.0091 0.3173 0.0116 0.11604 0.63157 10.076-4.6869 10.9-0.29203 0.0445-5.6824 0.86764-8.4674-3.0158-0.03073-0.0437-0.08496-0.10862-0.13598-0.17225-0.17986-0.25722-1.7227-2.6029 0.57113-7.198 0.57633-0.84323 1.2489-1.7558 1.4868-1.9974l-0.73733 0.50767c1.2571-0.86256 2.1351-2.5072 1.8857-4.01-0.24368-1.5027-1.1015-2.8679-2.5656-3.2818-0.88964-0.25529-8.8498-2.3398-14.091 2.3541-3.4038 3.0518-4.5765 7.8974-3.4721 14.405 0.01934 0.10637 0.040493 0.20983 0.069503 0.31427 0.13538 0.54539 3.5842 13.325 20.465 14.499 0.45296 0.0463 13.233 1.1374 20.443-6.9896 0.24794-0.25767 2.0073-2.1005 3.7865-5.0405 0.09477 0.23014 0.17878 0.45993 0.28708 0.69201 1.9631 4.3592 4.9906 5.6784 7.1799 6.0226 4.4928 0.70205 8.9151-2.1973 11.71-4.5782 1.9108 1.1024 4.656 2.0586 8.6032 2.0276 1.3731-0.0155 3.4555-0.42693 5.521-1.5351 0.9786 0.62661 2.172 0.81844 3.2878 0.4684 7.4652-2.3479 8.7626-3.6522 9.3466-4.7352 0.91478 0.762 2.5663 1.828 5.0012 1.9673 1.5472 0.0909 3.1004-0.2189 4.6476-0.90354 0.24369 0.087 0.46803 0.22398 0.72525 0.25687 4.4327 0.62275 7.5932 0.30594 9.3859-0.93377 0.029-0.0174 0.0465-0.0441 0.0756-0.0635 0.4042 0.23208 0.78109 0.49063 1.251 0.63761 2.6148 0.81035 8.8679 0.91443 13.357-3.1277 0.11797 0.0619 0.23776 0.11785 0.3596 0.1662 2.1834 0.82388 6.4478 1.2607 10.513-1.1181 2.549 1.4428 7.1122 2.6463 12.374 0.37773 0.26303-0.11217 4.4595-1.9263 8.9386-6.3822 0.31137 0.49317 0.68838 0.95842 1.1816 1.3568 1.2784 1.085 3.8733 2.3394 7.1437 2.0821 0.86643 0.47963 1.8398 1.0244 1.8494 1.0244 1.8837 0.27656 5.0535 0.50284 7.3009-0.4835 2.2685 1.1488 5.6759 2.2473 9.9268 1.6923 8.3549-1.0927 14.33-7.6483 14.856-16.325 0.0948-1.522-0.71051-2.9626-2.0488-3.6898-1.1933-0.64402-2.5946-0.58057-3.7532 0.06347-1.0811-3.8352-4.2239-8.8209-12.813-12.737-1.9554-0.88771-4.4824 0.1175-5.2792 2.1153-0.35972 0.88964-0.75208 1.8218-1.1544 2.7559-0.0948-0.15665-0.12331-0.32056-0.22967-0.47142-0.33264-0.46029-0.75789-0.8437-1.2511-1.1241-1.3306-0.76393-3.4711-1.1208-5.5753-0.21757-0.47769 0.08703-1.294 0.07314-1.9612-0.80683-1.0966-1.4389-3.0294-1.9482-4.6869-1.2269-1.7192 0.74459-2.9429 1.4961-3.9254 2.2755-0.71752-0.83936-1.6436-1.6238-2.895-2.1576-2.8487-1.2184-6.115-0.7267-9.7122 1.4626-0.13345 0.07736-0.26388 0.16427-0.38378 0.2629-0.13732 0.11024-1.7743 1.4411-3.7682 3.6806 0.35779-1.843 0.62782-3.6237 0.75547-5.1342 0.0445-0.0077 0.2478-0.03928 0.2478-0.03928s-0.16053 0.0074-0.24175 0.01516v-0.01516c1.8508-0.11797 3.5486-1.5071 3.8135-3.3483 0.0619-0.40614 0.10795-0.79209 0.16017-1.1634 3.3845 1.5008 8.071 2.0248 13.281-0.8975 1.8218-0.6653 6.6978-3.2864 10.988-13.212 1.1855-2.6225 11.694-25.964 13.203-31.654 0.24949-0.74072 1.0811-3.642-0.33845-6.34-0.5976-1.1449-1.8299-2.6343-4.2126-3.315-2.284-0.71945-7.1171-0.64246-9.9601 4.6568-0.0193 0.03094-0.0419 0.06684-0.0574 0.09972-0.0271 0.06382-0.0772 0.16464-0.11789 0.2478-0.40421-0.58407-0.9218-1.1565-1.6258-1.5472-1.056-0.58987-2.7788-0.99601-4.8017-0.72525 2.0965-2.402 4.0142-4.9159 5.252-7.2192 0.65951-0.99988 5.0052-8.0289 2.4175-16.049-0.058-0.17986-0.12733-0.34957-0.20851-0.51977-1.067-2.1701-3.8372-4.7519-7.7239-4.6264z"/><path d="m162.07 2.1875l0.01 0.002c-0.78 0.027-1.61 0.1793-2.49 0.4882-0.09 0.0348-0.19 0.0766-0.29 0.1211-0.43 0.2108-10.49 5.3499-16.77 24.984-1.27 0.325-4.54 1.381-8.01 4.279-0.63-1.042-1.81-1.647-3.14-1.529-4.68 0.3-11.45 1.806-17.09 5.285 1.13-1.932 2.2-3.844 3.13-5.66 3.95-1.611 16.68-7.429 17.77-15.789 0.09-0.617 0.51-4.144-2.15-6.5116-2.2-1.9571-5.58-2.2839-10.04-0.9824-0.36 0.1141-6.8 2.2619-11.95 9.566-0.05 0.058-0.11 0.177-0.15 0.237l0.04-0.076c-0.21 0.324-1.48 1.864-5.15 0.23-0.09-0.037-0.29-0.108-0.39-0.137l0.16 0.049c-0.02-0.011-2.64-1.254-1.15-8.7635 0.23-1.0946-0.23-2.2153-1.15-2.8457-0.93-0.6286-2.14-0.6425-3.08-0.0371-0.861 0.5589-8.401 5.6463-7.797 12.718 0.344 4.153 3.408 7.766 9.097 10.774-4.436 7.304-9.401 14.905-11.697 17.635-3.868-1.869-12.783-5.405-19.275-2.12-3.661 1.855-5.837 5.423-6.457 10.596-0.296 2.951 1.051 9.045 8.164 11.567 0.296 0.125 4.876 1.972 10.912 1.209-2.816 2.9-9.968 6.837-27.623 4.599-2.445-0.536-33.058-6.851-41.412 10.317-0.027 0.054-0.047 0.104-0.069 0.156-1.201 2.914-1.916 9.527 3.938 13.674 0.052 0.036 0.11 0.072 0.166 0.105 3.616 2.191 11.559 4.522 15.719-2.344 0.489-0.804 0.523-1.795 0.121-2.638-0.401-0.845-1.211-1.431-2.143-1.559-0.638-0.087-2.473-0.562-3.324-1.683-0.269-0.354-0.604-0.985-0.438-2.198 0.012-0.066 0.022-0.205 0.024-0.269 0.023-0.37 0.284-2.236 2.906-3.112 0.965-0.216 7.718-1.538 13.719 0.522-4.645 4.282-12.001 13.387-12.264 28.363v0.04c0 0.08 0.002 0.16 0.006 0.23 0.012 0.11 0.801 11.12-5.658 12.12-0.302 0.06-6.352 1.01-9.572-3.48-0.022-0.03-0.094-0.12-0.116-0.14-0.094-0.12-2.259-3.02 0.491-8.47 0.653-0.97 1.41-1.99 1.668-2.23l-0.436 0.29c0.903-0.61 1.522-1.76 1.358-2.83-0.169-1.08-0.796-2.04-1.84-2.34-0.83-0.23-8.229-2.17-13.01 2.11-3.0963 2.77-4.1402 7.27-3.1095 13.36 0.0136 0.08 0.0276 0.15 0.0488 0.22 0.1277 0.51 3.3696 12.52 19.434 13.64 0.454 0.04 12.759 1.1 19.57-6.68 0.401-0.41 2.915-3.1 4.852-7.08 0.247 1.02 0.588 2.05 1.056 3.09 1.758 3.89 4.406 5.07 6.317 5.36 4.363 0.68 8.843-2.58 11.379-4.85 1.731 1.18 4.491 2.33 8.742 2.29 0.178 0 2.931-0.1 5.676-1.81 0.12 0.13 0.195 0.29 0.338 0.39 0.711 0.52 1.623 0.67 2.459 0.4 7.884-2.47 8.441-3.65 8.847-4.51 0.277-0.59 0.286-1.27 0.313-1.92 0.158 0.52 0.335 0.98 0.635 1.33 0.189 0.22 1.92 2.11 4.966 2.29 1.482 0.09 2.982-0.26 4.479-0.99 0.31 0.17 0.64 0.3 0.99 0.35 2.85 0.4 6.64 0.59 8.57-0.74 0.22-0.15 0.37-0.34 0.56-0.51 0.52 0.4 1.1 0.73 1.76 0.93 2.5 0.78 8.63 0.84 12.77-3.38 0.18 0.06 0.38 0.13 0.72 0.3 0.09 0.06 0.19 0.1 0.3 0.14 0.23 0.09 5.21 1.86 10.09-1.39 1.36 0.89 5.89 3.28 11.93 0.67 0.28-0.11 5.03-2.18 9.76-7.36 0.25 0.98 0.73 1.85 1.54 2.51 1.14 0.97 3.51 2.11 6.51 1.81 0.45 0.25 1.86 1.03 1.87 1.03 1.55 0.23 5.07 0.59 7.12-0.55 0.04-0.03 0.07-0.06 0.12-0.08 2.09 1.14 5.46 2.4 9.73 1.84 7.79-1.01 13.36-7.14 13.85-15.25 0.07-1.08-0.5-2.096-1.45-2.611-0.95-0.514-2.12-0.429-2.98 0.217-0.32 0.234-0.65 0.477-0.98 0.719-0.53-3.642-3.02-9.239-12.53-13.574-1.39-0.627-3.17 0.092-3.74 1.494-0.7 1.754-1.51 3.634-2.32 5.396-0.14-0.982-0.42-1.958-1.07-2.865-0.23-0.325-0.52-0.596-0.87-0.791-0.91-0.522-2.81-0.972-4.71-0.104-0.36 0.087-1.97 0.354-3.18-1.228-0.77-1.015-2.15-1.376-3.32-0.865-2.42 1.054-3.8 1.985-4.57 2.834-0.67-1.021-1.66-2.079-3.15-2.713-2.49-1.066-5.41-0.602-8.67 1.386-0.1 0.057-0.18 0.116-0.27 0.184-0.21 0.163-3.62 2.931-6.68 7.537 0.84-3.574 1.76-8.055 1.87-10.879 0.6-0.1 1.21-0.195 1.21-0.195 1.2-0.19 2.39-1.17 2.56-2.373 0.15-1.021 0.26-1.95 0.33-2.791 3.19 1.905 8.16 3.062 13.81-0.172 1.56-0.53 6.16-2.847 10.37-12.6 1.2-2.643 11.75-26.075 13.17-31.541 0.2-0.609 0.95-3.148-0.27-5.461-0.5-0.949-1.51-2.183-3.52-2.752-1.95-0.62-6.13-0.545-8.62 4.1-0.21 0.398-0.78 1.587-1.33 2.91-0.11-1.34-0.58-2.608-1.76-3.468-0.09-0.064-0.18-0.126-0.28-0.178-1.67-0.938-5.25-1.389-9.04 1.744 3.37-3.415 7.13-7.653 9.07-11.297 0.53-0.781 4.76-7.464 2.3-15.088-0.04-0.1255-0.09-0.251-0.15-0.3709-0.91-1.873-3.31-4.0937-6.69-3.9766zm-57.98 49.248c-0.04 0.51-0.06 1.032-0.07 1.568 0 0.099 0 0.198 0.02 0.295 0.02 0.234 0.15 1.274 0.62 2.545-0.9-0.412-1.8-0.889-2.68-1.44 0.59-0.812 1.31-1.824 2.11-2.968zm46.04 3.007c-0.26 2.075-0.13 4.339 1.21 6.145 0.85 1.158 2.48 2.357 5.28 2.568-0.67 2.06-1.85 4.36-3.49 4.805-0.56 0.159-1.9 0.332-2.57-0.086-0.11-0.066-0.46-0.278-0.62-1.182-0.05-0.276-0.15-0.537-0.28-0.787-0.42-0.793-1.36-1.704-2.72-1.865-0.79-0.099-1.92 0.034-3.11 1.061 0.03-0.022 0.05-0.038 0.07-0.061 0.59-0.629 0.85-1.491 0.71-2.336-0.08-0.499-0.51-2.239-2.63-3.738-1.26-0.89-2.88-1.519-4.84-1.879 0.72-0.391 1.45-0.833 2.19-1.35 0.93 0.462 2.13 0.86 3.66 0.891 2.26 0.046 4.64-0.689 7.14-2.186zm-57.177 9.373v0.002c2.75 1.629 8.717 4.181 20.237 5.303 5.47 0.563 12.4 1.946 14.04 3.191 0.82 0.629 1.98 0.707 2.87 0.272-0.06 0.427-0.08 1.355-0.15 2.678-0.17 0.027-0.49 0.084-0.49 0.084l0.07-0.004c-0.27 0.007-0.61 0.055-0.88 0.142-0.73 0.246-2.46 1.178-2.67 4.53 0.01-0.109-0.43 4.328-0.43 4.328-0.01 0.095-0.02 0.186-0.02 0.277 0 0.186 0.02 0.365 0.06 0.547 0.28 1.429 1.29 2.004 2.36 2.232-0.93 5.545-2.26 10.902-3.55 14.552-1.47-3.385-4.78-7.981-12.19-12.046-0.76-0.415-1.68-0.453-2.47-0.103-0.8 0.356-1.37 1.061-1.57 1.908-0.47 1.998-1.05 4.088-1.67 6.105-0.1-0.4-0.2-0.798-0.38-1.183-0.65-1.429-1.32-2.463-1.97-3.258 2.41-3.456 6.45-10.164 6.45-16.258v-0.195c-0.09-5.752-3.08-7.79-4.86-8.488-2.63-1.041-5.55-0.351-7.226 0.949-0.903 0.52-5.15 3.32-8.76 11.945-0.139 0.319-2.938 6.769-5.561 13.979-0.825-0.838-1.885-1.513-3.164-1.971-3.504-1.245-7.554 0.177-10.83 3.816-0.143 0.138-0.845 0.983-1.758 2.219-0.837-2.967-2.84-4.023-4.043-4.383-4.649-1.386-10.578 2.992-11.837 4.356-0.2 0.211-2.319 2.548-4.166 6.118 0.4-5.36 1.825-13.788 6.705-18.403 4.78 1.27 19.501 4.391 28.459-2.637 5.107-4.009 7.388-10.442 6.793-19.119 0.866-0.422 1.733-0.91 2.601-1.485zm50.817 1.346c-0.7 0.615-1.41 1.586-2.05 2.805-0.74-0.799-1.77-1.266-2.8-0.92-1.12 0.381-4.34 1.411-5.82 1.66 1.47-1.537 4.08-3.166 8.53-2.787 0.79 0.068 1.56-0.218 2.14-0.758zm-49.575 37.868c-0.036 0.25-0.095 0.53-0.216 0.88-0.724 1.96-1.269 3.69-1.733 5.31 0.487-2.86 1.106-5.17 1.795-6.03 0.058-0.08 0.098-0.1 0.154-0.16zm-18.324 4.82c0.903 0.36 1.915 0.59 3.004 0.55-0.663 0.89-1.366 1.57-2.066 1.78-0.991 0.3-1.532 0.3-1.801 0.27 0.006-0.13 0.024-0.3 0.094-0.55 0.234-0.8 0.51-1.48 0.769-2.05zm92.619 7.74c0.02 0.02 0.29 0.1 0.29 0.07 0-0.01-0.02-0.03-0.07-0.05 0 0-0.11-0.01-0.14-0.02-0.07-0.01-0.09-0.01-0.08 0z" fill="#fff" transform="translate(-.0034562)"/><path d="m162.54 4.9632c-0.59743-0.024693-1.272 0.068898-2.0278 0.33543 0 0-9.633 4.7024-15.611 24.124 0 0-0.0777 0.74484-1.3387 0.97305 0 0-10.982 2.0172-15.312 16.804 0 0-0.45617 2.3132-2.1696 1.8645 0 0-0.96735-0.8228 0.30522-3.1397 0 0 2.7545-6.646 4.7021-10.005 0 0 0.74399-1.418 1.1211-2.0155 0 0 0.2206-0.67097-0.60135-0.60135 0 0-24.65 1.5743-24.797 19.727 0 0 1.0459 10.375 13.07 3.2847 0 0 4.7773 1.3391 7.9142-1.7225 0 0 2.9165 4.6323 11.507-2.2393 0 0 5.083 6.0454 16.21-6.1254 0 0-0.60014 2.9146-1.3447 4.1097 0 0-5.305 11.426 4.8562 10.009 0 0 1.4121-0.5252 0.97305 0.81893 0 0-1.2005 8.1432-6.1283 9.4797 0 0-5.6802 1.7254-6.6511-3.4267 0 0-0.59193-1.1187-1.8645 0.29312 0 0-4.2607 4.9345-0.8975 8.8933 0 0 5.3804 5.9714 13.296 1.1906 0 0 4.5571-1.1162 8.8873-11.127 0 0 11.873-26.293 13.076-31.298 0 0 1.3467-3.8075-1.9431-4.699 0 0-3.2952-1.1215-5.3819 2.7621 0 0-1.7903 3.581-2.0881 5.3004 0 0-1.942 6.8722-5.0829 11.429 0 0-1.861 2.9907-3.7351 2.2422 0 0-0.97208-0.52339-0.0786-3.5114 0 0 2.9962-8.2902 3.5145-9.1896 0 0 1.9431-4.7035 0.29916-5.8987 0 0-3.21-1.7946-7.2404 2.6864 0 0-8.2166 7.1705-9.1139 7.5457 0 0-2.3162 1.0423-1.647-1.7194 0 0 0.45268-4.1821 1.7194-4.9286 0 0 11.654-10.005 15.315-17.032 0 0 4.1796-6.0468 2.0155-12.767 0 0-1.1371-2.3196-3.726-2.4266zm-60.858 2.472s-17.015 11.003 3.7472 19.974c0 0-12.562 21.074-15.215 22.168 0 0-21.305-12.02-23.414 5.4574 0 0-0.62553 6.2484 6.482 8.6697 0 0 10.063 4.2126 19.663-3.2818 0 0 4.4462 4.3662 20.522 5.9289 0 0 12.177 1.2534 15.457 3.7501 0 0 2.8803-7.8059 12.949-6.9472 0 0-0.93123-5.7752-17.479-2.8103 0 0-14.907 3.829-26.302-5.3033 0 0 11.862-16.003 17.327-27.082 0 0 16-6.0087 17.013-13.967 0 0 1.248-7.3407-8.6637-4.4513 0 0-5.7746 1.8729-10.459 8.5065 0 0-2.3366 4.1347-8.6608 1.3266 0 0-5.0717-1.4049-2.9675-11.939zm60.229 3.7139c0.40815-0.02569 0.4684 0.64668 0.4684 0.64668-0.29397 5.9006-7.0984 13.221-7.0984 13.221-2.9861 3.2859-1.7044 0.29615-1.7044 0.29615 1.408-4.0343 7.1589-13.07 7.1589-13.07 0.55989-0.81228 0.93061-1.0785 1.1755-1.0939zm-36.565 3.3421c0.36021 0.02925 0.53487 0.20247 0.53487 0.20247 0.93606 2.3401-4.134 5.1492-4.134 5.1492-1.5588 1.0154-1.9461 0.31427-1.9461 0.31427-1.2532-1.2513 3.8952-4.9951 3.8952-4.9951 0.74266-0.58504 1.2897-0.70011 1.6499-0.67085zm16.829 22.755c0.45998 0.11021 0.3445 0.8431 0.3445 0.8431-1.2648 2.6862-2.8376 5.5965-2.8376 5.5965-2.4678 3.957-3.8892 2.2393-3.8892 2.2393-1.7135-3.4309 4.7836-7.9142 4.7836-7.9142 0.84056-0.6723 1.3226-0.83066 1.5986-0.76453zm-19.923 1.9581c0.66836 0.07885 0.32032 1.792 0.32032 1.792-0.52025 4.0343-3.1306 7.6181-3.1306 7.6181-3.7346 5.3804-5.53 1.7225-5.53 1.7225-1.7189-5.6767 7.9897-11.058 7.9897-11.058 0.14094-0.06528 0.25506-0.08681 0.35054-0.07555zm-42.7 12.914c1.873 0.03905 3.726 0.80987 3.726 0.80987 3.8255 1.9572 1.4807 3.2818 1.4807 3.2818-3.3536 2.4175-8.2679-0.23268-8.2679-0.23268-4.218-3.2027 2.2603-3.8287 2.2603-3.8287 0.26302-0.02876 0.53321-0.0358 0.8008-0.03022zm8.0413 13.287s-2.5502 13.246-32.522 9.4221c0 0-30.822-6.9428-38.474 8.7845 0 0-2.6234 6.3803 2.9736 10.347 0 0 8.0778 4.8905 11.903-1.4142 0 0-7.0118-0.85422-6.1647-7.0198 0 0 0.07289-4.1103 4.8924-5.6691 0 0 11.62-2.9044 19.696 2.623 0 0-14.312 8.7841-14.668 28.982 0 0 1.136 13.677-8.008 15.094 0 0-7.9342 1.4141-12.257-4.6083 0 0-3.614-4.179 0.21153-11.619 0 0 1.8409-2.7636 2.4115-3.0461 0 0-15.445-4.394-12.613 12.329 0 0 2.688 10.555 16.937 11.544 0 0 11.331 1.0674 17.282-5.7325 0 0 6.8782-7.019 6.3096-14.883 0 0-0.91829-19.058 8.9297-26.569 0 0 35.287 11.335 33.16-18.566zm52.239 4.28s-4.2748 1.4442-6.2764 1.7768c0 0-0.66615 0.32986-0.72224 1.8887 0 0-0.0549 4.0557-0.54998 4.3303 0 0-2.1718 0.4412-2.7288 0.4412 0 0-0.66554 0.22663-0.77965 2.064l-0.4412 4.4361s0.0585 0.28671 1.9461 0.06043c0 0 1.1116-0.33373 0.66482 1.8342 0 0-3.11 20.217-7.6665 22.495 0 0-0.66361 0.72053-0.4412-2.221 0 0 0.21939-7.7789-11.945-14.442 0 0-3.7739 16.055-7.6091 18.715 0 0-1.9428 1.5034-3.0008 0.50164 0 0-1.3862-0.88831-0.27802-2.5535 0 0 5.4978-7.1066 3.6141-11.22-1.8915-4.1137-3.3361-3.8347-3.3361-3.8347s7.6661-9.3867 7.5578-16.994c-0.11218-7.6104-6.333-6.7786-7.8358-5.2218 0 0-4.1108 2.1681-7.6634 10.664 0 0-4.6705 10.722-7.6121 19.942 0 0-2.4427 9.1173-7.1075 10.504-4.6687 1.3847-5.9468-1.059-5.1673-3.726 0.77747-2.6612 2.0016-4.5599 2.3903-4.7745 0 0 0.65997-0.16838 1.2208 0.553 0 0 3.2773 2.1664 5.6117-0.83707 2.3304-2.9977 2.5012-6.6619-1.5563-8.1047-4.0537-1.4466-7.7247 2.9462-7.8872 3.1125-0.16826 0.16246-5.1695 6.164-7.0591 11.831 0 0-2.1142 6.5487-6.9472 4.7171 0 0 8.8871-7.9405 7.7208-14.831-1.1662-6.8869-9.9423-1.0508-11.329 0.44422-1.3867 1.5046-9.2758 11.165-4.8895 20.887 4.3882 9.7164 15.109-2.1667 15.109-2.1667s1.9988 3.3853 8.7756 3.3331c0 0 4.6704-0.0564 7.0531-4.3363l0.55603-0.88541 0.05742 4.3303s6.7181-2.1091 7.1649-3.0491c0 0 0.55554-14.279 3.445-17.889 2.8894-3.6166 6.3884-1.2792 4.7231 3.3876 0 0-3.9984 10.892-2.6078 13.275 0 0 3.3273 3.8307 9.1079-1.4414l-0.38982 2.1607s5.163 0.72211 6.6058-0.27196c1.4466-1.0076 2.0035-2.7228 2.0035-2.7228s1.1087 2.2741 2.7197 2.771c1.613 0.50477 7.2776 0.83936 10.61-3.3845 0 0 0.77746-0.83368 3.3361 0.50465 0 0 4.8322 1.8226 8.9962-2.2272 0 0 1.0585-0.17007 1.3931 0.94584 0 0 3.8825 3.0559 9.5492 0.6074 0 0 10.386-4.3297 15.221-17.222 0 0 0.22216-1.3872 1.4444-0.88238 0 0 1.2734 0.27463-0.38982 2.9977 0 0-4.6651 8.6645-2.1122 10.664 0 0 2.5608 2.279 6.5061 0.72223 0 0-0.22326 1.4419 0.38981 1.5019 0 0 3.9969 0.61102 5.4938-0.2206 0 0 0.94246-0.77843 1.0063-1.2813 0 0 3.8801 3.4992 9.8272 2.7197 5.9471-0.7736 11-5.3298 11.447-12.662 0 0-4.555 3.3888-5.0617 3.445 0 0-0.77445 0.27802-0.33543-1.9461 0 0 2.1197-8.1038-10.927-14.055 0 0-4.3399 10.836-6.6723 13.112-2.3324 2.2762-4.4484-1.4968-2.8315-2.7771 0 0 3.3871-4.2757 1.2752-7.2192 0 0-1.277-0.72621-2.5535 0.16923 0 0-3.6737 1.0529-6.1647-2.2272 0 0-3.8378 1.6671-3.8378 2.6109 0 0-0.78206 10.163-9.1079 14.886 0 0-3.4506 0.94331-4.5027-1.2208 0 0 0.33518-0.78037 1.3931-0.94283 0 0 9.8349-3.1153 8.8873-11.667 0 0-1.4994-6.8324-8.8873-2.336 0 0-6.6607 5.2221-9.3315 13.447 0 0-0.83574 3.5007-3.0037 2.1062 0 0-1.4991-1.275-0.0544-5.7174 0 0 3.277-12.109 3.1125-16.218 0 0-0.16367-1.3305 0.88843-1.6651 0 0 2.6073-0.45328 2.8858-0.45328 0 0 0.7256-4.9917 0.22663-6.216 0 0-2.0015-0.16632-2.5564 0 0 0-0.33252-6.052 0.2206-6.8295zm-37.507 5.7053c0.74301 0.01439 0.67991 2.2967 0.67991 2.2967 0 5.2199-5.3299 11.994-7.9989 15.273-2.663 3.2782-2.1667 0.6074-2.1667 0.6074 0.77747-6.3299 8.4401-17.267 8.4401-17.267 0.45836-0.66771 0.7979-0.9144 1.0456-0.90958zm48.065 21.169c0.14414 0.0019 0.29372 0.04074 0.44723 0.1239 0 0 1.0524 0.83561-0.28405 2.4447-1.3364 1.613-2.8376 2.499-2.8376 2.499s-1.4349 0.71993-0.21455-1.3901c1.0678-1.8446 1.88-3.6902 2.8889-3.6777zm31.328 3.1277s4.1016 6.7763 0.11186 6.2734c-4.0014-0.49897-0.11186-6.2734-0.11186-6.2734zm-120.64 3.633c0.5608-0.12511 0.65877 0.75245 0.65877 0.75245s-0.1731 2.6634-3.167 5.2763c-2.9977 2.6129-2.2725 0.72223-2.2725 0.72223 0.38487-2.8874 4.0523-6.2221 4.0523-6.2221 0.30364-0.33361 0.54133-0.48712 0.72827-0.52884zm52.65 0.69503c1.6168 1.8316 1.9461 5.116 1.9461 5.116s0.83403 2.9974-1.7768 1.9974c-2.6109-1.0018-0.16923-7.1136-0.16923-7.1136z" fill="#69b3e7"/></svg>