<?xml version="1.0" encoding="UTF-8" standalone="no"?>
<svg xmlns:rdf="http://www.w3.org/1999/02/22-rdf-syntax-ns#" xmlns="http://www.w3.org/2000/svg" xml:space="preserve" height="228.77" viewBox="0 0 196.77 228.77126" width="196.77" version="1.1" xmlns:cc="http://creativecommons.org/ns#" xmlns:dc="http://purl.org/dc/elements/1.1/"><g transform="matrix(1.25 0 0 -1.25 0 228.77)"><g transform="translate(.99827 .66552)"><path d="m99.934 0h-46.649l-34.897 30.317-0.078 120.88 34.642 30.184 82.283 0.033v-67.298l-49.026 0.064v17.778h-18.909v-82.361h18.909v17.467h49.026v-36.832l-35.296-30.24" fill="#c5b783"/><path d="m56.965 9.852h39.326l29.091 24.917v22.446h-29.32v-17.466h-38.615v102.06l38.615 0.001v-17.791l29.32-0.039v47.579l-29.32-0.004v-6.987l-8.32 6.96h-31.099l-28.476-24.81 0.072-111.91 28.728-24.958zm41.018-4.577h-42.729l-31.593 27.448-0.075 116.08 31.342 27.308 75.031 0.032v-56.741l-38.475 0.051v17.785l-29.46-0.001v-92.909h29.46v17.466h38.475v-29.129l-31.977-27.393" fill="#800400"/><path d="m96.062 141.81v-17.791l29.32-0.039v47.579l-29.32-0.004v-6.987l-8.32 6.96h-31.099l-28.478-24.813 0.072-111.91 28.728-24.959h39.326l29.091 24.917v22.446h-29.32v-17.466h-38.615v102.06l38.615 0.001" fill="#fff"/><path d="m156.73 13.051-18.375 15.965v27.924l-18.256 15.475 36.631 0.04688v-59.41zm0 59.41v0.04102l0.006-0.04102h-0.006zm-83.433-40.797-19.879 17.01l0.08398 130.67 8.2559 7.3203 10.061-8.8516 0.0293-127.54 48.225-0.01563 0.0273-8.1484-12.178-10.445h-34.625zm83.436 124.37-18.318 15.822-0.0391 7.2226-20.002 17.426h-25.191l-21.975 18.701h49.156l36.387-31.174-0.0176-27.998z" transform="matrix(.8 0 0 -.8 0 182)" fill="#f2f2f2"/><path d="m0 107.08h155.82v-33.108h-155.82v33.108z" fill="#800400"/><path d="m153.4 103.86-3.0254 2.7832v15.783l2.916 2.8789 8 0.006 3.0898-2.8848v-15.807l-3.1055-2.7598h-7.875zm-137.32 0.0195-3.1426 2.6543v16.482l3.0586 2.2695h7.0176l3.0176-2.3516v-3.4785h-4.5273v1.6113h-4.1484v-12.797h4.0703v1.5762h4.6055v-5.9023h-4.6055v1.1074l-1.5117-1.1719h-3.834zm36.309 0.041-3.5703 17.006h-1.1758v4.3242h6.9863v-4.3242h-1.1289l0.22852-1.1856h3.7012l0.22461 1.1856h-1.0488v4.3242h6.9805v-4.3242h-1.248l-3.5742-17.006h-6.375zm68.602 0-3.0488 2.6875v8.168l2.5469 2.0254h5.9746v4.2266h-4.0059v-1.6992h-4.5156v3.7227l3.2305 2.1992h7.0254l2.8262-2.5606v-8.0879l-2.9219-1.9824h-5.4199v-4.2305h3.7949v1.457h4.5996v-5.9023h-4.5996v1.1777l-1.7051-1.2012h-3.7812zm-92.156 0.0234v4.3262h1.1777v12.656h-1.1777v4.3242h6.9805v-4.3242h-1.1934v-4.0039h4.4434v4.0039h-1.2695v4.3242h6.9805v-4.3242h-1.0938v-12.656h1.0938v-4.3262h-6.9805v4.3262h1.2695v4.4355h-4.4434v-4.4355h1.1934v-4.3262h-6.9805zm37.514 0v4.3262h1.3926v12.656h-1.2734v4.3242h6.9766v-4.3242h-1.2402v-4.125h1.0547l3.5566 8.4492h4.6055v-4.3242h-1.7188l-1.793-4.5371 2.6367-2.6133v-6.459l-3.041-3.3535h-3.7891l-1.9023 1.4785v-1.498h-5.4648zm18.244 0v4.3262h1.2773v12.688h-1.2773v4.3281h13.271l-0.01953-5.9121h-4.4258v1.584h-2.9395v-12.688h1.0918v-4.3262h-6.9785zm16.217 0v4.3262h1.3242v12.695h-1.3242v4.3203h13.727v-2.166h0.0234v-3.8535h-4.4219v1.6992h-3.3965v-4.043h5.6309v-4.2168h-5.6309v-4.4355h3.3965v1.6934h4.4219v-3.8457h-0.0234v-2.1738h-13.727zm32.24 0 0.0273 6.0195h4.418v-1.6934h0.89062v12.656h-1.2969v4.3242h6.9805v-4.3242h-1.0781v-12.656h0.79688v1.6934h4.4277l-0.0254-6.0195h-15.141zm37.553 0.0195-0.0117 0.0195h-4.3008v4.3281h1.0352v12.523h-0.98438v4.334h6.9727v-4.334h-1.3359v-5.8984l4.6543 10.314h4.6094v-16.939h1.0625v-4.3281h-6.9824v4.3281h1.125v5.3809l-4.332-9.7285h-1.5117zm-15.643 4.5h4.7402l0.0293 12.26-4.7695-0.01v-12.25zm-82.848 0.0195h3.9238v4.1367h-3.9238v-4.1367zm-16.758 3.0176h0.44922l1.0039 4.0176h-1.1035-1.3555l1.0059-4.0176z" transform="matrix(.8 0 0 -.8 0 182)" fill="#fff"/></g></g></svg>
