<?xml version="1.0" encoding="UTF-8" standalone="no"?>
<!-- Created with Inkscape (http://www.inkscape.org/) -->

<svg
   xmlns:dc="http://purl.org/dc/elements/1.1/"
   xmlns:cc="http://creativecommons.org/ns#"
   xmlns:rdf="http://www.w3.org/1999/02/22-rdf-syntax-ns#"
   xmlns:svg="http://www.w3.org/2000/svg"
   xmlns="http://www.w3.org/2000/svg"
   xmlns:sodipodi="http://sodipodi.sourceforge.net/DTD/sodipodi-0.dtd"
   xmlns:inkscape="http://www.inkscape.org/namespaces/inkscape"
   width="251.00002"
   height="92.470001"
   viewBox="0 0 251.00003 92.470001"
   id="svg2"
   version="1.1"
   inkscape:version="0.91 r13725"
   sodipodi:docname="albany technical college.svg">
  <defs
     id="defs4">
	
	

		
		
		
		
		
		
		
		
		
		
		
		
		
		
		
		
		
		
		
		
		
		
	
		
		
	</defs>
  <sodipodi:namedview
     id="base"
     pagecolor="#ffffff"
     bordercolor="#666666"
     borderopacity="1.0"
     inkscape:pageopacity="0.0"
     inkscape:pageshadow="2"
     inkscape:zoom="3.62"
     inkscape:cx="125"
     inkscape:cy="45.735"
     inkscape:document-units="px"
     inkscape:current-layer="layer1"
     showgrid="false"
     fit-margin-top="0"
     fit-margin-left="0"
     fit-margin-right="0"
     fit-margin-bottom="0"
     units="px"
     inkscape:window-width="1280"
     inkscape:window-height="744"
     inkscape:window-x="-4"
     inkscape:window-y="-4"
     inkscape:window-maximized="1" />
  <metadata
     id="metadata7">
    <rdf:RDF>
      <cc:Work
         rdf:about="">
        <dc:format>image/svg+xml</dc:format>
        <dc:type
           rdf:resource="http://purl.org/dc/dcmitype/StillImage" />
        <dc:title></dc:title>
      </cc:Work>
    </rdf:RDF>
  </metadata>
  <g
     inkscape:label="Layer 1"
     inkscape:groupmode="layer"
     id="layer1"
     transform="translate(-280.71429,-479.4461)">
    <g
       id="g3474"
       transform="translate(0.50001526,-0.49999817)">
      <path
         style="clip-rule:evenodd;fill:#231f20;fill-rule:evenodd"
         inkscape:connector-curvature="0"
         d="m 316.16429,569.4361 -35.45,0 51.09,-87.58 21.48,28.66 -37.12,58.92 z m 2.41,0 15.47,-24.67 44.24,0 18.58,24.59 -78.29,0.08 z m 81.22,-0.21 -65.76,-88.78 40.49,0 36.63,51.21 -11.36,37.57 z"
         id="path3341" />
      <polygon
         transform="translate(280.71429,480.4461)"
         style="clip-rule:evenodd;fill:#b5121b;fill-rule:evenodd"
         points="74.23,32.2 55.24,62.27 96.15,62.27 "
         id="polygon3343" />
      <path
         style="fill:#b5121b"
         inkscape:connector-curvature="0"
         d="m 427.19429,547.6661 -7.33,0 -0.51,1.22 c -0.74,1.77 -1.11,2.93 -1.11,3.47 0,0.58 0.2,1.02 0.59,1.32 0.39,0.3 0.9,0.45 1.52,0.45 l 0,0.66 -5.74,0 0,-0.66 c 0.85,-0.13 1.49,-0.43 1.91,-0.9 0.42,-0.47 0.92,-1.46 1.51,-2.96 0.06,-0.14 0.29,-0.69 0.69,-1.65 l 5.61,-13.39 0.55,0 6.46,15.33 0.88,2.02 c 0.2,0.46 0.47,0.81 0.8,1.07 0.34,0.26 0.84,0.43 1.51,0.49 l 0,0.66 -7.57,0 0,-0.66 c 0.93,0 1.56,-0.07 1.88,-0.21 0.33,-0.14 0.49,-0.41 0.49,-0.82 0,-0.21 -0.22,-0.83 -0.66,-1.86 l -1.48,-3.58 z m -0.26,-0.64 -3.4,-8.22 -3.4,8.22 6.8,0 z"
         id="path3347" />
      <path
         style="fill:#b5121b"
         inkscape:connector-curvature="0"
         d="m 451.69429,549.1061 -0.14,5.68 -16.38,0 0,-0.66 0.57,0 c 0.82,0 1.4,-0.1 1.71,-0.31 0.32,-0.21 0.52,-0.54 0.61,-0.97 0.09,-0.44 0.13,-1.47 0.13,-3.08 l 0,-9.46 c 0,-1.54 -0.04,-2.53 -0.13,-2.97 -0.09,-0.44 -0.28,-0.75 -0.57,-0.93 -0.29,-0.17 -0.92,-0.26 -1.9,-0.26 l -0.43,0 0,-0.65 9.28,0 0,0.65 -0.85,0 c -0.95,0 -1.57,0.08 -1.86,0.23 -0.29,0.16 -0.49,0.45 -0.59,0.88 -0.1,0.43 -0.15,1.44 -0.15,3.05 l 0,10.1 c 0,1.4 0.04,2.27 0.11,2.62 0.07,0.35 0.28,0.62 0.62,0.82 0.33,0.19 1.05,0.29 2.17,0.29 l 1.46,0 c 1.19,0 2.06,-0.1 2.63,-0.31 0.58,-0.21 1.12,-0.66 1.64,-1.36 0.52,-0.7 0.99,-1.82 1.41,-3.35 l 0.66,0 z"
         id="path3349" />
      <path
         style="fill:#b5121b"
         inkscape:connector-curvature="0"
         d="m 462.08429,544.3861 c 2.19,0.16 3.82,0.71 4.88,1.64 1.06,0.93 1.6,2.09 1.6,3.49 0,1.22 -0.36,2.26 -1.08,3.14 -0.72,0.88 -1.65,1.45 -2.77,1.72 -1.12,0.27 -2.63,0.41 -4.52,0.41 l -7.57,0 0,-0.66 0.74,0 c 0.82,0 1.4,-0.1 1.71,-0.31 0.32,-0.21 0.52,-0.54 0.6,-0.97 0.09,-0.44 0.13,-1.47 0.13,-3.08 l 0,-9.39 c 0,-1.56 -0.04,-2.57 -0.13,-3.03 -0.09,-0.45 -0.28,-0.77 -0.57,-0.94 -0.29,-0.17 -0.93,-0.26 -1.91,-0.26 l -0.37,0 0,-0.65 3.18,-0.09 3.62,-0.11 c 5.28,0 7.92,1.52 7.92,4.55 0,1.25 -0.45,2.25 -1.36,3.01 -0.91,0.75 -2.28,1.26 -4.1,1.53 z m -3.49,-0.27 c 0.24,0.01 0.44,0.01 0.6,0.01 2.04,0 3.45,-0.32 4.2,-0.97 0.75,-0.65 1.12,-1.69 1.12,-3.13 0,-1 -0.15,-1.78 -0.44,-2.33 -0.29,-0.55 -0.73,-0.97 -1.32,-1.27 -0.59,-0.3 -1.59,-0.45 -3.02,-0.45 -0.37,0 -0.75,0.01 -1.14,0.04 l 0,8.1 z m 0,0.69 0,4.3 c 0,1.83 0.04,2.99 0.1,3.49 0.07,0.49 0.24,0.87 0.54,1.12 0.29,0.26 0.86,0.38 1.71,0.38 1.52,0 2.66,-0.39 3.42,-1.17 0.76,-0.78 1.14,-1.94 1.14,-3.5 0,-1.59 -0.43,-2.77 -1.29,-3.52 -0.86,-0.75 -2.37,-1.13 -4.53,-1.13 -0.34,0 -0.71,0.02 -1.09,0.03 z"
         id="path3351" />
      <path
         style="fill:#b5121b"
         inkscape:connector-curvature="0"
         d="m 481.63429,547.6661 -7.34,0 -0.51,1.22 c -0.74,1.77 -1.11,2.93 -1.11,3.47 0,0.58 0.19,1.02 0.59,1.32 0.39,0.3 0.9,0.45 1.52,0.45 l 0,0.66 -5.74,0 0,-0.66 c 0.85,-0.13 1.49,-0.43 1.91,-0.9 0.42,-0.47 0.92,-1.46 1.51,-2.96 0.06,-0.14 0.29,-0.69 0.69,-1.65 l 5.61,-13.39 0.55,0 6.46,15.33 0.88,2.02 c 0.2,0.46 0.46,0.81 0.8,1.07 0.33,0.26 0.84,0.43 1.5,0.49 l 0,0.66 -7.57,0 0,-0.66 c 0.93,0 1.56,-0.07 1.89,-0.21 0.33,-0.14 0.49,-0.41 0.49,-0.82 0,-0.21 -0.22,-0.83 -0.65,-1.86 l -1.48,-3.58 z m -0.26,-0.64 -3.4,-8.22 -3.41,8.22 6.81,0 z"
         id="path3353" />
      <path
         style="fill:#b5121b"
         inkscape:connector-curvature="0"
         d="m 506.72429,555.2261 -13.65,-18.08 0,13.39 c 0,1.11 0.05,1.84 0.16,2.19 0.11,0.35 0.42,0.67 0.93,0.97 0.51,0.29 1.28,0.44 2.3,0.44 l 0,0.66 -7.2,0 0,-0.66 c 0.92,-0.07 1.62,-0.23 2.11,-0.5 0.48,-0.27 0.77,-0.56 0.86,-0.88 0.09,-0.31 0.13,-1.05 0.13,-2.22 l 0,-10.24 c 0,-1.48 -0.07,-2.47 -0.21,-2.97 -0.14,-0.5 -0.35,-0.83 -0.65,-0.96 -0.3,-0.14 -0.97,-0.22 -2,-0.22 l 0,-0.65 5.69,0 11.43,15.1 0,-11.55 c 0,-0.85 -0.09,-1.45 -0.26,-1.79 -0.18,-0.34 -0.53,-0.61 -1.07,-0.81 -0.54,-0.2 -1.19,-0.3 -1.95,-0.3 l 0,-0.65 7,0 0,0.65 c -0.82,0.07 -1.46,0.22 -1.93,0.47 -0.47,0.24 -0.77,0.54 -0.9,0.89 -0.13,0.35 -0.19,0.93 -0.19,1.76 l 0,15.96 -0.6,0 z"
         id="path3355" />
      <path
         style="fill:#b5121b"
         inkscape:connector-curvature="0"
         d="m 521.60429,546.3461 3.8,-6.39 c 0.63,-1.05 0.94,-1.79 0.94,-2.22 0,-0.4 -0.17,-0.76 -0.5,-1.09 -0.33,-0.33 -0.92,-0.5 -1.78,-0.5 l 0,-0.65 6.3,0 0,0.65 c -0.88,0.12 -1.58,0.45 -2.11,0.97 -0.53,0.52 -1.22,1.48 -2.06,2.87 l -4.32,7.21 0,2.56 c 0,1.64 0.05,2.69 0.15,3.14 0.1,0.45 0.31,0.77 0.64,0.95 0.33,0.18 0.97,0.28 1.93,0.28 l 0,0.66 -8.22,0 0,-0.66 0.31,0 c 0.83,0 1.4,-0.1 1.71,-0.31 0.32,-0.21 0.52,-0.54 0.6,-0.97 0.08,-0.44 0.13,-1.47 0.13,-3.08 l 0,-2.38 -4.81,-7.9 c -0.98,-1.59 -1.63,-2.54 -1.95,-2.85 -0.33,-0.31 -0.9,-0.47 -1.74,-0.49 l 0,-0.65 7.83,0 0,0.65 c -1.47,0 -2.2,0.33 -2.2,1 0,0.27 0.24,0.8 0.72,1.6 l 4.63,7.6 z"
         id="path3357" />
      <path
         style="fill:#231f20"
         inkscape:connector-curvature="0"
         d="m 414.42429,559.6461 -0.37,0 0.05,-2.61 10.53,0 0.06,2.61 -0.34,0 c -0.12,-0.71 -0.29,-1.23 -0.5,-1.55 -0.21,-0.32 -0.45,-0.51 -0.69,-0.58 -0.24,-0.07 -0.67,-0.11 -1.25,-0.11 l -1.74,0 0,7.65 c 0,0.85 0.02,1.4 0.06,1.67 0.04,0.27 0.15,0.46 0.33,0.59 0.17,0.13 0.5,0.19 0.99,0.19 l 0.53,0 0,0.37 -5.41,0 0,-0.37 0.56,0 c 0.46,0 0.78,-0.06 0.96,-0.17 0.18,-0.12 0.29,-0.3 0.34,-0.55 0.05,-0.25 0.08,-0.82 0.08,-1.73 l 0,-7.65 -1.61,0 c -0.7,0 -1.17,0.03 -1.41,0.1 -0.24,0.07 -0.47,0.27 -0.68,0.6 -0.22,0.34 -0.38,0.85 -0.49,1.54 z"
         id="path3359" />
      <path
         style="fill:#231f20"
         inkscape:connector-curvature="0"
         d="m 429.92429,563.5561 -4.57,0 c -0.02,0.31 -0.03,0.55 -0.03,0.7 0,1.15 0.18,2.01 0.54,2.59 0.36,0.58 0.9,0.87 1.61,0.87 0.97,0 1.66,-0.43 2.07,-1.3 l 0.38,0 c -0.17,0.54 -0.51,0.97 -1.02,1.27 -0.51,0.31 -1.06,0.46 -1.65,0.46 -0.56,0 -1.08,-0.14 -1.58,-0.42 -0.49,-0.28 -0.9,-0.67 -1.21,-1.19 -0.32,-0.51 -0.47,-1.13 -0.47,-1.86 0,-1.03 0.3,-1.89 0.91,-2.58 0.61,-0.69 1.37,-1.03 2.28,-1.03 0.86,0 1.53,0.26 1.99,0.78 0.48,0.54 0.73,1.1 0.75,1.71 z m -1.4,-0.33 c 0.02,-0.12 0.02,-0.24 0.02,-0.33 0,-0.47 -0.13,-0.83 -0.41,-1.09 -0.28,-0.26 -0.61,-0.39 -1.01,-0.39 -0.97,0 -1.55,0.6 -1.74,1.81 l 3.14,0 z"
         id="path3361" />
      <path
         style="fill:#231f20"
         inkscape:connector-curvature="0"
         d="m 436.81429,566.2861 0.34,0 c -0.36,1.24 -1.27,1.87 -2.72,1.87 -0.93,0 -1.71,-0.32 -2.35,-0.95 -0.64,-0.63 -0.96,-1.47 -0.96,-2.52 0,-1.07 0.34,-1.94 1.03,-2.6 0.69,-0.67 1.5,-1 2.44,-1 0.57,0 1.08,0.12 1.56,0.37 0.48,0.25 0.71,0.55 0.71,0.9 0,0.14 -0.04,0.26 -0.13,0.38 -0.08,0.12 -0.21,0.17 -0.38,0.17 -0.35,0 -0.57,-0.2 -0.65,-0.62 -0.06,-0.31 -0.16,-0.53 -0.29,-0.65 -0.14,-0.12 -0.41,-0.18 -0.81,-0.18 -0.72,0 -1.25,0.25 -1.61,0.74 -0.36,0.5 -0.54,1.24 -0.54,2.24 0,1.03 0.2,1.83 0.58,2.41 0.39,0.58 0.97,0.87 1.76,0.87 1.06,0.01 1.74,-0.47 2.02,-1.43 z"
         id="path3363" />
      <path
         style="fill:#231f20"
         inkscape:connector-curvature="0"
         d="m 440.03429,562.4161 c 0.32,-0.45 0.68,-0.78 1.08,-1 0.4,-0.23 0.83,-0.34 1.31,-0.34 0.54,0 0.98,0.11 1.34,0.34 0.35,0.22 0.58,0.5 0.69,0.83 0.11,0.33 0.16,0.86 0.16,1.59 l 0,1.81 c 0,0.77 0.02,1.23 0.05,1.4 0.03,0.17 0.11,0.29 0.26,0.36 0.14,0.08 0.41,0.11 0.8,0.11 l 0,0.37 -3.38,0 0,-0.37 0.15,0 c 0.39,0 0.64,-0.05 0.75,-0.17 0.11,-0.11 0.18,-0.24 0.2,-0.4 0.02,-0.15 0.03,-0.59 0.03,-1.31 l 0,-1.97 c 0,-0.54 -0.03,-0.94 -0.1,-1.21 -0.06,-0.26 -0.21,-0.48 -0.45,-0.65 -0.24,-0.17 -0.54,-0.26 -0.89,-0.26 -0.42,0 -0.79,0.12 -1.12,0.36 -0.33,0.24 -0.62,0.61 -0.87,1.09 l 0,2.62 c 0,0.73 0.01,1.19 0.04,1.36 0.02,0.17 0.1,0.3 0.25,0.38 0.14,0.09 0.39,0.13 0.76,0.13 l 0,0.37 -3.33,0 0,-0.37 0.17,0 c 0.38,0 0.63,-0.05 0.75,-0.16 0.11,-0.11 0.18,-0.24 0.2,-0.39 0.02,-0.15 0.03,-0.59 0.03,-1.32 l 0,-6.52 c 0,-0.66 -0.06,-1.08 -0.19,-1.25 -0.13,-0.18 -0.43,-0.26 -0.9,-0.26 l 0,-0.37 c 0.83,0 1.51,-0.11 2.06,-0.34 l 0.17,0 0,5.54 z"
         id="path3365" />
      <path
         style="fill:#231f20"
         inkscape:connector-curvature="0"
         d="m 448.32429,561.0761 0.22,0 c 0.12,0.33 0.19,0.78 0.21,1.35 0.38,-0.45 0.78,-0.79 1.2,-1.01 0.42,-0.23 0.86,-0.34 1.32,-0.34 0.52,0 0.95,0.11 1.28,0.33 0.33,0.22 0.55,0.48 0.64,0.81 0.1,0.32 0.14,0.78 0.14,1.38 l 0,2.05 c 0,0.76 0.01,1.22 0.04,1.38 0.03,0.16 0.11,0.29 0.25,0.37 0.14,0.08 0.4,0.12 0.78,0.12 l 0,0.37 -3.34,0 0,-0.37 0.16,0 c 0.38,0 0.63,-0.05 0.75,-0.17 0.12,-0.11 0.18,-0.24 0.2,-0.39 0.02,-0.15 0.02,-0.59 0.02,-1.32 l 0,-2.11 c 0,-0.52 -0.02,-0.89 -0.08,-1.11 -0.05,-0.22 -0.19,-0.42 -0.41,-0.59 -0.22,-0.17 -0.5,-0.26 -0.84,-0.26 -0.39,0 -0.76,0.12 -1.11,0.35 -0.35,0.23 -0.69,0.58 -1,1.04 l 0,2.67 c 0,0.76 0.01,1.22 0.04,1.38 0.03,0.16 0.11,0.29 0.26,0.37 0.14,0.08 0.4,0.12 0.79,0.12 l 0,0.37 -3.32,0 0,-0.37 c 0.37,0 0.63,-0.04 0.77,-0.11 0.14,-0.07 0.23,-0.19 0.26,-0.34 0.04,-0.15 0.05,-0.63 0.05,-1.43 l 0,-1.95 c 0,-0.76 -0.02,-1.23 -0.04,-1.39 -0.03,-0.16 -0.12,-0.29 -0.26,-0.37 -0.14,-0.08 -0.4,-0.12 -0.79,-0.12 l 0,-0.37 c 0.59,-0.05 1.19,-0.17 1.81,-0.34 z"
         id="path3367" />
      <path
         style="fill:#231f20"
         inkscape:connector-curvature="0"
         d="m 457.39429,561.0761 0,4.56 c 0,0.7 0.01,1.14 0.03,1.32 0.02,0.18 0.1,0.32 0.23,0.42 0.13,0.1 0.37,0.14 0.71,0.14 l 0.17,0 0,0.37 -3.52,0 0,-0.37 0.27,0 c 0.38,0 0.63,-0.05 0.74,-0.16 0.11,-0.11 0.18,-0.24 0.2,-0.39 0.02,-0.15 0.03,-0.59 0.03,-1.32 l 0,-1.98 c 0,-0.77 -0.04,-1.24 -0.11,-1.4 -0.07,-0.17 -0.17,-0.28 -0.29,-0.32 -0.12,-0.04 -0.33,-0.07 -0.63,-0.07 l -0.22,0 0,-0.37 c 0.95,-0.1 1.68,-0.24 2.21,-0.42 l 0.18,0 z m -1.54,-3.35 c 0,-0.23 0.08,-0.43 0.24,-0.59 0.16,-0.16 0.36,-0.25 0.59,-0.25 0.23,0 0.42,0.08 0.58,0.25 0.16,0.17 0.24,0.36 0.24,0.59 0,0.24 -0.08,0.43 -0.24,0.6 -0.16,0.17 -0.36,0.25 -0.58,0.25 -0.22,0 -0.43,-0.08 -0.59,-0.25 -0.16,-0.16 -0.24,-0.36 -0.24,-0.6 z"
         id="path3369" />
      <path
         style="fill:#231f20"
         inkscape:connector-curvature="0"
         d="m 465.11429,566.2861 0.34,0 c -0.36,1.24 -1.27,1.87 -2.72,1.87 -0.93,0 -1.71,-0.32 -2.35,-0.95 -0.64,-0.63 -0.96,-1.47 -0.96,-2.52 0,-1.07 0.34,-1.94 1.03,-2.6 0.69,-0.67 1.5,-1 2.44,-1 0.56,0 1.08,0.12 1.56,0.37 0.47,0.25 0.71,0.55 0.71,0.9 0,0.14 -0.04,0.26 -0.13,0.38 -0.08,0.12 -0.21,0.17 -0.38,0.17 -0.35,0 -0.57,-0.2 -0.65,-0.62 -0.06,-0.31 -0.16,-0.53 -0.29,-0.65 -0.14,-0.12 -0.41,-0.18 -0.81,-0.18 -0.72,0 -1.25,0.25 -1.61,0.74 -0.36,0.5 -0.54,1.24 -0.54,2.24 0,1.03 0.2,1.83 0.58,2.41 0.39,0.58 0.97,0.87 1.76,0.87 1.06,0.01 1.74,-0.47 2.02,-1.43 z"
         id="path3371" />
      <path
         style="fill:#231f20"
         inkscape:connector-curvature="0"
         d="m 473.05429,566.6861 0.29,0 c -0.05,0.91 -0.49,1.37 -1.34,1.37 -0.36,0 -0.64,-0.1 -0.85,-0.29 -0.21,-0.19 -0.35,-0.48 -0.41,-0.85 -0.54,0.38 -1.02,0.66 -1.46,0.85 -0.44,0.19 -0.84,0.29 -1.18,0.29 -0.44,0 -0.82,-0.13 -1.14,-0.38 -0.32,-0.26 -0.48,-0.6 -0.48,-1.01 0,-0.55 0.27,-1.03 0.81,-1.44 0.54,-0.41 1.28,-0.81 2.22,-1.2 l 1.25,-0.5 0,-0.32 c 0,-0.45 -0.03,-0.78 -0.09,-0.98 -0.06,-0.21 -0.21,-0.38 -0.46,-0.54 -0.25,-0.16 -0.57,-0.24 -0.97,-0.24 -0.8,0 -1.25,0.26 -1.34,0.8 -0.08,0.54 -0.31,0.82 -0.67,0.82 -0.33,0 -0.49,-0.15 -0.49,-0.46 0,-0.3 0.21,-0.63 0.65,-0.98 0.43,-0.35 1.1,-0.52 2.01,-0.52 0.68,0 1.2,0.1 1.58,0.32 0.37,0.21 0.62,0.45 0.74,0.72 0.12,0.27 0.18,0.69 0.18,1.25 l 0,2.65 c 0,0.62 0.03,1.01 0.1,1.19 0.06,0.18 0.2,0.26 0.42,0.26 0.33,-0.03 0.55,-0.29 0.63,-0.81 z m -2.31,-2.8 -0.88,0.35 c -1.38,0.56 -2.07,1.26 -2.07,2.11 0,0.34 0.09,0.61 0.26,0.81 0.18,0.21 0.41,0.31 0.69,0.31 0.25,0 0.54,-0.08 0.88,-0.25 0.33,-0.17 0.7,-0.41 1.12,-0.74 l 0,-2.59 z"
         id="path3373" />
      <path
         style="fill:#231f20"
         inkscape:connector-curvature="0"
         d="m 476.02429,556.8861 0,8.75 c 0,0.7 0.01,1.14 0.03,1.32 0.02,0.18 0.09,0.32 0.23,0.42 0.13,0.1 0.37,0.14 0.71,0.14 l 0.19,0 0,0.37 -3.49,0 0,-0.37 0.22,0 c 0.32,0 0.55,-0.04 0.68,-0.13 0.13,-0.09 0.22,-0.21 0.24,-0.37 0.03,-0.16 0.04,-0.62 0.04,-1.38 l 0,-6.47 c 0,-0.69 -0.06,-1.12 -0.19,-1.3 -0.12,-0.18 -0.42,-0.27 -0.89,-0.27 l 0,-0.37 c 0.32,0 0.7,-0.04 1.14,-0.11 0.44,-0.07 0.74,-0.15 0.9,-0.22 l 0.19,0 z"
         id="path3375" />
      <path
         style="fill:#231f20"
         inkscape:connector-curvature="0"
         d="m 491.88429,563.8161 0.34,0 0,3.79 -0.34,0 c -0.1,-0.43 -0.27,-0.81 -0.52,-1.14 -0.95,1.08 -2.17,1.62 -3.66,1.62 -1.56,0 -2.84,-0.5 -3.84,-1.49 -1,-0.99 -1.5,-2.3 -1.5,-3.93 0,-1.07 0.23,-2.08 0.69,-3.03 0.46,-0.95 1.1,-1.65 1.92,-2.11 0.82,-0.46 1.72,-0.69 2.7,-0.69 0.81,0 1.55,0.17 2.21,0.5 0.66,0.33 1.15,0.7 1.47,1.11 0.23,-0.45 0.37,-0.92 0.41,-1.41 l 0.35,0 0.1,4.11 -0.34,0 c -0.24,-1.46 -0.73,-2.48 -1.47,-3.05 -0.74,-0.57 -1.57,-0.86 -2.5,-0.86 -1.13,0 -2.04,0.46 -2.7,1.38 -0.67,0.92 -1,2.24 -1,3.96 0,1.63 0.36,2.87 1.09,3.74 0.73,0.87 1.64,1.3 2.72,1.3 0.58,0 1.18,-0.14 1.78,-0.42 0.61,-0.28 1.09,-0.76 1.44,-1.43 0.37,-0.67 0.58,-1.32 0.65,-1.95 z"
         id="path3377" />
      <path
         style="fill:#231f20"
         inkscape:connector-curvature="0"
         d="m 493.91429,564.5961 c 0,-1 0.33,-1.84 1,-2.51 0.67,-0.67 1.5,-1.01 2.48,-1.01 0.99,0 1.81,0.34 2.48,1.01 0.67,0.68 1,1.52 1,2.51 0,1.1 -0.34,1.97 -1.02,2.6 -0.68,0.63 -1.5,0.95 -2.47,0.95 -0.96,0 -1.78,-0.32 -2.46,-0.97 -0.67,-0.64 -1.01,-1.5 -1.01,-2.58 z m 1.32,0.04 c 0,1.16 0.19,1.98 0.57,2.44 0.38,0.47 0.91,0.7 1.59,0.7 0.7,0 1.23,-0.23 1.6,-0.7 0.37,-0.47 0.56,-1.28 0.56,-2.44 0,-1.15 -0.18,-1.97 -0.55,-2.46 -0.37,-0.49 -0.9,-0.74 -1.61,-0.74 -0.7,0 -1.23,0.25 -1.61,0.73 -0.36,0.49 -0.55,1.31 -0.55,2.47 z"
         id="path3379" />
      <path
         style="fill:#231f20"
         inkscape:connector-curvature="0"
         d="m 503.99429,556.8861 0,8.75 c 0,0.7 0.01,1.14 0.03,1.32 0.02,0.18 0.1,0.32 0.23,0.42 0.13,0.1 0.37,0.14 0.71,0.14 l 0.19,0 0,0.37 -3.5,0 0,-0.37 0.23,0 c 0.32,0 0.55,-0.04 0.68,-0.13 0.14,-0.09 0.22,-0.21 0.25,-0.37 0.02,-0.16 0.04,-0.62 0.04,-1.38 l 0,-6.47 c 0,-0.69 -0.06,-1.12 -0.18,-1.3 -0.12,-0.18 -0.42,-0.27 -0.89,-0.27 l 0,-0.37 c 0.33,0 0.7,-0.04 1.14,-0.11 0.44,-0.07 0.74,-0.15 0.9,-0.22 l 0.17,0 z"
         id="path3381" />
      <path
         style="fill:#231f20"
         inkscape:connector-curvature="0"
         d="m 507.91429,556.8861 0,8.75 c 0,0.7 0.01,1.14 0.03,1.32 0.02,0.18 0.09,0.32 0.23,0.42 0.13,0.1 0.37,0.14 0.71,0.14 l 0.19,0 0,0.37 -3.49,0 0,-0.37 0.22,0 c 0.32,0 0.55,-0.04 0.68,-0.13 0.14,-0.09 0.22,-0.21 0.24,-0.37 0.03,-0.16 0.04,-0.62 0.04,-1.38 l 0,-6.47 c 0,-0.69 -0.06,-1.12 -0.19,-1.3 -0.12,-0.18 -0.42,-0.27 -0.89,-0.27 l 0,-0.37 c 0.32,0 0.7,-0.04 1.14,-0.11 0.44,-0.07 0.74,-0.15 0.91,-0.22 l 0.18,0 z"
         id="path3383" />
      <path
         style="fill:#231f20"
         inkscape:connector-curvature="0"
         d="m 515.87429,563.5561 -4.57,0 c -0.02,0.31 -0.03,0.55 -0.03,0.7 0,1.15 0.18,2.01 0.54,2.59 0.36,0.58 0.9,0.87 1.61,0.87 0.97,0 1.66,-0.43 2.07,-1.3 l 0.38,0 c -0.17,0.54 -0.51,0.97 -1.02,1.27 -0.51,0.31 -1.06,0.46 -1.66,0.46 -0.55,0 -1.08,-0.14 -1.57,-0.42 -0.49,-0.28 -0.9,-0.67 -1.21,-1.19 -0.31,-0.51 -0.47,-1.13 -0.47,-1.86 0,-1.03 0.3,-1.89 0.91,-2.58 0.61,-0.69 1.37,-1.03 2.28,-1.03 0.86,0 1.52,0.26 1.99,0.78 0.48,0.54 0.72,1.1 0.75,1.71 z m -1.4,-0.33 c 0.02,-0.12 0.02,-0.24 0.02,-0.33 0,-0.47 -0.14,-0.83 -0.41,-1.09 -0.27,-0.26 -0.61,-0.39 -1.01,-0.39 -0.97,0 -1.55,0.6 -1.74,1.81 l 3.14,0 z"
         id="path3385" />
      <path
         style="fill:#231f20"
         inkscape:connector-curvature="0"
         d="m 522.11429,561.9061 c 0.45,-0.51 0.91,-0.77 1.37,-0.77 0.26,0 0.45,0.07 0.6,0.21 0.15,0.14 0.21,0.29 0.21,0.46 0,0.35 -0.16,0.53 -0.48,0.53 -0.18,0 -0.33,-0.11 -0.45,-0.33 -0.12,-0.2 -0.24,-0.3 -0.37,-0.3 -0.2,0 -0.42,0.14 -0.67,0.42 0.28,0.44 0.42,0.9 0.42,1.39 0,0.64 -0.23,1.2 -0.69,1.69 -0.46,0.5 -1.23,0.76 -2.32,0.8 -1.13,0.04 -1.7,0.26 -1.7,0.69 0,0.2 0.13,0.33 0.38,0.42 0.25,0.08 0.78,0.15 1.58,0.19 0.88,0.04 1.55,0.12 2.03,0.24 0.47,0.12 0.85,0.36 1.14,0.72 0.28,0.36 0.42,0.8 0.42,1.3 0,0.7 -0.29,1.27 -0.86,1.7 -0.58,0.43 -1.41,0.65 -2.49,0.65 -0.99,0 -1.78,-0.19 -2.38,-0.57 -0.59,-0.38 -0.89,-0.87 -0.89,-1.46 0,-0.32 0.09,-0.59 0.26,-0.8 0.17,-0.2 0.42,-0.31 0.73,-0.31 0.08,0 0.16,0.01 0.23,0.04 -0.33,0.36 -0.5,0.75 -0.5,1.15 0,0.47 0.22,0.86 0.66,1.16 0.44,0.31 1.09,0.46 1.97,0.46 0.78,0 1.39,-0.15 1.82,-0.47 0.43,-0.31 0.65,-0.71 0.65,-1.19 0,-0.54 -0.2,-0.91 -0.58,-1.13 -0.39,-0.21 -1.08,-0.34 -2.08,-0.38 -1.15,-0.05 -1.89,-0.19 -2.23,-0.42 -0.34,-0.23 -0.51,-0.52 -0.51,-0.89 0,-0.7 0.49,-1.14 1.46,-1.32 -0.5,-0.3 -0.89,-0.64 -1.14,-1.02 -0.26,-0.38 -0.38,-0.81 -0.38,-1.29 0,-0.67 0.26,-1.23 0.79,-1.7 0.52,-0.47 1.15,-0.7 1.86,-0.7 0.89,0 1.6,0.27 2.14,0.83 z m -3.6,1.75 c 0,0.69 0.14,1.19 0.43,1.51 0.28,0.32 0.64,0.48 1.08,0.48 0.41,0 0.75,-0.16 1.04,-0.48 0.29,-0.32 0.44,-0.87 0.44,-1.65 0,-0.79 -0.16,-1.33 -0.46,-1.63 -0.31,-0.3 -0.66,-0.45 -1.05,-0.45 -0.49,0 -0.86,0.18 -1.1,0.55 -0.25,0.37 -0.38,0.93 -0.38,1.67 z"
         id="path3387" />
      <path
         style="fill:#231f20"
         inkscape:connector-curvature="0"
         d="m 530.71429,563.5561 -4.57,0 c -0.02,0.31 -0.03,0.55 -0.03,0.7 0,1.15 0.18,2.01 0.54,2.59 0.36,0.58 0.9,0.87 1.61,0.87 0.97,0 1.66,-0.43 2.07,-1.3 l 0.38,0 c -0.17,0.54 -0.51,0.97 -1.02,1.27 -0.51,0.31 -1.06,0.46 -1.66,0.46 -0.55,0 -1.08,-0.14 -1.57,-0.42 -0.49,-0.28 -0.9,-0.67 -1.21,-1.19 -0.32,-0.51 -0.48,-1.13 -0.48,-1.86 0,-1.03 0.31,-1.89 0.91,-2.58 0.61,-0.69 1.37,-1.03 2.28,-1.03 0.86,0 1.52,0.26 1.99,0.78 0.49,0.54 0.73,1.1 0.76,1.71 z m -1.4,-0.33 c 0.01,-0.12 0.02,-0.24 0.02,-0.33 0,-0.47 -0.14,-0.83 -0.42,-1.09 -0.27,-0.26 -0.61,-0.39 -1.01,-0.39 -0.97,0 -1.55,0.6 -1.74,1.81 l 3.15,0 z"
         id="path3389" />
    </g>
  </g>
</svg>
