<?xml version="1.0" encoding="UTF-8" standalone="no"?>
<!-- Created with Inkscape (http://www.inkscape.org/) -->
<svg
   xmlns:svg="http://www.w3.org/2000/svg"
   xmlns="http://www.w3.org/2000/svg"
   version="1.0"
   width="492.81949"
   height="487.81949"
   id="svg2">
  <defs
     id="defs4" />
  <g
     transform="translate(793.33832,-123.52388)"
     id="layer1">
    <path
       d="M -288.57144 390.93362 A 272.85715 272.85715 0 1 1  -834.28574,390.93362 A 272.85715 272.85715 0 1 1  -288.57144 390.93362 z"
       transform="matrix(0.8994074,0,0,0.8902451,-41.975557,19.406878)"
       style="fill:#ffffff;fill-opacity:1;stroke:#000000;stroke-width:2.23510003;stroke-miterlimit:4;stroke-dasharray:none"
       id="path2160" />
    <path
       d="M -288.57144 390.93362 A 272.85715 272.85715 0 1 1  -834.28574,390.93362 A 272.85715 272.85715 0 1 1  -288.57144 390.93362 z"
       transform="matrix(0.7076039,0,0,0.7076039,-149.65955,96.52178)"
       style="fill:#ffffff;fill-opacity:1;stroke:#ffffff;stroke-opacity:1"
       id="path3134" />
    <path
       d="M -344.34075,375.5905 L -344.2733,379.17772 C -345.71382,379.24868 -346.91313,379.56131 -347.87122,380.11561 C -348.82932,380.6699 -349.63542,381.57721 -350.2895,382.83754 C -350.94359,384.09785 -351.32626,385.5399 -351.43751,387.16371 C -351.53631,388.60563 -351.40919,389.89337 -351.05616,391.02694 C -350.70314,392.16048 -350.17162,393.02239 -349.4616,393.61269 C -348.7516,394.20295 -347.95492,394.52835 -347.07157,394.58889 C -346.17524,394.65028 -345.37477,394.4441 -344.67016,393.97035 C -343.96556,393.49655 -343.34498,392.67768 -342.80843,391.51373 C -342.45715,390.76776 -341.87659,389.10433 -341.06675,386.52346 C -340.25694,383.94256 -339.53669,382.14514 -338.906,381.1312 C -338.09809,379.81616 -337.14185,378.86041 -336.03728,378.26395 C -334.93275,377.66748 -333.72446,377.41419 -332.41241,377.50409 C -330.9705,377.60288 -329.65079,378.10442 -328.45326,379.00871 C -327.25579,379.91299 -326.38613,381.1733 -325.84428,382.78964 C -325.30249,384.40597 -325.09744,386.17543 -325.22914,388.09801 C -325.37424,390.21543 -325.84318,392.05943 -326.63596,393.63002 C -327.42879,395.20058 -328.51752,396.37565 -329.90215,397.15524 C -331.28682,397.93479 -332.81925,398.29964 -334.49944,398.2498 L -334.52391,394.60679 C -332.70492,394.53563 -331.29576,393.96983 -330.29644,392.90937 C -329.29715,391.84888 -328.72229,390.22096 -328.57185,388.0256 C -328.41523,385.73928 -328.72002,384.04456 -329.48622,382.94144 C -330.25248,381.8383 -331.22665,381.24624 -332.40876,381.16525 C -333.43502,381.09493 -334.30476,381.4073 -335.01798,382.10237 C -335.73035,382.78443 -336.53926,384.63776 -337.44473,387.66238 C -338.35022,390.68697 -339.10193,392.75305 -339.69986,393.86062 C -340.58023,395.47085 -341.63537,396.63191 -342.86528,397.3438 C -344.09521,398.05564 -345.4766,398.35905 -347.00946,398.25405 C -348.52934,398.14989 -349.93171,397.61659 -351.21658,396.65414 C -352.50145,395.69164 -353.46151,394.36967 -354.09675,392.68822 C -354.732,391.00673 -354.97975,389.14625 -354.84002,387.10678 C -354.66289,384.52168 -354.13776,382.38135 -353.26461,380.68578 C -352.39145,378.99019 -351.16414,377.69736 -349.58267,376.80729 C -348.00121,375.91722 -346.25391,375.51162 -344.34075,375.5905 L -344.34075,375.5905 z M -357.36552,410.01545 L -332.61967,415.05555 L -330.73694,405.81174 L -327.42601,406.4861 L -331.95548,428.72483 L -335.26641,428.05047 L -333.37588,418.76839 L -358.12173,413.72828 L -357.36552,410.01545 z M -368.43831,447.58957 L -342.65655,460.04503 L -347.32947,469.71759 C -348.28106,471.68725 -349.30517,473.14107 -350.4018,474.07906 C -351.49846,475.01699 -352.75187,475.56108 -354.16204,475.71133 C -355.57224,475.86151 -356.86941,475.65058 -358.05356,475.07853 C -359.15565,474.54607 -360.04882,473.74582 -360.73306,472.67779 C -361.41731,471.6097 -361.7667,470.32743 -361.78122,468.83098 C -362.99181,470.16939 -364.35063,470.99153 -365.8577,471.29742 C -367.36477,471.60325 -368.86867,471.39367 -370.36938,470.66869 C -371.57698,470.08525 -372.57639,469.28791 -373.3676,468.27665 C -374.15881,467.26534 -374.65454,466.24858 -374.85481,465.22637 C -375.05507,464.20411 -375.02552,463.05791 -374.76619,461.78776 C -374.50684,460.51758 -373.98067,459.0618 -373.1877,457.42041 L -368.43831,447.58957 z M -355.13808,458.22313 L -357.83138,463.79804 C -358.56206,465.31046 -358.98634,466.4431 -359.10421,467.19598 C -359.26543,468.18816 -359.15327,469.04854 -358.76773,469.77709 C -358.3822,470.5056 -357.73805,471.08794 -356.83527,471.5241 C -355.9794,471.93756 -355.127,472.0963 -354.27804,472.00034 C -353.42911,471.90432 -352.70038,471.53334 -352.09185,470.88741 C -351.48334,470.24141 -350.73162,468.99221 -349.83667,467.13979 L -347.34727,461.98696 L -355.13808,458.22313 z M -367.04412,452.47119 L -370.14524,458.89025 C -370.67767,459.99232 -371.01047,460.78595 -371.14364,461.27114 C -371.38244,462.12462 -371.46514,462.89447 -371.39175,463.58067 C -371.31836,464.26685 -371.05016,464.93146 -370.58718,465.57452 C -370.12418,466.21753 -369.48234,466.73729 -368.66164,467.13381 C -367.70024,467.59824 -366.74594,467.7556 -365.79873,467.60589 C -364.85151,467.45612 -364.02329,467.01391 -363.31407,466.27924 C -362.60485,465.54453 -361.85374,464.35648 -361.06076,462.7151 L -358.18054,456.75329 L -367.04412,452.47119 z M -368.25598,478.60505 C -364.33304,481.2879 -361.98219,484.44153 -361.20341,488.06595 C -360.42466,491.69033 -361.17458,495.16844 -363.45315,498.50029 C -364.94527,500.68206 -366.81164,502.29241 -369.05227,503.33136 C -371.29291,504.37024 -373.65982,504.71153 -376.15301,504.35522 C -378.6462,503.99885 -381.07506,503.01215 -383.43958,501.39512 C -385.83633,499.75597 -387.64975,497.80594 -388.87985,495.54501 C -390.10992,493.28403 -390.6049,490.93427 -390.36479,488.4957 C -390.12466,486.05709 -389.30265,483.81138 -387.89875,481.75857 C -386.37723,479.53376 -384.48004,477.91294 -382.20717,476.89608 C -379.93429,475.87921 -377.55945,475.55517 -375.08266,475.92397 C -372.60587,476.29274 -370.33031,477.18644 -368.25598,478.60505 L -368.25598,478.60505 z M -370.50943,481.79632 C -373.3576,479.84848 -376.12491,479.07989 -378.81137,479.49054 C -381.49782,479.90117 -383.6312,481.26188 -385.21152,483.57267 C -386.82123,485.92642 -387.31854,488.42968 -386.70345,491.08246 C -386.08835,493.7352 -384.25999,496.10164 -381.21837,498.1818 C -379.29451,499.49747 -377.39282,500.32084 -375.51329,500.65189 C -373.63377,500.98288 -371.87088,500.79245 -370.2246,500.08061 C -368.57834,499.36871 -367.2223,498.23356 -366.1565,496.67516 C -364.64235,494.46109 -364.09992,492.03601 -364.5292,489.39991 C -364.95851,486.76378 -366.95192,484.22925 -370.50943,481.79632 L -370.50943,481.79632 z M -398.41965,497.01493 L -377.55558,516.62433 L -380.21743,519.45649 L -406.89805,515.01919 L -390.51705,530.41511 L -393.00501,533.06225 L -413.86908,513.45285 L -411.20723,510.62069 L -384.51238,515.07137 L -400.90761,499.66207 L -398.41965,497.01493 z M -416.17126,515.79678 L -406.91389,545.03807 L -410.10516,547.58341 L -437.12065,532.50593 L -433.74615,529.81444 L -425.72778,534.51142 L -416.36774,527.04589 L -419.31673,518.30559 L -416.17126,515.79678 z M -415.29858,530.14044 L -422.88739,536.19324 L -415.60665,540.52921 C -413.39206,541.84405 -411.62862,542.96914 -410.31634,543.90448 C -411.17611,542.24181 -411.9107,540.49597 -412.5201,538.66697 L -415.29858,530.14044 z M -446.83204,538.26833 L -422.68484,557.23731 L -426.21269,559.32946 L -443.22341,545.23398 C -444.58873,544.10595 -445.81692,543.01772 -446.90799,541.96928 C -446.49175,543.53903 -446.13712,545.14532 -445.8441,546.78815 L -441.88642,568.62459 L -445.21268,570.59719 L -450.1751,540.25089 L -446.83204,538.26833 z M -463.07596,547.39235 L -452.0193,573.80424 L -471.11658,581.79882 L -472.42136,578.682 L -456.81924,572.15058 L -460.20562,564.06126 L -474.81684,570.17787 L -476.11408,567.07907 L -461.50286,560.96246 L -465.26635,551.97232 L -481.48102,558.76018 L -482.78579,555.64336 L -463.07596,547.39235 z M -487.77558,557.33722 L -480.65462,585.07041 L -484.41922,586.03704 L -504.57664,568.00309 L -498.98577,589.77724 L -502.50444,590.68072 L -509.6254,562.94753 L -505.8608,561.9809 L -485.69852,580.03377 L -491.29425,558.2407 L -487.77558,557.33722 z M -523.19862,564.78557 L -520.3613,589.87958 L -510.98743,588.8197 L -510.6078,592.17721 L -533.15942,594.72707 L -533.53905,591.36956 L -524.12637,590.30529 L -526.96369,565.21128 L -523.19862,564.78557 z M -559.79072,594.60957 L -563.57867,594.51757 L -563.17698,577.97948 C -563.10708,575.10271 -562.72617,572.82614 -562.03425,571.14974 C -561.34227,569.47334 -560.13406,568.12533 -558.40959,567.1057 C -556.68509,566.08608 -554.44305,565.60978 -551.68346,565.6768 C -549.00195,565.74193 -546.81981,566.25731 -545.13704,567.22293 C -543.45426,568.18856 -542.26966,569.55561 -541.58323,571.32411 C -540.8968,573.09259 -540.59042,575.49331 -540.66409,578.52628 L -541.06578,595.06437 L -544.85372,594.97237 L -544.45251,578.4538 C -544.39212,575.96755 -544.57867,574.1298 -545.01217,572.94054 C -545.44565,571.75128 -546.21763,570.82406 -547.32812,570.15888 C -548.43858,569.4937 -549.80738,569.14134 -551.43452,569.10183 C -554.22014,569.03417 -556.22056,569.61727 -557.4358,570.85115 C -558.65099,572.08503 -559.30223,574.49831 -559.38951,578.09101 L -559.79072,594.60957 z M -569.27627,565.27618 L -574.21648,593.47959 L -586.7214,591.28918 C -589.23519,590.84883 -591.10182,590.26078 -592.32132,589.52505 C -593.54076,588.78927 -594.42934,587.71159 -594.98707,586.29201 C -595.54474,584.8724 -595.68768,583.38665 -595.41587,581.83478 C -595.06538,579.83398 -594.12226,578.26087 -592.58653,577.11545 C -591.05074,575.97001 -588.89718,575.44834 -586.12586,575.55043 C -587.03029,574.90289 -587.69858,574.30333 -588.13075,573.75176 C -589.04567,572.5604 -589.85908,571.12906 -590.571,569.45774 L -594.1322,560.92232 L -589.43805,561.74457 L -586.73362,568.26602 C -585.93997,570.14994 -585.26909,571.60258 -584.72096,572.62394 C -584.1728,573.64528 -583.65122,574.38438 -583.15623,574.84123 C -582.66121,575.29806 -582.13748,575.64757 -581.58506,575.88976 C -581.17753,576.05366 -580.49281,576.21987 -579.53091,576.38837 L -575.20228,577.14659 L -573.00851,564.62243 L -569.27627,565.27618 z M -575.76842,580.37863 L -583.79081,578.9734 C -585.49659,578.67459 -586.86133,578.6173 -587.88505,578.80152 C -588.90873,578.98572 -589.73863,579.42199 -590.37477,580.11033 C -591.01086,580.79865 -591.40867,581.59812 -591.5682,582.50875 C -591.80182,583.84259 -591.50974,585.02398 -590.69195,586.05293 C -589.87412,587.08184 -588.41993,587.7794 -586.32939,588.14561 L -577.4028,589.70922 L -575.76842,580.37863 z M -597.68505,559.75397 L -606.64939,586.94732 L -626.31171,580.4656 L -625.25384,577.25656 L -609.1901,582.552 L -606.44454,574.22334 L -621.48807,569.26422 L -620.43632,566.07373 L -605.39279,571.03285 L -602.34149,561.77673 L -619.03591,556.27338 L -617.97804,553.06434 L -597.68505,559.75397 z M -629.69301,567.89866 L -630.99221,573.1673 L -632.89128,577.55948 L -636.56637,575.97046 L -634.6673,571.57828 L -631.68294,567.03827 L -629.69301,567.89866 z M -633.10664,556.54111 L -636.39682,555.11023 C -635.86212,553.77074 -635.64753,552.55007 -635.75305,551.44823 C -635.85855,550.34639 -636.34831,549.23592 -637.22233,548.11685 C -638.09634,546.99777 -639.24852,546.04991 -640.67889,545.27326 C -641.94903,544.58361 -643.17295,544.16353 -644.35064,544.01302 C -645.5283,543.86252 -646.5332,543.98733 -647.36535,544.38744 C -648.19747,544.78756 -648.82478,545.37668 -649.2473,546.15479 C -649.67598,546.94435 -649.82147,547.75804 -649.68375,548.59587 C -649.54599,549.43371 -649.05948,550.33868 -648.22422,551.31079 C -647.69198,551.94054 -646.42081,553.16044 -644.41071,554.97048 C -642.40057,556.78051 -641.06566,558.18318 -640.40597,559.17849 C -639.54618,560.46022 -639.07483,561.72737 -638.9919,562.97995 C -638.90896,564.23251 -639.18125,565.43666 -639.80879,566.5924 C -640.49844,567.86254 -641.5035,568.85402 -642.82398,569.56685 C -644.14444,570.27963 -645.65229,570.54621 -647.34755,570.36658 C -649.04277,570.18691 -650.73716,569.63732 -652.43073,568.71779 C -654.29589,567.70503 -655.7777,566.51152 -656.87617,565.13725 C -657.97459,563.76295 -658.59027,562.28408 -658.72324,560.70064 C -658.85613,559.11718 -658.55046,557.57186 -657.80621,556.06467 L -654.48318,557.55784 C -655.17513,559.24158 -655.24679,560.7584 -654.69814,562.10829 C -654.14944,563.45816 -652.90819,564.65811 -650.97437,565.70814 C -648.96041,566.80164 -647.29249,567.22944 -645.97061,566.99156 C -644.64869,566.75363 -643.70505,566.11403 -643.13967,565.07275 C -642.64881,564.16875 -642.57108,563.24789 -642.90647,562.31017 C -643.23038,561.37863 -644.57926,559.87207 -646.95311,557.79048 C -649.32692,555.70887 -650.89305,554.16584 -651.65152,553.16137 C -652.74961,551.69096 -653.36652,550.24846 -653.50227,548.83388 C -653.63797,547.41931 -653.33926,546.03689 -652.60613,544.68663 C -651.87917,543.34782 -650.81084,542.29439 -649.40113,541.52633 C -647.99137,540.75828 -646.38984,540.43515 -644.59653,540.55692 C -642.80318,540.67872 -641.00825,541.22734 -639.21173,542.2028 C -636.9346,543.43922 -635.20668,544.80711 -634.02799,546.30646 C -632.84928,547.80581 -632.18416,549.45969 -632.03262,551.26808 C -631.88107,553.07648 -632.23908,554.83415 -633.10664,556.54111 L -633.10664,556.54111 z M -671.07556,521.41078 L -690.70816,542.25302 L -693.46627,539.65498 L -685.40432,531.0963 L -696.23773,520.89163 L -704.29969,529.45031 L -707.0578,526.85228 L -687.4252,506.01003 L -684.66709,508.60807 L -693.92093,518.43208 L -683.08751,528.63674 L -673.83367,518.81274 L -671.07556,521.41078 z M -691.90523,500.63435 L -713.5744,519.35025 L -716.05113,516.48271 L -694.38196,497.76681 L -691.90523,500.63435 z M -715.76493,488.18234 L -718.5306,490.08929 L -725.43166,480.11502 L -716.68442,474.08373 C -714.40541,474.77406 -712.39599,475.7214 -710.65615,476.92577 C -708.91628,478.13018 -707.45505,479.58995 -706.27246,481.30508 C -704.67593,483.62053 -703.72118,486.06611 -703.40819,488.64181 C -703.09519,491.21753 -703.54406,493.63451 -704.75479,495.89275 C -705.96551,498.15099 -707.72859,500.07837 -710.04405,501.67489 C -712.33804,503.25662 -714.81005,504.25332 -717.46008,504.665 C -720.11007,505.07666 -722.53833,504.71466 -724.74486,503.57898 C -726.95134,502.44329 -728.86393,500.70164 -730.48265,498.35404 C -731.65783,496.64962 -732.4443,494.91834 -732.84205,493.16021 C -733.23973,491.40209 -733.21527,489.79176 -732.76866,488.32922 C -732.32198,486.8667 -731.44584,485.38481 -730.14023,483.88354 L -727.4282,486.16528 C -728.38486,487.34686 -729.02515,488.43679 -729.34907,489.43509 C -729.67292,490.4334 -729.70491,491.56258 -729.44505,492.82263 C -729.18511,494.08269 -728.64495,495.30765 -727.82455,496.49753 C -726.84148,497.92325 -725.77441,499.00633 -724.62334,499.7468 C -723.47221,500.48725 -722.32302,500.93248 -721.17577,501.08248 C -720.02847,501.23247 -718.90944,501.19238 -717.8187,500.96223 C -715.9469,500.55731 -714.15879,499.76724 -712.45439,498.59204 C -710.35332,497.14334 -708.84475,495.56939 -707.92868,493.87016 C -707.01259,492.17094 -706.68825,490.39339 -706.95568,488.5375 C -707.22309,486.68163 -707.89266,484.97652 -708.96441,483.42216 C -709.8957,482.0715 -711.06478,480.93222 -712.47165,480.00432 C -713.87849,479.07646 -715.10584,478.48347 -716.1537,478.22535 L -720.5434,481.25208 L -715.76493,488.18234 z M -716.16075,466.80035 L -741.9655,479.20813 L -743.60746,475.79331 L -733.01096,470.69817 L -739.4603,457.28533 L -750.05679,462.38047 L -751.69875,458.96566 L -725.894,446.55788 L -724.25204,449.9727 L -736.41513,455.82111 L -729.96579,469.23395 L -717.80271,463.38553 L -716.16075,466.80035 z M -740.35391,433.58517 L -741.52509,430.19385 C -740.17678,429.68181 -739.13249,429.01432 -738.39222,428.19141 C -737.65194,427.3685 -737.16518,426.25672 -736.93197,424.85605 C -736.69874,423.45541 -736.77977,421.96564 -737.17505,420.38675 C -737.52606,418.98473 -738.04437,417.79907 -738.72999,416.82977 C -739.4156,415.86051 -740.18716,415.20469 -741.04469,414.86231 C -741.90219,414.51997 -742.7604,414.45631 -743.61932,414.67133 C -744.49085,414.88954 -745.18862,415.33269 -745.71264,416.00076 C -746.23663,416.66888 -746.57422,417.63929 -746.72539,418.912 C -746.82931,419.72998 -746.8682,421.49137 -746.84204,424.19619 C -746.81586,426.90103 -746.94627,428.83299 -747.23327,429.99207 C -747.59592,431.49226 -748.21054,432.69645 -749.07713,433.60467 C -749.94368,434.51289 -751.01483,435.1267 -752.29059,435.44609 C -753.6926,435.79709 -755.10268,435.7273 -756.52082,435.23671 C -757.93891,434.74611 -759.15505,433.81569 -760.16926,432.44545 C -761.18342,431.07522 -761.92451,429.45541 -762.39256,427.58601 C -762.90797,425.52717 -763.03098,423.62845 -762.76159,421.88987 C -762.49213,420.1513 -761.81917,418.6976 -760.74271,417.52876 C -759.66619,416.35995 -758.32115,415.53999 -756.70759,415.06889 L -755.56007,418.52653 C -757.26832,419.15556 -758.43409,420.12862 -759.05738,421.44571 C -759.68062,422.76282 -759.72504,424.48869 -759.19065,426.62332 C -758.63407,428.84638 -757.82116,430.36433 -756.75193,431.17715 C -755.68264,431.98999 -754.5733,432.25252 -753.4239,431.96475 C -752.42603,431.71494 -751.69514,431.14941 -751.23123,430.26816 C -750.76411,429.39956 -750.56662,427.38705 -750.63876,424.23063 C -750.71085,421.07423 -750.63343,418.87701 -750.40648,417.63898 C -750.066,415.83566 -749.42067,414.40565 -748.47048,413.34896 C -747.52026,412.2923 -746.29992,411.57739 -744.80948,411.20422 C -743.33164,410.83426 -741.83314,410.90876 -740.31397,411.42772 C -738.79478,411.94673 -737.47362,412.9079 -736.35048,414.31124 C -735.22733,415.71462 -734.41752,417.40784 -733.92105,419.39089 C -733.29176,421.90447 -733.13076,424.10239 -733.43803,425.98466 C -733.74531,427.86695 -734.51374,429.47542 -735.74335,430.81009 C -736.97294,432.14477 -738.50979,433.06979 -740.35391,433.58517 L -740.35391,433.58517 z M -749.91813,384.75442 L -749.34728,380.88828 C -746.17116,381.36536 -743.66635,382.54832 -741.83284,384.43717 C -739.99932,386.32606 -738.93252,388.75381 -738.63245,391.72043 C -738.32189,394.79071 -738.69437,397.35096 -739.74991,399.40118 C -740.80545,401.45141 -742.4678,403.09842 -744.73696,404.34221 C -747.00611,405.586 -749.50094,406.34549 -752.22144,406.62067 C -755.18806,406.92075 -757.83309,406.61573 -760.15655,405.70561 C -762.47997,404.79549 -764.32075,403.35233 -765.67889,401.3761 C -767.03698,399.39989 -767.84315,397.15517 -768.0974,394.64195 C -768.38565,391.79192 -767.90261,389.32192 -766.64827,387.23193 C -765.39387,385.14198 -763.49043,383.58182 -760.93796,382.55146 L -759.68809,386.17454 C -761.694,387.04491 -763.10625,388.15622 -763.92487,389.50847 C -764.74343,390.86075 -765.05641,392.48906 -764.86381,394.39339 C -764.64232,396.58275 -763.93257,398.35953 -762.73453,399.72374 C -761.53645,401.08797 -760.02312,401.9786 -758.19454,402.39565 C -756.36592,402.8127 -754.51241,402.92623 -752.63399,402.73621 C -750.21144,402.49118 -748.13229,401.92424 -746.39654,401.0354 C -744.66076,400.14658 -743.42129,398.91206 -742.67811,397.33184 C -741.93492,395.75164 -741.65113,394.09357 -741.82673,392.35763 C -742.04031,390.24602 -742.83002,388.51986 -744.19584,387.17913 C -745.56165,385.83845 -747.46908,385.03021 -749.91813,384.75442 L -749.91813,384.75442 z M -740.31803,375.12786 L -768.91869,373.77131 L -768.73917,369.9865 L -756.99456,370.54356 L -756.28945,355.67746 L -768.03406,355.1204 L -767.85454,351.33559 L -739.25388,352.69215 L -739.4334,356.47696 L -752.91434,355.83754 L -753.61945,370.70364 L -740.13851,371.34306 L -740.31803,375.12786 z M -752.45746,344.68235 C -757.11285,343.72609 -760.50071,341.72752 -762.62104,338.68661 C -764.74133,335.64573 -765.39541,332.14833 -764.58327,328.19441 C -764.05141,325.60526 -762.95337,323.39824 -761.28916,321.57336 C -759.62491,319.74853 -757.57434,318.51812 -755.13745,317.88212 C -752.70052,317.24619 -750.07907,317.2164 -747.27308,317.79274 C -744.42881,318.37701 -742.00218,319.47363 -739.99317,321.08261 C -737.98416,322.69164 -736.61866,324.66694 -735.89665,327.00852 C -735.17465,329.35014 -735.06385,331.73899 -735.56424,334.17509 C -736.10656,336.81529 -737.22897,339.04389 -738.93146,340.86088 C -740.63395,342.67789 -742.6985,343.89546 -745.12511,344.51359 C -747.55171,345.13174 -749.99582,345.18799 -752.45746,344.68235 L -752.45746,344.68235 z M -751.6141,340.86777 C -748.23414,341.56205 -745.38496,341.20019 -743.06657,339.78219 C -740.74816,338.36422 -739.30733,336.28411 -738.74405,333.54187 C -738.1703,330.74865 -738.68016,328.24791 -740.27365,326.03966 C -741.86713,323.83146 -744.46864,322.35663 -748.07818,321.61517 C -750.36123,321.14624 -752.43337,321.12271 -754.29462,321.54458 C -756.15584,321.9665 -757.70779,322.82411 -758.95049,324.11743 C -760.19314,325.4108 -761.00442,326.98217 -761.38433,328.83156 C -761.924,331.45901 -761.48599,333.90511 -760.0703,336.16985 C -758.65457,338.43463 -755.83584,340.0006 -751.6141,340.86777 L -751.6141,340.86777 z M -745.24951,312.07724 C -749.68935,310.38167 -752.70995,307.86217 -754.31133,304.51875 C -755.91266,301.17535 -755.9933,297.61823 -754.55325,293.84737 C -753.61021,291.37812 -752.17015,289.37741 -750.23306,287.84526 C -748.29593,286.31317 -746.07357,285.43009 -743.56595,285.19602 C -741.05831,284.96201 -738.46646,285.35599 -735.79039,286.37794 C -733.07782,287.4139 -730.86015,288.88804 -729.13738,290.80036 C -727.41461,292.71274 -726.38606,294.88264 -726.0517,297.31009 C -725.71737,299.73757 -725.99383,302.11296 -726.8811,304.43626 C -727.8427,306.95422 -729.3103,308.97228 -731.2839,310.49045 C -733.2575,312.00865 -735.49159,312.8768 -737.98617,313.09491 C -740.48074,313.31303 -742.90186,312.97381 -745.24951,312.07724 L -745.24951,312.07724 z M -743.80115,308.44895 C -740.57769,309.67999 -737.70748,309.78304 -735.19051,308.75809 C -732.67353,307.73316 -730.91566,305.91307 -729.91689,303.2978 C -728.89955,300.63391 -728.99884,298.08366 -730.21476,295.64704 C -731.43069,293.21047 -733.75985,291.33485 -737.20226,290.02017 C -739.3796,289.18867 -741.42074,288.83078 -743.32569,288.94651 C -745.23062,289.0623 -746.90071,289.65801 -748.33596,290.73364 C -749.77119,291.80934 -750.8256,293.22905 -751.4992,294.99281 C -752.45614,297.4986 -752.41894,299.98333 -751.3876,302.44699 C -750.35622,304.91068 -747.82741,306.91133 -743.80115,308.44895 L -743.80115,308.44895 z M -720.10655,287.33636 L -745.18419,273.5179 L -743.35556,270.1993 L -721.23728,282.38707 L -714.43174,270.03642 L -711.47237,271.66711 L -720.10655,287.33636 z M -615.41998,192.23583 L -623.98329,164.91354 L -620.36766,163.78033 L -616.85121,174.99999 L -602.64958,170.54894 L -606.16603,159.32928 L -602.55039,158.19607 L -593.98708,185.51837 L -597.60272,186.65157 L -601.63904,173.77319 L -615.84067,178.22425 L -611.80435,191.10263 L -615.41998,192.23583 z M -579.81504,182.85403 L -581.73241,170.87763 L -595.23779,156.32571 L -590.68637,155.59705 L -583.74812,163.22901 C -582.46432,164.65864 -581.25123,166.09957 -580.10884,167.55181 C -579.497,165.93741 -578.73499,164.10775 -577.82281,162.06281 L -573.67642,152.87383 L -569.31786,152.17604 L -577.99099,170.27864 L -576.07362,182.25504 L -579.81504,182.85403 z M -561.31763,180.27213 L -561.76031,151.64274 L -551.89821,151.49025 C -549.67192,151.45585 -547.9708,151.56628 -546.79482,151.82154 C -545.14857,152.17376 -543.73843,152.83564 -542.56439,153.80716 C -541.03445,155.05972 -539.87982,156.67292 -539.10049,158.64676 C -538.3212,160.62064 -537.91182,162.88346 -537.87234,165.43522 C -537.83875,167.60946 -538.06283,169.54023 -538.54459,171.22756 C -539.02639,172.9149 -539.65587,174.31478 -540.43301,175.42718 C -541.2102,176.53959 -542.06584,177.41881 -542.99996,178.06484 C -543.93411,178.71087 -545.0659,179.20694 -546.39532,179.55306 C -547.72478,179.89917 -549.25528,180.08562 -550.98683,180.11239 L -561.31763,180.27213 z M -557.58126,176.83505 L -551.46871,176.74053 C -549.58093,176.71135 -548.1027,176.51269 -547.03403,176.14455 C -545.9654,175.77643 -545.11703,175.26846 -544.48893,174.62065 C -543.60451,173.70843 -542.9234,172.49008 -542.44559,170.96557 C -541.96782,169.44109 -541.74563,167.59824 -541.77903,165.43703 C -541.82535,162.44261 -542.35241,160.14906 -543.3602,158.55636 C -544.36804,156.9637 -545.57922,155.90482 -546.99374,155.37973 C -548.01529,155.00488 -549.65223,154.83486 -551.90455,154.86966 L -557.91946,154.96266 L -557.58126,176.83505 z M -532.31836,180.34831 L -528.6807,151.94752 L -508.14533,154.57775 L -508.57461,157.92928 L -525.35161,155.78043 L -526.46574,164.4789 L -510.75425,166.49127 L -511.18104,169.82343 L -526.89253,167.81105 L -528.13073,177.47817 L -510.69504,179.71139 L -511.12432,183.06292 L -532.31836,180.34831 z M -505.86168,184.11447 L -498.16482,156.53556 L -485.93679,159.94822 C -483.47867,160.63428 -481.67911,161.4035 -480.5381,162.25588 C -479.39714,163.10831 -478.61914,164.26835 -478.20409,165.736 C -477.7891,167.20368 -477.79335,168.69628 -478.21684,170.21379 C -478.7629,172.17029 -479.85652,173.64274 -481.49771,174.63116 C -483.13895,175.6196 -485.33344,175.9264 -488.08119,175.55157 C -487.24502,176.28513 -486.63909,176.94765 -486.26342,177.53915 C -485.47042,178.81491 -484.80209,180.31947 -484.25842,182.05285 L -481.55612,190.89779 L -486.14634,189.61673 L -488.19461,182.86041 C -488.79864,180.90741 -489.32303,179.39571 -489.76779,178.32528 C -490.21258,177.25487 -490.65875,176.46795 -491.10628,175.96452 C -491.55385,175.46111 -492.04056,175.06167 -492.56641,174.76619 C -492.9558,174.56291 -493.62079,174.33 -494.5614,174.06748 L -498.79418,172.88618 L -502.21209,185.13302 L -505.86168,184.11447 z M -497.91213,169.7257 L -490.06738,171.91505 C -488.39938,172.38059 -487.04693,172.57216 -486.01003,172.48977 C -484.97318,172.4074 -484.10431,172.05508 -483.4034,171.43281 C -482.70255,170.81056 -482.22785,170.05421 -481.97931,169.16374 C -481.61532,167.85943 -481.7895,166.655 -482.50185,165.55044 C -483.21426,164.44591 -484.59258,163.60837 -486.63683,163.03782 L -495.36577,160.60171 L -497.91213,169.7257 z M -481.08308,191.10808 L -459.42717,169.38772 L -455.69533,171.04193 L -456.5851,201.96725 L -460.5312,200.21807 L -460.07033,190.93671 L -471.01585,186.08491 L -477.40481,192.73853 L -481.08308,191.10808 z M -468.76539,183.70694 L -459.89112,187.64062 L -459.40961,179.18025 C -459.26673,176.60871 -459.08369,174.52495 -458.86049,172.92898 C -459.93781,174.45969 -461.14673,175.91779 -462.48724,177.3033 L -468.76539,183.70694 z M -454.07798,203.52807 L -438.96719,179.20726 L -429.84274,184.87638 C -427.9847,186.03084 -426.64726,187.20288 -425.83044,188.3925 C -425.01368,189.58216 -424.60512,190.88606 -424.60477,192.30421 C -424.60448,193.72239 -424.95134,194.99 -425.64535,196.10704 C -426.29132,197.14668 -427.18149,197.95026 -428.31586,198.51778 C -429.4503,199.0853 -430.76231,199.2972 -432.25191,199.15347 C -431.04896,200.49874 -430.37505,201.93685 -430.23017,203.46781 C -430.08535,204.99877 -430.45271,206.47208 -431.33226,207.88776 C -432.04007,209.02693 -432.93858,209.93646 -434.02781,210.61635 C -435.11708,211.29623 -436.18054,211.68172 -437.2182,211.77282 C -438.25589,211.8639 -439.39255,211.71337 -440.62817,211.32123 C -441.86383,210.92908 -443.25584,210.25199 -444.80422,209.28996 L -454.07798,203.52807 z M -442.09816,191.4263 L -436.83916,194.69378 C -435.41245,195.58023 -434.331,196.12185 -433.5948,196.31864 C -432.62521,196.58383 -431.75781,196.56323 -430.99258,196.25686 C -430.2274,195.95049 -429.58024,195.3715 -429.0511,194.51988 C -428.54949,193.71251 -428.30154,192.88166 -428.30723,192.02731 C -428.31298,191.17299 -428.60485,190.40913 -429.18285,189.73573 C -429.76091,189.06236 -430.92365,188.1828 -432.6711,187.09707 L -437.53194,184.07697 L -442.09816,191.4263 z M -449.07634,202.65767 L -443.02102,206.41991 C -441.9814,207.06584 -441.2274,207.48066 -440.759,207.66437 C -439.93554,207.99205 -439.17875,208.15566 -438.48863,208.15521 C -437.79854,208.15475 -437.10931,207.95831 -436.42092,207.56589 C -435.73256,207.17345 -435.14787,206.59014 -434.66683,205.81595 C -434.10338,204.90903 -433.84603,203.97671 -433.89479,203.01897 C -433.94359,202.06124 -434.29579,201.19092 -434.95138,200.40801 C -435.60701,199.6251 -436.70901,198.75263 -438.25738,197.7906 L -443.88136,194.29636 L -449.07634,202.65767 z M -433.88352,216.07177 L -407.1195,201.09047 L -403.98121,203.70085 L -413.2819,233.20787 L -416.60039,230.44761 L -413.62258,221.64485 L -422.82723,213.98856 L -430.79027,218.64468 L -433.88352,216.07177 z M -420.01295,212.3155 L -412.55012,218.52297 L -409.77664,210.51562 C -408.93699,208.08082 -408.19189,206.12625 -407.54136,204.65188 C -408.99573,205.83023 -410.55686,206.9028 -412.22477,207.8696 L -420.01295,212.3155 z M -411.14195,235.46369 L -389.87976,216.28669 L -383.27377,223.61098 C -381.78254,225.26439 -380.74601,226.61776 -380.16415,227.67111 C -379.34577,229.14231 -378.91591,230.63957 -378.87457,232.16289 C -378.81056,234.13913 -379.26508,236.0702 -380.23813,237.95609 C -381.21124,239.84197 -382.64534,241.63955 -384.54044,243.34883 C -386.15519,244.80519 -387.75626,245.90732 -389.34365,246.65522 C -390.93109,247.40309 -392.3993,247.85059 -393.74828,247.9977 C -395.09729,248.14478 -396.3224,248.0793 -397.42358,247.80127 C -398.5248,247.52321 -399.64321,246.99766 -400.7788,246.22462 C -401.91442,245.45155 -403.06215,244.42203 -404.222,243.13606 L -411.14195,235.46369 z M -406.09509,236.01434 L -402.00068,240.55394 C -400.73618,241.95594 -399.61366,242.93806 -398.63311,243.50031 C -397.6526,244.06253 -396.71179,244.36688 -395.81067,244.41335 C -394.54179,244.47877 -393.17625,244.18963 -391.71404,243.54592 C -390.25187,242.9022 -388.71825,241.85652 -387.11316,240.40888 C -384.88932,238.40309 -383.50953,236.49669 -382.97379,234.68967 C -382.43812,232.88264 -382.43814,231.27386 -382.97385,229.86333 C -383.36403,228.84753 -384.31346,227.50326 -385.82212,225.83051 L -389.85112,221.36342 L -406.09509,236.01434 z "
       transform="matrix(-0.9659258,0.258819,-0.258819,-0.9659258,-977.3271,870.84454)"
       style="font-size:12px;font-style:normal;font-weight:normal;line-height:125%;fill:#000000;fill-opacity:1;stroke:none;stroke-width:1px;stroke-linecap:butt;stroke-linejoin:miter;stroke-opacity:1;font-family:Bitstream Vera Sans"
       id="text3136" />
    <path
       d="M -288.57144 390.93362 A 272.85715 272.85715 0 1 1  -834.28574,390.93362 A 272.85715 272.85715 0 1 1  -288.57144 390.93362 z"
       transform="matrix(0.6488172,0,0,0.6422076,-181.1641,119.17653)"
       style="fill:#ffffff;fill-opacity:1;stroke:#000000;stroke-width:3.09835434;stroke-miterlimit:4;stroke-dasharray:none"
       id="path3143" />
    <path
       d="M -140,374.36218 L -187.46207,363.72145 L -223.13463,396.78719 L -227.68128,348.3599 L -270.15209,324.65116 L -225.5,305.36218 L -216.07585,257.64364 L -183.93269,294.14968 L -135.63743,288.36674 L -160.42395,330.21769 L -140,374.36218 z "
       transform="matrix(0.2399346,0,0,0.2399346,-320.71328,397.96423)"
       style="fill:#000000;fill-opacity:1;stroke:#ffffff;stroke-opacity:1"
       id="path3147" />
    <path
       d="M -140,374.36218 L -187.46207,363.72145 L -223.13463,396.78719 L -227.68128,348.3599 L -270.15209,324.65116 L -225.5,305.36218 L -216.07585,257.64364 L -183.93269,294.14968 L -135.63743,288.36674 L -160.42395,330.21769 L -140,374.36218 z "
       transform="matrix(0.2399346,0,0,0.2399346,-670.31853,407.85188)"
       style="fill:#000000;fill-opacity:1;stroke:#ffffff;stroke-opacity:1"
       id="path3149" />
    <path
       d="M -664.76271,499.45964 C -617.69198,454.22271 -604.43016,375.55322 -585,305.36218 L -507,304.36218 C -495.24583,391.18226 -465.15611,450.6765 -424.14407,497.59947 C -501.42515,565.46317 -603.68079,553.99221 -664.76271,499.45964 z "
       style="fill:#000000;fill-opacity:1;fill-rule:evenodd;stroke:#000000;stroke-width:1px;stroke-linecap:butt;stroke-linejoin:miter;stroke-opacity:1"
       id="path3151" />
    <path
       d="M -709,437.36218 L -383,437.36218"
       style="fill:none;fill-rule:evenodd;stroke:#000000;stroke-width:1px;stroke-linecap:butt;stroke-linejoin:miter;stroke-opacity:1"
       id="path3153" />
    <path
       d="M -516.20205,339.35148 L -520.51521,352.48626 L -523.16444,360.76403 L -536.98919,360.72083 L -545.68048,360.75925 L -549.91149,347.59779 L -552.63374,339.34376 C -541.87375,318.2809 -529.07313,318.23654 -516.20205,339.35148 z "
       style="fill:#ffffff;fill-opacity:1;stroke:#ffffff;stroke-width:0.34483844;stroke-opacity:1"
       id="path3155" />
    <path
       d="M -561.78415,412.56618 L -566.09731,425.70096 L -568.74654,433.97873 L -582.57129,433.93553 L -591.26258,433.97395 L -595.49359,420.81249 L -598.21584,412.55846 C -587.45585,391.4956 -574.65523,391.45124 -561.78415,412.56618 z "
       style="fill:#ffffff;fill-opacity:1;stroke:#ffffff;stroke-width:0.34483844;stroke-opacity:1"
       id="path3158" />
    <path
       d="M -579.46267,306.71226 L -579.46267,278.52757 C -572.35557,283.43667 -567.64713,280.01563 -560.53999,286.63932 C -569.49497,285.04841 -572.05695,291.83193 -579.93913,290.08134"
       style="fill:#000000;fill-opacity:1;fill-rule:evenodd;stroke:#000000;stroke-width:0.2998372px;stroke-linecap:butt;stroke-linejoin:miter;stroke-opacity:1"
       id="path3160" />
    <path
       d="M -554.46267,306.71226 L -554.46267,278.52757 C -547.35557,283.43667 -542.64713,280.01563 -535.53999,286.63932 C -544.49497,285.04841 -547.05695,291.83193 -554.93913,290.08134"
       style="fill:#000000;fill-opacity:1;fill-rule:evenodd;stroke:#000000;stroke-width:0.2998372px;stroke-linecap:butt;stroke-linejoin:miter;stroke-opacity:1"
       id="path3162" />
    <path
       d="M -528.46267,306.71226 L -528.46267,278.52757 C -521.35557,283.43667 -516.64713,280.01563 -509.53999,286.63932 C -518.49497,285.04841 -521.05695,291.83193 -528.93913,290.08134"
       style="fill:#000000;fill-opacity:1;fill-rule:evenodd;stroke:#000000;stroke-width:0.2998372px;stroke-linecap:butt;stroke-linejoin:miter;stroke-opacity:1"
       id="path3164" />
    <path
       d="M -568.48798,414.03565 L -571.32818,422.68486 L -573.07269,428.13574 L -582.17623,428.10729 L -587.89941,428.13259 L -590.68552,419.46582 L -592.47811,414.03058 C -585.3927,400.16076 -576.96354,400.13155 -568.48798,414.03565 z "
       style="fill:#ffffff;fill-opacity:1;stroke:#000000;stroke-width:2;stroke-miterlimit:4;stroke-dasharray:none;stroke-opacity:1"
       id="path3166" />
    <path
       d="M -522.90324,340.7583 L -525.74344,349.40751 L -527.48795,354.85839 L -536.59149,354.82994 L -542.31467,354.85524 L -545.10078,346.18847 L -546.89337,340.75323 C -539.80796,326.88341 -531.3788,326.8542 -522.90324,340.7583 z "
       style="fill:#ffffff;fill-opacity:1;stroke:#000000;stroke-width:2;stroke-miterlimit:4;stroke-dasharray:none;stroke-opacity:1"
       id="path3168" />
  </g>
</svg>
