<?xml version="1.0" encoding="UTF-8" standalone="no"?>
<!-- Created with Inkscape (http://www.inkscape.org/) -->

<svg
   xmlns:dc="http://purl.org/dc/elements/1.1/"
   xmlns:cc="http://creativecommons.org/ns#"
   xmlns:rdf="http://www.w3.org/1999/02/22-rdf-syntax-ns#"
   xmlns:svg="http://www.w3.org/2000/svg"
   xmlns="http://www.w3.org/2000/svg"
   xmlns:sodipodi="http://sodipodi.sourceforge.net/DTD/sodipodi-0.dtd"
   xmlns:inkscape="http://www.inkscape.org/namespaces/inkscape"
   width="135.46667mm"
   height="135.46419mm"
   viewBox="0 0 135.46667 135.46419"
   version="1.1"
   id="svg506"
   inkscape:version="0.92.1 r15371"
   sodipodi:docname="hmc logo.svg">
  <defs
     id="defs500">
    <clipPath
       clipPathUnits="userSpaceOnUse"
       id="clipPath272">
      <path
         d="M 0,0 H 792 V 612 H 0 Z"
         id="path270"
         inkscape:connector-curvature="0" />
    </clipPath>
    <clipPath
       clipPathUnits="userSpaceOnUse"
       id="clipPath232">
      <path
         d="M 0,0 H 792 V 612 H 0 Z"
         id="path230"
         inkscape:connector-curvature="0" />
    </clipPath>
    <clipPath
       clipPathUnits="userSpaceOnUse"
       id="clipPath204">
      <path
         d="M 0,0 H 792 V 612 H 0 Z"
         id="path202"
         inkscape:connector-curvature="0" />
    </clipPath>
    <clipPath
       clipPathUnits="userSpaceOnUse"
       id="clipPath184">
      <path
         d="M 0,0 H 792 V 612 H 0 Z"
         id="path182"
         inkscape:connector-curvature="0" />
    </clipPath>
  </defs>
  <sodipodi:namedview
     id="base"
     pagecolor="#ffffff"
     bordercolor="#666666"
     borderopacity="1.0"
     inkscape:pageopacity="0.0"
     inkscape:pageshadow="2"
     inkscape:zoom="0.98994949"
     inkscape:cx="353.90566"
     inkscape:cy="229.15899"
     inkscape:document-units="mm"
     inkscape:current-layer="layer1"
     showgrid="false"
     fit-margin-top="0"
     fit-margin-left="0"
     fit-margin-right="0"
     fit-margin-bottom="0"
     inkscape:window-width="1600"
     inkscape:window-height="838"
     inkscape:window-x="-8"
     inkscape:window-y="-8"
     inkscape:window-maximized="1" />
  <metadata
     id="metadata503">
    <rdf:RDF>
      <cc:Work
         rdf:about="">
        <dc:format>image/svg+xml</dc:format>
        <dc:type
           rdf:resource="http://purl.org/dc/dcmitype/StillImage" />
        <dc:title></dc:title>
      </cc:Work>
    </rdf:RDF>
  </metadata>
  <g
     inkscape:label="Layer 1"
     inkscape:groupmode="layer"
     id="layer1"
     transform="translate(-20.732884,-59.618559)">
    <g
       transform="matrix(1.2378168,0,0,-1.2378168,-87.821669,596.87982)"
       id="g178">
      <g
         id="g180"
         clip-path="url(#clipPath184)">
        <g
           id="g186"
           transform="translate(197.1384,329.2944)">
          <path
             d="m 0,0 c 0,-2.595 -2.099,-4.693 -4.688,-4.693 h -100.064 c -2.589,0 -4.688,2.098 -4.688,4.693 v 100.057 c 0,2.589 2.099,4.688 4.688,4.688 H -4.688 c 2.589,0 4.688,-2.099 4.688,-4.688 z"
             style="fill:#000000;fill-opacity:1;fill-rule:nonzero;stroke:none"
             id="path188"
             inkscape:connector-curvature="0" />
        </g>
      </g>
    </g>
    <g
       id="g190"
       transform="matrix(1.2378168,0,0,-1.2378168,35.995168,102.247)">
      <path
         d="m 0,0 v 23.999 h 4.122 v -9.772 h 4.387 v 9.772 h 4.122 V 0 H 8.509 V 10.637 H 4.122 V 0 Z"
         style="fill:#edaa00;fill-opacity:1;fill-rule:nonzero;stroke:none"
         id="path192"
         inkscape:connector-curvature="0" />
    </g>
    <g
       id="g194"
       transform="matrix(1.2378168,0,0,-1.2378168,58.704643,102.247)">
      <path
         d="M 0,0 H -3.989 L 0.433,23.999 H 5.55 L 9.972,0 H 5.983 L 5.252,5.318 H 0.731 Z M 1.33,8.908 H 4.654 L 3.024,19.212 H 2.959 Z"
         style="fill:#edaa00;fill-opacity:1;fill-rule:nonzero;stroke:none"
         id="path196"
         inkscape:connector-curvature="0" />
    </g>
    <g
       transform="matrix(1.2378168,0,0,-1.2378168,-87.821669,596.87982)"
       id="g198">
      <g
         id="g200"
         clip-path="url(#clipPath204)">
        <g
           id="g206"
           transform="translate(134.193,399.601)">
          <path
             d="m 0,0 h -4.122 v 23.999 h 5.784 c 4.622,0 6.981,-1.961 6.981,-7.08 0,-3.856 -1.496,-5.418 -2.89,-6.05 L 9.24,0 H 5.053 L 2.127,9.939 C 1.596,9.872 0.731,9.839 0,9.839 Z m 0,13.229 h 1.463 c 2.227,0 3.059,0.831 3.059,3.69 0,2.859 -0.832,3.69 -3.059,3.69 H 0 Z"
             style="fill:#edaa00;fill-opacity:1;fill-rule:nonzero;stroke:none"
             id="path208"
             inkscape:connector-curvature="0" />
        </g>
      </g>
    </g>
    <g
       id="g210"
       transform="matrix(1.2378168,0,0,-1.2378168,102.37693,72.540646)">
      <path
         d="M 0,0 H 4.057 L -0.965,-23.999 H -5.087 L -10.105,0 h 4.057 l 2.99,-16.653 h 0.068 z"
         style="fill:#edaa00;fill-opacity:1;fill-rule:nonzero;stroke:none"
         id="path212"
         inkscape:connector-curvature="0" />
    </g>
    <g
       id="g214"
       transform="matrix(1.2378168,0,0,-1.2378168,109.40673,102.247)">
      <path
         d="m 0,0 v 23.999 h 11.035 v -3.59 H 4.122 V 14.227 H 9.44 v -3.59 H 4.122 V 3.59 h 7.381 V 0 Z"
         style="fill:#edaa00;fill-opacity:1;fill-rule:nonzero;stroke:none"
         id="path216"
         inkscape:connector-curvature="0" />
    </g>
    <g
       id="g218"
       transform="matrix(1.2378168,0,0,-1.2378168,136.06375,102.247)">
      <path
         d="m 0,0 h -4.122 v 9.972 l -4.984,14.027 h 4.187 l 2.894,-9.141 h 0.065 l 2.758,9.141 h 4.19 L 0,9.972 Z"
         style="fill:#edaa00;fill-opacity:1;fill-rule:nonzero;stroke:none"
         id="path220"
         inkscape:connector-curvature="0" />
    </g>
    <g
       id="g222"
       transform="matrix(1.2378168,0,0,-1.2378168,63.888751,108.85138)">
      <path
         d="m 0,0 v -31.863 h -4.768 v 24.89 h -0.087 l -4.942,-24.89 h -2.65 l -4.942,24.89 h -0.088 v -24.89 h -4.767 V 0 h 7.195 l 3.882,-18.623 h 0.09 L -7.195,0 Z"
         style="fill:#ffffff;fill-opacity:1;fill-rule:nonzero;stroke:none"
         id="path224"
         inkscape:connector-curvature="0" />
    </g>
    <g
       transform="matrix(1.2378168,0,0,-1.2378168,-87.821669,596.87982)"
       id="g226">
      <g
         id="g228"
         clip-path="url(#clipPath232)">
        <g
           id="g234"
           transform="translate(126.7188,394.2655)">
          <path
             d="m 0,0 h 5.472 v -24.051 c 0,-2.339 0.927,-3.487 2.914,-3.487 1.984,0 2.911,1.148 2.911,3.487 V 0 h 5.474 v -23.831 c 0,-5.471 -3.18,-8.472 -8.385,-8.472 -5.208,0 -8.386,3.001 -8.386,8.472 z"
             style="fill:#ffffff;fill-opacity:1;fill-rule:nonzero;stroke:none"
             id="path236"
             inkscape:connector-curvature="0" />
        </g>
        <g
           id="g238"
           transform="translate(147.9077,394.2655)">
          <path
             d="m 0,0 h 8.122 c 5.649,0 8.65,-3.089 8.65,-9.62 v -12.622 c 0,-6.532 -3.001,-9.621 -8.65,-9.621 H 0 Z M 5.474,-27.361 H 7.37 c 2.913,0 3.928,1.104 3.928,4.457 v 13.945 c 0,3.355 -1.015,4.458 -3.928,4.458 H 5.474 Z"
             style="fill:#ffffff;fill-opacity:1;fill-rule:nonzero;stroke:none"
             id="path240"
             inkscape:connector-curvature="0" />
        </g>
        <g
           id="g242"
           transform="translate(169.0974,394.2655)">
          <path
             d="m 0,0 h 8.122 c 5.649,0 8.65,-3.089 8.65,-9.62 v -12.622 c 0,-6.532 -3.001,-9.621 -8.65,-9.621 H 0 Z M 5.474,-27.361 H 7.37 c 2.913,0 3.928,1.104 3.928,4.457 v 13.945 c 0,3.355 -1.015,4.458 -3.928,4.458 H 5.474 Z"
             style="fill:#ffffff;fill-opacity:1;fill-rule:nonzero;stroke:none"
             id="path244"
             inkscape:connector-curvature="0" />
        </g>
        <g
           id="g246"
           transform="translate(107.0239,349.6584)">
          <path
             d="m 0,0 v 1.633 c 0,1.78 -0.817,2.538 -1.749,2.538 -1.459,0 -1.926,-0.758 -1.926,-2.334 V -8.84 c 0,-1.574 0.467,-2.334 1.926,-2.334 1.312,0 1.749,0.76 1.749,2.129 v 2.54 h 3.618 v -2.422 c 0,-2.976 -1.751,-5.398 -5.367,-5.398 -3.793,0 -5.543,2.422 -5.543,5.398 V 1.926 c 0,2.975 1.75,5.396 5.543,5.396 3.616,0 5.367,-2.625 5.367,-5.776 L 3.618,0 Z"
             style="fill:#edaa00;fill-opacity:1;fill-rule:nonzero;stroke:none"
             id="path248"
             inkscape:connector-curvature="0" />
        </g>
        <g
           id="g250"
           transform="translate(113.7327,351.5844)">
          <path
             d="m 0,0 c 0,2.974 1.749,5.396 5.542,5.396 3.794,0 5.543,-2.422 5.543,-5.396 v -10.853 c 0,-2.976 -1.749,-5.398 -5.543,-5.398 -3.793,0 -5.542,2.422 -5.542,5.398 z m 3.616,-10.766 c 0,-1.574 0.468,-2.334 1.926,-2.334 1.459,0 1.926,0.76 1.926,2.334 v 10.677 c 0,1.576 -0.467,2.334 -1.926,2.334 -1.458,0 -1.926,-0.758 -1.926,-2.334 z"
             style="fill:#edaa00;fill-opacity:1;fill-rule:nonzero;stroke:none"
             id="path252"
             inkscape:connector-curvature="0" />
        </g>
      </g>
    </g>
    <g
       id="g254"
       transform="matrix(1.2378168,0,0,-1.2378168,70.069909,181.43707)">
      <path
         d="M 0,0 V 21.062 H 3.618 V 3.151 H 9.307 V 0 Z"
         style="fill:#edaa00;fill-opacity:1;fill-rule:nonzero;stroke:none"
         id="path256"
         inkscape:connector-curvature="0" />
    </g>
    <g
       id="g258"
       transform="matrix(1.2378168,0,0,-1.2378168,83.392534,181.43707)">
      <path
         d="M 0,0 V 21.062 H 3.62 V 3.151 H 9.307 V 0 Z"
         style="fill:#edaa00;fill-opacity:1;fill-rule:nonzero;stroke:none"
         id="path260"
         inkscape:connector-curvature="0" />
    </g>
    <g
       id="g262"
       transform="matrix(1.2378168,0,0,-1.2378168,96.934987,181.43707)">
      <path
         d="M 0,0 V 21.062 H 9.683 V 17.913 H 3.616 V 12.487 H 8.285 V 9.336 H 3.616 V 3.151 h 6.477 V 0 Z"
         style="fill:#edaa00;fill-opacity:1;fill-rule:nonzero;stroke:none"
         id="path264"
         inkscape:connector-curvature="0" />
    </g>
    <g
       transform="matrix(1.2378168,0,0,-1.2378168,-87.821669,596.87982)"
       id="g266">
      <g
         id="g268"
         clip-path="url(#clipPath272)">
        <g
           id="g274"
           transform="translate(166.6129,346.304)">
          <path
             d="M 0,0 H 5.923 V -10.679 H 4.171 l -0.668,1.575 c -1.079,-1.282 -1.957,-1.867 -3.647,-1.867 -2.861,0 -4.844,2.044 -4.844,5.398 V 5.28 c 0,2.975 1.752,5.397 5.311,5.397 3.616,0 5.425,-2.625 5.425,-5.776 V 3.558 H 2.306 c 0,3.151 -0.642,3.968 -2.07,3.968 -0.878,0 -1.607,-0.525 -1.607,-2.305 V -5.601 c 0,-1.343 0.44,-2.219 1.694,-2.219 1.459,0 1.983,0.817 1.983,2.918 V -2.86 H 0 Z"
             style="fill:#edaa00;fill-opacity:1;fill-rule:nonzero;stroke:none"
             id="path276"
             inkscape:connector-curvature="0" />
        </g>
      </g>
    </g>
    <g
       id="g278"
       transform="matrix(1.2378168,0,0,-1.2378168,129.57311,181.43707)">
      <path
         d="M 0,0 V 21.062 H 9.683 V 17.913 H 3.616 V 12.487 H 8.285 V 9.336 H 3.616 V 3.151 h 6.478 V 0 Z"
         style="fill:#edaa00;fill-opacity:1;fill-rule:nonzero;stroke:none"
         id="path280"
         inkscape:connector-curvature="0" />
    </g>
  </g>
</svg>
