<?xml version="1.0" encoding="UTF-8" standalone="no"?>
<!-- Created with Inkscape (http://www.inkscape.org/) -->

<svg
   xmlns:dc="http://purl.org/dc/elements/1.1/"
   xmlns:cc="http://creativecommons.org/ns#"
   xmlns:rdf="http://www.w3.org/1999/02/22-rdf-syntax-ns#"
   xmlns:svg="http://www.w3.org/2000/svg"
   xmlns="http://www.w3.org/2000/svg"
   xmlns:sodipodi="http://sodipodi.sourceforge.net/DTD/sodipodi-0.dtd"
   xmlns:inkscape="http://www.inkscape.org/namespaces/inkscape"
   width="374.05679"
   height="123.898"
   viewBox="0 0 98.969191 32.781348"
   version="1.1"
   id="svg5762"
   inkscape:version="0.92.0 r15299"
   sodipodi:docname="xoom.svg">
  <defs
     id="defs5756" />
  <sodipodi:namedview
     id="base"
     pagecolor="#ffffff"
     bordercolor="#666666"
     borderopacity="1.0"
     inkscape:pageopacity="0.0"
     inkscape:pageshadow="2"
     inkscape:zoom="2.1555849"
     inkscape:cx="186.02839"
     inkscape:cy="60.948999"
     inkscape:document-units="mm"
     inkscape:current-layer="layer1"
     showgrid="false"
     fit-margin-top="0"
     fit-margin-left="0"
     fit-margin-right="0"
     fit-margin-bottom="0"
     units="px"
     inkscape:window-width="1280"
     inkscape:window-height="744"
     inkscape:window-x="-4"
     inkscape:window-y="-4"
     inkscape:window-maximized="1" />
  <metadata
     id="metadata5759">
    <rdf:RDF>
      <cc:Work
         rdf:about="">
        <dc:format>image/svg+xml</dc:format>
        <dc:type
           rdf:resource="http://purl.org/dc/dcmitype/StillImage" />
        <dc:title></dc:title>
      </cc:Work>
    </rdf:RDF>
  </metadata>
  <g
     inkscape:label="Layer 1"
     inkscape:groupmode="layer"
     id="layer1"
     transform="translate(-12.012131,-316.63045)">
    <g
       id="g5793"
       transform="matrix(0.26458333,0,0,0.26458333,12.277189,316.89504)">
      <path
         id="path5764"
         d="m 136.16,111.286 -2.137,4.12 h -2.633 l 9.597,-17.995 h 2.373 l 3.886,17.997 h -2.504 l -0.86,-4.12 h -7.72 z m 5.53,-10.614 -4.432,8.503 h 6.18 l -1.747,-8.503 z m 159.192,13.166 c 0.94,0 1.722,-0.178 2.347,-0.535 0.625,-0.356 1.086,-0.813 1.382,-1.37 0.295,-0.557 0.444,-1.13 0.444,-1.72 0,-0.523 -0.144,-0.97 -0.432,-1.344 -0.286,-0.374 -0.78,-0.736 -1.473,-1.083 l -2.268,-0.965 c -1.287,-0.574 -2.213,-1.2 -2.778,-1.878 -0.564,-0.677 -0.847,-1.504 -0.847,-2.477 0,-1.06 0.27,-1.995 0.808,-2.804 0.538,-0.808 1.292,-1.43 2.257,-1.864 0.965,-0.436 2.074,-0.653 3.325,-0.653 1.043,0.017 1.956,0.16 2.738,0.43 0.782,0.27 1.47,0.674 2.06,1.212 l -0.39,2.425 c -1.34,-1.217 -2.896,-1.835 -4.67,-1.852 -1.077,0 -1.96,0.27 -2.645,0.808 -0.69,0.54 -1.03,1.227 -1.03,2.062 0,0.47 0.168,0.87 0.507,1.2 0.34,0.33 0.96,0.704 1.864,1.12 l 2.22,0.993 c 1.198,0.59 2.046,1.23 2.542,1.916 0.496,0.686 0.742,1.51 0.742,2.465 0,1.095 -0.234,2.105 -0.703,3.026 -0.47,0.922 -1.225,1.674 -2.268,2.256 -1.044,0.583 -2.382,0.874 -4.016,0.874 -2.245,0 -4.01,-0.566 -5.296,-1.695 l 0.418,-2.582 c 1.547,1.356 3.268,2.035 5.164,2.035 m 19.418,-10.054 c 0.86,0.948 1.29,2.178 1.29,3.69 0,0.504 -0.025,0.922 -0.08,1.252 -0.05,0.33 -0.138,0.722 -0.258,1.172 h -9.807 c -0.052,1.305 0.286,2.31 1.016,3.014 0.73,0.704 1.722,1.056 2.975,1.056 0.87,0 1.66,-0.108 2.374,-0.326 0.71,-0.217 1.415,-0.544 2.11,-0.98 l -0.312,1.958 c -1.338,0.904 -2.92,1.356 -4.746,1.356 -1.2,0 -2.24,-0.257 -3.117,-0.77 -0.877,-0.51 -1.548,-1.22 -2.008,-2.125 -0.462,-0.903 -0.692,-1.92 -0.692,-3.05 0,-1.114 0.277,-2.265 0.834,-3.456 0.556,-1.19 1.4,-2.19 2.53,-3 1.13,-0.807 2.52,-1.212 4.172,-1.212 1.62,0 2.857,0.474 3.718,1.422 m -6.86,1.617 c -0.825,0.722 -1.387,1.596 -1.682,2.622 h 7.564 c 0.017,-0.14 0.025,-0.33 0.025,-0.574 0,-0.974 -0.26,-1.74 -0.783,-2.296 -0.522,-0.555 -1.26,-0.833 -2.217,-0.833 -1.112,0 -2.082,0.36 -2.907,1.08 m 16.194,-0.665 c -1.026,0 -1.896,0.37 -2.607,1.108 -0.713,0.74 -1.184,1.813 -1.41,3.22 l -1.016,6.443 h -2.322 l 2.008,-12.728 h 2.244 l -0.34,2.164 c 1.044,-1.495 2.296,-2.243 3.756,-2.243 0.365,0 0.705,0.028 1.018,0.08 l -0.313,2.034 c -0.313,-0.052 -0.652,-0.078 -1.018,-0.078 m 6.975,10.771 h -2.163 l -3.025,-12.727 h 2.32 l 2.165,9.935 5.294,-9.935 h 2.426 m 1.416,12.727 h -2.322 l 1.957,-12.727 h 2.348 l -1.982,12.727 z m 0.274,-15.18 c -0.235,-0.24 -0.352,-0.546 -0.352,-0.912 0,-0.452 0.172,-0.843 0.52,-1.173 0.348,-0.33 0.748,-0.496 1.2,-0.496 0.366,0 0.666,0.122 0.9,0.365 0.236,0.244 0.353,0.55 0.353,0.914 0,0.435 -0.175,0.82 -0.522,1.16 -0.347,0.34 -0.748,0.508 -1.2,0.508 -0.364,0 -0.665,-0.12 -0.9,-0.364 m 5.161,14.865 c -0.852,-0.52 -1.52,-1.23 -2.008,-2.126 -0.49,-0.896 -0.73,-1.882 -0.73,-2.96 0,-1.356 0.31,-2.626 0.925,-3.808 0.618,-1.182 1.512,-2.133 2.687,-2.855 1.172,-0.72 2.552,-1.083 4.133,-1.083 1.53,0 2.773,0.383 3.73,1.148 l -0.39,2.373 c -0.888,-0.94 -2.045,-1.408 -3.47,-1.408 -1.01,0 -1.91,0.257 -2.7,0.77 -0.79,0.512 -1.403,1.187 -1.838,2.02 -0.435,0.835 -0.652,1.73 -0.652,2.687 0,1.165 0.33,2.108 0.99,2.83 0.66,0.72 1.566,1.08 2.713,1.08 0.713,0 1.426,-0.13 2.14,-0.39 0.712,-0.26 1.346,-0.643 1.902,-1.148 l -0.364,2.4 c -0.68,0.452 -1.357,0.773 -2.035,0.965 -0.677,0.19 -1.398,0.286 -2.163,0.286 -1.062,0 -2.018,-0.26 -2.87,-0.782 m 20.286,-11.409 c 0.86,0.948 1.292,2.178 1.292,3.69 0,0.504 -0.027,0.922 -0.08,1.252 -0.052,0.33 -0.14,0.722 -0.26,1.172 h -9.806 c -0.053,1.305 0.285,2.31 1.015,3.014 0.73,0.704 1.722,1.056 2.974,1.056 0.87,0 1.66,-0.108 2.373,-0.326 0.712,-0.217 1.416,-0.544 2.112,-0.98 l -0.313,1.958 c -1.34,0.904 -2.92,1.356 -4.746,1.356 -1.2,0 -2.24,-0.257 -3.117,-0.77 -0.878,-0.51 -1.55,-1.22 -2.01,-2.125 -0.46,-0.903 -0.69,-1.92 -0.69,-3.05 0,-1.114 0.276,-2.265 0.833,-3.456 0.557,-1.19 1.4,-2.19 2.53,-3 1.13,-0.807 2.52,-1.212 4.173,-1.212 1.618,0 2.857,0.474 3.717,1.422 m -6.86,1.617 c -0.825,0.722 -1.386,1.596 -1.682,2.622 h 7.566 c 0.017,-0.14 0.025,-0.33 0.025,-0.574 0,-0.974 -0.26,-1.74 -0.78,-2.296 -0.523,-0.555 -1.262,-0.833 -2.22,-0.833 -1.11,0 -2.08,0.36 -2.906,1.08"
         inkscape:connector-curvature="0"
         style="fill:#737373" />
      <path
         id="path5766"
         d="m 244.712,88.086 h -9.87 c -0.675,0 -1.25,0.49 -1.355,1.16 l -3.99,25.307 c -0.08,0.5 0.305,0.95 0.812,0.95 h 5.063 c 0.472,0 0.874,-0.343 0.947,-0.81 l 1.133,-7.174 c 0.104,-0.668 0.678,-1.16 1.354,-1.16 h 3.123 c 6.5,0 10.254,-3.145 11.235,-9.382 0.44,-2.727 0.017,-4.87 -1.26,-6.37 -1.404,-1.65 -3.892,-2.522 -7.193,-2.522 m 1.14,9.244 c -0.54,3.544 -3.246,3.544 -5.864,3.544 h -1.49 l 1.046,-6.615 c 0.062,-0.402 0.408,-0.696 0.813,-0.696 h 0.682 c 1.78,0 3.462,0 4.33,1.015 0.52,0.606 0.676,1.507 0.48,2.75"
         inkscape:connector-curvature="0"
         style="fill:#009cde" />
      <path
         id="path5768"
         d="m 174.315,88.086 h -9.872 c -0.673,0 -1.25,0.49 -1.354,1.16 l -3.992,25.307 c -0.078,0.5 0.307,0.95 0.813,0.95 h 4.713 c 0.676,0 1.25,-0.49 1.355,-1.157 l 1.077,-6.827 c 0.105,-0.668 0.68,-1.16 1.354,-1.16 h 3.122 c 6.5,0 10.255,-3.145 11.235,-9.382 0.44,-2.727 0.017,-4.87 -1.26,-6.37 -1.403,-1.65 -3.89,-2.522 -7.192,-2.522 m 1.138,9.244 c -0.54,3.544 -3.245,3.544 -5.863,3.544 h -1.49 l 1.046,-6.615 c 0.063,-0.402 0.408,-0.696 0.813,-0.696 h 0.68 c 1.782,0 3.465,0 4.333,1.015 0.52,0.606 0.676,1.507 0.48,2.75 m 28.364,-0.11 h -4.726 c -0.406,0 -0.75,0.294 -0.814,0.695 l -0.208,1.32 -0.33,-0.477 c -1.024,-1.486 -3.304,-1.983 -5.583,-1.983 -5.222,0 -9.682,3.956 -10.55,9.506 -0.452,2.77 0.19,5.414 1.76,7.26 1.442,1.698 3.5,2.405 5.952,2.405 4.21,0 6.543,-2.704 6.543,-2.704 l -0.21,1.313 c -0.08,0.5 0.307,0.95 0.812,0.95 h 4.257 c 0.673,0 1.247,-0.49 1.353,-1.157 l 2.555,-16.178 c 0.08,-0.5 -0.308,-0.95 -0.813,-0.95 m -6.587,9.198 c -0.456,2.7 -2.6,4.513 -5.334,4.513 -1.372,0 -2.468,-0.442 -3.175,-1.277 -0.7,-0.827 -0.962,-2.006 -0.74,-3.32 0.425,-2.676 2.603,-4.548 5.296,-4.548 1.342,0 2.432,0.446 3.152,1.29 0.724,0.847 1.008,2.035 0.8,3.34"
         inkscape:connector-curvature="0"
         style="fill:#003087" />
      <path
         id="path5770"
         d="m 274.213,97.217 h -4.726 c -0.405,0 -0.75,0.294 -0.814,0.695 l -0.208,1.32 -0.33,-0.477 c -1.024,-1.486 -3.304,-1.983 -5.582,-1.983 -5.222,0 -9.682,3.956 -10.55,9.506 -0.452,2.77 0.19,5.414 1.76,7.26 1.44,1.698 3.5,2.405 5.95,2.405 4.21,0 6.544,-2.704 6.544,-2.704 l -0.21,1.313 c -0.08,0.5 0.307,0.95 0.812,0.95 h 4.256 c 0.674,0 1.248,-0.49 1.354,-1.157 l 2.554,-16.178 c 0.08,-0.5 -0.306,-0.95 -0.81,-0.95 m -6.588,9.198 c -0.457,2.7 -2.6,4.513 -5.335,4.513 -1.37,0 -2.466,-0.442 -3.173,-1.277 -0.7,-0.827 -0.962,-2.006 -0.74,-3.32 0.425,-2.676 2.604,-4.548 5.297,-4.548 1.342,0 2.43,0.446 3.15,1.29 0.725,0.847 1.01,2.035 0.802,3.34"
         inkscape:connector-curvature="0"
         style="fill:#009cde" />
      <path
         id="path5772"
         d="m 228.987,97.217 h -4.75 c -0.454,0 -0.88,0.225 -1.135,0.602 l -6.552,9.65 -2.778,-9.274 c -0.173,-0.582 -0.708,-0.98 -1.313,-0.98 h -4.67 c -0.565,0 -0.963,0.556 -0.78,1.09 l 5.23,15.353 -4.92,6.94 c -0.386,0.545 0.005,1.3 0.672,1.3 h 4.745 c 0.45,0 0.87,-0.222 1.128,-0.59 l 15.798,-22.802 c 0.378,-0.545 -0.013,-1.29 -0.676,-1.29"
         inkscape:connector-curvature="0"
         style="fill:#003087" />
      <path
         id="path5774"
         d="m 279.783,88.782 -4.05,25.772 c -0.08,0.5 0.306,0.95 0.81,0.95 h 4.077 c 0.674,0 1.248,-0.49 1.354,-1.158 l 3.994,-25.308 c 0.078,-0.5 -0.308,-0.95 -0.813,-0.95 h -4.56 c -0.404,0 -0.75,0.293 -0.812,0.694"
         inkscape:connector-curvature="0"
         style="fill:#009cde" />
      <path
         id="path5776"
         d="M 125.645,0 C 103.015,0 85.292,17.16 85.292,39.067 v 0.218 c 0,22.154 17.258,38.853 40.14,38.853 22.63,0 40.354,-17.16 40.354,-39.07 V 38.854 C 165.786,16.7 148.532,0 125.646,0 m -22.572,38.854 c 0,-13.2 9.613,-23.158 22.36,-23.158 12.867,0 22.574,10.05 22.574,23.37 v 0.22 c 0,13.195 -9.62,23.15 -22.363,23.15 -12.87,0 -22.57,-10.044 -22.57,-23.37 V 38.854 Z M 212.426,0 c -22.632,0 -40.357,17.16 -40.357,39.067 v 0.218 c 0,22.154 17.256,38.853 40.138,38.853 22.643,0 40.363,-17.16 40.363,-39.07 V 38.854 C 252.57,16.7 235.31,0 212.427,0 m -22.57,38.854 c 0,-13.2 9.6,-23.158 22.352,-23.158 12.87,0 22.57,10.05 22.57,23.37 v 0.22 c 0,13.195 -9.61,23.15 -22.352,23.15 -12.868,0 -22.57,-10.044 -22.57,-23.37 z M 346.045,0.836 c -9.463,0 -17.215,3.695 -23.652,11.29 C 317.99,4.834 310.563,0.837 301.26,0.837 c -9.768,0 -15.856,4.61 -20.097,9.524 V 3.65 c 0,-0.747 -0.596,-1.347 -1.348,-1.347 H 263.7 c -0.762,0 -1.357,0.6 -1.357,1.346 v 70.366 c 0,0.746 0.594,1.345 1.356,1.345 h 16.115 c 0.752,0 1.348,-0.598 1.348,-1.344 V 34.354 c 0,-9.837 5.396,-16.185 13.71,-16.185 8.32,0 12.905,5.556 12.905,15.65 v 40.196 c 0,0.746 0.61,1.345 1.35,1.345 h 16.127 c 0.746,0 1.358,-0.598 1.358,-1.344 V 34.222 c 0,-10.05 5.12,-16.053 13.7,-16.053 10.664,0 12.9,8.59 12.9,15.78 v 40.066 c 0,0.746 0.604,1.345 1.35,1.345 h 16.127 c 0.75,0 1.363,-0.598 1.363,-1.344 v -44.98 c 0,-17.658 -9.722,-28.2 -26.008,-28.2 M 59.526,32.266 c 0.15,0.18 0.385,0.284 0.627,0.284 0.242,0 0.468,-0.103 0.626,-0.284 L 85.74,3.68 C 85.948,3.427 85.99,3.08 85.868,2.795 85.736,2.495 85.443,2.31 85.112,2.31 h -21.58 c -0.233,0 -0.457,0.107 -0.622,0.285 L 48.74,18.837 c -0.268,0.308 -0.268,0.76 0,1.076 l 10.784,12.353 z m -3.086,3.4 -28.848,-33.05 c -0.168,-0.177 -0.382,-0.3 -0.62,-0.3 H 5.668 c -0.31,0 -0.62,0.187 -0.75,0.478 -0.13,0.296 -0.086,0.64 0.13,0.89 l 28.207,32.31 -33.06,38.01 c -0.208,0.244 -0.253,0.59 -0.126,0.885 0.14,0.287 0.432,0.478 0.757,0.478 h 21.516 c 0.234,0 0.467,-0.122 0.624,-0.3 l 22.727,-26.03 c 0.052,-0.038 0.077,-0.065 0.102,-0.09 L 56.44,36.752 c 0.26,-0.307 0.26,-0.774 0,-1.086 M 89.888,73.99 60.675,40.52 c -0.156,-0.18 -0.384,-0.287 -0.622,-0.287 -0.23,0 -0.466,0.107 -0.62,0.288 L 48.764,52.74 c -0.274,0.31 -0.274,0.772 -0.017,1.08 l 18.57,21.27 c 0.157,0.184 0.388,0.278 0.62,0.278 H 89.26 c 0.328,0 0.622,-0.203 0.75,-0.497 0.14,-0.288 0.095,-0.643 -0.122,-0.88"
         inkscape:connector-curvature="0"
         style="fill:#54b948" />
    </g>
  </g>
</svg>
