<?xml version="1.0" encoding="UTF-8" standalone="no"?>
<svg xmlns:rdf="http://www.w3.org/1999/02/22-rdf-syntax-ns#" xmlns="http://www.w3.org/2000/svg" xml:space="preserve" height="210.59" viewBox="0 0 176.23812 210.59375" width="176.24" version="1.1" xmlns:cc="http://creativecommons.org/ns#" xmlns:dc="http://purl.org/dc/elements/1.1/"><g transform="matrix(1.25 0 0 -1.25 -296.33 779.2)"><g transform="matrix(.75 0 0 .75 77.303 135.19)"><path d="m255.41 447.76 51.352-20.694 51.26 20.659c25.31 9.931 41.668 33.921 41.668 61.11v107.92c-24.481 20.358-57.287 32.814-93.348 32.814-35.647 0-68.117-12.169-92.506-32.117v-108.61c0-27.189 16.34-51.173 41.574-61.075" fill="#fff"/><path d="m255.41 447.76 51.352-20.694 51.26 20.659c25.31 9.931 41.668 33.921 41.668 61.11v107.92c-24.481 20.358-57.287 32.814-93.348 32.814-35.647 0-68.117-12.169-92.506-32.117v-108.61c0-27.189 16.34-51.173 41.574-61.075" fill="#fff"/><path d="m257.67 453.38 49.089-19.784 49.051 19.765c22.976 9.018 37.826 30.795 37.826 55.479v104.91c-23.212 18.5-53.763 29.744-87.241 29.744-33.127 0-63.394-11.007-86.511-29.164v-105.49c0-24.684 14.848-46.461 37.786-55.46" fill="#a50000"/><path d="m306.4 633.86c27.992 0 54.771-8.589 77.607-24.864v-100.16c0-20.695-12.448-38.951-31.753-46.527l-45.49-18.333-45.531 18.347c-19.264 7.562-31.711 25.818-31.711 46.513v100.68c22.673 15.937 49.201 24.344 76.878 24.344" fill="#fff"/><path d="m55.965 53.062v21.844l9.8457 8.4688v102.52l-9.8457 8.4726v21.959h97.924l21.531-21.539v-49.762l-10.359-10.34 10.359-10.357v-49.746l-21.541-21.523h-97.914zm49.02 34.752h30.869v29.561h-30.869v-29.561zm0 64.289h30.869v29.457h-30.869v-29.457z" transform="matrix(.8 0 0 -.8 213.84 649.57)" fill="#a50000"/><path d="m70.123 65.855 10.254 9.166v119.35l-10.254 9.2461h78.264l12.287-12.223v-47.379l-9.3359-9.3262 9.3359-9.3379v-47.437l-12.203-12.059h-78.348zm20.293 9.166h60.219v55.121h-60.219v-55.121zm0 64.289h60.219v55.049h-60.219v-55.049z" transform="matrix(.8 0 0 -.8 213.84 649.57)" fill="#fff"/></g></g></svg>
