<?xml version="1.0" encoding="UTF-8" standalone="no"?>
<!-- Created with Inkscape (http://www.inkscape.org/) -->

<svg
   xmlns:sketch="http://www.bohemiancoding.com/sketch/ns"
   xmlns:dc="http://purl.org/dc/elements/1.1/"
   xmlns:cc="http://creativecommons.org/ns#"
   xmlns:rdf="http://www.w3.org/1999/02/22-rdf-syntax-ns#"
   xmlns:svg="http://www.w3.org/2000/svg"
   xmlns="http://www.w3.org/2000/svg"
   xmlns:sodipodi="http://sodipodi.sourceforge.net/DTD/sodipodi-0.dtd"
   xmlns:inkscape="http://www.inkscape.org/namespaces/inkscape"
   width="201.99902"
   height="70.941002"
   viewBox="0 0 53.445575 18.769807"
   version="1.1"
   id="svg91"
   inkscape:version="0.92.0 r15299"
   sodipodi:docname="aia.svg">
  <defs
     id="defs85" />
  <sodipodi:namedview
     id="base"
     pagecolor="#ffffff"
     bordercolor="#666666"
     borderopacity="1.0"
     inkscape:pageopacity="0.0"
     inkscape:pageshadow="2"
     inkscape:zoom="4.0100201"
     inkscape:cx="119.82429"
     inkscape:cy="34.470501"
     inkscape:document-units="mm"
     inkscape:current-layer="layer1"
     showgrid="false"
     fit-margin-top="0"
     fit-margin-left="0"
     fit-margin-right="0"
     fit-margin-bottom="0"
     units="px"
     inkscape:window-width="1280"
     inkscape:window-height="744"
     inkscape:window-x="-4"
     inkscape:window-y="-4"
     inkscape:window-maximized="1" />
  <metadata
     id="metadata88">
    <rdf:RDF>
      <cc:Work
         rdf:about="">
        <dc:format>image/svg+xml</dc:format>
        <dc:type
           rdf:resource="http://purl.org/dc/dcmitype/StillImage" />
        <dc:title></dc:title>
      </cc:Work>
    </rdf:RDF>
  </metadata>
  <g
     inkscape:label="Layer 1"
     inkscape:groupmode="layer"
     id="layer1"
     transform="translate(102.05344,-255.60054)">
    <g
       id="g722"
       transform="translate(0.26458248,-0.26457512)">
      <g
         id="g643">
        <path
           style="fill:#000000;fill-rule:evenodd;stroke:none;stroke-width:0.26458332"
           inkscape:connector-curvature="0"
           d="m -78.826459,257.84473 v 2.86147 h -0.873125 v -2.86147 h -1.029493 v -0.67125 h 2.932377 v 0.67125 h -1.029759"
           id="Fill-22"
           sketch:type="MSShapeGroup" />
        <path
           style="fill:#000000;fill-rule:evenodd;stroke:none;stroke-width:0.26458332"
           inkscape:connector-curvature="0"
           d="m -76.665871,258.87422 v 1.83198 h -0.756973 v -3.53272 h 0.756973 v 1.19115 c 0.19685,-0.16668 0.443971,-0.27252 0.716492,-0.27252 0.514879,0 0.883179,0.3683 0.883179,0.94351 v 1.67058 h -0.756973 v -1.54411 c 0,-0.2675 -0.126206,-0.46937 -0.418836,-0.46937 -0.13626,0 -0.297656,0.0653 -0.423862,0.1815"
           id="Fill-24"
           sketch:type="MSShapeGroup" />
        <path
           style="fill:#000000;fill-rule:evenodd;stroke:none;stroke-width:0.26458332"
           inkscape:connector-curvature="0"
           d="m -73.415465,260.75673 c -0.741892,0 -1.261533,-0.51461 -1.261533,-1.30704 0,-0.82762 0.519641,-1.35758 1.246452,-1.35758 0.645848,0 1.1557,0.46937 1.1557,1.25148 v 0.14658 h -1.685661 c 0.02037,0.42889 0.19685,0.72655 0.555096,0.72655 0.206904,0 0.3937,-0.12118 0.449263,-0.31274 h 0.660929 c -0.115888,0.56488 -0.564886,0.85275 -1.120246,0.85275 m -0.540015,-1.49886 h 0.979223 c -0.02037,-0.39873 -0.206904,-0.61569 -0.479689,-0.61569 -0.227013,0 -0.454025,0.18177 -0.499534,0.61569"
           id="Fill-25"
           sketch:type="MSShapeGroup" />
        <path
           style="fill:#000000;fill-rule:evenodd;stroke:none;stroke-width:0.26458332"
           inkscape:connector-curvature="0"
           d="m -68.847698,259.89869 h -1.110192 l -0.247121,0.80751 H -71.053 l 1.216289,-3.53272 h 0.918369 l 1.216289,3.53272 h -0.89826 z m -0.555096,-1.7915 -0.474398,1.53432 h 0.948796 z"
           id="Fill-26"
           sketch:type="MSShapeGroup" />
        <path
           style="fill:#000000;fill-rule:evenodd;stroke:none;stroke-width:0.26458332"
           inkscape:connector-curvature="0"
           d="m -66.55085,258.834 v 1.8722 h -0.756973 v -2.54847 h 0.681302 l 0.01508,0.22198 c 0.19685,-0.17647 0.443971,-0.2876 0.72681,-0.2876 0.297657,0 0.545042,0.13124 0.696384,0.35825 0.211931,-0.22199 0.499533,-0.35825 0.827616,-0.35825 0.499534,0 0.85778,0.3683 0.85778,0.94351 v 1.67058 h -0.756973 v -1.54438 c 0,-0.26723 -0.125942,-0.46937 -0.418836,-0.46937 -0.115887,0 -0.247121,0.0558 -0.363273,0.15161 0.01005,0.0606 0.01508,0.1262 0.01508,0.19156 v 1.67058 h -0.756973 v -1.54438 c 0,-0.26723 -0.125942,-0.46937 -0.418836,-0.46937 -0.111125,0 -0.237331,0.0508 -0.348191,0.14155"
           id="Fill-27"
           sketch:type="MSShapeGroup" />
        <path
           style="fill:#000000;fill-rule:evenodd;stroke:none;stroke-width:0.26458332"
           inkscape:connector-curvature="0"
           d="m -61.801051,260.75673 c -0.741891,0 -1.261797,-0.51461 -1.261797,-1.30704 0,-0.82762 0.519906,-1.35758 1.246452,-1.35758 0.646112,0 1.155964,0.46937 1.155964,1.25148 v 0.14658 h -1.68566 c 0.02011,0.42889 0.19685,0.72655 0.555096,0.72655 0.206904,0 0.393435,-0.12118 0.448998,-0.31274 h 0.661193 c -0.116152,0.56488 -0.56515,0.85275 -1.120246,0.85275 m -0.540279,-1.49886 h 0.979223 c -0.02011,-0.39873 -0.206904,-0.61569 -0.479425,-0.61569 -0.227277,0 -0.454289,0.18177 -0.499798,0.61569"
           id="Fill-28"
           sketch:type="MSShapeGroup" />
        <path
           style="fill:#000000;fill-rule:evenodd;stroke:none;stroke-width:0.26458332"
           inkscape:connector-curvature="0"
           d="m -60.236305,260.7062 v -2.54874 h 0.681302 l 0.02514,0.40402 c 0.227012,-0.29289 0.514879,-0.46434 0.827616,-0.46937 v 0.66622 c -0.328083,0.0101 -0.575204,0.10081 -0.777081,0.35296 v 1.59491 h -0.756973"
           id="Fill-29"
           sketch:type="MSShapeGroup" />
        <path
           style="fill:#000000;fill-rule:evenodd;stroke:none;stroke-width:0.26458332"
           inkscape:connector-curvature="0"
           d="m -58.363584,257.40578 c 0,-0.23733 0.19685,-0.42915 0.439208,-0.42915 0.247121,0 0.443971,0.19182 0.443971,0.42915 0,0.2421 -0.19685,0.43392 -0.443971,0.43392 -0.242358,0 -0.439208,-0.19182 -0.439208,-0.43392 z m 0.06562,0.75168 h 0.756973 v 2.54874 h -0.756973 z"
           id="Fill-30"
           sketch:type="MSShapeGroup" />
        <path
           style="fill:#000000;fill-rule:evenodd;stroke:none;stroke-width:0.26458332"
           inkscape:connector-curvature="0"
           d="m -55.845015,258.66732 c -0.313002,0 -0.524933,0.26749 -0.524933,0.75697 0,0.44423 0.181768,0.75697 0.545041,0.75697 0.216958,0 0.404019,-0.1262 0.464344,-0.32279 h 0.661194 c -0.126207,0.59558 -0.580496,0.89826 -1.110457,0.89826 -0.756708,0 -1.296722,-0.52493 -1.296722,-1.33244 0,-0.81254 0.529695,-1.33218 1.271587,-1.33218 0.555096,0 1.024467,0.28258 1.145646,0.95885 h -0.676275 c -0.08573,-0.26246 -0.247386,-0.38364 -0.479425,-0.38364"
           id="Fill-31"
           sketch:type="MSShapeGroup" />
        <path
           style="fill:#000000;fill-rule:evenodd;stroke:none;stroke-width:0.26458332"
           inkscape:connector-curvature="0"
           d="m -52.826649,260.43367 c -0.262466,0.21194 -0.560122,0.31803 -0.83767,0.31803 -0.388673,0 -0.691357,-0.22701 -0.691357,-0.62071 0,-0.38867 0.317765,-0.65617 1.05463,-0.82788 l 0.3937,-0.0908 v -0.14129 c 0,-0.25744 -0.136261,-0.40878 -0.373592,-0.40878 -0.23204,0 -0.363273,0.15637 -0.363273,0.35825 h -0.660929 c 0.01508,-0.59532 0.459052,-0.92843 1.079764,-0.92843 0.701411,0 1.075002,0.41381 1.075002,0.96891 v 1.00938 c 0,0.13626 0.106098,0.20691 0.25744,0.17145 v 0.43392 c -0.4191,0.1061 -0.777346,0.0455 -0.933715,-0.2421 m -0.0807,-0.37861 v -0.61542 l -0.206905,0.0503 c -0.388673,0.096 -0.545041,0.26246 -0.545041,0.46434 0,0.18177 0.115887,0.2876 0.30771,0.2876 0.146315,0 0.287867,-0.0654 0.444236,-0.18679"
           id="Fill-32"
           sketch:type="MSShapeGroup" />
        <path
           style="fill:#000000;fill-rule:evenodd;stroke:none;stroke-width:0.26458332"
           inkscape:connector-curvature="0"
           d="m -50.736705,258.84406 v 1.86214 h -0.757237 v -2.54847 h 0.681302 l 0.01535,0.23204 c 0.206904,-0.1868 0.479425,-0.29766 0.777081,-0.29766 0.514879,0 0.883179,0.3683 0.883179,0.94351 v 1.67058 h -0.756973 v -1.54411 c 0,-0.26776 -0.126206,-0.46937 -0.4191,-0.46937 -0.135996,0 -0.292629,0.0503 -0.423598,0.15134"
           id="Fill-33"
           sketch:type="MSShapeGroup" />
        <path
           style="fill:#000000;fill-rule:evenodd;stroke:none;stroke-width:0.26458332"
           inkscape:connector-curvature="0"
           d="m -80.16869,267.01571 v -0.2069 h 0.489479 v -3.11891 h -0.489479 v -0.2069 h 1.847056 v 0.2069 h -0.484452 v 3.11891 h 0.484452 v 0.2069 h -1.847056"
           id="Fill-34"
           sketch:type="MSShapeGroup" />
        <path
           style="fill:#000000;fill-rule:evenodd;stroke:none;stroke-width:0.26458332"
           inkscape:connector-curvature="0"
           d="m -77.125452,265.15358 v 1.86213 h -0.756973 v -2.54846 h 0.681302 l 0.01508,0.23204 c 0.206904,-0.1868 0.47969,-0.29766 0.777346,-0.29766 0.514614,0 0.882914,0.3683 0.882914,0.94377 v 1.67031 h -0.756708 v -1.54437 c 0,-0.26749 -0.126206,-0.4691 -0.418835,-0.4691 -0.136525,0 -0.292894,0.0503 -0.424127,0.15134"
           id="Fill-35"
           sketch:type="MSShapeGroup" />
        <path
           style="fill:#000000;fill-rule:evenodd;stroke:none;stroke-width:0.26458332"
           inkscape:connector-curvature="0"
           d="m -73.652796,265.22925 c -0.05054,-0.16669 -0.19685,-0.27755 -0.449263,-0.27755 -0.201877,0 -0.312737,0.0807 -0.312737,0.1868 0,0.17647 0.302948,0.23204 0.635794,0.32781 0.388672,0.11616 0.802481,0.28787 0.802481,0.7874 0,0.45932 -0.343165,0.80249 -1.059921,0.80249 -0.570177,0 -0.99404,-0.24236 -1.080029,-0.79243 h 0.651139 c 0.04551,0.19685 0.201877,0.28787 0.45429,0.28787 0.252148,0 0.358246,-0.10108 0.358246,-0.20691 0,-0.16669 -0.247386,-0.22728 -0.540015,-0.313 -0.398727,-0.11615 -0.868098,-0.28258 -0.868098,-0.82762 0,-0.46434 0.353219,-0.79745 0.994304,-0.79745 0.504561,0 0.95885,0.25241 1.069975,0.82259 h -0.656166"
           id="Fill-36"
           sketch:type="MSShapeGroup" />
        <path
           style="fill:#000000;fill-rule:evenodd;stroke:none;stroke-width:0.26458332"
           inkscape:connector-curvature="0"
           d="m -71.543009,267.06625 c -0.469371,0 -0.873125,-0.32306 -0.873125,-0.87313 v -1.50891 h -0.403754 v -0.21696 h 0.403754 v -0.71649 l 0.756973,-0.27279 v 0.98928 h 0.610659 v 0.21696 h -0.610659 v 1.38774 c 0,0.26749 0.156634,0.4138 0.403754,0.4138 0.07567,0 0.161396,-0.0201 0.25744,-0.0556 v 0.51488 c -0.17145,0.096 -0.363273,0.12118 -0.545042,0.12118"
           id="Fill-37"
           sketch:type="MSShapeGroup" />
        <path
           style="fill:#000000;fill-rule:evenodd;stroke:none;stroke-width:0.26458332"
           inkscape:connector-curvature="0"
           d="m -70.60903,263.7153 c 0,-0.23733 0.197115,-0.42915 0.439209,-0.42915 0.247121,0 0.443971,0.19182 0.443971,0.42915 0,0.2421 -0.19685,0.43392 -0.443971,0.43392 -0.242094,0 -0.439209,-0.19182 -0.439209,-0.43392 z m 0.06562,0.75195 h 0.756973 v 2.54846 h -0.756973 z"
           id="Fill-38"
           sketch:type="MSShapeGroup" />
        <path
           style="fill:#000000;fill-rule:evenodd;stroke:none;stroke-width:0.26458332"
           inkscape:connector-curvature="0"
           d="m -68.090196,267.06625 c -0.469371,0 -0.873125,-0.32306 -0.873125,-0.87313 v -1.50891 h -0.403754 v -0.21696 h 0.403754 v -0.71649 l 0.756708,-0.27279 v 0.98928 h 0.610923 v 0.21696 h -0.610923 v 1.38774 c 0,0.26749 0.156633,0.4138 0.404019,0.4138 0.07567,0 0.161396,-0.0201 0.257439,-0.0556 v 0.51488 c -0.171714,0.096 -0.363537,0.12118 -0.545041,0.12118"
           id="Fill-39"
           sketch:type="MSShapeGroup" />
        <path
           style="fill:#000000;fill-rule:evenodd;stroke:none;stroke-width:0.26458332"
           inkscape:connector-curvature="0"
           d="m -65.526384,266.7887 c -0.19685,0.17648 -0.443971,0.27755 -0.72681,0.27755 -0.514615,0 -0.882915,-0.36856 -0.882915,-0.9488 v -1.6502 h 0.756973 v 1.57453 c 0,0.25242 0.125942,0.44397 0.418571,0.44397 0.121444,0 0.25744,-0.0402 0.373592,-0.1262 v -1.8923 H -64.83 v 2.54846 h -0.681303 l -0.01508,-0.22701"
           id="Fill-40"
           sketch:type="MSShapeGroup" />
        <path
           style="fill:#000000;fill-rule:evenodd;stroke:none;stroke-width:0.26458332"
           inkscape:connector-curvature="0"
           d="m -63.184028,267.06625 c -0.46937,0 -0.873389,-0.32306 -0.873389,-0.87313 v -1.50891 h -0.40349 v -0.21696 h 0.40349 v -0.71649 l 0.757237,-0.27279 v 0.98928 h 0.610659 v 0.21696 h -0.610659 v 1.38774 c 0,0.26749 0.156369,0.4138 0.403755,0.4138 0.07567,0 0.161395,-0.0201 0.257439,-0.0556 v 0.51488 c -0.171714,0.096 -0.363537,0.12118 -0.545042,0.12118"
           id="Fill-41"
           sketch:type="MSShapeGroup" />
        <path
           style="fill:#000000;fill-rule:evenodd;stroke:none;stroke-width:0.26458332"
           inkscape:connector-curvature="0"
           d="m -61.13483,267.06625 c -0.741891,0 -1.261798,-0.51461 -1.261798,-1.30704 0,-0.82788 0.519907,-1.35758 1.246717,-1.35758 0.645848,0 1.1557,0.46937 1.1557,1.25148 v 0.14631 h -1.68566 c 0.02011,0.42916 0.19685,0.72682 0.555095,0.72682 0.206905,0 0.393436,-0.12118 0.449263,-0.31301 h 0.660929 c -0.116152,0.56542 -0.56515,0.85302 -1.120246,0.85302 m -0.540014,-1.49886 h 0.978958 c -0.02011,-0.39873 -0.206904,-0.61569 -0.479425,-0.61569 -0.227277,0 -0.45429,0.18177 -0.499533,0.61569"
           id="Fill-42"
           sketch:type="MSShapeGroup" />
        <path
           style="fill:#000000;fill-rule:evenodd;stroke:none;stroke-width:0.26458332"
           inkscape:connector-curvature="0"
           d="m -80.325323,272.04333 c 0,-0.81254 0.540014,-1.33244 1.296987,-1.33244 0.756973,0 1.296988,0.5199 1.296988,1.33244 0,0.80751 -0.540015,1.33244 -1.296988,1.33244 -0.756973,0 -1.296987,-0.52493 -1.296987,-1.33244 m 0.721783,0 c 0,0.44926 0.211931,0.76729 0.575204,0.76729 0.363273,0 0.575204,-0.31803 0.575204,-0.76729 0,-0.449 -0.211931,-0.76729 -0.575204,-0.76729 -0.363273,0 -0.575204,0.31829 -0.575204,0.76729"
           id="Fill-43"
           sketch:type="MSShapeGroup" />
        <path
           style="fill:#000000;fill-rule:evenodd;stroke:none;stroke-width:0.26458332"
           inkscape:connector-curvature="0"
           d="m -76.413723,270.99372 v 2.33151 h -0.756973 v -2.33151 h -0.403754 v -0.21695 h 0.403754 v -0.2122 c 0,-0.53472 0.287602,-1.02447 0.989277,-1.02447 0.17145,0 0.297656,0.0204 0.423862,0.0707 v 0.59557 c -0.08599,-0.0302 -0.166687,-0.0402 -0.247385,-0.0402 -0.227012,0 -0.408781,0.12594 -0.408781,0.41381 v 0.19685 h 0.610658 v 0.21695 h -0.610658"
           id="Fill-44"
           sketch:type="MSShapeGroup" />
        <path
           style="fill:#000000;fill-rule:evenodd;stroke:none;stroke-width:0.26458332"
           inkscape:connector-curvature="0"
           d="m -72.497096,272.51799 h -1.110192 l -0.247385,0.80724 h -0.84799 l 1.21629,-3.53271 h 0.918633 l 1.21629,3.53271 h -0.898261 z m -0.555096,-1.79176 -0.474398,1.53406 h 0.948796 z"
           id="Fill-45"
           sketch:type="MSShapeGroup" />
        <path
           style="fill:#000000;fill-rule:evenodd;stroke:none;stroke-width:0.26458332"
           inkscape:connector-curvature="0"
           d="m -70.957221,273.32523 v -2.54846 h 0.681037 l 0.0254,0.40349 c 0.227277,-0.29263 0.514615,-0.46435 0.827617,-0.46937 v 0.66622 c -0.328083,0.01 -0.575204,0.10107 -0.777081,0.35321 v 1.59491 h -0.756973"
           id="Fill-46"
           sketch:type="MSShapeGroup" />
        <path
           style="fill:#000000;fill-rule:evenodd;stroke:none;stroke-width:0.26458332"
           inkscape:connector-curvature="0"
           d="m -67.943882,271.28635 c -0.313002,0 -0.524933,0.2675 -0.524933,0.75724 0,0.44397 0.181769,0.75671 0.545042,0.75671 0.216958,0 0.403754,-0.12621 0.464079,-0.32306 h 0.661458 c -0.126206,0.59558 -0.580496,0.89853 -1.110456,0.89853 -0.756973,0 -1.296988,-0.52493 -1.296988,-1.33218 0,-0.8128 0.529961,-1.3327 1.271852,-1.3327 0.555096,0 1.024467,0.28283 1.145382,0.95911 h -0.676275 c -0.08572,-0.26247 -0.247121,-0.38365 -0.479161,-0.38365"
           id="Fill-47"
           sketch:type="MSShapeGroup" />
        <path
           style="fill:#000000;fill-rule:evenodd;stroke:none;stroke-width:0.26458332"
           inkscape:connector-curvature="0"
           d="m -65.632217,271.49326 v 1.83197 h -0.756973 v -3.53271 h 0.756973 v 1.19089 c 0.19685,-0.16643 0.444235,-0.27252 0.716756,-0.27252 0.514615,0 0.883179,0.3683 0.883179,0.94376 v 1.67058 h -0.756973 v -1.54411 c 0,-0.26775 -0.126206,-0.46963 -0.4191,-0.46963 -0.135995,0 -0.297656,0.0656 -0.423862,0.18177"
           id="Fill-48"
           sketch:type="MSShapeGroup" />
        <path
           style="fill:#000000;fill-rule:evenodd;stroke:none;stroke-width:0.26458332"
           inkscape:connector-curvature="0"
           d="m -63.5727,270.02456 c 0,-0.23707 0.19685,-0.42889 0.439208,-0.42889 0.247121,0 0.443971,0.19182 0.443971,0.42889 0,0.24235 -0.19685,0.43418 -0.443971,0.43418 -0.242358,0 -0.439208,-0.19183 -0.439208,-0.43418 z m 0.06562,0.75221 h 0.756973 v 2.54846 h -0.756973 z"
           id="Fill-49"
           sketch:type="MSShapeGroup" />
        <path
           style="fill:#000000;fill-rule:evenodd;stroke:none;stroke-width:0.26458332"
           inkscape:connector-curvature="0"
           d="m -61.053867,273.37577 c -0.469371,0 -0.87339,-0.32306 -0.87339,-0.87313 v -1.50892 h -0.403489 v -0.21695 h 0.403489 v -0.71676 l 0.757238,-0.27252 v 0.98928 h 0.610658 v 0.21695 h -0.610658 v 1.38774 c 0,0.2675 0.156368,0.41381 0.403754,0.41381 0.07567,0 0.161396,-0.0201 0.257439,-0.0556 v 0.51488 c -0.171714,0.0958 -0.363537,0.12118 -0.545041,0.12118"
           id="Fill-50"
           sketch:type="MSShapeGroup" />
        <path
           style="fill:#000000;fill-rule:evenodd;stroke:none;stroke-width:0.26458332"
           inkscape:connector-curvature="0"
           d="m -59.029805,273.37577 c -0.741891,0 -1.261798,-0.51488 -1.261798,-1.30704 0,-0.82788 0.519907,-1.35784 1.246452,-1.35784 0.645848,0 1.1557,0.46937 1.1557,1.25174 v 0.14631 h -1.685395 c 0.02011,0.42916 0.196585,0.72681 0.554831,0.72681 0.207169,0 0.3937,-0.12118 0.449262,-0.313 h 0.661194 c -0.116152,0.56542 -0.565414,0.85302 -1.120246,0.85302 m -0.540279,-1.49913 h 0.979223 c -0.02037,-0.39846 -0.206904,-0.61542 -0.47969,-0.61542 -0.227012,0 -0.454025,0.1815 -0.499533,0.61542"
           id="Fill-51"
           sketch:type="MSShapeGroup" />
        <path
           style="fill:#000000;fill-rule:evenodd;stroke:none;stroke-width:0.26458332"
           inkscape:connector-curvature="0"
           d="m -56.263851,271.28635 c -0.313002,0 -0.524933,0.2675 -0.524933,0.75724 0,0.44397 0.181769,0.75671 0.545042,0.75671 0.216958,0 0.403754,-0.12621 0.464079,-0.32306 h 0.661194 c -0.125942,0.59558 -0.580232,0.89853 -1.110192,0.89853 -0.756973,0 -1.296987,-0.52493 -1.296987,-1.33218 0,-0.8128 0.52996,-1.3327 1.271587,-1.3327 0.55536,0 1.024731,0.28283 1.145646,0.95911 h -0.676275 c -0.08573,-0.26247 -0.247121,-0.38365 -0.479161,-0.38365"
           id="Fill-52"
           sketch:type="MSShapeGroup" />
        <path
           style="fill:#000000;fill-rule:evenodd;stroke:none;stroke-width:0.26458332"
           inkscape:connector-curvature="0"
           d="m -53.684692,273.37577 c -0.469371,0 -0.873125,-0.32306 -0.873125,-0.87313 v -1.50892 h -0.403754 v -0.21695 h 0.403754 v -0.71676 l 0.756973,-0.27252 v 0.98928 h 0.610658 v 0.21695 h -0.610658 v 1.38774 c 0,0.2675 0.156368,0.41381 0.404018,0.41381 0.07541,0 0.161396,-0.0201 0.257175,-0.0556 v 0.51488 c -0.17145,0.0958 -0.363273,0.12118 -0.545041,0.12118"
           id="Fill-53"
           sketch:type="MSShapeGroup" />
        <path
           id="Fill-54"
           d="m -51.438644,271.53877 c -0.05027,-0.16643 -0.19685,-0.27755 -0.448998,-0.27755 -0.202142,0 -0.313002,0.0807 -0.313002,0.18679 0,0.17648 0.302683,0.23204 0.635793,0.32782 0.388673,0.11616 0.802482,0.28787 0.802482,0.7874 0,0.45906 -0.343165,0.80222 -1.059657,0.80222 -0.570441,0 -0.994304,-0.24209 -1.080029,-0.79216 h 0.65114 c 0.04524,0.19685 0.201612,0.2876 0.454025,0.2876 0.252412,0 0.358246,-0.10081 0.358246,-0.2069 0,-0.16643 -0.247121,-0.22702 -0.540015,-0.31274 -0.398462,-0.11615 -0.867833,-0.28258 -0.867833,-0.82788 0,-0.46408 0.353218,-0.79719 0.994039,-0.79719 0.504561,0 0.95885,0.25214 1.069975,0.82259 h -0.656166"
           inkscape:connector-curvature="0"
           style="fill:#000000;fill-rule:evenodd;stroke:none;stroke-width:0.26458332" />
      </g>
      <path
         style="fill:#fa4132;fill-rule:evenodd;stroke:none;stroke-width:0.26458332"
         inkscape:connector-curvature="0"
         d="m -102.05344,256.1297 h 18.23985 v 18.24064 h -18.23985 z"
         id="Fill-56" />
      <path
         sketch:type="MSShapeGroup"
         id="Fill-58"
         d="m -93.305517,265.69809 c 0.06509,-0.11404 0.237067,-0.26062 0.373856,-0.31935 0.13679,0.0587 0.308769,0.20531 0.373857,0.31935 0.06191,-0.11404 0.188912,-0.25083 0.319352,-0.32888 0.130175,0.0302 0.32041,0.13997 0.416983,0.204 -0.243152,-0.44583 -0.560387,-1.14433 -0.560387,-1.37663 0,-0.0624 0.03942,-0.10239 0.115358,-0.12409 0.0344,-0.01 0.111654,-0.0209 0.111654,-0.0209 0,0 -0.195792,-0.43762 -0.269346,-0.55854 -0.201348,-0.33073 -0.339725,-0.4363 -0.567266,-0.4363 -0.07355,0 -0.1143,0.007 -0.116946,0.0476 -0.0045,0.072 0.310091,0.29183 0.300037,0.38153 -0.0069,0.0595 -0.516466,-0.0281 -0.478631,-0.34608 0.0085,-0.0706 -0.0063,-0.0743 -0.02434,-0.0902 -0.109537,-0.0913 -0.370152,-0.25903 -0.595577,-0.26432 -0.249237,-0.006 -0.441589,0.28813 -0.52361,0.52785 0,0 0.12991,-0.0627 0.201348,-0.0627 0.125941,0 0.212989,0.0513 0.357716,0.22357 0.198173,0.23627 0.325703,0.46779 0.325703,0.821 0,0.47811 -0.250561,0.86625 -0.505884,1.29911 0.09472,-0.0685 0.296598,-0.19897 0.427038,-0.2249 0.130175,0.0781 0.257175,0.21484 0.319087,0.32888"
         inkscape:connector-curvature="0"
         style="fill:#ffffff;fill-rule:evenodd;stroke:none;stroke-width:0.26458332" />
      <path
         sketch:type="MSShapeGroup"
         id="Fill-59"
         d="m -95.777783,259.19251 h 5.690922 c 0.48895,0 0.69215,-0.35242 0.69215,-0.70485 h -7.075487 c 0,0.35243 0.2032,0.70485 0.692415,0.70485"
         inkscape:connector-curvature="0"
         style="fill:#ffffff;fill-rule:evenodd;stroke:none;stroke-width:0.26458332" />
      <path
         sketch:type="MSShapeGroup"
         id="Fill-60"
         d="m -94.271511,263.55814 c -0.03572,0 -0.07091,0.0132 -0.08149,0.018 v 0.33047 c 0.171185,0.41116 0.246856,0.76464 0.246856,1.13665 0.119592,-0.24421 0.224102,-0.51303 0.224102,-0.75063 0,-0.29818 -0.101864,-0.47228 -0.191558,-0.59848 -0.08255,-0.11616 -0.126206,-0.136 -0.197909,-0.136"
         inkscape:connector-curvature="0"
         style="fill:#ffffff;fill-rule:evenodd;stroke:none;stroke-width:0.26458332" />
      <path
         sketch:type="MSShapeGroup"
         id="Fill-61"
         d="m -92.93219,272.15181 c 0,0 0.827617,-0.29105 0.827617,-0.4662 0,-0.082 -0.05715,-0.19606 -0.131498,-0.36354 -0.0717,-0.16219 -0.153194,-0.34237 -0.153194,-0.34237 l -0.542925,-0.11006 -0.54266,0.11006 c 0,0 -0.08281,0.18151 -0.153458,0.34237 -0.07382,0.16775 -0.131234,0.28152 -0.131234,0.36354 0,0.17515 0.827352,0.4662 0.827352,0.4662"
         inkscape:connector-curvature="0"
         style="fill:#ffffff;fill-rule:evenodd;stroke:none;stroke-width:0.26458332" />
      <path
         sketch:type="MSShapeGroup"
         id="Fill-62"
         d="m -92.199294,265.73249 c -0.12065,0.0749 -0.267229,0.23442 -0.325967,0.3421 -0.09128,-0.127 -0.26961,-0.28019 -0.4064,-0.33232 -0.136789,0.0521 -0.315118,0.20532 -0.4064,0.33232 -0.05847,-0.10768 -0.205316,-0.26723 -0.325702,-0.3421 -0.547423,0.18891 -0.706437,0.71675 -0.706437,1.25015 0,0.98108 0.449792,2.08783 0.746654,2.81358 l 0.251883,-0.0397 c 0.291307,-0.0458 0.587905,-0.0455 0.879211,10e-4 l 0.221191,0.0355 c 0.291042,-0.63447 0.77814,-1.8034 0.77814,-2.81067 0,-0.5334 -0.159015,-1.06124 -0.706173,-1.25015"
         inkscape:connector-curvature="0"
         style="fill:#ffffff;fill-rule:evenodd;stroke:none;stroke-width:0.26458332" />
      <path
         sketch:type="MSShapeGroup"
         id="Fill-63"
         d="m -92.418369,270.23305 c 0,-0.15267 -0.07514,-0.2839 -0.235214,-0.2839 -0.110332,0 -0.154253,0.0712 -0.154253,0.15769 0,0.0672 0.02963,0.12436 0.02963,0.23786 0,0.1532 -0.0291,0.29528 -0.0291,0.29528 -2.65e-4,0 0.388937,-0.17489 0.388937,-0.40693"
         inkscape:connector-curvature="0"
         style="fill:#ffffff;fill-rule:evenodd;stroke:none;stroke-width:0.26458332" />
      <path
         sketch:type="MSShapeGroup"
         id="Fill-64"
         d="m -91.872798,270.33041 c 0,-0.14499 -0.0672,-0.27331 -0.217752,-0.27331 -0.09578,0 -0.144198,0.0609 -0.144198,0.15531 0,0.0408 0.01482,0.1352 0.01482,0.16325 0,0.21325 -0.02011,0.30877 -0.02011,0.30877 0,0 0.367242,-0.14685 0.367242,-0.35402"
         inkscape:connector-curvature="0"
         style="fill:#ffffff;fill-rule:evenodd;stroke:none;stroke-width:0.26458332" />
      <path
         sketch:type="MSShapeGroup"
         id="Fill-65"
         d="m -91.359771,270.43757 c 0,-0.0931 -0.06509,-0.20002 -0.191294,-0.20002 -0.0926,0 -0.128323,0.0651 -0.138112,0.1344 -0.005,0.0365 -0.0061,0.0886 -0.0061,0.11034 0,0.17171 -0.09922,0.26775 -0.09922,0.26775 0,0 0.43471,-0.10398 0.43471,-0.31247"
         inkscape:connector-curvature="0"
         style="fill:#ffffff;fill-rule:evenodd;stroke:none;stroke-width:0.26458332" />
      <path
         sketch:type="MSShapeGroup"
         id="Fill-66"
         d="m -97.156792,257.17083 h 8.446029 v 0.94615 h -8.446029 z"
         inkscape:connector-curvature="0"
         style="fill:#ffffff;fill-rule:evenodd;stroke:none;stroke-width:0.26458332" />
      <path
         sketch:type="MSShapeGroup"
         id="Fill-67"
         d="m -97.156527,272.37802 h 8.446029 v 0.94615 h -8.446029 z"
         inkscape:connector-curvature="0"
         style="fill:#ffffff;fill-rule:evenodd;stroke:none;stroke-width:0.26458332" />
      <path
         sketch:type="MSShapeGroup"
         id="Fill-68"
         d="m -90.119933,271.56046 c 0.372004,0.2929 1.032404,0.39741 1.43457,0.43815 -0.08017,-0.20426 -0.466989,-0.90276 -0.838993,-1.19539 -0.192882,-0.1516 -0.442384,-0.3048 -0.720461,-0.3048 -0.147108,0 -0.272521,0.022 -0.324114,0.10346 -0.02461,0.0386 -0.03731,0.0944 -0.03731,0.15769 0,0.35983 0.25453,0.61886 0.486305,0.80089"
         inkscape:connector-curvature="0"
         style="fill:#ffffff;fill-rule:evenodd;stroke:none;stroke-width:0.26458332" />
      <path
         sketch:type="MSShapeGroup"
         id="Fill-69"
         d="m -87.706669,271.22841 c 0.16801,0 0.329406,-0.0106 0.471752,-0.0262 -0.353748,-0.5215 -0.846137,-1.18348 -1.562894,-1.18348 -0.195262,0 -0.327025,0.0672 -0.407193,0.118 -0.04657,0.0294 -0.06906,0.081 -0.06906,0.136 0,0.40613 0.51488,0.95567 1.567392,0.95567"
         inkscape:connector-curvature="0"
         style="fill:#ffffff;fill-rule:evenodd;stroke:none;stroke-width:0.26458332" />
      <path
         sketch:type="MSShapeGroup"
         id="Fill-70"
         d="m -87.163479,270.13833 c 0.339989,0 0.688975,-0.0976 0.955939,-0.19236 -0.257704,-0.23574 -0.807244,-0.7694 -1.454679,-0.7694 -0.125942,0 -0.253471,0.0201 -0.371475,0.0759 -0.07144,0.0339 -0.241829,0.12383 -0.241829,0.24606 0,0.10795 0.107421,0.23919 0.150548,0.28761 0.164306,0.18441 0.505619,0.35216 0.961496,0.35216"
         inkscape:connector-curvature="0"
         style="fill:#ffffff;fill-rule:evenodd;stroke:none;stroke-width:0.26458332" />
      <path
         sketch:type="MSShapeGroup"
         id="Fill-71"
         d="m -86.674529,268.90537 c 0.425714,0 0.853281,-0.20558 1.165225,-0.39185 -0.166159,-0.10821 -0.731838,-0.4744 -1.236927,-0.4744 -0.203465,0 -0.431007,0.0341 -0.6096,0.16695 -0.06086,0.0453 -0.18415,0.15928 -0.18415,0.24183 0,0.0712 0.04683,0.11827 0.06323,0.1405 0.196585,0.26352 0.538162,0.31697 0.802217,0.31697"
         inkscape:connector-curvature="0"
         style="fill:#ffffff;fill-rule:evenodd;stroke:none;stroke-width:0.26458332" />
      <path
         sketch:type="MSShapeGroup"
         id="Fill-72"
         d="m -95.257613,270.75957 c 0,-0.0632 -0.0127,-0.11906 -0.03731,-0.15796 -0.05159,-0.0812 -0.177006,-0.10319 -0.324114,-0.10319 -0.278077,0 -0.52758,0.1532 -0.720461,0.3048 -0.372004,0.2929 -0.762264,0.99113 -0.842698,1.19539 0.402432,-0.0407 1.066007,-0.14525 1.438275,-0.43815 0.231775,-0.18203 0.486304,-0.44079 0.486304,-0.80089"
         inkscape:connector-curvature="0"
         style="fill:#ffffff;fill-rule:evenodd;stroke:none;stroke-width:0.26458332" />
      <path
         sketch:type="MSShapeGroup"
         id="Fill-73"
         d="m -96.58979,270.27274 c 0,-0.0548 -0.02249,-0.10663 -0.06906,-0.136 -0.08017,-0.0508 -0.211931,-0.118 -0.407194,-0.118 -0.716756,0 -1.20941,0.66198 -1.562893,1.18348 0.142081,0.0153 0.303477,0.0262 0.471487,0.0262 1.052513,0 1.567656,-0.54954 1.567656,-0.95567"
         inkscape:connector-curvature="0"
         style="fill:#ffffff;fill-rule:evenodd;stroke:none;stroke-width:0.26458332" />
      <path
         sketch:type="MSShapeGroup"
         id="Fill-74"
         d="m -97.738875,269.78617 c 0.04313,-0.0484 0.150548,-0.17966 0.150548,-0.28761 0,-0.12223 -0.170392,-0.21246 -0.241829,-0.24606 -0.118004,-0.0558 -0.245534,-0.0759 -0.371475,-0.0759 -0.647436,0 -1.196975,0.53366 -1.454944,0.7694 0.267229,0.0947 0.61595,0.19236 0.956204,0.19236 0.455877,0 0.796925,-0.16775 0.961496,-0.35216"
         inkscape:connector-curvature="0"
         style="fill:#ffffff;fill-rule:evenodd;stroke:none;stroke-width:0.26458332" />
      <path
         sketch:type="MSShapeGroup"
         id="Fill-75"
         d="m -98.387104,268.5884 c 0.0164,-0.0222 0.06323,-0.0693 0.06323,-0.1405 0,-0.0826 -0.123296,-0.19658 -0.18415,-0.24183 -0.178594,-0.13282 -0.4064,-0.16695 -0.609864,-0.16695 -0.504825,0 -1.070762,0.36619 -1.236662,0.4744 0.31195,0.18627 0.73951,0.39185 1.165224,0.39185 0.26379,0 0.605631,-0.0534 0.802217,-0.31697"
         inkscape:connector-curvature="0"
         style="fill:#ffffff;fill-rule:evenodd;stroke:none;stroke-width:0.26458332" />
      <path
         sketch:type="MSShapeGroup"
         id="Fill-76"
         d="m -90.965542,271.83722 c 0.144992,0 0.261938,-0.0516 0.366713,-0.0696 l -0.586582,-0.91519 c -0.205845,0.18653 -0.556947,0.24447 -0.756708,0.24447 0,0 0.07303,0.14976 0.16219,0.3302 0.146579,0.29739 0.489743,0.41011 0.814387,0.41011"
         inkscape:connector-curvature="0"
         style="fill:#ffffff;fill-rule:evenodd;stroke:none;stroke-width:0.26458332" />
      <path
         sketch:type="MSShapeGroup"
         id="Fill-77"
         d="m -94.084186,271.42738 c 0.08917,-0.18071 0.16219,-0.33047 0.16219,-0.33047 -0.19976,0 -0.551127,-0.0577 -0.756708,-0.24447 l -0.586582,0.91493 c 0.10504,0.0182 0.221457,0.0698 0.366978,0.0698 0.324643,0 0.667543,-0.11272 0.814122,-0.40984"
         inkscape:connector-curvature="0"
         style="fill:#ffffff;fill-rule:evenodd;stroke:none;stroke-width:0.26458332" />
      <path
         sketch:type="MSShapeGroup"
         id="Fill-78"
         d="m -96.331556,262.44398 c 0.242093,0.41645 0.826293,1.42081 1.166812,2.00633 0.314854,0.54161 0.561181,1.41314 0.593461,1.73726 0.06218,-0.11721 0.131497,-0.4154 0.127264,-0.79507 -0.004,-0.39106 -0.08149,-1.04511 -0.499269,-1.97221 -0.125677,-0.2794 -0.386556,-0.86704 -0.881062,-1.9804 -0.368035,-0.82868 -0.494771,-1.33509 -0.499004,-1.7362 -0.339461,0.1606 -0.575469,0.56197 -0.570706,1.00092 0.0058,0.56012 0.127529,0.99139 0.562504,1.73937"
         inkscape:connector-curvature="0"
         style="fill:#ffffff;fill-rule:evenodd;stroke:none;stroke-width:0.26458332" />
      <path
         sketch:type="MSShapeGroup"
         id="Fill-79"
         d="m -95.930183,265.39038 c -0.287602,0.002 -0.399521,0.072 -0.482865,0.11403 0.04445,0.20268 0.245533,0.41699 0.431006,0.53261 -0.152929,0.0116 -0.341841,0.0722 -0.460375,0.17912 0.07699,0.26908 0.288132,0.48657 0.563298,0.60802 -0.115094,0.0897 -0.192087,0.19235 -0.236802,0.35877 0.192088,0.22384 0.588963,0.29422 0.877094,0.34555 -0.09922,0.0926 -0.172509,0.23309 -0.217752,0.39687 0.198966,0.15029 0.541073,0.15955 0.822589,0.15955 -0.0672,-0.3265 -0.131762,-0.7673 -0.131762,-1.02183 0,-0.73263 -0.250296,-1.29328 -0.405342,-1.60152 -0.138377,-0.28416 -0.291571,-0.57758 -0.660929,-0.69559 -0.123825,0.19209 -0.121708,0.46858 -0.09816,0.62442"
         inkscape:connector-curvature="0"
         style="fill:#ffffff;fill-rule:evenodd;stroke:none;stroke-width:0.26458332" />
      <path
         sketch:type="MSShapeGroup"
         id="Fill-80"
         d="m -95.468485,270.10684 c 0.325437,0 0.567002,-0.082 0.842168,-0.48736 0.03149,-0.0466 0.315119,-0.45852 0.315119,-0.45852 0,0 -0.207963,-0.46435 -0.244475,-0.68422 0,0 -0.610394,0.49107 -0.920221,0.74031 -0.189177,0.15213 -0.582877,0.45191 -0.827616,0.51302 0.09684,0.12595 0.504031,0.37677 0.835025,0.37677"
         inkscape:connector-curvature="0"
         style="fill:#ffffff;fill-rule:evenodd;stroke:none;stroke-width:0.26458332" />
      <path
         sketch:type="MSShapeGroup"
         id="Fill-81"
         d="m -96.560685,269.21546 c 0.455877,0 0.619654,-0.14076 0.845343,-0.32253 0.199232,-0.16007 0.609336,-0.49001 0.609336,-0.49001 -0.209286,0.0127 -0.52414,-0.0997 -0.65114,-0.23389 0,0 -0.493977,0.23813 -0.837142,0.34343 -0.523081,0.16008 -0.746125,0.18997 -0.864922,0.21088 0.116945,0.2995 0.498475,0.49212 0.898525,0.49212"
         inkscape:connector-curvature="0"
         style="fill:#ffffff;fill-rule:evenodd;stroke:none;stroke-width:0.26458332" />
      <path
         sketch:type="MSShapeGroup"
         id="Fill-82"
         d="m -97.241194,268.20211 c 0.346869,-0.0119 1.045369,-0.21061 1.398852,-0.43445 -0.215635,-0.0217 -0.484452,-0.12991 -0.620448,-0.30718 -0.252677,0.0386 -0.493183,0.0672 -0.698764,0.0677 -0.60325,-0.003 -1.000919,-0.13494 -1.125802,-0.15346 0.123296,0.54372 0.502443,0.84614 1.046162,0.82736"
         inkscape:connector-curvature="0"
         style="fill:#ffffff;fill-rule:evenodd;stroke:none;stroke-width:0.26458332" />
      <path
         sketch:type="MSShapeGroup"
         id="Fill-83"
         d="m -98.84351,265.74148 c 0,0.74057 0.450056,1.36869 1.690687,1.37504 0.267494,0.001 0.651933,-0.019 0.651933,-0.019 0.01508,-0.0651 0.08572,-0.2204 0.132292,-0.27887 -0.173037,-0.0444 -1.057804,-0.33867 -1.549665,-0.57547 -0.535516,-0.2577 -0.821002,-0.52308 -0.920485,-0.59849 -0.0026,0.0212 -0.0048,0.0561 -0.0048,0.0968"
         inkscape:connector-curvature="0"
         style="fill:#ffffff;fill-rule:evenodd;stroke:none;stroke-width:0.26458332" />
      <path
         sketch:type="MSShapeGroup"
         id="Fill-84"
         d="m -97.773271,264.95487 c -0.676539,-0.50112 -0.982927,-0.84455 -1.109398,-1.07182 -0.03175,0.055 -0.07752,0.17991 -0.07752,0.40216 0,0.57415 0.224367,1.03982 1.304925,1.59624 0.290248,0.14949 0.873125,0.41327 0.873125,0.41327 -0.01958,-0.0468 -0.02381,-0.13149 -0.01296,-0.1725 0,0 0.0926,-0.11086 0.28231,-0.18997 0,0 -0.987425,-0.77497 -1.260475,-0.97738"
         inkscape:connector-curvature="0"
         style="fill:#ffffff;fill-rule:evenodd;stroke:none;stroke-width:0.26458332" />
      <path
         sketch:type="MSShapeGroup"
         id="Fill-85"
         d="m -97.761365,263.20201 c -0.495035,-0.61516 -0.75565,-0.98055 -0.85672,-1.27026 -0.104511,0.12567 -0.169069,0.3892 -0.169069,0.68685 0,0.86307 0.466989,1.39647 1.080823,1.8849 0.494506,0.39343 0.946414,0.77205 0.946414,0.77205 -0.0063,0.0225 0.221721,-0.18283 0.554038,-0.16748 0,0 -1.187715,-1.44912 -1.555486,-1.90606"
         inkscape:connector-curvature="0"
         style="fill:#ffffff;fill-rule:evenodd;stroke:none;stroke-width:0.26458332" />
      <path
         sketch:type="MSShapeGroup"
         id="Fill-86"
         d="m -97.773535,259.78254 c -0.348986,0.15769 -0.598753,0.67945 -0.598753,1.04933 0,0.49874 0.122767,1.12157 0.864659,2.04312 0.591344,0.73527 1.373716,1.70709 1.373716,1.70709 0.01879,-0.0696 0.07144,-0.17754 0.125413,-0.22675 0.140229,-0.003 0.299244,0.0458 0.37121,0.0836 0,0 -1.31101,-2.25478 -1.637506,-2.81649 -0.429154,-0.73793 -0.496623,-1.31128 -0.498739,-1.83991"
         inkscape:connector-curvature="0"
         style="fill:#ffffff;fill-rule:evenodd;stroke:none;stroke-width:0.26458332" />
      <path
         sketch:type="MSShapeGroup"
         id="Fill-87"
         d="m -88.969261,260.70434 c 0.0048,-0.43894 -0.231245,-0.84005 -0.570706,-1.00065 -0.0042,0.40111 -0.130969,0.90752 -0.499004,1.7362 -0.494506,1.11363 -0.755385,1.701 -0.881062,1.98014 -0.417778,0.9271 -0.4953,1.58141 -0.499534,1.97247 -0.004,0.37967 0.06535,0.67786 0.127529,0.79533 0.03228,-0.32438 0.278607,-1.19591 0.593461,-1.73725 0.340519,-0.58579 0.924719,-1.59015 1.166812,-2.0066 0.434975,-0.74824 0.556684,-1.17925 0.562504,-1.73964"
         inkscape:connector-curvature="0"
         style="fill:#ffffff;fill-rule:evenodd;stroke:none;stroke-width:0.26458332" />
      <path
         sketch:type="MSShapeGroup"
         id="Fill-88"
         d="m -88.403846,268.7236 c -0.118798,-0.0212 -0.342106,-0.0511 -0.865187,-0.21114 -0.343165,-0.1053 -0.837142,-0.34369 -0.837142,-0.34369 -0.127,0.13441 -0.44159,0.24685 -0.65114,0.23415 0,0 0.410104,0.32994 0.609336,0.49001 0.225689,0.18177 0.389466,0.32253 0.845343,0.32253 0.40005,0 0.781844,-0.19288 0.89879,-0.49186"
         inkscape:connector-curvature="0"
         style="fill:#ffffff;fill-rule:evenodd;stroke:none;stroke-width:0.26458332" />
      <path
         sketch:type="MSShapeGroup"
         id="Fill-89"
         d="m -87.575965,267.37475 c -0.124883,0.0185 -0.522552,0.15055 -1.125537,0.15346 -0.205846,-5.3e-4 -0.446352,-0.0291 -0.699029,-0.0675 -0.135996,0.17701 -0.404813,0.28522 -0.620448,0.30718 0.353218,0.22358 1.051983,0.42254 1.398852,0.43419 0.543983,0.0188 0.922866,-0.28337 1.046162,-0.82736"
         inkscape:connector-curvature="0"
         style="fill:#ffffff;fill-rule:evenodd;stroke:none;stroke-width:0.26458332" />
      <path
         sketch:type="MSShapeGroup"
         id="Fill-90"
         d="m -89.350525,265.93225 c 0.189706,0.0791 0.28231,0.18997 0.28231,0.18997 0.01085,0.041 0.0066,0.12541 -0.0127,0.1725 0,0 0.582613,-0.26378 0.872861,-0.41327 1.080558,-0.55642 1.304925,-1.02209 1.304925,-1.59597 0,-0.22252 -0.04577,-0.3474 -0.07752,-0.40243 -0.126207,0.22727 -0.432859,0.5707 -1.109398,1.07182 -0.27305,0.20215 -1.260475,0.97738 -1.260475,0.97738"
         inkscape:connector-curvature="0"
         style="fill:#ffffff;fill-rule:evenodd;stroke:none;stroke-width:0.26458332" />
      <path
         sketch:type="MSShapeGroup"
         id="Fill-91"
         d="m -88.588525,261.62245 c -0.326496,0.56171 -1.637771,2.81649 -1.637771,2.81649 0.07223,-0.0378 0.231246,-0.087 0.371475,-0.0836 0.05397,0.0492 0.106627,0.15716 0.125413,0.22675 0,0 0.782372,-0.97182 1.373716,-1.70683 0.741892,-0.92181 0.864658,-1.54464 0.864658,-2.04338 0,-0.36962 -0.249766,-0.89164 -0.598752,-1.04933 -0.0019,0.52863 -0.06958,1.10198 -0.498739,1.83991"
         inkscape:connector-curvature="0"
         style="fill:#ffffff;fill-rule:evenodd;stroke:none;stroke-width:0.26458332" />
      <path
         sketch:type="MSShapeGroup"
         id="Fill-92"
         d="m -95.336194,259.55314 v 2.03121 l 0.622829,1.42002 v -2.71622 c 0,-0.12567 0.08043,-0.19023 0.174361,-0.19023 h 0.03201 c 0.09393,0 0.174096,0.0659 0.174096,0.19023 v 2.38284 c 0.04419,-0.0471 0.217752,-0.22489 0.482336,-0.22489 0.09816,0 0.173302,0.0272 0.195527,0.0368 v -2.19472 c 0,-0.12567 0.08043,-0.19023 0.17436,-0.19023 h 0.03202 c 0.09393,0 0.17436,0.0659 0.17436,0.19023 v 2.40692 l 0.05398,0.0389 c 0.03202,0.0254 0.04948,0.0397 0.09842,0.0397 0.02593,0 0.07885,-0.014 0.1651,-0.014 0.185473,0 0.298979,0.0616 0.367771,0.0992 v -2.5707 c 0,-0.12567 0.08043,-0.19023 0.17436,-0.19023 h 0.03202 c 0.09393,0 0.17436,0.0659 0.17436,0.19023 v 2.9427 l 0.440002,0.97446 c 0,0 -0.09525,0.0111 -0.1524,0.0283 -0.05768,0.0177 -0.08149,0.0497 -0.08149,0.0696 0,0.0347 0.0209,0.0902 0.03043,0.11826 0.0093,0.0283 0.130175,0.3228 0.219075,0.4998 0.01614,-0.39925 0.08943,-0.68553 0.221721,-1.05198 l 2.64e-4,-3.58114 c 0,-0.12567 0.08043,-0.19023 0.174361,-0.19023 h 0.03175 c 0.09419,0 0.174625,0.0659 0.174625,0.19023 v 0.0302 l -2.65e-4,0.002 v 2.64478 l 0.623623,-1.42558 v -1.98596 h -4.809596"
         inkscape:connector-curvature="0"
         style="fill:#ffffff;fill-rule:evenodd;stroke:none;stroke-width:0.26458332" />
      <path
         sketch:type="MSShapeGroup"
         id="Fill-93"
         d="m -93.274296,260.28815 v 0.0304 -0.0304"
         inkscape:connector-curvature="0"
         style="fill:#ee4034;fill-rule:evenodd;stroke:none;stroke-width:0.26458332" />
      <path
         sketch:type="MSShapeGroup"
         id="Fill-94"
         d="m -89.559546,269.73007 c -0.245004,-0.0609 -0.638704,-0.36089 -0.827881,-0.51302 -0.309827,-0.24924 -0.920221,-0.74031 -0.920221,-0.74031 -0.0545,0.22331 -0.244475,0.68395 -0.244475,0.68395 0,0 0.283633,0.41249 0.315119,0.45905 0.275431,0.40508 0.516996,0.4871 0.842433,0.4871 0.330994,0 0.738188,-0.25082 0.835025,-0.37677"
         inkscape:connector-curvature="0"
         style="fill:#ffffff;fill-rule:evenodd;stroke:none;stroke-width:0.26458332" />
      <path
         sketch:type="MSShapeGroup"
         id="Fill-95"
         d="m -87.021927,265.64464 c -0.09948,0.0754 -0.384969,0.34079 -0.920486,0.59849 -0.49186,0.2368 -1.376627,0.53102 -1.5494,0.57547 0.0463,0.0585 0.116946,0.21378 0.132027,0.27887 0,0 0.38444,0.0204 0.651934,0.019 1.240631,-0.006 1.690687,-0.63447 1.690687,-1.37504 0,-0.0407 -0.0021,-0.0757 -0.0048,-0.0968"
         inkscape:connector-curvature="0"
         style="fill:#ffffff;fill-rule:evenodd;stroke:none;stroke-width:0.26458332" />
      <path
         sketch:type="MSShapeGroup"
         id="Fill-96"
         d="m -89.657442,265.10807 c 0.332317,-0.0154 0.560388,0.18997 0.554038,0.16748 0,0 0.451908,-0.37862 0.946414,-0.77205 0.613834,-0.48843 1.080823,-1.02183 1.080823,-1.8849 0,-0.29765 -0.06456,-0.56118 -0.169069,-0.68685 -0.10107,0.28971 -0.361685,0.65537 -0.85672,1.27026 -0.367771,0.45694 -1.555486,1.90606 -1.555486,1.90606"
         inkscape:connector-curvature="0"
         style="fill:#ffffff;fill-rule:evenodd;stroke:none;stroke-width:0.26458332" />
      <path
         sketch:type="MSShapeGroup"
         id="Fill-97"
         d="m -90.031298,264.76623 c -0.369358,0.11774 -0.522552,0.41116 -0.660929,0.69532 -0.155046,0.30824 -0.405342,0.86863 -0.405342,1.60152 0,0.2548 -0.06456,0.69533 -0.131762,1.02183 0.281781,0 0.623623,-0.009 0.822589,-0.15955 -0.04524,-0.16378 -0.118533,-0.30427 -0.217487,-0.39687 0.287866,-0.0511 0.684741,-0.12171 0.876829,-0.34581 -0.04471,-0.16643 -0.121708,-0.26882 -0.236802,-0.35851 0.275166,-0.12145 0.486569,-0.3392 0.563298,-0.60802 -0.118534,-0.10689 -0.307446,-0.16748 -0.460375,-0.17912 0.185473,-0.11589 0.386556,-0.32993 0.431006,-0.53261 -0.08334,-0.0421 -0.195263,-0.11244 -0.482865,-0.11403 0.02355,-0.15584 0.02567,-0.43233 -0.09816,-0.62415"
         inkscape:connector-curvature="0"
         style="fill:#ffffff;fill-rule:evenodd;stroke:none;stroke-width:0.26458332" />
      <path
         sketch:type="MSShapeGroup"
         id="Fill-98"
         d="m -93.057073,270.63998 c 0,0 -0.02937,-0.14208 -0.02937,-0.29501 0,-0.11404 0.0299,-0.17092 0.0299,-0.23813 0,-0.0865 -0.04392,-0.15743 -0.154252,-0.15743 -0.160073,0 -0.235479,0.13097 -0.235479,0.28364 0,0.23204 0.389202,0.40693 0.389202,0.40693"
         inkscape:connector-curvature="0"
         style="fill:#ffffff;fill-rule:evenodd;stroke:none;stroke-width:0.26458332" />
      <path
         sketch:type="MSShapeGroup"
         id="Fill-99"
         d="m -93.624604,270.68443 c 0,0 -0.01984,-0.0955 -0.01984,-0.30904 0,-0.0278 0.01508,-0.12197 0.01508,-0.16298 0,-0.0945 -0.04868,-0.15505 -0.144462,-0.15505 -0.150548,0 -0.218017,0.12806 -0.218017,0.27305 0,0.20717 0.367242,0.35402 0.367242,0.35402"
         inkscape:connector-curvature="0"
         style="fill:#ffffff;fill-rule:evenodd;stroke:none;stroke-width:0.26458332" />
      <path
         sketch:type="MSShapeGroup"
         id="Fill-100"
         d="m -94.069898,270.75004 c 0,0 -0.09922,-0.0963 -0.09922,-0.26802 0,-0.0214 -0.0011,-0.0735 -0.0061,-0.11007 -0.0098,-0.0693 -0.04551,-0.1344 -0.138113,-0.1344 -0.126206,0 -0.191293,0.10689 -0.191293,0.20002 0,0.20849 0.43471,0.31247 0.43471,0.31247"
         inkscape:connector-curvature="0"
         style="fill:#ffffff;fill-rule:evenodd;stroke:none;stroke-width:0.26458332" />
    </g>
  </g>
</svg>
