<?xml version="1.0" encoding="UTF-8" standalone="no"?>
<!-- Created with Inkscape (http://www.inkscape.org/) -->

<svg
   xmlns:dc="http://purl.org/dc/elements/1.1/"
   xmlns:cc="http://creativecommons.org/ns#"
   xmlns:rdf="http://www.w3.org/1999/02/22-rdf-syntax-ns#"
   xmlns:svg="http://www.w3.org/2000/svg"
   xmlns="http://www.w3.org/2000/svg"
   xmlns:xlink="http://www.w3.org/1999/xlink"
   xmlns:sodipodi="http://sodipodi.sourceforge.net/DTD/sodipodi-0.dtd"
   xmlns:inkscape="http://www.inkscape.org/namespaces/inkscape"
   id="svg2"
   version="1.1"
   inkscape:version="0.91 r13725"
   width="551.46515"
   height="538.56049"
   sodipodi:docname="WikiJournal_of_Science_logo.svg"
   inkscape:export-filename="C:\Users\Mikael\OneDrive\Wikiversity Journal\Wikiversity journal logo\Wikiversity Journal of Medicine logo.png"
   inkscape:export-xdpi="180"
   inkscape:export-ydpi="180">
  <metadata
     id="metadata8">
    <rdf:RDF>
      <cc:Work
         rdf:about="">
        <dc:format>image/svg+xml</dc:format>
        <dc:type
           rdf:resource="http://purl.org/dc/dcmitype/StillImage" />
        <dc:title />
      </cc:Work>
    </rdf:RDF>
  </metadata>
  <defs
     id="defs6">
    <linearGradient
       id="linearGradient4317">
      <stop
         id="stop4319"
         offset="0"
         style="stop-color:#e48800;stop-opacity:1" />
      <stop
         id="stop4321"
         offset="1"
         style="stop-color:#ebff05;stop-opacity:1;" />
    </linearGradient>
    <linearGradient
       id="linearGradient4311">
      <stop
         id="stop4313"
         offset="0"
         style="stop-color:#e48800;stop-opacity:1" />
      <stop
         id="stop4315"
         offset="1"
         style="stop-color:#ebff05;stop-opacity:1;" />
    </linearGradient>
    <linearGradient
       id="linearGradient4305">
      <stop
         id="stop4307"
         offset="0"
         style="stop-color:#e48800;stop-opacity:1" />
      <stop
         id="stop4309"
         offset="1"
         style="stop-color:#ebff05;stop-opacity:1;" />
    </linearGradient>
    <linearGradient
       id="linearGradient4299">
      <stop
         id="stop4301"
         offset="0"
         style="stop-color:#e48800;stop-opacity:1" />
      <stop
         id="stop4303"
         offset="1"
         style="stop-color:#ebff05;stop-opacity:1;" />
    </linearGradient>
    <linearGradient
       id="linearGradient4293">
      <stop
         id="stop4295"
         offset="0"
         style="stop-color:#e48800;stop-opacity:1" />
      <stop
         id="stop4297"
         offset="1"
         style="stop-color:#ebff05;stop-opacity:1;" />
    </linearGradient>
    <linearGradient
       id="linearGradient4287">
      <stop
         id="stop4289"
         offset="0"
         style="stop-color:#e48800;stop-opacity:1" />
      <stop
         id="stop4291"
         offset="1"
         style="stop-color:#ebff05;stop-opacity:1;" />
    </linearGradient>
    <linearGradient
       inkscape:collect="always"
       id="linearGradient4505">
      <stop
         style="stop-color:#c46f00;stop-opacity:1"
         offset="0"
         id="stop4507" />
      <stop
         style="stop-color:#d47700;stop-opacity:0;"
         offset="1"
         id="stop4509" />
    </linearGradient>
    <linearGradient
       id="linearGradient4499">
      <stop
         id="stop4501"
         offset="0"
         style="stop-color:#e49200;stop-opacity:1" />
      <stop
         id="stop4503"
         offset="1"
         style="stop-color:#e7ba00;stop-opacity:1" />
    </linearGradient>
    <linearGradient
       id="linearGradient4452">
      <stop
         id="stop4454"
         offset="0"
         style="stop-color:#fffc1e;stop-opacity:1" />
      <stop
         id="stop4456"
         offset="1"
         style="stop-color:#e79300;stop-opacity:1" />
    </linearGradient>
    <linearGradient
       id="linearGradient4327">
      <stop
         id="stop4329"
         offset="0"
         style="stop-color:#fd7b00;stop-opacity:1" />
      <stop
         id="stop4331"
         offset="1"
         style="stop-color:#ffc802;stop-opacity:1" />
    </linearGradient>
    <linearGradient
       inkscape:collect="always"
       id="linearGradient3846">
      <stop
         style="stop-color:#ff9b34;stop-opacity:1;"
         offset="0"
         id="stop3848" />
      <stop
         style="stop-color:#ff9b34;stop-opacity:0;"
         offset="1"
         id="stop3850" />
    </linearGradient>
    <linearGradient
       id="linearGradient3985">
      <stop
         style="stop-color:#ffa505;stop-opacity:1;"
         offset="0"
         id="stop3987" />
      <stop
         style="stop-color:#ebff05;stop-opacity:1;"
         offset="1"
         id="stop3989" />
    </linearGradient>
    <linearGradient
       id="b"
       xlink:href="#a"
       y1="339"
       y2="757" />
    <linearGradient
       id="a"
       gradientUnits="userSpaceOnUse"
       x1="0"
       x2="0"
       y1="35"
       y2="322">
      <stop
         offset="0"
         style="stop-color:#997400;stop-opacity:1;"
         id="stop9" />
      <stop
         offset="1"
         style="stop-color:#0080CE"
         id="stop11" />
    </linearGradient>
    <linearGradient
       id="linearGradient3021"
       xlink:href="#a"
       y1="339"
       y2="757" />
    <linearGradient
       id="linearGradient3023"
       gradientUnits="userSpaceOnUse"
       x1="0"
       x2="0"
       y1="35"
       y2="322">
      <stop
         offset="0"
         style="stop-color:#069"
         id="stop3025" />
      <stop
         offset="1"
         style="stop-color:#0080CE"
         id="stop3027" />
    </linearGradient>
    <linearGradient
       id="linearGradient3029"
       xlink:href="#a"
       y1="339"
       y2="757" />
    <linearGradient
       id="linearGradient3031"
       gradientUnits="userSpaceOnUse"
       x1="0"
       x2="0"
       y1="35"
       y2="322">
      <stop
         offset="0"
         style="stop-color:#069"
         id="stop3033" />
      <stop
         offset="1"
         style="stop-color:#0080CE"
         id="stop3035" />
    </linearGradient>
    <linearGradient
       id="linearGradient3037"
       xlink:href="#a"
       y1="339"
       y2="757" />
    <linearGradient
       id="linearGradient3039"
       gradientUnits="userSpaceOnUse"
       x1="0"
       x2="0"
       y1="35"
       y2="322">
      <stop
         offset="0"
         style="stop-color:#069"
         id="stop3041" />
      <stop
         offset="1"
         style="stop-color:#0080CE"
         id="stop3043" />
    </linearGradient>
    <linearGradient
       id="linearGradient3045"
       xlink:href="#a"
       y1="339"
       y2="757" />
    <linearGradient
       id="linearGradient3047"
       gradientUnits="userSpaceOnUse"
       x1="0"
       x2="0"
       y1="35"
       y2="322">
      <stop
         offset="0"
         style="stop-color:#069"
         id="stop3049" />
      <stop
         offset="1"
         style="stop-color:#0080CE"
         id="stop3051" />
    </linearGradient>
    <linearGradient
       id="linearGradient3053"
       xlink:href="#a"
       y1="339"
       y2="757" />
    <linearGradient
       id="linearGradient3055"
       gradientUnits="userSpaceOnUse"
       x1="0"
       x2="0"
       y1="35"
       y2="322">
      <stop
         offset="0"
         style="stop-color:#069"
         id="stop3057" />
      <stop
         offset="1"
         style="stop-color:#0080CE"
         id="stop3059" />
    </linearGradient>
    <linearGradient
       id="linearGradient3061"
       xlink:href="#a"
       y1="339"
       y2="757" />
    <linearGradient
       id="linearGradient3063"
       gradientUnits="userSpaceOnUse"
       x1="0"
       x2="0"
       y1="35"
       y2="322">
      <stop
         offset="0"
         style="stop-color:#069"
         id="stop3065" />
      <stop
         offset="1"
         style="stop-color:#0080CE"
         id="stop3067" />
    </linearGradient>
    <linearGradient
       y2="757"
       y1="339"
       id="linearGradient3076"
       xlink:href="#a"
       inkscape:collect="always" />
    <linearGradient
       y2="757"
       y1="339"
       id="linearGradient3078"
       xlink:href="#a"
       inkscape:collect="always"
       gradientTransform="matrix(1,0,0,1.0833806,0,-44.986012)" />
    <linearGradient
       y2="757"
       y1="339"
       id="linearGradient3080"
       xlink:href="#a"
       inkscape:collect="always"
       gradientTransform="matrix(1,0,0,1.0833806,0,-44.986012)" />
    <linearGradient
       y2="757"
       y1="339"
       id="linearGradient3082"
       xlink:href="#a"
       inkscape:collect="always"
       gradientTransform="matrix(1,0,0,1.0833806,0,-44.986012)" />
    <linearGradient
       y2="757"
       y1="339"
       id="linearGradient3084"
       xlink:href="#a"
       inkscape:collect="always"
       gradientTransform="matrix(1,0,0,1.0833806,0,-44.986012)" />
    <linearGradient
       y2="757"
       y1="339"
       id="linearGradient3086"
       xlink:href="#a"
       inkscape:collect="always" />
    <linearGradient
       y2="757"
       y1="339"
       id="linearGradient3088"
       xlink:href="#a"
       inkscape:collect="always" />
    <linearGradient
       inkscape:collect="always"
       xlink:href="#linearGradient3985"
       id="linearGradient3991"
       x1="-88.899521"
       y1="-112.94703"
       x2="-87.418037"
       y2="7.6144118"
       gradientUnits="userSpaceOnUse"
       gradientTransform="matrix(0.61702825,0,0,0.61702825,328.05426,78.999539)" />
    <linearGradient
       inkscape:collect="always"
       xlink:href="#linearGradient3985-4"
       id="linearGradient3991-2"
       x1="-88.899521"
       y1="-112.94703"
       x2="-87.418037"
       y2="7.6144118"
       gradientUnits="userSpaceOnUse"
       gradientTransform="matrix(0.61702825,0,0,0.61702825,239.72179,-2.2158711)" />
    <linearGradient
       id="linearGradient3985-4">
      <stop
         style="stop-color:#ffa505;stop-opacity:1;"
         offset="0"
         id="stop3987-5" />
      <stop
         style="stop-color:#ebff05;stop-opacity:1;"
         offset="1"
         id="stop3989-5" />
    </linearGradient>
    <linearGradient
       y2="7.6144118"
       x2="-87.418037"
       y1="-112.94703"
       x1="-88.899521"
       gradientTransform="matrix(0.55731374,0.26481173,-0.26481173,0.55731374,406.42719,117.47736)"
       gradientUnits="userSpaceOnUse"
       id="linearGradient4008"
       xlink:href="#linearGradient4287"
       inkscape:collect="always" />
    <linearGradient
       y2="7.6144118"
       x2="-87.418037"
       y1="-112.94703"
       x1="-88.899521"
       gradientTransform="matrix(0.55731374,0.26481173,-0.26481173,0.55731374,318.09472,36.26195)"
       gradientUnits="userSpaceOnUse"
       id="linearGradient4008-7"
       xlink:href="#linearGradient3985-4-1"
       inkscape:collect="always" />
    <linearGradient
       id="linearGradient3985-4-1">
      <stop
         style="stop-color:#ffa505;stop-opacity:1;"
         offset="0"
         id="stop3987-5-1" />
      <stop
         style="stop-color:#ebff05;stop-opacity:1;"
         offset="1"
         id="stop3989-5-5" />
    </linearGradient>
    <linearGradient
       y2="7.6144118"
       x2="-87.418037"
       y1="-112.94703"
       x1="-88.899521"
       gradientTransform="matrix(0.39497063,0.47404858,-0.47404858,0.39497063,459.27467,186.57605)"
       gradientUnits="userSpaceOnUse"
       id="linearGradient4042"
       xlink:href="#linearGradient4293"
       inkscape:collect="always" />
    <linearGradient
       y2="7.6144118"
       x2="-87.418037"
       y1="-112.94703"
       x1="-88.899521"
       gradientTransform="matrix(0.39497063,0.47404858,-0.47404858,0.39497063,370.9422,105.36064)"
       gradientUnits="userSpaceOnUse"
       id="linearGradient4042-7"
       xlink:href="#linearGradient3985-4-1-6"
       inkscape:collect="always" />
    <linearGradient
       id="linearGradient3985-4-1-6">
      <stop
         style="stop-color:#ffa505;stop-opacity:1;"
         offset="0"
         id="stop3987-5-1-1" />
      <stop
         style="stop-color:#ebff05;stop-opacity:1;"
         offset="1"
         id="stop3989-5-5-4" />
    </linearGradient>
    <linearGradient
       y2="7.6144118"
       x2="-87.418037"
       y1="-112.94703"
       x1="-88.899521"
       gradientTransform="matrix(0.06558451,0.61353282,-0.61353282,0.06558451,477.00833,280.01054)"
       gradientUnits="userSpaceOnUse"
       id="linearGradient4076"
       xlink:href="#linearGradient4299"
       inkscape:collect="always" />
    <linearGradient
       y2="7.6144118"
       x2="-87.418037"
       y1="-112.94703"
       x1="-88.899521"
       gradientTransform="matrix(-0.06558451,0.61353282,0.61353282,0.06558451,74.456791,279.36283)"
       gradientUnits="userSpaceOnUse"
       id="linearGradient4076-3"
       xlink:href="#linearGradient3985-4-1-6-2"
       inkscape:collect="always" />
    <linearGradient
       id="linearGradient3985-4-1-6-2">
      <stop
         style="stop-color:#e48800;stop-opacity:1"
         offset="0"
         id="stop3987-5-1-1-2" />
      <stop
         style="stop-color:#ebff05;stop-opacity:1;"
         offset="1"
         id="stop3989-5-5-4-1" />
    </linearGradient>
    <linearGradient
       y2="7.6144118"
       x2="-87.418037"
       y1="-112.94703"
       x1="-88.899521"
       gradientTransform="matrix(-0.39497063,0.47404858,0.47404858,0.39497063,92.190451,185.92834)"
       gradientUnits="userSpaceOnUse"
       id="linearGradient4042-6"
       xlink:href="#linearGradient3985-4-1-8"
       inkscape:collect="always" />
    <linearGradient
       id="linearGradient3985-4-1-8">
      <stop
         style="stop-color:#e48800;stop-opacity:1"
         offset="0"
         id="stop3987-5-1-5" />
      <stop
         style="stop-color:#ebff05;stop-opacity:1;"
         offset="1"
         id="stop3989-5-5-7" />
    </linearGradient>
    <linearGradient
       y2="7.6144118"
       x2="-87.418037"
       y1="-112.94703"
       x1="-88.899521"
       gradientTransform="matrix(0.55731374,0.26481173,-0.26481173,0.55731374,318.09472,36.26195)"
       gradientUnits="userSpaceOnUse"
       id="linearGradient4008-6"
       xlink:href="#linearGradient3985-4-18"
       inkscape:collect="always" />
    <linearGradient
       id="linearGradient3985-4-18">
      <stop
         style="stop-color:#ffa505;stop-opacity:1;"
         offset="0"
         id="stop3987-5-9" />
      <stop
         style="stop-color:#ebff05;stop-opacity:1;"
         offset="1"
         id="stop3989-5-2" />
    </linearGradient>
    <linearGradient
       y2="7.6144118"
       x2="-87.418037"
       y1="-112.94703"
       x1="-88.899521"
       gradientTransform="matrix(-0.55731374,0.26481173,0.26481173,0.55731374,145.03793,116.82965)"
       gradientUnits="userSpaceOnUse"
       id="linearGradient4120"
       xlink:href="#linearGradient4317"
       inkscape:collect="always" />
    <linearGradient
       inkscape:collect="always"
       xlink:href="#linearGradient3846"
       id="linearGradient3852"
       x1="383.66208"
       y1="645.71875"
       x2="396.8299"
       y2="645.71875"
       gradientUnits="userSpaceOnUse"
       gradientTransform="translate(-590.78037,71.332376)" />
    <linearGradient
       inkscape:collect="always"
       xlink:href="#linearGradient3846-7"
       id="linearGradient3852-1"
       x1="383.66208"
       y1="645.71875"
       x2="396.8299"
       y2="645.71875"
       gradientUnits="userSpaceOnUse"
       gradientTransform="translate(-602.70001,83.638547)" />
    <linearGradient
       inkscape:collect="always"
       id="linearGradient3846-7">
      <stop
         style="stop-color:#ff9b34;stop-opacity:1;"
         offset="0"
         id="stop3848-4" />
      <stop
         style="stop-color:#ff9b34;stop-opacity:0;"
         offset="1"
         id="stop3850-0" />
    </linearGradient>
    <linearGradient
       y2="645.71875"
       x2="396.8299"
       y1="645.71875"
       x1="383.66208"
       gradientTransform="translate(-1034.6926,-357.31173)"
       gradientUnits="userSpaceOnUse"
       id="linearGradient3869"
       xlink:href="#linearGradient3846-7"
       inkscape:collect="always" />
    <linearGradient
       y2="645.71875"
       x2="396.8299"
       y1="645.71875"
       x1="383.66208"
       gradientTransform="translate(-1046.6122,-345.00556)"
       gradientUnits="userSpaceOnUse"
       id="linearGradient3869-4"
       xlink:href="#linearGradient3846-7-8"
       inkscape:collect="always" />
    <linearGradient
       inkscape:collect="always"
       id="linearGradient3846-7-8">
      <stop
         style="stop-color:#ff9b34;stop-opacity:1;"
         offset="0"
         id="stop3848-4-8" />
      <stop
         style="stop-color:#ff9b34;stop-opacity:0;"
         offset="1"
         id="stop3850-0-2" />
    </linearGradient>
    <linearGradient
       y2="645.71875"
       x2="396.8299"
       y1="645.71875"
       x1="383.66208"
       gradientTransform="matrix(0.58863751,0,0,5.958595,-893.92334,-4045.6669)"
       gradientUnits="userSpaceOnUse"
       id="linearGradient3903"
       xlink:href="#linearGradient3846-7-8"
       inkscape:collect="always" />
    <linearGradient
       y2="7.6144118"
       x2="-87.418037"
       y1="-112.94703"
       x1="-88.899521"
       gradientTransform="matrix(0.39042962,0.47779553,0.47779553,-0.39042962,152.09335,441.46255)"
       gradientUnits="userSpaceOnUse"
       id="linearGradient4076-3-1"
       xlink:href="#linearGradient3985-4-1-6-2-7"
       inkscape:collect="always" />
    <linearGradient
       id="linearGradient3985-4-1-6-2-7">
      <stop
         style="stop-color:#e48800;stop-opacity:1"
         offset="0"
         id="stop3987-5-1-1-2-4" />
      <stop
         style="stop-color:#ebff05;stop-opacity:1;"
         offset="1"
         id="stop3989-5-5-4-1-0" />
    </linearGradient>
    <linearGradient
       y2="7.6144118"
       x2="-87.418037"
       y1="-112.94703"
       x1="-88.899521"
       gradientTransform="matrix(-0.39497063,0.47404858,0.47404858,0.39497063,124.87247,179.90163)"
       gradientUnits="userSpaceOnUse"
       id="linearGradient4042-6-9"
       xlink:href="#linearGradient3985-4-1-8-4"
       inkscape:collect="always" />
    <linearGradient
       id="linearGradient3985-4-1-8-4">
      <stop
         style="stop-color:#ffa505;stop-opacity:1;"
         offset="0"
         id="stop3987-5-1-5-8" />
      <stop
         style="stop-color:#ebff05;stop-opacity:1;"
         offset="1"
         id="stop3989-5-5-7-8" />
    </linearGradient>
    <linearGradient
       y2="7.6144118"
       x2="-87.418037"
       y1="-112.94703"
       x1="-88.899521"
       gradientTransform="matrix(0.21476318,0.57844674,0.57844674,-0.21476318,102.60971,369.90746)"
       gradientUnits="userSpaceOnUse"
       id="linearGradient3124"
       xlink:href="#linearGradient4311"
       inkscape:collect="always" />
    <linearGradient
       y2="7.6144118"
       x2="-87.418037"
       y1="-112.94703"
       x1="-88.899521"
       gradientTransform="matrix(-0.39042962,0.47779553,-0.47779553,-0.39042962,395.37036,442.65902)"
       gradientUnits="userSpaceOnUse"
       id="linearGradient4076-3-1-5"
       xlink:href="#linearGradient3985-4-1-6-2-7-5"
       inkscape:collect="always" />
    <linearGradient
       id="linearGradient3985-4-1-6-2-7-5">
      <stop
         style="stop-color:#e48800;stop-opacity:1"
         offset="0"
         id="stop3987-5-1-1-2-4-1" />
      <stop
         style="stop-color:#ebff05;stop-opacity:1;"
         offset="1"
         id="stop3989-5-5-4-1-0-7" />
    </linearGradient>
    <linearGradient
       y2="7.6144118"
       x2="-87.418037"
       y1="-112.94703"
       x1="-88.899521"
       gradientTransform="matrix(0.21476318,0.57844674,0.57844674,-0.21476318,135.29173,363.88075)"
       gradientUnits="userSpaceOnUse"
       id="linearGradient3124-1"
       xlink:href="#linearGradient3985-4-1-8-4-1"
       inkscape:collect="always" />
    <linearGradient
       id="linearGradient3985-4-1-8-4-1">
      <stop
         style="stop-color:#ffa505;stop-opacity:1;"
         offset="0"
         id="stop3987-5-1-5-8-5" />
      <stop
         style="stop-color:#ebff05;stop-opacity:1;"
         offset="1"
         id="stop3989-5-5-7-8-2" />
    </linearGradient>
    <linearGradient
       y2="7.6144118"
       x2="-87.418037"
       y1="-112.94703"
       x1="-88.899521"
       gradientTransform="matrix(-0.21476318,0.57844674,-0.57844674,-0.21476318,444.854,371.10393)"
       gradientUnits="userSpaceOnUse"
       id="linearGradient3173"
       xlink:href="#linearGradient4305"
       inkscape:collect="always" />
    <pattern
       y="0"
       x="0"
       height="6"
       width="6"
       patternUnits="userSpaceOnUse"
       id="EMFhbasepattern" />
    <linearGradient
       inkscape:collect="always"
       xlink:href="#linearGradient3985"
       id="linearGradient3991-9"
       x1="-88.899521"
       y1="-112.94703"
       x2="-87.418037"
       y2="7.6144118"
       gradientUnits="userSpaceOnUse"
       gradientTransform="matrix(0.61702825,0,0,0.61702825,328.99059,79.251688)" />
    <clipPath
       id="SVGID_2_">
      <use
         xlink:href="#SVGID_1_"
         overflow="visible"
         id="use9"
         style="overflow:visible"
         x="0"
         y="0"
         width="100%"
         height="100%" />
    </clipPath>
    <clipPath
       id="SVGID_2_-8">
      <use
         xlink:href="#SVGID_1_-5"
         overflow="visible"
         id="use9-6"
         style="overflow:visible"
         x="0"
         y="0"
         width="100%"
         height="100%" />
    </clipPath>
    <defs
       id="defs5-1">
      <rect
         x="0"
         height="841.91101"
         width="595.31"
         y="0.0089999996"
         id="SVGID_1_-5" />
    </defs>
    <clipPath
       id="clipPath4176">
      <use
         height="100%"
         width="100%"
         y="0"
         x="0"
         style="overflow:visible"
         id="use4178"
         overflow="visible"
         xlink:href="#SVGID_1_-5" />
    </clipPath>
    <defs
       id="defs17">
      <rect
         x="0"
         height="841.91101"
         width="595.31"
         y="0.0089999996"
         id="SVGID_3_" />
    </defs>
    <clipPath
       id="SVGID_4_">
      <use
         height="100%"
         width="100%"
         y="0"
         x="0"
         style="overflow:visible"
         id="use21"
         overflow="visible"
         xlink:href="#SVGID_3_" />
    </clipPath>
    <radialGradient
       inkscape:collect="always"
       xlink:href="#linearGradient4452"
       id="radialGradient4451"
       gradientUnits="userSpaceOnUse"
       gradientTransform="matrix(-1,0,0,1.2472481,661.215,207.57219)"
       cx="385.48495"
       cy="85.827927"
       fx="385.48495"
       fy="85.827927"
       r="169.1541" />
    <linearGradient
       inkscape:collect="always"
       xlink:href="#linearGradient4499"
       id="linearGradient4453"
       gradientUnits="userSpaceOnUse"
       x1="777.7146"
       y1="473.87817"
       x2="766.23584"
       y2="282.88345"
       gradientTransform="matrix(-1,0,0,1,1048.9768,8.0762981)" />
    <linearGradient
       inkscape:collect="always"
       xlink:href="#linearGradient4505"
       id="linearGradient4455"
       gradientUnits="userSpaceOnUse"
       x1="812.29974"
       y1="496.92093"
       x2="768.48499"
       y2="345.26733"
       gradientTransform="matrix(-1,0,0,1,1048.9925,8.0762981)" />
    <linearGradient
       inkscape:collect="always"
       id="linearGradient4333">
      <stop
         style="stop-color:#fac200;stop-opacity:1"
         offset="0"
         id="stop4335" />
      <stop
         style="stop-color:#a53800;stop-opacity:1"
         offset="1"
         id="stop4337" />
    </linearGradient>
    <radialGradient
       inkscape:collect="always"
       xlink:href="#linearGradient4333"
       id="radialGradient4902-8"
       cx="625.01593"
       cy="235.58891"
       fx="625.01593"
       fy="235.58891"
       r="88.266502"
       gradientTransform="matrix(0.9999952,-0.00309822,0.00718884,2.3203056,-547.95802,-367.81598)"
       gradientUnits="userSpaceOnUse" />
    <radialGradient
       inkscape:collect="always"
       xlink:href="#linearGradient4333"
       id="radialGradient4902-1"
       cx="625.01593"
       cy="235.58891"
       fx="625.01593"
       fy="235.58891"
       r="88.266502"
       gradientTransform="matrix(0.9999952,-0.00309822,0.00718884,2.3203056,-547.95802,-367.81598)"
       gradientUnits="userSpaceOnUse" />
    <radialGradient
       inkscape:collect="always"
       xlink:href="#linearGradient4333"
       id="radialGradient4895"
       cx="-194.72852"
       cy="268.45316"
       fx="-194.72852"
       fy="268.45316"
       r="145.44215"
       gradientTransform="matrix(0.96094379,0,0,1.0765769,462.85573,-14.21417)"
       gradientUnits="userSpaceOnUse" />
  </defs>
  <sodipodi:namedview
     pagecolor="#ffffff"
     bordercolor="#666666"
     borderopacity="1"
     objecttolerance="10"
     gridtolerance="10"
     guidetolerance="10"
     inkscape:pageopacity="0"
     inkscape:pageshadow="2"
     inkscape:window-width="1858"
     inkscape:window-height="1057"
     id="namedview4"
     showgrid="false"
     inkscape:zoom="1"
     inkscape:cx="87.609363"
     inkscape:cy="288.23657"
     inkscape:window-x="54"
     inkscape:window-y="-8"
     inkscape:window-maximized="1"
     inkscape:current-layer="svg2"
     fit-margin-top="10"
     fit-margin-left="10"
     fit-margin-right="10"
     fit-margin-bottom="10"
     showguides="false" />
  <path
     sodipodi:nodetypes="caccaccc"
     inkscape:connector-curvature="0"
     id="path4585"
     d="m 106.5878,270.98047 c 0.4452,67.71468 49.397,116.6133 69.0508,176.72851 8.5148,26.04447 2.2171,55.74408 21.0918,79.45118 53.6203,0.016 108.576,8.5e-4 158.0043,0 18.8747,-23.7071 12.577,-53.40669 21.0918,-79.45118 19.6538,-60.11582 68.7035,-106.71418 69.0508,-176.73046 0.074,-88.92402 -89.4711,-168.87472 -169.1426,-168.875 -79.673,-2.8e-4 -169.0031,79.51781 -169.1469,168.87695 z"
     style="fill:url(#radialGradient4451);fill-opacity:1" />
  <path
     style="fill:#ffffff;fill-opacity:1"
     d="M 419.33984 359.70508 C 378.41773 368.89206 312.17824 382.92777 275.42969 382.86914 C 239.03536 382.92762 173.77631 369.17226 132.76758 359.98242 C 135.18478 364.65456 137.67105 369.29983 140.18945 373.93164 C 182.05712 383.80582 223.24149 395.01139 274.84961 395.30078 L 274.84961 395.31641 C 275.04547 395.31577 275.23413 395.30959 275.42969 395.30859 C 275.62463 395.30945 275.81257 395.31541 276.00781 395.31641 L 276.00781 395.30078 C 328.10827 395.00865 369.58585 383.58792 411.86719 373.64648 C 414.40783 369.02601 416.91001 364.38333 419.33984 359.70508 z "
     id="path4587" />
  <path
     style="fill:#ffffff;fill-opacity:1"
     d="M 441 304.20898 C 378.82242 319.07712 323.98602 326.70997 275.42969 328.10938 C 227.10085 326.71668 172.54628 319.14682 110.72852 304.41602 C 111.86552 309.17805 113.2139 313.85747 114.72852 318.47266 C 167.4855 329.27181 213.88395 339.4006 274.84961 339.29492 L 274.84961 339.29688 C 275.04448 339.29763 275.23511 339.29633 275.42969 339.29688 C 275.62361 339.29633 275.8136 339.29763 276.00781 339.29688 L 276.00781 339.29492 C 337.36643 339.40128 383.95963 329.14279 437.14062 318.26562 C 438.6045 313.66632 439.91029 308.98964 441 304.20898 z "
     id="path4589" />
  <path
     style="fill:#ffffff;fill-opacity:1"
     d="M 442.47852 245.55859 C 379.89271 259.00463 324.48451 265.59015 275.42969 266.35742 C 226.53591 265.59283 171.3275 259.04629 108.99414 245.68945 C 108.2764 249.51562 107.72001 253.37354 107.32031 257.25781 C 162.38943 267.49949 214.46173 276.30352 274.84961 276.56055 L 274.84961 276.56836 C 275.0438 276.56789 275.23567 276.5651 275.42969 276.56445 C 275.62312 276.5651 275.81421 276.56789 276.00781 276.56836 L 276.00781 276.56055 C 336.62315 276.30259 388.85683 267.43562 444.15625 257.14453 C 443.75729 253.25608 443.20006 249.39114 442.47852 245.55859 z "
     id="path4591" />
  <path
     style="fill:#ffffff;fill-opacity:1"
     d="M 375.00195 139.96484 C 338.45746 149.10009 305.33639 151.04428 275.42969 151.52734 C 245.62937 151.04617 212.63632 149.11208 176.24609 140.06055 C 172.82545 142.75668 169.48421 145.57177 166.23047 148.49805 C 201.16365 156.77743 235.91583 160.86553 272.84961 161.44727 L 272.84961 161.50586 C 273.71312 161.50575 274.56864 161.48346 275.42969 161.47656 C 276.29009 161.48356 277.14496 161.50576 278.00781 161.50586 L 278.00781 161.44727 C 315.08615 160.86326 349.96576 156.74717 385.03711 148.40234 C 381.77621 145.47726 378.42939 142.66016 375.00195 139.96484 z "
     id="path4593" />
  <path
     style="fill:#ffffff;fill-opacity:1"
     d="M 420.1543 189.87305 C 366.28979 202.35527 318.23152 208.74167 275.42969 209.8418 C 232.76313 208.7453 184.87248 202.39634 131.21484 189.99219 C 129.04582 193.46271 126.99716 197.00031 125.07812 200.59961 C 174.1701 210.65898 223.74442 219.85768 274.84961 219.83203 L 274.84961 219.83594 C 275.04317 219.83656 275.23617 219.83362 275.42969 219.83398 C 275.62255 219.83362 275.8149 219.83656 276.00781 219.83594 L 276.00781 219.83203 C 327.302 219.85777 377.05428 210.59119 426.32422 200.48828 C 424.39528 196.88739 422.33471 193.34625 420.1543 189.87305 z "
     id="path4350-1" />
  <path
     inkscape:connector-curvature="0"
     id="path4406"
     d="m 255.39793,456.81033 c -1.2063,-1.20628 2.933,-4.46354 5.2824,-4.46354 2.1812,0 2.477,0.43362 2.477,3.63084 -0.2097,4.35292 -3.8487,1.08844 -7.7594,0.8327 z m 45.759,63.43729 c -0.3243,-2.36623 1.7433,-77.43179 2.5383,-83.45306 1.7015,-12.8871 1.8773,-23.80344 0.4269,-26.51351 -0.5693,-1.06384 -1.9551,-1.93426 -3.0795,-1.93426 -1.7822,0 -1.9551,-0.41656 -1.3492,-3.25 0.7624,-3.56557 9.0718,-27.16306 13.4689,-38.25 2.8086,-7.08157 9.1787,-21.70487 27.1795,-62.39341 5.4488,-12.31638 9.7678,-23.11638 9.5978,-24 -0.17,-0.88363 -1.2031,-1.70241 -2.2957,-1.81953 -1.0926,-0.11712 -4.4472,-0.90462 -7.4545,-1.75 -3.6682,-1.03115 -9.8397,-1.53706 -18.75,-1.53706 -7.3052,0 -13.2821,-0.16842 -13.2821,-0.37427 0.6824,-4.31256 3.0418,-8.60756 3.0838,-13.76751 -1.3085,2.74625 -3.6191,12.64853 -5.417,11.44006 -1.2843,-1.06581 -1.9976,-1.14203 -3.1063,0.37408 -1.1802,1.61406 -2.5033,2.4903 -10.547,1.99692 -10.2294,-0.62746 -23.0608,1.07302 -32.4201,4.29645 -3.2486,1.11885 -7.3826,2.03427 -9.1866,2.03427 -2.9697,0 -3.3098,-0.30757 -3.5935,-3.25 -0.2619,-2.71644 -0.7237,-3.25 -2.8133,-3.25 -2.3515,0 -2.8514,-3.24164 -3.3907,-9.3554 -0.5734,-6.49958 -0.5734,-6.49943 -0.75,2.36663 -0.173,8.68499 0.095,11.70882 -2.1093,11.07726 -8.6193,-2.46998 -35.2233,-1.12462 -36.3605,1.83874 -0.44694,1.16479 4.9059,16.09176 10.4255,29.07277 1.637,3.85 5.2981,13.75 8.1357,22 2.8375,8.25 9.4894,25.8 14.782,39 10.6237,26.49617 12.5239,34.649 8.3823,35.96348 -2.8259,0.89693 -3.5133,4.24923 -2.747,13.39653 1.7597,21.00309 3.3851,23.86744 2.4953,29.32945 l -1.0731,6.58683 c 19.4928,3.79469 35.8065,65.89816 59.2094,64.12454 z m -17.4662,-86.57459 c -1.3984,-7.45396 -4.9793,-11.59414 -4.3906,-5.07624 0.4229,4.23401 -3.3375,3.27343 -6.2039,4.27155 -7.8614,2.05021 -5.7537,-0.41023 -4.9344,-6.02155 -1.3633,3.18896 -4.4815,7.72054 -5.4191,11.07337 -4.5089,3.65098 -7.8911,3.12075 -13.5854,5.15038 -1.7742,-23.72031 4.5084,-28.69826 16.2078,-31.17203 10.4757,-2.10894 14.8275,-1.50977 22.7922,0.13653 l 8.007,1.65505 -0.8639,11.7922 c -0.4173,5.69618 0.2412,11.12242 -0.25,12.04876 -0.4912,0.92634 -0.8931,2.84921 -0.8931,4.27305 0,2.57146 -0.018,2.57736 -2.75,0.88112 -3.5388,-2.15014 -6.9056,-5.01847 -7.7166,-9.01219 z m 6.0652,-27.72061 c -6.4646,-2.70105 -6.5986,-3.32725 -6.5986,-30.82814 0,-24.24136 0.044,-24.77749 2.0321,-24.77749 1.1177,0 3.6235,-0.66493 5.5686,-1.47763 3.0018,-1.25422 3.4883,-1.89679 3.2179,-4.25 -0.2687,-2.33793 -0.8452,-2.82277 -3.6793,-3.09398 -3.1009,-0.29676 -1.859,-7.60572 -1.3401,-10.2001 1.5159,-7.57959 2.6732,-15.64201 1.4467,-10.54425 l -4.7818,19.87409 -7.9821,-0.24454 c -4.3901,-0.13449 -10.3285,-0.38608 -13.1964,-0.55908 -5.729,-0.34556 -13.4559,1.50636 -14.0785,3.37425 -0.6804,2.04096 1.8931,4.11364 5.9039,4.75498 2.1182,0.33871 4.3484,1.21487 4.956,1.94702 0.786,0.94702 0.8942,8.86779 0.3751,27.44636 -0.7003,25.06316 -0.8145,26.16879 -2.8359,27.44587 -1.1584,0.73188 -3.5148,1.62379 -5.2363,1.98197 l -3.1302,0.65129 -0.4255,-6.30312 c -0.3407,-5.0456 -2.347,-11.09133 -10.0569,-30.30313 -5.2974,-13.2 -12.7725,-32.775 -16.6114,-43.5 -3.839,-10.725 -9.1266,-25.01818 -11.7503,-31.76262 -3.7903,-9.74339 -4.5162,-12.51683 -3.533,-13.5 1.6586,-1.65858 27.8577,-1.41447 30.6935,0.23307 1.3644,0.79269 3.3554,5.06829 6.3856,14.11631 2.443,7.29455 9.856,31.56862 10.0299,31.04706 0.1738,-0.52155 -6.7225,-24.93913 -8.8816,-31.36597 -4.4414,-13.21997 -4.6139,-12.74563 4.5968,-12.63763 2.8622,0.0336 7.568,-0.82669 10.5,-1.91946 7.6711,-2.8591 22.1558,-4.60101 31.2067,-3.75287 7.5331,0.70592 7.6065,0.74032 7.6065,3.56845 0,1.57062 0.4021,3.10422 0.8937,3.408 0.4915,0.30379 -1.868,7.98708 -4.0096,13.50945 -2.1415,5.52237 -5.0971,16.30858 -5.0599,16.97739 0.081,1.44696 2.9074,-8.47689 7.8133,-20.92114 2.1248,-5.54659 4.5625,-10.89246 7.56,-16 l 13.6513,0.096 c 15.0286,0.10569 23.7587,1.56941 23.4756,3.93605 -0.097,0.80737 -4.7407,11.81795 -10.3203,24.46795 -5.5796,12.65 -13.0099,29.525 -16.5118,37.5 -6.909,15.73446 -19.2969,48.01536 -21.9699,57.25 -0.9154,3.1625 -1.8719,5.75 -2.1255,5.75 -0.2536,0 -1.9629,-0.62746 -3.7983,-1.39437 z m -31.7392,-67.25958 c 0.2486,-2.63781 -1.9533,-8.31011 -2.1675,-8.71117 -0.6178,1.40114 2.1484,10.1443 2.1675,8.71117 z m 12.0938,47.8432 c -2.6197,-28.86246 -2.9757,-33.50006 -2.6009,-33.87486 0.5682,-0.56825 13.7236,-2.57389 14.1319,-2.15451 0.492,0.50545 -6.192,40.70139 -7.5308,45.28809 -0.9744,3.33827 -1.3043,3.67637 -2.1366,2.18925 -0.5413,-0.9673 -1.3799,-6.11888 -1.8636,-11.44797 z m 31.0468,-105.68925 c 0,-1.62953 0.5595,-2.5 1.607,-2.5 1.6714,0 2.0994,0.55782 1.701,1.59581 -0.6942,1.3177 -1.2512,2.82126 -2.308,3.40419 -0.55,0 -1,-1.125 -1,-2.5 z m -60.0096,-1.9923 c -0.1963,-3.08475 2.9739,-4.17336 4.1061,-2.38582 1.4581,2.30217 1.0126,3.87812 -1.0965,3.87812 -1.3131,0 -2.9286,-0.22056 -3.0096,-1.4923 z m 62.0096,-3.5077 c 0,-0.55 0.5887,-2.06563 1.1712,-2.06563 0.5824,0 2.4074,0.89869 2.0674,1.44869 -0.3399,0.55 -1.4334,1.33651 -2.6855,1.33651 -0.2425,0 -0.5531,-0.16957 -0.5531,-0.71957 z"
     style="fill:url(#linearGradient4453);fill-opacity:1"
     sodipodi:nodetypes="cscccsssssssssscccsssssssssssssssscccccccccscssscccssssssscsssssssscssssssssscssscscccscsssscccccssssssssccssssssssss" />
  <path
     inkscape:connector-curvature="0"
     id="path4396"
     d="m 302.20716,448.93299 c 0.036,-6.13498 0.4381,-16.15567 0.8926,-22.2682 0.9384,-12.621 0.3936,-16.38631 -2.3709,-16.38631 -2.9458,0 -3.1868,-2.46948 -0.9483,-9.71687 3.5554,-11.51088 14.2712,-39.02958 22.1114,-56.78313 4.1291,-9.35 9.419,-21.5 11.7554,-27 2.3363,-5.5 6.8906,-15.71122 10.1207,-22.6916 3.23,-6.98038 5.8723,-13.05538 5.8718,-13.5 -6e-4,-0.44462 -3.2631,-1.59138 -7.25,-2.54836 -5.8965,-1.41532 -12.8461,-1.78814 -37.249,-1.99826 -28.6236,-0.24646 -36.2816,0.0293 -38.5,2.30137 0.2244,0.40391 1.2375,0.36732 2.75,-0.26827 2.725,-1.1451 12.1717,-1.25196 51.25,-0.57969 13.6943,0.23558 18.302,0.66307 21.1877,1.96585 l 3.6876,1.6648 -6.805,15.32708 c -26.8363,60.44404 -38.6259,89.3923 -43.1001,105.82708 -1.6844,6.18741 -1.9066,6.48758 -4.6199,6.2417 -1.5676,-0.14207 -3.9753,0.0276 -5.3503,0.37693 -2.4061,0.61138 -2.3498,0.70456 1.5,2.48208 11.3191,3.9981 8.0716,10.82852 7.9896,18.89929 -0.085,7.975 0.2353,15.2875 0.7127,16.25 1.3334,2.68811 -0.053,2.0815 -2.8557,-1.25 -2.7435,-2.81175 -6.3452,-4.39135 -8.6636,-6.92918 -4.5587,-5.04589 -6.4699,-5.97466 -10.183,-4.94857 -3.8986,1.07735 -12.1399,10.41822 -9.9374,11.26337 1.3371,0.51312 1.3311,0.9193 -0.053,3.59641 -2.1872,3.89432 0.6019,2.31988 2.4038,4.41336 1.9258,2.32034 7.6287,2.81814 13.2298,1.15481 5.4511,-1.61881 4.3203,69.27279 7.9001,73.34132 l 13.8727,-0.01 c 0.3296,-0.134 0.6141,-72.09202 0.6506,-78.227 z m -5.0733,-25.40954 c 0,-1.925 1.957,-5.24497 2.507,-5.24497 1.1089,0 -0.5168,9.95959 -1.5703,11.01302 -1.1509,1.15095 -0.9367,-2.17134 -0.9367,-5.76805 z m -51.1143,103.63561 c 2.5679,-6.35914 8.9253,-73.15002 8.306,-75.97836 -0.274,-1.04774 -0.1599,-1.6959 0.2536,-1.44037 1.1936,-2.26334 0.6519,-5.89381 0.062,-7.61565 -1.7122,1.10475 -3.7535,1.56577 -5.25,2.88754 -1.6561,1.49165 -1.7495,0.99107 -1.7402,-9.32875 0.01,-9.31091 0.3504,-11.63589 2.3404,-15.90499 5.7434,-8.54967 10.1676,-8.20857 19.1498,-10.33337 -6.7945,-0.5565 -14.1589,-0.6364 -20,-0.66661 l 0.3269,-4.15729 c 0.3884,-4.94045 -3.1533,-15.77474 -12.4742,-38.15866 -3.5319,-8.48173 -8.9172,-22.68043 -11.9674,-31.55268 -3.0501,-8.87226 -8.3982,-23.33294 -11.8846,-32.13487 -8.4188,-21.2546 -8.4092,-21.21062 -4.8482,-22.20298 1.5661,-0.43644 8.493,-0.79352 15.3931,-0.79352 9.5516,0 13.1313,0.36663 15,1.5363 1.6083,1.00672 3.6609,1.33695 5.9544,0.95802 l 3.5,-0.57828 -3.5,-0.69334 c -1.925,-0.38134 -5.075,-1.03116 -7,-1.44405 -4.1812,-0.89682 -25.8423,-1.01049 -31.5,-0.16531 -2.5027,0.37388 -4.1158,1.18604 -4.3094,2.16973 -0.1702,0.86471 3.0391,10.04226 7.1317,20.39456 4.0926,10.3523 9.5604,24.89737 12.1506,32.32237 2.5903,7.425 8.98,24.22545 14.1993,37.33433 6.2897,15.79731 9.6841,25.7174 10.0661,29.4187 0.5415,5.24737 0.1881,5.4731 -2.2504,7.8383 l -3.2233,3.12641 1.6752,16.45489 c 1.5969,15.68657 -0.735,93.45606 -1.2693,98.7103 l 5.7082,-0.002 z m 44.313,-179.07504 c 0,2.85223 3.77,-3.74388 2.4376,-5.07623 -0.5149,-0.51494 -2.6672,-1.00219 -4.7828,-1.08278 -5.4108,-0.33821 -3.1877,3.06321 -5.5647,6.10347 0.561,2.36446 5.3813,1.2247 7.9099,0.0555 z m -27.7096,-68.17963 c 1.3333,-0.86167 1.7138,-1.69674 0,-0.9144 -1.1761,0.53686 -12.9605,3.15969 -8.4075,3.28702 1.1,0.0308 7.5825,-1.83946 8.4075,-2.37262 z"
     style="fill:url(#linearGradient4455);fill-opacity:1"
     sodipodi:nodetypes="cssssssssscssscssscccsccssccsccccsssscccccccccsssssssscssssssssscscccsscccsssss" />
  <path
     style="fill:#ffffff;fill-opacity:1;fill-rule:evenodd;stroke:none"
     d="M 275.73438 102.10352 C 272.08498 102.1035 268.4148 102.2746 264.73438 102.60156 C 233.3804 115.33967 156.23089 188.9495 153.9375 272.81055 C 152.55978 323.18957 167.29367 344.54334 179.68164 365.33594 C 191.3902 384.98817 199.41728 401.62056 212.04297 426.25977 C 230.00606 461.31497 212.76812 525.25538 218.17578 527.16016 C 222.51968 527.16083 226.57437 527.15978 230.91992 527.16016 C 227.08833 526.49087 238.7341 454.95677 223.93164 419.97852 C 216.00167 401.23992 204.87729 384.62382 191.89844 360.13867 C 179.06178 335.92176 167.14521 315.38312 166.94922 276.39844 C 166.52939 192.89016 245.29617 127.44852 275.88086 108.65234 C 306.46615 127.23914 383.86871 190.96528 384.96484 274.09766 C 385.51733 315.99916 372.17843 339.67563 359.3418 363.89258 C 346.36296 388.3777 335.46316 401.17937 327.5332 419.91797 C 312.73075 454.89622 324.37647 526.49031 320.54492 527.16016 C 324.64776 527.15977 329.08476 527.16047 333.13281 527.16016 C 339.16792 526.49974 328.95729 449.00555 340.43359 424.85352 C 351.37259 401.83226 359.99848 388.83582 371.70703 369.18359 C 384.09501 348.391 398.90506 323.12901 397.52734 272.75 C 395.23953 189.09134 318.44563 115.62128 286.94531 102.61914 C 283.19397 102.27803 279.45282 102.10353 275.73438 102.10352 z "
     id="path3874-82" />
  <path
     style="fill:url(#linearGradient4008);fill-opacity:1;stroke:none"
     d="M 363.07322,106.82819 400.75875,38.391324 373.05688,25.228577 344.19001,98.409189 z"
     id="path3983-1"
     inkscape:connector-curvature="0"
     sodipodi:nodetypes="ccccc" />
  <path
     style="fill:url(#linearGradient4042);fill-opacity:1;stroke:none"
     d="m 424.37811,158.7336 62.9034,-46.33538 -19.63243,-23.563081 -56.8856,54.338991 z"
     id="path3983-1-2"
     inkscape:connector-curvature="0"
     sodipodi:nodetypes="ccccc" />
  <path
     style="fill:url(#linearGradient4076);fill-opacity:1;stroke:none"
     d="m 463.42351,237.48496 78.04161,-3.64861 -3.25995,-30.4963 -77.47567,13.64619 z"
     id="path3983-1-2-2"
     inkscape:connector-curvature="0"
     sodipodi:nodetypes="ccccc" />
  <path
     style="fill:url(#linearGradient4120);fill-opacity:1;stroke:none"
     d="m 188.3919,106.18048 -37.68553,-68.436864 27.70187,-13.16275 28.86687,73.180613 z"
     id="path3983-1-7"
     inkscape:connector-curvature="0"
     sodipodi:nodetypes="ccccc" />
  <path
     style="fill:url(#linearGradient4042-6);fill-opacity:1;stroke:none"
     d="M 127.08701,158.0859 64.18361,111.75051 83.816041,88.187429 140.70164,142.52643 z"
     id="path3983-1-2-9"
     inkscape:connector-curvature="0"
     sodipodi:nodetypes="ccccc" />
  <path
     style="fill:url(#linearGradient4076-3);fill-opacity:1;stroke:none"
     d="M 88.041611,236.83725 10,233.18864 l 3.25995,-30.4963 77.475671,13.64619 z"
     id="path3983-1-2-2-5"
     inkscape:connector-curvature="0"
     sodipodi:nodetypes="ccccc" />
  <path
     style="fill:url(#linearGradient3124);fill-opacity:1;stroke:none"
     d="M 95.815311,325.78483 24.32882,357.30447 13.653797,328.55216 89.089921,306.23426 z"
     id="path3983-1-2-9-2"
     inkscape:connector-curvature="0"
     sodipodi:nodetypes="ccccc" />
  <path
     style="fill:url(#linearGradient4076-3-1);fill-opacity:1;stroke:none"
     d="M 131.3834,401.91422 73.947141,454.87537 54.540424,431.12603 118.69207,385.59291 z"
     id="path3983-1-2-2-5-4"
     inkscape:connector-curvature="0"
     sodipodi:nodetypes="ccccc" />
  <path
     style="fill:url(#linearGradient3173);fill-opacity:1;stroke:none"
     d="m 451.6484,326.9813 71.48649,31.51964 10.67502,-28.75231 -75.43612,-22.3179 z"
     id="path3983-1-2-9-2-7"
     inkscape:connector-curvature="0"
     sodipodi:nodetypes="ccccc" />
  <path
     style="fill:url(#linearGradient4076-3-1-5);fill-opacity:1;stroke:none"
     d="m 416.08031,403.11069 57.43626,52.96115 19.40672,-23.74934 -64.15165,-45.53312 z"
     id="path3983-1-2-2-5-4-6"
     inkscape:connector-curvature="0"
     sodipodi:nodetypes="ccccc" />
  <path
     style="fill:#000000"
     d=""
     id="path4291"
     inkscape:connector-curvature="0" />
  <path
     style="fill:#ffffff;fill-opacity:1;stroke:none"
     d="m 270.76084,102.17195 c -11.26507,141.67071 -2.22991,293.41768 -2.00105,425.01212 l 13.94557,-0.003 c 0.0699,-131.09307 9.35748,-277.2028 -1.75974,-424.97197 z"
     id="path3847-9"
     inkscape:connector-curvature="0"
     sodipodi:nodetypes="ccccc" />
  <path
     style="fill:url(#linearGradient3991-9);fill-opacity:1;stroke:none"
     d="m 285.26198,88.239468 4.66717,-77.987319 -30.67004,0 5.33392,78.487239 z"
     id="path3983"
     inkscape:connector-curvature="0"
     sodipodi:nodetypes="ccccc" />
  <g
     id="g3"
     transform="matrix(0.32996766,0,0,0.32996766,550.68916,219.68126)">
    <defs
       id="defs5">
      <rect
         id="SVGID_1_"
         y="0.0089999996"
         width="595.31"
         height="841.91101"
         x="0" />
    </defs>
    <clipPath
       id="clipPath4157">
      <use
         xlink:href="#SVGID_1_"
         overflow="visible"
         id="use4159"
         style="overflow:visible"
         x="0"
         y="0"
         width="100%"
         height="100%" />
    </clipPath>
    <g
       clip-path="url(#SVGID_2_)"
       id="g11" />
  </g>
  <path
     sodipodi:type="inkscape:offset"
     inkscape:radius="7.4330363"
     inkscape:original="M 274.51562 116.23242 C 255.92888 116.76038 242.5046 132.43306 234.04688 147.43945 C 228.18543 157.69646 223.6649 168.66021 219.76367 179.79297 C 198.25822 175.41115 174.80016 173.08007 153.98438 181.57617 C 141.16442 186.63352 133.3213 200.20305 133.9707 213.76562 C 134.62042 237.477 149.78589 257.55292 164.60156 274.81445 C 149.7052 292.73157 134.25312 313.50428 134.1543 337.85742 C 133.78758 351.53201 142.66907 364.47847 155.56836 369.04492 C 176.23971 376.9421 199.60714 374.33311 220.49805 370.73633 C 227.81605 391.37679 236.56388 413.60753 254.9707 426.87109 C 268.8079 436.95327 289.00787 434.80336 301.29492 423.22656 C 316.69134 409.40455 324.75143 389.56733 331.39844 370.44727 C 353.22644 374.45204 376.91596 376.53582 397.90625 367.8457 C 410.58745 362.77129 418.39028 349.27405 417.48633 335.79883 C 416.45745 312.15249 401.51787 292.09897 386.71094 274.80078 C 401.92795 257.08755 417.50654 236.23941 417.47656 211.80664 C 417.7401 197.95949 407.87554 185.70261 395.13672 181.09766 C 374.8699 172.93579 351.80077 176.01439 331.30469 179.51562 C 323.98104 158.63414 315.15188 136.1415 296.50781 122.78516 C 290.07768 118.39899 282.32102 115.95581 274.51562 116.23242 z M 275.24414 146.44336 C 296.27433 146.25785 312.6162 163.43995 319.91797 181.85938 C 304.45541 185.37978 289.53272 190.95284 275.08008 197.42188 C 261.18459 190.68651 245.96362 185.51791 231.42188 181.67383 C 238.54362 163.41136 254.44979 146.48069 275.24414 146.44336 z M 342.32227 189.55273 C 363.10908 188.90397 385.62215 201.33779 390.66992 222.69727 C 394.53737 238.03008 388.15413 253.92642 378.20312 265.64062 C 367.19952 254.876 355.335 245.03317 343.21484 235.55859 C 341.48728 220.20081 338.90391 204.89685 334.64844 190.02344 C 337.19492 189.72216 339.758 189.56356 342.32227 189.55273 z M 207.20508 190 C 210.59283 189.998 213.97976 190.23155 217.33789 190.67578 C 213.08484 205.54705 210.18793 220.80131 208.58398 236.18359 C 195.71404 245.00327 183.62849 256.18756 172.7832 266.59961 C 159.33389 252.37407 152.98384 229.45953 163.68359 211.87891 C 172.55808 196.71113 190.25326 189.85471 207.20508 190 z M 323.68555 192.11133 L 324.94531 197.57031 C 327.20339 207.5892 329.48893 217.73128 331.22461 227.78906 C 317.88356 217.90223 302.93261 210.58856 288.16211 203.13867 C 299.86346 199.00454 311.77118 195.07825 323.68555 192.11133 z M 227.51953 192.52344 L 228.19922 192.66016 C 239.99224 195.1395 251.47794 198.908 262.64453 203.58594 C 247.73921 210.33052 232.97085 217.73655 220.16992 228.05664 C 222.1486 216.07626 224.24875 204.21068 227.51953 192.52344 z M 275.5332 208.66602 L 276.45703 209.05078 L 276.92773 209.24609 C 297.0735 217.18669 315.36201 229.20673 333.21094 241.44727 C 335.51153 263.60061 335.60735 285.97774 333.2168 308.16016 C 315.00816 321.03506 296.35597 333.40908 275.625 341.58594 C 255.57679 332.6236 236.60239 321.21647 218.58789 308.81641 C 215.7551 286.35644 215.62824 263.81592 218.58984 241.40234 C 236.17458 228.24338 255.00602 216.56317 275.5332 208.66602 z M 274.41211 248.60742 C 258.85721 248.81413 245.00212 264.23107 248.4043 279.8457 C 251.3626 297.24562 273.20797 307.18107 288.52734 298.65234 C 300.39437 293.08942 306.7972 278.30655 301.84375 266.01953 C 297.61799 255.23045 285.97677 247.85527 274.41211 248.60742 z M 207.27539 249.88672 L 207.00391 252.55273 C 205.41976 268.28248 205.8713 284.12389 206.99023 299.86719 C 197.47882 292.29673 188.427 284.26643 180.04883 275.42773 C 188.32659 266.11149 197.53027 257.64412 207.27539 249.88672 z M 344.93555 250.59375 L 345.69727 251.24219 L 346.33984 251.78906 C 354.86484 259.15008 363.2932 266.64811 371.13672 274.74023 C 362.45021 283.1766 353.68564 291.5438 344.5332 299.47656 C 345.79848 283.21968 345.42524 266.87693 344.93555 250.59375 z M 172.51562 283.98828 L 173.24023 284.67773 L 173.45312 284.88086 C 184.62363 295.43907 196.22864 305.5706 208.58203 314.73047 C 210.08902 329.86462 213.20007 345.20533 217.16797 359.60742 C 197.53675 362.40146 174.17204 357.05071 163.4707 338.75391 C 153.14278 321.00236 160.59294 298.94435 172.51562 283.98828 z M 378.84375 284.00195 L 379.06641 284.2793 C 391.08984 299.2721 399.89532 320.39752 389.98242 338.53711 C 379.84878 355.91667 357.71598 360.47771 339.03906 359.69727 C 334.12602 360.80713 334.41601 358.13906 336.02148 354.51172 C 339.41404 341.45087 341.66158 328.11231 343.21289 314.71484 C 355.6148 305.11219 367.69135 295.04535 378.84375 284.00195 z M 220.08594 321.85352 L 220.59961 322.22461 C 234.06722 331.66007 248.66497 339.33375 263.35938 346.6543 C 252.02334 351.22805 239.87183 355.78701 228.02734 357.40625 C 224.20539 345.94111 222.04032 333.89394 220.08594 321.85352 z M 331.71094 322.13281 L 331.54102 323.11914 L 331.50586 323.32617 C 329.45349 334.81135 327.00711 346.44495 323.71094 357.5918 C 312.03295 355.1723 300.0447 350.95459 289.13672 346.64453 C 304.07505 339.85263 317.9174 330.95332 331.71094 322.13281 z M 276.21094 352.82812 L 278.41992 353.81641 C 291.66124 359.82814 306.17628 364.39048 319.82812 367.93945 C 312.58477 385.74951 297.65402 403.25189 277.07617 404.05078 C 257.51751 404.69609 241.80224 389.10374 233.7207 372.56641 C 232.92861 370.35196 229.25922 366.52834 234.30859 367.10547 C 248.69064 363.68758 262.60931 358.56873 276.21094 352.82812 z "
     style="color:#000000;clip-rule:nonzero;display:inline;overflow:visible;visibility:visible;opacity:1;isolation:auto;mix-blend-mode:normal;color-interpolation:sRGB;color-interpolation-filters:linearRGB;solid-color:#000000;solid-opacity:1;fill:#ffffff;fill-opacity:1;fill-rule:nonzero;stroke:none;stroke-width:1;stroke-linecap:butt;stroke-linejoin:miter;stroke-miterlimit:4;stroke-dasharray:none;stroke-dashoffset:0;stroke-opacity:1;color-rendering:auto;image-rendering:auto;shape-rendering:auto;text-rendering:auto;enable-background:accumulate"
     id="path4320"
     d="m 274.2793,108.80664 c -22.62668,0.6567 -37.66416,18.95145 -46.68555,34.94531 -0.003,0.005 -0.005,0.009 -0.008,0.0137 -5.10593,8.93716 -9.04112,18.29079 -12.55664,27.69141 -20.45432,-3.70629 -42.85827,-5.31176 -63.79883,3.2168 -16.03929,6.34128 -25.44703,22.75266 -24.68164,39.37305 0.69855,24.42604 14.65996,44.21719 28.52539,60.83398 -13.97214,17.22438 -28.20626,37.71705 -28.3457,62.84961 -0.42285,16.95908 10.29622,32.59059 26.2832,38.28906 20.77329,7.90489 42.87461,6.06875 62.63672,2.95117 7.06142,19.36135 16.13235,40.3391 34.95508,53.91407 17.00554,12.3834 40.81948,9.8007 55.73242,-4.20313 15.33502,-13.80587 23.51913,-32.29657 29.92968,-49.98437 20.71902,3.37758 43.33766,4.75014 64.4336,-3.9668 15.87948,-6.37161 25.28315,-22.73134 24.20312,-39.34766 -1.08815,-24.23124 -14.81162,-43.94219 -28.625,-60.57812 14.2733,-17.12201 28.62457,-37.69712 28.62696,-62.92188 0.30011,-17.38784 -11.65433,-32.08176 -27.13086,-37.72656 -20.49519,-8.20412 -42.31363,-5.99727 -61.61133,-2.89844 -7.08695,-19.60967 -16.2478,-40.84815 -35.32617,-54.51562 a 7.4337796,7.4337796 0 0 0 -0.13867,-0.0977 c -7.66004,-5.22512 -16.89998,-8.16886 -26.41797,-7.83789 z m 0.97851,45.07031 a 7.4337796,7.4337796 0 0 0 0.0527,0 c 14.2325,-0.12554 26.50764,10.12688 33.9375,23.0918 -11.74604,3.27326 -23.09953,7.53839 -34.09961,12.3418 -10.78369,-4.98982 -22.07481,-9.07471 -33.21289,-12.36914 7.22286,-12.88614 19.19666,-23.0391 33.32226,-23.06446 z m 68.875,43.17969 c 17.20905,0.11352 35.36437,10.68455 39.30274,27.34961 a 7.4337796,7.4337796 0 0 0 0.0273,0.10937 c 2.50718,9.93992 -0.57736,20.70237 -6.4707,29.98438 -8.68873,-8.0323 -17.66667,-15.64999 -26.84375,-22.88281 -1.38708,-11.5442 -3.24741,-23.1118 -6.01563,-34.56055 z m -136.99219,0.37695 c 0.10722,-0.0187 2.53079,0.2104 0.73633,0.0449 -2.83769,11.40014 -4.91555,22.97023 -6.26953,34.62109 -10.10245,7.23097 -19.34269,15.48497 -27.97851,23.60937 -8.12436,-12.00686 -10.8829,-27.99134 -3.59571,-39.96484 a 7.4337796,7.4337796 0 0 0 0.0664,-0.11133 c 7.19265,-12.29326 22.13757,-18.32695 37.04101,-18.19922 z m 111.03907,3.96875 c 0.79215,3.51984 1.57301,7.03555 2.33008,10.54297 -4.42657,-2.61875 -8.86801,-5.01011 -13.35352,-7.35742 3.68446,-1.17156 7.35045,-2.1557 11.02344,-3.18555 z m -85.17188,0.2168 c 3.57517,0.90466 7.16445,1.73714 10.69336,2.87305 -4.4256,2.27029 -8.78854,4.71998 -13.08789,7.34961 0.68749,-3.45992 1.57737,-6.82596 2.39453,-10.22266 z m 42.53516,15.14844 c 17.63068,7.14943 34.15627,17.67779 50.54297,28.8457 1.81478,19.44493 1.8758,39.01596 0.006,58.43555 -16.27662,11.41774 -32.72219,21.96904 -50.35938,29.33984 -17.40136,-8.03456 -34.0819,-17.94884 -50.08594,-28.80664 -2.24761,-19.72986 -2.32665,-39.46223 0.008,-59.08594 15.68146,-11.51536 32.2261,-21.58397 49.88867,-28.72851 z m -1.36914,24.42578 c -20.31328,0.35788 -37.4679,19.51428 -33.03906,40.14062 4.02625,22.62399 30.71379,34.80951 50.69531,23.96094 15.40601,-7.32203 23.42999,-25.82141 16.91797,-42.02344 -5.47785,-13.93573 -19.65084,-22.9404 -34.57422,-22.07812 z m -75.47461,25.86914 c -0.15487,5.42975 -0.0132,10.80826 0.14844,16.19336 -2.85889,-2.55847 -5.55889,-5.27168 -8.28321,-7.95898 2.67087,-2.78195 5.29593,-5.6013 8.13477,-8.23438 z m 153.98437,0.26758 c 2.65395,2.41082 5.18368,4.90393 7.73438,7.3789 -2.56202,2.46117 -5.11882,4.94067 -7.70117,7.35547 0.0866,-4.94047 0.0364,-9.83247 -0.0332,-14.73437 z m 25.01758,27.79492 c 3.49462,5.37827 6.34896,11.21844 7.85742,16.98438 2.10136,8.03219 1.82147,15.60252 -2.05859,22.76562 -7.33788,12.47474 -23.59097,17.18611 -39.39648,17.41211 2.68935,-11.13693 4.65093,-22.37658 6.04492,-33.62695 9.4611,-7.39882 18.67314,-15.2403 27.55273,-23.53516 z m -203.88867,0.0879 c 8.87637,8.16756 18.06418,16.06953 27.76953,23.43164 1.31242,11.56461 3.61863,23.00416 6.35156,34.15039 -15.20961,0.12565 -30.72687,-5.28521 -38.04297,-17.78711 -6.92623,-11.91374 -3.6634,-27.25954 3.92188,-39.79492 z m 56.64648,42.14258 c 4.82766,2.886 9.72439,5.52144 14.64258,8.13672 -4.01177,1.33682 -7.97144,2.47834 -11.86523,3.34375 -1.04286,-3.74999 -1.96559,-7.57766 -2.77735,-11.48047 z m 90.64844,0.16015 c -0.82365,3.77258 -1.80599,7.44188 -2.77148,11.13086 -3.54463,-0.93354 -7.09754,-1.99372 -10.65821,-3.16796 4.58961,-2.55665 9.01626,-5.23741 13.42969,-7.9629 z m -45.08203,23.35352 c 10.81803,4.85906 22.16904,8.54473 33.2793,11.71875 -7.18298,12.90984 -18.60463,23.48033 -32.49414,24.03125 -14.27628,0.45931 -26.99099,-10.63376 -34.55274,-23.94922 11.62532,-3.15851 22.84061,-7.28139 33.76758,-11.80078 z m -42.56055,13.62109 a 7.4337796,7.4337796 0 0 0 0.69922,0.0449 c -0.66494,0.12406 -0.93349,-0.0717 -0.69922,-0.0449 z" />
  <path
     d="m 415.49372,336.68843 c 0,23.43523 -17.4362,35.15026 -52.30516,35.15026 -10.09099,0 -21.13608,-1.23195 -33.13241,-3.69988 -13.79086,42.15677 -31.95498,63.23717 -54.49178,63.23717 -22.09019,0 -40.0287,-21.08097 -53.81956,-63.23717 -11.99863,2.69124 -23.32214,4.03629 -33.97342,4.03629 -34.42233,0 -51.63235,-11.82813 -51.63235,-35.48667 0,-17.37764 10.36941,-38.00969 31.11397,-61.89211 -20.85478,-23.31984 -31.28217,-43.67001 -31.28217,-61.05111 0,-23.88243 16.92873,-35.82306 50.79191,-35.82306 10.4274,0 21.864,1.40302 34.30982,4.20448 14.57447,-42.60569 32.73802,-63.90997 54.4918,-63.90997 22.5368,0 40.70035,21.30428 54.49178,63.91055 12.66857,-2.80146 24.21883,-4.20449 34.64623,-4.20449 13.90109,0 25.22747,2.35483 33.97341,7.06392 11.20986,6.0547 16.81851,15.41777 16.81851,28.08691 0,17.71693 -10.48595,38.29098 -31.45038,61.72391 20.96386,23.54545 31.4498,44.17692 31.4498,61.89097 z M 219.89515,189.02234 c -56.52879,-8.91966 -83.52838,42.35487 -46.92383,80.72849 10.9871,-11.77302 23.48804,-22.59193 37.50509,-32.4596 1.68201,-16.59232 4.81988,-32.68291 9.41874,-48.26889 z m -5.6e-4,172.22075 c -4.48579,-14.46366 -7.62595,-30.32807 -9.41818,-47.59607 -11.88611,-8.74537 -24.61265,-19.61996 -38.17791,-32.62779 -36.37904,45.39417 -5.25026,88.43786 47.59609,80.22386 z m -10.091,-115.87873 c -12.55833,9.64437 -23.37781,19.67737 -32.45958,30.10476 8.85616,9.53128 19.50916,19.11765 31.95498,28.75973 -0.89842,-12.44583 -1.34562,-22.25552 -1.34562,-29.43253 5.8e-4,-9.75459 0.6154,-19.56428 1.85022,-29.43196 z m 127.14771,29.43253 c 0,-11.99632 -0.61769,-23.48803 -1.85022,-34.47802 -6.28089,-4.37268 -15.86784,-10.6507 -28.75972,-18.83693 -9.08178,-5.26881 -19.34096,-10.25919 -30.77757,-14.96885 -18.72671,7.06391 -38.3461,18.33232 -58.86505,33.80521 -1.57123,13.34423 -2.35483,24.83595 -2.35483,34.47802 0,9.53127 0.78303,21.24917 2.35483,35.15025 20.74169,14.35345 40.36453,25.62185 58.86505,33.80521 16.1457,-6.0547 35.99127,-17.54585 59.53729,-34.47802 1.23253,-10.31372 1.85022,-21.80544 1.85022,-34.47687 z m -69.46007,-71.3103 c -14.24093,-6.27801 -28.0318,-10.70581 -41.37373,-13.28683 -2.91685,9.64437 -5.83141,23.88243 -8.74538,42.71878 10.87402,-9.19257 23.20962,-16.92872 37.00105,-23.20961 2.91398,-1.34505 7.28667,-3.41858 13.11806,-6.22234 z m 0.67281,143.29284 c -22.87321,-11.10021 -39.80481,-20.9099 -50.79192,-29.43253 2.80146,18.95002 5.94162,33.1324 9.41818,42.55058 12.44525,-2.12807 26.23725,-6.50134 41.37374,-13.11805 z m 54.49179,19.50973 c -14.91374,-3.13785 -30.38663,-8.35155 -46.41866,-15.64109 -18.16411,7.73673 -34.03139,12.95043 -47.59664,15.64109 22.17238,53.78362 73.62382,52.29036 94.0153,0 z m 0,-182.98454 c -20.25826,-52.28706 -74.89054,-51.3452 -94.0153,0 14.91087,3.25325 30.38318,8.69026 46.41923,16.3139 17.37765,-7.84696 33.24205,-13.28684 47.59607,-16.3139 z m -21.19118,91.82867 c 0,6.84062 -2.58102,12.64273 -7.73674,17.40693 -5.15858,4.76707 -11.15875,7.14773 -17.99592,7.14773 -6.84061,0 -12.8402,-2.38066 -17.99592,-7.14773 -5.15858,-4.7642 -7.73673,-10.56689 -7.73673,-17.40693 0,-6.83774 2.57757,-12.64042 7.73673,-17.40692 5.15515,-4.7642 11.15531,-7.14774 17.99592,-7.14774 6.83717,0 12.83676,2.38354 17.99592,7.14831 5.15572,4.76593 7.73674,10.56861 7.73674,17.40635 z m 32.45958,-42.88697 c -1.00921,-7.73674 -3.92663,-21.91912 -8.74537,-42.55059 -10.99055,2.58045 -25.00472,6.95312 -42.04597,13.11806 16.70542,8.52263 25.33769,12.95042 25.90028,13.28682 8.51862,4.70909 16.81793,10.09099 24.89106,16.14571 z m 0.50461,85.77339 c -12.55891,8.07313 -20.79967,13.23172 -24.72286,15.47288 -9.41818,5.60808 -18.0539,10.03588 -25.90028,13.28684 17.82772,7.06391 31.61859,11.4366 41.37316,13.11862 3.69988,-12.66913 6.78206,-26.62819 9.24998,-41.87834 z m -2.35483,-129.6696 c 4.1465,13.79086 7.23212,29.88145 9.24998,48.26888 15.13648,11.77302 27.46921,22.42602 37.00048,31.95499 36.39429,-41.32136 3.52473,-87.69615 -46.25046,-80.22387 z m 46.92384,92.6697 c -9.98134,10.09098 -22.53681,20.96787 -37.67328,32.62721 -2.01844,17.82772 -5.10406,33.69442 -9.24998,47.59607 60.42589,5.74271 82.96235,-36.87093 46.92326,-80.22328 z m -5.04607,-6.22292 c -7.17701,-7.62364 -17.60441,-17.21002 -31.28217,-28.75971 0.44605,6.28031 0.6728,15.02625 0.6728,26.23668 l 0,6.22291 c 0,10.42739 -0.44949,19.00456 -1.34562,25.73208 7.50998,-6.16494 18.16413,-15.9775 31.95499,-29.43196 z"
     id="path13"
     inkscape:connector-curvature="0"
     sodipodi:nodetypes="sscscsscsscscscscscccccccccccccsccccscccscccccccccccccccccscscscscsccccccccccccccccccccsscc"
     style="color:#000000;clip-rule:nonzero;display:inline;overflow:visible;visibility:visible;opacity:1;isolation:auto;mix-blend-mode:normal;color-interpolation:sRGB;color-interpolation-filters:linearRGB;solid-color:#000000;solid-opacity:1;fill:url(#radialGradient4895);fill-opacity:1;fill-rule:nonzero;stroke:none;stroke-width:1;stroke-linecap:butt;stroke-linejoin:miter;stroke-miterlimit:4;stroke-dasharray:none;stroke-dashoffset:0;stroke-opacity:1;color-rendering:auto;image-rendering:auto;shape-rendering:auto;text-rendering:auto;enable-background:accumulate" />
</svg>
