<svg xmlns="http://www.w3.org/2000/svg" height="72.937" viewBox="0 0 250.999 72.936959" width="251"><g transform="matrix(1.25 0 0 -1.25 -421.78 136.62)"><path d="m167.14 0.82227c-0.24 0-0.39 0.28083-0.56 1.0078-0.14 0.5786-1.24 5.8958-1.24 6.8066 0 0.7374 0.16 0.7949 0.37 0.7949 0.18 0 0.9-0.0444 1.03-0.5937 0.09-0.3447 0.33-1.08 1.03-2.1328 0.97-1.4059 2.53-1.6821 5.9-1.7949l8.51-0.2422v24.559c0 5.466 0 9.69-0.3 12.193-0.16 1.613-0.5 3.142-1.86 3.414-0.47 0.102-1.21 0.24-2.17 0.24-0.79 0-0.79 0.721-0.79 0.815 0 0.106 0 0.433 1.03 0.433 1.34 0 3.11-0.055 4.66-0.105l0.04-0.002c1.18-0.038 2.21-0.072 2.8-0.072 0.65 0 1.6 0.027 2.79 0.06h0.04c1.84 0.054 4.13 0.119 6.52 0.119 0.29 0 0.96-0.041 0.96-0.433 0-0.287 0-0.815-0.79-0.815-0.89 0-2.21-0.121-3.06-0.24-1.96-0.261-2.29-1.801-2.46-3.355-0.29-2.562-0.29-6.786-0.29-12.252v-24.557l7.36 0.1796c6.03 0.1337 7.09 2.2395 7.18 3.4824l0.06 0.6465c0.06 0.9505 0.49 1.0445 0.79 1.0445 0.15 0 0.3-0.0626 0.38-0.8042 0-0.7145 0.11-4.3852 0.13-4.8907 0.03-1.1364 0.6-1.375 1.06-1.375 0.79 0 1.81 0.6957 2.34 1.1114 1 0.8752 2.04 2.0962 3.01 3.5293 2 2.9682 10.04 16.127 10.49 17.172 0.77 1.717 1.38 3.072 1.38 6.308v4.879c0 0.946 0 3.027-0.18 5.526-0.14 2.007-0.83 3.19-1.97 3.419-0.74 0.163-1.43 0.241-2.11 0.241-0.67 0-0.8 0.463-0.8 0.75 0 0.219 0.09 0.433 1.15 0.433 1.2 0 2.88-0.053 4.36-0.101h0.03c1.16-0.038 2.37-0.078 3.05-0.078 0.63 0 1.6 0.027 2.72 0.06l0.06 0.004c1.81 0.052 4.04 0.115 6.32 0.115 0.5 0 1.09-0.074 1.09-0.433 0-0.276-0.11-0.75-0.79-0.75-0.85 0-2.15-0.12-3-0.239-2.09-0.28-2.47-1.974-2.57-3.421-0.18-2.499-0.18-4.58-0.18-5.526v-4.879c0-1.976 0-3.843 0.9-6.01 1.04-2.481 9.4-16.547 11.4-18.968 1.32-1.6234 1.98-2.343 3.26-2.9593 0.89-0.47 2.05-0.7246 2.69-0.7246 0.29 0 0.97-0.0446 0.97-0.4394 0-0.2089-0.31-0.3145-0.91-0.3145v-0.002c-0.53 0-1.68 0.0403-2.89 0.0821l-0.07 0.0019c-1.33 0.046-2.71 0.0957-3.4 0.0957-0.85 0-1.71-0.042-2.63-0.0859-0.96-0.0439-1.95-0.0918-2.97-0.0918-0.79 0-0.85 0.1555-0.85 0.377 0 0.2276 0.52 0.3435 0.95 0.4375 0.9 0.2088 1.37 0.7758 1.37 1.6406 0 0.8585-0.29 1.9231-0.85 3.166-0.42 0.9275-2.51 4.6837-4.54 8.3147-2.01 3.605-4.09 7.331-4.38 8.041l-0.13 0.299-0.16-0.282c-0.18-0.313-0.62-1.076-1.22-2.121l-0.25-0.431c-2.79-4.834-7.99-13.83-8.65-15.248-0.52-1.0303-0.74-1.6536-0.74-2.0922 0-0.5954 0.4-1.1011 0.97-1.2286l0.29-0.0761c0.67-0.1755 0.89-0.2466 0.89-0.4199 0-0.1024 0-0.377-0.73-0.377-1.52 0-2.98 0.0553-4.17 0.1055-0.05 0.0025-11.17 0.0287-14.23 0.0371l-0.03 0.0078h-0.03c-0.03 0-0.05-0.0006-0.07 0.0019h-0.02c-0.03 0.0025-0.06 0.004-0.1 0.004-0.34 0.01-0.7 0.0214-1.12 0.0214h-8.92-14.64c-1.94 0-4.22-0.1187-5.97-0.3047-0.94-0.071-1.53-0.3294-1.96-0.5195-0.24-0.10648-0.43-0.18943-0.58-0.18943zm-44.69 0.35543c-0.16 0-0.36 0.0663-0.55 0.1289-0.12 0.0398-0.25 0.0841-0.37 0.1114-0.43 0.1023-1.3 0.2236-2.58 0.3593-1.03 0.0523-10.76 0.0567-14.9 0.0567-0.77 0-1.99-0.0492-3.4-0.1035l-0.35-0.0117c-0.73 0-1.495-0.0147-2.31-0.0293-0.823-0.0168-1.677-0.0313-2.5-0.0313-1.065 0-1.154 0.1848-1.154 0.377 0 0.1817-0.223 0.666 0.564 0.666 0.811 0 1.856 0.0564 2.364 0.1797 2.118 0.4553 2.561 1.5483 2.672 3.539 0.124 1.9093 0.414 3.2573 0.414 12.338v10.471c0 5.466 0 9.745-0.3 12.25-0.237 1.71-0.537 3.148-1.847 3.412-0.476 0.102-1.223 0.24-2.18 0.24-0.793 0-0.793 0.67-0.793 0.758 0 0.106 0 0.433 1.032 0.433 0.572 0 1.219-0.027 1.902-0.054 0.731-0.032 1.487-0.063 2.206-0.063 1.42-0.063 2.75-0.062 3.39-0.062 1.88 0 3.83 0.073 6.2 0.179 0.48 0.011 1 0.025 1.54 0.039 2.28 0.061 5.12 0.139 8.74 0.139 2.26 0 2.67-0.001 3.06-1.428 0.3-1.172 0.77-5.217 0.77-6.558 0-0.708-0.04-0.914-0.32-0.914-0.26 0-0.81 0.066-0.94 0.761-0.43 2.532-1.21 3.797-2.77 4.518-1.58 0.733-3.68 0.732-5.21 0.732-6.02 0-7.18-0.817-7.3-5.152-0.04-1.228-0.03-4.301-0.01-6.768v-0.037c0-0.979 0.01-1.845 0.01-2.425v-4.704c0-0.225 0-0.754 0.51-0.754 1.34 0 7.3 0.059 8.47 0.18 2.01 0.22 3.11 0.994 3.47 2.44 0.14 0.582 0.17 1.152 0.2 1.658 0.01 0.182 0.03 0.353 0.04 0.512 0 0.284 0.1 0.386 0.38 0.386 0.32 0 0.38-0.34 0.38-0.968 0-0.234 0.05-1.066 0.11-1.946v-0.068c0.05-0.719 0.1-1.46 0.12-1.981 0.16-2.018 0.32-3.136 0.41-3.736 0.05-0.309 0.07-0.493 0.07-0.603 0-0.289-0.13-0.315-0.26-0.315-0.2 0-0.39 0.224-0.72 0.594l-0.11 0.125c-0.57 0.637-1.48 0.824-2.97 0.947-1.19 0.105-6.48 0.119-9.53 0.119-0.57 0-0.57-0.513-0.57-0.818v-15.051c0-0.1858 0-0.7519 0.57-0.7519 1.15 0 7.14 0.1172 8.18 0.2383 3.14 0.3739 3.71 1.2019 4.12 2.2422 0.29 0.7061 0.37 1.7128 0.37 2.1953 0 0.6267 0.46 0.6758 0.66 0.6758 0.24 0 0.36-0.1412 0.44-0.5234 0.07-0.4429 0.15-1.6629 0.21-2.6426 0.03-0.564 0.06-1.0499 0.09-1.2735 0.12-1.8508 0.29-2.771 0.39-3.3183 0.05-0.2381 0.08-0.4081 0.08-0.5293 0-0.3802-0.11-0.3809-0.19-0.3809zm-120.42 0.4785c-1.059 0-1.1484 0.1887-1.1484 0.3809 0.00001 0.1797 0.0663 0.832 0.8496 0.832 0.8251 0 1.536 0.0647 2.0039 0.1817 2.1182 0.4533 2.5645 1.5463 2.6836 3.5371 0.1086 1.9114 0.1094 3.0894 0.1094 12.168v10.473c0 5.466-0.0009 9.817-0.2871 12.322-0.2402 1.711-0.5435 3.149-1.8574 3.412-0.4721 0.102-1.2169 0.24-2.1778 0.24-0.7854 0-0.7851 0.592-0.7851 0.688 0 0.106-0.0004 0.431 1.0273 0.431 0.5828 0 1.2565-0.029 1.9082-0.056h0.0156c0.7249-0.03 1.4777-0.061 2.1817-0.061 1.4225-0.063 2.7514-0.062 3.3906-0.062 2.2377 0 4.3427 0.052 7.2697 0.179 0.599 0.015 1.221 0.03 1.875 0.049h0.021c2.271 0.061 4.844 0.129 8.153 0.129 3.185 0 3.727-0.346 4.039-1.488 0.472-1.688 0.894-6.141 0.894-6.801 0-0.817-0.556-0.854-0.767-0.854v-0.002c-0.276 0-0.429 0.117-0.498 0.754-0.126 1.174-0.866 2.886-1.586 3.661-1.592 1.719-4.139 1.718-7.084 1.718-4.853 0-6.311-0.472-7.303-1.345-1.304-1.118-1.305-5.06-1.305-12.914v-10.473c0-9.0787 0-10.257 0.121-12.168 0.111-1.993 0.53-3.2109 2.332-3.5431 0.75-0.1211 1.721-0.1777 2.352-0.1777 0.842 0 0.91-0.6421 0.91-0.8301 0-0.1838-0.083-0.3809-1.092-0.3809-1.307 0-3.233 0.0554-4.933 0.1036l-0.061 0.0039c-1.328 0.0376-2.477 0.0703-3.095 0.0703-0.7045 0-1.8367-0.0327-3.0337-0.0703-1.6565-0.048-3.5334-0.1075-5.1231-0.1075zm35.399 0c-0.853 0-1.266 0.1034-1.266 0.3165 0 0.2297 0.062 0.7246 0.797 0.7246 0.856 0 1.591 0.0813 2.178 0.2422 1.374 0.3091 2.017 1.35 2.144 3.4765 0.119 1.9114 0.119 3.2633 0.119 12.342v10.471c0 5.855 0 10.153-0.3 12.662-0.178 1.727-0.552 2.848-1.856 3.109-0.733 0.161-1.443 0.24-2.17 0.24-0.796 0-0.797 0.563-0.797 0.649 0 0.106 0.001 0.431 1.035 0.431 1.342 0 3.104-0.055 4.661-0.103l0.037-0.002c1.132-0.038 2.201-0.072 2.799-0.072 0.628 0 1.559 0.025 2.742 0.06 1.851 0.052 4.149 0.117 6.539 0.117 0.292 0 0.972-0.041 0.972-0.431 0-0.287-0.189-0.649-0.796-0.649-0.888 0-2.207-0.119-3.053-0.238-1.841-0.247-2.326-1.35-2.514-3.053-0.242-2.569-0.244-6.865-0.244-12.72v-10.471c0-9.0787 0.002-10.431 0.125-12.342 0.115-1.9928 0.532-3.2109 2.33-3.541 0.696-0.1149 1.188-0.1777 1.811-0.1777 0.733 0 0.795-0.4949 0.795-0.7246 0-0.2089-0.365-0.3165-1.09-0.3165-1.247 0-2.887 0.0556-4.332 0.1036-1.105 0.0355-2.249 0.0742-2.928 0.0742-0.8 0-2.042-0.0385-3.352-0.0781h-0.027c-1.552-0.048-3.152-0.0997-4.359-0.0997zm107.62 0c-0.89 0-2.38 0.0422-3.95 0.084l-0.09 0.002c-1.63 0.046-3.32 0.0918-4.35 0.0918-0.49 0-1.37-0.0253-2.39-0.0567-1.7-0.0542-3.81-0.1191-5.76-0.1191-1.07 0-1.16 0.1869-1.16 0.377 0 0.1817 0.07 0.623 0.86 0.623 0.81 0 1.85 0.0564 2.36 0.1797 2.11 0.4554 2.56 1.5503 2.68 3.541 0.12 1.9114 0.12 3.3004 0.12 12.379v10.471c0 5.464 0 9.747-0.3 12.25-0.24 1.712-0.54 3.148-1.85 3.414-0.48 0.102-1.22 0.24-2.18 0.24-0.79 0-0.79 0.662-0.79 0.756 0 0.106 0 0.431 1.03 0.431 1.41 0 3.3-0.061 4.83-0.111 1.01-0.033 1.96-0.066 2.43-0.066 0.31 0 1.03 0.021 1.94 0.048 1.8 0.053 4.52 0.131 6.8 0.131 1.04 0 1.04-0.325 1.04-0.433 0-0.276-0.01-0.684-0.56-0.684-0.73 0-2.05-0.125-2.93-0.24-1.97-0.261-2.29-1.766-2.46-3.416-0.3-2.501-0.3-6.883-0.3-12.381v-0.834c0-0.414 0.22-0.631 0.64-0.631l5.17 0.115c0.48 0 0.86 0.081 1.2 0.469 0.44 0.516 1.54 2.078 2.81 3.887l0.01 0.021c0.97 1.371 2.06 2.919 3.07 4.317 3.44 4.737 5.64 7.381 8.1 8.697 1.57 0.844 3.1 1.113 6.29 1.113h5.66c0.89 0 0.97-0.212 0.97-0.433 0-0.211-0.19-0.719-0.56-0.719-0.47 0-1.01-0.057-1.69-0.18l-0.07-0.015c-0.93-0.184-3.4-0.676-6.68-4.073-3.06-3.215-6.52-7.185-10.9-12.716l-0.39-0.485c-0.53-0.672-1.07-1.358-1.63-2.062l-0.1-0.123 0.12-0.102c5.46-4.439 7.79-8.386 7.79-13.203 0-4.2114-2.59-7.0878-3.97-8.0215-3.25-2.231-7.32-2.5333-10.86-2.5333zm-84.997 0.002c-1.066 0-1.155 0.1848-1.155 0.377 0 0.1817 0.066 0.8027 0.854 0.8027 0.81 0 1.854 0.0563 2.361 0.1816 2.121 0.4554 2.565 1.5504 2.676 3.5391 0.125 1.9114 0.125 3.1186 0.125 12.199v10.469c0 5.466 0 9.788-0.303 12.293-0.238 1.71-0.544 3.146-1.851 3.41-0.474 0.102-1.215 0.24-2.176 0.24-0.79 0-0.789 0.623-0.789 0.719 0 0.106 0 0.431 1.027 0.431 0.583 0 1.257-0.027 1.907-0.052l0.017-0.002c0.727-0.03 1.477-0.061 2.186-0.061 1.418-0.063 2.749-0.062 3.388-0.062 0.834 0 2.589 0.056 4.471 0.177 0.756 0.027 1.519 0.067 2.191 0.1l0.059 0.002c0.781 0.04 1.52 0.076 1.91 0.076 4.991 0 9.117-1.402 11.94-4.055 2.442-2.293 3.787-5.403 3.787-8.754 0-4.365-2.816-9.995-10.721-12.703l-0.275-0.093 0.228-0.182c3.604-2.887 6.004-5.741 6.004-10.291 0-2.0556-0.904-8.7618-12.51-8.7618-0.915 0-1.906 0.0345-2.957 0.0742-1.27 0.048-2.7 0.1016-4.306 0.1016-0.454 0-1.262-0.0253-2.286-0.0567h-0.015c-1.627-0.0501-3.842-0.1191-5.787-0.1191zm14.334 2.1172c2.993 0 4.793 1.7336 5.775 3.1875 1.147 1.6962 1.832 4.0141 1.832 6.1991 0 2.881-0.866 5.105-2.504 6.432-1.094 0.967-2.544 1.166-4.388 1.166-1.35 0-2.275-0.059-2.831-0.182-0.25-0.06-0.539-0.207-0.539-0.808v-14.702c0-0.6368 0.106-1.0132 0.653-1.1657 0.622-0.1274 1.17-0.1269 2.002-0.1269zm69.533 0.3633c3.44 0 9.26 2.3258 9.26 11.043 0 5.602-2.24 8.079-3.58 9.056-1.08 0.786-1.86 1.047-4.32 1.047-1.71 0-3.42-0.227-4.56-0.607-0.5-0.209-0.65-0.496-0.65-1.225v-18.09c0-0.4112 0.08-0.8149 0.65-0.9841 0.55-0.1692 1.51-0.2402 3.2-0.2402zm-71.674 18.74c0.903 0 1.499 0 2.574 0.06 2.315 0.12 3.723 0.528 5.02 1.457 5.268 3.679 5.836 9.6 5.836 11.975 0 2.789-0.893 4.89-2.656 6.25-1.778 1.37-3.883 1.52-4.704 1.52-1.387 0-2.766-0.057-4.4-0.719-1.982-0.809-2.184-1.832-2.184-5.863v-14.106c0-0.476 0.28-0.574 0.514-0.574zm-39.678 32.728c-0.204 0-0.267 0.286-0.267 0.698-0.042 2.73-0.123 7.801-0.184 12.15-0.021 1.786-0.102 2.38-0.637 2.545-0.286 0.081-0.656 0.104-0.923 0.104-0.205 0-0.328 0.038-0.328 0.162 0 0.186 0.183 0.207 0.451 0.207 1.067 0 2.033-0.063 2.216-0.063 0.391 0 1.213 0.063 2.545 0.063 0.289 0 0.473-0.042 0.473-0.207 0-0.124-0.124-0.162-0.35-0.162-0.328 0-0.719-0.022-1.068-0.145-0.409-0.144-0.675-0.677-0.715-2.279l-0.228-8.682c0.369 0.391 2.71 3.018 4.947 5.234 2.135 2.114 4.762 4.803 6.055 6.034 0.225 0.227 0.471 0.453 0.697 0.453 0.184 0 0.266-0.186 0.266-0.637 0.083-4.33 0.145-8.621 0.228-12.951 0.019-1.149 0.183-1.579 0.758-1.744 0.246-0.061 0.412-0.061 0.617-0.061 0.247 0 0.369-0.062 0.369-0.185 0-0.163-0.207-0.184-0.472-0.184-1.007 0-1.787 0.061-2.012 0.061-0.43 0-1.415-0.061-2.483-0.061-0.307 0-0.533 0.021-0.533 0.184 0 0.123 0.082 0.185 0.328 0.185 0.287 0 0.779 0 1.086 0.123 0.493 0.205 0.679 0.595 0.7 1.846l0.205 9.318c-0.349-0.326-3.224-3.388-4.62-4.783-2.995-2.975-6.116-6.32-6.363-6.588-0.349-0.367-0.532-0.635-0.758-0.635zm167.2 0.061c-0.13 0-0.19 0.123-0.25 0.391-0.04 0.163-0.43 2.031-0.43 2.361 0 0.226 0.04 0.328 0.19 0.328 0.12 0 0.18-0.081 0.22-0.246s0.14-0.412 0.35-0.719c0.31-0.451 0.8-0.554 1.99-0.595 1-0.021 2.28-0.062 3.06-0.083v8.415c0 1.888 0 3.51-0.1 4.373-0.06 0.595-0.19 1.045-0.6 1.127-0.18 0.041-0.43 0.082-0.74 0.082-0.25 0-0.33 0.063-0.33 0.166 0 0.144 0.15 0.203 0.41 0.203 0.83 0 2.12-0.061 2.59-0.061 0.58 0 1.87 0.061 3.22 0.061 0.23 0 0.39-0.059 0.39-0.203 0-0.103-0.1-0.166-0.33-0.166-0.3 0-0.75-0.041-1.04-0.082-0.62-0.082-0.74-0.533-0.8-1.108-0.11-0.884-0.11-2.504-0.11-4.392v-8.415c1.21 0.021 2.06 0.04 2.59 0.061 1.83 0.042 2.38 0.616 2.42 1.15 0 0.061 0.02 0.164 0.02 0.227 0.02 0.307 0.06 0.41 0.23 0.41 0.12 0 0.16-0.123 0.18-0.328 0-0.535 0.06-1.952 0.06-2.383 0-0.307-0.02-0.43-0.16-0.43-0.08 0-0.24 0.039-0.55 0.102-0.31 0.042-0.76 0.104-1.42 0.104h-8.13c-0.68 0-1.45-0.043-2.05-0.104-0.51-0.042-0.72-0.246-0.88-0.246zm-36.46 0.002c-2.85 0-4.74 1.621-4.74 3.877 0 1.663 0.78 3.1 3.04 4.865l0.94 0.738c1.71 1.333 2.02 2.279 2.02 3.286 0 1.086-0.91 2.339-2.76 2.339-1.27 0-2.48-0.555-2.93-2.076-0.1-0.347-0.19-0.777-0.19-1.045 0-0.163-0.02-0.349-0.2-0.349-0.16 0-0.23 0.228-0.25 0.535-0.02 0.328-0.1 1.559-0.1 2.687 0 0.452 0.06 0.555 0.39 0.7 0.88 0.39 1.8 0.531 3 0.531 1.08 0 2.23-0.184 3.26-0.84 1.48-0.965 1.93-2.382 1.93-3.572 0-1.949-0.88-3.365-3.37-5.233l-0.57-0.431c-1.71-1.293-2.18-2.011-2.18-2.957 0-1.231 0.93-2.114 2.44-2.114 1.34 0 1.93 0.618 2.24 1.008 0.43 0.533 0.54 1.17 0.54 1.354 0 0.246 0.06 0.369 0.2 0.369 0.17 0 0.23-0.164 0.23-0.617 0-1.601 0.08-2.194 0.08-2.459 0-0.145-0.1-0.209-0.29-0.248-0.22-0.063-0.49-0.123-0.84-0.186-0.49-0.081-1.11-0.162-1.89-0.162zm-47.1 0.121c-0.1 0-0.22 0.063-0.33 0.082-0.16 0.042-0.49 0.083-0.88 0.123-0.39 0.021-5.08 0.022-5.74 0.022-1.07 0-2.01-0.061-2.96-0.061-0.3 0-0.45 0.039-0.45 0.184 0 0.144 0.13 0.183 0.35 0.183 0.29 0 0.64 0.021 0.8 0.063 0.68 0.144 0.85 0.472 0.88 1.17 0.05 0.656 0.05 1.232 0.05 4.351v3.612c0 1.888 0 3.51-0.11 4.373-0.08 0.595-0.18 1.045-0.59 1.127-0.19 0.041-0.43 0.084-0.74 0.084-0.25 0-0.33 0.059-0.33 0.162 0 0.144 0.14 0.207 0.41 0.207 0.93 0 1.77-0.063 2.59-0.063 2.05 0 4.47 0.123 6.29 0.123 0.78 0 0.97 0 1.11-0.533 0.1-0.412 0.27-1.805 0.27-2.277 0-0.205 0-0.371-0.17-0.371-0.14 0-0.18 0.083-0.22 0.308-0.15 0.842-0.39 1.273-0.93 1.52-0.53 0.246-1.39 0.246-1.93 0.246-2.09 0-3.03-0.309-3.07-1.725-0.02-0.595 0-2.484 0-3.181v-1.622c0-0.123 0.02-0.205 0.12-0.205 0.5 0 3.14 0.021 3.53 0.061 0.76 0.083 1.05 0.391 1.15 0.801 0.06 0.267 0.06 0.391 0.08 0.595 0 0.103 0.04 0.33 0.18 0.33 0.19 0 0.19-0.227 0.19-0.39 0-0.144 0.06-0.966 0.08-1.375 0.08-1.049 0.17-1.377 0.17-1.5s-0.07-0.162-0.15-0.162c-0.1 0-0.18 0.1-0.32 0.265-0.19 0.205-0.5 0.267-0.99 0.309-0.47 0.04-3.44 0.039-3.89 0.039-0.13 0-0.15-0.08-0.15-0.225v-5.191c0-0.144 0.04-0.205 0.15-0.205 0.41 0 3.17 0.04 3.52 0.082 1.03 0.123 1.23 0.368 1.37 0.738 0.11 0.245 0.13 0.575 0.13 0.656 0 0.247 0.04 0.37 0.18 0.37 0.15 0 0.19-0.123 0.21-0.225 0.04-0.246 0.08-1.151 0.1-1.355 0.06-0.945 0.16-1.192 0.16-1.334 0-0.105-0.02-0.186-0.12-0.186zm-113.49 0.164c-0.3071 0-0.4512 0.041-0.4512 0.186 0 0.144 0.124 0.183 0.3496 0.183 0.2883 0 0.6359 0.023 0.7989 0.065 0.6768 0.142 0.843 0.468 0.8847 1.168 0.0397 0.656 0.0391 1.23 0.0391 4.349v2.998c0 2.975 0.7816 4.496 1.8281 5.44 1.4978 1.353 3.4664 1.416 4.555 1.416 1.332 0 2.813-0.225 4.271-1.479 1.724-1.477 1.947-3.901 1.947-6.177v-2.198c0-3.119 0.002-3.693 0.041-4.349 0.042-0.719 0.207-1.066 0.76-1.168 0.247-0.042 0.37-0.065 0.596-0.065 0.246 0 0.369-0.039 0.369-0.183 0-0.145-0.143-0.186-0.43-0.186-0.802 0-2.095 0.063-2.341 0.063-0.019 0-1.313-0.063-2.36-0.063-0.288 0-0.431 0.041-0.431 0.186 0 0.144 0.124 0.183 0.349 0.183 0.226 0 0.576 0.023 0.738 0.065 0.677 0.142 0.843 0.468 0.885 1.168 0.04 0.656 0.039 1.23 0.039 4.349v2.569c0 2.114-0.061 3.959-1.191 5.087-0.821 0.821-1.928 1.11-2.832 1.11-0.698 0-1.6413-0.082-2.5646-0.842-1.0048-0.821-1.6016-2.072-1.6016-5.049v-2.875c0-3.119 0.0014-3.693 0.0411-4.349 0.0417-0.719 0.2062-1.066 0.7597-1.168 0.2465-0.042 0.3701-0.065 0.5957-0.065 0.2047 0 0.3282-0.039 0.3282-0.183 0-0.145-0.1421-0.186-0.4512-0.186-0.7395 0-2.0326 0.063-2.5235 0.063-0.6162 0-1.9097-0.063-2.998-0.063zm75.385 0c-0.308 0-0.534 0.021-0.534 0.186 0 0.123 0.063 0.185 0.246 0.185 0.165 0 0.494-0.001 0.801 0.08 0.74 0.205 1.089 0.433 1.561 1.561l5.172 12.541c0.388 0.965 0.514 1.252 0.779 1.252 0.288 0 0.411-0.329 0.943-1.52 0.452-1.025 1.417-3.264 2.731-6.26 1.107-2.525 1.663-3.632 2.463-5.562 0.553-1.314 0.863-1.662 1.129-1.846 0.369-0.246 0.799-0.246 1.005-0.246 0.205 0 0.329-0.043 0.329-0.185 0-0.145-0.165-0.186-0.43-0.186-0.616 0-1.581 0.063-1.93 0.063-0.267 0-1.131-0.063-2.154-0.063-0.391 0-0.576 0.042-0.576 0.205 0 0.144 0.164 0.166 0.347 0.166 0.268 0 0.576 0.02 0.823 0.102 0.186 0.062 0.267 0.225 0.267 0.39 0 0.184-0.081 0.493-0.183 0.758-0.493 1.356-3.203 8.068-4.086 10.324-1.068-2.832-2.443-6.466-3.571-9.42-0.288-0.739-0.472-1.312-0.472-1.58 0-0.183 0.061-0.329 0.205-0.431 0.165-0.123 0.471-0.143 0.799-0.143 0.186 0 0.31-0.043 0.31-0.185 0-0.145-0.226-0.186-0.472-0.186-1.026 0-2.012 0.063-2.526 0.063-0.716 0-1.888-0.063-2.976-0.063zm146.2 0c-0.24 0-0.39 0.063-0.39 0.184 0 0.144 0.15 0.187 0.31 0.187 0.25 0 0.59 0.124 0.86 0.268 0.39 0.225 0.91 0.735 1.42 1.496 0.72 1.067 3.47 5.582 3.61 5.91 0.27 0.595 0.47 1.049 0.47 2.156v1.684c0 0.328 0 1.19-0.06 2.051-0.04 0.595-0.22 1.047-0.64 1.13-0.18 0.04-0.43 0.083-0.71 0.083-0.23 0-0.33 0.061-0.33 0.164 0 0.163 0.16 0.205 0.45 0.205 0.76 0 2.05-0.063 2.57-0.063 0.55 0 1.84 0.063 3.14 0.063 0.26 0 0.43-0.063 0.43-0.205 0-0.103-0.1-0.164-0.33-0.164-0.29 0-0.74-0.043-1.03-0.083-0.61-0.083-0.8-0.535-0.84-1.13-0.06-0.861-0.06-1.723-0.06-2.051v-1.684c0-0.677 0-1.313 0.31-2.051 0.37-0.883 3.24-5.708 3.92-6.529 0.45-0.553 0.67-0.799 1.11-1.004 0.3-0.165 0.69-0.246 0.9-0.246 0.22 0 0.39-0.061 0.39-0.205 0-0.123-0.14-0.166-0.37-0.166-0.39 0-1.74 0.063-2.2 0.063-0.59 0-1.25-0.063-1.93-0.063-0.24 0-0.34 0.042-0.34 0.184 0 0.125 0.18 0.165 0.36 0.207 0.35 0.081 0.44 0.307 0.44 0.511 0 0.268-0.09 0.618-0.29 1.069-0.29 0.637-2.87 5.151-3.08 5.644-0.33-0.574-3.2-5.52-3.49-6.136-0.14-0.287-0.25-0.535-0.25-0.7 0-0.163 0.11-0.327 0.29-0.367 0.31-0.083 0.45-0.103 0.45-0.228 0-0.121-0.1-0.184-0.3-0.184-0.93 0-1.77 0.063-2.2 0.063-0.68 0-2.22-0.063-2.59-0.063zm-163.83 0.002c-0.328 0-0.492 0.039-0.492 0.162 0 0.165 0.123 0.205 0.33 0.205 0.246 0 0.512 0.022 0.738 0.084 0.451 0.103 0.658 0.451 0.697 1.149 0.042 0.656 0.041 1.232 0.041 4.351v3.612c0 1.99 0.001 3.611-0.101 4.474-0.063 0.595-0.187 0.944-0.596 1.026-0.184 0.041-0.431 0.084-0.74 0.084-0.247 0-0.328 0.059-0.328 0.162 0 0.144 0.144 0.207 0.412 0.207 0.821 0 2.114-0.063 2.586-0.063 0.553 0 1.847 0.063 3.201 0.063 0.225 0 0.39-0.063 0.39-0.207 0-0.103-0.102-0.162-0.328-0.162-0.309 0-0.76-0.043-1.047-0.084-0.616-0.082-0.759-0.451-0.82-1.004-0.083-0.884-0.084-2.506-0.084-4.496v-3.612c0-3.119-0.001-3.695 0.041-4.351 0.042-0.719 0.206-1.068 0.76-1.17 0.248-0.042 0.41-0.063 0.615-0.063 0.207 0 0.33-0.04 0.33-0.205 0-0.123-0.164-0.162-0.431-0.162-0.78 0-1.992 0.061-2.506 0.061-0.594 0-1.887-0.061-2.668-0.061zm70.661 0c-0.31 0-0.45 0.039-0.45 0.184 0 0.144 0.12 0.183 0.35 0.183 0.28 0 0.63 0.021 0.8 0.063 0.67 0.144 0.84 0.472 0.88 1.17 0.04 0.656 0.04 1.23 0.04 4.351v3.612c0 1.888 0 3.51-0.1 4.373-0.09 0.595-0.19 1.045-0.6 1.127-0.18 0.041-0.43 0.082-0.74 0.082-0.24 0-0.33 0.061-0.33 0.164 0 0.144 0.15 0.205 0.41 0.205 0.83 0 2.12-0.061 2.51-0.061 0.31 0 1.83 0.061 3.02 0.061 0.26 0 0.41-0.061 0.41-0.205 0-0.103-0.09-0.164-0.25-0.164-0.25 0-0.7-0.041-1.01-0.082-0.61-0.082-0.74-0.532-0.8-1.127-0.1-0.863-0.1-2.484-0.1-4.393v-0.287c0-0.123 0.06-0.166 0.16-0.166l1.73 0.043c0.14 0 0.27 0.021 0.37 0.144 0.26 0.307 1.21 1.702 2.03 2.832 1.15 1.58 1.93 2.544 2.81 3.016 0.54 0.286 1.05 0.389 2.2 0.389h2.01c0.25 0 0.39-0.04 0.39-0.205 0-0.103-0.08-0.164-0.25-0.164-0.16 0-0.35-0.019-0.57-0.061-0.31-0.061-1.13-0.204-2.28-1.395-1.21-1.272-2.63-3.122-4.45-5.419 2.07-1.684 2.69-3.058 2.69-4.577 0-1.374-0.82-2.421-1.4-2.812-1.11-0.76-2.48-0.881-3.78-0.881-0.63 0-2.19 0.061-2.89 0.061-0.43 0-1.72-0.061-2.81-0.061zm49.71 0c-0.33 0-0.49 0.039-0.49 0.162 0 0.165 0.12 0.205 0.33 0.205 0.24 0 0.51 0.022 0.74 0.084 0.45 0.103 0.65 0.451 0.69 1.149 0.05 0.656 0.05 1.232 0.05 4.351v3.612c0 1.99 0 3.611-0.11 4.474-0.06 0.595-0.18 0.944-0.59 1.026-0.19 0.041-0.43 0.084-0.74 0.084-0.25 0-0.33 0.059-0.33 0.162 0 0.144 0.15 0.207 0.41 0.207 0.82 0 2.12-0.063 2.59-0.063 0.55 0 1.84 0.063 3.2 0.063 0.22 0 0.39-0.063 0.39-0.207 0-0.103-0.1-0.162-0.33-0.162-0.31 0-0.76-0.043-1.05-0.084-0.61-0.082-0.76-0.451-0.82-1.004-0.08-0.884-0.08-2.506-0.08-4.496v-3.612c0-3.119 0-3.695 0.04-4.351 0.04-0.719 0.21-1.068 0.76-1.17 0.25-0.042 0.41-0.063 0.62-0.063 0.2 0 0.33-0.04 0.33-0.205 0-0.123-0.17-0.162-0.44-0.162-0.78 0-1.99 0.061-2.5 0.061-0.6 0-1.89-0.061-2.67-0.061zm-44.4 0.963c1.21 0 3.14 0.842 3.14 3.756 0 1.683-0.59 2.627-1.21 3.078-0.37 0.267-0.63 0.35-1.45 0.35-0.52 0-1.13-0.061-1.56-0.206-0.15-0.062-0.19-0.143-0.19-0.369v-6.24c0-0.165 0.04-0.245 0.19-0.285 0.2-0.063 0.57-0.084 1.08-0.084z" transform="matrix(.8 0 0 -.8 337.42 109.29)" fill="#0a254e"/></g></svg>
