<?xml version="1.0" encoding="utf-8"?>
<!-- Generator: Adobe Illustrator 22.0.1, SVG Export Plug-In . SVG Version: 6.00 Build 0)  -->
<svg version="1.1" id="Layer_1" xmlns="http://www.w3.org/2000/svg" xmlns:xlink="http://www.w3.org/1999/xlink" x="0px" y="0px"
	 width="300.1px" height="23.48px" viewBox="0 0 300.1 23.48" enable-background="new 0 0 300.1 23.48" xml:space="preserve">
<g>
	<path fill="#0078AE" d="M10.17,13.61V4.66c0-1.7-0.35-1.9-1.01-1.97C8.45,2.61,8.37,2.53,8.37,2.31c0-0.18,0.1-0.33,0.53-0.33
		c0.28,0,0.68,0.1,1.59,0.1c1.04,0,1.29-0.1,1.67-0.1c0.25,0,0.51,0.13,0.51,0.33c0,0.25-0.15,0.33-0.81,0.38
		c-0.58,0.05-0.99,0.41-0.99,1.27v9.38c0,3.49-1.7,4.98-4.4,4.98c-2.63,0-5.01-0.68-5.01-3.72V3.7c0-0.63-0.1-0.96-0.46-1.01
		C0.13,2.56,0.05,2.46,0.05,2.26c0-0.15,0.13-0.28,0.35-0.28c0.48,0,0.99,0.1,2.35,0.1c1.59,0,2.45-0.1,2.63-0.1
		c0.3,0,0.43,0.13,0.43,0.28c0,0.25-0.15,0.28-0.94,0.43c-0.63,0.1-0.94,0.35-0.94,1.16v10.17c0,2.28,1.14,3.44,3.16,3.44
		C8.78,17.46,10.17,16.24,10.17,13.61 M19.86,16.5c0,0.56-0.13,0.68-0.88,0.91c-0.35,0.1-0.43,0.15-0.43,0.35
		c0,0.18,0.15,0.25,0.46,0.25c0.61,0,1.24-0.1,1.85-0.1c1.29,0,1.87,0.1,2.18,0.1c0.2,0,0.33-0.1,0.33-0.2c0-0.2-0.08-0.3-0.58-0.4
		c-0.61-0.1-0.83-0.41-0.83-0.91V9.26c0-2.33-1.21-3.19-2.78-3.19c-1.47,0-2.15,0.99-2.98,2h-0.05V6.33c0-0.3-0.05-0.4-0.2-0.4
		c-0.33,0-0.18,0.28-1.62,1.06c-1.04,0.56-1.54,0.51-1.54,0.86c0,0.28,0.4,0.18,0.76,0.28c0.41,0.13,0.53,0.2,0.53,0.96v7.08
		c0,0.86-0.2,1.04-0.89,1.19c-0.33,0.08-0.53,0.18-0.53,0.38c0,0.23,0.13,0.28,0.41,0.28c0.4,0,1.19-0.1,2-0.1
		c1.04,0,1.72,0.1,2.2,0.1c0.23,0,0.3-0.1,0.3-0.25c0-0.13-0.08-0.2-0.58-0.35c-0.53-0.15-0.83-0.35-0.83-1.14V9.24
		c0.43-1.24,1.21-1.9,2.18-1.9c0.91,0,1.57,0.58,1.57,2.05V16.5z M27.32,6.43c0-0.28-0.08-0.35-0.23-0.35
		c-0.2,0-0.76,0.73-2.73,1.24c-0.3,0.08-0.48,0.1-0.48,0.38c0,0.25,0.2,0.28,0.48,0.33c0.51,0.1,0.89,0.13,0.89,0.81v7.34
		c0,0.86-0.2,0.91-1.19,1.19c-0.28,0.08-0.53,0.18-0.53,0.38c0,0.23,0.13,0.28,0.4,0.28c0.4,0,1.19-0.1,2.3-0.1
		c1.04,0,1.7,0.1,2.18,0.1c0.35,0,0.43-0.15,0.43-0.3c0-0.13-0.15-0.25-0.58-0.3c-0.71-0.08-0.94-0.35-0.94-1.14V6.43z M26.33,1.83
		c-0.71,0-1.16,0.66-1.16,1.42c0,0.76,0.46,1.42,1.16,1.42c0.71,0,1.16-0.66,1.16-1.42C27.5,2.48,27.04,1.83,26.33,1.83
		 M32.83,17.69c0.08,0.25,0.15,0.63,0.46,0.63c0.3,0,0.35-0.38,0.43-0.63l3.11-9.56c0.23-0.71,0.33-1.04,0.78-1.14
		c0.25-0.05,0.33-0.1,0.33-0.33c0-0.2-0.13-0.28-0.23-0.28c-0.2,0-0.56,0.1-1.29,0.1c-0.58,0-1.49-0.1-1.57-0.1
		c-0.18,0-0.33,0.1-0.33,0.33c0,0.23,0.18,0.25,0.41,0.28c0.96,0.1,1.09,0.38,1.09,0.76c0,0.33-0.08,0.66-0.91,3.24
		c-0.94,2.96-0.94,3.29-1.16,3.29c-0.18,0-0.23-0.23-1.19-3.41c-0.89-2.99-1.06-3.26-1.06-3.47c0-0.28,0.18-0.33,0.83-0.4
		c0.35-0.03,0.48-0.1,0.48-0.3c0-0.2-0.08-0.3-0.38-0.3c-0.13,0-1.04,0.1-1.87,0.1c-0.94,0-1.67-0.1-2.02-0.1
		c-0.2,0-0.33,0.15-0.33,0.28c0,0.23,0.15,0.25,0.56,0.33c0.35,0.08,0.4,0.1,0.56,0.56L32.83,17.69z M45.88,11.59
		c0.56,0,0.76-0.18,0.76-1.04c0-2.2-1.19-4.48-3.82-4.48c-2.99,0-4.81,2.99-4.81,6.25c0,3.9,2.05,5.99,4.6,5.99
		c2.83,0,4.02-2.35,4.02-2.98c0-0.2-0.08-0.3-0.28-0.3c-0.53,0-0.38,2.02-3.04,2.02c-1.92,0-2.98-2.15-2.98-4.58
		c0-0.81,0.1-0.89,0.53-0.89H45.88z M42.9,6.68c1.24,0,1.67,1.44,1.67,2.5c0,1.47-0.68,1.8-3.06,1.8c-0.83,0-1.06-0.13-1.06-0.53
		C40.44,9.95,40.8,6.68,42.9,6.68 M51.22,10.93c0-1.77,0.66-3.29,1.52-3.29c0.43,0,0.33,0.46,0.48,0.96
		c0.13,0.46,0.35,0.76,0.96,0.76c0.78,0,1.24-0.86,1.24-1.67c0-0.86-0.66-1.62-1.57-1.62c-1.72,0-2.78,2.58-2.88,2.58
		c-0.02,0-0.05-0.02-0.05-0.1V6.58c0-0.4-0.05-0.61-0.18-0.61c-0.23,0-0.23,0.33-1.26,0.91c-1.49,0.83-1.95,0.68-1.95,1.06
		c0,0.2,0.25,0.25,0.58,0.3c0.4,0.05,0.89,0.13,0.89,0.71v7.21c0,0.83-0.08,1.09-0.86,1.24c-0.63,0.13-0.76,0.2-0.76,0.4
		c0,0.15,0.15,0.2,0.33,0.2c0.46,0,1.26-0.1,2.58-0.1c1.49,0,2.3,0.1,2.73,0.1c0.2,0,0.28-0.13,0.28-0.23c0-0.2-0.08-0.25-1.01-0.38
		c-0.78-0.1-1.06-0.51-1.06-1.42V10.93z M56.12,17.46c0,0.46,1.57,0.86,2.63,0.86c2.63,0,4.45-1.64,4.45-3.77
		c0-3.82-5.36-3.52-5.36-6.17c0-0.99,0.66-1.69,1.72-1.69c2.28,0,1.9,2.5,2.61,2.5c0.38,0,0.46-0.15,0.46-0.96
		c0-1.52-0.02-1.67-0.33-1.8c-0.41-0.18-1.44-0.35-2.33-0.35c-1.75,0-3.9,1.16-3.9,3.39c0,3.21,5.36,3.09,5.36,6.05
		c0,1.24-0.71,2.2-1.87,2.2c-1.21,0-1.9-0.83-2.35-2.18c-0.33-0.94-0.48-1.16-0.71-1.16c-0.25,0-0.38,0.15-0.38,0.48V17.46z
		 M67.4,6.43c0-0.28-0.08-0.35-0.23-0.35c-0.2,0-0.76,0.73-2.73,1.24c-0.3,0.08-0.48,0.1-0.48,0.38c0,0.25,0.2,0.28,0.48,0.33
		c0.51,0.1,0.89,0.13,0.89,0.81v7.34c0,0.86-0.2,0.91-1.19,1.19c-0.28,0.08-0.53,0.18-0.53,0.38c0,0.23,0.13,0.28,0.41,0.28
		c0.4,0,1.19-0.1,2.3-0.1c1.04,0,1.7,0.1,2.18,0.1c0.35,0,0.43-0.15,0.43-0.3c0-0.13-0.15-0.25-0.58-0.3
		c-0.71-0.08-0.94-0.35-0.94-1.14V6.43z M66.41,1.83c-0.71,0-1.16,0.66-1.16,1.42c0,0.76,0.46,1.42,1.16,1.42
		c0.71,0,1.16-0.66,1.16-1.42C67.57,2.48,67.12,1.83,66.41,1.83 M72.53,3.62c0-0.23-0.13-0.38-0.25-0.38
		c-0.46,0-0.38,1.09-1.67,2.48c-0.91,0.99-1.37,1.09-1.37,1.39c0,0.15,0.03,0.23,0.25,0.23h0.68c0.2,0,0.28,0.1,0.28,0.41v7.54
		c0,1.67,0.43,3.04,1.92,3.04c1.64,0,2.43-2.02,2.43-2.4c0-0.23-0.08-0.33-0.23-0.33c-0.35,0-0.58,1.21-1.29,1.21
		c-0.51,0-0.76-0.43-0.76-1.54V7.49c0-0.05,0.02-0.15,0.13-0.15h1.49c0.25,0,0.3-0.1,0.3-0.43c0-0.33-0.05-0.43-0.3-0.43h-1.62V3.62
		z M78.63,18.27l-0.41,1.47c-0.35,1.31-0.51,1.37-1.52,1.37c-1.11,0-1.19,0.13-1.19,1.19c0,1.04,0.13,1.19,1.14,1.19
		c0.96,0,1.11-0.33,1.31-0.99l4.38-13.94c0.28-0.86,0.58-1.49,1.06-1.57c0.2-0.03,0.35-0.18,0.35-0.35c0-0.13-0.08-0.25-0.28-0.25
		c-0.2,0-0.58,0.1-1.37,0.1c-0.71,0-1.11-0.1-1.42-0.1c-0.28,0-0.41,0.1-0.41,0.35c0,0.18,0.1,0.2,0.46,0.25
		c0.66,0.1,0.99,0.35,0.99,0.86c0,0.18-0.1,0.46-0.18,0.76l-1.67,5.39c-0.13,0.35-0.15,0.68-0.38,0.68c-0.25,0-0.15-0.25-1.27-3.59
		c-0.94-2.83-1.01-3.19-1.01-3.39c0-0.43,0.2-0.53,0.96-0.71c0.3-0.08,0.43-0.13,0.43-0.33c0-0.2-0.13-0.28-0.41-0.28
		c-0.15,0-0.88,0.1-1.87,0.1c-0.99,0-1.59-0.1-1.85-0.1c-0.28,0-0.38,0.13-0.38,0.3c0,0.23,0.15,0.25,0.38,0.3
		c0.46,0.1,0.43,0.43,2.17,5.57L78.63,18.27z M93.93,18.32c2.81,0,4.86-2.86,4.86-6.12c0-3.26-2.05-6.12-4.86-6.12
		c-2.81,0-4.86,2.86-4.86,6.12C89.07,15.46,91.12,18.32,93.93,18.32 M96.46,12.2c0,2.35-0.89,5.51-2.53,5.51
		c-1.64,0-2.53-3.16-2.53-5.51c0-2.35,0.88-5.51,2.53-5.51C95.57,6.68,96.46,9.84,96.46,12.2 M103,7.72c0-0.28,0.08-0.38,0.28-0.38
		h1.82c0.13,0,0.2-0.05,0.2-0.43c0-0.38-0.08-0.43-0.2-0.43h-1.69c-0.33,0-0.4-0.15-0.4-1.16c0-3.34,0.15-4.45,0.96-4.45
		c0.68,0,0.78,2.15,1.52,2.15c0.41,0,0.53-0.15,0.68-0.99c0.1-0.56,0.13-0.76,0.13-1.11c0-0.51-0.46-0.91-1.64-0.91
		c-2.25,0-3.72,1.82-3.72,5.67c0,0.68-0.23,0.76-0.66,0.91c-0.38,0.13-0.66,0.25-0.66,0.51c0,0.73,1.31,0,1.31,0.96v8.04
		c0,0.91-0.15,1.11-1.09,1.32c-0.35,0.08-0.43,0.18-0.43,0.33c0,0.18,0.13,0.28,0.38,0.28c0.76,0,1.52-0.1,2.28-0.1
		c0.86,0,2.05,0.1,2.58,0.1c0.28,0,0.38-0.08,0.38-0.28c0-0.2-0.18-0.25-0.48-0.33C103.26,17.08,103,17,103,16.14V7.72z
		 M115.25,8.96c-0.28,0-0.41-0.15-0.41-0.4V3.8c0-0.66,0.15-0.99,0.68-1.11c0.91-0.23,1.16-0.1,1.16-0.46
		c0-0.18-0.15-0.25-0.33-0.25c-0.51,0.03-1.06,0.1-2.53,0.1c-1.44,0-2-0.1-2.5-0.1c-0.33,0-0.46,0.13-0.46,0.35
		c0,0.33,0.53,0.2,0.99,0.35c0.33,0.1,0.51,0.25,0.51,0.86v12.55c0,0.81-0.18,0.99-1.01,1.21c-0.48,0.13-0.61,0.15-0.61,0.4
		c0,0.25,0.1,0.3,0.4,0.3c0.35,0,1.14-0.1,2.6-0.1c1.19,0,1.87,0.1,2.33,0.1c0.33,0,0.48-0.08,0.48-0.35c0-0.23-0.25-0.25-0.56-0.35
		c-1.06-0.35-1.16-0.4-1.16-1.14v-6.1c0-0.25,0.13-0.4,0.41-0.4h4.35c0.28,0,0.41,0.15,0.41,0.4v5.92c0,0.91-0.33,1.24-0.91,1.32
		c-0.68,0.08-0.76,0.1-0.76,0.35c0,0.2,0.1,0.35,0.33,0.35c0.41,0,1.14-0.1,2.56-0.1c1.75,0,2,0.1,2.4,0.1
		c0.33,0,0.48-0.05,0.48-0.25c0-0.33-0.2-0.28-0.71-0.46c-0.78-0.28-0.91-0.51-0.91-1.11V3.44c0-0.53,0.15-0.63,0.78-0.76
		c0.58-0.13,0.76-0.2,0.76-0.43c0-0.18-0.08-0.28-0.4-0.28c-0.43,0-0.66,0.1-2.35,0.1c-1.59,0-2.18-0.1-2.48-0.1
		c-0.25,0-0.41,0.15-0.41,0.33s0.1,0.3,0.73,0.38c0.81,0.1,0.89,0.23,0.89,1.11v4.76c0,0.25-0.13,0.4-0.41,0.4H115.25z
		 M129.94,18.32c2.81,0,4.86-2.86,4.86-6.12c0-3.26-2.05-6.12-4.86-6.12s-4.86,2.86-4.86,6.12
		C125.09,15.46,127.13,18.32,129.94,18.32 M132.47,12.2c0,2.35-0.89,5.51-2.53,5.51c-1.64,0-2.53-3.16-2.53-5.51
		c0-2.35,0.89-5.51,2.53-5.51C131.59,6.68,132.47,9.84,132.47,12.2 M144.99,6.83c0-0.33-0.08-0.46-0.41-0.46h-2.81
		c-0.25,0-0.38,0.13-0.38,0.33c0,0.25,0.28,0.3,0.56,0.33c0.43,0.02,0.96,0.08,0.96,0.83v7.01c0,1.16-0.86,2.07-2,2.07
		c-1.14,0-1.75-0.66-1.75-2.12V6.81c0-0.33-0.08-0.46-0.4-0.46h-2.81c-0.25,0-0.38,0.13-0.38,0.33c0,0.25,0.28,0.3,0.56,0.33
		c0.43,0.03,0.96,0.08,0.96,0.83v7.11c0,2.28,1.06,3.26,2.76,3.26c1.67,0,2.88-1.72,3.14-1.72c0.1,0,0.2,0.08,0.2,0.3v1.01
		c0,0.25,0,0.51,0.2,0.51c0.13,0,0.25-0.05,0.38-0.13c0.48-0.33,1.32-0.58,1.8-0.73c0.58-0.18,0.78-0.13,0.78-0.38
		c0-0.15-0.3-0.2-0.63-0.25c-0.43-0.1-0.73-0.2-0.73-0.73V6.83z M147.39,17.46c0,0.46,1.57,0.86,2.63,0.86
		c2.63,0,4.45-1.64,4.45-3.77c0-3.82-5.36-3.52-5.36-6.17c0-0.99,0.66-1.69,1.72-1.69c2.28,0,1.9,2.5,2.61,2.5
		c0.38,0,0.46-0.15,0.46-0.96c0-1.52-0.03-1.67-0.33-1.8c-0.4-0.18-1.44-0.35-2.33-0.35c-1.75,0-3.9,1.16-3.9,3.39
		c0,3.21,5.36,3.09,5.36,6.05c0,1.24-0.71,2.2-1.87,2.2c-1.21,0-1.9-0.83-2.35-2.18c-0.33-0.94-0.48-1.16-0.71-1.16
		c-0.25,0-0.38,0.15-0.38,0.48V17.46z M158.32,3.62c0-0.23-0.13-0.38-0.25-0.38c-0.46,0-0.38,1.09-1.67,2.48
		c-0.91,0.99-1.37,1.09-1.37,1.39c0,0.15,0.02,0.23,0.25,0.23h0.68c0.2,0,0.28,0.1,0.28,0.41v7.54c0,1.67,0.43,3.04,1.92,3.04
		c1.64,0,2.43-2.02,2.43-2.4c0-0.23-0.08-0.33-0.23-0.33c-0.35,0-0.58,1.21-1.29,1.21c-0.51,0-0.76-0.43-0.76-1.54V7.49
		c0-0.05,0.02-0.15,0.13-0.15h1.49c0.25,0,0.3-0.1,0.3-0.43c0-0.33-0.05-0.43-0.3-0.43h-1.62V3.62z M165.93,18.32
		c2.81,0,4.86-2.86,4.86-6.12c0-3.26-2.05-6.12-4.86-6.12c-2.81,0-4.86,2.86-4.86,6.12C161.07,15.46,163.12,18.32,165.93,18.32
		 M168.46,12.2c0,2.35-0.88,5.51-2.53,5.51c-1.64,0-2.53-3.16-2.53-5.51c0-2.35,0.89-5.51,2.53-5.51
		C167.57,6.68,168.46,9.84,168.46,12.2 M178.9,16.5c0,0.56-0.13,0.68-0.89,0.91c-0.35,0.1-0.43,0.15-0.43,0.35
		c0,0.18,0.15,0.25,0.45,0.25c0.61,0,1.24-0.1,1.85-0.1c1.29,0,1.87,0.1,2.18,0.1c0.2,0,0.33-0.1,0.33-0.2c0-0.2-0.08-0.3-0.58-0.4
		c-0.61-0.1-0.83-0.41-0.83-0.91V9.26c0-2.33-1.22-3.19-2.78-3.19c-1.47,0-2.15,0.99-2.99,2h-0.05V6.33c0-0.3-0.05-0.4-0.2-0.4
		c-0.33,0-0.18,0.28-1.62,1.06c-1.04,0.56-1.54,0.51-1.54,0.86c0,0.28,0.4,0.18,0.76,0.28c0.4,0.13,0.53,0.2,0.53,0.96v7.08
		c0,0.86-0.2,1.04-0.89,1.19c-0.33,0.08-0.53,0.18-0.53,0.38c0,0.23,0.13,0.28,0.41,0.28c0.4,0,1.19-0.1,2-0.1
		c1.04,0,1.72,0.1,2.2,0.1c0.23,0,0.3-0.1,0.3-0.25c0-0.13-0.08-0.2-0.58-0.35c-0.53-0.15-0.83-0.35-0.83-1.14V9.24
		c0.43-1.24,1.21-1.9,2.18-1.9c0.91,0,1.57,0.58,1.57,2.05V16.5z M217.35,17.61c-1.95,0-3.77-2.48-3.77-7.77
		c0-5.24,1.29-7.46,3.57-7.46c0.86,0,1.47,0.28,2.2,2.33c0.51,1.42,0.68,1.67,0.91,1.67c0.43,0,0.48-0.1,0.48-1.97
		c0-1.77-0.02-1.82-0.3-2c-0.76-0.48-1.85-0.73-3.16-0.73c-3.57,0-6.43,3.16-6.43,8.27c0,4.45,2.45,8.37,6.45,8.37
		c1.67,0,3.06-0.56,3.42-0.89c0.3-0.28,0.38-0.63,0.38-1.95c0-2.78-0.05-2.83-0.48-2.83c-0.25,0-0.3,0.05-0.88,2.33
		C219.19,17.08,218.26,17.61,217.35,17.61 M225.29,0.36c0-0.28-0.05-0.35-0.2-0.35c-0.15,0.03-0.56,0.51-2.73,1.14
		c-0.25,0.08-0.53,0.08-0.53,0.35c0,0.25,0.25,0.28,0.66,0.35c0.43,0.1,0.73,0.35,0.73,0.96v12.9c0,1.24-0.15,1.44-1.26,1.69
		c-0.38,0.1-0.51,0.2-0.51,0.35c0,0.23,0.25,0.25,0.53,0.25c0.51,0,1.44-0.1,2.17-0.1c0.86,0,1.87,0.1,2.58,0.1
		c0.28,0,0.38-0.08,0.38-0.23c0-0.28-0.2-0.23-0.73-0.38c-0.68-0.2-1.09-0.35-1.09-1.29V0.36z M235.56,11.59
		c0.56,0,0.76-0.18,0.76-1.04c0-2.2-1.19-4.48-3.82-4.48c-2.98,0-4.81,2.99-4.81,6.25c0,3.9,2.05,5.99,4.6,5.99
		c2.83,0,4.02-2.35,4.02-2.98c0-0.2-0.08-0.3-0.28-0.3c-0.53,0-0.38,2.02-3.04,2.02c-1.92,0-2.99-2.15-2.99-4.58
		c0-0.81,0.1-0.89,0.53-0.89H235.56z M232.57,6.68c1.24,0,1.67,1.44,1.67,2.5c0,1.47-0.68,1.8-3.06,1.8c-0.84,0-1.06-0.13-1.06-0.53
		C230.12,9.95,230.47,6.68,232.57,6.68 M244.79,7.8c0-1.37-0.53-1.72-2.51-1.72c-3.04,0-5.06,2.73-5.06,3.72
		c0,0.51,0.3,0.83,0.91,0.83c0.94,0,1.44-0.68,1.57-1.8c0.15-1.34,0.99-2.15,1.95-2.15c0.68,0,1.06,0.46,1.06,1.11v2.18
		c0,1.59-5.31,3.36-5.31,6.15c0,1.49,0.81,2.2,2.12,2.2c1.97,0,2.73-1.97,3.04-1.97c0.3,0,0.48,1.87,2.1,1.87
		c1.09,0,2.2-1.19,2.2-2.02c0-0.2-0.08-0.3-0.23-0.3c-0.41,0-0.48,0.81-1.01,0.81c-0.38,0-0.83-0.3-0.83-1.32V7.8z M242.71,13.51
		c0,2.28-0.66,3.19-1.85,3.19c-0.71,0-1.14-0.61-1.14-1.39c0.08-1.77,2.4-3.77,2.73-3.77c0.18,0,0.25,0.05,0.25,0.35V13.51z
		 M250.61,10.93c0-1.77,0.66-3.29,1.52-3.29c0.43,0,0.33,0.46,0.48,0.96c0.13,0.46,0.35,0.76,0.96,0.76c0.78,0,1.24-0.86,1.24-1.67
		c0-0.86-0.66-1.62-1.57-1.62c-1.72,0-2.78,2.58-2.88,2.58c-0.02,0-0.05-0.02-0.05-0.1V6.58c0-0.4-0.05-0.61-0.18-0.61
		c-0.23,0-0.23,0.33-1.27,0.91c-1.49,0.83-1.95,0.68-1.95,1.06c0,0.2,0.25,0.25,0.58,0.3c0.4,0.05,0.89,0.13,0.89,0.71v7.21
		c0,0.83-0.08,1.09-0.86,1.24c-0.63,0.13-0.76,0.2-0.76,0.4c0,0.15,0.15,0.2,0.33,0.2c0.45,0,1.26-0.1,2.58-0.1
		c1.49,0,2.3,0.1,2.73,0.1c0.2,0,0.28-0.13,0.28-0.23c0-0.2-0.08-0.25-1.01-0.38c-0.78-0.1-1.06-0.51-1.06-1.42V10.93z M264.59,3.65
		c0-0.63,0.3-0.91,1.11-0.96c0.68-0.05,0.89-0.08,0.89-0.4c0-0.23-0.13-0.3-0.48-0.3c-0.33,0-0.91,0.1-2.63,0.1
		c-1.52,0-2.02-0.1-2.51-0.1c-0.3,0-0.48,0.08-0.48,0.33c0,0.3,0.23,0.35,0.94,0.38c0.51,0.03,0.68,0.35,0.68,0.86v12.39
		c0,1.11-0.28,1.19-1.27,1.37c-0.3,0.05-0.4,0.15-0.4,0.35c0,0.28,0.1,0.35,0.4,0.35c0.56,0,1.77-0.1,3.49-0.1
		c2.96,0,4.1,0.1,4.86,0.1c0.38,0,0.48-0.15,0.48-0.61v-3.24c0-0.58-0.05-0.66-0.25-0.66c-0.33,0-0.23,0.33-0.91,1.85
		c-0.58,1.29-1.47,1.92-2.53,1.95c-0.88,0.03-1.39-0.51-1.39-1.44V3.65z M278,7.8c0-1.37-0.53-1.72-2.51-1.72
		c-3.04,0-5.06,2.73-5.06,3.72c0,0.51,0.3,0.83,0.91,0.83c0.94,0,1.44-0.68,1.57-1.8c0.15-1.34,0.99-2.15,1.95-2.15
		c0.68,0,1.06,0.46,1.06,1.11v2.18c0,1.59-5.31,3.36-5.31,6.15c0,1.49,0.81,2.2,2.12,2.2c1.97,0,2.73-1.97,3.04-1.97
		c0.3,0,0.48,1.87,2.1,1.87c1.09,0,2.2-1.19,2.2-2.02c0-0.2-0.08-0.3-0.23-0.3c-0.4,0-0.48,0.81-1.01,0.81
		c-0.38,0-0.83-0.3-0.83-1.32V7.8z M275.92,13.51c0,2.28-0.66,3.19-1.85,3.19c-0.71,0-1.14-0.61-1.14-1.39
		c0.07-1.77,2.4-3.77,2.73-3.77c0.18,0,0.25,0.05,0.25,0.35V13.51z M284.85,11.72c2.45,4.28,2.91,4.93,2.91,5.16
		c0,0.33-0.05,0.4-0.53,0.53c-0.3,0.08-0.41,0.15-0.41,0.3c0,0.18,0.1,0.3,0.38,0.3c0.63,0,1.16-0.1,1.7-0.1
		c0.71,0,1.42,0.1,2.12,0.1c0.3,0,0.46-0.1,0.46-0.3c0-0.15-0.13-0.23-0.46-0.3c-0.94-0.2-0.78-0.71-4.7-7.08
		c2.68-2.68,2.78-3.01,3.95-3.34c0.71-0.2,0.81-0.13,0.81-0.4c0-0.13-0.02-0.2-0.3-0.2c-0.2,0-1.34,0.1-2.1,0.1
		c-0.68,0-1.37-0.1-2.15-0.1c-0.28,0-0.43,0.15-0.43,0.28c0,0.23,0.28,0.3,0.61,0.33c0.68,0.05,0.96,0.18,0.96,0.48
		c0,0.48-0.28,0.61-3.09,3.41c-0.71,0.71-0.91,0.91-0.96,0.91c-0.05,0-0.1-0.02-0.1-0.25V0.36c0-0.28-0.05-0.35-0.2-0.35
		c-0.1,0-0.36,0.2-0.68,0.38c-0.4,0.2-1.01,0.48-1.92,0.68c-0.23,0.05-0.56,0.1-0.56,0.3c0,0.25,0.28,0.33,0.56,0.35
		c0.3,0.05,0.73,0.02,0.73,1.37V16.4c0,0.63-0.15,0.86-1.01,1.01c-0.25,0.05-0.35,0.13-0.35,0.33c0,0.2,0.07,0.28,0.3,0.28
		c0.71,0,1.42-0.1,2.13-0.1c0.76,0,1.52,0.1,2.28,0.1c0.13,0,0.25-0.15,0.25-0.3c0-0.2-0.2-0.2-0.48-0.3
		c-0.81-0.28-1.04-0.46-1.04-1.14v-3.34L284.85,11.72z M299.29,11.59c0.56,0,0.76-0.18,0.76-1.04c0-2.2-1.19-4.48-3.82-4.48
		c-2.98,0-4.81,2.99-4.81,6.25c0,3.9,2.05,5.99,4.6,5.99c2.83,0,4.02-2.35,4.02-2.98c0-0.2-0.08-0.3-0.28-0.3
		c-0.53,0-0.38,2.02-3.04,2.02c-1.92,0-2.98-2.15-2.98-4.58c0-0.81,0.1-0.89,0.53-0.89H299.29z M296.31,6.68
		c1.24,0,1.67,1.44,1.67,2.5c0,1.47-0.68,1.8-3.06,1.8c-0.83,0-1.06-0.13-1.06-0.53C293.85,9.95,294.21,6.68,296.31,6.68"/>
	<g>
		<path fill="#0078AE" d="M205.24,2.39V17.7h-16.22c1.12-10.54,7.8-7.77,10.12-9.92C200.26,6.73,201.22,1.72,205.24,2.39"/>
		<path fill="#00B259" d="M187.78,17.67V0.24h17.43v1.89c-4.99,0.38-4.51,3.94-6.6,5.84c-2.42,2.2-8.08-1.32-9.67,9.74L187.78,17.67
			z"/>
		<path fill="#FFFFFF" d="M205.25,1.54c0,0-0.01-0.01-0.03-0.02c-0.57-0.15-1.59-0.02-3.2,0.79c-3.25,1.62-2.55,6.14-6.99,6.1
			c-5.36-0.04-6.99,7.67-7.27,9.33c0,0.02,1.98,0,1.98,0c0.1-1.77,0.86-8.1,7-8.36c0.89-0.04,3.25-0.98,4.02-2.6
			c1.49-3.14,3.23-3.86,4.49-3.88C205.24,2.45,205.27,1.77,205.25,1.54z"/>
	</g>
</g>
</svg>
