<?xml version="1.0" encoding="utf-8"?>
<!-- Generator: Adobe Illustrator 14.0.0, SVG Export Plug-In . SVG Version: 6.00 Build 43363)  -->
<!DOCTYPE svg PUBLIC "-//W3C//DTD SVG 1.1//EN" "http://www.w3.org/Graphics/SVG/1.1/DTD/svg11.dtd">
<svg version="1.1" id="Layer_1" xmlns="http://www.w3.org/2000/svg" xmlns:xlink="http://www.w3.org/1999/xlink" x="0px" y="0px"
	 width="147.278px" height="54.41px" viewBox="0 0 147.278 54.41" enable-background="new 0 0 147.278 54.41" xml:space="preserve">
<g>
	<defs>
		<rect id="SVGID_1_" x="0" y="0" width="147.277" height="54.409"/>
	</defs>
	<clipPath id="SVGID_2_">
		<use xlink:href="#SVGID_1_"  overflow="visible"/>
	</clipPath>
	<path clip-path="url(#SVGID_2_)" fill="#000066" d="M108.67,6.297l-2.262,7.655l0.076-0.242l-0.313,1.041
		c-1.033,3.518-1.679,6.901-4.07,6.929c-3.303,0.038-6.004,0.006-9.307,0.006c-1.291,0-2.206-1.373-1.599-3.377l4.476-14.936
		C96.072,2.035,97.252-0.023,99.162,0h8.959C110.722,0.203,109.553,3.261,108.67,6.297 M106.484,13.71l-0.076,0.242l-0.237,0.799
		L106.484,13.71z M103.821,6.199c0.184-0.588,0.339-1.19,0.12-1.778l-0.407-0.279c-1.52-0.056-3.125-0.398-3.652,1.376
		l-3.176,10.726c-0.172,0.576-0.13,1.245,0.517,1.456c3.755,0.26,3.221-0.184,4.342-3.951
		C101.565,13.75,103.715,6.528,103.821,6.199 M113.294,2.114c-0.017-0.031-0.982-1.455-1.512-2.114h6.841l3.491,12.21l2.778-9.989
		l-1.671-2.182h7.485l-6.741,21.641h-4.361l-3.695-12.215c-1.522,5.162-3.231,10.599-3.716,12.215h-6.507l2.427-1.937L113.294,2.114
		z M72.283,2.137c-0.53-0.668-0.932-1.396-1.463-2.054h7.47l1.086,12.051l6.659-9.799l-1.466-2.252l9.85,0.057
		c-1.711,5.557-5.276,18.341-6.38,21.541h-6.407l2.276-1.814L87.94,6.139l-9.558,15.542h-3.124l-0.36-12.193
		c-1.521,5.161-3.07,10.41-3.699,12.193h-6.495l2.4-1.914L72.283,2.137z M28.974,2.206c-0.53-0.667-0.922-1.396-1.453-2.054
		l6.882-0.04c-1.718,5.574-5.39,18.42-6.487,21.569h-6.433l2.312-1.845L28.974,2.206z M63.562,2.137
		c-0.53-0.668-0.924-1.396-1.455-2.054l6.882-0.041c-1.731,5.616-5.446,18.615-6.512,21.639h-6.496l2.4-1.914l2.243-7.633h-5.643
		c-1.245,4.214-2.398,8.069-2.917,9.547h-6.497l2.4-1.914l5.18-17.63c-0.53-0.668-0.924-1.396-1.455-2.054l6.882-0.041
		c-0.607,1.974-1.461,4.858-2.359,7.902h5.64L63.562,2.137z M49.02,7.125c-1.625,0.082-3.252,0.03-4.877,0.039
		c0.204-0.879,0.745-1.829,0.406-2.743l-0.406-0.279c-1.522-0.056-3.127-0.398-3.653,1.376l-3.176,10.726
		c-0.172,0.576-0.13,1.245,0.517,1.456c3.755,0.26,3.22-0.184,4.343-3.951l4.918-0.039c-1.244,3.859-1.756,7.939-4.383,7.97
		c-3.303,0.038-6.005,0.006-9.307,0.006c-1.292,0-2.205-1.373-1.599-3.377l4.476-14.936C36.68,2.035,37.86-0.023,39.768,0h8.961
		C51.582,0.222,49.916,4.043,49.02,7.125 M14.869,3.897l-1.393,4.38l3.027,0.1c0.426-0.02,1.131-0.217,1.279-0.794
		c0.433-1.235,0.523-1.59,0.894-3.099c0.024-0.514-0.225-0.585-0.613-0.612L14.869,3.897z M10.559,2.071L9.104,0h13.078
		c0.709,0.043,2.864-0.195,2.007,2.646c-0.147,0.614-1.758,6.13-1.758,6.13c-0.312,0.95-1.134,2.153-2.746,3.042
		c0.019-0.007,0.948,8.409,1.135,9.862h-5.407c-0.068-1.351-0.632-8.84-0.632-8.816l-2.252,0.003l-2.766,8.813H2.81l2.52-2.02
		L10.559,2.071z M138.019,4.031c-0.006,0.05-4.056,13.42-4.1,13.32c0.909,0.148,2.381,0.061,3.403,0.041
		c0.409-0.17,0.694-0.532,0.837-0.88l3.268-10.775l0.153-1.087C141.247,3.534,139.051,4.231,138.019,4.031 M144.256,13.71
		l-0.291,1.041c-0.963,3.518-1.54,6.901-3.93,6.929c-3.305,0.038-6.005,0.006-9.309,0.006c-0.148,0-0.29-0.02-0.426-0.053
		l-2.369-0.046l5.675-19.325l-1.61-2.236L145.618,0c2.683,0.026,1.498,3.26,0.677,6.297l-2.11,7.655L144.256,13.71z M144.256,13.71
		l-0.071,0.242l-0.22,0.799L144.256,13.71z"/>
	<path clip-path="url(#SVGID_2_)" fill="#990000" d="M141.581,4.65c-0.223-0.747-1.279-0.682-2.263-0.617
		c0.435,0.065,0.775,0.231,0.889,0.617l-0.15,1.087l-3.269,10.775c-0.144,0.348-0.429,0.71-0.837,0.88
		c-0.358,0.007-0.772,0.022-1.197,0.033c0.833,0.032,1.821-0.019,2.569-0.033c0.408-0.17,0.693-0.532,0.837-0.88l3.268-10.775
		L141.581,4.65z"/>
	<path clip-path="url(#SVGID_2_)" fill="#990000" d="M63.562,2.136c-0.53-0.668-0.925-1.396-1.455-2.054l5.506-0.032
		c0-0.003,0.001-0.006,0.002-0.009l-6.88,0.041c0.532,0.658,0.924,1.386,1.455,2.054l-1.706,5.807h1.371L63.562,2.136z"/>
	<path clip-path="url(#SVGID_2_)" fill="#990000" d="M103.821,6.2c0.184-0.589,0.339-1.191,0.121-1.778l-0.407-0.28
		c-0.678-0.025-1.371-0.104-1.979-0.032c0.202,0.012,0.405,0.025,0.607,0.032l0.407,0.28c0.217,0.587,0.062,1.189-0.123,1.778
		c-0.103,0.328-2.254,7.55-2.254,7.55c-0.866,2.909-0.746,3.835-2.376,3.987c3.104,0.163,2.691-0.433,3.749-3.987
		C101.566,13.75,103.716,6.528,103.821,6.2"/>
	<path clip-path="url(#SVGID_2_)" fill="#990000" d="M28.974,2.206c-0.53-0.667-0.922-1.396-1.453-2.054l5.508-0.032
		c0-0.003,0.001-0.006,0.002-0.008l-6.882,0.04c0.53,0.658,0.924,1.387,1.453,2.054l-5.179,17.63l-1.666,1.329
		c0.026,0.215,0.047,0.392,0.063,0.516h0.663l2.312-1.845L28.974,2.206z"/>
	<path clip-path="url(#SVGID_2_)" fill="#990000" d="M91.195,18.309l4.476-14.935c0.401-1.34,1.581-3.397,3.49-3.373H97.79
		c-1.909-0.024-3.089,2.033-3.49,3.373l-4.476,14.935c-0.605,2.005,0.307,3.377,1.599,3.377c2.305,0,4.319,0.016,6.447,0.012
		c-1.643-0.002-3.269-0.012-5.075-0.012C91.503,21.686,90.588,20.314,91.195,18.309"/>
	<polygon clip-path="url(#SVGID_2_)" fill="#990000" points="87.94,6.139 85.313,10.411 82.535,19.866 80.262,21.681 81.632,21.681 
		83.909,19.866 	"/>
	<path clip-path="url(#SVGID_2_)" fill="#990000" d="M42.174,13.75l3.542-0.028c0.001-0.004,0.002-0.007,0.004-0.011L40.8,13.75
		c-0.865,2.909-0.746,3.836-2.376,3.988C41.529,17.899,41.114,17.304,42.174,13.75"/>
	<polygon clip-path="url(#SVGID_2_)" fill="#990000" points="86.035,2.335 84.575,0.09 83.196,0.082 84.662,2.335 79.216,10.35 
		79.376,12.133 	"/>
	<path clip-path="url(#SVGID_2_)" fill="#990000" d="M31.803,18.309l4.476-14.935c0.401-1.34,1.581-3.397,3.49-3.373h-1.372
		c-1.908-0.024-3.089,2.033-3.491,3.373l-4.475,14.935c-0.606,2.005,0.307,3.377,1.599,3.377c2.304,0,4.319,0.016,6.447,0.012
		c-1.643-0.002-3.27-0.012-5.075-0.012C32.11,21.686,31.197,20.314,31.803,18.309"/>
	<path clip-path="url(#SVGID_2_)" fill="#990000" d="M72.283,2.136c-0.53-0.668-0.932-1.395-1.463-2.054h-1.372
		c0.533,0.659,0.932,1.386,1.462,2.054l-5.179,17.63l-2.399,1.915h1.372l2.4-1.915L72.283,2.136z"/>
	<path clip-path="url(#SVGID_2_)" fill="#990000" d="M44.549,4.421l-0.407-0.279c-0.677-0.025-1.371-0.106-1.979-0.032
		c0.202,0.012,0.405,0.024,0.607,0.032l0.407,0.279c0.338,0.914-0.201,1.864-0.406,2.743c1.025-0.006,2.049,0.01,3.073,0.004
		c-0.567-0.003-1.134-0.007-1.701-0.004C44.348,6.286,44.889,5.335,44.549,4.421"/>
	<path clip-path="url(#SVGID_2_)" fill="#990000" d="M18.063,3.873L16.8,3.882c0.324,0.036,0.526,0.138,0.504,0.602
		c-0.371,1.508-0.461,1.864-0.895,3.099c-0.118,0.464-0.596,0.68-1.001,0.758l1.094,0.036c0.427-0.02,1.132-0.218,1.28-0.794
		c0.433-1.235,0.523-1.591,0.894-3.099C18.7,3.971,18.451,3.899,18.063,3.873"/>
	<path clip-path="url(#SVGID_2_)" fill="#990000" d="M13.409,12.866c0.003,0.011,0.564,7.467,0.632,8.815h1.373
		c-0.068-1.351-0.633-8.841-0.633-8.816L13.409,12.866z"/>
	<path clip-path="url(#SVGID_2_)" fill="#990000" d="M53.147,2.136c-0.53-0.668-0.923-1.396-1.455-2.054l5.507-0.032
		c0.001-0.003,0.002-0.006,0.002-0.009L50.32,0.082c0.532,0.658,0.925,1.386,1.456,2.054l-5.182,17.63l-2.4,1.915h1.373l2.4-1.915
		L53.147,2.136z"/>
	<polygon clip-path="url(#SVGID_2_)" fill="#990000" points="60.624,12.133 59.251,12.133 57.008,19.766 54.61,21.681 
		55.981,21.681 58.381,19.766 	"/>
	<polygon clip-path="url(#SVGID_2_)" fill="#990000" points="10.56,2.071 9.104,0 7.734,0 9.188,2.071 3.958,19.661 1.438,21.681 
		2.81,21.681 5.33,19.661 	"/>
	<path clip-path="url(#SVGID_2_)" fill="#990000" d="M130.3,21.633l-2.369-0.046l5.675-19.325l-1.61-2.236l12.302-0.023
		C144.28,0.002,144.264,0,144.247,0l-13.623,0.026l0.009,0.013h0.073l-0.022,0.071l1.55,2.152l-5.675,19.325l2.369,0.046
		c0.136,0.034,0.279,0.053,0.426,0.053c2.306,0,4.321,0.015,6.448,0.012c-1.643-0.003-3.269-0.012-5.076-0.012
		C130.579,21.687,130.436,21.667,130.3,21.633"/>
	<path clip-path="url(#SVGID_2_)" fill="#990000" d="M115.229,11.752l3.002,9.929h1.373l-3.695-12.216
		C115.685,10.226,115.457,10.992,115.229,11.752"/>
	<path clip-path="url(#SVGID_2_)" fill="#990000" d="M73.651,13.71l0.235,7.971h1.372l-0.36-12.194
		C74.478,10.913,74.056,12.345,73.651,13.71"/>
	<polygon clip-path="url(#SVGID_2_)" fill="#990000" points="124.892,2.222 123.222,0.04 121.85,0.04 123.52,2.222 121.417,9.776 
		122.114,12.211 	"/>
	<path clip-path="url(#SVGID_2_)" fill="#990000" d="M113.294,2.114c-0.017-0.031-0.982-1.455-1.512-2.114h-1.371
		c0.529,0.659,1.494,2.083,1.511,2.114l-5.181,17.629l-2.426,1.938h1.372l2.426-1.938L113.294,2.114z"/>
	<path clip-path="url(#SVGID_2_)" fill="#FFFFFF" d="M121.629,38.004l-0.644,0.014c-4.314,0.085-9.312,0.34-14.753,0.732
		l2.629,4.128l-1.185,0.91l-4.415-4.814c-4.077,0.323-8.371,0.715-12.784,1.167l-3.651,4.604l-1.222-0.872
		c0.219-0.34,0.962-1.642,1.967-3.428c-17.983,1.92-37.614,4.752-52.882,7.72l-4.39,6.244l-1.239-0.847
		c0.434-0.654,1.271-2.199,2.334-4.225l0.302-0.577c-5.43,1.106-10.205,2.219-14.023,3.308l-3.015,0.859l5.446-5.831
		c-1.703,0.316-3.233,0.539-4.411,0.677c-2.607,0.308-5.214,0.468-7.824,0.4c-1.142-0.03-2.34,0.001-3.522-0.03
		c-1.202-0.03-2.438-0.121-3.608-0.413L0,47.544l0.407-1.532l0.572-0.003c5.933-0.039,25.771-2.639,29.243-6.11
		c0.432-0.431,0.467-0.769,0.377-0.957c-0.093-0.198-0.449-0.483-1.318-0.8c-0.836-0.306-1.872-0.554-2.908-0.827
		c-1.056-0.279-2.177-0.6-3.103-1.047c-0.906-0.435-1.786-1.068-2.117-2.068c-0.443-1.336,0.252-2.663,1.04-3.643
		c0.82-1.021,1.926-1.905,2.787-2.464c7.794-5.056,18.76-4.912,26.887-3.757l0.784,0.112l-0.323,1.639l-0.638-0.023
		c-5.172-0.18-19.97,0.765-23.337,4.38c-0.478,0.513-0.597,1.071-0.449,1.427c0.058,0.136,0.355,0.406,1.208,0.729
		c0.807,0.308,1.818,0.571,2.837,0.86c1.04,0.294,2.144,0.625,3.062,1.065c0.892,0.428,1.775,1.034,2.135,1.968
		c0.18,0.473,0.23,0.924,0.19,1.35c1.66-3.192,3.229-6.145,4.353-8.068c-1.874-0.39-4.353-0.995-4.353-0.995l0.113-1.477
		c1.529-0.131,5.216-0.441,8.77-0.584c3.416-0.14,7.099-0.158,8.323,0.482c0.793,0.415,1.506,0.96,1.707,2.07l1.839-4.184
		l4.532-0.128c-1.227-0.364-2.786-0.578-2.95-0.91c-0.047-0.1-3.328-0.989-3.281-1.036c0.065-0.064,10.517-0.823,13.858-0.921
		c3.299-0.094,6.725,0.025,8.632,0.997c1.107,0.566,2.12,1.359,2.434,2.803c0.092,0.426,0.09,0.872,0.013,1.329l2.053-3.228
		l-3.605-2.53l22.752-1.169l-3.304,1.616l1.147-0.049c3.11-0.12,6.48-0.123,7.673,0.493c0.773,0.401,1.421,0.997,1.599,2.021
		c0.501-0.6,1.111-1.112,1.635-1.468c5.006-3.415,12.351-3.833,19.009-1.864l2.25,0.798l-3.892,0.093
		c-2.687-0.109-6.211,0.382-9.745,1.089c-1.776,0.357-3.28,0.81-4.26,1.348c-1.045,0.57-1.125,0.997-1.042,1.268
		c0.085,0.066,0.262,0.145,0.488,0.242c0.485,0.206,1.103,0.383,1.728,0.575c0.642,0.198,1.376,0.432,2.002,0.753
		c0.61,0.31,1.26,0.771,1.543,1.499c0.375,0.959-0.019,1.889-0.445,2.547c-1.418,2.205-4.959,3.812-8.724,4.764
		c4.077-0.05,7.753,0.033,10.871,0.274l0.793,0.064L121.629,38.004z M28.256,45.018c1.822-0.349,3.809-0.709,5.932-1.075
		l0.936-1.821l0.7-1.358C34.177,42.554,31.356,43.95,28.256,45.018 M38.123,43.282c4.034-0.656,8.446-1.324,13.089-1.973
		L51.013,41.2l3.383-7.705c-2.145,2.197-5.678,3.66-8.338,4.275c-1.497,0.344-2.953,0.461-4.462,0.576L38.123,43.282z
		 M52.877,41.078c6.802-0.934,14.047-1.827,21.285-2.594l3.732-5.868c-0.701,0.678-1.386,1.238-1.93,1.609
		c-6.355,4.328-13.544,5.329-20.849,5.864l-1.668,0.124L52.877,41.078z M79.192,37.97c3.465-0.338,6.907-0.645,10.272-0.909
		l1.073-1.927L79.192,37.97z M93.139,36.788c1.181-0.083,2.351-0.161,3.507-0.233c-0.163-0.034-0.318-0.072-0.465-0.113
		l-0.705-0.197l0.382-1.504l0.587,0.003c0.579,0.003,1.563-0.053,2.783-0.165l-1.514-1.651c-0.536,0.049-1.071,0.083-1.609,0.12
		L93.139,36.788z M88.248,23.984l-2.03,3.193l5.086-0.07l0.181,1.48l-7.305,1.693l-1.945,3.498l9.317-0.475
		c1.95-3.52,3.827-6.929,4.658-8.464c-1.451-0.323-4.279-1.127-5.147-1.377L88.248,23.984z M113.174,31.712
		c0.663-0.307,1.088-0.598,1.314-0.846c0.198-0.223,0.166-0.312,0.146-0.367c-0.183-0.138-0.343-0.226-0.58-0.322
		c-0.509-0.209-1.147-0.381-1.785-0.567c-0.653-0.191-1.404-0.42-2.033-0.741c-0.588-0.304-1.225-0.764-1.475-1.506
		c-1.456,2.221-4.355,3.794-6.821,4.646l1.33,2.089c1.427-0.203,2.926-0.454,4.359-0.751
		C109.897,32.877,111.863,32.323,113.174,31.712 M103.101,28.181c0.79-0.531,1.61-1.37,1.91-2.086
		c0.207-0.494,0.235-0.888-0.781-1.182c-0.471-0.137-0.985-0.182-1.544-0.182c-0.457,0.004-0.918,0.038-1.376,0.074
		c-1.063,1.709-2.131,3.418-3.193,5.134C99.905,29.675,101.64,29.164,103.101,28.181 M65.353,34.771
		c3.671-0.781,8.834-2.755,10.579-5.718c1.219-2.068,0.412-2.906-1.48-3.409c-1.886-0.504-4.495-0.446-6.223-0.337
		c-2.151,3.315-4.251,6.663-6.356,10.022C63.039,35.195,64.201,35.016,65.353,34.771 M53.978,39.403l0.532-0.573
		c0.34-0.366,6.697-9.75,9.144-13.565l-0.323-0.097L53.978,39.403z M49.259,33.286c0.866-0.56,1.764-1.448,2.089-2.202
		c0.216-0.501,0.269-0.941-0.896-1.258c-0.527-0.144-1.097-0.192-1.713-0.187c-0.513,0.004-1.031,0.044-1.546,0.085
		c-1.167,1.813-2.342,3.626-3.505,5.446C45.683,34.892,47.628,34.346,49.259,33.286"/>
	<path clip-path="url(#SVGID_2_)" fill-rule="evenodd" clip-rule="evenodd" fill="#990000" d="M60.427,36.223
		c1.703-0.139,3.402-0.361,5.083-0.719c3.66-0.779,9.142-2.798,11.068-6.069c3.143-5.334-5.375-5.093-8.776-4.851
		C65.305,28.427,62.875,32.321,60.427,36.223 M64.824,24.816c-0.616-0.159-4.297-1.255-4.897-1.473
		c-0.3-0.108,0.904,0.038,1.376,0.019c4.344-0.171,13.823-1.344,17.236,0.395c1.024,0.522,1.797,1.173,2.041,2.294
		c0.527,2.431-2.962,6.139-5.038,7.553c-6.18,4.207-13.192,5.204-20.482,5.736C55.49,38.879,62.981,27.795,64.824,24.816"/>
	<path clip-path="url(#SVGID_2_)" fill-rule="evenodd" clip-rule="evenodd" fill="#990000" d="M51.76,25.079l1.252,0.231
		c-5.037-0.176-21.557,0.703-25.208,4.623c-0.584,0.625-0.902,1.489-0.592,2.229c0.786,1.872,8.224,1.981,9.232,4.601
		c0.373,0.967,0.022,1.833-0.576,2.737c-3.069,4.64-14.892,6.892-20.263,7.528c-2.57,0.305-5.143,0.461-7.716,0.394
		c-2.287-0.057-4.785,0.124-6.969-0.42l0.064-0.242c5.831-0.039,26.034-2.598,29.768-6.331c0.513-0.513,0.818-1.183,0.527-1.805
		c-0.949-2.025-8.482-1.849-9.413-4.658c-0.632-1.905,1.889-4.186,3.522-5.244C32.941,23.824,43.665,23.929,51.76,25.079"/>
	<polygon clip-path="url(#SVGID_2_)" fill-rule="evenodd" clip-rule="evenodd" fill="#990000" points="98.953,21.238 87.79,23.308 
		84.84,27.946 91.314,27.857 83.687,29.626 80.923,34.596 91.807,34.042 75.242,38.186 84.396,23.792 81.99,22.103 	"/>
	<path clip-path="url(#SVGID_2_)" fill="#990000" d="M91.488,37.659l4.233-5.334c0.765-0.06,1.53-0.098,2.292-0.183l2.777,3.029
		c-1.923,0.216-3.519,0.327-4.35,0.322l-0.057,0.226c0.645,0.18,1.456,0.294,2.365,0.373c0.9,0.079,1.898,0.127,2.925,0.177
		c0.042,0.002,0.086,0.002,0.128,0.004l0.664,0.724C98.968,37.152,95.283,37.377,91.488,37.659 M100.873,24.085
		c1.2-0.091,2.434-0.221,3.565,0.107c2.894,0.838,0.785,3.469-0.919,4.613c-2.027,1.359-4.494,1.863-6.846,2.048
		C98.063,28.587,99.474,26.336,100.873,24.085 M46.763,29.004c1.307-0.1,2.652-0.241,3.886,0.097c3.157,0.86,0.87,3.614-0.981,4.814
		c-2.202,1.429-4.889,1.966-7.453,2.168C43.721,33.713,45.248,31.359,46.763,29.004 M129.478,21.408l-1.106-0.277
		c-5.265-0.815-11.917-0.852-16.673,2.397c-1.314,0.896-2.585,2.366-2.242,3.543c0.282,0.974,1.704,1.434,3.021,1.82
		c0.665,0.194,1.331,0.374,1.859,0.592c0.533,0.217,0.889,0.458,1,0.757c0.58,1.566-2.987,2.898-7.556,3.842
		c-1.609,0.332-3.298,0.608-4.886,0.826l-2.114-3.319c2.632-0.75,6.003-2.427,7.453-4.792c0.416-0.683,0.799-1.51,0.67-2.278
		c-0.121-0.725-0.558-1.163-1.207-1.497c-1.94-1.003-12.427-0.133-15.305,0.117c0,0,3.3,0.855,4.942,1.166
		c-0.177,0.404-4.241,7.781-7.415,13.473c-18.19,1.413-38.668,4.069-53.439,6.536l4.705-6.69c1.597-0.123,3.128-0.223,4.705-0.587
		c3.1-0.715,7.223-2.575,8.905-5.235c0.453-0.717,0.862-1.575,0.719-2.38c-0.138-0.786-0.606-1.183-1.32-1.557
		c-1.994-1.042-13.632-0.078-16.679,0.187c0,0,3.584,0.876,5.369,1.193c-1.752,2.809-5.217,9.575-8.201,15.373
		c-5.727,0.981-10.485,1.923-13.755,2.733l-0.045,0.011l-3.833,4.104l0.417-0.119c4.191-1.194,9.531-2.421,15.616-3.629
		c-1.558,3.004-2.826,5.396-3.399,6.259l4.563-6.489c15.746-3.073,36.18-6.005,54.683-7.939c-1.365,2.44-2.425,4.31-2.693,4.728
		l3.847-4.848c4.663-0.479,9.194-0.893,13.485-1.229l4.659,5.082l-3.302-5.186c5.941-0.446,11.389-0.735,16.046-0.827l0.03-0.225
		c-4.568-0.356-10.342-0.366-16.822-0.118l-0.425-0.669c5.264-0.269,12.493-2.247,14.526-5.406c0.388-0.603,0.617-1.261,0.377-1.869
		c-0.365-0.934-1.777-1.41-3.067-1.808c-0.653-0.202-1.296-0.387-1.801-0.602c-0.51-0.217-0.833-0.447-0.912-0.717
		C111.87,22.497,124.013,21.185,129.478,21.408"/>
	<polygon clip-path="url(#SVGID_2_)" fill-rule="evenodd" clip-rule="evenodd" fill="#990000" points="58.584,25.824 51.702,41.501 
		62.067,25.725 	"/>
</g>
</svg>
