<?xml version="1.0" encoding="UTF-8" standalone="no"?>
<!-- Created with Inkscape (http://www.inkscape.org/) -->

<svg
   xmlns:dc="http://purl.org/dc/elements/1.1/"
   xmlns:cc="http://creativecommons.org/ns#"
   xmlns:rdf="http://www.w3.org/1999/02/22-rdf-syntax-ns#"
   xmlns:svg="http://www.w3.org/2000/svg"
   xmlns="http://www.w3.org/2000/svg"
   xmlns:sodipodi="http://sodipodi.sourceforge.net/DTD/sodipodi-0.dtd"
   xmlns:inkscape="http://www.inkscape.org/namespaces/inkscape"
   width="33.472965mm"
   height="47.74424mm"
   viewBox="0 0 33.472965 47.74424"
   version="1.1"
   id="svg604"
   inkscape:version="0.92.1 r15371"
   sodipodi:docname="saddleback logo.svg">
  <defs
     id="defs598">
    <clipPath
       clipPathUnits="userSpaceOnUse"
       id="clipPath268">
      <path
         d="m 324,304.582 h 94.885 V 439.92 H 324 Z"
         id="path266"
         inkscape:connector-curvature="0" />
    </clipPath>
  </defs>
  <sodipodi:namedview
     id="base"
     pagecolor="#ffffff"
     bordercolor="#666666"
     borderopacity="1.0"
     inkscape:pageopacity="0.0"
     inkscape:pageshadow="2"
     inkscape:zoom="1.4"
     inkscape:cx="290.90557"
     inkscape:cy="36.332236"
     inkscape:document-units="mm"
     inkscape:current-layer="layer1"
     showgrid="false"
     fit-margin-top="0"
     fit-margin-left="0"
     fit-margin-right="0"
     fit-margin-bottom="0"
     inkscape:window-width="1600"
     inkscape:window-height="838"
     inkscape:window-x="-8"
     inkscape:window-y="-8"
     inkscape:window-maximized="1" />
  <metadata
     id="metadata601">
    <rdf:RDF>
      <cc:Work
         rdf:about="">
        <dc:format>image/svg+xml</dc:format>
        <dc:type
           rdf:resource="http://purl.org/dc/dcmitype/StillImage" />
        <dc:title></dc:title>
      </cc:Work>
    </rdf:RDF>
  </metadata>
  <g
     inkscape:label="Layer 1"
     inkscape:groupmode="layer"
     id="layer1"
     transform="translate(-64.906374,-102.28264)">
    <path
       d="M 64.906374,150.02688 H 98.378986 V 102.28264 H 64.906374 Z"
       style="fill:#b30838;fill-opacity:1;fill-rule:nonzero;stroke:none;stroke-width:0.35277775"
       id="path254"
       inkscape:connector-curvature="0" />
    <path
       d="M 97.497394,135.21339 H 65.788318 v -32.0488 h 31.709076 z"
       style="fill:#ffffff;fill-opacity:1;fill-rule:nonzero;stroke:none;stroke-width:0.35277775"
       id="path256"
       inkscape:connector-curvature="0" />
    <g
       id="g258"
       transform="matrix(0.35277777,0,0,-0.35277777,65.422877,127.04415)">
      <path
         d="M 0,0 31.063,31.802 40.924,21.694 57.688,38.212 91.955,4.437 V -21.985 H 0 Z"
         style="fill:#b30838;fill-opacity:1;fill-rule:nonzero;stroke:none"
         id="path260"
         inkscape:connector-curvature="0" />
    </g>
    <g
       transform="matrix(0.35277777,0,0,-0.35277777,-49.393976,257.47664)"
       id="g262">
      <g
         id="g264"
         clip-path="url(#clipPath268)">
        <g
           id="g270"
           transform="translate(328.3992,333.1967)">
          <path
             d="m 0,0 c 0.271,-0.687 0.71,-1.801 2.582,-1.801 1.183,0 1.826,0.376 1.826,1.062 0,0.661 -0.564,1.011 -1.939,1.205 -1.736,0.247 -3.393,1.037 -3.393,2.903 0,1.206 0.563,2.177 1.533,2.644 0.519,0.246 1.183,0.363 2.006,0.363 2.345,0 3.247,-1.296 3.507,-1.892 L 4.882,3.279 C 4.385,4.276 3.732,4.717 2.649,4.717 1.601,4.717 0.992,4.342 0.992,3.719 0.992,3.149 1.421,2.89 2.762,2.657 4.893,2.281 6.325,1.581 6.325,-0.376 6.325,-1.192 6.099,-1.879 5.659,-2.397 5.017,-3.162 4.115,-3.485 2.604,-3.485 c -2.446,0 -3.258,0.867 -3.912,2.137 z"
             style="fill:#ffffff;fill-opacity:1;fill-rule:nonzero;stroke:none"
             id="path272"
             inkscape:connector-curvature="0" />
        </g>
        <g
           id="g274"
           transform="translate(340.2365,337.3828)">
          <path
             d="M 0,0 -1.127,-3.771 H 1.139 Z M -1.274,1.97 H 1.263 L 4.194,-7.374 H 2.221 L 1.68,-5.573 h -3.337 l -0.541,-1.801 h -1.973 z"
             style="fill:#ffffff;fill-opacity:1;fill-rule:nonzero;stroke:none"
             id="path276"
             inkscape:connector-curvature="0" />
        </g>
        <g
           id="g278"
           transform="translate(348.2977,337.4217)">
          <path
             d="m 0,0 v -5.456 h 1.51 c 1.354,0 2.03,0.894 2.03,2.683 C 3.54,-0.998 2.886,0 1.713,0 Z m -2.007,1.931 h 4.104 c 2.141,0 3.529,-1.867 3.529,-4.756 0,-2.825 -1.353,-4.588 -3.495,-4.588 h -4.138 z"
             style="fill:#ffffff;fill-opacity:1;fill-rule:nonzero;stroke:none"
             id="path280"
             inkscape:connector-curvature="0" />
        </g>
        <g
           id="g282"
           transform="translate(357.9254,337.4217)">
          <path
             d="m 0,0 v -5.456 h 1.51 c 1.354,0 2.03,0.894 2.03,2.683 C 3.54,-0.998 2.886,0 1.714,0 Z m -2.007,1.931 h 4.104 c 2.142,0 3.529,-1.867 3.529,-4.756 0,-2.825 -1.353,-4.588 -3.495,-4.588 h -4.138 z"
             style="fill:#ffffff;fill-opacity:1;fill-rule:nonzero;stroke:none"
             id="path284"
             inkscape:connector-curvature="0" />
        </g>
        <g
           id="g286"
           transform="translate(365.456,339.3525)">
          <path
             d="M 0,0 H 1.985 V -7.478 H 5.694 V -9.344 H 0 Z"
             style="fill:#ffffff;fill-opacity:1;fill-rule:nonzero;stroke:none"
             id="path288"
             inkscape:connector-curvature="0" />
        </g>
        <g
           id="g290"
           transform="translate(372.6042,339.3525)">
          <path
             d="M 0,0 H 5.637 L 5.332,-1.711 H 1.985 v -1.944 h 3.088 v -1.71 H 1.985 V -7.633 H 5.423 L 5.728,-9.344 H 0 Z"
             style="fill:#ffffff;fill-opacity:1;fill-rule:nonzero;stroke:none"
             id="path292"
             inkscape:connector-curvature="0" />
        </g>
        <g
           id="g294"
           transform="translate(382.0066,334.0131)">
          <path
             d="m 0,0 v -2.294 h 2.007 c 0.744,0 1.15,0.389 1.15,1.102 C 3.157,-0.389 2.672,0 1.68,0 Z M 0,3.654 V 1.711 h 1.815 c 0.823,0 1.252,0.35 1.252,1.023 0,0.57 -0.452,0.92 -1.218,0.92 z M -1.996,5.339 H 2.153 C 3.202,5.339 3.912,5.106 4.386,4.574 4.747,4.186 4.938,3.654 4.938,3.097 4.938,1.607 3.721,1.192 2.988,0.946 3.608,0.803 3.856,0.7 4.194,0.48 c 0.62,-0.415 1.049,-1.063 1.049,-1.97 0,-1.49 -1.128,-2.514 -2.774,-2.514 h -4.465 z"
             style="fill:#ffffff;fill-opacity:1;fill-rule:nonzero;stroke:none"
             id="path296"
             inkscape:connector-curvature="0" />
        </g>
        <g
           id="g298"
           transform="translate(392.728,337.3828)">
          <path
             d="M 0,0 -1.127,-3.771 H 1.139 Z M -1.274,1.97 H 1.263 L 4.194,-7.374 H 2.221 L 1.68,-5.573 h -3.337 l -0.541,-1.801 h -1.973 z"
             style="fill:#ffffff;fill-opacity:1;fill-rule:nonzero;stroke:none"
             id="path300"
             inkscape:connector-curvature="0" />
        </g>
        <g
           id="g302"
           transform="translate(406.0541,332.0045)">
          <path
             d="m 0,0 c -0.35,-0.673 -1.184,-2.293 -3.552,-2.293 -2.57,0 -4.182,1.904 -4.182,4.937 0,2.915 1.601,4.924 3.923,4.924 2.729,0 3.394,-1.827 3.698,-2.566 L -1.736,3.914 c -0.417,1.101 -0.981,1.736 -1.94,1.736 -1.228,0 -1.961,-1.114 -1.961,-3.006 0,-1.879 0.755,-2.968 2.074,-2.968 1.184,0 1.759,1.14 1.984,1.594 z"
             style="fill:#ffffff;fill-opacity:1;fill-rule:nonzero;stroke:none"
             id="path304"
             inkscape:connector-curvature="0" />
        </g>
        <g
           id="g306"
           transform="translate(407.711,339.3525)">
          <path
             d="M 0,0 H 2.007 V -3.927 L 5.412,0 H 7.869 L 5.051,-3.162 8.083,-9.344 H 5.896 L 3.664,-4.73 1.984,-6.622 V -9.344 H 0 Z"
             style="fill:#ffffff;fill-opacity:1;fill-rule:nonzero;stroke:none"
             id="path308"
             inkscape:connector-curvature="0" />
        </g>
        <g
           id="g310"
           transform="translate(336.4468,312.2486)">
          <path
             d="m 0,0 c -0.35,-0.673 -1.184,-2.293 -3.552,-2.293 -2.57,0 -4.182,1.904 -4.182,4.937 0,2.916 1.601,4.924 3.923,4.924 2.729,0 3.394,-1.827 3.698,-2.565 L -1.736,3.914 c -0.417,1.101 -0.981,1.736 -1.939,1.736 -1.229,0 -1.962,-1.114 -1.962,-3.006 0,-1.879 0.755,-2.968 2.075,-2.968 1.183,0 1.758,1.141 1.984,1.594 z"
             style="fill:#ffffff;fill-opacity:1;fill-rule:nonzero;stroke:none"
             id="path312"
             inkscape:connector-curvature="0" />
        </g>
        <g
           id="g314"
           transform="translate(346.7913,311.9639)">
          <path
             d="M 0,0 C 1.33,0 2.097,1.14 2.097,2.941 2.097,4.743 1.33,5.844 0,5.844 -1.331,5.844 -2.097,4.743 -2.097,2.941 -2.097,1.14 -1.331,0 0,0 M 0,7.878 C 2.3,7.878 4.205,6.129 4.205,2.941 4.194,-0.182 2.3,-2.009 0,-2.009 c -2.3,0 -4.206,1.763 -4.206,4.95 0,3.188 1.906,4.937 4.206,4.937"
             style="fill:#ffffff;fill-opacity:1;fill-rule:nonzero;stroke:none"
             id="path316"
             inkscape:connector-curvature="0" />
        </g>
        <g
           id="g318"
           transform="translate(357.7328,319.5961)">
          <path
             d="M 0,0 H 1.984 V -7.477 H 5.693 V -9.343 H 0 Z"
             style="fill:#ffffff;fill-opacity:1;fill-rule:nonzero;stroke:none"
             id="path320"
             inkscape:connector-curvature="0" />
        </g>
        <g
           id="g322"
           transform="translate(370.005,319.5961)">
          <path
             d="m 0,0 h 1.984 v -7.477 h 3.71 V -9.343 H 0 Z"
             style="fill:#ffffff;fill-opacity:1;fill-rule:nonzero;stroke:none"
             id="path324"
             inkscape:connector-curvature="0" />
        </g>
        <g
           id="g326"
           transform="translate(382.1422,319.5961)">
          <path
             d="M 0,0 H 5.637 L 5.332,-1.71 H 1.984 V -3.654 H 5.073 V -5.365 H 1.984 V -7.632 H 5.423 L 5.727,-9.343 H 0 Z"
             style="fill:#ffffff;fill-opacity:1;fill-rule:nonzero;stroke:none"
             id="path328"
             inkscape:connector-curvature="0" />
        </g>
        <g
           id="g330"
           transform="translate(401.6413,311.7307)">
          <path
             d="m 0,0 c -0.553,-0.881 -1.849,-1.763 -3.326,-1.763 -2.413,0 -4.103,1.97 -4.103,4.795 0,2.073 0.8,5.067 4.092,5.067 1.725,0 2.536,-0.92 3.202,-1.853 L -1.387,4.821 c -0.496,0.751 -1.094,1.321 -1.95,1.321 -1.466,0 -2.007,-1.153 -2.007,-3.071 0,-1.918 0.643,-2.903 1.883,-2.903 0.597,0 1.048,0.169 1.454,0.518 V 1.892 H -3.732 V 3.551 H 0 Z"
             style="fill:#ffffff;fill-opacity:1;fill-rule:nonzero;stroke:none"
             id="path332"
             inkscape:connector-curvature="0" />
        </g>
        <g
           id="g334"
           transform="translate(408.4455,319.5961)">
          <path
             d="M 0,0 H 5.637 L 5.332,-1.71 H 1.984 V -3.654 H 5.073 V -5.365 H 1.984 V -7.632 H 5.423 L 5.727,-9.343 H 0 Z"
             style="fill:#ffffff;fill-opacity:1;fill-rule:nonzero;stroke:none"
             id="path336"
             inkscape:connector-curvature="0" />
        </g>
        <path
           d="m 414.832,324.144 h -86.778 v 1.726 h 86.778 z"
           style="fill:#ffffff;fill-opacity:1;fill-rule:nonzero;stroke:none"
           id="path338"
           inkscape:connector-curvature="0" />
        <path
           d="m 418.886,344.962 h -94.885 v 2.777 h 94.885 z"
           style="fill:#fdbe56;fill-opacity:1;fill-rule:nonzero;stroke:none"
           id="path340"
           inkscape:connector-curvature="0" />
      </g>
    </g>
  </g>
</svg>
