<?xml version="1.0" encoding="UTF-8" standalone="no"?>
<svg xmlns:rdf="http://www.w3.org/1999/02/22-rdf-syntax-ns#" xmlns="http://www.w3.org/2000/svg" height="30.63498" width="279.4007" version="1.1" xmlns:cc="http://creativecommons.org/ns#" xmlns:dc="http://purl.org/dc/elements/1.1/" viewBox="0 0 279.4007 30.63498"><defs><clipPath id="clip-path" transform="translate(0.00082 -0.00024)"><rect width="279.39999" height="30.63501" fill="none"/></clipPath></defs><title>Target Center logo</title><g clip-path="url(#clip-path)"><path d="M139.51248,30.63522a15.31749,15.31749,0,1,1,15.32-15.321,15.32619,15.32619,0,0,1-15.32,15.321m10.171-15.321a10.17349,10.17349,0,1,0-10.171,10.176,10.17154,10.17154,0,0,0,10.171-10.176m-4.88495-.094a5.28552,5.28552,0,1,0-5.286,5.284,5.281,5.281,0,0,0,5.286-5.284" transform="translate(0.00082 -0.00024)" fill="#cf0a2c"/><path d="M279.39987,24.90863l-2.959-8.803a6.22491,6.22491,0,0,0,2.949-5.104c0-3.921-3.37805-5.472-6.808-5.472h-9.909v19.439h5.063v-7.079h4.18994l2.361,7.019Zm-11.66394-15.322h4.029c1.417,0,2.56.654,2.56,2.097a2.08322,2.08322,0,0,1-2.341,2.286h-4.248Z" transform="translate(0.00082 -0.00024)" fill="#939598"/><path d="M169.26663,9.48911c2.07794,0,3.56995,1.035,3.836,2.996h4.955c-.132-4.683-4.582-7.352-8.685-7.352-5.755,0-9.485,4.492-9.485,10.128s3.73,10.128,9.485,10.128c4.824,0,8.42-2.941,8.685-7.95h-4.955a3.56285,3.56285,0,0,1-3.836,3.594c-3.19806,0-4.424-2.886-4.424-5.772s1.226-5.772,4.424-5.772" transform="translate(0.00082 -0.00024)" fill="#939598"/><polygon points="186.368 16.922 195.897 16.922 195.897 13.002 186.368 13.002 186.368 9.599 196.795 9.599 196.795 5.542 181.303 5.542 181.303 24.981 197.067 24.981 197.067 20.625 186.368 20.625 186.368 16.922" fill="#939598"/><polygon points="213.317 17.521 213.263 17.521 206.511 5.541 201.311 5.541 201.311 24.98 206.075 24.98 206.075 12.866 206.13 12.866 212.881 24.98 218.082 24.98 218.082 5.541 213.317 5.541 213.317 17.521" fill="#939598"/><polygon points="247.895 16.922 257.424 16.922 257.424 13.002 247.895 13.002 247.895 9.599 258.321 9.599 258.321 5.542 242.83 5.542 242.83 24.981 258.594 24.981 258.594 20.625 247.895 20.625 247.895 16.922" fill="#939598"/><polygon points="221.458 9.846 228.001 9.846 228.001 24.93 233.065 24.93 233.065 9.846 239.607 9.846 239.607 5.49 221.458 5.49 221.458 9.846" fill="#939598"/><path d="M25.661,5.51892h5.145l7.27,19.44H32.794l-1.198-3.485H24.817l-1.226,3.485h-5.2Zm.326,12.198h4.41l-2.15-6.807h-.055Z" transform="translate(0.00082 -0.00024)" fill="#55565a"/><path d="M76.8089,22.40112c-1.62,2.16-4.728,2.965-7.089,2.965-5.881,0-9.693-4.491-9.693-10.127s3.812-10.128,9.693-10.128c4.03,0,8.331,2.151,8.793,7.024h-5.063c-.163-1.661-1.797-2.668-3.839-2.668-3.268,0-4.519,2.886-4.519,5.772s1.251,5.772,4.519,5.772c2.504,0,4.192-1.171,4.465-2.94h-3.539v-3.758h8.168c.302,3.075-.223,6.146-1.896,8.088" transform="translate(0.00082 -0.00024)" fill="#55565a"/><polygon points="82.317 5.519 97.809 5.519 97.809 9.576 87.381 9.576 87.381 12.978 96.91 12.978 96.91 16.899 87.381 16.899 87.381 20.601 98.081 20.601 98.081 24.958 82.317 24.958 82.317 5.519" fill="#55565a"/><polygon points="119.127 9.875 112.584 9.875 112.584 24.959 107.52 24.959 107.52 9.875 100.977 9.875 100.977 5.519 119.127 5.519 119.127 9.875" fill="#55565a"/><polygon points="18.15 9.875 11.608 9.875 11.608 24.959 6.544 24.959 6.544 9.875 0 9.875 0 5.519 18.15 5.519 18.15 9.875" fill="#55565a"/><path d="M57.48737,24.89844l-2.96-8.804a6.2222,6.2222,0,0,0,2.949-5.103c0-3.921-3.376-5.472-6.807-5.472h-9.91v19.439h5.064v-7.079h4.191l2.359,7.019Zm-11.664-15.322h4.029c1.417,0,2.56.654,2.56,2.097a2.084,2.084,0,0,1-2.342,2.286h-4.247Z" transform="translate(0.00082 -0.00024)" fill="#55565a"/></g></svg>