<?xml version="1.0" encoding="UTF-8" standalone="no"?>
<svg xmlns:rdf="http://www.w3.org/1999/02/22-rdf-syntax-ns#" xmlns="http://www.w3.org/2000/svg" xml:space="preserve" height="110.04" width="227" version="1.1" xmlns:cc="http://creativecommons.org/ns#" xmlns:dc="http://purl.org/dc/elements/1.1/" viewBox="0 0 226.99871 110.04297"><g><path d="m21.582 1.1953l-4.816 25.301h9.613c-0.867 4.574-10.328 54.269-10.932 57.442h-9.615l-4.8125 25.292h41.41l4.814-25.296h-6.873c0.631-3.31 4.428-23.266 7.426-39.006 1.494 20.593 4.668 64.302 4.668 64.302h25.072s19.441-42.899 28.793-63.521c-3.11 16.296-6.849 35.974-7.281 38.227h-6.869l-4.815 25.294h95.515c16.74 0 32.93-13.591 36.11-30.304 3.13-16.454-7.34-24.49-7.34-24.49 7.21-5.71 12.2-13.623 13.82-22.125 2.96-15.506-6.41-31.114-25.23-31.114l-101.63 0.0003c-0.003 0-17.601 38.823-22.837 50.375-0.893-12.274-3.658-50.375-3.658-50.375l-50.529 0.0003-0.004-0.002zm113.32 25.301h11.63c-0.87 4.572-10.32 54.269-10.93 57.442h-11.63c0.87-4.575 10.33-54.267 10.93-57.442zm43.43 0h8.87c3.86 0 7.02 2.983 6.13 7.629-0.87 4.577-5.45 8.443-10.01 8.443h-8.04c0.67-3.535 2.57-13.544 3.05-16.072zm-7.87 41.369h11.25c3.81 0 7.06 2.783 6.14 7.633-0.87 4.574-5.46 8.44-10.02 8.44h-10.43c0.67-3.537 2.58-13.543 3.06-16.073z" fill="#002a4e" transform="translate(-.0037080)"/><path d="m25.156 5.5156c-0.485 2.5525-2.492 13.08-3.172 16.656h9.618l-12.581 66.086h-9.6148c-0.4862 2.556-2.4878 13.082-3.1679 16.652h32.612c0.486-2.56 2.49-13.079 3.17-16.652h-6.874l11.333-59.535h4.468c0.494 6.749 5.267 72.577 5.533 76.187h18.264c1.03-2.26 30.026-66.233 34.536-76.187h4.68l-11.34 59.535h-6.868c-0.485 2.556-2.49 13.082-3.17 16.652h90.298c14.76 0 29.05-12.018 31.86-26.791 3.23-16.964-10.36-23.795-10.36-23.795s13.9-7.353 16.85-22.82c2.47-12.981-5.16-25.988-21-25.988l-98.85-0.0004c-1.09 2.425-28.694 63.314-28.694 63.314s-4.325-59.584-4.596-63.314l-42.934-0.0004zm106.17 16.656h20.43l-12.58 66.086h-20.43l12.58-66.086zm43.43 0h12.44c7.6 0 11.65 6.065 10.38 12.76-1.28 6.704-7.54 11.953-14.26 11.953h-13.27l4.71-24.713zm-7.88 41.373h14.83c8.47 0 11.4 7.39 10.38 12.758-1.27 6.701-7.54 11.955-14.26 11.955h-15.65l4.7-24.713z" fill="#9e8b50" transform="translate(-.0037080)"/></g></svg>
