<?xml version="1.0" encoding="utf-8"?>
<!-- Generator: Adobe Illustrator 22.0.1, SVG Export Plug-In . SVG Version: 6.00 Build 0)  -->
<svg version="1.1" id="Layer_1" xmlns="http://www.w3.org/2000/svg" xmlns:xlink="http://www.w3.org/1999/xlink" x="0px" y="0px"
	 width="250.1px" height="60.58px" viewBox="0 0 250.1 60.58" enable-background="new 0 0 250.1 60.58" xml:space="preserve">
<path fill="#717074" d="M220.52,52.27v-6.34h1.34c0.54,0,0.97,0.16,1.29,0.48c0.32,0.32,0.48,0.75,0.48,1.29
	c0,0.37-0.08,0.69-0.24,0.96s-0.38,0.47-0.67,0.6c0.17,0.13,0.34,0.32,0.51,0.54c0.16,0.23,0.4,0.63,0.69,1.2
	c0.19,0.36,0.34,0.63,0.45,0.81l0.28,0.45h-0.91l-0.23-0.42l-0.05-0.08l-0.15-0.25l-0.24-0.46l-0.26-0.5
	c-0.16-0.26-0.3-0.47-0.43-0.62c-0.13-0.15-0.25-0.27-0.36-0.33c-0.11-0.07-0.29-0.1-0.54-0.1h-0.2v2.75h-0.76V52.27z M221.51,46.71
	h-0.23v1.99h0.29c0.39,0,0.65-0.04,0.8-0.12c0.14-0.08,0.25-0.2,0.34-0.36c0.08-0.16,0.12-0.34,0.12-0.54s-0.04-0.38-0.13-0.54
	c-0.09-0.16-0.21-0.28-0.38-0.34C222.15,46.74,221.88,46.71,221.51,46.71 M229.14,49.61c0.46,0.34,0.7,0.71,0.7,1.1
	c0,0.24-0.08,0.44-0.24,0.61c-0.16,0.16-0.36,0.24-0.59,0.24c-0.54,0-1.01-0.31-1.42-0.94v1.14c0.43,0.4,0.91,0.59,1.44,0.59
	c0.46,0,0.83-0.16,1.12-0.48s0.43-0.73,0.43-1.24c0-0.72-0.32-1.31-0.97-1.77l-0.58-0.41c-0.26-0.18-0.45-0.36-0.56-0.52
	c-0.11-0.17-0.17-0.35-0.17-0.54c0-0.22,0.08-0.39,0.24-0.53s0.36-0.21,0.61-0.21c0.44,0,0.85,0.22,1.23,0.66V46.3
	c-0.37-0.3-0.78-0.45-1.22-0.45c-0.46,0-0.84,0.16-1.13,0.47c-0.29,0.31-0.44,0.72-0.44,1.22c0,0.34,0.08,0.63,0.23,0.89
	s0.41,0.52,0.77,0.78L229.14,49.61 M234.01,52.27h0.76v-6.34h-0.76V52.27z M238.11,46.74h1.84v5.53h0.76v-5.53h1.87v-0.82h-4.47
	L238.11,46.74L238.11,46.74z M247.67,48.1l-1.44-2.17h-0.93l1.98,2.99v3.36h0.78v-3.36l1.99-2.99h-0.93L247.67,48.1z M70.56,36.59
	h178.11v-1.22H70.56V36.59z M75.81,50.81c-0.62,0.47-1.25,0.71-1.9,0.71c-0.62,0-1.13-0.22-1.53-0.67c-0.4-0.45-0.6-1.02-0.6-1.72
	c0-0.69,0.2-1.27,0.61-1.73c0.4-0.46,0.91-0.69,1.53-0.69c0.6,0,1.21,0.21,1.83,0.64v-0.97c-0.69-0.36-1.31-0.54-1.87-0.54
	c-0.82,0-1.5,0.32-2.06,0.95C71.27,47.42,71,48.2,71,49.12c0,0.58,0.12,1.12,0.36,1.63c0.24,0.5,0.57,0.89,0.99,1.18
	c0.41,0.28,0.92,0.43,1.52,0.43c0.74,0,1.38-0.18,1.95-0.54L75.81,50.81 M81.24,45.89h0.55l2.4,6.38h-0.78L82.7,50.4h-2.29
	l-0.67,1.87h-0.79L81.24,45.89z M82.39,49.58l-0.87-2.3l-0.82,2.3H82.39z M87.37,52.27h3.17v-0.83h-2.41v-5.51h-0.76
	C87.37,45.93,87.37,52.27,87.37,52.27z M93.81,52.27h0.76v-6.34h-0.76V52.27z M98.36,52.27h0.76v-2.95h2.1v-0.81h-2.1v-1.77h2.1
	v-0.82h-2.86V52.27z M107.26,45.84c0.83,0,1.52,0.31,2.07,0.93s0.83,1.4,0.83,2.34s-0.28,1.71-0.83,2.33
	c-0.56,0.62-1.26,0.92-2.11,0.92c-0.81,0-1.48-0.31-2.02-0.92c-0.54-0.61-0.81-1.38-0.81-2.31c0-0.95,0.27-1.73,0.81-2.35
	C105.74,46.15,106.43,45.84,107.26,45.84 M107.28,46.71c-0.61,0-1.12,0.23-1.51,0.68s-0.59,1.04-0.59,1.74
	c0,0.69,0.2,1.26,0.59,1.71c0.4,0.46,0.89,0.68,1.49,0.68s1.1-0.23,1.5-0.69c0.4-0.47,0.6-1.04,0.6-1.74c0-0.67-0.2-1.24-0.6-1.7
	C108.36,46.94,107.87,46.71,107.28,46.71 M113.7,52.27v-6.34h1.34c0.54,0,0.97,0.16,1.29,0.48s0.48,0.75,0.48,1.29
	c0,0.37-0.08,0.69-0.23,0.96c-0.16,0.27-0.38,0.47-0.67,0.6c0.17,0.13,0.34,0.32,0.51,0.54c0.16,0.23,0.4,0.63,0.69,1.2
	c0.19,0.36,0.33,0.63,0.45,0.81l0.28,0.45h-0.91l-0.23-0.42l-0.05-0.08l-0.15-0.25l-0.24-0.46l-0.26-0.5
	c-0.16-0.26-0.3-0.47-0.43-0.62c-0.13-0.15-0.25-0.27-0.36-0.33c-0.11-0.07-0.29-0.1-0.54-0.1h-0.2v2.75h-0.77
	C113.7,52.25,113.7,52.27,113.7,52.27z M114.69,46.71h-0.23v1.99h0.29c0.39,0,0.65-0.04,0.8-0.12c0.14-0.08,0.26-0.2,0.34-0.36
	c0.08-0.16,0.12-0.34,0.12-0.54s-0.04-0.38-0.13-0.54s-0.21-0.28-0.38-0.34C115.33,46.74,115.06,46.71,114.69,46.71 M125.27,50.85
	l-3.62-4.92h-0.63v6.34h0.73v-4.88l3.59,4.88H126v-6.34h-0.73V50.85z M129.73,52.27h0.76v-6.34h-0.76V52.27z M135.97,45.89h0.55
	l2.4,6.38h-0.79l-0.71-1.87h-2.29l-0.67,1.87h-0.78L135.97,45.89z M137.12,49.58l-0.87-2.3l-0.82,2.3H137.12z M148.18,49.61
	c0.46,0.34,0.7,0.71,0.7,1.1c0,0.24-0.08,0.44-0.24,0.61c-0.16,0.16-0.36,0.24-0.59,0.24c-0.54,0-1.01-0.31-1.42-0.94v1.14
	c0.43,0.4,0.91,0.59,1.44,0.59c0.46,0,0.83-0.16,1.11-0.48c0.29-0.32,0.43-0.73,0.43-1.24c0-0.72-0.32-1.31-0.97-1.77l-0.58-0.41
	c-0.26-0.18-0.45-0.36-0.56-0.52c-0.11-0.17-0.17-0.35-0.17-0.54c0-0.22,0.08-0.39,0.24-0.53s0.36-0.21,0.61-0.21
	c0.44,0,0.85,0.22,1.23,0.66V46.3c-0.37-0.3-0.78-0.45-1.22-0.45c-0.47,0-0.84,0.16-1.13,0.47c-0.29,0.31-0.43,0.72-0.43,1.22
	c0,0.34,0.08,0.63,0.23,0.89s0.41,0.52,0.77,0.78L148.18,49.61 M152.6,46.74h1.84v5.53h0.76v-5.53h1.87v-0.82h-4.47L152.6,46.74
	L152.6,46.74z M161.29,45.89h0.55l2.4,6.38h-0.79l-0.71-1.87h-2.29l-0.66,1.87H159L161.29,45.89z M162.43,49.58l-0.87-2.3l-0.82,2.3
	H162.43z M166.18,46.74h1.84v5.53h0.76v-5.53h1.87v-0.82h-4.47L166.18,46.74L166.18,46.74z M173.96,52.27h3.1v-0.82h-2.34v-1.98
	h2.18v-0.81h-2.18v-1.92H177v-0.82h-3.03L173.96,52.27L173.96,52.27z M188.99,49.54c0,0.5-0.03,0.85-0.1,1.06
	c-0.07,0.21-0.18,0.39-0.33,0.54c-0.29,0.28-0.66,0.42-1.12,0.42c-0.32,0-0.6-0.07-0.84-0.21c-0.24-0.14-0.41-0.33-0.53-0.56
	s-0.17-0.65-0.17-1.25v-3.61h-0.76v3.6c0,0.51,0.03,0.89,0.08,1.13c0.06,0.24,0.13,0.44,0.22,0.61c0.09,0.16,0.2,0.31,0.33,0.45
	c0.42,0.43,0.98,0.64,1.68,0.64c0.69,0,1.24-0.22,1.66-0.65c0.13-0.13,0.24-0.28,0.33-0.44c0.09-0.17,0.16-0.37,0.22-0.62
	s0.09-0.62,0.09-1.1v-3.61h-0.76L188.99,49.54L188.99,49.54z M197.65,50.85l-3.62-4.92h-0.63v6.34h0.73v-4.88l3.59,4.88h0.66v-6.34
	h-0.73V50.85z M202.11,52.27h0.76v-6.34h-0.76V52.27z M208.43,50.39l-1.6-4.46h-0.77l2.28,6.38h0.19l2.27-6.38h-0.78L208.43,50.39z
	 M213.99,52.27h3.1v-0.82h-2.34v-1.98h2.18v-0.81h-2.18v-1.92h2.27v-0.82h-3.03L213.99,52.27L213.99,52.27z M86.92,10.95
	c-2.33-1.09-4.58-1.63-6.74-1.63c-2.75,0-5.11,0.95-7.1,2.85s-2.98,4.27-2.98,7.11c0,2.82,0.97,5.17,2.92,7.06s4.38,2.83,7.3,2.83
	c2.26,0,4.53-0.6,6.8-1.8v-1.56c-2.47,1.32-4.74,1.98-6.83,1.98c-2.5,0-4.56-0.8-6.17-2.4s-2.42-3.64-2.42-6.11
	c0-2.45,0.8-4.49,2.4-6.12c1.6-1.64,3.59-2.45,5.97-2.45c2.23,0,4.51,0.62,6.84,1.87L86.92,10.95 M90.34,9.6v19.3h1.35v-8.96
	c1.12-1.82,2.51-2.72,4.17-2.72c2.31,0,3.46,1.47,3.46,4.41v7.27h1.35v-7.8c0-1.62-0.43-2.89-1.29-3.81s-2.01-1.39-3.44-1.39
	c-1.73,0-3.13,0.82-4.19,2.45h-0.06V9.6H90.34z M115.07,26.72v1.13c-1.16,0.89-2.02,1.33-2.56,1.33c-0.31,0-0.53-0.1-0.65-0.31
	s-0.21-0.63-0.26-1.26c-1.32,1.04-2.64,1.57-3.95,1.57c-0.95,0-1.75-0.31-2.41-0.95c-0.66-0.63-0.99-1.39-0.99-2.29
	c0-1.39,0.63-2.48,1.91-3.28c1.27-0.8,3.08-1.26,5.44-1.38v-1.62c0-1.74-0.93-2.61-2.8-2.61c-1.19,0-2.47,0.53-3.85,1.59v-1.39
	c1.43-0.9,2.78-1.35,4.07-1.35c1.14,0,2.08,0.28,2.82,0.85s1.11,1.4,1.11,2.48v7.97c0,0.44,0.1,0.65,0.3,0.65
	C113.52,27.86,114.12,27.48,115.07,26.72 M111.61,26.42v-4c-1.73-0.07-3.16,0.24-4.29,0.92c-1.14,0.68-1.7,1.55-1.7,2.61
	c0,0.59,0.24,1.1,0.71,1.5c0.47,0.41,1.07,0.61,1.78,0.61C109.25,28.07,110.42,27.52,111.61,26.42 M117.85,16.18V28.9h1.35v-8.96
	c1.09-1.82,2.48-2.72,4.16-2.72c2.31,0,3.46,1.47,3.46,4.41v7.27h1.35v-7.77c0-1.63-0.43-2.91-1.28-3.84
	c-0.86-0.92-2.01-1.39-3.45-1.39c-1.73,0-3.13,0.82-4.19,2.45h-0.05v-2.17C119.2,16.18,117.85,16.18,117.85,16.18z M132.5,16.18
	V28.9h1.35v-8.96c1.09-1.82,2.48-2.72,4.17-2.72c2.31,0,3.46,1.47,3.46,4.41v7.27h1.35v-7.77c0-1.63-0.43-2.91-1.29-3.84
	c-0.86-0.92-2-1.39-3.44-1.39c-1.73,0-3.13,0.82-4.19,2.45h-0.06v-2.17C133.85,16.18,132.5,16.18,132.5,16.18z M157.88,22.07h-9.94
	c-0.03,0.22-0.04,0.44-0.04,0.67c0,1.43,0.5,2.64,1.51,3.63s2.2,1.49,3.57,1.49c1.6,0,3.17-0.64,4.7-1.91v1.54
	c-1.45,1.12-3.07,1.69-4.86,1.69c-1.82,0-3.32-0.64-4.52-1.92c-1.19-1.28-1.79-2.9-1.79-4.87c0-1.87,0.55-3.42,1.65-4.64
	c1.1-1.23,2.48-1.84,4.14-1.84c1.56,0,2.89,0.55,3.96,1.66C157.34,18.67,157.88,20.17,157.88,22.07 M148.12,20.96h8.17
	c-0.48-2.5-1.8-3.74-3.99-3.74c-1.03,0-1.93,0.33-2.68,0.98C148.87,18.86,148.37,19.78,148.12,20.96 M163.07,9.59h-1.35V28.9h1.35
	V9.59z M178.24,9.59h-1.49V28.9h1.49V9.59z M189.98,16.98c-1.22-0.72-2.34-1.07-3.38-1.07c-1.13,0-2.1,0.34-2.89,1.02
	s-1.19,1.51-1.19,2.48c0,0.69,0.21,1.31,0.64,1.87c0.42,0.56,1.35,1.13,2.78,1.7c1.43,0.57,2.3,1.05,2.62,1.42
	c0.32,0.38,0.48,0.79,0.48,1.23c0,0.65-0.25,1.19-0.74,1.61c-0.5,0.42-1.13,0.63-1.9,0.63c-1.14,0-2.46-0.39-3.94-1.18V28
	c1.25,0.79,2.5,1.18,3.77,1.18c1.17,0,2.15-0.34,2.94-1.02c0.79-0.68,1.19-1.52,1.19-2.51c0-0.74-0.22-1.41-0.66-2.01
	s-1.37-1.18-2.8-1.74c-1.43-0.56-2.3-1.02-2.62-1.39c-0.32-0.36-0.48-0.76-0.48-1.2c0-0.61,0.26-1.12,0.78-1.54
	c0.52-0.41,1.16-0.62,1.92-0.62c1.02,0,2.18,0.43,3.46,1.28v-1.45 M195.43,9.59h-1.35V28.9h1.35V9.59z M210.07,26.72v1.13
	c-1.16,0.89-2.02,1.33-2.56,1.33c-0.31,0-0.53-0.1-0.65-0.31s-0.21-0.63-0.26-1.26c-1.32,1.04-2.64,1.57-3.95,1.57
	c-0.95,0-1.75-0.31-2.41-0.95c-0.66-0.63-0.99-1.39-0.99-2.29c0-1.39,0.63-2.48,1.91-3.28c1.27-0.8,3.08-1.26,5.44-1.38v-1.62
	c0-1.74-0.93-2.61-2.8-2.61c-1.19,0-2.47,0.53-3.85,1.59v-1.39c1.42-0.9,2.78-1.35,4.07-1.35c1.14,0,2.08,0.28,2.82,0.85
	s1.11,1.4,1.11,2.48v7.97c0,0.44,0.1,0.65,0.31,0.65C208.52,27.86,209.13,27.48,210.07,26.72 M206.61,26.42v-4
	c-1.73-0.07-3.16,0.24-4.29,0.92c-1.14,0.68-1.7,1.55-1.7,2.61c0,0.59,0.24,1.1,0.71,1.5c0.47,0.41,1.07,0.61,1.78,0.61
	C204.25,28.07,205.42,27.52,206.61,26.42 M212.85,16.18V28.9h1.35v-8.96c1.09-1.82,2.48-2.72,4.16-2.72c2.31,0,3.46,1.47,3.46,4.41
	v7.27h1.35v-7.77c0-1.63-0.43-2.91-1.29-3.84c-0.86-0.92-2-1.39-3.44-1.39c-1.73,0-3.13,0.82-4.19,2.45h-0.05v-2.17
	C214.2,16.18,212.85,16.18,212.85,16.18z M238.35,9.6v19.3H237v-0.96c-1.15,0.82-2.38,1.24-3.71,1.24c-1.78,0-3.29-0.64-4.51-1.92
	s-1.83-2.86-1.83-4.73c0-1.9,0.6-3.48,1.81-4.73c1.2-1.26,2.72-1.89,4.53-1.89c1.16,0,2.39,0.34,3.71,1.01V9.6H238.35z M236.99,26.7
	v-8.29c-1.2-0.79-2.42-1.19-3.65-1.19c-1.45,0-2.64,0.49-3.57,1.47c-0.94,0.98-1.4,2.23-1.4,3.76c0,1.55,0.5,2.84,1.5,3.87
	s2.25,1.55,3.75,1.55C234.78,27.86,235.9,27.47,236.99,26.7 M249.66,16.98c-1.22-0.72-2.34-1.07-3.38-1.07
	c-1.13,0-2.1,0.34-2.89,1.02s-1.19,1.51-1.19,2.48c0,0.69,0.21,1.31,0.64,1.87c0.43,0.56,1.35,1.13,2.78,1.7
	c1.43,0.57,2.3,1.05,2.62,1.42c0.32,0.38,0.48,0.79,0.48,1.23c0,0.65-0.25,1.19-0.74,1.61s-1.13,0.63-1.9,0.63
	c-1.14,0-2.46-0.39-3.94-1.18V28c1.25,0.79,2.51,1.18,3.77,1.18c1.17,0,2.14-0.34,2.94-1.02c0.79-0.68,1.19-1.52,1.19-2.51
	c0-0.74-0.22-1.41-0.66-2.01s-1.37-1.18-2.8-1.74c-1.43-0.56-2.3-1.02-2.62-1.39c-0.32-0.36-0.48-0.76-0.48-1.2
	c0-0.61,0.26-1.12,0.78-1.54c0.52-0.41,1.16-0.62,1.92-0.62c1.03,0,2.18,0.43,3.46,1.28v-1.45"/>
<g>
	<path fill="#D21F36" d="M30.86,0.01L30.86,0.01c-17.01,0-30.81,13.56-30.81,30.27c0,0.78,0.03,1.56,0.09,2.33
		c1.21,15.64,14.5,27.95,30.72,27.95c17.02,0,30.81-13.56,30.81-30.28C61.67,13.57,47.88,0.01,30.86,0.01z"/>
	<path fill="#FFFFFF" d="M17.96,15.25c3.66-0.4,7.37,1.18,9.91,4.23l0.77,0.93l-4.09-0.07l-0.13-0.1c-1.84-1.38-3.23-2.26-5.75-2.01
		c-4.4,0.43-9.03,5.37-8.91,12.04c0.12,5.93,4.05,10.82,8.96,11.11c1.51,0.09,3.62-0.12,5.14-1.64l0.18-0.19l4.17-0.13l-0.82,0.95
		c-2.8,3.27-5.41,4.59-8.74,4.39C11.75,44.36,6.33,38,6.33,30.27C6.33,22.31,11.22,15.99,17.96,15.25"/>
	<path fill="#FFFFFF" d="M51.5,17.13v20.31c-0.13,2.27-2.68,3.98-6.06,4.03c-3.21-0.29-5.39-1.87-5.52-4.02V17.13H36.5v20.31
		c0.25,4.02,4.13,7.14,8.82,7.14l0.94,0.04c4.58,0,8.42-3.2,8.56-7.12V17.13H51.5z"/>
	<path fill="#FFFFFF" d="M29.37,9.59c-6.5,0.2-11.28,4.66-11.37,10.63c-0.07,4.71,3.82,8.76,10.4,10.83l2.5,1.02
		c2.58,0.89,5.56,3.39,5.56,7.52c-0.28,4.26-3.77,7.63-7.94,7.63c-3.14,0-6.76-2.01-8.41-4.67l-0.26-0.42l-2.82,1.58l0.32,0.51
		c1.97,3.07,6.62,6.25,10.99,6.25c3.51,0,7.08-1.72,9.31-4.47c1.8-2.22,2.55-4.93,2.11-7.62c-0.88-5.4-3.67-8.14-10.67-10.49
		c-2.91-0.98-7.79-3.3-7.79-7.87c0-1.79,0.84-3.62,2.3-5.02c1.65-1.58,3.87-2.41,5.96-2.23c4.95,0.27,6.07,1.77,6.74,3.16l0.14,0.3
		l3.47,0.04l-0.22-0.72C37.82,9.33,31.46,9.53,29.37,9.59"/>
</g>
</svg>
