<?xml version="1.0" encoding="UTF-8" standalone="no"?>
<svg xmlns:rdf="http://www.w3.org/1999/02/22-rdf-syntax-ns#" xmlns="http://www.w3.org/2000/svg" xml:space="preserve" height="64.358" viewBox="0 0 194.636 64.358002" width="194.64" version="1.1" xmlns:cc="http://creativecommons.org/ns#" xmlns:dc="http://purl.org/dc/elements/1.1/"><g transform="matrix(1.25 0 0 -1.25 -450.51 816.78)"><path d="m361.82 652.05v-0.5-47.886-0.5h0.5 43.177 0.5v0.5 9.6969 0.5h-0.5-26.125v37.689 0.5h-0.5-16.552-0.5zm61.073 0c-8.157 0-14.792-5.0037-14.792-11.155v-18.138-0.5h0.5 34.161v-4.7078c0-2.001-2.2864-3.6297-5.0984-3.6297h-29.062-0.5v-0.5-9.7562-0.5h0.5 36.864c8.19 0 14.853 5.0037 14.853 11.155v18.197 0.5h-0.5-34.161v4.6469c0 1.968 2.3071 3.6297 5.0391 3.6297h29.122 0.5v0.5 9.7578 0.5h-0.5-36.925zm74.134 0v-0.5-34c0-2.035-2.2874-3.6891-5.0984-3.6891h-12.128v37.569 0.5h-0.5-16.377-0.5v-0.5-47.766-0.5h0.5 36.808c8.158 0 14.794 5.0037 14.794 11.155v37.231 0.5h-0.5-16.498-0.5z" stroke="#fdd023" stroke-miterlimit="10" fill="#461d7c"/></g></svg>
