<?xml version="1.0" encoding="utf-8"?>
<!-- Generator: Adobe Illustrator 15.1.0, SVG Export Plug-In . SVG Version: 6.00 Build 0)  -->
<!DOCTYPE svg PUBLIC "-//W3C//DTD SVG 1.1//EN" "http://www.w3.org/Graphics/SVG/1.1/DTD/svg11.dtd">
<svg version="1.1" id="Layer_1" xmlns="http://www.w3.org/2000/svg" xmlns:xlink="http://www.w3.org/1999/xlink" x="0px" y="0px"
	 width="253.012px" height="76.844px" viewBox="0 0 253.012 76.844" enable-background="new 0 0 253.012 76.844"
	 xml:space="preserve">
<g>
	<defs>
		<rect id="SVGID_1_" x="-93.488" y="-4.875" width="595.275" height="43.142"/>
	</defs>
	<clipPath id="SVGID_2_">
		<use xlink:href="#SVGID_1_"  overflow="visible"/>
	</clipPath>
	<g clip-path="url(#SVGID_2_)">
		<path fill="#D31245" d="M2.617,11.273c0-4.958-0.025-7.617-0.075-7.978c-0.023-0.65-0.128-1.131-0.314-1.444
			c-0.21-0.349-0.618-0.572-1.224-0.668C0.631,1.111,0.229,1.075-0.202,1.075C-0.4,1.075-0.499,1-0.499,0.849
			c0-0.185,0.192-0.278,0.576-0.278C2.149,0.596,3.5,0.632,4.129,0.68c0.256,0,0.85-0.024,1.781-0.072
			c0.931-0.024,1.944-0.036,3.039-0.036c0.931,0,1.991-0.012,3.178-0.036c1.199,0.024,2.451,0.156,3.755,0.396
			c1.339,0.205,2.654,0.613,3.947,1.227c1.257,0.613,2.41,1.485,3.458,2.615c0.931,0.938,1.741,2.182,2.428,3.733
			c0.675,1.551,1.024,3.439,1.048,5.663c-0.023,2.309-0.419,4.335-1.188,6.078c-0.734,1.779-1.625,3.222-2.672,4.328
			c-0.361,0.397-0.838,0.842-1.432,1.335s-1.345,0.962-2.252,1.407c-1.77,0.95-4.157,1.455-7.161,1.515
			c-1.642-0.024-3.301-0.102-4.977-0.234c-1.688-0.145-2.672-0.216-2.952-0.216c-0.722,0.024-1.892,0.06-3.51,0.108
			c-0.384,0-0.576-0.093-0.576-0.278c0-0.115,0.093-0.191,0.278-0.226c0.359,0,0.719-0.048,1.078-0.145
			c0.36-0.097,0.609-0.331,0.748-0.705c0.139-0.337,0.232-0.776,0.278-1.318c0.127-1.686,0.191-4.365,0.191-8.038V11.273z
			 M5.607,15.27c0,4.281,0.023,6.951,0.07,8.009c0.023,0.469,0.07,0.986,0.14,1.551c0.023,0.601,0.105,1.022,0.245,1.263
			c0.222,0.349,0.77,0.667,1.644,0.956c0.887,0.349,2.368,0.523,4.444,0.523c3.463-0.024,6.309-1.172,8.537-3.445
			c0.933-0.998,1.65-2.291,2.152-3.877c0.233-0.782,0.419-1.594,0.56-2.436c0.105-0.805,0.158-1.641,0.158-2.507
			c0-1.178-0.099-2.26-0.297-3.247c-0.21-0.962-0.496-1.828-0.857-2.597c-0.338-0.782-0.711-1.467-1.12-2.057
			c-0.373-0.565-0.764-1.034-1.172-1.407c-1.691-1.792-3.528-2.946-5.511-3.463c-1.982-0.493-4.053-0.728-6.21-0.704
			c-0.373,0-0.799,0.012-1.277,0.036C6.61,1.94,6.26,2.013,6.062,2.085c-0.303,0.12-0.443,0.367-0.42,0.739
			C5.619,4.64,5.607,7.262,5.607,10.688V15.27z"/>
		<path fill="#D31245" d="M35.661,14.495c-0.024-3.222,1.1-6.384,3.371-9.486c2.258-3.174,5.833-4.828,10.722-4.96
			c4.121,0.024,7.468,1.245,10.041,3.661c2.631,2.441,3.97,5.837,4.017,10.19c-0.023,4.232-1.31,7.779-3.859,10.641
			c-2.561,2.91-6.03,4.4-10.408,4.473c-4.866-0.097-8.399-1.695-10.6-4.797C36.731,21.258,35.637,18.018,35.661,14.495z
			 M39.048,13.467c0.023,4.329,1.131,7.75,3.324,10.263c2.122,2.562,4.833,3.854,8.133,3.878c0.863,0,1.842-0.174,2.938-0.523
			c1.096-0.313,2.168-0.914,3.218-1.804c1.073-0.914,1.959-2.207,2.659-3.878c0.688-1.647,1.043-3.8,1.067-6.457
			c-0.047-4.461-1.143-7.853-3.289-10.173c-2.134-2.309-4.664-3.463-7.591-3.463c-3.032,0-5.516,1.01-7.451,3.03
			C40.075,6.36,39.072,9.402,39.048,13.467z"/>
		<path fill="#D31245" d="M98.971,23.417h0.14c1.701-5.623,3.541-11.915,5.521-18.875c0.279-1.228,0.407-2.017,0.384-2.366
			c0-0.349-0.117-0.62-0.35-0.813c-0.314-0.192-0.874-0.289-1.677-0.289c-0.221,0-0.332-0.087-0.332-0.26
			c0-0.162,0.204-0.243,0.612-0.243c1.98,0.024,3.197,0.061,3.651,0.108c0.186,0,0.577-0.024,1.17-0.072
			c0.582-0.024,1.159-0.036,1.73-0.036c0.326,0,0.489,0.07,0.489,0.208c0,0.197-0.104,0.295-0.314,0.295
			c-0.291,0-0.699,0.061-1.223,0.18c-0.524,0.193-0.95,0.65-1.275,1.372c-0.338,0.71-0.688,1.583-1.048,2.617
			c-2.283,7.147-4.479,14.012-6.586,20.593c-0.419,1.324-0.728,2.184-0.926,2.581c-0.187,0.421-0.379,0.62-0.577,0.596
			c-0.163,0-0.314-0.15-0.455-0.451c-0.174-0.289-0.378-0.782-0.611-1.48L90.289,6.547h-0.087
			c-2.481,6.893-4.974,13.726-7.478,20.499c-0.256,0.77-0.454,1.288-0.594,1.552c-0.175,0.276-0.367,0.415-0.577,0.415
			c-0.14,0-0.297-0.187-0.472-0.56c-0.163-0.373-0.425-1.161-0.787-2.364l-6.359-21.91c-0.268-0.963-0.542-1.655-0.821-2.076
			c-0.314-0.397-0.699-0.668-1.153-0.812c-0.641-0.145-1.177-0.217-1.607-0.217c-0.187,0.024-0.297-0.063-0.332-0.26
			c0.035-0.162,0.227-0.243,0.577-0.243c2.154,0.024,3.564,0.061,4.228,0.108c0.187,0,0.629-0.024,1.328-0.072
			c0.664-0.024,1.45-0.036,2.358-0.036c0.454,0,0.669,0.082,0.646,0.243c-0.023,0.198-0.146,0.285-0.367,0.26
			c-0.14,0-0.343,0-0.611,0c-0.279,0.024-0.542,0.097-0.786,0.217c-0.279,0.096-0.431,0.392-0.454,0.885
			c0,0.097,0.035,0.259,0.105,0.488c0.023,0.217,0.07,0.476,0.14,0.777c0.116,0.59,0.262,1.3,0.437,2.131
			c1.596,6.156,3.191,12.12,4.787,17.891h0.07l7.582-21.057c0.455-1.223,0.751-1.787,0.891-1.69c0.151,0,0.285,0.125,0.402,0.375
			c0.14,0.286,0.309,0.732,0.507,1.339L98.971,23.417z"/>
		<path fill="#D31245" d="M121.615,23.489c0.023,1.481,0.151,2.529,0.385,3.143c0.222,0.638,0.56,1.018,1.015,1.138
			c0.781,0.181,1.376,0.253,1.784,0.217c0.187,0,0.28,0.075,0.28,0.226c0,0.185-0.209,0.278-0.627,0.278
			c-2.126-0.047-3.386-0.082-3.781-0.104c-0.5,0.023-1.644,0.058-3.433,0.104c-0.383,0-0.575-0.093-0.575-0.278
			c0-0.15,0.099-0.226,0.297-0.226c0.35,0.036,0.84-0.036,1.47-0.217c0.443-0.12,0.741-0.523,0.893-1.209
			c0.116-0.698,0.175-1.859,0.175-3.483l0.035-21.17c0-0.746,0.035-1.251,0.105-1.516c0.07-0.229,0.169-0.343,0.297-0.343
			c0.163,0.024,0.373,0.174,0.628,0.451c0.221,0.265,0.425,0.512,0.611,0.74c1.315,1.48,5.104,5.703,11.368,12.668
			c4.063,4.56,6.926,7.778,8.591,9.654L140.73,4.759c0-1.204-0.082-2.065-0.245-2.583c-0.187-0.494-0.571-0.801-1.154-0.921
			c-0.757-0.12-1.34-0.181-1.748-0.181c-0.21,0-0.304-0.087-0.28-0.26c0-0.162,0.239-0.243,0.716-0.243
			c1.851,0.024,3.091,0.061,3.719,0.108c0.21,0,0.588-0.024,1.135-0.072c0.547-0.024,1.182-0.036,1.903-0.036
			c0.408,0,0.623,0.082,0.646,0.243c0,0.173-0.135,0.26-0.403,0.26c-0.164,0-0.45,0.036-0.858,0.108
			c-0.549,0.096-0.905,0.391-1.069,0.884c-0.199,0.493-0.287,1.293-0.263,2.4l-0.07,21.658c0,1.155-0.012,1.883-0.035,2.184
			c-0.047,0.289-0.14,0.433-0.279,0.433c-0.07,0.108-0.944-0.679-2.621-2.362c-1.409-1.418-4.52-4.754-9.33-10.007
			c-4.613-5.17-7.729-8.699-9.348-10.586L121.615,23.489z"/>
		<path fill="#D31245" d="M161.343,29.013c-1.716,0-3.333-0.331-4.849-0.992c-0.235-0.132-0.376-0.282-0.423-0.451
			c-0.071-0.168-0.106-0.487-0.106-0.956c0.023-1.948,0.082-3.252,0.176-3.913c0.023-0.397,0.118-0.595,0.282-0.595
			c0.176,0,0.264,0.132,0.264,0.397c-0.024,0.373,0.011,0.83,0.105,1.371c0.306,1.359,0.963,2.321,1.974,2.886
			c1.01,0.613,2.132,0.908,3.366,0.884c1.727-0.024,3.025-0.553,3.895-1.587c0.846-0.986,1.269-2.092,1.269-3.319
			c0-1.238-0.297-2.351-0.891-3.337c-0.628-0.95-1.705-2.056-3.229-3.319l-1.606-1.371c-1.839-1.599-3.078-3.024-3.718-4.274
			c-0.641-1.263-0.95-2.507-0.925-3.734c0.093-4.304,2.563-6.523,7.41-6.655c0.711,0,1.34,0.024,1.888,0.072
			c0.524,0.084,1.002,0.187,1.433,0.307c0.617,0.12,1.037,0.18,1.258,0.18c0.232,0,0.349,0.084,0.349,0.251
			c-0.044,0.156-0.087,1.455-0.131,3.898c0,0.577-0.081,0.866-0.243,0.866c-0.197,0-0.294-0.163-0.294-0.487
			c0-0.253-0.047-0.57-0.141-0.954c-0.093-0.395-0.199-0.688-0.315-0.88c-0.047-0.131-0.146-0.305-0.298-0.521
			c-0.164-0.204-0.427-0.413-0.789-0.628c-0.304-0.239-0.742-0.437-1.315-0.592c-0.573-0.144-1.269-0.216-2.086-0.216
			c-1.251,0-2.292,0.367-3.122,1.1c-0.842,0.746-1.274,1.81-1.297,3.193c-0.024,0.974,0.285,1.906,0.926,2.795
			c0.652,0.866,1.799,2.002,3.441,3.409l0.996,0.812c2.073,1.672,3.482,3.169,4.228,4.491c0.688,1.335,1.02,2.73,0.996,4.185
			c0,0.782-0.191,1.756-0.574,2.922c-0.209,0.541-0.505,1.094-0.888,1.659c-0.407,0.542-0.929,1.059-1.567,1.551
			C165.178,28.496,163.363,29.013,161.343,29.013z"/>
		<path fill="#D31245" d="M186.178,17.782c-0.036,3.673,0.022,6.352,0.175,8.038c0.047,0.542,0.164,0.981,0.35,1.319
			c0.175,0.373,0.525,0.608,1.051,0.704c0.619,0.094,1.155,0.14,1.611,0.14c0.187,0.035,0.28,0.111,0.28,0.228
			c0,0.187-0.192,0.28-0.575,0.28c-2.348-0.047-3.807-0.082-4.376-0.104c-0.721,0.023-1.889,0.058-3.505,0.104
			c-0.384,0-0.575-0.093-0.575-0.278c0-0.115,0.093-0.191,0.278-0.226c0.359,0,0.719-0.048,1.078-0.145
			c0.36-0.097,0.609-0.331,0.748-0.705c0.139-0.337,0.232-0.776,0.278-1.318c0.127-1.686,0.191-4.365,0.191-8.038V11.28
			c0-4.961-0.025-7.622-0.075-7.983c-0.046-1.24-0.448-1.933-1.206-2.077c-0.431-0.096-0.804-0.145-1.119-0.145
			c-0.187,0-0.28-0.075-0.28-0.226c0-0.185,0.192-0.278,0.575-0.278c1.708,0.024,2.911,0.061,3.608,0.108
			c0.163,0,0.633-0.024,1.412-0.072c0.79-0.024,1.481-0.036,2.074-0.036c0.383,0,0.575,0.093,0.575,0.278
			c-0.023,0.15-0.117,0.226-0.28,0.226c-0.222,0-0.526,0.037-0.911,0.108c-0.456,0.073-0.777,0.271-0.964,0.596
			c-0.21,0.337-0.327,0.843-0.35,1.517c-0.023,0.482-0.035,1.229-0.035,2.24c-0.023,1.036-0.035,2.95-0.035,5.744V17.782z"/>
		<path fill="#D31245" d="M202.688,11.273c0-4.958-0.025-7.617-0.075-7.978c-0.023-0.65-0.128-1.131-0.314-1.444
			c-0.21-0.349-0.618-0.572-1.224-0.668c-0.373-0.072-0.774-0.108-1.206-0.108c-0.198,0-0.297-0.075-0.297-0.226
			c0-0.185,0.192-0.278,0.576-0.278c2.072,0.024,3.423,0.061,4.052,0.108c0.256,0,0.85-0.024,1.781-0.072
			c0.931-0.024,1.944-0.036,3.039-0.036c0.931,0,1.991-0.012,3.179-0.036c1.199,0.024,2.45,0.156,3.754,0.396
			c1.34,0.205,2.654,0.613,3.947,1.227c1.258,0.613,2.41,1.485,3.458,2.615c0.931,0.938,1.74,2.182,2.428,3.733
			c0.675,1.551,1.024,3.439,1.048,5.663c-0.023,2.309-0.42,4.335-1.188,6.078c-0.733,1.779-1.625,3.222-2.672,4.328
			c-0.361,0.397-0.839,0.842-1.433,1.335s-1.345,0.962-2.253,1.407c-1.77,0.95-4.156,1.455-7.16,1.515
			c-1.642-0.024-3.301-0.102-4.977-0.234c-1.689-0.145-2.673-0.216-2.952-0.216c-0.722,0.024-1.892,0.06-3.51,0.108
			c-0.384,0-0.576-0.093-0.576-0.278c0-0.115,0.093-0.191,0.278-0.226c0.359,0,0.719-0.048,1.078-0.145
			c0.36-0.097,0.609-0.331,0.748-0.705c0.139-0.337,0.232-0.776,0.278-1.318c0.127-1.686,0.191-4.365,0.191-8.038V11.273z
			 M205.678,15.27c0,4.281,0.023,6.951,0.07,8.009c0.023,0.469,0.07,0.986,0.141,1.551c0.023,0.601,0.104,1.022,0.244,1.263
			c0.223,0.349,0.77,0.667,1.645,0.956c0.887,0.349,2.367,0.523,4.443,0.523c3.464-0.024,6.31-1.172,8.537-3.445
			c0.933-0.998,1.65-2.291,2.152-3.877c0.232-0.782,0.419-1.594,0.559-2.436c0.105-0.805,0.158-1.641,0.158-2.507
			c0-1.178-0.1-2.26-0.297-3.247c-0.211-0.962-0.496-1.828-0.857-2.597c-0.338-0.782-0.712-1.467-1.12-2.057
			c-0.373-0.565-0.764-1.034-1.172-1.407c-1.691-1.792-3.528-2.946-5.511-3.463c-1.982-0.493-4.053-0.728-6.21-0.704
			c-0.373,0-0.799,0.012-1.276,0.036c-0.502,0.072-0.852,0.145-1.051,0.217c-0.303,0.12-0.443,0.367-0.42,0.739
			c-0.023,1.816-0.035,4.438-0.035,7.864V15.27z"/>
		<path fill="#D31245" d="M239.809,11.298c0-4.97-0.025-7.636-0.075-7.998c-0.023-0.651-0.128-1.134-0.314-1.447
			c-0.21-0.35-0.617-0.573-1.224-0.67c-0.373-0.072-0.774-0.108-1.206-0.108c-0.197,0-0.297-0.075-0.297-0.226
			c0-0.185,0.192-0.278,0.578-0.278c2.075,0.024,3.429,0.061,4.058,0.108c2.449,0,5.179-0.012,8.188-0.036
			c0.724-0.048,1.242-0.108,1.558-0.18c0.163-0.096,0.326-0.156,0.489-0.181c0.094,0.024,0.141,0.132,0.141,0.324
			c-0.025,0.192-0.124,0.768-0.297,1.729c-0.049,0.768-0.111,1.579-0.185,2.431c-0.023,0.252-0.11,0.391-0.261,0.415
			c-0.185,0-0.277-0.162-0.277-0.487c0-0.336-0.07-0.774-0.21-1.314c-0.07-0.3-0.274-0.558-0.613-0.774
			c-0.362-0.228-1.011-0.39-1.945-0.486c-0.42-0.048-1.255-0.084-2.506-0.108c-1.237,0-2.038,0-2.4,0c-0.14,0-0.21,0.121-0.21,0.361
			v10.228c-0.036,0.241,0.034,0.361,0.211,0.361c0.409,0,1.334-0.012,2.772-0.036c1.404,0,2.381-0.012,2.931-0.036
			c0.843-0.024,1.41-0.199,1.702-0.524c0.234-0.313,0.409-0.47,0.526-0.47c0.129,0,0.193,0.096,0.193,0.289
			c-0.024,0.193-0.126,0.885-0.307,2.076c-0.097,1.033-0.145,1.82-0.145,2.361c0,0.141,0,0.282,0,0.422
			c-0.023,0.176-0.104,0.264-0.243,0.264c-0.175,0-0.262-0.113-0.262-0.34c0-0.334-0.047-0.734-0.141-1.201
			c-0.046-0.274-0.187-0.543-0.42-0.806c-0.27-0.25-0.748-0.412-1.438-0.484c-1.894-0.119-3.605-0.179-5.136-0.179
			c-0.164,0-0.246,0.084-0.246,0.252v3.242c-0.036,2.341-0.036,4.442,0,6.303c0.023,1.213,0.299,2.029,0.827,2.45
			c0.528,0.408,1.643,0.601,3.344,0.576c0.504,0,1.09-0.024,1.759-0.072c0.657-0.048,1.226-0.156,1.707-0.325
			c0.88-0.349,1.42-1.239,1.619-2.669c0.046-0.361,0.151-0.541,0.314-0.541c0.175,0.024,0.25,0.205,0.227,0.541
			c0,0.228-0.053,0.757-0.157,1.586c-0.093,0.841-0.198,1.509-0.314,2.001c-0.095,0.445-0.268,0.715-0.517,0.812
			c-0.263,0.096-0.75,0.144-1.464,0.144c-5.13-0.072-8.073-0.144-8.831-0.216c-0.151,0-0.63,0.013-1.435,0.039
			c-0.788,0.048-1.479,0.072-2.069,0.072c-0.383,0-0.574-0.093-0.574-0.28c0-0.115,0.093-0.191,0.278-0.226
			c0.359,0,0.719-0.048,1.078-0.145c0.359-0.097,0.608-0.331,0.748-0.705c0.139-0.337,0.231-0.776,0.278-1.319
			c0.127-1.686,0.191-4.366,0.191-8.041V11.298z"/>
	</g>
	<g clip-path="url(#SVGID_2_)">
	</g>
</g>
<line fill="none" stroke="#D31245" stroke-width="0.9" stroke-miterlimit="3.864" x1="252.137" y1="38.267" x2="0" y2="38.267"/>
<g>
	<path fill="#A7A9AC" d="M85.76,65.158l-2.935-1.783c-1.842-1.124-3.151-2.229-3.93-3.317c-0.779-1.088-1.168-2.339-1.168-3.756
		c0-2.124,0.736-3.849,2.211-5.174c1.474-1.326,3.389-1.989,5.744-1.989c2.252,0,4.318,0.632,6.198,1.897v4.383
		c-1.944-1.87-4.036-2.804-6.275-2.804c-1.262,0-2.298,0.292-3.109,0.875c-0.811,0.583-1.216,1.33-1.216,2.24
		c0,0.808,0.299,1.565,0.896,2.27c0.598,0.705,1.559,1.445,2.882,2.221l2.949,1.745c3.29,1.965,4.936,4.467,4.936,7.504
		c0,2.163-0.724,3.92-2.172,5.271s-3.331,2.027-5.648,2.027c-2.664,0-5.091-0.819-7.279-2.457v-4.904
		c2.086,2.642,4.499,3.963,7.241,3.963c1.21,0,2.217-0.337,3.021-1.01s1.207-1.517,1.207-2.53
		C89.313,68.188,88.128,66.631,85.76,65.158z"/>
	<path fill="#A7A9AC" d="M123.878,70.204v4.248c-2.832,1.545-6.102,2.317-9.809,2.317c-3.012,0-5.567-0.605-7.665-1.815
		c-2.099-1.21-3.759-2.877-4.981-5.001c-1.224-2.124-1.835-4.422-1.835-6.893c0-3.926,1.4-7.228,4.2-9.905
		c2.799-2.677,6.252-4.016,10.358-4.016c2.832,0,5.979,0.74,9.442,2.22v4.151c-3.154-1.802-6.237-2.703-9.249-2.703
		c-3.09,0-5.654,0.975-7.694,2.925c-2.041,1.95-3.061,4.393-3.061,7.328c0,2.961,1.004,5.394,3.012,7.298
		c2.009,1.905,4.576,2.858,7.704,2.858C117.571,73.216,120.763,72.211,123.878,70.204z"/>
	<path fill="#A7A9AC" d="M151.126,49.486h3.861v26.974h-3.861V64.72h-15.157v11.74h-3.861V49.486h3.861v11.662h15.157V49.486z"/>
	<path fill="#A7A9AC" d="M177.651,49.1c4.168,0,7.638,1.319,10.41,3.958c2.772,2.639,4.158,5.947,4.158,9.925
		s-1.398,7.27-4.196,9.876c-2.798,2.607-6.326,3.91-10.584,3.91c-4.064,0-7.451-1.303-10.159-3.91
		c-2.708-2.606-4.062-5.873-4.062-9.799c0-4.029,1.363-7.363,4.091-10.002C170.036,50.419,173.483,49.1,177.651,49.1z
		 M177.806,52.768c-3.087,0-5.624,0.965-7.61,2.896c-1.987,1.931-2.98,4.396-2.98,7.395c0,2.909,0.996,5.329,2.99,7.26
		c1.993,1.931,4.488,2.896,7.484,2.896c3.009,0,5.521-0.985,7.533-2.954c2.013-1.97,3.019-4.422,3.019-7.357
		c0-2.857-1.006-5.261-3.019-7.211S180.738,52.768,177.806,52.768z"/>
	<path fill="#A7A9AC" d="M213.645,49.1c4.168,0,7.639,1.319,10.41,3.958c2.773,2.639,4.158,5.947,4.158,9.925
		s-1.398,7.27-4.195,9.876c-2.799,2.607-6.326,3.91-10.584,3.91c-4.064,0-7.451-1.303-10.16-3.91
		c-2.708-2.606-4.062-5.873-4.062-9.799c0-4.029,1.363-7.363,4.091-10.002C206.029,50.419,209.477,49.1,213.645,49.1z
		 M213.801,52.768c-3.088,0-5.625,0.965-7.611,2.896c-1.986,1.931-2.98,4.396-2.98,7.395c0,2.909,0.996,5.329,2.99,7.26
		s4.488,2.896,7.484,2.896c3.01,0,5.521-0.985,7.533-2.954c2.014-1.97,3.02-4.422,3.02-7.357c0-2.857-1.006-5.261-3.02-7.211
		C219.205,53.743,216.732,52.768,213.801,52.768z"/>
	<path fill="#A7A9AC" d="M236.443,49.486h3.861v23.459h12.146v3.514h-16.008V49.486z"/>
</g>
</svg>
