<?xml version="1.0" encoding="UTF-8" standalone="no"?>
<svg xmlns:rdf="http://www.w3.org/1999/02/22-rdf-syntax-ns#" xmlns="http://www.w3.org/2000/svg" xml:space="preserve" height="141.78" width="130.74" version="1.1" xmlns:cc="http://creativecommons.org/ns#" xmlns:dc="http://purl.org/dc/elements/1.1/" viewBox="0 0 130.74249 141.785"><g><path d="m98.543 0.96875l-4.275 2.4296h-83.217v11.809c19.791-0.42 27.97 6.135 27.97 6.135-29.746 2.361-28.332 29.275-28.332 29.275 1.89 26.915 29.276 28.334 29.276 28.334v21.529c-11.805-1.423-28.803-22.474-28.803-22.474l-10.389 7.555 29.748 36.829c5.194-2.83 9.555-3.23 9.555-3.23 0.279 13.54-15.818 11.8-15.818 11.8l-0.014 9.79h56.94v-9.79c-15.762 1.04-17.106-10.81-17.106-10.81 18.608 2.32 33.516-0.37 33.516-0.37 34.816-8.14 24.446-39.997 24.446-39.997-7.41-23.703-42.94-23.027-42.94-23.027v-14.192h-10.414c0.735 11.873-5.139 13.262-5.139 13.262l0.025-18.428c21.914 1.763 35.416 18.887 35.416 18.887l10.182-5.389-22.361-28.33-7.987 2.288c-5.762-2.08-14.302-2.567-14.302-2.567h25.496l31.304 22.498 8.2-8.816-30.977-35zm-58.58 36.429v18.887c-10.859-1.889-9.442-9.918-9.442-9.918 0.472-7.082 9.442-8.969 9.442-8.969zm41.32 41.006c21.267-0.32 20.537 13.293 20.537 13.293 1.17 18.923-38.273 12.463-38.273 12.463v-23.334c6.249 1.873 5.693 13.233 5.693 13.233h9.914v-15.582c0.733-0.04 1.443-0.062 2.129-0.073z" fill="#ceb888" transform="translate(-.0010682)"/><path d="m98.043 5.2812l-2.832 1.418h-80.826v5.5838c21.249 0 28.886 8.582 28.886 8.582v3.571c-30.692 0.942-28.802 25.232-28.802 25.232 0.943 25.497 28.802 26.443 28.802 26.443v28.799c-14.999-0.76-32.636-22.287-32.636-22.287l-5.1389 3.873 26.041 32.024c5.069-2.43 11.734-2.71 11.734-2.71 1.112 19.31-15.583 17.9-15.583 17.9v4.25h50.05v-4.25c-17.469-0.47-17.177-16.58-17.177-16.58 31.633 3.78 42.679-1.83 42.679-1.83 24.55-9.92 16.05-33.999 16.05-33.999-6.14-23.607-43.44-21.244-43.44-21.244l-0.012-14.17h-4.236c0.208 13.82-10.862 14.64-10.862 14.64v-26.914c23.138 1.419 39.053 18.387 39.053 18.387l4.387-2.332-18.885-23.609-6.609 2.125c-9.723-3.193-17.946-3.401-17.946-3.401v-5.336h30.694l29.116 21.026 4.73-5-27.237-30.192zm-54.772 28.332v25.967s-16.056-0.47-16.056-12.746c0 0 0-11.331 16.056-13.221zm37.766 41.907c24.243 0.437 23.593 15.736 23.593 15.736 1.83 23.374-44.069 15.744-44.069 15.744v-30.416c10.859 0.469 11.513 14.162 11.513 14.162h3.776v-15.105c1.845-0.112 3.571-0.151 5.187-0.121z" fill="#782f40" transform="translate(-.0010682)"/></g></svg>
