<?xml version="1.0" encoding="UTF-8" standalone="no"?>
<!-- Created with Inkscape (http://www.inkscape.org/) -->
<svg
   xmlns:svg="http://www.w3.org/2000/svg"
   xmlns="http://www.w3.org/2000/svg"
   version="1.0"
   width="1016.9291"
   height="213.66141"
   id="svg2180">
  <defs
     id="defs2182" />
  <g
     transform="translate(-180.12993,467.0623)"
     id="layer1">
    <g
       transform="translate(17.747353,17.647351)"
       id="g2526">
      <path
         d="M 572.14591,-398.15063 C 571.79896,-402.97265 568.86042,-402.97973 565.10052,-399.99163 C 549.79889,-387.8339 542.30033,-390.10684 535.01418,-392.63469 C 527.72804,-395.16253 524.67622,-410.79694 537.59867,-410.57035 C 550.52822,-410.33669 557.58071,-396.77695 557.10629,-383.66331 C 556.63896,-370.55674 548.8784,-354.23549 529.8452,-353.77524 C 510.81201,-353.315 502.81778,-371.71092 502.58411,-381.82938 C 502.35045,-391.94785 506.81135,-397.23721 508.22042,-398.61087 C 509.63659,-399.99163 510.10392,-401.1458 508.45409,-400.91214 C 495.05722,-398.3843 473.20586,-373.7785 472.96512,-366.19496 C 472.80226,-360.67902 478.01374,-359.31242 478.60852,-366.8818 C 479.08292,-372.85801 471.7897,-387.11873 467.56246,-390.33342 C 465.45239,-385.96456 456.04908,-370.33016 447.58752,-359.75143 C 445.32166,-356.91912 439.5933,-353.315 435.36606,-354.92233 C 431.13174,-356.53675 428.54725,-359.75143 428.07991,-364.58055 L 428.07991,-398.61087 C 426.19643,-400.91214 410.45581,-369.18307 405.98782,-361.59244 C 401.51983,-354.00182 392.58385,-350.07906 392.35726,-363.19979 C 392.12359,-376.76661 392.59093,-393.55518 391.64918,-396.54329 C 389.617,-403.00806 374.25874,-370.55674 365.79718,-359.97802 C 363.5384,-357.15278 359.45277,-353.315 355.22554,-354.92233 C 350.99122,-356.53675 349.34848,-359.75143 348.87406,-364.58055 C 348.40673,-369.40965 347.69864,-396.77695 347.69864,-396.77695 C 344.88049,-400.45188 328.19812,-364.35396 325.13922,-358.83094 C 321.98118,-353.13797 321.37931,-354.23549 318.08673,-356.0765 C 314.79416,-357.91043 314.79416,-358.37069 314.56049,-363.43346 C 314.32682,-368.48915 314.22062,-384.59088 314.32682,-390.10684 C 314.56049,-402.51948 314.56049,-414.0187 314.32682,-425.51792 C 314.09316,-437.01007 317.61941,-450.12371 324.19747,-458.62776 C 330.78261,-467.13888 347.46498,-468.0523 346.05589,-446.44169 C 344.42732,-421.42522 320.67123,-399.07114 309.15785,-393.55518 C 306.79285,-392.42225 293.96244,-386.67264 282.13042,-390.33342 C 263.56457,-396.08303 274.08663,-421.22696 290.11756,-406.66175 C 296.69562,-400.68555 299.05354,-392.40809 298.81279,-383.89697 C 298.57912,-375.38585 293.17648,-354.69574 272.96078,-353.77524 C 252.75217,-352.85473 246.87511,-371.93749 246.64145,-378.60762 C 246.49274,-382.7428 246.40778,-388.26583 247.34245,-390.33342 C 249.48793,-395.05632 246.87511,-393.32153 245.46603,-392.40809 C 235.22719,-385.72381 227.84191,-376.76661 220.78944,-368.72281 C 200.5171,-345.57567 197.04751,-324.10668 196.34651,-316.28948 C 195.63844,-308.47227 197.04751,-300.42848 202.92458,-300.19481 C 212.78813,-299.81245 218.43861,-318.82441 218.90595,-334.45881 C 219.49365,-354.00182 210.67806,-383.66331 209.97706,-406.66175 C 209.26897,-429.65311 219.61402,-452.1913 221.49044,-456.3265 C 223.37394,-460.46876 222.43219,-461.61585 217.49687,-459.54825 C 205.941,-454.70499 193.28761,-432.64122 193.76202,-409.64985 C 194.22935,-386.65848 200.10641,-374.69901 210.67806,-362.51295 L 206.68447,-356.30309 L 204.80807,-358.1441 C 189.76137,-372.85801 180.32973,-382.05596 180.13147,-409.64985 C 179.89073,-442.07284 207.95903,-463.4427 224.78301,-466.90521 C 229.24391,-467.82571 229.48466,-464.60394 228.07558,-459.78192 C 226.65943,-454.95282 223.60759,-437.24374 225.01668,-418.16098 C 226.42576,-399.07114 229.30056,-380.21495 230.19274,-356.76334 C 231.80009,-314.144 210.09034,-288.69559 198.93101,-288.69559 C 189.06037,-288.69559 187.41763,-299.2743 187.41763,-309.16619 C 187.41763,-319.05098 194.22935,-347.79196 217.49687,-375.38585 C 240.76438,-402.97973 258.86291,-409.41618 264.5063,-410.57035 C 270.14262,-411.71745 271.31804,-410.33669 266.85006,-405.50757 C 262.38207,-400.68555 259.56391,-394.70227 260.27198,-385.05115 C 260.973,-375.38585 266.38272,-365.73471 276.25336,-366.19496 C 286.12399,-366.64813 291.66118,-379.52103 291.76739,-383.89697 C 292.00106,-393.78177 288.20575,-396.23881 284.71492,-400.2253 C 281.89675,-403.43999 277.88194,-399.36144 283.30584,-397.69038 C 291.52665,-395.16253 301.16361,-395.85645 308.44976,-400.2253 C 315.73591,-404.59416 337.828,-420.45515 337.828,-445.75485 C 337.828,-458.16751 336.41893,-457.70725 334.77618,-457.70725 C 333.12636,-457.70725 327.7237,-453.57206 327.24929,-426.89868 C 326.78196,-400.2253 327.49004,-384.81748 327.49004,-382.51622 C 327.49004,-380.21495 327.24929,-375.38585 330.78261,-382.51622 C 334.30176,-389.64658 345.10707,-412.41137 354.2838,-412.41137 C 360.39452,-412.41137 362.97901,-407.122 362.97901,-403.43999 C 362.97901,-398.84455 362.73826,-374.92559 362.73826,-371.93749 C 362.73826,-369.40965 364.15443,-369.40965 365.79718,-371.47725 C 367.43992,-373.55192 385.07112,-400.45188 389.29836,-407.80884 C 391.06148,-410.87482 392.95206,-412.88577 397.75993,-413.11944 C 407.16322,-413.57969 406.92248,-399.30479 406.92248,-389.87317 C 406.92248,-385.05115 407.16322,-382.74988 407.16322,-379.52811 C 407.16322,-377.23394 407.87131,-376.76661 409.74771,-380.44862 C 411.86488,-384.58381 422.20284,-405.0544 425.72909,-408.96301 C 429.25533,-412.87161 430.45906,-414.46479 434.21898,-414.46479 C 437.97888,-414.46479 444.06128,-414.47895 443.82762,-396.08303 C 443.59395,-377.68711 443.82762,-368.9494 443.82762,-368.9494 C 443.82762,-367.56864 444.76936,-366.8818 446.4121,-369.40965 C 448.05485,-371.93749 468.50421,-406.42808 470.14696,-411.71745 C 471.7897,-417.0068 475.08228,-414.25237 475.31595,-410.57035 C 475.54962,-406.88833 490.36265,-386.42481 489.65457,-373.55192 C 488.95357,-360.67194 481.66742,-354.69574 475.31595,-354.92233 C 468.97154,-355.14892 466.15339,-360.44535 466.15339,-365.50104 C 466.15339,-370.55674 472.03045,-380.21495 478.84219,-386.65848 C 485.661,-393.09493 502.12386,-411.87322 525.61088,-412.87161 C 531.02061,-413.09819 530.07886,-408.96301 526.31896,-405.50757 C 522.55905,-402.05923 518.32473,-392.40809 518.56548,-385.73799 C 518.79915,-379.06786 523.02639,-367.34205 533.83877,-367.34205 C 544.65116,-367.34205 549.3528,-375.8461 549.58647,-385.27772 C 549.82014,-394.70227 545.11848,-399.99163 543.00133,-401.59898 C 537.9244,-405.47218 533.52014,-399.49597 540.89124,-397.69038 C 547.46932,-396.08303 557.58071,-400.91214 563.9251,-405.96784 C 570.26949,-411.03061 571.91224,-412.41137 577.7893,-412.18477 C 583.66637,-411.9511 586.95186,-405.50757 586.95186,-395.85645 C 586.95186,-392.40809 586.95186,-384.81748 586.95186,-382.97647 C 586.95186,-381.13546 588.83536,-379.29446 591.18618,-384.35723 C 592.31911,-386.8001 599.17333,-402.2929 605.28406,-408.72934 C 611.39479,-415.17287 613.51196,-414.25237 615.86278,-414.25237 C 618.21361,-414.25237 624.34558,-412.41137 624.34558,-399.99163 C 624.34558,-387.57191 624.34558,-374.46534 624.34558,-371.017 C 624.34558,-367.56864 626.18659,-367.34205 628.0984,-369.63624 C 629.93942,-371.93749 632.06365,-374.23876 634.40032,-377.00027 C 636.80779,-379.7547 642.68485,-379.29446 638.22396,-372.85801 C 633.69224,-366.42155 628.31083,-352.62108 619.15535,-352.85473 C 609.98572,-353.08132 608.34297,-362.9732 608.1093,-366.64813 C 607.87563,-370.33016 607.16755,-392.86126 607.40122,-395.62278 C 607.63489,-398.3843 605.73724,-397.81783 604.3494,-395.39619 C 602.23224,-391.71418 590.69052,-368.50331 587.19261,-362.51295 C 584.36737,-357.68385 582.02362,-353.77524 578.4903,-353.77524 C 574.97115,-353.77524 572.38666,-356.76334 572.38666,-364.12029 C 572.38666,-371.47725 572.62033,-391.71418 572.14591,-398.15063"
         style="fill:#ec1b24;fill-rule:nonzero;stroke:none"
         id="path28" />
      <path
         d="M 1093.8736,-398.15063 C 1093.5195,-402.97265 1090.6164,-402.97973 1086.8636,-399.99163 C 1071.569,-387.8339 1064.0634,-390.10684 1056.7701,-392.63469 C 1049.4769,-395.16253 1046.4322,-410.79694 1059.39,-410.57035 C 1072.2771,-410.33669 1079.3579,-396.77695 1078.8622,-383.66331 C 1078.3666,-370.55674 1070.6485,-354.23549 1051.6012,-353.77524 C 1032.5538,-353.315 1024.5525,-371.71092 1024.3401,-381.82938 C 1024.1276,-391.94785 1028.5886,-397.23721 1030.0047,-398.61087 C 1031.4209,-399.99163 1031.8457,-401.1458 1030.2171,-400.91214 C 1016.8344,-398.3843 994.95474,-373.7785 994.74232,-366.19496 C 994.5299,-360.67902 999.7697,-359.31242 1000.3361,-366.8818 C 1000.8318,-372.85801 993.53859,-387.11873 989.29011,-390.33342 C 987.16586,-385.96456 977.8192,-370.33016 969.32225,-359.75143 C 967.05639,-356.91912 961.32093,-353.315 957.14326,-354.92233 C 952.89478,-356.53675 950.27488,-359.75143 949.85004,-364.58055 L 949.85004,-398.61087 C 947.93822,-400.91214 932.21885,-369.18307 927.75793,-361.59244 C 923.29702,-354.00182 914.30441,-350.07906 914.09199,-363.19979 C 913.87956,-376.76661 914.37522,-393.55518 913.38391,-396.54329 C 911.40128,-403.00806 896.03594,-370.55674 887.53899,-359.97802 C 885.27313,-357.15278 881.23707,-353.315 876.98859,-354.92233 C 872.7401,-356.53675 871.11152,-359.75143 870.61587,-364.58055 C 870.12021,-369.40965 869.48294,-396.77695 869.48294,-396.77695 C 866.65061,-400.45188 849.93993,-364.35396 846.89518,-358.83094 C 843.70882,-353.13797 843.14235,-354.23549 839.81437,-356.0765 C 836.55721,-357.91043 836.55721,-358.37069 836.34479,-363.43346 C 836.06155,-368.48915 835.99074,-384.59088 836.06155,-390.10684 C 836.34479,-402.51948 836.34479,-414.0187 836.06155,-425.51792 C 835.84913,-437.01007 839.38953,-450.12371 845.97467,-458.62776 C 852.55982,-467.13888 869.1997,-468.0523 867.78354,-446.44169 C 866.15496,-421.42522 842.43427,-399.07114 830.89256,-393.55518 C 828.5559,-392.42225 815.73966,-386.67264 803.9147,-390.33342 C 785.29221,-396.08303 795.8426,-421.22696 811.84521,-406.66175 C 818.43035,-400.68555 820.76702,-392.40809 820.5546,-383.89697 C 820.34217,-375.38585 814.96076,-354.69574 794.70967,-353.77524 C 774.52938,-352.85473 768.65231,-371.93749 768.36909,-378.60762 C 768.22747,-382.7428 768.15667,-388.26583 769.07716,-390.33342 C 771.27222,-395.05632 768.65231,-393.32153 767.23616,-392.40809 C 756.969,-385.72381 749.60496,-376.76661 742.52416,-368.72281 C 722.27307,-345.57567 718.80348,-324.10668 718.09539,-316.28948 C 717.38731,-308.47227 718.80348,-300.42848 724.68054,-300.19481 C 734.52285,-299.81245 740.18749,-318.82441 740.68315,-334.45881 C 741.24962,-354.00182 732.46942,-383.66331 731.76134,-406.66175 C 731.05325,-429.65311 741.39123,-452.1913 743.23224,-456.3265 C 745.14405,-460.46876 744.15275,-461.61585 739.26698,-459.54825 C 727.72528,-454.70499 715.05064,-432.64122 715.5463,-409.64985 C 715.97115,-386.65848 721.84822,-374.69901 732.46942,-362.51295 L 728.43336,-356.30309 L 726.59236,-358.1441 C 711.51024,-372.85801 702.09278,-382.05596 701.88036,-409.64985 C 701.66794,-442.07284 729.7079,-463.4427 746.56022,-466.90521 C 751.02111,-467.82571 751.23355,-464.60394 749.81738,-459.78192 C 748.40122,-454.95282 745.35648,-437.24374 746.77264,-418.16098 C 748.18881,-399.07114 751.09193,-380.21495 751.94162,-356.76334 C 753.57021,-314.144 731.83215,-288.69559 720.71529,-288.69559 C 710.80217,-288.69559 709.17358,-299.2743 709.17358,-309.16619 C 709.17358,-319.05098 715.97115,-347.79196 739.26698,-375.38585 C 762.49202,-402.97973 780.61888,-409.41618 786.28351,-410.57035 C 791.87735,-411.71745 793.08108,-410.33669 788.62017,-405.50757 C 784.15928,-400.68555 781.32695,-394.70227 782.03503,-385.05115 C 782.74311,-375.38585 788.12453,-365.73471 798.03764,-366.19496 C 807.87996,-366.64813 813.40299,-379.52103 813.5446,-383.89697 C 813.75702,-393.78177 809.9334,-396.23881 806.4638,-400.2253 C 803.63148,-403.43999 799.66623,-399.36144 805.04763,-397.69038 C 813.26136,-395.16253 822.89126,-395.85645 830.18448,-400.2253 C 837.47772,-404.59416 859.56981,-420.45515 859.56981,-445.75485 C 859.56981,-458.16751 858.15366,-457.70725 856.52507,-457.70725 C 854.89648,-457.70725 849.44427,-453.57206 849.01942,-426.89868 C 848.52376,-400.2253 849.23184,-384.81748 849.23184,-382.51622 C 849.23184,-380.21495 849.01942,-375.38585 852.55982,-382.51622 C 856.02941,-389.64658 866.86303,-412.41137 876.06808,-412.41137 C 882.15756,-412.41137 884.70666,-407.122 884.70666,-403.43999 C 884.70666,-398.84455 884.49423,-374.92559 884.49423,-371.93749 C 884.49423,-369.40965 885.9104,-369.40965 887.53899,-371.47725 C 889.16756,-373.55192 906.79876,-400.45188 911.04725,-407.80884 C 912.81745,-410.87482 914.72926,-412.63086 919.5442,-412.87161 C 928.89086,-413.32478 928.67845,-399.30479 928.67845,-389.87317 C 928.67845,-385.05115 928.89086,-382.74988 928.89086,-379.52811 C 928.89086,-377.23394 929.59894,-376.76661 931.51075,-380.44862 C 933.635,-384.58381 943.97298,-405.0544 947.51338,-408.96301 C 950.98297,-412.87161 951.90347,-414.37275 955.65629,-414.37275 C 958.63024,-414.37275 965.85265,-415.32158 965.56941,-396.08303 C 965.35699,-377.68711 965.56941,-368.9494 965.56941,-368.9494 C 965.56941,-367.56864 966.48992,-366.8818 968.18932,-369.40965 C 969.8179,-371.93749 990.28141,-406.42808 991.91,-411.71745 C 993.53859,-417.0068 996.86657,-414.25237 997.07899,-410.57035 C 997.29141,-406.88833 1012.0903,-386.42481 1011.3822,-373.55192 C 1010.6741,-360.67194 1003.4517,-354.69574 997.07899,-354.92233 C 990.70626,-355.14892 987.94475,-360.44535 987.94475,-365.50104 C 987.94475,-370.55674 993.751,-380.21495 1000.6194,-386.65848 C 1007.417,-393.09493 1023.8444,-411.87322 1047.3527,-412.87161 C 1052.8049,-413.09819 1051.8136,-408.96301 1048.0608,-405.50757 C 1044.3079,-402.05923 1040.0595,-392.40809 1040.3427,-385.73799 C 1040.5551,-379.06786 1044.8036,-367.34205 1055.5664,-367.34205 C 1066.4,-367.34205 1071.0734,-375.8461 1071.3566,-385.27772 C 1071.569,-394.70227 1066.8957,-399.99163 1064.7715,-401.59898 C 1059.6733,-405.47218 1055.2832,-399.49597 1062.6472,-397.69038 C 1069.2324,-396.08303 1079.3579,-400.91214 1085.6598,-405.96784 C 1092.0325,-411.03061 1093.6611,-412.41137 1099.5382,-412.18477 C 1105.4153,-411.9511 1108.7432,-405.50757 1108.7432,-395.85645 C 1108.7432,-392.40809 1108.7432,-384.81748 1108.7432,-382.97647 C 1108.7432,-381.13546 1110.5842,-379.29446 1112.9209,-384.35723 C 1114.0538,-386.8001 1120.9222,-402.2929 1127.0117,-408.72934 C 1133.172,-415.17287 1135.2962,-414.25237 1137.6329,-414.25237 C 1139.9696,-414.25237 1146.0591,-412.41137 1146.0591,-399.99163 C 1146.0591,-387.57191 1146.0591,-374.46534 1146.0591,-371.017 C 1146.0591,-367.56864 1147.9709,-367.34205 1149.8119,-369.63624 C 1151.7237,-371.93749 1153.8479,-374.23876 1156.1846,-377.00027 C 1158.5213,-379.7547 1164.3983,-379.29446 1159.9374,-372.85801 C 1155.4765,-366.42155 1150.0951,-352.62108 1140.8901,-352.85473 C 1131.7558,-353.08132 1130.1272,-362.9732 1129.844,-366.64813 C 1129.6316,-370.33016 1128.9235,-392.86126 1129.1359,-395.62278 C 1129.4192,-398.3843 1127.5074,-397.81783 1126.0912,-395.39619 C 1123.967,-391.71418 1112.4252,-368.50331 1108.9557,-362.51295 C 1106.1233,-357.68385 1103.7867,-353.77524 1100.2463,-353.77524 C 1096.7059,-353.77524 1094.1568,-356.76334 1094.1568,-364.12029 C 1094.1568,-371.47725 1094.3692,-391.71418 1093.8736,-398.15063"
         style="fill:#ec1b24;fill-rule:nonzero;stroke:none"
         id="path30" />
      <path
         d="M 676.95593,-397.69038 C 679.15098,-398.41261 681.41684,-399.53138 683.32866,-400.2253 C 685.16966,-400.91214 686.86905,-400.91214 688.21441,-396.77695 C 689.63057,-392.63469 692.81692,-377.54549 690.12623,-364.58055 C 688.21441,-355.38258 683.04543,-352.8335 682.12492,-365.27447 C 681.41684,-374.92559 669.94595,-382.97647 665.69746,-382.97647 C 661.44898,-382.97647 659.32473,-381.82938 659.53717,-379.52811 C 659.82039,-377.23394 664.56453,-373.26161 669.45029,-372.63141 C 678.3721,-371.47725 700.95985,-378.14735 711.79348,-376.54002 L 719.29914,-368.48915 C 705.63318,-376.76661 688.92249,-365.73471 673.91119,-365.73471 C 660.7409,-365.73471 646.08364,-369.18307 645.7296,-379.98838 C 645.44637,-386.65848 652.52717,-389.17217 659.53717,-389.41292 C 666.19312,-389.64658 673.34472,-388.61279 679.2926,-382.74988 C 680.70877,-381.36912 681.41684,-381.13546 681.20442,-383.66331 C 680.99199,-386.19823 677.87644,-391.94785 676.24785,-394.01544 C 674.61928,-396.08303 675.53978,-397.23721 676.95593,-397.69038"
         style="fill:#ec1b24;fill-rule:nonzero;stroke:none"
         id="path32" />
    </g>
  </g>
</svg>
