<?xml version="1.0" encoding="UTF-8" standalone="no"?>
<svg xmlns:rdf="http://www.w3.org/1999/02/22-rdf-syntax-ns#" xmlns="http://www.w3.org/2000/svg" xml:space="preserve" viewBox="0 0 406.25 107.5" version="1.1" xmlns:cc="http://creativecommons.org/ns#" xmlns:dc="http://purl.org/dc/elements/1.1/"><g transform="matrix(1.25,0,0,-1.25,0,107.5)"><g style=""><g style="" fill="#036"><path d="m110.85 36.847c-0.534 1.9-1.306 3.948-3.888 3.948-2.285 0-3.295-1.662-3.295-3.265 0-2.167 1.425-3.176 3.769-4.393 2.316-1.187 5.135-2.582 5.135-5.906 0-3.117-2.641-5.61-6.589-5.61-1.217 0-2.166 0.238-2.909 0.446-0.741 0.266-1.186 0.474-1.454 0.623-0.237 0.623-0.623 3.176-0.801 4.601l0.86 0.207c0.476-1.811 1.811-4.808 4.868-4.808 2.226 0 3.561 1.395 3.561 3.561 0 2.197-1.631 3.235-3.858 4.423-1.9 1.009-4.897 2.493-4.897 5.847 0 2.849 2.285 5.283 6.114 5.283 1.365 0 2.612-0.326 3.74-0.683 0.119-1.068 0.267-2.226 0.505-4.096l-0.861-0.178"/><path d="m125.48 24.738c-1.305-1.722-3.294-3.028-5.045-3.028-3.74 0-5.936 3.028-5.936 6.203 0 2.286 0.979 4.275 2.968 5.818 1.543 1.187 3.324 1.662 4.481 1.662 1.188 0 2.167-0.386 2.642-0.772 0.386-0.326 0.475-0.593 0.475-0.92 0-0.623-0.653-1.276-0.98-1.276-0.148 0-0.296 0.089-0.564 0.327-0.89 0.831-1.929 1.216-2.968 1.216-1.959 0-3.68-1.632-3.68-4.748 0-4.126 2.82-5.491 4.482-5.491 1.276 0 2.256 0.356 3.621 1.632l0.504-0.623"/><path d="m134.86 22.067v0.771c1.722 0.178 1.958 0.357 1.958 2.285v4.928c0 2.434-0.919 3.65-2.908 3.65-1.127 0-2.255-0.564-3.086-1.513v-7.065c0-1.899 0.148-2.107 1.899-2.285v-0.771h-6.293v0.771c1.782 0.149 2.049 0.327 2.049 2.285v14.158c0 1.87-0.06 2.019-2.018 2.197v0.682c1.424 0.208 3.205 0.683 4.363 1.039v-9.973c1.038 1.069 2.641 2.167 4.244 2.167 2.404 0 4.096-1.513 4.096-5.076v-5.194c0-1.958 0.207-2.136 1.958-2.285v-0.771h-6.262"/><path d="m144.65 29.22c0-3.74 1.632-6.53 4.066-6.53 1.84 0 3.353 1.365 3.353 5.432 0 3.472-1.395 6.292-3.977 6.292-1.84 0-3.442-1.841-3.442-5.194zm10.18-0.446c0-4.779-3.503-7.064-6.441-7.064-4.066 0-6.5 3.265-6.5 6.56 0 4.897 3.799 7.123 6.5 7.123 3.68 0 6.441-2.938 6.441-6.619"/><path d="m159.52 29.22c0-3.74 1.633-6.53 4.066-6.53 1.84 0 3.354 1.365 3.354 5.432 0 3.472-1.395 6.292-3.977 6.292-1.841 0-3.443-1.841-3.443-5.194zm10.18-0.446c0-4.779-3.502-7.064-6.44-7.064-4.066 0-6.501 3.265-6.501 6.56 0 4.897 3.799 7.123 6.501 7.123 3.68 0 6.44-2.938 6.44-6.619"/><path d="m170.53 22.067v0.771c1.87 0.178 2.137 0.357 2.137 2.315v14.039c0 2.018-0.178 2.108-2.049 2.256v0.712c1.544 0.178 3.384 0.683 4.394 1.039v-18.046c0-1.958 0.237-2.137 2.137-2.315v-0.771h-6.619"/><path d="m187.83 29.22c0-3.74 1.633-6.53 4.066-6.53 1.84 0 3.354 1.365 3.354 5.432 0 3.472-1.395 6.292-3.977 6.292-1.84 0-3.443-1.841-3.443-5.194zm10.181-0.446c0-4.779-3.503-7.064-6.441-7.064-4.066 0-6.5 3.265-6.5 6.56 0 4.897 3.799 7.123 6.5 7.123 3.68 0 6.441-2.938 6.441-6.619"/><path d="m201.57 35.037v0.653c0 0.92 0.119 1.78 0.326 2.434 0.208 0.653 0.683 2.107 2.286 3.472 1.039 0.92 2.107 1.454 3.265 1.603 1.009-0.03 1.87-0.445 2.344-1.009 0.267-0.326 0.297-0.712 0.149-1.039-0.089-0.237-0.268-0.475-0.564-0.713-0.268-0.207-0.534-0.207-0.801 0.09-0.594 0.534-1.425 1.098-2.405 1.098-0.771 0-1.246-0.357-1.573-0.89-0.385-0.564-0.712-1.989-0.683-4.512v-1.187h3.503c0.178-0.267 0.03-0.98-0.297-1.157h-3.206v-8.548c0-2.197 0.209-2.286 2.554-2.523v-0.742h-7.005v0.771c1.899 0.178 2.107 0.327 2.107 2.285v8.757h-2.077l-0.119 0.296 0.801 0.861h1.395"/><path d="m233.27 22.067v0.831c2.404 0.237 2.523 0.385 2.494 3.532l-0.09 12.109h-0.119l-7.241-16.265h-0.594l-6.648 15.85h-0.059l-0.446-8.459c-0.118-2.434-0.118-3.74-0.089-4.927 0.059-1.425 0.771-1.633 2.73-1.84v-0.831h-6.915v0.831c1.721 0.207 2.316 0.534 2.523 1.78 0.148 1.04 0.326 2.345 0.564 5.432l0.415 6.174c0.268 3.857 0.119 3.976-2.581 4.244v0.831h4.867l6.767-14.841 6.856 14.841h5.045v-0.831c-2.611-0.238-2.819-0.297-2.73-3.354l0.297-10.744c0.089-3.147 0.178-3.295 2.76-3.532v-0.831h-7.806"/><path d="m243.92 30.644c1.661 0 3.294 0.03 5.015 0.089 0.534 0 0.712 0.178 0.712 0.594 0.03 1.544-0.979 2.968-2.611 2.968-1.366 0-2.671-1.247-3.116-3.651zm8.132-6.054c-1.87-2.345-3.918-2.88-4.838-2.88-3.651 0-5.788 2.968-5.788 6.322 0 2.049 0.742 3.859 1.959 5.194 1.217 1.366 2.82 2.167 4.363 2.167 2.463 0 4.452-2.196 4.452-4.512 0-0.593-0.148-0.83-0.682-0.949-0.505-0.089-4.215-0.386-7.747-0.505 0.03-4.036 2.344-5.698 4.422-5.698 1.187 0 2.315 0.475 3.384 1.484l0.475-0.623"/><path d="m263.72 32.781c-0.713 1.039-1.93 1.514-3.058 1.514-1.364 0-3.858-1.158-3.858-5.461 0-3.532 2.167-5.254 4.067-5.254 1.068 0 2.136 0.475 2.849 1.01v8.191zm4.6-9.943c-0.653-0.119-2.879-0.505-4.6-1.128v1.93l-1.811-1.069c-1.157-0.683-1.959-0.861-2.314-0.861-2.375 0-5.491 2.167-5.491 6.322 0 4.126 3.62 7.361 7.657 7.361 0.415 0 1.276-0.089 1.959-0.327v4.185c0 1.959-0.149 2.049-2.285 2.197v0.712c1.543 0.208 3.531 0.653 4.63 1.039v-17.719c0-1.543 0.207-1.692 1.305-1.811l0.95-0.089v-0.742"/><path d="m271.46 39.489c0 0.89 0.712 1.544 1.513 1.544 0.831 0 1.484-0.654 1.484-1.544 0-0.801-0.653-1.514-1.514-1.514-0.771 0-1.483 0.713-1.483 1.514zm-1.574-17.422v0.771c1.871 0.178 2.078 0.357 2.078 2.375v6.114c0 1.84-0.089 1.958-1.87 2.256v0.712c1.514 0.237 2.909 0.623 4.215 1.157v-10.239c0-2.018 0.207-2.197 2.107-2.375v-0.771h-6.53"/><path d="m288.26 24.738c-1.305-1.722-3.294-3.028-5.045-3.028-3.739 0-5.936 3.028-5.936 6.203 0 2.286 0.979 4.275 2.968 5.818 1.543 1.187 3.324 1.662 4.481 1.662 1.188 0 2.168-0.386 2.642-0.772 0.386-0.326 0.475-0.593 0.475-0.92 0-0.623-0.653-1.276-0.979-1.276-0.149 0-0.297 0.089-0.564 0.327-0.891 0.831-1.929 1.216-2.969 1.216-1.958 0-3.68-1.632-3.68-4.748 0-4.126 2.82-5.491 4.482-5.491 1.276 0 2.256 0.356 3.621 1.632l0.504-0.623"/><path d="m291.67 39.489c0 0.89 0.712 1.544 1.514 1.544 0.831 0 1.484-0.654 1.484-1.544 0-0.801-0.653-1.514-1.514-1.514-0.772 0-1.484 0.713-1.484 1.514zm-1.573-17.422v0.771c1.87 0.178 2.078 0.357 2.078 2.375v6.114c0 1.84-0.09 1.958-1.871 2.256v0.712c1.514 0.237 2.909 0.623 4.215 1.157v-10.239c0-2.018 0.208-2.197 2.107-2.375v-0.771h-6.529"/><path d="m306.42 22.067v0.771c1.751 0.178 1.959 0.416 1.959 2.464v4.956c0 2.048-0.713 3.384-2.701 3.384-1.187 0-2.345-0.742-3.235-1.514v-6.975c0-2.018 0.178-2.137 1.929-2.315v-0.771h-6.44v0.771c2.017 0.208 2.166 0.357 2.166 2.315v6.144c0 1.9-0.178 1.988-1.78 2.286v0.682c1.424 0.267 2.819 0.624 4.125 1.217v-2.375c0.593 0.446 1.247 0.891 1.988 1.395 0.831 0.535 1.604 0.891 2.464 0.891 2.345 0 3.829-1.632 3.829-4.512v-5.728c0-2.018 0.148-2.137 1.869-2.315v-0.771h-6.173"/><path d="m315.83 30.644c1.662 0 3.294 0.03 5.016 0.089 0.533 0 0.712 0.178 0.712 0.594 0.03 1.544-0.979 2.968-2.612 2.968-1.366 0-2.671-1.247-3.116-3.651zm8.132-6.054c-1.87-2.345-3.918-2.88-4.838-2.88-3.651 0-5.788 2.968-5.788 6.322 0 2.049 0.742 3.859 1.959 5.194 1.217 1.366 2.82 2.167 4.363 2.167 2.464 0 4.452-2.196 4.452-4.512 0-0.593-0.148-0.83-0.682-0.949-0.505-0.089-4.215-0.386-7.747-0.505 0.03-4.036 2.345-5.698 4.422-5.698 1.188 0 2.316 0.475 3.384 1.484l0.475-0.623"/></g><g style="" fill="#58595b"><path d="m101.89 63.186v-6.982c0-2.642 1.173-3.762 2.748-3.762 1.749 0 2.869 1.155 2.869 3.762v6.982h1.54v-6.877c0-3.622-1.908-5.11-4.461-5.11-2.416 0-4.236 1.383-4.236 5.04v6.947h1.54"/><path d="m111.39 57.568c0 0.876-0.018 1.593-0.07 2.293h1.364l0.088-1.4h0.035c0.42 0.805 1.4 1.593 2.8 1.593 1.173 0 2.992-0.7 2.992-3.605v-5.057h-1.539v4.882c0 1.364-0.508 2.502-1.96 2.502-1.016 0-1.803-0.718-2.066-1.575-0.07-0.192-0.104-0.455-0.104-0.717v-5.092h-1.54v6.176"/><path d="m120.86 59.861h1.54v-8.469h-1.54v8.469zm1.716 2.38c0.017-0.525-0.368-0.945-0.98-0.945-0.543 0-0.928 0.42-0.928 0.945 0 0.543 0.402 0.963 0.962 0.963 0.578 0 0.946-0.42 0.946-0.963"/><path d="m125.3 59.861 1.663-4.759c0.28-0.77 0.507-1.47 0.683-2.17h0.052c0.192 0.7 0.438 1.4 0.718 2.17l1.644 4.759h1.609l-3.323-8.469h-1.47l-3.22 8.469h1.644"/><path d="m138.08 56.449c0.017 0.979-0.403 2.502-2.135 2.502-1.557 0-2.239-1.435-2.361-2.502h4.496zm-4.514-1.102c0.035-2.082 1.365-2.94 2.904-2.94 1.103 0 1.767 0.192 2.345 0.438l0.262-1.103c-0.542-0.245-1.47-0.525-2.817-0.525-2.606 0-4.164 1.715-4.164 4.27 0 2.554 1.505 4.567 3.972 4.567 2.765 0 3.499-2.433 3.499-3.99 0-0.315-0.034-0.559-0.052-0.717h-5.949"/><path d="m141.23 57.218c0 0.998-0.017 1.856-0.07 2.643h1.347l0.052-1.663h0.07c0.386 1.138 1.313 1.856 2.346 1.856 0.174 0 0.297-0.018 0.437-0.053v-1.453c-0.157 0.036-0.315 0.053-0.525 0.053-1.085 0-1.855-0.823-2.065-1.977-0.035-0.21-0.07-0.455-0.07-0.717v-4.515h-1.522v5.826"/><path d="m146.5 52.967c0.455-0.298 1.26-0.612 2.03-0.612 1.12 0 1.644 0.56 1.644 1.26 0 0.734-0.437 1.137-1.574 1.557-1.522 0.542-2.24 1.382-2.24 2.396 0 1.366 1.102 2.486 2.922 2.486 0.858 0 1.61-0.246 2.082-0.526l-0.384-1.12c-0.333 0.21-0.946 0.49-1.733 0.49-0.91 0-1.417-0.524-1.417-1.154 0-0.7 0.507-1.015 1.61-1.435 1.47-0.56 2.222-1.294 2.222-2.554 0-1.488-1.155-2.538-3.168-2.538-0.927 0-1.784 0.228-2.379 0.578l0.385 1.172"/><path d="m153.39 59.861h1.54v-8.469h-1.54v8.469zm1.716 2.38c0.017-0.525-0.368-0.945-0.98-0.945-0.543 0-0.928 0.42-0.928 0.945 0 0.543 0.402 0.963 0.962 0.963 0.578 0 0.946-0.42 0.946-0.963"/><path d="m159.1 62.294v-2.433h2.203v-1.173h-2.203v-4.566c0-1.05 0.297-1.645 1.154-1.645 0.402 0 0.699 0.052 0.892 0.105l0.07-1.155c-0.297-0.122-0.77-0.21-1.364-0.21-0.718 0-1.295 0.228-1.662 0.648-0.438 0.454-0.596 1.207-0.596 2.204v4.619h-1.312v1.173h1.312v2.03l1.506 0.403"/><path d="m163.51 59.861 1.856-5.004c0.192-0.56 0.402-1.225 0.542-1.732h0.035c0.157 0.507 0.332 1.154 0.542 1.767l1.68 4.969h1.627l-2.31-6.036c-1.102-2.906-1.854-4.393-2.904-5.303-0.752-0.664-1.505-0.926-1.89-0.996l-0.385 1.293c0.385 0.123 0.893 0.368 1.347 0.753 0.42 0.333 0.946 0.927 1.296 1.715 0.07 0.158 0.122 0.28 0.122 0.368 0 0.087-0.035 0.21-0.105 0.402l-3.133 7.804h1.68"/><path d="m175.35 55.609c0-1.854 1.068-3.254 2.573-3.254 1.469 0 2.572 1.382 2.572 3.289 0 1.435-0.718 3.254-2.537 3.254-1.82 0-2.608-1.68-2.608-3.289zm6.719 0.088c0-3.132-2.17-4.498-4.216-4.498-2.293 0-4.06 1.68-4.06 4.358 0 2.834 1.855 4.497 4.2 4.497 2.432 0 4.076-1.768 4.076-4.357"/><path d="m183.93 51.392v7.296h-1.189v1.173h1.189v0.403c0 1.19 0.262 2.274 0.98 2.957 0.578 0.56 1.348 0.787 2.065 0.787 0.543 0 1.015-0.123 1.313-0.245l-0.21-1.189c-0.228 0.104-0.543 0.192-0.98 0.192-1.313 0-1.646-1.155-1.646-2.45v-0.455h2.048v-1.173h-2.048v-7.296h-1.522"/><path d="m192.16 51.392v11.794h1.662l3.78-5.968c0.875-1.381 1.557-2.623 2.117-3.831l0.035 0.018c-0.14 1.574-0.175 3.009-0.175 4.846v4.935h1.435v-11.794h-1.54l-3.744 5.984c-0.822 1.312-1.61 2.66-2.205 3.938l-0.053-0.018c0.088-1.488 0.123-2.905 0.123-4.865v-5.039h-1.435"/><path d="m208.74 56.449c0.018 0.979-0.402 2.502-2.135 2.502-1.557 0-2.24-1.435-2.363-2.502h4.498zm-4.515-1.102c0.035-2.082 1.365-2.94 2.905-2.94 1.102 0 1.768 0.192 2.345 0.438l0.262-1.103c-0.542-0.245-1.469-0.525-2.817-0.525-2.608 0-4.165 1.715-4.165 4.27 0 2.554 1.505 4.567 3.973 4.567 2.764 0 3.499-2.433 3.499-3.99 0-0.315-0.035-0.559-0.053-0.717h-5.949"/><path d="m212.49 59.861 1.662-4.759c0.279-0.77 0.507-1.47 0.682-2.17h0.052c0.193 0.7 0.437 1.4 0.717 2.17l1.646 4.759h1.61l-3.326-8.469h-1.469l-3.22 8.469h1.646"/><path d="m224.46 55.714c-1.68 0.035-3.587-0.262-3.587-1.907 0-0.998 0.664-1.47 1.452-1.47 1.102 0 1.802 0.7 2.048 1.418 0.052 0.157 0.087 0.332 0.087 0.49v1.469zm0.227-4.322-0.122 1.067h-0.052c-0.473-0.664-1.383-1.26-2.59-1.26-1.715 0-2.59 1.208-2.59 2.433 0 2.047 1.82 3.167 5.092 3.149v0.175c0 0.7-0.192 1.96-1.925 1.96-0.787 0-1.61-0.245-2.205-0.63l-0.349 1.015c0.699 0.455 1.714 0.753 2.781 0.753 2.59 0 3.22-1.768 3.22-3.465v-3.167c0-0.735 0.036-1.453 0.14-2.03h-1.4"/><path d="m233.96 56.414c0 0.192-0.018 0.455-0.07 0.647-0.228 0.98-1.068 1.785-2.223 1.785-1.593 0-2.537-1.4-2.537-3.271 0-1.716 0.84-3.133 2.502-3.133 1.032 0 1.978 0.683 2.258 1.837 0.052 0.21 0.07 0.42 0.07 0.666v1.469zm1.539 7.402v-10.237c0-0.752 0.018-1.61 0.07-2.187h-1.382l-0.07 1.47h-0.035c-0.472-0.945-1.505-1.663-2.888-1.663-2.047 0-3.621 1.733-3.621 4.306-0.018 2.816 1.731 4.549 3.797 4.549 1.294 0 2.17-0.613 2.554-1.296h0.036v5.058h1.539"/><path d="m242.28 55.714c-1.679 0.035-3.587-0.262-3.587-1.907 0-0.998 0.666-1.47 1.453-1.47 1.102 0 1.802 0.7 2.046 1.418 0.053 0.157 0.088 0.332 0.088 0.49v1.469zm0.228-4.322-0.123 1.067h-0.053c-0.472-0.664-1.381-1.26-2.589-1.26-1.714 0-2.59 1.208-2.59 2.433 0 2.047 1.82 3.167 5.092 3.149v0.175c0 0.7-0.193 1.96-1.924 1.96-0.788 0-1.61-0.245-2.205-0.63l-0.35 1.015c0.7 0.455 1.715 0.753 2.782 0.753 2.59 0 3.22-1.768 3.22-3.465v-3.167c0-0.735 0.034-1.453 0.14-2.03h-1.4"/><path d="m245.01 49.239c0.385 1.033 0.857 2.906 1.05 4.183l1.714 0.175c-0.402-1.488-1.171-3.43-1.661-4.252l-1.103-0.106"/><path d="m254.42 57.656h1.557c1.627 0 2.66 0.892 2.66 2.24 0 1.522-1.103 2.188-2.713 2.205-0.734 0-1.26-0.07-1.504-0.14v-4.305zm-1.522 5.372c0.769 0.158 1.872 0.246 2.922 0.246 1.627 0 2.677-0.298 3.412-0.963 0.595-0.525 0.928-1.33 0.928-2.24 0-1.557-0.98-2.59-2.223-3.01v-0.052c0.91-0.315 1.453-1.155 1.733-2.38 0.384-1.644 0.664-2.782 0.909-3.237h-1.575c-0.192 0.333-0.454 1.347-0.787 2.817-0.35 1.628-0.98 2.24-2.363 2.292h-1.434v-5.109h-1.522v11.636"/><path d="m267.46 56.449c0.017 0.979-0.403 2.502-2.134 2.502-1.558 0-2.24-1.435-2.362-2.502h4.496zm-4.514-1.102c0.035-2.082 1.365-2.94 2.905-2.94 1.102 0 1.766 0.192 2.344 0.438l0.262-1.103c-0.542-0.245-1.47-0.525-2.816-0.525-2.607 0-4.165 1.715-4.165 4.27 0 2.554 1.505 4.567 3.972 4.567 2.765 0 3.499-2.433 3.499-3.99 0-0.315-0.034-0.559-0.052-0.717h-5.949"/><path d="m270.61 57.568c0 0.876-0.017 1.593-0.07 2.293h1.365l0.087-1.4h0.035c0.42 0.805 1.4 1.593 2.8 1.593 1.172 0 2.992-0.7 2.992-3.605v-5.057h-1.54v4.882c0 1.364-0.507 2.502-1.96 2.502-1.014 0-1.802-0.718-2.064-1.575-0.07-0.192-0.105-0.455-0.105-0.717v-5.092h-1.54v6.176"/><path d="m281.02 55.609c0-1.854 1.067-3.254 2.572-3.254 1.469 0 2.571 1.382 2.571 3.289 0 1.435-0.717 3.254-2.536 3.254-1.82 0-2.607-1.68-2.607-3.289zm6.719 0.088c0-3.132-2.17-4.498-4.217-4.498-2.292 0-4.06 1.68-4.06 4.358 0 2.834 1.855 4.497 4.2 4.497 2.431 0 4.077-1.768 4.077-4.357"/></g><path d="m0 85.576h85.58v-85.576h-85.58v85.576z" fill="#036"/><path d="m53.083 35.936-20.262 24.83h-12.628v-4.645h3.289v-26.624h-3.289v-4.64h15.655v4.64h-3.353v19.654l19.869-24.294h13.023v4.64h-3.29v26.624h3.29v4.645h-15.593v-4.645h3.289v-20.185zm-2.827-13.308-14.8 18.05v-8.948h3.418v-9.102h-21.708v9.102h3.289v22.164h-3.289v9.055h17.826l15.068-18.444v9.389h-3.291v9.055h21.647v-9.055h-3.294v-22.164h3.294v-9.102h-18.16" fill="#fff"/></g></g></svg>
