<?xml version="1.0" encoding="utf-8"?>
<!-- Generator: Adobe Illustrator 22.0.1, SVG Export Plug-In . SVG Version: 6.00 Build 0)  -->
<svg version="1.1" id="Layer_1" xmlns="http://www.w3.org/2000/svg" xmlns:xlink="http://www.w3.org/1999/xlink" x="0px" y="0px"
	 width="250px" height="159.4px" viewBox="0 0 250 159.4" enable-background="new 0 0 250 159.4" xml:space="preserve">
<polygon fill="#FFFFFF" points="250,0 250,159.4 0,159.4 0,0.5 0.2,0 "/>
<path fill="#002147" d="M243.3,7.3c-0.1,23.6,0.2,47.6-0.2,71H140.5c-0.4-22.4-0.1-47.9-0.2-70.6l0.3-0.5
	C174.8,7.2,209.4,6.9,243.3,7.3 M243.3,83c-0.1,23.1,0.2,46.6-0.2,69.4c-34.2-0.1-68.9,0.2-102.9-0.2V83.3l0.3-0.5
	C174.8,83,209.4,82.6,243.3,83 M136.3,7.3c0.3,48.1,0.3,97.4,0,145.6c-43.1,0.3-87.4,0.3-130.5,0c-0.3-48.1-0.3-97.3,0-145.4
	l0.5-0.3C49.6,7.2,93.3,6.9,136.3,7.3"/>
<path fill="#FFFFFF" d="M226,87.5c0.3,1,0.3,3,0,4c-10.6-1-8.9,11.1-8.9,21.3c0,6.6,0.3,13.6,0,18.9c-0.8,13.7-14.5,20.3-29.4,18.3
	c-10-1.4-18.1-6.5-18.9-17.5c-0.5-6.4,0-13.8,0-20.6v-10.3c0-2.8,0.5-7.8-1-9.2c-1.5-1.4-5-0.4-7.6-1c-0.2-0.9-0.4-3.2,0.2-3.8
	c9.8-0.3,20.7-0.3,30.5,0c0.2,1,0.3,2.8,0,3.8c-2.6,0.6-6.3-0.6-7.9,0.8c-1.8,1.5-1.1,7.9-1.1,11.4V116c0,9.7-0.8,17.4,2.7,22.4
	c4,5.8,16,7.1,22.1,1.9c2.2-1.9,4.5-5.4,4.9-10c0.4-4.5,0.2-10.3,0.2-15.9c0-11.3,2-23.3-8.9-23.2c-0.3-0.9-0.3-2.9,0-3.8
	C210.2,87.2,218.7,87.2,226,87.5 M217.6,52.9c0.7,5.5-0.5,10.5-2.9,13.8c-4.7,6.6-15.4,10.8-25.7,8.7c-4.6-0.9-8.4-3.3-12.1-6
	c-2.9,1.5-2.9,6.7-7.9,5.6c-0.3-7.1-0.3-15.4,0-22.5c0.9-0.3,2.4-0.1,3.5-0.2c1.9,5.1,3.9,10.2,7.3,13.7c3.7,3.8,9.6,6.4,17.9,5.6
	c4.5-0.5,8.2-2.8,9.8-5.9c2.1-3.9,0.6-9.5-2.1-11.7c-3.5-2.8-10.4-3.6-15.9-4.9c-10.9-2.6-21.5-6.3-19.7-21.7
	c0.9-7.4,6.9-13.7,15.2-15.2c8.7-1.6,16.7,1.5,22.1,5.6c1.5-1.6,2.4-3.6,4-5.1c1,0,2.1-0.1,2.9,0.2c0.3,5.9,0.1,13.9,0.2,21.1
	c-1,0.2-2.8,0.2-3.8,0c-2.8-8.8-9.8-19.6-22.4-17.8c-5.3,0.8-11,5.2-9.5,11.9c1.4,6.6,10.7,7.6,17.9,9.2c5.8,1.3,11.7,2.9,15.4,5.9
	C214.6,45,217.1,48.3,217.6,52.9 M116.5,17.8c0.3,2.2,0.3,5.5,0,7.8c-5.6,0.8-12.1-0.8-14.1,3.7c-1.5,3.4-0.6,9.4-0.6,13.8V86
	c0,4.8,0.3,18.8,0.2,21c-0.1,2.4-0.2,5.1-0.5,7.3c-0.5,3.2-1.3,6.2-2.4,8.9c-4.4,10.6-13.7,17.4-25.7,20.3
	c-8.1,1.9-17.1,2.2-25.7,0.3c-7.4-1.6-14.4-5.8-18.7-9.8c-5.3-4.9-10.5-12.3-9.7-23.3c0.9-11.2,8.5-20.8,21.9-19.7
	c5.5,0.5,9.9,4,12.2,7.8c2.1,3.4,3,11.3,0.8,15.7c-1.3,2.6-4.1,5.4-6.5,7.3c-3.6,2.8-8.1,5-14.4,3.8c1.1,5.4,6.5,8.4,11.7,10
	c4.3,1.3,9.1,1.8,14,0.8c9.5-2,15.4-9.9,16.3-20.5c0.7-7.4,0.3-14.9,0.3-22.2c0-18.7,0.2-37.1,0-56.3c0-3.9-0.2-7.8-1.6-9.4
	c-3-3.5-12.2-1.2-17.8-1.9c-0.4-2.3-0.1-5.2-0.2-7.8l0.3-0.5C76.4,17.8,96.8,17.5,116.5,17.8"/>
</svg>
