<?xml version="1.0" encoding="UTF-8" standalone="no"?>
<svg xmlns:rdf="http://www.w3.org/1999/02/22-rdf-syntax-ns#" xmlns="http://www.w3.org/2000/svg" xml:space="preserve" height="209.5" viewBox="0 0 228.2075 209.50125" width="228.21" version="1.1" xmlns:cc="http://creativecommons.org/ns#" xmlns:dc="http://purl.org/dc/elements/1.1/"><g transform="matrix(1.25 0 0 -1.25 0 209.5)"><g transform="translate(.91091 .60727)"><path d="m178.63 2h-65.206v42.438h9.259v47.287l-32.164-70.799-32.48 71.122v-47.61h9.366v-42.438h-65.313v42.438h9.259v76.757h-9.259v42.806h63.909l24.518-54.806 24.202 54.806h63.909v-42.806h-9.259v-76.757h9.259v-42.438"/><path d="m178.63 2h-65.206v42.438h9.259v47.287l-32.164-70.799-32.48 71.122v-47.61h9.366v-42.438h-65.313v42.438h9.259v76.757h-9.259v42.806h63.909l24.518-54.806 24.202 54.806h63.909v-42.806h-9.259v-76.757h9.259v-42.438z" stroke="#af1e2d" stroke-width="4" fill="none"/><path d="m2 102.14h176.97v-31.603h-176.97v31.603z" fill="#fff"/><path d="m2 102.14h176.97v-31.603h-176.97v31.603z" stroke="#af1e2d" stroke-width="4" fill="none"/><path d="m100.56 87.248c-5.6575 0.0925-8.5481 2.6146-8.6719 7.5684-0.0225 2.2938 0.79141 4.0806 2.4414 5.3594 0.8475 0.615 1.7536 1.0962 2.7148 1.4375 0.9525 0.37625 1.918 0.75336 2.9043 1.1309 2.4175 0.76375 3.6269 1.9442 3.6269 3.543-0.0237 0.81-0.27656 1.4612-0.75781 1.9512-0.53 0.51375-1.2099 0.76953-2.0449 0.76953-2.13 0.0237-3.1763-1.1994-3.1426-3.6719v-0.51367h-5.625v6.5c2.4375 1.975 5.3587 2.9723 8.7637 2.9961 5.65-0.15 8.5257-2.8677 8.627-8.1602 0-2.2462-0.5618-3.9495-1.6856-5.1133-1.1362-1.1512-2.9038-2.0966-5.2988-2.8379-1.555-0.53625-2.7411-1.0498-3.5586-1.541-0.84125-0.4675-1.2598-1.1091-1.2598-1.9316 0.035-1.5612 1.0109-2.3671 2.9297-2.4121 1.9075 0.0225 2.8727 1.163 2.8965 3.418v0.46094h5.5391v-6.1152c-2.53-1.8925-5.3297-2.8379-8.3984-2.8379zm-81.369 0.50781v4.2383c0.5 0.0925 0.86586 0.33758 1.0996 0.73633 0.1775 0.42125 0.26758 1.0306 0.26758 1.8281v12.529c0 1.5612-0.45469 2.3311-1.3672 2.3086v4.375h7.3027v-4.375c-0.93125-0.09-1.3617-0.91851-1.293-2.4785v-13.129l4.5781 19.982h2.3887l4.4453-19.572v12.254c0 0.89001-0.06672 1.5803-0.19922 2.0703-0.14375 0.48875-0.4968 0.77984-1.0605 0.87109v4.377h8.248v-4.375c-0.59-0.0913-0.96922-0.37234-1.1367-0.83984-0.17875-0.4675-0.25617-1.1666-0.23242-2.1016v-11.793c-0.02375-0.775 0.03227-1.3737 0.16602-1.7949 0.135-0.41 0.53438-0.7018 1.2031-0.87305v-4.2383h-9.084l-3.1133 14.818-3.2578-14.818h-8.9551zm32.812 0-3.5547 18.895c-0.11125 0.77625-0.26539 1.3858-0.46289 1.832-0.21 0.445-0.56234 0.7475-1.0586 0.90625v4.3828h7.7207v-4.3828c-0.92625-0.0225-1.3767-0.45578-1.3555-1.3008 0-0.2975 0.02266-0.56469 0.06641-0.80469l0.19922-0.97656h4.877l0.21289 1.0781c0.045 0.46875 0.06641 0.72523 0.06641 0.77148 0 0.7075-0.41836 1.1174-1.2559 1.2324v4.3828h8.5645v-4.375c-0.81625-0.2625-1.3013-1.0311-1.4551-2.3086l-3.9355-19.332h-8.6289zm16.711 0v4.2051c0.55625 0.09125 0.92281 0.31352 1.1016 0.66602 0.1325 0.37625 0.20117 0.90102 0.20117 1.5723v12.566c0 0.82-0.06867 1.4388-0.20117 1.8613-0.15625 0.44375-0.52281 0.70078-1.1016 0.76953v4.375h7.9316v-4.375c-0.95125-0.115-1.3917-0.99281-1.3242-2.6328v-7.7598l6.3359 14.768h5.3047v-18.904c-0.02375-0.84375 0.04227-1.4993 0.19726-1.9668 0.165-0.45625 0.55-0.7682 1.1562-0.93945v-4.2051h-8.0137v4.2051c0.56125 0.0925 0.93117 0.34828 1.1074 0.76953 0.165 0.39875 0.24805 1.0176 0.24805 1.8613v7.7949l-6.3359-14.631h-6.6074zm44.553 0v4.2031c0.6 0.11375 0.97852 0.38024 1.1348 0.80274 0.1125 0.4225 0.16797 1.0559 0.16797 1.8984v12.041c0 0.82-0.0555 1.4408-0.16797 1.8633-0.15625 0.42-0.53477 0.69969-1.1348 0.83594v4.3711h8.3984v-4.373c-0.92375-0.0675-1.352-0.96602-1.2832-2.6973v-4.1836h6.5488v-4.3672h-6.5488v-5.3203h2.25c1.015 0 1.7474 0.18891 2.2012 0.56641 0.4075 0.40125 0.61133 1.1051 0.61133 2.1113v0.24024h5.1133v-7.9922h-17.291zm20.777 0v4.2051c0.59 0.115 0.96289 0.38148 1.1191 0.80273 0.11125 0.42125 0.16796 1.0547 0.16796 1.8984v12.033c0 0.82-0.0567 1.4401-0.16796 1.8613-0.15625 0.4225-0.52914 0.70359-1.1191 0.83984v4.375h8.3457v-4.375c-0.58625-0.13625-0.93688-0.41539-1.0469-0.83789-0.15625-0.4225-0.22172-1.0433-0.19922-1.8633v-12.035c-0.0225-0.82 0.043-1.4534 0.19922-1.8984 0.11-0.42125 0.46063-0.68578 1.0469-0.80078v-4.2051h-8.3457zm12.258 0v4.1895c0.60125 0.115 0.97851 0.38414 1.1348 0.80664 0.11125 0.42125 0.16602 1.0534 0.16602 1.8984v12.057c0 0.82125-0.0548 1.4408-0.16602 1.8633-0.15625 0.4225-0.53351 0.7043-1.1348 0.8418v4.3594h18.1v-8.7012h-5.4297v0.93946c0 1.0038-0.18523 1.7174-0.55273 2.1387-0.41625 0.44375-1.1685 0.66601-2.2598 0.66601h-2.7422v-6.2578h7.2695v-4.3672h-7.2695v-5.4766h2.2969c1.1988 0 2.0398 0.18891 2.5273 0.56641 0.4875 0.40375 0.73047 1.1218 0.73047 2.1543v0.27734h5.4297v-7.9551h-18.1zm21.551 0v4.2051c0.6 0.115 0.97851 0.38148 1.1348 0.80273 0.1125 0.42125 0.16797 1.0547 0.16797 1.8984v12.033c0 0.82-0.0555 1.4401-0.16797 1.8613-0.15625 0.4225-0.53476 0.70359-1.1348 0.83984v4.375h17.396v-11.779h-5.0801v2.873c-0.00001 0.67375-0.0127 1.2542-0.0352 1.7442-0.0712 0.49124-0.21328 0.91382-0.42578 1.2676-0.39125 0.65125-1.2905 0.97461-2.6992 0.97461h-2.041v-14.184c-0.0238-0.82125 0.053-1.4522 0.23047-1.8984 0.1175-0.42125 0.48969-0.69094 1.1172-0.80469v-4.209h-8.4629zm19.807 0v4.1738c0.60125 0.115 0.97851 0.38219 1.1348 0.80469 0.11124 0.4225 0.16601 1.0566 0.16601 1.9004v12.051c0 0.82125-0.0548 1.4427-0.16601 1.8652-0.15625 0.4225-0.53352 0.70164-1.1348 0.83789v4.3828h8.4766c3.8125 0.045 6.453-0.62 7.918-2 1.4188-1.4238 2.1175-4.0837 2.0938-7.9824v-6.2207c0.0238-3.7612-0.70344-6.353-2.1797-7.7793-1.4988-1.3775-4.0841-2.0557-7.7578-2.0332h-8.5508zm-131.76 4.9023 1.7207 9.9453h-3.4219l1.7012-9.9453zm140.68 0.17188h0.35742c1.46 0 2.4077 0.32094 2.8477 0.96094 0.39 0.675 0.57328 1.7623 0.55078 3.2598v7.875c0.0225 1.4062-0.195 2.3659-0.65625 2.8809-0.51125 0.5375-1.5332 0.79594-3.0644 0.77344h-1.832v-15.717l1.7969-0.0332z" transform="matrix(.8 0 0 -.8 0 167)"/></g></g></svg>
