<?xml version="1.0" encoding="UTF-8" standalone="no"?>
<svg xmlns="http://www.w3.org/2000/svg" version="1.1" width="91" height="85">
<path d="M 34.667,17.073 V 3.444 h 3.912 V 17.073 H 34.667 z M 24.665,10.207 h -3.808 c 0.05,-0.631 0.175,-1.133 0.375,-1.505 0.2,-0.372 0.5,-0.687 0.901,-0.943 C 22.664,7.422 23.29,7.182 24.009,7.042 24.727,6.9 25.471,6.83 26.241,6.83 c 0.738,0 1.399,0.049 1.984,0.146 0.584,0.097 1.08,0.255 1.486,0.474 0.407,0.219 0.719,0.463 0.938,0.732 0.219,0.269 0.382,0.613 0.488,1.032 0.069,0.256 0.104,0.763 0.104,1.52 v 5.093 c 0,0.45 0.172,0.801 0.516,1.051 v 0.197 h -4.052 l -0.197,-1.069 c -0.5,0.463 -1.041,0.805 -1.623,1.027 -0.582,0.222 -1.245,0.333 -1.989,0.333 -1.238,0 -2.151,-0.294 -2.739,-0.882 -0.588,-0.588 -0.882,-1.288 -0.882,-2.101 0,-0.469 0.104,-0.918 0.314,-1.346 0.21,-0.428 0.496,-0.769 0.858,-1.022 0.362,-0.253 0.874,-0.453 1.534,-0.6 0.66,-0.147 1.615,-0.292 2.866,-0.437 0.65,-0.075 1.063,-0.163 1.238,-0.263 0.25,-0.144 0.375,-0.359 0.375,-0.647 0,-0.25 -0.102,-0.454 -0.305,-0.61 -0.204,-0.156 -0.564,-0.234 -1.083,-0.234 -0.5,0 -0.854,0.083 -1.06,0.249 -0.207,0.164 -0.323,0.409 -0.347,0.734 z m 2.748,2.467 c -0.15,0.075 -0.346,0.15 -0.586,0.225 -0.241,0.075 -0.689,0.182 -1.346,0.319 -0.45,0.094 -0.752,0.225 -0.905,0.394 -0.153,0.169 -0.23,0.375 -0.23,0.619 0,0.263 0.099,0.476 0.295,0.638 0.197,0.163 0.505,0.244 0.924,0.244 0.313,0 0.611,-0.064 0.896,-0.192 0.285,-0.128 0.511,-0.301 0.68,-0.521 0.119,-0.163 0.197,-0.369 0.234,-0.619 0.025,-0.163 0.038,-0.531 0.038,-1.107 z M 17.917,8.669 H 13.696 C 13.621,7.987 13.379,7.457 12.969,7.079 12.559,6.701 12.039,6.512 11.407,6.512 c -0.788,0 -1.431,0.307 -1.928,0.919 -0.497,0.612 -0.746,1.607 -0.746,2.983 0,0.944 0.106,1.664 0.319,2.157 0.212,0.494 0.508,0.861 0.886,1.102 0.378,0.241 0.849,0.361 1.412,0.361 0.688,0 1.235,-0.189 1.642,-0.567 0.407,-0.378 0.647,-0.939 0.722,-1.684 h 4.296 c -0.094,0.844 -0.263,1.554 -0.507,2.129 -0.244,0.576 -0.652,1.151 -1.224,1.726 -0.572,0.575 -1.253,1.021 -2.044,1.336 -0.792,0.316 -1.706,0.474 -2.744,0.474 -1.039,0 -1.997,-0.155 -2.875,-0.464 C 7.738,16.675 7,16.238 6.403,15.676 5.806,15.113 5.338,14.466 5,13.734 4.525,12.715 4.287,11.583 4.287,10.338 4.287,9.281 4.459,8.296 4.803,7.383 5.147,6.471 5.62,5.705 6.22,5.085 6.82,4.466 7.486,4 8.218,3.688 9.15,3.294 10.181,3.097 11.314,3.097 c 0.981,0 1.904,0.147 2.767,0.441 0.863,0.294 1.572,0.724 2.129,1.29 0.557,0.566 0.982,1.218 1.276,1.956 0.212,0.525 0.356,1.153 0.431,1.885 z m 64.118,21.228 h -7.494 c 0.025,0.588 0.207,1.046 0.549,1.375 0.34,0.328 0.824,0.492 1.449,0.492 0.676,0 1.15,-0.269 1.426,-0.807 h 3.762 c -0.107,0.476 -0.298,0.895 -0.572,1.257 -0.451,0.594 -1.082,1.082 -1.896,1.463 -0.814,0.381 -1.779,0.573 -2.899,0.573 -1.788,0 -3.19,-0.477 -4.206,-1.431 -1.018,-0.953 -1.525,-2.174 -1.525,-3.663 0,-1.576 0.514,-2.866 1.539,-3.87 1.025,-1.003 2.383,-1.505 4.07,-1.505 0.883,0 1.709,0.15 2.481,0.45 0.772,0.3 1.426,0.768 1.96,1.402 0.535,0.635 0.915,1.38 1.141,2.237 0.149,0.552 0.221,1.227 0.215,2.027 z M 74.568,27.89 h 3.556 c -0.013,-0.538 -0.182,-0.961 -0.507,-1.271 -0.324,-0.31 -0.763,-0.464 -1.313,-0.464 -0.494,0 -0.895,0.147 -1.201,0.441 -0.306,0.294 -0.484,0.725 -0.535,1.294 z M 63.186,23.998 v -3.039 h 3.874 v 3.039 h 1.885 v 2.251 h -1.932 v 3.893 c 0,0.337 0.084,0.584 0.253,0.741 0.169,0.157 0.463,0.235 0.882,0.235 h 0.76 v 2.776 c -0.688,0.081 -1.42,0.122 -2.195,0.122 -1.113,0 -1.897,-0.108 -2.354,-0.324 -0.457,-0.216 -0.777,-0.521 -0.962,-0.915 -0.185,-0.394 -0.276,-1.11 -0.276,-2.148 v -4.38 h -1.398 v -2.251 h 1.463 z m -9.985,3.076 h -3.809 c 0.051,-0.631 0.176,-1.133 0.375,-1.505 0.201,-0.372 0.501,-0.687 0.901,-0.943 0.531,-0.337 1.157,-0.577 1.876,-0.717 0.719,-0.141 1.463,-0.211 2.232,-0.211 0.738,0 1.398,0.049 1.984,0.146 0.584,0.097 1.08,0.255 1.486,0.474 0.406,0.219 0.719,0.463 0.938,0.732 0.219,0.269 0.382,0.613 0.488,1.032 0.068,0.256 0.104,0.763 0.104,1.52 v 5.093 c 0,0.45 0.172,0.801 0.516,1.051 v 0.197 H 56.24 l -0.197,-1.069 c -0.5,0.463 -1.041,0.805 -1.622,1.027 -0.581,0.222 -1.245,0.333 -1.989,0.333 -1.238,0 -2.15,-0.294 -2.738,-0.882 -0.588,-0.588 -0.882,-1.288 -0.882,-2.101 0,-0.469 0.104,-0.918 0.313,-1.346 0.21,-0.428 0.496,-0.769 0.859,-1.022 0.362,-0.253 0.873,-0.453 1.533,-0.6 0.66,-0.147 1.615,-0.292 2.865,-0.437 0.65,-0.075 1.063,-0.163 1.238,-0.263 0.25,-0.144 0.375,-0.359 0.375,-0.647 0,-0.25 -0.102,-0.454 -0.305,-0.61 -0.203,-0.156 -0.564,-0.234 -1.083,-0.234 -0.501,0 -0.854,0.083 -1.06,0.249 -0.206,0.163 -0.321,0.408 -0.346,0.733 z m 2.748,2.467 c -0.149,0.075 -0.346,0.15 -0.586,0.225 -0.24,0.075 -0.689,0.182 -1.346,0.319 -0.45,0.094 -0.752,0.225 -0.905,0.394 -0.153,0.169 -0.229,0.375 -0.229,0.619 0,0.263 0.098,0.476 0.295,0.638 0.197,0.162 0.505,0.244 0.924,0.244 0.313,0 0.611,-0.064 0.896,-0.192 0.284,-0.128 0.511,-0.301 0.68,-0.521 0.119,-0.163 0.197,-0.369 0.234,-0.619 0.025,-0.163 0.037,-0.531 0.037,-1.107 z M 41.462,23.998 v -3.039 h 3.874 v 3.039 h 1.886 v 2.251 h -1.933 v 3.893 c 0,0.337 0.085,0.584 0.254,0.741 0.168,0.157 0.463,0.235 0.881,0.235 h 0.76 v 2.776 c -0.688,0.081 -1.419,0.122 -2.194,0.122 -1.113,0 -1.898,-0.108 -2.354,-0.324 -0.456,-0.216 -0.777,-0.521 -0.961,-0.915 -0.184,-0.394 -0.277,-1.11 -0.277,-2.148 v -4.38 h -1.397 v -2.251 h 1.461 z m -3.353,0.272 h -4.24 c -0.1,-0.394 -0.29,-0.689 -0.567,-0.886 -0.278,-0.197 -0.677,-0.295 -1.196,-0.295 -0.506,0 -0.894,0.103 -1.163,0.31 -0.2,0.156 -0.3,0.359 -0.3,0.609 0,0.213 0.075,0.385 0.225,0.516 0.212,0.188 0.716,0.378 1.51,0.572 l 1.735,0.422 c 1.607,0.388 2.734,0.938 3.382,1.651 0.647,0.713 0.971,1.539 0.971,2.477 0,0.75 -0.167,1.434 -0.502,2.049 -0.334,0.616 -0.746,1.102 -1.233,1.458 -0.487,0.356 -1.12,0.64 -1.895,0.849 -0.776,0.209 -1.592,0.314 -2.448,0.314 -0.938,0 -1.82,-0.122 -2.646,-0.366 -0.825,-0.244 -1.505,-0.594 -2.04,-1.05 -0.535,-0.456 -0.939,-0.985 -1.215,-1.585 -0.194,-0.425 -0.328,-0.95 -0.403,-1.576 h 4.287 c 0.1,0.431 0.316,0.763 0.647,0.994 0.331,0.231 0.841,0.347 1.529,0.347 0.601,0 1.032,-0.1 1.294,-0.3 0.194,-0.15 0.291,-0.359 0.291,-0.628 0,-0.275 -0.089,-0.497 -0.268,-0.666 -0.179,-0.169 -0.667,-0.35 -1.468,-0.544 l -1.557,-0.385 c -0.813,-0.194 -1.576,-0.462 -2.289,-0.807 -0.713,-0.344 -1.251,-0.788 -1.614,-1.332 -0.362,-0.544 -0.544,-1.204 -0.544,-1.979 0,-0.763 0.163,-1.441 0.488,-2.036 0.325,-0.594 0.761,-1.072 1.309,-1.435 0.547,-0.362 1.157,-0.619 1.829,-0.769 0.672,-0.15 1.365,-0.225 2.078,-0.225 0.851,0 1.629,0.086 2.336,0.258 0.707,0.172 1.269,0.397 1.688,0.675 0.419,0.278 0.76,0.597 1.022,0.957 0.263,0.359 0.468,0.726 0.615,1.097 0.147,0.372 0.264,0.809 0.352,1.309 z m -33.2965,-2.36375 0,43.375 27,0 -7.40625,15.84375 16.875,0 3.40625,-7.625 17.125,0 3.5,7.625 17.125,0 -20.25,-43.375 -17.5,0 -7.53125,16.09375 -15.15625,0 0,-31.9375 -17.1875,0 z m 48.46875,28 5.5625,15.4375 -10.875,0 5.3125,-15.4375 z" />
</svg>