<?xml version="1.0" encoding="UTF-8" standalone="no"?>
<svg xmlns:rdf="http://www.w3.org/1999/02/22-rdf-syntax-ns#" xmlns="http://www.w3.org/2000/svg" xml:space="preserve" height="104.11" viewBox="0 0 159.8775 104.10893" width="159.88" version="1.1" xmlns:cc="http://creativecommons.org/ns#" xmlns:dc="http://purl.org/dc/elements/1.1/"><g transform="matrix(1.25 0 0 -1.25 -121.6 496.92)"><g transform="translate(.75716 .75716)"><path d="m2.418 1.0625s-0.96734 10.737 1.9551 20.846c0.80541 3.1986 1.8485 6.2444 3.0527 8.7266 0.18625 0.385 20.554 39.935 61.297 69.539l1.3438 0.97265s8.296-36.929 10.041-45.701h0.0293c1.745 8.7725 10.041 45.701 10.041 45.701l1.3438-0.97265c40.738-29.6 61.108-69.15 61.298-69.535 0.98987-2.0403 1.8558-4.4791 2.5859-7.0527l0.004 0.0625c3.58-10.573 2.49-22.582 2.49-22.582h-0.80274-3.4277-39.223l14.518 18.35c-3.5238 8.8125-13.93 23.27-26.119 33.535-0.83375-3.8112-6.573-9.267-7.0605-11.502l13.947-19.533h-29.568-0.08203-29.568l13.947 19.533c-0.48875 2.235-6.2268 7.6907-7.0605 11.502-12.186-10.265-22.593-24.722-26.117-33.535l14.518-18.35h-39.148-3.502-0.72852z" transform="matrix(.8 0 0 -.8 96.531 396.18)" stroke="#c79316" stroke-width="1.5" fill="#115e56"/><path d="m97.281 349.72v-18.864s58.472 13.482 126.3 0v18.864s-58.033 13.579-126.3 0" fill="#c79316"/><path d="m98.273 348.9v-16.846s60.462 13.151 124.32-0.001v16.846s-57.023 12.978-124.32 0.001" fill="#115e56"/><path d="m79.869 54.555c-1.5412 0-3.083 0.02031-4.623 0.03906-0.585 0.0063-1.1709 0.0056-1.7559 0.01563l-0.73828 0.01172 0.52734 0.51953c0.115 0.1175 0.13469 0.1507 0.21094 0.31445 0.065 0.18625 0.09125 0.28086 0.09375 0.50586v12.389c0 0.15 0.0078 0.26859 0.0078 0.37109 0 0.10375-0.0064 0.18742-0.03516 0.29492-0.05875 0.20625-0.09234 0.2868-0.21484 0.4668l-0.3457 0.49414 0.60352-0.0078c0.7375-0.01375 1.4734-0.01008 2.2109-0.01758 1.35-0.01375 2.7008-0.0332 4.0508-0.0332 0.7675 0 1.5326 0.0028 2.2988 0.0078h0.22852l0.06836-0.21875 0.43359-1.3867 0.08398-0.27148 0.25781-0.83008-0.55273 0.36328-0.17188 0.11524c-0.2275 0.14875-0.33234 0.19969-0.58984 0.27344-0.595 0.18375-0.90641 0.2175-1.5352 0.21875-0.03 0.0012-0.03125 0.0012-0.03125 0-0.1475-0.0012-0.29656 0-0.44531 0-1.2388-0.0012-2.4754 0.007-3.7129 0.01953-0.09375 0.0012-0.1875 0.000703-0.28125 0.002v-5.9902c0.52875-0.005 1.0591-0.006 1.5879-0.0098 0.6925-0.0038 1.3837-0.0098 2.0762-0.0098 0.02625-0.0012 0.04281-0.002 0.07031-0.002 0.20125 0 0.34211 0.0046 0.53711 0.03711 0.3125 0.07375 0.47266 0.12266 0.75391 0.25391l0.34961 0.16406 0.0918 0.04297v-2.2012l-0.30859-0.002c-0.12875-0.0012-0.25867-0.002-0.38867-0.002-0.27625 0-0.55117-0.002-0.82617-0.002-0.66125 0-1.3251 0.0067-1.9863 0.01172-0.67375 0.0037-1.3451 0.0042-2.0176 0.01172v-4.248c0.9725-0.01 1.9462-0.01508 2.9199-0.01758 0.24875 0 0.49539-0.0039 0.74414-0.0039 0.02 0 0.04055-0.002 0.06055-0.002 0.1875-0.0012 0.33578-0.01367 0.45703-0.01367 0.12375 0 0.22172 0.01039 0.35547 0.05664 0.20875 0.07375 0.30344 0.13266 0.46094 0.28516l0.5293 0.5293v-2.5391l-0.30859-0.002c-0.40125-0.0025-0.80117-0.0039-1.2012-0.0039zm-8.748 0.05859-0.43945 0.01172c-0.0875 0.0025-0.17352 0.0066-0.25977 0.0078-0.47 0.0125-0.94016 0.02266-1.4102 0.03516l-0.39453 0.01172 0.10352 0.38281c0.06125 0.21875 0.09727 0.33852 0.13477 0.54102 0.08375 0.43125 0.09766 0.75305 0.09766 1.123 0 0.2125-0.0039 0.43742-0.0039 0.70117v8.5723c-2.5738-2.8512-5.1482-5.6675-7.7207-8.4688-0.71125-0.7725-1.4209-1.5523-2.1309-2.3223l-0.09961-0.10547-0.14453 0.0078c-0.73 0.03875-1.4588 0.08125-2.1875 0.125l-1.0898 0.06641 0.96289 0.51758c0.165 0.09375 0.20195 0.12711 0.2832 0.28711 0.105 0.19375 0.1257 0.28914 0.12695 0.49414v12.346c0 0.30125 0.00039 0.4518-0.06836 0.7168-0.0375 0.18875-0.07359 0.24508-0.21484 0.45508l-0.35156 0.51953 0.62891-0.03516c0.6275-0.03875 1.256-0.07367 1.8848-0.10742l0.39648-0.02344-0.11914-0.37891c-0.08625-0.27125-0.13492-0.38453-0.16992-0.58203-0.14125-0.6775-0.13031-0.59-0.13281-1.0312v-10.209c0.48875 0.51125 0.97805 1.0324 1.4668 1.5449 2.9362 3.0838 5.8738 6.1977 8.8125 9.3477 0.39375 0.42375 0.78789 0.84063 1.1816 1.2656l0.53711 0.58008v-0.79102c-0.0062-4.6112-0.01398-9.2227-0.02148-13.834 0-0.3 0.0016-0.43938 0.05664-0.73438l-0.30469-0.05664 0.30664 0.04687c0.03875-0.24875 0.06953-0.37547 0.14453-0.60547l0.13867-0.42188zm24.254 0.036c-2.4025 0.0038-4.6292 1.3683-4.6367 3.7695 0 0.0225 0.0014 0.03758 0.0039 0.04883 0.01125 1.6962 0.9825 2.8146 2.4688 3.7246 0.9025 0.5475 1.8044 1.0959 2.7031 1.6484 1.2288 0.74625 2.1278 1.4441 2.1328 2.6504 0 0.0062 0.0039 0.01133 0.0039 0.01758-0.0062 0.43625-0.10062 0.80875-0.26562 1.125-0.40875 0.7875-1.297 1.2087-2.6895 1.2324-0.15625 0-0.32008-0.0063-0.48633-0.01758-1.4188-0.07875-2.2688-0.19094-3.2988-1.0547l-0.50977-0.42969v0.66797c-0.0025 0.5175-0.0025 1.04 0 1.5625v0.20703l0.19336 0.08008c1.2625 0.51375 2.143 0.50211 3.418 0.56836 0.2375 0.0125 0.48352 0.01953 0.72852 0.01953 0.6825-0.0012 1.3791-0.06203 2.0391-0.20703 0.56125-0.12375 1.0941-0.30758 1.5703-0.58008 1.04-0.585 1.7783-1.6251 1.7695-3.1426 0-0.06-0.001-0.12109-0.004-0.18359-0.0562-1.6788-0.73992-2.6044-1.6699-3.3281-0.555-0.43-1.1984-0.78875-1.8496-1.1875-0.7875-0.49-1.5777-0.97719-2.3652-1.4609-0.92375-0.57-1.5185-1.0838-1.6035-1.9863-0.0062-0.055-0.0085-0.10023-0.0098-0.14648 0.0037-1.1662 1.2707-2.0215 2.627-2.0215 0.10625 0 0.21281 0.0063 0.32031 0.01758 0.45625 0.0375 0.84211 0.09195 1.1934 0.18945 0.52625 0.1475 0.9707 0.39812 1.4395 0.85938l0.5293 0.5293v-0.75c0-0.5075 0.0012-1.014 0-1.5215v-0.20117l-0.18164-0.08203c-0.99125-0.4525-1.7348-0.50211-2.6836-0.56836-0.13-0.0087-0.26164-0.0193-0.40039-0.0293-0.1625-0.01375-0.32633-0.01953-0.48633-0.01953zm7.6426 0.58203-0.0527 0.26172c-0.1075 0.5-0.21336 1.0014-0.31836 1.5039l-0.14062 0.66602 0.59375-0.33008c0.2475-0.13625 0.38656-0.19562 0.66406-0.23438 0.0437-0.01 0.0795-0.01789 0.11328-0.02539h0.002c0.0925-0.01875 0.15101-0.02539 0.22851-0.02539 0.0325 0.0012 0.0656 0.0034 0.10938 0.0059 1.15 0.0725 2.2971 0.15188 3.4434 0.23437 0 4.02 0.0007 8.0405 0.002 12.061 0 0.195 0.0117 0.3425 0.0117 0.46875-0.001 0.08625-0.006 0.16406-0.0234 0.25781-0.0563 0.16625-0.0848 0.24492-0.16601 0.38867l-0.25 0.42773 0.49609 0.03516c0.26 0.01875 0.5193 0.03859 0.7793 0.05859 0.50625 0.0375 1.0126 0.07524 1.5176 0.11523l0.58789 0.04883-0.29296-0.51172c-0.12125-0.21-0.16524-0.29828-0.17774-0.42578-0.0763-0.4275-0.0808-0.48242-0.082-0.57617 0-0.03875 0.002-0.09945 0.002-0.18945v-12.035c0.965 0.07625 1.9302 0.15578 2.8965 0.23828 0.31125 0.02875 0.47765 0.07336 0.78515 0.19336l0.11329-0.28711-0.0957 0.29492c0.24625 0.08 0.39133 0.13953 0.61133 0.26953l0.52539 0.31055-0.0586-0.60547-0.13868-1.457-0.0234-0.25781-0.25781-0.02148c-2.9025-0.2625-5.8047-0.47953-8.7109-0.67578-0.8075-0.05375-1.6163-0.11726-2.4238-0.16602l-0.26953-0.01563zm-48.137 0.09375-0.83984 0.05859c-0.26375 0.0175-0.52656 0.03594-0.78906 0.05469-0.41125 0.02875-0.82508 0.05594-1.2363 0.08594l-0.33008 0.02148 0.04492 0.33008c0.0087 0.05875 0.01172 0.10133 0.01172 0.14258 0 0.04375-0.0017 0.08648-0.01172 0.14648-0.02125 0.09875-0.07203 0.18367-0.17578 0.35742-1.0388 1.715-2.0765 3.4352-3.1152 5.1602-0.94125-1.4462-1.881-2.8894-2.8223-4.3281-0.14875-0.22-0.21625-0.30406-0.28125-0.50781-0.0225-0.09625-0.03391-0.17328-0.03516-0.26953 0.0012-0.03375 0.0028-0.07219 0.0078-0.11719l0.03711-0.375-0.37305 0.03516c-0.79375 0.0725-1.5884 0.14836-2.3809 0.22461l-0.83008 0.07813 0.68359 0.48242c0.1725 0.125 0.24562 0.20547 0.39063 0.35547 0.13375 0.175 0.2043 0.27406 0.3418 0.47656 1.3238 1.9488 2.6482 3.9073 3.9707 5.8711v6.5371c0.0012 0.08875 0.0039 0.15562 0.0039 0.20312 0 0.04625-0.0024 0.07008-0.01367 0.11133l-0.0059 0.02539-0.002 0.01953c-0.0175 0.12625-0.04023 0.20656-0.11523 0.38281l-0.20508 0.47461 0.51367-0.04492c0.64-0.055 1.2819-0.10695 1.9219-0.1582l0.39844-0.0332-0.12891-0.375c-0.05375-0.16-0.06953-0.2393-0.11328-0.4043-0.0225-0.1175-0.03672-0.19289-0.04297-0.27539-0.0037-0.04125-0.0059-0.08672-0.0059-0.13672v-6.4609c1.345-2.1212 2.6909-4.237 4.0371-6.3457 0.165-0.27625 0.25648-0.42547 0.42773-0.66797l-0.25195-0.17969 0.25586 0.17578c0.0825-0.12 0.14836-0.21008 0.22461-0.29883 0.065-0.07625 0.13617-0.15039 0.23242-0.24414l0.60156-0.58789zm65.246 1.2793 0.006 0.0332 0.0547 0.36523c0.0275 0.1775 0.043 0.27953 0.043 0.39453 0 0.0475-0.002 0.09539-0.008 0.15039 0 0.25-0.004 0.34391-0.0488 0.44141-1.6388 3.645-3.2773 7.2945-4.916 10.957-0.0787 0.17625-0.15758 0.34984-0.23633 0.52734-0.195 0.4475-0.29945 0.61812-0.62695 1.0156-0.14375 0.18125-0.23672 0.2482-0.44922 0.43945l-0.51953 0.47266 0.70117 0.06445c0.7075 0.06375 1.4129 0.12977 2.1191 0.19726l0.46094 0.04297-0.13281-0.44141c-0.0387-0.12375-0.0508-0.18758-0.0508-0.23633 0.001-0.02875 0.004-0.05656 0.0156-0.10156 0.0125-0.0975 0.0529-0.18242 0.11914-0.32617 0.625-1.4688 1.2486-2.9326 1.8711-4.3926 1.9238 0.19375 3.8449 0.40125 5.7637 0.625 0.0513 0.12125 0.10234 0.24594 0.15234 0.36719 0.56125 1.3338 1.1183 2.6696 1.6758 4.0059 0.0925 0.2525 0.16578 0.36594 0.17579 0.52344 0.0125 0.09 0.0176 0.15719 0.0176 0.21094-0.001 0.12875-0.0225 0.23055-0.0937 0.4043l-0.1582 0.37891 0.40625 0.04883c0.86875 0.10625 1.7367 0.21562 2.6055 0.32812l0.67969 0.08594-0.38086-0.56641c-0.2225-0.335-0.35938-0.50625-0.54688-0.8125-0.42125-0.7275-0.60781-1.1818-0.94531-1.998-0.60125-1.4475-1.2015-2.8858-1.8027-4.332-0.73749-1.7738-1.4761-3.5477-2.2148-5.3164-0.435-1.0425-0.86773-2.0909-1.3027-3.1309l-0.0703-0.16992-0.18164-0.01953c-0.595-0.065-1.1888-0.13086-1.7812-0.19336l-0.37304-0.03906-0.0274-0.0039zm-83.639 0.34375-0.22266 0.02539c-0.59375 0.06875-1.1875 0.13578-1.7812 0.20703l-0.32422 0.03906 0.05469 0.32227c0.03 0.1675 0.04172 0.26086 0.04297 0.38086-0.0012 0.045-0.0021 0.09289-0.0059 0.15039-0.0012 0.20875-0.0039 0.3082-0.03516 0.4082-0.0063 0.01875-0.01273 0.03859-0.02148 0.05859-0.61625 1.5088-1.2287 3.0259-1.8438 4.5371-1.0987 2.7-2.1974 5.3967-3.2949 8.1055-0.19625 0.4925-0.30992 0.70203-0.63867 1.1758-0.1475 0.2225-0.24492 0.31648-0.45117 0.55273l-0.55078 0.62109 0.82422-0.11133c0.70375-0.095 1.4063-0.18875 2.1113-0.28125l0.36524-0.04687-0.10938-0.35156c-0.03625-0.1175-0.04687-0.17141-0.04687-0.22266 0-0.02875 0.0037-0.05742 0.01367-0.10742 0.01375-0.1025 0.05875-0.20828 0.125-0.36328 0.63-1.6275 1.2574-3.2504 1.8887-4.8691 0.99-0.12375 1.9834-0.22945 2.9746-0.3457 0.93-0.1075 1.8552-0.22297 2.7852-0.32422 0.6025 1.3025 1.2041 2.6052 1.8066 3.9102 0.095 0.24 0.16117 0.32125 0.16992 0.46875 0.0125 0.09125 0.01953 0.15273 0.01953 0.20898-0.0012 0.1275-0.0232 0.2418-0.0957 0.43555l-0.13281 0.33984-0.04883 0.13281 0.15625-0.01758 0.34375-0.03516c0.87-0.08875 1.7413-0.17602 2.6113-0.25977l0.56836-0.05469-0.35352-0.44531c-0.2275-0.28625-0.35812-0.42625-0.54688-0.6875-0.41625-0.62375-0.6007-1.0302-0.93945-1.7715-0.4825-1.0538-0.96352-2.0984-1.4473-3.1484-1.2925-2.8162-2.5864-5.6323-3.8789-8.4336l-0.0918-0.20312zm91.682 0.62891-0.0586 0.2793c-0.10375 0.49375-0.2107 0.98742-0.31445 1.4824l-0.13282 0.62305 0.57032-0.2793c0.2475-0.12 0.37929-0.16875 0.65429-0.1875 0.14125-0.02375 0.20469-0.03 0.27344-0.03125 0.0462 0 0.10219 0.0044 0.17969 0.01563 0.6425 0.0825 1.2833 0.17156 1.9258 0.25781 0.505 0.0675 1.0113 0.13508 1.5176 0.20508 0 4.0262-0.001 8.0506 0 12.078 0 0.19125 0.0117 0.33859 0.0117 0.46484-0.001 0.09-0.006 0.16852-0.0215 0.25977-0.0575 0.16125-0.0841 0.23555-0.16406 0.37305l-0.24219 0.40039 0.46484 0.06445c0.76375 0.10625 1.5266 0.21617 2.2891 0.32617l0.61 0.09-0.3-0.547c-0.12-0.21625-0.16594-0.31656-0.17969-0.44531-0.075-0.43125-0.0788-0.48828-0.0801-0.58203 0-0.04 0.002-0.0982 0.002-0.18945 0-4.005 0.0007-8.0099 0.002-12.014 0.95125 0.14 1.903 0.28148 2.8555 0.42774 0.31125 0.04875 0.4782 0.10609 0.7832 0.24609l0.13086-0.2793-0.11328 0.28906c0.24625 0.095 0.38828 0.16625 0.61328 0.3125l0.54102 0.35352-0.0625-0.64258c-0.0475-0.4875-0.0924-0.9768-0.13867-1.4668l-0.0234-0.23828-0.23633-0.03711c-2.3038-0.3625-4.6112-0.69367-6.9199-1.0137-1.385-0.19125-2.77-0.3843-4.1562-0.56055l-0.28516-0.03516zm-99.145 0.30859-0.73633 0.09961c-0.0225 0.0037-0.04195 0.006-0.06445 0.0098-0.70375 0.095-1.4049 0.19156-2.1074 0.28906l-0.51172 0.07422 0.30469 0.41797c0.08375 0.125 0.09664 0.16297 0.11914 0.35547 0 0.0125 0.002 0.03133 0.002 0.04883 0 0.14125-0.0475 0.26883-0.15625 0.51758-1.0375 3.2325-2.0662 6.4459-3.0938 9.6621-1.1038-2.9112-2.2068-5.8162-3.3105-8.7188-0.04625-0.14375-0.06641-0.23289-0.06641-0.33789 0-0.05375 0.0059-0.11461 0.02344-0.19336 0.0325-0.13125 0.05016-0.16836 0.12891-0.31836l0.28125-0.54688-0.60742 0.09766c-0.89375 0.1425-1.7852 0.28805-2.6777 0.43555l-0.66406 0.11133 0.51562 0.43359c0.15875 0.13125 0.25836 0.21476 0.38086 0.35352 0.19375 0.20625 0.27289 0.25367 0.33789 0.41992 0.22875 0.54625 0.45734 1.0898 0.68359 1.6348-0.9225 2.6188-1.8444 5.2402-2.7656 7.8652-1.1-2.9562-2.1981-5.908-3.2969-8.8555-0.015-0.04-0.01633-0.05328-0.01758-0.08203 0-0.03125 0.0073-0.08883 0.02734-0.17383 0.0225-0.1625 0.04648-0.20422 0.14648-0.38672l0.31836-0.57422-0.64258 0.11719c-0.89875 0.1625-1.7959 0.32734-2.6934 0.49609l-1.0449 0.19531 0.98828 0.39648c0.1975 0.08375 0.24742 0.12719 0.41992 0.30469 0.125 0.13875 0.14242 0.1818 0.20117 0.37305 1.7375 4.3988 3.4641 8.7781 5.1953 13.172l0.31055 0.78906 0.27148-0.80274c1.175-3.46 2.3504-6.9119 3.5254-10.359 1.19 3.0138 2.3798 6.0336 3.5723 9.0586l0.31055 0.78906 0.27148-0.80274c1.635-4.8238 3.2721-9.6377 4.9121-14.441 0.065-0.21125 0.14648-0.33828 0.27148-0.58203 0.175-0.2975 0.28203-0.4718 0.48828-0.74805l0.01563-0.01758 0.43359-0.57617zm112.51 1.6387 0.54883 0.64453c0.12125 0.14375 0.14765 0.1957 0.22265 0.37695 0.0675 0.2025 0.0932 0.30891 0.0957 0.53516-0.002 4.1288-0.002 8.2587-0.002 12.389 0.002 0.15125 0.0117 0.27516 0.0117 0.37891-0.001 0.1025-0.007 0.1818-0.0371 0.2793-0.0575 0.1925-0.0849 0.255-0.20117 0.40625l-0.32617 0.41211 0.52148 0.08594c2.8212 0.46625 5.6452 0.96219 8.459 1.4922l0.26758 0.05078 0.0859-0.25977c0.17-0.52125 0.34102-1.0452 0.50977-1.5664l0.22266-0.68945-0.65235 0.31445c-0.22125 0.105-0.31445 0.13336-0.56445 0.16211-0.23625 0.03125-0.41945 0.04492-0.5957 0.04492-0.2825 0-0.55282-0.03226-0.94532-0.10352-1.4788-0.2725-2.9609-0.53461-4.4434-0.78711v-5.9805c1.19 0.2025 2.3789 0.41195 3.5664 0.62695 0.23875 0.04375 0.38836 0.06828 0.59961 0.14453 0.3125 0.13125 0.47656 0.21148 0.75781 0.39648l0.48047 0.31445v-2.2383l-0.25586-0.04687c-1.7338-0.32-3.4676-0.62953-5.2051-0.92578v-4.2383c1.2088 0.2075 2.4168 0.41922 3.623 0.63672 0.3825 0.06625 0.54555 0.0482 0.81055 0.18945 0.21125 0.11375 0.31851 0.19992 0.47851 0.38867l0.54883 0.65625v-2.5977l-0.25586-0.04492c-2.4938-0.46125-4.9909-0.89609-7.4922-1.3086l-0.83398-0.13867z" transform="matrix(.8 0 0 -.8 96.531 396.18)" fill="#c79316"/><path d="m121.36 59.74c-0.71125 1.6262-1.4209 3.2567-2.1309 4.8867 0.1125 0.01125 0.22539 0.02391 0.33789 0.03516 1.3412 0.14 2.6822 0.285 4.0234 0.4375-0.44625-1.0738-0.89359-2.1443-1.3398-3.2168-0.29625-0.7125-0.59438-1.4288-0.89063-2.1426zm-85.947 0.33398c-0.59625 1.5012-1.1916 3.006-1.7891 4.5098-0.1125 0.285-0.22805 0.57117-0.3418 0.85742 0.325-0.04125 0.65156-0.07453 0.97656-0.11328 1.1275-0.135 2.256-0.26953 3.3848-0.39453-0.74375-1.6225-1.4867-3.2406-2.2305-4.8594z" transform="matrix(.8 0 0 -.8 96.531 396.18)" fill="#115e56"/></g></g></svg>
