<?xml version="1.0" encoding="UTF-8" standalone="no"?>
<svg xmlns:inkscape="http://www.inkscape.org/namespaces/inkscape" xmlns:rdf="http://www.w3.org/1999/02/22-rdf-syntax-ns#" xmlns="http://www.w3.org/2000/svg" sodipodi:docname="UMKC.svg" xml:space="preserve" height="80.902" viewBox="0 0 182.44336 80.901627" width="182.44" version="1.1" xmlns:cc="http://creativecommons.org/ns#" xmlns:dc="http://purl.org/dc/elements/1.1/" inkscape:version="0.91 r13725" xmlns:sodipodi="http://sodipodi.sourceforge.net/DTD/sodipodi-0.dtd"><sodipodi:namedview fit-margin-left="0" inkscape:zoom="4.5697274" borderopacity="1" inkscape:current-layer="g11364" inkscape:cx="89.501483" inkscape:cy="39.324832" inkscape:window-maximized="1" showgrid="false" fit-margin-right="0" bordercolor="#666666" inkscape:window-x="0" guidetolerance="10" objecttolerance="10" inkscape:window-y="0" fit-margin-bottom="0" inkscape:window-width="1280" inkscape:pageopacity="0" inkscape:pageshadow="2" pagecolor="#ffffff" gridtolerance="10" inkscape:window-height="752" fit-margin-top="0"/><g inkscape:label="UMKC" inkscape:groupmode="layer" transform="matrix(1.25 0 0 -1.25 -407.45 853.23)"><g style="" transform="translate(.35013 .35013)"><path d="m76.875 14.795c-1.4025 7.1938 3.1294 12.428 11.797 16.049 0.79625 0.3375 16.797 7.454 17.193 7.6777 0.3525 0.20875 2.0582 0.9625 2.0645 2.4062 0.006 0.92375-0.2936 22.687-0.40235 33.492h-0.006c-0.007 0.385-0.0193 0.7643-0.0293 1.123h-0.0234c-0.0113 0.78375-0.023 1.4922-0.0293 2.1172-0.007 0.18125-0.0156 0.3625-0.0156 0.53125h0.008c-0.009 0.59625-0.0159 1.0864-0.0234 1.4727-0.48375-0.0075-1.0145-0.02703-1.9258-0.14453-1.0475-0.1425-1.7281-0.65312-2.2031-1.3281h0.0156l-0.47656-3.5137-2.91-23.409-1.549-12.497-4.687-2.107-15.393 32.309-17.047-35.231c-0.81625-1.6288-1.19-1.9375-1.6875-1.9375-0.50125 0-0.8782 0.56445-1.0645 1.627l-6.1836 40.721c-0.31 2.1212-0.80984 4.5625-2.5586 4.9375-0.94 0.18125-1.377 0.18164-1.877 0.18164-0.6225 0-0.99805 0.12516-0.99805 0.44141 0 0.55625 0.5 0.68945 1.125 0.68945 2 0 4.9979-0.19141 6.1816-0.19141 1.1262 0 3.9368 0.19141 6.5605 0.19141 0.93875 0 1.498-0.1332 1.498-0.68945 0-0.31625-0.4368-0.44141-0.93555-0.44141-0.62125 0-1.4988-0.06055-2.625-0.31055-1.06-0.24625-1.873-0.8093-1.873-1.998 0-0.995 0.0618-1.8112 0.18555-2.9375l3.25-24.855h0.25c2.1825 4.685 5.9323 12.555 6.4961 13.867 0.7525 1.7488 5.6816 11.301 7.1816 14.18 0.99875 1.8738 1.6238 3.1191 2.1875 3.1191 0.56 0 0.87375-0.5568 2.3125-3.498l13.613-28.355h0.24805l3.6367 26.666 0.11328 0.50781c0.0325 0.3125 0.16 1.1938 0.40625 2.3438-0.09375 0.83-1.0554 1.2363-2.3066 1.4238-1.4012 0.195-2.4906 0.24219-3.2656 0.24219-0.6225 0-1.168 0.09805-1.168 0.3418 0 0.4375 0.70344 0.53125 1.8672 0.53125 3.2612 0 6.7586-0.14453 8.1523-0.14453 1.4275 0 4.9529 0.13578 7.4316 0.14453 3.5538 0 8.9785 0.02734 11.01 0.02734 0.57125 0 0.98242-0.15531 0.98242-0.50781 0-0.2575-0.25703-0.4082-0.67578-0.4082-0.675 0-1.8194-0.10453-2.5469-0.20703-1.2375-0.1975-1.3993-1.2288-1.498-2.5625 0.0112-0.7475 0.0298-1.5673 0.0586-2.5098h-0.0234l0.26758-17.77h0.31445l0.6875 0.9375c1.3125 1.8125 13.614 16.241 16.365 18.676 2.6838 2.375 4.3704 3.7484 7.7441 4.0547 1.3125 0.1325 2.4324 0.13281 4.3086 0.13281h5.4336c1.185 0 1.4961-0.1918 1.4961-0.62305 0-0.3825-0.36985-0.50781-0.8086-0.50781-0.7475 0-1.9973-0.1818-3.8711-0.93555-3.3738-1.3075-6.1836-4.1209-8.9336-6.7422-2.44-2.3125-14.683-15.49-16.928-18.426 2.1212-2.2525 11.56-11.618 13.492-13.494 2.69-2.6188 4.8068-3.9348 6.748-4.6836 1.1875-0.4375 2.7474-0.6875 3.6211-0.6875 0.62625 0 0.93359-0.1268 0.93359-0.56055 0-0.44125-0.43555-0.5625-1.0606-0.5625-1.9338 0-5.3691 0.1875-7.3066 0.1875-1.6862 0-5.1205-0.1875-6.4355-0.1875-0.6875 0-0.9961 0.12125-0.9961 0.5625 0 0.375 0.24875 0.49891 0.8125 0.62891 0.62125 0.1225 0.875 0.55648 0.875 1.2402 0 1.0662-1.3782 2.628-3.127 4.6855-1.81 2.1288-10.927 11.435-13.051 13.746h-0.31445v-5.2754-3.291c0.007-2.1188 0.015-3.5355 0.0312-4.6055-0.0162-0.835-0.47133-2.52-2.4551-4.2812-4.11-3.644-17.795-7.499-29.109-14.166-5.495-3.236-6.576-7.629-6.576-7.629zm91.924 17.516c-9.305 0-15.24 2.4941-19.74 6.6191-5.9875 5.4962-7.3047 12.863-7.3047 17.111 0 6.0588 1.6229 13.053 7.7441 18.426 5.6862 4.9312 12.868 6.8086 21.422 6.8086 3.9975 0 8.7497-0.4343 11.242-1.4355 1.06-0.44125 1.3144-0.75016 1.627-1.8164 0.62125-2.1213 1.375-7.5516 1.375-8.3066 0-0.4975-0.13015-0.93555-0.5664-0.93555-0.49625 0-0.6236 0.2493-0.8086 1.248-0.2525 1.1262-1.0625 2.9388-2.125 4.125-2.5025 2.875-5.8709 3.4941-11.43 3.4941-8.3675 0-19.674-7.3612-19.674-22.232 0-6.06 1.1873-11.991 5.7461-16.172 2.7488-2.5 6.3077-3.873 11.74-3.873 5.7487 0 10.615 1.6843 12.682 3.873 1.5562 1.6188 2.3679 3.808 2.4316 5.748 0 0.86625 0.13015 1.3691 0.6289 1.3691 0.5625 0 0.6836-0.50359 0.7461-1.4336 0.13125-1.2512 0.0632-4.687 0.18945-6.752 0.125-2.1838 0.31055-2.9336 0.31055-3.4336 0-0.3725-0.25235-0.68484-0.9336-0.74609-1.8762-0.1875-3.8773-0.75-6.2461-1.0625-2.8725-0.3775-5.1804-0.62305-9.0566-0.62305zm-163.7 0.873c-0.93875 0-1.377 0.12359-1.377 0.55859 0 0.4375 0.37625 0.56641 1.0625 0.56641 0.87625 0 1.938 0.0618 2.4355 0.18555 2.06 0.43375 2.5607 1.443 2.6895 3.5605 0.1225 1.9987 0.12109 3.7483 0.12109 13.238v9.1211c0 9.06 2.3725 13.676 5.5625 16.549 4.5575 4.1175 10.553 4.3105 13.861 4.3105 4.0588 0 8.5579-0.68484 12.994-4.4961 5.245-4.4988 5.9336-11.87 5.9336-18.801v-6.6836c0-9.49 0.0012-11.24 0.125-13.238 0.12375-2.1875 0.62625-3.2493 2.3125-3.5605 0.74625-0.12375 1.1209-0.18555 1.8047-0.18555 0.7525 0 1.127-0.12891 1.127-0.56641 0-0.435-0.43625-0.55859-1.3125-0.55859-2.4325 0-6.3677 0.18555-7.1152 0.18555-0.065 0-4.003-0.18555-7.1855-0.18555-0.87625 0-1.3125 0.12359-1.3125 0.55859 0 0.4375 0.37305 0.56641 1.0605 0.56641 0.6875 0 1.752 0.0618 2.252 0.18555 2.0588 0.43375 2.5566 1.443 2.6816 3.5605 0.12625 1.9987 0.12695 3.7483 0.12695 13.238v7.8105c0 6.4312-0.18984 12.052-3.6211 15.488-2.5012 2.5-5.8736 3.373-8.6211 3.373-2.1238 0-4.9986-0.24984-7.8086-2.5586-3.0588-2.5-4.8691-6.3122-4.8691-15.367v-8.7461c0-9.49 0.000703-11.24 0.12695-13.238 0.125-2.1875 0.62164-3.2493 2.3066-3.5605 0.75125-0.12375 1.1245-0.18555 1.8145-0.18555 0.62125 0 1-0.12891 1-0.56641 0-0.435-0.43875-0.55859-1.375-0.55859-2.2475 0-6.1866 0.18555-7.6816 0.18555-1.8775 0-5.8104-0.18555-9.1191-0.18555z" inkscape:connector-curvature="0" transform="matrix(.8 0 0 -.8 322.98 682.88)" fill="#06c"/><path d="m385.26 671.68s3.275-4.532 23.854-12.495c5.04-1.949 5.361-5.034 5.784-5.457 0 0 1.207 6.659-2.842 9.738-3.947 2.997-29.097 10.472-27.573 18.314-1.314-3.845-1.328-7.858 0.777-10.1" inkscape:connector-curvature="0" fill="#fd0"/></g></g></svg>
