<?xml version="1.0" encoding="UTF-8" standalone="no"?>
<!-- Created with Inkscape (http://www.inkscape.org/) -->

<svg
   xmlns:dc="http://purl.org/dc/elements/1.1/"
   xmlns:cc="http://creativecommons.org/ns#"
   xmlns:rdf="http://www.w3.org/1999/02/22-rdf-syntax-ns#"
   xmlns:svg="http://www.w3.org/2000/svg"
   xmlns="http://www.w3.org/2000/svg"
   xmlns:sodipodi="http://sodipodi.sourceforge.net/DTD/sodipodi-0.dtd"
   xmlns:inkscape="http://www.inkscape.org/namespaces/inkscape"
   width="198.59541"
   height="70.083351"
   viewBox="0 0 198.5954 70.08335"
   id="svg4754"
   version="1.1"
   inkscape:version="0.91 r13725"
   sodipodi:docname="bristol community college.svg">
  <defs
     id="defs4756" />
  <sodipodi:namedview
     id="base"
     pagecolor="#ffffff"
     bordercolor="#666666"
     borderopacity="1.0"
     inkscape:pageopacity="0.0"
     inkscape:pageshadow="2"
     inkscape:zoom="4.5800656"
     inkscape:cx="98.797711"
     inkscape:cy="34.541677"
     inkscape:document-units="px"
     inkscape:current-layer="layer1"
     showgrid="false"
     fit-margin-top="0"
     fit-margin-left="0"
     fit-margin-right="0"
     fit-margin-bottom="0"
     units="px"
     inkscape:window-width="1280"
     inkscape:window-height="744"
     inkscape:window-x="-4"
     inkscape:window-y="-4"
     inkscape:window-maximized="1" />
  <metadata
     id="metadata4759">
    <rdf:RDF>
      <cc:Work
         rdf:about="">
        <dc:format>image/svg+xml</dc:format>
        <dc:type
           rdf:resource="http://purl.org/dc/dcmitype/StillImage" />
        <dc:title></dc:title>
      </cc:Work>
    </rdf:RDF>
  </metadata>
  <g
     inkscape:label="Layer 1"
     inkscape:groupmode="layer"
     id="layer1"
     transform="translate(494.16031,-757.12157)">
    <g
       id="layer1-8"
       transform="translate(-504.86261,-210.20138)">
      <path
         style="display:inline;fill:#144a27;fill-opacity:1;fill-rule:evenodd;stroke:none"
         id="path3595"
         d="m 38.939658,1009.6698 c 0,0 4.757355,0.019 7.233095,0.019 2.497801,0 5.267252,0.1954 6.76984,-0.2949 2.509146,-0.8188 2.354727,-4.5727 1.382835,-6.1434 -0.589312,-0.9511 -1.672764,-1.3475 -4.130226,-1.3645 -2.849497,-0.02 -11.255544,0 -11.255544,0 l 0,7.7839 z m 0.0045,-18.51885 c 0,0 7.275954,0.092 10.63913,0.0372 0.927142,-0.0151 2.360399,-0.20169 3.10476,-0.68448 1.669612,-1.08282 1.848612,-5.26662 0,-6.51395 -1.463511,-0.98765 -4.104385,-0.84205 -6.484953,-0.84268 -2.532466,-10e-4 -2.510406,-0.0857 -7.258937,-0.0813 l 0,8.08524 z m 27.650392,4.89728 c 0,0 3.326619,0.508 5.220611,0.92399 1.860587,0.40842 4.471838,1.49187 5.867278,2.81798 7.391927,7.0226 3.557302,18.7111 -6.612269,21.6961 -2.536878,0.7457 -5.387005,1.1125 -8.032922,1.2197 -3.281238,0.1323 -3.301407,0.083 -51.195769,-0.047 l 0,-53.73018 c 0,0 45.193611,-0.0574 52.70403,0.092 4.636341,0.0927 6.486844,0.41347 7.824298,0.87798 8.95124,3.11296 11.871328,14.32753 4.527303,21.57575 -3.939881,3.8882 -10.30256,4.57395 -10.30256,4.57395"
         inkscape:connector-curvature="0" />
      <path
         style="display:inline;fill:#144a27;fill-opacity:1;fill-rule:nonzero;stroke:none"
         id="path3599"
         d="m 188.10063,968.09685 c -7.57659,-0.44498 -15.44123,-0.51746 -21.80706,1.10866 -6.29146,1.60848 -11.0715,4.60042 -14.73658,9.10125 -3.43566,4.21783 -5.8156,10.77527 -5.49857,18.29577 0.61138,14.48957 9.04137,23.40987 21.29906,25.96377 4.79644,1.0003 9.31617,1.2259 14.6912,1.294 10.8112,0.1392 25.82511,-1.848 25.82511,-1.848 l -0.0914,-18.5725 c 0,0 -10.47336,1.7705 -15.56035,1.9986 -2.60306,0.116 -4.30104,0.079 -6.85871,-0.1128 -3.06316,-0.2294 -6.97405,-0.6378 -9.15041,-2.7846 -1.8568,-1.8297 -2.24065,-4.90292 -1.46162,-7.32634 2.23624,-6.94632 12.96298,-5.77715 18.51889,-5.51244 5.32839,0.25401 15.51562,1.80891 15.51562,1.80891 l 0.0119,-21.28898 c 0,0 -13.40796,-1.69671 -20.69714,-2.1253 m -43.89019,35.34295 c 0,0 -10.47274,1.7705 -15.55973,1.9986 -2.60306,0.116 -4.30104,0.079 -6.85871,-0.1128 -3.06253,-0.2294 -6.97406,-0.6378 -9.15104,-2.7846 -1.85555,-1.8297 -2.24002,-4.90292 -1.46036,-7.32634 2.23561,-6.94632 12.96171,-5.77715 18.51827,-5.51244 5.32838,0.25401 15.5156,1.80891 15.5156,1.80891 l 0.0126,-21.28898 c 0,0 -13.40858,-1.69671 -20.69777,-2.1253 -7.57597,-0.44498 -15.44186,-0.51746 -21.80643,1.10866 -6.292093,1.60848 -11.072138,4.60042 -14.737848,9.10125 -3.434402,4.21783 -5.814965,10.77527 -5.497934,18.29577 0.611372,14.48957 9.041365,23.40987 21.298422,25.96377 4.79707,1.0003 9.31744,1.2259 14.69184,1.294 10.81056,0.1392 25.82573,-1.848 25.82573,-1.848 l -0.0926,-18.5725 z"
         inkscape:connector-curvature="0" />
      <path
         style="display:inline;fill:#144a27;fill-opacity:1;fill-rule:nonzero;stroke:none"
         id="path3601"
         d="m 129.01508,1036.7067 1.66457,0 0,-10.0971 -1.66457,0 0,10.0971 z m 15.02903,-5.9618 -2.59675,-4.0968 -2.05534,0 3.7489,5.779 0,4.2796 1.66268,0 0,-4.3067 3.72496,-5.7519 -1.88895,0 -2.5955,4.0968 z m 13.19996,3.2289 c -0.18215,0.9108 -0.95928,1.3116 -1.86626,1.3274 -2.02824,0 -2.63079,-1.7825 -2.66293,-3.626 0.0322,-1.8392 0.63469,-3.6203 2.66419,-3.6222 0.95866,0.025 1.63495,0.3617 1.76038,1.2265 l 0.0321,0.2389 0.0157,0.1197 1.70743,0 -0.0347,-0.4475 c -0.14811,-1.9223 -1.83726,-2.7436 -3.42998,-2.7366 -0.0164,0 -0.0346,0 -0.0567,0 0.009,0 0,0 -0.0126,0 -1.50007,0 -2.6434,0.6428 -3.3512,1.6261 -0.71474,0.9826 -1.02169,2.2684 -1.02295,3.5951 0.002,1.34 0.30569,2.6264 1.01791,3.6071 0.7078,0.9801 1.85113,1.6161 3.3512,1.6161 l 0.0233,0 0.0101,0 c 1.6299,0 3.2535,-0.994 3.56864,-2.7714 l 0.0567,-0.3246 0.0258,-0.1626 -1.73264,0 -0.0637,0.3347 z m -31.53166,-0.1979 -4.46805,-7.1278 -1.59083,0 0,10.0586 1.66268,0 0,-6.9822 4.36217,6.9822 1.69608,0 0,-10.0586 -1.66205,0 0,7.1278 z m 70.30713,-1.0053 2.3125,0 0.001,2.2501 c -0.55087,0.1544 -1.1093,0.2805 -1.62739,0.2805 -2.25829,-0.041 -3.0058,-1.3583 -3.06379,-3.626 l -0.0971,-0.01 0.0971,0 c -0.002,-0.8975 0.20232,-1.8379 0.62776,-2.5104 0.43805,-0.6744 1.02988,-1.0961 1.99862,-1.1055 0.99773,0.021 1.75785,0.4242 1.88958,1.3419 l 0.0328,0.2382 0.0157,0.1198 1.76478,0 -0.0409,-0.4519 c -0.17963,-1.9205 -1.98917,-2.8514 -3.64491,-2.8476 -0.006,0 -0.0183,-0.01 -0.0472,0 -2.95223,0.01 -4.32372,2.7272 -4.31994,5.2187 0,1.4874 0.36934,2.782 1.11244,3.7256 0.73932,0.9429 1.86248,1.4975 3.22452,1.4963 l 0.0133,0 0.0113,0 c 1.21771,0 2.2917,-0.1494 3.45079,-0.602 l 0.17522,-0.069 0.0882,-0.036 0,-5.0189 -3.97455,0 0,1.5984 z m 7.38878,2.3384 0,-2.7859 4.47183,0 0,-1.599 -4.47499,0 0,-2.4814 4.65525,0 0,-1.5978 -6.31666,0 0,10.0593 6.50764,0 0,-1.5978 -4.84307,0 z m -24.49017,-8.4616 -1.66268,0 0,10.0593 6.30154,0 0,-1.5977 -4.63886,0 0,-8.4616 z m -7.15242,0 -1.66205,0 0,10.06 6.3028,0 0,-1.5978 -4.64075,0 0,-8.4622 z m -7.57345,8.7918 0,0 c -2.09442,-0.01 -2.92324,-1.7994 -2.94341,-3.7615 0.0202,-1.9633 0.84899,-3.759 2.94341,-3.7628 2.09316,0.01 2.92387,1.7995 2.94404,3.7628 -0.0202,1.9608 -0.85088,3.7571 -2.94404,3.7609 m 0.008,-8.9846 0,0 -0.003,0 c 0,0 -0.001,0 -0.002,0 -0.005,0 -0.0139,0 -0.0334,0 -1.40993,0.01 -2.57091,0.5395 -3.34048,1.4755 -0.77651,0.9397 -1.16098,2.2406 -1.16098,3.7482 0,1.5045 0.38447,2.806 1.16098,3.7464 0.77083,0.9353 1.93181,1.4711 3.34426,1.4736 l 0.005,0 0.0366,0 c 1.4175,0 2.58163,-0.537 3.35624,-1.4749 0.77651,-0.9403 1.16035,-2.2418 1.16161,-3.7463 -0.001,-1.5077 -0.3851,-2.8086 -1.16161,-3.7483 -0.77524,-0.9398 -1.94252,-1.4768 -3.36254,-1.4755 m 21.90475,5.8686 4.47436,0 0,-1.5984 -4.47436,0 0,-2.4808 4.65273,0.01 0,-1.5991 -6.31541,0 0,10.0606 6.50702,0 0,-1.5978 -4.84434,0 0,-2.7871 z m -54.69319,-4.0786 2.97933,0 0.012,8.4621 1.64882,0 0.0107,-8.4621 2.92954,0 0,-1.5965 -7.58038,0 0,1.5965 z m -95.636833,2.7058 5.05e-4,0 c -0.656752,-0.2136 -1.287663,-0.4109 -1.701127,-0.675 -0.421027,-0.2805 -0.60696,-0.515 -0.620826,-1.0273 0.0069,-0.4091 0.185933,-0.6524 0.521242,-0.8743 0.31514,-0.2035 0.770202,-0.3157 1.171061,-0.3208 l 0.01134,0.01 0.04538,-0.01 c 0.422918,0 0.852769,0.077 1.12505,0.2358 0.281105,0.177 0.423548,0.3454 0.44939,0.7929 l 0.0045,0.2697 0.003,0.1349 1.768566,0 -0.05357,-0.4633 c -0.239507,-2.0459 -2.083707,-2.5759 -3.352461,-2.5696 -0.01951,0 -0.04604,0 -0.07942,0.01 -1.583264,0 -3.32977,0.9971 -3.339855,2.9087 0,0 -0.002,0.01 -0.002,0.015 -5.04e-4,1.1654 0.714738,1.935 1.535363,2.3894 0.825037,0.4664 1.793147,0.711 2.52049,0.9549 0.743731,0.2666 1.149631,0.5382 1.160346,1.2164 -0.0056,0.4431 -0.20232,0.74 -0.547713,0.9889 -0.33657,0.237 -0.819365,0.3719 -1.255518,0.3712 -5.05e-4,0 -5.05e-4,0 -5.05e-4,0 l 0,0 -0.002,0 c -5.04e-4,0 -0.002,0 -0.003,0 -0.0035,0 -0.01008,0 -0.02269,0 -1.188078,-0.059 -1.82277,-0.2779 -1.875714,-1.4206 l -0.0045,-0.2692 -0.003,-0.1367 -1.726968,0 0.01008,0.4261 c 0.0416,1.7534 1.484941,3.0026 3.152032,3.0007 l 0.01134,0 c 0.969371,0 1.93433,-0.1544 2.701381,-0.6189 0.768311,-0.457 1.295226,-1.2808 1.292704,-2.3964 l 0,-0.01 c -0.0045,-1.9078 -1.615408,-2.5223 -2.892986,-2.9251 m 80.567456,2.0749 c -0.0958,1.5171 -0.80928,2.2432 -2.12845,2.2759 -1.31792,-0.033 -2.02888,-0.7576 -2.12657,-2.286 l 0,-6.3671 -1.66142,0 0,6.3967 c 0.003,2.1235 1.32107,3.853 3.74072,3.853 0.0189,0 0.0303,0 0.0403,0 l 0.19539,0 0,0 c 2.33015,-0.062 3.59953,-1.7699 3.60331,-3.8485 l 0,-6.3999 -1.66331,0 0,6.3772 z m -65.2132,2.414 0,0 c -2.0919,-0.01 -2.923869,-1.7994 -2.942778,-3.7615 0.01891,-1.9627 0.850878,-3.7596 2.942778,-3.7621 2.093161,0 2.92387,1.7994 2.944039,3.7621 -0.02017,1.9621 -0.850878,3.7571 -2.944039,3.7609 m 0.01074,-8.9847 -0.003,0 c -0.003,0 -0.0082,0 -0.01765,0 l -5.04e-4,0 c -1.419391,0 -2.585409,0.5352 -3.360654,1.4761 -0.775875,0.9386 -1.159716,2.2394 -1.159716,3.7471 0,1.507 0.383841,2.8066 1.160976,3.7464 0.771463,0.9353 1.931809,1.4729 3.344898,1.4729 l 0.0035,0 0.04478,0 c 1.412458,0 2.575325,-0.537 3.346158,-1.4742 0.777766,-0.9398 1.162237,-2.2394 1.162237,-3.7464 0,-1.5076 -0.384471,-2.8085 -1.162237,-3.7483 -0.773984,-0.9391 -1.940633,-1.4767 -3.358763,-1.4748 m -22.557729,10.2521 1.66394,0 0,-10.0971 -1.66394,0 0,10.0971 z m -13.977724,-1.4591 c -0.04286,0 -0.0832,0 -0.120384,0 l -1.757851,0 0,-3.0757 1.256148,0 c 0.856551,-0.01 1.577592,0.066 2.033915,0.2892 0.448129,0.2307 0.679442,0.5339 0.693308,1.248 -0.03217,1.2152 -0.618935,1.4906 -2.105136,1.5373 m -1.740834,-7.0024 1.554271,0 c 0.502964,0.01 0.992691,0.081 1.290814,0.2577 0.299383,0.1898 0.462625,0.3857 0.478382,0.9524 -0.0045,0.9303 -0.703392,1.2133 -1.708059,1.2555 l -1.615408,0 0,-2.4656 z m 4.012364,3.1583 c 0.623347,-0.4614 1.036811,-1.1887 1.036811,-2.0258 -0.002,-1.7376 -1.463511,-2.7171 -2.983747,-2.7171 l -3.727477,-0.015 0,10.0612 3.947445,0 c 1.07904,0 1.893362,-0.3511 2.413973,-0.9095 0.523763,-0.5591 0.733646,-1.2839 0.733646,-1.9722 l 0,-0.03 c 0.003,-1.0992 -0.567252,-1.9456 -1.420651,-2.3913 m 7.630172,-0.7657 c -0.437415,0.1878 -1.067695,0.2149 -1.648813,0.2136 l 0,0 -1.499437,0 0,-2.7436 1.588937,0 c 0.11345,0 0.235724,0 0.363041,0 0.443087,0 0.951723,0.031 1.30531,0.2137 0.346024,0.1884 0.585531,0.4595 0.596876,1.1635 -0.01452,0.6971 -0.272912,0.9586 -0.705914,1.1572 m 2.061646,2.8633 0.001,0 c -0.06429,-0.7739 -0.267869,-1.5624 -0.901301,-2.0351 0.680073,-0.4267 1.129462,-1.1175 1.132614,-1.9646 l 5.04e-4,0 0,-0.021 0,-0.023 c 5.04e-4,-0.965 -0.369975,-1.8051 -1.149631,-2.2659 -0.779657,-0.4846 -1.547968,-0.5452 -2.351576,-0.5452 -0.0082,0 -0.02521,0 -0.05546,0 l -3.409816,0 0,10.0587 1.661418,0 0,-4.3981 1.871933,0 c 0.83323,0 1.104251,0.1096 1.217701,0.2786 0.15757,0.1815 0.277954,0.7777 0.361781,1.8208 0.05168,0.6479 0.101475,1.3387 0.343503,2.0188 l 0.06303,0.1847 0.03212,0.093 2.028241,0 -0.42733,-0.6448 c -0.26976,-0.3718 -0.262196,-1.0368 -0.419136,-2.5608 m 12.182056,-5.2559 2.979965,0 0.012,8.4621 1.648813,0 0.01261,-8.4628 2.927651,0 0,-1.5978 -7.58101,0 0,1.5978 z m 64.700159,5.8149 -3.19616,-7.412 -2.01878,0 0,10.0592 1.66331,0 0,-6.8814 2.85958,6.8814 1.38599,0 2.86084,-6.9123 0,6.9111 1.66268,0 0,-10.058 -1.95198,0 -3.26548,7.412 z m -44.836249,-7.4133 -1.663939,0 0,10.0611 6.302802,0 0,-1.5984 -4.638863,0 0,-8.4627 z m 32.63654,7.4133 -3.19363,-7.4127 -2.019418,0 0,10.0587 1.66394,0 0,-6.8789 2.85769,6.8801 1.387247,0 2.860212,-6.9123 0,6.9123 1.662049,0 0,-10.0592 -1.952608,0 -3.265482,7.412 z m -18.077697,-0.088 0.13614,0.028 -0.137401,-0.028 c -0.183411,0.9114 -0.961177,1.3135 -1.86689,1.3281 -2.026981,0 -2.63205,-1.7831 -2.662934,-3.6241 0.03091,-1.8399 0.635953,-3.621 2.664195,-3.6229 0.956135,0.024 1.634947,0.3618 1.760373,1.2253 l 0.03212,0.2388 0.01452,0.121 1.70869,0 -0.03404,-0.4481 c -0.145595,-1.9217 -1.837267,-2.7442 -3.431246,-2.736 l -0.04977,0 -0.01573,0 c -1.500698,0 -2.644656,0.6403 -3.353721,1.6267 -0.714737,0.9833 -1.020424,2.2671 -1.022315,3.5964 0.002,1.34 0.303795,2.6245 1.017272,3.6058 0.707176,0.9782 1.846091,1.6148 3.344897,1.6148 l 0.02899,0 0.01261,0 c 1.630535,0.01 3.251616,-0.9939 3.566756,-2.7707 l 0.05609,-0.3246 0.02773,-0.162 -1.726968,0 -0.06933,0.3328 z m 7.084349,1.4667 c -2.09253,0 -2.9245,-1.7988 -2.943408,-3.7609 0.01891,-1.9627 0.850878,-3.7596 2.943408,-3.7621 2.092531,0 2.92387,1.7994 2.943409,3.7621 -0.01951,1.9621 -0.850878,3.7571 -2.943409,3.7609 m -0.075,-8.9846 -0.0035,0 c -0.002,0 -0.0069,0 -0.01573,0 l -5.04e-4,0 c -1.419392,0 -2.58604,0.5351 -3.360024,1.4761 -0.777766,0.9385 -1.161607,2.2394 -1.161607,3.747 0,1.507 0.383841,2.8066 1.161607,3.7464 0.770832,0.9359 1.933699,1.4729 3.347418,1.4729 l 0.0035,0 0.0416,0 c 1.413718,0 2.575955,-0.537 3.347418,-1.4742 0.776505,-0.9397 1.160976,-2.2394 1.160976,-3.7463 0,-1.5077 -0.384471,-2.8086 -1.162236,-3.7483 -0.772724,-0.9392 -1.939373,-1.4768 -3.358764,-1.4749"
         inkscape:connector-curvature="0" />
    </g>
  </g>
</svg>
