<?xml version="1.0" encoding="UTF-8" standalone="no"?>
<!-- Created with Inkscape (http://www.inkscape.org/) -->

<svg
   xmlns:dc="http://purl.org/dc/elements/1.1/"
   xmlns:cc="http://creativecommons.org/ns#"
   xmlns:rdf="http://www.w3.org/1999/02/22-rdf-syntax-ns#"
   xmlns:svg="http://www.w3.org/2000/svg"
   xmlns="http://www.w3.org/2000/svg"
   xmlns:sodipodi="http://sodipodi.sourceforge.net/DTD/sodipodi-0.dtd"
   xmlns:inkscape="http://www.inkscape.org/namespaces/inkscape"
   width="168.41245"
   height="32.920689"
   viewBox="0 0 44.559127 8.7102653"
   version="1.1"
   id="svg23624"
   inkscape:version="0.92.0 r15299"
   sodipodi:docname="bdnc.svg">
  <defs
     id="defs23618" />
  <sodipodi:namedview
     id="base"
     pagecolor="#ffffff"
     bordercolor="#666666"
     borderopacity="1.0"
     inkscape:pageopacity="0.0"
     inkscape:pageshadow="2"
     inkscape:zoom="4.7905641"
     inkscape:cx="83.706217"
     inkscape:cy="15.960345"
     inkscape:document-units="mm"
     inkscape:current-layer="layer1"
     showgrid="false"
     fit-margin-top="0"
     fit-margin-left="0"
     fit-margin-right="0"
     fit-margin-bottom="0"
     units="px"
     inkscape:window-width="1280"
     inkscape:window-height="744"
     inkscape:window-x="-4"
     inkscape:window-y="-4"
     inkscape:window-maximized="1" />
  <metadata
     id="metadata23621">
    <rdf:RDF>
      <cc:Work
         rdf:about="">
        <dc:format>image/svg+xml</dc:format>
        <dc:type
           rdf:resource="http://purl.org/dc/dcmitype/StillImage" />
        <dc:title></dc:title>
      </cc:Work>
    </rdf:RDF>
  </metadata>
  <g
     inkscape:label="Layer 1"
     inkscape:groupmode="layer"
     id="layer1"
     transform="translate(-107.87654,-176.09591)">
    <g
       id="g23956"
       transform="translate(0.13229305,-0.13229105)">
      <path
         d="m 109.1416,181.0214 h 0.82409 v 1.40794 h 1.27317 v 0.82373 h -1.27317 v 1.45309 h -0.82409 v -1.45309 h -1.26506 v -0.82373 h 1.26506 z"
         style="fill:#007fb0;fill-opacity:1;fill-rule:nonzero;stroke:none;stroke-width:0.35277778"
         id="path18061"
         inkscape:connector-curvature="0" />
      <g
         id="g23872">
        <g
           id="g17921"
           transform="matrix(0.35277777,0,0,-0.35277777,107.90635,176.47251)"
           style="fill:#000000">
          <path
             d="m 0,0 h 3.604 c 1.802,0 3.15,-0.835 3.15,-2.593 0,-1.187 -0.733,-1.934 -1.788,-2.286 v -0.029 c 1.246,-0.088 2.242,-1.187 2.242,-2.578 0,-1.861 -1.626,-2.886 -3.648,-2.886 H 0 Z m 1.406,-4.307 h 1.92 c 1.069,0 1.933,0.425 1.933,1.553 0,0.82 -0.512,1.523 -1.64,1.523 H 1.406 Z m 0,-4.835 h 2.066 c 0.85,0 2.242,0.293 2.242,1.758 0,1.231 -0.865,1.846 -2.227,1.846 H 1.406 Z"
             style="fill:#000000;fill-opacity:1;fill-rule:nonzero;stroke:none"
             id="path17923"
             inkscape:connector-curvature="0" />
        </g>
        <g
           id="g17925"
           transform="matrix(0.35277777,0,0,-0.35277777,107.88734,180.1507)"
           style="fill:#000000">
          <path
             d="m 0,0 v 10.427 0.053 h 3.658 c 0.909,0 1.708,-0.21 2.283,-0.648 C 6.517,9.394 6.862,8.726 6.861,7.833 6.863,6.683 6.181,5.929 5.197,5.554 6.39,5.379 7.316,4.293 7.316,2.94 7.312,1.041 5.65,0.003 3.614,0 Z m 0.108,0.108 h 3.506 c 2.007,0.003 3.594,1.01 3.594,2.832 0,1.366 -0.977,2.44 -2.192,2.525 l -0.05,0.004 v 0.05 0.068 L 5.003,5.599 C 6.044,5.948 6.752,6.671 6.754,7.833 6.751,9.557 5.446,10.367 3.658,10.372 H 0.108 Z M 1.461,1.231 H 1.406 V 4.943 H 3.541 C 4.23,4.942 4.799,4.787 5.199,4.469 5.599,4.152 5.822,3.67 5.821,3.043 5.819,1.531 4.38,1.233 3.526,1.231 Z M 3.526,1.339 C 4.371,1.342 5.711,1.625 5.714,3.043 5.71,4.242 4.889,4.828 3.541,4.835 H 1.514 V 1.339 Z M 1.461,6.065 H 1.406 V 9.25 H 3.672 C 4.247,9.25 4.674,9.07 4.955,8.779 5.235,8.489 5.367,8.093 5.367,7.672 5.368,7.095 5.142,6.685 4.779,6.429 4.415,6.172 3.921,6.065 3.38,6.065 Z M 3.38,6.173 C 4.44,6.179 5.257,6.58 5.259,7.672 5.254,8.47 4.776,9.138 3.672,9.142 H 1.514 V 6.173 Z"
             style="fill:#000000;fill-opacity:1;fill-rule:nonzero;stroke:none"
             id="path17927"
             inkscape:connector-curvature="0" />
        </g>
        <g
           id="g17929"
           transform="matrix(0.35277777,0,0,-0.35277777,111.53996,176.47251)"
           style="fill:#000000">
          <path
             d="m 0,0 v -6.358 c 0,-1.29 0.644,-2.96 2.608,-2.96 1.963,0 2.607,1.67 2.607,2.96 V 0 h 1.407 v -6.578 c 0,-2.403 -1.743,-4.058 -4.014,-4.058 -2.271,0 -4.014,1.655 -4.014,4.058 V 0 Z"
             style="fill:#000000;fill-opacity:1;fill-rule:nonzero;stroke:none"
             id="path17931"
             inkscape:connector-curvature="0" />
        </g>
        <g
           id="g17933"
           transform="matrix(0.35277777,0,0,-0.35277777,111.02484,178.79312)"
           style="fill:#000000">
          <path
             d="M 0,0 V 6.632 H 1.46 V 6.578 6.632 H 1.514 V 0.22 c 0.004,-1.277 0.63,-2.903 2.554,-2.905 1.924,0.002 2.55,1.628 2.554,2.905 V 6.632 H 8.136 V 0 C 8.132,-2.43 6.366,-4.108 4.068,-4.112 1.77,-4.108 0.004,-2.43 0,0 M 0.107,0 C 0.109,-2.375 1.824,-4.002 4.068,-4.004 6.312,-4.002 8.026,-2.375 8.028,0 V 6.524 H 6.729 V 0.22 C 6.727,-1.082 6.07,-2.793 4.068,-2.793 2.065,-2.793 1.409,-1.082 1.406,0.22 V 6.524 H 0.107 Z"
             style="fill:#000000;fill-opacity:1;fill-rule:nonzero;stroke:none"
             id="path17935"
             inkscape:connector-curvature="0" />
        </g>
        <path
           d="m 114.69799,176.47265 h 0.49601 v 3.65901 h -0.49601 z"
           style="fill:#000000;fill-opacity:1;fill-rule:nonzero;stroke:none;stroke-width:0.35277778"
           id="path17937"
           inkscape:connector-curvature="0" />
        <path
           inkscape:connector-curvature="0"
           id="path17941"
           style="fill:#000000;fill-opacity:1;fill-rule:nonzero;stroke:none;stroke-width:0.35277778"
           d="m 114.67909,180.15057 v -3.67806 -0.0191 h 0.53411 v 3.69711 z m 0.0381,-0.0381 h 0.45826 v -3.62091 h -0.45826 z" />
        <path
           inkscape:connector-curvature="0"
           id="path17945"
           style="fill:#000000;fill-opacity:1;fill-rule:nonzero;stroke:none;stroke-width:0.35277778"
           d="m 116.08339,176.47251 h 0.49601 v 3.19405 h 1.67992 v 0.46496 h -2.17593 z" />
        <path
           inkscape:connector-curvature="0"
           id="path17949"
           style="fill:#000000;fill-opacity:1;fill-rule:nonzero;stroke:none;stroke-width:0.35277778"
           d="m 116.06427,180.15057 v -3.67806 -0.0191 h 0.53446 l -3.4e-4,3.19405 h 1.67992 v 0.50306 z m 0.0381,-0.0377 h 2.13783 v -0.42721 h -1.67992 v -3.19405 h -0.45791 z" />
        <g
           id="g17959"
           transform="matrix(0.35277777,0,0,-0.35277777,118.63161,176.47251)"
           style="fill:#000000">
          <path
             d="m 0,0 h 3.619 c 4.38,0 5.45,-3.267 5.45,-5.186 0,-2.652 -1.978,-5.186 -5.685,-5.186 H 0 Z m 1.406,-9.054 h 1.773 c 2.373,0 4.395,1.304 4.395,3.868 0,1.318 -0.688,3.867 -4.058,3.867 h -2.11 z"
             style="fill:#000000;fill-opacity:1;fill-rule:nonzero;stroke:none"
             id="path17961"
             inkscape:connector-curvature="0" />
        </g>
        <g
           id="g17963"
           transform="matrix(0.35277777,0,0,-0.35277777,119.82541,180.15064)"
           style="fill:#000000">
          <path
             d="M 0,0 H -3.438 V 10.426 10.48 H 0.234 C 2.438,10.481 3.821,9.656 4.645,8.586 5.469,7.516 5.738,6.209 5.738,5.24 5.738,3.901 5.239,2.59 4.27,1.615 3.302,0.639 1.867,0 0.002,0 Z M -3.33,0.108 H 0 C 3.68,0.11 5.628,2.615 5.63,5.24 5.626,7.145 4.581,10.37 0.234,10.373 H -3.33 Z m 1.352,1.21 H -2.032 V 9.161 H 0.132 C 1.83,9.163 2.866,8.516 3.468,7.7 4.071,6.885 4.243,5.908 4.244,5.24 4.244,3.944 3.731,2.958 2.916,2.303 2.102,1.647 0.991,1.318 -0.205,1.318 Z m 1.773,0.108 C 2.151,1.43 4.134,2.71 4.136,5.24 4.131,6.546 3.466,9.052 0.132,9.054 H -1.924 V 1.426 Z"
             style="fill:#000000;fill-opacity:1;fill-rule:nonzero;stroke:none"
             id="path17965"
             inkscape:connector-curvature="0" />
        </g>
        <path
           d="m 122.49262,176.47265 h 0.49601 v 3.65901 h -0.49601 z"
           style="fill:#000000;fill-opacity:1;fill-rule:nonzero;stroke:none;stroke-width:0.35277778"
           id="path17967"
           inkscape:connector-curvature="0" />
        <path
           inkscape:connector-curvature="0"
           id="path17971"
           style="fill:#000000;fill-opacity:1;fill-rule:nonzero;stroke:none;stroke-width:0.35277778"
           d="m 122.47364,180.15057 v -3.67806 -0.0191 h 0.53411 v 3.69711 z m 0.0381,-0.0381 H 122.97 v -3.62091 h -0.45826 z" />
        <path
           inkscape:connector-curvature="0"
           id="path17975"
           style="fill:#000000;fill-opacity:1;fill-rule:nonzero;stroke:none;stroke-width:0.35277778"
           d="m 123.87794,176.47251 h 0.65123 l 2.01577,3.00778 h 0.0102 v -3.00778 h 0.49601 v 3.65901 h -0.63042 l -2.03623,-3.00778 h -0.0106 v 3.00778 h -0.49601 z" />
        <path
           inkscape:connector-curvature="0"
           id="path17979"
           style="fill:#000000;fill-opacity:1;fill-rule:nonzero;stroke:none;stroke-width:0.35277778"
           d="m 126.4106,180.15071 -2.01754,-2.98027 v 2.98027 h -0.5341 v -3.67841 -0.0187 h 0.68015 l 1.99673,2.97956 v -2.97956 h 0.53445 v 3.69711 z m -2.03659,-3.04588 h 0.0205 l 2.03623,3.00778 h 0.60148 v -3.62091 h -0.45825 v 3.00778 h -0.0187 -0.0208 l -2.01541,-3.00778 h -0.6223 v 3.62091 h 0.45825 v -3.00778 z" />
        <g
           id="g17989"
           transform="matrix(0.35277777,0,0,-0.35277777,131.05711,178.08501)"
           style="fill:#000000">
          <path
             d="m 0,0 v -5.113 c -1.011,-0.615 -2.666,-0.952 -3.926,-0.952 -3.516,0 -5.553,2.505 -5.553,5.45 0,3.076 2.242,5.45 5.406,5.45 1.905,0 3.062,-0.513 3.868,-1.348 l -0.996,-1.07 c -0.85,0.821 -1.832,1.099 -2.872,1.099 -2.373,0 -3.911,-1.861 -3.911,-4.131 0,-2.344 1.743,-4.132 4.028,-4.132 0.982,0 1.92,0.191 2.55,0.542 v 2.886 H -3.707 V 0 Z"
             style="fill:#000000;fill-opacity:1;fill-rule:nonzero;stroke:none"
             id="path17991"
             inkscape:connector-curvature="0" />
        </g>
        <g
           id="g17993"
           transform="matrix(0.35277777,0,0,-0.35277777,128.21376,179.66602)"
           style="fill:#000000">
          <path
             d="m 0,0 c -0.959,1.005 -1.473,2.382 -1.473,3.866 0,1.552 0.566,2.928 1.532,3.917 C 1.025,8.771 2.391,9.37 3.987,9.37 5.901,9.371 7.077,8.853 7.893,8.006 L 7.929,7.969 6.861,6.822 6.821,6.86 C 5.982,7.67 5.018,7.943 3.987,7.944 1.645,7.943 0.131,6.114 0.129,3.866 0.13,1.549 1.848,-0.21 4.104,-0.211 c 0.96,0 1.879,0.184 2.496,0.52 v 2.8 H 4.299 V 4.535 H 8.06 V 4.482 4.535 H 8.114 V -0.661 L 8.088,-0.677 C 7.062,-1.301 5.403,-1.637 4.134,-1.638 2.363,-1.638 0.958,-1.006 0,0 m -1.365,3.866 c 0.003,-2.92 2.011,-5.393 5.499,-5.396 1.239,0 2.873,0.332 3.872,0.929 V 4.428 H 4.407 V 3.217 h 2.3 V 0.245 L 6.68,0.23 C 6.037,-0.128 5.093,-0.318 4.104,-0.319 1.789,-0.315 0.026,1.495 0.022,3.866 0.026,6.161 1.582,8.048 3.987,8.052 5.02,8.052 6.005,7.778 6.856,6.975 L 7.78,7.968 C 6.987,8.769 5.855,9.262 3.987,9.262 0.851,9.261 -1.363,6.916 -1.365,3.866"
             style="fill:#000000;fill-opacity:1;fill-rule:nonzero;stroke:none"
             id="path17995"
             inkscape:connector-curvature="0" />
        </g>
        <g
           id="g17997"
           transform="matrix(0.35277777,0,0,-0.35277777,133.83421,176.47251)"
           style="fill:#000000">
          <path
             d="m 0,0 h 3.619 c 4.38,0 5.45,-3.267 5.45,-5.186 0,-2.652 -1.978,-5.186 -5.685,-5.186 H 0 Z m 1.406,-9.054 h 1.773 c 2.373,0 4.395,1.304 4.395,3.868 0,1.318 -0.688,3.867 -4.058,3.867 h -2.11 z"
             style="fill:#000000;fill-opacity:1;fill-rule:nonzero;stroke:none"
             id="path17999"
             inkscape:connector-curvature="0" />
        </g>
        <g
           id="g18001"
           transform="matrix(0.35277777,0,0,-0.35277777,135.02816,180.15064)"
           style="fill:#000000">
          <path
             d="M 0,0 H -3.439 V 10.426 10.48 H 0.234 C 2.437,10.481 3.82,9.656 4.644,8.586 5.469,7.516 5.738,6.209 5.738,5.24 5.738,3.901 5.239,2.59 4.27,1.615 3.302,0.639 1.866,0 0.002,0 Z M -3.331,0.108 H 0 C 3.68,0.11 5.628,2.615 5.63,5.24 5.625,7.145 4.581,10.37 0.234,10.373 h -3.565 z m 1.353,1.21 H -2.032 V 9.161 H 0.132 C 1.83,9.163 2.865,8.516 3.467,7.7 4.07,6.885 4.243,5.908 4.244,5.24 4.244,3.944 3.73,2.958 2.916,2.303 2.102,1.647 0.991,1.318 -0.205,1.318 Z m 1.773,0.108 C 2.151,1.43 4.134,2.71 4.136,5.24 4.13,6.546 3.466,9.052 0.132,9.054 H -1.924 V 1.426 Z"
             style="fill:#000000;fill-opacity:1;fill-rule:nonzero;stroke:none"
             id="path18003"
             inkscape:connector-curvature="0" />
        </g>
        <path
           inkscape:connector-curvature="0"
           id="path18007"
           style="fill:#000000;fill-opacity:1;fill-rule:nonzero;stroke:none;stroke-width:0.35277778"
           d="m 137.69533,176.47251 h 2.36186 v 0.46531 h -1.86585 v 1.09044 h 1.73672 v 0.46496 h -1.73672 v 1.17334 h 1.95897 v 0.46496 h -2.45498 z" />
        <path
           inkscape:connector-curvature="0"
           id="path18011"
           style="fill:#000000;fill-opacity:1;fill-rule:nonzero;stroke:none;stroke-width:0.35277778"
           d="m 137.67626,180.15057 v -3.67806 -0.0191 h 2.39994 v 0.50306 h -1.86549 v 1.05269 h 1.73637 v 0.50306 h -1.73672 v 1.13524 h 1.95897 v 0.50306 z m 0.0381,-0.0381 h 2.41687 v -0.42686 h -1.95862 v -1.21144 h 1.73637 v -0.42686 h -1.73637 v -1.12854 h 1.86549 v -0.42721 h -2.32374 z" />
        <g
           id="g18021"
           transform="matrix(0.35277777,0,0,-0.35277777,140.91027,179.36676)"
           style="fill:#000000">
          <path
             d="m 0,0 c 0.498,-0.762 1.362,-1.113 2.198,-1.113 0.922,0 2.065,0.586 2.065,1.728 0,2.388 -5.113,0.909 -5.113,4.952 0,1.216 1.026,2.901 3.516,2.901 1.128,0 2.213,-0.234 2.989,-1.187 L 4.512,6.241 C 4.161,6.783 3.472,7.149 2.666,7.149 1.114,7.149 0.645,6.212 0.645,5.567 c 0,-2.622 5.113,-1.055 5.113,-4.791 0,-2.007 -1.612,-3.208 -3.604,-3.208 -1.334,0 -2.608,0.454 -3.311,1.436 z"
             style="fill:#000000;fill-opacity:1;fill-rule:nonzero;stroke:none"
             id="path18023"
             inkscape:connector-curvature="0" />
        </g>
        <g
           id="g18025"
           transform="matrix(0.35277777,0,0,-0.35277777,140.48646,179.72918)"
           style="fill:#000000">
          <path
             d="M 0,0 -0.029,0.04 1.166,1.068 1.212,1.108 1.246,1.057 C 1.732,0.313 2.578,-0.032 3.399,-0.032 4.304,-0.031 5.409,0.543 5.411,1.643 5.419,2.782 4.182,3.011 2.891,3.447 1.61,3.877 0.294,4.544 0.297,6.594 0.301,7.839 1.35,9.546 3.867,9.549 5.002,9.55 6.108,9.312 6.898,8.343 L 6.93,8.303 5.703,7.186 5.668,7.239 C 5.329,7.764 4.657,8.123 3.867,8.123 2.339,8.119 1.904,7.214 1.9,6.594 1.895,5.333 3.129,5.074 4.418,4.668 5.696,4.27 7.015,3.704 7.013,1.804 7.009,-0.237 5.367,-1.455 3.355,-1.458 2.01,-1.458 0.718,-1.001 0,0 M 3.355,-1.351 C 5.327,-1.348 6.904,-0.17 6.905,1.804 6.903,3.639 5.665,4.158 4.386,4.565 3.12,4.965 1.797,5.233 1.792,6.594 1.794,7.264 2.29,8.229 3.867,8.23 4.664,8.23 5.351,7.881 5.723,7.35 L 6.782,8.314 C 6.022,9.216 4.974,9.441 3.867,9.441 1.404,9.44 0.407,7.782 0.405,6.594 0.409,4.601 1.649,3.986 2.925,3.549 4.19,3.117 5.51,2.891 5.518,1.643 5.515,0.457 4.339,-0.138 3.399,-0.14 2.568,-0.14 1.705,0.202 1.19,0.947 L 0.117,0.023 c 0.694,-0.935 1.935,-1.374 3.238,-1.374"
             style="fill:#000000;fill-opacity:1;fill-rule:nonzero;stroke:none"
             id="path18027"
             inkscape:connector-curvature="0" />
        </g>
        <path
           d="m 143.62402,176.47265 h 0.496 v 3.65901 h -0.496 z"
           style="fill:#000000;fill-opacity:1;fill-rule:nonzero;stroke:none;stroke-width:0.35277778"
           id="path18029"
           inkscape:connector-curvature="0" />
        <path
           inkscape:connector-curvature="0"
           id="path18033"
           style="fill:#000000;fill-opacity:1;fill-rule:nonzero;stroke:none;stroke-width:0.35277778"
           d="m 143.60493,180.15057 v -3.67806 -0.0191 h 0.5341 v 3.69711 z m 0.0381,-0.0381 h 0.45825 v -3.62091 h -0.45825 z" />
        <g
           id="g18043"
           transform="matrix(0.35277777,0,0,-0.35277777,148.12569,178.08501)"
           style="fill:#000000">
          <path
             d="m 0,0 v -5.113 c -1.011,-0.615 -2.666,-0.952 -3.926,-0.952 -3.517,0 -5.553,2.505 -5.553,5.45 0,3.076 2.242,5.45 5.406,5.45 1.905,0 3.062,-0.513 3.868,-1.348 l -0.996,-1.07 c -0.85,0.821 -1.832,1.099 -2.872,1.099 -2.373,0 -3.911,-1.861 -3.911,-4.131 0,-2.344 1.743,-4.132 4.028,-4.132 0.982,0 1.92,0.191 2.55,0.542 v 2.886 H -3.707 V 0 Z"
             style="fill:#000000;fill-opacity:1;fill-rule:nonzero;stroke:none"
             id="path18045"
             inkscape:connector-curvature="0" />
        </g>
        <g
           id="g18047"
           transform="matrix(0.35277777,0,0,-0.35277777,145.28224,179.66602)"
           style="fill:#000000">
          <path
             d="m 0,0 c -0.959,1.005 -1.473,2.382 -1.473,3.866 0,1.552 0.566,2.928 1.532,3.917 C 1.025,8.771 2.391,9.37 3.987,9.37 5.901,9.371 7.078,8.853 7.894,8.006 L 7.929,7.969 6.861,6.822 6.822,6.86 C 5.982,7.67 5.018,7.943 3.987,7.944 1.645,7.943 0.132,6.114 0.129,3.866 0.131,1.549 1.848,-0.21 4.105,-0.211 c 0.96,0 1.877,0.184 2.495,0.52 v 2.8 H 4.3 V 4.535 H 8.06 V 4.482 4.535 H 8.114 V -0.661 L 8.088,-0.677 C 7.063,-1.301 5.403,-1.637 4.133,-1.638 2.363,-1.638 0.959,-1.006 0,0 m -1.365,3.866 c 0.003,-2.92 2.011,-5.393 5.498,-5.396 1.24,0 2.875,0.332 3.873,0.929 V 4.428 H 4.408 V 3.217 H 6.707 V 0.246 L 6.68,0.23 C 6.037,-0.128 5.093,-0.318 4.105,-0.319 1.789,-0.315 0.026,1.495 0.022,3.866 c 0.004,2.295 1.561,4.182 3.965,4.186 1.034,0 2.018,-0.274 2.87,-1.077 L 7.781,7.968 C 6.987,8.769 5.855,9.262 3.987,9.262 0.851,9.261 -1.364,6.916 -1.365,3.866"
             style="fill:#000000;fill-opacity:1;fill-rule:nonzero;stroke:none"
             id="path18049"
             inkscape:connector-curvature="0" />
        </g>
        <path
           inkscape:connector-curvature="0"
           id="path18053"
           style="fill:#000000;fill-opacity:1;fill-rule:nonzero;stroke:none;stroke-width:0.35277778"
           d="m 148.97886,176.47251 h 0.65123 l 2.01542,3.00778 h 0.0106 v -3.00778 h 0.49602 v 3.65901 h -0.63042 l -2.03624,-3.00778 h -0.0106 v 3.00778 h -0.49602 z" />
        <path
           inkscape:connector-curvature="0"
           id="path18057"
           style="fill:#000000;fill-opacity:1;fill-rule:nonzero;stroke:none;stroke-width:0.35277778"
           d="m 151.51138,180.15071 -2.01754,-2.98027 v 2.98027 h -0.53409 v -3.67841 -0.0187 h 0.6805 l 1.99672,2.97956 v -2.97956 h 0.53411 v 3.69711 z m -2.03659,-3.04588 h 0.0205 l 2.03623,3.00778 h 0.60148 v -3.62091 h -0.4579 v 3.00778 h -0.0191 -0.0205 l -2.01577,-3.00778 h -0.62196 v 3.62091 h 0.45827 v -3.00778 z" />
        <g
           id="g18071"
           transform="matrix(0.35277777,0,0,-0.35277777,114.48097,181.82563)"
           style="fill:#000000">
          <path
             d="m 0,0 c -0.586,0.762 -1.553,1.187 -2.505,1.187 -2.33,0 -3.868,-1.861 -3.868,-4.22 0,-2.183 1.451,-4.043 3.868,-4.043 1.187,0 2.095,0.527 2.71,1.392 l 1.187,-0.894 c -0.308,-0.425 -1.553,-1.817 -3.926,-1.817 -3.297,0 -5.333,2.755 -5.333,5.362 0,3.223 2.212,5.538 5.406,5.538 1.362,0 2.798,-0.513 3.633,-1.611 z"
             style="fill:#000000;fill-opacity:1;fill-rule:nonzero;stroke:none"
             id="path18073"
             inkscape:connector-curvature="0" />
        </g>
        <g
           id="g18075"
           transform="matrix(0.35277777,0,0,-0.35277777,111.68661,182.89553)"
           style="fill:#000000">
          <path
             d="M 0,0 C 0,1.624 0.558,3.023 1.521,4.015 2.483,5.008 3.85,5.592 5.46,5.592 6.835,5.592 8.287,5.076 9.136,3.959 L 9.168,3.916 7.954,2.99 7.911,2.957 7.878,3 C 7.304,3.747 6.352,4.166 5.416,4.165 3.118,4.165 1.604,2.337 1.602,0 c 0.003,-2.16 1.427,-3.988 3.814,-3.989 1.17,0 2.058,0.517 2.666,1.369 L 8.114,-2.575 9.387,-3.534 9.356,-3.577 C 9.043,-4.01 7.783,-5.416 5.387,-5.416 2.057,-5.415 0.005,-2.634 0,0 m 0.108,0 c 0,-2.581 2.015,-5.302 5.279,-5.308 2.275,0 3.501,1.292 3.851,1.752 l -1.1,0.829 C 7.515,-3.578 6.598,-4.098 5.416,-4.097 2.967,-4.093 1.498,-2.206 1.494,0 1.498,2.382 3.055,4.269 5.416,4.273 6.366,4.273 7.33,3.858 7.93,3.108 L 9.017,3.937 C 8.192,4.989 6.792,5.484 5.46,5.484 2.294,5.482 0.11,3.198 0.108,0 m 7.813,3.033 0.043,0.032 z"
             style="fill:#000000;fill-opacity:1;fill-rule:nonzero;stroke:none"
             id="path18077"
             inkscape:connector-curvature="0" />
        </g>
        <g
           id="g18079"
           transform="matrix(0.35277777,0,0,-0.35277777,115.34446,182.86449)"
           style="fill:#000000">
          <path
             d="M 0,0 C 0,3.077 2.241,5.45 5.406,5.45 8.57,5.45 10.812,3.077 10.812,0 10.812,-3.077 8.57,-5.45 5.406,-5.45 2.241,-5.45 0,-3.077 0,0 m 9.318,0 c 0,2.271 -1.539,4.131 -3.912,4.131 -2.373,0 -3.912,-1.86 -3.912,-4.131 0,-2.271 1.539,-4.131 3.912,-4.131 2.373,0 3.912,1.86 3.912,4.131"
             style="fill:#000000;fill-opacity:1;fill-rule:nonzero;stroke:none"
             id="path18081"
             inkscape:connector-curvature="0" />
        </g>
        <g
           id="g18083"
           transform="matrix(0.35277777,0,0,-0.35277777,115.86576,184.24607)"
           style="fill:#000000">
          <path
             d="m 0,0 c -0.966,0.988 -1.532,2.365 -1.532,3.916 0,1.551 0.566,2.928 1.532,3.917 0.966,0.989 2.333,1.588 3.928,1.588 1.596,0 2.962,-0.599 3.928,-1.588 C 8.822,6.844 9.388,5.467 9.388,3.916 9.388,2.365 8.822,0.988 7.856,0 6.89,-0.988 5.524,-1.587 3.928,-1.587 2.333,-1.587 0.966,-0.988 0,0 M -1.424,3.916 C -1.422,0.867 0.792,-1.478 3.928,-1.479 7.064,-1.478 9.279,0.867 9.28,3.916 9.279,6.966 7.064,9.311 3.928,9.312 0.792,9.311 -1.422,6.966 -1.424,3.916 m 1.386,0 C -0.034,6.211 1.524,8.098 3.928,8.102 6.333,8.098 7.89,6.211 7.894,3.916 7.89,1.622 6.333,-0.265 3.928,-0.269 1.524,-0.265 -0.034,1.622 -0.038,3.916 m 0.108,0 C 0.072,1.669 1.586,-0.16 3.928,-0.161 6.27,-0.16 7.784,1.669 7.786,3.916 7.784,6.164 6.27,7.993 3.928,7.994 1.586,7.993 0.072,6.164 0.07,3.916"
             style="fill:#000000;fill-opacity:1;fill-rule:nonzero;stroke:none"
             id="path18085"
             inkscape:connector-curvature="0" />
        </g>
        <path
           inkscape:connector-curvature="0"
           id="path18089"
           style="fill:#000000;fill-opacity:1;fill-rule:nonzero;stroke:none;stroke-width:0.35277778"
           d="m 119.87226,181.03484 h 0.65123 l 2.01577,3.00814 h 0.0102 v -3.00814 h 0.49601 v 3.65936 h -0.63042 l -2.03623,-3.00813 h -0.0106 v 3.00813 h -0.49601 z" />
        <path
           inkscape:connector-curvature="0"
           id="path18093"
           style="fill:#000000;fill-opacity:1;fill-rule:nonzero;stroke:none;stroke-width:0.35277778"
           d="m 122.40499,184.71297 -2.01754,-2.98027 v 2.98027 h -0.5341 v -3.67806 -0.019 h 0.68015 l 1.99708,2.97991 v -2.97991 h 0.5341 v 3.69711 z m -2.03659,-3.04588 h 0.0205 l 2.03623,3.00778 h 0.60148 v -3.62091 h -0.45825 v 3.00778 h -0.019 -0.0205 l -2.01541,-3.00778 h -0.6223 v 3.62091 h 0.45825 v -3.00778 z" />
        <g
           id="g18103"
           transform="matrix(0.35277777,0,0,-0.35277777,124.09515,183.92909)"
           style="fill:#000000">
          <path
             d="m 0,0 c 0.498,-0.762 1.362,-1.114 2.198,-1.114 0.922,0 2.065,0.586 2.065,1.729 0,2.388 -5.113,0.908 -5.113,4.952 0,1.216 1.026,2.901 3.516,2.901 1.128,0 2.213,-0.235 2.989,-1.187 L 4.512,6.241 C 4.161,6.783 3.472,7.149 2.666,7.149 1.113,7.149 0.645,6.212 0.645,5.567 c 0,-2.622 5.113,-1.055 5.113,-4.791 0,-2.007 -1.612,-3.208 -3.604,-3.208 -1.334,0 -2.608,0.454 -3.311,1.436 z"
             style="fill:#000000;fill-opacity:1;fill-rule:nonzero;stroke:none"
             id="path18105"
             inkscape:connector-curvature="0" />
        </g>
        <g
           id="g18107"
           transform="matrix(0.35277777,0,0,-0.35277777,123.67139,184.29164)"
           style="fill:#000000">
          <path
             d="M 0,0 -0.029,0.04 1.166,1.068 1.213,1.109 1.246,1.057 C 1.732,0.314 2.578,-0.032 3.399,-0.032 4.304,-0.031 5.409,0.543 5.41,1.643 5.419,2.783 4.183,3.011 2.891,3.447 1.61,3.878 0.294,4.545 0.297,6.595 0.301,7.839 1.35,9.546 3.867,9.55 5.002,9.55 6.108,9.313 6.898,8.343 L 6.93,8.304 5.703,7.187 5.668,7.24 C 5.328,7.764 4.657,8.123 3.867,8.123 2.339,8.119 1.904,7.214 1.9,6.595 1.894,5.333 3.128,5.074 4.418,4.668 5.696,4.27 7.015,3.704 7.012,1.804 7.009,-0.236 5.367,-1.455 3.355,-1.458 2.01,-1.458 0.718,-1.001 0,0 m 3.355,-1.35 c 1.972,0.002 3.548,1.18 3.55,3.154 C 6.902,3.64 5.665,4.158 4.386,4.566 3.119,4.965 1.797,5.234 1.792,6.595 1.794,7.264 2.29,8.229 3.867,8.231 c 0.797,0 1.483,-0.35 1.856,-0.88 L 6.782,8.314 C 6.021,9.216 4.973,9.441 3.867,9.442 1.404,9.441 0.408,7.783 0.405,6.595 0.408,4.602 1.649,3.987 2.925,3.549 4.19,3.117 5.51,2.891 5.518,1.643 5.515,0.457 4.339,-0.138 3.399,-0.14 2.568,-0.14 1.705,0.202 1.19,0.947 L 0.116,0.023 C 0.811,-0.912 2.051,-1.35 3.355,-1.35"
             style="fill:#000000;fill-opacity:1;fill-rule:nonzero;stroke:none"
             id="path18109"
             inkscape:connector-curvature="0" />
        </g>
        <path
           inkscape:connector-curvature="0"
           id="path18113"
           style="fill:#000000;fill-opacity:1;fill-rule:nonzero;stroke:none;stroke-width:0.35277778"
           d="m 127.6254,181.50005 h -1.17828 v -0.46531 h 2.85292 v 0.46531 h -1.17863 v 3.19405 h -0.49601 z" />
        <path
           inkscape:connector-curvature="0"
           id="path18117"
           style="fill:#000000;fill-opacity:1;fill-rule:nonzero;stroke:none;stroke-width:0.35277778"
           d="m 127.60642,184.71304 v -3.19405 h -1.17828 v -0.50306 h 2.89102 v 0.50306 h -1.17863 v 3.19405 z m 0.0381,-3.23215 v 3.19405 h 0.45791 v -3.19405 h 1.17827 v -0.42721 l -2.81481,3.4e-4 v 0.42686 h 1.15958 v 0.0194 -0.0194 z" />
        <g
           id="g18127"
           transform="matrix(0.35277777,0,0,-0.35277777,129.82736,181.03484)"
           style="fill:#000000">
          <path
             d="m 0,0 h 3.648 c 2.652,0 3.326,-1.597 3.326,-2.901 0,-1.318 -0.982,-2.564 -2.55,-2.739 l 2.945,-4.733 H 5.611 L 2.974,-5.802 H 1.407 v -4.571 H 0 Z m 1.407,-4.571 h 1.845 c 1.114,0 2.227,0.264 2.227,1.67 0,1.407 -1.113,1.67 -2.227,1.67 H 1.407 Z"
             style="fill:#000000;fill-opacity:1;fill-rule:nonzero;stroke:none"
             id="path18129"
             inkscape:connector-curvature="0" />
        </g>
        <g
           id="g18131"
           transform="matrix(0.35277777,0,0,-0.35277777,131.79576,184.71296)"
           style="fill:#000000">
          <path
             d="M 0,0 -2.637,4.571 H -4.12 V 0 h -1.514 v 10.426 0.054 h 3.702 C -0.596,10.481 0.254,10.077 0.766,9.501 1.277,8.925 1.448,8.186 1.448,7.525 1.448,6.204 0.48,4.956 -1.065,4.743 L 1.886,0 Z M -2.575,4.679 0.062,0.108 h 1.63 L -1.246,4.83 -1.162,4.839 C 0.379,5.013 1.339,6.234 1.34,7.525 1.333,8.812 0.694,10.366 -1.932,10.372 H -5.526 V 0.108 h 1.299 v 4.571 z m -1.598,1.122 h -0.054 v 3.448 h 1.9 c 0.56,0 1.125,-0.065 1.558,-0.315 C -0.336,8.686 -0.045,8.242 -0.047,7.525 -0.045,6.809 -0.336,6.365 -0.769,6.116 -1.202,5.867 -1.767,5.802 -2.327,5.801 Z m 1.846,0.108 c 1.112,0.007 2.17,0.251 2.173,1.616 -0.003,1.366 -1.061,1.61 -2.173,1.617 H -4.12 V 5.909 Z"
             style="fill:#000000;fill-opacity:1;fill-rule:nonzero;stroke:none"
             id="path18133"
             inkscape:connector-curvature="0" />
        </g>
        <g
           id="g18135"
           transform="matrix(0.35277777,0,0,-0.35277777,133.41444,181.03484)"
           style="fill:#000000">
          <path
             d="m 0,0 v -6.358 c 0,-1.29 0.644,-2.96 2.608,-2.96 1.963,0 2.607,1.67 2.607,2.96 V 0 h 1.407 v -6.578 c 0,-2.403 -1.743,-4.058 -4.014,-4.058 -2.271,0 -4.014,1.655 -4.014,4.058 V 0 Z"
             style="fill:#000000;fill-opacity:1;fill-rule:nonzero;stroke:none"
             id="path18137"
             inkscape:connector-curvature="0" />
        </g>
        <g
           id="g18139"
           transform="matrix(0.35277777,0,0,-0.35277777,132.89921,183.35537)"
           style="fill:#000000">
          <path
             d="M 0,0 V 6.632 H 1.46 V 6.578 6.632 H 1.514 V 0.219 c 0.004,-1.276 0.63,-2.902 2.554,-2.905 1.924,0.003 2.55,1.629 2.554,2.905 V 6.632 H 8.136 V 0 C 8.132,-2.43 6.366,-4.108 4.068,-4.112 1.77,-4.108 0.004,-2.43 0,0 M 0.108,0 C 0.109,-2.375 1.824,-4.002 4.068,-4.004 6.312,-4.002 8.026,-2.375 8.029,0 V 6.524 H 6.73 V 0.219 C 6.727,-1.082 6.071,-2.794 4.068,-2.794 c -2.002,0 -2.659,1.712 -2.661,3.013 V 6.524 H 0.108 Z"
             style="fill:#000000;fill-opacity:1;fill-rule:nonzero;stroke:none"
             id="path18141"
             inkscape:connector-curvature="0" />
        </g>
        <g
           id="g18143"
           transform="matrix(0.35277777,0,0,-0.35277777,139.1723,181.82563)"
           style="fill:#000000">
          <path
             d="m 0,0 c -0.586,0.762 -1.553,1.187 -2.505,1.187 -2.33,0 -3.868,-1.861 -3.868,-4.22 0,-2.183 1.45,-4.043 3.868,-4.043 1.187,0 2.095,0.527 2.71,1.392 l 1.187,-0.894 c -0.308,-0.425 -1.553,-1.817 -3.926,-1.817 -3.297,0 -5.333,2.755 -5.333,5.362 0,3.223 2.212,5.538 5.406,5.538 1.362,0 2.798,-0.513 3.633,-1.611 z"
             style="fill:#000000;fill-opacity:1;fill-rule:nonzero;stroke:none"
             id="path18145"
             inkscape:connector-curvature="0" />
        </g>
        <g
           id="g18147"
           transform="matrix(0.35277777,0,0,-0.35277777,136.37782,182.89553)"
           style="fill:#000000">
          <path
             d="M 0,0 C 0,1.624 0.558,3.023 1.521,4.015 2.483,5.008 3.85,5.592 5.46,5.592 6.835,5.592 8.287,5.075 9.136,3.959 L 9.169,3.916 7.954,2.99 7.911,2.957 7.878,3 C 7.305,3.747 6.352,4.166 5.416,4.165 3.119,4.165 1.605,2.337 1.602,0 1.605,-2.16 3.03,-3.988 5.416,-3.989 c 1.17,0 2.059,0.517 2.667,1.369 L 8.115,-2.575 9.388,-3.534 9.357,-3.577 C 9.043,-4.01 7.783,-5.416 5.387,-5.416 2.057,-5.415 0.005,-2.634 0,0 m 0.108,0 c 0.001,-2.581 2.016,-5.302 5.279,-5.308 2.276,0 3.501,1.292 3.851,1.752 l -1.1,0.829 C 7.515,-3.578 6.598,-4.098 5.416,-4.097 2.968,-4.093 1.499,-2.206 1.494,0 1.499,2.382 3.055,4.269 5.416,4.273 6.366,4.273 7.33,3.858 7.931,3.108 L 9.018,3.937 C 8.192,4.989 6.792,5.484 5.46,5.484 2.294,5.482 0.11,3.198 0.108,0 m 7.813,3.033 0.043,0.032 z"
             style="fill:#000000;fill-opacity:1;fill-rule:nonzero;stroke:none"
             id="path18149"
             inkscape:connector-curvature="0" />
        </g>
        <path
           inkscape:connector-curvature="0"
           id="path18153"
           style="fill:#000000;fill-opacity:1;fill-rule:nonzero;stroke:none;stroke-width:0.35277778"
           d="m 141.02806,181.50005 h -1.17828 v -0.46531 h 2.85292 v 0.46531 h -1.17862 v 3.19405 h -0.49602 z" />
        <path
           inkscape:connector-curvature="0"
           id="path18157"
           style="fill:#000000;fill-opacity:1;fill-rule:nonzero;stroke:none;stroke-width:0.35277778"
           d="m 141.00905,184.71304 v -3.19405 h -1.17864 v -0.50306 h 2.89102 v 0.50306 h -1.17828 v 3.19405 z m 0.0381,-3.23215 v 3.19405 h 0.4579 v -3.19405 h 1.17864 v -0.42721 l -2.81482,3.4e-4 v 0.42686 h 1.15923 v 0.0194 -0.0194 z" />
        <path
           d="m 143.22997,181.03477 h 0.49599 v 3.65937 h -0.49599 z"
           style="fill:#000000;fill-opacity:1;fill-rule:nonzero;stroke:none;stroke-width:0.35277778"
           id="path18159"
           inkscape:connector-curvature="0" />
        <path
           inkscape:connector-curvature="0"
           id="path18163"
           style="fill:#000000;fill-opacity:1;fill-rule:nonzero;stroke:none;stroke-width:0.35277778"
           d="m 143.21106,184.71304 v -3.67806 -0.019 h 0.53411 v 3.69711 z m 0.0381,-0.0381 h 0.45825 v -3.62126 h -0.45825 z" />
        <g
           id="g18173"
           transform="matrix(0.35277777,0,0,-0.35277777,144.43957,182.86449)"
           style="fill:#000000">
          <path
             d="M 0,0 C 0,3.077 2.242,5.45 5.406,5.45 8.57,5.45 10.812,3.077 10.812,0 10.812,-3.077 8.57,-5.45 5.406,-5.45 2.242,-5.45 0,-3.077 0,0 m 9.318,0 c 0,2.271 -1.539,4.131 -3.912,4.131 -2.373,0 -3.912,-1.86 -3.912,-4.131 0,-2.271 1.539,-4.131 3.912,-4.131 2.373,0 3.912,1.86 3.912,4.131"
             style="fill:#000000;fill-opacity:1;fill-rule:nonzero;stroke:none"
             id="path18175"
             inkscape:connector-curvature="0" />
        </g>
        <g
           id="g18177"
           transform="matrix(0.35277777,0,0,-0.35277777,144.96096,184.24607)"
           style="fill:#000000">
          <path
             d="m 0,0 c -0.967,0.988 -1.532,2.365 -1.532,3.916 0,1.551 0.565,2.928 1.532,3.917 0.966,0.989 2.332,1.588 3.928,1.588 1.596,0 2.962,-0.599 3.928,-1.588 C 8.822,6.844 9.388,5.467 9.388,3.916 9.388,2.365 8.822,0.988 7.856,0 6.89,-0.988 5.524,-1.587 3.928,-1.587 2.332,-1.587 0.966,-0.988 0,0 M -1.424,3.916 C -1.422,0.867 0.792,-1.478 3.928,-1.479 7.064,-1.478 9.279,0.867 9.28,3.916 9.279,6.966 7.064,9.311 3.928,9.312 0.792,9.311 -1.422,6.966 -1.424,3.916 m 1.387,0 C -0.034,6.211 1.523,8.098 3.928,8.102 6.332,8.098 7.889,6.211 7.893,3.916 7.889,1.622 6.332,-0.265 3.928,-0.269 1.523,-0.265 -0.034,1.622 -0.037,3.916 m 0.107,0 C 0.072,1.669 1.586,-0.16 3.928,-0.161 6.27,-0.16 7.783,1.669 7.786,3.916 7.783,6.164 6.27,7.993 3.928,7.994 1.586,7.993 0.072,6.164 0.07,3.916"
             style="fill:#000000;fill-opacity:1;fill-rule:nonzero;stroke:none"
             id="path18179"
             inkscape:connector-curvature="0" />
        </g>
        <path
           inkscape:connector-curvature="0"
           id="path18183"
           style="fill:#000000;fill-opacity:1;fill-rule:nonzero;stroke:none;stroke-width:0.35277778"
           d="m 148.96743,181.03484 h 0.65123 l 2.01577,3.00814 h 0.0102 v -3.00814 h 0.49602 v 3.65936 h -0.63042 l -2.03624,-3.00813 h -0.0106 v 3.00813 h -0.49601 z" />
        <path
           inkscape:connector-curvature="0"
           id="path18187"
           style="fill:#000000;fill-opacity:1;fill-rule:nonzero;stroke:none;stroke-width:0.35277778"
           d="m 151.50009,184.71297 -2.01754,-2.97991 v 2.97991 h -0.53409 v -3.67806 -0.019 h 0.68014 l 1.99708,2.97956 v -2.97956 h 0.53411 v 3.69711 z m -2.03659,-3.04588 h 0.0205 l 2.03624,3.00778 h 0.60147 v -3.62091 h -0.4579 v 3.00778 h -0.0194 -0.0205 l -2.01541,-3.00778 h -0.62195 v 3.62091 h 0.45826 v -3.00778 z" />
      </g>
    </g>
  </g>
</svg>
