<?xml version="1.0" encoding="UTF-8" standalone="no"?>
<svg xmlns:rdf="http://www.w3.org/1999/02/22-rdf-syntax-ns#" xmlns="http://www.w3.org/2000/svg" xml:space="preserve" height="70.518" viewBox="0 0 251.51463 70.517576" width="251.51" version="1.1" xmlns:cc="http://creativecommons.org/ns#" xmlns:xlink="http://www.w3.org/1999/xlink" xmlns:dc="http://purl.org/dc/elements/1.1/"><g transform="matrix(1.25 0 0 -1.25 -374.38 521.9)"><path d="m330.35 416.38c-10.266 0-16.81-2.7561-21.77-7.3031-6.6165-6.063-8.0617-14.19-8.0617-18.882 0-6.678 1.7909-14.392 8.5414-20.319 6.2705-5.445 14.194-7.5102 23.63-7.5102 4.412 0 9.6451 0.48302 12.403 1.582 1.1695 0.4835 1.4449 0.82957 1.7914 2.0016 0.6885 2.342 1.5172 8.3341 1.5172 9.1641 0 0.5475-0.13728 1.0274-0.62578 1.0274-0.5475 0-0.68491-0.26966-0.89141-1.3727-0.2765-1.2395-1.1729-3.2414-2.3414-4.5484-2.7575-3.1685-6.4776-3.857-12.609-3.857-9.232 0-21.704 8.1272-21.704 24.524 0 6.6865 1.3121 13.233 6.3391 17.848 3.0345 2.7545 6.9592 4.2695 12.955 4.2695 6.336 0 11.711-1.8605 13.984-4.2695 1.723-1.793 2.6175-4.2052 2.6875-6.3422 0-0.966 0.13706-1.5133 0.68906-1.5133 0.6175 0 0.75706 0.54715 0.82656 1.5852 0.1365 1.3755 0.065 5.1645 0.20704 7.4375 0.14 2.4125 0.34609 3.2407 0.34609 3.7922 0 0.4125-0.27844 0.75544-1.0359 0.82344-2.069 0.2105-4.2716 0.82909-6.8891 1.1711-3.1685 0.414-5.7171 0.69141-9.9891 0.69141zm21.336-0.51875c-0.1395 0-0.20515-0.13666-0.27265-0.43516-0.0465-0.181-0.48203-2.2632-0.48203-2.6297 0-0.251 0.0461-0.36484 0.20859-0.36484 0.1325 0 0.20278 0.0929 0.25078 0.27344 0.0455 0.1825 0.15572 0.45834 0.38672 0.80234 0.3405 0.501 0.89247 0.61516 2.218 0.66016l3.4078 0.0914v-9.375c0-2.101 0.00016-3.9093-0.11484-4.8703-0.07-0.6595-0.20635-1.1632-0.66485-1.2547-0.2035-0.0465-0.47909-0.0953-0.82109-0.0953-0.2755 0-0.36641-0.0661-0.36641-0.17812 0-0.157 0.16082-0.22891 0.45782-0.22891 0.9135 0 2.3563 0.0719 2.8828 0.0719 0.6395 0 2.0777-0.0719 3.5867-0.0719 0.251 0 0.43437 0.0719 0.43437 0.22891 0 0.112-0.11022 0.17812-0.36172 0.17812-0.347 0-0.85074 0.0488-1.1687 0.0953-0.688 0.0915-0.82485 0.59482-0.88985 1.2328-0.1155 0.9825-0.11562 2.7912-0.11562 4.8922v9.375l2.8789-0.0664c2.036-0.0445 2.6527-0.68569 2.6992-1.2797l0.0234-0.25234c0.0215-0.344 0.0663-0.45782 0.25078-0.45782 0.138 0 0.18075 0.13569 0.20625 0.36719 0 0.5935 0.0695 2.1726 0.0695 2.6516 0 0.342-0.0236 0.47969-0.18359 0.47969-0.1835 0-0.73132-0.22891-2.1953-0.22891h-9.057c-0.752 0-1.6221 0.0444-2.2836 0.11485-0.574 0.0445-0.80138 0.27422-0.98438 0.27422zm46.256-0.13672c-0.114 0-0.2475-0.067-0.3625-0.093-0.1845-0.0445-0.55016-0.0894-0.98516-0.13594-0.435-0.0235-4.9891-0.0234-5.7156-0.0234-0.6415 0-2.0809 0.0703-3.2969 0.0703-0.3395 0-0.49766-0.0467-0.49766-0.21016 0-0.1595 0.1376-0.20156 0.3836-0.20156 0.3215 0 0.70975-0.0238 0.89375-0.0703 0.755-0.159 0.93937-0.52663 0.98437-1.3031 0.0445-0.73 0.0437-1.3689 0.0437-4.8469v-4.0274c0-2.101 0.00028-3.908-0.11172-4.8695-0.0915-0.6595-0.2074-1.1632-0.6664-1.2547-0.204-0.0465-0.47766-0.0953-0.82266-0.0953-0.2745 0-0.3625-0.0656-0.3625-0.17812 0-0.157 0.15603-0.22891 0.45703-0.22891 0.915 0 2.3541 0.0719 2.8781 0.0719 1.3515 0 2.8809-0.1414 6.3359-0.1414 0.8695 0 1.0744-0.00053 1.2359 0.59297 0.114 0.4585 0.29688 2.0143 0.29688 2.5383 0 0.2295-0.0006 0.41172-0.1836 0.41172-0.161 0-0.20484-0.0892-0.25234-0.34375-0.1585-0.936-0.43256-1.4146-1.0266-1.6906-0.5945-0.2765-1.5558-0.27656-2.1524-0.27656-2.334 0-2.6985 0.34116-2.7445 1.9227-0.022 0.664 0 2.7654 0 3.5414v1.8102c0 0.136 0.0267 0.22734 0.13516 0.22734 0.5535 0 2.8164-0.0238 3.2484-0.0688 0.8485-0.093 1.1681-0.43412 1.2836-0.89062 0.07-0.297 0.0699-0.5961 0.0914-0.8211 0-0.1165 0.0467-0.21015 0.20468-0.21015 0.2065 0 0.20625 0.25465 0.20625 0.43515 0 0.161 0.0474 1.076 0.0914 1.532 0.0685 1.167 0.18516 1.532 0.18516 1.668 0 0.1375-0.0702 0.18516-0.16016 0.18516-0.1165 0-0.20797-0.11531-0.36797-0.29531-0.2055-0.229-0.54744-0.29753-1.0984-0.34453-0.5235-0.0465-3.1545-0.0461-3.657-0.0461-0.1355 0-0.1625 0.093-0.1625 0.25v5.7875c0 0.157 0.046 0.22813 0.1625 0.22813 0.4585 0 2.8584-0.0465 3.2469-0.093 1.1425-0.1355 1.3714-0.41144 1.5289-0.82344 0.1165-0.2735 0.13985-0.66409 0.13985-0.82109 0-0.204 0.0458-0.32188 0.20781-0.32188 0.16 0 0.20484 0.13941 0.22734 0.25391 0.044 0.272 0.091 1.2796 0.1125 1.5086 0.07 1.0485 0.18204 1.3266 0.18204 1.4836 0 0.1145-0.0222 0.20781-0.13672 0.20781zm-30.891-0.18281c-0.3205 0-0.48125-0.0459-0.48125-0.20938 0-0.159 0.13784-0.20156 0.38984-0.20156 0.3215 0 0.70826-0.0243 0.89376-0.0703 0.7515-0.159 0.93631-0.52663 0.98281-1.3031 0.047-0.73 0.0469-1.3681 0.0469-4.8461v-4.0281c0-2.101-0.00018-3.9085-0.11718-4.8695-0.0915-0.66-0.20579-1.1637-0.66329-1.2547-0.206-0.0465-0.48137-0.0945-0.82187-0.0945-0.274 0-0.36719-0.0669-0.36719-0.1789 0-0.157 0.16359-0.22891 0.45859-0.22891 0.9145 0 2.3529 0.0719 2.8789 0.0719 0.6405 0 2.0832-0.0719 3.5672-0.0719 0.2735 0 0.45859 0.0719 0.45859 0.22891 0 0.112-0.11369 0.1789-0.36719 0.1789-0.344 0-0.8435 0.048-1.1625 0.0945-0.6855 0.091-0.82674 0.59432-0.89374 1.2328-0.1135 0.9825-0.11329 2.7904-0.11329 4.8914v2.0141c0 0.1145 0.0692 0.13594 0.13516 0.13594h8.7344c0.069 0 0.13985-0.0444 0.13985-0.13594v-2.0141c0-2.101-0.00007-3.9085-0.11407-4.8695-0.094-0.66-0.20765-1.1637-0.66015-1.2547-0.2125-0.0465-0.48413-0.0945-0.82813-0.0945-0.276 0-0.36484-0.0669-0.36484-0.1789 0-0.157 0.15941-0.22891 0.47891-0.22891 0.891 0 2.3344 0.0719 2.8609 0.0719 0.6385 0 2.0786-0.0719 3.5656-0.0719 0.277 0 0.45781 0.0719 0.45781 0.22891 0 0.112-0.11434 0.1789-0.36484 0.1789-0.345 0-0.84819 0.048-1.1672 0.0945-0.6875 0.091-0.82341 0.59432-0.89141 1.2328-0.1175 0.9825-0.11796 2.7904-0.11796 4.8914v4.0281c0 3.478 0.00009 4.1161 0.0461 4.8461 0.048 0.8 0.23094 1.1886 0.84844 1.3031 0.2755 0.046 0.478 0.0703 0.6625 0.0703 0.2745 0 0.4125 0.0426 0.4125 0.20156 0 0.1635-0.16197 0.20938-0.48047 0.20938-0.8925 0-2.3331-0.0695-2.8836-0.0695-0.6145 0-2.0569 0.0695-3.2914 0.0695-0.3185 0-0.47891-0.0459-0.47891-0.20938 0-0.159 0.13457-0.20156 0.38907-0.20156 0.3185 0 0.70856-0.0243 0.88906-0.0703 0.756-0.159 0.94031-0.52663 0.98281-1.3031 0.049-0.73 0.0492-1.3681 0.0492-4.8461v-0.48203c0-0.114-0.0709-0.15938-0.13985-0.15938h-8.7344c-0.066 0-0.13516 0.0454-0.13516 0.15938v0.48203c0 3.478-0.00025 4.1161 0.0437 4.8461 0.0465 0.8 0.22838 1.1886 0.84688 1.3031 0.2735 0.046 0.4795 0.0703 0.6625 0.0703 0.273 0 0.41094 0.0426 0.41094 0.20156 0 0.1635-0.15763 0.20938-0.47813 0.20938-0.892 0-2.3338-0.0695-2.8828-0.0695-0.6175 0-2.0572 0.0695-3.2922 0.0695zm36.434-19.751c-0.4165 0-0.66712-0.4604-1.1656-1.6664l-10.45-26.13c-0.83-2.0795-1.6211-3.4949-3.5391-3.7414-0.3305-0.0445-0.91237-0.0867-1.2844-0.0867-0.3345 0-0.50391-0.0807-0.50391-0.33124 0-0.3375 0.25154-0.41563 0.79454-0.41563 2.1595 0 4.4487 0.12656 4.9062 0.12656 1.2905 0 3.0815-0.12656 4.4125-0.12656 0.459 0 0.70704 0.0781 0.70704 0.41563 0 0.2505-0.1265 0.33124-0.625 0.33124h-0.625c-1.2865 0-1.6648 0.54319-1.6648 1.2922 0 0.4985 0.21222 1.4989 0.62422 2.5359l2.2492 5.9523c0.083 0.2525 0.16528 0.33281 0.37578 0.33281h9.275c0.2125 0 0.33553-0.0801 0.41953-0.29062l3.3305-8.8234c0.2075-0.4965-0.0842-0.87453-0.37422-0.95703-0.4155-0.0425-0.58515-0.12293-0.58515-0.37343 0-0.289 0.50115-0.289 1.2476-0.3375 3.3295-0.078 6.3712-0.0781 7.8688-0.0781 1.536 0 1.9117 0.0781 1.9117 0.41563 0 0.293-0.20668 0.33124-0.54218 0.33124-0.497 0-1.1228 0.0422-1.7453 0.16719-0.8745 0.21-2.0825 0.79172-3.6625 4.5367-2.661 6.3265-9.3208 23.304-10.319 25.59-0.4185 0.961-0.66469 1.3375-1.0422 1.3375zm-39.164-0.33593c-0.2515 0-0.37422-0.25257-0.49922-0.78907-0.0845-0.3355-0.87578-4.1194-0.87578-4.7859 0-0.46 0.0868-0.66328 0.37578-0.66328 0.249 0 0.37425 0.16309 0.45625 0.49609 0.085 0.331 0.2911 0.83381 0.7086 1.4578 0.6245 0.917 1.6241 1.1209 4.0336 1.2039l6.2047 0.16719v-17.062c0-3.8295 0.00062-7.1168-0.20938-8.8648-0.1255-1.2035-0.37347-2.122-1.2055-2.2875-0.3745-0.081-0.87472-0.16797-1.4992-0.16797-0.5 0-0.66328-0.12124-0.66328-0.33124 0-0.289 0.29047-0.41563 0.83047-0.41563 1.6625 0 4.2848 0.12734 5.2453 0.12734 1.161 0 3.7852-0.12734 6.5297-0.12734 0.4585 0 0.79063 0.12663 0.79063 0.41563 0 0.21-0.20791 0.33124-0.66641 0.33124-0.6235 0-1.5378 0.087-2.1203 0.16797-1.2495 0.1655-1.498 1.0839-1.625 2.2469-0.208 1.7885-0.20781 5.076-0.20781 8.9055v17.062l5.2414-0.12266c3.7085-0.083 4.83-1.248 4.9125-2.3305l0.0399-0.45859c0.0445-0.624 0.12515-0.82969 0.46015-0.82969 0.252 0 0.33394 0.249 0.37344 0.6625 0 1.084 0.12578 3.9507 0.12578 4.8297 0 0.6215-0.0426 0.87187-0.33359 0.87187-0.333 0-1.3303-0.41797-3.9953-0.41797h-16.477c-1.3735 0-2.9557 0.0847-4.1602 0.21016-1.0405 0.081-1.4588 0.49844-1.7898 0.49844zm110.58-0.25235c-0.206 0-0.45678-0.12312-0.66328-0.16562-0.338-0.0805-1.0015-0.16344-1.793-0.24844-0.7905-0.042-9.0748-0.0422-10.401-0.0422-1.168 0-3.7899 0.12735-5.9969 0.12735-0.6205 0-0.91485-0.0853-0.91485-0.37578 0-0.2905 0.25616-0.37344 0.71016-0.37344 0.581 0 1.2882-0.0428 1.6227-0.12578 1.3705-0.2925 1.7086-0.95888 1.7891-2.3719 0.0845-1.3345 0.0844-2.497 0.0844-8.825v-7.3211c0-3.83 0.00041-7.1181-0.20859-8.8656-0.164-1.2035-0.37469-2.1228-1.2047-2.2883-0.376-0.0805-0.87584-0.16719-1.5023-0.16719-0.499 0-0.6625-0.12046-0.6625-0.33046 0-0.289 0.28641-0.41641 0.82891-0.41641 1.6645 0 4.2865 0.12734 5.243 0.12734 2.457 0 5.243-0.25703 11.53-0.25703 1.581 0 1.9538 0.00022 2.2453 1.0867 0.206 0.8315 0.53828 3.661 0.53828 4.6195 0 0.4135 0.00048 0.74688-0.33202 0.74688-0.2905 0-0.37241-0.16579-0.45391-0.62579-0.294-1.7065-0.79378-2.5785-1.8758-3.082-1.082-0.4955-2.8287-0.49532-3.9117-0.49532-4.2415 0-4.9095 0.62572-4.993 3.4992-0.043 1.205 0 5.0354 0 6.4484v3.2844c0 0.251 0.04 0.41797 0.25 0.41797 1.001 0 5.1187-0.0423 5.9102-0.12734 1.5405-0.163 2.1217-0.78191 2.3312-1.6164 0.1245-0.545 0.12435-1.086 0.16485-1.5 0-0.206 0.0803-0.37812 0.37578-0.37812 0.3715 0 0.37109 0.4559 0.37109 0.7914 0 0.2905 0.086 1.9563 0.16954 2.7883 0.125 2.124 0.32968 2.7906 0.32968 3.0391s-0.12334 0.33359-0.28984 0.33359c-0.2095 0-0.37312-0.20841-0.66562-0.54141-0.37-0.4165-0.99782-0.53971-1.9953-0.62421-0.96-0.083-5.7441-0.0828-6.6586-0.0828-0.2525 0-0.29297 0.16725-0.29297 0.45625v10.527c0 0.293 0.084 0.41562 0.29297 0.41562 0.834 0 5.2013-0.0795 5.9078-0.1625 2.081-0.2525 2.5-0.74937 2.7875-1.4969 0.211-0.5025 0.25078-1.2114 0.25078-1.5024 0-0.3735 0.0804-0.58125 0.37344-0.58125 0.29 0 0.3744 0.24982 0.4164 0.45782 0.0865 0.501 0.16816 2.3304 0.21016 2.7484 0.1255 1.914 0.3336 2.4086 0.3336 2.7031 0 0.206-0.0426 0.37187-0.25157 0.37187zm-124.07-0.3289c-0.6655 0-1-0.0855-1-0.3375 0-0.329 0.25119-0.41172 0.66719-0.41172 0.503 0 1.0424-0.0422 1.4969-0.16719 0.918-0.206 1.3334-0.91747 1.4164-2.3305 0.0825-1.3345 0.0828-2.497 0.0828-8.825v-7.3211c0-4.036-0.00016-7.3234-0.21016-9.0719-0.121-1.2075-0.37147-1.9165-1.2055-2.082-0.3725-0.0805-0.87087-0.16719-1.4969-0.16719-0.4995 0-0.66719-0.12046-0.66719-0.33046 0-0.289 0.29288-0.41641 0.83438-0.41641 1.6635 0 4.2866 0.12734 5.2406 0.12734 1.126 0 3.7464-0.12734 6.4914-0.12734 0.46 0 0.79453 0.12741 0.79453 0.41641 0 0.21-0.20919 0.33046-0.66719 0.33046-0.626 0-1.5407 0.0867-2.1242 0.16719-1.2475 0.1655-1.5363 0.91535-1.6633 2.0398-0.166 1.791-0.16641 5.0781-0.16641 9.1141v7.3211c0 6.328 0.0006 7.4905 0.0836 8.825 0.083 1.4555 0.41812 2.1619 1.5406 2.3719 0.4985 0.083 0.83194 0.12578 1.2484 0.12578 0.4175 0 0.66328 0.0827 0.66328 0.41172 0 0.252-0.33365 0.3375-0.87265 0.3375-1.5815 0-4.0363-0.12735-5.0758-0.12735-1.2065 0-3.8299 0.12735-5.4109 0.12735zm70.835 0c-0.623 0-0.9164-0.0848-0.9164-0.37578 0-0.2905 0.25053-0.37344 0.70703-0.37344 0.5845 0 1.2882-0.0425 1.6226-0.125 1.371-0.2925 1.7064-0.95916 1.7898-2.3727 0.0795-1.3345 0.0797-2.4973 0.0797-8.8258v-7.3203c0-3.83 0.00003-7.1181-0.20547-8.8656-0.168-1.204-0.37575-2.1223-1.2062-2.2883-0.377-0.0805-0.8736-0.16719-1.4961-0.16719-0.4995 0-0.66953-0.12124-0.66953-0.33124 0-0.2885 0.29453-0.41563 0.83203-0.41563 1.665 0 4.2904 0.12734 5.2469 0.12734 2.078 0 5.8229-0.5039 8.8609-0.5039 7.6985 0 12.026 2.9567 13.941 4.9117 2.3295 2.372 4.5352 6.3673 4.5352 11.613 0 4.9485-1.9557 8.4015-4.0352 10.568-4.5345 4.745-11.485 4.7445-16.685 4.7445-2.4975 0-5.1254-0.12735-6.4109-0.12735-1.163 0-3.7881 0.12735-5.9906 0.12735zm56.768 0c-0.625 0-0.91875-0.0848-0.91875-0.37578 0-0.2905 0.25138-0.37344 0.70938-0.37344 0.541 0 1.0417-0.0425 1.3742-0.125 1.3735-0.2925 1.7046-0.95916 1.7891-2.3727 0.083-1.3345 0.0828-2.4973 0.0828-8.8258v-7.3203c0-3.83 0.00019-7.1181-0.20781-8.8656-0.1665-1.204-0.37788-2.1223-1.2094-2.2883-0.3695-0.0805-0.86959-0.16719-1.4961-0.16719-0.4985 0-0.66641-0.12124-0.66641-0.33124 0-0.2885 0.29128-0.41563 0.83828-0.41563 1.6575 0 4.2845 0.12734 5.2375 0.12734 3.3705 0 6.1201-0.25703 12.109-0.25703 2.168 0 2.3729 0.20756 2.6234 1.1266 0.3315 1.2095 0.62422 4.3319 0.62422 4.7859 0 0.5005-0.0453 0.7086-0.33282 0.7086-0.3335 0-0.41703-0.24844-0.45703-0.62344-0.085-0.7895-0.58503-1.9566-1.082-2.4961-1.0395-1.1225-2.6692-1.1656-4.8688-1.1656-3.247 0-4.3302 0.289-5.0367 0.9125-0.873 0.749-0.87343 3.6232-0.87343 8.9492v7.3203c0 6.3285 0.00031 7.4913 0.0828 8.8258 0.084 1.4555 0.4175 2.1627 1.5375 2.3727 0.502 0.0825 1.165 0.125 1.625 0.125 0.499 0 0.75 0.0829 0.75 0.37344 0 0.291-0.2915 0.37578-0.875 0.37578-1.6245 0-4.6593-0.12735-5.6578-0.12735-1.1215 0-3.7483 0.12735-5.7008 0.12735zm-45.036-1.9562c3.245 0 7.9886-0.49938 11.821-4.1594 1.7885-1.7105 3.9914-5.1226 3.9914-10.409 0-4.282-0.83247-8.0705-3.493-10.362-2.496-2.162-5.3272-2.9914-9.5727-2.9914-3.289 0-4.9087 0.87022-5.4492 1.6617-0.333 0.46-0.41815 2.1219-0.46015 3.1664-0.043 0.787-0.0828 3.9936-0.0828 8.4031v5.2438c0 3.287-0.00015 6.9087 0.0399 8.3227 0 0.4565 0.12612 0.66609 0.50312 0.83359 0.331 0.1655 1.8704 0.29063 2.7024 0.29063zm-30.96-5.6602c0.1255 0 0.16594-0.20984 0.21094-0.37734l3.743-10.275c0.04-0.127 0.00026-0.25235-0.20624-0.25235h-7.6578c-0.17 0-0.20831 0.12513-0.17031 0.29063l3.832 10.237c0.041 0.1675 0.12344 0.37734 0.24844 0.37734z" fill="#003263"/></g></svg>
