<svg xmlns="http://www.w3.org/2000/svg" height="250.84" viewBox="0 0 244.99999 250.84394" width="245"><g transform="matrix(1.25 0 0 -1.25 -411.62 219.68)"><g transform="matrix(1.6691 0 0 1.6691 -284.65 -49.193)"><path d="m110.09 0c-0.21225 0-0.38877 0.15359-0.41211 0.35938l-2.3184 19.092-18.932 2.1367c-0.20892 0.024-0.36608 0.19569-0.36719 0.40039-0.0025 0.2047 0.15046 0.37989 0.35938 0.4082l12.174 1.6289c-5.4176 0.01-11.61 0.33208-19.266 1.584v-7.5918l-10.746-10.529h-34.869l-14.914 14.611v23.801c-8.0822 3.9807-14.097 7.6141-17.982 10.363-7.8955 5.5866 3.2891 6.2305 3.2891 6.2305 7.0176-0.52807 14.055-1.5362 20.965-2.8809l5.791 5.6758h7.6758v5.8008h7.4551v16.977h-6.3594v-12.465h-21.271v17.189l13.707 13.43h14.363v23.744h-7.2363v18.479h33.113v-18.908h-7.0156v-23.367l2.1914 0.0527 2.6914-2.6348 16.607 44.857h6.5781l23.029-56.082v37.174h-8.9941v19.553h35.748v-19.123h-8.5527v-59.305h8.9902v-18.264h-35.088l-17.764 45.553-11.459-31.939v-9.5312l-10.084-9.8809c17.58-6.8486 30.382-13.808 33.605-16.334 3.9515-3.0973 2.7573-4.7159 1.1758-5.5195l1.3945 0.1875 2.4531 18.562c0.0266 0.20252 0.20346 0.35352 0.41016 0.35352h0.006c0.20891-0.0011 0.3846-0.15577 0.41015-0.35938l2.1797-18.424 18.805-2.6699c0.20559-0.02938 0.35769-0.20155 0.35547-0.40625-0.004-0.2047-0.15855-0.37534-0.36524-0.40039l-18.81-2.272-2.31-18.961c-0.03-0.20428-0.21-0.357-0.42-0.357zm-69.553 25.537h23.246v4.0078c-3.5549 0.9919-7.3449 2.1537-11.404 3.5137-4.1816 1.4013-8.1291 2.8273-11.842 4.2559v-11.777zm60.105 1.6543c3.2215 0.15949-1.9902 2.4277-1.9902 2.4277-12.137 6.842-24.158 12.103-35.264 16.143h-22.852v-3.6699c8.6311-3.3263 16.396-5.873 23.246-7.834v2.4531h17.545v-6.7402c7.2376-1.4492 12.475-2.0862 15.568-2.5 1.8094-0.24171 3.0027-0.3161 3.7461-0.2793zm-79.844 23.266v3.0137l3.1758 3.1113c-6.537 1.223-11.256 1.803-13.476 2.045-7.8943 0.86-0.8769-2.793-0.8769-2.793 3.8419-1.926 7.5649-3.71 11.184-5.377z" transform="matrix(.8 0 0 -.8 368.26 134.24)" fill="#ffd101"/><path d="m36.594 11.141-12.391 12.678v27.826l4.1562 4.0742c6.9853-1.4448 15.517-3.5377 25.004-6.5449h-16.33v-27.074h30.264v12.033h10.523v-14.396l-8.7695-8.5957h-32.457zm27.729 38.033c-10.015 3.6116-21.224 7.0261-32.896 9.5488l3.6328 3.5566h32.238v40.611h0.87695l9.8652-9.668v-35.24l-8.9883-8.8086h-4.7285zm49.904 6.2305-21.273 54.793-11.678-31.031v15.506l-5.6582 5.543 15.801 44.791h1.3164l28.947-68.758v56.51h-8.7715v12.463h28.729v-11.604h-8.1152v-66.18h8.1152v-12.033h-27.412zm-70.176 9.8848v2.5781h7.6738v65.75h-7.6738v11.389h27.412v-12.463h-7.457v-67.254h-19.955zm-20.396 13.75v12.25l11.844 11.602 12.498 0.21485v-11.389h-9.8672v-12.678h-14.475z" transform="matrix(.8 0 0 -.8 368.26 134.24)" fill="#0d223f"/><path d="m458.17 114.79c-0.14935-0.0209-0.26581-0.13762-0.2827-0.2857l-1.4615-12.35-1.6464 12.464c-0.0196 0.14547-0.13602 0.26132-0.28537 0.28048l-12.79 1.7133 12.784 1.4416c0.15202 0.0174 0.27203 0.13501 0.29159 0.28483l1.5549 12.819 1.5531-12.711c0.0178-0.14808 0.13779-0.2648 0.28981-0.28396l12.835-1.5496-12.843-1.8231z" fill="#fff"/></g></g></svg>
