<?xml version="1.0" encoding="UTF-8" standalone="no"?>
<svg id="svg2" xmlns:rdf="http://www.w3.org/1999/02/22-rdf-syntax-ns#" xmlns="http://www.w3.org/2000/svg" xml:space="preserve" viewBox="0 0 82.373 94.264" version="1.1" xmlns:cc="http://creativecommons.org/ns#" xmlns:dc="http://purl.org/dc/elements/1.1/"><metadata id="metadata8"><rdf:RDF><cc:Work rdf:about=""><dc:format>image/svg+xml</dc:format><dc:type rdf:resource="http://purl.org/dc/dcmitype/StillImage"/><dc:title/></cc:Work></rdf:RDF></metadata><g id="g12" fill-rule="nonzero" transform="matrix(1.25,0,0,-1.25,-27.727213,484.2684)"><path id="path102" fill="#6d6e71" d="m36.832,319.44c0,1.311-0.322,1.862-1.242,1.862-0.553,0-1.172-0.229-1.748-0.735v-5.357h1.609v-2.506h-5.035v6.736c0,1.311-0.322,1.862-1.24,1.862-0.553,0-1.174-0.229-1.748-0.735v-5.357h1.724v-2.506h-6.644v2.506h1.494v6.392h-1.494v2.46h4.896v-1.126c1.151,0.736,2.184,1.126,3.219,1.126,1.195,0,2.115-0.46,2.645-1.311,1.47,0.828,2.689,1.311,3.793,1.311,2.093,0,3.197-1.265,3.197-3.771v-5.081h1.609v-2.506h-5.035v6.736z"/><path id="path106" fill="#6d6e71" d="m50.268,319.67c-0.092,1.334-0.988,2.161-2.275,2.161-1.289,0-2.163-0.827-2.254-2.161h4.529zm-1.84-4.759c1.127,0,1.979,0.505,2.506,1.517l2.668-0.851c-0.85-2.001-2.875-3.196-5.541-3.196-3.497,0-5.864,2.345-5.864,5.978,0,3.61,2.322,5.978,5.864,5.978,3.541,0,5.84-2.414,5.84-6.415v-0.184h-8.186c0.092-1.816,1.057-2.827,2.713-2.827"/><path id="path110" fill="#6d6e71" d="m63.108,318.26c0,2.115-0.941,3.288-2.391,3.288-1.47,0-2.437-1.173-2.437-3.288s0.967-3.311,2.437-3.311c1.45,0,2.391,1.196,2.391,3.311m-3.563-5.886c-2.804,0-4.783,2.207-4.783,5.656,0,3.61,2.115,6.024,4.897,6.024,1.289,0,2.416-0.529,3.449-1.609v3.77h-1.494v2.437h4.898v-13.45h1.494v-2.506h-4.898v1.495c-0.918-1.219-2.092-1.817-3.563-1.817"/><path id="path114" fill="#6d6e71" d="m71.661,328.93c1.035,0,1.908-0.85,1.908-1.885s-0.873-1.862-1.908-1.862-1.861,0.805-1.861,1.862c0,1.058,0.826,1.885,1.861,1.885m-3.035-7.311,0,2.437,4.896,0,0-8.852,1.61,0,0-2.506-6.506,0,0,2.506,1.494,0,0,6.415-1.494,0z"/><path id="path118" fill="#6d6e71" d="m82.741,317.04c-0.643,0.484-1.264,0.713-1.885,0.713-1.012,0-1.609-0.575-1.609-1.586,0-0.897,0.529-1.495,1.334-1.495,0.689,0,1.402,0.368,2.16,1.058v1.31zm0-3.563c-0.895-0.714-2.045-1.104-3.264-1.104-2.186,0-3.586,1.356-3.586,3.564,0,2.437,1.563,4.001,4.022,4.001,0.828,0,1.771-0.207,2.828-0.621v0.689c0,1.449-0.619,2.161-1.953,2.161-0.92,0-1.633-0.344-2.139-1.034l-2.506,0.552c0.414,1.61,2.092,2.644,4.736,2.644,2.391,0,3.955-0.575,4.713-1.724,0.53-0.759,0.553-1.679,0.553-2.828v-4.576h1.609v-2.506h-5.013v0.782z"/><path id="path122" fill="#d35b30" d="m64.446,360.4,6.662,0,1.664,1.667,0,4.994,8.32,8.324,0,9.989-1.664,1.666-6.656,0-1.664-1.666,0-3.331-3.328-3.33-3.334,3.33,0,3.331-1.662,1.666-6.658,0-1.67-1.666,0-9.989,8.328-8.324,0-4.994,1.662-1.667z"/><path id="path126" fill="#d9792d" d="m49.467,360.4-16.647,0-4.992-4.994,0-16.645,4.992-4.997,16.647,0,4.994,4.997,0,4.992-1.664,1.669-8.325,0,0-1.669-6.658,0,0,6.662,6.658,0,0-1.646,8.325,0,1.664,1.646,0,4.991-4.994,4.994z"/><path id="path130" fill="#cf4339" d="m52.795,387.04-6.66,0-1.663-1.662,0-6.659-8.322,8.321-6.662,0-1.66-1.662,0-23.307,1.66-1.667,6.662,0,1.664,1.667,0,6.661,8.321-8.328,6.66,0,1.66,1.667,0,23.307-1.66,1.662z"/><path id="path134" fill="#f0c645" d="m54.461,358.74,0-23.306,1.662-1.665,3.668,0,0,26.633-3.668,0-1.662-1.662zm24.969,1.662-16.754,0,16.182-13.484-15.782-13.149,16.354,0,1.66,1.665,0,23.306-1.66,1.662z"/></g></svg>