<?xml version="1.0" encoding="UTF-8" standalone="no"?>
<svg xmlns:rdf="http://www.w3.org/1999/02/22-rdf-syntax-ns#" xmlns="http://www.w3.org/2000/svg" xml:space="preserve" height="86.955" viewBox="0 0 280.09802 86.955078" width="280.1" version="1.1" xmlns:cc="http://creativecommons.org/ns#" xmlns:dc="http://purl.org/dc/elements/1.1/"><g transform="matrix(1.25 0 0 -1.25 .000016464 91.336)"><g transform="translate(.78521 .78521)"><path d="m233.87 0.66406c-1.365 0-2.4403 0.26219-3.5703 1.0234-1.155 0.735-1.416 2.1005-1.416 3.3867v1.2051h-2.0469v2.2324h2.0469v9.5h-1.8887v2.2305h7.6894v-2.2305h-2.3106v-9.5h2.3906v-2.2324h-2.3906v-0.52344c0-0.44625-0.024-1.4179 0.29102-1.8379 0.4975-0.55125 1.0732-0.70703 1.7832-0.70703 0.47125 0 0.91813 0.0775 1.3906 0.15625v-2.3613c-0.655-0.18375-1.3125-0.3418-1.9688-0.3418zm-121.71 0.28906v3.2012h3.4902v-3.2012h-3.4902zm61.795 0v3.2012h3.4902v-3.2012h-3.4902zm-99.602 0.49805v2.3633h1.8906v8.8184c0 1.5212-0.02688 3.0705 0.73437 4.4355 0.5775 1.0762 1.3916 2.0195 2.4941 2.5957 0.99625 0.55125 2.677 0.89258 3.832 0.89258 1.1812 0 3.0448-0.28883 4.041-0.89258 1.2338-0.7075 2.2057-1.8086 2.7832-3.1211 0.5775-1.3388 0.49805-2.9666 0.49805-4.3828v-8.3457h1.8906v-2.3633h-7.4805v2.3633h2.3086v8.6602c0 0.86625 0.05336 1.8896-0.18164 2.7559-0.29 0.945-0.84125 2.0477-1.8125 2.4414-0.60375 0.2625-1.0488 0.39258-1.7051 0.39258-1.2862 0-2.4425-0.47172-3.125-1.5742-0.7075-1.155-0.68164-2.4145-0.68164-3.752v-8.9238h2.3359v-2.3633h-7.8223zm-74.358 0.0254v35.484c-0.0075 9.3125 2.5473 16.715 7.8086 22.639 4.3625 4.9138 10.741 10.825 21.703 13.732 10.96-2.9075 17.336-8.8187 21.701-13.732 5.2612-5.9238 7.8141-13.326 7.8066-22.639v-35.484h-29.508-29.512zm185.32 1.2344-3.4922 1.1816v2.3867h-2.0723v2.2324h2.0723v6.9551c0.00001 0.63-0.0258 1.8639 0.10547 2.4414 0.26375 1.1812 0.91946 2.0192 2.127 2.3867 0.6025 0.1575 0.97156 0.26172 1.6016 0.26172 0.28875 0 1.1546-0.15672 1.4434-0.26172 1.7312-0.55125 2.2559-2.0728 2.2559-3.7266v-0.94531h-2.1504c0.0263 0.945 0.13054 3.1777-1.4707 2.5215-0.2625-0.105-0.41992-0.63008-0.41992-0.89258v-8.7402h3.4902v-2.2324h-3.4902v-3.5684zm-82.707 3.2285c-1.9675 0-3.3067 0.84-4.1992 2.625v-2.2852h-5.0898v2.2324h1.8359v9.5h-1.8359v2.2305h7.0078v-2.2305h-1.6816v-5.3262c0-1.9425 0.15812-4.332 2.7031-4.332 0.91875 0 1.627 0.6307 1.8633 1.4707 0.21 0.6825 0.18359 1.2335 0.18359 1.916v6.2715h-1.627v2.2305h6.8496v-2.2305h-1.7305v-7.5586c0-0.60375 0.00015-1.1537-0.1836-1.8887-0.315-1.2862-1.9432-2.625-4.0957-2.625zm37.504 0c-4.2262 0-6.4043 3.3602-6.4043 7.1914 0 1.7588 0.42024 3.5962 1.5215 5.0137 0.60375 0.81375 1.2082 1.3371 2.127 1.7559 0.81375 0.3675 2.0216 0.65625 2.9141 0.65625 2.8338 0 5.8783-1.4932 6.1133-4.5645h-3.332c-0.23625 1.3388-1.2077 2.2832-2.5977 2.2832-2.3888 0-3.2294-2.3097-3.2031-4.3047h9.3184c0-0.07875 0.0254-0.13219 0.0254-0.21094 0.0537-0.39375-0.00039-0.78633-0.0254-1.2051-0.08-1.575-0.42008-3.5445-1.5488-4.752-1.2862-1.365-3.0457-1.8633-4.9082-1.8633zm24.031 0c-1.6262 0-3.3578 0.76109-3.8828 1.4961-0.36749 0.525-1.0512 1.3645-0.91992 2.5195 0 1.5487 0.50016 2.7552 1.7852 3.6465 1.4975 0.9975 3.4133 0.81492 4.9883 1.5762 0.52375 0.2625 0.67969 0.89297 0.67969 1.418 0 1.05-0.9943 1.7324-1.9668 1.7324-1.8625 0-2.6255-1.2089-2.7305-2.9414h-2.7285v4.8555h2.5195v-1.416c0.7075 1.1275 2.1262 1.7305 3.4375 1.7305 1.9688 0 3.4911-0.86547 4.1211-1.7305 0.52375-0.735 0.89219-1.9948 0.86719-2.8086 0-1.1025-0.26516-1.917-0.97266-2.7832-1.05-1.3112-3.856-1.5214-5.3535-1.9414-0.2625-0.13125-0.55282-0.20883-0.78907-0.39258-0.28874-0.34125-0.41796-0.62992-0.41796-1.0762 0-1.2862 1.0477-1.7852 2.1777-1.7852 1.6788 0 2.2312 1.2342 2.3887 2.7305h2.5703v-4.4902h-2.4648v1.1562c-0.735-0.97125-2.1011-1.4961-3.3086-1.4961zm54.701 0c-1.785 0-3.6471 0.68164-4.8809 1.9941-1.365 1.47-1.8379 3.2552-1.8379 5.2227 0 1.8112 0.44781 3.648 1.6016 5.0918 1.1812 1.4688 3.3327 2.3086 5.2227 2.3086 4.3038 0 6.7969-3.227 6.7969-7.2695 0-4.225-2.4148-7.3477-6.9023-7.3477zm-61.984 0.074219c-1.95 0.0652-3.28 1.0963-3.76 3.2324v-2.9668h-5.1191v2.2324h1.8379v9.5h-1.8379v2.2305h7.5586v-2.2305h-2.2324v-3.5957c0-0.97125 0.001-2.2562 0.34375-3.2012 0.445-1.1812 1.5744-1.9688 2.8594-1.9688 0.42 0 0.84062 0.10594 1.2344 0.21094v-3.4121c-0.30516-0.029688-0.59901-0.040564-0.87891-0.03125zm-46.572 0.26562v2.2324h1.8652v9.5h-1.8652v2.2305h6.9824v-2.2305h-1.627v-11.732h-5.3555zm7.6387 0v2.2324h1.1035l4.1465 11.73h4.3301l4.1211-11.73h1.0762v-2.2324h-6.1426v2.2324h1.7578l-2.9375 8.8965h-0.0273l-2.5977-8.8965h1.7324v-2.2324h-6.5625zm54.156 0v2.2324h1.8652v9.5h-1.8652v2.2305h6.9824v-2.2305h-1.627v-11.732h-5.3555zm18.414 0v2.2324h1.1289l4.8008 11.914-0.18164 0.44727c-0.44625 1.0762-0.7068 1.4961-1.9668 1.4961-0.47375 0-0.94617-0.05383-1.4199-0.08008v2.416c0.68375 0.13125 1.3909 0.13086 2.0996 0.13086 2.6238 0 3.4393-1.5478 4.2793-3.7266l4.9863-12.598h1.1035v-2.2324h-6.1953v2.2324h1.7324l-2.6758 7.7148-0.13281-0.33984-2.6777-7.375h1.8125v-2.2324h-6.6934zm-50.096 1.8379c1.9938 0 2.6241 2.257 2.6504 3.832h-5.7207c0.1575-1.8375 0.86531-3.832 3.0703-3.832zm78.549 0.13086c1.1812 0 2.0208 0.76117 2.5195 1.7324 0.525 1.05 0.63086 2.0474 0.63086 3.2012 0 0.97125-0.10625 2.1789-0.5 3.0977-0.47375 1.0762-1.3377 1.9688-2.5977 1.9688-1.18 0-2.0735-0.76031-2.5723-1.7578-0.55125-1.05-0.65625-2.1009-0.65625-3.2559 0-1.9412 0.65578-4.9863 3.1758-4.9863zm28.547 19.072v3.2031h3.4902v-3.2031h-3.4902zm-18.848 0.18359v2.2305h1.7852v14.645h-1.7852v2.2305h6.9824v-2.2305h-1.7051v-4.9336c0-1.0237-0.0285-1.9955 0.36524-2.9668 0.42-1.1288 1.1306-1.7852 2.3906-1.7852 1.0225 0 1.8341 0.815 1.9141 1.8125 0.0787 0.525 0.13086 1.0746 0.13086 1.5996v6.2734h-1.7051v2.2305h6.9551v-2.2305h-1.7578v-7.5332c0-1.2075-0.13266-2.3629-0.97266-3.3066-0.78625-0.8925-2.177-1.2324-3.332-1.2324-1.8375 0-3.017 0.60289-3.9883 2.1504v-6.9531h-5.2773zm-154.01 0.31445v2.3613h2.1797v14.068h-2.1797v2.3613h7.4023v-2.3613h-2.0742v-12.809h0.02539l7.1406 15.17h4.6445v-16.43h2.0469v-2.3613h-7.4004v2.3613h2.2051v12.414h-0.02734l-6.9805-14.775h-6.9824zm63.973 0v2.3613h2.1504v14.068h-2.1504v2.3613h8.0293v-2.3613h-2.2832v-5.9844h7.6113v5.9844h-2.2832v2.3613h8.0566v-2.3613h-2.1777v-14.068h2.1777v-2.3613h-8.0566v2.3613h2.2832v5.7207h-7.6113v-5.7207h2.2832v-2.3613h-8.0293zm-37.539 4.4883c-4.225 0-6.4043 3.3589-6.4043 7.1914 0 1.7575 0.42094 3.5942 1.5234 5.0117 0.60375 0.81375 1.2062 1.3398 2.125 1.7598 0.81375 0.3675 2.0196 0.65625 2.9121 0.65625 2.835 0 5.879-1.4971 6.1152-4.5684h-3.332c-0.23625 1.3388-1.2084 2.2832-2.5996 2.2832-2.3875 0-3.2274-2.309-3.2012-4.3027h9.3164c0-0.07875 0.0273-0.13219 0.0273-0.21094 0.0525-0.39375-0.001-0.78703-0.0273-1.207-0.0787-1.575-0.41938-3.5438-1.5469-4.75-1.2862-1.365-3.0444-1.8633-4.9082-1.8633zm64.627 0c-3.0712 0-5.6166 1.2079-5.6953 4.6191h3.4629c-0.025-1.47 0.70992-2.5215 2.2324-2.5215 2.1775 0 2.413 2.1012 2.2305 3.7812-0.63-0.02625-1.2587-0.10547-1.8887-0.10547-0.65625 0-1.3652 0.10461-2.0215 0.13086-0.91875 0.02625-2.492 0.57703-3.1758 1.207-0.89125 0.7875-1.3652 1.9691-1.3652 3.1504 0 0.42 0.0257 0.8918 0.31445 1.8105 0.315 1.4438 2.2059 2.5469 4.1484 2.5469 1.89 0 3.5692-0.78812 4.3555-2.5469v2.2305h4.8281v-2.2051h-1.8086v-6.2715c0-0.60375-0.0267-1.1814-0.10547-1.7852-0.08-0.55125-0.1318-0.84-0.3418-1.3125-0.945-2.1512-2.9924-2.7285-5.1699-2.7285zm18.479 0c-2.0212 0-3.4916 0.8393-4.3828 2.623v-2.2812h-5.0918v2.2285h1.8379v9.502h-1.8379v2.2305h7.0078v-2.2305h-1.6797v-5.248c0-0.70875-0.001-1.3663 0.1836-2.0488 0.3925-1.3125 1.1804-2.2051 2.6504-2.2051 0.60375 0 1.2851 0.36867 1.5488 0.91992 0.34125 0.735 0.34179 1.3375 0.34179 2.125v6.457h-1.6016v2.2305h6.7188v-2.2305h-1.627v-5.3809c0-0.9975-0.00094-1.7844 0.44531-2.7031 0.4475-0.945 1.1813-1.418 2.2051-1.418 1.8888 0 2.0723 1.8638 2.0723 3.2812v6.2207h-1.6523v2.2305h6.8496v-2.2305h-1.7051v-7.2695c0-0.6825 0.10422-1.3134-0.23828-2.1797-0.68-1.705-2.0988-2.623-4.0938-2.623-1.81 0-3.3039 0.8393-4.0664 2.623-0.65625-1.915-2.0223-2.623-3.8848-2.623zm23.92 0c-1.6538 0-3.1518 0.81242-4.123 2.7012v-2.3594h-5.1172v2.2285h1.8379v13.754h-1.8379v2.2305h7.2969v-2.2305h-1.9688v-4.1211c1.0488 1.7325 2.4129 2.416 3.9629 2.416 1.6788 0 3.5704-0.78781 4.4629-2.2578 1.1025-1.8112 1.3125-3.1239 1.3125-5.2227 0-1.89-0.47289-3.6237-1.0254-4.4375-1.2588-1.8362-2.6745-2.7012-4.8008-2.7012zm12.764 0c-1.6275 0-3.3578 0.76109-3.8828 1.4961-0.36875 0.52375-1.0512 1.3626-0.91992 2.5176 0 1.5488 0.50015 2.7579 1.7852 3.6504 1.4962 0.9975 3.4113 0.81227 4.9863 1.5723 0.525 0.2625 0.68359 0.89297 0.68359 1.418 0 1.05-0.9982 1.7324-1.9707 1.7324-1.8625 0-2.6235-1.207-2.7285-2.9395h-2.7305v4.8555h2.5195v-1.416c0.70875 1.1288 2.127 1.7324 3.4394 1.7324 1.9688 0 3.4891-0.86617 4.1191-1.7324 0.525-0.735 0.89344-1.9968 0.86719-2.8105 0-1.1025-0.26195-1.915-0.9707-2.7812-1.05-1.3125-3.858-1.5214-5.3555-1.9414-0.26125-0.13125-0.55016-0.21078-0.78516-0.39453-0.29-0.34125-0.41992-0.62992-0.41992-1.0762 0-1.2862 1.049-1.7852 2.1777-1.7852 1.68 0 2.2305 1.2342 2.3867 2.7305h2.5742v-4.4863h-2.4688v1.1543c-0.735-0.97125-2.1004-1.4961-3.3066-1.4961zm50.729 0c-4.2238 0-6.4024 3.3589-6.4024 7.1914 0 1.7575 0.41899 3.5942 1.5215 5.0117 0.60375 0.81375 1.2082 1.3398 2.127 1.7598 0.81375 0.3675 2.0209 0.65625 2.9121 0.65625 2.835 0 5.8809-1.4971 6.1172-4.5684h-3.334c-0.235 1.3388-1.2084 2.2832-2.5996 2.2832-2.3875 0-3.2274-2.309-3.2012-4.3027h9.3164c0-0.07875 0.0273-0.13219 0.0273-0.21094 0.0512-0.39375 0.00016-0.78703-0.0273-1.207-0.0775-1.575-0.41813-3.5438-1.5469-4.75-1.2862-1.365-3.0452-1.8633-4.9102-1.8633zm-8.4219 0.07422c-1.9593 0.06602-3.2861 1.0974-3.7695 3.2324v-2.9648h-5.1152v2.2285h1.8359v9.502h-1.8359v2.2305h7.5586v-2.2305h-2.2324v-3.5957c0-0.97125-0.0007-2.2562 0.34179-3.2012 0.44626-1.1812 1.5751-1.9688 2.8613-1.9688 0.42 0 0.83993 0.10398 1.2324 0.20898v-3.4102c-0.30516-0.02953-0.59706-0.04068-0.87696-0.03125zm-154.77 0.26758v2.2285h1.2344l3.3594 11.732h4.4082l2.8613-10.473 2.5195 10.473h4.4082l3.3613-11.732h1.2852v-2.2285h-6.1934v2.2285h1.7832l-2.3613 9.0293h-0.0254l-2.5996-11.258h-4.25l-2.9668 11.258h-0.0273l-1.9922-9.0293h1.8613v-2.2285h-6.666zm137.24 0v2.2285h1.8633v9.502h-1.8633v2.2305h6.9805v-2.2305h-1.627v-11.73h-5.3535zm-144.28 1.8359c1.995 0 2.6241 2.257 2.6504 3.832h-5.7207c0.1575-1.8375 0.86656-3.832 3.0703-3.832zm170.52 0c1.995 0 2.6241 2.257 2.6504 3.832h-5.7226c0.1575-1.8375 0.86726-3.832 3.0723-3.832zm-64.572 0.10352c2.6238 0 3.0195 3.2296 3.0195 5.2246 0 1.9938-0.6043 4.75-3.123 4.75-2.4675 0-3.2305-2.9134-3.2305-4.8809 0-1.1288 0.23805-2.2571 0.8418-3.4121 0.41875-0.8925 1.3622-1.6816 2.4922-1.6816zm-40.928 5.5664h1.6543c-0.08 2.0462-0.68352 4.4863-3.2285 4.4863-1.13 0-1.8379-0.86516-1.8379-1.9414 0-2.125 1.6284-2.5449 3.4121-2.5449zm-15.04 28.346v16.859h2.0898v-6.9336c0-0.4025 0.0238-0.71305 0.14258-0.99805 0.38-1.1388 1.449-2.0879 2.8027-2.0879 1.9712 0 2.6582 1.5655 2.6582 3.418v6.6016h2.0898v-6.8398c0-3.9638-2.4699-4.9141-4.0137-4.9141-0.78375 0-1.5192 0.2375-2.1367 0.59375-0.64125 0.3575-1.1636 0.88016-1.4961 1.4727h-0.0469v-7.1719h-2.0898zm-51.656 0.85352-1.1172 16.006h1.9727l0.42773-6.8633c0.1425-2.3975 0.2611-5.0805 0.3086-7.0742h0.0469c0.45125 1.8988 1.0928 3.9638 1.8516 6.2188l2.5879 7.623h1.5684l2.82-7.765c0.8075-2.185 1.4733-4.2031 2.0195-6.0781h0.0703c-0.0238 1.9938 0.11953 4.677 0.23828 6.9082l0.40234 7.0293h2.0176l-0.99609-16.006h-2.6367l-2.8496 7.7422c-0.7125 2.0175-1.2818 3.7749-1.6856 5.3887h-0.0723c-0.40375-1.6612-0.94828-3.4174-1.6133-5.3887l-2.7305-7.7422h-2.6367zm-10.664 1.7578-2.043 0.64062v2.1152h-1.7812v1.5898h1.7812v6.2695c0 1.3538 0.21484 2.3747 0.80859 2.9922 0.49875 0.57 1.2821 0.90039 2.2559 0.90039 0.8075 0 1.4485-0.14039 1.8535-0.30664l-0.09766-1.5684c-0.30875 0.095-0.63898 0.14258-1.209 0.14258-1.1638 0-1.5684-0.80742-1.5684-2.2324v-6.1973h2.9922v-1.5898h-2.9922v-2.7559zm98.123 0-2.041 0.64062v2.1152h-1.7832v1.5898h1.7832v6.2695c0 1.3538 0.21289 2.3747 0.80664 2.9922 0.5 0.57 1.2834 0.90039 2.2559 0.90039 0.8075 0 1.4478-0.14039 1.8516-0.30664l-0.0957-1.5684c-0.3075 0.095-0.63969 0.14258-1.2109 0.14258-1.1625 0-1.5664-0.80742-1.5664-2.2324v-6.1973h2.9922v-1.5898h-2.9922v-2.7559zm-107.74 2.493c-1.4488 0-2.8273 0.40398-3.7773 1.0215l0.47461 1.377c0.8075-0.5225 1.9234-0.85547 2.9922-0.85547 2.35 0 2.6113 1.7082 2.6113 2.6582v0.24023c-4.44-0.02375-6.9082 1.4947-6.9082 4.2734 0 1.6625 1.1862 3.2988 3.5137 3.2988 1.6387 0 2.8724-0.80453 3.5137-1.707h0.07227l0.16602 1.4473h1.9004c-0.1425-0.78375-0.19141-1.7564-0.19141-2.7539v-4.2988c0-2.3038-0.85344-4.7012-4.3672-4.7012zm41.953 0c-1.4488 0-2.8254 0.40398-3.7754 1.0215l0.47461 1.377c0.80625-0.5225 1.9234-0.85547 2.9922-0.85547 2.3512 0 2.6113 1.7082 2.6113 2.6582v0.24023c-4.4412-0.02375-6.9102 1.4947-6.9102 4.2734 0 1.6625 1.1874 3.2988 3.5137 3.2988 1.6388 0 2.8744-0.80453 3.5156-1.707h0.0723l0.16602 1.4473h1.9004c-0.1425-0.78375-0.19141-1.7564-0.19141-2.7539v-4.2988c0-2.3038-0.85414-4.7012-4.3691-4.7012zm12.928 0c-1.9 0-3.2301 1.0664-3.7988 2.1602h-0.0488l-0.11914-1.8984h-1.8516c0.0713 0.95125 0.0957 1.9219 0.0957 3.1094v8.3828h2.0898v-6.9102c0-0.35625 0.0469-0.71141 0.14063-0.97266 0.3575-1.1637 1.4265-2.1367 2.8027-2.1367 1.9712 0 2.6602 1.5433 2.6602 3.3945v6.625h2.0898v-6.8633c0-3.94-2.4693-4.8906-4.0605-4.8906zm34.408 0c-3.3488 0-5.3906 2.7298-5.3906 6.1973 0 3.4662 2.1136 5.8164 5.6523 5.8164 1.8288 0 3.088-0.40188 3.8242-0.73438l-0.35742-1.4961c-0.7825 0.3325-1.6854 0.59375-3.1816 0.59375-2.09 0-3.8952-1.164-3.9414-3.9902h8.0742c0.0238-0.21375 0.0703-0.54516 0.0703-0.97266 0-2.1138-0.99875-5.4141-4.75-5.4141zm10.314 0c-2.4688 0-3.9648 1.5186-3.9648 3.3711 0 1.3775 0.97406 2.5189 3.0391 3.2539 1.5438 0.57125 2.1387 1.1158 2.1387 2.1133 0 0.95-0.71312 1.709-2.2344 1.709-1.0438 0-2.1364-0.42758-2.7539-0.83008l-0.52148 1.5918c0.8075 0.475 1.9717 0.80469 3.2305 0.80469 2.73 0 4.2969-1.4461 4.2969-3.4648 0-1.7088-1.0206-2.7088-3.0156-3.4688-1.4962-0.56875-2.1856-0.99656-2.1856-1.9453 0-0.85625 0.68883-1.5684 1.9238-1.5684 1.07 0 1.9003 0.37977 2.3516 0.66602l0.52148-1.5195c-0.64125-0.38-1.6624-0.71289-2.8262-0.71289zm17.365 0c-3.3488 0-5.3926 2.7298-5.3926 6.1973 0 3.4662 2.1136 5.8164 5.6523 5.8164 1.8288 0 3.086-0.40188 3.8223-0.73438l-0.35547-1.4961c-0.7825 0.3325-1.6841 0.59375-3.1816 0.59375-2.09 0-3.8952-1.164-3.9414-3.9902h8.0742c0.0225-0.21375 0.0723-0.54516 0.0723-0.97266 0-2.1138-0.99875-5.4141-4.75-5.4141zm11.979 0c-1.4 0-2.6591 0.97383-3.1816 2.5176h-0.0957l-0.0703-2.2559h-1.8301c0.0712 1.0675 0.0957 2.2315 0.0957 3.584v7.9082h2.0664v-6.125c0-0.35625 0.0482-0.69031 0.0957-0.97656 0.28375-1.5662 1.327-2.6816 2.8008-2.6816 0.28375 0 0.49914 0.02602 0.71289 0.07227v-1.9727c-0.19-0.04875-0.35625-0.07031-0.59375-0.07031zm-61.701 0.02148c-3.7525 0-6.1738 2.566-6.1738 6.1035 0 3.515 2.2564 5.8887 5.7227 5.8887 1.5438 0 2.7545-0.40125 3.3008-0.6875l-0.35547-1.5684c-0.59375 0.26125-1.3782 0.57227-2.5644 0.57227-2.28 0-3.9883-1.6388-3.9883-4.2988 0-2.3975 1.4223-4.3477 4.0586-4.3477 1.1412 0 1.9251 0.26258 2.4238 0.54883l0.47461-1.6152c-0.57125-0.285-1.6622-0.5957-2.8984-0.5957zm21.877 1.4727c2.3512 0 2.9202 2.0665 2.8965 3.3965h-6.1035c0.1675-1.4475 1.0945-3.3965 3.207-3.3965zm27.678 0c2.3512 0 2.9215 2.0665 2.8965 3.3965h-6.1016c0.16625-1.4475 1.0926-3.3965 3.2051-3.3965zm-114.45 4.3945v1.9941c0 0.2125-0.04719 0.45352-0.11719 0.66602-0.33375 0.97375-1.283 1.9238-2.7793 1.9238-1.0687 0-1.9707-0.64234-1.9707-1.9961 0-2.2312 2.5884-2.6366 4.8672-2.5879zm41.955 0v1.9941c0 0.2125-0.0479 0.45352-0.11914 0.66602-0.3325 0.97375-1.2823 1.9238-2.7773 1.9238-1.07 0-1.9727-0.64234-1.9727-1.9961 0-2.2312 2.5892-2.6366 4.8691-2.5879z" transform="matrix(.8 0 0 -.8 0 72)" fill="#00359e"/><path d="m6.7559 8.2324v28.73c-0.005 7.69 1.9341 13.455 6.1016 18.148 3.6975 4.1612 8.543 8.6412 16.654 11.188v-19.689h6.1621v-11.951h4.8906v11.951h6.1484v-29.693h-6.2559v11.631h-4.8887v-11.631h-6.0566v-8.6836h-22.756z" transform="matrix(.8 0 0 -.8 0 72)" fill="#fff"/><path d="m9.845 34.713v23.754h5.326l3.607-10.521h0.067v10.521h4.764v-23.754h-5.163l-3.771 12.305h-0.065v-12.305h-4.765" fill="#00359e"/></g></g></svg>
