<?xml version="1.0" encoding="utf-8"?>
<!-- Generator: Adobe Illustrator 22.0.1, SVG Export Plug-In . SVG Version: 6.00 Build 0)  -->
<svg version="1.1" id="Layer_1" xmlns="http://www.w3.org/2000/svg" xmlns:xlink="http://www.w3.org/1999/xlink" x="0px" y="0px"
	 width="250.1px" height="209.32px" viewBox="0 0 250.1 209.32" enable-background="new 0 0 250.1 209.32" xml:space="preserve">
<g>
	<path fill="#00703C" d="M48.13,77.63c-12.36,0-18.42-1.54-21.31-2.81v-41.9H10.93V0.04h78.84l27.28,69.41
		c-17.44,2.87-32.33,5.28-35.27,5.65c-1.56,0.2-3.08,0.38-4.58,0.56l-12.1-31.32v32.52C58.81,77.37,53.14,77.63,48.13,77.63
		L48.13,77.63z M176.79,59.77l7.29-19.54v18.72c6.93-0.68,13.39-1.03,19.34-1.03c6.96,0,13.27,0.47,18.93,1.39v-26.4h15.9V0.04
		H159.7l-25.9,66.65c11.91-1.97,23.66-3.93,32.59-5.42C169.95,60.7,173.42,60.2,176.79,59.77 M112.39,166.78h24.48l10.97-29.42
		c-12.72,2.07-29.28,4.81-44.02,7.25L112.39,166.78z M26.82,149.76v25.97H10.95v33.55h70v-33.57H65.09v-25.34
		c-6.57,0.62-12.73,0.94-18.4,0.94C39.35,151.31,32.72,150.79,26.82,149.76 M184.07,132.45v43.27h-15.94v33.57h70.1v-33.57h-15.89
		v-41.67c-3.2-1.18-9.22-2.44-20.39-2.44C196.71,131.61,190.72,131.89,184.07,132.45 M249.56,87.21c0,0,1.32-32.34-82-18.94
		c0,0-77.43,12.93-84.9,13.88c-87.42,11.07-62-17.13-62-17.13S0.05,69.82,0.05,85.84c0,1.81,0.49,36.18,0.49,36.18
		s-1.32,32.35,82,18.94c0,0,77.43-12.93,84.9-13.88c87.42-11.07,61.99,17.13,61.99,17.13s20.62-4.81,20.62-20.83
		C250.05,121.58,249.56,87.21,249.56,87.21"/>
	<path fill="#FFFFFF" d="M79.61,128.6c-0.05,0-7.54,0.75-11.78,1.05c0.34-0.02,2.03-0.71,2.05-2.34c0.01-0.71-2.09-5.6-2.63-6.91
		c-0.07-0.05-14.62,0.33-14.7,0.36c-0.54,1.26-1.08,2.44-1.62,3.7c-0.52,1.19-0.9,2.73-0.9,3.44c0,1.95,1.72,2.2,2.12,2.38
		c-0.09-0.04-11.94,0.04-12.07,0.08c0.39,0.01,3.35-1.8,5.78-7.13c4.09-8.87,8.19-18.28,12.29-27.53c1.6-0.01,3.2-0.04,4.81-0.1
		c3.87,9.13,7.74,18.41,11.62,27.23C76.78,127.96,79.17,128.61,79.61,128.6 M60.11,103.26c-2.03,4.72-4.07,9.48-6.1,14.12
		c-0.03,0.05,11.8-0.31,11.85-0.29C63.94,112.5,62.02,107.94,60.11,103.26 M96.76,127.41c6.28-1.44,9.49-5.59,8.95-11.62
		c-0.53-5.82-5.79-8.2-10.81-9.34c-4.01-0.93-7.57-1.89-7.65-5.11c-0.06-2.56,2.18-4.98,6.15-5.78c5.08-1.02,8.23,1.83,9.39,3.62
		c-0.05-2.36,0.02-4.73-0.04-7.1c-1.87-0.86-5.88-0.98-9.27-0.56c-8.19,1.02-12.35,5.74-11.79,12.06c0.38,4.29,4.14,6.65,8.27,7.82
		c4.69,1.34,9.59,1.96,9.69,6.1c0.07,3.01-3.2,5.68-6.76,6.12c-4.52,0.55-8.34-0.26-10.93-5.36c0.06,2.84,0.01,8.89,0.05,8.89
		C86.66,127.93,91.71,128.74,96.76,127.41 M220.61,114.53c6.76-0.07,9.9-3.13,9.76-9.25c-0.14-6.19-5.76-9.62-10.76-11.96
		c-3.99-1.89-7.53-3.71-7.61-6.96c-0.06-2.58,2.17-4.48,6.12-4.33c5.06,0.18,8.19,3.81,9.35,5.9c-0.06-2.39,0.02-4.78-0.04-7.17
		c-1.87-1.31-5.89-2.63-9.23-2.76c-6.95-0.24-11.89,2.95-11.74,9.3c0.11,4.96,4.12,7.66,8.22,9.83c4.67,2.46,9.55,4.26,9.64,8.44
		c0.07,3.04-3.23,4.68-6.73,4.53c-4.5-0.19-8.3-2.28-10.88-8.01c0.06,2.87-0.02,6.11,0.05,8.98
		C209.37,112.9,216.1,114.75,220.61,114.53 M124.92,107.46c-1.96,0.49-4.06,0.72-5.18,0.7c0.07,2.84-0.02,5.27,0.04,8.11
		c0.11,4.46,2.55,4.91,3.11,4.82c-3.81,0.95-7.63,1.9-11.44,2.82c0.45-0.15,2.44-1.63,2.33-6.19c-0.19-7.79,0.06-15.57-0.12-23.36
		c-0.11-4.61-2.8-4.57-3.3-4.55c5.09-1.23,9.46-2.33,14.56-3.6c7.75-1.93,12.54,1.98,12.67,7.2
		C137.72,99.17,133.35,105.36,124.92,107.46 M123.84,90.05c-1.52,0.38-2.76,0.76-4.28,1.14c0.1,4.33-0.04,8.65,0.07,12.97
		c1.07,0.04,2.92-0.17,4.76-0.63c4.63-1.15,7.18-4.73,7.09-8.58C131.39,91.19,128.69,88.84,123.84,90.05 M167.61,113.09
		c-0.07,0,0.08-8.14-0.04-8.16c-1.73,3.59-3.29,4.95-8.26,5.76c-2.73,0.46-5.16,0.89-7.89,1.43c-0.09-3.92,0.03-7.84-0.06-11.76
		c2.2-0.43,4.29-0.84,6.5-1.22c3.9-0.66,4.26,0.82,4.32,0.96c-0.05-2.31,0.02-4.63-0.04-6.94c-0.11,0.32-0.76,1.77-4.49,2.4
		c-2.16,0.37-4.44,0.78-6.6,1.21c-0.09-3.75,0.03-7.5-0.06-11.25c2.58-0.51,5.05-0.98,7.63-1.42c4.58-0.76,5.68,0.94,6.53,3
		c-0.06-2.52,0.02-5.03-0.04-7.55c-7.86,1.1-15.78,2.64-23.62,4.38c0.51-0.01,3.28-0.01,3.39,4.55c0.19,7.7-0.06,15.41,0.12,23.11
		c0.12,4.91-1.97,5.87-2.36,6.01C150.68,115.82,159.56,114.18,167.61,113.09 M193.68,111.51c-2.39-3.78-4.77-7.5-7.15-11.16
		c-1.45-2.19-2.54-3.01-4.21-2.92c-0.32,0.02-0.55,0.04-0.87,0.05c0.07,3.05-0.02,6.1,0.05,9.15c0.11,4.47,2.33,4.95,2.89,4.98
		c-3.78,0.17-7.56,0.5-11.33,0.95c0.45-0.11,2.45-0.86,2.34-5.42c-0.19-7.79,0.05-15.6-0.14-23.39c-0.11-4.63-2.86-4.96-3.36-4.99
		c4.76-0.57,9.53-0.95,14.3-1.08c8-0.19,11.61,4.62,11.8,9.46c0.15,3.75-1.97,8.29-8.37,9.3c1.02-0.16,1.99,1.42,2.92,2.86
		c1.96,2.98,3.92,6,5.88,9.07c1.92,2.96,4.28,3.54,5.02,3.78C200.18,111.79,196.92,111.59,193.68,111.51 M185.1,81.27
		c-1.4,0.05-2.46,0.11-3.85,0.2c0.11,4.24-0.03,8.48,0.07,12.71c1.4-0.09,2.7-0.16,4.09-0.21c5.37-0.16,7.37-3.14,7.28-6.51
		C192.61,84.28,190.02,81.11,185.1,81.27 M42.44,95.31c0.01-0.01-12.28-1.37-12.28-1.37s4.01,1.82,3.93,7.17
		c0.15,6.36,0.23,9.7,0.28,16.06c0.06,8.03-4.89,8.75-8.55,7.57c-2.56-0.83-3.75-2.35-4.99-4.97l0.05,7.65
		c1.07,0.85,2.7,1.67,4.24,2.04c11.67,2.81,14.81-5.67,14.8-10.66c-0.15-6.23-0.18-12.26-0.33-18.5
		C39.51,97.21,42.44,95.31,42.44,95.31"/>
</g>
</svg>
