<?xml version="1.0" encoding="utf-8"?>
<!-- Generator: Adobe Illustrator 20.1.0, SVG Export Plug-In . SVG Version: 6.00 Build 0)  -->
<svg version="1.1" id="Layer_1" xmlns="http://www.w3.org/2000/svg" xmlns:xlink="http://www.w3.org/1999/xlink" x="0px" y="0px"
	 viewBox="0 0 256 44.9" style="enable-background:new 0 0 256 44.9;" xml:space="preserve">
<style type="text/css">
	.st0{fill:#EE2528;}
	.st1{fill:#4B5051;}
</style>
<path class="st0" d="M22.4,8.5c-1.9-1.7-4.6-2.7-7.1-2.7c-6,0-10.6,5.1-10.7,11.1c0,6,4.5,11.1,10.5,11.1c2.6,0,5.2-1,7.2-2.8l0,4
	c-2.1,1.2-4.7,1.9-7.1,1.9c-7.7,0-14-6.3-13.9-14.2C1.4,9,7.8,2.7,15.7,2.7c2.4,0,4.7,0.6,6.8,1.9L22.4,8.5z"/>
<polygon class="st0" points="26.7,3.3 41.1,3.4 41.1,6.5 30,6.5 30,14.1 40.7,14.2 40.7,17.3 30,17.2 29.9,27.6 41,27.6 41,30.7 
	26.5,30.7 "/>
<polygon class="st0" points="45.2,2.1 65.2,23.7 65.3,3.5 68.7,3.5 68.5,32 48.5,10.4 48.4,30.8 45,30.8 "/>
<polygon class="st0" points="80.8,30.9 77.5,30.9 77.6,6.7 71.2,6.6 71.2,3.5 87.3,3.6 87.3,6.7 80.9,6.7 "/>
<path class="st0" d="M93.5,16.6l1.1,0c3.4,0,7.1-0.6,7.1-5c0-4.3-4-4.9-7.3-4.9l-0.9,0L93.5,16.6z M106.8,31l-4.1,0l-7.8-11.6
	l-1.4,0L93.4,31l-3.4,0l0.1-27.3l4.1,0c2.4,0,4.9,0.1,7.1,1.3c2.2,1.4,3.5,3.9,3.5,6.5c0,3.9-2.6,7.2-6.5,7.6L106.8,31z"/>
<path class="st0" d="M119.7,10l-4.8,11l9.5,0L119.7,10z M113.5,24.2l-3.1,6.8l-3.6,0l13-28.5l12.7,28.6l-3.6,0l-3-6.9L113.5,24.2z"
	/>
<polygon class="st0" points="138.3,28 146.5,28 146.5,31.2 135,31.1 135.1,3.8 138.5,3.8 "/>
<path class="st1" d="M181.9,18.5l-11.8,0l0,2.5l9.4,0c-0.2,3-1.1,5.1-3.1,6.9c-2.3,2-4.9,3-7.5,3c-6.3,0-11.5-5.8-11.5-12.6
	c0-6.7,5.5-12.5,11.6-12.5c4,0,7.4,2.1,9.8,6l0.2,0.4l2-1.7l-0.2-0.3c-3-4.5-7-6.8-11.7-6.9c-7.8,0-14.1,6.7-14.2,15.1
	c0,8.1,6.3,14.9,13.8,14.9c3.9,0,7.7-1.7,10.3-4.7c2.6-3.1,2.9-6.6,2.9-9.7L181.9,18.5z"/>
<path class="st1" d="M192.7,14.4c-1.3,0-2.4,0.6-3.2,1.6l0-1.3l-2.3,0L187.1,33l2.3,0l0.1-9.3c0-0.1,0-0.3,0-0.4
	c0-1.8,0-4.6,1.2-5.9c0.4-0.4,1-0.7,1.7-0.7c0.3,0,0.6,0.1,0.9,0.3l0.3,0.2l1.2-2.2l-0.4-0.2C193.9,14.5,193.3,14.4,192.7,14.4"/>
<path class="st1" d="M206,16.8c3.8,0,6.6,3.1,6.6,7.2c0,4-3,7.1-6.7,7.1c-3.5,0-6.3-3.2-6.3-7.1C199.7,20,202.5,16.8,206,16.8
	 M206.1,14.5c-4.8,0-8.8,4.2-8.8,9.5c0,5.2,3.9,9.5,8.7,9.5c2.4,0,4.6-0.9,6.3-2.7c1.7-1.8,2.6-4.2,2.6-6.7c0-2.6-0.9-5-2.5-6.8
	C210.8,15.4,208.5,14.5,206.1,14.5"/>
<path class="st1" d="M229.8,25.2c0,3.9-0.6,6-3.9,6c-3.2,0-3.8-2.1-3.8-6l0.1-10.2l-2.3,0l-0.1,11c0,1.7,0,3.5,1,5.1
	c1.1,1.6,3,2.5,5.1,2.5c2.1,0,4-0.9,5.1-2.5c1.1-1.5,1.1-3.3,1.1-5.1l0.1-11l-2.3,0L229.8,25.2z"/>
<path class="st1" d="M246.8,31.2c-3.6,0-6-2.8-6-6.8c0-3.6,1.9-7.5,6-7.5c3.9,0,5.9,3.8,5.9,7.3C252.7,28.3,250.1,31.3,246.8,31.2
	 M252.9,17.5c-1.5-1.9-3.6-2.9-6.1-2.9c-2.3,0-4.5,1-5.8,2.7l0-2.4l-2.3,0l-0.1,27.7h2.3l0-11.8c1.4,1.7,3.5,2.7,5.9,2.7
	c4.9,0,8.3-3.8,8.3-9.3C255,21.7,254.3,19.2,252.9,17.5"/>
<g>
</g>
<g>
</g>
<g>
</g>
<g>
</g>
<g>
</g>
<g>
</g>
<g>
</g>
<g>
</g>
<g>
</g>
<g>
</g>
<g>
</g>
<g>
</g>
<g>
</g>
<g>
</g>
<g>
</g>
</svg>
