<?xml version="1.0" encoding="UTF-8" standalone="no"?>
<svg xmlns:rdf="http://www.w3.org/1999/02/22-rdf-syntax-ns#" xmlns="http://www.w3.org/2000/svg" xml:space="preserve" height="52.126" viewBox="0 0 143.05355 52.125649" width="143.05" version="1.1" xmlns:cc="http://creativecommons.org/ns#" xmlns:xlink="http://www.w3.org/1999/xlink" xmlns:dc="http://purl.org/dc/elements/1.1/"><g transform="matrix(1.25 0 0 -1.25 -604.43 946.28)"><g transform="translate(.94026 .80594)"><path d="m64.881 0.0039062c-35.76 0.22744-64.4 8.8926-64.873 20.939-0.49 12.488 23.078 22.958 41.318 25.588 0 0-25.71-5.8757-25.465-17.627 0.2375-11.325 25.955-20.817 59.994-21.307 26.265-0.3781 46.225 4.409 58.895 10.999-10.23-11.789-33.25-17.785-62.629-18.524-2.441-0.061062-4.856-0.083256-7.24-0.068094zm72.369 21.781c4.0438 14.399-22.826 26.341-65.248 28.236 38.32 1.2262 68.75-8.6172 69.051-20.461 0.075-2.92-0.66899-4.5279-3.8027-7.7754z" transform="matrix(.8 0 0 -.8 483.54 755.43)"/><path d="m61.863 17.943c0.1325 0.29375 0.12938 0.42195-0.04687 1.127l-1.002 4.0176c-0.17625 0.705-0.23688 0.83125-0.51562 1.125h1.5098c-0.1325-0.29375-0.13133-0.42 0.04492-1.125l0.95117-3.8125h0.01953l0.45312 4.9375h1.6562l2.9648-4.9375h0.01953l-0.96289 3.8613c-0.14875 0.5975-0.28484 0.83117-0.46484 1.0762h2.793c-0.06625-0.245-0.08625-0.47867 0.0625-1.0762l1.0273-4.1152c0.14875-0.5975 0.28391-0.83312 0.47266-1.0781h-3.2031l-2.1602 3.5566h-0.01953l-0.30859-3.5566h-3.291zm-32.137 0.16602c-0.8425 0-1.4496 0.50828-1.6934 1.4883l-0.349 1.403c-0.26125 1.0475 0.03242 1.3613 0.98242 1.3613h1.9512c0.37125 0 0.43711 0.04914 0.38086 0.27539l-0.10742 0.42969c-0.0575 0.23625-0.14703 0.27539-0.51953 0.27539h-2.3125c-0.47 0-0.67586-0.11883-0.88086-0.23633l-0.11133 1.2734h4.3105c1.1462 0 1.6366-0.54711 1.8828-1.5371l0.382-1.529c0.2275-0.91-0.2332-1.2637-1.252-1.2637h-1.6953c-0.3725 0-0.45008-0.03844-0.39258-0.27344l0.08789-0.35352c0.05625-0.22625 0.1568-0.27539 0.5293-0.27539h2.2227c0.46 0 0.65742 0.07953 0.91992 0.20703l0.10547-1.2441h-4.4395zm12.629 0-0.30274 1.2148h2.2734l0.30273-1.2148h-2.2734zm46.822 0-0.30273 1.2148h2.2734l0.30273-1.2148h-2.2734zm10.502 0-0.4082 1.6465h0.8711l-1.0039 1.3125h0.83398l1.6465-1.4609 0.37305-1.498h-2.3125zm-44.312 0.66602-2.3262 0.05859-0.23633 0.93945h-0.98828l-0.22461 0.90234h0.99023l-0.56641 2.2637c-0.285 1.1462 0.27867 1.4395 1.0137 1.4395h2.9004l0.41602-1.0781c-0.12 0.04875-0.42766 0.17774-0.87891 0.17774h-0.8125c-0.41125 0-0.44094-0.0793-0.36719-0.37305l0.60547-2.4297h1.8418l0.22656-0.90234h-1.8438l0.25-0.99805zm30.852 0-2.3262 0.05859-0.23438 0.93945h-0.99023l-0.22461 0.90234h0.99024l-0.56445 2.2637c-0.28625 1.1462 0.27672 1.4395 1.0117 1.4395h2.9004l0.41602-1.0781c-0.12 0.04875-0.4257 0.17774-0.87695 0.17774h-0.8125c-0.41125 0-0.44164-0.0793-0.36914-0.37305l0.60547-2.4297h1.8438l0.22461-0.90234h-1.8418l0.24805-0.99805zm-51.068 0.99805-0.43945 1.0977c0.30875-0.1375 0.53945-0.19531 0.9707-0.19531h2.3008c0.32375 0 0.36961 0.08867 0.31836 0.29492-0.05375 0.215-0.14109 0.29297-0.46484 0.29297h-2.1055c-1.0388 0-1.4409 0.43062-1.6797 1.3906l-0.08398 0.33398c-0.23875 0.96-0.05242 1.3906 0.98633 1.3906h1.6445c0.6275 0 0.84836-0.09727 1.0684-0.50976h0.01953l-0.0078 0.50976h2.3105c-0.09-0.18625-0.12726-0.39133-0.0098-0.86133l0.50195-2.0078c0.315-1.265-0.0097-1.7363-1.1172-1.7363h-4.2129zm6.5156 0c0.07875 0.23625 0.14898 0.42234-0.0098 1.0586l-0.61914 2.4902c-0.15875 0.63625-0.32453 0.82164-0.51953 1.0566h2.8223c-0.07875-0.235-0.15094-0.42039 0.0078-1.0566l0.88477-3.5488h-2.5664zm3.3008 0c0.07875 0.235 0.15094 0.42305-0.0078 1.0605l-0.62109 2.4863c-0.15875 0.6375-0.32133 0.82359-0.51758 1.0586h2.8203c-0.0775-0.235-0.15023-0.42109 0.0098-1.0586l0.56445-2.2617c0.07125-0.28375 0.19281-0.38281 0.47656-0.38281h0.84375c0.28375 0 0.35641 0.09906 0.28516 0.38281l-0.5625 2.2617c-0.15875 0.6375-0.32328 0.82359-0.51953 1.0586h2.8223c-0.0775-0.235-0.14898-0.42109 0.0098-1.0586l0.46484-1.8711c0.25625-1.0288-0.03289-1.6758-1.1191-1.6758h-1.8711c-0.34375 0-0.55055 0.24547-0.7168 0.48047h-0.02148l0.05273-0.48047h-2.3926zm26.475 0l-0.443 1.098c0.30875-0.1375 0.53945-0.19531 0.9707-0.19531h2.3027c0.3225 0 0.36766 0.08867 0.31641 0.29492-0.05375 0.215-0.14109 0.29297-0.46484 0.29297h-2.1055c-1.0388 0-1.4409 0.43062-1.6797 1.3906l-0.08203 0.33398c-0.23875 0.96-0.05437 1.3906 0.98438 1.3906h1.6465c0.6275 0 0.84711-0.09727 1.0684-0.50976h0.01953l-0.01172 0.50976h2.3125c-0.09-0.18625-0.12727-0.39133-0.0098-0.86133l0.50195-2.0078c0.315-1.265-0.0097-1.7363-1.1172-1.7363h-4.2109zm6.4766 0c0.0775 0.235 0.14898 0.42305-0.0098 1.0605l-0.62109 2.4863c-0.15875 0.6375-0.32133 0.82359-0.51758 1.0586h2.8203c-0.07875-0.235-0.14774-0.42109 0.0098-1.0586l0.36914-1.4785c0.15625-0.6275 0.37195-0.7832 1.2832-0.7832 0.68625 0 0.76727 0.05836 1.0098 0.22461l0.37695-1.5098h-1.127c-0.715 0-1.0086 0.19734-1.3711 0.74609h-0.01953l0.10742-0.74609h-2.3105zm10.57 0c0.07875 0.23625 0.14898 0.42234-0.0098 1.0586l-0.61914 2.4902c-0.15875 0.63625-0.32453 0.82164-0.51953 1.0566h2.8223c-0.07875-0.235-0.14898-0.42039 0.0098-1.0566l0.88281-3.5488h-2.5664zm3.3027 0c0.07875 0.235 0.14773 0.42305-0.0098 1.0605l-0.62109 2.4863c-0.15875 0.6375-0.32133 0.82359-0.51758 1.0586h2.8203c-0.0775-0.235-0.14898-0.42109 0.0098-1.0586l0.56445-2.2617c0.07125-0.28375 0.19281-0.38281 0.47656-0.38281h0.84375c0.28375 0 0.35711 0.09906 0.28711 0.38281l-0.56445 2.2617c-0.15875 0.6375-0.32328 0.82359-0.51953 1.0586h2.8223c-0.07875-0.235-0.14898-0.42109 0.0098-1.0586l0.46484-1.8711c0.25625-1.0288-0.03164-1.6758-1.1191-1.6758h-1.8711c-0.3425 0-0.5525 0.24547-0.71875 0.48047h-0.01953l0.05078-0.48047h-2.3887zm12.227 0.002c-0.8825 0-1.5789 0.46883-1.7539 1.1738l-0.2207 0.89258c-0.1125 0.56875-0.0802 1.1074 0.97851 1.1074h2.0078c0.235 0 0.28968 0.05789 0.24218 0.24414l-0.0234 0.09766c-0.0463 0.18625-0.13024 0.24609-0.36524 0.24609h-1.9512c-0.8125 0-1.0006-0.06742-1.373-0.26367l-0.0996 1.1055h4.291c1.0288 0 1.5373-0.62734 1.6836-1.2148l0.23047-0.91992c0.11-0.55875 0.077-1.0977-0.98047-1.0977h-1.998c-0.225 0-0.29969-0.05851-0.27344-0.16602l0.0488-0.19727c0.0275-0.1075 0.13047-0.16602 0.35547-0.16602h1.793c0.53875 0 1.1656 0.07844 1.2969 0.30469l0.0879-1.1465h-3.9766zm-67.043 2.3906h1.0293l-0.16406 0.65625c-0.14625 0.5875-0.21305 0.65625-0.6543 0.65625h-0.53906c-0.35-0.01-0.47508-0.05883-0.39258-0.39258l0.13281-0.5293c0.0825-0.3325 0.23289-0.38188 0.58789-0.39062zm36.289 0h1.0293l-0.16406 0.65625c-0.14625 0.5875-0.21109 0.65625-0.65234 0.65625h-0.53906c-0.35-0.01-0.47508-0.05883-0.39258-0.39258l0.13281-0.5293c0.08375-0.3325 0.23094-0.38188 0.58594-0.39062zm-44.688 4.8301c-2.3712 0-4.0801 1.4339-4.7676 4.1914l-0.98438 3.9434c-0.735 2.95 0.09383 3.832 2.7676 3.832h5.4863c1.0475 0 1.2337 0.13648 1.0762 0.77148l-0.30274 1.2129c-0.165 0.66125-0.41344 0.77344-1.4609 0.77344h-6.5078c-1.3238 0-1.9017-0.33086-2.4805-0.66211l-0.31445 3.584h12.131c3.2262 0 4.6031-1.5431 5.2969-4.3281l1.0742-4.3008c0.63875-2.5638-0.65789-3.5566-3.5254-3.5566h-4.7695c-1.0475 0-1.2666-0.11094-1.1016-0.77344l0.24609-0.99219c0.1575-0.635 0.44078-0.77148 1.4883-0.77148h6.2578c1.2962 0 1.8491 0.21938 2.5879 0.57812l0.29297-3.502h-12.49zm21.088 0 0.52539 0.99219-9.7812 13.457c-0.97125 1.35-1.4255 1.8473-2.8105 3.1973h4.9902c-0.20625-0.60625-0.21961-0.66203-0.06836-1.2695 0.08875-0.3575 0.26227-0.71562 0.50977-1.0469l1.791-2.4258h7.7461l0.40234 2.2598c0.06875 0.38625 0.02172 0.91047-0.08203 1.3242-0.09625 0.385-0.17883 0.49695-0.67383 1.1582h8.8496c-0.44125-0.66125-0.7807-1.5158-0.93945-2.4258l-2.4902-15.221h-7.9688zm16.182 0c0.16 0.69 0.21492 1.3507-0.20508 3.0332l-2.8867 11.58c-0.42 1.6825-0.80484 2.3432-1.3086 3.0332h7.8301c-0.16-0.69-0.21492-1.3507 0.20508-3.0332l2.8887-11.58c0.42-1.6825 0.80484-2.3432 1.3086-3.0332h-7.832zm9.5605 0c0.3725 0.8275 0.36414 1.1869-0.13086 3.1719l-2.8184 11.303c-0.495 1.985-0.66617 2.3456-1.4512 3.1719h4.2461c-0.37375-0.82625-0.36609-1.1869 0.12891-3.1719l2.8535-11.441h0.05469l3.6348 14.613h8.7109l3.6113-14.475c0.49625-1.985 0.66812-2.3444 1.4531-3.1719h-4.2461c0.37375 0.8275 0.36734 1.1869-0.12891 3.1719l-2.7988 11.221h-0.08203l-3.5801-14.393h-9.457zm21.67 0-1.457 3.6406c0.86-0.46875 1.4462-0.7168 2.6875-0.7168h3.0586l-2.916 11.689c-0.41875 1.6825-0.80414 2.3432-1.3066 3.0332h7.8301c-0.15875-0.69-0.21368-1.3507 0.20507-3.0332l2.916-11.689h3.0606c1.24 0 1.7026 0.24805 2.3301 0.7168l0.35546-3.6406h-16.764zm22.246 0c-2.3712 0-4.0788 1.4339-4.7676 4.1914l-0.98242 3.9434c-0.73625 2.95 0.0919 3.832 2.7656 3.832h5.4883c1.0475 0 1.233 0.13648 1.0742 0.77148l-0.30078 1.2129c-0.165 0.66125-0.41539 0.77344-1.4629 0.77344h-6.5059c-1.3225 0-1.9037-0.33086-2.4824-0.66211l-0.3125 3.584h12.131c3.225 0 4.6019-1.5431 5.2969-4.3281l1.0723-4.3008c0.64-2.5638-0.65594-3.5566-3.5234-3.5566h-4.7695c-1.0475 0-1.2685-0.11094-1.1035-0.77344l0.24805-0.99219c0.1575-0.635 0.43953-0.77148 1.4883-0.77148h6.2578c1.2962 0 1.8497 0.21938 2.5859 0.57812l0.29492-3.502h-12.492zm-68.207 4.0254 1.0234 5.9551h-5.2109l4.1875-5.9551z" transform="matrix(.8 0 0 -.8 483.54 755.43)" stroke="#bf0c26" stroke-width="0.3" fill="#bf0c26"/></g></g></svg>
