<?xml version="1.0" encoding="UTF-8" standalone="no"?>
<svg xmlns:rdf="http://www.w3.org/1999/02/22-rdf-syntax-ns#" xmlns="http://www.w3.org/2000/svg" version="1.1" xmlns:cc="http://creativecommons.org/ns#" xmlns:xlink="http://www.w3.org/1999/xlink" viewBox="0 0 182.07 108.31" xmlns:dc="http://purl.org/dc/elements/1.1/">
 <path fill="#609" d="m154.04 0.93152v9.2266h3.5098c3.186-0.08627 4.531 1.3608 4.418 3.9648v47.635c-0.52276 10.356-6.5311 17.465-18.846 17.285-12.248-0.11432-17.786-6.6672-18.002-18.455v-14.492h6.7598c4.1426-0.17692 4.2138 1.5077 4.1582 3.25v11.773h10.139l-0.13086-27.24h-20.926v-19.625c-0.059-4.0652 2.2405-4.0921 4.5508-4.0957h2.4688v-9.0332l-35.223-0.12891v9.0977h4.2246c2.5087-0.08889 3.8396 1.1885 3.7695 3.4453v20.34h-46.779v-21.752h20.979c4.0527-0.25573 3.8983 1.4687 3.9004 3.1191v10.445h11.162v-24.648h-93.105v25.152h11.055v-11.162c0.02445-2.7395 1.154-2.8009 4.3418-2.7832h21.316l0.0957 21.629h-18.812l-0.12891 27.293h11.178l-0.13086-11.438c-0.03993-3.4313 2.3315-3.7096 4.6797-3.6387h3.2695l0.10938 24.305c0.36756 4.281-2.4977 6.9065-8.9902 6.5312l-0.0918 8.1777h37.936v-7.9492c-3.9825-0.0696-8.8496-1.5497-8.7617-6.5v-24.564h13.83v45.361c0.01727 2.8801-0.71422 6.7498-7.1484 6.5742l-6.7578 0.0527-0.0078 9.1582 49.084-0.0371v-9.1211h-6.4453c-4.2517 0.15495-8.8541-1.0718-8.5781-7.2773v-44.711h12.803v17.936c-0.2387 18.213 18.573 27.25 35.482 27.035 19.501 0.01955 33.393-6.9919 33.727-24.436v-53.092c-0.0612-3.2436 1.8904-3.5621 4.0293-3.5098h2.9902v-9.0977h-27.1z"/>
</svg>
