<?xml version="1.0" encoding="utf-8"?>
<!-- Generator: Adobe Illustrator 15.1.0, SVG Export Plug-In . SVG Version: 6.00 Build 0)  -->
<!DOCTYPE svg PUBLIC "-//W3C//DTD SVG 1.0//EN" "http://www.w3.org/TR/2001/REC-SVG-20010904/DTD/svg10.dtd">
<svg version="1.0" id="Layer_1" xmlns="http://www.w3.org/2000/svg" xmlns:xlink="http://www.w3.org/1999/xlink" x="0px" y="0px"
	 width="300.001px" height="63.899px" viewBox="0 0 300.001 63.899" enable-background="new 0 0 300.001 63.899"
	 xml:space="preserve">
<g>
	<path fill-rule="evenodd" clip-rule="evenodd" fill="#EB3D00" d="M48.118,14.079H32.027v26.768c0,5.26,0,12.377-8.819,12.377
		c-7.117,0-7.117-7.117-7.117-12.377V14.079H0v28.468c0,14.234,7.118,21.352,23.208,21.352c16.091,0,24.91-7.118,24.91-21.352"/>
	<path fill-rule="evenodd" clip-rule="evenodd" fill="#00A6B1" d="M51.676,63.899h17.947V37.287c0-5.414,0-12.532,7.118-12.532
		c7.117,0,7.117,7.118,7.117,12.532v26.612h16.091v-30.17c0-14.234-7.118-21.351-23.208-21.351
		c-16.091,0-25.065,7.117-25.065,21.351"/>
	<rect x="105.365" y="14.079" fill="#00A6B1" width="16.09" height="49.82"/>
	<path fill-rule="evenodd" clip-rule="evenodd" fill="#00A6B1" d="M153.481,14.079h-10.675V0h-16.09v46.107
		c0,14.234,3.558,17.792,17.947,17.792c3.558,0,5.261,0,8.818,0V51.521c-1.702,0-3.558,0-5.26,0c-1.856,0-5.415,0-5.415-5.414
		V24.755h10.675"/>
	<path fill-rule="evenodd" clip-rule="evenodd" fill="#00A6B1" d="M166.012,33.729c1.858-5.416,5.417-8.974,10.833-8.974
		c5.258,0,8.819,3.558,10.675,8.974 M203.609,42.547c0-15.935-8.973-30.169-26.764-30.169c-14.389,0-26.922,10.675-26.922,26.611
		c0,16.091,12.533,24.91,26.922,24.91c12.375,0,23.208-3.558,24.91-15.937H187.52c-1.855,3.558-5.417,5.261-8.973,5.261
		c-7.118,0-10.677-3.558-12.535-10.676H203.609z"/>
	<path fill-rule="evenodd" clip-rule="evenodd" fill="#00A6B1" d="M251.727,31.873c0-12.378-12.374-19.495-23.208-19.495
		c-16.091,0-26.764,12.377-26.764,26.611c0,16.091,10.673,24.91,26.764,24.91c12.533,0,23.208-7.118,23.208-19.495h-14.233
		c-1.858,5.261-3.558,8.819-8.975,8.819c-7.116,0-10.675-7.117-10.675-14.234c0-5.26,1.856-14.234,10.675-14.234
		c3.561,0,7.116,3.558,7.116,7.118"/>
	<path fill-rule="evenodd" clip-rule="evenodd" fill="#00A6B1" d="M251.727,63.899h16.092V37.287c0-5.414,1.858-10.675,8.975-10.675
		c8.975,0,7.116,7.117,7.116,12.377v24.91h16.092V31.873c0-7.118,0-19.495-17.794-19.495c-5.414,0-12.53,3.559-14.389,8.819V0
		h-16.092"/>
</g>
</svg>
