<?xml version="1.0" encoding="UTF-8" standalone="no"?>
<!-- Created with Inkscape (http://www.inkscape.org/) -->

<svg
   xmlns:dc="http://purl.org/dc/elements/1.1/"
   xmlns:cc="http://creativecommons.org/ns#"
   xmlns:rdf="http://www.w3.org/1999/02/22-rdf-syntax-ns#"
   xmlns:svg="http://www.w3.org/2000/svg"
   xmlns="http://www.w3.org/2000/svg"
   xmlns:sodipodi="http://sodipodi.sourceforge.net/DTD/sodipodi-0.dtd"
   xmlns:inkscape="http://www.inkscape.org/namespaces/inkscape"
   width="127.05253"
   height="49.578671"
   viewBox="0 0 33.615981 13.11769"
   version="1.1"
   id="svg4156"
   inkscape:version="0.92.0 r15299"
   sodipodi:docname="ross.svg">
  <defs
     id="defs4150">
    <clipPath
       id="clipPath2029"
       clipPathUnits="userSpaceOnUse">
      <path
         inkscape:connector-curvature="0"
         id="path2027"
         d="m 181.936,392.2 h 94.54 v 36.434 h -94.54 z" />
    </clipPath>
    <clipPath
       id="clipPath1929"
       clipPathUnits="userSpaceOnUse">
      <path
         inkscape:connector-curvature="0"
         id="path1927"
         d="m 181.936,392.2 h 94.54 v 36.434 h -94.54 z" />
    </clipPath>
  </defs>
  <sodipodi:namedview
     id="base"
     pagecolor="#ffffff"
     bordercolor="#666666"
     borderopacity="1.0"
     inkscape:pageopacity="0.0"
     inkscape:pageshadow="2"
     inkscape:zoom="6.3624268"
     inkscape:cx="63.026265"
     inkscape:cy="24.289333"
     inkscape:document-units="mm"
     inkscape:current-layer="layer1"
     showgrid="false"
     fit-margin-top="0"
     fit-margin-left="0"
     fit-margin-right="0"
     fit-margin-bottom="0"
     units="px"
     inkscape:window-width="1280"
     inkscape:window-height="744"
     inkscape:window-x="-4"
     inkscape:window-y="-4"
     inkscape:window-maximized="1" />
  <metadata
     id="metadata4153">
    <rdf:RDF>
      <cc:Work
         rdf:about="">
        <dc:format>image/svg+xml</dc:format>
        <dc:type
           rdf:resource="http://purl.org/dc/dcmitype/StillImage" />
        <dc:title></dc:title>
      </cc:Work>
    </rdf:RDF>
  </metadata>
  <g
     inkscape:label="Layer 1"
     inkscape:groupmode="layer"
     id="layer1"
     transform="translate(-53.627872,-160.28505)">
    <g
       id="g1923"
       transform="matrix(0.35277777,0,0,-0.35277777,-10.422813,311.62989)">
      <g
         id="g1925"
         clip-path="url(#clipPath1929)">
        <g
           id="g1931"
           transform="translate(206.2718,423.5425)">
          <path
             d="m 0,0 c 2.325,3.047 6.046,5.092 10.177,5.092 7.031,0 12.722,-5.707 12.722,-12.727 0,-7.02 -5.689,-12.723 -12.72,-12.723 -7.032,0 -12.724,5.705 -12.724,12.725 0,1.231 0.119,1.903 0.405,3.185 0.278,1.192 1.415,1.908 2.485,1.908 1.406,0 2.855,-1.258 2.44,-3.177 -0.154,-0.607 -0.243,-1.261 -0.243,-1.916 0,-4.251 3.409,-7.636 7.635,-7.636 4.227,0 7.634,3.382 7.634,7.633 0,4.251 -3.407,7.638 -7.634,7.638 z"
             style="fill:#006dc6;fill-opacity:1;fill-rule:nonzero;stroke:none"
             id="path1933"
             inkscape:connector-curvature="0" />
        </g>
        <g
           id="g1935"
           transform="translate(187.027,405.7187)">
          <path
             d="m 0,0 c 0,-1.404 -1.139,-2.542 -2.545,-2.542 -1.407,0 -2.546,1.138 -2.546,2.542 v 12.733 c 0,1.404 1.139,2.541 2.546,2.541 1.406,0 2.545,-1.137 2.545,-2.541 z"
             style="fill:#006dc6;fill-opacity:1;fill-rule:nonzero;stroke:none"
             id="path1937"
             inkscape:connector-curvature="0" />
        </g>
        <g
           id="g1939"
           transform="translate(196.8322,421.3709)">
          <path
             d="m 0,0 c 0.231,0.231 0.374,0.548 0.374,0.899 0,0.702 -0.569,1.272 -1.272,1.272 l -11.45,0.001 c -1.406,0 -2.546,1.138 -2.546,2.542 0,1.404 1.111,2.536 2.517,2.536 l 11.478,0.007 c 3.526,0 6.363,-2.855 6.363,-6.376 0,-1.887 -0.821,-3.582 -2.126,-4.75 l -6.084,-6.086 c -0.379,-0.341 -0.559,-0.753 -0.559,-1.302 0,-1.028 0.81,-1.843 1.84,-1.843 l 4.384,10e-4 c 1.405,0 2.545,-1.145 2.545,-2.547 0,-1.405 -1.14,-2.542 -2.545,-2.542 L -1.47,-18.19 c -3.82,0 -6.928,3.156 -6.928,6.97 0,1.994 0.964,3.779 2.06,4.875 z"
             style="fill:#006dc6;fill-opacity:1;fill-rule:nonzero;stroke:none"
             id="path1941"
             inkscape:connector-curvature="0" />
        </g>
        <g
           id="g1943"
           transform="translate(256.428,416.318)">
          <path
             d="m 0,0 c -2.369,0.933 -4.044,3.238 -4.044,5.934 0,3.521 2.844,6.362 6.371,6.362 l 11.439,0.013 c 1.405,0 2.547,-1.138 2.547,-2.542 0,-1.439 -1.142,-2.542 -2.547,-2.542 L 2.325,7.223 c -0.702,0 -1.272,-0.569 -1.272,-1.271 0,-0.516 0.307,-0.96 0.75,-1.159 L 11.869,0.225 c 2.598,-0.994 4.444,-3.508 4.444,-6.452 0,-3.814 -3.112,-6.907 -6.933,-6.907 L -1.5,-13.135 c -1.406,0 -2.546,1.137 -2.546,2.541 0,1.403 1.14,2.542 2.546,2.542 l 10.88,0.005 c 1.03,0 1.844,0.815 1.844,1.844 0,0.803 -0.513,1.475 -1.227,1.736 z"
             style="fill:#006dc6;fill-opacity:1;fill-rule:nonzero;stroke:none"
             id="path1945"
             inkscape:connector-curvature="0" />
        </g>
        <g
           id="g1947"
           transform="translate(234.6434,416.318)">
          <path
             d="m 0,0 c -2.37,0.933 -4.046,3.238 -4.046,5.934 0,3.521 2.845,6.362 6.372,6.362 l 11.439,0.013 c 1.405,0 2.546,-1.138 2.546,-2.542 0,-1.439 -1.141,-2.542 -2.546,-2.542 L 2.325,7.223 c -0.703,0 -1.273,-0.569 -1.273,-1.271 0,-0.516 0.307,-0.96 0.751,-1.159 L 11.868,0.225 c 2.598,-0.994 4.443,-3.508 4.443,-6.452 0,-3.814 -3.11,-6.907 -6.931,-6.907 l -10.881,-10e-4 c -1.406,0 -2.545,1.137 -2.545,2.541 0,1.403 1.139,2.542 2.545,2.542 L 9.38,-8.047 c 1.029,0 1.843,0.815 1.843,1.844 0,0.803 -0.512,1.475 -1.227,1.736 z"
             style="fill:#006dc6;fill-opacity:1;fill-rule:nonzero;stroke:none"
             id="path1949"
             inkscape:connector-curvature="0" />
        </g>
        <g
           id="g1951"
           transform="translate(183.4906,393.718)">
          <path
             d="m 0,0 h 0.963 c 1.233,0 2.269,1.019 2.269,2.273 0,1.254 -1.036,2.275 -2.269,2.275 h -1.72 c -0.418,0 -0.757,0.342 -0.757,0.759 0,0.418 0.339,0.757 0.757,0.757 l 1.72,-0.001 c 2.088,0 3.78,-1.67 3.78,-3.8 0,-2.087 -1.692,-3.781 -3.78,-3.781 l -1.72,0.001 c -0.418,0 -0.757,0.335 -0.757,0.752 v 3.799 c 0,0.417 0.339,0.756 0.757,0.756 C -0.339,3.79 0,3.451 0,3.034 Z"
             style="fill:#006dc6;fill-opacity:1;fill-rule:nonzero;stroke:none"
             id="path1953"
             inkscape:connector-curvature="0" />
        </g>
        <g
           id="g1955"
           transform="translate(197.4796,393.718)">
          <path
             d="m 0,0 h 3.359 c 0.418,0 0.757,-0.34 0.757,-0.757 0,-0.418 -0.339,-0.755 -0.757,-0.759 h -4.116 c -0.418,0.004 -0.756,0.341 -0.756,0.757 v 3.79 c 0,0.418 0.338,0.756 0.756,0.759 H 3.359 C 3.777,3.787 4.116,3.449 4.116,3.031 4.116,2.613 3.777,2.276 3.359,2.275 H 0 Z"
             style="fill:#006dc6;fill-opacity:1;fill-rule:nonzero;stroke:none"
             id="path1957"
             inkscape:connector-curvature="0" />
        </g>
        <g
           id="g1959"
           transform="translate(200.8305,398.2663)">
          <path
             d="M 0,0 C 0.418,0 0.757,0.34 0.757,0.758 0.757,1.176 0.418,1.516 0,1.516 h -4.117 c -0.417,0 -0.756,-0.34 -0.756,-0.758 C -4.873,0.34 -4.534,0 -4.117,0 Z"
             style="fill:#006dc6;fill-opacity:1;fill-rule:nonzero;stroke:none"
             id="path1961"
             inkscape:connector-curvature="0" />
        </g>
        <g
           id="g1963"
           transform="translate(254.8707,393.718)">
          <path
             d="m 0,0 h 3.358 c 0.418,0 0.757,-0.34 0.757,-0.757 0,-0.418 -0.339,-0.755 -0.757,-0.759 h -4.115 c -0.419,0.004 -0.757,0.341 -0.757,0.757 v 3.79 c 0,0.418 0.338,0.756 0.757,0.759 H 3.358 C 3.776,3.787 4.115,3.449 4.115,3.031 4.115,2.613 3.776,2.276 3.358,2.275 H 0 Z"
             style="fill:#006dc6;fill-opacity:1;fill-rule:nonzero;stroke:none"
             id="path1965"
             inkscape:connector-curvature="0" />
        </g>
        <g
           id="g1967"
           transform="translate(258.2218,398.2663)">
          <path
             d="M 0,0 C 0.418,0 0.757,0.34 0.757,0.758 0.757,1.176 0.418,1.516 0,1.516 h -4.117 c -0.417,0 -0.756,-0.34 -0.756,-0.758 C -4.873,0.34 -4.534,0 -4.117,0 Z"
             style="fill:#006dc6;fill-opacity:1;fill-rule:nonzero;stroke:none"
             id="path1969"
             inkscape:connector-curvature="0" />
        </g>
        <g
           id="g1971"
           transform="translate(225.5216,398.2663)">
          <path
             d="M 0,0 C 0.418,0 0.757,0.34 0.757,0.758 0.757,1.176 0.418,1.516 0,1.516 h -4.117 c -0.417,0 -0.756,-0.34 -0.756,-0.758 C -4.873,0.34 -4.534,0 -4.117,0 Z"
             style="fill:#006dc6;fill-opacity:1;fill-rule:nonzero;stroke:none"
             id="path1973"
             inkscape:connector-curvature="0" />
        </g>
        <g
           id="g1975"
           transform="translate(248.4012,393.7161)">
          <path
             d="m 0,0 h 3.361 c 0.418,0 0.756,-0.338 0.756,-0.755 0,-0.418 -0.338,-0.759 -0.756,-0.759 h -4.116 c -0.419,0 -0.757,0.341 -0.757,0.759 v 6.063 c 0,0.418 0.338,0.758 0.757,0.758 C -0.339,6.066 0,5.726 0,5.308 Z"
             style="fill:#006dc6;fill-opacity:1;fill-rule:nonzero;stroke:none"
             id="path1977"
             inkscape:connector-curvature="0" />
        </g>
        <g
           id="g1979"
           transform="translate(222.1618,395.9912)">
          <path
             d="m 0,0 3.36,0.002 c 0.417,0.003 0.757,0.34 0.757,0.757 0,0.417 -0.34,0.758 -0.757,0.758 h -4.117 c -0.792,0 -0.756,-0.882 -0.756,-0.76 v -3.778 c 0,-0.417 0.339,-0.768 0.756,-0.768 0.418,0 0.757,0.34 0.757,0.757 z"
             style="fill:#006dc6;fill-opacity:1;fill-rule:nonzero;stroke:none"
             id="path1981"
             inkscape:connector-curvature="0" />
        </g>
        <g
           id="g1983"
           transform="translate(190.5745,392.9594)">
          <path
             d="m 0,0 c 0,-0.419 -0.338,-0.758 -0.757,-0.758 -0.418,0 -0.756,0.339 -0.756,0.758 v 3.792 c 0,0.418 0.338,0.758 0.756,0.758 C -0.338,4.55 0,4.21 0,3.792 Z"
             style="fill:#006dc6;fill-opacity:1;fill-rule:nonzero;stroke:none"
             id="path1985"
             inkscape:connector-curvature="0" />
        </g>
        <g
           id="g1987"
           transform="translate(193.4893,397.6214)">
          <path
             d="m 0,0 c 0.069,0.069 0.111,0.163 0.111,0.268 0,0.209 -0.169,0.378 -0.378,0.378 h -3.404 c -0.418,0 -0.757,0.34 -0.757,0.758 0,0.418 0.339,0.758 0.756,0.757 h 3.404 c 1.048,0 1.892,-0.849 1.892,-1.898 0,-0.562 -0.244,-1.068 -0.631,-1.415 l -1.809,-1.813 c -0.113,-0.102 -0.167,-0.224 -0.167,-0.388 0,-0.306 0.242,-0.55 0.548,-0.55 l 1.303,10e-4 c 0.417,0 0.756,-0.34 0.756,-0.759 0,-0.419 -0.339,-0.756 -0.756,-0.756 l -1.305,-0.002 c -1.135,0 -2.06,0.94 -2.06,2.078 0,0.593 0.286,1.124 0.612,1.45 z"
             style="fill:#006dc6;fill-opacity:1;fill-rule:nonzero;stroke:none"
             id="path1989"
             inkscape:connector-curvature="0" />
        </g>
        <g
           id="g1991"
           transform="translate(236.8608,392.9594)">
          <path
             d="m 0,0 c 0,-0.419 -0.339,-0.758 -0.757,-0.758 -0.417,0 -0.756,0.339 -0.756,0.758 v 3.792 c 0,0.418 0.339,0.758 0.756,0.758 C -0.339,4.55 0,4.21 0,3.792 Z"
             style="fill:#006dc6;fill-opacity:1;fill-rule:nonzero;stroke:none"
             id="path1993"
             inkscape:connector-curvature="0" />
        </g>
        <g
           id="g1995"
           transform="translate(239.7765,397.6214)">
          <path
             d="m 0,0 c 0.068,0.069 0.11,0.163 0.11,0.268 0,0.209 -0.168,0.378 -0.377,0.378 h -3.405 c -0.418,0 -0.757,0.34 -0.757,0.758 0,0.418 0.339,0.758 0.757,0.758 h 3.404 c 1.049,0 1.891,-0.85 1.891,-1.899 0,-0.562 -0.243,-1.068 -0.631,-1.415 l -1.809,-1.813 c -0.112,-0.102 -0.166,-0.224 -0.166,-0.388 0,-0.306 0.241,-0.55 0.547,-0.55 l 1.303,10e-4 c 0.417,0 0.756,-0.34 0.756,-0.759 0,-0.419 -0.339,-0.756 -0.756,-0.756 l -1.304,-0.002 c -1.137,0 -2.06,0.94 -2.06,2.078 0,0.593 0.287,1.124 0.612,1.45 z"
             style="fill:#006dc6;fill-opacity:1;fill-rule:nonzero;stroke:none"
             id="path1997"
             inkscape:connector-curvature="0" />
        </g>
        <g
           id="g1999"
           transform="translate(203.6344,396.1153)">
          <path
             d="m 0,0 c -0.705,0.278 -1.203,0.964 -1.203,1.768 0,1.049 0.85,1.899 1.898,1.899 H 4.092 C 4.51,3.667 4.849,3.327 4.849,2.909 4.849,2.481 4.51,2.152 4.092,2.152 H 0.691 C 0.482,2.152 0.313,1.981 0.313,1.773 0.313,1.62 0.404,1.486 0.536,1.426 L 3.528,0.067 c 0.773,-0.296 1.321,-1.045 1.321,-1.923 0,-1.135 -0.925,-2.057 -2.061,-2.057 h -3.234 c -0.419,0 -0.757,0.339 -0.757,0.757 0,0.418 0.338,0.757 0.757,0.757 l 3.234,0.002 c 0.306,0 0.548,0.242 0.548,0.548 0,0.24 -0.152,0.44 -0.364,0.517 z"
             style="fill:#006dc6;fill-opacity:1;fill-rule:nonzero;stroke:none"
             id="path2001"
             inkscape:connector-curvature="0" />
        </g>
        <g
           id="g2003"
           transform="translate(210.5431,396.1153)">
          <path
             d="m 0,0 c -0.705,0.278 -1.203,0.964 -1.203,1.768 0,1.049 0.849,1.899 1.898,1.899 H 4.091 C 4.51,3.667 4.849,3.327 4.849,2.909 4.849,2.481 4.51,2.152 4.091,2.152 H 0.69 C 0.482,2.152 0.312,1.981 0.312,1.773 0.312,1.62 0.404,1.486 0.536,1.426 L 3.528,0.067 c 0.772,-0.296 1.321,-1.045 1.321,-1.923 0,-1.135 -0.925,-2.057 -2.061,-2.057 h -3.234 c -0.419,0 -0.757,0.339 -0.757,0.757 0,0.418 0.338,0.757 0.757,0.757 l 3.234,0.002 c 0.306,0 0.548,0.242 0.548,0.548 0,0.24 -0.152,0.44 -0.364,0.517 z"
             style="fill:#006dc6;fill-opacity:1;fill-rule:nonzero;stroke:none"
             id="path2005"
             inkscape:connector-curvature="0" />
        </g>
        <g
           id="g2007"
           transform="translate(261.0226,396.1153)">
          <path
             d="m 0,0 c -0.704,0.278 -1.202,0.964 -1.202,1.768 0,1.049 0.849,1.899 1.897,1.899 h 3.398 c 0.418,0 0.756,-0.34 0.756,-0.758 0,-0.428 -0.338,-0.757 -0.756,-0.757 H 0.691 C 0.482,2.152 0.312,1.981 0.312,1.773 0.312,1.62 0.404,1.486 0.535,1.426 L 3.528,0.067 c 0.773,-0.296 1.321,-1.045 1.321,-1.923 0,-1.135 -0.926,-2.057 -2.061,-2.057 h -3.234 c -0.418,0 -0.756,0.339 -0.756,0.757 0,0.418 0.338,0.757 0.756,0.757 l 3.234,0.002 c 0.307,0 0.549,0.242 0.549,0.548 0,0.24 -0.153,0.44 -0.366,0.517 z"
             style="fill:#006dc6;fill-opacity:1;fill-rule:nonzero;stroke:none"
             id="path2009"
             inkscape:connector-curvature="0" />
        </g>
        <g
           id="g2011"
           transform="translate(267.9299,396.1153)">
          <path
             d="m 0,0 c -0.704,0.278 -1.201,0.964 -1.201,1.766 0,1.051 0.849,1.9 1.897,1.9 H 4.093 C 4.51,3.666 4.849,3.327 4.849,2.909 4.849,2.481 4.51,2.152 4.093,2.152 L 0.691,2.151 c -0.209,0 -0.378,-0.17 -0.378,-0.38 0,-0.152 0.091,-0.285 0.223,-0.345 L 3.528,0.067 c 0.773,-0.296 1.321,-1.045 1.321,-1.923 0,-1.135 -0.924,-2.057 -2.06,-2.057 l -3.234,-0.001 c -0.419,0 -0.758,0.339 -0.758,0.758 0,0.418 0.339,0.757 0.758,0.757 l 3.234,0.002 c 0.306,0 0.548,0.242 0.548,0.548 0,0.24 -0.152,0.44 -0.365,0.517 z"
             style="fill:#006dc6;fill-opacity:1;fill-rule:nonzero;stroke:none"
             id="path2013"
             inkscape:connector-curvature="0" />
        </g>
        <g
           id="g2015"
           transform="translate(227.7095,398.2651)">
          <path
             d="m 0,0 c 0.69,0.907 1.796,1.517 3.025,1.517 2.09,0 3.782,-1.7 3.782,-3.791 0,-2.092 -1.692,-3.791 -3.782,-3.791 -2.09,0 -3.783,1.7 -3.783,3.791 0,0.367 0.036,0.568 0.122,0.948 0.082,0.356 0.42,0.569 0.738,0.569 0.418,0 0.848,-0.374 0.725,-0.947 -0.046,-0.18 -0.072,-0.375 -0.072,-0.57 0,-1.266 1.013,-2.274 2.27,-2.274 1.256,0 2.269,1.007 2.269,2.274 0,1.267 -1.013,2.275 -2.269,2.275 z"
             style="fill:#006dc6;fill-opacity:1;fill-rule:nonzero;stroke:none"
             id="path2017"
             inkscape:connector-curvature="0" />
        </g>
        <g
           id="g2019"
           transform="translate(275.0554,398.8504)">
          <path
             d="m 0,0 c -0.062,0.024 -0.149,0.036 -0.263,0.036 h -0.11 v -0.503 h 0.176 c 0.106,0 0.189,0.022 0.247,0.063 0.059,0.044 0.09,0.112 0.09,0.206 C 0.14,-0.103 0.093,-0.037 0,0 m -0.827,-1.39 v 1.731 c 0.107,0 0.269,-0.001 0.482,-0.001 0.215,0 0.333,-0.002 0.358,-0.003 0.137,-0.01 0.25,-0.039 0.341,-0.089 0.155,-0.085 0.231,-0.223 0.231,-0.414 0,-0.145 -0.041,-0.25 -0.121,-0.315 -0.082,-0.065 -0.182,-0.103 -0.3,-0.116 0.109,-0.022 0.19,-0.056 0.245,-0.1 0.102,-0.081 0.152,-0.211 0.152,-0.388 v -0.156 c 0,-0.016 0.002,-0.033 0.004,-0.049 0.004,-0.018 0.007,-0.035 0.012,-0.051 L 0.594,-1.39 H 0.161 c -0.013,0.054 -0.023,0.135 -0.028,0.238 -0.007,0.105 -0.014,0.175 -0.03,0.212 -0.023,0.062 -0.064,0.105 -0.127,0.127 -0.033,0.016 -0.085,0.024 -0.155,0.029 l -0.098,0.006 H -0.373 V -1.39 Z M -1.06,0.385 c -0.248,-0.256 -0.373,-0.557 -0.373,-0.907 0,-0.361 0.127,-0.669 0.38,-0.921 0.252,-0.254 0.554,-0.38 0.912,-0.38 0.354,0 0.658,0.127 0.908,0.381 0.252,0.257 0.378,0.562 0.378,0.92 0,0.348 -0.125,0.65 -0.376,0.907 -0.252,0.259 -0.556,0.389 -0.91,0.389 -0.361,0 -0.666,-0.13 -0.919,-0.389 m 2.012,-2.027 c -0.304,-0.295 -0.668,-0.441 -1.093,-0.441 -0.441,0 -0.811,0.15 -1.112,0.451 -0.3,0.3 -0.451,0.671 -0.451,1.11 0,0.458 0.161,0.836 0.487,1.139 0.306,0.283 0.663,0.424 1.076,0.424 0.43,0 0.798,-0.153 1.103,-0.459 0.305,-0.304 0.458,-0.673 0.458,-1.104 0,-0.442 -0.155,-0.816 -0.468,-1.12"
             style="fill:#006dc6;fill-opacity:1;fill-rule:nonzero;stroke:none"
             id="path2021"
             inkscape:connector-curvature="0" />
        </g>
      </g>
    </g>
    <g
       id="g2023"
       transform="matrix(0.35277777,0,0,-0.35277777,-10.422813,311.62989)">
      <g
         id="g2025"
         clip-path="url(#clipPath2029)">
        <g
           id="g2031"
           transform="translate(206.2718,423.5425)">
          <path
             d="m 0,0 c 2.325,3.047 6.046,5.092 10.177,5.092 7.031,0 12.722,-5.707 12.722,-12.727 0,-7.02 -5.689,-12.723 -12.72,-12.723 -7.032,0 -12.724,5.705 -12.724,12.725 0,1.231 0.119,1.903 0.405,3.185 0.278,1.192 1.415,1.908 2.485,1.908 1.406,0 2.855,-1.258 2.44,-3.177 -0.154,-0.607 -0.243,-1.261 -0.243,-1.916 0,-4.251 3.409,-7.636 7.635,-7.636 4.227,0 7.634,3.382 7.634,7.633 0,4.251 -3.407,7.638 -7.634,7.638 z"
             style="fill:#006dc6;fill-opacity:1;fill-rule:nonzero;stroke:none"
             id="path2033"
             inkscape:connector-curvature="0" />
        </g>
        <g
           id="g2035"
           transform="translate(187.027,405.7187)">
          <path
             d="m 0,0 c 0,-1.404 -1.139,-2.542 -2.545,-2.542 -1.407,0 -2.546,1.138 -2.546,2.542 v 12.733 c 0,1.404 1.139,2.541 2.546,2.541 1.406,0 2.545,-1.137 2.545,-2.541 z"
             style="fill:#006dc6;fill-opacity:1;fill-rule:nonzero;stroke:none"
             id="path2037"
             inkscape:connector-curvature="0" />
        </g>
        <g
           id="g2039"
           transform="translate(196.8322,421.3709)">
          <path
             d="m 0,0 c 0.231,0.231 0.374,0.548 0.374,0.899 0,0.702 -0.569,1.272 -1.272,1.272 l -11.45,0.001 c -1.406,0 -2.546,1.138 -2.546,2.542 0,1.404 1.111,2.536 2.517,2.536 l 11.478,0.007 c 3.526,0 6.363,-2.855 6.363,-6.376 0,-1.887 -0.821,-3.582 -2.126,-4.75 l -6.084,-6.086 c -0.379,-0.341 -0.559,-0.753 -0.559,-1.302 0,-1.028 0.81,-1.843 1.84,-1.843 l 4.384,10e-4 c 1.405,0 2.545,-1.145 2.545,-2.547 0,-1.405 -1.14,-2.542 -2.545,-2.542 L -1.47,-18.19 c -3.82,0 -6.928,3.156 -6.928,6.97 0,1.994 0.964,3.779 2.06,4.875 z"
             style="fill:#006dc6;fill-opacity:1;fill-rule:nonzero;stroke:none"
             id="path2041"
             inkscape:connector-curvature="0" />
        </g>
        <g
           id="g2043"
           transform="translate(256.428,416.318)">
          <path
             d="m 0,0 c -2.369,0.933 -4.044,3.238 -4.044,5.934 0,3.521 2.844,6.362 6.371,6.362 l 11.439,0.013 c 1.405,0 2.547,-1.138 2.547,-2.542 0,-1.439 -1.142,-2.542 -2.547,-2.542 L 2.325,7.223 c -0.702,0 -1.272,-0.569 -1.272,-1.271 0,-0.516 0.307,-0.96 0.75,-1.159 L 11.869,0.225 c 2.598,-0.994 4.444,-3.508 4.444,-6.452 0,-3.814 -3.112,-6.907 -6.933,-6.907 L -1.5,-13.135 c -1.406,0 -2.546,1.137 -2.546,2.541 0,1.403 1.14,2.542 2.546,2.542 l 10.88,0.005 c 1.03,0 1.844,0.815 1.844,1.844 0,0.803 -0.513,1.475 -1.227,1.736 z"
             style="fill:#006dc6;fill-opacity:1;fill-rule:nonzero;stroke:none"
             id="path2045"
             inkscape:connector-curvature="0" />
        </g>
        <g
           id="g2047"
           transform="translate(234.6434,416.318)">
          <path
             d="m 0,0 c -2.37,0.933 -4.046,3.238 -4.046,5.934 0,3.521 2.845,6.362 6.372,6.362 l 11.439,0.013 c 1.405,0 2.546,-1.138 2.546,-2.542 0,-1.439 -1.141,-2.542 -2.546,-2.542 L 2.325,7.223 c -0.703,0 -1.273,-0.569 -1.273,-1.271 0,-0.516 0.307,-0.96 0.751,-1.159 L 11.868,0.225 c 2.598,-0.994 4.443,-3.508 4.443,-6.452 0,-3.814 -3.11,-6.907 -6.931,-6.907 l -10.881,-10e-4 c -1.406,0 -2.545,1.137 -2.545,2.541 0,1.403 1.139,2.542 2.545,2.542 L 9.38,-8.047 c 1.029,0 1.843,0.815 1.843,1.844 0,0.803 -0.512,1.475 -1.227,1.736 z"
             style="fill:#006dc6;fill-opacity:1;fill-rule:nonzero;stroke:none"
             id="path2049"
             inkscape:connector-curvature="0" />
        </g>
        <g
           id="g2051"
           transform="translate(183.4906,393.718)">
          <path
             d="m 0,0 h 0.963 c 1.233,0 2.269,1.019 2.269,2.273 0,1.254 -1.036,2.275 -2.269,2.275 h -1.72 c -0.418,0 -0.757,0.342 -0.757,0.759 0,0.418 0.339,0.757 0.757,0.757 l 1.72,-0.001 c 2.088,0 3.78,-1.67 3.78,-3.8 0,-2.087 -1.692,-3.781 -3.78,-3.781 l -1.72,0.001 c -0.418,0 -0.757,0.335 -0.757,0.752 v 3.799 c 0,0.417 0.339,0.756 0.757,0.756 C -0.339,3.79 0,3.451 0,3.034 Z"
             style="fill:#006dc6;fill-opacity:1;fill-rule:nonzero;stroke:none"
             id="path2053"
             inkscape:connector-curvature="0" />
        </g>
        <g
           id="g2055"
           transform="translate(197.4796,393.718)">
          <path
             d="m 0,0 h 3.359 c 0.418,0 0.757,-0.34 0.757,-0.757 0,-0.418 -0.339,-0.755 -0.757,-0.759 h -4.116 c -0.418,0.004 -0.756,0.341 -0.756,0.757 v 3.79 c 0,0.418 0.338,0.756 0.756,0.759 H 3.359 C 3.777,3.787 4.116,3.449 4.116,3.031 4.116,2.613 3.777,2.276 3.359,2.275 H 0 Z"
             style="fill:#006dc6;fill-opacity:1;fill-rule:nonzero;stroke:none"
             id="path2057"
             inkscape:connector-curvature="0" />
        </g>
        <g
           id="g2059"
           transform="translate(200.8305,398.2663)">
          <path
             d="M 0,0 C 0.418,0 0.757,0.34 0.757,0.758 0.757,1.176 0.418,1.516 0,1.516 h -4.117 c -0.417,0 -0.756,-0.34 -0.756,-0.758 C -4.873,0.34 -4.534,0 -4.117,0 Z"
             style="fill:#006dc6;fill-opacity:1;fill-rule:nonzero;stroke:none"
             id="path2061"
             inkscape:connector-curvature="0" />
        </g>
        <g
           id="g2063"
           transform="translate(254.8707,393.718)">
          <path
             d="m 0,0 h 3.358 c 0.418,0 0.757,-0.34 0.757,-0.757 0,-0.418 -0.339,-0.755 -0.757,-0.759 h -4.115 c -0.419,0.004 -0.757,0.341 -0.757,0.757 v 3.79 c 0,0.418 0.338,0.756 0.757,0.759 H 3.358 C 3.776,3.787 4.115,3.449 4.115,3.031 4.115,2.613 3.776,2.276 3.358,2.275 H 0 Z"
             style="fill:#006dc6;fill-opacity:1;fill-rule:nonzero;stroke:none"
             id="path2065"
             inkscape:connector-curvature="0" />
        </g>
        <g
           id="g2067"
           transform="translate(258.2218,398.2663)">
          <path
             d="M 0,0 C 0.418,0 0.757,0.34 0.757,0.758 0.757,1.176 0.418,1.516 0,1.516 h -4.117 c -0.417,0 -0.756,-0.34 -0.756,-0.758 C -4.873,0.34 -4.534,0 -4.117,0 Z"
             style="fill:#006dc6;fill-opacity:1;fill-rule:nonzero;stroke:none"
             id="path2069"
             inkscape:connector-curvature="0" />
        </g>
        <g
           id="g2071"
           transform="translate(225.5216,398.2663)">
          <path
             d="M 0,0 C 0.418,0 0.757,0.34 0.757,0.758 0.757,1.176 0.418,1.516 0,1.516 h -4.117 c -0.417,0 -0.756,-0.34 -0.756,-0.758 C -4.873,0.34 -4.534,0 -4.117,0 Z"
             style="fill:#006dc6;fill-opacity:1;fill-rule:nonzero;stroke:none"
             id="path2073"
             inkscape:connector-curvature="0" />
        </g>
        <g
           id="g2075"
           transform="translate(248.4012,393.7161)">
          <path
             d="m 0,0 h 3.361 c 0.418,0 0.756,-0.338 0.756,-0.755 0,-0.418 -0.338,-0.759 -0.756,-0.759 h -4.116 c -0.419,0 -0.757,0.341 -0.757,0.759 v 6.063 c 0,0.418 0.338,0.758 0.757,0.758 C -0.339,6.066 0,5.726 0,5.308 Z"
             style="fill:#006dc6;fill-opacity:1;fill-rule:nonzero;stroke:none"
             id="path2077"
             inkscape:connector-curvature="0" />
        </g>
        <g
           id="g2079"
           transform="translate(222.1618,395.9912)">
          <path
             d="m 0,0 3.36,0.002 c 0.417,0.003 0.757,0.34 0.757,0.757 0,0.417 -0.34,0.758 -0.757,0.758 h -4.117 c -0.792,0 -0.756,-0.882 -0.756,-0.76 v -3.778 c 0,-0.417 0.339,-0.768 0.756,-0.768 0.418,0 0.757,0.34 0.757,0.757 z"
             style="fill:#006dc6;fill-opacity:1;fill-rule:nonzero;stroke:none"
             id="path2081"
             inkscape:connector-curvature="0" />
        </g>
        <g
           id="g2083"
           transform="translate(190.5745,392.9594)">
          <path
             d="m 0,0 c 0,-0.419 -0.338,-0.758 -0.757,-0.758 -0.418,0 -0.756,0.339 -0.756,0.758 v 3.792 c 0,0.418 0.338,0.758 0.756,0.758 C -0.338,4.55 0,4.21 0,3.792 Z"
             style="fill:#006dc6;fill-opacity:1;fill-rule:nonzero;stroke:none"
             id="path2085"
             inkscape:connector-curvature="0" />
        </g>
        <g
           id="g2087"
           transform="translate(193.4893,397.6214)">
          <path
             d="m 0,0 c 0.069,0.069 0.111,0.163 0.111,0.268 0,0.209 -0.169,0.378 -0.378,0.378 h -3.404 c -0.418,0 -0.757,0.34 -0.757,0.758 0,0.418 0.339,0.758 0.756,0.757 h 3.404 c 1.048,0 1.892,-0.849 1.892,-1.898 0,-0.562 -0.244,-1.068 -0.631,-1.415 l -1.809,-1.813 c -0.113,-0.102 -0.167,-0.224 -0.167,-0.388 0,-0.306 0.242,-0.55 0.548,-0.55 l 1.303,10e-4 c 0.417,0 0.756,-0.34 0.756,-0.759 0,-0.419 -0.339,-0.756 -0.756,-0.756 l -1.305,-0.002 c -1.135,0 -2.06,0.94 -2.06,2.078 0,0.593 0.286,1.124 0.612,1.45 z"
             style="fill:#006dc6;fill-opacity:1;fill-rule:nonzero;stroke:none"
             id="path2089"
             inkscape:connector-curvature="0" />
        </g>
        <g
           id="g2091"
           transform="translate(236.8608,392.9594)">
          <path
             d="m 0,0 c 0,-0.419 -0.339,-0.758 -0.757,-0.758 -0.417,0 -0.756,0.339 -0.756,0.758 v 3.792 c 0,0.418 0.339,0.758 0.756,0.758 C -0.339,4.55 0,4.21 0,3.792 Z"
             style="fill:#006dc6;fill-opacity:1;fill-rule:nonzero;stroke:none"
             id="path2093"
             inkscape:connector-curvature="0" />
        </g>
        <g
           id="g2095"
           transform="translate(239.7765,397.6214)">
          <path
             d="m 0,0 c 0.068,0.069 0.11,0.163 0.11,0.268 0,0.209 -0.168,0.378 -0.377,0.378 h -3.405 c -0.418,0 -0.757,0.34 -0.757,0.758 0,0.418 0.339,0.758 0.757,0.758 h 3.404 c 1.049,0 1.891,-0.85 1.891,-1.899 0,-0.562 -0.243,-1.068 -0.631,-1.415 l -1.809,-1.813 c -0.112,-0.102 -0.166,-0.224 -0.166,-0.388 0,-0.306 0.241,-0.55 0.547,-0.55 l 1.303,10e-4 c 0.417,0 0.756,-0.34 0.756,-0.759 0,-0.419 -0.339,-0.756 -0.756,-0.756 l -1.304,-0.002 c -1.137,0 -2.06,0.94 -2.06,2.078 0,0.593 0.287,1.124 0.612,1.45 z"
             style="fill:#006dc6;fill-opacity:1;fill-rule:nonzero;stroke:none"
             id="path2097"
             inkscape:connector-curvature="0" />
        </g>
        <g
           id="g2099"
           transform="translate(203.6344,396.1153)">
          <path
             d="m 0,0 c -0.705,0.278 -1.203,0.964 -1.203,1.768 0,1.049 0.85,1.899 1.898,1.899 H 4.092 C 4.51,3.667 4.849,3.327 4.849,2.909 4.849,2.481 4.51,2.152 4.092,2.152 H 0.691 C 0.482,2.152 0.313,1.981 0.313,1.773 0.313,1.62 0.404,1.486 0.536,1.426 L 3.528,0.067 c 0.773,-0.296 1.321,-1.045 1.321,-1.923 0,-1.135 -0.925,-2.057 -2.061,-2.057 h -3.234 c -0.419,0 -0.757,0.339 -0.757,0.757 0,0.418 0.338,0.757 0.757,0.757 l 3.234,0.002 c 0.306,0 0.548,0.242 0.548,0.548 0,0.24 -0.152,0.44 -0.364,0.517 z"
             style="fill:#006dc6;fill-opacity:1;fill-rule:nonzero;stroke:none"
             id="path2101"
             inkscape:connector-curvature="0" />
        </g>
        <g
           id="g2103"
           transform="translate(210.5431,396.1153)">
          <path
             d="m 0,0 c -0.705,0.278 -1.203,0.964 -1.203,1.768 0,1.049 0.849,1.899 1.898,1.899 H 4.091 C 4.51,3.667 4.849,3.327 4.849,2.909 4.849,2.481 4.51,2.152 4.091,2.152 H 0.69 C 0.482,2.152 0.312,1.981 0.312,1.773 0.312,1.62 0.404,1.486 0.536,1.426 L 3.528,0.067 c 0.772,-0.296 1.321,-1.045 1.321,-1.923 0,-1.135 -0.925,-2.057 -2.061,-2.057 h -3.234 c -0.419,0 -0.757,0.339 -0.757,0.757 0,0.418 0.338,0.757 0.757,0.757 l 3.234,0.002 c 0.306,0 0.548,0.242 0.548,0.548 0,0.24 -0.152,0.44 -0.364,0.517 z"
             style="fill:#006dc6;fill-opacity:1;fill-rule:nonzero;stroke:none"
             id="path2105"
             inkscape:connector-curvature="0" />
        </g>
        <g
           id="g2107"
           transform="translate(261.0226,396.1153)">
          <path
             d="m 0,0 c -0.704,0.278 -1.202,0.964 -1.202,1.768 0,1.049 0.849,1.899 1.897,1.899 h 3.398 c 0.418,0 0.756,-0.34 0.756,-0.758 0,-0.428 -0.338,-0.757 -0.756,-0.757 H 0.691 C 0.482,2.152 0.312,1.981 0.312,1.773 0.312,1.62 0.404,1.486 0.535,1.426 L 3.528,0.067 c 0.773,-0.296 1.321,-1.045 1.321,-1.923 0,-1.135 -0.926,-2.057 -2.061,-2.057 h -3.234 c -0.418,0 -0.756,0.339 -0.756,0.757 0,0.418 0.338,0.757 0.756,0.757 l 3.234,0.002 c 0.307,0 0.549,0.242 0.549,0.548 0,0.24 -0.153,0.44 -0.366,0.517 z"
             style="fill:#006dc6;fill-opacity:1;fill-rule:nonzero;stroke:none"
             id="path2109"
             inkscape:connector-curvature="0" />
        </g>
        <g
           id="g2111"
           transform="translate(267.9299,396.1153)">
          <path
             d="m 0,0 c -0.704,0.278 -1.201,0.964 -1.201,1.766 0,1.051 0.849,1.9 1.897,1.9 H 4.093 C 4.51,3.666 4.849,3.327 4.849,2.909 4.849,2.481 4.51,2.152 4.093,2.152 L 0.691,2.151 c -0.209,0 -0.378,-0.17 -0.378,-0.38 0,-0.152 0.091,-0.285 0.223,-0.345 L 3.528,0.067 c 0.773,-0.296 1.321,-1.045 1.321,-1.923 0,-1.135 -0.924,-2.057 -2.06,-2.057 l -3.234,-0.001 c -0.419,0 -0.758,0.339 -0.758,0.758 0,0.418 0.339,0.757 0.758,0.757 l 3.234,0.002 c 0.306,0 0.548,0.242 0.548,0.548 0,0.24 -0.152,0.44 -0.365,0.517 z"
             style="fill:#006dc6;fill-opacity:1;fill-rule:nonzero;stroke:none"
             id="path2113"
             inkscape:connector-curvature="0" />
        </g>
        <g
           id="g2115"
           transform="translate(227.7095,398.2651)">
          <path
             d="m 0,0 c 0.69,0.907 1.796,1.517 3.025,1.517 2.09,0 3.782,-1.7 3.782,-3.791 0,-2.092 -1.692,-3.791 -3.782,-3.791 -2.09,0 -3.783,1.7 -3.783,3.791 0,0.367 0.036,0.568 0.122,0.948 0.082,0.356 0.42,0.569 0.738,0.569 0.418,0 0.848,-0.374 0.725,-0.947 -0.046,-0.18 -0.072,-0.375 -0.072,-0.57 0,-1.266 1.013,-2.274 2.27,-2.274 1.256,0 2.269,1.007 2.269,2.274 0,1.267 -1.013,2.275 -2.269,2.275 z"
             style="fill:#006dc6;fill-opacity:1;fill-rule:nonzero;stroke:none"
             id="path2117"
             inkscape:connector-curvature="0" />
        </g>
        <g
           id="g2119"
           transform="translate(275.0554,398.8504)">
          <path
             d="m 0,0 c -0.062,0.024 -0.149,0.036 -0.263,0.036 h -0.11 v -0.503 h 0.176 c 0.106,0 0.189,0.022 0.247,0.063 0.059,0.044 0.09,0.112 0.09,0.206 C 0.14,-0.103 0.093,-0.037 0,0 m -0.827,-1.39 v 1.731 c 0.107,0 0.269,-0.001 0.482,-0.001 0.215,0 0.333,-0.002 0.358,-0.003 0.137,-0.01 0.25,-0.039 0.341,-0.089 0.155,-0.085 0.231,-0.223 0.231,-0.414 0,-0.145 -0.041,-0.25 -0.121,-0.315 -0.082,-0.065 -0.182,-0.103 -0.3,-0.116 0.109,-0.022 0.19,-0.056 0.245,-0.1 0.102,-0.081 0.152,-0.211 0.152,-0.388 v -0.156 c 0,-0.016 0.002,-0.033 0.004,-0.049 0.004,-0.018 0.007,-0.035 0.012,-0.051 L 0.594,-1.39 H 0.161 c -0.013,0.054 -0.023,0.135 -0.028,0.238 -0.007,0.105 -0.014,0.175 -0.03,0.212 -0.023,0.062 -0.064,0.105 -0.127,0.127 -0.033,0.016 -0.085,0.024 -0.155,0.029 l -0.098,0.006 H -0.373 V -1.39 Z M -1.06,0.385 c -0.248,-0.256 -0.373,-0.557 -0.373,-0.907 0,-0.361 0.127,-0.669 0.38,-0.921 0.252,-0.254 0.554,-0.38 0.912,-0.38 0.354,0 0.658,0.127 0.908,0.381 0.252,0.257 0.378,0.562 0.378,0.92 0,0.348 -0.125,0.65 -0.376,0.907 -0.252,0.259 -0.556,0.389 -0.91,0.389 -0.361,0 -0.666,-0.13 -0.919,-0.389 m 2.012,-2.027 c -0.304,-0.295 -0.668,-0.441 -1.093,-0.441 -0.441,0 -0.811,0.15 -1.112,0.451 -0.3,0.3 -0.451,0.671 -0.451,1.11 0,0.458 0.161,0.836 0.487,1.139 0.306,0.283 0.663,0.424 1.076,0.424 0.43,0 0.798,-0.153 1.103,-0.459 0.305,-0.304 0.458,-0.673 0.458,-1.104 0,-0.442 -0.155,-0.816 -0.468,-1.12"
             style="fill:#006dc6;fill-opacity:1;fill-rule:nonzero;stroke:none"
             id="path2121"
             inkscape:connector-curvature="0" />
        </g>
      </g>
    </g>
  </g>
</svg>
