<?xml version="1.0" encoding="utf-8"?>
<!-- Generator: Adobe Illustrator 15.1.0, SVG Export Plug-In . SVG Version: 6.00 Build 0)  -->
<!DOCTYPE svg PUBLIC "-//W3C//DTD SVG 1.0//EN" "http://www.w3.org/TR/2001/REC-SVG-20010904/DTD/svg10.dtd">
<svg version="1.0" id="Layer_1" xmlns="http://www.w3.org/2000/svg" xmlns:xlink="http://www.w3.org/1999/xlink" x="0px" y="0px"
	 width="300px" height="139.037px" viewBox="0 0 300 139.037" enable-background="new 0 0 300 139.037" xml:space="preserve">
<path d="M13.019,122.247l6.109,16.398h-3.766l-1.262-3.645H7.964l-1.264,3.645H3.031l6.312-16.398H13.019 M13.151,132.308
	l-2.106-6.014h-0.049l-2.089,6.014H13.151z"/>
<path d="M41.062,132.333c-0.122,2.349-1.795,6.704-7.213,6.704c-4.754,0-8.063-3.421-8.063-8.585c0-4.849,3.074-8.565,8.063-8.565
	c5.21,0,6.883,3.782,7.047,5.876h-3.464c-0.205-1.15-1.311-2.861-3.583-2.861c-2.779,0-4.456,2.176-4.456,5.551
	c0,3.769,1.93,5.557,4.456,5.557c2.803,0,3.603-2.387,3.716-3.676H41.062"/>
<rect x="43.813" y="122.247" width="3.602" height="16.398"/>
<path d="M63.404,127.146c-0.946,0-2.48,0-3.492,0c0-1.514-1.126-2.477-3.19-2.477c-1.382,0-2.505,0.567-2.505,1.673
	c0,1.191,1.193,1.693,2.433,2.041c0.533,0.114,1.656,0.409,2.367,0.617c1.77,0.463,4.96,1.267,4.96,4.76
	c0,2.569-1.766,5.276-6.821,5.276c-4.456,0-6.981-2.29-6.981-5.828c0.829,0,2.803,0,3.497,0c0,1.628,1.049,3.032,3.624,3.032
	c1.627,0,3.19-0.642,3.19-1.931c0-1.587-1.815-2.04-3.329-2.436c-0.922-0.226-1.494-0.391-2.367-0.603
	c-2.391-0.638-4.063-2.063-4.063-4.604c0-2.97,2.643-4.781,6.159-4.781C61.704,121.887,63.404,124.458,63.404,127.146"/>
<path d="M81.545,132.333c-0.122,2.349-1.795,6.704-7.22,6.704c-4.75,0-8.059-3.421-8.059-8.585c0-4.849,3.077-8.565,8.059-8.565
	c5.217,0,6.89,3.782,7.053,5.876h-3.465c-0.206-1.15-1.316-2.861-3.588-2.861c-2.776,0-4.449,2.176-4.449,5.551
	c0,3.769,1.927,5.557,4.449,5.557c2.803,0,3.607-2.387,3.724-3.676H81.545"/>
<path d="M99.953,130.452c0,5.211-3.402,8.585-8.063,8.585c-4.75,0-8.063-3.421-8.063-8.585c0-4.849,3.081-8.565,8.063-8.565
	C96.803,121.887,99.953,125.483,99.953,130.452 M96.346,130.452c0-3.352-1.656-5.551-4.456-5.551c-2.778,0-4.456,2.176-4.456,5.551
	c0,3.769,1.934,5.557,4.456,5.557C94.416,136.009,96.346,134.221,96.346,130.452z"/>
<path d="M122.8,132.333c-0.117,2.349-1.787,6.704-7.213,6.704c-4.749,0-8.054-3.421-8.054-8.585c0-4.849,3.072-8.565,8.054-8.565
	c5.215,0,6.892,3.782,7.047,5.876h-3.468c-0.201-1.15-1.306-2.861-3.58-2.861c-2.778,0-4.447,2.176-4.447,5.551
	c0,3.769,1.927,5.557,4.447,5.557c2.8,0,3.61-2.387,3.725-3.676H122.8"/>
<path d="M141.216,130.452c0,5.211-3.4,8.585-8.066,8.585c-4.75,0-8.059-3.421-8.059-8.585c0-4.849,3.081-8.565,8.059-8.565
	C138.069,121.887,141.216,125.483,141.216,130.452 M137.604,130.452c0-3.352-1.651-5.551-4.454-5.551
	c-2.772,0-4.449,2.176-4.449,5.551c0,3.769,1.93,5.557,4.449,5.557C135.682,136.009,137.604,134.221,137.604,130.452z"/>
<polyline points="149.136,122.247 152.878,133.531 152.929,133.531 156.465,122.247 161.604,122.247 161.604,138.646 
	158.251,138.646 158.251,126.479 158.163,126.479 154.191,138.646 151.417,138.646 147.409,126.592 147.343,126.592 
	147.343,138.646 143.973,138.646 143.973,122.247 149.136,122.247 "/>
<path d="M168.889,132.797v5.849h-3.607v-16.398c4.893,0,6.665,0,6.665,0c5.092,0,6.581,2.942,6.581,5.173
	c0,2.99-1.973,5.377-6.581,5.377H168.889 M171.821,129.782c2.067,0,3.008-0.781,3.008-2.248c0-1.352-0.778-2.249-3.008-2.249
	c0,0-2.087,0-2.933,0v4.497C169.896,129.782,171.821,129.782,171.821,129.782z"/>
<path d="M187.368,122.247l6.11,16.398h-3.77l-1.265-3.645h-6.124l-1.266,3.645h-3.675l6.317-16.398H187.368 M187.511,132.308
	l-2.115-6.014h-0.044l-2.091,6.014H187.511z"/>
<polyline points="198.993,122.247 205.739,133.186 205.787,133.186 205.787,122.247 209.163,122.247 209.163,138.646 
	205.558,138.646 198.736,127.666 198.692,127.666 198.692,138.646 195.313,138.646 195.313,122.247 198.993,122.247 "/>
<polyline points="220.714,132.36 220.714,138.646 217.128,138.646 217.128,132.271 210.997,122.247 215.22,122.247 218.945,128.706 
	218.988,128.706 222.778,122.247 226.798,122.247 220.714,132.36 "/>
<path fill="#037C85" d="M40.722,16.264c-2.899,0-7.636,0-10.744,0c0-4.667-3.468-7.639-9.829-7.639
	c-4.245,0-7.709,1.766-7.709,5.161c0,3.673,3.679,5.232,7.498,6.295c1.622,0.354,5.09,1.272,7.279,1.903
	c5.447,1.419,15.269,3.895,15.269,14.642c0,7.909-5.444,16.258-20.992,16.258C7.778,52.883,0,45.809,0,34.919
	c2.546,0,8.622,0,10.747,0c0,5.028,3.25,9.338,11.17,9.338c5.016,0,9.829-1.982,9.829-5.943c0-4.873-5.586-6.288-10.251-7.494
	c-2.827-0.706-4.598-1.198-7.283-1.835C6.859,27.006,1.698,22.625,1.698,14.777c0-9.118,8.13-14.708,18.947-14.708
	C35.491,0.069,40.722,7.986,40.722,16.264"/>
<path fill="#037C85" d="M83.156,38.314c-0.496,5.869-4.452,14.351-17.884,14.351c-11.453,0-19.442-7.494-19.442-19.224
	c0-11.812,7.99-19.302,19.442-19.302c12.938,0,17.25,7.993,17.746,13.716H72.693c-0.71-3.25-3.253-6.149-7.421-6.149
	c-6.721,0-8.623,6.645-8.623,11.735c0,6.645,2.827,11.667,8.623,11.667c4.595,0,6.926-3.398,7.633-6.794H83.156"/>
<path fill="#037C85" d="M97.116,10.252H86.51V1.203h10.605V10.252z M97.116,51.677H86.51V15.13h10.605V51.677z"/>
<path fill="#037C85" d="M111.606,35.842c0.069,3.534,1.91,9.267,8.627,9.267c5.162,0,7.21-2.976,7.775-4.742h10.394
	c-0.354,1.985-2.759,12.299-18.103,12.299c-11.447,0-19.647-7.494-19.647-19.224c0-11.812,7.988-19.302,19.439-19.302
	c11.101,0,19.37,7.213,19.37,19.302c0,0.774,0,1.627-0.073,2.4H111.606 M128.361,29.339c-0.211-3.389-2.827-7.633-8.269-7.633
	c-5.163,0-8.132,3.818-8.271,7.633H128.361z"/>
<path fill="#037C85" d="M152.654,51.677H142.05c0-24.735,0-27.359,0-27.359c0-2.612-0.277-8.408-0.354-9.188c0,0,0.783,0,10.252,0
	l0.355,4.03h0.283c0.846-1.061,4.033-5.021,10.536-5.021c9.47,0,13.709,5.941,13.709,14.631c0,0,0,9.191,0,22.907h-10.528
	c0-15.69,0-21.77,0-21.77c0-4.383-2.268-7.636-6.93-7.636c-4.032,0-6.72,2.899-6.72,7.916V51.677"/>
<path fill="#037C85" d="M203.301,44.887c0,0.502,0,6.651,0,7.424c-0.207,0.073-2.615,0.354-5.299,0.354
	c-8.76,0-12.725-5.369-12.725-11.451c0-0.563,0-17.669,0-18.805h-5.796V15.13h5.796V5.09h10.604v10.04h7.213v7.279h-7.213
	c0,0.919,0,17.392,0,17.676c0,3.534,2.05,5.023,4.805,5.023C201.751,45.109,203.022,44.887,203.301,44.887"/>
<path fill="#037C85" d="M217.142,10.252h-10.604V1.203h10.604V10.252z M217.142,51.677h-10.604V15.13h10.604V51.677z"/>
<path fill="#037C85" d="M236.383,12.796c0,0,0,0.288,0,2.334h7.917v7.279h-7.917c0,0,0,11.383,0,29.268h-10.607
	c0-17.531,0-29.268,0-29.268h-5.152V15.13h5.152c0-2.757,0-3.326,0-3.326C225.775,5.728,229.809,0,238.998,0
	c2.971,0,5.87,0.423,6.009,0.423c0,0.78,0,6.929,0,7.424c-0.284,0-1.982-0.215-3.39-0.215
	C239.072,7.633,236.383,9.047,236.383,12.796"/>
<path fill="#037C85" d="M259.149,10.252h-10.604V1.203h10.604V10.252z M259.149,51.677h-10.604V15.13h10.604V51.677z"/>
<path fill="#037C85" d="M300,38.314c-0.48,5.869-4.446,14.351-17.881,14.351c-11.446,0-19.438-7.494-19.438-19.224
	c0-11.812,7.991-19.302,19.438-19.302c12.941,0,17.251,7.993,17.745,13.716h-10.319c-0.703-3.25-3.255-6.149-7.426-6.149
	c-6.709,0-8.621,6.645-8.621,11.735c0,6.645,2.825,11.667,8.621,11.667c4.598,0,6.929-3.398,7.636-6.794H300"/>
<path fill="#037C85" d="M33.405,61.227l18.805,50.478H40.615l-3.888-11.243H17.855l-3.889,11.243H2.654l19.439-50.478H33.405
	 M33.828,92.189l-6.506-18.519h-0.135l-6.438,18.519H33.828z"/>
<path fill="#037C85" d="M72.64,104.918c0,0.499,0,6.645,0,7.425c-0.215,0.069-2.615,0.354-5.303,0.354
	c-8.77,0-12.725-5.371-12.725-11.454c0-0.565,0-17.673,0-18.807h-5.797v-7.278h5.797V65.119h10.608v10.039h7.205v7.278h-7.205
	c0,0.918,0,17.389,0,17.673c0,3.537,2.047,5.024,4.804,5.024C71.085,105.133,72.358,104.918,72.64,104.918"/>
<rect x="75.853" y="61.225" fill="#037C85" width="10.605" height="50.48"/>
<path fill="#037C85" d="M107.345,74.167c11.808,0,17.039,5.795,17.039,13.709c0,4.604,0,10.463,0,15.77
	c0,3.815,0.419,6.787,0.565,8.059c-1.271,0-9.118,0-10.109,0c-0.142-0.85-0.354-3.253-0.423-4.179c0,0,0,0-0.142,0
	c-0.922,1.137-3.746,5.17-11.453,5.17c-9.193,0-13.361-5.943-13.361-12.089c0-6.367,5.16-9.69,14.42-11.174
	c0,0,6.295-0.989,9.898-1.558c0-0.486,0-0.707,0-0.707c0-2.681-1.274-5.865-6.506-5.865c-4.877,0-6.292,2.691-6.572,5.089
	c0,0-3.035,0-10.39,0C90.591,81.238,93.629,74.167,107.345,74.167 M108.125,95.165c-5.865,0.99-7.917,2.754-7.917,5.158
	c0,2.758,1.837,5.021,5.939,5.021c5.511,0,7.631-3.538,7.631-8.559c0,0,0-0.914,0-2.546
	C111.589,94.594,108.125,95.165,108.125,95.165z"/>
<path fill="#037C85" d="M138.609,111.705h-10.6c0-24.748,0-27.359,0-27.359c0-2.615-0.281-8.413-0.354-9.188c0,0,0.778,0,10.251,0
	l0.354,4.024h0.283c0.846-1.059,4.029-5.016,10.532-5.016c9.471,0,13.713,5.934,13.713,14.63c0,0,0,9.189,0,22.909h-10.532
	c0-15.702,0-21.779,0-21.779c0-4.374-2.26-7.632-6.924-7.632c-4.029,0-6.723,2.901-6.723,7.917V111.705"/>
<path fill="#037C85" d="M189.263,104.918c0,0.499,0,6.645,0,7.425c-0.213,0.069-2.612,0.354-5.302,0.354
	c-8.766,0-12.725-5.371-12.725-11.454c0-0.565,0-17.673,0-18.807h-5.799v-7.278h5.799V65.119h10.607v10.039h7.206v7.278h-7.206
	c0,0.918,0,17.389,0,17.673c0,3.537,2.046,5.024,4.807,5.024C187.706,105.133,188.979,104.918,189.263,104.918"/>
<path fill="#037C85" d="M209.499,74.167c11.804,0,17.041,5.795,17.041,13.709c0,4.604,0,10.463,0,15.77
	c0,3.815,0.413,6.787,0.562,8.059c-1.275,0-9.121,0-10.109,0c-0.142-0.85-0.354-3.253-0.422-4.179c0,0,0,0-0.146,0
	c-0.921,1.137-3.743,5.17-11.45,5.17c-9.189,0-13.357-5.943-13.357-12.089c0-6.367,5.157-9.69,14.42-11.174
	c0,0,6.294-0.989,9.894-1.558c0-0.486,0-0.707,0-0.707c0-2.681-1.272-5.865-6.503-5.865c-4.872,0-6.293,2.691-6.571,5.089
	c0,0-3.038,0-10.393,0C192.741,81.238,195.785,74.167,209.499,74.167 M210.273,95.165c-5.866,0.99-7.917,2.754-7.917,5.158
	c0,2.758,1.837,5.021,5.941,5.021c5.508,0,7.633-3.538,7.633-8.559c0,0,0-0.914,0-2.546
	C213.741,94.594,210.273,95.165,210.273,95.165z"/>
</svg>
