<?xml version="1.0" encoding="UTF-8" standalone="no"?>
<svg xmlns:rdf="http://www.w3.org/1999/02/22-rdf-syntax-ns#" xmlns="http://www.w3.org/2000/svg" xml:space="preserve" height="51.909" viewBox="0 0 263.642 51.909419" width="263.64" version="1.1" xmlns:cc="http://creativecommons.org/ns#" xmlns:dc="http://purl.org/dc/elements/1.1/"><g transform="matrix(1.25 0 0 -1.25 -411.07 135.59)"><g><path d="m0.92773 1.0723l7.4805 12.377h1.4512v25.024h-1.3574l-7.5235 12.392h32.372l-7.524-12.392h-1.299v-8.075c3.287 5.568 9.532 16.137 9.532 16.137l2.972-4.992s3.291-5.573 6.576-11.139v8.071h-1.295l-7.521 12.396h32.371l-7.517-12.396h-1.366v-25.022h1.457l7.475-12.379-22.07 0.0002-11.071 18.696-11.07-18.698-22.072 0.0003zm82.525 0.1484l-1.719 0.0254h-3.105l0.008 0.209c0.8 0.2078 2.46 0.6811 2.756 1.0664 0.415 0.5334 0.297 1.2456 0.33 1.7187h-0.002c-0.013 0.5144-0.037 1.055-0.076 1.6641-0.178 2.3712-0.356 8.1227-0.86 12.242-0.059 1.394-0.148 3.054-0.414 3.557-0.296 0.534-1.424 0.86-2.254 1.215l-0.021 0.236h6.58l-0.016-0.228c-0.771-0.326-1.86-0.631-2.156-1.106-0.593-1.037-0.237-3.17-0.178-3.851l0.83-11.354c0.564 0.978 3.528 5.663 7.885 13.725 0.622 1.156 1.453 2.637 1.66 3.053 0.149-0.297 1.126-2.462 1.926-3.973 2.075-3.854 6.193-11.411 7.413-13.486l1.21 13.427c0.06 0.682 0.36 1.422-0.26 2.459-0.27 0.475-1.52 0.839-2.29 1.106l-0.03 0.228h7.96v-0.228c-0.83-0.326-2.21-0.718-2.47-1.252-0.21-0.415-0.36-1.156-0.42-1.838-0.03-0.119-0.8-8.715-1.3-14.229-0.06-0.6377-0.1-1.178-0.14-1.6949 0.01-0.5453 0.04-0.9688 0.38-1.416 0.42-0.4741 1.93-0.6819 2.76-1.0078l-0.01-0.2442h-4.93c-0.62 1.3932-0.97 2.2289-1.68 3.5332-2.992 5.4837-6.221 11.679-7.732 14.11-0.919-1.216-6.67-10.938-8.686-15.088-0.355-0.8002-0.742-1.9558-0.949-2.5783zm48.567 0c-0.18 0.7706-0.3 1.2447-0.53 2.0156-0.54 1.6894-3.92 10.701-6.67 16.955-0.21 0.564-0.36 0.948-0.62 1.452-0.3 0.563-1.66 0.949-2.49 1.275v0.221l6.76 0.015-0.02-0.195c-0.77-0.326-1.88-0.635-2.09-1.139-0.06-0.207 0.2-1.303 0.44-1.925l2.08-5.543h7.32l1.98 5.543c0.21 0.503 0.54 1.453 0.45 1.779-0.18 0.622-1.46 0.985-2.09 1.252l-0.02 0.228h7.52v-0.228c-0.86-0.386-2.15-0.779-2.45-1.342-0.26-0.534-0.47-0.888-0.68-1.451-0.8-1.749-5.22-13.457-6.46-17.34-0.18-0.5929-0.27-0.9795-0.44-1.5723h-1.99zm18.88 0l-1.72 0.0254h-3.11l0.01 0.209c0.8 0.2078 2.46 0.6811 2.76 1.0664 0.41 0.5334 0.29 1.2456 0.33 1.7187-0.02 0.5144-0.04 1.055-0.08 1.6641-0.18 2.3712-0.36 8.1227-0.86 12.242-0.06 1.394-0.15 3.054-0.41 3.557-0.3 0.534-1.43 0.86-2.26 1.215l-0.02 0.236h6.58l-0.01-0.228c-0.78-0.326-1.86-0.631-2.16-1.106-0.59-1.037-0.24-3.17-0.18-3.851l0.83-11.354c0.56 0.978 3.53 5.663 7.89 13.725 0.62 1.156 1.45 2.637 1.66 3.053 0.14-0.297 1.12-2.462 1.92-3.973 2.08-3.854 6.2-11.411 7.41-13.486l1.22 13.427c0.06 0.682 0.35 1.422-0.27 2.459-0.27 0.475-1.51 0.839-2.28 1.106l-0.04 0.228h7.97l-0.01-0.228c-0.83-0.326-2.2-0.718-2.47-1.252-0.21-0.415-0.35-1.156-0.41-1.838-0.03-0.119-0.8-8.715-1.31-14.229-0.05-0.6377-0.1-1.178-0.13-1.6949 0-0.5453 0.04-0.9688 0.38-1.416 0.41-0.4741 1.92-0.6819 2.75-1.0078v-0.2442h-4.94c-0.62 1.3932-0.96 2.2289-1.67 3.5332-3 5.4837-6.23 11.679-7.74 14.11-0.92-1.216-6.67-10.938-8.68-15.088-0.36-0.8002-0.74-1.9558-0.95-2.5783zm-39.07 0.0234v0.2188c0.8 0.2075 2.47 0.6479 2.76 1.0332 0.42 0.5337 0.3 1.2444 0.3 1.7187v15.947c0 0.474 0.12 1.185-0.3 1.719-0.29 0.385-1.96 0.858-2.76 1.066l-0.02 0.207h8.73l0.01-0.228c-0.83-0.326-2.34-0.571-2.76-1.074-0.38-0.475-0.38-0.95-0.38-1.573v-16.154c0-0.6522 0-1.1248 0.38-1.6289 0.42-0.4741 1.94-0.707 2.77-1.0332l-0.01-0.2188h-8.72zm67.44 0l0.01 0.2188c0.8 0.2075 2.46 0.6479 2.76 1.0332 0.41 0.5337 0.29 1.2444 0.29 1.7187v15.947c0 0.474 0.12 1.185-0.29 1.719-0.3 0.385-1.96 0.858-2.76 1.066l-0.03 0.207h8.74v-0.228c-0.83-0.326-2.34-0.571-2.75-1.074-0.39-0.475-0.39-0.95-0.39-1.573v-16.154c0-0.6522 0-1.1248 0.39-1.6289 0.41-0.4741 1.94-0.707 2.77-1.0332l-0.01-0.2188h-8.73zm-46.75 3.8008l3 7.7661h-6.02l3.02-7.7661zm74.59 23.303c-3.49 0.029-6.86 2.316-6.68 6.127 0.2 3.577 2.4 4.428 5.42 6.099 2.41 1.319 4.72 2.082 4.9 4.75 0.14 2.522-2.38 4.221-4.96 3.928-1.52-0.147-3.22-0.557-3.84-2.258l-0.79-1.93-0.2 0.002 0.14 4.92 1.26 0.323c0.65 0.146 2.2 0.556 3.61 0.556 4.07-0.029 6.98-2.169 6.92-6.097-0.09-3.577-3.26-4.956-6.42-6.569-1.26-0.615-3.9-1.877-3.93-4.164 0-2.345 1.96-4.25 4.45-4.133 1.79 0.088 2.91 0.382 3.46 1.789l0.99 2.5 0.25 0.002-0.06-5.172-0.59-0.175c-0.82-0.234-2.38-0.498-3.93-0.498zm-18.13 0.353c-1.14-0.012-2.1 0.086-3.28 0.086h-4.71l0.01 0.234c0.85 0.323 2.29 0.793 2.7 1.291 0.29 0.411 0.32 0.82 0.32 1.348v15.863c0 0.469 0.06 1.232-0.29 1.702-0.26 0.38-1.93 0.849-2.73 1.054l-0.02 0.205h8.64v-0.263c-0.82-0.323-2.31-0.529-2.72-1.028-0.39-0.469-0.38-0.937-0.38-1.552v-6.95h0.79l4.28 4.545c1.96 2.112 4.07 4.662 5.42 5.16 1.14 0.41 2.32 0.674 2.93 0.557l0.97-0.234-0.79-0.381c-1.55-0.792-1.82-1.027-2.79-1.965-1.55-1.466-2.46-2.581-3.95-4.252l-3.26-3.605 0.59-0.118c1.79-0.469 5.16-1.67 5.16-5.599s-3.02-5.865-5.66-6.041c-0.44-0.037-0.84-0.053-1.23-0.057zm-86.79 0.074l-0.02 0.198c0.84 0.229 2.35 0.556 2.76 1.027 0.27 0.348 0.35 0.681 0.38 1.068v14.256c0 1.261 0 3.195-0.27 3.694-0.29 0.527-1.32 0.88-2.14 1.232l-0.01 0.234h6.68l-0.06-0.213c-0.78-0.186-1.98-0.667-2.24-1.136-0.44-0.908-0.29-3.166-0.29-3.84v-12.695c1.9 1.817 6.53 7.535 11.17 12.431 0.74 0.778 0.97 1.002 1.2 1.233 0.39 0.403 0.76 0.826 3.84 4.279h1.41v-16.654s-0.09-3.313 0.35-3.752c0.44-0.44 1.39-0.863 2.15-1.157v-0.193h-6.68l0.01 0.234c0.8 0.352 1.91 0.617 2.2 1.174 0.27 0.499 0.15 2.287 0.18 3.752v12.461c-1.23-1.114-8.86-10.203-13.87-15.334-1-0.997-1.49-1.788-1.93-2.287l-4.82-0.012zm140 0.008l-16.57 0.01-0.02 5.238 0.3-0.002c0.44-1.056 0.66-3.013 1.31-3.424 0.26-0.146 0.5-0.205 0.79-0.205l4.54 0.059v17.064c0 0.469 0.12 1.173-0.29 1.702-0.29 0.38-1.93 0.849-2.72 1.054l-0.03 0.205h8.64v-0.211c-0.82-0.322-2.31-0.581-2.72-1.08-0.38-0.468-0.38-0.937-0.38-1.552v-17.182h3.87c0.55 0 0.91-0.029 1.4 0.146 0.74 0.264 1.35 2.605 1.67 3.543h0.21v-5.365zm-164.73 0.004l0.023 0.207c0.792 0.205 2.271 0.674 2.565 1.055 0.41 0.527 0.293 1.232 0.293 1.701v10.584c0 6.069 3.987 8.561 8.267 8.59 4.457 0.03 8.563-2.229 8.563-8.944v-9.175c0-0.352 0.087-2.199 0.41-2.61 0.352-0.469 1.872-0.818 2.662-1.199v-0.209h-7.847l0.043 0.199c0.762 0.323 2.386 0.828 2.709 1.209 0.381 0.528 0.351 1.203 0.351 1.672v10.936c0 4.398-3.46 7.065-6.978 6.566-3.343-0.499-5.688-2.256-5.688-6.918v-10.791c0-0.645 0-1.113 0.381-1.611 0.41-0.469 1.89-0.75 2.711-1.072l0.012-0.19h-8.477zm62.393 0l0.02 0.203c0.82 0.44 2.16 0.825 2.46 1.381 0.26 0.528 0.38 0.879 0.61 1.436 0.74 1.759 5.51 13.282 6.77 17.123 0.21 0.732 0.47 1.114 0.77 1.847h1.49c0.27-0.88 0.38-1.407 0.65-2.257 0.52-1.701 5.33-15.392 6.1-16.916 0.2-0.558 0.44-0.91 0.73-1.409 0.29-0.557 1.92-0.888 2.74-1.211v-0.197h-7.21l0.05 0.197c0.77 0.269 2.07 0.83 2.25 1.328 0.09 0.206-0.09 1.057-0.32 1.702l-5.43 14.746-5.83-14.717c-0.18-0.528-0.5-1.467-0.41-1.818 0.17-0.587 1.58-1.01 2.2-1.245l0.04-0.193h-7.68zm23.17 0l0.03 0.207c0.79 0.205 2.43 0.674 2.73 1.055 0.38 0.498 0.29 0.966 0.29 1.611v15.863c0 0.469 0.09 1.232-0.29 1.702-0.3 0.38-1.94 0.849-2.73 1.054l-0.03 0.205h14.89l0.15-4.099-0.27 0.019c-0.38 0.879-0.7 2.291-1.2 2.555-0.44 0.175-0.79 0.088-1.26 0.088h-4.8c-0.56 0-0.94 0.088-1.47-0.147-0.38-0.176-0.5-1.053-0.5-1.523v-7.213h4.31c0.65 0 1.06-0.029 1.64 0.293 0.59 0.323 0.79 1.378 1.09 2.17l0.26 0.023v-6.248l-0.25 0.008-0.37 1.262c-0.14 0.322-0.29 0.498-0.58 0.732-0.5 0.382-1.18 0.293-1.94 0.293h-4.16v-7.037c0-0.469-0.03-0.996 0.18-1.201 0.29-0.293 0.87-0.234 1.46-0.234h3.61c0.58 0 1.26 0.058 1.79 0.38 0.61 0.411 0.93 1.58 1.22 2.342l0.21-0.002 0.03-4.158h-14.04zm-32.9 0.01l0.01 0.217c0.79 0.205 2.44 0.641 2.73 1.023 0.41 0.529 0.29 1.235 0.29 1.705v15.803c0 0.47 0.12 1.174-0.29 1.703-0.29 0.382-1.94 0.853-2.73 1.059l-0.03 0.205h8.66v-0.229c-0.82-0.323-2.32-0.565-2.73-1.064-0.38-0.47-0.38-0.94-0.38-1.557v-16.01c0-0.646 0-1.116 0.38-1.615 0.41-0.47 1.93-0.701 2.75-1.023l-0.01-0.217h-8.65zm84.96 0l0.01 0.217c0.79 0.205 2.43 0.641 2.73 1.023 0.41 0.529 0.29 1.235 0.29 1.705v15.803c0 0.47 0.12 1.174-0.29 1.703-0.3 0.382-1.94 0.853-2.73 1.059l-0.03 0.205h8.65l0.01-0.229c-0.82-0.323-2.32-0.565-2.73-1.064-0.38-0.47-0.38-0.94-0.38-1.557v-16.01c0-0.646 0-1.116 0.38-1.615 0.41-0.47 1.92-0.701 2.75-1.023l-0.01-0.217h-8.65zm28.27 0.012l0.02 0.216c0.86 0.324 1.95 0.459 2.86 1.282 0.44 0.382 0.68 1.027 1.09 1.703l4.41 8.252v7.312c0 0.47 0.12 1.175-0.29 1.703-0.29 0.382-2.05 0.832-2.85 1.037l-0.03 0.227h8.96l-0.02-0.227c-0.82-0.322-2.51-0.567-2.89-1.066-0.38-0.47-0.41-0.911-0.41-1.557l0.03-8.281 4.35-7.4c0.41-0.676 0.67-1.321 1.11-1.703 0.91-0.823 2-0.958 2.85-1.282l0.03-0.216h-7.43l0.01 0.216c1.44 0.503 2.07 0.753 2.25 1.223 0.09 0.206-0.29 1.116-0.73 1.879l-3.41 5.932-3.49-6.34c-0.34-0.651-0.58-1.301-0.51-1.471 0.17-0.47 0.81-0.72 2.25-1.223l0.01-0.216h-8.17zm-54.72 1.281c0.25-0.003 0.5 0.003 0.73 0.017 1.9 0.089 3.96 1.731 4.16 4.311 0.24 2.962-2.4 4.983-5.63 5.012l-1.37 0.031v-7.947c0-0.47-0.03-0.908 0.35-1.172 0.24-0.154 1.01-0.242 1.76-0.252z" transform="matrix(.8 0 0 -.8 328.86 108.47)"/><path d="m372.75 74.959v25.477h2.3478l2.69 4.4485h-11.25l-10.42-17.598-10.42 17.603h-11.25l2.6875-4.452h2.3572v-25.472h-2.2872l-2.7052-4.455h16.184l-2.7082 4.455h-2.2318v19.199l10.366-17.545 0.009 0.0063 0.002-0.01025 10.37 17.546v-19.202h-2.2312l-2.7085-4.4508h16.182l-2.7 4.4508h-2.282z" fill="#b61e2e"/></g></g></svg>
