<?xml version="1.0" encoding="UTF-8" standalone="no"?>
<svg xmlns:rdf="http://www.w3.org/1999/02/22-rdf-syntax-ns#" xmlns="http://www.w3.org/2000/svg" enable-background="new 0 0 134.121 56.517" xml:space="preserve" height="46.503" viewBox="0 0 136.121 46.503" width="136.12" version="1.1" y="0px" x="0px" xmlns:cc="http://creativecommons.org/ns#" xmlns:dc="http://purl.org/dc/elements/1.1/"><path fill="#b09863" d="m15.904 1.2012l-8.2575 0.1914-4.668-0.1016c-0.748 0-1.3654-0.013-1.8594-0.041v1.4316c1.1723 0.0113 2.0431 0.0769 2.6153 0.1973 0.1907 0.0401 0.3486 0.0864 0.4726 0.1387 0.105 0.045 0.1965 0.1028 0.2754 0.1738s0.1448 0.155 0.1973 0.252c0.0375 0.0745 0.0737 0.1773 0.1055 0.3105s0.0597 0.2963 0.0859 0.4883c0.0524 0.3839 0.0945 0.8854 0.125 1.5039 0.064 1.969 0.0957 3.6835 0.0957 5.1449v13.488c0 0.761-0.0356 1.866-0.1016 3.32-0.068 1.454-0.1453 2.405-0.2343 2.852-0.031 0.142-0.0677 0.262-0.1094 0.361-0.0418 0.099-0.0876 0.177-0.1406 0.233s-0.2112 0.155-0.4727 0.298c-0.2615 0.144-0.6277 0.332-1.0977 0.563v1.045c1.978-0.126 3.3195-0.192 4.0215-0.192l6.514 0.192c1.617 0 3.07-0.168 4.359-0.504 0.43-0.112 0.84-0.243 1.232-0.393 0.264-0.1 0.522-0.208 0.774-0.322 0.504-0.228 0.984-0.483 1.439-0.766 0.684-0.424 1.312-0.911 1.887-1.459 0.384-0.365 0.745-0.758 1.08-1.177 0.168-0.21 0.324-0.423 0.471-0.641 0.293-0.436 0.544-0.89 0.754-1.359 0.104-0.235 0.197-0.474 0.281-0.717 0.168-0.486 0.293-0.987 0.377-1.506s0.127-1.055 0.127-1.607c0-0.28-0.012-0.552-0.035-0.819-0.047-0.533-0.141-1.04-0.281-1.521-0.071-0.241-0.153-0.476-0.247-0.703-0.187-0.456-0.417-0.876-0.691-1.262-0.137-0.193-0.286-0.377-0.445-0.553-0.159-0.175-0.329-0.343-0.51-0.502-0.363-0.317-0.768-0.593-1.219-0.832-0.225-0.119-0.462-0.23-0.709-0.33s-0.506-0.189-0.775-0.269c-0.538-0.161-1.159-0.301-1.865-0.422-0.707-0.121-1.497-0.223-2.371-0.305 0.659-0.164 1.255-0.337 1.789-0.518 0.533-0.181 1.004-0.37 1.412-0.568 0.204-0.099 0.404-0.206 0.599-0.32 0.585-0.341 1.126-0.749 1.625-1.225 0.667-0.634 1.199-1.385 1.596-2.25 0.297-0.6493 0.484-1.3319 0.559-2.0487 0.024-0.2389 0.037-0.482 0.037-0.7285 0-0.3095-0.021-0.6111-0.063-0.9062-0.083-0.5902-0.248-1.1511-0.498-1.6836-0.125-0.2662-0.271-0.5256-0.437-0.7774-0.167-0.2517-0.35-0.4862-0.549-0.7031-0.596-0.6506-1.336-1.1445-2.223-1.4805-0.296-0.112-0.622-0.2089-0.98-0.2929s-0.748-0.155-1.168-0.211c-0.841-0.112-1.807-0.1679-2.899-0.1679zm-2.742 1.8144c1.146 0 2.155 0.105 3.026 0.3125 0.435 0.1038 0.836 0.2331 1.203 0.3887 0.183 0.0778 0.357 0.1612 0.523 0.252 0.166 0.0907 0.324 0.1892 0.473 0.2929 0.149 0.1038 0.287 0.216 0.418 0.336 0.13 0.1199 0.251 0.2466 0.363 0.3828s0.214 0.2811 0.307 0.4336c0.186 0.3048 0.335 0.6418 0.447 1.0117 0.111 0.3699 0.185 0.7721 0.223 1.207 0.018 0.2175 0.027 0.444 0.027 0.6777 0 0.531-0.045 1.0287-0.137 1.4922-0.046 0.2313-0.103 0.4553-0.172 0.6703-0.068 0.215-0.148 0.421-0.24 0.619s-0.189 0.385-0.293 0.562c-0.103 0.178-0.213 0.345-0.328 0.502-0.23 0.314-0.483 0.587-0.76 0.819-0.139 0.116-0.292 0.227-0.459 0.332-0.167 0.104-0.347 0.203-0.543 0.297-0.391 0.187-0.84 0.351-1.345 0.494-0.505 0.142-1.116 0.249-1.833 0.32-0.358 0.035-0.743 0.062-1.154 0.08s-0.848 0.025-1.312 0.025c-0.643 0-1.391-0.014-2.2444-0.046v-5.3286c0-2.595 0.0653-4.512 0.1933-5.75 1.1391-0.255 2.3431-0.3828 3.6171-0.3828zm115.7 1.4805c-0.24 0.1532-0.5 0.3045-0.78 0.4531s-0.57 0.2955-0.89 0.4395c-0.31 0.1439-0.64 0.2846-0.99 0.4238-0.36 0.1392-0.73 0.2757-1.11 0.4102v6.8203c-0.43 0.227-0.93 0.469-1.5 0.727-0.58 0.257-1.23 0.529-1.95 0.816v0.939c0.93-0.095 1.78-0.142 2.53-0.142h0.92v9.305c0 0.284-0.01 0.544-0.02 0.783-0.04 1.211-0.06 2.324-0.08 3.34 0.04 0.531 0.1 0.992 0.19 1.38 0.04 0.195 0.09 0.371 0.14 0.53s0.11 0.3 0.18 0.424c0.26 0.493 0.58 0.899 0.97 1.22s0.82 0.571 1.28 0.75c0.47 0.179 1.1 0.27 1.89 0.27 0.32 0 0.62-0.009 0.9-0.026 0.29-0.017 0.55-0.042 0.8-0.076 0.24-0.033 0.5-0.083 0.76-0.152s0.54-0.155 0.82-0.26c0.65-0.597 1.33-1.172 2.03-1.725l-0.27-0.857c-0.29 0.105-0.55 0.189-0.79 0.254s-0.46 0.111-0.64 0.137c-0.38 0.052-0.88 0.078-1.49 0.078-0.4-0.052-0.74-0.115-1.03-0.19-0.28-0.074-0.51-0.16-0.67-0.257-0.34-0.194-0.61-0.452-0.82-0.774-0.1-0.16-0.19-0.335-0.26-0.523-0.07-0.189-0.13-0.393-0.16-0.61-0.04-0.217-0.06-0.657-0.07-1.322s0-1.554 0.02-2.668l0.1-9.125c1.41-0.015 2.5-0.023 3.3-0.023 0.79 0 1.65 0.008 2.6 0.023l0.47-2.088-0.16-0.158c-0.39 0.058-0.97 0.096-1.75 0.115-1.4 0.034-2.17 0.051-2.31 0.051-0.24 0-0.95-0.008-2.15-0.023 0.1-2.124 0.19-3.8728 0.27-5.2465 0.09-1.3738 0.18-2.3731 0.26-2.9961l-0.54-0.4473zm-91.766 7.0199c-0.103 0-0.303 0.075-0.598 0.224-0.687 0.337-1.576 0.641-2.666 0.914-0.545 0.137-1.14 0.266-1.785 0.387s-1.34 0.233-2.086 0.338v1.289c0.842-0.008 1.504-0.003 1.986 0.014 0.482 0.016 0.785 0.044 0.907 0.086 0.122 0.041 0.225 0.092 0.31 0.154 0.085 0.061 0.151 0.133 0.199 0.215s0.088 0.253 0.119 0.513c0.032 0.261 0.054 0.61 0.069 1.049 0.064 1.371 0.096 2.654 0.096 3.846v2.658c0 0.179-0.033 2.257-0.096 6.235-0.031 0.73-0.122 1.266-0.274 1.609-0.076 0.179-0.176 0.317-0.304 0.414-0.129 0.097-0.321 0.166-0.578 0.211-0.137 0.03-1.061 0.06-2.77 0.09v1.289c0.898-0.048 1.811-0.084 2.738-0.108 0.928-0.024 1.87-0.037 2.828-0.037 1.855 0 4.102 0.05 6.737 0.145v-1.289c-0.996-0.067-1.8-0.135-2.41-0.201-0.611-0.067-1.029-0.135-1.254-0.202-0.113-0.037-0.21-0.078-0.291-0.125-0.081-0.046-0.147-0.096-0.196-0.152-0.098-0.111-0.177-0.294-0.236-0.547-0.061-0.253-0.098-0.842-0.113-1.764-0.065-2.603-0.096-4.394-0.096-5.376v-2.297c0-0.472 0.026-0.915 0.076-1.328 0.051-0.414 0.126-0.797 0.227-1.151 0.151-0.531 0.359-0.996 0.625-1.394 0.088-0.133 0.184-0.259 0.285-0.377 0.202-0.237 0.415-0.442 0.639-0.619 0.671-0.532 1.441-0.797 2.306-0.797 0.518 0 0.969 0.09 1.356 0.271 0.129 0.06 0.251 0.131 0.365 0.211s0.225 0.171 0.332 0.275 0.21 0.22 0.311 0.348c0.1 0.128 0.197 0.267 0.291 0.418 0.093 0.152 0.183 0.315 0.269 0.49h1.01c0.015-0.75 0.053-1.56 0.117-2.429 0.064-0.87 0.153-1.799 0.266-2.787l-0.135-0.311c-0.615-0.268-1.236-0.402-1.865-0.402-0.63 0-1.237 0.114-1.821 0.345-0.293 0.116-0.569 0.252-0.828 0.407-0.258 0.154-0.5 0.328-0.724 0.521-0.255 0.224-0.667 0.715-1.235 1.475-0.571 0.76-1.191 1.527-1.865 2.302 0.009-1.916 0.036-3.33 0.082-4.244 0.009-0.134 0.014-0.252 0.014-0.357 0-0.075-0.009-0.141-0.024-0.197s-0.037-0.102-0.066-0.139c-0.059-0.075-0.14-0.113-0.244-0.113zm45.051 0c-0.288 0-0.569 0.009-0.842 0.029-0.548 0.039-1.066 0.119-1.557 0.236-0.246 0.059-0.485 0.127-0.717 0.205-0.303 0.109-0.627 0.242-0.972 0.401-1.038 0.476-2.269 1.179-3.692 2.109 0.014 0.374 0.022 0.875 0.022 1.502 0 0.598-0.007 1.066-0.022 1.41l1.188 0.315c0.194-0.507 0.494-1.207 0.9-2.102l0.402-0.805c0.15-0.164 0.559-0.364 1.225-0.603 0.166-0.06 0.34-0.112 0.52-0.156 0.179-0.045 0.367-0.082 0.56-0.112 0.387-0.059 0.801-0.09 1.242-0.09 0.307 0 0.602 0.016 0.885 0.047 0.283 0.032 0.555 0.08 0.815 0.143 0.519 0.127 0.993 0.317 1.419 0.57 0.213 0.127 0.41 0.262 0.592 0.406 0.183 0.145 0.351 0.299 0.502 0.461 0.152 0.163 0.288 0.334 0.408 0.514 0.121 0.18 0.225 0.367 0.315 0.565 0.09 0.197 0.17 0.415 0.236 0.652 0.067 0.237 0.121 0.494 0.164 0.769 0.087 0.552 0.125 1.181 0.117 1.889-0.959 0.112-1.923 0.254-2.892 0.426s-1.942 0.372-2.92 0.603c-0.979 0.232-1.821 0.456-2.527 0.672-0.354 0.108-0.672 0.214-0.957 0.319-0.286 0.104-0.537 0.207-0.754 0.308-0.51 0.238-1.013 0.608-1.508 1.108-0.372 0.374-0.702 0.847-0.992 1.42-0.097 0.19-0.19 0.393-0.278 0.605-0.088 0.213-0.166 0.431-0.232 0.654-0.199 0.672-0.297 1.394-0.297 2.166 0 0.399 0.032 0.778 0.096 1.137 0.095 0.539 0.261 1.034 0.498 1.484s0.544 0.856 0.924 1.217c0.126 0.12 0.259 0.233 0.398 0.338 0.278 0.211 0.582 0.391 0.91 0.541 0.164 0.075 0.333 0.143 0.51 0.203 0.353 0.121 0.733 0.212 1.137 0.272 0.403 0.06 0.831 0.09 1.285 0.09 0.217 0 0.424-0.01 0.623-0.028 0.596-0.054 1.107-0.192 1.535-0.41 0.142-0.073 0.362-0.208 0.66-0.406s0.674-0.46 1.127-0.783c0.907-0.648 2.125-1.546 3.654-2.696l-0.095 3.94c1.49-0.095 2.682-0.145 3.578-0.145 0.924 0 1.997 0.05 3.219 0.145v-1.289l-1.463-0.135c-0.479-0.03-0.796-0.091-0.946-0.18-0.097-0.052-0.182-0.117-0.253-0.199-0.072-0.082-0.129-0.179-0.174-0.291-0.06-0.156-0.105-0.364-0.135-0.621s-0.045-0.564-0.045-0.922v-6.668l0.096-4.094c0-0.361-0.011-0.704-0.035-1.027-0.025-0.323-0.061-0.629-0.11-0.914-0.097-0.571-0.243-1.065-0.437-1.482-0.285-0.597-0.645-1.124-1.078-1.583-0.217-0.229-0.451-0.441-0.706-0.636-0.254-0.195-0.526-0.371-0.818-0.531-0.583-0.321-1.235-0.563-1.953-0.723-0.718-0.161-1.503-0.24-2.355-0.24zm19.495 0c-0.1 0-0.3 0.075-0.59 0.224-0.35 0.168-0.74 0.328-1.185 0.481-0.888 0.304-1.979 0.579-3.269 0.82-0.646 0.121-1.342 0.233-2.088 0.338v1.289c1.685-0.015 2.647 0.017 2.883 0.1 0.118 0.041 0.217 0.092 0.3 0.154 0.083 0.061 0.15 0.133 0.198 0.215s0.09 0.253 0.125 0.513c0.035 0.261 0.063 0.61 0.086 1.049 0.065 1.371 0.097 2.654 0.097 3.846v2.658c-0.066 4.082-0.097 6.218-0.097 6.412-0.023 0.38-0.061 0.703-0.114 0.967-0.052 0.264-0.118 0.473-0.201 0.621-0.091 0.15-0.224 0.272-0.396 0.369-0.173 0.097-0.419 0.151-0.733 0.166l-2.146 0.024v1.289c2.838-0.095 4.885-0.144 6.14-0.145 0.74 0 1.52 0.012 2.35 0.035 0.82 0.024 1.69 0.06 2.6 0.108v-1.289c-1.58-0.03-2.42-0.052-2.51-0.067-0.13-0.029-0.24-0.062-0.33-0.101-0.1-0.039-0.18-0.083-0.24-0.131-0.06-0.049-0.11-0.102-0.16-0.16-0.04-0.058-0.08-0.12-0.11-0.188-0.15-0.341-0.24-0.885-0.27-1.629 0-0.311-0.04-2.399-0.1-6.265v-2.699c0-0.409 0.01-0.787 0.04-1.137 0.02-0.35 0.06-0.67 0.11-0.961s0.11-0.553 0.19-0.785c0.07-0.232 0.16-0.435 0.26-0.608 0.1-0.172 0.21-0.34 0.35-0.504 0.13-0.163 0.28-0.321 0.45-0.474 0.33-0.307 0.73-0.595 1.19-0.863 0.24-0.135 0.48-0.253 0.72-0.354 0.25-0.101 0.5-0.185 0.76-0.252 0.51-0.135 1.05-0.203 1.61-0.203 0.64 0 1.24 0.077 1.78 0.23 0.55 0.153 1.04 0.382 1.5 0.688 0.22 0.153 0.43 0.317 0.61 0.494 0.19 0.177 0.35 0.365 0.5 0.566 0.29 0.403 0.5 0.854 0.62 1.354 0.09 0.365 0.16 0.932 0.21 1.699 0.04 0.768 0.06 1.736 0.06 2.906v3.758c0 0.969-0.11 3.294-0.33 6.975 1.95-0.095 3.34-0.143 4.19-0.143 0.97 0 2.19 0.048 3.66 0.143v-1.289l-2.44-0.067c-0.17-0.022-0.32-0.061-0.44-0.115-0.13-0.054-0.23-0.123-0.31-0.209-0.08-0.085-0.15-0.205-0.21-0.359-0.06-0.155-0.11-0.345-0.14-0.569-0.07-0.7-0.1-2.018-0.1-3.955v-3.955c0-3.069-0.05-4.938-0.16-5.609-0.04-0.283-0.1-0.554-0.17-0.813-0.06-0.258-0.14-0.505-0.23-0.74-0.19-0.469-0.41-0.889-0.69-1.262-0.27-0.372-0.61-0.712-1.02-1.021s-0.89-0.586-1.43-0.832c-0.55-0.246-1.11-0.432-1.68-0.555-0.58-0.123-1.17-0.183-1.78-0.183-0.55 0-1.11 0.056-1.69 0.168-0.59 0.111-1.18 0.278-1.8 0.502l-4.19 3.556c0.03-1.738 0.06-2.878 0.08-3.418 0.01-0.135 0.02-0.254 0.02-0.359 0-0.075-0.01-0.141-0.02-0.197-0.02-0.057-0.04-0.102-0.07-0.139-0.03-0.038-0.07-0.067-0.11-0.086s-0.08-0.027-0.14-0.027zm-54.486 0.478v1.287c1.062 0.117 1.747 0.267 2.053 0.448 0.077 0.045 0.15 0.102 0.225 0.169 0.074 0.068 0.148 0.147 0.22 0.237 0.144 0.18 0.283 0.405 0.418 0.674 0.337 0.683 0.721 1.524 1.153 2.523s0.912 2.156 1.441 3.471l3.547 8.834c0.669 1.674 1.242 3.182 1.717 4.527-0.624 1.671-1.33 3.313-2.119 4.924-0.523 1.037-0.974 1.765-1.356 2.189-0.19 0.212-0.388 0.396-0.594 0.551-0.205 0.156-0.419 0.284-0.64 0.383-0.44 0.196-0.893 0.295-1.356 0.295-0.224 0-0.423-0.01-0.593-0.027-0.171-0.018-0.314-0.046-0.43-0.081s-0.228-0.077-0.336-0.128c-0.108-0.052-0.214-0.112-0.315-0.178-0.201-0.135-0.444-0.315-0.728-0.541h-0.537l-1.145 3.437c0.247 0.13 0.481 0.242 0.703 0.334 0.223 0.093 0.431 0.166 0.627 0.221 0.397 0.108 0.842 0.162 1.336 0.162 0.763 0 1.48-0.122 2.151-0.363 0.223-0.081 0.44-0.174 0.654-0.281 0.426-0.215 0.823-0.481 1.189-0.795 0.184-0.158 0.36-0.328 0.528-0.51s0.329-0.377 0.482-0.584c0.459-0.623 0.981-1.557 1.567-2.803 0.195-0.415 0.396-0.865 0.605-1.349l5.184-12.12c2.289-5.027 3.857-8.39 4.703-10.088 0.422-0.849 0.791-1.522 1.107-2.021 0.158-0.249 0.302-0.455 0.434-0.617 0.131-0.162 0.251-0.279 0.355-0.354 0.105-0.074 0.22-0.139 0.346-0.197 0.378-0.173 0.854-0.27 1.426-0.293l0.224-1.336c-0.658 0.048-1.32 0.082-1.986 0.106-0.666 0.023-1.335 0.037-2.008 0.037-0.666 0-1.381-0.014-2.148-0.037-0.767-0.024-1.585-0.058-2.453-0.106v1.336c1.178 0.11 1.981 0.222 2.406 0.336 0.142 0.038 0.241 0.077 0.299 0.115 0.116 0.078 0.203 0.171 0.261 0.28 0.059 0.108 0.086 0.231 0.086 0.371 0 0.176-0.028 0.381-0.089 0.615-0.193 0.676-0.877 2.476-2.047 5.4s-1.985 4.907-2.451 5.951l-1.192 2.641c-0.582-1.298-1.297-2.991-2.148-5.08l-1.409-3.49c-0.522-1.298-1.073-2.864-1.654-4.699-0.255-0.721-0.381-1.196-0.381-1.428 0-0.094 0.011-0.181 0.035-0.26 0.073-0.237 0.256-0.411 0.547-0.52 0.112-0.042 0.389-0.087 0.83-0.134 0.442-0.047 1.048-0.096 1.819-0.147v-1.287c-1.627 0.095-3.32 0.143-5.082 0.143-0.903 0-1.809-0.014-2.723-0.037-0.914-0.024-1.833-0.058-2.758-0.106zm-35.332 4.201c0.699 0 1.349 0.017 1.949 0.049 0.601 0.032 1.151 0.08 1.653 0.145 1.004 0.128 1.81 0.32 2.42 0.578 0.305 0.129 0.592 0.274 0.859 0.437 0.534 0.327 0.991 0.722 1.373 1.186 0.191 0.232 0.364 0.481 0.518 0.748 0.306 0.533 0.536 1.129 0.689 1.787 0.154 0.658 0.231 1.379 0.231 2.162 0 1.582-0.327 2.984-0.975 4.207-0.162 0.306-0.342 0.592-0.539 0.86-0.197 0.267-0.412 0.513-0.645 0.742-0.232 0.228-0.48 0.439-0.748 0.629-0.267 0.189-0.553 0.358-0.855 0.509s-0.627 0.284-0.977 0.397c-1.049 0.34-2.313 0.51-3.791 0.51-0.619 0-1.223-0.032-1.812-0.096-0.59-0.064-1.164-0.159-1.7228-0.287-0.064-3.164-0.0967-5.158-0.0957-5.979v-8.488c1.0025-0.063 1.8245-0.096 2.4685-0.096zm74.032 5.061h0.001v6.021c-0.243 0.286-0.486 0.555-0.73 0.805-0.488 0.501-0.978 0.929-1.467 1.287-0.244 0.179-0.489 0.34-0.734 0.483s-0.49 0.269-0.736 0.377c-0.247 0.107-0.495 0.196-0.743 0.267-0.247 0.072-0.495 0.126-0.744 0.162s-0.499 0.053-0.75 0.053c-0.273 0-0.532-0.018-0.775-0.057-0.243-0.038-0.472-0.096-0.686-0.174-0.426-0.154-0.792-0.384-1.099-0.693-0.153-0.154-0.288-0.325-0.403-0.51-0.115-0.184-0.21-0.383-0.287-0.597-0.077-0.215-0.135-0.445-0.174-0.69-0.038-0.245-0.056-0.504-0.056-0.779 0-0.227 0.011-0.45 0.035-0.666 0.073-0.649 0.256-1.253 0.549-1.811 0.126-0.252 0.264-0.472 0.414-0.662 0.149-0.189 0.311-0.348 0.484-0.474 0.142-0.108 0.308-0.215 0.5-0.321 0.193-0.105 0.411-0.21 0.654-0.314 0.244-0.104 0.513-0.208 0.807-0.311 0.294-0.102 0.613-0.202 0.957-0.302 1.376-0.401 3.038-0.766 4.983-1.094z"/></svg>
