<svg xmlns="http://www.w3.org/2000/svg" height="119.19" viewBox="0 0 250 119.18879" width="250"><g transform="matrix(1.25 0 0 -1.25 -154.71 192.3)"><g transform="matrix(.44490 0 0 .44490 124.48 59.191)"><path d="m430.77 155.23 15.173-0.846-13.343 56.316-193.27 0.013s-15.027-29.27-21.961-41.95l-20.19 41.95-184.57 0.01-12.61-55.5 15.153 0.47 0.208-70.555-14.647-4.962 14.901-53.103s18.062 10.214 27.953 14.443c4.901 2.096 10.741 4.392 17.254 6.567 0.306-0.577 0.618-1.183 0.94-1.825 5.226-10.426 5.398-21.649 4.881-30.946l-0.346-6.222 6.017-1.616c2.642-0.709 4.74-1.297 6.643-1.742 2.258-0.526 4.288-0.87 6.503-1.022 4.577-0.31 9.558 0.255 17.13 1.544 5.562 0.947 11.522 3.503 15.898 5.577 2.22 1.052 4.216 2.072 5.801 2.875l1.941 0.996c19.047 5.68 28.728 3.267 35.169 1.121l12.168-4.295-5.479 17.775c9.069-0.455 17.597-1.358 28.635-3.104 25.985-4.114 54.204-15.426 64.925-18.305 22.219-5.963 39.883-8.023 57.428-8.779 42.922-1.851 74.936 19.876 75.33 20.144l7.116 4.831-11.716 13.628h14.72v16.716c8.775 3.965 15.693 10.414 20.234 19.816 3.842 7.956 5.119 16.532 5.64 23.916 0.487 6.893 0.37 14.417 0.37 22.155v33.908" fill="#b2b1ae"/><path d="m22.9 9.293-11.609 51.111 16.572-0.46875 0.01953 102.27c0 0.89875 0.07781 1.077 0.03906 1.2383-0.0275 0.0325-0.60031 0.57961-3.7891 1.6621l-12.334 4.1758 13.252 47.227s13.126-7.4182 25.893-12.877c8.1562-3.4888 18.326-7.4015 29.773-10.865 1.7312 2.57 3.3155 5.3833 5.0605 8.8633 7.7062 15.372 7.7705 31.527 7.1055 43.516 12.72 3.4175 14.948 4.5308 33.744 1.332 11.119-1.8925 25.741-10.746 28.42-11.545 25.309-7.5475 35.077-6.2159 47.953-0.44336l-6.6602-18.65c17.828 0.295 31.319 1.3164 51.062 4.4414 32.87 5.2012 68.581 19.448 82.145 23.088 26.971 7.2388 48.412 9.7388 69.711 10.656 50.495 2.1775 88.361-23.531 88.361-23.531l-21.758-25.309 2.625-13.451c27.169 0.86499 45.436-7.3574 54.404-25.934 4.0788-8.4438 5.5643-17.845 6.1856-26.635 0.5925-8.42 0.43945-17.612 0.43945-27.064v-50.102l-0.0273-1.7441 16.473 0.91992-12.285-51.85-229.16-0.015625s-21.706 41.883-33.143 62.719l-30.42-62.702-218.06-0.014zm451.26 188.15v2.7051h2.6387v9.5801h3.1953v-9.5801h2.6387v-2.7051h-8.4727zm11.252 0-2.0859 12.285h3.1777l1.0254-7.0703h0.0332l2.8184 7.0703h1.2715l2.9512-7.0703h0.0312l0.89648 7.0703h3.1914l-1.8555-12.285h-3.1777l-2.6406 6.5664-2.4922-6.5664h-3.1445z" transform="matrix(.8 0 0 -.8 0 211)" fill="#14234b"/><path d="m364.12 42.84 4.066 21.207-2.413-0.942c-10.832-4.223-23.099-7.588-28.384-8.077-22.334-2.07-44.337 2.137-64.105 7.7-19.857 5.588-37.354 12.499-50.516 15.709-18.947 4.621-35.734 7.112-50.481 8.159-30.788 2.187-52.682-1.914-66.772-6.045l-0.246-0.072c-16.717-4.91-25.682-8.934-34.045-16.206l-1.074-0.935 0.928-1.079c1.039-1.207 1.835-2.069 2.509-2.837 0.628-0.714 1.144-1.339 1.657-2.107 1.014-1.519 2.065-3.66 4.126-8.533 3.814-9.014 3.939-11.996 3.795-20.02l-0.046-2.576 2.211 1.322c10.789 6.447 16.533 9.409 29.176 13.361 22.428 7.008 53.423 5.98 81.842 3.138 9.583-0.958 18.932-3.048 28.368-5.662 9.503-2.632 19.094-5.794 29.097-8.879 20.068-6.188 41.902-12.108 68.031-12.817 16.859-0.458 29.256 2.104 37.84 5.005 4.299 1.452 7.627 2.984 10.069 4.254 2.4 1.248 3.927 2.237 4.667 2.631l1.598 0.856-11.906 13.445" fill="#e51937"/><path d="m33.863 23.025-5.2578 23.154 1.9727-0.05273c8.985 0 11.018 4.0721 11.018 12.443l0.02148 103.63c0 9.295-4.8581 13.125-13.078 15.91l5.3125 18.93c14.178-6.1638 26.092-10.731 37.936-14.734l-0.21875-0.21484c6.0362-6.035 14.249-11.962 24.014-17.15l2.1992-9.2598c-2.0412 0.505-4.1531 0.9375-6.2656 0.9375-6.0688 0-6.625-4.7026-6.625-9.6426l-0.02734-29.973c5.8775-1.0512 12.284-2.7148 18.25-2.7148 11.829 0 15.17 8.5361 17.562 18.496 0.7475 3.1162 2.7923 12.163 5.7461 20.08l1.9824-0.52149c31.439-8.0262 67.619-9.8244 105.72-5.502l3.0742-9.8066-1.8535 0.0312c-7.4488 0-10.803-1.5702-10.803-9.584 0-13.901-0.48703-27.837-0.26953-41.738l31.607 59.012 30.867 0.44922s19.684-36.236 29.15-55.92c-0.12125 7.5738 0.81602 43.562-3.334 46.875-2.6725 2.1338-7.2486 1.9373-10.496 1.7773l4.3633 16.213c22.366 0.895 38.64 2.7212 57.258 4.9199l4.8535-15.893c-8.4375-0.91375-12.691-2.6445-12.691-11.801 0-26.568 0.52656-53.36 1.3203-79.916 0.0862-2.8612 0.32469-6.1086 2.6797-8.0898 1.8675-1.5725 4.5291-2.0221 7.0879-2.1309 6.5938 0.46 9.7129 2.4955 9.7129 10.73 0 21.535-0.88477 43.067-0.88477 64.602 0 38.096 41.363 56.483 75.846 60.453 12.575-4.1262 21.357-8.2539 21.357-8.2539l-1.8125 9.291c47.122 0.595 44.629-30.813 44.629-65.963v-50.102c0-3.3325-0.45359-10.609 2.0664-13.154 2.6362-2.66 7.0296-2.6 10.506-2.4062l-5.5391-23.383-55.238-0.002-5.5762 20.539c9.6912 0.32 12.816 2.7787 12.816 12.67 0 24.772-0.42539 49.697-1.0566 74.461-0.1525 5.985-1.6246 12.362-6.6309 16.18-3.4625 2.6425-9.7091 2.7754-13.977 2.7754-33.534-5.1688-31.76-33.105-31.76-33.105l0.64649-63.01s0.97976-7.9608 1.7285-8.6758c2.485-2.3712 7.2633-2.2888 10.426-2.1875l-4.5781-19.65-64.268-0.0039-47.83-0.0039c-15.359 28.659-31.003 57.155-46.682 85.639l-43.125-85.645-47.832-0.002-5.4023 17.986c8.2562-0.1675 12.822 0.76234 12.822 10.09 0 26.276 0.71984 52.697 0.0898 78.963-0.0712 2.9325-0.38734 6.0429-2.5898 8.2129-1.3188 1.3012-3.3016 2.0919-5.3828 2.6094-20.674-0.37875-4.6163-35.87-38.768-40.826 15.87-7.0912 29.609-18.802 29.609-37.562 0-32.204-34.718-39.479-62.025-39.479l-74.371-0.0039zm50.938 25.445s13.911 0.10938 20.322 0.10938c10.736 0.4475 22.76 3.2295 22.76 17.596 0 23.264-26.387 23.511-43.041 25.684l-0.041-43.388zm130.78 118.2c-0.20875 1.045-0.41703 1.2873-1.207 1.2598l-19.752-0.68945v0.70117c0.87375 0.28125 1.041 0.53774 1.041 1.4902v21.992c0 0.9525-0.16727 1.196-1.041 1.416v0.70117l19.711 0.6875c0.79 0.0288 0.99828 0.23688 1.207 1.2969l0.58008 0.0195v-8.7676l-0.58008-0.0195c-0.20875 1.045-0.41703 1.2873-1.207 1.2598l-12.516-0.4375v-4.5078l7.5254 0.26172c0.79 0.0275 0.99758 0.2857 1.2051 1.3457l0.625 0.0215v-8.2168l-0.625-0.0215c-0.20751 1.045-0.41508 1.2384-1.2051 1.2109l-7.5254-0.26368v-3.7578l12.557 0.43945c0.79 0.0275 0.99828 0.285 1.207 1.3438l0.58203 0.0215v-8.7676l-0.58203-0.0195zm-33.316 1.2422c-0.57135-0.0104-1.1823 0.0217-1.832 0.10156l-15.594 1.916v0.70118c0.87375 0.14375 1.041 0.37171 1.041 1.3242v21.994c0 0.9525-0.16727 1.2226-1.041 1.5801v0.70313l15.055-1.8496c5.9875-0.735 9.0215-3.7127 9.0215-8.7227 0-2.805-1.4127-4.7376-4.2402-5.6426 2.495-1.6587 3.6602-3.554 3.6602-6.209 0-3.5952-2.0709-5.8234-6.0703-5.8965zm40.926 0.73046v0.69922c0.8725 0.3575 1.0391 0.62954 1.0391 1.582v21.992c0 0.95125-0.16657 1.1824-1.0391 1.3262v0.70118l8.2754 1.0156v-0.70117c-0.87375-0.3575-1.082-0.63344-1.082-1.5859v-7.5644l4.4922 0.55273 3.5762 7.2012c0.29125 0.58625 0.62305 1.0285 0.62305 1.4785 0 0.4-0.24953 0.67188-0.70703 0.76563v0.70117l8.7734 1.0781v-0.70117c-1.1225-0.43875-1.7026-1.5613-2.5352-3.2676l-3.2441-6.5625c3.7012-0.84625 5.6152-3.3659 5.6152-7.4746 0-5.06-2.9956-8.685-8.6094-9.375l-15.178-1.8613zm28.92 2.6289v9.0664l0.625 0.12109c0.20874-1.0112 0.41507-1.2209 1.2051-1.0684l6.5703 1.2774v17.686c0 0.9525-0.20633 1.1622-1.0801 1.2422v0.70313l8.2734 1.6074v-0.70118c-0.87375-0.42124-1.0391-0.70374-1.0391-1.6562v-17.684l6.5293 1.2676c0.79125 0.155 0.99758 0.44461 1.2051 1.5371l0.58203 0.11523v-9.0703l-0.58203-0.11133c-0.2075 1.0112-0.41383 1.2209-1.2051 1.0684l-19.254-3.7441c-0.79-0.15375-0.99632-0.44266-1.2051-1.5352l-0.625-0.12109zm-101.71 1.748c-0.88001 0.0403-1.8067 0.17687-2.7734 0.41797-7.735 1.9288-12.85 9.2155-12.85 16.779 0 7.5662 5.1984 12.333 12.85 10.424 7.6512-1.9062 12.85-9.2651 12.85-16.83 0-6.6194-3.9161-11.073-10.076-10.791zm29.754 0.49609c1.5144 0.0395 2.1934 0.57781 2.1934 1.9297 0 1.5525-1.1654 2.497-3.4941 2.7832l-6.8184 0.83789v-4.6602l6.3203-0.77539c0.69656-0.0856 1.294-0.1284 1.7988-0.11524zm50.23 1.3203 5.1992 0.63868c3.41 0.41875 4.9902 1.1614 4.9902 3.5664 0 2.205-1.5805 2.8128-4.8242 2.4141l-5.3652-0.6582v-5.9609zm-81.346 4.5039c3.1316-0.12611 5.0742 2.2498 5.0742 6.1074 0 4.4088-2.4953 8.0873-6.4453 9.0723-4.0338 1.0062-6.5293-1.3791-6.5293-5.8379s2.5795-8.1578 6.4883-9.1328c0.49375-0.12313 0.96473-0.19097 1.4121-0.20899zm-21.91 1.1738c-1.0702 0.0479-2.3094 0.34523-3.7129 0.91211l-15.178 6.1328v0.70117c0.87375-0.1025 1.0391 0.08 1.0391 1.0312v21.994c0 0.9525-0.16531 1.2706-1.0391 1.873v0.70313l8.2754-3.3438v-0.70312c-0.87375 0.1025-1.082-0.0644-1.082-1.0156v-7.5645l4.4922-1.8144 3.5762 5.3203c0.29125 0.4325 0.62304 0.69719 0.62304 1.1484 0 0.40125-0.24953 0.80242-0.70703 1.1387v0.70117l8.7734-3.5449v-0.70117c-1.1212 0.1525-1.7046-0.66414-2.5371-1.9316l-3.2422-4.8516c3.7012-2.7975 5.6152-6.3268 5.6152-10.436 0-3.7941-1.6858-5.8936-4.8965-5.75zm165.91 1.0762v0.70117c0.8725 0.5 1.082 0.81117 1.082 1.7637v21.994c0 0.95125-0.20953 1.1426-1.082 1.1426v0.70117l7.1523 2.0508v-0.70118c-0.8725-0.50125-1.0801-0.81117-1.0801-1.7637v-17.684l7.2344 21.312 7.4844-17.092v17.686c0 0.9525-0.20757 1.1426-1.0801 1.1426v0.70117l7.9004 2.2656v-0.69921c-0.87375-0.5025-1.0801-0.81313-1.0801-1.7656v-21.992c0-0.9525 0.20633-1.1426 1.0801-1.1426v-0.70312l-10.895-3.123v0.70117c0.5825 0.3675 0.87304 0.7511 0.87304 1.1524 0 0.2-0.0838 0.62554-0.25 1.0293l-3.8672 8.4609-3.4102-10.547c-0.165-0.55-0.29102-0.9343-0.29102-1.1856 0-0.40125 0.29055-0.61984 0.87305-0.65234v-0.70118l-10.645-3.0527zm-113.67 1.5742c2.4755-0.11989 3.6855 0.58539 3.6855 2.5137 0 2.4038-1.5802 3.1008-4.9902 3.5195l-6.0293 0.74024v-5.9121l6.1953-0.76172c0.40546-0.0497 0.78503-0.0825 1.1387-0.0996zm-54.965 3.75c0.82157 0.10656 1.2168 0.68617 1.2168 1.8887 0 2.2038-1.5824 3.6451-4.8262 4.9551l-5.3633 2.166v-5.9609l5.1973-2.1016c1.705-0.68875 2.9538-1.0538 3.7754-0.94727zm208.95 6.082c-5.4148 0.2534-8.791 4.4697-8.791 10.615 0 7.565 5.1984 15.019 12.85 17.07 7.6512 2.05 12.85-2.6186 12.85-10.184 0-7.5662-5.1159-14.948-12.85-17.02-1.4503-0.38859-2.809-0.5409-4.0586-0.48242zm21.043 5.6211v0.70313c0.87251 0.42 1.041 0.7018 1.041 1.6543v21.994c0 0.95125-0.16852 1.1688-1.041 1.25v0.70117l8.2754 1.6074v-0.70117c-0.8725-0.42-1.0801-0.71086-1.0801-1.6621v-7.5664l4.4883 0.875 3.5781 7.459c0.29 0.60625 0.62305 1.0722 0.62305 1.5234 0 0.40001-0.24953 0.65165-0.70703 0.7129v0.70312l8.7754 1.7051v-0.70313c-1.1238-0.51875-1.7059-1.6823-2.5371-3.4473l-3.2422-6.793c3.7-0.5825 5.6113-2.9667 5.6113-7.0742 0-5.0612-2.9937-8.899-8.6074-9.9902l-15.178-2.9512zm-19.035 0.73438c0.63114-0.0347 1.3179 0.0416 2.0508 0.23828 3.95 1.0575 6.4863 4.8452 6.4863 9.2539 0 4.4088-2.4953 6.7938-6.4453 5.7363-4.0338-1.0812-6.5293-4.7554-6.5293-9.2129 0-3.6238 1.7025-5.8653 4.4375-6.0156zm114.07 1.7656c-0.29 0.65875-0.54054 0.75696-0.99804 0.84571-1.2888 0.25-4.7402-1.2334-9.7715-0.25586-6.6538 1.2938-10.688 5.5842-10.688 10.293 0 4.76 3.368 6.5094 10.105 5.502 4.075-0.5925 6.7363-1.1589 6.7363 1.7461 0 1.8538-1.9138 3.5283-5.4062 4.207-5.1975 1.0113-9.2305-0.41039-9.2305-2.2129 0-0.15 0.0413-0.30836 0.125-0.47461l-0.54101-0.19726-3.0352 8.6055 0.54101 0.19726c0.33125-0.56625 0.53883-0.90664 0.83008-0.96289 0.4575-0.0888 3.9918 1.5788 11.311 0.15625 7.0275-1.3662 11.27-6.1498 11.27-11.26 0-5.3112-3.2455-6.8341-9.9805-5.9766-4.6575 0.605-7.0684 1.1761-7.0684-0.8789 0-1.5525 1.955-3.2362 5.4062-3.9062 4.075-0.7925 7.8594 0.0252 7.8594 1.4277 0 0.15-0.0857 0.36703-0.12696 0.67578l0.54102 0.19532 2.6621-7.5312-0.54102-0.19532zm-65.484 2.9668v0.70117c0.87375 0.29625 1.041 0.55532 1.041 1.5078v21.994c0 0.95125-0.16727 1.1927-1.041 1.3965v0.70117l8.2754 0.43555v-0.70117c-0.8725-0.29625-1.082-0.55922-1.082-1.5117v-7.5625l4.4922 0.23437 3.5762 6.9512c0.29125 0.56625 0.62305 0.98429 0.62304 1.4355 0 0.4-0.24757 0.6875-0.70507 0.8125v0.70313l8.7734 0.45898v-0.69922c-1.1225-0.36-1.7058-1.4436-2.5371-3.0898l-3.2422-6.332c3.7-1.1088 5.6133-3.7643 5.6133-7.873 0-5.06-2.9937-8.4738-8.6074-8.7676l-15.18-0.79492zm38.25 0.25977-8.2754 0.58008v0.70117c0.8725 0.18875 1.0391 0.42836 1.0391 1.3809v21.994c0 0.9525-0.16656 1.2141-1.0391 1.5254v0.70117l8.2754-0.58008v-0.69922c-0.8725-0.19125-1.082-0.4264-1.082-1.3789v-21.994c0-0.95125 0.20953-1.2161 1.082-1.5274v-0.70312zm-60.607 0.98242 5.1973 1.0117c3.41 0.6625 4.9902 1.5208 4.9902 3.9258 0 2.2038-1.5817 2.6976-4.8242 2.0664l-5.3633-1.041v-5.9629zm29.551 4.4453 5.1992 0.27344c3.4112 0.1775 4.9902 0.80984 4.9902 3.2148 0 2.205-1.5805 2.9239-4.8242 2.7539l-5.3652-0.28125v-5.9609z" transform="matrix(.8 0 0 -.8 0 211)" fill="#fff"/></g></g></svg>
