<?xml version="1.0" encoding="UTF-8" standalone="no"?>
<!-- Created with Inkscape (http://www.inkscape.org/) -->

<svg
   xmlns:dc="http://purl.org/dc/elements/1.1/"
   xmlns:cc="http://creativecommons.org/ns#"
   xmlns:rdf="http://www.w3.org/1999/02/22-rdf-syntax-ns#"
   xmlns:svg="http://www.w3.org/2000/svg"
   xmlns="http://www.w3.org/2000/svg"
   xmlns:sodipodi="http://sodipodi.sourceforge.net/DTD/sodipodi-0.dtd"
   xmlns:inkscape="http://www.inkscape.org/namespaces/inkscape"
   width="135.46666mm"
   height="32.591175mm"
   viewBox="0 0 135.46666 32.591175"
   version="1.1"
   id="svg812"
   inkscape:version="0.92.1 r15371"
   sodipodi:docname="bellevue logo.svg">
  <defs
     id="defs806" />
  <sodipodi:namedview
     id="base"
     pagecolor="#ffffff"
     bordercolor="#666666"
     borderopacity="1.0"
     inkscape:pageopacity="0.0"
     inkscape:pageshadow="2"
     inkscape:zoom="0.35"
     inkscape:cx="-65.428572"
     inkscape:cy="-32.696107"
     inkscape:document-units="mm"
     inkscape:current-layer="layer1"
     showgrid="false"
     fit-margin-top="0"
     fit-margin-left="0"
     fit-margin-right="0"
     fit-margin-bottom="0"
     inkscape:window-width="1600"
     inkscape:window-height="838"
     inkscape:window-x="-8"
     inkscape:window-y="-8"
     inkscape:window-maximized="1" />
  <metadata
     id="metadata809">
    <rdf:RDF>
      <cc:Work
         rdf:about="">
        <dc:format>image/svg+xml</dc:format>
        <dc:type
           rdf:resource="http://purl.org/dc/dcmitype/StillImage" />
        <dc:title></dc:title>
      </cc:Work>
    </rdf:RDF>
  </metadata>
  <g
     inkscape:label="Layer 1"
     inkscape:groupmode="layer"
     id="layer1"
     transform="translate(5.7452379,-107.59131)">
    <g
       id="g566"
       transform="matrix(0.90295276,0,0,-0.90295276,37.6365,134.44802)">
      <path
         d="M 0,0 V 2.658 H -0.35 C -0.676,1.111 -1.655,0.242 -2.851,0.242 c -1.655,0 -2.126,1.751 -2.126,3.249 0,1.498 0.471,3.25 2.126,3.25 1.196,0 2.175,-0.846 2.501,-2.416 H 0 V 6.982 H -0.338 C -0.411,6.68 -0.495,6.415 -0.652,6.294 c -0.616,0.652 -1.402,1.027 -2.247,1.027 -2.042,0 -3.709,-1.728 -3.709,-3.83 0,-2.102 1.667,-3.829 3.709,-3.829 0.845,0 1.631,0.386 2.247,1.027 C -0.495,0.58 -0.411,0.29 -0.338,0 Z m 18.535,3.491 c 0,2.102 -1.812,3.83 -4.035,3.83 -2.21,0 -4.022,-1.728 -4.022,-3.83 0,-2.102 1.812,-3.829 4.022,-3.829 2.223,0 4.035,1.727 4.035,3.829 m -1.631,0 c 0,-1.462 -0.688,-3.249 -2.404,-3.249 -1.703,0 -2.404,1.787 -2.404,3.249 0,1.462 0.701,3.25 2.404,3.25 1.716,0 2.404,-1.788 2.404,-3.25 m 12.809,1.86 v -3.72 c 0,-1.208 -0.144,-1.414 -1.147,-1.414 v -0.35 h 6.922 l 0.096,1.703 h -0.35 L 35.174,1.329 C 35.017,0.689 34.884,0.411 33.772,0.411 h -1.389 c -1.003,0 -1.16,0.205 -1.16,1.413 v 3.527 c 0,1.208 0.157,1.414 1.16,1.414 v 0.35 h -3.817 v -0.35 c 1.003,0 1.147,-0.206 1.147,-1.414 m 16.373,0 v -3.72 c 0,-1.208 -0.145,-1.414 -1.147,-1.414 v -0.35 h 6.922 l 0.096,1.703 h -0.35 L 51.546,1.329 C 51.389,0.689 51.257,0.411 50.145,0.411 h -1.389 c -1.003,0 -1.16,0.205 -1.16,1.413 v 3.527 c 0,1.208 0.157,1.414 1.16,1.414 v 0.35 h -3.817 v -0.35 c 1.002,0 1.147,-0.206 1.147,-1.414 m 15.226,-5.484 h 6.619 l 0.097,1.703 h -0.35 L 67.617,1.329 C 67.46,0.689 67.327,0.411 66.216,0.411 h -1.087 c -1.003,0 -1.16,0.205 -1.16,1.413 v 1.607 h 0.665 c 1.208,0 1.401,-0.145 1.401,-1.16 h 0.35 v 2.863 h -0.35 c 0,-1.003 -0.193,-1.16 -1.401,-1.16 h -0.665 v 2.598 h 1.848 c 1.112,0 1.233,-0.278 1.402,-0.919 l 0.06,-0.241 h 0.35 l -0.096,1.703 h -6.221 v -0.35 c 1.002,0 1.147,-0.206 1.147,-1.414 v -3.72 c 0,-1.208 -0.145,-1.414 -1.147,-1.414 z M 83.748,1.74 c 0,-1.112 -0.869,-1.498 -1.812,-1.498 -1.655,0 -2.126,1.751 -2.126,3.249 0,1.498 0.471,3.25 2.126,3.25 1.196,0 2.175,-0.846 2.501,-2.416 h 0.35 V 6.982 H 84.449 C 84.377,6.68 84.292,6.415 84.135,6.294 c -0.616,0.652 -1.401,1.027 -2.247,1.027 -2.041,0 -3.708,-1.728 -3.708,-3.83 0,-2.102 1.667,-3.829 3.708,-3.829 1.208,0 1.716,0.628 3.141,0.628 v 0.821 c 0,1.208 0.145,1.402 1.148,1.402 v 0.35 h -3.564 v -0.35 c 0.833,0 1.135,-0.254 1.135,-0.773 m 11.517,-1.873 h 6.62 l 0.097,1.703 h -0.351 l -0.06,-0.241 c -0.157,-0.64 -0.29,-0.918 -1.401,-0.918 h -1.088 c -1.002,0 -1.159,0.205 -1.159,1.413 v 1.607 h 0.664 c 1.208,0 1.401,-0.145 1.401,-1.16 h 0.351 v 2.863 h -0.351 c 0,-1.003 -0.193,-1.16 -1.401,-1.16 h -0.664 v 2.598 h 1.848 c 1.111,0 1.232,-0.278 1.401,-0.919 l 0.061,-0.241 h 0.35 l -0.097,1.703 h -6.221 v -0.35 c 1.003,0 1.148,-0.206 1.148,-1.414 v -3.72 c 0,-1.208 -0.145,-1.414 -1.148,-1.414 z"
         style="fill:#002d65;fill-opacity:1;fill-rule:nonzero;stroke:none"
         id="path568"
         inkscape:connector-curvature="0" />
    </g>
    <g
       id="g570"
       transform="matrix(0.90295276,0,0,-0.90295276,36.027978,121.19405)">
      <path
         d="M 0,0 H 0.113 C -1.228,0 -1.438,0.255 -1.438,1.768 V 3.982 H 0 C 1.389,3.982 2.052,3.074 2.052,1.991 2.052,0.892 1.389,0 0,0 m -1.438,8.123 h 0.905 c 1.211,0 1.777,-0.796 1.777,-1.72 0,-0.94 -0.566,-1.704 -1.777,-1.704 H -1.438 Z M 2.213,4.476 c 0.76,0.43 1.196,1.147 1.196,1.975 0,1.322 -1.131,2.389 -2.908,2.389 H -4.992 V 8.378 c 1.341,0 1.535,-0.271 1.535,-1.864 V 1.609 c 0,-1.593 -0.194,-1.864 -1.535,-1.864 v -0.462 h 5.945 c 2.003,0 3.263,1.195 3.263,2.676 0,1.147 -0.743,2.134 -2.003,2.517 m 7.092,-5.193 h 8.853 l 0.129,2.246 H 17.819 L 17.738,1.211 C 17.528,0.366 17.35,0 15.864,0 H 14.41 c -1.341,0 -1.551,0.271 -1.551,1.864 v 2.118 h 0.889 c 1.615,0 1.874,-0.191 1.874,-1.529 h 0.468 v 3.775 h -0.468 c 0,-1.322 -0.259,-1.529 -1.874,-1.529 h -0.889 v 3.424 h 2.472 c 1.486,0 1.648,-0.366 1.874,-1.21 l 0.081,-0.319 h 0.468 L 17.625,8.84 H 9.305 V 8.378 c 1.341,0 1.535,-0.271 1.535,-1.864 V 1.609 c 0,-1.593 -0.194,-1.864 -1.535,-1.864 z M 24.879,6.514 V 1.609 c 0,-1.593 -0.194,-1.864 -1.535,-1.864 v -0.462 h 9.257 L 32.73,1.529 H 32.261 L 32.181,1.211 C 31.971,0.366 31.793,0 30.307,0 h -1.858 c -1.341,0 -1.551,0.271 -1.551,1.864 v 4.65 c 0,1.593 0.21,1.864 1.551,1.864 V 8.84 H 23.344 V 8.378 c 1.341,0 1.535,-0.271 1.535,-1.864 m 13.909,0 V 1.609 c 0,-1.593 -0.194,-1.864 -1.535,-1.864 v -0.462 h 9.257 l 0.129,2.246 H 46.171 L 46.09,1.211 C 45.88,0.366 45.702,0 44.216,0 h -1.858 c -1.341,0 -1.551,0.271 -1.551,1.864 v 4.65 c 0,1.593 0.21,1.864 1.551,1.864 V 8.84 H 37.253 V 8.378 c 1.341,0 1.535,-0.271 1.535,-1.864 m 12.375,-7.231 h 8.853 l 0.129,2.246 H 59.676 L 59.596,1.211 C 59.386,0.366 59.208,0 57.722,0 h -1.454 c -1.341,0 -1.551,0.271 -1.551,1.864 v 2.118 h 0.888 c 1.616,0 1.874,-0.191 1.874,-1.529 h 0.469 v 3.775 h -0.469 c 0,-1.322 -0.258,-1.529 -1.874,-1.529 h -0.888 v 3.424 h 2.471 c 1.487,0 1.648,-0.366 1.874,-1.21 l 0.081,-0.319 h 0.469 L 59.482,8.84 H 51.163 V 8.378 c 1.341,0 1.534,-0.271 1.534,-1.864 V 1.609 c 0,-1.593 -0.193,-1.864 -1.534,-1.864 z M 75.298,8.378 V 8.84 H 71.389 V 8.378 c 1.34,0 1.583,-0.35 1.211,-1.21 L 70.322,1.991 68.061,7.168 c -0.372,0.844 -0.21,1.21 1.211,1.21 V 8.84 H 63.973 V 8.378 c 1.293,0 1.519,-0.366 1.971,-1.402 l 3.522,-7.964 h 0.339 l 3.506,7.964 c 0.501,1.131 0.872,1.402 1.987,1.402 M 87.317,6.514 V 3.01 C 87.317,0.956 86.332,0 84.943,0 83.553,0 82.439,0.956 82.439,3.01 v 3.504 c 0,1.593 0.194,1.864 1.551,1.864 V 8.84 H 78.868 V 8.378 c 1.341,0 1.551,-0.271 1.551,-1.864 V 2.835 c 0,-2.501 1.729,-3.823 3.877,-3.823 2.133,0 3.894,1.322 3.894,3.823 v 3.679 c 0,1.593 0.194,1.864 1.535,1.864 V 8.84 H 85.767 V 8.378 c 1.357,0 1.55,-0.271 1.55,-1.864 m 7.189,-7.231 h 8.853 l 0.129,2.246 H 103.02 L 102.939,1.211 C 102.729,0.366 102.551,0 101.065,0 H 99.611 C 98.27,0 98.06,0.271 98.06,1.864 v 2.118 h 0.889 c 1.615,0 1.874,-0.191 1.874,-1.529 h 0.468 v 3.775 h -0.468 c 0,-1.322 -0.259,-1.529 -1.874,-1.529 H 98.06 v 3.424 h 2.472 c 1.486,0 1.648,-0.366 1.874,-1.21 l 0.081,-0.319 h 0.468 l -0.129,2.246 h -8.32 V 8.378 c 1.341,0 1.535,-0.271 1.535,-1.864 V 1.609 c 0,-1.593 -0.194,-1.864 -1.535,-1.864 z"
         style="fill:#002d65;fill-opacity:1;fill-rule:nonzero;stroke:none"
         id="path572"
         inkscape:connector-curvature="0" />
    </g>
    <g
       id="g574"
       transform="matrix(0.90295276,0,0,-0.90295276,36.027978,121.19405)">
      <path
         d="M 0,0 H 0.113 C -1.228,0 -1.438,0.255 -1.438,1.768 V 3.982 H 0 C 1.389,3.982 2.052,3.074 2.052,1.991 2.052,0.892 1.389,0 0,0 Z m -1.438,8.123 h 0.905 c 1.211,0 1.777,-0.796 1.777,-1.72 0,-0.94 -0.566,-1.704 -1.777,-1.704 H -1.438 Z M 2.213,4.476 c 0.76,0.43 1.196,1.147 1.196,1.975 0,1.322 -1.131,2.389 -2.908,2.389 H -4.992 V 8.378 c 1.341,0 1.535,-0.271 1.535,-1.864 V 1.609 c 0,-1.593 -0.194,-1.864 -1.535,-1.864 v -0.462 h 5.945 c 2.003,0 3.263,1.195 3.263,2.676 0,1.147 -0.743,2.134 -2.003,2.517 z m 7.092,-5.193 h 8.853 l 0.129,2.246 H 17.819 L 17.738,1.211 C 17.528,0.366 17.35,0 15.864,0 H 14.41 c -1.341,0 -1.551,0.271 -1.551,1.864 v 2.118 h 0.889 c 1.615,0 1.874,-0.191 1.874,-1.529 h 0.468 v 3.775 h -0.468 c 0,-1.322 -0.259,-1.529 -1.874,-1.529 h -0.889 v 3.424 h 2.472 c 1.486,0 1.648,-0.366 1.874,-1.21 l 0.081,-0.319 h 0.468 L 17.625,8.84 H 9.305 V 8.378 c 1.341,0 1.535,-0.271 1.535,-1.864 V 1.609 c 0,-1.593 -0.194,-1.864 -1.535,-1.864 z M 24.879,6.514 V 1.609 c 0,-1.593 -0.194,-1.864 -1.535,-1.864 v -0.462 h 9.257 L 32.73,1.529 H 32.261 L 32.181,1.211 C 31.971,0.366 31.793,0 30.307,0 h -1.858 c -1.341,0 -1.551,0.271 -1.551,1.864 v 4.65 c 0,1.593 0.21,1.864 1.551,1.864 V 8.84 H 23.344 V 8.378 c 1.341,0 1.535,-0.271 1.535,-1.864 z m 13.909,0 V 1.609 c 0,-1.593 -0.194,-1.864 -1.535,-1.864 v -0.462 h 9.257 l 0.129,2.246 H 46.171 L 46.09,1.211 C 45.88,0.366 45.702,0 44.216,0 h -1.858 c -1.341,0 -1.551,0.271 -1.551,1.864 v 4.65 c 0,1.593 0.21,1.864 1.551,1.864 V 8.84 H 37.253 V 8.378 c 1.341,0 1.535,-0.271 1.535,-1.864 z m 12.375,-7.231 h 8.853 l 0.129,2.246 H 59.676 L 59.596,1.211 C 59.386,0.366 59.208,0 57.722,0 h -1.454 c -1.341,0 -1.551,0.271 -1.551,1.864 v 2.118 h 0.888 c 1.616,0 1.874,-0.191 1.874,-1.529 h 0.469 v 3.775 h -0.469 c 0,-1.322 -0.258,-1.529 -1.874,-1.529 h -0.888 v 3.424 h 2.471 c 1.487,0 1.648,-0.366 1.874,-1.21 l 0.081,-0.319 h 0.469 L 59.482,8.84 H 51.163 V 8.378 c 1.341,0 1.534,-0.271 1.534,-1.864 V 1.609 c 0,-1.593 -0.193,-1.864 -1.534,-1.864 z M 75.298,8.378 V 8.84 H 71.389 V 8.378 c 1.34,0 1.583,-0.35 1.211,-1.21 L 70.322,1.991 68.061,7.168 c -0.372,0.844 -0.21,1.21 1.211,1.21 V 8.84 H 63.973 V 8.378 c 1.293,0 1.519,-0.366 1.971,-1.402 l 3.522,-7.964 h 0.339 l 3.506,7.964 c 0.501,1.131 0.872,1.402 1.987,1.402 z M 87.317,6.514 V 3.01 C 87.317,0.956 86.332,0 84.943,0 83.553,0 82.439,0.956 82.439,3.01 v 3.504 c 0,1.593 0.194,1.864 1.551,1.864 V 8.84 H 78.868 V 8.378 c 1.341,0 1.551,-0.271 1.551,-1.864 V 2.835 c 0,-2.501 1.729,-3.823 3.877,-3.823 2.133,0 3.894,1.322 3.894,3.823 v 3.679 c 0,1.593 0.194,1.864 1.535,1.864 V 8.84 H 85.767 V 8.378 c 1.357,0 1.55,-0.271 1.55,-1.864 z m 7.189,-7.231 h 8.853 l 0.129,2.246 H 103.02 L 102.939,1.211 C 102.729,0.366 102.551,0 101.065,0 H 99.611 C 98.27,0 98.06,0.271 98.06,1.864 v 2.118 h 0.889 c 1.615,0 1.874,-0.191 1.874,-1.529 h 0.468 v 3.775 h -0.468 c 0,-1.322 -0.259,-1.529 -1.874,-1.529 H 98.06 v 3.424 h 2.472 c 1.486,0 1.648,-0.366 1.874,-1.21 l 0.081,-0.319 h 0.468 l -0.129,2.246 h -8.32 V 8.378 c 1.341,0 1.535,-0.271 1.535,-1.864 V 1.609 c 0,-1.593 -0.194,-1.864 -1.535,-1.864 z"
         style="fill:none;stroke:#002d65;stroke-width:0.42399999;stroke-linecap:butt;stroke-linejoin:miter;stroke-miterlimit:4;stroke-dasharray:none;stroke-opacity:1"
         id="path576"
         inkscape:connector-curvature="0" />
    </g>
    <g
       id="g578"
       transform="matrix(0.90295276,0,0,-0.90295276,26.845939,123.8869)">
      <path
         d="m 0,0 c 0,9.967 -8.08,18.047 -18.047,18.047 -9.967,0 -18.047,-8.08 -18.047,-18.047 0,-9.967 8.08,-18.047 18.047,-18.047 C -8.08,-18.047 0,-9.967 0,0 m -0.619,0 c 0,-8.88 -7.198,-16.078 -16.078,-16.078 -8.88,0 -16.078,7.198 -16.078,16.078 0,8.88 7.198,16.078 16.078,16.078 8.88,0 16.078,-7.198 16.078,-16.078"
         style="fill:#96999c;fill-opacity:1;fill-rule:nonzero;stroke:none"
         id="path580"
         inkscape:connector-curvature="0" />
    </g>
    <g
       id="g582"
       transform="matrix(0.90295276,0,0,-0.90295276,11.76934,138.40478)">
      <path
         d="m 0,0 c 8.88,0 16.078,7.198 16.078,16.078 0,8.88 -7.198,16.079 -16.078,16.079 -8.88,0 -16.078,-7.199 -16.078,-16.079 C -16.078,7.198 -8.88,0 0,0"
         style="fill:#002d65;fill-opacity:1;fill-rule:nonzero;stroke:none"
         id="path584"
         inkscape:connector-curvature="0" />
    </g>
    <g
       id="g586"
       transform="matrix(0.90295276,0,0,-0.90295276,14.976629,112.26436)">
      <path
         d="m 0,0 h -13.188 c -0.536,-0.402 -1.044,-0.84 -1.525,-1.305 3.259,-0.074 3.753,-0.963 3.753,-5.226 V -20.31 c 0,-3.695 -0.372,-4.854 -2.592,-5.147 0.643,-0.511 1.326,-0.974 2.043,-1.384 H 1.253 c 1.746,0 3.288,0.334 4.582,0.919 1.584,1.142 2.952,2.563 4.03,4.193 0.274,0.755 0.424,1.561 0.424,2.403 0,3.221 -2.058,5.995 -5.547,7.069 2.102,1.207 3.31,3.221 3.31,5.547 C 8.052,-2.997 4.921,0 0,0 m -5.368,-13.644 h 3.981 c 3.847,0 5.682,-2.55 5.682,-5.592 0,-3.065 -1.811,-5.554 -5.604,-5.589 0.08,0 0.153,-0.003 0.235,-0.003 h -0.313 c 0.027,0 0.052,0.003 0.078,0.003 -3.495,0.033 -4.059,0.807 -4.059,4.963 z m 2.505,11.631 c 3.355,0 4.921,-2.237 4.921,-4.831 0,-2.64 -1.566,-4.787 -4.921,-4.787 h -2.505 v 9.618 z"
         style="fill:#ffffff;fill-opacity:1;fill-rule:nonzero;stroke:none"
         id="path588"
         inkscape:connector-curvature="0" />
    </g>
  </g>
</svg>
