<?xml version="1.0" encoding="UTF-8" standalone="no"?>
<svg xmlns:rdf="http://www.w3.org/1999/02/22-rdf-syntax-ns#" xmlns="http://www.w3.org/2000/svg" xml:space="preserve" height="109.77" viewBox="0 0 256.21094 109.77441" width="256.21" version="1.1" xmlns:cc="http://creativecommons.org/ns#" xmlns:dc="http://purl.org/dc/elements/1.1/"><g transform="matrix(1.25 0 0 -1.25 -326.39 810.03)"><g transform="matrix(.5 0 0 .5 182.36 302.62)"><path d="m365.78 0-4.3242 7.0332l-33.203 54.004c-1.9138 0.6175-69.467 22.355-69.467 22.355l36.113 7.9766-58.09 21.592s12.553-57.566 15.137-68.396c2.5925-10.83 26.33-17.178 26.33-17.178l-53.215-0.002s-119.45 107.59-171.4 153.43c-18.546 16.362-43.224 29.296-43.469 29.422l-10.19 5.32h91.484l-4.3125-4.7148c-0.29375-0.31875-5.2129-5.7993-5.2129-11.654 0-2.3712 0.80562-4.7999 3.0469-6.9824 2.7262-2.6488 12.978-12.088 26.346-24.314h65.25c-1.2738 5.3462-5.9434 24.941-5.9434 24.941-4.4 16.361-36.92 22.725-36.92 22.725h103.42s-19.931-3.5547-18.16-17.023c0.335-2.4962 11.062-54.619 11.062-54.619l72.133-40.654-23.23 37.629s54.455-32.882 57.57-34.762c2.8362 2.2425 44.861 35.459 44.861 35.459l-6.45-58.383 133.48-80.364-137.61 44.534-5.03-47.387zm-171.09 91.98c-2.845 11.929-9.73 40.82-10.25 43-2.53 1.0638-67.416 28.368-68.74 28.924 27.061-24.732 64.009-58.315 78.99-71.924z" transform="matrix(.8 0 0 -.8 159.43 689.53)" fill="#f36f21"/><path d="m548.45 679.13-94.324-30.504-3.618 34.098-27.001-43.913-48.447-15.59 27.707-6.121-57.033-21.69c5.04 23.022 11.708 52.95 13.054 58.961 1.729 7.726 11.319 11.001 11.319 11.001h-29.771s-94.442-85.076-136.49-122.19c-15.229-13.437-35.226-23.848-35.226-23.848h58.885s-9.551 10.361-1.644 18.05c7.904 7.682 93.194 85.124 93.194 85.124l-10.151-42.598-53.326-22.438h47.98l-5.416-22.726c-2.2-11.01-18.09-15.41-18.09-15.41h58.089s-6.5 2.601-5.749 11.562c0.286 3.488 4.232 22.423 9.113 45.032l65.781 36.59-17.876-28.955 39.422 23.804 32.885-25.993-4.736 42.765 91.475 54.988" fill="#52237f"/></g></g></svg>
