<?xml version="1.0" encoding="UTF-8" standalone="no"?>
<!-- Created with Inkscape (http://www.inkscape.org/) -->

<svg
   xmlns:dc="http://purl.org/dc/elements/1.1/"
   xmlns:cc="http://creativecommons.org/ns#"
   xmlns:rdf="http://www.w3.org/1999/02/22-rdf-syntax-ns#"
   xmlns:svg="http://www.w3.org/2000/svg"
   xmlns="http://www.w3.org/2000/svg"
   xmlns:sodipodi="http://sodipodi.sourceforge.net/DTD/sodipodi-0.dtd"
   xmlns:inkscape="http://www.inkscape.org/namespaces/inkscape"
   width="113.6845mm"
   height="29.224279mm"
   viewBox="0 0 113.6845 29.224279"
   version="1.1"
   id="svg2389"
   inkscape:version="0.92.0 r15299"
   sodipodi:docname="calhoun community college.svg">
  <defs
     id="defs2383">
    <clipPath
       id="clipPath1633"
       clipPathUnits="userSpaceOnUse">
      <path
         inkscape:connector-curvature="0"
         id="path1631"
         d="M 246.816,85.988 H 565.2 v 80.005 H 246.816 Z" />
    </clipPath>
  </defs>
  <sodipodi:namedview
     id="base"
     pagecolor="#ffffff"
     bordercolor="#666666"
     borderopacity="1.0"
     inkscape:pageopacity="0.0"
     inkscape:pageshadow="2"
     inkscape:zoom="2.0513923"
     inkscape:cx="207.73578"
     inkscape:cy="30.71664"
     inkscape:document-units="mm"
     inkscape:current-layer="layer1"
     showgrid="false"
     fit-margin-top="0"
     fit-margin-left="0"
     fit-margin-right="0"
     fit-margin-bottom="0"
     inkscape:window-width="1280"
     inkscape:window-height="744"
     inkscape:window-x="-4"
     inkscape:window-y="-4"
     inkscape:window-maximized="1" />
  <metadata
     id="metadata2386">
    <rdf:RDF>
      <cc:Work
         rdf:about="">
        <dc:format>image/svg+xml</dc:format>
        <dc:type
           rdf:resource="http://purl.org/dc/dcmitype/StillImage" />
        <dc:title></dc:title>
      </cc:Work>
    </rdf:RDF>
  </metadata>
  <g
     inkscape:label="Layer 1"
     inkscape:groupmode="layer"
     id="layer1"
     transform="translate(-38.77467,-117.15283)">
    <g
       id="g2651"
       style="fill:#0081ab;fill-opacity:1"
       transform="translate(0.50000082,-0.50000149)">
      <path
         d="m 52.644495,118.15283 -11.880144,11.88085 -0.0046,-0.005 -1.985081,1.98543 v 0.73166 l 13.629922,13.63134 h 0.04057 l 2.331861,-2.3301 -0.01834,-0.0194 11.873794,-11.87345 -1.320447,-1.32009 -11.873441,11.87309 -11.353094,-11.3531 11.879791,-11.88085 z"
         style="fill:#0081ab;fill-opacity:1;fill-rule:nonzero;stroke:none;stroke-width:0.35277778"
         id="path1617"
         inkscape:connector-curvature="0" />
      <path
         d="m 52.964005,122.84828 -7.477125,7.47712 1.352197,1.35361 7.284861,-7.28486 3.672417,3.67312 -2.424642,2.42465 1.351845,1.3529 4.799541,-4.7999 -1.351844,-1.35184 -0.01482,0.0152 -5.013677,-5.01403 -2.166409,2.16641 z"
         style="fill:#0081ab;fill-opacity:1;fill-rule:nonzero;stroke:none;stroke-width:0.35277778"
         id="path1621"
         inkscape:connector-curvature="0" />
      <path
         d="m 51.752214,131.84687 2.646539,-2.6483 -1.351845,-1.35185 -4.641144,4.64079 -0.363008,0.36231 6.360583,6.39127 0.05362,-0.0547 0.0035,0.002 1.216025,-1.21708 1.091142,-1.08479 -0.0025,-0.002 7.297914,-7.29898 -1.351845,-1.3529 -7.29368,7.29545 z"
         style="fill:#0081ab;fill-opacity:1;fill-rule:nonzero;stroke:none;stroke-width:0.35277778"
         id="path1625"
         inkscape:connector-curvature="0" />
      <path
         d="m 77.885881,132.05213 c -2.77248,0 -5.184775,-1.53776 -5.184775,-3.42371 0,-1.76459 2.329392,-3.35633 5.101872,-3.35633 1.634772,0 3.351742,0.51224 4.260145,1.4277 h 1.352902 c -0.329494,-0.5895 -1.337027,-1.19839 -2.113139,-1.52542 -1.038224,-0.45896 -2.278238,-0.67768 -3.515783,-0.67768 -3.4671,0 -6.308372,1.84185 -6.308372,4.13173 0,2.37772 2.823633,4.19665 6.40715,4.19665 2.294819,0 4.523669,-0.90417 5.580592,-2.24367 h -1.354667 c -0.957086,0.883 -2.575278,1.47073 -4.225925,1.47073"
         style="fill:#0081ab;fill-opacity:1;fill-rule:nonzero;stroke:none;stroke-width:0.35277778"
         id="path1637"
         inkscape:connector-curvature="0" />
      <path
         d="m 90.308527,125.55591 2.345267,3.69358 H 87.93151 Z m -2.857147,4.42419 h 5.680075 l 1.767064,2.70474 h 1.3208 l -5.233106,-8.05603 h -1.354667 l -5.266619,8.05603 h 1.321153 z"
         style="fill:#0081ab;fill-opacity:1;fill-rule:nonzero;stroke:none;stroke-width:0.35277778"
         id="path1641"
         inkscape:connector-curvature="0" />
      <path
         d="m 103.93654,131.9536 h -5.052483 v -7.32437 h -1.220611 v 8.05603 h 6.273094 z"
         style="fill:#0081ab;fill-opacity:1;fill-rule:nonzero;stroke:none;stroke-width:0.35277778"
         id="path1645"
         inkscape:connector-curvature="0" />
      <path
         d="m 106.51418,128.90084 h 6.32531 v 3.78354 h 1.22308 v -8.05533 h -1.22308 v 3.54225 h -6.32531 v -3.54225 h -1.22061 v 8.05533 h 1.22061 z"
         style="fill:#0081ab;fill-opacity:1;fill-rule:nonzero;stroke:none;stroke-width:0.35277778"
         id="path1649"
         inkscape:connector-curvature="0" />
      <path
         d="m 117.26893,128.69302 c 0,-1.89583 2.36291,-3.42124 5.23416,-3.43182 v 0.0106 c 2.79118,0 5.21653,1.4919 5.21653,3.35703 0,1.90783 -2.3428,3.42371 -5.21653,3.42371 -2.77177,0 -5.23416,-1.49472 -5.23416,-3.3595 m 11.67483,-0.0642 c 0,-2.30998 -3.00532,-4.13173 -6.4576,-4.13173 -3.53131,0 -6.43855,1.8542 -6.43855,4.19594 0,2.31246 3.0226,4.13244 6.43855,4.13244 3.53519,0 6.4576,-1.8535 6.4576,-4.19665"
         style="fill:#0081ab;fill-opacity:1;fill-rule:nonzero;stroke:none;stroke-width:0.35277778"
         id="path1653"
         inkscape:connector-curvature="0" />
      <path
         d="m 131.90604,131.8658 c 0.77541,0.62301 1.96427,0.95991 3.18594,0.95991 1.25483,0 2.4772,-0.3616 3.23708,-1.02517 0.79234,-0.67487 0.90664,-1.45945 0.90664,-2.27718 v -4.89409 h -1.22025 v 4.89409 c 0,0.63288 -0.0829,1.27423 -0.67804,1.79881 -0.51188,0.46884 -1.38536,0.72954 -2.24543,0.72954 -0.95709,0 -1.86479,-0.30409 -2.37773,-0.8382 -0.47766,-0.50412 -0.56056,-1.11195 -0.56056,-1.69015 v -4.89409 h -1.22237 v 4.89409 c 0,0.84948 0.13229,1.65593 0.97472,2.34244"
         style="fill:#0081ab;fill-opacity:1;fill-rule:nonzero;stroke:none;stroke-width:0.35277778"
         id="path1657"
         inkscape:connector-curvature="0" />
      <path
         d="m 150.23785,124.62895 v 6.68126 l -6.83542,-6.68126 h -1.65171 v 8.05603 h 1.22238 v -7.0866 l 7.26475,7.0866 h 1.22132 v -8.05603 z"
         style="fill:#0081ab;fill-opacity:1;fill-rule:nonzero;stroke:none;stroke-width:0.35277778"
         id="path1661"
         inkscape:connector-curvature="0" />
      <path
         d="m 74.245814,139.41799 c -1.234722,0 -2.307167,-0.81774 -2.307167,-1.81892 0,-0.94051 1.035403,-1.78753 2.270125,-1.78753 0.727075,0 1.490486,0.27341 1.894064,0.76059 h 0.603603 c -0.147108,-0.31291 -0.595842,-0.63711 -0.940506,-0.81068 -0.462491,-0.24483 -1.014236,-0.35948 -1.564922,-0.35948 -1.543403,0 -2.806347,0.97825 -2.806347,2.1971 0,1.26294 1.255889,2.23061 2.85115,2.23061 1.019528,0 2.011892,-0.48048 2.482497,-1.19415 h -0.602544 c -0.426509,0.4706 -1.145822,0.78246 -1.879953,0.78246"
         style="fill:#0081ab;fill-opacity:1;fill-rule:nonzero;stroke:none;stroke-width:0.35277778"
         id="path1665"
         inkscape:connector-curvature="0" />
      <path
         d="m 80.243212,139.41799 c -1.234722,0 -2.329392,-0.7941 -2.329392,-1.7847 0,-1.01001 1.050573,-1.82175 2.329392,-1.82704 v 0.005 c 1.241778,0 2.320572,0.79693 2.320572,1.78753 0,1.01529 -1.041753,1.81892 -2.320572,1.81892 m -0.0078,-4.01602 c -1.571625,0 -2.864556,0.98531 -2.864556,2.23132 0,1.22872 1.344084,2.19639 2.864556,2.19639 1.573036,0 2.871964,-0.9846 2.871964,-2.23061 0,-1.22943 -1.33597,-2.1971 -2.871964,-2.1971"
         style="fill:#0081ab;fill-opacity:1;fill-rule:nonzero;stroke:none;stroke-width:0.35277778"
         id="path1669"
         inkscape:connector-curvature="0" />
      <path
         d="m 86.814757,139.11676 -1.983669,-3.64596 h -0.8382 v 4.28413 h 0.54363 v -3.80823 l 2.041878,3.80823 h 0.462844 l 2.042936,-3.80823 v 3.80823 h 0.543631 v -4.28413 h -0.8382 z"
         style="fill:#0081ab;fill-opacity:1;fill-rule:nonzero;stroke:none;stroke-width:0.35277778"
         id="path1673"
         inkscape:connector-curvature="0" />
      <path
         d="m 93.569181,139.11676 -1.983669,-3.64596 h -0.8382 v 4.28413 h 0.54363 v -3.80823 l 2.042936,3.80823 h 0.462845 l 2.042583,-3.80823 v 3.80823 h 0.542219 v -4.28413 h -0.836436 z"
         style="fill:#0081ab;fill-opacity:1;fill-rule:nonzero;stroke:none;stroke-width:0.35277778"
         id="path1677"
         inkscape:connector-curvature="0" />
      <path
         d="m 100.65402,138.07366 c 0,0.33584 -0.037,0.67945 -0.30127,0.95638 -0.22754,0.24941 -0.617011,0.3877 -0.998716,0.3877 -0.426508,0 -0.831145,-0.16122 -1.058333,-0.44591 -0.213431,-0.26529 -0.249414,-0.59055 -0.249414,-0.89817 v -2.60244 h -0.542925 v 2.60244 c 0,0.45226 0.05715,0.87947 0.432858,1.24707 0.346075,0.33055 0.874183,0.50835 1.417814,0.50835 0.558094,0 1.101726,-0.1912 1.440036,-0.54433 0.35349,-0.35878 0.40464,-0.77647 0.40464,-1.21109 v -2.60244 h -0.54469 z"
         style="fill:#0081ab;fill-opacity:1;fill-rule:nonzero;stroke:none;stroke-width:0.35277778"
         id="path1681"
         inkscape:connector-curvature="0" />
      <path
         d="m 106.09336,139.02299 -3.04059,-3.55177 h -0.7366 v 4.28343 h 0.54469 v -3.76872 l 3.2325,3.76872 h 0.54363 v -4.28343 h -0.54363 z"
         style="fill:#0081ab;fill-opacity:1;fill-rule:nonzero;stroke:none;stroke-width:0.35277778"
         id="path1685"
         inkscape:connector-curvature="0" />
      <path
         inkscape:connector-curvature="0"
         id="path1687"
         style="fill:#0081ab;fill-opacity:1;fill-rule:nonzero;stroke:none;stroke-width:0.35277778"
         d="m 107.75773,139.75426 h 0.54186 v -4.28307 h -0.54186 z" />
      <path
         d="m 108.91025,135.86005 h 1.24954 v 3.89467 h 0.54292 v -3.89467 h 1.23578 v -0.38876 h -3.02824 z"
         style="fill:#0081ab;fill-opacity:1;fill-rule:nonzero;stroke:none;stroke-width:0.35277778"
         id="path1691"
         inkscape:connector-curvature="0" />
      <path
         d="m 114.16452,137.8766 -1.56422,-2.40524 h -0.5969 l 1.88983,2.85115 v 1.43228 h 0.54258 v -1.43228 l 1.88877,-2.85115 h -0.59655 z"
         style="fill:#0081ab;fill-opacity:1;fill-rule:nonzero;stroke:none;stroke-width:0.35277778"
         id="path1695"
         inkscape:connector-curvature="0" />
      <path
         d="m 121.5507,139.41799 c -1.23296,0 -2.30646,-0.81774 -2.30646,-1.81892 0,-0.94051 1.03575,-1.78753 2.27048,-1.78753 0.72707,0 1.49189,0.27341 1.89653,0.76059 h 0.60007 c -0.1464,-0.31291 -0.59478,-0.63711 -0.93874,-0.81068 -0.46425,-0.24483 -1.01529,-0.35948 -1.56598,-0.35948 -1.54305,0 -2.80529,0.97825 -2.80529,2.1971 0,1.26294 1.25519,2.23061 2.84939,2.23061 1.02129,0 2.01295,-0.48048 2.48356,-1.19415 h -0.6029 c -0.42475,0.4706 -1.14582,0.78246 -1.88066,0.78246"
         style="fill:#0081ab;fill-opacity:1;fill-rule:nonzero;stroke:none;stroke-width:0.35277778"
         id="path1699"
         inkscape:connector-curvature="0" />
      <path
         d="m 127.55025,139.41799 c -1.23543,0 -2.3301,-0.7941 -2.3301,-1.7847 0,-1.01001 1.04952,-1.82175 2.3301,-1.82704 v 0.005 c 1.24178,0 2.31951,0.79693 2.31951,1.78753 0,1.01529 -1.04351,1.81892 -2.31951,1.81892 m -0.01,-4.01602 c -1.57057,0 -2.8635,0.98531 -2.8635,2.23132 0,1.22872 1.34479,2.19639 2.8635,2.19639 1.57127,0 2.87372,-0.9846 2.87372,-2.23061 0,-1.22943 -1.33879,-2.1971 -2.87372,-2.1971"
         style="fill:#0081ab;fill-opacity:1;fill-rule:nonzero;stroke:none;stroke-width:0.35277778"
         id="path1703"
         inkscape:connector-curvature="0" />
      <path
         d="m 131.84398,135.47104 h -0.54469 v 4.28307 h 2.79188 v -0.3877 h -2.24719 z"
         style="fill:#0081ab;fill-opacity:1;fill-rule:nonzero;stroke:none;stroke-width:0.35277778"
         id="path1707"
         inkscape:connector-curvature="0" />
      <path
         d="m 135.23844,135.47104 h -0.54292 v 4.28307 h 2.79117 v -0.3877 h -2.24825 z"
         style="fill:#0081ab;fill-opacity:1;fill-rule:nonzero;stroke:none;stroke-width:0.35277778"
         id="path1711"
         inkscape:connector-curvature="0" />
      <path
         d="m 138.0915,139.75447 h 2.96651 v -0.3877 h -2.42359 v -1.57762 h 2.34351 v -0.38771 h -2.34351 v -1.54164 h 2.42359 v -0.3884 h -2.96651 z"
         style="fill:#0081ab;fill-opacity:1;fill-rule:nonzero;stroke:none;stroke-width:0.35277778"
         id="path1715"
         inkscape:connector-curvature="0" />
      <path
         d="m 143.88968,138.16662 h 3.03354 c -0.27164,0.74648 -1.22591,1.2513 -2.1971,1.2513 -1.29399,0 -2.3876,-0.77717 -2.3876,-1.81962 0,-0.48578 0.30162,-0.98002 0.74824,-1.30458 0.44944,-0.32244 1.03646,-0.48189 1.61889,-0.48189 0.7553,0 1.54164,0.29704 1.92123,0.80186 h 0.61983 c -0.13934,-0.33055 -0.59513,-0.66181 -0.94756,-0.84702 -0.47237,-0.24306 -1.0294,-0.36477 -1.5935,-0.36477 -0.78069,0 -1.506,0.21414 -2.07256,0.65476 -0.50765,0.39511 -0.8375,0.96943 -0.8375,1.53634 0,1.25236 1.34408,2.23661 2.91006,2.23661 1.46227,0 2.76931,-0.87594 2.87232,-2.05351 h -3.68829 z"
         style="fill:#0081ab;fill-opacity:1;fill-rule:nonzero;stroke:none;stroke-width:0.35277778"
         id="path1719"
         inkscape:connector-curvature="0" />
      <path
         d="m 148.43999,139.75447 h 2.96898 v -0.3877 h -2.42606 v -1.57762 h 2.34351 v -0.38771 h -2.34351 v -1.54164 h 2.42606 v -0.3884 h -2.96898 z"
         style="fill:#0081ab;fill-opacity:1;fill-rule:nonzero;stroke:none;stroke-width:0.35277778"
         id="path1723"
         inkscape:connector-curvature="0" />
    </g>
  </g>
</svg>
