<?xml version="1.0" encoding="UTF-8" standalone="no"?>
<svg xmlns:rdf="http://www.w3.org/1999/02/22-rdf-syntax-ns#" xmlns="http://www.w3.org/2000/svg" xml:space="preserve" height="83.806" viewBox="0 0 191.7455 83.805603" width="191.75" version="1.1" xmlns:cc="http://creativecommons.org/ns#" xmlns:dc="http://purl.org/dc/elements/1.1/"><g transform="matrix(1.25 0 0 -1.25 -284.62 535.76)"><path d="m116.53 1.0371c-3.02 0.2598-8.17 0.2324-8.66 0.2324h-11.88c-1.584 0.0207-2.63 0.0436-9.338-0.1875l-1.609 8.5137 0.637 0.0918c1.053-2.4783 2.217-4.241 3.918-5.6563 1.396-1.1586 1.804-1.558 5.144-1.8242h4.11v26.711c0.006 0.534-0.14 2.796-4.676 3.01v0.683h14.644v-0.683c-4.51-0.238-4.74-2.467-4.78-3.01v-26.789l1.91 0.0019-0.05 0.0058c0.33-0.0085 0.61-0.0026 0.91-0.0039l0.99 0.002c3.75 0.0904 5.2 0.8287 5.2 2.0293v24.762c0 2.323-1.35 2.893-3.36 3.027v0.658h9.6v-0.658c-1.88-0.134-2.38-0.704-2.38-3.027v-10.151c0-1.058 1.64-3.66 4.23-3.714 1.65-0.036 2.99 0.575 3.53 1.611 0.63 1.181 0.59 1.84 0.59 3.269v8.985c0 2.365-0.84 2.893-2.67 3.027v0.658h9.51v-0.658c-1.97-0.134-3.05-0.704-3.05-3.027v-8.985c0-1.742-0.16-3.323-1.1-4.886-1.03-1.789-2.97-2.619-5.03-2.619-2.77 0-5.09 2.822-6.01 4.609v-16.008l-0.9 0.0919 0.57-0.0918zm22.8 11.451c-5.53 0-9.37 4.379-9.18 10.301 0.19 6.002 3.6 10.048 9.31 10.147 5.06 0.089 7.32-3.068 8.59-7.436l-0.54-0.098c-1.07 2.684-3.77 4.504-6.55 4.414-4.27-0.133-6.91-3.521-7.3-7.92-0.07-0.846 0-1.698 0.13-2.386h14.21c-0.99-4.63-4.42-7.022-8.67-7.022zm-0.43 0.59c2.7 0 3.94 2.684 4.14 5.559l-9.08 0.097c0.78-2.868 2.15-5.656 4.94-5.656zm-106.24 13.17v0.695c3.17-0.012 3.98 0.641 3.932 3.735v17.029c-0.02 5.361 2.324 9.282 9.32 10.076l-8.018 20.235c-1.531 3.023-3.154 3.56-4.525 3.648v0.684h9.496v-0.684c-3.391 0.01-4.111-1.746-3.805-3.393 0 0 0.121-0.916 0.68-2.441 0.716-1.955 1.827-4.483 2.274-5.73h11.091c1.041 2.346 3.34 7.784 3.618 9.238 0.409 2.126-2.479 2.326-3.926 2.326v0.684h10.615 0.373 6.803v-0.68c-1.919-0.134-2.484-0.122-2.481-2.881v-4.939l1.756-1.641 4.674 6.375c0.531 0.657 1.07 1.3 1.07 1.9 0 1.269-1.565 1.186-2.236 1.186v0.68h10.053 0.238 8.727v-0.678c-2.681-0.167-3.368-0.401-3.368-2.629v-8.795c0-1.321 1.431-4.379 2.413-4.379 1.161 0 1.076 1.129 2.447 1.129 1.777 0 2.08-1.452 2.08-2.322 0-1.387-0.978-2.42-2.307-2.403-2.449 0.028-4.05 3.632-4.722 5.522v-5.758c-1.749 0.843-6.682 3.443-6.682 3.443 1.638 0.423 2.732 0.513 2.732 2.256v11.307c0.017 2.27-0.787 2.407-1.47 2.457-1.96-0.097-2.921-1.392-4.246-3.207l-6.424-8.887c1.716-1.421 4.796-5.281 9.365-5.418v-0.689h-10.01v0.689c0.67 0 2.867-0.065 3.049 0.938 0.14 0.784-0.584 1.43-1.146 2.072l-5.993 5.781v-14.388c-2.205-0.004-1.864-0.005-4.07 0.005v20.563c0.002 1.401-0.189 1.67-0.396 1.705-0.022 0-0.043 0.004-0.065 0.002-0.023-0.001-0.045-0.001-0.068-0.004-0.616-0.143-1.299-1.293-2.108-3.361l-8.261-19.854c5.769-1.432 7.366-5.852 7.261-10.998v-15.771c0.064-3.06 1.489-3.523 4.477-3.735v-0.695h-10.018v0.695c3.119 0.182 4.448 0.616 4.491 3.735v15.771c0.043 4.43-1.614 9.002-6.536 10.219l-2.709-6.51c-1.053 1.178-2.654 2.195-4.343 3.031l1.132 2.112-0.472 1.191c-4.237-1.316-4.988-4.975-4.885-7.564v-18.25c-0.127-2.44 1.221-3.736 4.611-3.735v-0.695h-13.488zm53.703 1.426c-1.401 0-2.537 1.136-2.537 2.537s1.136 2.537 2.537 2.537 2.537-1.136 2.537-2.537-1.136-2.537-2.537-2.537zm69.243 0c-1.41 0-2.54 1.136-2.54 2.537s1.13 2.537 2.54 2.537c1.39 0 2.53-1.136 2.53-2.537s-1.14-2.537-2.53-2.537zm9.45 6.582l-6.78 6.107h3.02v12.498c0.19 2.893 1.66 5.319 4.88 5.319 1.87 0 3.62-1.102 5.05-2.323 0.29-0.251 0.69-0.738 0.99-1.086l-0.46-0.437c-0.85 0.663-2.14 1.697-3.3 1.697-2.46 0-3.4-1.383-3.4-3.617v-12.051h4.84c0.28 0.344 0.52 0.669 0.64 0.912l8.31 17.397s-0.48 1.164-1.46 3.656c-0.73 1.852-1.97 1.407-2.04 0.449-0.04-0.51-0.02-0.759-0.34-1.183-0.37-0.477-0.65-0.856-1.63-0.881-1.14-0.026-1.93 0.976-1.93 2.049 0 0.938 1.19 2.239 2.51 2.297 2.36 0.102 3.65-1.005 4.23-2.602 0.46-1.264 7.96-20.234 7.96-20.234 0.67-1.969 1.26-3.24 4.56-3.151v-0.691h-8.74v0.691c4.06-0.003 4.08 1.066 3.23 3.412l-4.49 11.379s-5.58-12.324-5.85-12.916c-0.7-1.53 0.03-1.973 2.87-1.875v-0.691h-6.06-3.56-3.05v-4.125zm-33.72 3.119c-1.75 0.841-6.68 3.445-6.68 3.445 1.64 0.421 2.73 0.511 2.73 2.254v11.309c0 2.322-0.58 2.491-2.76 2.625v0.68h10.17v-0.68c-2.69-0.166-3.37-0.399-3.37-2.625v-8.799c0-1.318 1.43-4.377 2.41-4.377 1.16 0 1.08 1.129 2.45 1.129 0.74 0 1.22-0.259 1.53-0.617-0.11 0.404-0.18 0.836-0.18 1.299 0 3.19 2.36 4.663 4.99 6.123 2.11 1.185 5.16 2.054 5.28 4.832 0.06 1.455-1.11 3.372-3.83 3.402-3.57 0.043-5.27-3.122-6.12-5.811l-0.59 0.032 0.19 5.103c1.91 1.049 3.99 1.481 6.1 1.481 3.85 0 7.81-2.006 7.81-6.155 0-6.655-10.77-6.505-10.77-10.425 0-1.87 1.23-2.995 3.2-2.995 3.14 0 5.24 2.421 5.8 5.155l0.79-0.03-0.26-4.832c-1.97-0.683-4.03-1.16-6.14-1.16-2.29 0-4.66 0.991-5.78 2.846 0.03-0.199 0.06-0.399 0.06-0.568 0-1.387-0.98-2.422-2.31-2.407-2.45 0.027-4.05 3.635-4.72 5.524v-5.758zm-63.346 0.008c-1.92 0.939-6.734 3.353-6.734 3.353 1.563 0.447 2.765 0.408 2.781 2.561v11.086c0.003 2.419-0.919 2.491-2.932 2.625v0.68h9.895v-0.68c-1.921-0.134-2.887-0.333-2.883-2.625v-9.612c0.064-2.118 2.417-4.798 4.371-4.787 2.915 0.016 4.1 2.977 4.067 5.791v8.563c0.001 2.22-0.581 2.536-2.592 2.67v0.68h8.455 0.521 8.502v-0.692c-2.215-0.134-2.944-0.291-3.05-2.615v-16.967c-2.012 0.918-7.053 3.356-7.053 3.356l2.148 0.541c1.079 0.304 1.121 0.824 1.121 2.005v11.065c-0.118 2.141-0.974 2.408-1.968 2.484-1.109-0.053-2.041-0.365-2.045-2.482v-9.83c0-3.607-2.735-7.17-5.952-7.17-2.816 0-4.977 2.599-6.652 4.666v-4.666zm89.636 0.031c-2.01 0.918-7.05 3.356-7.05 3.356l2.14 0.541c1.09 0.304 1.13 0.824 1.13 2.005v11.065c-0.13 2.303-0.85 2.479-3.04 2.629v0.678h9.87v-0.692c-2.21-0.134-2.94-0.291-3.05-2.615v-16.967zm-40.81 0.465c-5.53 0-9.37 4.381-9.19 10.305 0.19 6.002 3.61 10.045 9.32 10.142 5.05 0.089 7.31-3.065 8.59-7.433l-0.54-0.096c-1.07 2.679-3.77 4.501-6.55 4.412-4.27-0.134-6.92-3.523-7.3-7.922-0.07-0.845-0.01-1.697 0.12-2.387h14.21c-0.99-4.628-4.42-7.021-8.66-7.021zm-28.09 0.502v0.691c3.234 0.184 3.316 1.071 4.145 2.752l6.525 16.356h0.76l7.16-16.403c0.9-1.423 1.96-2.609 3.94-2.705v-0.691h-8.45v0.691c1.53-0.003 2.97 0.356 3.27 1.684 0.14 0.61 0.05 0.824-0.12 1.723l-4.48 10.753-4.322-11.046c-0.347-0.852-0.4-1.491-0.4-1.758 0-1.251 1.614-1.356 3.18-1.356v-0.691h-11.208zm27.66 0.088c2.7 0 3.94 2.683 4.13 5.558l-9.08 0.1c0.79-2.87 2.16-5.658 4.95-5.658zm-85.818 5.945c-6.112 0.085-6.971 6.023-7.07 7.885-0.096 1.777-0.125 4.947-0.125 4.947h-2.602l-0.365 1.592h2.969l-0.004 13.06c0 2.688-0.571 3.806-2.895 3.942v0.637h10.086v-0.639c-2.814-0.136-3.128-1.611-3.121-3.94l-0.013-13.06 3.441 0.01 0.356-1.606-3.793 0.004v-6.769c0.003-1.263-0.165-5.085 1.712-5.25 0.284-0.024 0.469 0.179 0.538 0.671 0.105 0.742 0.87 2.662 2.453 2.674 1.053 0.007 1.662-0.446 1.664-1.677 0.003-1.248-1.533-2.505-3.231-2.481zm-19.26 11.746c-6.1816-0.041-10.387 4.614-10.349 10.115 0.0413 5.773 3.8631 10.513 10.541 10.526 6.581 0.013 10.603-4.42 10.596-10.203-0.008-5.775-4.258-10.395-10.788-10.438zm36.208 0.069c0.235 0 0.425 0.189 0.425 0.425 0 0.06-0.013 0.115-0.035 0.166-0.084-0.013-0.177-0.018-0.26-0.033l0.08 0.229c-0.063 0.037-0.132 0.062-0.21 0.062-0.077 0-0.147-0.025-0.209-0.06l0.113-0.276c-0.115-0.023-0.219-0.054-0.33-0.08 0-0.003-0.002-0.005-0.002-0.008 0-0.236 0.192-0.425 0.428-0.425zm-0.096 0.513c0.075 0.015 0.149 0.031 0.226 0.045l-0.113-0.328-0.113 0.283zm-35.955 0.283c5.513 0.037 6.129 6.77 6.154 10.635 0.024 3.591-1.524 8.306-6.076 8.278-4.6937-0.034-6.0759-5.952-6.0997-9.454-0.0223-3.407 1.3263-9.492 6.0217-9.459zm35.492 0.858c0.346 0.022 0.717 0.028 1.084 0.037l0.576 1.654 4.15 9.713-10.412-0.012 4.602-11.392zm73.919 4.162c-1.93 0.937-6.74 3.353-6.74 3.353 1.56 0.448 2.76 0.408 2.78 2.561v11.084c0.01 2.421-0.92 2.495-2.93 2.629v0.678h9.89v-0.678c-1.92-0.134-2.88-0.336-2.88-2.629v-9.607c0.07-2.12 2.42-4.801 4.37-4.79 2.92 0.018 4.1 2.979 4.07 5.792v8.564c0 2.218-0.58 2.536-2.59 2.67v0.678h9.48v-0.659c-1.89-0.218-2.85-0.334-2.85-2.648v-9.828c0-3.607-2.74-7.17-5.95-7.17-2.82 0-4.98 2.599-6.65 4.666v-4.666zm-16.16 0.156c-6.176-0.043-10.382 4.612-10.345 10.113 0.04 5.775 3.86 10.515 10.545 10.528 6.58 0.011 10.6-4.422 10.59-10.205-0.01-5.774-4.26-10.393-10.79-10.436zm0.16 0.865c5.51 0.037 6.13 6.772 6.16 10.635 0.02 3.592-1.53 8.307-6.08 8.276-4.7-0.031-6.077-5.95-6.101-9.452-0.022-3.409 1.331-9.494 6.021-9.459z" transform="matrix(.8 0 0 -.8 227.69 428.61)" fill="#041e42"/></g></svg>
