<?xml version="1.0" encoding="UTF-8" standalone="no"?>
<!-- Created with Inkscape (http://www.inkscape.org/) -->

<svg
   xmlns:dc="http://purl.org/dc/elements/1.1/"
   xmlns:cc="http://creativecommons.org/ns#"
   xmlns:rdf="http://www.w3.org/1999/02/22-rdf-syntax-ns#"
   xmlns:svg="http://www.w3.org/2000/svg"
   xmlns="http://www.w3.org/2000/svg"
   xmlns:sodipodi="http://sodipodi.sourceforge.net/DTD/sodipodi-0.dtd"
   xmlns:inkscape="http://www.inkscape.org/namespaces/inkscape"
   id="svg3004"
   version="1.1"
   inkscape:version="0.48.4 r9939"
   width="122.19125"
   height="103.2075"
   xml:space="preserve"
   sodipodi:docname="irish_ferries_logos.pdf"><metadata
     id="metadata3010"><rdf:RDF><cc:Work
         rdf:about=""><dc:format>image/svg+xml</dc:format><dc:type
           rdf:resource="http://purl.org/dc/dcmitype/StillImage" /><dc:title></dc:title></cc:Work></rdf:RDF></metadata><defs
     id="defs3008"><clipPath
       clipPathUnits="userSpaceOnUse"
       id="clipPath3020"><path
         d="m 0,841.89 595.275,0 L 595.275,0 0,0 0,841.89 z"
         id="path3022"
         inkscape:connector-curvature="0" /></clipPath></defs><sodipodi:namedview
     pagecolor="#ffffff"
     bordercolor="#666666"
     borderopacity="1"
     objecttolerance="10"
     gridtolerance="10"
     guidetolerance="10"
     inkscape:pageopacity="0"
     inkscape:pageshadow="2"
     inkscape:window-width="1009"
     inkscape:window-height="646"
     id="namedview3006"
     showgrid="false"
     fit-margin-top="0"
     fit-margin-left="0"
     fit-margin-right="0"
     fit-margin-bottom="0"
     inkscape:zoom="1"
     inkscape:cx="51.72779"
     inkscape:cy="69.833941"
     inkscape:window-x="0"
     inkscape:window-y="0"
     inkscape:window-maximized="0"
     inkscape:current-layer="g3012" /><g
     id="g3012"
     inkscape:groupmode="layer"
     inkscape:label="irish_ferries_logos"
     transform="matrix(1.25,0,0,-1.25,-500.94156,416.8725)"><path
       d="m 498.50625,250.932 -97.753,0 0,41.481 97.753,0 0,-41.481 z"
       style="fill:#324597;fill-opacity:1;fill-rule:nonzero;stroke:none"
       id="path3286"
       inkscape:connector-curvature="0" /><path
       d="m 498.50625,292.414 -97.753,0 0,20.542 97.753,0 0,-20.542 z"
       style="fill:#86acde;fill-opacity:1;fill-rule:nonzero;stroke:none"
       id="path3288"
       inkscape:connector-curvature="0" /><path
       d="m 498.50625,312.956 -97.753,0 0,20.542 97.753,0 0,-20.542 z"
       style="fill:#c5e5f7;fill-opacity:1;fill-rule:nonzero;stroke:none"
       id="path3290"
       inkscape:connector-curvature="0" /><g
       id="g3292"
       transform="translate(460.39895,279.9441)"><path
         d="m 0,0 0,-0.555 c 1.345,0 3.116,-1.073 3.116,-2.407 l 0,-7.62 -8.16,10.582 -10.854,0 0,-0.555 c 0.903,0 2.485,-1.587 3.095,-2.374 l 0.675,-0.875 0,-14.204 c 0,-1.337 -1.772,-2.407 -3.116,-2.407 l 0,-0.557 7.932,0 0,0.557 c -1.324,0 -3.047,1.034 -3.11,2.34 l 0,12.054 11.53,-14.951 3.715,0 0,18.076 c 0.061,1.305 1.786,2.341 3.107,2.341 L 7.93,0 0,0 z"
         style="fill:#ffffff;fill-opacity:1;fill-rule:nonzero;stroke:none"
         id="path3294"
         inkscape:connector-curvature="0" /></g><g
       id="g3296"
       transform="translate(443.25935,279.4118)"><path
         d="m 0,0 0,0.593 -11.848,0 0,-0.593 c 1.22,0.013 2.44,-0.679 2.44,-2.496 l 0,-14.777 c 0,-1.821 -1.22,-2.509 -2.44,-2.498 l 0,-0.594 11.848,0 0,0.594 c -1.221,-0.011 -2.439,0.677 -2.439,2.498 l 0,14.777 C -2.439,-0.679 -1.221,0.013 0,0"
         style="fill:#ffffff;fill-opacity:1;fill-rule:nonzero;stroke:none"
         id="path3298"
         inkscape:connector-curvature="0" /></g><g
       id="g3300"
       transform="translate(487.26715,321.8288)"><path
         d="m 0,0 0,1.007 -17.149,0 0,-1.007 c 1.953,0.022 3.9,-1.154 3.9,-4.238 l 0,-27.076 c 0,-0.672 -0.65,-1.343 -1.423,-1.343 l 0,-1.915 14.672,0 0,1.009 c -1.95,-0.023 -3.905,1.148 -3.905,4.239 l 0,25.086 C -3.905,-1.154 -1.95,0.022 0,0"
         style="fill:#ffffff;fill-opacity:1;fill-rule:nonzero;stroke:none"
         id="path3302"
         inkscape:connector-curvature="0" /></g><g
       id="g3304"
       transform="translate(451.07475,301.1882)"><path
         d="M 0,0 5.23,-6.609 5.235,-6.613 7.391,-9.336 C 0.098,-13.928 -3.991,-4.704 0,0 M 4.423,13.694 C 6.752,13.64 8.471,9.193 5.107,6.043 L 3.609,7.797 c -2.475,3.092 -1.557,5.957 0.814,5.897 m 16.466,-25.711 c -0.773,0 -1.424,0.344 -1.979,0.987 l -5.207,6.439 c 2.388,3.28 2.41,6.995 5.995,8.488 l 0,0.462 -8.203,0 0,-0.462 c 3.581,-1.219 2.287,-4.97 0.98,-6.971 L 6.837,3.902 C 15.915,6.624 13.35,16.066 4.355,16.066 -5.646,16.074 -6.954,7.957 -1.711,2.164 -4.936,0.896 -8.717,-1.671 -8.717,-6.437 c 0,-3.228 1.617,-7.617 9.343,-7.672 l 0,-0.004 0.197,0 0,0.004 c 4.288,0.018 6.568,1.334 7.98,3.033 l 0.491,-0.608 c 1.075,-1.367 3.348,-2.187 5.938,-2.248 l 6.627,0 0,1.96 -0.97,-0.045 z"
         style="fill:#ffffff;fill-opacity:1;fill-rule:nonzero;stroke:none"
         id="path3306"
         inkscape:connector-curvature="0" /></g><g
       id="g3308"
       transform="translate(431.12355,265.8669)"><path
         d="m 0,0 c -1.053,-2.846 -3.172,-5.769 -7.992,-5.769 -2.056,0 -2.99,0.429 -3.015,1.698 l 0.038,18.843 c 0,2.204 1.697,3.039 3.393,3.024 l 0,0.719 -13.391,0.012 0,-0.717 c 1.697,0.012 3.393,-0.822 3.393,-3.024 l 0,-17.874 c 0,-2.206 -1.696,-3.041 -3.393,-3.022 l 0,-0.719 20.656,0.009 0.808,6.592 L 0,0 z"
         style="fill:#ffffff;fill-opacity:1;fill-rule:nonzero;stroke:none"
         id="path3310"
         inkscape:connector-curvature="0" /></g><g
       id="g3312"
       transform="translate(487.21735,263.8591)"><path
         d="m 0,0 c -0.688,-1.697 -3.174,-3.321 -5.515,-3.323 l -3.345,0 0,8.333 2.625,0 c 2.927,0 4.043,-1.215 4.024,-2.428 l 0.562,0 0,6.228 -0.562,0 C -2.192,7.592 -3.308,6.384 -6.235,6.384 l -2.625,0 0,8.217 4.083,0 c 2.939,0 4.449,-1.864 4.427,-3.388 l 0.576,0.037 -0.401,4.835 -17.745,0 0,-0.589 c 1.398,0.011 2.795,-0.677 2.795,-2.493 l 0,-14.732 c 0,-1.816 -1.397,-2.502 -2.795,-2.49 l 0,-0.593 17.745,0 0.817,4.716 L 0,0 z"
         style="fill:#ffffff;fill-opacity:1;fill-rule:nonzero;stroke:none"
         id="path3314"
         inkscape:connector-curvature="0" /></g><g
       id="g3316"
       transform="translate(427.88625,289.6267)"><path
         d="m 0,0 c -2.661,-0.785 -4.245,0.746 -4.245,2.878 l 0,11.076 c 0,0.551 0.505,0.993 1.12,0.993 l 0.937,0 C 3.548,14.262 4.438,8.896 4.438,7.185 4.438,5.722 3.771,1.598 0,0 m -4.245,29.646 c 0,0.47 0.401,0.85 0.89,0.85 l 0.742,0 c 0.176,-0.024 0.338,-0.061 0.506,-0.095 4.088,-0.851 4.764,-5.104 4.765,-6.515 l 0,-0.016 c 0,-1.457 -0.71,-6.033 -5.271,-6.621 l -0.742,0 c -0.489,0 -0.89,0.379 -0.89,0.848 l 0,11.549 z m 10.437,-13.631 0.036,0 c -0.362,0.172 0,0.358 0,0.358 l -0.003,0 c 2.914,1.558 4.885,4.097 4.885,7.513 0,6.117 -5.949,9.323 -13.217,9.323 l -15.382,0 0,-1.007 c 1.949,0.023 3.9,-1.154 3.9,-4.238 l 0,-25.086 c 0,-3.091 -1.951,-4.262 -3.9,-4.239 l 0,-1.009 21.861,0 c 5.923,0 10.728,4.153 10.728,9.277 0,5.054 -4.542,8.264 -8.908,9.108"
         style="fill:#ffffff;fill-opacity:1;fill-rule:nonzero;stroke:none"
         id="path3318"
         inkscape:connector-curvature="0" /></g></g></svg>