<?xml version="1.0" encoding="utf-8"?>
<!-- Generator: Adobe Illustrator 13.0.0, SVG Export Plug-In . SVG Version: 6.00 Build 14948)  -->
<svg version="1.2" baseProfile="tiny" id="Layer_1" xmlns="http://www.w3.org/2000/svg" xmlns:xlink="http://www.w3.org/1999/xlink"
	 x="0px" y="0px" width="760.393px" height="229.923px" viewBox="0 0 760.393 229.923" xml:space="preserve">
<g>
	<g>
		<polygon fill="#004B8D" points="441.626,0 441.626,92.629 380.054,92.629 		"/>
		<polygon fill="#004B8D" points="409.862,1.025 409.862,37.226 373.253,92.492 348.328,92.492 		"/>
	</g>
	<polygon fill="#004B8D" points="378.47,1.116 378.47,37.315 341.082,92.583 316.158,92.583 	"/>
</g>
<g>
	<path fill="#004B8D" d="M11.625,153.763c-5.82-5.22-7.26-12.06-7.26-17.759c0-4.02,1.38-11.04,6.72-16.38
		c3.6-3.6,9.06-6.419,18.299-6.419c2.4,0,5.76,0.18,8.7,0.719c2.28,0.421,4.2,0.781,6.12,0.9c0.66,0.061,0.78,0.301,0.78,0.66
		c0,0.48-0.18,1.2-0.3,3.359c-0.12,1.98-0.12,5.28-0.18,6.18c-0.06,0.9-0.18,1.261-0.54,1.261c-0.42,0-0.479-0.42-0.479-1.261
		c0-2.34-0.96-4.799-2.52-6.119c-2.1-1.8-6.72-3.42-12-3.42c-7.98,0-11.7,2.34-13.8,4.38c-4.379,4.2-5.399,9.54-5.399,15.659
		c0,11.46,8.819,21.959,21.659,21.959c4.5,0,8.04-0.539,10.439-3c1.26-1.319,2.04-3.959,2.22-5.039c0.12-0.66,0.24-0.9,0.6-0.9
		c0.3,0,0.42,0.42,0.42,0.9c0,0.42-0.72,5.64-1.32,7.68c-0.36,1.14-0.48,1.26-1.56,1.74c-2.4,0.959-6.959,1.379-10.799,1.379
		C22.425,160.242,16.365,158.022,11.625,153.763z"/>
	<path fill="#004B8D" d="M90.344,144.583c0,4.92,0.06,8.94,0.3,11.04c0.18,1.5,0.3,2.459,1.92,2.699c0.72,0.121,1.92,0.24,2.34,0.24
		c0.36,0,0.48,0.24,0.48,0.42c0,0.24-0.3,0.42-0.9,0.42c-2.88,0-6.24-0.18-6.54-0.18c-0.24,0-3.66,0.18-5.22,0.18
		c-0.6,0-0.84-0.119-0.84-0.42c0-0.18,0.12-0.42,0.42-0.42c0.48,0,1.08-0.119,1.56-0.24c1.08-0.24,1.26-1.26,1.44-2.76
		c0.24-2.1,0.24-5.939,0.24-10.859v-5.1c0-0.24-0.12-0.3-0.3-0.3H63.225c-0.18,0-0.3,0.06-0.3,0.3v5.1c0,4.92,0,8.82,0.24,10.92
		c0.18,1.5,0.36,2.459,1.92,2.699c0.78,0.121,1.92,0.24,2.4,0.24c0.3,0,0.42,0.24,0.42,0.42c0,0.24-0.24,0.42-0.84,0.42
		c-2.94,0-6.3-0.18-6.54-0.18c-0.3,0-3.66,0.18-5.28,0.18c-0.54,0-0.84-0.119-0.84-0.42c0-0.18,0.12-0.42,0.42-0.42
		c0.479,0,1.14-0.119,1.62-0.24c1.02-0.24,1.14-1.199,1.38-2.699c0.3-2.1,0.3-6.12,0.3-11.04v-8.999c0-7.92,0-9.359-0.12-10.98
		c-0.12-1.739-0.42-2.579-2.16-2.819c-0.42-0.06-1.32-0.12-1.8-0.12c-0.18,0-0.42-0.24-0.42-0.42c0-0.3,0.24-0.42,0.84-0.42
		c2.4,0,5.76,0.12,6.06,0.12c0.24,0,3.6-0.12,5.22-0.12c0.6,0,0.84,0.12,0.84,0.42c0,0.18-0.24,0.42-0.42,0.42
		c-0.36,0-0.72,0-1.32,0.12c-1.44,0.3-1.74,1.021-1.86,2.819c-0.06,1.621-0.06,3.181-0.06,11.1v1.08c0,0.301,0.12,0.301,0.3,0.301
		h22.019c0.18,0,0.3,0,0.3-0.301v-1.08c0-7.919-0.06-9.479-0.12-11.1c-0.12-1.739-0.36-2.579-2.1-2.819
		c-0.42-0.06-1.32-0.12-1.8-0.12c-0.24,0-0.42-0.24-0.42-0.42c0-0.3,0.24-0.42,0.84-0.42c2.34,0,5.76,0.12,6,0.12
		c0.3,0,3.66-0.12,5.22-0.12c0.6,0,0.9,0.12,0.9,0.42c0,0.18-0.24,0.42-0.48,0.42c-0.36,0-0.66,0-1.32,0.12
		c-1.38,0.3-1.68,1.021-1.8,2.819c-0.12,1.621-0.12,3.061-0.12,10.98V144.583z"/>
	<path fill="#004B8D" d="M107.745,135.584c0-7.92,0-9.359-0.12-10.98c-0.12-1.739-0.42-2.579-2.16-2.819
		c-0.42-0.06-1.32-0.12-1.8-0.12c-0.18,0-0.42-0.24-0.42-0.42c0-0.3,0.24-0.42,0.84-0.42c2.4,0,5.94,0.12,6.24,0.12
		c0.54,0,4.98-0.12,6.6-0.12c3.359,0,7.08,0.3,9.839,2.22c1.32,0.96,3.66,3.42,3.66,6.96c0,3.779-1.56,7.439-6.479,11.64
		c4.32,5.399,7.979,10.02,11.04,13.199c2.82,2.88,4.56,3.36,5.88,3.54c1.02,0.18,1.56,0.18,1.86,0.18c0.3,0,0.48,0.24,0.48,0.42
		c0,0.301-0.3,0.42-1.26,0.42h-3.3c-3,0-4.32-0.3-5.64-1.02c-2.28-1.2-4.2-3.66-7.2-7.5c-2.22-2.76-4.56-6.06-5.7-7.439
		c-0.24-0.24-0.36-0.3-0.72-0.3l-6.72-0.12c-0.24,0-0.36,0.12-0.36,0.42v1.199c0,4.92,0,8.881,0.24,10.98
		c0.18,1.5,0.48,2.459,2.1,2.699c0.72,0.121,1.86,0.24,2.34,0.24c0.36,0,0.42,0.24,0.42,0.42c0,0.24-0.24,0.42-0.84,0.42
		c-2.88,0-6.24-0.18-6.479-0.18c-0.06,0-3.6,0.18-5.22,0.18c-0.54,0-0.84-0.119-0.84-0.42c0-0.18,0.12-0.42,0.42-0.42
		c0.479,0,1.14-0.119,1.62-0.24c1.02-0.24,1.14-1.199,1.38-2.699c0.3-2.1,0.3-6.12,0.3-11.04V135.584z M112.305,139.903
		c0,0.3,0.12,0.479,0.36,0.66c0.78,0.42,3.48,0.78,5.82,0.78c1.26,0,2.7-0.061,3.96-0.9c1.8-1.199,3.18-3.9,3.18-7.8
		c0-6.359-3.479-10.02-9.12-10.02c-1.56,0-3.24,0.181-3.78,0.3c-0.24,0.12-0.42,0.301-0.42,0.6V139.903z"/>
	<path fill="#004B8D" d="M152.865,144.583c0,4.92,0,8.94,0.24,11.04c0.18,1.5,0.36,2.459,1.92,2.699c0.78,0.121,1.92,0.24,2.4,0.24
		c0.3,0,0.42,0.24,0.42,0.42c0,0.24-0.24,0.42-0.84,0.42c-2.94,0-6.36-0.18-6.6-0.18c-0.3,0-3.6,0.18-5.22,0.18
		c-0.54,0-0.84-0.119-0.84-0.42c0-0.18,0.12-0.42,0.42-0.42c0.48,0,1.14-0.119,1.62-0.24c1.02-0.24,1.2-1.199,1.38-2.699
		c0.24-2.1,0.3-6.12,0.3-11.04v-8.999c0-7.92,0-9.359-0.12-10.98c-0.12-1.739-0.54-2.52-1.68-2.76c-0.6-0.119-1.26-0.18-1.62-0.18
		c-0.24,0-0.42-0.24-0.42-0.42c0-0.3,0.24-0.42,0.84-0.42c1.74,0,5.04,0.12,5.34,0.12c0.24,0,3.66-0.12,5.28-0.12
		c0.6,0,0.84,0.12,0.84,0.42c0,0.18-0.24,0.42-0.42,0.42c-0.36,0-0.72,0-1.32,0.12c-1.44,0.3-1.74,1.021-1.86,2.819
		c-0.06,1.621-0.06,3.061-0.06,10.98V144.583z"/>
	<path fill="#004B8D" d="M166.964,158.683c-0.72-0.36-0.78-0.54-0.78-1.92c0-2.521,0.24-4.56,0.3-5.399c0-0.54,0.12-0.84,0.42-0.84
		s0.48,0.18,0.48,0.6s0,1.14,0.18,1.859c0.84,3.721,4.8,5.04,8.339,5.04c5.22,0,7.92-2.939,7.92-6.779c0-3.66-1.98-5.399-6.66-8.88
		l-2.4-1.8c-5.7-4.26-7.56-7.38-7.56-10.919c0-6,4.74-9.6,11.7-9.6c2.1,0,4.2,0.299,5.46,0.6c1.02,0.24,1.44,0.24,1.86,0.24
		s0.54,0.06,0.54,0.359c0,0.24-0.24,1.92-0.24,5.4c0,0.779-0.06,1.14-0.42,1.14s-0.42-0.24-0.48-0.66
		c-0.06-0.601-0.48-1.979-0.78-2.521c-0.36-0.6-2.1-2.52-6.84-2.52c-3.84,0-7.02,1.92-7.02,5.52c0,3.24,1.62,5.1,6.839,8.641
		l1.5,1.02c6.42,4.38,8.64,7.92,8.64,12.299c0,3-1.14,6.24-4.92,8.7c-2.22,1.44-5.52,1.8-8.399,1.8
		C172.184,160.062,169.124,159.703,166.964,158.683z"/>
	<path fill="#004B8D" d="M214.363,144.583c0,4.92,0,8.94,0.24,11.04c0.18,1.5,0.42,2.459,2.04,2.699c0.72,0.121,1.92,0.24,2.4,0.24
		c0.36,0,0.42,0.24,0.42,0.42c0,0.24-0.24,0.42-0.84,0.42c-2.88,0-6.24-0.18-6.54-0.18c-0.24,0-3.899,0.18-5.459,0.18
		c-0.6,0-0.84-0.119-0.84-0.42c0-0.18,0.12-0.359,0.42-0.359c0.48,0,1.08-0.12,1.56-0.24c1.08-0.24,1.38-1.26,1.56-2.76
		c0.24-2.1,0.24-6.12,0.24-11.04v-21.419l-7.62,0.12c-3.3,0.06-4.56,0.42-5.339,1.62c-0.6,0.9-0.66,1.26-0.84,1.619
		c-0.12,0.42-0.3,0.48-0.54,0.48c-0.12,0-0.36-0.12-0.36-0.42c0-0.54,1.08-5.1,1.14-5.52c0.12-0.301,0.36-0.96,0.54-0.96
		c0.36,0,0.9,0.42,2.34,0.6c1.5,0.181,3.54,0.24,4.14,0.24h19.919c1.74,0,2.94-0.12,3.78-0.24c0.78-0.12,1.26-0.239,1.5-0.239
		c0.24,0,0.24,0.299,0.24,0.6c0,1.56-0.18,5.22-0.18,5.819c0,0.42-0.24,0.66-0.48,0.66c-0.24,0-0.36-0.181-0.42-0.899l-0.06-0.541
		c-0.18-1.56-1.32-2.699-6.36-2.819l-6.6-0.12V144.583z"/>
	<path fill="#004B8D" d="M253.002,120.104c11.88,0,20.879,7.259,20.879,19.14c0,11.398-8.459,20.818-21.179,20.818
		c-14.459,0-20.639-10.859-20.639-20.039C232.063,131.804,238.423,120.104,253.002,120.104z M254.202,157.963
		c4.74,0,14.279-2.52,14.279-17.279c0-12.24-7.439-18.659-15.779-18.659c-8.819,0-15.179,5.52-15.179,16.619
		C237.523,150.523,244.663,157.963,254.202,157.963z"/>
	<path fill="#004B8D" d="M284.923,135.584c0-7.92,0-9.359-0.12-10.98c-0.12-1.739-0.42-2.579-2.16-2.819
		c-0.42-0.06-1.32-0.12-1.8-0.12c-0.18,0-0.42-0.24-0.42-0.42c0-0.3,0.24-0.42,0.84-0.42c2.4,0,5.7,0.12,6.12,0.12
		c1.14,0,5.1-0.12,7.5-0.12c6.78,0,9.18,2.1,10.08,2.88c1.2,1.08,2.64,3.36,2.64,6.12c0,7.319-5.52,12.18-13.619,12.18
		c-0.3,0-1.2,0-1.5-0.061c-0.24,0-0.54-0.24-0.54-0.48c0-0.42,0.3-0.539,1.38-0.539c5.7,0,9.78-3.6,9.78-8.221
		c0-1.68-0.18-4.979-3-7.739c-2.76-2.76-5.94-2.46-7.14-2.46c-0.9,0-2.4,0.24-2.94,0.36c-0.3,0.06-0.42,0.42-0.42,0.96v20.759
		c0,4.92,0,8.94,0.24,11.04c0.18,1.5,0.48,2.459,2.1,2.699c0.72,0.121,1.86,0.24,2.34,0.24c0.3,0,0.42,0.24,0.42,0.42
		c0,0.24-0.24,0.42-0.84,0.42c-2.88,0-6.36-0.18-6.6-0.18c-0.18,0-3.6,0.18-5.22,0.18c-0.54,0-0.84-0.119-0.84-0.42
		c0-0.18,0.12-0.42,0.42-0.42c0.48,0,1.14-0.119,1.62-0.24c1.02-0.24,1.14-1.199,1.38-2.699c0.3-2.1,0.3-6.12,0.3-11.04V135.584z"/>
	<path fill="#004B8D" d="M351.463,144.583c0,4.92,0.06,8.94,0.3,11.04c0.18,1.5,0.3,2.459,1.92,2.699
		c0.72,0.121,1.92,0.24,2.34,0.24c0.36,0,0.479,0.24,0.479,0.42c0,0.24-0.299,0.42-0.899,0.42c-2.88,0-6.239-0.18-6.54-0.18
		c-0.24,0-3.66,0.18-5.22,0.18c-0.6,0-0.84-0.119-0.84-0.42c0-0.18,0.12-0.42,0.42-0.42c0.479,0,1.08-0.119,1.56-0.24
		c1.08-0.24,1.26-1.26,1.44-2.76c0.24-2.1,0.24-5.939,0.24-10.859v-5.1c0-0.24-0.12-0.3-0.3-0.3h-22.02c-0.18,0-0.3,0.06-0.3,0.3
		v5.1c0,4.92,0,8.82,0.24,10.92c0.18,1.5,0.36,2.459,1.92,2.699c0.78,0.121,1.92,0.24,2.4,0.24c0.3,0,0.42,0.24,0.42,0.42
		c0,0.24-0.24,0.42-0.84,0.42c-2.94,0-6.3-0.18-6.54-0.18c-0.3,0-3.66,0.18-5.28,0.18c-0.54,0-0.84-0.119-0.84-0.42
		c0-0.18,0.12-0.42,0.42-0.42c0.479,0,1.14-0.119,1.62-0.24c1.02-0.24,1.14-1.199,1.38-2.699c0.3-2.1,0.3-6.12,0.3-11.04v-8.999
		c0-7.92,0-9.359-0.12-10.98c-0.12-1.739-0.42-2.579-2.16-2.819c-0.42-0.06-1.32-0.12-1.8-0.12c-0.18,0-0.42-0.24-0.42-0.42
		c0-0.3,0.24-0.42,0.84-0.42c2.4,0,5.76,0.12,6.06,0.12c0.24,0,3.6-0.12,5.22-0.12c0.6,0,0.84,0.12,0.84,0.42
		c0,0.18-0.24,0.42-0.42,0.42c-0.36,0-0.72,0-1.32,0.12c-1.44,0.3-1.74,1.021-1.86,2.819c-0.06,1.621-0.06,3.181-0.06,11.1v1.08
		c0,0.301,0.12,0.301,0.3,0.301h22.02c0.18,0,0.3,0,0.3-0.301v-1.08c0-7.919-0.06-9.479-0.12-11.1c-0.12-1.739-0.36-2.579-2.1-2.819
		c-0.42-0.06-1.32-0.12-1.801-0.12c-0.24,0-0.42-0.24-0.42-0.42c0-0.3,0.24-0.42,0.84-0.42c2.34,0,5.76,0.12,6,0.12
		c0.301,0,3.66-0.12,5.221-0.12c0.6,0,0.899,0.12,0.899,0.42c0,0.18-0.24,0.42-0.479,0.42c-0.36,0-0.66,0-1.32,0.12
		c-1.381,0.3-1.68,1.021-1.801,2.819c-0.119,1.621-0.119,3.061-0.119,10.98V144.583z"/>
	<path fill="#004B8D" d="M368.864,135.584c0-7.92,0-9.359-0.12-10.98c-0.12-1.739-0.42-2.579-2.16-2.819
		c-0.42-0.06-1.32-0.12-1.8-0.12c-0.18,0-0.42-0.24-0.42-0.42c0-0.3,0.24-0.42,0.84-0.42c2.399,0,5.819,0.12,6.12,0.12
		c0.359,0,11.399,0.06,12.6,0c1.02-0.06,1.979-0.24,2.399-0.3c0.24-0.061,0.479-0.24,0.72-0.24c0.18,0,0.24,0.24,0.24,0.48
		c0,0.359-0.3,0.959-0.42,2.399c-0.061,0.479-0.18,2.76-0.3,3.36c-0.06,0.239-0.24,0.539-0.479,0.539c-0.301,0-0.42-0.24-0.42-0.66
		c0-0.359-0.061-1.199-0.301-1.799c-0.359-0.84-0.9-1.201-3.779-1.561c-0.9-0.12-7.02-0.18-7.62-0.18c-0.24,0-0.3,0.18-0.3,0.539
		v13.86c0,0.36,0,0.54,0.3,0.54c0.66,0,7.62,0,8.819-0.12c1.26-0.12,2.04-0.181,2.58-0.72c0.36-0.36,0.6-0.66,0.78-0.66
		c0.18,0,0.3,0.119,0.3,0.42c0,0.3-0.3,1.14-0.42,2.82c-0.12,1.02-0.24,2.939-0.24,3.299c0,0.42-0.119,0.961-0.48,0.961
		c-0.239,0-0.359-0.181-0.359-0.48c0-0.48,0-1.02-0.24-1.68c-0.18-0.721-0.66-1.32-2.699-1.561c-1.44-0.18-7.08-0.24-7.98-0.24
		c-0.3,0-0.359,0.181-0.359,0.36v4.26c0,1.74-0.061,7.68,0,8.7c0.119,3.42,1.08,4.08,6.3,4.08c1.38,0,3.899,0,5.279-0.541
		c1.38-0.6,2.101-1.5,2.4-3.539c0.12-0.6,0.239-0.78,0.54-0.78c0.3,0,0.359,0.42,0.359,0.78c0,0.359-0.42,3.84-0.72,4.92
		c-0.36,1.319-0.899,1.319-2.94,1.319c-3.959,0-7.02-0.12-9.18-0.18c-2.219-0.12-3.6-0.12-4.379-0.12c-0.12,0-1.141,0-2.28,0.061
		c-1.021,0.06-2.22,0.119-3.06,0.119c-0.54,0-0.84-0.119-0.84-0.42c0-0.18,0.119-0.42,0.42-0.42c0.479,0,1.14-0.18,1.619-0.24
		c1.021-0.18,1.141-1.199,1.381-2.699c0.3-2.1,0.3-6.12,0.3-11.04V135.584z"/>
	<path fill="#004B8D" d="M401.924,135.584c0-7.92,0-9.359-0.12-10.98c-0.12-1.739-0.42-2.579-2.16-2.819
		c-0.42-0.06-1.319-0.12-1.8-0.12c-0.18,0-0.42-0.24-0.42-0.42c0-0.3,0.24-0.42,0.84-0.42c2.4,0,5.939,0.12,6.24,0.12
		c0.539,0,4.979-0.12,6.6-0.12c3.359,0,7.08,0.3,9.84,2.22c1.319,0.96,3.659,3.42,3.659,6.96c0,3.779-1.56,7.439-6.479,11.64
		c4.32,5.399,7.979,10.02,11.039,13.199c2.82,2.88,4.561,3.36,5.881,3.54c1.02,0.18,1.559,0.18,1.859,0.18
		c0.3,0,0.48,0.24,0.48,0.42c0,0.301-0.301,0.42-1.261,0.42h-3.3c-3,0-4.32-0.3-5.64-1.02c-2.28-1.2-4.2-3.66-7.2-7.5
		c-2.219-2.76-4.56-6.06-5.699-7.439c-0.24-0.24-0.359-0.3-0.721-0.3l-6.719-0.12c-0.24,0-0.36,0.12-0.36,0.42v1.199
		c0,4.92,0,8.881,0.24,10.98c0.18,1.5,0.479,2.459,2.1,2.699c0.72,0.121,1.86,0.24,2.34,0.24c0.36,0,0.42,0.24,0.42,0.42
		c0,0.24-0.239,0.42-0.84,0.42c-2.88,0-6.239-0.18-6.479-0.18c-0.061,0-3.6,0.18-5.22,0.18c-0.54,0-0.841-0.119-0.841-0.42
		c0-0.18,0.121-0.42,0.421-0.42c0.479,0,1.14-0.119,1.62-0.24c1.02-0.24,1.14-1.199,1.379-2.699c0.301-2.1,0.301-6.12,0.301-11.04
		V135.584z M406.483,139.903c0,0.3,0.12,0.479,0.36,0.66c0.779,0.42,3.479,0.78,5.819,0.78c1.261,0,2.7-0.061,3.96-0.9
		c1.8-1.199,3.18-3.9,3.18-7.8c0-6.359-3.479-10.02-9.119-10.02c-1.561,0-3.24,0.181-3.78,0.3c-0.239,0.12-0.42,0.301-0.42,0.6
		V139.903z"/>
	<path fill="#004B8D" d="M464.743,151.243c0.12,4.919,0.72,6.479,2.34,6.96c1.14,0.3,2.46,0.359,3,0.359
		c0.3,0,0.479,0.12,0.479,0.36c0,0.36-0.359,0.479-1.079,0.479c-3.42,0-5.819-0.18-6.36-0.18c-0.539,0-3.06,0.18-5.76,0.18
		c-0.6,0-0.959-0.06-0.959-0.479c0-0.24,0.18-0.36,0.479-0.36c0.479,0,1.56-0.06,2.46-0.359c1.5-0.42,1.8-2.16,1.8-7.62l0.06-34.378
		c0-2.341,0.18-3,0.66-3s1.5,1.319,2.1,1.92c0.9,1.02,9.84,10.68,19.08,20.578c5.939,6.36,12.479,13.68,14.398,15.66l-0.659-30.479
		c-0.06-3.9-0.479-5.221-2.34-5.7c-1.08-0.24-2.46-0.3-2.94-0.3c-0.42,0-0.479-0.18-0.479-0.42c0-0.36,0.479-0.42,1.2-0.42
		c2.699,0,5.579,0.18,6.239,0.18s2.64-0.18,5.1-0.18c0.66,0,1.08,0.06,1.08,0.42c0,0.24-0.239,0.42-0.659,0.42
		c-0.301,0-0.721,0-1.44,0.18c-1.979,0.42-2.22,1.74-2.22,5.34l-0.12,35.158c0,3.96-0.12,4.26-0.54,4.26c-0.48,0-1.2-0.66-4.38-3.84
		c-0.66-0.6-9.3-9.42-15.659-16.259c-6.96-7.5-13.74-15.06-15.66-17.22L464.743,151.243z"/>
	<path fill="#004B8D" d="M518.562,135.584c0-7.92,0-9.359-0.119-10.98c-0.121-1.739-0.42-2.579-2.16-2.819
		c-0.42-0.06-1.32-0.12-1.801-0.12c-0.18,0-0.42-0.24-0.42-0.42c0-0.3,0.24-0.42,0.84-0.42c2.4,0,5.82,0.12,6.12,0.12
		c0.36,0,11.399,0.06,12.6,0c1.021-0.06,1.979-0.24,2.399-0.3c0.24-0.061,0.48-0.24,0.721-0.24c0.18,0,0.24,0.24,0.24,0.48
		c0,0.359-0.301,0.959-0.42,2.399c-0.061,0.479-0.181,2.76-0.301,3.36c-0.06,0.239-0.24,0.539-0.479,0.539
		c-0.3,0-0.42-0.24-0.42-0.66c0-0.359-0.06-1.199-0.3-1.799c-0.36-0.84-0.9-1.201-3.78-1.561c-0.899-0.12-7.02-0.18-7.62-0.18
		c-0.239,0-0.299,0.18-0.299,0.539v13.86c0,0.36,0,0.54,0.299,0.54c0.66,0,7.62,0,8.82-0.12c1.26-0.12,2.039-0.181,2.58-0.72
		c0.359-0.36,0.6-0.66,0.779-0.66s0.301,0.119,0.301,0.42c0,0.3-0.301,1.14-0.42,2.82c-0.121,1.02-0.24,2.939-0.24,3.299
		c0,0.42-0.12,0.961-0.48,0.961c-0.24,0-0.359-0.181-0.359-0.48c0-0.48,0-1.02-0.24-1.68c-0.18-0.721-0.66-1.32-2.7-1.561
		c-1.44-0.18-7.079-0.24-7.979-0.24c-0.3,0-0.359,0.181-0.359,0.36v4.26c0,1.74-0.061,7.68,0,8.7c0.119,3.42,1.079,4.08,6.299,4.08
		c1.381,0,3.9,0,5.28-0.541c1.38-0.6,2.1-1.5,2.399-3.539c0.12-0.6,0.24-0.78,0.54-0.78s0.36,0.42,0.36,0.78
		c0,0.359-0.42,3.84-0.721,4.92c-0.359,1.319-0.899,1.319-2.939,1.319c-3.96,0-7.02-0.12-9.18-0.18c-2.22-0.12-3.6-0.12-4.38-0.12
		c-0.12,0-1.14,0-2.28,0.061c-1.02,0.06-2.219,0.119-3.059,0.119c-0.541,0-0.841-0.119-0.841-0.42c0-0.18,0.12-0.42,0.42-0.42
		c0.48,0,1.14-0.18,1.62-0.24c1.02-0.18,1.141-1.199,1.38-2.699c0.3-2.1,0.3-6.12,0.3-11.04V135.584z"/>
	<path fill="#004B8D" d="M586.061,151.843h0.24c1.32-4.2,6.06-18.959,7.92-25.499c0.54-1.92,0.6-2.52,0.6-3.18
		c0-0.9-0.42-1.5-2.82-1.5c-0.3,0-0.479-0.3-0.479-0.48c0-0.239,0.24-0.359,0.899-0.359c2.7,0,4.92,0.12,5.4,0.12
		c0.359,0,2.64-0.12,4.26-0.12c0.479,0,0.72,0.12,0.72,0.3c0,0.24-0.12,0.54-0.479,0.54c-0.181,0-1.2,0.061-1.8,0.24
		c-1.561,0.54-2.4,2.58-3.42,5.399c-2.34,6.479-7.56,22.679-9.66,28.379c-1.38,3.78-1.68,4.38-2.28,4.38
		c-0.539,0-1.02-0.66-1.739-2.64l-10.319-27.899c-1.801,4.44-8.939,23.1-10.859,27.84c-0.9,2.159-1.261,2.699-1.86,2.699
		c-0.54,0-0.96-0.54-2.04-4.02l-9.359-30.238c-0.84-2.701-1.381-3.36-2.76-3.84c-0.721-0.24-2.04-0.301-2.4-0.301
		c-0.24,0-0.48-0.18-0.48-0.48c0-0.239,0.36-0.359,0.841-0.359c2.76,0,5.7,0.12,6.239,0.12c0.48,0,2.88-0.12,5.52-0.12
		c0.721,0,0.961,0.12,0.961,0.359c0,0.301-0.301,0.48-0.541,0.48c-0.42,0-1.26,0-1.859,0.301c-0.359,0.119-0.72,0.42-0.72,1.079
		c0,0.66,0.42,2.46,1.02,4.74c0.841,3.239,6.239,21.959,6.899,24.059h0.121l11.039-28.499c0.779-2.039,1.14-2.34,1.439-2.34
		c0.36,0,0.78,0.66,1.44,2.4L586.061,151.843z"/>
	<path fill="#004B8D" d="M611.321,135.584c0-7.92,0-9.359-0.12-10.98c-0.12-1.739-0.42-2.579-2.16-2.819
		c-0.42-0.06-1.319-0.12-1.8-0.12c-0.18,0-0.42-0.24-0.42-0.42c0-0.3,0.24-0.42,0.84-0.42c2.4,0,5.7,0.12,6.12,0.12
		c1.14,0,5.1-0.12,7.499-0.12c6.78,0,9.18,2.1,10.08,2.88c1.2,1.08,2.64,3.36,2.64,6.12c0,7.319-5.52,12.18-13.619,12.18
		c-0.3,0-1.2,0-1.5-0.061c-0.24,0-0.54-0.24-0.54-0.48c0-0.42,0.3-0.539,1.38-0.539c5.7,0,9.779-3.6,9.779-8.221
		c0-1.68-0.18-4.979-3-7.739c-2.76-2.76-5.939-2.46-7.14-2.46c-0.899,0-2.399,0.24-2.939,0.36c-0.3,0.06-0.42,0.42-0.42,0.96v20.759
		c0,4.92,0,8.94,0.24,11.04c0.18,1.5,0.479,2.459,2.1,2.699c0.72,0.121,1.86,0.24,2.34,0.24c0.3,0,0.42,0.24,0.42,0.42
		c0,0.24-0.24,0.42-0.84,0.42c-2.88,0-6.359-0.18-6.6-0.18c-0.18,0-3.6,0.18-5.22,0.18c-0.54,0-0.84-0.119-0.84-0.42
		c0-0.18,0.12-0.42,0.42-0.42c0.479,0,1.14-0.119,1.62-0.24c1.02-0.24,1.14-1.199,1.38-2.699c0.3-2.1,0.3-6.12,0.3-11.04V135.584z"
		/>
	<path fill="#004B8D" d="M661.421,120.104c11.879,0,20.879,7.259,20.879,19.14c0,11.398-8.46,20.818-21.179,20.818
		c-14.46,0-20.64-10.859-20.64-20.039C640.481,131.804,646.841,120.104,661.421,120.104z M662.621,157.963
		c4.739,0,14.279-2.52,14.279-17.279c0-12.24-7.44-18.659-15.779-18.659c-8.82,0-15.18,5.52-15.18,16.619
		C645.941,150.523,653.081,157.963,662.621,157.963z"/>
	<path fill="#004B8D" d="M693.342,135.584c0-7.92,0-9.359-0.12-10.98c-0.12-1.739-0.42-2.579-2.16-2.819
		c-0.42-0.06-1.319-0.12-1.8-0.12c-0.18,0-0.42-0.24-0.42-0.42c0-0.3,0.24-0.42,0.84-0.42c2.4,0,5.939,0.12,6.24,0.12
		c0.54,0,4.979-0.12,6.6-0.12c3.359,0,7.079,0.3,9.84,2.22c1.319,0.96,3.659,3.42,3.659,6.96c0,3.779-1.56,7.439-6.479,11.64
		c4.319,5.399,7.979,10.02,11.039,13.199c2.82,2.88,4.561,3.36,5.88,3.54c1.021,0.18,1.561,0.18,1.86,0.18s0.479,0.24,0.479,0.42
		c0,0.301-0.3,0.42-1.26,0.42h-3.3c-3,0-4.319-0.3-5.64-1.02c-2.28-1.2-4.2-3.66-7.2-7.5c-2.22-2.76-4.56-6.06-5.699-7.439
		c-0.24-0.24-0.36-0.3-0.72-0.3l-6.72-0.12c-0.24,0-0.36,0.12-0.36,0.42v1.199c0,4.92,0,8.881,0.24,10.98
		c0.18,1.5,0.479,2.459,2.1,2.699c0.72,0.121,1.86,0.24,2.34,0.24c0.36,0,0.42,0.24,0.42,0.42c0,0.24-0.239,0.42-0.84,0.42
		c-2.88,0-6.239-0.18-6.479-0.18c-0.061,0-3.6,0.18-5.22,0.18c-0.54,0-0.84-0.119-0.84-0.42c0-0.18,0.12-0.42,0.42-0.42
		c0.479,0,1.14-0.119,1.62-0.24c1.02-0.24,1.14-1.199,1.38-2.699c0.3-2.1,0.3-6.12,0.3-11.04V135.584z M697.901,139.903
		c0,0.3,0.12,0.479,0.36,0.66c0.779,0.42,3.479,0.78,5.819,0.78c1.26,0,2.7-0.061,3.96-0.9c1.8-1.199,3.18-3.9,3.18-7.8
		c0-6.359-3.479-10.02-9.119-10.02c-1.561,0-3.24,0.181-3.78,0.3c-0.24,0.12-0.42,0.301-0.42,0.6V139.903z"/>
	<path fill="#004B8D" d="M742.422,144.583c0,4.92,0,8.94,0.24,11.04c0.18,1.5,0.42,2.459,2.039,2.699
		c0.721,0.121,1.92,0.24,2.4,0.24c0.36,0,0.42,0.24,0.42,0.42c0,0.24-0.24,0.42-0.84,0.42c-2.88,0-6.24-0.18-6.54-0.18
		c-0.24,0-3.899,0.18-5.46,0.18c-0.6,0-0.84-0.119-0.84-0.42c0-0.18,0.12-0.359,0.42-0.359c0.48,0,1.08-0.12,1.561-0.24
		c1.08-0.24,1.38-1.26,1.56-2.76c0.24-2.1,0.24-6.12,0.24-11.04v-21.419l-7.62,0.12c-3.3,0.06-4.56,0.42-5.34,1.62
		c-0.6,0.9-0.66,1.26-0.84,1.619c-0.12,0.42-0.3,0.48-0.54,0.48c-0.12,0-0.359-0.12-0.359-0.42c0-0.54,1.079-5.1,1.14-5.52
		c0.12-0.301,0.36-0.96,0.54-0.96c0.36,0,0.899,0.42,2.34,0.6c1.5,0.181,3.54,0.24,4.14,0.24h19.919c1.74,0,2.94-0.12,3.78-0.24
		c0.78-0.12,1.26-0.239,1.5-0.239s0.24,0.299,0.24,0.6c0,1.56-0.181,5.22-0.181,5.819c0,0.42-0.239,0.66-0.479,0.66
		s-0.36-0.181-0.42-0.899l-0.061-0.541c-0.18-1.56-1.319-2.699-6.359-2.819l-6.6-0.12V144.583z"/>
	<path fill="#004B8D" d="M124.865,209.521c0-6.601,0-7.801-0.1-9.15s-0.35-2.15-1.8-2.351c-0.35-0.05-1.1-0.1-1.5-0.1
		c-0.15,0-0.35-0.2-0.35-0.351c0-0.25,0.2-0.35,0.7-0.35c2,0,4.65,0.1,5.05,0.1s3.15-0.1,4.45-0.1c0.5,0,0.75,0.1,0.75,0.35
		c0,0.15-0.2,0.351-0.4,0.351c-0.3,0-0.55,0-1.1,0.1c-1.15,0.2-1.4,0.95-1.5,2.351c-0.1,1.35-0.1,2.55-0.1,9.15v5.95
		c0,6.15,1.35,8.7,3.25,10.401c2.15,1.949,4.05,2.299,6.551,2.299c2.7,0,5.3-1.199,6.8-3c2.05-2.449,2.5-5.949,2.5-10.301v-5.35
		c0-6.601-0.05-7.801-0.1-9.15c-0.05-1.35-0.3-2.15-1.75-2.351c-0.35-0.05-1.1-0.1-1.5-0.1c-0.2,0-0.35-0.2-0.35-0.351
		c0-0.25,0.2-0.35,0.7-0.35c1.95,0,4.5,0.1,4.75,0.1c0.3,0,2.4-0.1,3.7-0.1c0.5,0,0.7,0.1,0.7,0.35c0,0.15-0.15,0.351-0.35,0.351
		c-0.3,0-0.55,0-1.1,0.1c-1.2,0.251-1.45,0.95-1.55,2.351c-0.1,1.35-0.05,2.55-0.05,9.15v4.551c0,4.6-0.6,9.75-4.1,12.75
		c-3.2,2.75-6.601,3.101-9.201,3.101c-1.45,0-6.05-0.101-9.15-3.001c-2.15-2-3.85-4.949-3.85-11.15V209.521z"/>
	<path fill="#004B8D" d="M190.565,223.572c0.1,3.5,0.5,4.551,1.7,4.851c0.8,0.2,1.8,0.25,2.2,0.25c0.2,0,0.35,0.149,0.35,0.35
		c0,0.25-0.3,0.351-0.8,0.351c-2.5,0-4.25-0.15-4.65-0.15s-2.25,0.15-4.25,0.15c-0.45,0-0.7-0.051-0.7-0.351
		c0-0.2,0.15-0.35,0.35-0.35c0.35,0,1.15-0.05,1.8-0.25c1.1-0.3,1.25-1.45,1.25-5.301v-24.351c0-1.701,0.25-2.15,0.6-2.15
		c0.5,0,1.25,0.85,1.7,1.3c0.7,0.7,7.101,7.501,13.901,14.501c4.351,4.5,9.051,9.551,10.401,10.95l-0.45-21.302
		c-0.05-2.75-0.3-3.699-1.65-3.949c-0.8-0.15-1.8-0.2-2.15-0.2c-0.3,0-0.35-0.25-0.35-0.4c0-0.25,0.35-0.3,0.85-0.3
		c2,0,4.101,0.1,4.601,0.1s1.95-0.1,3.75-0.1c0.45,0,0.8,0.05,0.8,0.3c0,0.15-0.2,0.4-0.5,0.4c-0.2,0-0.55,0-1.05,0.1
		c-1.45,0.3-1.55,1.15-1.55,3.7l-0.1,24.902c0,2.8-0.05,3.05-0.35,3.05c-0.45,0-0.9-0.351-3.35-2.601
		c-0.45-0.4-6.801-6.65-11.451-11.5c-5.101-5.351-10.051-10.551-11.401-12.051L190.565,223.572z"/>
	<path fill="#004B8D" d="M258.365,217.021c0,4.101,0,7.451,0.2,9.201c0.15,1.25,0.3,2.05,1.6,2.25c0.65,0.1,1.6,0.2,2,0.2
		c0.25,0,0.35,0.2,0.35,0.35c0,0.2-0.2,0.351-0.7,0.351c-2.45,0-5.301-0.15-5.5-0.15c-0.25,0-3,0.15-4.351,0.15
		c-0.45,0-0.7-0.101-0.7-0.351c0-0.149,0.1-0.35,0.35-0.35c0.4,0,0.95-0.101,1.35-0.2c0.85-0.2,1-1,1.15-2.25
		c0.2-1.75,0.25-5.101,0.25-9.201v-7.5c0-6.601,0-7.801-0.1-9.15c-0.1-1.45-0.45-2.1-1.4-2.301c-0.5-0.1-1.05-0.149-1.35-0.149
		c-0.2,0-0.35-0.2-0.35-0.351c0-0.25,0.2-0.35,0.7-0.35c1.45,0,4.2,0.1,4.45,0.1c0.2,0,3.05-0.1,4.4-0.1c0.5,0,0.7,0.1,0.7,0.35
		c0,0.15-0.2,0.351-0.35,0.351c-0.3,0-0.6,0-1.1,0.1c-1.2,0.251-1.45,0.851-1.55,2.351c-0.05,1.35-0.05,2.55-0.05,9.15V217.021z"/>
	<path fill="#004B8D" d="M308.465,223.822c2.55-5.7,8.301-20.201,9.251-23.252c0.2-0.649,0.4-1.25,0.4-1.6s-0.15-0.75-0.6-0.9
		c-0.5-0.149-1-0.149-1.5-0.149c-0.25,0-0.5-0.15-0.5-0.351c0-0.25,0.3-0.35,1-0.35c1.75,0,3.75,0.1,4.3,0.1
		c0.25,0,2.15-0.1,3.45-0.1c0.45,0,0.7,0.1,0.7,0.3s-0.15,0.4-0.5,0.4c-0.3,0-1.3,0-2.1,0.5c-0.6,0.399-1.3,1-2.45,3.899
		c-0.5,1.201-2.65,6.301-4.9,11.502c-2.7,6.199-4.65,10.801-5.65,12.9c-1.2,2.55-1.45,3.2-1.9,3.2c-0.5,0-0.8-0.55-1.65-2.601
		l-10.801-26.051c-1-2.4-1.6-2.851-3.05-3.201c-0.7-0.149-1.45-0.149-1.7-0.149c-0.25,0-0.35-0.25-0.35-0.4
		c0-0.25,0.45-0.3,1.15-0.3c2.1,0,4.6,0.1,5.15,0.1c0.45,0,2.4-0.1,4.1-0.1c0.8,0,1.2,0.1,1.2,0.3s-0.15,0.4-0.45,0.4
		c-0.5,0-1.2,0.05-1.6,0.2c-0.45,0.199-0.5,0.449-0.5,0.75c0,0.55,0.55,1.85,1.2,3.55L308.465,223.822z"/>
	<path fill="#004B8D" d="M356.465,209.521c0-6.601,0-7.801-0.101-9.15c-0.101-1.45-0.351-2.15-1.8-2.351c-0.35-0.05-1.1-0.1-1.5-0.1
		c-0.15,0-0.351-0.2-0.351-0.351c0-0.25,0.2-0.35,0.7-0.35c2,0,4.851,0.1,5.101,0.1c0.3,0,9.501,0.051,10.501,0
		c0.85-0.05,1.649-0.199,2-0.25c0.199-0.05,0.399-0.199,0.6-0.199c0.15,0,0.2,0.199,0.2,0.399c0,0.3-0.25,0.8-0.351,2.001
		c-0.05,0.399-0.149,2.299-0.25,2.799c-0.05,0.201-0.199,0.451-0.399,0.451c-0.25,0-0.351-0.201-0.351-0.551c0-0.3-0.05-1-0.25-1.5
		c-0.3-0.699-0.75-1-3.15-1.3c-0.75-0.101-5.85-0.149-6.35-0.149c-0.2,0-0.25,0.149-0.25,0.449v11.551c0,0.301,0,0.45,0.25,0.45
		c0.55,0,6.35,0,7.35-0.101c1.051-0.1,1.701-0.149,2.15-0.6c0.301-0.3,0.5-0.55,0.65-0.55s0.25,0.1,0.25,0.35s-0.25,0.95-0.35,2.351
		c-0.101,0.85-0.2,2.449-0.2,2.75c0,0.35-0.101,0.8-0.4,0.8c-0.2,0-0.3-0.149-0.3-0.399c0-0.4,0-0.851-0.2-1.4
		c-0.149-0.6-0.55-1.1-2.25-1.301c-1.2-0.149-5.9-0.199-6.65-0.199c-0.25,0-0.3,0.15-0.3,0.3v3.55c0,1.451-0.051,6.4,0,7.251
		c0.1,2.851,0.9,3.399,5.25,3.399c1.15,0,3.25,0,4.4-0.449c1.15-0.5,1.75-1.25,2-2.95c0.1-0.5,0.2-0.65,0.45-0.65
		s0.3,0.351,0.3,0.65s-0.35,3.2-0.6,4.101c-0.301,1.1-0.75,1.1-2.451,1.1c-3.299,0-5.85-0.1-7.65-0.15c-1.85-0.1-3-0.1-3.649-0.1
		c-0.101,0-0.95,0-1.9,0.05c-0.851,0.05-1.851,0.101-2.55,0.101c-0.45,0-0.7-0.101-0.7-0.351c0-0.149,0.101-0.35,0.351-0.35
		c0.399,0,0.949-0.15,1.35-0.2c0.85-0.15,0.949-1,1.15-2.25c0.25-1.75,0.25-5.101,0.25-9.201V209.521z"/>
	<path fill="#004B8D" d="M409.014,209.521c0-6.601,0-7.801-0.1-9.15c-0.1-1.45-0.35-2.15-1.8-2.351c-0.351-0.05-1.101-0.1-1.501-0.1
		c-0.149,0-0.35-0.2-0.35-0.351c0-0.25,0.2-0.35,0.7-0.35c2,0,4.95,0.1,5.2,0.1c0.45,0,4.15-0.1,5.5-0.1
		c2.801,0,5.9,0.25,8.201,1.85c1.1,0.801,3.051,2.851,3.051,5.801c0,3.15-1.301,6.201-5.4,9.701c3.6,4.5,6.65,8.35,9.199,11
		c2.351,2.4,3.801,2.801,4.9,2.95c0.851,0.15,1.301,0.15,1.551,0.15s0.4,0.2,0.4,0.35c0,0.25-0.25,0.351-1.051,0.351h-2.75
		c-2.5,0-3.6-0.25-4.7-0.851c-1.899-1-3.5-3.05-6.001-6.25c-1.85-2.3-3.8-5.051-4.75-6.2c-0.199-0.2-0.3-0.25-0.6-0.25l-5.601-0.101
		c-0.2,0-0.3,0.101-0.3,0.351v1c0,4.1,0,7.4,0.199,9.15c0.15,1.25,0.4,2.05,1.751,2.25c0.601,0.1,1.55,0.2,1.95,0.2
		c0.3,0,0.35,0.2,0.35,0.35c0,0.2-0.199,0.351-0.699,0.351c-2.4,0-5.201-0.15-5.4-0.15c-0.051,0-3.001,0.15-4.352,0.15
		c-0.449,0-0.699-0.101-0.699-0.351c0-0.149,0.1-0.35,0.35-0.35c0.4,0,0.95-0.101,1.351-0.2c0.85-0.2,0.95-1,1.149-2.25
		c0.25-1.75,0.25-5.101,0.25-9.201V209.521z M412.814,213.121c0,0.25,0.1,0.4,0.3,0.551c0.65,0.35,2.9,0.65,4.851,0.65
		c1.05,0,2.25-0.051,3.3-0.75c1.501-1,2.65-3.251,2.65-6.501c0-5.3-2.9-8.351-7.601-8.351c-1.3,0-2.7,0.15-3.15,0.25
		c-0.199,0.1-0.35,0.25-0.35,0.5V213.121z"/>
	<path fill="#004B8D" d="M463.465,228.772c-0.6-0.3-0.65-0.45-0.65-1.601c0-2.1,0.2-3.8,0.25-4.5c0-0.449,0.1-0.699,0.351-0.699
		c0.25,0,0.399,0.149,0.399,0.5c0,0.35,0,0.949,0.15,1.55c0.7,3.101,4,4.2,6.95,4.2c4.351,0,6.601-2.45,6.601-5.65
		c0-3.051-1.65-4.5-5.551-7.4l-2-1.5c-4.75-3.551-6.3-6.15-6.3-9.101c0-5.001,3.95-8.001,9.751-8.001c1.75,0,3.5,0.25,4.55,0.5
		c0.851,0.2,1.2,0.2,1.55,0.2s0.45,0.05,0.45,0.3c0,0.2-0.2,1.601-0.2,4.5c0,0.65-0.05,0.951-0.35,0.951
		c-0.301,0-0.35-0.2-0.4-0.551c-0.05-0.5-0.4-1.65-0.65-2.1c-0.299-0.5-1.75-2.1-5.699-2.1c-3.201,0-5.852,1.6-5.852,4.6
		c0,2.7,1.351,4.25,5.701,7.2l1.25,0.851c5.35,3.65,7.2,6.6,7.2,10.25c0,2.5-0.95,5.201-4.101,7.251c-1.85,1.2-4.6,1.5-7,1.5
		C467.814,229.923,465.266,229.623,463.465,228.772z"/>
	<path fill="#004B8D" d="M521.365,217.021c0,4.101,0,7.451,0.199,9.201c0.15,1.25,0.301,2.05,1.601,2.25c0.649,0.1,1.601,0.2,2,0.2
		c0.25,0,0.351,0.2,0.351,0.35c0,0.2-0.2,0.351-0.7,0.351c-2.45,0-5.301-0.15-5.501-0.15c-0.25,0-3,0.15-4.35,0.15
		c-0.45,0-0.7-0.101-0.7-0.351c0-0.149,0.101-0.35,0.351-0.35c0.399,0,0.949-0.101,1.35-0.2c0.85-0.2,1-1,1.15-2.25
		c0.199-1.75,0.25-5.101,0.25-9.201v-7.5c0-6.601,0-7.801-0.101-9.15c-0.101-1.45-0.45-2.1-1.399-2.301
		c-0.5-0.1-1.051-0.149-1.351-0.149c-0.2,0-0.351-0.2-0.351-0.351c0-0.25,0.201-0.35,0.701-0.35c1.449,0,4.199,0.1,4.449,0.1
		c0.2,0,3.051-0.1,4.4-0.1c0.5,0,0.7,0.1,0.7,0.35c0,0.15-0.2,0.351-0.351,0.351c-0.299,0-0.6,0-1.1,0.1
		c-1.199,0.251-1.449,0.851-1.55,2.351c-0.05,1.35-0.05,2.55-0.05,9.15V217.021z"/>
	<path fill="#004B8D" d="M571.415,217.021c0,4.101,0,7.451,0.2,9.201c0.15,1.25,0.35,2.05,1.699,2.25c0.601,0.1,1.601,0.2,2.001,0.2
		c0.3,0,0.35,0.2,0.35,0.35c0,0.2-0.2,0.351-0.7,0.351c-2.4,0-5.199-0.15-5.449-0.15c-0.201,0-3.251,0.15-4.551,0.15
		c-0.5,0-0.7-0.101-0.7-0.351c0-0.149,0.101-0.3,0.351-0.3c0.399,0,0.899-0.1,1.299-0.2c0.9-0.2,1.15-1.05,1.301-2.3
		c0.199-1.75,0.199-5.101,0.199-9.201v-17.851l-6.35,0.101c-2.75,0.049-3.801,0.35-4.45,1.35c-0.5,0.75-0.55,1.05-0.7,1.35
		c-0.1,0.35-0.25,0.4-0.45,0.4c-0.1,0-0.3-0.1-0.3-0.35c0-0.451,0.9-4.251,0.95-4.601c0.1-0.25,0.3-0.8,0.45-0.8
		c0.3,0,0.75,0.35,1.949,0.5c1.25,0.149,2.951,0.199,3.451,0.199h16.601c1.45,0,2.45-0.1,3.15-0.199c0.649-0.101,1.05-0.2,1.25-0.2
		s0.2,0.25,0.2,0.5c0,1.3-0.15,4.351-0.15,4.851c0,0.35-0.199,0.55-0.4,0.55c-0.199,0-0.299-0.15-0.35-0.751l-0.05-0.449
		c-0.15-1.301-1.101-2.25-5.3-2.35l-5.501-0.101V217.021z"/>
	<path fill="#004B8D" d="M623.313,218.322c0-2.301-0.3-3.15-0.95-4.351c-0.35-0.649-6.301-10.101-7.801-12.351
		c-1.05-1.6-2.1-2.551-2.9-3.1c-0.649-0.4-1.5-0.601-1.85-0.601c-0.25,0-0.45-0.2-0.45-0.4s0.15-0.3,0.55-0.3
		c0.851,0,4.15,0.1,4.351,0.1c0.3,0,2.101-0.1,3.8-0.1c0.5,0,0.601,0.1,0.601,0.3c0,0.15-0.3,0.3-0.7,0.45
		c-0.35,0.15-0.55,0.35-0.55,0.7c0,0.601,0.3,1.101,0.6,1.649l8.001,13.252c0.899-1.801,6.4-10.901,7.2-12.301
		c0.55-0.951,0.75-1.65,0.75-2.201c0-0.6-0.2-0.949-0.7-1.1c-0.399-0.1-0.649-0.3-0.649-0.5c0-0.15,0.25-0.25,0.699-0.25
		c1.15,0,2.7,0.1,3.051,0.1c0.3,0,3.45-0.1,4.3-0.1c0.301,0,0.551,0.1,0.551,0.25c0,0.2-0.2,0.45-0.551,0.45
		c-0.5,0-1.35,0.149-2.05,0.55c-0.851,0.5-1.25,0.95-2.2,2.1c-1.45,1.701-7.65,11.701-8.551,13.502c-0.75,1.5-0.55,2.85-0.55,4.25
		v3.65c0,0.699,0,2.5,0.15,4.25c0.1,1.25,0.399,2.05,1.7,2.25c0.6,0.1,1.6,0.2,2,0.2c0.25,0,0.35,0.2,0.35,0.35
		c0,0.2-0.25,0.351-0.7,0.351c-2.45,0-5.3-0.15-5.55-0.15c-0.2,0-3,0.15-4.301,0.15c-0.5,0-0.7-0.101-0.7-0.351
		c0-0.149,0.101-0.35,0.351-0.35c0.399,0,0.899-0.101,1.3-0.2c0.9-0.2,1.2-1,1.3-2.25c0.101-1.75,0.101-3.551,0.101-4.25V218.322z"
		/>
</g>
<line fill="none" stroke="#004B8D" stroke-width="2" x1="0" y1="178.775" x2="760.393" y2="178.775"/>
</svg>
