<?xml version="1.0" encoding="utf-8"?>
<!-- Generator: Adobe Illustrator 16.0.0, SVG Export Plug-In . SVG Version: 6.00 Build 0)  -->
<!DOCTYPE svg PUBLIC "-//W3C//DTD SVG 1.1//EN" "http://www.w3.org/Graphics/SVG/1.1/DTD/svg11.dtd">
<svg version="1.1" xmlns="http://www.w3.org/2000/svg" xmlns:xlink="http://www.w3.org/1999/xlink" x="0px" y="0px"
	 width="1419.172px" height="418.659px" viewBox="0 0 1419.172 418.659" enable-background="new 0 0 1419.172 418.659"
	 xml:space="preserve">
<g id="Layer_1">
</g>
<g id="Layer_2">
	<g>
		<g>
			<polygon fill="#524345" points="379.664,141.838 340.217,210.157 261.334,210.156 221.887,141.836 261.334,73.523 
				340.217,73.523 			"/>
		</g>
		<path fill="#818285" d="M430.902,195.859v8.312H406.71v-8.312h6.296l-2.335-8.453h-12.77l-2.617,8.453h6.578v8.312h-21.789v-8.312
			h6.086l9.585-32.577h-6.543v-8.311h32.116v8.311h-6.616l10.331,32.577H430.902z M408.655,180.19l-4.104-14.821l-4.423,14.821
			H408.655z"/>
		<path fill="#818285" d="M434.091,204.171v-8.312h7.463v-32.577h-7.463v-8.311h23.309c4.905,0,8.854,0.301,11.85,0.902
			c2.994,0.6,5.86,1.934,8.595,3.995c2.734,2.063,4.929,4.829,6.581,8.296c1.647,3.465,2.475,7.311,2.475,11.529
			c0,3.42-0.577,6.68-1.732,9.78c-1.155,3.102-2.589,5.603-4.297,7.498c-1.71,1.899-3.756,3.409-6.138,4.528
			c-2.383,1.12-4.57,1.846-6.563,2.176c-1.992,0.331-5.075,0.495-9.247,0.495H434.091z M454.322,195.859h3.077
			c3.727,0,6.68-0.484,8.861-1.449c2.182-0.968,3.932-2.672,5.253-5.112c1.32-2.439,1.981-5.629,1.981-9.568
			c0-3.748-0.668-6.932-1.999-9.549c-1.334-2.619-3.136-4.422-5.412-5.412c-2.275-0.99-5.171-1.486-8.685-1.486h-3.077V195.859z"/>
		<path fill="#818285" d="M504.574,204.489l-14.644-41.207h-5.873v-8.311h25.114v8.311h-6.366l8.274,24.656l8.296-24.656h-6.278
			v-8.311h21.789v8.311h-5.979l-14.111,41.207H504.574z"/>
		<path fill="#818285" d="M580.648,195.859v8.312h-24.192v-8.312h6.296l-2.334-8.453h-12.771l-2.617,8.453h6.58v8.312h-21.788
			v-8.312h6.083l9.584-32.577h-6.542v-8.311h32.118v8.311h-6.618l10.33,32.577H580.648z M558.401,180.19l-4.104-14.821
			l-4.422,14.821H558.401z"/>
		<path fill="#818285" d="M584.071,204.171v-8.312h6.578v-32.577h-6.578v-8.311h20.664l18.103,30.68v-22.369h-6.402v-8.311h22.072
			v8.311h-6.897v41.242h-10.966l-21.222-36.467v27.802h6.189v8.312H584.071z"/>
		<path fill="#818285" d="M679.243,154.971h8.313v17.331h-8.313c-2.36-6.226-6.451-9.339-12.273-9.339
			c-4.812,0-8.448,1.64-10.913,4.918c-2.465,3.275-3.696,7.203-3.696,11.777c0,4.787,1.303,8.66,3.91,11.62
			c2.605,2.958,5.924,4.438,9.955,4.438c3.303,0,6.189-1.119,8.664-3.359c2.479-2.24,4.153-5.354,5.025-9.339l9.691,4.615
			c-3.679,11.426-11.781,17.139-24.301,17.139c-8.843,0-15.51-2.382-20.003-7.146c-4.494-4.764-6.737-10.788-6.737-18.074
			c0-5.188,1.167-9.727,3.501-13.617c2.337-3.891,5.478-6.82,9.428-8.79c3.95-1.969,8.283-2.954,12.997-2.954
			c5.873,0,10.79,1.533,14.752,4.599V154.971z"/>
		<path fill="#818285" d="M691.833,204.171v-8.312h5.908v-32.577h-5.908v-8.311h43.366v15.597h-9.408v-7.286h-15.245v11.355h12.31
			v8.311h-12.31v12.911h15.245v-7.356h9.408v15.669H691.833z"/>
		<path fill="#818285" d="M737.933,204.171v-8.312h7.462v-32.577h-7.462v-8.311h23.309c4.904,0,8.854,0.301,11.849,0.902
			c2.995,0.6,5.86,1.934,8.595,3.995c2.735,2.063,4.927,4.829,6.579,8.296c1.65,3.465,2.477,7.311,2.477,11.529
			c0,3.42-0.578,6.68-1.733,9.78c-1.158,3.102-2.588,5.603-4.298,7.498c-1.709,1.899-3.754,3.409-6.138,4.528
			c-2.383,1.12-4.57,1.846-6.56,2.176c-1.992,0.331-5.076,0.495-9.251,0.495H737.933z M758.162,195.859h3.079
			c3.725,0,6.676-0.484,8.859-1.449c2.18-0.968,3.933-2.672,5.252-5.112c1.321-2.439,1.981-5.629,1.981-9.568
			c0-3.748-0.665-6.932-1.999-9.549c-1.334-2.619-3.136-4.422-5.412-5.412c-2.275-0.99-5.17-1.486-8.682-1.486h-3.079V195.859z"/>
		<path fill="#818285" d="M807.069,204.171v-16.766h8.348c0.094,3.065,0.896,5.322,2.403,6.773c1.513,1.449,3.23,2.175,5.165,2.175
			c1.509,0,2.783-0.523,3.821-1.574c1.037-1.049,1.557-2.28,1.557-3.697c0-1.508-0.509-2.775-1.523-3.801
			c-1.014-1.025-2.866-2.194-5.559-3.504c-5.69-2.74-9.554-5.161-11.588-7.264c-2.033-2.103-3.05-4.938-3.05-8.505
			c0-4.298,1.347-7.63,4.033-9.991c2.688-2.361,5.74-3.543,9.16-3.543c3.915,0,6.944,1.527,9.093,4.58v-4.084h8.31v14.961h-8.31
			c-0.263-2.311-1.058-4.096-2.392-5.358c-1.33-1.261-2.879-1.892-4.649-1.892c-1.369,0-2.524,0.365-3.467,1.096
			s-1.416,1.687-1.416,2.865c0,1.014,0.392,1.975,1.172,2.883c0.775,0.907,3.055,2.193,6.829,3.859
			c3.638,1.619,6.424,3.084,8.369,4.395c1.94,1.309,3.479,3.007,4.609,5.098c1.13,2.088,1.694,4.5,1.694,7.238
			c0,4.863-1.415,8.521-4.243,10.975c-2.829,2.455-6.179,3.683-10.045,3.683c-4.314,0-7.642-1.599-9.975-4.794v4.192H807.069z"/>
		<path fill="#818285" d="M849.28,204.171v-8.312h7.393v-32.577h-7.393v11.46h-8.452v-19.771h44.604v19.771h-8.349v-11.46h-7.604
			v32.577h7.393v8.312H849.28z"/>
		<path fill="#818285" d="M938.75,195.859v8.312h-14.988l-11.108-21.542h-5.633v13.229h6.155v8.312h-25.714v-8.312h6.757v-32.577
			h-6.757v-8.311h29.675c5.59,0,9.616,1.409,12.078,4.227c2.467,2.818,3.7,6.007,3.7,9.568c0,5.588-2.842,9.667-8.526,12.236
			l7.994,14.856H938.75z M907.021,174.776h4.385c5.425,0,8.138-1.932,8.138-5.799c0-1.91-0.618-3.336-1.855-4.279
			c-1.239-0.943-2.943-1.416-5.11-1.416h-5.557V174.776z"/>
		<path fill="#818285" d="M936.895,163.282v-8.311h23.487v8.311h-4.846v22.25c0,2.971,0.122,5.109,0.371,6.42
			c0.246,1.309,0.899,2.386,1.963,3.234c1.058,0.85,2.404,1.274,4.031,1.274c1.675,0,3.066-0.401,4.175-1.204
			c1.107-0.801,1.821-1.803,2.141-3.006c0.316-1.202,0.475-3.654,0.475-7.357v-21.611h-4.774v-8.311h19.596v8.311h-6.014v24.619
			c0,3.349-0.178,5.781-0.53,7.303c-0.354,1.521-1.167,3.031-2.441,4.528c-1.272,1.498-3.118,2.712-5.533,3.644
			c-2.419,0.93-5.195,1.397-8.33,1.397c-3.632,0-6.729-0.514-9.287-1.539c-2.559-1.026-4.461-2.388-5.712-4.085
			c-1.249-1.699-2.052-3.385-2.404-5.059s-0.531-4.527-0.531-8.559v-22.25H936.895z"/>
		<path fill="#818285" d="M1025.426,154.971h8.313v17.331h-8.313c-2.358-6.226-6.451-9.339-12.274-9.339
			c-4.812,0-8.447,1.64-10.913,4.918c-2.464,3.275-3.694,7.203-3.694,11.777c0,4.787,1.303,8.66,3.909,11.62
			c2.604,2.958,5.925,4.438,9.956,4.438c3.301,0,6.188-1.119,8.663-3.359c2.48-2.24,4.153-5.354,5.024-9.339l9.692,4.615
			c-3.679,11.426-11.779,17.139-24.302,17.139c-8.84,0-15.509-2.382-20.002-7.146c-4.49-4.764-6.738-10.788-6.738-18.074
			c0-5.188,1.168-9.727,3.502-13.617c2.338-3.891,5.48-6.82,9.428-8.79c3.949-1.969,8.283-2.954,12.996-2.954
			c5.873,0,10.791,1.533,14.753,4.599V154.971z"/>
		<path fill="#818285" d="M1045.365,204.171v-8.312h7.394v-32.577h-7.394v11.46h-8.451v-19.771h44.601v19.771h-8.347v-11.46h-7.603
			v32.577h7.391v8.312H1045.365z"/>
		<path fill="#818285" d="M1083.339,163.282v-8.311h23.486v8.311h-4.846v22.25c0,2.971,0.123,5.109,0.371,6.42
			c0.247,1.309,0.9,2.386,1.963,3.234c1.059,0.85,2.404,1.274,4.031,1.274c1.676,0,3.065-0.401,4.173-1.204
			c1.108-0.801,1.823-1.803,2.142-3.006c0.317-1.202,0.476-3.654,0.476-7.357v-21.611h-4.773v-8.311h19.596v8.311h-6.014v24.619
			c0,3.349-0.179,5.781-0.532,7.303c-0.352,1.521-1.166,3.031-2.441,4.528c-1.271,1.498-3.116,2.712-5.535,3.644
			c-2.415,0.93-5.192,1.397-8.326,1.397c-3.634,0-6.729-0.514-9.287-1.539c-2.559-1.026-4.465-2.388-5.713-4.085
			c-1.249-1.699-2.051-3.385-2.404-5.059c-0.354-1.674-0.532-4.527-0.532-8.559v-22.25H1083.339z"/>
		<path fill="#818285" d="M1183.515,195.859v8.312h-14.988l-11.107-21.542h-5.634v13.229h6.155v8.312h-25.714v-8.312h6.757v-32.577
			h-6.757v-8.311h29.677c5.588,0,9.614,1.409,12.079,4.227c2.464,2.818,3.697,6.007,3.697,9.568c0,5.588-2.841,9.667-8.526,12.236
			l7.994,14.856H1183.515z M1151.785,174.776h4.386c5.424,0,8.137-1.932,8.137-5.799c0-1.91-0.618-3.336-1.854-4.279
			c-1.237-0.943-2.943-1.416-5.111-1.416h-5.557V174.776z"/>
		<path fill="#818285" d="M1186.189,204.171v-8.312h5.908v-32.577h-5.908v-8.311h43.364v15.597h-9.406v-7.286H1204.9v11.355h12.31
			v8.311h-12.31v12.911h15.247v-7.356h9.406v15.669H1186.189z"/>
		<path fill="#818285" d="M1232.707,204.171v-16.766h8.347c0.098,3.065,0.896,5.322,2.406,6.773c1.51,1.449,3.231,2.175,5.165,2.175
			c1.509,0,2.781-0.523,3.82-1.574c1.038-1.049,1.558-2.28,1.558-3.697c0-1.508-0.511-2.775-1.523-3.801
			c-1.015-1.025-2.865-2.194-5.56-3.504c-5.69-2.74-9.553-5.161-11.586-7.264c-2.034-2.103-3.05-4.938-3.05-8.505
			c0-4.298,1.346-7.63,4.031-9.991c2.688-2.361,5.741-3.543,9.162-3.543c3.911,0,6.943,1.527,9.091,4.58v-4.084h8.309v14.961h-8.309
			c-0.263-2.311-1.056-4.096-2.39-5.358c-1.33-1.261-2.881-1.892-4.65-1.892c-1.369,0-2.524,0.365-3.467,1.096
			s-1.416,1.687-1.416,2.865c0,1.014,0.391,1.975,1.169,2.883c0.779,0.907,3.057,2.193,6.832,3.859
			c3.635,1.619,6.425,3.084,8.366,4.395c1.942,1.309,3.481,3.007,4.61,5.098c1.131,2.088,1.697,4.5,1.697,7.238
			c0,4.863-1.416,8.521-4.245,10.975c-2.829,2.455-6.18,3.683-10.045,3.683c-4.316,0-7.643-1.599-9.977-4.794v4.192H1232.707z"/>
		<path fill="#818285" d="M1332.195,196.284v7.888h-14.571l-4.457-5.446c-4.692,4.196-9.986,6.295-15.881,6.295
			c-5.354,0-9.615-1.497-12.788-4.493c-3.17-2.994-4.757-6.53-4.757-10.61c0-3.135,1.011-5.965,3.025-8.488
			c2.018-2.523,5.533-4.988,10.558-7.393c-2.569-2.971-3.853-5.955-3.853-8.949c0-3.489,1.301-6.178,3.904-8.064
			c2.605-1.887,5.771-2.83,9.502-2.83c3.771,0,6.905,0.943,9.405,2.83s3.749,4.291,3.749,7.215c0,4.552-2.853,8.277-8.557,11.178
			l7.001,8.878c2.641-3.583,4.667-6.991,6.083-10.222h11.636v7.887h-6.014c-1.789,3.727-3.769,6.814-5.941,9.267l4.033,5.06
			H1332.195z M1298.311,180.084c-4.881,2.026-7.32,4.773-7.32,8.24c0,1.957,0.772,3.685,2.316,5.182
			c1.544,1.498,3.531,2.247,5.962,2.247c2.829,0,5.636-1.286,8.417-3.856L1298.311,180.084z M1302.556,169.225
			c3.16-1.415,4.741-3.055,4.741-4.917c0-0.966-0.394-1.804-1.187-2.512c-0.789-0.707-1.739-1.061-2.847-1.061
			c-1.06,0-1.986,0.301-2.777,0.901c-0.79,0.602-1.184,1.34-1.184,2.212C1299.303,164.746,1300.384,166.536,1302.556,169.225z"/>
		<g>
			<path fill="#524345" d="M317.411,258.736h-23.81v-9.562c0-3.334-0.271-5.595-0.813-6.78c-0.542-1.189-1.544-1.781-2.999-1.781
				c-1.459,0-2.439,0.52-2.938,1.562c-0.501,1.042-0.752,3.373-0.752,6.999v39.126c0,2.957,0.376,5.174,1.127,6.654
				c0.75,1.479,1.854,2.218,3.312,2.218c1.707,0,2.863-0.771,3.469-2.312c0.602-1.541,0.906-4.458,0.906-8.751v-9.875h22.497
				c-0.041,6.627-0.28,11.594-0.719,14.905c-0.437,3.314-1.832,6.712-4.186,10.188c-2.354,3.479-5.429,6.106-9.22,7.878
				c-3.789,1.769-8.478,2.653-14.062,2.653c-7.124,0-12.771-1.218-16.938-3.655c-4.165-2.439-7.114-5.854-8.843-10.25
				c-1.729-4.396-2.594-10.636-2.594-18.718v-23.562c0-7.043,0.708-12.354,2.125-15.938c1.416-3.581,4.438-6.782,9.063-9.595
				c4.624-2.811,10.25-4.217,16.874-4.217c6.582,0,12.208,1.396,16.874,4.187c4.666,2.792,7.769,6.312,9.312,10.562
				C316.641,244.922,317.411,250.944,317.411,258.736z"/>
			<path fill="#524345" d="M387.221,256.548v20.312c0,7.459-0.375,12.93-1.124,16.406c-0.752,3.48-2.358,6.729-4.812,9.75
				c-2.462,3.021-5.618,5.25-9.472,6.688c-3.854,1.436-8.279,2.155-13.282,2.155c-5.582,0-10.31-0.614-14.187-1.843
				c-3.873-1.229-6.885-3.084-9.029-5.562c-2.149-2.479-3.678-5.479-4.595-8.999c-0.917-3.522-1.376-8.802-1.376-15.845v-21.249
				c0-7.708,0.835-13.727,2.503-18.062c1.664-4.335,4.664-7.812,8.999-10.438c4.333-2.625,9.875-3.937,16.626-3.937
				c5.662,0,10.53,0.842,14.591,2.531c4.064,1.686,7.195,3.885,9.405,6.592c2.21,2.709,3.72,5.5,4.532,8.375
				C386.815,246.298,387.221,250.672,387.221,256.548z M361.972,250.299c0-4.25-0.229-6.927-0.689-8.033
				c-0.457-1.102-1.436-1.654-2.935-1.654c-1.501,0-2.503,0.553-3.001,1.654c-0.501,1.106-0.752,3.783-0.752,8.033v37.436
				c0,3.916,0.251,6.469,0.752,7.656c0.498,1.189,1.479,1.78,2.937,1.78c1.499,0,2.489-0.54,2.97-1.624
				c0.479-1.083,0.719-3.416,0.719-7V250.299z"/>
			<path fill="#524345" d="M425.397,227.424l-0.438,7.891c1.957-3.131,4.291-5.479,7.002-7.043c2.706-1.565,5.789-2.348,9.249-2.348
				c6.749,0,12.062,3.131,15.935,9.391c2.125-3.131,4.521-5.479,7.188-7.043c2.666-1.565,5.626-2.348,8.874-2.348
				c4.293,0,7.844,1.041,10.657,3.124c2.812,2.083,4.613,4.636,5.405,7.657c0.793,3.02,1.188,7.929,1.188,14.718v58.935H465.96
				v-54.059c0-7.084-0.24-11.469-0.721-13.157c-0.479-1.688-1.593-2.53-3.342-2.53c-1.792,0-2.947,0.834-3.47,2.5
				c-0.521,1.666-0.781,6.062-0.781,13.188v54.059h-24.498v-52.686c0-8.124-0.2-13-0.596-14.625
				c-0.395-1.624-1.489-2.436-3.28-2.436c-1.124,0-2.083,0.428-2.877,1.279c-0.789,0.854-1.228,1.896-1.312,3.125
				c-0.083,1.23-0.124,3.844-0.124,7.845v57.497h-24.501v-82.934H425.397z"/>
			<path fill="#524345" d="M530.095,227.424l-0.438,7.326c2.25-2.963,4.729-5.175,7.438-6.637c2.709-1.46,5.666-2.189,8.874-2.189
				c3.916,0,7.303,1.051,10.155,3.154c2.854,2.105,4.637,4.531,5.346,7.283c0.708,2.75,1.062,7.416,1.062,13.999v34.937
				c0,7.541-0.448,12.906-1.344,16.095c-0.896,3.188-2.729,5.729-5.499,7.623c-2.771,1.897-6.116,2.844-10.032,2.844
				c-3.125,0-6.021-0.729-8.687-2.19c-2.668-1.461-5.104-3.631-7.312-6.51v19.012h-25.252v-94.746H530.095z M537.28,251.547
				c0-5.125-0.186-8.227-0.561-9.312c-0.375-1.083-1.419-1.624-3.126-1.624c-1.667,0-2.742,0.625-3.218,1.875
				c-0.48,1.248-0.719,4.271-0.719,9.061v34.375c0,5.002,0.25,8.125,0.75,9.374c0.499,1.253,1.582,1.875,3.25,1.875
				c1.625,0,2.633-0.573,3.032-1.717c0.394-1.147,0.591-3.929,0.591-8.345V251.547z"/>
			<path fill="#524345" d="M633.177,256.548v20.312c0,7.459-0.374,12.93-1.123,16.406c-0.753,3.48-2.356,6.729-4.813,9.75
				c-2.459,3.021-5.615,5.25-9.47,6.688c-3.854,1.436-8.28,2.155-13.28,2.155c-5.583,0-10.312-0.614-14.187-1.843
				c-3.877-1.229-6.886-3.084-9.031-5.562c-2.147-2.479-3.677-5.479-4.596-8.999c-0.917-3.522-1.374-8.802-1.374-15.845v-21.249
				c0-7.708,0.835-13.727,2.5-18.062c1.667-4.335,4.666-7.812,8.999-10.438c4.334-2.625,9.875-3.937,16.627-3.937
				c5.664,0,10.531,0.842,14.593,2.531c4.062,1.686,7.196,3.885,9.405,6.592c2.209,2.709,3.719,5.5,4.533,8.375
				C632.771,246.298,633.177,250.672,633.177,256.548z M607.929,250.299c0-4.25-0.229-6.927-0.689-8.033
				c-0.458-1.102-1.438-1.654-2.937-1.654c-1.5,0-2.5,0.553-2.999,1.654c-0.502,1.106-0.75,3.783-0.75,8.033v37.436
				c0,3.916,0.248,6.469,0.75,7.656c0.499,1.189,1.479,1.78,2.937,1.78c1.5,0,2.489-0.54,2.968-1.624
				c0.479-1.083,0.721-3.416,0.721-7V250.299z"/>
			<path fill="#524345" d="M698.388,253.923h-22.373v-4.499c0-3.834-0.218-6.26-0.657-7.283c-0.435-1.02-1.53-1.529-3.28-1.529
				c-1.418,0-2.479,0.467-3.188,1.406c-0.708,0.936-1.062,2.344-1.062,4.219c0,2.539,0.179,4.404,0.531,5.594
				c0.354,1.187,1.417,2.488,3.188,3.903c1.77,1.418,5.405,3.481,10.906,6.189c7.334,3.583,12.146,6.96,14.438,10.124
				c2.291,3.168,3.437,7.771,3.437,13.813c0,6.749-0.876,11.842-2.622,15.278c-1.752,3.441-4.682,6.086-8.785,7.939
				c-4.103,1.852-9.051,2.78-14.844,2.78c-6.413,0-11.905-0.999-16.465-2.998c-4.564-2.003-7.7-4.708-9.409-8.126
				c-1.71-3.419-2.56-8.582-2.56-15.5v-4h22.373v5.249c0,4.46,0.283,7.357,0.844,8.688c0.562,1.333,1.676,1.999,3.345,1.999
				c1.79,0,3.04-0.445,3.749-1.344c0.707-0.894,1.062-2.78,1.062-5.654c0-3.958-0.461-6.438-1.375-7.438
				c-0.959-0.998-5.853-3.957-14.689-8.875c-7.417-4.164-11.935-7.948-13.562-11.344c-1.624-3.396-2.435-7.426-2.435-12.094
				c0-6.624,0.874-11.51,2.623-14.655c1.75-3.146,4.719-5.571,8.903-7.28c4.191-1.71,9.056-2.562,14.596-2.562
				c5.499,0,10.178,0.697,14.031,2.092c3.854,1.396,6.812,3.242,8.876,5.531c2.06,2.292,3.312,4.418,3.751,6.377
				c0.434,1.959,0.653,5.02,0.653,9.188V253.923z"/>
			<path fill="#524345" d="M738.246,225.491v13.188h-25.999v-13.188H738.246z M738.246,243.742v66.616h-25.999v-66.616H738.246z"/>
			<path fill="#524345" d="M780.104,226.016v13.062h6.812v13.123h-6.812v34.722c0,5.458,0.279,8.497,0.84,9.123
				c0.563,0.626,2.909,0.938,7.034,0.938v13.373h-10.188c-5.753,0-9.854-0.238-12.311-0.717c-2.461-0.479-4.627-1.582-6.504-3.314
				c-1.872-1.725-3.039-3.706-3.501-5.936c-0.457-2.229-0.684-7.469-0.684-15.718v-32.472h-5.439v-13.123h5.439v-13.062H780.104z"/>
			<path fill="#524345" d="M855.581,270.36h-32.688v17.939c0,3.749,0.271,6.165,0.812,7.248c0.54,1.084,1.584,1.624,3.126,1.624
				c1.917,0,3.196-0.718,3.842-2.155c0.646-1.438,0.971-4.217,0.971-8.344v-10.938h23.938v6.125c0,5.125-0.323,9.064-0.969,11.812
				c-0.647,2.751-2.16,5.687-4.533,8.812c-2.375,3.123-5.387,5.47-9.031,7.029c-3.646,1.564-8.219,2.345-13.716,2.345
				c-5.334,0-10.043-0.772-14.128-2.312c-4.082-1.541-7.26-3.656-9.529-6.343c-2.272-2.688-3.844-5.647-4.72-8.876
				c-0.877-3.229-1.312-7.926-1.312-14.094v-24.186c0-7.251,0.98-12.971,2.939-17.158c1.954-4.187,5.165-7.395,9.619-9.625
				c4.46-2.227,9.588-3.342,15.377-3.342c7.083,0,12.928,1.344,17.531,4.03c4.604,2.687,7.834,6.25,9.687,10.688
				c1.854,4.437,2.784,10.679,2.784,18.72V270.36z M830.269,256.862v-6.064c0-4.289-0.231-7.062-0.688-8.311
				c-0.458-1.25-1.396-1.875-2.812-1.875c-1.749,0-2.832,0.531-3.25,1.594c-0.418,1.061-0.624,3.926-0.624,8.592v6.064H830.269z"/>
			<path fill="#524345" d="M920.663,253.923h-22.372v-4.499c0-3.834-0.22-6.26-0.658-7.283c-0.437-1.02-1.529-1.529-3.28-1.529
				c-1.419,0-2.479,0.467-3.188,1.406c-0.711,0.936-1.062,2.344-1.062,4.219c0,2.539,0.178,4.404,0.53,5.594
				c0.354,1.187,1.416,2.488,3.188,3.903c1.768,1.418,5.405,3.481,10.905,6.189c7.335,3.583,12.147,6.96,14.437,10.124
				c2.292,3.168,3.438,7.771,3.438,13.813c0,6.749-0.874,11.842-2.623,15.278c-1.751,3.441-4.68,6.086-8.782,7.939
				c-4.104,1.852-9.051,2.78-14.844,2.78c-6.416,0-11.905-0.999-16.468-2.998c-4.564-2.003-7.697-4.708-9.406-8.126
				c-1.71-3.419-2.562-8.582-2.562-15.5v-4h22.374v5.249c0,4.46,0.282,7.357,0.845,8.688c0.561,1.333,1.676,1.999,3.345,1.999
				c1.79,0,3.04-0.445,3.749-1.344c0.706-0.894,1.062-2.78,1.062-5.654c0-3.958-0.461-6.438-1.375-7.438
				c-0.959-0.998-5.855-3.957-14.689-8.875c-7.417-4.164-11.935-7.948-13.563-11.344c-1.623-3.396-2.436-7.426-2.436-12.094
				c0-6.624,0.877-11.51,2.623-14.655c1.751-3.146,4.722-5.571,8.906-7.28c4.188-1.71,9.055-2.562,14.596-2.562
				c5.499,0,10.178,0.697,14.031,2.092c3.854,1.396,6.811,3.242,8.875,5.531c2.061,2.292,3.312,4.418,3.749,6.377
				c0.437,1.959,0.655,5.02,0.655,9.188V253.923z"/>
			<path fill="#524345" d="M1019.245,258.736h-23.81v-9.562c0-3.334-0.273-5.595-0.814-6.78c-0.54-1.189-1.54-1.781-2.999-1.781
				c-1.461,0-2.437,0.52-2.936,1.562c-0.502,1.042-0.75,3.373-0.75,6.999v39.126c0,2.957,0.375,5.174,1.122,6.654
				c0.75,1.479,1.853,2.218,3.314,2.218c1.708,0,2.863-0.771,3.468-2.312c0.603-1.541,0.905-4.458,0.905-8.751v-9.875h22.499
				c-0.04,6.627-0.277,11.594-0.717,14.905c-0.438,3.314-1.836,6.712-4.188,10.188c-2.355,3.479-5.43,6.106-9.219,7.878
				c-3.792,1.769-8.479,2.653-14.062,2.653c-7.127,0-12.771-1.218-16.938-3.655c-4.167-2.439-7.114-5.854-8.841-10.25
				c-1.732-4.396-2.596-10.636-2.596-18.718v-23.562c0-7.043,0.709-12.354,2.125-15.938c1.417-3.581,4.439-6.782,9.063-9.595
				c4.625-2.811,10.25-4.217,16.872-4.217c6.585,0,12.21,1.396,16.877,4.187c4.663,2.792,7.77,6.312,9.312,10.562
				C1018.475,244.922,1019.245,250.944,1019.245,258.736z"/>
			<path fill="#524345" d="M1089.116,270.36h-32.684v17.939c0,3.749,0.269,6.165,0.81,7.248c0.539,1.084,1.584,1.624,3.126,1.624
				c1.917,0,3.197-0.718,3.841-2.155c0.646-1.438,0.972-4.217,0.972-8.344v-10.938h23.936v6.125c0,5.125-0.322,9.064-0.966,11.812
				c-0.65,2.751-2.159,5.687-4.533,8.812c-2.375,3.123-5.388,5.47-9.034,7.029c-3.645,1.564-8.216,2.345-13.714,2.345
				c-5.336,0-10.043-0.772-14.128-2.312c-4.081-1.541-7.26-3.656-9.528-6.343c-2.273-2.688-3.845-5.647-4.722-8.876
				c-0.875-3.229-1.312-7.926-1.312-14.094v-24.186c0-7.251,0.981-12.971,2.939-17.158c1.958-4.187,5.165-7.395,9.623-9.625
				c4.458-2.227,9.584-3.342,15.377-3.342c7.081,0,12.926,1.344,17.529,4.03c4.604,2.687,7.835,6.25,9.686,10.688
				c1.856,4.437,2.782,10.679,2.782,18.72V270.36z M1063.804,256.862v-6.064c0-4.289-0.23-7.062-0.687-8.311
				c-0.457-1.25-1.398-1.875-2.814-1.875c-1.748,0-2.83,0.531-3.247,1.594c-0.419,1.061-0.623,3.926-0.623,8.592v6.064H1063.804z"/>
			<path fill="#524345" d="M1127.981,227.424l-0.435,7.639c1.832-3.047,4.071-5.33,6.719-6.854c2.645-1.524,5.695-2.284,9.154-2.284
				c4.334,0,7.874,1.021,10.624,3.062s4.521,4.615,5.312,7.719c0.793,3.104,1.189,8.281,1.189,15.529v58.123h-25.252v-57.436
				c0-5.705-0.187-9.188-0.562-10.436c-0.375-1.25-1.414-1.875-3.123-1.875c-1.792,0-2.917,0.718-3.374,2.155
				c-0.461,1.438-0.688,5.282-0.688,11.531v56.06h-25.252v-82.934H1127.981z"/>
			<path fill="#524345" d="M1202.104,225.754v13.061h6.811v13.124h-6.811v34.984c0,5.458,0.28,8.497,0.842,9.123
				c0.562,0.626,2.908,0.938,7.031,0.938v13.373h-10.185c-5.753,0-9.855-0.238-12.313-0.717c-2.461-0.479-4.624-1.582-6.501-3.314
				c-1.875-1.725-3.041-3.706-3.501-5.936c-0.458-2.229-0.685-7.469-0.685-15.718v-32.734h-5.438v-13.124h5.438v-13.061H1202.104z"
				/>
			<path fill="#524345" d="M1277.576,270.36h-32.687v17.939c0,3.749,0.271,6.165,0.812,7.248c0.539,1.084,1.584,1.624,3.126,1.624
				c1.917,0,3.196-0.718,3.841-2.155c0.646-1.438,0.972-4.217,0.972-8.344v-10.938h23.936v6.125c0,5.125-0.321,9.064-0.968,11.812
				c-0.646,2.751-2.158,5.687-4.531,8.812c-2.373,3.123-5.388,5.47-9.033,7.029c-3.645,1.564-8.219,2.345-13.717,2.345
				c-5.334,0-10.042-0.772-14.126-2.312c-4.082-1.541-7.26-3.656-9.529-6.343c-2.272-2.688-3.847-5.647-4.721-8.876
				c-0.876-3.229-1.312-7.926-1.312-14.094v-24.186c0-7.251,0.979-12.971,2.939-17.158c1.955-4.187,5.166-7.395,9.62-9.625
				c4.46-2.227,9.587-3.342,15.377-3.342c7.085,0,12.928,1.344,17.531,4.03c4.603,2.687,7.836,6.25,9.687,10.688
				c1.854,4.437,2.782,10.679,2.782,18.72V270.36z M1252.265,256.862v-6.064c0-4.289-0.23-7.062-0.688-8.311
				c-0.46-1.25-1.398-1.875-2.812-1.875c-1.749,0-2.835,0.531-3.252,1.594c-0.416,1.061-0.623,3.926-0.623,8.592v6.064H1252.265z"/>
			<path fill="#524345" d="M1316.004,227.424l-1,10.906c3.667-7.811,8.98-11.947,15.938-12.406v29.187
				c-4.624,0-8.021,0.623-10.19,1.874c-2.163,1.25-3.496,2.992-3.998,5.22c-0.502,2.229-0.75,7.364-0.75,15.407v32.746h-25.249
				v-82.934H1316.004z"/>
		</g>
		<polygon fill="#3998D2" points="125.592,171.932 177.668,171.933 191.404,146.6 111.863,146.6 		"/>
		<polygon fill="#77457E" points="241.538,223.311 200.855,152.851 186.691,178.981 212.28,223.311 		"/>
		<polygon fill="#F27026" points="61.145,223.292 90.4,223.292 116.276,178.467 102.113,152.333 		"/>
		<polygon fill="#5BC5C2" points="241.538,235.037 212.28,235.037 186.691,279.344 200.855,305.487 		"/>
		<polygon fill="#F89720" points="177.668,284.9 126.912,284.9 112.074,310.233 191.404,310.233 		"/>
		<polygon fill="#B06C29" points="116.945,281.008 90.392,235.018 61.135,235.037 102.2,306.152 		"/>
	</g>
</g>
</svg>
