<svg xmlns="http://www.w3.org/2000/svg" height="248.59" viewBox="0 0 250 248.59268" width="250"><g transform="matrix(1.25 0 0 -1.25 -1023.1 245.32)"><g><path d="m45.326 1.1035v8.4277l2.328 0.3047c9.776 1.2751 9.887 11.422 9.887 11.855v97.739c0 9.18-6.978 11.32-9.979 11.82l-2.236 0.37v8.4h45.248v-8.43l-2.328-0.3c-9.769-1.28-9.883-11.43-9.883-11.86l0.01-71.758 28.977 61.108h-20.647v8.32l2.328 0.3c9.362 1.21 9.469 10.94 9.469 11.36v67.62c0.034 14.05 5.63 27.17 15.77 36.93 9.63 9.28 22.3 14.39 35.67 14.39s26.04-5.11 35.68-14.38c9.81-9.44 15.37-22.03 15.75-35.58 0.02-0.27 0.02-0.51 0.02-0.68v-68.3c0-8.79 6.69-10.85 9.56-11.32l2.24-0.37v-8.29h-43.89v8.32l2.33 0.3c9.36 1.21 9.47 10.94 9.47 11.36l-0.01 70.14c-1.35 16.05-15.01 28.62-31.15 28.62-16.18 0-29.85-12.6-31.15-28.71v-70.05c0-8.79 6.69-10.85 9.56-11.32l2.24-0.37v-8.29h-16.53l28.99-61.102v71.752c0 9.18-6.97 11.32-9.97 11.82l-2.24 0.37v8.4h45.25v-8.43l-2.33-0.3c-9.77-1.28-9.89-11.43-9.89-11.86v-97.739c0-9.174 6.98-11.318 9.98-11.81l2.24-0.3712v-8.4063h-32.94l-32.44 64.866-32.433-64.866-32.951-0.0005z" transform="matrix(.8 0 0 -.8 818.49 196.26)" fill="#fed103"/><path d="m48.002 3.7773v3.4063c9.584 1.2522 12.215 9.8134 12.215 14.507v3.188 94.551c0 9.92-7.017 13.6-12.215 14.45v3.47h39.902v-3.41c-9.588-1.25-12.216-9.81-12.216-14.51l0.013-83.631 35.009 73.811 35.02-73.805v83.625c0 9.92-7.01 13.6-12.21 14.45v3.47h39.9v-3.41c-9.59-1.25-12.22-9.81-12.22-14.51v-97.739c0-9.919 7.02-13.593 12.22-14.451v-3.4627h-28.62l-34.09 68.168-34.089-68.168-28.619 0.0003zm41.371 107.67v3.3c9.266 1.2 11.807 9.47 11.807 14.01v67.61c0.03 13.75 5.75 26.17 14.94 35.01 8.77 8.45 20.69 13.65 33.82 13.65 13.14 0 25.05-5.2 33.82-13.63 9.22-8.88 14.95-21.34 14.95-35.15 0 13.81 0.01-67.49 0.01-67.49 0-9.58 6.77-13.13 11.79-13.96v-3.35h-38.54v3.3c9.26 1.2 11.8 9.47 11.8 14.01l-0.01 70.25c-1.4 17.45-16 31.18-33.82 31.18-17.85 0-32.46-13.78-33.82-31.28v-5.32-64.83c0-9.58 6.77-13.13 11.8-13.96v-3.35h-38.547z" transform="matrix(.8 0 0 -.8 818.49 196.26)" fill="#5d0022"/><path d="m922.57 30.427c-27.409 0-53.209 6.1547-72.648 17.33-19.807 11.388-30.714 26.655-30.714 42.99s10.907 31.602 30.714 42.988c19.439 11.174 45.239 17.328 72.648 17.328 19.768 0 38.971-3.2463 55.534-9.3875 16.25-6.0274 29.247-14.547 37.587-24.639l1.9169-2.3176-15.918-5.6692-0.944 0.99155c-14.445 15.175-45.132 24.982-78.176 24.982-23.38 0-45.328-4.681-61.8-13.179-16.031-8.272-24.858-19.108-24.858-30.512 0-11.406 8.8272-22.244 24.858-30.516 16.473-8.4978 38.419-13.179 61.8-13.179 31.918 0 61.21 8.9121 76.439 23.259l0.93892 0.88458 16.897-6.0206-2.0204-2.3295c-17.72-20.357-53.07-33.003-92.33-33.003" fill="#fed103"/><path d="m922.57 45.531c-49.024 0-88.768 20.505-88.768 45.803 0 25.293 39.744 45.798 88.768 45.798 35 0 65.25-10.455 79.703-25.638l11.795 4.2005c-16.252 19.665-51.109 33.261-91.498 33.261-55.922 0-101.26-26.06-101.26-58.209s45.333-58.211 101.26-58.211c39.711 0 74.073 13.145 90.662 32.276l-12.778 4.552c-15.12-14.196-44.33-23.828-77.93-23.828" fill="#5d0022"/></g></g></svg>
