<svg xmlns="http://www.w3.org/2000/svg" height="64.708" width="250" viewBox="0 0 250 64.707999"><path fill="#bcbec0" d="m69.592 12.349 3.1426-11.523h-19.51c-4.452 0-14.665 0-17.546 10.344l-0.39282 1.3094h-23.438l3.6663 10.999-4.5829 16.891-10.344 11.654h23.831l-0.13094 0.26188c-0.26188 1.0475-0.52376 2.226-0.52376 3.2735 0 1.5713 0.39282 3.0116 1.3094 4.321 2.6188 3.5354 8.2492 3.5354 11.654 3.5354h18.724l3.1426-11.392h7.5945c6.1542 0 9.8205-0.91658 12.832-3.2735 2.226-1.8332 3.7973-4.321 4.452-7.0708l4.9757-17.677 10.344-11.654h-29.2z"/><path d="m203.54 51.5c-1.96 0-4.06 0.786-4.06 2.881 0 3.404 5.64 3.012 5.64 5.5 0 1.178-1.45 1.701-2.36 1.701-1.18 0-2.62-0.523-3.54-1.309l0.53 2.094c0.91 0.393 1.83 0.526 2.88 0.526 2.48 0 4.32-1.703 4.32-3.405 0-3.011-5.63-3.012-5.63-5.238 0-1.048 1.18-1.441 2.09-1.441 0.92 0 1.97 0.394 2.62 1.048v-1.964c-0.78-0.262-1.7-0.393-2.49-0.393zm-82.49 0.262c0.79 0.262 0.66 1.441 0.66 2.226v4.975c0 0.524 0 0.918-0.4 1.441-0.52 0.786-1.44 1.178-2.35 1.178-1.71 0-2.62-0.917-2.62-3.143v-4.32c0-0.785-0.13-1.965 0.65-2.226h-3.14c0.79 0.261 0.65 1.441 0.65 2.226v4.32c0 1.179-0.13 2.357 0.79 3.274 0.79 0.786 1.96 1.18 3.01 1.18s2.49-0.394 3.14-1.311h0.4v0.785h2.35c-0.91-0.262-0.78-1.439-0.78-2.224v-6.155c0-0.785 0-1.964 0.78-2.226h-3.14zm100.96 0l-0.53 1.965c0.53-0.524 1.31-0.657 1.97-0.657h1.44v7.334c0 0.786 0.13 1.965-0.66 2.227h3.28c-0.79-0.524-0.79-1.179-0.79-2.096h-0.13v-7.465h1.44c0.52 0 1.18 0.133 1.44 0.657l0.52-1.965c-0.26 0.131-0.52 0.131-0.78 0.131h-6.55c-0.26 0-0.39 0-0.65-0.131zm-91.66 0.131c0.78 0.523 0.78 1.179 0.78 2.095v6.547c0 0.917 0 1.572-0.91 2.096h2.88c-0.79-0.524-0.79-1.179-0.79-2.096h0.26v-6.285l5.64 7.07c0.65 0.917 1.17 1.441 2.35 1.834v-9.166c0-0.916 0-1.572 0.79-2.095h-2.88c0.78 0.523 0.78 1.179 0.78 2.095v6.155l-6.02-7.596-0.26-0.262c-0.13-0.131-0.26-0.261-0.26-0.392h-2.36zm47.53 0c-0.26 0.131-0.52 0.13-0.79 0.13h-5.23c0.91 0.262 0.78 1.441 0.78 2.227v6.154c0 0.786 0 1.965-0.78 2.227h6.8l0.79-2.096c-0.78 0.655-1.96 1.047-3.01 0.916l-2.1-0.131h-0.13v-3.797h1.18c0.52 0 1.18-0.131 1.44 0.393v-1.703c-0.13 0.131-0.39 0.133-0.65 0.133h-1.97v-3.012c0.53-0.131 1.18-0.131 1.71-0.131 0.78 0 1.44 0.131 1.96 0.654v-1.964zm-30.51 0.13c0.79 0.262 0.66 1.441 0.66 2.227v6.154c0 0.786 0.13 1.965-0.66 2.227h3.14c-0.78-0.262-0.65-1.441-0.65-2.227v-6.154c0-0.655-0.13-1.965 0.65-2.227h-3.14zm8.64 0c0.79 0.524 1.05 1.572 1.31 2.358l2.49 6.678c0.39 1.309 0.78 1.441 1.96 2.226l4.33-11.262h-2.49c1.04 0.393 0.39 1.703 0 2.881l-2.23 5.893-2.62-7.07c-0.13-0.393-0.39-1.18-0.39-1.573v-0.131h-2.36zm29.86 0c0.78 0.262 0.65 1.441 0.65 2.227v6.154c0 0.786 0.13 1.965-0.65 2.227h3.14c-0.92-0.262-0.79-1.441-0.79-2.227v-7.334c0.26-0.131 0.66-0.131 1.05-0.131 1.05 0 2.1 0.656 2.1 1.834 0 1.572-1.57 2.227-2.88 2.358l1.44 2.357 1.96 2.487c0.39 0.523 0.92 0.787 1.83 0.787h1.44c-0.91-0.524-1.96-1.441-2.62-2.227l-2.35-3.012c1.31-0.261 2.62-1.44 2.62-2.88 0-1.441-1.18-2.62-3.41-2.62h-3.53zm27.49 0c0.79 0.262 0.66 1.441 0.66 2.227v6.154c0 0.786 0.13 1.965-0.66 2.227h3.15c-0.79-0.262-0.66-1.441-0.66-2.227v-6.154c0-0.655-0.13-1.965 0.66-2.227h-3.15zm20.95 0c0.79 0.393 1.18 1.049 1.57 1.704l2.75 4.32v2.357c0 0.786 0.14 1.834-0.65 2.227h3.14c-0.78-0.655-0.78-1.179-0.78-2.096h-0.26v-2.357l4.05-6.024h-2.88c0.92 0.393 0.53 1.18 0.27 1.573l-1.97 3.011-2.62-4.322c-0.13-0.262-0.65-0.393-1.18-0.393h-1.44z" stroke="#1a468d" stroke-miterlimit="10" stroke-width=".32735" fill="#1a468d"/><path fill="#1a468d" d="m53.225 2.2676c-4.452 0-13.618-0.0017-16.106 9.1644l-0.654 2.488h-22.522l3.143 9.428-4.846 17.677-8.3806 9.428h22.393l-0.656 2.225c-2.488 9.166 6.679 9.166 11 9.166h17.545l3.142-11.391h2.358 6.547c5.761 0 9.166-0.917 11.916-2.881 1.964-1.571 3.403-3.797 3.927-6.285l4.977-18.07 8.379-9.428h-27.758l3.142-11.521-17.546-0.0004zm145.6 2.0937c-5.76-0.2619-10.34 4.1902-10.34 9.4277 0 5.63 4.58 9.559 10.08 9.559s10.21-4.059 10.21-9.69c0-4.9755-4.06-9.2967-9.95-9.2967zm23.57 0.1309c-5.63 0-9.69 3.6664-9.69 9.4278 0 5.892 3.93 9.559 10.47 9.559 1.44 0 2.89-0.131 4.2-0.786l1.43-3.142h-0.13c-1.7 0.916-3.79 1.701-5.89 1.701-4.32 0-7.07-3.666-7.07-7.725 0-4.0588 2.62-6.8082 6.42-6.8082 1.83 0 3.53 0.6537 5.1 1.5703h0.14v-3.1426c-1.58-0.3928-3.28-0.6543-4.98-0.6543zm-92.31 0.1308v0.1309c1.31 0.5238 1.18 2.6184 1.18 3.7969v7.3342c0 2.095-0.01 3.928 1.44 5.5 1.17 1.44 3.14 1.963 4.97 1.963s4.19-0.656 5.37-2.227h0.13v1.703h4.06v-0.131c-1.31-0.523-1.18-2.618-1.18-3.797v-10.345c0-1.3096-0.26-3.2733 1.18-3.7971v-0.1309h-5.24v0.1309c1.31 0.5238 1.18 2.6184 1.18 3.7969v8.2502c0 0.916 0.13 1.702-0.52 2.488-0.92 1.309-2.49 1.963-4.06 1.963-2.88 0-4.46-1.701-4.46-5.367v-7.3342c0-1.3094-0.26-3.2731 1.18-3.7969v-0.1309h-5.23zm-16.5 0.1309v0.1309c1.31 0.5237 1.18 2.4894 1.18 3.7988v10.343c0 1.31 0.26 3.273-1.18 3.797v0.131h11.39l1.44-3.666h-0.13c-1.31 1.179-3.01 1.832-4.85 1.701l-3.79-0.261v-12.045c0-1.1789-0.26-3.2755 1.18-3.7992v-0.1309h-5.24zm38.23 0v0.1309c1.31 0.5237 1.18 2.6203 1.18 3.7988v10.343c0 1.31 0.26 3.273-1.18 3.797v0.131h4.58c2.1 0 4.19 0.001 6.16-0.916 1.83-0.917 3.27-2.751 3.27-4.846 0-2.618-1.96-4.32-4.45-4.843 1.57-0.655 2.75-1.702 2.75-3.5355 0-2.4879-2.09-4.0606-5.76-4.0606h-6.55zm18.6 0v0.1309c1.31 0.5237 1.17 2.6203 1.17 3.7988v10.343c0 1.31 0.27 3.273-1.17 3.797v0.131h4.58c2.09 0 4.19 0.001 6.15-0.916 1.84-0.917 3.28-2.751 3.28-4.846 0-2.618-1.97-4.32-4.46-4.843 1.58-0.655 2.75-1.702 2.75-3.5355 0-2.4879-2.09-4.0606-5.76-4.0606h-6.54zm61.93 0v0.1309c1.31 0.5237 1.18 2.6203 1.18 3.7988v10.343c0 1.179 0.26 3.273-1.18 3.797v0.131h5.24v-0.131c-1.31-0.524-1.18-2.487-1.18-3.797v-10.343c0-1.3098-0.26-3.2755 1.18-3.7992v-0.1309h-5.24zm8.64 0v0.1309c1.97 0.7856 0.26 2.4894-0.65 3.7988l-3.67 4.8434 6.16 8.25c0.52 0.655 1.83 1.178 3.14 1.178h2.62v-0.131c-1.31-0.654-2.36-1.44-3.28-2.619l-5.63-7.332 6.29-8.1191h-4.98zm-188.68 0.7871h14.402l-2.881 10.213-8.771-4.846h-4.454l-6.677 24.617-5.893 2.489-1.832 0.785h-3.535l7.594-27.237c1.309-4.5824 4.321-6.021 12.047-6.021zm105.27 0.916c1.71-0.1309 3.41 0.7859 3.41 2.75 0 2.226-2.49 2.881-4.32 2.881v-0.131h-0.92v-5.3691l1.83-0.1309zm18.73 0c1.7-0.1309 3.4 0.7859 3.4 2.75 0 2.226-2.49 2.881-4.32 2.881v-0.131h-0.92v-5.3691l1.84-0.1309zm22.39 0c4.32 0 6.94 3.796 6.94 7.855 0 4.191-2.62 7.204-6.81 7.204-4.32 0-7.07-3.93-7.07-7.858 0-4.1899 2.62-7.3319 6.94-7.201zm-40.85 7.463c2.35-0.131 4.97 1.047 4.97 3.666s-2.36 3.666-4.58 3.404l-2.36-0.131v-6.808l1.97-0.131zm18.59 0c2.36-0.131 4.97 1.047 4.97 3.666s-2.35 3.666-4.58 3.404l-2.36-0.131v-6.808l1.97-0.131zm-120.86 3.012h13.486l-6.939 25.009h6.416l6.939-25.009h13.487l-4.844 5.5-5.238 18.986c-1.31 4.583-4.191 6.023-11.785 6.023h-9.69l-1.309-0.13-0.392-0.262-0.524-0.131c-3.142-0.786-3.928-2.488-3.011-5.631l5.236-18.986-1.832-5.369zm-36.926 0.261h17.285l-5.238 5.369-5.369 19.51h10.738l1.047-0.392 5.893-2.489 4.32-1.832-2.881 10.344c0-0.262-34.043-0.262-34.043-0.262l4.713-5.369 5.369-19.51-1.834-5.369zm102 10.739c-5.24 0-8.91 3.534-8.91 8.771 0 5.369 3.67 8.774 9.69 8.774 1.31 0 2.62-0.262 3.8-0.786l1.31-2.88h-0.13c-1.57 0.916-3.41 1.57-5.37 1.57-3.93 0-6.42-3.273-6.42-7.07 0-3.667 2.36-6.286 5.9-6.286 1.7 0 3.27 0.525 4.71 1.442v-2.881c-1.44-0.393-3.01-0.654-4.58-0.654zm56.56 0c-3.14 0-6.41 1.308-6.41 4.451 0 5.368 8.77 4.714 8.77 8.642 0 1.703-2.22 2.62-3.66 2.62-1.97 0-4.06-0.787-5.5-2.096l0.78 3.142c1.44 0.524 3.01 0.786 4.59 0.786 3.92 0 6.8-2.489 6.8-5.239 0-4.714-8.77-4.582-8.77-8.117 0-1.833 1.83-2.357 3.27-2.357 1.31 0 2.88 0.524 3.93 1.572v-2.881c-1.18-0.393-2.49-0.523-3.8-0.523zm-28.93 0.261v0.131c1.31 0.524 1.17 2.357 1.17 3.535v9.559c0 1.178 0.14 3.142-1.17 3.535v0.131h4.84v-0.131c-1.31-0.524-1.18-2.357-1.18-3.535v-11.393c0.53-0.131 1.18-0.261 1.71-0.261 1.7 0 3.27 1.047 3.27 2.881 0 2.356-2.36 3.404-4.45 3.666l2.35 3.535 3.15 3.799c0.65 0.916 1.57 1.308 2.88 1.308h2.35c-1.44-0.916-3.01-2.226-4.06-3.535l-3.66-4.584c2.09-0.524 4.06-2.225 4.06-4.451s-1.84-4.059-5.24-4.059v-0.131h-6.02zm14.92 16.76v0.131h4.85v-0.131c-1.31-0.524-1.18-2.357-1.18-3.535v-9.559c0-1.178-0.13-3.011 1.18-3.535v-0.131h-4.85v0.131c1.31 0.524 1.18 2.357 1.18 3.535v9.559c0 1.178 0.13 3.142-1.18 3.535zm21.48-16.76l-0.92 3.012h0.13c0.79-0.786 1.97-1.049 3.01-1.049h2.23v11.393c0 1.178 0.13 3.011-1.18 3.535v0.131h4.98v-0.131c-1.31-0.786-1.31-1.833-1.31-3.273h0.13v-11.655h2.22c0.92 0 1.84 0.132 2.23 1.049h0.13l0.79-3.012h-0.13c-0.4 0.131-0.79 0.131-1.18 0.131h-10.08c-0.27 0-0.66 0-0.92-0.131h-0.13zm13.88 0v0.131c1.31 0.524 1.18 2.357 1.18 3.535v9.559c0 1.178 0.13 3.142-1.18 3.535v0.131h4.84v-0.131c-1.31-0.524-1.18-2.357-1.18-3.535v-9.559c0-1.178-0.13-3.011 1.18-3.535v-0.131h-4.84zm13.35 0v0.131c1.18 0.393 0.79 1.439 0.4 2.356l-4.19 10.607c-0.53 1.571-1.05 2.88-2.49 3.666v0.131h4.71v-0.131c-1.18-0.524-1.05-1.179-0.52-2.619l1.31-3.535v-0.131h6.41l1.31 3.535c0.66 1.833 0.92 2.096-0.39 2.619v0.131h5.24v-0.131c-1.44-0.785-1.97-2.225-2.49-3.666l-5.24-12.963h-4.06zm-83.27 0.131v0.131c1.31 0.524 1.17 2.357 1.17 3.535v9.559c0 1.178 0.14 3.011-1.17 3.535v0.131h4.84v-0.131c-1.31-0.524-1.18-2.357-1.18-3.535v-4.584h9.17v4.584c0 1.178 0.13 3.011-1.18 3.535v0.131h4.84v-0.131c-1.3-0.524-1.17-2.357-1.17-3.535v-9.559c0-1.178-0.13-3.011 1.17-3.535v-0.131h-4.84v0.131c1.31 0.524 1.18 2.357 1.18 3.535v3.143h-9.17v-3.143c0-1.178-0.13-3.011 1.18-3.535v-0.131h-4.84zm97.28 0.131v0.131c1.31 0.655 1.31 1.702 1.31 3.143v10.082c0 1.44 0 2.487-1.31 3.273v0.131h4.59v-0.131c-1.31-0.786-1.31-1.833-1.31-3.273h-0.13v-9.821l8.77 10.998c1.05 1.441 1.83 2.226 3.67 2.881v-14.14c0-1.31 0-2.357 1.31-3.143v-0.131h-4.46v0.131c1.31 0.655 1.31 1.702 1.31 3.143v9.689l-9.29-11.785-0.4-0.524c-0.13-0.262-0.26-0.392-0.39-0.654h-3.67zm-11.52 2.094l2.49 6.416h-4.98l2.49-6.416zm-159.61 17.939l-2.75 10.344h-17.024l-1.439-0.131-0.654-0.131c-4.059-0.654-5.108-2.357-4.192-5.761l0.657-2.356h10.343l-0.785 2.881h4.32l11.524-4.846z"/><path fill="#fff" d="m52.309 5.541c-7.857 0-10.869 1.5695-12.047 6.021l-7.594 27.237h3.535l1.832-0.785 7.988-28.938 13.094 0.0002 7.594-3.5352h-14.402zm3.273 11.391l1.832 5.369-5.236 18.986c-0.643 2.205-0.444 3.698 0.814 4.666-0.204-0.179-0.391-0.38-0.553-0.607l4.19-1.44h16.498l5.893-21.605 9.951-5.369h-13.487l-6.939 25.009h-6.416l-5.486 1.914 5.878-21.554 6.547-5.369h-13.486zm-2.59 29.021c0.03 0.026 0.065 0.043 0.096 0.068-0.032-0.022-0.065-0.044-0.096-0.068zm0.096 0.068c0.064 0.047 0.126 0.094 0.195 0.137-0.065-0.046-0.133-0.086-0.195-0.137zm0.195 0.137c0.569 0.41 1.233 0.676 1.906 0.76-0.776-0.194-1.407-0.446-1.906-0.76zm-34.627-29.096l1.834 5.5-5.369 19.379-4.713 5.5 9.428-3.535 6.021-21.344 10.084-5.5h-17.285zm1.18 26.844h11.391 5.238 2.619l3.273-2.619 4.975-4.191-4.451 1.834-5.762 2.619-1.047 0.392h-4.191-1.701-4.846l-5.498 1.965zm35.092 4.582l-11.524 4.846h-4.451l-5.631 1.832h12.963l8.643-6.678zm-21.606 6.678l1.309-4.713h-5.106l-0.656 2.225c-0.443 1.71-0.421 2.989 0.174 3.916l4.279-1.428zm-4.279 1.428l-0.043 0.013c0.655 1.048 1.966 1.571 4.061 1.832-2.096-0.27-3.384-0.857-4.018-1.845z"/></svg>
