<?xml version="1.0" encoding="UTF-8" standalone="no"?>
<svg xmlns:rdf="http://www.w3.org/1999/02/22-rdf-syntax-ns#" xmlns="http://www.w3.org/2000/svg" xml:space="preserve" height="122.9" viewBox="0 0 300.86499 122.9025" width="300.86" version="1.1" xmlns:cc="http://creativecommons.org/ns#" xmlns:dc="http://purl.org/dc/elements/1.1/"><g transform="matrix(1.25 0 0 -1.25 -302.2 413.16)"><g transform="translate(1.13 1.13)"><path d="m447.78 301.18c-5.0525 5.4725-12.138 10.32-21.062 14.408-17.642 8.0825-40.98 12.534-65.716 12.534-24.735 0-48.072-4.452-65.714-12.534-8.923-4.088-16.009-8.936-21.062-14.408-5.8335-6.319-8.916-13.586-8.916-21.018 0-7.4335 3.0825-14.701 8.916-21.018 5.0525-5.473 12.138-10.32 21.062-14.408 17.642-8.083 40.98-12.534 65.714-12.534 24.736 0 48.074 4.451 65.716 12.534 8.923 4.088 16.009 8.9355 21.062 14.408 5.8335 6.3175 8.916 13.585 8.916 21.018 0 7.4315-3.0825 14.699-8.916 21.018" fill="#0e553f"/><path d="m425.83 312.82c-17.364 7.9565-40.388 12.338-64.828 12.338-24.438 0-47.462-4.3815-64.828-12.338-18.304-8.3865-28.385-19.984-28.385-32.656 0-12.674 10.081-24.271 28.385-32.657 17.366-7.9555 40.389-12.338 64.828-12.338 24.44 0 47.463 4.3825 64.828 12.338 18.304 8.386 28.386 19.984 28.386 32.657 0 12.672-10.081 24.27-28.386 32.656" fill="#edaa00"/><path d="m425.17 310.74c-17.158 7.861-39.945 12.19-64.163 12.19s-47.005-4.3295-64.162-12.19c-17.534-8.033-27.19-18.893-27.19-30.578 0-11.686 9.6555-22.546 27.19-30.58 17.157-7.861 39.944-12.19 64.162-12.19s47.004 4.329 64.163 12.19c17.534 8.034 27.19 18.893 27.19 30.58 0 11.686-9.656 22.546-27.19 30.578" fill="#fff"/><path d="m451.12 280.16c0-22.802-40.345-41.287-90.113-41.287s-90.112 18.486-90.112 41.287c0 22.802 40.344 41.286 90.112 41.286s90.113-18.484 90.113-41.286" fill="#0e553f"/><path d="m450.5 308.45v0.004h-24.876v-0.001h-0.022c-6.1465 0-10.054-0.34-13.07-1.1355-1.44-0.38-2.7365-0.8905-3.8865-1.528-1.154 0.734-2.603 1.358-4.4295 1.776-2.683 0.6135-6.3965 0.8875-12.041 0.8875-6.141 0-9.8545-0.358-12.814-1.2345-1.3125-0.389-2.5005-0.901-3.567-1.529-0.9315 0.567-2.0475 1.069-3.3885 1.461-2.4535 0.7175-5.5435 1.078-9.4495 1.1025h-21.374l0.0005 0.002h-32.716-11.394-12.16-4.0595-23.552l-15.938-41.347h23.55 11.308 16.306l0.507 1.316c0.6-0.219 1.247-0.415 1.953-0.58 2.7665-0.6465 6.454-0.935 11.958-0.935 5.759 0 9.4735 0.34 12.422 1.1355 3.337 0.9015 5.877 2.497 7.5925 4.7545l-2.194-5.691h27.616l3.5715 9.261h1.359c1.842 0 3.4655 0.0655 4.9295 0.192 0.1815-2.199 1.4265-7.254 8.851-8.854 2.591-0.5585 6.095-0.7985 11.714-0.7985 6.148 0 9.6515 0.2725 12.475 0.9645 1.483 0.359 2.9675 0.8335 4.36 1.6145 1.176-0.6865 2.6375-1.2695 4.4585-1.6725 2.7925-0.618 6.6145-0.906 12.029-0.906 6.483 0 10.707 0.457 13.876 1.5625l-0.525-1.3635h27.612l8.831 22.935h6.5165l7.2155 18.608h-29.555z" fill="#0e553f"/><path d="m440.83 306.14-0.004-0.0105h-13.48c-0.5615 0.009-1.1445 0.0125-1.749 0.0125-6.969 0-13.172-0.302-17.064-3.168-1.0535 0.968-2.591 1.826-4.8365 2.34-2.5075 0.5735-6.062 0.828-11.526 0.828-6.879 0-12.693-0.3055-16.434-3.2525-0.9285 0.8-2.212 1.526-3.983 2.044-2.213 0.6475-5.18 0.987-8.8175 1.0105h-8.324-11.928-4.46-3.864-20.95-7.9075-3.5545-2.8955-8.314-7.908-0.8815-2.674-19.996l-14.161-36.736h19.994 3.5555 6.3705 1.5375 11.208 3.5555 6.3495l-5.7475-14.989h134.95l5.7515 15h0.597l-0.004-0.0105h22.67l8.8325 22.937h6.521l5.425 13.995h-35.851z" fill="#edaa00"/><path d="m189.15 34.545c-12.017 0-18.156 1.02-20.504 6.7969l-0.36133 0.81445-7.9746 20.764-0.0273 0.07031c-0.57813 1.6938-0.84828 2.6685-0.83203 3.6191 0.04 2.4094 1.8474 4.0154 5.373 4.7754 2.6744 0.57625 6.7177 0.83398 13.113 0.83398 7.0544 0 10.949-0.28133 13.887-1.002 4.1269-1 5.7977-2.353 7.1602-5.8105l8.3106-21.662 0.26562-0.79297c0.305-0.815 0.48445-1.7856 0.4707-2.5469-0.0431-2.455-1.8741-4.1135-5.4473-4.9316-2.8006-0.64-6.9442-0.92773-13.434-0.92773zm41.783 0c-12.371 0-19.063 0.99297-21.297 6.418l-1.7578 4.6816c-0.2825 0.75312-0.75258 2.1556-0.73633 3.0781 0.0494 2.9456 2.8491 4.1025 6.5098 5.3125l1.0371 0.33594h-10.158l-3.5938 9.5039-0.0996 0.27539c-0.33812 0.71688-0.53007 1.5341-0.51757 2.2109 0.0831 4.8781 7.4365 5.8574 19.271 5.8574 9.015 0 13.934-0.71062 16.98-2.4531l0.0605-0.03516c1.7762-1.0988 2.3936-1.9328 3.2148-4.3828 0.025-0.04 0.0545-0.08258 0.082-0.12695l0.11524-0.17969 2.2773-6.1426 0.2168-0.48047 0.041-0.08789c0.5575-1.3944 0.64141-1.9162 0.62891-2.623-0.0525-2.9812-3.0663-3.9674-7.6426-5.4512h10.123l2.8535-7.457 0.14453-0.49219c0.30875-0.73 0.48399-1.5041 0.47461-2.1016-0.0375-2.1481-2.2016-3.9567-5.6328-4.7148-2.8181-0.645-6.8207-0.94531-12.596-0.94531zm22.078 0-3.3027 8.5078h8.2598l-11.125 28.918h18.973l11.121-28.918h8.1621l3.3027-8.5078h-35.391zm-226.98 0.24805-14.332 37.178h28.039l3.3047-8.5078h-9.082l11.041-28.67h-18.971zm29.439 0-14.334 37.178h18.971l14.334-37.178h-18.971zm20.281 0-10.789 28.127-0.26562 0.8418c-0.30125 0.76562-0.48445 1.7356-0.4707 2.5 0.04125 2.4469 1.9216 4.121 5.5859 4.9785 2.855 0.6675 7.0794 0.97852 13.297 0.97852 11.511 0 18.156-1.0066 20.256-6.3066l0.35547-0.80469 11.633-30.314h-19.098l-10.902 28.447-0.12891 0.30859c-0.14625 0.05562-0.54117 0.15711-1.4824 0.16211l10.967-28.918h-18.957zm54.535 0-14.334 37.178h18.973l4.4648-11.576h6.6758c9.8188 0 14.436-1.519 15.932-5.2402l0.0547-0.13672 0.12305-0.50586 4.4688-11.428 0.10938-0.45508c0.31875-0.75 0.47351-1.4645 0.46289-2.127-0.0662-3.7788-4.8556-5.6459-14.654-5.709h-22.275zm58.029 8.2598c0.0606 0 0.11882 0.0013 0.17382 0.002l-7.7637 20.318-0.0898 0.17383c-0.15063 0.0575-0.56 0.16406-1.4844 0.16406h-0.0566l7.666-20.164c0.185-0.40688 0.27844-0.49414 1.5547-0.49414zm41.082 0-1.7129 4.6875-0.73047-0.23438c-0.29313-0.0925-0.52938-0.17359-0.71875-0.24609l1.5332-3.7168 0.0898-0.27344c0.21874-0.08875 0.70468-0.2118 1.5391-0.2168zm-83.43 0.24805h1.4863 0.004l-2.9648 7.8535-0.0762 0.15234-0.082 0.18359c-0.0425 0.115-0.0755 0.16688-0.0742 0.17188-0.0656 0.04-0.38328 0.18117-1.582 0.2168l3.2891-8.5781zm76.557 13.609 0.34766 0.11328c0.2425 0.07562 0.66125 0.20516 1.0312 0.33203l-2.3574 6.1328v0.02734c-0.17188 0.09875-0.54243 0.19531-1.3887 0.19531-0.0825 0-0.15929-0.0014-0.23242-0.0039l2.5996-6.7969zm-99.664 20.326c-4.4931 0-6.1937 0.46367-6.8418 2.0762l-0.13867 0.31445-2.9648 7.707c-0.185 0.53625-0.27735 0.85117-0.27735 1.0918 0 1.0194 1.7466 1.3535 6.0078 1.3535 2.3631 0 3.9259-0.09281 4.9434-0.35156 1.2512-0.315 1.6671-0.6482 2.084-1.7051l0.0937-0.24023 3.0117-7.8379 0.0918-0.27734c0.0913-0.24125 0.13868-0.5193 0.13868-0.68555 0-1.0562-1.7947-1.4453-6.1484-1.4453zm99.4 0c-4.6325 0-6.5173 0.46398-7.1191 1.9277l-0.0937 0.25977-0.55469 1.4629c-0.13812 0.37-0.23242 0.72359-0.23242 0.87109 0 0.5 0.41851 0.79547 1.8066 1.2773l3.4141 1.1113c0.74188 0.24188 1.0996 0.33578 1.0996 0.61328 0 0.11062-0.0469 0.22117-0.0937 0.38867l-0.0918 0.20312-0.78906 2.0566v0.0918c-0.18375 0.4625-0.72687 0.61133-1.375 0.61133-0.51062 0-1.0508-0.1293-1.0508-0.38867 0-0.075-0.0007-0.14828 0.0449-0.22266v-0.0918l1.0645-2.7793h-5.2324l-1.1582 3.0566-0.0469 0.13086c-0.0925 0.185-0.13868 0.3882-0.13868 0.51758 0 1.0194 2.0708 1.4453 6.2852 1.4453 3.0119 0 4.898-0.24203 5.8711-0.81641 0.46375-0.29625 0.60008-0.44359 0.87696-1.2773 0-0.01812 0.0482-0.09102 0.0957-0.16602l0.83203-2.2422 0.0937-0.20312c0.18563-0.46312 0.18555-0.5568 0.18555-0.68555 0-0.465-0.37086-0.70594-2.2246-1.3359l-3.1836-1.0176c-0.50813-0.16625-1.0039-0.35156-1.0039-0.55469 0-0.07563-0.0007-0.07602 0.0918-0.35352l0.64843-1.5742 0.0469-0.16797c0.13875-0.31562 0.72758-0.48047 1.377-0.48047 0.50938 0 1.0527 0.1107 1.0527 0.31445 0 0.07313-0.0481 0.14844-0.14063 0.35156l-0.74023 2.0195h5.2344l0.87891-2.2988 0.0469-0.16406c0.0925-0.20438 0.14063-0.40891 0.14063-0.51953 0-0.4075-0.55688-0.83398-1.4375-1.0371-0.9275-0.2225-2.443-0.33398-4.4805-0.33398zm-119.04 0.09375-4.7715 12.355h5.2344l4.7695-12.355h-5.2324zm35.135 0-4.7715 12.355h4.6309l2.502-6.4824v0.16602c0 0.18562 0.0469 0.53789 0.0469 0.75976 0.0469 0.09313 0.0469 0.16617 0.0469 0.18555l0.50977 5.3711h5.2324l4.7715-12.355h-4.6309l-2.3164 6.0391v-0.12891c0-0.14875-0.0469-0.315-0.0469-0.5l-0.0918-0.4082v-0.16797l-0.64844-4.834h-5.2344zm21.543 0-4.7715 12.355h8.6621l0.64843-1.666h-3.4277l1.6699-4.2617h3.3789l0.65039-1.668h-3.4297l1.2051-3.0938h3.3809l0.64844-1.666h-8.6152zm17.256 0-4.7715 12.355h8.6621l0.65039-1.666h-3.4297l1.668-4.2617h3.3809l0.64843-1.668h-3.4277l1.2051-3.0938h3.3809l0.65039-1.666h-8.6172zm17.256 0-4.7715 12.355h5.2344l2.0391-5.2402h0.99024c0.9275 0 1.252 0.07266 1.252 0.33203 0 0.0375-0.0449 0.12875-0.0918 0.20312l-0.0469 0.11133-1.7598 4.5938h5.2793l1.8066-4.668v-0.11133c0.0925-0.18562 0.13867-0.35266 0.13867-0.42578 0-0.37188-0.50851-0.61039-1.8535-0.86914 1.9931-0.18562 2.3631-0.37219 2.7344-1.3359l0.0469-0.11133 1.1562-2.9629 0.0488-0.20508c0.0456-0.09313 0.0918-0.20438 0.0918-0.29688 0-0.88938-1.5298-1.3516-4.4004-1.3691h-0.60351-7.291zm-112.93 0.04883-4.7246 12.309h5.207l1.5391-3.9844h2.752 0.72656c2.865 0 4.2777-0.41039 4.6621-1.3691l0.04297-0.16992 1.873-4.8359 0.04297-0.17188c0.085-0.18812 0.12891-0.35797 0.12891-0.49609 0-0.80188-1.539-1.2638-4.1465-1.2812h-0.81445-7.2891zm41.059 1.5254c0.555 0 1.0977 0.12906 1.0977 0.35156 0 0.07375-0.001 0.11188-0.0937 0.29688l-3.0566 7.9863-0.0469 0.0918c-0.13812 0.35188-0.68 0.48047-1.3281 0.48047-0.51063 0-1.0996-0.11195-1.0996-0.31445 0-0.05625 0.0469-0.09156 0.0469-0.14844l0.0469-0.07422 3.0547-8.0215c0.2325-0.51938 0.6839-0.64844 1.3789-0.64844zm-36.459 0.01367h1.1953 0.25586c0.6 0 0.85547 0.10297 0.85547 0.30859 0 0.05063-0.04102 0.08609-0.04102 0.13672l-0.04492 0.06836-1.5312 4.0645-0.04297 0.08594c-0.17062 0.44375-0.46906 0.58203-1.3672 0.58203h-0.21484-1.0762l2.0117-5.2461zm112.91 0.07813h1.0391 0.36914c0.55688 0 0.83399 0.11148 0.83399 0.33398 0 0.0375 0 0.07445-0.0469 0.11133l-0.0449 0.12891-0.92578 2.4824-0.0937 0.16797c-0.13688 0.4075-0.55618 0.55469-1.5762 0.55469h-0.99219l1.4375-3.7793z" transform="matrix(.8 0 0 -.8 240.85 330.28)" fill="#0e553f"/><path d="m189.15 36.562c-12.572 0-16.906 1.2427-18.646 5.5664l-0.37305 0.84375-7.9375 20.67c-0.49187 1.4406-0.73781 2.286-0.72656 2.9316 0.0481 2.7319 4.5463 3.627 16.471 3.627 6.6094 0 10.573-0.24773 13.412-0.94336 3.4838-0.84438 4.6338-1.741 5.752-4.5723l0.24804-0.64648 8.0606-21.018 0.24609-0.74414c0.24875-0.64625 0.36618-1.3904 0.35743-1.8379-0.0481-2.8331-4.6789-3.877-16.863-3.877zm41.783 0c-12.962 0-17.813 1.243-19.43 5.168l-0.24805 0.69726-1.4883 3.9219c-0.37062 0.995-0.61492 1.9391-0.60742 2.3359 0.0231 1.3419 1.2027 2.1384 5.1133 3.4297l9.2031 2.9824c2.0856 0.64562 2.6835 0.89367 2.6973 1.6387 0.005 0.29812-0.11906 0.59672-0.24219 1.043l-0.24804 0.54688-2.1094 5.5156 0.006 0.24805c-0.4975 1.2419-1.6055 1.6387-3.418 1.6387-1.4275 0-2.5461-0.34734-2.5586-1.043-0.004-0.19875-0.008-0.3982 0.11914-0.5957l-0.006-0.24805 2.8535-7.4531h-14.646l-3.0996 8.1992-0.12304 0.3457c-0.24875 0.49688-0.36954 1.0463-0.36329 1.3926 0.0469 2.7325 5.4608 3.875 17.254 3.875 8.4225 0 13.284-0.64625 15.979-2.1875 1.2838-0.79375 1.6656-1.1902 2.4062-3.4258 0-0.05062 0.125-0.24852 0.25-0.44727l2.2285-6.0117 0.25-0.54883c0.49563-1.2425 0.49133-1.4891 0.48633-1.8379-0.0231-1.2431-1.0694-1.8888-6.2812-3.5781l-8.5508-2.7324c-1.4319-0.4475-2.4256-0.94461-2.4356-1.4902-0.004-0.19875-0.003-0.19906 0.24219-0.94531l1.7422-4.2227 0.12304-0.44531c0.37375-0.84438 1.6095-1.293 3.4238-1.293 1.4244 0 2.544 0.2982 2.5527 0.8457 0.004 0.19938-0.12305 0.39774-0.37305 0.94336l-1.9785 5.4141h14.645l2.3574-6.1582 0.12109-0.44922c0.25-0.54562 0.37219-1.0931 0.36719-1.3906-0.0206-1.0938-1.5939-2.2356-4.0664-2.7812-2.6031-0.59688-6.4452-0.89648-12.146-0.89648zm23.459 0-1.7363 4.4727h8.25l-11.123 28.918h14.646l11.121-28.918h8.168l1.7363-4.4727h-31.062zm-226.97 0.24805-12.777 33.143h23.721l1.7363-4.4727h-9.0742l11.041-28.67h-14.646zm29.438 0-12.775 33.143h14.645l12.772-33.142h-14.646zm20.287 0-10.295 26.832-0.24609 0.79492c-0.24875 0.5975-0.36617 1.3416-0.35742 1.7891 0.04875 2.8306 5.0709 3.9746 16.867 3.9746 11.923 0 16.903-1.2421 18.393-5.0684l0.375-0.84375 10.543-27.479h-14.777l-10.416 27.18-0.125 0.29883c-0.37062 1.0938-1.4769 1.4395-3.4219 1.4395-1.2956 0-2.5459-0.34633-2.5547-0.89258-0.0031-0.19938 0.12109-0.34828 0.37109-0.89453l10.289-27.131h-14.645zm54.529 0-12.775 33.143h14.646l4.4668-11.576h5.8555 2.2031c8.685 0 12.94-1.1934 14.059-3.9766l0.12109-0.49609 4.4688-11.428 0.11914-0.49805c0.25-0.54562 0.37149-1.042 0.36524-1.4395-0.04-2.3356-4.7292-3.6773-12.637-3.7285h-2.4629-18.43zm56.646 4.2246c1.555 0 2.6755 0.34648 2.6855 0.94336 0.002 0.19875 0.004 0.29805-0.24609 0.79492l-8.1816 21.416-0.12695 0.24805c-0.3725 0.94438-1.4812 1.291-3.2949 1.291-1.425 0-2.6748-0.29688-2.6836-0.84375-0.004-0.14875 0.12555-0.24906 0.12305-0.39844l0.125-0.19727 8.1836-21.516c0.62375-1.3919 1.4716-1.7383 3.416-1.7383zm-43.734 0.24805h2.0957 0.77735c1.815 0 2.5981 0.29766 2.6094 0.89453 0.002 0.15-0.12554 0.24836-0.12304 0.39648l-0.12891 0.19922-3.4688 9.1934-0.125 0.24805c-0.49563 1.2919-1.3947 1.6895-4.1172 1.6895h-0.64844-1.709l4.8379-12.621z" transform="matrix(.8 0 0 -.8 240.85 330.28)" fill="#fff"/></g></g></svg>
