<svg xmlns="http://www.w3.org/2000/svg" height="227.7" viewBox="0 0 250 227.70253" width="250"><g transform="matrix(1.25 0 0 -1.25 -258.5 361.9)"><g><path d="m80.973 0.76758l-34.459 28.818-45.282 167.37 19.315 29.5h66.207l-25.467-13.49 42.623-157.5 115.5 0.005 6.95 28.65 14.61-53.797-19.35-29.56-140.65-0.00042zm21.977 91.248l25.74 14.224-8.6 31.6h52.1l-9.23 33.98h-52.06l-14.73 54.65h89.93l34.58-28.91 28.55-105.54-146.28-0.004z" transform="matrix(.8 0 0 -.8 206.8 289.52)" fill="#bc9c16"/><path d="m83.807 8.5625l-30.412 25.44-43.721 161.62 15.096 23.05h26.898l46.266-171 130.25-0.004 4.34-16.002-15.12-23.102-133.59 0.0005zm54.723 91.248l-8.23 30.219h52.08l-13.46 49.59h-52.04l-10.53 39.05h76.92l30.52-25.53 25.25-93.329h-100.51z" transform="matrix(.8 0 0 -.8 206.8 289.52)" fill="#081e3f"/></g></g></svg>
