<?xml version="1.0" encoding="UTF-8" standalone="no"?>
<svg xmlns:rdf="http://www.w3.org/1999/02/22-rdf-syntax-ns#" xmlns="http://www.w3.org/2000/svg" xml:space="preserve" height="210.45" viewBox="0 0 365.82251 210.45413" width="365.82" version="1.1" xmlns:cc="http://creativecommons.org/ns#" xmlns:dc="http://purl.org/dc/elements/1.1/"><g transform="matrix(1.25 0 0 -1.25 -558.68 699.5)"><g style=""><g><path d="m725.42 421.19s-31.225-4.871-37.931-5.263c10.897 4.739 20.374 10.286 28.058 16.477 15.362 12.376 23.482 27.336 23.482 43.263 0 13.334-5.463 25.685-16.237 36.712-18.086 18.509-54.327 34.646-94.579 42.111-22.842 4.237-45.817 5.485-68.297 3.83-23.949-1.763-49.067-5.607-98.292-28.221 0 0 25.217 3.818 37.737 5.242-10.869-4.74-20.32-10.286-27.981-16.471-15.314-12.363-23.409-27.303-23.409-43.203 0-13.348 5.478-25.715 16.281-36.759 18.101-18.504 54.344-34.637 94.584-42.103 22.842-4.239 45.816-5.496 68.293-3.835 25.116 1.857 51.43 6.471 98.291 28.22z" fill="#ffce00"/><path d="m466.91 441.51c32.201-32.919 137.93-67.171 230.46-28.123 0 0-16.186-2.339-39.26-3.532 44.016 11.396 77.206 34.52 77.206 65.815 0 12.826-5.567 24.277-15.178 34.113-32.183 32.937-137.93 67.171-230.46 28.123 0 0 16.061 2.321 38.993 3.518-43.903-11.415-76.981-34.514-76.981-65.754 0-12.844 5.587-24.312 15.221-34.16z" fill="#00533e"/><path d="m698.34 509.36h2.865l-0.165-1.044h-0.88l-0.726-4.582h-1.112l0.726 4.582h-0.873l0.165 1.044zm3.793 0h1.462l0.019-3.32 0.989 3.32h1.492l-0.302-5.626h-1.141l0.373 4.052-0.414-1.388-0.9-2.664h-0.858l-0.118 2.693 0.012 1.254 0.017 0.105-0.821-4.052h-1.194l1.384 5.626zm-41.738-67.371 4.27 4.379 3.654 20.722h-13.671l4.649-2.744-3.942-22.357h-23.514l4.307 4.584 10.185 57.765-1.92 5.022h22.821l-4.36-24.727h8.538l4.36 24.727h20.016l-10.717-60.774c21.974 14.011 34.391 30.88 31.837 46.999-0.282 1.782-0.742 3.517-1.37 5.202 6.725-7.717 10.444-16.204 10.444-25.113 0-35.576-59.312-64.416-132.48-64.416-22.597 0-43.873 2.751-62.488 7.602 20.973-3.294 45.9-3.23 72.153 0.927 26.967 4.271 51.269 12.219 70.443 22.202h-13.215zm-126.37 0 4.339 4.769 10.219 57.958-1.987 4.644h41.228l-3.023-18.102h-24.449l4.56-2.692-0.694-3.933h17.776l-3.094-17.543h-22.908l4.649-2.744-0.75-4.255h19.706l-3.023-18.102h-42.549zm-36.148 0 3.532 4.379 7.865 44.89h-12.457l1.622 9.197c-19.784-13.533-30.758-29.448-28.342-44.691 0.282-1.782 0.742-3.517 1.37-5.201-6.725 7.716-10.444 16.203-10.444 25.111 0 35.577 59.312 64.416 132.48 64.416 22.597 0 43.873-2.75 62.488-7.601-20.973 3.293-45.901 3.23-72.153-0.927-26.968-4.271-51.268-12.218-70.442-22.202h31.542l-3.192-18.102h-12.457-5.133l4.649-2.744-8.204-46.525h-22.724zm118.83 27.715 18.233-0.001c-3.516-19.939-13.109-29.487-28.785-29.487-17.075 0-23.953 14.183-19.761 35.179l0.05 0.279 0.031 0.28c3.212 20.995 15.091 35.179 32.167 35.179 15.676 0 21.901-9.548 18.385-29.487l-18.318 0.001c1.832 11.344-0.691 11.943-3.345 11.943h-8.284l4.45-2.626c-2.02-2.994-3.171-8.379-4.39-15.29-1.889-10.824-2.65-17.916 2.529-17.916 2.087 0 4.92 0.821 7.038 11.946z" fill="#ffce00"/></g><path d="m174.68 29.17c-89.226 2.367-165.27 40.322-150.2 88.16h0.034c-4.3-77.169 150.18-87.82 150.18-87.82l-0.01-0.34zm-8.07 14.879l-11.47 13.002h2.89l2.05-2.326h9.26l1.11 2.326h2.84l-6.18-13.002h-0.5zm59.14 0l-11.46 13.002h2.89l2.05-2.326h9.26l1.11 2.326h2.84l-6.19-13.002h-0.5zm59.04 0l-11.47 13.002h2.89l2.05-2.326h9.26l1.11 2.326h2.84l-6.18-13.002h-0.5zm-19.61 0.154c-4.11 0-7.11 1.289-7.66 3.906-0.53 2.544 1.52 3.33 4.55 3.5l3.75 0.174c1.22 0.058 2.02 0.17 2.47 0.391 0.38 0.182 0.51 0.426 0.41 0.933-0.22 1.039-1.59 1.957-5.19 1.957-3.36 0-5.14-0.868-6.05-1.568l-0.24-0.18-1.74 1.922 0.28 0.209c1.51 1.134 3.67 1.832 7.42 1.832 3.89 0 7.55-1.102 8.2-4.193 0.6-2.89-1.81-3.504-4.87-3.654l-3.75-0.172c-1.1-0.049-1.82-0.16-2.24-0.365-0.35-0.172-0.47-0.391-0.38-0.807 0.2-0.95 1.52-1.668 4.7-1.668 3.16 0 4.59 0.603 5.69 1.279l0.25 0.153 1.51-2.014-0.3-0.184c-1.41-0.867-3.24-1.451-6.81-1.451zm38.84 0c-4.1 0-7.1 1.289-7.65 3.906-0.54 2.544 1.52 3.33 4.54 3.5l3.76 0.174c1.22 0.058 2.02 0.17 2.47 0.391 0.38 0.182 0.51 0.426 0.4 0.933-0.21 1.039-1.59 1.957-5.18 1.957-3.37 0-5.15-0.868-6.06-1.568l-0.23-0.18-1.74 1.922 0.28 0.209c1.51 1.134 3.67 1.832 7.42 1.832 3.89 0 7.54-1.102 8.19-4.193 0.61-2.89-1.8-3.504-4.86-3.654l-3.75-0.172c-1.1-0.049-1.82-0.16-2.24-0.365-0.35-0.172-0.47-0.391-0.38-0.807 0.2-0.95 1.52-1.668 4.7-1.668 3.16 0 4.59 0.603 5.69 1.279l0.25 0.153 1.5-2.014-0.29-0.184c-1.42-0.867-3.24-1.451-6.82-1.451zm-65.17 0.02l-2.7 12.828h2.64l1.76-8.424 9.89 8.711h0.51l2.72-12.924h-2.64l-1.76 8.371-9.87-8.562h-0.55zm-59.19 0.193l-2.65 12.635h2.63l1-4.768h5.36l3.32 4.768h3.15l-3.44-4.942c2.52-0.422 4.16-1.647 4.6-3.732 0.61-2.885-1.56-3.961-5.33-3.961h-8.64zm19.51 0l-2.65 12.635h2.63l0.7-3.313 3.94-2.455 5.09 5.768h3.56l-6.35-7.188 8.74-5.447h-3.84l-10.57 6.588 1.38-6.588h-2.63zm-17.35 2.273h5.92c2.86 0 3.45 0.471 3.21 1.633-0.28 1.307-1.42 1.782-4.06 1.782h-5.79l0.72-3.415zm-15.73 1.215l2.17 4.565h-6.2l4.03-4.565zm59.14 0l2.18 4.565h-6.2l4.02-4.565zm59.04 0l2.17 4.565h-6.2l4.03-4.565zm-69.65 17.35c-18.04 0-31.74 14.788-35.58 39.906l-0.14 0.96c-5.06 25.34 4.73 39.03 21.92 38.58l0.14-0.3c-15.24-1.1-22.23-14.05-17.4-38.28l0.15-0.96c3.68-24.092 14.72-37.101 30.94-39.496l-0.03-0.41zm-140.02 2.215c-1.665 0.972-3.292 1.959-4.879 2.955l-1.823 10.342h4.666l2.344-13.297h-0.308zm57.386 0l-13.2 74.881h4.66l13.21-74.881h-4.67zm122.27 0l-13.2 74.881h4.66l13.21-74.881h-4.67zm35.69 0l-4.19 23.795h4.66l4.2-23.795h-4.67zm-74 10.381c-0.84 0-1.62 0.083-2.35 0.238 2.14 0.471 4.53 1.778 5.79 5.131 0.9 2.367 1.07 5.512 0.67 9.56h4.66c0.41-4.048 0.24-7.193-0.66-9.56-1.76-4.664-5.7-5.369-8.11-5.369zm-133.3 7.582l-10.037 56.918h4.666l10.037-56.918h-4.666zm259.38 7.248l-0.16 0.013c3.6 71.937-135.51 86.347-153.46 87.897l0.02 0.16c91.45-0.99 168.97-39.3 153.6-88.07zm-60.63 23.31l-4.65 26.36h4.66l4.65-26.36h-4.66zm-65.5 1.05c-2.12 9.35-5.23 13.71-10.11 14.7 0.7 0.15 1.45 0.23 2.28 0.23 6.29 0 10.05-4.14 12.5-14.93h-4.67zm-43.73 36.03c-3.98 0-6.87 1.3-7.4 3.91-0.51 2.49 1.4 3.29 4.36 3.46l3.64 0.17c2.47 0.13 3.01 0.47 2.82 1.4-0.21 1.07-1.56 1.99-5.05 1.99-3.26 0-4.99-0.87-5.88-1.58l-0.21-0.17-1.64 1.88 0.23 0.18c1.44 1.14 3.53 1.84 7.16 1.84 3.77 0 7.3-1.12 7.93-4.2 0.58-2.84-1.68-3.46-4.67-3.62l-3.63-0.17c-1.07-0.05-1.77-0.16-2.19-0.37-0.36-0.18-0.48-0.43-0.39-0.87 0.2-0.99 1.5-1.71 4.58-1.71 3.06 0 4.45 0.61 5.52 1.3l0.23 0.14 1.42-1.97-0.24-0.16c-1.36-0.86-3.12-1.45-6.59-1.45zm-95.99 0.02l-2.61 12.83h2.485l1.73-8.5 9.584 8.79h0.477l2.629-12.93h-2.487l-1.718 8.45-9.581-8.64h-0.509zm-21.856 0.19l-1.463 7.18c-0.808 3.98 1.548 5.69 6.309 5.69 4.771 0 7.65-1.73 8.443-5.63l1.473-7.24h-2.486l-1.426 7.01c-0.535 2.63-1.898 3.73-5.701 3.73-3.794 0-4.628-1.09-4.102-3.68l1.438-7.06h-2.485zm43.205 0l-2.572 12.64h2.486l2.567-12.64h-2.481zm6.431 0l5.94 13.01h0.46l11.05-13.01h-2.79l-7.72 9.13-4.06-9.13h-2.88zm41.33 0l-2.57 12.64h2.48l0.98-4.8h5.22l3.22 4.8h2.98l-3.32-4.97c2.47-0.42 4.06-1.65 4.49-3.74 0.57-2.84-1.45-3.93-5.12-3.93h-8.36zm40.76 0l-2.57 12.64h2.49l2.57-12.64h-2.49zm6.9 0l-0.46 2.26h6.07l-2.11 10.38h2.48l2.11-10.38h6.08l0.46-2.26h-14.63zm18.58 0l5.33 7.59-1.03 5.05h2.48l1.01-4.96 8.18-7.68h-2.94l-6.03 5.62-3.92-5.62h-3.08zm-85.21 0l-2.57 12.64h12.93l0.47-2.28h-10.45l0.63-3.1h7.19l0.45-2.21h-7.19l0.56-2.77h9.96l0.47-2.28h-12.45zm21 2.2h5.77c2.73 0 3.39 0.47 3.14 1.71-0.27 1.34-1.4 1.82-3.95 1.82h-5.67l0.71-3.53z" fill-rule="evenodd" transform="matrix(.8 0 0 -.8 446.94 559.6)" fill="#fff"/></g></g></svg>
