<?xml version="1.0" encoding="UTF-8" standalone="no"?>
<svg
   xmlns:dc="http://purl.org/dc/elements/1.1/"
   xmlns:cc="http://creativecommons.org/ns#"
   xmlns:rdf="http://www.w3.org/1999/02/22-rdf-syntax-ns#"
   xmlns:svg="http://www.w3.org/2000/svg"
   xmlns="http://www.w3.org/2000/svg"
   viewBox="0 0 453.33334 248"
   height="248"
   width="453.33334"
   xml:space="preserve"
   id="svg2"
   version="1.1"><metadata
     id="metadata8"><rdf:RDF><cc:Work
         rdf:about=""><dc:format>image/svg+xml</dc:format><dc:type
           rdf:resource="http://purl.org/dc/dcmitype/StillImage" /></cc:Work></rdf:RDF></metadata><defs
     id="defs6"><clipPath
       id="clipPath32"
       clipPathUnits="userSpaceOnUse"><path
         id="path30"
         d="M 0.483,0 H 339.9 V 186 H 0.483 Z" /></clipPath></defs><g
     transform="matrix(1.3333333,0,0,-1.3333333,0,248)"
     id="g10"><path
       id="path12"
       style="fill:#00573d;fill-opacity:1;fill-rule:evenodd;stroke:none"
       d="m 287.166,66.627 h -23.89 v -13.98 h 23.89 z M 243.682,19.355 229.981,33.046 V 66.627 H 183.47 V 52.646 h 9.533 V 19.355 h -52.356 v 33.291 h 9.532 V 66.627 H 110.02 V 33.046 L 96.322,19.355 H 33.625 L 19.926,33.046 V 62.179 H 53.217 V 52.646 H 76.729 V 66.627 H 7.599 v 52.353 h 12.327 v 33.575 l 13.697,13.699 H 96.324 L 110.02,152.555 V 123.428 H 76.729 v 9.533 H 53.217 V 118.98 h 96.962 v 13.981 h -1.656 v -9.533 h -33.291 v 42.826 h 103.267 v -42.826 h -33.376 v 9.533 H 183.47 V 118.98 h 46.511 v 13.981 h -6.351 v 33.293 h 45.997 v -33.293 h -6.351 V 118.98 h 23.89 v 13.981 h -6.355 v 33.293 h 46.001 v -33.293 h -6.355 V 118.98 h 12.327 V 66.627 H 320.457 V 33.046 L 306.758,19.355 Z" /><g
       transform="translate(319.6971,173.3679)"
       id="g14"><path
         id="path16"
         style="fill:#231f20;fill-opacity:1;fill-rule:nonzero;stroke:none"
         d="m 0,0 h -31.77 -11.184 -14.231 -31.766 -5.133 -14.229 -89.036 -14.231 v -8.847 l -4.679,4.68 -4.168,4.167 h -5.896 -56.803 -5.894 l -4.168,-4.167 -9.53,-9.534 -4.168,-4.168 v -5.891 -23.512 h -12.327 v -14.23 -38.123 -14.232 h 12.327 v -4.446 -19.068 -5.896 l 4.172,-4.17 9.529,-9.527 4.168,-4.166 h 5.891 56.803 5.894 l 4.167,4.166 9.529,9.527 4.172,4.17 v 5.896 23.514 h 16.396 v -13.981 -19.061 -14.231 h 14.231 38.123 14.233 v 14.231 19.061 13.981 h 22.747 v -23.514 -5.896 l 4.17,-4.17 9.531,-9.527 4.167,-4.166 h 5.892 57.187 5.891 l 4.168,4.166 9.531,9.527 4.17,4.17 v 5.896 23.514 h 12.327 v 66.585 h -5.97 v 13.981 19.06 L 14.233,0 Z M -31.77,-14.231 H 0 v -19.06 H -6.355 V -61.502 H 5.972 V -99.625 H -6.355 v -37.746 l -9.529,-9.528 h -57.187 l -9.529,9.528 v 37.746 h -60.744 v -28.213 h 9.533 v -19.061 h -38.123 v 19.061 h 9.532 v 28.213 h -54.392 v -37.746 l -9.529,-9.528 h -56.803 l -9.531,9.528 v 19.068 h 19.062 v -9.535 h 37.741 v 28.213 h -69.13 v 38.123 h 12.327 v 37.742 l 9.531,9.529 h 56.803 l 9.529,-9.529 v -19.064 h -19.06 v 9.533 h -37.741 v -28.211 h 111.193 v 28.211 h -15.887 v -9.533 h -19.06 v 28.593 h 89.036 v -28.593 h -19.145 v 9.533 h -15.886 V -61.502 H -82.6 v 28.211 h -6.351 v 19.06 h 31.766 v -19.06 h -6.351 v -28.211 h 38.121 v 28.211 h -6.355 z m -31.766,-113.607 h 38.121 v 28.211 h -38.121 z" /></g><path
       id="path18"
       style="fill:#00573d;fill-opacity:1;fill-rule:evenodd;stroke:none"
       d="M 291.259,70.719 H 259.183 V 48.553 h 32.076 z M 245.376,23.448 234.073,34.743 V 70.719 H 179.377 V 48.554 h 9.533 V 23.448 h -44.172 v 25.106 h 9.531 V 70.719 H 105.93 V 34.743 L 94.627,23.448 H 35.32 L 24.017,34.743 v 23.344 h 25.11 V 48.554 H 80.82 V 70.719 H 11.689 v 44.171 h 12.328 v 35.97 L 35.32,162.161 H 94.627 L 105.93,150.86 V 127.518 H 80.82 v 9.536 H 49.127 V 114.89 h 105.142 v 22.164 h -9.836 v -9.536 h -25.11 v 34.643 h 95.083 v -34.643 h -25.19 v 9.536 h -9.839 V 114.89 h 54.696 v 22.164 h -6.35 v 25.107 h 37.811 v -25.107 h -6.351 V 114.89 h 32.076 v 22.164 h -6.355 v 25.107 h 37.815 v -25.107 h -6.355 V 114.89 h 12.327 V 70.719 H 316.364 V 34.743 L 305.062,23.448 Z" /><path
       id="path20"
       style="fill:#cfa641;fill-opacity:1;fill-rule:nonzero;stroke:none"
       d="m 262.21,67.693 h 26.022 V 51.578 H 262.21 Z m 63.536,97.493 h -6.05 -31.77 -6.049 v -6.047 -19.063 -6.047 h 6.049 0.306 V 117.912 H 262.21 v 16.117 h 0.301 6.05 v 6.047 19.063 6.047 h -6.05 -31.766 -6.049 v -6.047 -19.063 -6.047 h 6.049 0.302 v -16.117 h -48.645 v 16.117 h 3.787 v -3.486 -6.049 h 6.049 19.145 6.048 v 6.049 28.596 6.047 h -6.048 -89.035 -6.05 v -6.047 -28.596 -6.049 h 6.05 19.06 6.05 v 6.049 3.486 h 3.787 V 117.912 H 52.151 v 16.117 h 25.644 v -3.486 -6.049 h 6.049 19.061 6.049 v 6.049 19.064 2.505 l -1.771,1.773 -9.531,9.53 -1.772,1.771 H 93.375 36.573 34.066 l -1.771,-1.771 -9.531,-9.53 -1.772,-1.773 v -2.505 -31.695 H 14.714 8.665 v -6.047 -38.123 -6.049 h 6.049 63.081 V 51.578 H 52.151 v 3.486 6.049 h -6.049 -19.06 -6.05 V 55.064 35.996 33.491 l 1.774,-1.771 9.531,-9.528 1.769,-1.771 h 2.507 56.802 2.505 l 1.77,1.771 9.531,9.528 1.773,1.771 v 2.505 31.697 h 42.291 V 51.578 h -3.482 -6.05 v -6.047 -19.06 -6.05 h 6.05 38.125 6.049 v 6.05 19.06 6.047 h -6.049 -3.486 v 16.115 h 48.645 V 35.996 33.491 l 1.773,-1.771 9.53,-9.528 1.771,-1.771 h 2.506 57.185 2.505 l 1.771,1.771 9.532,9.528 1.771,1.771 v 2.505 31.697 h 6.278 6.049 v 6.049 38.123 6.047 h -6.049 -6.278 v 16.117 h 0.305 6.05 v 6.047 19.063 z M 256.161,45.531 h 38.121 v 28.211 h -38.121 z m 63.535,113.608 v -19.063 h -6.354 v -28.211 h 12.327 V 73.742 H 313.342 V 35.996 l -9.53,-9.525 h -57.185 l -9.531,9.525 V 73.742 H 176.354 V 45.531 h 9.534 v -19.06 h -38.125 v 19.06 h 9.531 V 73.742 H 102.905 V 35.996 l -9.53,-9.525 H 36.573 l -9.531,9.525 v 19.068 h 19.06 v -9.533 h 37.742 v 28.211 h -69.13 v 38.123 h 12.328 v 37.742 l 9.531,9.532 h 56.802 l 9.53,-9.532 V 130.543 H 83.844 v 9.533 H 46.102 v -28.211 h 111.192 v 28.211 h -15.886 v -9.533 h -19.06 v 28.596 h 89.035 v -28.596 h -19.145 v 9.533 h -15.884 v -28.211 h 60.742 v 28.211 h -6.351 v 19.063 h 31.766 v -19.063 h -6.35 v -28.211 h 38.12 v 28.211 h -6.355 v 19.063 z" /><g
       transform="translate(28.0581,106.4502)"
       id="g22"><path
         id="path24"
         style="fill:#ffffff;fill-opacity:1;fill-rule:nonzero;stroke:none"
         d="M 0,0 -1.559,-7.267 H 10.089 L 5.736,-27.583 h 9.196 l 4.361,20.316 h 11.655 l 1.634,7.618 H 0.073 Z" /></g><g
       id="g26"><g
         clip-path="url(#clipPath32)"
         id="g28"><g
           transform="translate(93.189,94.3853)"
           id="g34"><path
             id="path36"
             style="fill:#ffffff;fill-opacity:1;fill-rule:nonzero;stroke:none"
             d="m 0,0 -0.628,-2.914 c -0.917,-3.884 -1.684,-4.987 -5.469,-5.068 h -10.609 c -2.867,0.104 -3.407,0.599 -3.48,2.384 0,0.66 0.117,1.494 0.335,2.494 l 0.631,2.913 c 0.775,3.308 1.71,5.005 5.911,5.07 h 9.717 C -0.388,4.79 0.205,3.957 0.278,2.144 0.278,1.535 0.175,0.812 0,0 M -0.315,12.715 H -13.61 c -7.514,0.057 -12.753,-2.011 -14.45,-10.14 l -1.726,-8.071 c -0.272,-1.221 -0.396,-2.319 -0.396,-3.306 0.008,-5.559 4.326,-7.009 10.645,-7.015 h 13.295 c 0.102,-0.004 0.204,-0.004 0.305,-0.004 7.352,0 12.473,2.122 14.146,10.142 l 1.726,8.071 c 0.264,1.238 0.396,2.325 0.396,3.309 -0.016,5.558 -4.323,7.007 -10.646,7.014" /></g><g
           transform="translate(132.7568,89.8999)"
           id="g38"><path
             id="path40"
             style="fill:#ffffff;fill-opacity:1;fill-rule:nonzero;stroke:none"
             d="m 0,0 -5.472,16.9 h -13.427 l -0.073,-0.35 -5.919,-27.583 h 8.979 l 3.937,18.359 6.335,-18.359 h 6.731 l 14.076,18.174 -3.9,-18.174 h 8.98 L 26.237,16.9 H 12.733 Z" /></g><g
           transform="translate(187.0723,89.8999)"
           id="g42"><path
             id="path44"
             style="fill:#ffffff;fill-opacity:1;fill-rule:nonzero;stroke:none"
             d="m 0,0 -5.48,16.898 h -13.413 l -0.073,-0.35 -5.919,-27.581 h 8.979 l 3.937,18.339 6.327,-18.339 H 1.097 L 15.168,7.153 11.263,-11.033 h 8.982 l 5.994,27.931 H 12.723 Z" /></g><g
           transform="translate(222.8657,106.4502)"
           id="g46"><path
             id="path48"
             style="fill:#ffffff;fill-opacity:1;fill-rule:nonzero;stroke:none"
             d="M 0,0 -5.917,-27.583 H 3.291 L 9.281,0.351 H 0.073 Z" /></g><g
           transform="translate(241.6968,106.4521)"
           id="g50"><path
             id="path52"
             style="fill:#ffffff;fill-opacity:1;fill-rule:nonzero;stroke:none"
             d="m 0,0 -5.923,-27.584 h 30.984 l 1.584,7.393 H 4.875 l 0.733,3.44 H 25.78 l 1.387,6.489 H 7.001 l 0.737,3.45 h 21.287 l 1.539,7.165 H 0.073 Z" /></g><g
           transform="translate(303.791,107.0996)"
           id="g54"><path
             id="path56"
             style="fill:#ffffff;fill-opacity:1;fill-rule:nonzero;stroke:none"
             d="m 0,0 h -11.576 c -10.562,0.095 -12.237,-4.086 -13.203,-9.019 -0.307,-1.383 -0.49,-2.567 -0.49,-3.588 0.027,-4.13 3.277,-5.086 13.074,-5.096 4.648,0 7.456,-0.027 9.036,-0.248 1.638,-0.285 1.697,-0.486 1.735,-1.007 0,-0.185 -0.032,-0.425 -0.087,-0.705 -0.383,-1.764 -1.825,-1.901 -3.604,-1.927 h -10.158 c -2.067,0.085 -2.595,0.053 -2.631,1.375 0,0.309 0.042,0.706 0.146,1.19 l 0.101,0.528 h -9.193 l -0.072,-0.342 -0.4,-1.869 c -0.205,-0.924 -0.306,-1.765 -0.306,-2.521 0.006,-4.211 3.423,-5.299 9.752,-5.305 l 10.047,0.006 c 10.962,-0.105 14.219,1.369 15.733,8.829 0.278,1.358 0.441,2.512 0.441,3.528 -0.037,5.01 -4.124,5.637 -14.085,5.637 h -0.816 -2.22 c -2.927,0 -4.739,0.051 -5.746,0.256 -1.029,0.274 -1.039,0.382 -1.088,0.877 0,0.181 0.033,0.425 0.101,0.712 0.25,1.168 1.355,1.728 3.16,1.749 h 9.181 C -0.232,-7.007 -0.014,-7.33 0,-8.049 0,-8.337 -0.067,-8.733 -0.167,-9.204 L -0.286,-9.74 h 9.204 l 0.265,1.206 C 9.409,-7.411 9.592,-6.36 9.592,-5.375 9.586,-2.065 7.33,-0.01 0,0" /></g></g></g></g></svg>