<?xml version="1.0" encoding="UTF-8" standalone="no"?>
<svg xmlns:rdf="http://www.w3.org/1999/02/22-rdf-syntax-ns#" xmlns="http://www.w3.org/2000/svg" xml:space="preserve" height="135.2" width="111.11" version="1.1" xmlns:cc="http://creativecommons.org/ns#" xmlns:dc="http://purl.org/dc/elements/1.1/" viewBox="0 0 111.11422 135.20003"><g><path d="m35.029 1.0195c-0.108 0.0007-0.215 0.0021-0.322 0.0059-0.083 0.0031-0.165 0.0072-0.244 0.0078l-0.039-0.002c-0.218-0.0024-0.436-0.0025-0.654-0.0019-0.713 0.0019-1.369 0.0212-2.008 0.0625-3.517 0.2244-6.642 1.1173-9.289 2.6504-0.62 0.3587-1.265 0.7903-1.973 1.3203-0.376 0.2819-0.669 0.5292-0.92 0.7773-0.146 0.1438-0.264 0.2933-0.369 0.4239-0.026 0.0312-0.05 0.0624-0.074 0.0918-0.072-0.0663-0.146-0.1415-0.198-0.1934-0.101-0.1019-0.207-0.2063-0.318-0.2988-0.639-0.535-1.323-1.0301-2.033-1.4707-1.456-0.9044-3.025-1.5889-4.662-2.0332-1.481-0.4025-3.0852-0.6251-5.2014-0.7207-0.8287-0.0375-1.5908-0.0546-2.332-0.0528l-0.2988 0.002c-0.2994 0.0031-0.6011 0.0087-0.9004 0.0137l-0.3809 0.0078-0.1191-0.002c-0.0557-0.0006-0.1131-0.0026-0.17-0.0019-0.2387 0-0.5528 0.0194-0.8672 0.1582-0.3937 0.1725-0.6436 0.5175-0.66987 0.9218-0.02938 0.4557 0.22777 0.8826 0.70897 1.1739 0.2006 0.1218 0.4046 0.2183 0.584 0.3027 0.1437 0.0675 0.2802 0.1324 0.3945 0.1992 0.6213 0.3644 1.2435 0.7901 1.8516 1.2676 5.1848 4.0686 7.3756 9.9731 8.2986 14.209 0.577 2.644 0.878 5.61 0.949 9.334 0.069 3.581-0.061 7.052-0.388 10.314-0.177 1.766-0.424 3.469-0.733 5.063-0.258 1.337-0.634 3.086-1.244 4.756-0.505 1.382-1.194 2.492-2.0486 3.302-0.2756 0.262-0.5329 0.478-0.791 0.661-0.0713 0.051-0.1684 0.108-0.2715 0.168-0.2438 0.141-0.5477 0.316-0.8008 0.585-0.2706 0.287-0.3889 0.652-0.332 1.024 0.1056 0.701 0.7751 1.081 1.0976 1.264l0.0274 0.015c0.8193 0.468 1.5458 1.277 2.2849 2.543 0.699 1.198 1.307 2.579 1.807 4.102 1.091 3.325 1.555 6.856 1.838 9.562 0.37 3.533 0.51 7.013 0.416 10.346-0.101 3.627-0.577 6.795-1.455 9.684-1.003 3.299-2.457 5.909-4.3206 7.759-0.9881 0.98-2.1977 1.83-3.5977 2.54-0.3106 0.16-0.6437 0.31-0.9687 0.46l-0.0586 0.02c-0.4375 0.16-1.0989 0.4-1.2696 1.02-0.09 0.33-0.0136 0.67 0.2051 0.93 0.3444 0.42 0.8418 0.43 1.0293 0.44h0.0352c0.2218 0.02 0.4428 0.03 0.664 0.03 0.4506 0.01 0.8968 0 1.418-0.03 1.5606-0.07 3.4018-0.2 5.2306-0.54 1.717-0.31 3.364-0.87 4.892-1.64 1.476-0.75 2.89-1.71 4.204-2.85 0.084-0.07 0.171-0.16 0.259-0.25 0.013-0.01 0.026-0.03 0.041-0.04h0.006c0.078 0.06 0.153 0.12 0.219 0.16 0.52 0.36 1.066 0.63 1.596 0.9 0.215 0.11 0.431 0.22 0.642 0.33 2.713 1.45 5.974 3.07 9.588 4.05 1.761 0.48 3.528 0.83 5.026 1.12 0.4 0.08 0.801 0.15 1.203 0.23l0.187 0.03c0.076 0.01 0.15 0.03 0.227 0.04 0 0.05 0.002 0.1 0.004 0.15 0.008 0.4 0.014 0.8 0.019 1.2l0.002 0.11c0.013 0.87-0.045 1.6-0.182 2.3-0.145 0.75-0.339 1.54-0.593 2.44-0.478 1.69-0.988 3.22-1.561 4.68-1.127 2.86-2.588 5.72-4.465 8.73-0.78 1.25-1.688 2.59-2.855 4.22-0.08 0.11-0.161 0.22-0.242 0.33-0.127 0.17-0.252 0.34-0.373 0.52-0.364 0.52-0.366 0.96-0.305 1.24 0.077 0.34 0.298 0.64 0.621 0.83 0.228 0.13 0.48 0.19 0.748 0.19 0.541 0 0.992-0.27 1.322-0.47 0.07-0.04 0.136-0.09 0.196-0.12 3.098-1.56 5.973-3.49 8.541-5.7 0.678-0.59 1.331-1.18 1.881-1.68l1.218-1.12c1.354 0.56 2.807 1.13 4.344 1.6 3.419 1.06 6.839 1.94 10.168 2.61 3.82 0.76 7.28 1.15 10.576 1.18 1.846 0.02 3.657-0.08 5.33-0.28 1.603-0.2 3.315-0.56 5.235-1.08 7.109-1.96 13.121-4.99 17.869-9.02 2.366-2 4.355-4.33 5.905-6.92 0.76-1.27 1.44-2.62 2.01-4.03 0.29-0.69 0.55-1.4 0.79-2.11 0.1-0.31 0.19-0.62 0.28-0.93 0.12-0.41 0.24-0.8 0.37-1.17 0.43-1.16 1.05-2.09 1.84-2.75 0.19-0.16 0.4-0.32 0.63-0.47l0.09-0.07c0.32-0.2 0.84-0.54 1-1.13 0.21-0.774-0.44-1.302-0.68-1.501l-0.06-0.043c-0.21-0.194-0.44-0.371-0.67-0.545-0.08-0.086-0.17-0.164-0.26-0.227-0.08-0.075-0.16-0.144-0.23-0.209-0.13-0.119-0.25-0.231-0.35-0.339-0.21-0.25-0.39-0.531-0.55-0.832-0.33-0.608-0.54-1.288-0.76-2.006l-0.02-0.071c-0.53-1.703-1.15-3.34-1.84-4.869-1.47-3.265-3.2-5.853-5.286-7.91-1.878-1.849-4.138-3.517-7.115-5.248-2.278-1.324-4.46-2.393-6.624-3.248 0.189-0.13 0.379-0.266 0.567-0.404 0.69-0.508 1.36-1.047 1.99-1.602 1.449-1.278 2.563-2.526 3.408-3.814 0.353-0.538 0.655-1.097 0.948-1.637 0.11-0.204 0.221-0.406 0.334-0.607 0.378-0.679 0.718-1.429 1.07-2.358 0.256-0.677 0.518-1.424 0.82-2.355 0.095-0.292 0.177-0.584 0.254-0.866 0.132-0.475 0.256-0.925 0.436-1.334 0.598-1.362 1.365-2.445 2.283-3.222l0.062-0.053c0.271-0.226 0.682-0.569 0.838-1.113 0.21-0.73-0.402-1.275-0.767-1.6-0.027-0.024-0.049-0.043-0.061-0.055-0.545-0.544-1-1.075-1.389-1.623-0.846-1.191-1.428-2.53-2.043-3.949l-0.07-0.164c-0.522-1.205-1.261-2.773-2.359-4.228-1.661-2.2-3.91-4.184-7.076-6.247-2.937-1.911-5.968-3.386-9.008-4.384-3.802-1.248-7.968-1.875-12.383-1.864-2.729 0.007-5.585 0.259-8.49 0.748-1.702 0.287-3.432 0.646-5.143 1.071-0.81 0.2-1.676 0.428-2.537 0.72-0.387 0.132-0.79 0.284-1.193 0.454-0.117 0.049-0.232 0.103-0.35 0.158-0.239 0.111-0.466 0.216-0.676 0.248-0.1 0-0.375-0.364-0.508-0.539-0.093-0.123-0.186-0.245-0.279-0.356-0.487-0.577-1.035-1.168-1.728-1.859-1.3-1.297-2.488-2.376-3.627-3.301-1.269-1.03-2.601-1.98-3.963-2.824-0.982-0.608-2.004-1.145-2.992-1.666-0.461-0.243-0.922-0.486-1.379-0.736-0.277-0.152-0.994-0.504-1.682-0.502-0.211 0-0.408 0.033-0.588 0.097-0.286 0.101-0.932 0.46-0.75 1.604 0.093 0.582 0.351 0.961 0.617 1.283 1.017 1.234 1.995 2.534 2.907 3.867 3.791 5.543 6.374 11.353 7.675 17.266 1.369 6.218 1.23 12.704-0.398 18.762-0.827 3.075-2.07 6.069-3.695 8.896-0.39 0.678-0.794 1.323-1.284 2.094l-0.089 0.14c-0.15 0.24-0.293 0.466-0.448 0.643-0.038 0.043-0.079 0.087-0.121 0.131-0.22 0.225-0.554 0.566-0.662 1.084-0.164 0.791 0.353 1.367 0.547 1.584 0.208 0.232 0.414 0.496 0.648 0.832 0.513 0.734 0.996 1.471 1.401 2.094 1.522 2.345 2.762 4.755 3.683 7.166 0.764 1.998 1.535 4.314 1.674 6.685-1.227-0.18-2.488-0.43-3.703-0.859-1.439-0.509-2.766-1.206-3.945-2.074-2.215-1.632-3.949-3.876-4.883-6.317-1.136-2.968-1.158-6.232-1.182-9.388-0.028-3.855 0.184-7.228 0.649-10.311 0.569-3.775 1.422-6.447 2.767-8.668 0.447-0.738 0.863-1.291 1.311-1.738 0.257-0.258 0.471-0.435 0.67-0.557 0.024-0.014 0.057-0.031 0.094-0.051 0.341-0.176 1.379-0.714 1.054-1.724-0.174-0.545-0.648-0.845-0.963-1.043-0.049-0.032-0.098-0.061-0.136-0.088-0.274-0.197-0.529-0.419-0.783-0.682-0.457-0.47-0.892-1.026-1.331-1.697-1.759-2.692-2.547-5.947-3.037-8.481-0.583-3.02-0.968-6.271-1.215-10.234-0.45-7.268 0.366-13.332 2.5-18.537 1.189-2.898 2.749-5.3497 4.637-7.2871 0.997-1.0225 2.168-1.9213 3.576-2.75 0.455-0.2675 0.714-0.7568 0.659-1.2461-0.053-0.4663-0.381-0.8494-0.856-1-0.325-0.1038-0.643-0.1159-0.883-0.1153zm28.912 40.088c1.695 0.033 3.385 0.18 5.041 0.44 3.463 0.544 6.282 1.509 8.618 2.947 0.473 0.291 1.068 0.692 1.48 1.209 0.367 0.461 0.635 1.047 0.775 1.692 0.254 1.173-0.018 2.49-0.75 3.613-0.353 0.542-0.804 1.038-1.335 1.474-0.244 0.199-0.505 0.381-0.778 0.539-0.082 0.048-0.174 0.09-0.265 0.135-0.262 0.128-0.558 0.272-0.823 0.506-0.288 0.255-0.411 0.627-0.328 0.992 0.155 0.679 0.859 0.877 1.373 1.024l0.069 0.017c0.726 0.257 1.401 0.583 2.007 0.969 0.824 0.525 1.906 1.418 2.379 2.688 0.402 1.078 0.25 2.356-0.404 3.419-0.656 1.069-1.676 1.843-2.939 2.745-1.249 0.89-2.623 1.673-4.082 2.33-2.724 1.224-5.855 2.044-9.309 2.435-1.624 0.185-3.311 0.275-5.154 0.28-0.414 0.001-0.828-0.003-1.243-0.01-1.719-0.031-3.546-0.097-5.382-0.348 1.24-6.48 1.161-13.277-0.235-19.724l-1.037-3.858c-0.078-0.25-0.155-0.501-0.232-0.754-0.242-0.789-0.488-1.601-0.778-2.398 0.155-0.063 0.308-0.127 0.461-0.192 0.178-0.075 0.355-0.148 0.534-0.22 0.818-0.33 1.671-0.579 2.324-0.756 1.582-0.431 3.244-0.749 4.939-0.947 1.68-0.197 3.379-0.279 5.074-0.247zm3.469 42.079h0.256c3.365-0.009 6.661 0.36 9.795 1.095 1.605 0.378 3.215 0.865 4.787 1.451 1.262 0.472 2.909 1.124 4.457 1.985 2.421 1.346 4.173 3.263 4.934 5.396 0.526 1.476 0.495 2.609-0.092 3.467-0.308 0.45-0.766 0.877-1.401 1.305-0.288 0.194-0.605 0.356-0.943 0.529-0.224 0.115-0.45 0.23-0.685 0.363-0.192 0.109-0.64 0.363-0.776 0.868-0.076 0.278-0.039 0.565 0.106 0.815 0.258 0.45 0.716 0.56 0.933 0.62l0.115 0.03c0.168 0.04 0.311 0.08 0.436 0.13 0.703 0.28 1.413 0.72 2.053 1.27 1.123 0.97 1.73 2.27 1.623 3.49-0.005 0.04-0.008 0.08-0.012 0.11v0.01l-0.002 0.01c-0.062 0.66-0.26 1.28-0.572 1.79l-0.115 0.19c-0.37 0.6-0.721 1.18-1.162 1.62-0.93 0.94-2.092 1.81-3.659 2.74-0.71 0.42-1.466 0.81-2.177 1.16-0.212 0.1-0.423 0.21-0.633 0.32-0.558 0.28-1.086 0.54-1.631 0.78-1.399 0.61-2.951 1.14-4.609 1.58-3.305 0.87-6.583 1.31-9.745 1.32h-0.177c-3.136-0.01-6.446-0.42-10.118-1.25-1.255-0.29-2.602-0.66-4.119-1.14-0.616-0.19-1.236-0.37-1.855-0.56-0.431-0.13-0.869-0.26-1.307-0.39 0.615-1.45 1.07-2.73 1.41-3.98 0.247-0.9 0.453-1.8 0.606-2.49 0.027-0.12 0.056-0.24 0.084-0.36 0.056-0.24 0.113-0.48 0.162-0.74 0.91-0.03 1.806-0.05 2.709-0.05 2.57-0.01 4.509 0.18 6.283 0.62 2.132 0.52 5.084 1.62 7.041 3.88 0.405 0.47 0.729 0.97 0.965 1.48l0.047 0.11c0.211 0.47 0.651 1.46 1.65 1.54 0.04 0.01 0.079 0.01 0.116 0.01 0.221 0 1.326-0.09 1.361-1.74 0.005-0.3-0.011-0.58-0.028-0.85-0.011-0.18-0.021-0.36-0.023-0.55-0.021-1.6-0.044-3.42-0.455-5.2-0.44-1.91-1.171-3.52-2.17-4.78-0.127-0.16-0.273-0.31-0.414-0.45-0.121-0.12-0.312-0.31-0.383-0.42 0.063-0.13 0.176-0.28 0.293-0.431 0.077-0.102 0.153-0.202 0.223-0.303 0.259-0.376 0.504-0.783 0.728-1.209 0.776-1.472 1.331-3.146 1.651-4.975 0.31-1.771 0.306-3.508 0.273-5.279-0.002-0.081-0.001-0.164 0-0.246 0.001-0.325 0.001-0.693-0.084-1.074-0.135-0.614-0.638-1.235-1.336-1.233-0.347 0.002-0.675 0.159-0.922 0.444-0.342 0.395-0.38 0.874-0.402 1.16-0.004 0.051-0.007 0.101-0.014 0.146-0.045 0.298-0.14 0.616-0.279 0.944-0.876 2.061-2.846 3.862-5.549 5.068-1.282 0.573-2.699 1.013-4.328 1.346-1.43 0.292-2.861 0.423-4.377 0.562l-0.678 0.061c-0.43 0.04-0.849 0.082-1.271 0.137-0.001-0.006-0.002-0.01-0.002-0.014-0.044-0.503-0.094-0.953-0.15-1.377-0.059-0.433-0.138-0.855-0.213-1.266-0.081-0.437-0.156-0.85-0.209-1.267-0.125-0.977-0.255-1.834-0.399-2.621-0.168-0.931-0.353-1.834-0.511-2.598-0.02-0.098-0.045-0.198-0.071-0.299-0.02-0.077-0.047-0.178-0.062-0.258 0.012-0.004 0.026-0.009 0.041-0.013 1.55-0.475 3.214-0.966 4.875-1.346 3.343-0.764 6.744-1.166 10.107-1.193zm40.41 15.8c0.06 0.035 0.33 0.275 0.04 0.059-0.05-0.058-0.06-0.07-0.04-0.059z" fill="#eba91b" transform="translate(0 -.0025483)"/><path style="" d="m107.32 99.804c-0.005-0.0031-0.009-0.0069-0.0144-0.01l-0.0669-0.05-0.0575-0.06125c-0.0825-0.08875-0.1825-0.18-0.28875-0.27625-0.16062-0.1475-0.34312-0.31375-0.51375-0.51562-0.29562-0.35062-0.55875-0.74062-0.78125-1.16-0.40562-0.76375-0.65187-1.56-0.89062-2.33l-0.03-0.071c-0.505-1.63-1.0944-3.1962-1.7519-4.655-1.375-3.0506-2.9762-5.4531-4.8969-7.3444-1.7631-1.7369-3.9062-3.3138-6.7444-4.9638-2.7688-1.6088-5.3831-2.8288-7.9919-3.7288l-1.6625-0.57312 1.4038-1.0588c0.36562-0.27562 0.74188-0.53 1.105-0.77562 0.32125-0.21688 0.62438-0.4225 0.92062-0.64 0.642-0.476 1.268-0.981 1.857-1.5 1.3219-1.1662 2.3306-2.2906 3.0825-3.4369 0.31-0.47188 0.58-0.97125 0.86688-1.5006 0.11375-0.21062 0.2275-0.42062 0.34438-0.62938 0.33312-0.5975 0.63688-1.2669 0.95562-2.1081 0.245-0.64812 0.49625-1.37 0.79-2.2725 0.08187-0.25188 0.15312-0.51062 0.22875-0.78375 0.14375-0.51938 0.2925-1.0562 0.52688-1.5888 0.71375-1.625 1.6519-2.9362 2.7869-3.8981l0.01625-0.01313c-0.0225-0.02125-0.04188-0.03937-0.05625-0.05375-0.62125-0.62-1.1419-1.2294-1.5925-1.8638-0.96062-1.3519-1.6075-2.8462-2.2338-4.2906l-0.07-0.1625c-0.48-1.11-1.158-2.549-2.138-3.846-1.525-2.021-3.624-3.866-6.604-5.806-2.8-1.824-5.683-3.228-8.568-4.175-3.612-1.186-7.581-1.782-11.796-1.771-2.6269 0.0069-5.3806 0.25-8.1844 0.7225-1.655 0.27938-3.3381 0.63-5.0025 1.0431-0.77 0.19-1.592 0.404-2.386 0.674-0.3475 0.11812-0.70812 0.25562-1.0719 0.40812-0.095 0.04-0.19 0.085-0.28562 0.12875-0.32875 0.15312-0.70062 0.32625-1.14 0.39625-0.10625 0.0175-0.21375 0.02625-0.31812 0.02687-1.035 0.0025-1.62-0.77125-2.0069-1.2831-0.07187-0.095-0.14312-0.19-0.21562-0.27625-0.452-0.535-0.967-1.089-1.621-1.741-1.255-1.2519-2.3938-2.29-3.4831-3.1744-1.2075-0.98-2.4756-1.8831-3.77-2.685-0.9275-0.57438-1.92-1.0975-2.8794-1.6038-0.337-0.177-0.673-0.355-1.008-0.535 0.88812 1.1069 1.7431 2.26 2.5488 3.4375 3.9281 5.7425 6.6056 11.771 7.9588 17.921 1.4319 6.5094 1.2875 13.304-0.41812 19.651-0.86875 3.2325-2.1744 6.3762-3.8806 9.3444-0.40875 0.71062-0.825 1.3725-1.3262 2.1625l-0.08438 0.13375c-0.17375 0.27688-0.37062 0.59062-0.62312 0.87938-0.05938 0.06813-0.12438 0.135-0.19 0.2025-0.02562 0.02688-0.05625 0.05813-0.08563 0.08938 0.0069 0.0075 0.015 0.01625 0.02313 0.025 0.25938 0.29062 0.51062 0.61125 0.78938 1.0112 0.5275 0.75625 1.0212 1.5081 1.435 2.145 1.5944 2.455 2.8944 4.9838 3.8631 7.5169 0.94188 2.4631 1.8938 5.3931 1.8156 8.4512l-0.027 1.033-1.025-0.128c-1.575-0.197-3.421-0.481-5.164-1.097-1.6138-0.56938-3.105-1.3544-4.4325-2.3312-2.5-1.8425-4.46-4.3831-5.52-7.1538-1.2562-3.2844-1.2831-6.8756-1.3069-10.044-0.02875-3.955 0.19-7.4231 0.66938-10.605 0.60812-4.0312 1.5394-6.9175 3.0181-9.3588 0.52688-0.87062 1.0312-1.5344 1.5869-2.0906 0.295-0.29625 0.56375-0.52562 0.83062-0.71-0.31875-0.23938-0.61938-0.50562-0.91438-0.81-0.54062-0.55812-1.0481-1.2038-1.5525-1.975-1.9388-2.9656-2.7862-6.4481-3.3081-9.15-0.59875-3.1012-0.99438-6.4294-1.2456-10.475-0.46938-7.5562 0.39375-13.89 2.6375-19.363 1.28-3.1199 2.972-5.7724 5.029-7.8824 0.671-0.6887 1.409-1.3256 2.229-1.9231-0.54 0.0069-1.048 0.0256-1.542 0.0575-3.226 0.2062-6.076 1.0144-8.472 2.4012-0.554 0.3213-1.139 0.7138-1.788 1.2-0.31 0.2326-0.534 0.4207-0.726 0.6107-0.069 0.0675-0.144 0.1619-0.224 0.2619-0.136 0.1693-0.29 0.3606-0.495 0.5381-0.284 0.2469-0.621 0.3781-0.976 0.3787-0.71875 0.00188-1.24-0.51938-1.585-0.86438-0.07-0.07-0.135-0.1375-0.195-0.1875-0.572-0.4787-1.184-0.9218-1.82-1.3162-1.302-0.8087-2.704-1.42-4.165-1.8169-1.344-0.365-2.8224-0.5675-4.7961-0.6568-0.6738-0.0307-1.3013-0.0469-1.9081-0.0507 0.3193 0.2213 0.6362 0.455 0.9487 0.7007 5.6225 4.4119 7.9819 10.746 8.9712 15.282 0.60375 2.7669 0.91938 5.8488 0.99312 9.6975 0.07 3.655-0.06375 7.2-0.39812 10.536-0.1825 1.8225-0.4375 3.5825-0.75688 5.2319-0.272 1.405-0.668 3.247-1.323 5.04-0.606 1.657-1.453 3.01-2.519 4.021-0.341 0.323-0.6675 0.595-0.9981 0.828-0.04375 0.03125-0.08875 0.06125-0.1325 0.08938 1.2956 0.84875 2.1394 2.1269 2.6725 3.0406 0.76562 1.3119 1.4281 2.8131 1.9688 4.4612 1.1462 3.4925 1.6294 7.1538 1.9225 9.9525 0.37812 3.6144 0.52125 7.1788 0.42562 10.592-0.107 3.798-0.609 7.127-1.537 10.177-1.0944 3.5988-2.7069 6.4725-4.7931 8.5406-0.80188 0.79563-1.7269 1.5162-2.7606 2.1519 1.2025-0.08 2.5088-0.20688 3.7906-0.44375 1.5406-0.28563 3.0169-0.7825 4.3862-1.4762 1.3381-0.67688 2.6238-1.5488 3.8212-2.59 0.05063-0.04437 0.10125-0.0975 0.15438-0.15188 0.20875-0.21062 0.46812-0.47375 0.83688-0.625 0.15562-0.06375 0.32-0.09625 0.48938-0.09688 0.54375-0.0012 0.94688 0.3175 1.2138 0.52812 0.04063 0.0325 0.07813 0.06312 0.1125 0.08625 0.41688 0.285 0.88625 0.52062 1.3831 0.77 0.23 0.11562 0.45875 0.23126 0.68438 0.35188 2.6206 1.4012 5.7631 2.96 9.1962 3.8931 1.7006 0.46063 3.425 0.80875 4.8869 1.0888 0.3975 0.0756 0.79625 0.15 1.1944 0.22438l0.17125 0.0312c0.1425 0.025 0.285 0.0506 0.42688 0.0825 0.01938 0.002 0.0425 0.004 0.06688 0.006 0.29812 0.0275 0.70688 0.0663 1.0038 0.40125 0.31188 0.3525 0.275 0.77125 0.26312 0.90937 0.005 0.19563 0.0094 0.39313 0.01375 0.59 0.0081 0.40625 0.01438 0.81125 0.02062 1.2169l0.0013 0.10687c0.01563 1.0069-0.05313 1.8625-0.21625 2.6931-0.15562 0.79375-0.36125 1.6406-0.62938 2.5894-0.49562 1.7519-1.0256 3.3388-1.6206 4.8506-1.17 2.9706-2.68 5.9262-4.6175 9.0338-0.68625 1.1-1.4644 2.2644-2.4206 3.6188 2.6206-1.4094 5.0588-3.0825 7.2612-4.9838 0.66062-0.57 1.3012-1.1519 1.8412-1.6462l1.359-1.26c0.13438-0.14437 0.44875-0.48312 0.96312-0.485 0.15188 0 0.30062 0.0294 0.44375 0.0894 1.4331 0.59937 2.9856 1.2244 4.615 1.7294 3.3575 1.04 6.7162 1.8994 9.9825 2.5531 3.7044 0.7425 7.05 1.1181 10.228 1.1494 1.7625 0.0187 3.4894-0.0731 5.0806-0.27062 1.5119-0.18813 3.1375-0.52438 4.9694-1.0281 6.8456-1.8831 12.618-4.7888 17.156-8.635 2.2088-1.8719 4.0612-4.0431 5.5044-6.4538 0.71375-1.1925 1.3519-2.4662 1.8962-3.7862 0.26687-0.64875 0.51562-1.3169 0.73812-1.9881 0.095-0.28625 0.17938-0.57625 0.26375-0.86625 0.12375-0.42188 0.25063-0.85875 0.41063-1.2931 0.54125-1.4688 1.3444-2.6581 2.3875-3.5338 0.22625-0.19 0.47375-0.37812 0.73812-0.55875-0.17125-0.14-0.35312-0.27688-0.54875-0.42375m-57.701-57.951 0.048-0.019c0.22875-0.08875 0.45375-0.18438 0.67875-0.27938 0.18688-0.07875 0.37312-0.1575 0.56125-0.23312 0.90812-0.36562 1.83-0.6325 2.5319-0.82375 1.6725-0.45562 3.4262-0.79312 5.2144-1.0025 3.5269-0.41375 7.1444-0.34375 10.625 0.20375 3.7125 0.58438 6.7562 1.6319 9.3069 3.2025 0.60375 0.37125 1.3725 0.89375 1.9656 1.6394 0.54375 0.685 0.9375 1.535 1.1381 2.4588 0.35938 1.6588-0.0094 3.4931-1.0119 5.0325-0.45875 0.70375-1.0362 1.3425-1.7175 1.9-0.14562 0.11938-0.29688 0.23438-0.45188 0.34312 0.53875 0.23688 1.05 0.50938 1.5281 0.81375 1.5281 0.97312 2.6088 2.2225 3.1262 3.6119 0.60062 1.6144 0.39062 3.5031-0.56312 5.0531-0.9075 1.4756-2.3156 2.48-3.4469 3.2875-1.3488 0.96188-2.8294 1.8075-4.4012 2.5138-2.9006 1.3037-6.2206 2.1737-9.8669 2.5868-1.6925 0.1925-3.4456 0.2875-5.3581 0.29188-0.4275 0.0019-0.85438-0.0012-1.2812-0.0094-1.992-0.037-4.335-0.127-6.62-0.523l-0.9575-0.16562 0.20188-0.95125c1.3856-6.5119 1.3731-13.397-0.03688-19.91-0.24062-1.1125-0.55688-2.2875-0.99562-3.6975l-0.235-0.762c-0.263-0.863-0.537-1.75-0.855-2.587-0.011-0.043-0.229-0.93-0.021-1.274 0.123-0.204 0.283-0.354 0.397-0.446 0.185-0.134 0.368-0.207 0.497-0.256m45.273 64.062c0.015 0.18125-0.0081 0.36437-0.0425 0.51562-0.0975 0.88688-0.38312 1.7456-0.8275 2.4706l-0.11312 0.185c-0.41 0.67188-0.83312 1.3675-1.43 1.9694-1.0444 1.0538-2.3262 2.0169-4.0331 3.0306-0.76438 0.45375-1.5588 0.85688-2.3025 1.2256-0.2075 0.10187-0.41375 0.20625-0.62062 0.31062-0.55625 0.28063-1.1312 0.57125-1.7244 0.83-1.4875 0.65-3.13 1.2131-4.8825 1.6744-3.4581 0.90937-6.8944 1.3756-10.216 1.3844h-0.1875c-3.2756-0.009-6.7194-0.43437-10.528-1.3006-1.305-0.29688-2.7012-0.68125-4.2669-1.1738-0.606-0.19-1.216-0.37-1.827-0.55-0.766-0.23-1.558-0.47-2.338-0.72l-0.99312-0.32313 0.43-0.95125c0.79438-1.7606 1.3456-3.2412 1.7344-4.66 0.23562-0.8625 0.43625-1.7394 0.58438-2.4069 0.02875-0.12875 0.05875-0.25688 0.08938-0.385 0.05812-0.25 0.11375-0.48625 0.15688-0.71938 0.0063-0.0344 0.0081-0.0706 0.01125-0.10687 0.10125-1.1631 0.90125-1.3175 1.24-1.33 1.1019-0.04 2.1812-0.0763 3.2794-0.0794 2.7294-0.006 4.8056 0.20125 6.7338 0.675 2.3969 0.5875 5.7312 1.8425 8.0119 4.4819 0.29938 0.34687 0.56625 0.70875 0.7975 1.0819-0.02-1.5319-0.0525-3.1106-0.40438-4.6394-0.37812-1.6381-0.98812-2.9975-1.8144-4.0406-0.05938-0.0756-0.16063-0.17686-0.26813-0.28373-0.44438-0.44313-1.2712-1.2681-0.82562-2.3862 0.1475-0.37125 0.36938-0.66438 0.56562-0.9225 0.06-0.07937 0.12-0.15812 0.17438-0.23812 0.2175-0.31438 0.42375-0.65688 0.61312-1.0169 0.685-1.3 1.1775-2.7888 1.4638-4.425 0.1725-0.98875 0.2375-1.9888 0.255-3.0019-1.4988 2.5456-4.0069 4.0881-5.9625 4.9612-1.4088 0.62875-2.9512 1.11-4.7156 1.4706-1.5312 0.31312-3.0825 0.45438-4.5819 0.5925l-0.67312 0.06188c-0.41375 0.03875-0.81812 0.07813-1.2112 0.12938l-0.085 0.005c-0.1325 0.01687-0.26625 0.03375-0.39812 0.05687l-0.03625 0.0075c-0.0925 0.01875-0.23188 0.0475-0.39625 0.0475-0.25312 0.0012-0.48062-0.065-0.67625-0.19625-0.23938-0.16-0.51312-0.47375-0.4675-1.0669-0.01313-0.18812-0.02813-0.3775-0.045-0.56625-0.042-0.473-0.088-0.895-0.141-1.289-0.052-0.388-0.123-0.773-0.198-1.179-0.08188-0.44312-0.16625-0.90125-0.22562-1.37-0.12-0.94188-0.245-1.7675-0.3825-2.5219-0.165-0.911-0.346-1.802-0.502-2.553-0.014-0.069-0.033-0.139-0.051-0.209-0.082-0.318-0.195-0.754-0.09-1.241 0.093-0.43 0.4-1.003 1.332-1.289 1.585-0.485 3.287-0.988 5.007-1.381 3.475-0.79375 7.0112-1.2106 10.51-1.24l0.26625-0.0012c3.5106-0.0087 6.9512 0.37688 10.227 1.1456 1.6812 0.395 3.3681 0.90688 5.0138 1.5212 1.3244 0.49438 3.0562 1.18 4.7125 2.1006 2.8181 1.5681 4.8731 3.8419 5.7862 6.4038 0.73125 2.0512 0.6275 3.785-0.30938 5.1531-0.445 0.64875-1.0662 1.2369-1.9 1.7981-0.18562 0.125-0.37188 0.23625-0.55812 0.33938 0.68625 0.34126 1.3588 0.79062 1.9725 1.3194 1.5056 1.2962 2.345 3.0788 2.2819 4.815"/></g></svg>
