<?xml version="1.0" encoding="utf-8"?>
<!-- Generator: Adobe Illustrator 22.0.1, SVG Export Plug-In . SVG Version: 6.00 Build 0)  -->
<svg version="1.1" id="Layer_1" xmlns="http://www.w3.org/2000/svg" xmlns:xlink="http://www.w3.org/1999/xlink" x="0px" y="0px"
	 width="250.1px" height="64.07px" viewBox="0 0 250.1 64.07" enable-background="new 0 0 250.1 64.07" xml:space="preserve">
<g>
	<polygon fill="#819595" points="32.98,64.02 32.98,34.09 61.89,34.09 50.15,46.25 44.72,46.25 44.72,51.86 	"/>
	<path fill="#CC8A00" d="M0.06,29.98L11.8,17.82h5.43v-5.62L28.97,0.05v29.93H0.06z M87.26,47.37H85.3v5.6c0,1.13-0.76,2-1.79,2
		c-1.05,0-1.8-0.86-1.8-2v-5.6h-1.97v5.68c0,2.18,1.29,3.8,3.77,3.8c2.47,0,3.76-1.62,3.76-3.8V47.37z M92.11,56.6h1.97v-6.58h0.02
		L98,56.6h2.57v-9.24H98.6v6.42h-0.02l-3.8-6.42h-2.67V56.6z M105.51,56.6h1.97v-9.24h-1.97V56.6z M115.3,56.6h1.58l3.68-9.24h-2.11
		l-2.24,6.06h-0.03l-2.21-6.06h-2.24L115.3,56.6z M124.59,56.6h6.29v-1.88h-4.32v-1.88h3.87v-1.88h-3.87v-1.72h4.1v-1.88h-6.07V56.6
		z M136.25,56.6h1.97v-3.69h0.97l1.87,3.69h2.36l-2.27-3.9c1.26-0.24,1.93-1.24,1.93-2.53c0-2.15-1.54-2.81-3.37-2.81h-3.46V56.6z
		 M138.21,49.09h1.29c0.72,0,1.53,0.14,1.53,1.07c0,1.01-0.93,1.03-1.65,1.03h-1.16V49.09z M153.65,48.1
		c-0.76-0.69-1.73-0.97-2.74-0.97c-1.75,0-3.41,1.03-3.41,3c0,3.08,4.19,2.17,4.19,3.86c0,0.65-0.72,0.97-1.36,0.97
		c-0.66,0-1.31-0.33-1.72-0.87l-1.4,1.59c0.84,0.81,1.85,1.16,3,1.16c1.84,0,3.44-0.98,3.44-3.04c0-3.24-4.11-2.15-4.11-3.84
		c0-0.69,0.77-0.95,1.32-0.95c0.48,0,1.11,0.2,1.42,0.61L153.65,48.1z M158.57,56.6h1.97v-9.24h-1.97V56.6z M167.52,56.6h1.97v-7.44
		h2.55v-1.8h-7.06v1.8h2.55V56.6z M178.69,56.6h1.97v-3.94l3.35-5.3h-2.33l-2,3.46l-1.89-3.46h-2.45l3.35,5.3V56.6z"/>
	<path fill="#555025" d="M17.23,51.86v-5.62h-5.43L0.05,34.09v0h28.92v29.92L17.23,51.86z M77.63,31.74c0,4.57,3.49,9.51,9.14,9.51
		c4.26,0,6.36-2.69,6.74-3.23l0.07-0.11l-2.21-1.72l-0.08,0.11c-1.07,1.55-2.62,2.38-4.47,2.38c-4.2,0-6.4-3.49-6.4-6.93
		c0-4.2,2.69-7.24,6.4-7.24c1.62,0,3.2,0.78,4.13,2.02l0.08,0.11l2.19-1.72l-0.08-0.11c-1.32-1.8-3.65-2.87-6.24-2.87
		C81.44,21.93,77.63,25.97,77.63,31.74 M134.5,22.39v14.67c-0.36-0.56-9.5-14.67-9.5-14.67h-3.32v18.4h2.63V26.11
		c0.36,0.55,9.6,14.68,9.6,14.68h3.22v-18.4H134.5z M142.76,31.74c0,4.57,3.49,9.51,9.14,9.51c4.26,0,6.36-2.69,6.74-3.23l0.07-0.11
		l-2.21-1.72l-0.08,0.11c-1.07,1.55-2.62,2.38-4.47,2.38c-4.2,0-6.4-3.49-6.4-6.93c0-4.2,2.69-7.24,6.4-7.24
		c1.62,0,3.2,0.78,4.13,2.02l0.08,0.11l2.18-1.72l-0.08-0.11c-1.32-1.8-3.65-2.87-6.24-2.87C146.57,21.93,142.76,25.97,142.76,31.74
		 M224.77,40.79h2.64v-18.4h-2.64V40.79z M106.79,21.93c5.28,0,9.26,4.15,9.26,9.66c0,5.51-3.98,9.66-9.26,9.66
		c-5.28,0-9.26-4.15-9.26-9.66C97.53,26.08,101.51,21.93,106.79,21.93 M106.79,38.68c3.75,0,6.48-2.98,6.48-7.09
		c0-4.11-2.73-7.09-6.48-7.09c-3.75,0-6.48,2.98-6.48,7.09C100.31,35.7,103.03,38.68,106.79,38.68 M171.92,21.93
		c5.28,0,9.26,4.15,9.26,9.66c0,5.51-3.98,9.66-9.26,9.66c-5.28,0-9.26-4.15-9.26-9.66C162.66,26.08,166.64,21.93,171.92,21.93
		 M171.92,38.68c3.75,0,6.48-2.98,6.48-7.09c0-4.11-2.73-7.09-6.48-7.09c-3.75,0-6.48,2.98-6.48,7.09
		C165.45,35.7,168.17,38.68,171.92,38.68 M194.25,32.46c0.17,0.29,5.01,8.33,5.01,8.33h-3.28c0,0-4.38-7.86-4.45-7.99h-2.44v7.99
		h-2.64v-18.4h6.29c5.19,0,5.75,3.64,5.75,5.2C198.49,30.08,196.71,32.08,194.25,32.46 M192.07,30.38c2.48,0,3.63-0.89,3.63-2.79
		c0-1.9-1.16-2.79-3.63-2.79h-2.99v5.57H192.07z M210.26,22.39c6.89,0,9.34,4.96,9.34,9.2c0,4.57-3.34,9.2-9.73,9.2h-5.85v-18.4
		H210.26 M209.51,38.22c3.37,0,7.29-1.74,7.29-6.63c0-0.68-0.19-6.63-6.72-6.63h-3.43v13.25H209.51 M250.05,40.79h-3.06
		c0,0-1.69-4.32-1.76-4.48h-8.16c-0.06,0.16-1.73,4.48-1.73,4.48h-3.06l7.84-18.4h2.32L250.05,40.79z M244.27,33.89
		c-0.13-0.34-2.92-7.45-3.1-7.9c-0.18,0.44-3.01,7.55-3.15,7.9H244.27z M191.66,56.6h1.97v-9.24h-1.97V56.6z M199.2,56.6h1.97v-3.69
		h0.97L204,56.6h2.36l-2.27-3.9c1.26-0.24,1.93-1.24,1.93-2.53c0-2.15-1.54-2.81-3.37-2.81h-3.46V56.6z M201.17,49.09h1.29
		c0.72,0,1.53,0.14,1.53,1.07c0,1.01-0.93,1.03-1.65,1.03h-1.16V49.09z M213.08,56.6h1.58l3.68-9.24h-2.11l-2.24,6.06h-0.03
		l-2.21-6.06h-2.24L213.08,56.6z M222.4,56.6h1.97v-9.24h-1.97V56.6z M229.95,56.6h1.97v-6.58h0.02l3.9,6.58h2.57v-9.24h-1.97v6.42
		h-0.02l-3.8-6.42h-2.67V56.6z M243.52,56.6h6.29v-1.88h-4.32v-1.88h3.87v-1.88h-3.87v-1.72h4.1v-1.88h-6.07V56.6z"/>
</g>
</svg>
