<?xml version="1.0" encoding="UTF-8" standalone="no"?>
<svg xmlns:rdf="http://www.w3.org/1999/02/22-rdf-syntax-ns#" xmlns="http://www.w3.org/2000/svg" xml:space="preserve" height="35.204" viewBox="0 0 122.508 35.204499" width="122.51" version="1.1" xmlns:cc="http://creativecommons.org/ns#" xmlns:dc="http://purl.org/dc/elements/1.1/"><g transform="matrix(1.25 0 0 -1.25 -4.4954 38.353)"><g><path d="m0.61328 0.54102v2.082c0 0.6688 0.35649 1.1147 1.0215 1.2559 0.0412 0.0075 0.1012 0.0177 0.1875 0.0352 0.08 0.0137 0.2244 0.0393 0.4394 0.0781l0.6153 0.1113v15.138l-0.6387 0.113c-0.205 0.038-0.3474 0.064-0.4199 0.079l-0.1973 0.033c-0.65001 0.14-1.0078 0.586-1.0078 1.256l-0.00002 2.08h10.75c1.289 0 2.449-0.166 3.448-0.492 1.012-0.33 1.878-0.796 2.576-1.385 0.703-0.593 1.245-1.309 1.611-2.125 0.366-0.815 0.553-1.715 0.553-2.674 0-2.415-1.265-4.051-3.766-4.873 0.326-0.154 0.627-0.325 0.895-0.508 0.508-0.345 0.935-0.738 1.271-1.1679 0.335-0.4337 0.587-0.9041 0.748-1.4004 0.16-0.4937 0.24-1.0166 0.24-1.5566 0-0.9275-0.159-1.7751-0.474-2.5176-0.319-0.755-0.829-1.4082-1.514-1.9394-0.674-0.5225-1.541-0.9303-2.58-1.209-1.029-0.27502-2.278-0.41408-3.709-0.41408h-10.049zm19.604 0v2.084c0 0.6688 0.358 1.1127 1.021 1.2539l1.244 0.2246v9.7075c0 1.315 0.217 2.554 0.643 3.679 0.427 1.13 1.048 2.118 1.85 2.938 0.803 0.822 1.789 1.469 2.927 1.926 1.137 0.456 2.435 0.687 3.858 0.687 1.422 0 2.722-0.231 3.859-0.687 1.143-0.458 2.131-1.105 2.936-1.926 0.807-0.822 1.43-1.812 1.857-2.938 0.425-1.124 0.643-2.362 0.643-3.679v-9.7075l1.257-0.2265c0.65-0.1388 1.008-0.5832 1.008-1.252v-2.084l-9.334 0.00002v2.084c0 0.6688 0.358 1.1139 1.016 1.2539 0.046 0.0088 0.125 0.0202 0.236 0.0352 0.102 0.0137 0.267 0.04 0.502 0.08 0.178 0.0275 0.392 0.0644 0.643 0.1094v9.7075c0 0.786-0.108 1.504-0.321 2.136-0.208 0.623-0.513 1.16-0.904 1.592-0.389 0.43-0.873 0.769-1.439 1.008-0.565 0.24-1.225 0.361-1.959 0.361-0.731 0-1.392-0.121-1.959-0.361-0.565-0.239-1.044-0.579-1.428-1.014-0.39-0.439-0.692-0.976-0.9-1.597-0.212-0.634-0.319-1.354-0.319-2.139v-9.6935c0.25-0.0462 0.464-0.0819 0.643-0.1094 0.231-0.04 0.399-0.0663 0.5-0.08 0.11-0.015 0.188-0.0271 0.244-0.0371 0.648-0.1388 1.004-0.5832 1.004-1.252v-2.084l-9.328 0.00002zm24.746 0v5.7637h2.047c0.54 0 0.9-0.2874 1.015-0.8262 0.028-0.1562 0.07-0.4787 0.123-0.9824h3.79v14.746l-1.258 0.225c-0.648 0.14-1.006 0.586-1.006 1.256v2.08h9.197v-2.08c0-0.67-0.357-1.116-1.017-1.258l-1.247-0.223v-14.746l3.789 0.0001c0.058 0.5262 0.098 0.8368 0.125 0.998 0.115 0.5238 0.475 0.8106 1.016 0.8106h2.045v-5.7637l-18.619 0.00002zm20.41 0v2.084c0 0.6688 0.357 1.1134 1.025 1.2559 0.039 0.0062 0.098 0.0164 0.182 0.0351l1.059 0.1875v15.138l-1.262 0.225c-0.646 0.139-1.004 0.586-1.004 1.256v2.082h16.305v-5.823h-1.918c-0.539 0-0.9 0.289-1.018 0.829-0.02 0.112-0.055 0.487-0.101 1.023h-6.33v-14.73l1.253-0.227c0.65-0.1413 1.008-0.5845 1.008-1.252v-2.084l-9.199 0.00002zm18.244 0v2.084c-0.002 0.6675 0.355 1.1114 1.022 1.2539l0.185 0.0352c0.078 0.0137 0.227 0.04 0.44 0.08l0.617 0.1094v15.138l-1.067 0.19c-0.077 0.015-0.136 0.027-0.195 0.037-0.647 0.139-1.004 0.582-1.002 1.254v2.08h16.543v-6.346h-2.045c-0.54 0-0.9 0.29-1.015 0.826-0.037 0.213-0.097 0.73-0.192 1.656h-6.326v-5.46h7.309v-3.7446h-7.309v-5.3438h6.326c0.093 0.9238 0.155 1.441 0.194 1.666 0.112 0.5263 0.471 0.8125 1.013 0.8125h2.045v-6.3281l-16.543 0.00002zm18.513 0v2.0801c0 0.67 0.35 1.1166 1.02 1.2578 0.04 0.0075 0.1 0.0177 0.18 0.0352 0.09 0.0125 0.23 0.0393 0.45 0.0781l0.61 0.1094v15.14l-1.26 0.227c-0.65 0.139-1 0.584-1 1.254v2.08h9.2v-2.08c0-0.67-0.36-1.117-1.02-1.258l-1.25-0.223v-4.883h1.19c0.42 0 0.64 0.07 0.75 0.127 0.15 0.084 0.3 0.232 0.44 0.444l4.54 6.92c0.2 0.298 0.45 0.536 0.73 0.701 0.3 0.167 0.65 0.252 1.05 0.252h4.36v-2.08c0-0.67-0.36-1.116-1.02-1.258l-0.23-0.035c-0.11-0.014-0.29-0.042-0.53-0.078-0.2-0.034-0.46-0.078-0.77-0.133l-3.33-4.905c-0.26-0.376-0.55-0.698-0.88-0.964 0.55-0.213 1.05-0.475 1.5-0.78 0.62-0.416 1.15-0.908 1.57-1.463 0.42-0.55 0.75-1.1765 0.98-1.859 0.22-0.6775 0.34-1.4053 0.34-2.164 0-0.9538-0.17-1.8426-0.5-2.6426-0.33-0.81-0.86-1.5137-1.57-2.0937-0.71-0.5725-1.62-1.0242-2.7-1.3379-1.08-0.31128-2.39-0.46878-3.88-0.46878h-8.97zm-94.579 3.7598h3.1112c1.278 0 2.219 0.2186 2.795 0.6523 0.556 0.4163 0.824 1.1178 0.824 2.1465 0 0.9825-0.301 1.6751-0.924 2.1113-0.646 0.4563-1.628 0.6875-2.919 0.6875h-2.8872v-5.5976zm101.51 0h2.04c1.4 0 2.45 0.2743 3.11 0.8105 0.64 0.5275 0.96 1.2703 0.96 2.2715 0 0.5025-0.09 0.9719-0.25 1.3906-0.16 0.4088-0.41 0.7689-0.73 1.0664-0.33 0.3042-0.76 0.5432-1.28 0.7152-0.52 0.178-1.15 0.269-1.87 0.269h-1.98v-6.5232zm-101.51 9.0272h3.7402c0.669 0 1.248 0.068 1.721 0.199 0.448 0.127 0.823 0.307 1.105 0.539 0.274 0.23 0.479 0.509 0.608 0.829 0.132 0.333 0.201 0.719 0.201 1.144 0 0.408-0.063 0.8-0.184 1.162-0.12 0.351-0.315 0.661-0.58 0.92-0.269 0.265-0.635 0.482-1.09 0.645-0.463 0.166-1.061 0.25-1.767 0.25h-3.7542v-5.688z" transform="matrix(.8 0 0 -.8 3.5963 30.682)" fill="#13294b"/><path d="m77.117 26.873c-0.432 0-0.877 0.061-1.297 0.191-0.957 0.312-1.869 1.046-1.869 2.141 0 1.289 1.063 1.903 2.231 1.92l1.125 0.021c1.106 0.022 1.478 0.04 1.871 0.292 0.312 0.201 0.502 0.482 0.502 0.855 0 1.086-1.49 1.346-2.323 1.346-1.308 0-2.171-0.271-3.136-1.164l-0.764 0.732c1.076 1.095 2.221 1.537 3.75 1.537 1.468 0 3.547-0.541 3.547-2.361 0-0.785-0.381-1.467-1.055-1.869-0.745-0.443-1.427-0.453-2.26-0.453h-1.119c-0.593 0-1.267-0.133-1.267-0.866 0-0.976 1.47-1.205 2.205-1.205 0.974 0 1.547 0.28 2.361 0.783l0.615-0.875c-0.906-0.682-1.992-1.025-3.117-1.025zm-57.771 0.201v4.655c0 0.663 0.039 1.196 0.422 1.759 0.613 0.905 1.78 1.237 2.826 1.237 1.005 0 2.198-0.24 2.844-1.086 0.482-0.623 0.533-1.145 0.533-1.91v-4.655h-1.076v4.655c0 1.477-0.753 1.9-2.131 1.9-0.633 0-1.438-0.08-1.91-0.553-0.392-0.392-0.424-0.824-0.424-1.347v-4.655h-1.084zm10.683 0v7.5h1.076v-5.711l4.524 5.711h1.084v-7.5h-1.104v5.731l-4.515-5.731h-1.065zm10.604 0v7.5h1.076v-7.5h-1.076zm3.678 0l3.296 7.5h1.297l3.348-7.5h-1.205l-2.785 6.276-2.766-6.276h-1.185zm10.693 0v7.5h6.365v-1.095h-5.267v-2.252h2.552v-1.084h-2.552v-1.963h5.076v-1.106h-6.174zm9.529 0v7.5h1.096v-3.105h2.797l1.506 3.105h1.238l-1.561-3.146c1.084-0.26 1.729-1.005 1.729-2.143 0-1.426-0.996-2.211-2.361-2.211h-4.444zm19.276 0v7.5h1.074v-7.5h-1.074zm4.08 0v1.096h2.673v6.404h1.069v-6.404h2.64v-1.096h-6.382zm8.269 0l3.049 4.252v3.248h1.083v-3.248l3.1-4.252h-1.36l-2.26 3.178-2.291-3.178h-1.321zm-30.529 1.086h3.348c0.712 0 1.277 0.283 1.277 1.067 0 0.795-0.535 1.146-1.277 1.146h-3.348v-2.213z" transform="matrix(.8 0 0 -.8 3.5963 30.682)" fill="#7b7979"/></g></g></svg>
