<?xml version="1.0" encoding="utf-8"?>
<!-- Generator: Adobe Illustrator 22.0.1, SVG Export Plug-In . SVG Version: 6.00 Build 0)  -->
<svg version="1.1" id="Layer_1" xmlns="http://www.w3.org/2000/svg" xmlns:xlink="http://www.w3.org/1999/xlink" x="0px" y="0px"
	 width="134.93px" height="149.99px" viewBox="0 0 134.93 149.99" enable-background="new 0 0 134.93 149.99" xml:space="preserve">
<g>
	<path fill="#FFFFFF" d="M31.96,51.92C29.1,49.83,18.3,40.68,18.98,26.75c0.07-1.44,0.26-6.92,0.59-11.33
		C19.92,10.69,20.82,0,20.82,0S31.3,8.33,47.17,8.33l49.3-0.01c18.92,0,45.04,16.91,36.96,48.29l-9.47,39.42l2.21,20.7
		c-23.39,1.12-36.97,29.76-36.97,29.76c-7.53-4.41-14.18-7.54-19.9-9.35c-34.96-10.56-67.7,12.85-67.7,12.85s-9.7-34.38,18.73-56.11
		l0.69-2.46l-10.16-0.13C12.21,64.84,26.97,54.37,31.96,51.92"/>
	<path fill="#041E42" d="M35.37,55.04c0,0,1.53-4.23,1.89-4.86c-3.68-2.03-6.5-4.51-9.4-9.04c-3.35-5.24-4.38-10.99-4.72-14.77
		c-0.18-1.96,1.32-19.81,1.32-19.81s7.64,5.96,22.7,5.96l49.3-0.01c17.19,0,40.07,15.22,32.91,43.06l-9.66,40.19l1.89,17.68
		c-26.34,5.63-34.06,27.3-34.06,27.3c-21.93-17.4-63.55-12.94-82.72,1.89c0,0-3.99-29.45,19.15-46.24l2.56-9.08l-10.65-0.13
		C21.14,58.75,35.37,55.04,35.37,55.04"/>
	<path fill="#FFFFFF" d="M34.56,98.7l6.22-22.03l-9.6-0.12c0,0,2.29-6.41,5.26-9.36c2.62-2.6,8.11-4.87,8.11-4.87
		s2.18-8.62,8.67-12.94c5.99-4,15.71-3.29,15.71-3.29L58.62,84.51c-3.52,6.49-5.16,7.54-10,10.41C43.73,97.81,34.56,98.7,34.56,98.7
		 M77.81,102.89c0.81-1.62,2.54-3.42,4.66-5.07c2.04-1.59,3.38-2.31,5.82-3.18l1.23-9.06c-3.24-1.06-6.81-1.61-10.43-1.61
		c-3.98,0-7.77,0.67-11.28,1.88l-4,14.44C72.29,101.19,77.81,102.89,77.81,102.89z M90.57,81.35l4.38-17.68
		c-3.83,1.28-7.94,1.97-12.24,1.97c-3.23,0-6.45-0.39-9.5-1.14l-4.07,16.36c3.11-0.81,6.39-1.24,9.78-1.24
		C82.93,79.62,86.9,80.22,90.57,81.35z M96.24,58.45l1.28-5.16c0.79-2.82,0.36-5.41-0.83-7.48c-1.02-1.78-7.84-2.3-10.27-2.3
		l-7.55-0.03l-4.55,16.85c2.62,0.62,5.4,0.95,8.21,0.95c4.78,0,9.3-0.96,13.38-2.69L96.24,58.45z M73.96,43.46L53.2,43.37
		c-7.06-0.03-11.89-1.31-16.22-8.07c-4.03-6.3-3.1-15.1-3.1-15.1s7.17,3.12,11.9,3.12l50.69-0.01c12.44,0,27.3,10.64,22.44,29.56
		l-10.14,42.17l1.22,11.35c0,0-9.46,2.43-16.49,8.92c-4.43,4.09-9.73,11.89-9.73,11.89s-8.65-5.95-32.98-7.03
		c-22.42-1-33.79,7.3-33.79,7.3s1.35-11.08,9.46-19.19c7.26-7.26,18.51-9.17,32.45-8.39L73.96,43.46z"/>
	<path fill="#BA0C2F" d="M48.25,62.46c0.06-0.12,0.12-0.25,0.17-0.39c0.27-0.76,0.68-1.81,1.27-2.98c1.2-2.38,3-5.02,5.54-6.71
		c2.49-1.66,6.03-2.34,8.95-2.59l-8.95,33.36c-1.57,2.86-2.61,4.31-3.67,5.34c-1.11,1.09-2.37,1.87-4.79,3.3
		c-1.84,1.09-4.62,1.89-7.17,2.43l5.96-21.12l-8.8-0.11c0.7-1.28,1.47-2.47,2.24-3.23c0.92-0.92,2.55-1.92,4.16-2.77
		c1.52-0.8,2.76-1.31,2.78-1.32l1.69-0.7L48.25,62.46 M93.14,85.94l7.9-31.75C104.6,37.64,86.42,39.9,86.42,39.9l-9.19-0.04h-0.28
		l-23.74-0.11c-6.34-0.03-9.75-1.03-13.18-6.39c-1.54-2.4-2.21-5.39-2.47-7.93c2.37,0.74,5.48,1.54,8.21,1.54l50.69-0.01
		c10.76,0,23.03,9.06,18.91,25.05l-10.29,42.81l0.97,9.04c-6.32,1.61-18.91,9.33-23.43,18.7c-4.58-2.03-14.37-5.22-31.68-5.99
		c-12.8-0.56-22.24,1.76-28.25,4.05c1.29-3.14,3.17-6.83,6.33-9.76c15.27-14.13,50.67-3.6,50.67-3.6c3.19-7.88,11.9-9.93,11.9-9.93
		L93.14,85.94z"/>
</g>
</svg>
