<?xml version="1.0" encoding="utf-8"?>
<!-- Generator: Adobe Illustrator 15.0.2, SVG Export Plug-In . SVG Version: 6.00 Build 0)  -->
<!DOCTYPE svg PUBLIC "-//W3C//DTD SVG 1.1//EN" "http://www.w3.org/Graphics/SVG/1.1/DTD/svg11.dtd">
<svg version="1.1" id="Layer_1" xmlns="http://www.w3.org/2000/svg" xmlns:xlink="http://www.w3.org/1999/xlink" x="0px" y="0px"
	 width="200px" height="45.512px" viewBox="0 0 200 45.512" enable-background="new 0 0 200 45.512" xml:space="preserve">
<path fill="#F58220" d="M76.426,34.752l2.493,1.448l-1.357,2.607l-7.165-3.672l1.224-7.983l2.925,0.428l-0.376,3.302
	c2.457-0.588,4.283-2.811,4.283-5.459c0-1.668-0.354-2.8-1.504-3.828c-1.926-2.194-3.095-5.075-3.095-8.233
	c0-6.872,5.542-12.444,12.376-12.444c6.835,0,12.377,5.573,12.377,12.444c0,1.319-0.204,2.588-0.581,3.781l-4.352-0.729
	c0.382-0.942,0.593-1.971,0.593-3.052c0-4.462-3.599-8.08-8.038-8.08s-8.036,3.618-8.036,8.08c0,2.01,1.054,4.235,1.937,5.262
	c1.821,2.118,2.676,4.179,2.674,6.799C82.803,29.678,80.156,33.313,76.426,34.752"/>
<path fill="#0099D8" d="M98.125,29.785l-0.051-2.895l2.922-0.174l0.559,8.067l-7.436,3.058l-1.141-2.743l3.008-1.375
	c-1.767-1.814-4.601-2.244-6.859-0.88c-1.423,0.86-2.205,1.747-2.489,3.267c-0.878,2.791-2.733,5.282-5.424,6.908
	c-5.859,3.539-13.463,1.632-16.983-4.259c-3.52-5.892-1.624-13.536,4.235-17.076c1.124-0.679,2.311-1.157,3.521-1.446l1.621,4.125
	c-1,0.156-1.987,0.506-2.907,1.062c-3.805,2.298-5.035,7.264-2.749,11.089c2.286,3.826,7.223,5.063,11.028,2.764
	c1.713-1.034,3.067-3.089,3.488-4.378c0.867-2.66,2.184-4.458,4.418-5.807C90.515,26.9,94.977,27.31,98.125,29.785"/>
<path fill="#9BCD66" d="M83.551,13.719l-2.44,1.534l-1.653-2.43l6.588-4.637l6.436,4.834l-1.75,2.396l-2.722-1.884
	c-0.635,2.457,0.456,5.122,2.784,6.364c1.466,0.785,2.624,1.002,4.067,0.463c2.831-0.679,5.91-0.365,8.681,1.118
	c6.036,3.227,8.328,10.762,5.117,16.832c-3.209,6.068-10.702,8.372-16.737,5.145c-1.158-0.619-2.177-1.396-3.046-2.291l2.682-3.521
	c0.647,0.783,1.453,1.453,2.402,1.96c3.919,2.095,8.785,0.599,10.869-3.342s0.596-8.834-3.324-10.929
	c-1.764-0.944-4.213-1.054-5.528-0.75c-2.714,0.623-4.924,0.413-7.225-0.819C85.013,21.763,83.063,17.707,83.551,13.719"/>
<path fill="#006C85" d="M32.579,21.535c0,0,0,0,2.526,0s5.54-0.574,5.54-4.751c0-4.763-5.052-4.178-5.052-4.178h-3.014V21.535
	 M26.713,7.362h10.266c0,0,9.252,0.329,9.533,8.765c0.244,7.375-4.075,8.603-4.645,8.93c0,0,1.034,0.894,2.119,2.131
	c1.222,1.393,2.036,2.375,3.096,4.423c1.059,2.048,5.703,8.439,5.703,8.439c0.109-0.038,0-32.688,0-32.688h5.702v33.425h-12.22
	c0,0-5.629-9.213-6.6-9.995c-0.814-0.655-2.117-3.932-5.458-3.932c-3.34,0-1.63,0-1.63,0v13.927h-5.866V7.362z"/>
<polyline fill="#006C85" points="0.683,7.362 23.413,7.362 23.413,12.606 15.185,12.606 15.185,40.787 9.325,40.787 9.325,12.606 
	0.683,12.606 0.683,7.362 "/>
<path fill="#006C85" d="M150.283,16.565l-3.97,9.511h8.236L150.283,16.565 M119.702,21.542c0,0,0,0,2.525,0s5.541-0.574,5.541-4.752
	c0-4.762-5.052-4.178-5.052-4.178h-3.015V21.542z M113.837,7.369h10.265c0,0,9.253,0.33,9.532,8.766
	c0.243,7.373-4.075,8.601-4.644,8.929c0,0,1.034,0.894,2.118,2.13c1.224,1.393,2.038,2.376,3.098,4.424
	c1.058,2.047,2.227,3.734,2.227,3.734c0.106-0.038,11.784-27.991,11.784-27.991h4.237l14.773,33.425h-6.028l-4.237-9.414h-12.931
	l-3.926,9.414l-6.718,0.007c0,0-5.627-9.213-6.598-9.995c-0.814-0.655-2.12-3.932-5.458-3.932c-3.34,0-1.63,0-1.63,0v13.927h-5.865
	V7.369z"/>
<polyline fill="#006C85" points="167.401,7.362 173.253,7.362 173.253,40.794 167.394,40.794 167.401,7.362 "/>
<polyline fill="#006C85" points="179.176,7.4 184.995,7.4 184.995,35.626 199.537,35.626 199.537,40.787 179.134,40.832 
	179.176,7.4 "/>
<g>
	<path fill="#006C85" d="M192.75,6.766h-1.12V6.359h2.727v0.407h-1.126v3.296h-0.48V6.766z"/>
	<path fill="#006C85" d="M197.869,8.436c-0.027-0.516-0.06-1.143-0.06-1.599h-0.011c-0.132,0.429-0.279,0.896-0.465,1.406
		l-0.649,1.796h-0.361l-0.601-1.763c-0.175-0.527-0.316-1-0.421-1.439h-0.011c-0.011,0.461-0.038,1.077-0.071,1.637l-0.098,1.587
		h-0.454l0.257-3.703h0.606l0.629,1.791c0.152,0.456,0.272,0.862,0.371,1.247h0.011c0.099-0.374,0.229-0.78,0.394-1.247l0.655-1.791
		h0.606l0.229,3.703h-0.47L197.869,8.436z"/>
</g>
</svg>
