<svg xmlns="http://www.w3.org/2000/svg" height="170.82" viewBox="0 0 250 170.82271" width="250"><g transform="matrix(1.25 0 0 -1.25 -212.65 750.24)"><g><path d="m69.289 1.0742l-15.621 55.666h-41.99l-10.131 36.098c-1.9738 7.03 0.1159 14.602 15.637 14.602h11.822c5.366 0 8.918-0.88 10.871-1.57l-6.861 24.46c-2.205 7.86-2.692 39.57 70.414 39.57 78.12 0 89.01-35.64 89.44-37.16l7.58-27.03h3.14l0.9-3.18s2.41 3.74 13.5 3.74h5.84c12.92 0 18.6-4.87 20.66-12.198l3.81-13.586c2.24-7.967-1.2-14.597-15.63-14.597h-5.84c-9.33 0-12.88 2.435-12.88 2.435h-3l18.87-67.25-66.87 0.0002-15.62 55.666h-15.83l-3.25 11.584h-6.37s-1.13-0.943-4.13-1.656l18.41-65.594-66.871 0.0002zm51.031 98.633s0.88 6.003 7.46 6.003h5.81l-2.76 9.82c-0.7 2.48-3.53 4.74-5.95 4.74h-20.06c-1.32 0-1.93-0.65-1.46-2.33l3.34-11.91c10.52-1.15 13.62-6.323 13.62-6.323z" transform="matrix(.8 0 0 -.8 170.12 600.19)" fill="#231f20"/><path d="m15.055 61.191l-9.221 32.85c-1.6258 5.794 0.8819 8.949 11.35 8.949h11.82c10.468 0 14.742-3.155 16.371-8.949l4.703-16.764h22.553c0.72 0 1.145 0.59 0.945 1.313l-3.724 13.258c-0.204 0.723-0.957 1.31-1.68 1.31h-5.588c-0.72 0-1.147-0.587-0.943-1.31l2.377-8.463h-11.584l-7.407 26.395h11.58l2.985-10.62s2.001 2.65 6.406 2.65h2.494c6.056 0 10.609-1.65 12.658-8.941l5.157-18.379c0.64-2.283-0.703-4.15-2.987-4.15h-31.293l2.567-9.149h-15.071l-8.377 29.84c-0.199 0.72-0.956 1.313-1.679 1.313h-6.774c-0.723 0-1.146-0.593-0.943-1.313l8.373-29.84h-15.068zm119.82 0l-3.26 11.58h-3.13l-1.27 4.506h3.14l-5.56 19.832c-0.64 2.284 0.7 4.151 2.98 4.151h11.73l1.35-4.815h-1.83c-0.72 0-1.14-0.593-0.94-1.316l5.01-17.852h3.14l1.26-4.506h-3.14l3.25-11.58h-12.73zm60.71 0l-3.25 11.58h-3.14l-1.27 4.506h3.15l-5.57 19.832c-0.64 2.284 0.7 4.151 2.99 4.151h11.72l1.35-4.815h-1.83c-0.72 0-1.14-0.593-0.94-1.316l5.01-17.852h3.14l1.26-4.506h-3.13l3.24-11.58h-12.73zm-90.19 9.147c-10.471 0-14.741 3.152-16.371 8.945-1.374 4.898 1.53 6.084 1.53 6.084l13.671 5.586c0.6 0.248 0.94 1.044 0.73 1.764l-0.67 2.414c-0.21 0.723-0.96 1.312-1.69 1.312h-3.213c-0.724 0-1.147-0.589-0.944-1.312l1.282-4.567h-13.862l-0.646 2.305c-1.623 5.794 0.882 8.951 11.349 8.951h5.844c10.47 0 14.74-3.157 16.37-8.951 1.47-5.232-1.75-6.545-1.75-6.545l-13.35-5.459c-0.61-0.251-0.94-1.04-0.74-1.763l0.58-2.081c0.21-0.723 0.96-1.312 1.69-1.312h2.02c0.73 0 1.15 0.589 0.95 1.312l-1 3.555h13.86l0.36-1.293c1.63-5.793-0.88-8.945-11.35-8.945h-4.65zm60.72 0.002c-10.48 0-14.75 3.151-16.38 8.941l-0.94 3.369h13.86l1.58-5.627c0.2-0.723 0.95-1.312 1.67-1.312h3.22c0.73 0 1.15 0.589 0.95 1.312l-1.37 4.87-17.17 4.502c-2.25 0.589-4.59 2.838-5.2 5.001l-1.45 5.174c-0.8 2.883 0.89 5.25 3.78 5.25h5.52c1.53 0 2.92-0.23 4.14-0.56h18.81l6.16-21.979c1.63-5.79-0.88-8.941-11.34-8.941h-5.84zm60.71 0c-10.47 0-14.75 3.151-16.37 8.941l-3.81 13.588c-1.63 5.794 0.87 8.941 11.34 8.941h5.84c10.48 0 14.75-3.147 16.38-8.941l1.2-4.287h-13.86l-1.84 6.547c-0.2 0.723-0.96 1.316-1.68 1.316h-3.22c-0.72 0-1.14-0.593-0.94-1.316l2.39-8.518h19.7l1.51-5.367 0.55-1.963c1.62-5.79-0.88-8.941-11.35-8.941h-5.84zm-0.2 5.369h3.22c0.72 0 1.14 0.589 0.94 1.312l-1.18 4.223h-5.84l1.18-4.223c0.2-0.723 0.96-1.312 1.68-1.312zm-59.13 10.514l-2.5 8.908c-0.21 0.723-0.96 1.314-1.68 1.314h-3.22c-0.72 0-1.15-0.591-0.94-1.314l1.22-4.34c0.2-0.723 0.96-1.602 1.68-1.953l5.44-2.615z" transform="matrix(.8 0 0 -.8 170.12 600.19)" fill="#fff"/><path d="m166.33 5.5273l-14.37 51.213h1.52l-3.25 11.584h3.01s3.67-2.435 12.87-2.435h5.84c8.7 0 11.83 2.435 11.83 2.435h5.18l3.25-11.584h17.36l14.37-51.213-57.61 0.0003zm-93.668 0.002l-14.371 51.211h2.174l-2.57 9.149h25.423c4.947 0 6.752 3.968 6.752 3.968s4.27-3.968 15.33-3.968h4.65c1.19 0 2.27 0.045 3.26 0.121l16.97-60.481-57.618 0.0003zm9.209 95.581s-3.344 5.16-13.381 5.16h-2.494c-1.336 0-2.556-0.18-3.648-0.47l-2.366 8.43h-17.826l-4.853 17.3s-9.517 33.91 66.127 33.91c75.64 0 85.15-33.91 85.15-33.91l7.25-25.82h-7.34c-5.14 0-6.82-4.12-6.82-4.12l-1.16 4.12h-21.63c-1.41 0.34-2.97 0.56-4.69 0.56h-5.52c-1.48 0-2.6-0.34-3.16-0.56h-7.3l-3.09 11.02c-1.23 4.4-5.84 8-10.24 8h-20.06c-4.39 0-6.981-3.6-5.748-8l2.938-10.46h-5.446c-12.827 0-14.693-5.16-14.693-5.16z" fill-opacity=".94118" transform="matrix(.8 0 0 -.8 170.12 600.19)" fill="#005e3f"/></g></g></svg>
