<?xml version="1.0" encoding="utf-8"?>
<!-- Generator: Adobe Illustrator 13.0.1, SVG Export Plug-In . SVG Version: 6.00 Build 14948)  -->
<!DOCTYPE svg PUBLIC "-//W3C//DTD SVG 1.1//EN" "http://www.w3.org/Graphics/SVG/1.1/DTD/svg11.dtd">
<svg version="1.1" id="Layer_1" xmlns="http://www.w3.org/2000/svg" xmlns:xlink="http://www.w3.org/1999/xlink" x="0px" y="0px"
	 width="164.5px" height="79px" viewBox="-2.882 -1.887 164.5 79" enable-background="new -2.882 -1.887 164.5 79"
	 xml:space="preserve">
<path fill="#231F20" d="M15.02,0.007H0v2.447c4.945,0,4.298,3.328,4.298,3.328s0,18.388,0,21.068c0,2.68-2.68,2.68-2.68,2.68H0.094
	v2.264h14.508v-2.402c-0.239,0-0.706,0-1.569,0c-2.681,0-2.635-2.589-2.635-2.589v-8.731c0,0,3.929,0.046,4.898,0.046
	s10.675,0.971,10.675-8.872C25.971-0.593,15.02,0.007,15.02,0.007 M14.372,15.116H10.26V3.194h3.649
	c2.218,0,6.238,0.972,6.238,5.406C20.38,15.669,14.372,15.116,14.372,15.116z"/>
<path fill="#231F20" d="M27.586,8.461V6.522H38.77v1.986c0,0-3.374-0.603-3.374,2.401c0,3.003,0,12.523,0,12.523
	c0,1.985,0.748,4.099,2.125,5.035c3.468,2.356,9.427,0.508,9.427-3.882c0-7.624,0.047-13.307,0-13.261
	c0.047-2.125,0.185-2.817-3.511-2.817c-0.047,0,0-1.896,0-1.896h10.259v1.802c0,0-2.957-0.417-2.957,2.956
	c0,3.651,0,13.355,0,13.402c0,1.938-1.479,7.9-9.289,7.9c-8.966,0-10.768-5.036-10.768-8.364V11.003
	C30.682,11.003,31.052,8.461,27.586,8.461"/>
<path fill="#231F20" d="M108.782,8.375V6.435h11.182V8.42c0,0-3.373-0.601-3.373,2.401c0,3.004,0,12.522,0,12.522
	c0,1.987,0.749,4.1,2.125,5.036c3.466,2.357,9.428,0.508,9.428-3.881c0-7.624,0.046-13.309,0-13.261
	c0.046-2.126,0.183-2.819-3.514-2.819c-0.045,0,0-1.894,0-1.894h10.258v1.801c0,0-2.955-0.415-2.955,2.958c0,3.649,0,13.354,0,13.4
	c0,1.938-1.481,7.9-9.288,7.9c-8.965,0-10.768-5.037-10.768-8.365V10.916C111.877,10.916,112.248,8.375,108.782,8.375"/>
<path fill="#231F20" d="M79.572,29.81c-0.463,0-2.22-0.511-2.819-3.515c-0.706-3.522-0.97-5.637-3.881-7.299
	c3.42-1.524,3.881-3.559,3.881-6.838c0-3.281-3.694-5.636-7.116-5.636H55.772v1.938h1.479c0,0,1.987-0.416,1.987,2.636
	c0,3.049,0,16.91,0,16.91s-0.093,1.896-2.266,1.896c-0.752,0-1.063,0-1.063,0v1.893h11.506v-1.893h-1.063
	c0,0-2.264-0.139-2.264-2.542c0-2.405,0-6.932,0-6.932h3.512c0,0,2.818,0,3.792,3.557c0.97,3.56,1.755,7.533,2.126,7.81h6.976V29.81
	C80.495,29.81,80.033,29.81,79.572,29.81 M66.797,18.037h-2.669v-8.92h3.823c0,0,4.225-0.239,4.225,4.42
	C72.176,18.195,67.714,18.037,66.797,18.037z"/>
<path fill="#231F20" d="M94.938,6.39H81.754v1.952c0,0,3.471-0.563,3.471,2.559s0,17.216,0,17.216s-0.348,1.775-2.602,1.775
	c-0.434,0-0.78,0-0.78,0v1.909h14.959c0,0,11.273-0.303,11.273-12.185C108.423,7.691,98.97,6.39,94.938,6.39 M94.156,29.201h-4.205
	V8.948h3.858c2.603,0,9.148,0.825,9.148,9.497C103.565,29.634,94.156,29.201,94.156,29.201z"/>
<path fill="#231F20" d="M155.123,11.421v1.907h2.297V6.39h-20.511v2.125h1.563c0,0,1.993,0.176,1.993,1.997
	c0,1.819,0,17.519,0,17.519s-0.348,1.821-1.82,1.821c-1.477,0-1.778,0.041-1.778,0.041v1.909h20.858v-7.544h-2.256v1.561
	c0,0,0.129,3.6-3.902,3.382c-4.465,0-6.33,0-6.33,0v-9.107h3.601c0,0,2.035-0.261,2.035,3.253c0,0.043,1.994,0,1.994,0v-9.193H150.7
	v1.387c0,0,0.044,1.996-2.168,1.996s-3.382,0-3.382,0V9.252h7.326C152.476,9.252,155.123,8.993,155.123,11.421"/>
<rect x="0.842" y="35.076" fill="#D5A10F" width="156.896" height="1.64"/>
<path fill="#D5A10F" d="M1.542,41.73H1.203v-0.917h3.761v0.819c0,0-0.915-0.119-0.915,0.604c0,0.722,0,4.652,0,4.652
	s-0.123,1.085,1.566,1.085c1.687,0,1.735-1.229,1.735-1.979c0-0.746,0-3.254,0-3.254s0-1.109-1.108-1.109c0,0.023,0-0.795,0-0.795
	h3.447v0.818c0,0-0.796-0.047-0.796,1.156c0,1.208,0,4.295,0,4.295s-0.024,2.265-3.278,2.265c-3.255,0-3.568-2-3.568-2.411
	c0-0.409,0-4.725,0-4.725S1.926,41.73,1.542,41.73"/>
<path fill="#D5A10F" d="M19.213,41.657h-0.145v-0.844h3.495l2.819,5.764h0.169v-4.365c0,0-0.097-0.456-0.794-0.456
	c0,0.024-0.241,0-0.241,0v-0.894h3.688v0.82h-0.216c0,0-0.797,0.023-0.797,0.867c0,0.577,0,6.653,0,6.653h-2.363l-2.723-5.618
	l-0.218-0.19v4.482c0,0,0.071,0.627,0.987,0.627c0.024,0,0,0.677,0,0.677h-3.784v-0.677c0,0,1.013-0.17,1.013-0.649
	c0-0.481,0-5.689,0-5.689S19.985,41.657,19.213,41.657"/>
<path fill="#D5A10F" d="M38.114,41.707h-0.361V40.79h3.979v0.867c0,0-0.917,0-0.917,0.508c0,0.507,0,5.593,0,5.593
	s0.048,0.651,1.013,0.651c0.023,0.024,0,0.795,0,0.795h-4.024v-0.771c0,0,0.892-0.121,0.892-0.579c0-0.457,0-5.666,0-5.666
	S38.742,41.707,38.114,41.707"/>
<path fill="#D5A10F" d="M119.642,41.707h-0.36V40.79h3.978v0.867c0,0-0.914,0-0.914,0.508c0,0.507,0,5.593,0,5.593
	s0.046,0.651,1.014,0.651c0.021,0.024,0,0.795,0,0.795h-4.026v-0.771c0,0,0.892-0.121,0.892-0.579c0-0.457,0-5.666,0-5.666
	S120.271,41.707,119.642,41.707"/>
<path fill="#D5A10F" d="M50.916,41.657v-0.844h3.688v0.844c0,0-0.964,0.025-0.867,0.458c0.097,0.436,1.662,4.751,1.662,4.751h0.22
	l1.469-4.315c0,0,0.291-0.65-0.337-0.819c-0.265,0-0.554,0.024-0.554,0.024v-0.917h3.568v0.699c0,0-0.411,0.022-0.677,0.674
	c-0.267,0.652-2.556,7.09-2.556,7.09h-2.146l-2.629-6.991C51.761,42.309,51.422,41.755,50.916,41.657"/>
<path fill="#D5A10F" d="M74.907,42.671v0.556h0.987V40.79h-6.92v0.748c0,0,1.038,0.119,1.038,0.867c0,0.747,0,5.184,0,5.184
	s-0.193,0.846-1.062,0.846c0,0.023,0,0.698,0,0.698h7.041V46.36h-0.918c0,0,0.098,1.566-0.916,1.566c-1.011,0-2.096,0-2.096,0
	v-2.482h0.19c0,0,0.99-0.412,1.254,0.82c0.025,0.021,0.797,0,0.797,0V43.37c0,0-0.024-0.144-0.24-0.144c-0.218,0-0.628,0-0.628,0
	s0.071,0.962-0.676,0.962c-0.746,0-0.746,0-0.746,0v-2.24h1.929C73.943,41.948,74.907,42.043,74.907,42.671"/>
<path fill="#D5A10F" d="M93.831,48.312c-0.409,0-1.183-0.266-1.254-1.158c-0.15-1.88-0.938-2.218-0.938-2.218
	s-0.194-0.098-0.023-0.098c0.167,0,1.033-0.361,1.033-1.902c0-2.025-1.783-2.123-1.783-2.123h-5.328v0.747
	c1.11,0,1.04,0.604,1.04,0.604s0,4.652,0,5.474c0,0.82-0.991,0.747-0.991,0.747v0.796h4.051c0,0,0.022-0.868,0-0.868
	c-1.086,0-1.035-0.794-1.035-0.794v-1.859c0,0,0.845,0,1.181,0c0.337,0,0.796,0.218,0.892,1.568c0.098,1.35,0.627,1.977,0.627,1.977
	h2.556C93.854,49.204,93.854,48.262,93.831,48.312 M89.324,44.455h-0.699v-2.46h1.107c0,0,0.917,0.074,0.917,1.205
	C90.649,44.333,89.927,44.43,89.324,44.455z"/>
<path fill="#D5A10F" d="M108.175,43.344h1.085v-2.338c0,0-2.218-1.084-4.604-0.217c-2.388,0.867-1.663,3.256-0.99,3.762
	c0.675,0.506,2.966,1.374,3.521,1.783c0.555,0.411,0.796,1.665-0.795,1.882c-1.593,0.218-2.098-0.677-2.169-1.688h-1.038v2.361
	c0,0,0.94,0.387,1.712,0.411c0.771,0.023,3.038,0.388,4.123-0.844c1.084-1.229,0.627-2.652-0.073-3.256
	c-0.698-0.602-2.676-1.254-3.205-1.543c-0.53-0.289-1.014-1.206-0.146-1.736c0.867-0.528,1.88-0.119,2.121,0.05
	S108.127,42.838,108.175,43.344"/>
<path fill="#D5A10F" d="M132.568,43.25v-2.412h7.668v2.436c0,0,0.023,0.171-0.169,0.171c-0.193,0-0.797,0-0.797,0
	s-0.168-1.4-0.893-1.4s-0.892,0-0.892,0v5.595c0,0-0.049,0.747,1.085,0.747c0.049,0,0.095,0.191,0.095,0.337
	c0,0.145,0.026,0.436-0.216,0.436s-3.93,0-3.93,0s-0.215-0.047-0.215-0.461c0-0.216,0.254-0.252,0.254-0.252
	s0.877,0.014,0.877-1.023s0-5.352,0-5.352h-1.205c0,0-0.577-0.025-0.577,1.083c-0.05,0.268-0.073,0.242-0.192,0.314
	c-0.122,0.072-0.724,0-0.724,0S132.568,43.444,132.568,43.25"/>
<path fill="#D5A10F" d="M149.13,41.442V40.79h3.811v0.867c0,0-0.819,0-0.604,0.58c0.131,0.352,1.034,1.88,1.034,1.88
	s0.845-1.519,0.918-1.712s0.265-0.723-0.48-0.723v-0.869h3.399v0.869c0,0-0.604,0.048-1.062,0.867
	c-0.459,0.819-1.907,3.135-1.907,3.135v2.266c0,0,0.099,0.483,1.014,0.483c0.024,0,0,0.698,0,0.698h-4.002v-0.724
	c0,0,0.796,0.024,0.989-0.604c0.192-0.628,0-1.904,0-1.904s-1.664-3.277-2.29-3.906c-0.289-0.288-0.304-0.361-0.603-0.361
	C149.082,41.633,149.13,41.442,149.13,41.442"/>
<path fill="#231F20" d="M48.708,65.198c-0.585-1.534-1.395-2.049-2.411-2.049c-1.705,0-2.79,1.9-2.79,4.065
	c0,2.615,1.189,4.396,2.79,4.396c1.207,0,1.877-0.875,2.688-2.133l0.62,0.116c-0.19,0.615-0.5,1.739-0.758,2.295
	c-0.413,0.103-1.533,0.336-2.515,0.336c-3.756,0-5.132-2.409-5.132-4.704c0-2.922,2.135-4.984,5.493-4.984
	c1.033,0,1.962,0.19,2.377,0.279c0.102,0.893,0.172,1.49,0.258,2.293L48.708,65.198"/>
<path fill="#231F20" d="M54.275,69.055c-0.104,0.262-0.329,0.938-0.501,1.489c-0.24,0.808-0.154,0.907,0.946,1.025v0.479h-3.443
	V71.57c0.912-0.089,1.102-0.189,1.6-1.406l3.049-7.437l0.813-0.19l0.999,2.689c0.653,1.709,1.289,3.434,1.877,4.924
	c0.479,1.229,0.702,1.331,1.528,1.42v0.479h-4.164V71.57c0.913-0.104,1.049-0.206,0.772-0.894c-0.152-0.393-0.447-1.198-0.637-1.622
	L54.275,69.055 M56.856,68.338l-1.103-3.141H55.7c-0.412,1.051-0.79,2.061-1.186,3.141H56.856z"/>
<path fill="#231F20" d="M64.438,64.584c0-1.188-0.141-1.303-1.292-1.389v-0.481h4.597v0.481c-1.153,0.086-1.292,0.201-1.292,1.389
	v5.58c0,0.673,0.068,0.998,0.361,1.128c0.277,0.117,0.688,0.132,1.238,0.132c0.655,0,1.297-0.112,1.639-0.483
	c0.275-0.275,0.534-0.758,0.811-1.433l0.622,0.104c-0.122,0.6-0.416,2.087-0.535,2.438h-7.563v-0.479
	c1.273-0.089,1.414-0.206,1.414-1.376V64.584"/>
<path fill="#231F20" d="M73.294,64.584c0-1.188-0.139-1.303-1.276-1.389v-0.481h4.514v0.481c-1.085,0.086-1.225,0.201-1.225,1.389
	v3.492c0,2.061,0.689,3.143,2.291,3.143c1.636,0,2.357-1.215,2.357-3.448v-1.488c0-1.186-0.087-1.873-0.153-2.343
	c-0.091-0.479-0.434-0.7-1.429-0.743v-0.481h3.771v0.481c-0.743,0.043-1.119,0.264-1.188,0.743c-0.07,0.47-0.156,1.128-0.156,2.343
	v1.428c0,1.436-0.223,2.664-1.048,3.494c-0.657,0.66-1.673,1.022-2.757,1.022c-0.915,0-1.879-0.176-2.601-0.744
	c-0.789-0.612-1.101-1.552-1.101-3.202L73.294,64.584"/>
<path fill="#231F20" d="M87.221,62.714l2.732,6.299l2.809-6.299h3.236v0.494c-1.174,0.104-1.258,0.175-1.221,1.565l0.116,5.187
	c0.056,1.432,0.12,1.492,1.259,1.61v0.479H91.66V71.57c1.187-0.104,1.236-0.18,1.236-1.61V64.35h-0.064l-3.22,7.54h-0.569
	l-2.939-7.321h-0.035l-0.171,3.829c-0.051,1.198-0.069,1.931-0.02,2.339c0.07,0.574,0.415,0.761,1.445,0.834v0.479h-3.696v-0.479
	c0.739-0.073,1.016-0.26,1.118-0.789c0.084-0.439,0.206-1.242,0.289-2.561l0.245-3.04c0.118-1.723,0.016-1.868-1.24-1.974v-0.494
	H87.221"/>
<path fill="#231F20" d="M99.581,64.569c0-1.172-0.135-1.287-1.205-1.373v-0.481h7.215c0.019,0.23,0.085,1.301,0.171,2.118
	l-0.618,0.06c-0.187-0.601-0.375-0.979-0.62-1.199c-0.256-0.246-0.726-0.353-1.601-0.353h-0.728c-0.529,0-0.6,0.058-0.6,0.517v2.967
	h1.205c1.258,0,1.313-0.092,1.564-1.096h0.62v2.964h-0.62c-0.237-1.081-0.308-1.156-1.564-1.156h-1.205v2.63
	c0,0.673,0.069,0.983,0.379,1.128c0.263,0.117,0.702,0.132,1.36,0.132c0.793,0,1.396-0.103,1.726-0.47
	c0.271-0.275,0.548-0.743,0.824-1.357l0.602,0.117c-0.09,0.511-0.382,1.93-0.52,2.337h-7.815v-0.479
	c1.295-0.089,1.43-0.219,1.43-1.389V64.569"/>
<path fill="#231F20" d="M111.322,63.34h-0.584c-0.759,0-1.149,0.189-1.396,0.453c-0.204,0.222-0.411,0.629-0.583,1.286h-0.618
	c0.05-1.022,0.156-2.002,0.171-2.73h0.38c0.204,0.264,0.38,0.365,0.793,0.365h5.749c0.38,0,0.515-0.089,0.757-0.365h0.394
	c0.02,0.597,0.094,1.724,0.158,2.701l-0.621,0.029c-0.188-0.729-0.379-1.141-0.634-1.37c-0.24-0.264-0.691-0.369-1.275-0.369h-0.675
	v6.843c0,1.183,0.14,1.3,1.5,1.389v0.479h-4.941v-0.479c1.274-0.089,1.427-0.206,1.427-1.389L111.322,63.34"/>
</svg>
