<?xml version="1.0" encoding="UTF-8" standalone="no"?>
<svg
   xmlns:dc="http://purl.org/dc/elements/1.1/"
   xmlns:cc="http://creativecommons.org/ns#"
   xmlns:rdf="http://www.w3.org/1999/02/22-rdf-syntax-ns#"
   xmlns:svg="http://www.w3.org/2000/svg"
   xmlns="http://www.w3.org/2000/svg"
   xmlns:sodipodi="http://sodipodi.sourceforge.net/DTD/sodipodi-0.dtd"
   xmlns:inkscape="http://www.inkscape.org/namespaces/inkscape"
   viewBox="0 0 512 253.30734"
   height="253.30734"
   width="512"
   xml:space="preserve"
   id="svg2"
   version="1.1"
   sodipodi:docname="LACC_Logo_RGB.svg"
   inkscape:version="0.92.1 r15371"><sodipodi:namedview
     pagecolor="#ffffff"
     bordercolor="#666666"
     borderopacity="1"
     objecttolerance="10"
     gridtolerance="10"
     guidetolerance="10"
     inkscape:pageopacity="0"
     inkscape:pageshadow="2"
     inkscape:window-width="1600"
     inkscape:window-height="838"
     id="namedview57"
     showgrid="false"
     fit-margin-top="0"
     fit-margin-left="0"
     fit-margin-right="0"
     fit-margin-bottom="0"
     inkscape:zoom="0.75842548"
     inkscape:cx="373.52"
     inkscape:cy="94.644923"
     inkscape:window-x="-8"
     inkscape:window-y="-8"
     inkscape:window-maximized="1"
     inkscape:current-layer="svg2" /><metadata
     id="metadata8"><rdf:RDF><cc:Work
         rdf:about=""><dc:format>image/svg+xml</dc:format><dc:type
           rdf:resource="http://purl.org/dc/dcmitype/StillImage" /><dc:title></dc:title></cc:Work></rdf:RDF></metadata><defs
     id="defs6" /><g
     transform="matrix(0.91153159,0,0,-0.91153159,0,253.30734)"
     id="g10"><g
       transform="scale(0.1)"
       id="g12"><path
         id="path14"
         style="fill:#ffffff;fill-opacity:1;fill-rule:nonzero;stroke:none"
         d="M 5616.92,0 H 0 V 2778.92 H 5616.92 V 0"
         inkscape:connector-curvature="0" /><path
         id="path16"
         style="fill:#c22d3c;fill-opacity:1;fill-rule:nonzero;stroke:none"
         d="m 238.285,2073.97 v -194.9 l 0.051,0.05 c 189.91,130.38 392.734,194.85 392.734,194.85 H 238.285"
         inkscape:connector-curvature="0" /><path
         id="path18"
         style="fill:#c22d3c;fill-opacity:1;fill-rule:nonzero;stroke:none"
         d="m 1687.47,1389.91 0.03,-0.52 v 7.13 H 362.258 C 305.215,1297.06 271.531,1219.15 238.336,1100.4 l -0.051,-0.03 v -40.75 H 1687.47 v 330.29"
         inkscape:connector-curvature="0" /><path
         id="path20"
         style="fill:#c22d3c;fill-opacity:1;fill-rule:nonzero;stroke:none"
         d="M 1687.5,1767.06 H 676.117 C 494.379,1614.31 382.035,1423.89 382.035,1423.89 H 1687.5 v 4.8 h -0.03 v 338.34 l 0.03,0.03"
         inkscape:connector-curvature="0" /><path
         id="path22"
         style="fill:#c22d3c;fill-opacity:1;fill-rule:nonzero;stroke:none"
         d="m 1687.47,1799.68 v 450.06 l -0.1,0.02 -63.45,-53.22 62.52,-227.33 -185.68,143.33 -177.53,-140.71 52.3,203.41 C 971.602,2018.21 704.313,1793.93 704.313,1793.93 H 1687.5 l -0.03,5.75"
         inkscape:connector-curvature="0" /><path
         id="path24"
         style="fill:#c22d3c;fill-opacity:1;fill-rule:nonzero;stroke:none"
         d="m 1503.21,2540.88 70.45,-198.95 h 113.75 l 0.06,0.08 v 199.1 H 238.285 V 2341.93 H 1435.59 l 67.62,198.95"
         inkscape:connector-curvature="0" /><path
         id="path26"
         style="fill:#c22d3c;fill-opacity:1;fill-rule:nonzero;stroke:none"
         d="m 238.285,2101.78 h 477.699 c 156.125,46.64 247.887,82.4 625.236,132.59 l -102.07,77.54 -993.947,-0.42 h -7.183 l 0.265,-209.66 v -0.05"
         inkscape:connector-curvature="0" /><path
         id="path28"
         style="fill:#c22d3c;fill-opacity:1;fill-rule:nonzero;stroke:none"
         d="m 279.371,797.379 -9.531,-166.5 h 21.742 c 6.949,48.262 18.363,83.601 34.254,106.043 19.258,27.199 43.285,40.797 72.078,40.797 10.129,0 17.473,-1.93 22.043,-5.797 4.563,-3.883 6.852,-9.594 6.852,-17.133 V 397.66 c 0,-5.551 -1.789,-10.031 -5.364,-13.398 -3.574,-3.383 -8.742,-5.063 -15.488,-5.063 H 355.32 v -22.34 h 204.625 v 22.34 h -44.379 c -9.531,0 -16.382,1.68 -20.55,5.063 -4.172,3.367 -6.254,8.636 -6.254,15.777 v 352.07 c 0,9.129 2.133,15.68 6.414,19.653 4.277,3.976 12.191,5.957 23.73,5.957 57.309,0 92.735,-48.938 106.27,-146.84 h 20.551 l -8.637,166.5 H 279.371"
         inkscape:connector-curvature="0" /><path
         id="path30"
         style="fill:#c22d3c;fill-opacity:1;fill-rule:nonzero;stroke:none"
         d="m 973.961,385.012 c -4.371,3.867 -6.555,10.066 -6.555,18.609 v 132.551 c 0,23.027 -3.922,42.988 -11.765,59.859 -7.844,16.879 -17.325,28.688 -28.446,35.449 -14.297,8.54 -30.379,12.801 -48.25,12.801 -18.867,0 -36.738,-4.711 -53.613,-14.14 -16.879,-9.43 -32.664,-23.68 -47.359,-42.743 v 215.051 l -105.739,-5.07 v -22.34 h 20.254 c 11.914,0 21.004,-2.918 27.254,-8.777 6.258,-5.864 9.383,-14.75 9.383,-26.66 v -333 c 0,-9.34 -2.383,-16.231 -7.148,-20.704 -4.766,-4.468 -12.805,-6.699 -24.125,-6.699 h -16.68 v -22.34 h 147.437 v 22.34 h -23.828 c -9.531,0 -16.383,2.082 -20.551,6.25 -4.171,4.172 -6.257,11.223 -6.257,21.153 v 111.386 c 0,16.684 4.07,32.524 12.215,47.512 8.136,14.988 18.066,26.172 29.785,33.512 11.711,7.34 24.422,11.019 38.125,11.019 17.468,0 31.82,-6.5 43.039,-19.511 11.218,-13 16.828,-31.122 16.828,-54.348 V 403.621 c 0,-8.152 -2.434,-14.25 -7.297,-18.312 -4.867,-4.071 -13.656,-6.11 -26.359,-6.11 h -16.68 v -22.34 h 150.711 v 22.34 h -23.828 c -9.336,0 -16.188,1.942 -20.551,5.813"
         inkscape:connector-curvature="0" /><path
         id="path32"
         style="fill:#c22d3c;fill-opacity:1;fill-rule:nonzero;stroke:none"
         d="m 1136.44,598.719 c 14.39,18.461 31.91,27.691 52.57,27.691 18.47,0 34.5,-7.64 48.1,-22.93 13.6,-15.289 20.4,-33.859 20.4,-55.699 0,-11.722 -1.98,-20 -5.95,-24.859 -3.98,-4.883 -9.53,-7.313 -16.68,-7.313 h -120.93 c 0.6,36.93 8.09,64.641 22.49,83.11 z m 66.57,-223.688 c -26.41,0 -48.16,9.828 -65.23,29.489 -14.89,17.468 -22.84,47.449 -23.83,89.949 h 199.86 c -0.4,27.793 -4.07,50.832 -11.02,69.101 -9.93,26.008 -24.72,45.969 -44.38,59.86 -19.66,13.902 -42.99,20.851 -70,20.851 -36.74,0 -67.66,-13.941 -92.78,-41.84 -25.12,-27.902 -37.68,-64.492 -37.68,-109.761 0,-42.102 12.76,-76.649 38.28,-103.649 25.51,-27.011 56.93,-40.511 94.27,-40.511 54.8,0 96.7,28.191 125.69,84.589 l -19.36,8.34 c -23.63,-44.289 -54.91,-66.418 -93.82,-66.418"
         inkscape:connector-curvature="0" /><path
         id="path34"
         style="fill:#c22d3c;fill-opacity:1;fill-rule:nonzero;stroke:none"
         d="m 1849.05,405.262 c -24.23,-22.93 -54.21,-34.403 -89.95,-34.403 -40.91,0 -72.68,14.692 -95.32,44.082 -26.61,34.739 -39.91,85.18 -39.91,151.309 0,78.629 11.62,134.43 34.85,167.391 23.23,32.961 53.32,49.437 90.25,49.437 34.15,0 63.54,-14.789 88.16,-44.367 19.86,-23.641 36.34,-60.371 49.45,-110.211 h 19.95 l -7.74,177.219 h -18.77 l -20.55,-42.59 c -21.05,15.883 -40.51,27.101 -58.38,33.652 -17.87,6.559 -36.33,9.84 -55.4,9.84 -34.15,0 -66.02,-9.68 -95.61,-29.051 -29.59,-19.351 -53.86,-48.3 -72.82,-86.82 -18.96,-38.531 -28.45,-79.73 -28.45,-123.609 0,-41.301 9.19,-79.27 27.55,-113.922 18.37,-34.66 42.89,-61.207 73.58,-79.68 30.67,-18.469 64.38,-27.699 101.11,-27.699 45.28,0 82.81,14.101 112.59,42.289 29.79,28.191 47.76,68.512 53.91,120.93 h -21.14 c -7.35,-46.27 -23.14,-80.86 -47.36,-103.797"
         inkscape:connector-curvature="0" /><path
         id="path36"
         style="fill:#c22d3c;fill-opacity:1;fill-rule:nonzero;stroke:none"
         d="m 2015.84,792.309 c -6.75,-6.758 -10.12,-14.598 -10.12,-23.528 0,-8.941 3.32,-16.73 9.97,-23.383 6.66,-6.648 14.55,-9.976 23.69,-9.976 9.13,0 16.97,3.277 23.53,9.828 6.55,6.551 9.82,14.301 9.82,23.23 0,9.129 -3.37,17.071 -10.12,23.829 -6.76,6.75 -14.6,10.132 -23.53,10.132 -8.74,0 -16.49,-3.382 -23.24,-10.132"
         inkscape:connector-curvature="0" /><path
         id="path38"
         style="fill:#c22d3c;fill-opacity:1;fill-rule:nonzero;stroke:none"
         d="m 2077.5,385.148 c -3.18,2.793 -4.77,7.454 -4.77,14.012 v 240.059 l -111.09,-3.278 v -22.332 h 22.93 c 12.51,0 21.94,-2.828 28.3,-8.488 6.35,-5.66 9.53,-14.051 9.53,-25.172 V 404.211 c 0,-8.141 -2.04,-14.34 -6.11,-18.609 -4.07,-4.274 -10.47,-6.403 -19.21,-6.403 h -29.49 v -22.34 h 158.76 v 22.34 h -31.57 c -6.96,0 -12.71,1.981 -17.28,5.949"
         inkscape:connector-curvature="0" /><path
         id="path40"
         style="fill:#c22d3c;fill-opacity:1;fill-rule:nonzero;stroke:none"
         d="m 2326.21,400.352 c -9.54,-12.512 -21.05,-18.77 -34.55,-18.77 -11.32,0 -20.66,4.117 -28,12.359 -7.35,8.239 -11.02,20.11 -11.02,35.598 v 179 h 90.25 v 27.402 h -90.25 v 113.778 h -19.96 c -1.4,-39.707 -10.67,-70.578 -27.81,-92.617 -11.55,-14.704 -28.4,-23.942 -50.52,-27.711 v -20.852 h 48.55 v -187.34 c 0,-20.461 6.5,-36.988 19.51,-49.59 13,-12.621 31.02,-18.918 54.05,-18.918 25.02,0 45.38,8.989 61.06,26.95 15.69,17.968 24.13,45.519 25.32,82.66 h -19.95 c -1.6,-28.801 -7.15,-49.442 -16.68,-61.949"
         inkscape:connector-curvature="0" /><path
         id="path42"
         style="fill:#c22d3c;fill-opacity:1;fill-rule:nonzero;stroke:none"
         d="m 2581.46,615.691 c 17.28,-1.191 28.79,-3.82 34.56,-7.89 5.75,-4.071 8.63,-9.789 8.63,-17.129 0,-9.531 -2.08,-19.262 -6.25,-29.192 l -57.77,-139.101 -77.75,167.691 c -1.2,2.578 -1.79,5.168 -1.79,7.75 0,5.762 2.13,10.168 6.4,13.262 4.27,3.078 12.26,4.609 23.98,4.609 h 12.51 v 20.25 h -133.74 v -20.25 c 10.89,-1.39 19.16,-4.011 24.8,-7.89 5.64,-3.871 10.35,-9.789 14.12,-17.731 l 105.91,-227.011 c -17.92,-36.098 -30.45,-59.411 -37.6,-69.938 -7.15,-10.531 -14.84,-18.172 -23.09,-22.941 -8.23,-4.758 -15.63,-7.149 -22.18,-7.149 -6.16,0 -9.24,2.391 -9.24,7.149 0,1.402 0.4,3.582 1.2,6.55 0.79,3.782 1.19,6.758 1.19,8.942 0,6.949 -2.59,12.91 -7.75,17.867 -5.16,4.973 -11.52,7.449 -19.06,7.449 -8.34,0 -15.29,-2.879 -20.85,-8.636 -5.56,-5.75 -8.34,-13.114 -8.34,-22.043 0,-11.918 4.52,-21.938 13.55,-30.079 9.04,-8.14 21,-12.218 35.89,-12.218 20.45,0 39.62,7.75 57.49,23.238 17.67,15.289 35.28,43.34 52.82,84.141 l 103.25,240.218 c 7.75,17.871 22.84,27.891 45.28,30.082 v 20.25 h -116.17 v -20.25"
         inkscape:connector-curvature="0" /><path
         id="path44"
         style="fill:#c22d3c;fill-opacity:1;fill-rule:nonzero;stroke:none"
         d="m 2759.28,806.621 c -8.74,0 -16.43,-3.68 -23.08,-11.031 -6.65,-7.34 -9.98,-16.078 -9.98,-26.211 0,-9.129 3.13,-16.918 9.39,-23.379 6.25,-6.449 13.74,-9.68 22.48,-9.68 3.38,0 7.45,0.602 12.22,1.789 l 2.98,0.602 c 2.38,0 4.12,-0.852 5.21,-2.531 1.08,-1.692 1.63,-4.231 1.63,-7.598 0,-9.934 -4.61,-21.801 -13.85,-35.602 -9.22,-13.789 -23.68,-27.75 -43.34,-41.839 l 9.54,-13.411 c 27.2,17.872 46.51,35.899 57.94,54.059 11.41,18.18 17.12,37.281 17.12,57.34 0,16.871 -4.87,30.68 -14.6,41.402 -9.73,10.731 -20.95,16.09 -33.66,16.09"
         inkscape:connector-curvature="0" /><path
         id="path46"
         style="fill:#c22d3c;fill-opacity:1;fill-rule:nonzero;stroke:none"
         d="m 3011.82,509.57 c -9.96,3.789 -31.43,8.469 -64.46,14.051 -28.45,4.59 -47.54,10.848 -57.28,18.801 -9.96,7.738 -14.92,17.469 -14.92,29.187 0,13.301 5.37,24.582 16.11,33.813 10.74,9.226 25.57,13.84 44.47,13.84 21.88,0 40.28,-6.203 55.2,-18.614 14.92,-12.41 26.76,-32.707 35.52,-60.91 h 19.97 l -7.76,99.481 h -12.24 l -19.69,-20.848 c -20.69,15.289 -43.15,22.93 -67.4,22.93 -31.84,0 -56.59,-10.621 -74.28,-31.86 -13.73,-16.679 -20.59,-35.25 -20.59,-55.703 0,-13.508 3.32,-26.019 9.98,-37.527 6.66,-11.52 15.96,-20.551 27.87,-27.102 11.94,-6.558 33.01,-12.82 63.27,-18.769 31.62,-5.961 51.23,-10.469 58.79,-13.551 7.55,-3.078 13.47,-7.738 17.75,-14 4.28,-6.25 6.42,-13.559 6.42,-21.898 0,-14.493 -5.82,-26.45 -17.44,-35.879 -11.6,-9.442 -28.24,-14.153 -49.88,-14.153 -23.44,0 -43.14,6.602 -59.12,19.813 -16,13.199 -30.14,36.969 -42.44,71.328 h -19.96 l 5.95,-111.102 h 15.82 l 21.76,25.024 c 23.67,-18.274 49.32,-27.402 76.96,-27.402 29.82,0 54.43,8.531 73.8,25.601 19.4,17.07 29.11,37.91 29.11,62.52 0,17.859 -4.48,32.98 -13.42,45.39 -8.95,12.399 -21.58,21.578 -37.87,27.539"
         inkscape:connector-curvature="0" /><path
         id="path48"
         style="fill:#c22d3c;fill-opacity:1;fill-rule:nonzero;stroke:none"
         d="m 3600.41,405.262 c -24.22,-22.93 -54.2,-34.403 -89.94,-34.403 -40.92,0 -72.68,14.692 -95.31,44.082 -26.62,34.739 -39.93,85.18 -39.93,151.309 0,78.629 11.63,134.43 34.87,167.391 23.22,32.961 53.3,49.437 90.23,49.437 34.16,0 63.56,-14.789 88.17,-44.367 19.86,-23.641 36.34,-60.371 49.45,-110.211 h 19.96 l -7.75,177.219 h -18.77 l -20.55,-42.59 c -21.05,15.883 -40.51,27.101 -58.38,33.652 -17.87,6.559 -36.33,9.84 -55.39,9.84 -34.16,0 -66.03,-9.68 -95.62,-29.051 -29.59,-19.351 -53.87,-48.3 -72.82,-86.82 -18.96,-38.531 -28.45,-79.73 -28.45,-123.609 0,-41.301 9.18,-79.27 27.55,-113.922 18.36,-34.66 42.9,-61.207 73.58,-79.68 30.66,-18.469 64.37,-27.699 101.11,-27.699 45.28,0 82.81,14.101 112.6,42.289 29.78,28.191 47.75,68.512 53.91,120.93 h -21.16 c -7.34,-46.27 -23.12,-80.86 -47.36,-103.797"
         inkscape:connector-curvature="0" /><path
         id="path50"
         style="fill:#c22d3c;fill-opacity:1;fill-rule:nonzero;stroke:none"
         d="m 3906.46,400.352 c -14.39,-20.461 -33.2,-30.692 -56.44,-30.692 -22.44,0 -40.76,10.231 -54.96,30.692 -14.2,20.449 -21.29,52.808 -21.29,97.097 0,43.481 7.15,75.301 21.44,95.461 14.3,20.149 32.56,30.231 54.81,30.231 23.63,0 42.54,-9.641 56.74,-28.903 14.2,-19.25 21.31,-50.437 21.31,-93.519 0,-46.469 -7.21,-79.918 -21.61,-100.367 z m -56.44,243.929 c -36.93,0 -68.01,-13.703 -93.22,-41.101 -25.22,-27.399 -37.84,-63.051 -37.84,-106.918 0,-43.703 12.56,-79.231 37.68,-106.641 25.12,-27.402 55.74,-41.101 91.9,-41.101 24.41,0 47.2,6.25 68.35,18.761 21.14,12.508 37.43,29.539 48.85,51.09 11.41,21.539 17.13,47.598 17.13,78.18 0,44.277 -12.77,79.98 -38.28,107.078 -25.53,27.109 -57.03,40.652 -94.57,40.652"
         inkscape:connector-curvature="0" /><path
         id="path52"
         style="fill:#c22d3c;fill-opacity:1;fill-rule:nonzero;stroke:none"
         d="m 4133.87,385.148 c -3.38,2.981 -5.06,7.25 -5.06,12.813 v 404.488 l -110.51,-5.07 v -22.34 h 25.02 c 10.72,0 19.77,-3.18 27.11,-9.527 5.37,-4.571 8.05,-11.813 8.05,-21.742 V 404.211 c 0,-7.93 -2.25,-14.102 -6.7,-18.461 -4.48,-4.371 -11.27,-6.551 -20.41,-6.551 h -27.99 v -22.34 h 158.14 v 22.34 h -29.47 c -7.15,0 -13.22,1.981 -18.18,5.949"
         inkscape:connector-curvature="0" /><path
         id="path54"
         style="fill:#c22d3c;fill-opacity:1;fill-rule:nonzero;stroke:none"
         d="m 4325.98,385.148 c -3.38,2.981 -5.06,7.25 -5.06,12.813 v 404.488 l -110.51,-5.07 v -22.34 h 25.02 c 10.72,0 19.77,-3.18 27.11,-9.527 5.37,-4.571 8.05,-11.813 8.05,-21.742 V 404.211 c 0,-7.93 -2.25,-14.102 -6.7,-18.461 -4.48,-4.371 -11.27,-6.551 -20.41,-6.551 h -27.99 v -22.34 h 158.14 v 22.34 h -29.47 c -7.15,0 -13.22,1.981 -18.18,5.949"
         inkscape:connector-curvature="0" /><path
         id="path56"
         style="fill:#c22d3c;fill-opacity:1;fill-rule:nonzero;stroke:none"
         d="m 4492.03,598.719 c 14.4,18.461 31.92,27.691 52.58,27.691 18.46,0 34.49,-7.64 48.09,-22.93 13.61,-15.289 20.41,-33.859 20.41,-55.699 0,-11.722 -2,-20 -5.96,-24.859 -3.97,-4.883 -9.53,-7.313 -16.68,-7.313 h -120.92 c 0.59,36.93 8.09,64.641 22.48,83.11 z m 66.56,-223.688 c -26.4,0 -48.14,9.828 -65.21,29.489 -14.9,17.468 -22.85,47.449 -23.83,89.949 h 199.84 c -0.39,27.793 -4.06,50.832 -11.01,69.101 -9.92,26.008 -24.73,45.969 -44.38,59.86 -19.66,13.902 -42.98,20.851 -70,20.851 -36.73,0 -67.65,-13.941 -92.77,-41.84 -25.14,-27.902 -37.68,-64.492 -37.68,-109.761 0,-42.102 12.76,-76.649 38.27,-103.649 25.5,-27.011 56.93,-40.511 94.27,-40.511 54.81,0 96.7,28.191 125.69,84.589 l -19.36,8.34 c -23.63,-44.289 -54.9,-66.418 -93.83,-66.418"
         inkscape:connector-curvature="0" /><path
         id="path58"
         style="fill:#c22d3c;fill-opacity:1;fill-rule:nonzero;stroke:none"
         d="m 4892.34,492.23 c -11.42,-13.402 -26.05,-20.109 -43.92,-20.109 -17.87,0 -32.58,6.91 -44.08,20.711 -11.53,13.797 -17.29,33.207 -17.29,58.227 0,23.429 5.76,41.652 17.29,54.66 11.5,13 26.09,19.5 43.77,19.5 17.67,0 32.32,-6.75 43.94,-20.25 11.6,-13.508 17.42,-31.867 17.42,-55.098 0,-25.019 -5.72,-44.23 -17.13,-57.641 z m -26.66,-135.671 c 22.64,0 39.81,-1.84 51.53,-5.508 11.72,-3.672 20.25,-9.031 25.62,-16.082 5.35,-7.047 8.05,-14.637 8.05,-22.789 0,-13.891 -8.65,-26.508 -25.92,-37.828 -17.28,-11.321 -42.99,-16.973 -77.15,-16.973 -28.59,0 -50.62,5.16 -66.11,15.492 -11.72,7.738 -17.58,18.367 -17.58,31.859 0,14.301 7.79,26.52 23.38,36.641 15.59,10.129 41.64,15.188 78.18,15.188 z m 115.57,293.679 c -16.68,0 -34.94,-10.027 -54.8,-30.078 -12.11,8.141 -24.63,14.192 -37.52,18.168 -12.91,3.973 -26.33,5.953 -40.22,5.953 -33.96,0 -61.56,-9.133 -82.81,-27.402 -21.25,-18.27 -31.86,-40.91 -31.86,-67.91 0,-17.078 4.26,-32.219 12.8,-45.418 8.53,-13.199 21.25,-24.469 38.12,-33.813 -19.84,-6.75 -33.81,-14.84 -41.83,-24.269 -8.05,-9.43 -12.08,-20.5 -12.08,-33.207 0,-13.703 4.97,-25.16 14.91,-34.403 9.92,-9.23 24.7,-16.23 44.37,-21 -24.63,-4.757 -42.15,-12.007 -52.58,-21.75 -10.43,-9.718 -15.62,-20.449 -15.62,-32.16 0,-15.289 8.12,-29.09 24.41,-41.398 20.65,-15.68 52.33,-23.539 95.02,-23.539 51.62,0 90.45,11.527 116.47,34.547 18.65,16.293 27.99,36.339 27.99,60.171 0,21.649 -8.19,38.668 -24.57,51.079 -16.39,12.421 -43.15,18.621 -80.28,18.621 l -73.57,-1.489 c -17.07,0 -28.69,2.079 -34.85,6.25 -6.15,4.168 -9.23,10.129 -9.23,17.868 0,9.543 3.77,16.781 11.32,21.75 7.54,4.773 22.84,7.152 45.86,7.152 h 32.48 c 17.66,0 36.18,5.059 55.55,15.187 19.36,10.122 33.2,21.793 41.54,35 8.34,13.204 12.52,28.442 12.52,45.723 0,9.918 -1.6,19.211 -4.76,27.848 -3.19,8.633 -9.05,18.812 -17.58,30.531 7.93,8.93 15.29,13.398 22.03,13.398 3.77,0 6.47,-2.976 8.05,-8.937 3.96,-13.902 11.62,-20.852 22.93,-20.852 5.95,0 11.17,2.43 15.64,7.313 4.47,4.859 6.7,10.957 6.7,18.308 0,9.129 -3.28,16.872 -9.82,23.231 -6.57,6.359 -14.81,9.527 -24.73,9.527"
         inkscape:connector-curvature="0" /><path
         id="path60"
         style="fill:#c22d3c;fill-opacity:1;fill-rule:nonzero;stroke:none"
         d="m 5124.67,598.719 c 14.39,18.461 31.91,27.691 52.58,27.691 18.45,0 34.49,-7.64 48.08,-22.93 13.62,-15.289 20.41,-33.859 20.41,-55.699 0,-11.722 -1.99,-20 -5.95,-24.859 -3.97,-4.883 -9.54,-7.313 -16.68,-7.313 h -120.92 c 0.58,36.93 8.08,64.641 22.48,83.11 z m 160.39,-157.27 c -23.63,-44.289 -54.9,-66.418 -93.83,-66.418 -26.41,0 -48.14,9.828 -65.21,29.489 -14.91,17.468 -22.86,47.449 -23.83,89.949 h 199.84 c -0.39,27.793 -4.06,50.832 -11.01,69.101 -9.93,26.008 -24.73,45.969 -44.38,59.86 -19.67,13.902 -42.99,20.851 -70,20.851 -36.74,0 -67.66,-13.941 -92.77,-41.84 -25.14,-27.902 -37.68,-64.492 -37.68,-109.761 0,-42.102 12.76,-76.649 38.26,-103.649 25.51,-27.011 56.94,-40.511 94.28,-40.511 54.81,0 96.7,28.191 125.68,84.589 l -19.35,8.34"
         inkscape:connector-curvature="0" /><path
         id="path62"
         style="fill:#33508d;fill-opacity:1;fill-rule:nonzero;stroke:none"
         d="m 3866.6,1297.68 c -11.68,0 -20.47,-8.8 -20.47,-20.47 0,-11.47 8.5,-20.12 19.77,-20.12 6.27,0 11.8,2.15 15.58,6.08 3.56,3.66 5.41,8.65 5.24,14.06 0,12.04 -8.28,20.45 -20.12,20.45"
         inkscape:connector-curvature="0" /><path
         id="path64"
         style="fill:#33508d;fill-opacity:1;fill-rule:nonzero;stroke:none"
         d="m 1971.17,1087.67 h -100.64 v 210.01 h -32.9 v -238.02 h 133.54 v 28.01"
         inkscape:connector-curvature="0" /><path
         id="path66"
         style="fill:#33508d;fill-opacity:1;fill-rule:nonzero;stroke:none"
         d="m 2068.83,1209.57 c 33.95,0 49.42,-33.04 49.42,-63.74 0,-37.35 -21.08,-64.45 -50.12,-64.45 -29.04,0 -50.12,26.81 -50.12,63.75 0,32.07 15.72,64.44 50.82,64.44 z m 83.36,-62.7 c 0,52.79 -33.22,88.26 -82.66,88.26 -50.91,0 -85.12,-36.59 -85.12,-91.05 0,-51.96 33.86,-88.25 82.32,-88.25 42.54,0 85.46,28.15 85.46,91.04"
         inkscape:connector-curvature="0" /><path
         id="path68"
         style="fill:#33508d;fill-opacity:1;fill-rule:nonzero;stroke:none"
         d="m 2226.11,1081.38 c -14.83,0 -30.7,6.05 -39.85,12.03 l -1.36,0.9 -8.51,-25.93 0.87,-0.5 c 12.65,-7.44 30.21,-11.71 48.15,-11.71 39.18,0 64.5,20.38 64.5,51.92 0,24.51 -13.51,40.12 -45.18,52.19 -21.68,8.25 -31.35,14.18 -31.35,27.48 0,10.85 8.37,21.81 27.06,21.81 16.31,0 28.25,-6.01 33.92,-9.58 l 1.34,-0.85 8.53,24.82 -0.88,0.52 c -11.26,6.67 -27.04,10.65 -42.21,10.65 -35.1,0 -59.61,-20.92 -59.61,-50.87 0,-21.47 15.76,-38.42 45.55,-49.04 22.61,-8.35 30.63,-16.18 30.63,-29.93 0,-14.97 -11.82,-23.91 -31.6,-23.91"
         inkscape:connector-curvature="0" /><path
         id="path70"
         style="fill:#33508d;fill-opacity:1;fill-rule:nonzero;stroke:none"
         d="m 2482.98,1265.83 c 3.21,-12.55 6.56,-25.54 11.39,-39.68 l 22.5,-66.14 h -67.45 l 22.51,66.5 c 3.69,11.63 7.22,24.2 11.05,39.32 z m 66.19,-206.17 h 35.13 l -80.93,237.17 -0.29,0.85 h -38.48 l -80.86,-238.02 h 34.09 l 24.46,74.09 H 2524 l 25.17,-74.09"
         inkscape:connector-curvature="0" /><path
         id="path72"
         style="fill:#33508d;fill-opacity:1;fill-rule:nonzero;stroke:none"
         d="m 2760.31,1059.66 v 102.24 c 0,69.7 -50.82,73.23 -61,73.23 -27.92,0 -46.66,-14.96 -55.56,-29.85 l -1.63,26 h -29.77 l 0.1,-1.34 c 0.98,-13.06 1.39,-26.72 1.39,-45.68 v -124.6 h 33.25 v 102.94 c 0,5.3 0.74,10.36 2.05,13.97 4.65,15.2 18.83,30.55 40.03,30.55 32.96,0 37.89,-30.52 37.89,-48.72 v -98.74 h 33.25"
         inkscape:connector-curvature="0" /><path
         id="path74"
         style="fill:#33508d;fill-opacity:1;fill-rule:nonzero;stroke:none"
         d="m 2877.89,1086.28 c -29.59,0 -48.71,23.37 -48.71,59.55 0,37.5 19.71,62.69 49.06,62.69 23.5,0 36.99,-16.34 41.8,-31.64 1.17,-3.54 1.68,-7.61 1.68,-13.58 v -30.4 c 0,-5.73 -0.84,-11.42 -2.38,-16.03 -6.29,-18.58 -22.56,-30.59 -41.45,-30.59 z m -9.08,-73.03 c -25.29,0 -42.66,9.15 -48.95,13.09 l -1.36,0.84 -8.48,-25.84 0.79,-0.52 c 13.14,-8.742 34.95,-14.179 56.96,-14.179 18.4,0 44.14,3.57 62.33,20.579 16.95,15.16 24.53,39.26 24.53,78.16 v 98.18 c 0,20.45 0.68,34.13 1.39,46.41 l 0.07,1.31 h -29.41 l -1.29,-23.55 c -5.98,9.92 -21,27.4 -52.38,27.4 -38.48,0 -77.43,-31.28 -77.43,-91.05 0,-48.51 30.79,-83.71 73.23,-83.71 22.73,0 41.97,9.57 53.26,26.35 v -15.67 c 0,-47.77 -28.96,-57.8 -53.26,-57.8"
         inkscape:connector-curvature="0" /><path
         id="path76"
         style="fill:#33508d;fill-opacity:1;fill-rule:nonzero;stroke:none"
         d="m 3023.3,1163.15 c 2.54,18.28 14.75,47.47 45.76,47.47 11.82,0 21.39,-3.63 28.42,-10.8 11.66,-11.87 12.95,-29.79 12.97,-36.67 z m 48.2,71.98 c -47.42,0 -80.56,-38.01 -80.56,-92.45 0,-52.56 33.14,-86.51 84.41,-86.51 27.54,0 46.08,5.76 56.78,10.59 l 0.94,0.43 -5.82,24.46 -1.37,-0.58 c -10.57,-4.48 -23.5,-8.63 -46.33,-8.63 -34.53,0 -55.64,20.97 -56.72,56.2 h 118.63 l 0.3,2.49 c 0.37,3.2 0.88,7.59 0.88,13.08 0,37.33 -18.64,80.92 -71.14,80.92"
         inkscape:connector-curvature="0" /><path
         id="path78"
         style="fill:#33508d;fill-opacity:1;fill-rule:nonzero;stroke:none"
         d="m 3178.26,1059.66 h 33.24 v 250.6 h -33.24 v -250.6"
         inkscape:connector-curvature="0" /><path
         id="path80"
         style="fill:#33508d;fill-opacity:1;fill-rule:nonzero;stroke:none"
         d="m 3280.88,1163.15 c 2.52,18.28 14.73,47.47 45.76,47.47 11.82,0 21.37,-3.63 28.42,-10.8 11.64,-11.87 12.93,-29.79 12.97,-36.67 z m 109.75,-95.96 -5.83,24.46 -1.34,-0.58 c -10.57,-4.48 -23.5,-8.63 -46.35,-8.63 -34.51,0 -55.65,20.97 -56.72,56.2 h 118.63 l 0.3,2.49 c 0.37,3.2 0.89,7.59 0.89,13.08 0,37.33 -18.63,80.92 -71.13,80.92 -47.44,0 -80.56,-38.01 -80.56,-92.45 0,-52.56 33.12,-86.51 84.41,-86.51 27.52,0 46.05,5.76 56.76,10.59 l 0.94,0.43"
         inkscape:connector-curvature="0" /><path
         id="path82"
         style="fill:#33508d;fill-opacity:1;fill-rule:nonzero;stroke:none"
         d="m 3428.83,1184.26 c 0,-21.47 15.76,-38.42 45.55,-49.04 22.61,-8.36 30.64,-16.19 30.64,-29.93 0,-14.97 -11.82,-23.91 -31.6,-23.91 -14.85,0 -30.71,6.05 -39.85,12.03 l -1.36,0.9 -8.52,-25.93 0.86,-0.5 c 12.68,-7.44 30.22,-11.71 48.16,-11.71 39.18,0 64.5,20.38 64.5,51.92 0,24.51 -13.52,40.12 -45.18,52.19 -21.68,8.25 -31.35,14.19 -31.35,27.48 0,10.85 8.38,21.81 27.05,21.81 16.31,0 28.27,-6.01 33.95,-9.58 l 1.33,-0.85 8.53,24.82 -0.88,0.52 c -11.27,6.67 -27.05,10.65 -42.22,10.65 -35.1,0 -59.61,-20.92 -59.61,-50.87"
         inkscape:connector-curvature="0" /><path
         id="path84"
         style="fill:#33508d;fill-opacity:1;fill-rule:nonzero;stroke:none"
         d="m 3816.66,1067.94 -6.93,26.56 -1.37,-0.67 c -12.27,-5.95 -31.07,-9.65 -49.08,-9.65 -55.88,0 -89.24,34.93 -89.24,93.44 0,59.15 34.73,95.89 90.64,95.89 17.45,0 34.12,-3.43 46.98,-9.65 l 1.32,-0.64 8.05,27.21 -0.92,0.47 c -4.76,2.49 -22.97,10.62 -56.48,10.62 -74.32,0 -124.24,-50.22 -124.24,-124.94 0,-73.15 46.15,-120.41 117.6,-120.41 29.57,0 51.81,5.84 62.75,11.31 l 0.92,0.46"
         inkscape:connector-curvature="0" /><path
         id="path86"
         style="fill:#33508d;fill-opacity:1;fill-rule:nonzero;stroke:none"
         d="m 3849.98,1059.66 h 33.24 v 171.62 h -33.24 v -171.62"
         inkscape:connector-curvature="0" /><path
         id="path88"
         style="fill:#33508d;fill-opacity:1;fill-rule:nonzero;stroke:none"
         d="m 4015.31,1205.38 v 25.9 h -44.02 v 48.96 l -31.62,-8.46 -0.92,-0.25 v -40.25 h -26.21 v -25.9 h 26.21 v -91 c 0,-21.94 3.89,-36.21 12.19,-44.85 7.65,-8.74 19.45,-13.36 34.12,-13.36 11.17,0 21.03,1.52 27.73,4.29 l 0.82,0.35 -1.54,25.47 -1.48,-0.4 c -3.42,-0.93 -9.24,-2.05 -17.48,-2.05 -15.3,0 -21.82,9.45 -21.82,31.6 v 89.95 h 44.02"
         inkscape:connector-curvature="0" /><path
         id="path90"
         style="fill:#33508d;fill-opacity:1;fill-rule:nonzero;stroke:none"
         d="m 4143.5,1109.04 46.13,120.55 0.64,1.69 h -35.21 l -33.83,-100.06 c -2.75,-8.05 -5.25,-16.54 -7.46,-24.03 -0.86,-2.93 -1.68,-5.76 -2.5,-8.43 -2.64,9.23 -6.37,21.09 -10.04,31.77 l -37.34,100.75 h -36.27 l 63.22,-157.51 c 1.21,-3.35 2.03,-5.92 2.03,-7.61 0,-1.55 -1.15,-4.11 -2.34,-6.83 -5.84,-13.13 -15.37,-25.76 -25.53,-33.8 -10.86,-9.2 -22.13,-13.41 -26.48,-14.79 l -1.16,-0.37 8.34,-28.1 1.12,0.199 c 4.57,0.832 20.84,4.73 38.34,20.191 20.02,17.37 34.74,44.21 58.34,106.38"
         inkscape:connector-curvature="0" /><path
         id="path92"
         style="fill:#33508d;fill-opacity:1;fill-rule:nonzero;stroke:none"
         d="m 4401.64,1273.51 c 17.46,0 34.14,-3.43 46.99,-9.65 l 1.33,-0.64 8.05,27.21 -0.92,0.47 c -4.79,2.49 -22.99,10.62 -56.48,10.62 -74.32,0 -124.26,-50.22 -124.26,-124.94 0,-73.15 46.17,-120.41 117.61,-120.41 29.58,0 51.8,5.84 62.76,11.31 l 0.9,0.46 -6.94,26.56 -1.36,-0.67 c -12.27,-5.95 -31.08,-9.65 -49.07,-9.65 -55.89,0 -89.25,34.93 -89.25,93.44 0,59.15 34.74,95.89 90.64,95.89"
         inkscape:connector-curvature="0" /><path
         id="path94"
         style="fill:#33508d;fill-opacity:1;fill-rule:nonzero;stroke:none"
         d="m 4560.33,1209.57 c 33.97,0 49.42,-33.04 49.42,-63.74 0,-37.35 -21.08,-64.45 -50.12,-64.45 -29.04,0 -50.12,26.81 -50.12,63.75 0,32.07 15.72,64.44 50.82,64.44 z m -2.09,-153.74 c 42.54,0 85.45,28.15 85.45,91.04 0,52.79 -33.22,88.26 -82.65,88.26 -50.92,0 -85.12,-36.59 -85.12,-91.05 0,-51.96 33.85,-88.25 82.32,-88.25"
         inkscape:connector-curvature="0" /><path
         id="path96"
         style="fill:#33508d;fill-opacity:1;fill-rule:nonzero;stroke:none"
         d="m 4713.26,1059.66 v 250.6 h -33.24 v -250.6 h 33.24"
         inkscape:connector-curvature="0" /><path
         id="path98"
         style="fill:#33508d;fill-opacity:1;fill-rule:nonzero;stroke:none"
         d="m 4795.74,1310.26 h -33.24 v -250.6 h 33.24 v 250.6"
         inkscape:connector-curvature="0" /><path
         id="path100"
         style="fill:#33508d;fill-opacity:1;fill-rule:nonzero;stroke:none"
         d="m 4865.12,1163.15 c 2.52,18.28 14.72,47.47 45.76,47.47 11.82,0 21.37,-3.63 28.42,-10.8 11.64,-11.87 12.93,-29.79 12.97,-36.67 z m 118.43,-22.02 c 0.38,3.2 0.9,7.59 0.9,13.08 0,37.33 -18.63,80.92 -71.13,80.92 -47.44,0 -80.57,-38.01 -80.57,-92.45 0,-52.56 33.13,-86.51 84.42,-86.51 27.52,0 46.05,5.76 56.76,10.59 l 0.93,0.43 -5.82,24.46 -1.34,-0.58 c -10.57,-4.48 -23.5,-8.63 -46.35,-8.63 -34.51,0 -55.65,20.97 -56.72,56.2 h 118.63 l 0.29,2.49"
         inkscape:connector-curvature="0" /><path
         id="path102"
         style="fill:#33508d;fill-opacity:1;fill-rule:nonzero;stroke:none"
         d="m 5090.16,1086.28 c -29.61,0 -48.73,23.37 -48.73,59.55 0,37.5 19.72,62.69 49.08,62.69 23.47,0 36.97,-16.34 41.79,-31.64 1.18,-3.54 1.68,-7.61 1.68,-13.58 v -30.4 c 0,-5.73 -0.85,-11.42 -2.38,-16.03 -6.31,-18.58 -22.58,-30.59 -41.44,-30.59 z m 76.72,-0.9 v 98.18 c 0,20.45 0.7,34.13 1.4,46.41 l 0.08,1.31 h -29.41 l -1.29,-23.55 c -6,9.92 -21,27.4 -52.41,27.4 -38.47,0 -77.42,-31.28 -77.42,-91.05 0,-48.51 30.8,-83.71 73.24,-83.71 22.72,0 41.96,9.56 53.25,26.34 v -15.66 c 0,-47.77 -28.95,-57.8 -53.25,-57.8 -25.29,0 -42.67,9.15 -48.96,13.09 l -1.35,0.84 -8.49,-25.84 0.8,-0.52 c 13.12,-8.742 34.96,-14.179 56.95,-14.179 18.4,0 44.16,3.57 62.32,20.579 16.98,15.17 24.54,39.27 24.54,78.16"
         inkscape:connector-curvature="0" /><path
         id="path104"
         style="fill:#33508d;fill-opacity:1;fill-rule:nonzero;stroke:none"
         d="m 5235.57,1163.15 c 2.52,18.28 14.72,47.47 45.76,47.47 11.81,0 21.37,-3.63 28.42,-10.8 11.64,-11.87 12.93,-29.79 12.96,-36.67 z M 5354,1141.13 c 0.38,3.2 0.9,7.59 0.9,13.08 0,37.33 -18.63,80.92 -71.13,80.92 -47.44,0 -80.57,-38.01 -80.57,-92.45 0,-52.56 33.13,-86.51 84.42,-86.51 27.52,0 46.05,5.76 56.76,10.59 l 0.93,0.43 -5.82,24.46 -1.35,-0.58 c -10.56,-4.48 -23.49,-8.63 -46.34,-8.63 -34.51,0 -55.65,20.97 -56.72,56.2 h 118.63 l 0.29,2.49"
         inkscape:connector-curvature="0" /><path
         id="path106"
         style="fill:#33508d;fill-opacity:1;fill-rule:nonzero;stroke:none"
         d="M 2463.83,1553.71 H 1990.77 V 2540.9 H 1837.63 V 1423.56 h 626.2 v 130.15"
         inkscape:connector-curvature="0" /><path
         id="path108"
         style="fill:#33508d;fill-opacity:1;fill-rule:nonzero;stroke:none"
         d="m 2976.38,2207.36 c 17.53,55.27 34.34,115.18 52.64,187.61 15.34,-59.88 31.22,-121.8 54.25,-189.35 l 106.11,-311.9 h -319.16 z m -139.15,-435.57 h 385.2 l 118.26,-348.23 h 163.59 l -380.11,1113.88 -1.18,3.46 h -179.8 L 2563.56,1423.56 h 158.68 l 114.99,348.23"
         inkscape:connector-curvature="0" /><path
         id="path110"
         style="fill:#33508d;fill-opacity:1;fill-rule:nonzero;stroke:none"
         d="m 4096.09,1407.13 c 138.94,0 243.32,27.44 294.68,53.1 l 3.71,1.86 -32.2,123.4 -5.61,-2.73 c -57.75,-28.05 -146.26,-45.48 -231.01,-45.48 -263.19,0 -420.31,164.5 -420.31,440.02 0,278.51 163.58,451.52 426.88,451.52 82.13,0 160.66,-16.15 221.16,-45.47 l 5.44,-2.64 37.39,126.45 -3.73,1.95 c -22.42,11.7 -107.79,49.86 -265.19,49.86 -169.98,0 -315.72,-56.11 -421.45,-162.27 C 3599.97,2290.39 3544,2143.66 3544,1972.38 c 0,-343.38 216.71,-565.25 552.09,-565.25"
         inkscape:connector-curvature="0" /><path
         id="path112"
         style="fill:#33508d;fill-opacity:1;fill-rule:nonzero;stroke:none"
         d="m 5078.04,1407.13 c 138.93,0 243.32,27.44 294.67,53.1 l 3.72,1.86 -32.21,123.4 -5.61,-2.73 c -57.75,-28.05 -146.26,-45.48 -231,-45.48 -263.2,0 -420.32,164.5 -420.32,440.02 0,278.51 163.57,451.52 426.88,451.52 82.13,0 160.66,-16.15 221.16,-45.47 l 5.44,-2.64 37.39,126.45 -3.73,1.95 c -22.42,11.7 -107.79,49.86 -265.18,49.86 -169.98,0 -315.72,-56.11 -421.46,-162.27 -105.88,-106.31 -161.84,-253.04 -161.84,-424.32 0,-343.38 216.71,-565.25 552.09,-565.25"
         inkscape:connector-curvature="0" /></g></g></svg>