<?xml version="1.0" encoding="UTF-8" standalone="no"?>
<!-- Created with Inkscape (http://www.inkscape.org/) -->

<svg
   xmlns:dc="http://purl.org/dc/elements/1.1/"
   xmlns:cc="http://creativecommons.org/ns#"
   xmlns:rdf="http://www.w3.org/1999/02/22-rdf-syntax-ns#"
   xmlns:svg="http://www.w3.org/2000/svg"
   xmlns="http://www.w3.org/2000/svg"
   xmlns:sodipodi="http://sodipodi.sourceforge.net/DTD/sodipodi-0.dtd"
   xmlns:inkscape="http://www.inkscape.org/namespaces/inkscape"
   width="402"
   height="158.5"
   viewBox="0 0 402 158.5"
   id="svg3440"
   version="1.1"
   inkscape:version="0.91 r13725"
   sodipodi:docname="hvn tweed.svg">
  <defs
     id="defs3442" />
  <sodipodi:namedview
     id="base"
     pagecolor="#ffffff"
     bordercolor="#666666"
     borderopacity="1.0"
     inkscape:pageopacity="0.0"
     inkscape:pageshadow="2"
     inkscape:zoom="2.2625003"
     inkscape:cx="201"
     inkscape:cy="79.250005"
     inkscape:document-units="px"
     inkscape:current-layer="layer1"
     showgrid="false"
     units="px"
     inkscape:window-width="1280"
     inkscape:window-height="744"
     inkscape:window-x="-4"
     inkscape:window-y="-4"
     inkscape:window-maximized="1" />
  <metadata
     id="metadata3445">
    <rdf:RDF>
      <cc:Work
         rdf:about="">
        <dc:format>image/svg+xml</dc:format>
        <dc:type
           rdf:resource="http://purl.org/dc/dcmitype/StillImage" />
        <dc:title></dc:title>
      </cc:Work>
    </rdf:RDF>
  </metadata>
  <g
     inkscape:label="Layer 1"
     inkscape:groupmode="layer"
     id="layer1"
     transform="translate(0,-893.86216)">
    <path
       style="fill:#000000"
       d="m 348.37761,1041.5942 0,-9.7464 1.01828,0 c 0.97964,0 1.01827,0.041 1.01827,1.0727 l 0,1.0727 0.80008,-0.7485 c 2.84646,-2.6632 7.11038,-2.5332 9.94689,0.3034 4.38694,4.3869 2.23553,11.6622 -3.80753,12.8758 -2.04834,0.4114 -4.40928,-0.1956 -5.91985,-1.5219 l -1.01959,-0.8952 0,3.6669 0,3.6668 -1.01827,0 -1.01828,0 0,-9.7463 z m 10.24165,2.4429 c 0.6073,-0.3099 1.46439,-1.1076 1.90461,-1.7728 0.68606,-1.0367 0.80039,-1.507 0.80039,-3.2922 0,-1.8179 -0.10587,-2.2354 -0.83254,-3.284 -1.4573,-2.1029 -4.56898,-2.9932 -6.96387,-1.9926 -1.9068,0.7968 -3.39872,3.2461 -3.403,5.5868 -0.003,1.3806 1.34515,3.7979 2.52332,4.526 1.99865,1.2352 3.85857,1.3065 5.97109,0.2288 z m -345.852625,2.0997 c -1.20917,-0.5492 -3.32953,-2.7383 -3.32953,-3.4375 0,-0.2147 0.31294,-0.5329 0.69542,-0.7071 0.62824,-0.2863 0.83386,-0.1733 2.12854,1.17 1.28543,1.3336 1.56142,1.4868 2.67819,1.4868 1.39678,0 2.7433,-0.6675 3.1805,-1.5767 1.04215,-2.1671 0.32688,-3.5114 -3.55931,-6.6894 -3.18583,-2.6053 -3.95959,-3.7239 -3.95959,-5.724 0,-4.6082 6.1164,-6.0866 9.14916,-2.2115 l 0.72175,0.9223 -0.78289,0.6242 -0.7829,0.6243 -1.05999,-1.0923 c -2.61724,-2.6969 -6.44424,-0.6206 -4.78176,2.5943 0.23476,0.454 1.38071,1.5433 2.54657,2.4208 3.99753,3.0086 5.41279,5.1079 5.086,7.5443 -0.47568,3.5465 -4.50728,5.6062 -7.93016,4.0515 z m 16.30866,0.2925 c -2.11324,-0.5527 -4.05733,-2.1419 -4.98678,-4.0765 -0.66308,-1.3802 -0.84884,-4.0855 -0.39246,-5.7155 0.43181,-1.5423 2.25258,-3.7198 3.74862,-4.483 3.32997,-1.6988 7.49925,-0.6415 9.61891,2.4393 3.32399,4.8313 0.27144,11.4325 -5.51534,11.9271 -0.88008,0.075 -1.99291,0.034 -2.47295,-0.091 z m 4.56016,-2.4364 c 3.57239,-2.1827 3.79508,-6.9791 0.44766,-9.6422 -1.52672,-1.2146 -4.16124,-1.3945 -5.87203,-0.401 -1.33843,0.7773 -2.35164,2.1539 -2.79374,3.7957 -0.63534,2.3595 0.86652,5.5377 3.07067,6.4981 1.43521,0.6254 3.911,0.5049 5.14744,-0.2506 z m 11.94627,2.4236 c -1.50021,-0.3808 -3.12878,-1.6167 -3.73251,-2.8326 -0.4712,-0.949 -0.56902,-1.9154 -0.65045,-6.4265 l -0.0958,-5.3096 0.87139,0 0.87139,0 0.0973,4.8732 c 0.10833,5.4277 0.30248,6.1477 1.95863,7.2625 1.28179,0.8629 3.55726,0.9073 4.88877,0.095 1.67782,-1.023 1.93362,-1.9295 2.06838,-7.3303 l 0.12091,-4.8455 0.71733,-0.1372 c 0.43241,-0.083 0.77565,0.015 0.86417,0.2456 0.0808,0.2104 0.10317,2.649 0.0498,5.4191 -0.0945,4.9067 -0.11796,5.072 -0.90967,6.4188 -0.52114,0.8866 -1.21783,1.5892 -1.94228,1.9588 -1.30333,0.6649 -3.79891,0.9581 -5.17729,0.6083 z m 41.42287,-0.055 c -1.8103,-0.425 -3.33931,-1.445 -4.26819,-2.8473 -1.12905,-1.7046 -1.53641,-3.2914 -1.35725,-5.2871 0.41799,-4.6559 4.69915,-7.7572 9.21344,-6.6742 2.8809,0.6911 5.03679,3.0722 5.51381,6.0898 l 0.23369,1.4783 -6.50262,0 -6.50261,0 0,0.7389 c 0,1.0446 0.97959,2.8366 2.03703,3.7264 2.26939,1.9095 5.32337,1.6171 7.6081,-0.7286 1.26422,-1.2979 1.43519,-1.3855 2.107,-1.0794 0.68524,0.3122 0.70577,0.3822 0.32706,1.1145 -0.68625,1.3271 -2.63963,2.8587 -4.25938,3.3397 -1.68353,0.5 -2.46599,0.5243 -4.15008,0.129 z m 7.09491,-9.1432 c 0,-0.7747 -1.37026,-2.5578 -2.45347,-3.1926 -2.46951,-1.4473 -5.55147,-0.8439 -7.18124,1.406 -1.42181,1.9627 -1.46492,1.9437 4.39786,1.9437 2.88026,0 5.23685,-0.071 5.23685,-0.1571 z m 41.986225,8.9455 c -4.43649,-1.5884 -6.78297,-5.0592 -6.78297,-10.0331 0,-2.8238 0.86818,-4.9069 2.88608,-6.9248 2.18052,-2.1805 4.18524,-2.9605 7.58762,-2.952 1.80688,0 2.91547,0.1736 4.1159,0.6276 1.58498,0.5995 4.32124,2.6709 4.32124,3.2713 0,0.1608 -0.29457,0.5337 -0.6546,0.8287 -0.64663,0.5298 -0.66702,0.5243 -1.67289,-0.4482 -3.9919,-3.8595 -10.87034,-2.8837 -13.52852,1.9193 -0.7789,1.4073 -0.87244,1.8431 -0.86932,4.05 0.004,2.8398 0.50117,4.0716 2.37208,5.8771 3.22907,3.1161 8.81422,3.1978 11.9385,0.1746 0.90502,-0.8757 0.95171,-0.8873 1.67288,-0.4148 0.40803,0.2674 0.74187,0.6005 0.74187,0.7402 0,0.4881 -2.16824,2.1525 -3.74353,2.8737 -2.17925,0.9977 -6.19515,1.1943 -8.38434,0.4104 z m 19.89979,0.1201 c -1.85253,-0.5146 -3.37739,-1.7978 -4.35342,-3.6635 -1.0017,-1.9147 -1.11075,-4.9692 -0.24543,-6.8746 1.25357,-2.7603 3.70879,-4.3012 6.86423,-4.308 4.40725,-0.01 7.41887,3.0503 7.41887,7.5377 0,2.0664 -0.42421,3.3783 -1.584,4.8989 -1.61571,2.1183 -5.25332,3.2004 -8.10025,2.4095 z m 4.53402,-2.0282 c 1.80054,-0.7523 3.3975,-3.244 3.40299,-5.3095 0.005,-1.8415 -1.47665,-4.1835 -3.20394,-5.0647 -4.23965,-2.1629 -9.12346,1.965 -7.863,6.6459 0.38604,1.4337 1.82122,3.1751 3.06241,3.7159 1.14934,0.5008 3.41797,0.5069 4.60154,0.012 z m 45.2994,2.1572 c -3.22663,-0.651 -5.81872,-3.9642 -5.81872,-7.4374 0,-2.6073 1.83665,-5.696 4.06216,-6.8314 3.5485,-1.8103 8.21125,-0.4119 9.94266,2.982 0.32312,0.6333 0.68861,1.7913 0.81222,2.5732 l 0.22474,1.4217 -6.50261,0 -6.50262,0 0.006,0.6546 c 0.0104,1.0652 1.00623,2.9487 2.002,3.7866 2.30487,1.9394 5.36788,1.6587 7.67236,-0.703 1.2465,-1.2775 1.45553,-1.389 2.03655,-1.0868 0.35612,0.1852 0.69428,0.3767 0.75148,0.4256 0.0572,0.049 -0.26751,0.6056 -0.72157,1.2373 -1.80674,2.5135 -4.7718,3.622 -7.96504,2.9776 z m 6.81843,-9.6921 c -1.16541,-3.7536 -6.90862,-4.7192 -9.27404,-1.5592 -0.37243,0.4975 -0.76663,1.1991 -0.87599,1.5592 l -0.19884,0.6546 5.27606,0 5.27606,0 -0.20325,-0.6546 z m 10.25147,9.5626 c -1.93822,-0.5415 -3.65535,-1.8251 -4.69823,-3.5119 -0.77895,-1.2599 -0.87892,-1.6753 -0.87295,-3.6277 0.008,-2.4603 0.54646,-3.8183 2.16697,-5.4603 2.92714,-2.966 8.61557,-3.0849 11.42755,-0.2388 0.95875,0.9703 1.00822,1.4713 0.1886,1.91 -0.51132,0.2736 -0.73765,0.2093 -1.38194,-0.393 -2.47253,-2.3112 -6.15278,-2.417 -8.55865,-0.2461 -1.40029,1.2635 -1.95819,2.4706 -1.95819,4.2369 0,1.6562 0.42503,2.6504 1.72543,4.036 2.15217,2.2933 5.93871,2.4394 8.40945,0.3246 1.16646,-0.9985 1.2057,-1.0091 1.94347,-0.5257 l 0.75298,0.4934 -0.96061,1.0116 c -1.84068,1.9383 -5.33223,2.7878 -8.18388,1.991 z m 31.02951,0.1101 c -2.34933,-0.4878 -4.24377,-1.9395 -5.34304,-4.0942 -0.69169,-1.3559 -0.78004,-4.7324 -0.16251,-6.2104 0.60864,-1.4566 2.34118,-3.2268 3.89171,-3.9763 2.09122,-1.0108 5.19602,-0.9603 7.40499,0.1205 0.91531,0.4478 1.93381,1.1928 2.26333,1.6556 l 0.59915,0.8414 -0.75213,0.4928 c -0.73424,0.4811 -0.77427,0.4715 -1.68313,-0.4051 -1.20902,-1.1661 -2.30207,-1.5647 -4.30407,-1.5697 -4.32184,-0.011 -7.22448,4.0309 -5.63207,7.8421 1.58684,3.7978 6.71146,4.9441 9.76611,2.1844 1.10061,-0.9944 1.14853,-1.0082 1.86744,-0.5371 l 0.73785,0.4834 -0.59915,0.8415 c -1.25818,1.7669 -5.23237,2.9171 -8.05448,2.3311 z m 16.19746,0.033 c -2.26083,-0.4865 -3.59825,-1.6585 -4.31954,-3.7851 -0.20089,-0.5922 -0.33544,-2.9553 -0.33544,-5.8914 l 0,-4.9025 0.84878,0 0.84877,0 0.0968,5.0324 c 0.10696,5.5628 0.25958,6.0919 2.07639,7.1997 1.24165,0.7571 3.52799,0.7566 4.77052,-10e-4 1.6472,-1.0044 1.90646,-1.9289 2.06318,-7.3578 l 0.14069,-4.8732 0.85569,0 0.85568,0 -0.0958,5.3096 c -0.0927,5.1371 -0.12091,5.3523 -0.86739,6.622 -0.44741,0.761 -1.24442,1.5781 -1.89713,1.9449 -1.2721,0.715 -3.52479,1.0289 -5.04113,0.7026 z m 30.5589,-0.083 c -1.1871,-0.3406 -2.62904,-1.3084 -2.62904,-1.7646 0,-0.1765 0.20674,-0.5494 0.45942,-0.8286 0.43509,-0.4808 0.51429,-0.4704 1.49529,0.1953 1.4038,0.9527 3.0635,0.948 4.02272,-0.011 1.44892,-1.4489 0.79929,-2.7738 -2.22671,-4.5411 -2.59503,-1.5156 -3.24225,-2.4835 -3.08433,-4.6127 0.0974,-1.3123 0.26565,-1.7092 1.00483,-2.3697 1.64548,-1.4702 4.1212,-1.3117 6.32952,0.4052 0.5801,0.451 0.57995,0.4543 -0.0465,1.0895 l -0.62842,0.6371 -0.91211,-0.6495 c -2.31193,-1.6462 -5.0261,0.018 -3.79151,2.3252 0.16208,0.3028 1.13677,1.0215 2.16602,1.5971 2.64801,1.4808 3.64927,2.7003 3.6479,4.4429 -0.003,1.8117 -0.83045,3.1405 -2.40517,3.8553 -1.36263,0.6186 -1.91636,0.656 -3.40186,0.2298 z m 70.31256,-0.056 c -3.11598,-0.8737 -5.1535,-3.724 -5.1535,-7.2091 0,-3.2571 1.17399,-5.3441 3.81993,-6.7908 1.31317,-0.718 1.88722,-0.8532 3.59894,-0.8477 3.14007,0.01 5.55118,1.5335 6.86173,4.3353 0.66907,1.4303 0.74087,4.6703 0.13563,6.1189 -1.49209,3.5711 -5.46881,5.4573 -9.26273,4.3934 z m 4.91664,-2.1586 c 1.57109,-0.8454 3.01544,-3.3237 3.02036,-5.1827 0.003,-0.9544 -0.59299,-2.4981 -1.36461,-3.5374 -1.71577,-2.3109 -5.38022,-2.8136 -7.57557,-1.0392 -1.44292,1.1662 -2.09619,2.335 -2.3089,4.1309 -0.32992,2.7857 1.63867,5.4962 4.4174,6.0824 1.25071,0.2639 2.82595,0.076 3.81132,-0.454 z m -43.48929,2.0263 c -0.93984,-0.09 -1.04036,-0.2234 -2.46636,-3.2731 l -1.48659,-3.1793 -4.17487,0 -4.17488,0 -1.48727,3.2003 -1.48726,3.2003 -1.13296,0 c -0.62313,0 -1.08933,-0.111 -1.03597,-0.2466 1.02136,-2.5974 9.17703,-19.226 9.39436,-19.1542 0.328,0.1083 9.25354,19.0734 9.11523,19.3681 -0.046,0.098 -0.52456,0.136 -1.06343,0.085 z m -4.98441,-8.4477 c 0,-0.1374 -0.70205,-1.725 -1.56014,-3.528 l -1.56015,-3.2783 -1.49468,3.129 c -0.82207,1.7209 -1.49468,3.3085 -1.49468,3.528 0,0.3127 0.66063,0.399 3.05482,0.399 1.68016,0 3.05483,-0.1124 3.05483,-0.2497 z m -268.533975,1.9953 0,-6.4006 -1.30921,0 c -1.20253,0 -1.30921,-0.059 -1.30921,-0.7273 0,-0.6681 0.10668,-0.7274 1.30921,-0.7274 l 1.30921,0 0,-2.7638 0,-2.7639 0.86189,0 0.8619,0 0.0837,2.6911 0.0837,2.6912 1.52741,0.088 c 1.39304,0.08 1.52742,0.1492 1.52742,0.7849 0,0.6356 -0.13438,0.7046 -1.52742,0.7848 l -1.52741,0.088 -0.0784,6.3279 -0.0784,6.3279 -0.86713,0 -0.86714,0 0,-6.4006 z m 7.05138,-3.5639 0.0766,-9.9646 0.87281,0 0.8728,0 0.14547,4.0731 c 0.08,2.2402 0.23969,3.8436 0.35485,3.5632 0.32256,-0.7856 2.77704,-2.2081 4.17063,-2.4171 1.50501,-0.2256 3.01001,0.2225 4.24956,1.2655 1.5541,1.3077 1.78282,2.2724 1.92863,8.1348 l 0.13205,5.3096 -1.05382,0 -1.05382,0 -7e-4,-5.0186 c -2.3e-4,-4.1952 -0.0839,-5.1858 -0.50913,-6.037 -1.38057,-2.7635 -5.54276,-2.4691 -7.40376,0.5238 -0.6135,0.9867 -0.67741,1.4703 -0.76703,5.8041 l -0.0978,4.7277 -0.99706,0 -0.99707,0 0.0766,-9.9645 z m 32.51593,2.8366 0,-7.128 1.01827,0 c 0.903005,0 1.018275,0.086 1.018275,0.7575 l 0,0.7575 0.99666,-0.8751 c 1.18327,-1.0389 2.3822,-1.3607 3.49446,-0.9378 0.76108,0.2894 0.78403,0.3473 0.37973,0.9576 -0.2909,0.4391 -0.8351,0.7051 -1.67974,0.8209 -1.4553,0.1996 -2.42105,1.1406 -2.88501,2.8112 -0.16657,0.5998 -0.30359,3.0871 -0.30448,5.5273 l -0.002,4.4368 -1.018265,0 -1.01828,0 0,-7.1279 z m 8.437135,0 0,-7.128 0.87281,0 c 0.80354,0 0.87281,0.081 0.87281,1.0183 0,0.5601 0.0587,1.0183 0.13048,1.0183 0.0718,0 0.49725,-0.3405 0.94554,-0.7566 1.32146,-1.2267 2.44385,-1.6678 4.3063,-1.6922 2.1608,-0.028 3.49125,0.7096 4.52059,2.5072 0.67929,1.1863 0.72118,1.5323 0.81166,6.7059 l 0.0954,5.455 -0.85577,0 -0.85576,0 -0.13915,-5.0584 c -0.15818,-5.7505 -0.42346,-6.6009 -2.35564,-7.5519 -1.99751,-0.9831 -4.68515,0.1544 -5.92909,2.5096 -0.38541,0.7297 -0.52203,1.9471 -0.61929,5.5185 l -0.12479,4.5822 -0.83805,0 -0.83805,0 0,-7.1279 z m 61.67845,0 0,-7.128 1.01827,0 c 0.97963,0 1.01828,0.041 1.01828,1.0728 l 0,1.0727 0.80007,-0.7486 c 2.40041,-2.2458 5.7041,-2.4962 7.95434,-0.6027 1.57634,1.3264 1.80307,2.2746 1.94925,8.1521 l 0.13206,5.3096 -1.05382,0 -1.05382,0 0,-4.9552 c 0,-3.6167 -0.11133,-5.2217 -0.4121,-5.9416 -1.20586,-2.886 -5.61308,-2.6715 -7.50124,0.365 -0.61351,0.9867 -0.67742,1.4703 -0.76704,5.8041 l -0.0978,4.7277 -0.99324,0 -0.99324,0 0,-7.1279 z m 16.00148,0 0,-7.128 1.01828,0 c 0.9984,0 1.01827,0.023 1.01827,1.1946 l 0,1.1945 0.80371,-0.8604 c 1.3088,-1.4011 2.61497,-1.9439 4.65048,-1.9327 1.57291,0.01 1.96442,0.1271 2.90936,0.8803 2.00015,1.5943 2.24162,2.4625 2.35573,8.47 l 0.10085,5.3096 -1.04602,0 -1.04603,0 0,-4.9552 c 0,-5.3853 -0.24148,-6.5461 -1.5387,-7.3961 -1.67885,-1.1 -3.9086,-0.7236 -5.50065,0.9285 -1.40757,1.4607 -1.68518,2.682 -1.6871,7.4224 l -0.002,4.0004 -1.01828,0 -1.01828,0 0,-7.1279 z m 52.01049,0.8001 -0.0784,-6.3279 -1.23648,-0.089 c -1.08405,-0.078 -1.23648,-0.175 -1.23648,-0.7834 0,-0.6083 0.15243,-0.7049 1.23648,-0.7833 l 1.23648,-0.09 0.0837,-2.6912 0.0836,-2.6911 0.85097,0 0.85098,0 0.0837,2.6911 0.0837,2.6912 1.38194,0.089 c 1.24769,0.08 1.38195,0.1578 1.38195,0.8001 0,0.6597 -0.10567,0.7114 -1.45468,0.7114 l -1.45468,0 0,6.4006 0,6.4006 -0.86714,0 -0.86713,0 -0.0784,-6.3279 z m 6.75859,-0.7516 c 0,-3.8937 0.0685,-7.148 0.15231,-7.2318 0.0838,-0.084 0.47653,-0.09 0.87281,-0.015 l 0.7205,0.1378 0,7.094 0,7.094 -0.87281,0 -0.87281,0 0,-7.0795 z m 39.85824,0.6788 0,-6.4006 -1.30921,0 c -1.19432,0 -1.30921,-0.062 -1.30921,-0.7106 0,-0.628 0.1437,-0.721 1.23648,-0.8001 l 1.23647,-0.09 0.0837,-2.6911 0.0837,-2.6912 0.85097,0 0.85097,0 0.0837,2.6912 0.0837,2.6911 1.52741,0.088 c 1.39304,0.08 1.52742,0.1493 1.52742,0.7849 0,0.6356 -0.13438,0.7047 -1.52742,0.7849 l -1.52741,0.088 -0.0784,6.3279 -0.0784,6.3278 -0.86712,0 -0.86714,0 0,-6.4006 z m 52.36849,-0.7273 0,-7.128 0.87281,0 0.87281,0 0,7.128 0,7.1279 -0.87281,0 -0.87281,0 0,-7.1279 z m 4.36404,0 0,-7.128 1.01828,0 c 0.95456,0 1.01836,0.059 1.01973,0.9456 l 0,0.9455 0.65318,-0.7944 c 0.84869,-1.0323 2.64615,-1.7663 3.73812,-1.5264 1.50126,0.3297 0.71474,1.8844 -0.95334,1.8844 -0.72094,0 -1.21512,0.2259 -1.7507,0.8001 -1.41619,1.5184 -1.5255,1.9935 -1.64007,7.1279 l -0.10875,4.8732 -0.98892,0 -0.98895,0 0,-7.1279 z m 43.05854,0.049 c 0,-3.8937 0.0685,-7.148 0.15231,-7.2318 0.0838,-0.084 0.47652,-0.09 0.8728,-0.015 0.52665,0.1007 0.72051,0.3243 0.72051,0.8312 0,0.8835 0.3083,0.8767 1.1558,-0.025 0.95692,-1.0186 2.41139,-1.4495 3.55128,-1.0522 0.49913,0.174 1.47714,0.3164 2.17332,0.3164 l 1.26581,0 0,-2.7639 0,-2.7639 1.01827,0 1.01828,0 0,2.7639 0,2.7639 1.45468,0 c 1.35771,0 1.45469,0.048 1.45469,0.7274 0,0.6788 -0.097,0.7273 -1.45469,0.7273 l -1.45468,0 0,6.4006 0,6.4006 -1.01828,0 -1.01827,0 0,-6.4006 0,-6.4006 -1.30922,0 c -1.15894,0 -1.30921,-0.074 -1.30921,-0.6466 l 0,-0.6466 -0.4529,0.6466 c -0.31284,0.4466 -0.75058,0.6466 -1.41543,0.6466 -0.52942,0 -1.29231,0.2594 -1.69537,0.5764 -1.29458,1.0183 -1.67478,2.5605 -1.87308,7.5979 l -0.18215,4.6269 -0.82725,0 -0.82722,0 0,-7.0794 z m -90.94906,-6.1354 c -0.0873,-0.2275 -0.0177,-0.6772 0.15461,-0.9992 0.46596,-0.8706 0.39445,-2.0784 -0.12307,-2.0784 -0.34315,0 -0.4364,-0.4041 -0.4364,-1.8911 l 0,-1.8911 1.16374,0 1.16375,0 0,2.1486 c 0,2.3771 -0.73054,5.1248 -1.36255,5.1248 -0.22073,0 -0.47277,-0.1861 -0.56008,-0.4136 z m -48.80062,-4.4824 c -0.63168,-0.698 -0.61111,-1.588 0.0505,-2.1868 1.02753,-0.9299 2.45005,-0.2804 2.45005,1.1187 0,1.4274 -1.56895,2.0975 -2.5006,1.0681 z m 92.22673,0 c -0.64916,-0.7174 -0.60652,-1.5922 0.10919,-2.2399 0.92616,-0.8381 2.14356,-0.2916 2.26883,1.0187 0.15068,1.5757 -1.35666,2.3497 -2.37802,1.2212 z m -204.42767,-17.1242 c -14.90409,-2.4753 -26.1244,-15.52189 -26.19549,-30.45909 l -0.0112,-2.36211 -3.46825,10.76463 c -1.907525,5.92055 -4.160855,12.95497 -5.007395,15.63207 l -1.53917,4.8675 -6.70032,0.01 -6.70032,0.01 -3.1534,-10.83736 c -7.14573,-24.55793 -8.31107,-28.52605 -8.40494,-28.61992 -0.0541,-0.0541 -0.90354,2.74656 -1.88766,6.22368 -0.98411,3.47711 -3.43603,12.14802 -5.44871,19.26868 -2.01268,7.12062 -3.72826,13.17572 -3.81241,13.45582 -0.13991,0.4656 -0.72236,0.5091 -6.81273,0.5091 l -6.65975,0 -2.17608,-6.7643 c -1.19685,-3.7203 -3.89769,-12.13198 -6.00187,-18.69259 -2.10418,-6.56061 -4.61855,-14.38315 -5.58749,-17.38343 l -1.7617,-5.45505 -2.43137,0 -2.43137,0 0,24.14769 0,24.14768 -6.98079,0 -6.98078,0 -0.0744,-24.07495 -0.0744,-24.07496 -4.87318,-0.0798 -4.87318,-0.0798 0,-5.36825 0,-5.36825 4.87318,-0.0798 4.87318,-0.0798 0.0765,-10.25549 0.0765,-10.2555 6.97874,0 6.97875,0 0,10.32823 0,10.32823 8.0892,0 8.0892,0 5.79968,20.35078 c 3.18983,11.19293 5.88452,20.19377 5.98821,20.00186 0.10369,-0.19191 0.97607,-3.09828 1.93862,-6.45859 4.68523,-16.35628 9.15038,-31.73439 9.27119,-31.93023 0.14062,-0.22795 12.02864,-0.31524 12.02864,-0.0883 0,0.2423 11.05087,37.83376 11.27985,38.3704 0.15994,0.37482 0.68279,-1.09388 1.76075,-4.94591 0.84329,-3.01347 3.40284,-12.15602 5.68789,-20.31678 l 4.15463,-14.83774 7.323815,-0.0777 c 4.0281,-0.0428 7.32222,0.0227 7.32027,0.14547 -0.002,0.12276 -0.84651,2.83714 -1.8768,6.03196 -1.03029,3.19482 -1.836,5.84601 -1.79048,5.89153 0.0455,0.0455 0.57824,-0.63663 1.18382,-1.5159 1.63121,-2.36845 6.12099,-6.49101 8.83942,-8.11645 4.95557,-2.96311 9.75779,-4.24996 15.85979,-4.24996 5.76842,0 9.97686,0.94398 14.5912,3.2729 6.76491,3.41434 12.54463,10.26072 15.01504,17.78611 l 0.64684,1.97042 0.78024,-2.13203 c 1.75029,-4.7827 3.90508,-8.23186 7.39189,-11.83216 3.7587,-3.88102 7.95595,-6.4062 13.46863,-8.10308 2.42426,-0.74622 2.86214,-0.78665 8.51979,-0.78665 5.66422,0 6.09588,0.04 8.58262,0.79494 3.34125,1.01438 7.00395,2.7555 9.41317,4.47468 3.99909,2.85369 7.72349,7.3548 9.90655,11.9725 l 1.28169,2.71108 0.63625,-1.55448 c 2.93097,-7.1609 7.09568,-11.87862 13.5292,-15.32567 2.36574,-1.26756 5.82621,-2.45652 8.56331,-2.94223 2.53478,-0.4498 8.79768,-0.37955 11.19914,0.12561 5.25033,1.10444 9.64246,3.60375 12.85413,7.31454 l 1.132,1.30792 0,-13.98262 0,-13.98263 7.12793,0 7.12794,0 0,39.85824 0,39.85821 -6.837,0 -6.837,0 0,-4.123 0,-4.1229 -0.89912,1.3574 c -1.34885,2.0364 -4.38099,4.6583 -6.90687,5.9724 -3.7103,1.9303 -5.87879,2.4214 -11.39579,2.5809 -4.37552,0.1265 -5.0875,0.074 -8.04336,-0.5948 -10.92987,-2.4725 -18.89975,-10.4983 -21.80736,-21.96046 -0.38367,-1.51246 -0.69758,-2.99498 -0.69758,-3.29449 0,-0.52743 -0.70608,-0.54457 -22.42765,-0.54457 l -22.42765,0 0.20181,1.23648 c 0.79499,4.87103 3.98852,9.08049 8.60542,11.343 2.37164,1.16222 5.75344,1.96732 8.26368,1.96732 1.97119,0 5.53069,-0.70629 7.20711,-1.43006 2.29045,-0.98887 5.57245,-3.90026 6.6351,-5.88584 0.26925,-0.5031 0.77718,-0.53937 7.55183,-0.53937 3.99474,0 7.26317,0.0684 7.26317,0.15193 0,0.47968 -2.49471,4.9613 -3.75716,6.74956 -4.00529,5.6735 -10.46687,10.2337 -17.10768,12.0737 -1.93841,0.5371 -3.06076,0.63 -7.79237,0.6452 -4.91006,0.016 -5.80414,-0.058 -8.00074,-0.6568 -11.57719,-3.158 -20.27041,-12.35082 -22.67882,-23.98224 l -0.34638,-1.67288 -23.13437,0 -23.13436,0 0.20181,1.23648 c 1.04721,6.41643 6.12143,11.42592 13.01608,12.85005 2.81888,0.58225 4.8858,0.582 7.72018,-9.3e-4 3.89587,-0.80125 7.54175,-3.19502 9.59744,-6.30138 l 0.72312,-1.09269 7.23474,0 c 3.97911,-6e-5 7.23474,0.0829 7.23474,0.18423 0,0.4697 -2.25763,4.54491 -3.59901,6.4965 -4.32996,6.29976 -11.85775,11.29616 -19.05341,12.64646 -2.25501,0.4231 -9.13497,0.5821 -11.09616,0.2564 z m 130.07739,-13.65498 c 3.0613,-0.90911 5.52853,-2.3988 7.83609,-4.73136 3.50161,-3.53954 5.22705,-7.70064 5.22705,-12.60562 0,-8.75399 -5.50056,-15.81394 -13.89861,-17.8388 -2.49793,-0.60228 -7.44647,-0.4605 -9.77967,0.28018 -10.84983,3.44433 -15.73701,15.67161 -10.45562,26.15903 2.39376,4.75339 7.17317,8.18851 12.82494,9.2177 1.89023,0.34422 6.34108,0.0845 8.24582,-0.48113 z m -108.4821,-23.5478 c 0.28862,-0.28863 -0.55026,-2.91838 -1.49156,-4.67573 -1.84811,-3.45032 -5.35486,-6.36879 -9.28369,-7.7263 -1.6602,-0.57363 -2.52419,-0.67246 -5.87413,-0.67192 -4.30654,7e-4 -5.6068,0.29373 -8.86901,1.99874 -3.59791,1.88047 -7.06221,6.43862 -7.60155,10.00174 l -0.18716,1.23648 16.57205,0 c 9.11462,0 16.64539,-0.0734 16.73505,-0.16301 z m 60.22376,0 c 0.28886,-0.28886 -0.55043,-2.91846 -1.50031,-4.70061 -1.79239,-3.36286 -5.40846,-6.36545 -9.27494,-7.70142 -1.66019,-0.57363 -2.52418,-0.67246 -5.87413,-0.67192 -4.39523,7e-4 -5.71892,0.31175 -9.01902,2.11924 -3.59845,1.97091 -6.9211,6.37696 -7.45154,9.88124 l -0.18716,1.23648 16.57205,0 c 9.11463,0 16.6454,-0.0734 16.73505,-0.16301 z m 90.41509,17.32823 0,-19.20178 2.03216,0 2.03216,0 0.0771,8.50988 0.0771,8.50988 9.09176,0.0769 9.09175,0.0769 0,-8.58676 0,-8.58676 2.18202,0 2.18202,0 0,19.21453 0,19.21456 -2.10929,-0.086 -2.10929,-0.085 -0.0771,-8.6554 -0.0771,-8.65533 -9.16015,0 -9.16015,0 0,8.72803 0,8.7281 -2.03656,0 -2.03655,0 0,-19.20175 z m 39.05727,8.81255 c -2.25525,-5.72698 -5.66715,-14.37306 -7.58197,-19.21351 l -3.48152,-8.80082 2.27346,0 2.27346,0 1.22528,3.12757 c 0.67389,1.72016 3.4999,9.0094 6.28006,16.19833 2.78016,7.18892 5.08777,13.10373 5.12801,13.14393 0.0403,0.04 2.90366,-7.21624 6.36312,-16.12557 l 6.28989,-16.19879 2.21664,-0.085 c 1.3235,-0.0507 2.21662,0.0309 2.21662,0.20254 0,0.15813 -2.02384,5.36775 -4.49741,11.57694 -2.47357,6.20919 -5.85069,14.69339 -7.50469,18.85378 l -3.00729,7.5643 -2.0466,0.085 -2.04657,0.084 -4.1005,-10.4127 z m 24.65773,-8.81255 0,-19.20178 2.12374,0 2.12378,0 4.2351,6.03693 c 2.32932,3.3203 7.21431,10.29186 10.85558,15.49234 3.64124,5.20048 6.81587,9.65176 7.0547,9.89186 0.38506,0.3869 0.41086,-1.3681 0.22798,-15.49238 l -0.20628,-15.92875 2.21441,0 2.2144,0 -0.0748,19.12905 -0.0748,19.12908 -2.03655,0.072 -2.03655,0.072 -7.70981,-10.96674 c -4.24039,-6.03169 -9.28086,-13.19426 -11.20104,-15.91682 l -3.49123,-4.95012 -0.0752,15.91721 -0.0752,15.91717 -2.03405,0 -2.03408,0 0,-19.20174 z m -64.00594,-42.91307 0,-18.1835 2.10929,0.01 2.10929,0.01 5.11041,7.33636 c 2.81073,4.035 7.52389,10.77643 10.47369,14.98095 l 5.36329,7.6446 0.0754,-14.99073 0.0754,-14.99073 2.03393,0 2.03394,0 0,18.19625 0,18.19625 -2.08427,-0.0855 -2.08424,-0.0855 -10.64421,-15.10896 -10.64419,-15.10897 -0.0753,15.1817 -0.0753,15.18169 -1.88849,0 -1.8885,0 0,-18.1835 z m 33.45765,0 0,-18.1835 10.18276,0 10.18276,0 0,1.74102 0,1.74101 -8.07347,0.0773 -8.07348,0.0773 0,6.25513 0,6.25512 7.92801,0.0774 7.92801,0.0774 0,1.73627 0,1.73626 -7.92801,0.0774 -7.92801,0.0774 0,6.40059 0,6.4006 8.07348,0.0773 8.07347,0.0773 0,1.74101 0,1.74102 -10.18276,0 -10.18276,0 0,-18.18351 z m 30.69163,17.81984 c -0.0711,-0.20002 -2.0868,-7.43342 -4.47925,-16.07422 -2.39246,-8.6408 -4.61294,-16.65972 -4.93439,-17.81983 l -0.58446,-2.10929 2.11365,0 2.11365,0 1.51572,5.60052 c 0.83362,3.08029 2.66861,9.90858 4.07776,15.17399 1.40912,5.26541 2.63049,9.45488 2.71414,9.30995 0.0836,-0.14493 0.62833,-2.09641 1.21044,-4.33662 2.41436,-9.29158 6.58309,-25.52237 6.58309,-25.63096 0,-0.0643 0.7139,-0.11688 1.58648,-0.11688 1.54409,0 1.59322,0.0253 1.83919,0.94554 0.13897,0.52005 1.94278,7.39236 4.00849,15.27181 2.11601,8.0714 3.83407,14.10499 3.93511,13.81946 0.0986,-0.27874 1.93162,-7.15105 4.07328,-15.2718 l 3.89395,-14.76501 2.09613,0 2.09614,0 -0.5835,2.10929 c -1.12627,4.07146 -8.7259,31.21939 -9.1623,32.7303 l -0.44118,1.52742 -2.0047,0 -2.00469,0 -0.28934,-1.09101 c -2.13549,-8.05213 -7.29743,-27.81372 -7.29743,-27.93694 0,-0.67975 -0.68204,1.76725 -3.91457,14.04474 -2.02224,7.68071 -3.74502,14.19404 -3.82837,14.47407 -0.12551,0.42164 -0.49971,0.50914 -2.17763,0.50914 -1.35791,0 -2.06873,-0.11993 -2.1554,-0.36367 z M 82.799235,937.51175 c -0.14963,-0.52005 -1.93367,-6.18239 -3.96452,-12.58299 -7.65694,-24.13208 -9.45774,-29.92496 -9.33937,-30.04333 0.067,-0.067 2.32458,1.95245 5.01685,4.48766 15.55607,14.64857 22.03225,20.62077 22.45607,20.70854 0.26235,0.0543 10.296085,2.19054 22.297205,4.74713 44.49561,9.47887 62.55886,13.34902 62.84218,13.46426 0.16002,0.0651 -22.05771,0.12867 -49.37272,0.1413 l -49.663645,0.023 -0.27205,-0.94554 z m -13.96935,-3.2003 c -0.32313,-1.00009 -2.17703,-6.85882 -4.11979,-13.01939 -1.94276,-6.16057 -4.30149,-13.61816 -5.24162,-16.57243 -0.94014,-2.95426 -1.6826,-5.39809 -1.64993,-5.43072 0.0327,-0.0326 1.76376,1.5335 3.84684,3.48031 2.08308,1.9468 5.12069,4.78339 6.75025,6.30353 l 2.96283,2.76389 3.79618,11.99438 c 2.0879,6.5969 3.79618,12.06286 3.79618,12.14658 0,0.0837 -2.14953,0.1522 -4.77672,0.1522 l -4.77673,0 -0.58749,-1.81835 z m -10.02819,-0.14547 c -0.0709,-0.12001 -1.11878,-3.36031 -2.32864,-7.20066 -1.20986,-3.84036 -3.25433,-10.31911 -4.54326,-14.39722 -1.28893,-4.07811 -2.34351,-7.525 -2.34351,-7.65976 0,-0.13476 2.25839,1.87729 5.01865,4.47122 4.66247,4.38153 5.05617,4.83223 5.54749,6.35055 0.29086,0.89888 1.74585,5.46376 3.23329,10.1442 l 2.70446,8.50988 -3.5798,0 c -1.96889,0 -3.6378,-0.0982 -3.70868,-0.21821 z"
       id="path3459"
       inkscape:connector-curvature="0" />
  </g>
</svg>
