<?xml version="1.0" encoding="UTF-8" standalone="no"?>
<svg xmlns:rdf="http://www.w3.org/1999/02/22-rdf-syntax-ns#" xmlns="http://www.w3.org/2000/svg" xml:space="preserve" height="182" viewBox="0 0 139.3425 182" width="139.34" version="1.1" xmlns:cc="http://creativecommons.org/ns#" xmlns:dc="http://purl.org/dc/elements/1.1/"><g transform="matrix(1.25 0 0 -1.25 -71.099 924.5)"><path d="m81.403 738.53v-12.275h4.882l-22.474-64.994h-6.137v-12.277h24.635v12.277h-5.026l4.677 15.527h10.13v-0.014h5.685v-69.969h-5.685v-12.275h24.795v12.275h-6.247v22.967h44.924l11.986 11.985v34.74l-11.739 11.793h-28.836l-12.578 37.965h4.968v12.275h-37.96zm17.595-12.275h3.409l11.496-37.945h-28.335l13.43 37.945zm31.79-49.481h19.068l4.829-4.827v-25.324l-5.076-5.073h-38.971v35.224h6.763l4.778-15.513h-4.993v-12.277h24.863v12.277h-6.122l-5.139 15.513z" fill="#900"/></g></svg>
