<svg xmlns="http://www.w3.org/2000/svg" height="50.443" viewBox="0 0 249.94815 50.442582" width="249.95"><g transform="matrix(1.25 0 0 -1.25 -395.31 664.48)"><g transform="matrix(.95 0 0 .95 21.71 26.234)"><path d="m0 17.684h101.43-101.43zm111.75 0h149.25-149.25z" transform="matrix(.8 0 0 -.8 311.03 531)" stroke="#8d734a" stroke-miterlimit="10" stroke-width=".93625" fill="none"/><path d="m112.1 0c-1.36 0-2.4686 1.2633-2.7773 3.0508l-0.50586 2.8555h-0.89258l-0.0781 0.44727h0.89453l-1.8477 10.453c-0.195 1.1475-0.60164 1.9668-0.93164 1.9668-0.21 0-0.71914-0.17719-1.0879-0.58594l-0.66016 0.75586c0.2125 0.31125 0.83383 0.52734 1.1426 0.52734 1.9638 0 2.644-1.8486 2.8965-3.2461l1.75-9.8711h1.0488l0.0801-0.44727h-1.0488l0.46485-2.6797c0.27375-1.5562 0.56344-2.7227 1.2422-2.7227 0.4475 0 1.0103 0.37078 1.3203 1.0508l0.8-0.5844c-0.25-0.44625-0.83-0.9707-1.8-0.9707zm76.586 1.1074c-4.3138 0-6.3926 3.5159-6.3926 6.1797 0 3.7687 2.2119 6.7031 6.7031 6.7031 0.96875 0 2.9718-0.50555 3.9043-1.0293v-2.6855h-0.60351v1.4219c-0.8725 1.2262-2.68 1.7695-3.2812 1.7695-3.4788 0-5.0938-3.3271-5.0938-6.1621 0-2.5662 1.4987-5.7129 4.6074-5.7129 1.2825 0 2.816 0.83914 3.7285 1.6504v1.168h0.64257v-3.0879h-0.64257v0.54297c-0.83375-0.36875-2.8185-0.75781-3.5723-0.75781zm-59.355 0.076172v0.44922l1.5742 0.11328c0.1925 0.45 0.35156 1.0142 0.35156 1.4805v7.8672l-8.5879-9.8105h-1.0684c-0.91375 0-1.3613-0.019375-2.0176-0.078125v0.4082c0.88876 0.1175 1.4341 0.38813 1.7266 0.64062v8.8203c0 0.85625-0.11625 1.7505-0.3125 2.2168l-0.95313 0.1543v0.4082c0.99-0.07875 1.3603-0.08008 2.1953-0.08008h1.6152v-0.4043l-1.6699-0.06055c-0.1-0.445-0.11524-1.0291-0.11524-1.6504v-8.6855l9.0137 10.26c0.095 0.115 0.27133 0.46766 0.33008 0.66016l0.0781 0.25195h0.48437v-10.412c0-0.72125 0.0384-1.5776 0.19336-1.9863l0.83-0.0582v-0.40625h-1.2422c-0.585 0-1.1291-0.020859-2.4316-0.099609zm-115.5 0.0215c-1.555 0.0775-2.2144 0.076172-2.7969 0.076172h-1.6328v0.40625l1.5723 0.082031c0.06 0.34875 0.13672 1.0285 0.13672 1.416v7.5234c-0.91375 1.3188-3.127 2.2891-3.7695 2.2891-1.3212 0-3.0703-1.1263-3.0703-2.6426v-6.5488c0-0.855 0.096172-1.5325 0.23242-2l1.049-0.1197v-0.40625c-0.99 0.0775-1.6487 0.078125-2.7949 0.078125h-1.5176v0.41016l1.3613 0.056641c0.135 0.37125 0.27344 0.91141 0.27344 1.6914v7.3633c0 0.875 1.1045 2.7798 3.457 3.2461 1.75-0.3525 3.7118-1.324 4.7793-2.4902v2.2949c0.52625-0.09625 1.612-0.15625 2.0195-0.15625h1.168v-0.40625h-1.6133c-0.13625-0.3125-0.13476-0.68125-0.13476-1.1875v-8.6074c0-0.62125 0.15359-1.5722 0.30859-1.8047l0.97266-0.1582v-0.40625zm52.344 3.0488-0.03711 0.35156c-0.48625-0.195-1.128-0.33008-1.5742-0.33008-1.7875 0-2.9336 0.89352-2.9336 2.4473 0 0.81375 0.2325 1.5756 1.125 2.0781l2.334 1.3223c0.6 0.3275 1.0273 0.8157 1.0273 1.4395 0 1.165-0.73766 1.9395-1.7852 1.9395-0.8175 0-1.7913-0.61922-2.2188-1.2617l-0.05469-1.0312h-0.48633c0.04 0.545 0.05859 0.81922 0.05859 1.4805v0.95117h0.44531v-0.19531c0.5625 0.255 1.4385 0.48633 2.041 0.48633 1.5562 0 3.0488-1.0889 3.0488-2.7227 0-1.0688-0.54281-1.7847-1.3203-2.2109l-2.487-1.362c-0.5075-0.2725-0.75781-0.91508-0.75781-1.3613 0-1.0288 0.85344-1.5547 1.5547-1.5547 0.83375 0 1.4172 0.37031 1.9609 0.91406v0.75781l0.54688-0.019531c-0.02-0.2525-0.08203-0.81531-0.08203-1.3203v-0.79883h-0.40625zm-10.705 0.021484c-0.91 0-1.8636 0.097656-2.5273 0.097656h-1.4316v0.38672h1.0293c0.07625 0.40875 0.09766 1.0094 0.09766 1.5156v5.5957c0 0.85625-0.09859 1.1277-0.21484 1.459l-0.91211 0.11328v0.41016c0.87125-0.05875 1.5914-0.07813 2.3477-0.07813h1.3242v-0.38867l-1.168-0.05664c-0.0575-0.195-0.07813-0.48656-0.07813-0.66406v-3.0859h0.95117l2.0996 3.1465c0.48625 0.74 1.3977 1.1094 2.2539 1.1094 0.255 0 0.52625-0.02063 0.71875-0.07813v-0.37109c-0.68 0-1.1252-0.15461-1.5352-0.75586l-1.4746-2.2168c-0.27375-0.3875-0.56375-0.71766-0.875-0.97266 1.865-0.62 2.5645-1.2408 2.5645-2.582 0-1.79-1.5737-2.584-3.1699-2.584zm18.9 0-0.23047 1.9023 0.40625 0.060547 0.0957-0.75977c0.37-0.21375 1.2823-0.38672 1.9023-0.38672h0.7207c0.0375 0.2325 0.06055 0.5043 0.06055 0.7793v6.002c0 0.83375-0.05875 1.087-0.15625 1.457l-1.1855 0.11523v0.39063c1.07-0.06125 1.7875-0.06055 2.5625-0.06055h1.6523v-0.38672l-1.5137-0.05859c-0.0775-0.42875-0.07813-0.77836-0.07813-1.3809v-5.9824c0-0.37125 0.01922-0.665 0.13672-0.875h0.50391c0.95125 0 1.5727 0.15469 2.0215 0.36719l-0.13477 0.97266h0.48242l0.27344-2.1562h-0.48633l-0.01953 0.27148h-6.6055l0.01953-0.27148h-0.42773zm65.416 0c-2.6012 0-4.8555 2.0778-4.8555 4.7578 0 2.625 2.0991 4.9375 4.9141 4.9375 2.6612 0 4.8184-2.1955 4.8184-4.7617 0-2.64-2.1157-4.9336-4.877-4.9336zm10.84 0c-0.9125 0-1.8641 0.097656-2.5254 0.097656h-1.4394v0.38672h1.0332c0.075 0.40875 0.0957 1.0094 0.0957 1.5156v5.5957c0 0.85625-0.0961 1.1277-0.21484 1.459l-0.91406 0.11328v0.41016c0.875-0.05875 1.5935-0.07813 2.3535-0.07813h1.3184v-0.38867l-1.166-0.05664c-0.0562-0.195-0.0742-0.48656-0.0742-0.66406v-3.0859h0.95117l2.0976 3.1465c0.48375 0.74 1.3995 1.1094 2.252 1.1094 0.255 0 0.52695-0.02063 0.7207-0.07813v-0.37109c-0.6825 0-1.1277-0.15461-1.5352-0.75586l-1.4785-2.2168c-0.27125-0.3875-0.5618-0.71766-0.87305-0.97266 1.865-0.62 2.5645-1.2408 2.5645-2.582 0-1.79-1.5735-2.584-3.166-2.584zm5.6133 0-0.23633 1.9023 0.40821 0.060547 0.0957-0.75977c0.37-0.21375 1.2823-0.38672 1.9023-0.38672h0.72071c0.0412 0.2325 0.0605 0.5043 0.0605 0.7793v6.002c0 0.83375-0.06 1.087-0.15625 1.457l-1.1855 0.11523v0.39063c1.0675-0.06125 1.7862-0.06055 2.5625-0.06055h1.6543v-0.38672l-1.5156-0.05859c-0.08-0.42875-0.0801-0.77836-0.0801-1.3809v-5.9824c0-0.37125 0.0217-0.665 0.13672-0.875h0.50586c0.95375 0 1.5734 0.15469 2.0234 0.36719l-0.13867 0.97266h0.48633l0.27344-2.1562h-0.48633l-0.0234 0.27148h-6.6055l0.0215-0.27148h-0.42383zm52.461 0c-0.91125 0-1.8674 0.097656-2.5274 0.097656h-1.4394v0.38672h1.0312c0.0775 0.40875 0.0977 1.0094 0.0977 1.5156v5.5957c0 0.85625-0.0966 1.1277-0.21289 1.459l-0.91602 0.11328v0.41016c0.87625-0.05875 1.5948-0.07813 2.3535-0.07813h1.3203v-0.38867l-1.1641-0.05664c-0.0588-0.195-0.082-0.48656-0.082-0.66406v-3.0859h0.95898l2.0957 3.1465c0.48375 0.74 1.4002 1.1094 2.2539 1.1094 0.25375 0 0.52445-0.02063 0.7207-0.07813v-0.37109c-0.6825 0-1.1296-0.15461-1.5371-0.75586l-1.4746-2.2168c-0.275-0.3875-0.56625-0.71766-0.875-0.97266 1.865-0.62 2.5664-1.2408 2.5664-2.582 0-1.79-1.5762-2.584-3.1699-2.584zm10.562 0c-2.6038 0-4.8594 2.0778-4.8594 4.7578 0 2.625 2.1042 4.9375 4.918 4.9375 2.6625 0 4.8184-2.1955 4.8184-4.7617 0-2.64-2.1207-4.9336-4.877-4.9336zm-203.34 0.060547v0.38477c0.7375 0.07875 1.0887 0.27336 1.2637 0.50586v6.4687c0 0.66125-0.09859 1.3614-0.21484 1.6914l-0.70117 0.05664v0.41016c0.93625-0.07875 1.2053-0.07813 1.7891-0.07813h1.1094v-0.38867l-1.1484-0.05664c-0.07875-0.33125-0.0957-0.77914-0.0957-1.2441v-6.2148l5.8867 7.3418c0.27125 0.33125 0.40711 0.48672 0.50586 0.69922h0.50586v-7.6738c0-0.545 0.03758-1.0689 0.17383-1.3789l0.60156-0.058594v-0.39062h-1.0293c-0.44625 0-0.85484-0.036719-1.6523-0.074219v0.38477l0.95312 0.13867c0.13625 0.31 0.25391 0.61922 0.25391 1.0117v5.5723l-5.5586-7.0332h-0.83398c-0.62375 0-1.0098-0.017969-1.8086-0.074219zm223.58 0v0.38477c0.7375 0.07875 1.0874 0.27336 1.2637 0.50586v6.4687c0 0.66125-0.0993 1.3614-0.2168 1.6914l-0.69726 0.05664v0.41016c0.9325-0.07875 1.2046-0.07813 1.7871-0.07813h1.1055v-0.38867l-1.1426-0.05664c-0.08-0.33125-0.0996-0.77914-0.0996-1.2441v-6.2148l5.8887 7.3418c0.27125 0.33125 0.40656 0.48672 0.50781 0.69922h0.5v-7.6738c0-0.545 0.0408-1.0689 0.17578-1.3789l0.60352-0.058594v-0.39062h-1.0293c-0.445 0-0.85429-0.036719-1.6543-0.074219v0.38477l0.95507 0.13867c0.13625 0.31 0.25391 0.61922 0.25391 1.0117v5.5723l-5.5586-7.0332h-0.83594c-0.6225 0-1.0104-0.017969-1.8066-0.074219zm-212 0.015625v0.38867l1.1875 0.11719c0.0775 0.505 0.09766 0.98977 0.09766 1.4785v5.4199c0 0.85375-0.06 1.2055-0.15625 1.5742l-0.77734 0.11523v0.4082c0.815-0.05875 1.4764-0.07813 2.0977-0.07813h1.2637v-0.38672l-1.0664-0.05859c-0.02-0.17625-0.06055-0.52586-0.06055-0.66211v-6.3555c0-0.64125 0.03883-0.97258 0.17383-1.4551l0.70117-0.058594v-0.38867h-1.166c-0.7575 0-1.3974-0.019844-2.2949-0.058594zm4.8594 0v0.38867l0.63867 0.060547 3.7109 9.1309 0.52539-0.06055c0-0.1525-0.01758-0.29156-0.01758-0.44531 0-0.13625 0.01664-0.25188 0.05664-0.32812l3.75-8.2969 0.48633-0.060547v-0.38867c-0.7775 0.0575-1.1851 0.058594-1.7676 0.058594h-1.0117v0.39062l0.89453 0.058594c0.0775 0.29 0.07813 0.44266 0.07813 0.66016 0 0.5225-0.11758 1.0109-0.33008 1.4746l-2.134 4.7005-1.961-4.8571c-0.2525-0.6-0.46875-1.185-0.46875-2l1.0117-0.037109v-0.39062h-1.2246c-0.525 0-1.3012-0.00109-2.2324-0.058594zm36.611 0v0.38867l1.1855 0.11719c0.07875 0.505 0.09766 0.98977 0.09766 1.4785v5.4199c0 0.85375-0.05805 1.2055-0.1543 1.5742l-0.7793 0.11523v0.4082c0.81875-0.05875 1.4784-0.07813 2.0996-0.07813h1.2637v-0.38672l-1.0703-0.05859c-0.01875-0.17625-0.05664-0.52586-0.05664-0.66211v-6.3555c0-0.64125 0.03953-0.97258 0.17578-1.4551l0.69922-0.058594v-0.38867h-1.168c-0.7575 0-1.3967-0.019844-2.293-0.058594zm13.811 0v0.4082l0.83398 0.099609 3.2246 4.4863v2.4102c0 0.85375-0.03789 1.1667-0.21289 1.5742l-0.83594 0.11328v0.41016c1.145-0.07875 1.731-0.07813 2.3535-0.07813h0.99023v-0.38867l-0.99023-0.05664c-0.03875-0.215-0.05859-0.50664-0.05859-0.68164v-3.5352l3.3984-4.3125 0.50391-0.060547v-0.38867c-0.8925 0.0575-1.4152 0.058594-1.7852 0.058594h-1.0898v0.39062l0.91602 0.037109c0.03875 0.075 0.05664 0.19453 0.05664 0.26953 0 0.295-0.19508 0.64562-0.33008 0.85938l-2.075 2.6216-2.116-2.9902c-0.17625-0.235-0.31211-0.46727-0.34961-0.75977l0.89453-0.037109v-0.39062h-1.457c-0.6825 0-1.1497-0.00109-1.8672-0.058594zm82.393 0v0.38867l1.1035 0.097656c0.06 0.4475 0.0996 0.77672 0.0996 1.168v5.75c0 0.5425-0.0388 1.088-0.15625 1.5742l-0.79688 0.11523v0.4082c0.915-0.07875 1.6504-0.07813 2.1192-0.07813h1.3203v-0.38672l-1.127-0.05859c-0.0588-0.23125-0.0586-0.56445-0.0586-0.7207v-3.9062h4.6445v3.0527c0 0.5425-0.0387 1.1842-0.15625 1.5742l-0.91211 0.11523v0.4082c0.7975-0.05875 1.6681-0.07813 2.2344-0.07813h1.125v-0.38672l-0.92969-0.05859c-0.08-0.215-0.0801-0.52586-0.0801-0.66211v-6.0996c0-0.6975 0.0421-1.2442 0.19336-1.7305l0.77734-0.039063v-0.38867h-1.2617c-0.42625 0-1.555-0.00109-2.3125-0.058594v0.38867l1.2226 0.097656c0.0987 0.40875 0.0996 0.79672 0.0996 1.168v2.2305h-4.6445v-1.3203c0-0.69625 0.0176-1.5531 0.17383-2.0781l0.75976-0.039063v-0.38867h-1.2422c-0.295 0-1.5941-0.019844-2.1953-0.058594zm33.736 0-4.1367 9.0371-0.5039 0.05664 0.0176 0.4082c0.75625-0.05875 1.1848-0.07813 1.6523-0.07813h1.2246v-0.38672l-0.97266-0.05859c-0.13625-0.17625-0.15429-0.25398-0.15429-0.42773 0-0.40875 0.15359-0.97102 0.46484-1.6348l0.35156-0.73633h3.4356l0.56641 1.459c0.27124 0.6775 0.32968 1.1461 0.36718 1.3398l-1.1465 0.11523v0.39063c1.03-0.06125 1.5967-0.06055 2.293-0.06055h0.9707v-0.38672l-0.59961-0.05859-2.7969-7.3086c-0.1975-0.5025-0.41016-1.1837-0.41016-1.6699h-0.62305zm30.51 0c-0.96625 0.0575-1.3391 0.058594-1.8066 0.058594-0.60125 0-1.0857-0.0007812-1.5332-0.019531v0.4082l0.85352 0.039063c0.13875 0.6225 0.13867 0.79703 0.13867 1.457v5.5762c0 0.54375-0.0591 1.2252-0.35156 1.459l-0.64063 0.11523v0.39063c1.1462-0.0625 1.9625-0.0625 2.875-0.0625h2.0996c0.35 0 0.91336 0.13805 1.2246 0.2168l0.42578-2.3887h-0.44531l-0.21289 1.3223c-0.6425 0.36625-1.4005 0.36523-2.1367 0.36523h-1.3828c-0.1375-0.215-0.17383-0.79641-0.17383-1.3789v-6.2754c0-0.25375 0.0371-0.52688 0.0996-0.79688l0.9668-0.097656v-0.38867zm4.6445 0v0.38867l1.1836 0.11719c0.0788 0.505 0.0957 0.98977 0.0957 1.4785v5.4199c0 0.85375-0.0586 1.2055-0.15235 1.5742l-0.77929 0.11523v0.4082c0.8175-0.05875 1.4764-0.07813 2.0976-0.07813h1.2617v-0.38672l-1.0664-0.05859c-0.02-0.17625-0.0586-0.52586-0.0586-0.66211v-6.3555c0-0.64125 0.0383-0.97258 0.17578-1.4551l0.69922-0.058594v-0.38867h-1.166c-0.75875 0-1.3985-0.019844-2.291-0.058594zm21.016 0-4.1367 9.0371-0.50782 0.05664 0.0195 0.4082c0.7575-0.05875 1.1861-0.07813 1.6524-0.07813h1.2226v-0.38672l-0.96875-0.05859c-0.13875-0.17625-0.1582-0.25398-0.1582-0.42773 0-0.40875 0.1593-0.97102 0.4668-1.6348l0.35156-0.73633h3.4375l0.56445 1.459c0.2725 0.6775 0.33235 1.1461 0.3711 1.3398l-1.1484 0.11523v0.39063c1.0312-0.06125 1.5917-0.06055 2.293-0.06055h0.9707v-0.38672l-0.60156-0.05859-2.7988-7.3086c-0.19375-0.5025-0.41016-1.1837-0.41016-1.6699h-0.61914zm-206.07 0.0587c-1.1475 0.1175-2.2371 0.11719-4.5684 0.11719-0.23125 0-0.91281-0.020625-1.7891-0.078125v0.38867l1.0312 0.058594c0.1175 0.62125 0.11719 0.83656 0.11719 1.4766v5.6172c0 0.50375-0.09773 0.97109-0.27148 1.3398l-0.7207 0.11523v0.4082c1.01-0.0575 1.806-0.07813 2.916-0.07813 1.5738 0 2.5063 0.06 3.5938 0.15625l0.36914-2.3301h-0.42773l-0.21484 1.2422c-0.42625 0.35-0.67938 0.42773-1.9219 0.42773h-1.9434c-0.07625-0.4275-0.0957-0.66133-0.0957-1.3613v-2.8145h1.3789c0.50625 0 1.0898 0.11359 1.4785 0.30859l0.07617 0.85351h0.48633c-0.059-0.4464-0.078-0.8926-0.078-1.3576 0-0.4675 0.01937-0.87375 0.07813-1.2812h-0.48633c0 0.24875-0.03711 0.48438-0.03711 0.73438-0.4275 0.2525-0.87508 0.25195-1.5176 0.25195h-1.3789v-2.7949c0-0.27 0.03695-0.56414 0.0957-0.83789h1.418c0.9325 0 1.382 0.0006251 1.9258 0.32812v0.9375h0.4082l0.07813-1.8281zm90.645 0.29102c2.43 0 3.6133 2.4077 3.6133 4.7402 0 2.1375-1.1263 4.0039-3.3613 4.0039-2.3125 0-3.4961-2.4687-3.4961-4.6074 0-2.0975 0.93164-4.1367 3.2441-4.1367zm79.475 0c2.4288 0 3.6152 2.4077 3.6152 4.7402 0 2.1375-1.129 4.0039-3.3652 4.0039-2.3088 0-3.4922-2.4687-3.4922-4.6074 0-2.0975 0.92969-4.1367 3.2422-4.1367zm-163.95 0.0996c1.2612 0 2.1152 0.71758 2.1152 2.1738 0 1.6512-1.3202 2.1758-2.2539 2.1758h-1.1074v-3.166c0-0.40875 0.000625-0.83469 0.07813-1.0859 0.68125-0.0975 0.81797-0.097656 1.168-0.097656zm95.15 0c1.2625 0 2.1191 0.71758 2.1191 2.1738 0 1.6512-1.3196 2.1758-2.2559 2.1758h-1.1035v-3.166c0-0.40875-0.00078-0.83469 0.0742-1.0859 0.67875-0.0975 0.81476-0.097656 1.166-0.097656zm58.074 0c1.2638 0 2.1172 0.71758 2.1172 2.1738 0 1.6512-1.3195 2.1758-2.252 2.1758h-1.1113v-3.166c0-0.40875 0.00078-0.83469 0.082-1.0859 0.68-0.0975 0.81406-0.097656 1.1641-0.097656zm-105.73 0.9121c-2.41 0-4.2148 2.4076-4.2148 4.9551 0 2.02 1.0463 3.2441 2.8926 3.2441 2.3138 0 4.1387-2.4855 4.1387-5.3242 0-1.77-0.97016-2.875-2.8164-2.875zm-0.36914 0.46484c1.38 0 1.8672 1.2065 1.8672 2.7402 0 1.7675-0.67985 4.4883-2.5274 4.4883-1.2625 0-1.8867-1.6922-1.8867-3.1484 0-1.7487 0.91562-4.0601 2.5469-4.0801zm96.412 0.080078 1.3613 3.8066h-3.0293l1.668-3.8066zm56.174 0 1.3574 3.8066h-3.0312l1.6738-3.8066zm-242.32 16.93c-2.3762 0-4.3388 0.41797-6.0488 0.41797h-4.793v0.875h2.918c0.21 1.1675 0.29297 3.0852 0.29297 4.5039v15.965c0 1.7488-0.040781 3.0434-0.45703 4.4609l-2.043 0.29102v0.875c2.5838-0.16625 3.792-0.16602 5.627-0.16602h3.5v-0.875l-3.375-0.125c-0.125-0.58375-0.16602-1.378-0.16602-1.918v-8.9648c1.0838 0.12625 2.1238 0.16797 3.25 0.16797 8.6275 0 10.797-3.7937 10.797-7.5449 0-5.0862-4.4182-7.9629-9.502-7.9629zm135.54 0.04102c-2.3775 0-4.1235 0.37891-6.041 0.37891h-4.7988v0.87305h2.9199c0.205 1.1675 0.29101 3.0845 0.29101 4.502v15.969c0 2.3312-0.3325 3.4983-0.625 4.457l-2.5859 0.29297v0.875c2.5025-0.1675 4.2534-0.16797 6.3359-0.16797h3.5039v-0.87305l-3.334-0.12695c-0.12375-0.58375-0.21093-1.7512-0.21093-2.25v-8.7129h2.9199l6.7539 8.9199c1.5 2.0025 4.0427 3.2109 6.334 3.2109 0.62625 0 1.2935-0.08422 1.666-0.16797v-0.87305c-1.79 0-3.1218-0.83516-4.373-2.5039l-6.7148-8.793c5.2138-1.0025 7.4629-3.4177 7.4629-7.1289 0-5.6288-5.1689-7.8809-9.5039-7.8809zm34.438 0c-7.4188 0-13.713 5.9613-13.713 13.549 0 7.545 5.9164 14.215 13.879 14.215 7.5862 0 13.59-6.2931 13.59-13.672 0-7.5462-5.9196-14.092-13.756-14.092zm-66.709 0.002c-2.2488 0-4.9172 0.375-6.4609 0.375h-4.377v0.875h2.918c0.20875 1.0438 0.29492 3.043 0.29492 4.543v15.926c0 1.8738-0.2539 2.999-0.6289 4.459l-2.543 0.29297v0.875c1.9188-0.1675 2.8773-0.16797 4.7148-0.16797 2.4162 0 4.959 0.16797 7.834 0.16797 4.545 0 8.3379-2.7095 8.3379-7.377 0-3.7112-2.8355-6.5879-8.043-7.2129 3.3738-0.7525 5.873-3.5022 5.873-6.2109 0-2.5012-2.5837-6.5449-7.9199-6.5449zm-52.111 0.20898v0.95703c2.1262 0.2925 3.0027 0.70945 3.834 2.127l-1.166 18.26c-0.12625 2-0.46094 3.7512-0.83594 4.625l-1.832 0.29297v0.875c2.71-0.1675 4.003-0.16797 5.668-0.16797h2.25v-0.87305l-3.5801-0.12695c-0.1275-0.79125-0.12891-1.3362-0.12891-2.25 0-0.66625 0.04148-1.2087 0.08398-1.7949l0.70703-16.297 8.5488 21.592 0.83008-0.33398c-0.04-0.165-0.03906-0.28727-0.03906-0.54102 0-0.415 0.08477-0.83352 0.29102-1.291 2.7538-6.505 5.8362-13.13 8.6699-19.633 0.21 5.5438 0.66797 10.753 0.66797 16.299 0 1.1238-0.1675 3.124-0.5 4.209l-2.2109 0.33398 0.12891 0.875c2.2088-0.1675 3.7895-0.16797 5.832-0.16797h2.8379v-0.87305l-2.4629-0.12695c-0.24875-0.87375-0.33125-1.7498-0.375-3.416l-0.667-19.636c-0.0425-0.66875 0.000703-1.1257 0.12695-1.752l2.707-0.29297v-0.87305c-1.5825 0.04125-2.5427 0.08203-3.084 0.08203-1.4188 0-2.0398 0.000469-3.166-0.08203v2l-4.2949 9.8789c-1.4162 3.2512-2.793 6.4213-4.168 9.6738l-7.045-17.551c-0.54-1.3338-1.002-2.4622-1.002-3.8359-2 0-3.917 0.0015-6.627-0.16602zm142.21 0.04102v0.87305l3.125 0.25195c0.205 1.5025 0.29101 2.9614 0.29101 4.3789v15.965c0 2.3312-0.16328 3.5002-0.45703 4.459l-2.543 0.29297v0.875c2.1225-0.1675 3.6667-0.16797 5.793-0.16797h3.418v-0.87305l-2.918-0.12695c-0.12625-0.6675-0.20508-1.5427-0.20508-2.084v-10.254l11.965 13.338h5.709v-0.70703l-1.668-0.12695c-0.875-0.4575-1.8762-1.4167-2.6699-2.293l-10.95-11.755c3.4212-3.0425 8.0856-7.4606 11.172-10.922l1.791-0.125v-0.875h-3.1641c-1.4612 0-2.5429-0.0425-3.8379-0.125v0.87305l1.9609 0.21094c-0.5825 2.71-5.3344 7.0859-8.6719 10.086l-1.623 1.459v-5.418c0-1.8325 0.00031-4.1272 0.53907-6.0859l2.084-0.125v-0.875c-3.4588 0-5.8344 0.0012-9.127-0.125zm-155.35 0.125c-2.8325 0.2925-6.4189 0.33203-13.004 0.33203-0.62625 0-2.3357-0.000078-4.752-0.20508v0.87305l2.918 0.16797c0.29125 1.7088 0.29102 2.6687 0.29102 4.5449v15.633c0 1.29-0.33328 3.3308-0.83203 4.457l-1.961 0.292v0.875c2.8362-0.1675 4.8354-0.16797 7.9629-0.16797 4.3775 0 7.8381 0.0012 10.422 0.25l0.91602-6.5859h-1.207l-0.54102 3.0039c-1.1275 1.2938-3.9634 2.207-6.7559 2.207h-4.6699c-0.20625-1.25-0.24805-2.2914-0.24805-4.2539v-8.25h4.084c1.4175 0 3.127 0.37156 4.377 0.91406v2.7109h1.334v-3.9609c0-1.3325 0.04102-2.5415 0.16602-3.709h-1.291l-0.125 2.25c-1.3338 0.62625-2.7097 0.66797-4.4609 0.66797h-4.084v-7.9629c0-0.8325 0.0818-1.9592 0.24805-2.793h4.7109c2.6275 0 3.4622 0.41797 5.0859 1.293l-0.12305 2.709h1.168l0.37109-5.293zm206.54 0c-2.8338 0.2925-6.4184 0.33203-13.006 0.33203-0.62625 0-2.332-0.000078-4.752-0.20508v0.87305l2.9199 0.16797c0.28874 1.7088 0.28906 2.6687 0.28906 4.5449v15.633c0 1.29-0.33203 3.3308-0.83203 4.457l-1.959 0.29297v0.875c2.835-0.1675 4.8359-0.16797 7.9609-0.16797 4.3775 0 7.8394 0.0012 10.422 0.25l0.91602-6.5859h-1.207l-0.54102 3.0039c-1.1275 1.2938-3.9616 2.207-6.7578 2.207h-4.666c-0.2075-1.25-0.25-2.2914-0.25-4.2539v-8.25h4.0859c1.4188 0 3.1257 0.37156 4.377 0.91406v2.7109h1.334v-3.9609c0-1.3325 0.0423-2.5415 0.16602-3.709h-1.293l-0.125 2.25c-1.3325 0.62625-2.7077 0.66797-4.459 0.66797h-4.0859v-7.9629c0-0.8325 0.0838-1.9592 0.25-2.793h4.7129c2.625 0 3.4559 0.41797 5.0859 1.293l-0.125 2.709h1.1641l0.375-5.293zm-75.002 0.66602c7.2512 0 10.668 6.9196 10.668 13.756 0 6.1288-3.2049 11.631-9.9199 11.631-6.7112 0-10.293-7.0854-10.293-13.338 0-6.13 2.6662-12.049 9.5449-12.049zm-170.85 0.04c3.2925 0 7.5449 1.9603 7.5449 7.0078 0 4.2912-3.0012 6.291-7.6699 6.291-1.0425 0-2.1675 0-3.125-0.125v-10.045c0-0.7525 0.040781-2.1272 0.20703-2.9609 0.96125-0.12625 1.9167-0.16797 3.043-0.16797zm102.52 0.08398c4.585 0 6.5449 2.2099 6.5449 5.6699 0 3.085-1.9613 5.627-6.7988 5.627h-2.25v-8.252c0-0.9175 0.00046-1.753 0.16796-2.668 1.1275-0.29375 1.7534-0.37695 2.3359-0.37695zm34.061 0.08398c3.6675 0 6.5039 2.3336 6.5039 6.8398 0 4.29-2.9626 6.041-7.4238 6.041h-3.375v-9.2539c0-1.1262 0.00093-2.584 0.21093-3.334 2.2088-0.2925 3.039-0.29297 4.084-0.29297zm-36.564 12.172h4.377c3.5038 0 7.0859 2.0019 7.0859 5.9219 0 3.4162-1.5397 6.9609-6.4609 6.9609-1.0825 0-3.1243-0.25344-4.748-0.71094-0.25375-0.70875-0.2539-2.3735-0.2539-3.666v-8.5059z" transform="matrix(.8 0 0 -.8 311.03 531)"/></g></g></svg>
