<?xml version="1.0" encoding="UTF-8" standalone="no"?>
<svg xmlns:rdf="http://www.w3.org/1999/02/22-rdf-syntax-ns#" xmlns="http://www.w3.org/2000/svg" enable-background="new 0 0 250 218" xml:space="preserve" height="90.664" viewBox="0 0 210.01401 90.664062" width="210.01" version="1.1" xmlns:cc="http://creativecommons.org/ns#" xmlns:dc="http://purl.org/dc/elements/1.1/"><g transform="translate(.98632 1.014)"><path d="m60.141 0c-0.258 0.0002181 0.197 2.208-5.17 5.9707-2.937 1.7661-9.076 0.59-12.379 1.5313-18.075 5.662-16.725 26.998-16.725 26.998s1.7036-1.1676 3.9883-2.5723c-0.56588 2.2222-1.0208 4.5697-1.3359 7.0547-14.182 7.8397-17.143 20.902-17.143 20.902s5.5234-3.2396 10.127-3.1309c-9.981 7.322-13.044 17.399-13.044 17.399s7.4237-3.1992 10.119-3.4277c-18.895 11.183-18.578 17.94-18.578 17.94h69.738l16.99-20.635h113l3.248-16.062h-3.125l1.6426-8.7676 3.373 0.07813 3.1445-15.826-133.42 0.19336s0.31416-8.958-5.3477-19.979c-2.703-4.8156-4.494-5.1779-9.039-7.6357-0.025-0.0198-0.045-0.029315-0.062-0.0293zm29.768 70.252c-2.9563 0-5.7669 2.7484-6.5352 6.3984-0.45411 2.1558-0.12353 4.0584 0.92969 5.3613 0.86896 1.0703 2.1465 1.6582 3.6035 1.6582 2.2192 0 4.3143-1.4066 5.7441-3.8594l0.38867-0.66016-2.457-1.7422-0.45312 0.80469c-0.93843 1.6402-2.1718 2.0781-2.7578 2.0781-0.21346 0-0.3565-0.06261-0.48438-0.2207-0.39974-0.48835-0.48747-1.6595-0.22266-2.9141 0.46519-2.2112 1.4756-3.5293 2.1875-3.5293 0.59911 0 1.4106 0.98704 1.5566 2.2598l0.11719 1.0176 2.8438-0.92383-0.55859-5.4141h-2.1055s-0.02661 0.05235-0.05078 0.09766c-0.57192-0.25978-1.145-0.41211-1.7461-0.41211zm31.717 0.21484-0.28906 1.4258 0.23633 0.08008c0.25172 0.09364 0.33869 0.55485 0.21484 1.1328l-1.5918 7.5625c-0.12787 0.60817-0.50717 1.1967-0.88476 1.377l-0.13086 0.0625-0.33399 1.5254h5.1524l0.79492-0.0039c0.0534-0.003 5.115-0.12663 6.4512-6.457 0.46922-2.188 0.19858-3.9079-0.78516-5.1172-1.2657-1.5466-3.2403-1.5879-3.4648-1.5879h-5.3691zm-12.877 0.14258-0.25 1.2207 0.18164 0.10742c0.41182 0.25173 0.55283 0.68752 0.41992 1.3027 0 0 0.0227-0.04477 0.0449-0.08203-0.0695 0.19534-0.28332 1.2092-1.6406 7.6523-0.12687 0.60817-0.5073 1.2007-0.88086 1.377l-0.13086 0.06445-0.32617 1.5234h5.5l0.0547-0.01953c0.17218-0.07048 0.17249-0.06896 0.37891-1.248l0.0371-0.20703-0.23047-0.11328c-0.0957-0.04833-0.36719-0.30802-0.36719-0.52148 0-0.01208 0.0156-0.17383 0.0156-0.17383l0.0371-0.29688s0.11468-0.55121 0.23047-1.0879c0.33832 0.95756 0.56482 1.5795 0.61718 1.6973 0.0393 0.08659 0.0625 0.15834 0.0625 0.21875 0 0.02618-0.003 0.04841-0.01 0.0625-0.0302 0.07552-0.11524 0.11328-0.11524 0.11328l-0.14648 0.06055-0.041 0.15625-0.27539 1.3594h5.8223l0.31836-1.5-0.21875-0.09766c-0.43196-0.18829-1.0485-0.54518-1.4805-1.4766 0 0-0.6989-1.7541-0.96875-2.4297 1.174-0.45411 2.5348-1.4152 2.9688-3.4844l0.10351-0.94336c-0.003-0.74712-0.21937-1.3912-0.65234-1.9238-1.0854-1.3251-3.0736-1.3105-3.1582-1.3105h-5.9004zm58.047 0.0098-0.22461 1.252 0.16016 0.10742c0.56387 0.37155 0.42202 1.0362 0.38476 1.1641-0.0493 0.18829-0.2257 1.0353-1.6152 7.6738-0.18829 0.71289-0.72041 1.2579-1.0215 1.3184l-0.1875 0.04102-0.33204 1.5352h8.7871l3.0938-5.5371-1.8398 0.0059-0.082 0.07812c-0.0755 0.06041-1.637 1.4254-4.0898 1.7637 0.13191-0.61925 1.3574-6.4707 1.3574-6.4707 0.12788-0.59307 0.50191-1.1526 0.89257-1.3398l0.13282-0.0625 0.33008-1.5293h-0.37305-5.373zm-68.191 0.002-0.26953 1.3281 0.3125 0.03711c0.31214 0.04128 0.47987 0.18901 0.56445 0.30078 0.10874 0.14399 0.13412 0.29207 0.12305 0.38672-0.09968 0.25173-2.4597 4.8849-4.0234 7.9258-0.36651 0.7139-1.1086 1.3638-1.6211 1.5742l-0.14062 0.05664-0.33984 1.5469h5.0156l0.0625-0.25586 0.31836-1.2324-0.29688-0.11523c-0.16513-0.06041-0.22046-0.10924-0.22852-0.21094 0-0.1017 0.12916-0.43499 0.18555-0.55078 0.0091 0 0.55341-1.0737 0.75781-1.4805h1.2949c0.0433 0.34638 0.14062 1.1504 0.14062 1.1504l0.0137 0.26562c0 0.47324-0.2853 0.7957-0.41016 0.86719l-0.10742 0.06055-0.39844 1.4727s0.27168 0.02136 0.33008 0.02539v0.0078c0.05236 0.004 0.09077 0.0041 0.125-0.0039h5.5137l0.32422-1.5293-0.28125-0.0625c-0.44505-0.10572-0.92088-0.71491-0.98633-1.2637-0.25273-2.1316-0.91848-7.7137-0.93359-7.9121 0-0.61924 0.28752-0.9168 0.5332-1.0527l0.11328-0.06641 0.28711-1.2695h-0.36523-5.6133zm35.082 0-0.25586 1.2207 0.51758 0.32617c0.0977 0.06041 0.26358 0.44585 0.13671 1.0762l-1.5996 7.5625c-0.12386 0.60515-0.50422 1.1919-0.88282 1.3711l-0.13281 0.05859-0.33398 1.543h5.625l0.34961-1.5332-0.24805-0.08398c-0.13089-0.04531-0.40474-0.40086-0.29297-0.96875l1.6152-7.6445c0.12788-0.58904 0.49983-1.1487 0.89453-1.3359l0.12696-0.06445 0.35156-1.5273h-0.36719-5.5039zm8.1465 0-0.25195 1.2461 0.17773 0.11133c0.0977 0.06746 0.33789 0.49514 0.33789 0.98047 0 0.09062-0.007 0.18862-0.0254 0.28125-0.004 0.01611-0.10341 0.46661-1.5976 7.5703-0.13493 0.63838-0.57639 1.1902-0.92578 1.3594l-0.13086 0.06055-0.33594 1.5469h4.8789l0.18946-1.5703-0.27735-0.04883c-0.17722-0.03021-0.23515-0.05942-0.30664-0.45312l0.0332-0.50781s0.37108-1.7563 0.63086-3.0059c0.41988 1.6151 1.4473 5.5859 1.4473 5.5859h3.0938l2.1602-10.229c0.12385-0.58602 0.49899-1.1487 0.88867-1.3359l0.12695-0.06836 0.3086-1.5234h-4.6699l-0.27734 1.2246 0.16406 0.11133c0.3222 0.22655 0.39063 0.58992 0.39063 0.87891 0 0.1611-0.0211 0.29682-0.0332 0.36328-0.003 0.01913-0.2771 1.2462-0.28515 1.2734-0.39471-1.2657-1.1894-3.8516-1.1894-3.8516h-0.21094-4.3106zm13.955 0-0.27149 1.3281 0.3125 0.03711c0.31214 0.04128 0.47995 0.18901 0.5625 0.30078 0.11178 0.14399 0.13596 0.29207 0.12891 0.38672-0.0987 0.25173-2.4667 4.8849-4.0254 7.9258-0.36752 0.7139-1.1116 1.3638-1.6211 1.5742l-0.13477 0.05664-0.34766 1.5469h5.0098l0.0684-0.25586 0.31445-1.2324-0.29297-0.11523c-0.16513-0.06041-0.21656-0.10924-0.22461-0.21094v-0.0039c0-0.1017 0.13438-0.44518 0.17969-0.54688 0.0111 0 0.55738-1.0737 0.75977-1.4805h1.2988c0.0373 0.34638 0.13476 1.1504 0.13476 1.1504l0.0156 0.26562c0 0.47324-0.28437 0.7957-0.40821 0.86719l-0.10937 0.06055-0.39844 1.4727s0.27055 0.02136 0.33399 0.02539v0.0078c0.0493 0.004 0.0858 0.0041 0.12304-0.0039h5.5117l0.32031-1.5293-0.28125-0.0625c-0.43699-0.10572-0.91798-0.71491-0.98242-1.2637-0.25173-2.1316-0.92043-7.7137-0.93555-7.9121 0-0.61924 0.28954-0.9168 0.53321-1.0527l0.11328-0.06641 0.28906-1.2695h-0.36523-5.6113zm27.221 0.02148c-0.6122 0-3.7025 0.19876-4.7617 4.168-0.31214 1.1791-0.23691 2.1618 0.23633 2.916 0.66053 1.0593 1.851 1.293 2.3574 1.3906l0.13477 0.02539c0.54775 0.09767 1.472 0.3195 1.9141 0.54102-0.0745 0.03021-0.15639 0.05273-0.21679 0.05273-3.1093 0.25575-4.3267-1.2993-4.3418-1.3145l-0.0899-0.11328h-1.4688l0.73438 5.4844h4.2266c1.2012 0.03021 4.1227-0.30697 5.1699-4.0879 0.32623-1.1791 0.248-2.1821-0.23632-2.9785-0.46519-0.76222-1.2532-1.2637-2.3457-1.4883l-0.0566-0.01563c-0.96864-0.1903-1.6075-0.4281-1.8633-0.57812-0.21447-0.11579-0.20638-0.14658-0.19531-0.17578 0.0624-0.16815 0.14226-0.20703 0.25-0.20703 2.8838-0.06746 3.5871 1.5147 3.6133 1.5781l0.0742 0.17969 1.6211-0.0078-0.73242-5.3379-4.0234-0.03125z"/><path fill="#fff" d="m61.287 4.707c-0.52963 3.1395-3.1587 5.6072-5.5078 7.2363-3.2644-1.1116-7.1809-1.3434-11.807 0.07227-11.728 3.5997-12.873 15.223-12.873 15.223s13.326-12.663 28.451-7.666c-2.9381 1.4087-6.4081 3.8756-7.416 7.9082 0 0-7.2663 32.387-7.2773 32.432l-0.1543 0.62305c-0.47324 1.7691-1.9675 6.5027-5.1211 9.75l6.57-32.098c0.969-3.876 3.355-13.71 7.362-16.407-15.746 3.117-21.417 18.897-22.514 21.746-3.5946 1.6634-7.6691 4.6261-11.033 9.9375 0 0 4.2026-2.3491 8.9199-1.6543-0.46217 1.8658-0.9352 3.783-1.4004 5.668-3.5816 1.6644-7.6432 4.6256-10.992 9.9199 0 0 4.672-2.2976 9.4004-1.5918 0.11579 0.14298-1.7616 8.6212-1.8613 8.6504-9.571 2.5291-14.261 9.4737-14.27 9.4863h57.746l15.238-18.514c0-0.000001-22.321 9.1543-44.232 9.1543l0.79297-3.1836c2.8838-0.93441 8.963-3.5219 10.354-9.082l7.432-33.056c0.43297-1.6292 1.7383-5.7675 4.3945-8.9473 2.4659 1.0633 4.9594 2.6054 7.4395 4.7793 0.708-9.62-7.641-20.385-7.641-20.385zm5.5137 26.416c-2.7831 0-5.356 0.87146-7.25 2.4473-1.4087 1.168-2.3175 2.6287-2.6367 4.2246l-3.918 19.467c-0.78136 3.8927 2.2414 6.7129 7.1934 6.7129 2.7629 0 5.3119-0.8555 7.1797-2.4102 1.4157-1.1751 2.3338-2.6665 2.6641-4.3027l3.9199-19.467c0.76525-3.8031-2.3101-6.6719-7.1523-6.6719zm54.545 0.81641v0.01758h-9.5254c-9.0803 8.7137-3.9277 18.576-3.9277 18.576l0.78125 2.5684c0.98374 4.5391-6.8047 10.205-6.8047 10.205h9.6406c9.0823-8.7107 3.5254-16.535 3.5254-16.535l-0.78321-2.5762c-0.92333-4.227 6.1518-11.21 7.1113-12.139l3.0723 32.436 16.916-32.553h-2.3281-5.5547s-2.2341 5.1309-3.8633 8.8555c-0.11277-3.7245-0.26172-8.8555-0.26172-8.8555h-7.998zm-43.807 0.002-5.0977 25.32c-0.78438 3.8927 2.2415 6.7129 7.1914 6.7129 2.765 0 5.3158-0.8555 7.1836-2.4102 1.4117-1.1751 2.3338-2.6665 2.6641-4.3027l5.0977-25.32h-7.5352l-4.959 24.604c-0.08458 0.41686-0.59204 0.75586-1.1348 0.75586-0.54675 0-0.9127-0.339-0.82812-0.75586l4.957-24.604h-7.5391zm20.133 0-5.5391 27.51-3.4961 3.8555h10.592l6.1777-31.365h-1.8027-5.9316zm44.482 0-5.5371 27.51-3.5039 3.8555h10.592l6.1777-31.365h-1.8027-5.9258zm11.145 0-5.5352 27.51-3.5 3.8555h17.342 0.01 16.922 0.42383 10.621 6.2774 0.0254l1.3301-6.6191h-0.0234-6.2539c-0.15809 0-0.3849 0.000094-0.60742-0.0039 0.0342-0.1611 0.063-0.31911 0.0781-0.42383l1.1367-5.625h3.7754l1.5449-6.6172h-3.9883l1.0781-5.3457h6.9141l1.3438-6.6699-6.9141-0.0293 0.006-0.0293h-1.8008-5.9316-0.0195l-4.8926 24.322c-0.0574 0.25475-0.0975 0.49473-0.13477 0.73438l-0.48828 2.4531-2.9551 3.2539 1.2129-6.0176h-6.2852c-0.15104 0-0.38307 0.000094-0.60157-0.0039 0.0221-0.1611 0.0569-0.32106 0.0781-0.42578l4.8926-24.318h-1.8027-5.9316l-5.5352 27.51-3.4902 3.8457 1.3281-6.6094h-6.2812c-0.15406 0-0.38591 0.000094-0.60743-0.0039 0.0333-0.1611 0.0629-0.31911 0.082-0.42383l4.9004-24.318h-1.8106-5.9316zm-63.392 39.145c-2.4629 0-5.0049 2.3541-5.7168 5.7363-0.8176 3.8746 1.1956 6.0156 3.7129 6.0156 1.7047 0 3.5996-1.0146 5.0273-3.4473l-1.0801-0.76172c-1.0895 1.902-2.6115 2.5-3.4805 2.5-1.6332 0-1.9402-2.1751-1.5254-4.1426 0.51654-2.4367 1.6979-4.1934 3.0059-4.1934 1.2002 0 2.2106 1.4564 2.3828 3l1.2324-0.40234-0.4082-3.9902h-0.83203l-0.18359 0.38281c-0.539-0.466-1.307-0.697-2.135-0.697zm37.092 0.205l-4.9023 0.02539c0.48437 0.292 0.69416 1.0801 0.50586 1.9551 0 0.007-1.5938 7.5684-1.5938 7.5684-0.18426 0.875-0.72363 1.6639-1.3398 1.9609h4.3281c0-0.0041-0.01-0.0038-0.0176-0.0078h0.8125s4.4224-0.04544 5.6348-5.7969c1.2133-5.7454-3.4267-5.7061-3.4277-5.7051zm-17.594 0.1543c0.48428 0.29301 0.69415 1.0935 0.50586 1.9766l-1.5957 7.5625c-0.18325 0.87802-0.7228 1.666-1.334 1.959h4.3242c-0.48838-0.29301-0.72144-1.0359-0.53516-1.918l0.66993-3.1836h0.41211c0.65751 1.6553 1.2539 3.1426 1.2539 3.1426 0.34939 0.87802 0.29127 1.666-0.13867 1.959h4.3223c-0.66456-0.29301-1.3576-1.0359-1.707-1.918l-1.3125-3.2852c1.0452-0.2185 2.7945-0.91787 3.2637-3.125 0.67765-3.1979-2.878-3.1699-2.877-3.1699h-5.252zm32.965 0.0078c0.49333 0.29603 0.7009 1.0837 0.51563 1.9668l-1.5996 7.5586c-0.18325 0.88205-0.72581 1.6699-1.334 1.9629h3.3574c-0.48735-0.29301-0.7215-1.044-0.53321-1.918l1.3672-6.4844 2.1777 8.4043h1.7715l2.0176-9.5684c0.18426-0.875 0.73143-1.6258 1.3476-1.9219h-3.3652c0.48941 0.29603 0.69598 1.0837 0.51172 1.9668 0 0-0.48796 2.2942-0.91992 4.3594l-1.9453-6.3262h-3.3691zm25.02 0c0.48838 0.30006 0.69611 1.0879 0.50782 1.9629l-1.584 7.5703c-0.24467 0.96562-0.9194 1.7426-1.6172 1.8926h7.5566l2.2305-4.0156s-2.1817 2.0996-5.7109 2.0996l1.58-7.588c0.18024-0.87903 0.73256-1.6218 1.3438-1.9219h-4.3262zm-68.174 0.002c0.41686 0.21044 0.98242 0.57397 0.98242 1.2305 0 0.2618-0.28906 0.73633-0.28906 0.73633l-3.8594 7.5586c-0.44706 0.88205-1.224 1.6699-1.9238 1.9629h3.3652c-0.39975-0.29301-0.41185-1.044 0.0332-1.918l0.98633-1.9258h2.5469c0.13194 1.0844 0.22461 1.8809 0.22461 1.8809 0.10975 0.88205-0.17297 1.6699-0.6875 1.9629h4.3281c-0.61-0.294-1.09-1.045-1.19-1.919l-0.91797-7.6484c-0.10572-0.875 0.19849-1.6258 0.70899-1.9219h-0.19141-3.3594-0.77344zm57.182 0c0.42089 0.21044 0.98437 0.57397 0.98437 1.2305 0 0.2618-0.28906 0.73633-0.28906 0.73633l-3.8594 7.5586c-0.44708 0.88205-1.2201 1.6699-1.9219 1.9629h3.3652c-0.40279-0.29301-0.41687-1.044 0.0332-1.918l0.98437-1.9258h2.543c0.13489 1.0844 0.23438 1.8809 0.23438 1.8809 0.10069 0.88205-0.18091 1.6699-0.69141 1.9629h4.3262c-0.58501-0.29301-1.0672-1.044-1.1719-1.918l-0.91993-7.6484c-0.10874-0.875 0.19849-1.6258 0.70899-1.9219h-0.1875-3.3633-0.77539zm-22.008 0.0039c0.4803 0.29603 0.69 1.0759 0.50977 1.959l-1.5996 7.5625c-0.18628 0.88205-0.72777 1.6699-1.3359 1.9629h4.3242c-0.48838-0.29301-0.71941-1.041-0.53515-1.916l1.6133-7.6504c0.18325-0.87903 0.73243-1.6229 1.3476-1.918h-4.3242zm48.607 0.01758c-0.70181 0.000001-3.0824 0.31371-3.9453 3.5469-0.79646 2.9925 1.5817 3.1767 2.1113 3.3086 0 0 1.4938 0.26179 2.1875 0.64844 0.28999 0.16211 0.57634 0.4731 0.44141 0.91211-0.19534 0.64643-1.082 0.67969-1.082 0.67969-3.6118 0.29704-5.0098-1.6289-5.0098-1.6289l0.53321 4.0137h3.5c0.42894 0.01108 3.3724 0.12803 4.3672-3.4727 0.8307-2.9845-1.6797-3.3648-2.002-3.4434 0 0-2.2665-0.44688-2.627-1.2051-0.0826-0.16513-0.114-0.46875-0.0586-0.63086 0.25172-0.82969 1.0547-0.77734 1.0547-0.77734 3.5292 0 4.3711 2.0957 4.3711 2.0957l-0.54101-4.0215-3.3008-0.02539z"/><path d="m65.436 37.799c-0.54272 0-1.0502 0.33705-1.1348 0.75391l-3.625 17.988c-0.08458 0.41988 0.28736 0.75781 0.83008 0.75781s1.0503-0.33793 1.1309-0.75781l3.627-17.988c0.08458-0.41686-0.28641-0.75391-0.82812-0.75391zm60.695 35.381-1.0391 0.0039c-0.008 0.0151-0.0126 0.02982-0.0156 0.04492l-1.6152 7.6523c-0.0221 0.1168-0.0368 0.22612-0.0488 0.33789h1.0801s2.497-0.19434 3.3086-4.0508c0.81459-3.8605-1.6699-3.9883-1.6699-3.9883zm-13.709 0.03125c-0.0111 0.05236-0.028 0.1056-0.0391 0.16602l-0.64648 3.0625h0.98047s1.8114-0.08178 2.1387-1.6133c0.32321-1.5396-1.5-1.5918-1.5-1.5918l-0.93359-0.02344zm13.34 0.80469h0.375c0.0564 0.0151 0.4054 0.09018 0.66016 0.43555 0.21849 0.29301 0.33593 0.73472 0.33593 1.3066 0.001 0.36651-0.0488 0.78618-0.14648 1.2383-0.66053 3.1264-2.4859 3.3776-2.5644 3.3887 0.12788-0.60817 1.2543-5.9563 1.3398-6.3691zm-12.668 0.04687c0.11982 0.003 0.24023 0.01172 0.24023 0.01172 0.18023 0 0.56472 0.09109 0.68555 0.24414 0 0.004 0.041 0.1582 0.041 0.1582l-0.0234 0.17578c-0.16513 0.78035-1.031 0.91523-1.2656 0.94141 0.0916-0.43599 0.25581-1.2272 0.32227-1.5312zm5.2637 0.71094-0.006 0.01562 0.006-0.01562zm-17.814 0.23242-1.2168 2.5h1.543c-0.10674-0.85687-0.32617-2.5-0.32617-2.5zm57.182 0-1.2207 2.5h1.5449c-0.1017-0.85687-0.32422-2.5-0.32422-2.5z"/></g></svg>
