<svg xmlns="http://www.w3.org/2000/svg" height="148.4" viewBox="0 0 144 148.39999" width="144"><g><path d="m98.672 0.92773l-0.6 1.7012-0.5 1.1992c-1.1 3.1-2.201 6.3009-3.201 9.7009-6.3-1.5-12.9-2.201-19.5-2.201-6.8 0-13.6 0.801-20.1 2.401-1-3.3-2.2-6.5001-3.3-9.6001l-0.5-1.2012-0.6-1.6992-1.799 0.5-1.301 0.4004c-7.4 2.2-14.4 5.4004-20.9 9.4001l-1 0.6-1.299 0.799 0.5 1.5 0.399 1.101c1.2 3.2 2.3 6.599 3.3 9.899-1.6 1.1-3.199 2.3-4.599 3.4-14.6 11.9-22.6 28.001-22.6 45.301 0.0003 17.3 7.9999 33.401 22.6 45.301 1.6 1.3 3.2 2.5 5 3.7-1 3.4-2 6.7-3.1 10.1l-0.4 1.1-0.5 1.5 1.299 0.8 1 0.6c6.4 3.9 13.5 7 21 9.2l1.3 0.4 1.801 0.5 0.6-1.8 0.4-1.3c1.1-3.1 2.1-6.3 3.1-9.6 6.4 1.5 12.999 2.2 19.599 2.2s13.1-0.7 19.5-2.2c1 3.3 2.1 6.5 3.2 9.7l0.4 1.2 0.6 1.7 1.799-0.5 1.3-0.4c7.5-2.1 14.5-5.2 21-9.1l1-0.6 1.4-0.8-0.5-1.5-0.4-1.1c-1.1-3.3-2.2-6.7-3.2-10.2 1.8-1.2 3.5-2.5 5.1-3.8 6.5-5.3 11.7-11.4 15.5-18.2l0.7-1.202 0.9-1.699-1.6-1-1.2-0.701-18.2-10.6-1.3-0.799-1.8-1.101-1 1.801-0.7 1.3c-0.8 1.5-1.8 2.999-2.9 4.399-0.7-6-1-11.699-1-17.199 0-5.7 0.3-11.6 1-17.6 1 1.3 1.9 2.6 2.6 4l0.7 1.199 1 1.701 1.7-1 1.2-0.701 18.4-10.599 1.2-0.7 1.7-1-1-1.701-0.7-1.199c-3.8-6.7-9-12.8-15.4-18-1.6-1.3-3.3-2.601-5.1-3.801 1-3.5 2.1-6.899 3.2-10.099l0.4-1.1 0.8-1.4-1.4-0.801-1-0.6c-6.5-3.8999-13.5-6.8999-21-8.9999l-1.3-0.4004-1.698-0.49997zm-23.701 38.301c4.4 0 8.7 0.5 12.9 1.4-1.1 6-1.8 12-2.4 17.9h-21c-0.5-5.7-1.4-11.7-2.6-17.8 4.2-1 8.6-1.5 13.1-1.5zm-39.6 17.4c0.8 6.1 1.201 11.899 1.201 17.299 0.1 5.6-0.301 11.501-1.101 17.701-4.1-5.3-6.299-11.4-6.299-17.5s2.199-12.2 6.199-17.5zm29.1 33h21c0.5 5.8 1.3 11.801 2.4 17.901-4.2 1-8.5 1.4-13 1.4-4.4 0-8.8-0.5-13-1.4 1.3-6.1 2.1-12.101 2.6-17.901z"/><path fill="#fff" d="m99.971 3.3281l-0.299 1.3008c-1.3 3.7-2.501 7.5001-3.701 11.4-6.7-1.7-13.699-2.601-20.799-2.601-7.3 0-14.501 0.901-21.401 2.701-1.2-3.9-2.5-7.7009-3.8-11.301l-0.5-1.1991-1.299 0.4004c-7.3 2.1-14.101 5.1996-20.401 9.0997l-1 0.6 0.401 1.099c1.3 3.7 2.499 7.501 3.699 11.401-2 1.3-3.9 2.699-5.6 4.099-14.1 11.5-21.9 27.101-21.9 43.801 0.0001 16.7 7.8 32.301 21.9 43.801 1.8 1.5 3.8 3 6 4.4-1.1 3.8-2.299 7.7-3.599 11.5l-0.401 1.1 1 0.6c6.3 3.8 13.2 6.9 20.5 9l1.301 0.4 0.399-1.3c1.3-3.7 2.501-7.5 3.601-11.3 6.7 1.7 13.799 2.6 20.899 2.6s14.1-0.9 20.9-2.6c1.2 3.8 2.401 7.7 3.701 11.3l0.399 1.3 1.299-0.4c7.3-2.1 14.2-5.1 20.5-8.9l1-0.6-0.4-1.1c-1.3-3.8-2.5-7.7-3.6-11.7 2.2-1.4 4.2-2.9 6.1-4.4 6.3-5.1 11.3-11 15-17.6l0.7-1.201-1.2-0.701-18.2-10.9-1.3-0.799-0.7 1.299c-1.5 2.9-3.6 5.601-6 8.101-1.1-7.5-1.6-14.9-1.6-21.8 0-7.1 0.5-14.6 1.6-22.2 2.3 2.3 4.2 4.9 5.7 7.6l0.7 1.299 1.2-0.699 18.4-10.6 1.2-0.701-0.7-1.199c-3.7-6.5-8.7-12.301-14.9-17.401-1.8-1.6-3.9-3.1-6.1-4.5 1.2-4 2.4-7.899 3.7-11.599l0.4-1.1-1-0.6c-6.3-3.6997-13.2-6.7005-20.5-8.8005l-1.299-0.4004zm-25.1 34c5.2 0 10.301 0.601 15.201 1.901-1.3 7.2-2.301 14.3-2.801 21.3h-24.599c-0.6-6.8-1.601-13.901-3.201-21.201 5-1.3 10.1-2 15.4-2zm-38 14.801c1.2 7.7 1.801 14.999 1.801 21.799 0 6.9-0.601 14.401-1.801 22.201-6.3-6.3-9.7-14.1-9.5-22 0-7.9 3.3-15.7 9.5-22zm25.801 35.5h24.699c0.5 6.9 1.501 14.101 2.801 21.301-4.9 1.3-10.001 1.9-15.201 1.9s-10.299-0.6-15.299-1.9c1.4-7.3 2.4-14.401 3-21.301z"/><path fill="#602d89" d="m137.77 99.829-17.2-10.3c-2 3.6-4.7 6.9-8.1 9.9l-0.8 0.7-0.2-1.1c-1.4-8.6-2-17-2-24.8 0-8.1 0.7-16.5 2-25.2l0.2-1.1 0.8 0.7c3.2 2.9 5.8 6.1 7.8 9.5l17.3-10c-3.5-6.1-8.3-11.6-14.1-16.3-2.1-1.7-4.4-3.3-6.8-4.9l-0.4-0.2 0.1-0.4c1.2-4.2 2.5-8.4 3.8-12.3-5.9-3.5-12.3-6.2-19.1-8.2-1.4 3.8-2.7 7.8-3.9 12l-0.2 0.6-0.6-0.2c-7-1.9-14.3-2.9-21.6-2.9-7.6 0-15 1-22.2 3l-0.6 0.2 0.1-0.6c-1.2-4-2.6-8.1-4-11.9-6.7 2.1-13.1 4.9-19 8.5 1.4 3.9 2.7 8 3.9 12.1l0.1 0.4-0.4 0.2c-2.3 1.5-4.4 3-6.4 4.6-13.7 11.1-21.2 26.1-21.2 42.2s7.5 31.1 21.2 42.2c2 1.7 4.3 3.3 6.7 4.8l0.4 0.2-0.1 0.4c-1.1 4.1-2.4 8.2-3.7 12.2 5.9 3.5 12.3 6.4 19 8.4 1.3-3.9 2.6-7.9 3.8-12l0.2-0.6 0.6 0.2c7 1.9 14.4 2.9 21.7 2.9 7.4 0 14.7-1 21.7-2.9l0.6-0.2 0.2 0.6c1.2 4.1 2.5 8.2 3.9 12 6.8-2 13.2-4.8 19.1-8.2-1.4-4-2.7-8.2-3.8-12.3l-0.1-0.4 0.4-0.2c2.5-1.5 4.7-3.2 6.8-4.9 5.8-4.7 10.5-10.3 14.1-16.4m-99.4-0.7-0.2 1.1-0.8-0.7c-7.9-7.1-12.2-16.1-12.2-25.4s4.3-18.3 12.1-25.3l0.8-0.7 0.2 1.1c1.5 8.8 2.3 17.2 2.3 24.8 0 7.7-0.7 16.2-2.2 25.1m18.8-61.3 0.5-0.2c5.5-1.6 11.3-2.4 17.2-2.4 5.8 0 11.5 0.8 17 2.3l0.5 0.1-0.1 0.5c-1.5 8-2.6 16-3.1 23.7v0.6h-28.3v-0.5c-0.6-7.5-1.8-15.5-3.5-23.6l-0.2-0.5zm34.8 72.7c-5.5 1.6-11.2 2.3-17 2.3s-11.6-0.8-17-2.3l-0.5-0.1 0.1-0.5c1.6-8.1 2.7-16.1 3.3-23.7v-0.6h28.3v0.6c0.5 7.7 1.6 15.6 3.1 23.7l0.1 0.5-0.4 0.1z"/></g></svg>
