<?xml version="1.0" encoding="UTF-8" standalone="no"?>
<svg xmlns:rdf="http://www.w3.org/1999/02/22-rdf-syntax-ns#" xmlns="http://www.w3.org/2000/svg" xml:space="preserve" height="47.715" viewBox="0 0 246.25976 47.71484" width="246.26" version="1.1" xmlns:cc="http://creativecommons.org/ns#" xmlns:dc="http://purl.org/dc/elements/1.1/"><g transform="matrix(1.25 0 0 -1.25 -261.49 903.4)"><g transform="matrix(.5 0 0 .5 154.19 352.16)"><path d="m4.002 4.2773v36.078c0 21.141 17.142 38.973 38.1 48.189 20.959-9.2162 38.1-27.048 38.1-48.189v-36.078h-76.199zm3.25 3.1621h69.82v32.916c0 29.82-34.91 44.787-34.91 44.787s-34.91-14.967-34.91-44.787v-32.916zm96.443 0.27539v2.1602h385.38v-2.1602h-385.38zm-46.319 10.451c-1.3338 0.92625-2.9188 0.99219-4.3438 0.99219l-29.59 0.0059-1.3438 3.6074c1.2688 0.30875 5.0391 1.2735 5.0703 3.9473l0.002 8.7832h10.471v-11.379l12.125 0.0039c4.3125 0 6.1335 2.9158 7.8535 6.4883h3.9531l-4.1973-12.449zm-30.223 18.926v0.92578h-3.166l-2.043 4.6992 23.168 0.002c0.90125-1.3288 2.3652-2.6622 4.209-3.7109 0.615-0.34875 1.2364-0.64492 1.8477-0.88867l0.33398-1.0273h-24.35zm0.0039 7.2188 0.01172 8.7266c-0.03875 2.0238-2.7659 3.8372-5.0234 4.0234l1.3145 3.4922 29.096 0.0039c3.2488 0 5.6152 1.2148 5.6152 1.2148l4.199-12.45h-3.9434c-1.23 2.4938-3.7931 6.0706-8.8906 6.2344h-11.895v-11.246h-10.484zm76.531 38.951v2.1582h385.38v-2.1582h-385.38z" transform="matrix(.8 0 0 -.8 111.02 740.08)" fill="#ffc72c"/><path d="m0.57617 0.84766v39.508c0 35.878 41.525 51.922 41.525 51.922s41.527-16.044 41.527-51.922v-39.508h-83.053zm3.4258 3.4297h76.199v36.078c0 21.141-17.142 38.973-38.1 48.189-20.957-9.215-38.099-27.047-38.099-48.189v-36.078zm3.25 3.1621v32.916c0 29.82 34.91 44.787 34.91 44.787s34.91-14.967 34.91-44.787v-32.916h-69.82zm50.127 10.727 4.1992 12.449h-3.9531c-1.72-3.5725-3.541-6.4883-7.8535-6.4883l-12.125-0.0039v11.379h-10.473v-8.7832c-0.031-2.674-3.803-3.639-5.07-3.948l1.3438-3.6074 29.59-0.0059c1.425 0 3.0093-0.06594 4.3418-0.99219zm347.57 2.0039c-4.6262 0-8.2637 1.8002-8.2637 6.209 0 2.35 0.77047 3.6705 2.3867 4.918 3.415 2.6088 9.5117 3.8221 9.5117 7.7871 0 2.5338-2.0905 4.6289-5.3242 4.6289-3.9288 0-5.6562-2.2784-5.9512-4.2246h-0.91797l0.25782 5.1797c0.9175 0.1475 3.8182 0.69726 6.3144 0.69726 5.0325 0 9.0723-2.2041 9.0723-6.8691 0-3.4875-1.9445-4.9936-4.8457-6.6836-3.1938-1.8725-7.5644-2.9383-7.5644-6.207 0-2.425 2.165-4.002 4.625-4.002 3.9312 0 5.4005 2.2777 5.7305 4.2227h0.91797l-0.25586-5.0312c-1.6525-0.33125-3.2321-0.625-5.6934-0.625zm-301.23 0.36914v0.73242c1.9825 0 3.1953 0.25922 3.1953 3.0117v16.969c0 2.7538-1.2128 3.0098-3.1953 3.0098v0.73633h17.189l0.25586-4.8477h-0.91797c-0.55125 2.535-1.6888 3.4141-4.5176 3.4141h-3.5254c-1.8362 0-2.0195-0.22023-2.0195-3.084v-7.5664h4.7363c2.46 0 3.3438 1.0297 3.3438 3.0859h0.77148v-7.6035h-0.77148c0 2.535-0.88375 3.0859-3.3438 3.0859h-4.7363v-6.4277c0-2.6812 0.10953-3.084 2.0195-3.084h3.2305c2.6088 0 3.8205 0.80688 4.2617 3.0469h0.91797l-0.25586-4.4785h-16.639zm95.473 0-0.25781 4.9941h0.91602c0.3675-2.0575 0.91906-3.5625 4.6641-3.5625h2.2422v19.281c0 2.7538-1.3236 3.0098-3.5274 3.0098v0.73633h10.322v-0.73633c-2.2038 0-3.5274-0.25602-3.5274-3.0098v-19.281h1.9824c3.6 0 4.7019 1.2488 4.9219 3.5625h0.91992l-0.25781-4.9941h-18.398zm-64.455 1.1426-7.1387 18.797c-1 2.655-1.4494 3.8301-4.1406 3.8301v0.68945h7.7969v-0.68945c-1.3462 0-2.4512-0.20774-2.4512-1.209 0-0.44625 0.20977-0.99789 0.41602-1.6191l1.4824-4.1055h8.6582l1.6191 4.3457c0.13875 0.38125 0.31055 1.0005 0.31055 1.4492 0 0.89625-1.3792 1.1387-2.4492 1.1387v0.68945h8.9688v-0.68945c-2.2425 0-3.1393-1.3802-3.9668-3.5527l-7.1738-19.074h-1.9316zm23.076 0c-4.3462 0-7.7598 1.6901-7.7598 5.8301 0 2.2075 0.72273 3.4498 2.2402 4.6211 3.2075 2.45 8.9336 3.5888 8.9336 7.3125 0 2.38-1.965 4.3457-5 4.3457-3.6912 0-5.3123-2.1393-5.5898-3.9668h-0.86132l0.24218 4.8633c0.8625 0.13875 3.5854 0.65625 5.9316 0.65625 4.725 0 8.5195-2.0712 8.5195-6.4512 0-3.2762-1.8277-4.6911-4.5527-6.2773-3.0012-1.7588-7.1055-2.7574-7.1055-5.8262 0-2.2775 2.0332-3.7617 4.3457-3.7617 3.69 0 5.0709 2.1393 5.3809 3.9668h0.86328l-0.24414-4.7246c-1.5512-0.31125-3.0325-0.58789-5.3438-0.58789zm158.3 0c-4.3438 0-7.7598 1.6901-7.7598 5.8301 0 2.2075 0.72468 3.4498 2.2422 4.6211 3.2088 2.45 8.9316 3.5888 8.9316 7.3125 0 2.38-1.9662 4.3457-5 4.3457-3.6912 0-5.3097-2.1393-5.5859-3.9668h-0.86329l0.24219 4.8633c0.8625 0.13875 3.5854 0.65625 5.9316 0.65625 4.7262 0 8.5195-2.0712 8.5195-6.4512 0-3.2762-1.829-4.6911-4.5527-6.2773-3-1.7588-7.1055-2.7574-7.1055-5.8262 0-2.2775 2.0357-3.7617 4.3457-3.7617 3.6912 0 5.0684 2.1393 5.3809 3.9668h0.86328l-0.24414-4.7246c-1.55-0.31125-3.0332-0.58789-5.3457-0.58789zm17.316 0c-4.345 0-7.7598 1.6901-7.7598 5.8301 0 2.2075 0.72469 3.4498 2.2422 4.6211 3.2062 2.45 8.9316 3.5888 8.9316 7.3125 0 2.38-1.9675 4.3457-5 4.3457-3.6912 0-5.3116-2.1393-5.5879-3.9668h-0.86133l0.24024 4.8633c0.8625 0.13875 3.5886 0.65625 5.9336 0.65625 4.7238 0 8.5195-2.0712 8.5195-6.4512 0-3.2762-1.8309-4.6911-4.5547-6.2773-3.0012-1.7588-7.1055-2.7574-7.1055-5.8262 0-2.2775 2.0364-3.7617 4.3477-3.7617 3.69 0 5.0696 2.1393 5.3809 3.9668h0.85937l-0.23828-4.7246c-1.5525-0.31125-3.0364-0.58789-5.3476-0.58789zm107.89 0-7.1406 18.797c-0.99875 2.655-1.4467 3.8301-4.1367 3.8301v0.68945h7.793v-0.68945c-1.345 0-2.4492-0.20774-2.4492-1.209 0-0.44625 0.20657-0.99789 0.41407-1.6191l1.4824-4.1055h8.6582l1.623 4.3457c0.13625 0.38125 0.30859 1.0005 0.30859 1.4492 0 0.89625-1.3805 1.1387-2.4492 1.1387v0.68945h8.9668v-0.68945c-2.2425 0-3.1348-1.3802-3.9648-3.5527l-7.1738-19.074h-1.9316zm-274.44 0.3457-0.24219 4.6914h0.86329c0.34375-1.9325 0.86336-3.3477 4.3808-3.3477h2.1035v18.109c0 2.5862-1.2438 2.8281-3.3125 2.8281v0.6875h9.6914v-0.6875c-2.07 0-3.3106-0.24188-3.3106-2.8281v-18.109h1.8633c3.38 0 4.4124 1.1727 4.6211 3.3477h0.86328l-0.24219-4.6914h-17.279zm53.785 0v0.68945c1.8625 0 3.002 0.24062 3.002 2.8281v15.936c0 2.5862-1.1394 2.8281-3.002 2.8281v0.6875h16.141l0.24024-4.5508h-0.86133c-0.5175 2.3788-1.5852 3.207-4.2402 3.207h-3.3125c-1.7225 0-1.8965-0.20578-1.8965-2.8945v-7.1074h4.4492c2.3112 0 3.1387 0.96719 3.1387 2.8984h0.72266v-7.1406h-0.72266c0 2.38-0.82742 2.8984-3.1387 2.8984h-4.4492v-6.0371c0-2.5175 0.10524-2.8984 1.8965-2.8984h3.0371c2.4488 0 3.5856 0.75953 3.998 2.8633h0.86328l-0.24218-4.207h-15.623zm19.248 0v0.68945c1.8612 0 3 0.24062 3 2.8281v15.936c0 2.5862-1.1388 2.8281-3 2.8281v0.6875h7.9648v-0.6875c-1.8962 0-3-0.24188-3-2.8281v-16.279h0.0703l11.348 19.795h2.5527v-19.451c0-2.5875 1.1038-2.8281 3-2.8281v-0.68945h-7.9688v0.68945c1.8625 0 3.002 0.24062 3.002 2.8281v15.004h-0.0684l-10.625-18.521h-6.2754zm24.248 0v0.68945c1.8625 0 3 0.24062 3 2.8281v15.936c0 2.5862-1.1375 2.8281-3 2.8281v0.6875h7.9648v-0.6875c-1.8962 0-2.998-0.24188-2.998-2.8281v-16.279h0.0684l11.348 19.795h2.5527v-19.451c0-2.5875 1.1018-2.8281 2.998-2.8281v-0.68945h-7.9668v0.68945c1.8638 0 3.002 0.24062 3.002 2.8281v15.004h-0.0684l-10.623-18.521h-6.2774zm24.523 0v0.68945c1.8638 0 3.002 0.24062 3.002 2.8281v15.936c0 2.5862-1.1382 2.8281-3.002 2.8281v0.6875h16.141l0.24219-4.5508h-0.86328c-0.51625 2.3788-1.584 3.207-4.2402 3.207h-3.3125c-1.7238 0-1.8965-0.20578-1.8965-2.8945v-7.1074h4.4492c2.3112 0 3.1387 0.96719 3.1387 2.8984h0.72266v-7.1406h-0.72266c0 2.38-0.82742 2.8984-3.1387 2.8984h-4.4492v-6.0371c0-2.5175 0.10274-2.8984 1.8965-2.8984h3.0371c2.4488 0 3.5875 0.75953 4 2.8633h0.86132l-0.24218-4.207h-15.623zm53.361 0v0.68945c1.8625 0 3.002 0.24062 3.002 2.8281v15.936c0 2.5862-1.1394 2.8281-3.002 2.8281v0.6875h16.141l0.24024-4.5508h-0.86133c-0.5175 2.3788-1.584 3.207-4.2402 3.207h-3.3125c-1.7225 0-1.8965-0.20578-1.8965-2.8945v-7.1074h4.4492c2.3112 0 3.1387 0.96719 3.1387 2.8984h0.72461v-7.1406h-0.72461c0 2.38-0.82742 2.8984-3.1387 2.8984h-4.4492v-6.0371c0-2.5175 0.10523-2.8984 1.8965-2.8984h3.0352c2.4512 0 3.5875 0.75953 4 2.8633h0.86328l-0.24219-4.207h-15.623zm19.488 0v0.68945c1.8638 0 3 0.24062 3 2.8281v15.936c0 2.5862-1.1362 2.8281-3 2.8281v0.6875h16.141l0.24024-4.5508h-0.86133c-0.5175 2.3788-1.5859 3.207-4.2422 3.207h-3.3105c-1.7238 0-1.8965-0.20578-1.8965-2.8945v-7.1074h4.4492c2.3112 0 3.1387 0.96719 3.1387 2.8984h0.72461v-7.1406h-0.72461c0 2.38-0.82742 2.8984-3.1387 2.8984h-4.4492v-6.0371c0-2.5175 0.10274-2.8984 1.8965-2.8984h3.0332c2.4512 0 3.5894 0.75953 4.002 2.8633h0.86133l-0.24023-4.207h-15.623zm52.637 0-0.24414 4.6914h0.86328c0.34375-1.9325 0.86336-3.3477 4.3809-3.3477h2.1035v18.109c0 2.5862-1.2425 2.8281-3.3125 2.8281v0.6875h9.6934v-0.6875c-2.07 0-3.3105-0.24188-3.3105-2.8281v-18.109h1.8613c3.38 0 4.4136 1.1727 4.6211 3.3477h0.86328l-0.24219-4.6914h-17.277zm38.494 0-0.24219 4.6914h0.86133c0.3425-1.9325 0.86265-3.3477 4.3789-3.3477h2.1074v18.109c0 2.5862-1.2445 2.8281-3.3145 2.8281v0.6875h9.6934v-0.6875c-2.07 0-3.3105-0.24188-3.3105-2.8281v-18.109h1.8613c3.38 0 4.4143 1.1727 4.623 3.3477h0.86328l-0.24609-4.6914h-17.275zm20.039 0v0.68945c1.8638 0 3.002 0.24062 3.002 2.8281v15.936c0 2.5862-1.1382 2.8281-3.002 2.8281v0.6875h16.141l0.24218-4.5508h-0.86328c-0.5175 2.3788-1.5847 3.207-4.2422 3.207h-3.3105c-1.7238 0-1.8965-0.20578-1.8965-2.8945v-7.1074h4.4492c2.31 0 3.1387 0.96719 3.1387 2.8984h0.72657v-7.1406h-0.72657c0 2.38-0.82867 2.8984-3.1387 2.8984h-4.4492v-6.0371c0-2.5175 0.10399-2.8984 1.8965-2.8984h3.0352c2.4488 0 3.5875 0.75953 4 2.8633h0.86328l-0.24023-4.207h-15.625zm-337.66 3.4824 3.8281 10.521h-7.6914l3.8633-10.521zm306.58 0 3.8281 10.521h-7.6914l3.8633-10.521zm-414.48 11.582h24.35l-0.33398 1.0273c-0.6125 0.24375-1.232 0.53992-1.8457 0.88867-1.8462 1.0488-3.3097 2.3822-4.2109 3.7109l-23.168-0.002 2.043-4.6992h3.168l-0.002-0.92578zm0.002 7.2188h10.486v11.246h11.895c5.0975-0.16375 7.6606-3.7406 8.8906-6.2344h3.9434l-4.1992 12.449s-2.3672-1.2148-5.6172-1.2148l-29.094-0.0039-1.3145-3.4922c2.2575-0.18625 4.9847-1.9997 5.0234-4.0234l-0.01367-8.7266zm311.43 11.082c-3.69 0-5.7891 1.5656-5.7891 4.2969 0 2.0212 1.2389 3.2345 2.7539 4.2207 2.3262 1.4912 5.2832 2.4027 5.2832 4.8789 0 1.5412-1.238 2.7285-3.4355 2.7285-3.3125 0-3.8941-2.3512-4.1953-3.6387h-0.73632l0.15429 4.1699c0.8575 0.2275 2.5006 0.68164 4.498 0.68164 3.8425 0 6.5977-1.3145 6.5977-4.877 0-1.72-0.88625-2.8305-2.125-3.793-1.8938-1.465-6.1914-2.6285-6.1914-5.1035 0-1.315 1.1393-2.3516 3.1856-2.3516 2.68 0 3.3359 1.7964 3.5371 3.1602h0.73437l-0.1543-3.918c-0.75625-0.12625-2.4234-0.45508-4.1172-0.45508zm-163.44 0.25195v0.63281c1.77 0 2.1484 0.37961 2.1484 2.3496v8.4414c0 3.69 1.667 5.6621 6.0644 5.6621 5.2062 0 6.0918-2.8046 6.0918-5.6621v-8.4414c0-1.97 0.37843-2.3496 2.1484-2.3496v-0.63281h-6.1426v0.63281c1.77 0 2.1504 0.37961 2.1504 2.3496v8.4414c0 3.16-0.91243 4.5-3.9199 4.5-3.1588 0-3.6133-1.9712-3.6133-4.5v-8.4414c0-1.97 0.37969-2.3496 2.1484-2.3496v-0.63281h-7.0762zm76.465 0v0.63281c1.8962 0 2.1979 0.40367 2.9316 2.4512l4.9277 13.75h2.1992l5.2832-14.129c0.60625-1.6688 1.0622-2.0723 2.8047-2.0723v-0.63281h-6.2949v0.63281c1.5425 0 2.0742 0.2793 2.0742 0.93555 0 0.27875-0.10187 0.60508-0.32812 1.2363l-4.0449 10.896h-0.0508l-3.8164-10.871c-0.225-0.65625-0.30274-0.98297-0.30274-1.2617 0-0.73375 0.58243-0.93555 1.7949-0.93555v-0.63281h-7.1777zm-48.213 0.002v0.63086c1.7675 0 2.1465 0.37961 2.1465 2.3496v10.869c0 1.9725-0.37899 2.3516-2.1465 2.3516v0.63086h5.8867v-0.63086c-1.7938 0-2.1465-0.37906-2.1465-2.3516v-11.299h0.0488l8.3164 14.281h2.4023v-13.852c0-1.97 0.32774-2.3496 2.1465-2.3496v-0.63086h-5.8887v0.63086c1.77 0 2.1484 0.37961 2.1484 2.3496v10.59h-0.0508l-7.9102-13.57h-4.9531zm29.107 0v0.63086c1.795 0 2.1484 0.37961 2.1484 2.3496v10.869c0 1.9725-0.35344 2.3516-2.1484 2.3516v0.63086h7.0801v-0.63086c-1.77 0-2.1504-0.37906-2.1504-2.3516v-10.869c0-1.97 0.38039-2.3496 2.1504-2.3496v-0.63086h-7.0801zm47.787 0v0.63086c1.7675 0 2.1465 0.37961 2.1465 2.3496v10.869c0 1.9725-0.37899 2.3516-2.1465 2.3516v0.63086h12.305l0.1543-3.666h-0.73438c-0.075 1.5925-0.78133 2.5039-2.9551 2.5039h-2.3262c-1.315 0-1.5156-0.12656-1.5156-1.8203v-5.2324h3.3105c1.6425 0 1.8945 0.53133 1.8945 2.0488h0.68359v-5.2324h-0.68359c0 1.6688-0.25204 2.0215-1.8945 2.0215h-3.3105v-4.4746c0-1.415 0.27687-1.8184 1.5156-1.8184h1.6172c2.83 0 3.1592 1.135 3.2617 2.5h0.73242l-0.15234-3.6621h-11.902zm25.926 0v0.63086c1.795 0 2.1484 0.37961 2.1484 2.3496v10.869c0 1.9725-0.35344 2.3516-2.1484 2.3516v0.63086h7.0762v-0.63086c-1.795 0-2.1484-0.37906-2.1484-2.3516v-4.8535h1.541l4.4473 7.8359h3.8691v-0.63086c-1.3162 0-1.6955-0.65875-2.6055-2.25l-3.0059-5.334c2.0238-0.43 3.8184-1.1611 3.8184-4.3711 0-3.3625-3.4652-4.2461-6.4726-4.2461h-6.5195zm51.145 0v0.63086c1.795 0 2.1484 0.37961 2.1484 2.3496v10.869c0 1.9725-0.35344 2.3516-2.1484 2.3516v0.63086h7.0781v-0.63086c-1.77 0-2.1504-0.37906-2.1504-2.3516v-10.869c0-1.97 0.38039-2.3496 2.1504-2.3496v-0.63086h-7.0781zm20.619 0-0.15235 3.916h0.73438c0.27625-1.8438 0.80843-2.7539 3.4609-2.7539h0.98438v12.688c0 1.9725-0.37703 2.3516-2.1445 2.3516v0.63086h7.0762v-0.63086c-1.7712 0-2.1504-0.37906-2.1504-2.3516v-12.688h0.96289c2.6538 0 3.2338 0.88391 3.4863 2.7539h0.73242l-0.125-3.916h-12.865zm23.955 0v0.63086c1.77 0 2.2514 0.30281 3.1602 1.8203l3.8906 6.5195v4.8789c0 1.9725-0.37774 2.3516-2.1465 2.3516v0.63086h7.0781v-0.63086c-1.7712 0-2.1504-0.37906-2.1504-2.3516v-4.8789l4.043-6.4199c0.91125-1.4662 1.4163-1.9199 3.2363-1.9199v-0.63086h-6.043v0.63086c1.0625 0 1.6191 0.12742 1.6191 0.73242 0 0.32875-0.27789 0.75828-0.55664 1.2383l-2.9 4.752-2.89-4.826c-0.2775-0.48125-0.42968-0.8857-0.42968-1.1895 0-0.63125 0.68258-0.70703 1.6426-0.70703v-0.63086h-7.582zm-89.199 1.1621c2.0225 0 3.5879 0.70586 3.5879 3.4121 0 2.2988-1.3637 3.2598-3.6387 3.2598h-1.541v-4.8535c0-1.44 0.15179-1.8184 1.5918-1.8184z" transform="matrix(.8 0 0 -.8 111.02 740.08)" fill="#041e42"/></g></g></svg>
