<?xml version="1.0" encoding="utf-8"?>
<!-- Generator: Adobe Illustrator 18.1.1, SVG Export Plug-In . SVG Version: 6.00 Build 0)  -->
<svg version="1.1" id="Layer_1" xmlns="http://www.w3.org/2000/svg" xmlns:xlink="http://www.w3.org/1999/xlink" x="0px" y="0px"
	 viewBox="0 0 478.3 68.8" enable-background="new 0 0 478.3 68.8" xml:space="preserve">
<g>
	<path fill="#FFFFFF" stroke="#00539B" stroke-width="2" d="M-59.9,82.2c25.8,0,46.8-20.9,46.8-46.8S-34-11.4-59.9-11.4
		c-25.8,0-46.8,20.9-46.8,46.8S-85.7,82.2-59.9,82.2z"/>
	<g>
		<path fill="#00539B" d="M-91.1,52.7l2.6,4l-1,0.6l-1.8-2.9l-1.2,0.7l1.7,2.6l-0.9,0.6l-1.7-2.6l-1.3,0.9l1.9,2.9l-1,0.6l-2.6-4.1
			L-91.1,52.7z"/>
		<path fill="#00539B" d="M-90.7,60.8c-0.6,0.6-0.5,1.3,0,1.9c0.3,0.4,0.9,0.8,1.4,0.4c0.5-0.5,0-1.3-0.5-2.1
			c-0.4-0.9-0.8-1.8,0.1-2.6c1-0.9,2.3-0.4,3,0.5c0.9,1,1.3,2.3,0.1,3.3l-0.9-1c0.6-0.5,0.3-1.1-0.1-1.6c-0.3-0.3-0.8-0.6-1.2-0.2
			c-0.4,0.3-0.2,0.6,0.5,2.1c0.2,0.4,1,1.7-0.1,2.7c-0.9,0.8-2.2,0.7-3.3-0.6c-0.9-1.1-1.3-2.5-0.1-3.6L-90.7,60.8z"/>
		<path fill="#00539B" d="M-84.2,63.1l-1.5-1.2l0.8-0.9l4,3.4l-0.8,0.9l-1.5-1.2l-3.4,4l-1.1-0.9L-84.2,63.1z"/>
		<path fill="#00539B" d="M-79.6,65.1l1.2,0.8l-1.4,6.7l-1.2-0.8l0.4-1.5l-2-1.3L-84,70l-1.2-0.8L-79.6,65.1z M-81.9,68.4l1.4,0.9
			l0.6-2.4l0,0L-81.9,68.4z"/>
		<path fill="#00539B" d="M-76.3,67.2l2.8,1.2c1.1,0.5,1.7,1.2,1.3,2.3c-0.2,0.6-0.7,0.9-1.3,0.9c0.6,0.5,0.8,1.2,0.4,2
			c-0.5,1.2-1.8,1.3-2.8,0.8l-2.9-1.2L-76.3,67.2z M-77.1,72.7l1.4,0.6c0.5,0.2,1,0.2,1.3-0.4c0.3-0.6,0-1-0.6-1.2l-1.4-0.6
			L-77.1,72.7z M-76,70.2l1.3,0.6c0.5,0.2,0.9,0.1,1.1-0.4c0.2-0.6-0.1-0.9-0.6-1.1l-1.2-0.5L-76,70.2z"/>
		<path fill="#00539B" d="M-70.8,69.5l1.4,0.4l-1.3,5.1l3,0.8l-0.3,1.1l-4.4-1.1L-70.8,69.5z"/>
		<path fill="#00539B" d="M-65.9,70.6l1.4,0.2l-1,6.4l-1.4-0.2L-65.9,70.6z"/>
		<path fill="#00539B" d="M-62.8,75.3c0,0.9,0.6,1.2,1.4,1.2c0.5,0,1.3-0.1,1.3-0.7c0-0.7-0.9-0.8-1.9-1.1c-0.9-0.3-1.9-0.7-1.8-1.9
			c0.1-1.3,1.3-1.9,2.5-1.8c1.3,0.1,2.5,0.7,2.5,2.2l-1.4-0.1c0-0.8-0.6-1-1.2-1c-0.4,0-1,0.1-1,0.7c0,0.5,0.3,0.6,1.9,1
			c0.5,0.1,1.9,0.5,1.8,1.9c0,1.2-1,2-2.8,1.9c-1.4-0.1-2.7-0.8-2.6-2.4L-62.8,75.3z"/>
		<path fill="#00539B" d="M-58.2,71.2l1.4-0.2l0.3,2.5l2.6-0.3l-0.3-2.5l1.4-0.2l0.8,6.4l-1.4,0.2l-0.3-2.8l-2.6,0.3l0.3,2.8
			l-1.4,0.2L-58.2,71.2z"/>
		<path fill="#00539B" d="M-52.1,70.3l4.6-1.3l0.3,1.1l-3.3,0.9l0.4,1.3l3-0.9l0.3,1.1l-3,0.9l0.4,1.5l3.3-1l0.3,1.1l-4.7,1.4
			L-52.1,70.3z"/>
		<path fill="#00539B" d="M-46.9,68.8l2.5-1.2c1.5-0.7,3.1-0.3,4,1.6c0.8,1.7,0.5,3.3-1.2,4.2l-2.5,1.2L-46.9,68.8z M-43.4,72.9
			l1.1-0.5c0.7-0.4,1.2-1.1,0.6-2.4c-0.6-1.2-1.3-1.7-2.6-1.1l-0.9,0.4L-43.4,72.9z"/>
		<path fill="#00539B" d="M-33.2,68l-1,0.8l-2.5-3.2l-1.2,1l-0.6-0.8c0.7-0.5,1.2-1.3,0.7-2.1l0.8-0.6L-33.2,68z"/>
		<path fill="#00539B" d="M-32.1,64.9c0.4,0.2,0.8,0.3,1.2,0c0.7-0.7,0-1.7-0.5-2.2l0,0c0.1,0.6-0.1,1.1-0.5,1.5
			c-0.4,0.4-1,0.6-1.5,0.6c-0.5,0-1-0.3-1.3-0.7c-0.9-0.9-1-2.3-0.1-3.2c1.4-1.3,2.9-0.5,4,0.6c1.1,1.1,1.8,2.8,0.6,4.1
			c-0.8,0.8-1.8,0.9-2.7,0.2L-32.1,64.9z M-32.5,61.7c-0.4-0.4-1.1-0.6-1.5-0.1c-0.4,0.4-0.3,1.1,0.1,1.5c0.4,0.4,1.1,0.6,1.5,0.2
			C-31.9,62.8-32.1,62.2-32.5,61.7z"/>
		<path fill="#00539B" d="M-29.7,57.6c-0.4-0.2-0.9-0.2-1.1,0.2c-0.6,0.7,0.2,1.7,0.8,2.1l0,0c-0.2-0.6-0.1-1.1,0.3-1.6
			c0.3-0.4,0.9-0.7,1.4-0.7c0.5,0,1,0.2,1.4,0.5c1,0.8,1.3,2.1,0.5,3.2c-1.2,1.5-2.8,0.9-4.1-0.1c-1.2-0.9-2.2-2.6-1.1-4
			c0.7-0.9,1.7-1.1,2.6-0.5L-29.7,57.6z M-28.8,60.7c0.5,0.4,1.2,0.4,1.5-0.1c0.4-0.5,0.1-1.1-0.3-1.5c-0.5-0.4-1.1-0.5-1.5,0
			C-29.6,59.8-29.3,60.4-28.8,60.7z"/>
		<path fill="#00539B" d="M-29.1,53.5c0.6-1.1,1.9-1.6,4-0.4c2.2,1.3,2.3,2.6,1.7,3.7c-0.6,1.1-1.8,1.6-4,0.3
			C-29.6,55.9-29.7,54.6-29.1,53.5z M-24.4,56.3c0.5-0.9-0.8-1.7-1.4-2c-0.6-0.3-1.9-1.1-2.4-0.2c-0.5,0.9,0.8,1.7,1.4,2
			C-26.2,56.4-24.9,57.2-24.4,56.3z"/>
	</g>
	<g>
		<path fill="#00539B" d="M-97.2,30.3c0.9,0.2,1.4-0.5,1.6-1.3c0.1-0.5,0.1-1.4-0.6-1.5c-0.8-0.1-1.1,0.9-1.5,1.9
			c-0.5,1-1,2-2.4,1.7c-1.4-0.3-1.9-1.7-1.7-3c0.3-1.5,1.1-2.7,2.8-2.4l-0.3,1.5c-0.9-0.1-1.2,0.5-1.3,1.2c-0.1,0.5,0,1.1,0.6,1.2
			c0.5,0.1,0.7-0.2,1.4-1.9c0.2-0.5,0.8-2,2.4-1.7c1.3,0.2,2.1,1.4,1.7,3.3c-0.3,1.6-1.3,2.9-3,2.5L-97.2,30.3z"/>
		<path fill="#00539B" d="M-98.9,22.8l-0.7,2l-1.2-0.4l1.9-5.5l1.2,0.4l-0.7,2l5.5,1.9l-0.5,1.5L-98.9,22.8z"/>
		<path fill="#00539B" d="M-97.9,16.7l0.7-1.4l7.6,0.9l-0.7,1.5l-1.7-0.2l-1.2,2.4l1.2,1.2l-0.7,1.4L-97.9,16.7z M-94.1,18.9
			l0.8-1.6l-2.7-0.4l0,0L-94.1,18.9z"/>
		<path fill="#00539B" d="M-95.3,12L-93,9c0.8-1,2-1.1,2.8-0.5c0.7,0.5,1,1.2,0.7,2l0,0c0.6-0.5,1.4-0.2,2,0.2
			c0.4,0.2,1,0.8,1.5,0.8l-1,1.2c-0.5-0.1-1-0.6-1.5-0.8c-0.7-0.4-1.1-0.3-1.6,0.3l-1,1.2l2.2,1.7l-1,1.2L-95.3,12z M-91.8,12.7
			l1-1.4c0.4-0.6,0.4-1-0.2-1.5c-0.5-0.4-1-0.3-1.4,0.3l-1,1.4L-91.8,12.7z"/>
		<path fill="#00539B" d="M-90.5,6l1.2-1.1l2,2.2l0.1-4.1l1.5-1.3l-0.2,4l5.2,1.1l-1.5,1.3L-86,7.2l-0.1,1.3l1.5,1.7l-1.2,1.1
			L-90.5,6z"/>
		<path fill="#00539B" d="M-78.6,2.8c0.4,0.8,1.3,0.8,2,0.4c0.5-0.3,1.2-0.8,0.8-1.4c-0.4-0.7-1.4-0.3-2.4-0.1
			c-1.1,0.2-2.2,0.4-2.8-0.8c-0.7-1.3,0.2-2.6,1.4-3.2c1.3-0.7,2.8-0.8,3.6,0.7l-1.3,0.7c-0.4-0.7-1.1-0.6-1.7-0.3
			c-0.4,0.2-0.9,0.7-0.6,1.2c0.3,0.5,0.6,0.4,2.4,0c0.5-0.1,2.1-0.6,2.8,0.9c0.6,1.2,0.2,2.5-1.6,3.4C-77.5,5.1-79.2,5-80,3.5
			L-78.6,2.8z"/>
		<path fill="#00539B" d="M-73.7-3.3l-2,0.7l-0.4-1.3l5.5-1.9l0.4,1.3l-2,0.7l1.9,5.5l-1.5,0.5L-73.7-3.3z"/>
		<path fill="#00539B" d="M-68.3-6.1l1.6-0.3l3.9,6.5l-1.6,0.3l-0.8-1.5l-2.6,0.5l-0.3,1.7l-1.6,0.3L-68.3-6.1z M-67.7-1.8l1.8-0.3
			l-1.4-2.4l0,0L-67.7-1.8z"/>
		<path fill="#00539B" d="M-62.3-5.6l-2.1,0.1l-0.1-1.3l5.8-0.2l0.1,1.3l-2.1,0.1l0.2,5.8l-1.6,0.1L-62.3-5.6z"/>
		<path fill="#00539B" d="M-57.5-7l5.3,0.6l-0.2,1.3l-3.7-0.4L-56.2-4l3.4,0.4l-0.1,1.2l-3.4-0.4L-56.6-1l3.8,0.4l-0.2,1.3l-5.4-0.6
			L-57.5-7z"/>
		<path fill="#00539B" d="M-43.6-1.2c0.2-0.7-0.3-1.4-1-1.7c-1.3-0.5-2.2,0.4-2.7,1.6c-0.4,1.1-0.4,2.4,0.9,2.9
			c0.9,0.3,1.6-0.1,2.1-0.9l1.4,0.6c-0.8,1.6-2.4,2.2-4,1.6C-48.9,2-49.5,0-48.8-1.9c0.8-2,2.6-3,4.6-2.2c1.5,0.6,2.4,1.9,1.9,3.5
			L-43.6-1.2z"/>
		<path fill="#00539B" d="M-37-0.5c1.9,1.2,2.1,3.3,0.9,5.1c-1.1,1.7-3.1,2.4-5,1.2c-1.9-1.2-2.1-3.3-1-5C-40.9-1-38.9-1.7-37-0.5z
			 M-40.3,4.7c1.2,0.8,2.3,0,2.9-1c0.7-1.1,0.9-2.4-0.3-3.1c-1.2-0.8-2.3,0-3,1C-41.3,2.6-41.5,3.9-40.3,4.7z"/>
		<path fill="#00539B" d="M-33,2.5l1.2,1.1l-3.9,4.3l2.6,2.3l-0.9,1l-3.7-3.4L-33,2.5z"/>
		<path fill="#00539B" d="M-28.5,6.8l1,1.2l-4.5,3.7l2.2,2.7l-1,0.8l-3.2-3.9L-28.5,6.8z"/>
		<path fill="#00539B" d="M-24.6,11.8l2.7,4.6L-23,17l-1.9-3.3l-1.3,0.8l1.8,3l-1.1,0.6l-1.8-3l-1.5,0.9l2,3.3l-1.1,0.7l-2.7-4.7
			L-24.6,11.8z"/>
		<path fill="#00539B" d="M-25.3,24.9c-0.9-0.3-1.4-0.9-1.6-1.5c-0.8-2.1,0.3-3.9,2.3-4.6c2-0.7,4-0.1,4.8,2c0.5,1.4,0.1,3-1.3,3.7
			l-0.5-1.4c0.7-0.4,0.9-1.1,0.6-1.8c-0.5-1.3-1.8-1.4-3-1c-1.1,0.4-2.1,1.3-1.6,2.6c0.4,1,1.1,1.3,2,1.1l-0.5-1.5l1.1-0.4l1,2.8
			l-3.6,1.3l-0.3-0.9L-25.3,24.9z"/>
		<path fill="#00539B" d="M-18.5,25.5l0.9,5.3l-1.3,0.2l-0.7-3.7l-1.5,0.3l0.6,3.4l-1.2,0.2l-0.6-3.4L-24,28l0.7,3.8l-1.3,0.2
			l-0.9-5.3L-18.5,25.5z"/>
	</g>
	<g>
		<path fill="#ED174F" d="M-28.4,31.2c0,0-10.3,0.1-10.2,0.1c0.1-0.8,0-2.1-0.1-2.9c-0.5-0.1-0.9,0-1.4-0.1c-0.5,0-1.3-0.2-1.9-0.4
			c-1.2-0.8-2.2-1.9-2.5-3.6c-0.2-2.6-0.1-5.5-1-8c-1.9-6-6.6-9.8-12.4-10c-5.9-0.6-11.6,1.9-14.9,7.1c-2,3.2-2.8,7.5-1.8,11.4
			c1.1,5.1,5.2,9.7,10.4,10.9c3.6,0.6,7.5,0.1,10.7,1.9c1.6,1,3.3,2.3,4.6,4c1.8,2.3,2,5,2.2,7.8c-0.2,3.8-1.3,6.9-4.1,9.6
			c-2.3,2.2-5.1,3.1-8.1,3.6c-5.8,0.1-10.7-2.1-13.1-7.4c-0.8-2.1-1.3-6.9-1.3-6.9c-0.1-3.1-0.3-6.1-3.5-7c-0.9-0.5-3-0.8-3-0.8
			l0.1-1.6c0,0,10.4-0.1,10.6,0c0.1,3.3-0.3,7.2,0.6,10.2c0.8,3,3.9,5.6,6.9,5.9c1.1,0.3,2.3,0.1,3.3,0c3.3-0.5,6.3-3.7,6.9-6.9
			c0.4-1.4,0.1-3-0.1-4.4c-0.5-1.7-1.6-3.3-3.1-4.5c-1.7-1.4-3.7-1.9-6.1-1.7h-13.9h-16.8C-92.8,21.6-80.1,3.8-58.6,3.7
			C-34.7,5.3-28.8,26.6-28.4,31.2z"/>
		<path fill="#00539B" d="M-56.5,8.1c2.7,0.5,5,2,5.5,2.4c0.2,0.2,0.5,0.5,0.7,0.7c2.9,2.8,4.2,6.8,4.1,11.1c0,1.7,0.3,3.4,1.2,4.8
			c0.7,0.7,1.1,1.6,2,1.9c0.4,0.7,2.6,0.6,2.9,0.8c-0.1,0.7-0.1,1.1,0,1.5h-10.4c0,0-0.2-6.2-0.5-9.2c-0.7-2.6-3.1-5.2-5.7-6.1
			c-1.2-0.4-2.6-0.4-4-0.3l-0.1-0.1c-3.1,0.5-6.5,2.7-7.3,5.9c-0.8,2.4-0.5,5.4,1,7.5c1.5,2.1,3.9,3.8,6.6,3.8l9.9-0.1
			c3.9,0,7.6-0.1,11.5,0c0,0,10.6,0,10.7,0.1c0.9,12.7-5.8,25.4-17.1,31c-6.2,3.2-15.3,4.2-22.4,2.4c-8.5-1.8-17.2-9.2-21-17.3
			c-1.5-3.1-2.3-6.2-2.6-9.8c0.1-0.1,2.4,0,4.8,0c2.6,0,5.3-0.1,5.3-0.1s-0.1,0.5,0,0.5l0,2.4c0,0,1.7,0,3.1,0.6
			c1.4,0.5,2.7,1.5,2.8,2.6c0.3,2.3,0.3,5.1,0.8,7.5c0.5,5.7,5.7,10.3,11,11.4c0.9,0.2,6.1,1,10.3-1.3c3.1-1.3,5.8-3.8,7-7.3
			c1.9-5.1,1.4-11.4-2.2-15.5c-1.2-1.4-2.9-2.6-4.5-3.5c-4.4-2.7-10.6-0.9-14.8-4c-4.4-3.2-6.5-8-5.5-13.4
			c0.9-5.4,5.3-9.2,10.4-10.7C-62.3,8.2-59.2,7.5-56.5,8.1z"/>
	</g>
</g>
<g>
	<path fill="#00539B" d="M9.3,60V40.2h2.1c1,6.8,3.7,18.1,11.2,18.1c4.9,0,7.5-4.7,7.5-9.2c0-13.1-20.7-10.1-20.7-26.3
		c0-7.3,4.8-13.6,11.5-13.6c5,0,6.9,3.9,8,3.9c1,0,1.5-1.9,1.9-2.7h2.1v18.4h-2.1C30.1,23,27.9,12,20.9,12c-3.6,0-6.4,3-6.4,7.8
		c0,12.7,20.7,8.6,20.7,26.4c0,7.6-5.6,14.9-12.5,14.9c-5.2,0-7.6-4-9-4c-1.1,0-1.9,1.9-2.3,2.9H9.3z"/>
	<path fill="#00539B" d="M38,38.4V25.3h21.7v13.1h-1.5v-1.1c0-6.8-2.5-10.4-6.8-10.4h-0.4v28c0,2.5,1,3.1,4,3.4V60H42.7v-1.6
		c2.9-0.3,3.9-0.9,3.9-3.4v-28h-0.4c-4.3,0-6.8,3.6-6.8,10.4v1.1H38z"/>
	<path fill="#00539B" d="M56.9,60v-1.6c2.2-0.2,3-1,3.4-2.6l8.8-31.2h1.5l9.4,30.9c0.7,2.3,1.1,2.8,3.7,3V60H72.3v-1.6
		c2.4,0,3.4-0.5,3.4-1.7c0-0.5-0.1-0.9-0.3-1.7l-2-6.7h-9L63,53c-0.3,0.9-0.5,2-0.5,2.7c0,1.9,0.5,2.5,3.9,2.7V60H56.9z M68.8,33.1
		L68.8,33.1l-3.9,13.4h7.8L68.8,33.1z"/>
	<path fill="#00539B" d="M84.3,58.4c2.8-0.2,3.4-0.8,3.4-3.4V30.3c0-2.6-0.5-3.2-3.4-3.4v-1.6h11.3c7.5,0,10.3,3.6,10.3,8.5
		c0,5-3.3,8.5-7.7,8.8v0.1c3.1,1,4.9,3.2,5.2,10.6c0.1,2.6,0.5,3.3,1.2,3.3c1,0,1.4-0.8,1.5-6.1h1.5v1.4c0,4.8-1.2,8.5-4.3,8.5
		c-3.7,0-4.7-5-4.7-10.6c0-4.7-1-6.8-4-6.8h-2.4v11.9c0,2.6,0.5,3.2,3.4,3.4V60H84.3V58.4z M92.1,41.4h2.2c4.6,0,6.9-2,6.9-7.4
		c0-4.4-2.4-7.1-6-7.1c-2,0-3.2,0.7-3.2,2.6V41.4z"/>
	<path fill="#00539B" d="M110.3,60v-1.6c2.8-0.2,3.4-0.8,3.4-3.4V30.3c0-2.6-0.5-3.2-3.4-3.4v-1.6h11.2v1.6
		c-2.8,0.2-3.4,0.8-3.4,3.4v11.8l8.6-10.8c0.7-0.9,1.4-2.1,1.4-2.9c0-1-0.8-1.4-3.1-1.5v-1.6h9.9v1.6c-1.5,0.2-2.9,0.7-4.1,2.2
		l-7.1,9l8.6,17.6c1,2.1,1.6,2.5,3.7,2.7V60h-11.2v-1.6c1.8-0.1,2.8-0.6,2.8-1.4c0-0.7-0.3-1.3-1.2-3.1l-5.8-11.9l-2.5,3.1v9.9
		c0,2.6,0.5,3.2,3.4,3.4V60H110.3z"/>
	<path fill="#00539B" d="M152.4,60V40.2h2.1c1,6.8,3.7,18.1,11.2,18.1c4.9,0,7.5-4.7,7.5-9.2c0-13.1-20.7-10.1-20.7-26.3
		c0-7.3,4.8-13.6,11.5-13.6c5,0,6.9,3.9,8,3.9c1,0,1.5-1.9,1.9-2.7h2.1v18.4h-2.1C173.1,23,171,12,163.9,12c-3.6,0-6.4,3-6.4,7.8
		c0,12.7,20.7,8.6,20.7,26.4c0,7.6-5.6,14.9-12.5,14.9c-5.2,0-7.6-4-9-4c-1.1,0-1.9,1.9-2.3,2.9H152.4z"/>
	<path fill="#00539B" d="M181,38.4V25.3h21.7v13.1h-1.5v-1.1c0-6.8-2.5-10.4-6.8-10.4h-0.4v28c0,2.5,1,3.1,4,3.4V60h-12.3v-1.6
		c2.9-0.3,3.9-0.9,3.9-3.4v-28h-0.4c-4.3,0-6.8,3.6-6.8,10.4v1.1H181z"/>
	<path fill="#00539B" d="M199.9,60v-1.6c2.2-0.2,3-1,3.4-2.6l8.8-31.2h1.5l9.4,30.9c0.7,2.3,1.1,2.8,3.7,3V60h-11.4v-1.6
		c2.4,0,3.4-0.5,3.4-1.7c0-0.5-0.1-0.9-0.3-1.7l-2-6.7h-9L206,53c-0.3,0.9-0.5,2-0.5,2.7c0,1.9,0.5,2.5,3.9,2.7V60H199.9z
		 M211.8,33.1L211.8,33.1l-3.9,13.4h7.8L211.8,33.1z"/>
	<path fill="#00539B" d="M224.8,38.4V25.3h21.7v13.1H245v-1.1c0-6.8-2.5-10.4-6.8-10.4h-0.4v28c0,2.5,1,3.1,4,3.4V60h-12.3v-1.6
		c2.9-0.3,3.9-0.9,3.9-3.4v-28H233c-4.3,0-6.8,3.6-6.8,10.4v1.1H224.8z"/>
	<path fill="#00539B" d="M248.3,60v-1.6c2.8-0.2,3.4-0.8,3.4-3.4V30.3c0-2.6-0.5-3.2-3.4-3.4v-1.6h21.4v13.2h-1.5
		c-1.1-6.9-2.7-11.6-8-11.6c-3.2,0-4.1,1.1-4.1,3.4v10.5h1.4c3.2,0,4-1.9,4.5-6h1.5v13.9H262c-0.6-4.2-1.8-5.9-4.6-5.9h-1.3v12.2
		c0,2,0.7,3.4,3.4,3.4c5.9,0,9-4.3,9.4-12.1h1.5V60H248.3z"/>
	<path fill="#00539B" d="M315.7,10.4v18.9h-2.1c-1.3-8.5-4-17.3-11-17.3c-5.6,0-9.4,5.5-9.4,23.2c0,17.4,5.6,23.2,10.4,23.2
		c5.5,0,10.5-4.3,10.6-18.6h2.5c0,14.1-4.8,21.3-13.8,21.3c-8.9,0-17-9.9-17-25.9c0-16,8.1-25.9,16.3-25.9c6.1,0,8.3,3.9,9.4,3.9
		c0.8,0,1.4-1.2,1.9-2.7H315.7z"/>
	<path fill="#00539B" d="M333,24.5c6.5,0,11.7,8.2,11.7,18.1c0,10-5.3,18.1-11.7,18.1s-11.7-8.2-11.7-18.1
		C321.3,32.7,326.5,24.5,333,24.5z M333,58.9c4.2,0,6.7-4.4,6.7-16.2c0-11.8-2.5-16.2-6.7-16.2c-4.2,0-6.7,4.4-6.7,16.2
		C326.3,54.4,328.8,58.9,333,58.9z"/>
	<path fill="#00539B" d="M347.8,60v-1.6c2.8-0.2,3.4-0.8,3.4-3.4V30.3c0-2.6-0.5-3.2-3.4-3.4v-1.6h11.4v1.6
		c-3.1,0.2-3.6,0.8-3.6,3.4v24.6c0,2.2,0.8,3.4,3.1,3.4c3.7,0,7.9-3.1,8.5-12.5h1.5V60H347.8z"/>
	<path fill="#00539B" d="M371.4,60v-1.6c2.8-0.2,3.4-0.8,3.4-3.4V30.3c0-2.6-0.5-3.2-3.4-3.4v-1.6h11.4v1.6
		c-3.1,0.2-3.6,0.8-3.6,3.4v24.6c0,2.2,0.8,3.4,3.1,3.4c3.7,0,7.9-3.1,8.5-12.5h1.5V60H371.4z"/>
	<path fill="#00539B" d="M394.9,60v-1.6c2.8-0.2,3.4-0.8,3.4-3.4V30.3c0-2.6-0.5-3.2-3.4-3.4v-1.6h21.4v13.2h-1.5
		c-1.1-6.9-2.7-11.6-8-11.6c-3.2,0-4.1,1.1-4.1,3.4v10.5h1.4c3.2,0,4-1.9,4.5-6h1.5v13.9h-1.5c-0.6-4.2-1.8-5.9-4.6-5.9h-1.3v12.2
		c0,2,0.7,3.4,3.4,3.4c5.9,0,9-4.3,9.4-12.1h1.5V60H394.9z"/>
	<path fill="#00539B" d="M441.2,25.3v13.4h-1.5c-1.2-8.5-3.1-12.3-7.3-12.3c-3.6,0-6.9,3.3-6.9,16.2c0,12.4,3.2,16.2,6.9,16.2
		c3.1,0,4.7-2.2,4.7-8.2c0-5.2-0.7-6-4.3-6.3v-1.6H445v1.6c-2.8,0.2-3.4,0.8-3.4,3.4V60h-1.5c-0.5-1.1-1-1.9-1.5-1.9
		c-0.6,0-0.6,0.7-2.4,1.7c-1.2,0.7-2.7,1.1-4.1,1.1c-5.9,0-11.7-6.4-11.7-18.1c0-10.2,5.4-18.1,11.9-18.1c1.6,0,3.3,0.6,4.6,1.5
		c0.9,0.6,1.3,1.1,1.7,1.1c0.5,0,0.8-0.6,1.1-1.7H441.2z"/>
	<path fill="#00539B" d="M447,60v-1.6c2.8-0.2,3.4-0.8,3.4-3.4V30.3c0-2.6-0.5-3.2-3.4-3.4v-1.6h21.4v13.2H467
		c-1.1-6.9-2.7-11.6-8-11.6c-3.2,0-4.1,1.1-4.1,3.4v10.5h1.4c3.2,0,4-1.9,4.5-6h1.5v13.9h-1.5c-0.6-4.2-1.8-5.9-4.6-5.9h-1.3v12.2
		c0,2,0.7,3.4,3.4,3.4c5.9,0,9-4.3,9.4-12.1h1.5V60H447z"/>
</g>
</svg>
