<?xml version="1.0" encoding="UTF-8" standalone="no"?>
<!-- Created with Inkscape (http://www.inkscape.org/) -->

<svg
   xmlns:dc="http://purl.org/dc/elements/1.1/"
   xmlns:cc="http://creativecommons.org/ns#"
   xmlns:rdf="http://www.w3.org/1999/02/22-rdf-syntax-ns#"
   xmlns:svg="http://www.w3.org/2000/svg"
   xmlns="http://www.w3.org/2000/svg"
   version="1.1"
   width="300"
   height="43.879047"
   id="svg13363">
  <defs
     id="defs13365" />
  <metadata
     id="metadata13368">
    <rdf:RDF>
      <cc:Work
         rdf:about="">
        <dc:format>image/svg+xml</dc:format>
        <dc:type
           rdf:resource="http://purl.org/dc/dcmitype/StillImage" />
        <dc:title></dc:title>
      </cc:Work>
    </rdf:RDF>
  </metadata>
  <g
     transform="translate(-225,-510.42265)"
     id="layer1">
    <path
       d="m 486.13618,513.88763 c 0,1.59201 -1.35789,2.90307 -2.9499,2.90307 0,0 -8.75604,0 -10.06711,0 0,1.49836 0,34.41547 0,34.41547 0,0.79601 -0.32777,1.59201 -0.93648,2.1539 -0.6087,0.56188 -1.31106,0.88965 -2.15389,0.88965 -1.63883,0 -3.04355,-1.35789 -3.04355,-3.04355 0,0 0,-32.91711 0,-34.41547 -1.35788,0 -10.11393,0 -10.11393,0 -1.592,0 -2.85625,-1.26424 -2.85625,-2.90307 0,-1.59201 1.26425,-2.90308 2.9499,-2.85625 l 26.22131,0 C 484.77829,510.98455 486.04253,512.29562 486.13618,513.88763 z m 8.05369,8.75604 c 0,6.32121 4.40143,9.78617 8.10051,10.86312 3.46496,0.9833 5.47839,1.35789 7.35134,1.63883 l 2.52847,0.51506 0.14055,0.0468 c 3.27766,0.65554 6.69581,1.40472 6.36804,6.32121 -0.2808,4.49509 -5.29108,6.50851 -9.833,6.50851 -3.46495,0 -7.67909,-1.49836 -9.73934,-3.51179 -1.21742,-1.21741 -3.13719,-1.21741 -4.30779,0 -0.6087,0.51507 -0.88963,1.31107 -0.88963,2.10707 0,0.84283 0.28093,1.59201 0.88965,2.20072 l 0.14046,0.0936 c 3.04354,2.85625 8.99016,4.86967 14.37489,4.86967 8.84971,0 15.68598,-5.61885 15.68598,-12.87653 0,-7.91322 -5.15062,-10.20759 -9.6457,-11.28453 -2.38802,-0.56189 -3.46496,-0.74918 -4.54192,-0.93648 -1.07693,-0.0937 -2.0134,-0.28094 -4.07365,-0.84283 l -0.14045,0 c -3.23085,-0.796 -6.0871,-1.82612 -6.0871,-5.85297 0,-3.18401 4.02685,-6.36803 8.05369,-6.36803 4.30778,0 6.55533,0.60871 8.89652,2.57531 1.21741,1.03012 3.04355,0.93647 4.07368,-0.1873 0.56188,-0.56188 0.84283,-1.31106 0.84283,-2.01342 0,-0.0468 0,-0.0468 0,-0.14046 -0.0468,-0.796 -0.32776,-1.49836 -0.93648,-2.06024 l -0.51504,-0.37459 0.0935,0.0937 c -3.27755,-2.57533 -6.6957,-3.60545 -11.79948,-3.60545 C 500.93249,510.42267 494.18987,515.90105 494.18987,522.64367 z m -168.42511,-12.221 c -1.68566,0 -3.09037,1.40471 -3.09037,3.09037 0,0 0,40.12797 0,40.12797 l 24.48883,0 c 1.59201,-0.0468 2.9499,-1.35789 2.9499,-2.90307 0,-1.59201 -1.35789,-2.9499 -2.9499,-2.9499 0,0 0.0936,0.0937 0.0936,0.0937 -0.28094,0 -0.56189,-0.0937 -0.93647,-0.0937 0,0 -16.20103,0 -17.51209,0 l 0,-34.275 C 328.8083,511.82738 327.40359,510.42267 325.76476,510.42267 z m -18.02715,38.48914 c 0,0 -0.60871,-0.42141 -0.60871,-0.42141 -0.60871,-0.37459 -1.35789,-1.03013 -1.40472,-2.1539 0,-0.65553 0,-8.14733 0,-14.56219 0,-4.9165 0,-9.27111 0,-9.31793 0,-8.24099 -8.24098,-11.98689 -16.48196,-11.98689 -5.94662,0 -10.25441,1.35789 -13.95349,4.44826 -1.26424,1.1706 -1.40471,3.04355 -0.32777,4.30779 1.03013,1.31106 2.9499,1.40471 4.21415,0.37459 2.85625,-2.48166 5.71249,-3.41814 10.62899,-3.41814 3.83955,0 9.59887,2.01342 9.6457,6.32121 l 0,4.68238 c -0.46824,0.18729 -1.07695,0.37459 -1.07695,0.37459 -2.10707,0.42141 -4.02684,0.51506 -9.97346,0.51506 -8.33463,0 -17.18433,3.37131 -17.18433,12.92336 l 0,0.0468 c 0,7.6791 6.55533,13.25113 15.68597,13.25113 4.91649,0 9.59887,-1.63883 13.43842,-4.5419 1.03012,2.71577 3.37131,3.93319 3.88637,4.16731 1.21742,0.60871 2.66896,0.37459 3.65226,-0.56188 0.51506,-0.60871 0.84283,-1.35789 0.84283,-2.1539 0,-0.0468 0,-0.0468 0,-0.0468 C 308.72091,550.31652 308.34631,549.52052 307.73761,548.91181 z m -8.28781,-5.94662 c -1.9666,2.10707 -5.94662,5.52521 -11.65912,5.52521 -4.77603,0 -10.06711,-2.1539 -10.4417,-6.83627 0,0 0,-0.0937 0,-0.0937 0,-5.1038 3.46496,-7.44498 11.2377,-7.44498 0,0 7.25769,-0.1873 7.25769,-0.1873 C 296.78084,533.88138 298.09191,533.64726 299.4498,533.31949 z m 99.21958,7.07039 c -0.0936,0 -16.71609,-39.0042 -16.71609,-39.0042 l -5.80615,0 -0.14046,0.46824 c -6.32121,14.37489 -16.90338,38.48914 -16.90338,38.53596 -0.70236,1.54519 0.0469,3.37131 1.63883,3.98002 1.49836,0.65553 3.32449,-0.0936 3.9332,-1.59201 0,0 3.65225,-8.56875 4.58872,-10.67582 l 19.24458,0 c 0.37459,0.88965 4.49509,10.67582 4.49509,10.67582 0.6087,1.49836 2.43482,2.29437 3.93318,1.63884 C 398.5289,553.40689 399.27808,551.58077 398.66938,550.03558 z m -27.01733,-14.09396 c 0.796,-1.73247 6.18074,-14.37489 7.30452,-17.04385 C 380.08033,521.56673 385.32459,534.20915 386.07378,535.94162 z m 72.53003,13.62572 -0.14045,-0.14045 c 0,0 -7.96005,-11.14406 -10.25441,-14.51537 5.94662,-1.40472 9.4584,-5.7125 9.4584,-11.79959 0,-8.00687 -5.5252,-12.08054 -16.52879,-12.08054 l -14.28125,0 0,40.22162 c 0,0.88966 0.37459,1.59201 0.93647,2.20072 0.60872,0.56189 1.31107,0.84283 2.20072,0.84283 1.68566,0 2.99672,-1.31107 2.99672,-3.04355 0,-0.23413 0,-0.46823 0,-0.70235 0,0 0,-13.67254 0,-14.98361 l 8.61558,0 c 0.4214,0.70236 11.94005,17.3248 11.94005,17.3248 0.42141,0.70235 1.17058,1.17059 1.9666,1.35789 0.796,0.14045 1.592,0 2.24753,-0.46824 0.84283,-0.56189 1.31107,-1.54519 1.31107,-2.52849 C 444.65032,550.64429 444.55667,550.12923 444.18208,549.56734 z m -17.37161,-19.52551 -8.24099,0 0,-13.25113 8.14734,0 c 6.46167,0 10.39487,1.1706 10.39487,6.6958 C 437.11169,527.98158 433.97449,530.04183 426.81047,530.04183 Z M 225,532.57031 c 0,11.89324 9.87982,21.63259 21.96035,21.67941 5.15061,0 9.78617,-1.59201 13.71936,-4.7292 0,-0.0937 0.0937,-0.14046 0.0937,-0.14046 0.70236,-0.56188 1.07695,-1.40471 1.07695,-2.29436 0,-0.60871 -0.18729,-1.26424 -0.65553,-1.82613 -1.03012,-1.26424 -2.9499,-1.45154 -4.16732,-0.42141 l -0.0937,0.0937 c -2.85625,2.38801 -6.22756,3.5586 -9.97346,3.5586 -8.56875,0 -15.82644,-7.35133 -15.82644,-16.10737 0,-8.8497 7.11722,-16.06056 15.87326,-16.10738 3.79273,0 7.11722,1.26424 9.92664,3.65225 1.26424,1.03012 3.23084,0.88965 4.26097,-0.37459 0.46823,-0.60871 0.796,-1.40471 0.65553,-2.20072 -0.0468,-0.796 -0.42142,-1.45153 -1.03012,-2.01342 -3.9332,-3.23084 -8.61558,-4.86967 -13.81302,-4.86967 C 234.87982,510.56314 225,520.44296 225,532.57031 Z"
       id="path4863"
       style="stroke:none" />
  </g>
</svg>
