<svg xmlns="http://www.w3.org/2000/svg" height="219.6" viewBox="0 0 250.96448 219.59622" width="250.96"><g transform="matrix(1.25 0 0 -1.25 24.497 198.15)"><g transform="matrix(1.2571 0 0 1.2571 -19.194 -16.647)" stroke-miterlimit="3.864"><path d="m18.549 69.655c0 36.874 29.892 66.766 66.767 66.766 36.874 0 66.766-29.892 66.766-66.766 0-36.875-29.892-66.767-66.766-66.767-36.875 0-66.767 29.892-66.767 66.767z" stroke="#051c48" stroke-width="0.72" fill="#fff"/><path d="m27.582 69.187c0 32.309 26.191 58.5 58.5 58.5s58.5-26.191 58.5-58.5-26.191-58.5-58.5-58.5-58.5 26.191-58.5 58.5z" stroke="#fff" stroke-width="0.72" fill="#051c48"/><path d="m197.64 1.1387-31.943 20.744-0.20508 17.047 11.066 0.64258-12.998 8.4414-2.2734 13.379 33.795-23.199c0.00001 0 0.40282-15.296 0.0391-15.373-0.3625-0.07625-12.598-0.58984-12.598-0.58984l14.318-9.2988 0.79883-11.793zm-33.408 21.383-34.818 23.551 0.18359 8.9648 9.3965-5.7891-1.6543 28.322c0 0.000001 14.826-9.0023 14.111-10.104-0.2025-0.31125 1.3438-26.869 1.3438-26.869l10.949-7.7363 0.48829-10.34zm30.97 17.785-194.09 132.3c1e-7 0 47.644-29.665 131.6-56.338-19.138-1.9788-23.035-5.0859-23.035-5.0859l85.004-58.646 0.51172-12.234zm-67.473 6.5449-39.676 27.646-1.623 38.012 41.219-28.646-0.53515-9.9863-21.977 15.836 0.35547-5.2422 22.029-14.307-0.23828-10.492-22.338 15.758 0.11132-3.2031 22.48-15.541 0.19141-9.834zm-40.844 3.6621-16.303 10.588c0 0.000001-0.53602 20.394-2.6973 54.684 0 0-52.843 44.025-63.439 52.785l79.633-54.85 2.801-63.206z" transform="matrix(.8 0 0 -.8 0 139)" stroke="#fff" stroke-width="0.9" fill="#b32d33"/></g></g></svg>
