<?xml version="1.0" encoding="utf-8"?>
<!-- Generator: Adobe Illustrator 19.1.0, SVG Export Plug-In . SVG Version: 6.00 Build 0)  -->
<svg version="1.2" baseProfile="tiny" id="Layer_1" xmlns="http://www.w3.org/2000/svg" xmlns:xlink="http://www.w3.org/1999/xlink"
	 x="0px" y="0px" viewBox="0 0 612 792" xml:space="preserve">
<g>
	<path fill="#3C5896" d="M280.4,271.8c-2.3,1-2.9,1.6-2.9,1.6c-0.5,34.6,26.9,44.8,29,45.5C300.7,316,279.8,303.1,280.4,271.8z"/>
</g>
<g>
	<path fill="#3C5896" d="M328.1,268.3c-14.3,2.8-32.1,10.4-38.8,29.5c0.2,0.3,0.3,0.7,0.5,1c0.2-0.1,0.3-0.1,0.5-0.2
		c14.3-10.6,32.4-6.9,32.4-6.9s0,11.7-16,24.5c1.7,1,2.7,1.4,2.7,1.4c15.7-8.3,21.6-21.3,23.7-31.7c-11.4-3.9-27.2-0.5-27.2-0.5
		s7.8-10.3,28.1-15.2c0-0.1,0-0.1,0-0.1S331.7,269.3,328.1,268.3z"/>
</g>
<g>
	<path fill="#FFC907" d="M323.2,267c-4.2-1-8.9-1.9-12.6-1.9c-13.8-0.2-26.8,5.4-26.8,5.4c-0.3,6.1,0.3,11.6,1.4,16.4
		C294.9,272.2,317.5,267.9,323.2,267z"/>
</g>
<path fill="#3C5896" d="M208.9,351.3c-0.1-0.3-0.3-0.8-0.3-1.2c0-0.3,0.1-0.5,0.8-0.5c0.7,0,0.9,1,1.2,1.5c1.3,2.9,4,5.4,7.4,5.4
	c2.5,0,4.6-1.6,4.6-4.2c0-5.9-13.5-3.1-13.5-13c0-3.7,3.1-7.1,7.3-7.1c3.1,0,4.9,1.4,6.1,1.4c0.4,0,1.2-0.5,1.5-0.5
	c0.5,0,0.6,0.2,0.6,0.7c-0.1,2.1,0.5,5.4,0.5,5.8c0,0.5-0.2,0.8-0.7,0.8c-0.7,0-0.8-0.6-1.1-1.5c-0.8-2.7-3.9-5.1-6.7-5.1
	c-2.2,0-4.1,1.3-4.1,3.3c0,6.2,13.5,2.9,13.5,12.9c0,3.5-2.8,8-8.2,8c-2.3,0-4.4-0.8-6.6-1.2c-0.4-0.1-0.9-0.1-1.1-0.6L208.9,351.3z
	"/>
<path fill="#3C5896" d="M231.4,338.9c0-1.8-0.2-4.5-1.7-4.7c-1.1-0.1-1.9-0.5-1.9-1.1c0-0.6,0.6-0.6,1.3-0.6
	c2.8,0.4,5.6,0.3,8.4,0.3c2.8,0,5.6-0.3,8.4-0.3c0.8,0,1.6,0,1.6,0.7c0,0.8-0.1,1.6-0.1,2.4c0,0.8,0.1,1.6,0.1,2.4
	c0,0.4-0.1,0.7-0.7,0.7c-0.6,0-0.7-0.7-0.7-1c-0.3-2.3-1.3-3.2-5.6-3.2h-2.4c-1,0-1.3,0.3-1.3,1.7v6.4c0,0.6,0.6,0.8,2.1,0.8
	c2.1,0,3.7-0.6,4.3-2.2c0.4-1,0.5-1.1,0.9-1.1c0.5,0,0.5,0.5,0.5,1c0,1.1-0.1,2.2-0.1,3.3c0,1.1,0.1,2.2,0.1,3.3c0,0.5,0,1-0.7,1
	c-0.5,0-0.5-1.1-1-1.8c-0.9-1.5-2-1.7-4.1-1.7c-1.7,0-2.1,0.5-2.1,1.4v6.2c0,2.7,0.5,3.1,2.4,3.1c3.8,0,5.9-1.2,7.2-2.4
	c1.2-1.2,1.6-2.4,2.2-2.4c0.4,0,0.6,0.3,0.6,0.7c0,0.7-0.3,2.1-0.5,2.9c-0.5,1.5-2.1,3.2-3.8,3.2c-2.4,0-4.9-0.3-7.3-0.3
	c-2.4,0-4.9,0.3-7.3,0.3c-1.1,0-1.7,0-1.7-0.6c0-0.6,0.7-0.8,1.4-1.2c1.2-0.6,1.4-1.5,1.4-3.5V338.9z"/>
<path fill="#3C5896" d="M253.5,338.5c0-1.4-0.4-3.4-1.8-4c-1.2-0.6-1.7-0.7-1.7-1.3c0-0.5,0.1-0.6,0.5-0.6c1.1,0,2.2,0.1,3.3,0.1
	c1.1,0,2.2-0.1,3.3-0.1c0.7,0,1,0.1,1.2,0.6l7.1,14.8c0.7,1.5,1,2.1,1.1,2.1c0.2,0,0.5-0.7,0.9-1.4l8-15.2c0.4-0.8,0.5-0.8,0.8-0.8
	c1.1,0,2.2,0.1,3.3,0.1c1.1,0,2.2-0.1,3.3-0.1c0.2,0,0.3,0.2,0.3,0.6c0,0.6-0.6,0.8-1.7,1.2c-1.3,0.4-1.9,0.8-1.9,2.9v12.9
	c0,3,0.2,5,3,6.1c0.8,0.3,1.1,0.5,1.1,1.1c0,0.6-0.7,0.6-1.5,0.6c-1.5-0.1-2.9-0.1-4.4-0.3c-1.5,0.1-2.9,0.1-4.4,0.3
	c-0.7,0-1.5,0-1.5-0.6c0-0.6,0.3-0.8,1-1.1c0.9-0.4,1-1.1,1-3.1v-11.6c0-0.4,0-1-0.2-1c-0.3,0-0.5,0.5-0.9,1.5l-7.2,14.9
	c-0.3,0.5-0.6,1-1.1,1c-0.4,0-0.6-0.4-0.8-0.8l-7.1-15.4c-0.2-0.5-0.5-1-0.7-1c-0.2,0-0.3,0.1-0.3,0.8v9.6c0,2.3,0.5,4.2,3.1,5.1
	c0.6,0.2,1,0.5,1,1.1c0,0.6-0.6,0.6-1,0.6c-1.3,0-2.5-0.3-3.8-0.3c-1.3,0-2.5,0.3-3.8,0.3c-0.4,0-0.8,0-0.8-0.6c0-0.6,0.4-0.8,1-1.1
	c1.9-1,2.4-2.1,2.4-4.1V338.5z"/>
<path fill="#3C5896" d="M293.9,353.4c0,2.3,2,2.9,2.8,3c0.5,0,0.8,0.3,0.8,0.9c0,0.6-1.1,0.6-2.1,0.6c-1.1,0-2.6-0.3-4-0.3
	c-1.5,0-2.9,0.3-4.4,0.3c-0.7,0-1.2,0-1.2-0.6c0-0.6,0.6-0.8,1-0.9c1.4-0.4,1.7-1.8,1.7-3V337c0-2.3-1.2-2.9-2.8-3
	c-0.5,0-0.8-0.3-0.8-0.9c0-0.6,1.1-0.6,2.1-0.6c1.5,0,2.9,0.3,4.4,0.3c1.5,0,2.9-0.3,4.4-0.3c0.5,0,1.1,0,1.1,0.6
	c0,0.6-1,0.8-1.3,0.9c-1.4,0.4-1.5,1.8-1.5,3V353.4z"/>
<path fill="#3C5896" d="M306.2,340.1c-0.8-0.8-1.5-1.5-1.7-1.5c-0.2,0-0.3,0.1-0.3,1v13c0,1.8,0.6,3.1,2.4,3.7
	c0.9,0.3,2.1,0.2,2.1,0.9c0,0.7-0.9,0.7-1.5,0.7c-1.3,0-2.5-0.3-3.8-0.3c-1.3,0-2.5,0.3-3.8,0.3c-0.4,0-0.8,0-0.8-0.6
	c0-0.6,0.4-0.8,1-1.1c1.9-1,2.5-2.1,2.5-4.1v-13.7c0-1.4-0.5-3.4-1.9-4c-1.2-0.6-1.7-0.7-1.7-1.3c0-0.6,0.2-0.6,0.5-0.6
	c1.1,0,2.2,0.1,3.3,0.1c1.1,0,2.2-0.1,3.3-0.1c0.8,0,1.1,0.1,1.4,0.5l14.1,14.6c0.5,0.5,1,1,1.2,1c0.3,0,0.3-0.5,0.3-1v-8.2
	c0-2.4-0.1-4.6-2.4-5.1c-0.9-0.2-1.9-0.5-1.9-1.1c0-0.6,0.7-0.6,1.3-0.6c1.3,0,2.5,0.3,3.8,0.3c1.3,0,2.5-0.3,3.8-0.3
	c0.4,0,0.8,0,0.8,0.6c0,0.6-0.4,0.8-1,1.1c-1.9,1-2.4,2.1-2.4,4.1v17.5c0,1.6-0.1,2-0.6,2c-0.4,0-1.3-0.9-2.3-1.8L306.2,340.1z"/>
<path fill="#3C5896" d="M344.2,332.2c7.4,0,13.3,4.8,13.3,12.5c0,8.2-7.3,13.4-14.9,13.4c-7.4,0-13-4.9-13-12.3
	C329.7,338.1,336.7,332.2,344.2,332.2z M344.3,356.6c4.3,0,7.3-4.6,7.3-9.8c0-4.9-3-12.9-8.8-12.9c-4.3,0-7.3,4.6-7.3,9.8
	C335.5,348.6,338.5,356.6,344.3,356.6z"/>
<path fill="#3C5896" d="M362.4,337c0-2.3-1.2-3-2.8-3c-0.5,0-0.8-0.3-0.8-0.8c0-0.4,0.3-0.7,0.7-0.7c1.7,0,3.5,0.3,5.3,0.3
	c1.8,0,3.5-0.3,4.9-0.3c0.5,0,1.1,0,1.1,0.6c0,0.6-0.6,0.8-1,0.9c-1.4,0.4-1.9,1.8-1.9,3v15.7c0,2.8,0.4,3.1,2.3,3.1
	c3.8,0,5.9-1.2,7.2-2.4c1.2-1.2,1.6-2.4,2.5-2.4c0.5,0,0.8,0.7,0.8,1.5c0,3-2.9,5.3-5.7,5.3c-2.4,0-7.4-0.3-9.8-0.3
	c-1.3,0-2.7,0.3-4,0.3c-0.8,0-1.5,0-1.5-0.6c0-0.6,0.6-0.7,1.4-1.2c1.2-0.8,1.4-2.1,1.4-3.3V337z"/>
<path fill="#3C5896" d="M384.8,338.9c0-1.8-0.2-4.5-1.7-4.7c-1.1-0.1-1.9-0.5-1.9-1.1c0-0.6,0.6-0.6,1.3-0.6
	c2.8,0.4,5.6,0.3,8.4,0.3c2.8,0,5.6-0.3,8.4-0.3c0.8,0,1.6,0,1.6,0.7c0,0.8-0.1,1.6-0.1,2.4c0,0.8,0.1,1.6,0.1,2.4
	c0,0.4-0.1,0.7-0.7,0.7c-0.6,0-0.7-0.7-0.7-1c-0.3-2.3-1.3-3.2-5.6-3.2h-2.4c-1,0-1.3,0.3-1.3,1.7v6.4c0,0.6,0.6,0.8,2.1,0.8
	c2.1,0,3.7-0.6,4.3-2.2c0.4-1,0.5-1.1,0.9-1.1c0.5,0,0.5,0.5,0.5,1c0,1.1-0.1,2.2-0.1,3.3c0,1.1,0.1,2.2,0.1,3.3c0,0.5,0,1-0.7,1
	c-0.5,0-0.5-1.1-1-1.8c-0.9-1.5-2-1.7-4.1-1.7c-1.7,0-2.1,0.5-2.1,1.4v6.2c0,2.7,0.5,3.1,2.4,3.1c3.8,0,5.9-1.2,7.2-2.4
	c1.2-1.2,1.6-2.4,2.2-2.4c0.4,0,0.6,0.3,0.6,0.7c0,0.7-0.3,2.1-0.5,2.9c-0.5,1.5-2.1,3.2-3.8,3.2c-2.4,0-4.9-0.3-7.3-0.3
	s-4.9,0.3-7.3,0.3c-1.1,0-1.7,0-1.7-0.6c0-0.6,0.7-0.8,1.4-1.2c1.2-0.6,1.4-1.5,1.4-3.5V338.9z"/>
<path fill="#3C5896" d="M156.7,384.1c-0.1-0.3-0.3-0.8-0.3-1.2c0-0.3,0.1-0.5,0.8-0.5c0.7,0,0.9,1,1.2,1.5c1.3,2.9,4,5.4,7.4,5.4
	c2.5,0,4.6-1.6,4.6-4.2c0-5.9-13.5-3.1-13.5-13c0-3.7,3.1-7.1,7.3-7.1c3.1,0,4.9,1.4,6.1,1.4c0.4,0,1.2-0.5,1.5-0.5
	c0.5,0,0.6,0.2,0.6,0.7c-0.1,2.1,0.5,5.4,0.5,5.8c0,0.5-0.2,0.8-0.7,0.8c-0.7,0-0.8-0.6-1.1-1.5c-0.8-2.7-3.9-5.1-6.7-5.1
	c-2.2,0-4.1,1.3-4.1,3.3c0,6.2,13.5,2.9,13.5,12.9c0,3.5-2.8,8-8.2,8c-2.3,0-4.4-0.8-6.6-1.2c-0.4-0.1-0.9-0.1-1.1-0.6L156.7,384.1z
	"/>
<path fill="#3C5896" d="M185.7,368.9c0-1.3-0.9-1.6-2.6-1.6c-3.5,0-5.1,0.3-6,3.9c0,0.2-0.3,0.3-0.7,0.3c-0.5,0-0.7-0.2-0.7-0.4
	c0-0.3,0.1-0.8,0.1-1.2l0.4-3.7c0.1-0.7,0.3-0.8,1.1-0.8c3.7,0,7.4,0.3,11.1,0.3c3.7,0,7.4-0.3,11.1-0.3c0.9,0,1,0.1,1.1,1.3
	l0.4,3.7c0,0.3,0.1,0.5,0.1,0.8c0,0.2-0.4,0.4-0.7,0.4c-0.4,0-0.6-0.1-0.7-0.3c-0.9-3.6-2.5-3.9-6-3.9c-2,0-2.6,0.4-2.6,1.6v16.9
	c0,2.9,2.5,2.8,3.7,3.4c0.4,0.2,1,0.1,1,0.9c0,0.6-0.4,0.6-0.9,0.6c-2.1,0-4.4-0.3-6.6-0.3c-2.2,0-4.4,0.3-6.6,0.3
	c-0.4,0-0.9,0-0.9-0.6c0-0.8,0.6-0.7,1-0.9c1.2-0.5,3.7-0.5,3.7-3.4V368.9z"/>
<path fill="#3C5896" d="M211.5,366.3c0.5-0.9,0.7-1.3,1-1.3c0.1,0,0.4,0.3,0.6,0.8l9.1,19.8c0.7,1.4,1.2,3.1,2.5,3.5
	c1,0.3,1.5,0.4,1.5,1c0,0.6-0.4,0.6-0.9,0.6c-1.7,0-3.5-0.3-5.1-0.3c-1.6,0-3.3,0.3-5.1,0.3c-0.5,0-0.7-0.3-0.7-0.5
	c0-0.4,0.4-0.8,0.9-0.8c0.9-0.2,1.5-1,1.5-2c0-0.9-1.1-4-1.6-4.6c-0.5-0.5-1.2-0.6-2.9-0.6h-5.6c-1.9,0-2.9,3.7-2.9,5.2
	c0,0.5,0.9,1.2,1.7,1.5c1,0.3,2.4,0.6,2.4,1.2c0,0.6-0.4,0.6-1,0.6c-1.2,0-2.5-0.3-3.7-0.3c-1.2,0-2.5,0.3-3.7,0.3
	c-0.5,0-0.9,0-0.9-0.6c0-0.6,0.9-0.8,1.4-1.2c0.6-0.4,0.9-0.8,1.2-1.4L211.5,366.3z M207.3,378.8c-0.3,0.5-0.4,0.9-0.4,1
	c0,0.3,0.6,0.4,1.5,0.4h3.9c1.2,0,1.6-0.1,1.6-0.2c0-0.2-0.3-0.9-0.5-1.5l-2.5-5c-0.3-0.5-0.4-0.7-0.7-0.7c-0.2,0-0.5,0.8-0.6,0.9
	L207.3,378.8z"/>
<path fill="#3C5896" d="M233.5,368.9c0-1.3-0.9-1.6-2.6-1.6c-3.5,0-5.1,0.3-6,3.9c0,0.2-0.3,0.3-0.7,0.3c-0.5,0-0.7-0.2-0.7-0.4
	c0-0.3,0.1-0.8,0.1-1.2l0.4-3.7c0.1-0.7,0.3-0.8,1.1-0.8c3.7,0,7.4,0.3,11.1,0.3c3.7,0,7.4-0.3,11.1-0.3c0.9,0,1,0.1,1.1,1.3
	l0.4,3.7c0,0.3,0.1,0.5,0.1,0.8c0,0.2-0.4,0.4-0.7,0.4c-0.4,0-0.6-0.1-0.7-0.3c-0.9-3.6-2.5-3.9-6-3.9c-2,0-2.6,0.4-2.6,1.6v16.9
	c0,2.9,2.5,2.8,3.7,3.4c0.4,0.2,1,0.1,1,0.9c0,0.6-0.4,0.6-0.9,0.6c-2.1,0-4.4-0.3-6.6-0.3c-2.2,0-4.4,0.3-6.6,0.3
	c-0.4,0-0.9,0-0.9-0.6c0-0.8,0.6-0.7,1-0.9c1.2-0.5,3.7-0.5,3.7-3.4V368.9z"/>
<path fill="#3C5896" d="M253.3,371.7c0-1.8-0.2-4.5-1.7-4.7c-1.1-0.1-1.9-0.5-1.9-1.1c0-0.6,0.6-0.6,1.3-0.6
	c2.8,0.4,5.6,0.3,8.4,0.3c2.8,0,5.6-0.3,8.4-0.3c0.8,0,1.6,0,1.6,0.7c0,0.8-0.1,1.6-0.1,2.4c0,0.8,0.1,1.6,0.1,2.4
	c0,0.4-0.1,0.7-0.7,0.7c-0.6,0-0.7-0.7-0.7-1c-0.3-2.3-1.3-3.2-5.6-3.2h-2.4c-1,0-1.3,0.3-1.3,1.7v6.4c0,0.6,0.6,0.8,2.1,0.8
	c2.1,0,3.7-0.6,4.3-2.2c0.4-1,0.5-1.1,0.9-1.1c0.5,0,0.5,0.5,0.5,1c0,1.1-0.1,2.2-0.1,3.3c0,1.1,0.1,2.2,0.1,3.3c0,0.5,0,1-0.7,1
	c-0.5,0-0.5-1.1-1-1.8c-0.9-1.5-2-1.7-4.1-1.7c-1.7,0-2.1,0.5-2.1,1.4v6.2c0,2.7,0.5,3.1,2.4,3.1c3.8,0,5.9-1.2,7.2-2.4
	c1.2-1.2,1.6-2.4,2.2-2.4c0.4,0,0.6,0.3,0.6,0.7c0,0.7-0.3,2.1-0.5,2.9c-0.5,1.5-2.1,3.2-3.8,3.2c-2.4,0-4.9-0.3-7.3-0.3
	c-2.4,0-4.9,0.3-7.3,0.3c-1.1,0-1.7,0-1.7-0.6c0-0.6,0.7-0.8,1.4-1.2c1.2-0.6,1.4-1.5,1.4-3.5V371.7z"/>
<path fill="#3C5896" d="M306.4,371.2c0.1,0.7,0.3,1.5,0.3,1.9c0,0.4-0.2,0.9-0.5,0.9c-0.4,0-0.8-0.9-1-1.1c-2.3-4-5.4-6.1-8.5-6.1
	c-4.6,0-8,2.6-8,10.5c0,5.6,3.6,10.9,8.5,10.9c3.1,0,5.9-1.6,7.8-3.5c0.4-0.4,1-1.2,1.6-1.2c0.3,0,0.4,0.2,0.4,0.5
	c0,1.1-3.9,7-11.6,7c-6.1,0-12.6-4.4-12.6-12.1c0-10.1,6.8-13.8,13-13.8c4,0,7,1.9,8,1.9c0.9,0,0.6-1.1,1.6-1.1
	c0.3,0,0.4,0.2,0.5,0.4L306.4,371.2z"/>
<path fill="#3C5896" d="M323.7,365c7.4,0,13.3,4.8,13.3,12.5c0,8.2-7.3,13.4-14.9,13.4c-7.4,0-13-4.9-13-12.3
	C309.2,370.8,316.2,365,323.7,365z M323.8,389.3c4.3,0,7.3-4.6,7.3-9.8c0-4.9-3-12.9-8.8-12.9c-4.3,0-7.3,4.6-7.3,9.8
	C315.1,381.4,318,389.3,323.8,389.3z"/>
<path fill="#3C5896" d="M341.9,369.8c0-2.3-1.2-3-2.8-3c-0.5,0-0.8-0.3-0.8-0.8c0-0.4,0.3-0.7,0.7-0.7c1.7,0,3.5,0.3,5.3,0.3
	c1.8,0,3.5-0.3,4.9-0.3c0.5,0,1.1,0,1.1,0.6c0,0.6-0.6,0.8-1,0.9c-1.4,0.4-1.9,1.8-1.9,3v15.7c0,2.8,0.4,3.1,2.3,3.1
	c3.8,0,5.9-1.2,7.2-2.4c1.2-1.2,1.6-2.4,2.5-2.4c0.5,0,0.8,0.7,0.8,1.5c0,3-2.9,5.3-5.7,5.3c-2.4,0-7.4-0.3-9.8-0.3
	c-1.3,0-2.7,0.3-4,0.3c-0.8,0-1.5,0-1.5-0.6c0-0.6,0.6-0.7,1.4-1.2c1.2-0.8,1.4-2.1,1.4-3.3V369.8z"/>
<path fill="#3C5896" d="M364.1,369.8c0-2.3-1.2-3-2.8-3c-0.5,0-0.8-0.3-0.8-0.8c0-0.4,0.3-0.7,0.7-0.7c1.7,0,3.5,0.3,5.3,0.3
	c1.8,0,3.5-0.3,4.9-0.3c0.5,0,1.1,0,1.1,0.6c0,0.6-0.6,0.8-1,0.9c-1.4,0.4-1.9,1.8-1.9,3v15.7c0,2.8,0.4,3.1,2.3,3.1
	c3.8,0,5.9-1.2,7.2-2.4c1.2-1.2,1.6-2.4,2.5-2.4c0.5,0,0.8,0.7,0.8,1.5c0,3-2.9,5.3-5.7,5.3c-2.4,0-7.4-0.3-9.8-0.3
	c-1.3,0-2.7,0.3-4,0.3c-0.8,0-1.5,0-1.5-0.6c0-0.6,0.6-0.7,1.4-1.2c1.2-0.8,1.4-2.1,1.4-3.3V369.8z"/>
<path fill="#3C5896" d="M386.5,371.7c0-1.8-0.2-4.5-1.7-4.7c-1.1-0.1-1.9-0.5-1.9-1.1c0-0.6,0.6-0.6,1.3-0.6
	c2.8,0.4,5.6,0.3,8.4,0.3c2.8,0,5.6-0.3,8.4-0.3c0.8,0,1.6,0,1.6,0.7c0,0.8-0.1,1.6-0.1,2.4c0,0.8,0.1,1.6,0.1,2.4
	c0,0.4-0.1,0.7-0.7,0.7c-0.6,0-0.7-0.7-0.7-1c-0.3-2.3-1.3-3.2-5.6-3.2h-2.4c-1,0-1.3,0.3-1.3,1.7v6.4c0,0.6,0.6,0.8,2.1,0.8
	c2.1,0,3.7-0.6,4.3-2.2c0.4-1,0.5-1.1,0.9-1.1c0.5,0,0.5,0.5,0.5,1c0,1.1-0.1,2.2-0.1,3.3c0,1.1,0.1,2.2,0.1,3.3c0,0.5,0,1-0.7,1
	c-0.5,0-0.5-1.1-1-1.8c-0.9-1.5-2-1.7-4.1-1.7c-1.7,0-2.1,0.5-2.1,1.4v6.2c0,2.7,0.5,3.1,2.4,3.1c3.8,0,5.9-1.2,7.2-2.4
	c1.2-1.2,1.6-2.4,2.2-2.4c0.4,0,0.6,0.3,0.6,0.7c0,0.7-0.3,2.1-0.5,2.9c-0.5,1.5-2.1,3.2-3.8,3.2c-2.4,0-4.9-0.3-7.3-0.3
	s-4.9,0.3-7.3,0.3c-1.1,0-1.7,0-1.7-0.6c0-0.6,0.7-0.8,1.4-1.2c1.2-0.6,1.4-1.5,1.4-3.5V371.7z"/>
<path fill="#3C5896" d="M424.4,382.5c0-2.3-1.4-2.9-2.9-3c-0.4,0-0.7-0.3-0.7-0.9c0-0.5,0.6-0.6,2.1-0.6c1.5,0,2.9,0.2,4.4,0.2
	c1.5,0,2.9-0.2,4.4-0.2c0.8,0,1.1,0.2,1.1,0.6c0,0.6-0.6,0.8-1,0.9c-1.4,0.4-1.7,1.8-1.7,3v5.3c0,0.6-6.4,3.1-11,3.1
	c-7.4,0-12.9-4.8-12.9-12.2c0-7.8,5.8-13.8,13-13.8c4.4,0,7.5,1.9,8,1.9c0.9,0,0.6-1.1,1.7-1.1c0.3,0,0.4,0.2,0.4,0.4l0.6,5.1
	c0.1,0.6,0.2,1.4,0.2,1.7c0,0.5-0.2,0.9-0.5,0.9c-0.4,0-0.8-0.9-1-1.1c-3.2-5.6-5.8-6.1-8.5-6.1c-6,0-8,4.7-8,10.5
	c0,5.3,1.5,12.2,7.7,12.2c3.2,0,4.8-1.2,4.8-4.6V382.5z"/>
<path fill="#3C5896" d="M437,371.7c0-1.8-0.2-4.5-1.7-4.7c-1.1-0.1-1.9-0.5-1.9-1.1c0-0.6,0.6-0.6,1.3-0.6c2.8,0.4,5.6,0.3,8.4,0.3
	c2.8,0,5.6-0.3,8.4-0.3c0.8,0,1.6,0,1.6,0.7c0,0.8-0.1,1.6-0.1,2.4c0,0.8,0.1,1.6,0.1,2.4c0,0.4-0.1,0.7-0.7,0.7
	c-0.6,0-0.7-0.7-0.7-1c-0.3-2.3-1.3-3.2-5.6-3.2h-2.4c-1,0-1.3,0.3-1.3,1.7v6.4c0,0.6,0.6,0.8,2.1,0.8c2.1,0,3.7-0.6,4.3-2.2
	c0.4-1,0.5-1.1,0.9-1.1c0.5,0,0.5,0.5,0.5,1c0,1.1-0.1,2.2-0.1,3.3c0,1.1,0.1,2.2,0.1,3.3c0,0.5,0,1-0.7,1c-0.5,0-0.5-1.1-1-1.8
	c-0.9-1.5-2-1.7-4.1-1.7c-1.7,0-2.1,0.5-2.1,1.4v6.2c0,2.7,0.5,3.1,2.4,3.1c3.8,0,5.9-1.2,7.2-2.4c1.2-1.2,1.6-2.4,2.2-2.4
	c0.4,0,0.6,0.3,0.6,0.7c0,0.7-0.3,2.1-0.5,2.9c-0.5,1.5-2.1,3.2-3.8,3.2c-2.4,0-4.9-0.3-7.3-0.3c-2.4,0-4.9,0.3-7.3,0.3
	c-1.1,0-1.7,0-1.7-0.6c0-0.6,0.7-0.8,1.4-1.2c1.2-0.6,1.4-1.5,1.4-3.5V371.7z"/>
<path fill="#FFC907" d="M232.3,407.1c0,1.4-0.5,2.5-1.6,3.4c-1.2,1-2.8,1.5-4.7,1.5c-1.9,0-3.5-0.5-4.7-1.5c-1.1-0.9-1.6-2-1.6-3.4
	c0-1.4,0.5-2.5,1.6-3.4c1.2-1,2.8-1.5,4.7-1.5c1.9,0,3.5,0.5,4.7,1.5C231.7,404.6,232.3,405.7,232.3,407.1z M230,407.1
	c0-0.9-0.4-1.7-1.1-2.3c-0.7-0.6-1.7-0.9-2.9-0.9c-1.2,0-2.2,0.3-2.9,0.9c-0.7,0.6-1.1,1.3-1.1,2.3c0,0.9,0.4,1.7,1.1,2.3
	c0.7,0.6,1.7,0.9,2.9,0.9c1.2,0,2.2-0.3,2.9-0.9C229.6,408.8,230,408,230,407.1z"/>
<path fill="#FFC907" d="M251.5,404.2h-7.8v1.9h5.4v1.8h-5.4v3.8h-2.3v-9.3h10.1V404.2z"/>
<path fill="#FFC907" d="M280.9,404.2h-7.8v1.9h5.4v1.8h-5.4v3.8h-2.3v-9.3h10.1V404.2z"/>
<path fill="#FFC907" d="M298.9,411.7h-9.4v-9.3h2.3v7.5h7.1V411.7z"/>
<path fill="#FFC907" d="M318.9,407.1c0,1.4-0.5,2.5-1.6,3.4c-1.2,1-2.8,1.5-4.7,1.5c-1.9,0-3.5-0.5-4.7-1.5c-1.1-0.9-1.6-2-1.6-3.4
	c0-1.4,0.5-2.5,1.6-3.4c1.2-1,2.8-1.5,4.7-1.5c1.9,0,3.5,0.5,4.7,1.5C318.3,404.6,318.9,405.7,318.9,407.1z M316.5,407.1
	c0-0.9-0.4-1.7-1.1-2.3c-0.7-0.6-1.7-0.9-2.9-0.9c-1.2,0-2.2,0.3-2.9,0.9c-0.7,0.6-1.1,1.3-1.1,2.3c0,0.9,0.4,1.7,1.1,2.3
	c0.7,0.6,1.7,0.9,2.9,0.9c1.2,0,2.2-0.3,2.9-0.9C316.2,408.8,316.5,408,316.5,407.1z"/>
<path fill="#FFC907" d="M339.4,411.7h-2.5l-2.3-3.3h-4.3v3.3H328v-9.3h7.6c1.1,0,1.9,0.3,2.5,0.8c0.6,0.6,1,1.3,1,2.2
	c0,1.5-0.7,2.4-2.1,2.8L339.4,411.7z M335.4,406.7c0.5,0,0.9-0.1,1.1-0.3c0.3-0.2,0.4-0.5,0.4-0.9c0-0.4-0.1-0.6-0.4-0.9
	c-0.3-0.2-0.6-0.3-1.1-0.3h-5.1v2.4H335.4z"/>
<path fill="#FFC907" d="M350.5,411.7h-2.3v-9.3h2.3V411.7z"/>
<path fill="#FFC907" d="M366.4,402.4c1.7,0,3.1,0.4,4.1,1.3c1,0.9,1.5,2,1.5,3.4c0,1.4-0.6,2.5-1.7,3.4c-1,0.8-2.2,1.2-3.7,1.2h-6.5
	v-9.3H366.4z M366.5,409.9c1.1,0,1.9-0.4,2.5-1.2c0.4-0.5,0.6-1,0.6-1.6c0-0.8-0.3-1.5-0.9-2.1c-0.6-0.6-1.3-0.8-2.2-0.8h-4.1v5.7
	H366.5z"/>
<path fill="#FFC907" d="M391.8,411.7h-2.3l-1.1-2h-6l-1.1,2h-2.3l4.9-9.3h2.8L391.8,411.7z M387.5,407.9l-2-3.8l-2,3.8H387.5z"/>
</svg>
