<?xml version="1.0" encoding="UTF-8" standalone="no"?>
<svg xmlns:rdf="http://www.w3.org/1999/02/22-rdf-syntax-ns#" xmlns="http://www.w3.org/2000/svg" version="1.1" xmlns:cc="http://creativecommons.org/ns#" xmlns:dc="http://purl.org/dc/elements/1.1/" viewBox="0 0 254 101">
 <g transform="translate(-269.93 -230.79)">
  <path d="m0.89453 1.1055v4.4297 0.0019 4.4297l25.904 0.0078 25.904 0.0078 0.354-4.4375 0.351-4.4394h-26.256-26.257zm60 0v4.4824 4.4841l24.5-0.0896 24.495-0.0879v-4.3945-4.3945h-24.495-24.5zm55.485 0l0.36 4.498 0.36 4.4985 24.39-0.1352 24.4-0.1367v-4.3613-4.3633h-24.75-24.76zm56.4 0l0.31 4.25 0.3 4.25 30.37 0.1543 30.36 0.1543 4.39 4.3049 4.38 4.302v14.948 14.947l-4.04 3.844-4.04 3.845h-14.46-14.46v13.5 13.5h10 10v-4.25l0.01-4.25-5.01 0.348-5 0.346v-6.096-6.098h11.73 11.72l6.78-6.722 6.77-6.723v-17.053-17.052l-7.27-7.2249-7.27-7.2246h-32.79-32.78zm-171.89 17.93v4.035 4.035h5.5 5.5005v23.5 23.5h-5.5005-5.5l0.00003 4.536v4.535l10.013-0.285 10.014-0.286 0.062-31.5 0.061-31.5-10.076-0.285-10.074-0.285zm32 0.07v32 32h10 10v-4.5-4.5h-5.52-5.518l0.268-23.25 0.27-23.25 5.521-0.293 5.523-0.292-0.377-3.958-0.378-3.957h-9.895-9.894zm28 0v3.948 3.949l5.25 0.301 5.25 0.302 0.265 29.491 0.266 29.49 6.707 6.76 6.707 6.764h28.05 28.06l6.76-6.823 6.77-6.82 0.21-29.43 0.2-29.432 5.25-0.302 5.25-0.301v-3.949-3.948h-10-10v31.717 31.715l-4.71 4.785-4.71 4.783h-23-23.007l-4.783-4.712-4.785-4.711v-31.789-31.788h-10-10zm32 0v31 31h20.495 20.5v-31-31h-8.39-8.4l-0.38 4-0.38 4h4.3 4.29l-0.27 22.75-0.27 22.75-11.25 0.284-11.25 0.283v-23.033-23.034h4c4 0 4 0 4-4v-4h-8.5-8.495zm101 0.5l-10.25 0.17-10.25 0.168-0.31 3.582-0.31 3.58h5.56 5.56v24 24h-5.5-5.5v4 4h10.5 10.5v-31.75-31.75zm12.01 0v13.75h-0.01v13.75h13.5 13.5v-13.75l0.01-13.75h-13.5-13.5zm5.99 6.5h7 7v7 7h-7-7v-7-7zm-211 66v4 4.005h26 26v-4.005-4h-26-26zm172 0v4 4.005h26.5 26.5v-4.005-4h-26.5-26.5z" transform="translate(269.93 230.79)" fill="#9e1b32"/>
 </g>
</svg>
