<svg xmlns="http://www.w3.org/2000/svg" height="74.888" viewBox="0 0 250 74.887552" width="250"><g transform="matrix(1.25 0 0 -1.25 18.212 776.97)"><g transform="matrix(.73062 0 0 .73062 23.502 160.1)"><path d="m-49.491 630.72v-2.1312h1.6203v-11.594h60.606v11.594h1.6219v2.1312h-63.848zm1.6219-15.836v-30.094h8.3187c0.43918 11.22 10.121 20.189 22.008 20.189 11.89 0 21.567-8.9696 22.008-20.189h8.2703v30.094h-60.605zm1.4797-36.352v-17.219h5.3172v17.219h-5.3172zm52.328 0v-17.219h5.3156v17.219h-5.3156zm33.78 43.89c-2.6636-0.0974-5.1781-0.19732-7.4984-0.24532-1.4794-0.0495-2.8617-0.05-4.2438-0.05-0.09893 0-0.19584 0.00047-0.24531-0.24687l-0.39531-0.84062c-0.09743-0.24583 0.04895-0.54219 0.24531-0.54219 3.5045 0 3.9-0.14764 4.0469-1.3812 0.09893-0.88739 0.19844-3.6034 0.19844-7.8453v-10.213c0-5.0829-0.14895-7.0568-0.34531-7.6969-0.44518-1.5304-1.6286-1.8766-4.1453-2.1719 0-0.2953 0.34638-1.3333 0.44531-1.5297 0.14689 0 0.4423-0.00054 1.0344 0.0969 0.59208 0.051 3.0098 0.29687 5.525 0.29687 8.1917 0 10.66-0.14843 12.731-0.14843 2.0236 0 2.5662 0.00053 3.0594 0.0516 0.34476 0 0.74013 0.24536 0.83906 0.68907 0.34625 2.1719 0.9381 4.2936 1.4312 6.1688 0.04946 0.19785 0.09792 0.29438-0.09844 0.49374-0.19786 0.14691-1.1859 0.39375-1.3328 0.39375h-0.05c-0.09743 0-0.14742-0.05-0.19688-0.19844-0.34475-1.5289-0.73864-2.5153-1.2812-3.3547-1.7268-2.5647-4.885-2.5156-8.1422-2.5156-2.1705 0-3.9965 0.0985-4.8359 0.39375-0.54261 0.1484-0.83804 0.5453-0.8875 1.1344-0.04946 0.88886-0.09904 2.4192-0.15 10.462l-0.04844 5.9203c-0.04946 3.6499 0.10004 7.3019 0.24844 8.7828 0.19636 2.121 1.0345 2.3183 4.3891 2.7125 0 0.44517-0.14698 1.2344-0.29688 1.3828zm81.438-3.8359c-1.7552 0-4.3202-0.2559-6.1609-0.72656-2.5227-0.64154-5.6035-1.6688-7.7859-4.0641-2.908-3.2077-3.6781-7.1017-3.6781-10.053v-0.0422c0-6.7587 4.6203-14.417 16.042-14.417 2.2664 0 5.5187 0.68613 6.8438 0.72813 0.34326 0.0435 0.51556 0.12883 0.77187 0.51406 0.55611 0.8544 1.5824 3.2926 2.0531 5.2172 0.042 0.30129-0.17288 0.64368-0.60156 0.9-0.21136 0.17092-0.29713 0.0849-0.34063-0.0859-0.34176-0.89936-0.89723-1.9675-2.0109-3.0797-1.2831-1.2831-3.0371-2.5672-6.1594-2.5672-9.5827 0-12.15 7.9149-12.15 12.577 0 4.3199 1.2833 7.573 2.9531 9.6266 2.3099 2.6936 5.2611 3.9344 8.2125 3.9344 2.9094 0 5.048-0.94206 5.775-1.4547 0.81392-0.55611 1.0268-1.0264 1.3266-1.7969 0.25632-0.85591 0.59795-2.0118 0.77032-2.6953 0.0839-0.25628 0.17067-0.29921 0.76875-0.17031 0.25631 0.042 0.64375 0.12867 0.64375 0.21407-0.21435 2.3518-0.12939 4.7493 0.725 6.5016 0.0435 0.12889-0.0416 0.1698-0.47031 0.34218-0.29831 0.0854-0.38366 0.12798-0.51407 0.0859-0.89636-0.38526-1.1955-0.51463-1.7531-0.34375-1.0253 0.4272-3.2943 0.85625-5.2609 0.85625zm25.497 0c-3.7203 0-7.5691-1.4534-10.267-3.8922-3.3351-2.9949-4.7891-6.8009-4.7891-10.395 0-3.5075 1.4098-7.3156 3.5922-9.7109 2.9094-3.2497 7.8297-5.3047 12.362-5.3047 2.3114 0 6.1612 0.98583 9.1141 3.8938 2.2649 2.2244 4.8312 6.1172 4.8312 11.422 0 7.8289-7.058 13.988-14.8 13.988h-0.0438zm28.494-0.5125c-2.2259-0.0854-4.491-0.21425-6.6734-0.25625-1.37-0.0435-2.6966 0-3.9797 0-0.0855 0-0.12832-0.00099-0.17032-0.21563l-0.34218-0.76875c-0.0854-0.2563 0.043-0.51405 0.17187-0.51405 3.0368 0.042 3.3788-0.1292 3.5063-1.1125 0.12893-0.94133 0.21562-3.2511 0.21562-6.8875v-8.7688c0-4.3634-0.12912-5.9457-0.3-6.5453-0.34175-1.2816-1.4124-1.6672-3.5094-1.925-0.042-0.25632 0.21484-1.1556 0.34375-1.325 0.0854 0 0.34185 0.00019 0.81249 0.0422 0.59808 0.042 2.6948 0.25781 5.0047 0.25781 7.2294 0 9.3259-0.12969 11.08-0.12969 1.7957 0 2.2666-0.001 2.6953 0.0422 0.34325 0.042 0.63967 0.21649 0.72656 0.64219 0.29979 1.8392 0.77018 3.6791 1.2828 5.4344 0.042 0.17088 0.0428 0.29793-0.12656 0.47031-0.21587 0.12741-0.98538 0.34218-1.1563 0.34218h-0.0422c-0.12895 0-0.17207-0.0432-0.21407-0.21562-0.29976-1.3266-0.64184-2.1371-1.1125-2.8656-1.4105-2.181-4.1494-2.2672-6.9719-2.2672-1.9261 0-3.2512 0.0858-3.9797 0.34063-0.51262 0.12891-0.769 0.47074-0.8125 1.0703-0.042 0.77045-0.0861 2.0976-0.12812 8.8562l-0.0438 5.2172c-0.042 3.4655 0.0867 6.2886 0.21563 7.5312 0.21434 1.7522 1.2386 1.9658 3.8062 2.2656 0 0.34174-0.12904 1.157-0.29844 1.2844zm-106.82-0.0859v-1.1141c0-0.16938 0.08587-0.21148 0.34219-0.29688 1.7972-0.21435 2.4806-0.59958 3.1656-1.3266 0.68501-0.64304 0.77031-1.3697 0.77031-5.7766v-4.7469c0-6.0317-0.38515-9.9658-0.51406-11.037-0.21435-1.4105-0.38454-1.8387-3.0781-2.5672 0.12741-0.34176 0.25525-0.76812 0.34219-1.1953 0.72698 0 2.0088 0.12656 3.5062 0.12656 1.7538 0 3.6372-0.17031 5.4344-0.17031 0.12741 0 0.38566 0.21335 0.34219 0.34375l-0.3 1.025c-1.7538 0.34176-3.0801 0.68544-3.4219 1.6688-0.51264 1.6263-0.5125 7.3994-0.5125 11.292 0 2.3953 0.08359 5.4344 0.2125 7.8297 3.5075-3.5075 6.8865-6.8458 10.438-10.395 4.4908-4.4488 8.4695-8.4703 10.994-12.191 0.21435-0.30125 0.38559-0.30253 0.59844-0.21562 0.5576 0.21433 0.81428 0.42812 0.85625 0.68593 0 0.72548-0.12812 3.2489-0.12812 5.9859 0 5.7334 0.04269 8.5149 0.12812 12.366 0.21435 5.8174 0.47046 7.1856 1.2844 7.6563 0.68351 0.4272 1.2825 0.59881 2.8219 0.93906l-0.25625 0.9c-0.0435 0.12895-0.17003 0.21406-0.38438 0.21406-1.3266-0.0435-3.0394-0.17187-4.7062-0.17187h-4.8344l0.08594-1.1969c0-0.12896 0.08359-0.17207 0.2125-0.21407 0.89786-0.0854 2.0544-0.21201 2.5266-0.38437 0.93983-0.29831 1.027-1.3684 1.1109-2.0969 0.17238-2.181 0.21406-4.4918 0.21406-8.9406 0-3.1657-0.04247-7.0143-0.08594-8.3844-8.5124 8.0433-14.759 14.245-17.325 16.855-1.0268 0.93984-2.5236 2.908-2.8219 3.4641-0.12891 0.29979-0.34318 0.6429-0.51406 0.77031-0.08544 0.0854-0.29993 0.12813-0.55625 0.12813-3.0368 0-3.9803 0.0865-5.9469 0.17187zm118.8 0v-1.1141c0-0.16938 0.0843-0.21148 0.34063-0.29688 1.7972-0.21435 2.4806-0.59958 3.1656-1.3266 0.68355-0.64304 0.77031-1.3697 0.77031-5.7766v-4.7469c0-6.0317-0.38515-9.9658-0.51406-11.037-0.21285-1.4105-0.38455-1.8387-3.0781-2.5672 0.12741-0.34176 0.25529-0.76812 0.34218-1.1953 0.72699 0 2.0088 0.12656 3.5063 0.12656 1.7522 0 3.6372-0.17031 5.4344-0.17031 0.12741 0 0.38568 0.21335 0.34219 0.34375l-0.3 1.025c-1.7538 0.34176-3.0786 0.68544-3.4219 1.6688-0.51266 1.6263-0.51251 7.3994-0.51251 11.292 0 2.3953 0.085 5.4344 0.21094 7.8297 3.509-3.5075 6.8882-6.8458 10.441-10.395 4.4908-4.4488 8.4694-8.4703 10.991-12.191 0.21584-0.30125 0.38721-0.30253 0.60156-0.21562 0.55461 0.21433 0.81269 0.42812 0.85469 0.68593 0 0.72548-0.12813 3.2489-0.12813 5.9859 0 5.7334 0.0427 8.5149 0.12813 12.366 0.21585 5.8174 0.47195 7.1856 1.2844 7.6563 0.68349 0.4272 1.2825 0.59881 2.8219 0.93906l-0.25625 0.9c-0.042 0.12895-0.17002 0.21406-0.38437 0.21406-1.3266-0.0435-3.0379-0.17187-4.7062-0.17187h-4.8328l0.0844-1.1969c0-0.12896 0.0836-0.17207 0.21249-0.21407 0.89788-0.0854 2.0544-0.21201 2.5266-0.38437 0.93983-0.29831 1.0271-1.3684 1.1125-2.0969 0.17085-2.181 0.2125-4.4918 0.2125-8.9406 0-3.1657-0.0424-7.0143-0.0859-8.3844-8.5139 8.0433-14.759 14.245-17.325 16.855-1.0268 0.93984-2.5236 2.908-2.8219 3.4641-0.12892 0.29979-0.34468 0.6429-0.51407 0.77031-0.0869 0.0854-0.30141 0.12813-0.55625 0.12813-3.0383 0-3.9787 0.0865-5.9453 0.17187zm-121.5-0.12c-0.4272 0-3.3365-0.0424-5.5609-0.0844-2.2244 0-3.6796 0.0422-4.1937 0.0422-0.51264 0-0.76768-0.00018-1.1109-0.0422-0.12741-0.0435-0.17131-0.12833-0.34219-0.42812-0.17238-0.34325-0.21406-0.51327-0.21406-0.64219 0-0.1289 0.08394-0.25781 0.25781-0.25781 1.1961-0.042 1.8372-0.12681 2.3094-0.17032 1.454-0.29977 1.4953-0.72668 1.4953-6.3297v-10.225c0-4.7906-0.21278-6.2884-0.25625-6.9734-0.17088-1.1557-1.1101-1.3693-4.1484-1.4547-0.04347-0.25632 0.04141-0.64156 0.17031-1.0688 0.04347-0.17088 0.25468-0.34219 0.5125-0.34219 0.12891 0.0435 2.3111 0.17031 4.1938 0.17031 1.5829 0.042 3.336 0.001 6.8016-0.0844 0.08544 0.1274 0.34219 0.89701 0.34219 1.1953 0 0.1289-0.17209 0.17397-0.47188 0.25937-0.38523 0.0839-1.7962 0.21152-2.2234 0.29844-0.64154 0.1274-0.98331 0.3-1.0687 1.3688-0.12891 1.454-0.21406 3.5948-0.21406 6.1609v8.5547c0 5.0064 0.12762 6.6311 0.3 7.4016 0.12741 0.81243 0.51174 1.1114 4.3625 1.4531l-0.29844 1.0266c-0.04497 0.12888-0.08608 0.17188-0.64219 0.17188zm79.655-0.8125h0.0422c3.5525 0 6.246-1.5827 7.9578-3.4219 2.9514-3.2077 3.9781-7.0164 3.9781-10.867 0-7.9983-4.704-11.806-9.1094-11.806-2.8674 0-5.5635 1.0685-8.3875 3.9359-2.3518 2.3953-3.7641 5.8594-3.7641 9.8391 0 2.6951 0.64299 6.5887 2.9094 9.1969 2.181 2.3533 4.3199 3.1234 6.3734 3.1234zm4.5719-35.933c-0.76445 0-1.4216-0.22018-1.9672-0.65938-0.54561-0.44068-0.82031-1.0348-0.82031-1.7828 0-0.5606 0.16542-1.0268 0.49219-1.4016 0.32976-0.37324 0.73071-0.65664 1.1969-0.85 0.47067-0.19336 0.93707-0.37608 1.4063-0.54844 0.46916-0.17388 0.8686-0.40284 1.1969-0.69063 0.32976-0.2878 0.49375-0.64825 0.49375-1.0859 0-0.5576-0.19816-0.98428-0.59688-1.2766-0.40021-0.2908-0.8784-0.43751-1.4375-0.43751-0.7 0-1.2892 0.26126-1.7703 0.78438-0.48116 0.52013-0.74389 1.1482-0.78437 1.8797h-0.34532l0.0875-2.4922c0.81392-0.37024 1.6967-0.55312 2.6516-0.55312 0.81541 0 1.531 0.24424 2.1516 0.73438 0.62205 0.48866 0.93125 1.1357 0.93125 1.9406 0 0.51864-0.11772 0.96433-0.35156 1.3391-0.23384 0.37473-0.52248 0.65645-0.86876 0.84531-0.34324 0.18738-0.72372 0.36981-1.1359 0.54218-0.41071 0.17237-0.78813 0.3226-1.1344 0.45-0.34475 0.12891-0.63341 0.31343-0.86875 0.55625-0.23383 0.24283-0.35156 0.535-0.35156 0.88126 0 0.46017 0.16398 0.8153 0.49375 1.0656 0.32827 0.25183 0.72614 0.37656 1.1953 0.37656 1.1422 0 1.8641-0.69486 2.1594-2.0844h0.33281l-0.075 1.9375c-0.76445 0.35226-1.5243 0.52969-2.2812 0.52969zm-103.41-0.14688v-0.30938h1.1344v-6.0203c0-0.46017 0.03599-0.82906 0.11094-1.1094 0.07345-0.2788 0.22366-0.53672 0.45-0.77656 0.22634-0.23832 0.56776-0.41081 1.0234-0.51875 0.45717-0.10637 1.0513-0.16093 1.7828-0.16093 0.7075 0 1.2864 0.058 1.7391 0.17188 0.45118 0.1169 0.78909 0.29972 1.0109 0.55156 0.22334 0.25032 0.37355 0.52196 0.45 0.81875 0.07944 0.29678 0.11875 0.67927 0.11875 1.1484v5.8953h1.0344v0.30938h-2.7375v-0.30938h1.3328v-5.7609c0-0.41972-0.02723-0.75787-0.07969-1.0172-0.05546-0.2593-0.16318-0.50697-0.32656-0.74531-0.16488-0.23834-0.42438-0.41238-0.77812-0.52031-0.35375-0.10488-0.81465-0.15938-1.3812-0.15938-0.49465 0-0.8961 0.0461-1.2094 0.1375-0.31178 0.0899-0.54918 0.24015-0.71406 0.45-0.16488 0.20835-0.27585 0.44575-0.33281 0.71406-0.05696 0.26681-0.0875 0.61499-0.0875 1.0422v5.8594h1.2219v0.30938h-3.7625zm83.464 0v-0.30938h1.1578v-8.2031h-1.1578v-0.30625h3.6734v0.30625h-1.1094v4.1438h0.77656c0.75696 0 1.2587-0.14514 1.5-0.43594 0.24135-0.29378 0.38951-0.85747 0.43751-1.6969 0.0254-0.40323 0.0512-0.70884 0.0797-0.91719 0.0285-0.21136 0.0762-0.42308 0.14376-0.63594 0.0644-0.21585 0.15982-0.36641 0.28124-0.45781 0.12441-0.0884 0.28172-0.16331 0.47656-0.22031 0.19188-0.0584 0.44259-0.0859 0.74688-0.0859h0.89844v0.30625h-0.30781c-0.35224 0-0.58591 0.14501-0.69531 0.43281-0.11092 0.28779-0.18426 0.79321-0.21876 1.5172-0.024 0.49315-0.077 0.88252-0.15937 1.1703-0.0824 0.2893-0.23267 0.5165-0.45 0.68438-0.21735 0.16938-0.46127 0.29066-0.72656 0.36406-0.26831 0.0749-0.65607 0.14144-1.1672 0.19844v0.025c0.67452 0.0809 1.1952 0.26864 1.5609 0.56093 0.36575 0.2923 0.54844 0.77043 0.54844 1.436 0 0.8304-0.22545 1.3921-0.67813 1.6844-0.45268 0.2908-1.1185 0.43907-1.9969 0.43907h-3.6141zm-65.234-0.002v-0.30782h1.1344v-8.2031h-1.1344v-0.30781h2.8609v0.30781h-1.3562v7.9188h0.025l5.8203-8.375 0.23594 0.0641v8.5953h1.1344v0.30782h-2.8375v-0.30782h1.3328v-5.9687h-0.025l-4.3672 6.2766h-2.8234zm18.092 0v-0.30782h1.1609v-8.2031h-1.1609v-0.30781h3.725v0.30781h-1.1578v8.2031h1.1578v0.30782h-3.725zm12.73 0v-0.30938h1.0125l2.8859-8.6578h0.27031l3.0094 8.6578h0.9125v0.30938h-2.6125v-0.30938h1.2672l-2.1812-6.4859h-0.025l-2.0594 6.4859h1.2719v0.30938h-3.7516zm17.095 0v-0.30782h1.1594v-8.2031h-1.1594v-0.30625h7.4125l0.1125 3.0203h-0.33281c-0.1409-0.93684-0.41239-1.6248-0.81563-2.061-0.40171-0.43469-1.0521-0.65312-1.9484-0.65312h-1.8625v3.9969h0.66562c0.24733 0 0.45205-0.0117 0.61094-0.0297 0.16188-0.021 0.29709-0.0671 0.4125-0.1375 0.11542-0.0705 0.20411-0.14248 0.26563-0.22188 0.0615-0.0779 0.11092-0.20413 0.14844-0.375 0.0374-0.17388 0.0602-0.33961 0.0672-0.5 0.009-0.16038 0.0125-0.38908 0.0125-0.68438h0.37032v4.1938h-0.37032c0.009-0.73148-0.0729-1.2264-0.24532-1.4812-0.17236-0.25483-0.59735-0.38125-1.2719-0.38125h-0.66562v3.825h0.59218c0.37775 0 0.69363-0.005 0.94844-0.0141 0.25483-0.008 0.50731-0.0278 0.75313-0.0562 0.24733-0.0285 0.4453-0.0674 0.59218-0.11095 0.1484-0.045 0.29516-0.11172 0.43907-0.20312 0.14389-0.0899 0.25666-0.19064 0.33906-0.30156 0.0809-0.11242 0.16105-0.25264 0.23907-0.425 0.0779-0.17238 0.14268-0.36159 0.19218-0.56094 0.048-0.20236 0.0989-0.44658 0.14687-0.73438h0.32031l-0.0719 2.7125h-7.0562zm49.656 0v-0.30782h1.1594v-8.2031h-1.1594v-0.30781h3.7234v0.30781h-1.1578v8.2031h1.1578v0.30782h-3.7234zm13.197 0v-2.825h0.37032c0.0165 0.4212 0.0814 0.80542 0.19688 1.1547 0.1154 0.35073 0.30993 0.65136 0.58124 0.90468 0.27132 0.25632 0.60616 0.38438 1.0094 0.38438h1.0609v-8.1297h-1.3562v-0.30781h4.1188v0.30781h-1.3563v8.1297h1.0594c0.57709 0 1.0126-0.24078 1.3094-0.72344 0.29528-0.47966 0.45724-1.0533 0.48124-1.7203h0.36876v2.825h-7.8438zm16.663 0v-0.30782h1.0375l2.3063-4.0703v-4.1328h-1.1719v-0.30781h3.7125v0.30781h-1.1344v4.1578l2.0719 4.0453h0.96094v0.30782h-2.6016v-0.30782h1.2578l-1.8375-3.6016-1.9484 3.6016h1.2828v0.30782h-3.9359zm-59.634-0.30782h0.64219c0.59958 0 1.0298-0.15528 1.2891-0.46405 0.25932-0.30728 0.3875-0.76144 0.3875-1.3625 0-1.2336-0.48488-1.8484-1.4547-1.8484h-0.86407v3.675zm-4.4406-16.919c-0.43469 0-0.82379-0.0853-1.1641-0.25469-0.34024-0.17088-0.6117-0.39646-0.81406-0.68126-0.20085-0.28328-0.35126-0.59228-0.45469-0.92656-0.10189-0.33576-0.15312-0.68256-0.15312-1.0453 0-0.36124 0.0512-0.70954 0.15312-1.0453 0.10343-0.33576 0.25384-0.64314 0.45469-0.92344 0.20236-0.2803 0.47382-0.50718 0.81406-0.67656 0.34028-0.16942 0.72938-0.25469 1.1641-0.25469 0.43469 0 0.82076 0.0853 1.1625 0.25469 0.34028 0.16938 0.61164 0.39626 0.81251 0.67656 0.20235 0.2803 0.35581 0.58768 0.45625 0.92344 0.10339 0.33577 0.15312 0.68407 0.15312 1.0453 0 0.36275-0.0497 0.70955-0.15312 1.0453-0.10044 0.33428-0.2539 0.64328-0.45625 0.92656-0.20087 0.2848-0.47223 0.51038-0.81251 0.68126-0.34173 0.16942-0.7278 0.25469-1.1625 0.25469zm-20.561-0.003c-0.48566 0-0.90537-0.13845-1.2531-0.41875-0.34775-0.2803-0.52187-0.65922-0.52187-1.1344 0-0.35673 0.10571-0.65541 0.31406-0.89374 0.20985-0.23835 0.46422-0.41928 0.7625-0.54219 0.29679-0.12292 0.59852-0.23908 0.89531-0.35 0.2998-0.10942 0.55264-0.25626 0.76251-0.44063 0.20985-0.18137 0.31562-0.41182 0.31562-0.69062 0-0.35675-0.12799-0.62663-0.38281-0.81251-0.25332-0.18588-0.55888-0.27968-0.91563-0.27968-0.44518 0-0.81928 0.16718-1.1266 0.49844-0.30579 0.33427-0.473 0.73227-0.5 1.1984h-0.22031l0.0562-1.5859c0.52013-0.23534 1.0835-0.35469 1.6891-0.35469 0.51863 0 0.97609 0.15541 1.3703 0.46719 0.39722 0.31178 0.59376 0.72486 0.59376 1.2375 0 0.33126-0.0736 0.61479-0.22344 0.85312-0.14992 0.23834-0.33285 0.41766-0.55469 0.53906-0.22035 0.11992-0.45958 0.23596-0.72187 0.34688-0.26232 0.11092-0.50304 0.20354-0.72188 0.28594-0.22034 0.0809-0.4063 0.19723-0.55469 0.35312-0.14994 0.1529-0.225 0.3406-0.225 0.56094 0 0.29529 0.10421 0.52086 0.31406 0.68125 0.20985 0.15883 0.46578 0.23907 0.76407 0.23907 0.72696 0 1.1846-0.44226 1.3734-1.3281h0.21405l-0.0469 1.2344c-0.48865 0.22484-0.9736 0.33594-1.4562 0.33594zm9.8703 0c-0.48566 0-0.90537-0.13845-1.2531-0.41875-0.34776-0.2803-0.52032-0.65922-0.52032-1.1344 0-0.35673 0.10416-0.65541 0.31251-0.89374 0.20985-0.23835 0.46421-0.41928 0.76249-0.54219 0.2968-0.12292 0.59852-0.23908 0.89532-0.35 0.29978-0.10942 0.55264-0.25626 0.7625-0.44063 0.20834-0.18137 0.31562-0.41182 0.31562-0.69062 0-0.35675-0.12799-0.62663-0.38281-0.81251-0.25332-0.18588-0.55887-0.27968-0.91563-0.27968-0.44516 0-0.81928 0.16718-1.1266 0.49844-0.30579 0.33427-0.473 0.73227-0.5 1.1984h-0.22031l0.0563-1.5859c0.52013-0.23534 1.082-0.35469 1.6891-0.35469 0.51863 0 0.97766 0.15541 1.3719 0.46719 0.39722 0.31178 0.59531 0.72486 0.59531 1.2375 0 0.33126-0.0751 0.61479-0.225 0.85312-0.1499 0.23834-0.33435 0.41766-0.55469 0.53906-0.22034 0.11992-0.46114 0.23596-0.72343 0.34688-0.26232 0.11092-0.50304 0.20354-0.72188 0.28594-0.22034 0.0809-0.4063 0.19723-0.55469 0.35312-0.14985 0.1529-0.22343 0.3406-0.22343 0.56094 0 0.29529 0.10421 0.52086 0.31405 0.68125 0.20987 0.15883 0.46422 0.23907 0.76251 0.23907 0.72697 0 1.1846-0.44226 1.3734-1.3281h0.21405l-0.0469 1.2344c-0.48865 0.22484-0.97509 0.33594-1.4562 0.33594zm-33.233-0.0922v-0.19688h0.76094v-5.2266h-0.76094v-0.19688h1.8453v0.19688h-0.84844v5.0938h0.01563l2.0984-5.3844h0.11719l2.1547 5.3844h0.01406v-5.0938h-0.87969v-0.19688h2.4922v0.19688h-0.76406v5.2266h0.76406v0.19688h-1.7313l-1.7594-4.3703-1.7125 4.3703h-1.8062zm12.981 0v-0.19688h0.73906v-5.2266h-0.73906v-0.19688h2.3734v0.19688h-0.73906v5.2266h0.73906v0.19688h-2.3734zm51.383 0v-0.19688h0.73907v-5.2266h-0.73907v-0.19688h2.3422v0.19688h-0.70781v2.6422h0.49375c0.48265 0 0.80342-0.0938 0.95781-0.27969 0.15439-0.18737 0.24661-0.54761 0.27813-1.0812 0.015-0.25632 0.0336-0.45097 0.0516-0.58437 0.0195-0.13491 0.0486-0.26829 0.0891-0.40469 0.0435-0.1379 0.10175-0.2337 0.18125-0.29218 0.0794-0.0569 0.17872-0.10463 0.30313-0.14063 0.12291-0.0375 0.28012-0.0562 0.475-0.0562h0.57344v0.19688h-0.19532c-0.22633 0-0.37332 0.0906-0.44532 0.275-0.0705 0.18287-0.11636 0.50552-0.13437 0.96718-0.018 0.31328-0.0522 0.5625-0.10468 0.74688-0.054 0.18286-0.14811 0.3295-0.28751 0.43594-0.1394 0.1064-0.29164 0.18324-0.46249 0.23124-0.17088 0.048-0.41851 0.089-0.74375 0.125v0.0172c0.43019 0.0524 0.76147 0.17037 0.99531 0.35624 0.23383 0.18586 0.34844 0.49144 0.34844 0.91563 0 0.53063-0.14347 0.88605-0.43126 1.0734-0.28929 0.18589-0.71133 0.27969-1.2734 0.27969h-2.3031zm10.594 0v-0.19688h0.73907v-5.2266h-0.73907v-0.19688h2.3734v0.19688h-0.73906v5.2266h0.73906v0.19688h-2.3734zm-22.272-0.002v-0.19531h0.72344v-3.8359c0-0.29379 0.0238-0.52787 0.0703-0.70625 0.0465-0.17837 0.1436-0.34393 0.2875-0.49531 0.1439-0.1529 0.35927-0.26234 0.65156-0.33126 0.28929-0.0674 0.66983-0.10156 1.1375-0.10156 0.45118 0 0.81846 0.0375 1.1062 0.11094 0.2878 0.0719 0.50291 0.18955 0.64531 0.34844 0.1409 0.16038 0.23644 0.33308 0.28594 0.52344 0.0494 0.18737 0.075 0.43141 0.075 0.72969v3.7578h0.66094v0.19531h-1.7453v-0.19531h0.84844v-3.6703c0-0.26831-0.017-0.48204-0.05-0.64844-0.0345-0.16336-0.10296-0.3236-0.20937-0.475-0.10343-0.15137-0.26891-0.26234-0.49375-0.33124-0.22784-0.0674-0.52001-0.10156-0.88125-0.10156-0.31328 0-0.57091 0.029-0.76875 0.0875-0.20236 0.057-0.35282 0.15252-0.45625 0.28595-0.10643 0.1334-0.17651 0.28686-0.21251 0.45624-0.0375 0.16938-0.0562 0.39124-0.0562 0.66407v3.7328h0.77812v0.19531h-2.3969zm-8.7625-0.14843c0.26081 0 0.4895-0.0513 0.68437-0.15469 0.19186-0.10043 0.34216-0.22843 0.45156-0.38282 0.10644-0.15439 0.19332-0.35729 0.25782-0.60313 0.0674-0.2458 0.107-0.48316 0.125-0.71249 0.018-0.23233 0.0297-0.50066 0.0297-0.81094 0-0.39272-0.0203-0.72739-0.0563-1.0047-0.036-0.2788-0.10577-0.55205-0.20469-0.82188-0.0989-0.27129-0.25764-0.47628-0.475-0.61718-0.21584-0.14085-0.48722-0.21094-0.81249-0.21094s-0.59671 0.07-0.81407 0.21094c-0.21732 0.1409-0.37612 0.34589-0.47656 0.61718-0.0974 0.26983-0.1672 0.54308-0.20468 0.82188-0.0375 0.2773-0.0531 0.61197-0.0531 1.0047 0 0.31028 0.009 0.57861 0.0266 0.81094 0.018 0.22933 0.0605 0.46669 0.12499 0.71249 0.066 0.24584 0.15152 0.44874 0.26094 0.60313 0.10643 0.15439 0.2567 0.28239 0.45156 0.38282 0.19336 0.10337 0.42207 0.15469 0.68438 0.15469zm22.075-0.0469h0.40937c0.38224 0 0.657-0.0974 0.82188-0.29532 0.16483-0.19484 0.24688-0.48652 0.24687-0.86875 0-0.78544-0.31056-1.1781-0.92812-1.1781h-0.55v2.3422z" fill="#101b3b"/><path d="m-51.146 629.66v-1.7391h0.73906v1.7391h-0.73906zm1.4266-1.7391v-11.652h0.73906v11.652h-0.73906zm1.85-11.623v-0.70313h60.506v0.70313h-60.506zm-1.85-0.72344v-0.69531h0.73906v0.69531h-0.73906zm0-1.3891v-29.762h0.73906v29.762h-0.73906zm31.066-9.7984c-0.12441 0-0.24582-0.005-0.36874-0.006 11.717-0.18287 21.204-8.9766 21.637-19.958h0.73906c-0.44004 11.094-10.12 19.964-22.008 19.964zm22.942-20.294v-1.6281c0-1.3086 0.64565-2.474 1.6484-3.225h5.3203c0.99978 0.75096 1.6469 1.9164 1.6469 3.225v1.6281h-0.16719-8.25-0.19843zm-52.328-0.002v-1.6281c0-1.3086 0.64721-2.471 1.65-3.2234h5.3172c1.0028 0.75246 1.6484 1.9149 1.6484 3.2234v1.6281h-0.14688-8.2984-0.17031zm-1.8484-0.36562v-1.6094c0-1.2951 0.64565-2.4456 1.6484-3.1891h0.73906c-1.0028 0.74348-1.6484 1.894-1.6484 3.1891v1.6094h-0.57031-0.16875zm52.328 0v-1.6094c0-1.2951 0.64565-2.4471 1.6484-3.1891h0.73906c-1.0028 0.74198-1.6484 1.894-1.6484 3.1891v1.6094h-0.54219-0.19687zm-50.68-5.4938v-17.028h0.73906v17.028h-0.73906zm52.33 0v-17.028h0.73906v17.028h-0.73906zm-50.48-17.63c-1.0028-0.75097-1.65-1.9149-1.65-3.2234v-6.4766h0.17031 8.2484 0.19844v6.4766c0 1.3086-0.64721 2.471-1.65 3.2234h-5.3172zm52.327 0c-1.0035-0.75-1.6491-1.91-1.6491-3.22v-6.4766h0.14843 8.2984 0.16875v6.4766c0 1.3086-0.64558 2.471-1.6469 3.2234h-5.3203zm-54.177-0.10781c-1.0013-0.74348-1.6484-1.8924-1.6484-3.1875v-6.4047h0.16875 0.56875v6.4047c0 1.2951 0.64722 2.444 1.65 3.1875h-0.73906zm52.328 0c-1.0013-0.74348-1.65-1.8924-1.65-3.1875v-6.4047h0.15 0.58906v6.4047c0 1.2951 0.64721 2.444 1.65 3.1875h-0.73906z" fill="#7f8183"/></g></g></svg>
