<?xml version="1.0" encoding="UTF-8" standalone="no"?>
<!-- Created with Inkscape (http://www.inkscape.org/) -->

<svg
   xmlns:dc="http://purl.org/dc/elements/1.1/"
   xmlns:cc="http://creativecommons.org/ns#"
   xmlns:rdf="http://www.w3.org/1999/02/22-rdf-syntax-ns#"
   xmlns:svg="http://www.w3.org/2000/svg"
   xmlns="http://www.w3.org/2000/svg"
   xmlns:sodipodi="http://sodipodi.sourceforge.net/DTD/sodipodi-0.dtd"
   xmlns:inkscape="http://www.inkscape.org/namespaces/inkscape"
   width="135.46667mm"
   height="37.253246mm"
   viewBox="0 0 135.46667 37.253246"
   version="1.1"
   id="svg448"
   inkscape:version="0.92.1 r15371"
   sodipodi:docname="foothill logo.svg">
  <defs
     id="defs442">
    <clipPath
       clipPathUnits="userSpaceOnUse"
       id="clipPath226">
      <path
         d="m 97.2,247.415 h 114.297 v 31.432 H 97.2 Z"
         id="path224"
         inkscape:connector-curvature="0" />
    </clipPath>
    <clipPath
       clipPathUnits="userSpaceOnUse"
       id="clipPath190">
      <path
         d="m 97.2,243.706 h 117.204 v 35.14 H 97.2 Z"
         id="path188"
         inkscape:connector-curvature="0" />
    </clipPath>
  </defs>
  <sodipodi:namedview
     id="base"
     pagecolor="#ffffff"
     bordercolor="#666666"
     borderopacity="1.0"
     inkscape:pageopacity="0.0"
     inkscape:pageshadow="2"
     inkscape:zoom="0.49497475"
     inkscape:cx="-578.99136"
     inkscape:cy="-250.30907"
     inkscape:document-units="mm"
     inkscape:current-layer="layer1"
     showgrid="false"
     fit-margin-top="0"
     fit-margin-left="0"
     fit-margin-right="0"
     fit-margin-bottom="0"
     inkscape:window-width="1600"
     inkscape:window-height="838"
     inkscape:window-x="-8"
     inkscape:window-y="-8"
     inkscape:window-maximized="1" />
  <metadata
     id="metadata445">
    <rdf:RDF>
      <cc:Work
         rdf:about="">
        <dc:format>image/svg+xml</dc:format>
        <dc:type
           rdf:resource="http://purl.org/dc/dcmitype/StillImage" />
        <dc:title></dc:title>
      </cc:Work>
    </rdf:RDF>
  </metadata>
  <g
     inkscape:label="Layer 1"
     inkscape:groupmode="layer"
     id="layer1"
     transform="translate(-2.5702344,-112.06385)">
    <g
       transform="matrix(1.1852163,0,0,-1.1852163,-112.63279,442.55786)"
       id="g184">
      <g
         id="g186"
         clip-path="url(#clipPath190)">
        <g
           id="g192"
           transform="translate(129.1223,256.9101)">
          <path
             d="m 0,0 c 0.937,0 1.614,-0.295 2.244,-0.857 0.084,-0.074 0.084,-0.185 0.01,-0.259 l -0.566,-0.58 c -0.065,-0.074 -0.158,-0.074 -0.232,0 -0.39,0.341 -0.909,0.544 -1.428,0.544 -1.187,0 -2.068,-0.987 -2.068,-2.148 0,-1.152 0.89,-2.129 2.077,-2.129 0.557,0 1.029,0.211 1.419,0.525 0.074,0.064 0.176,0.055 0.232,0 l 0.575,-0.59 C 2.337,-5.559 2.319,-5.679 2.254,-5.743 1.623,-6.351 0.825,-6.637 0,-6.637 c -1.855,0 -3.348,1.466 -3.348,3.309 C -3.348,-1.484 -1.855,0 0,0"
             style="fill:#100f0d;fill-opacity:1;fill-rule:nonzero;stroke:none"
             id="path194"
             inkscape:connector-curvature="0" />
        </g>
        <g
           id="g196"
           transform="translate(135.4579,251.4713)">
          <path
             d="M 0,0 C 1.169,0 2.133,0.95 2.133,2.111 2.133,3.272 1.169,4.24 0,4.24 -1.168,4.24 -2.124,3.272 -2.124,2.111 -2.124,0.95 -1.168,0 0,0 m 0,5.439 c 1.855,0 3.339,-1.484 3.339,-3.328 0,-1.844 -1.484,-3.309 -3.339,-3.309 -1.855,0 -3.33,1.465 -3.33,3.309 0,1.844 1.475,3.328 3.33,3.328"
             style="fill:#100f0d;fill-opacity:1;fill-rule:nonzero;stroke:none"
             id="path198"
             inkscape:connector-curvature="0" />
        </g>
        <g
           id="g200"
           transform="translate(140.0054,256.6427)">
          <path
             d="M 0,0 C 0,0.092 0.074,0.175 0.176,0.175 H 1.029 C 1.122,0.175 1.206,0.092 1.206,0 v -5.171 h 2.365 c 0.101,0 0.176,-0.083 0.176,-0.175 v -0.756 c 0,-0.093 -0.075,-0.176 -0.176,-0.176 H 0.176 C 0.074,-6.278 0,-6.195 0,-6.102 Z"
             style="fill:#100f0d;fill-opacity:1;fill-rule:nonzero;stroke:none"
             id="path202"
             inkscape:connector-curvature="0" />
        </g>
        <g
           id="g204"
           transform="translate(145.0522,256.6427)">
          <path
             d="M 0,0 C 0,0.092 0.074,0.175 0.176,0.175 H 1.029 C 1.122,0.175 1.206,0.092 1.206,0 v -5.171 h 2.365 c 0.102,0 0.176,-0.083 0.176,-0.175 v -0.756 c 0,-0.093 -0.074,-0.176 -0.176,-0.176 H 0.176 C 0.074,-6.278 0,-6.195 0,-6.102 Z"
             style="fill:#100f0d;fill-opacity:1;fill-rule:nonzero;stroke:none"
             id="path206"
             inkscape:connector-curvature="0" />
        </g>
        <g
           id="g208"
           transform="translate(150.122,256.6427)">
          <path
             d="M 0,0 C 0,0.092 0.074,0.175 0.176,0.175 H 3.951 C 4.052,0.175 4.127,0.092 4.127,0 v -0.756 c 0,-0.092 -0.075,-0.175 -0.176,-0.175 H 1.205 v -1.512 h 2.291 c 0.093,0 0.176,-0.083 0.176,-0.175 v -0.765 c 0,-0.101 -0.083,-0.175 -0.176,-0.175 H 1.205 v -1.613 h 2.746 c 0.101,0 0.176,-0.083 0.176,-0.175 v -0.756 c 0,-0.093 -0.075,-0.176 -0.176,-0.176 H 0.176 C 0.074,-6.278 0,-6.195 0,-6.102 Z"
             style="fill:#100f0d;fill-opacity:1;fill-rule:nonzero;stroke:none"
             id="path210"
             inkscape:connector-curvature="0" />
        </g>
        <g
           id="g212"
           transform="translate(158.5759,256.9101)">
          <path
             d="M 0,0 C 0.834,0 1.632,-0.323 2.263,-0.857 2.337,-0.931 2.346,-1.042 2.272,-1.116 L 1.697,-1.715 c -0.074,-0.074 -0.157,-0.074 -0.241,0 -0.399,0.35 -0.89,0.535 -1.4,0.535 -1.16,0 -2.078,-0.986 -2.078,-2.139 0,-1.143 0.918,-2.11 2.087,-2.11 0.519,0 0.918,0.156 1.103,0.23 v 1.42 H 0.427 c -0.103,0 -0.176,0.074 -0.176,0.166 v 0.728 c 0,0.101 0.073,0.175 0.176,0.175 h 1.78 c 0.093,0 0.167,-0.083 0.167,-0.175 v -2.996 c 0,-0.074 -0.037,-0.12 -0.074,-0.148 0,0 -0.955,-0.599 -2.3,-0.599 -1.846,0 -3.33,1.457 -3.33,3.3 C -3.33,-1.484 -1.846,0 0,0"
             style="fill:#100f0d;fill-opacity:1;fill-rule:nonzero;stroke:none"
             id="path214"
             inkscape:connector-curvature="0" />
        </g>
        <g
           id="g216"
           transform="translate(162.4836,256.6427)">
          <path
             d="M 0,0 C 0,0.092 0.074,0.175 0.176,0.175 H 3.951 C 4.053,0.175 4.127,0.092 4.127,0 v -0.756 c 0,-0.092 -0.074,-0.175 -0.176,-0.175 H 1.206 v -1.512 h 2.291 c 0.092,0 0.176,-0.083 0.176,-0.175 v -0.765 c 0,-0.101 -0.084,-0.175 -0.176,-0.175 H 1.206 v -1.613 h 2.745 c 0.102,0 0.176,-0.083 0.176,-0.175 v -0.756 c 0,-0.093 -0.074,-0.176 -0.176,-0.176 H 0.176 C 0.074,-6.278 0,-6.195 0,-6.102 Z"
             style="fill:#100f0d;fill-opacity:1;fill-rule:nonzero;stroke:none"
             id="path218"
             inkscape:connector-curvature="0" />
        </g>
      </g>
    </g>
    <g
       transform="matrix(1.1852163,0,0,-1.1852163,-112.63279,442.55786)"
       id="g220">
      <g
         id="g222"
         clip-path="url(#clipPath226)">
        <g
           id="g228"
           transform="translate(159.8747,266.4957)">
          <path
             d="m 0,0 c 0,-2.929 -1.865,-4.852 -4.398,-4.852 -2.533,0 -4.398,1.923 -4.398,4.852 0,2.929 1.865,4.852 4.398,4.852 C -1.865,4.852 0,2.929 0,0 m -10.891,0 c 0,-4.005 2.901,-6.637 6.493,-6.637 3.592,0 6.493,2.632 6.493,6.637 0,4.005 -2.901,6.637 -6.493,6.637 -3.592,0 -6.493,-2.632 -6.493,-6.637 m 57.195,4.898 c 0,0.183 0.023,0.228 0.184,0.297 l 0.392,0.137 c 0.184,0.069 0.207,0.115 0.207,0.298 v 0.595 c 0,0.183 -0.046,0.229 -0.23,0.229 h -3.132 c -0.184,0 -0.23,-0.046 -0.23,-0.229 V 5.63 c 0,-0.183 0.023,-0.229 0.207,-0.298 l 0.391,-0.137 c 0.162,-0.069 0.185,-0.114 0.185,-0.297 v -9.773 c 0,-0.183 -0.023,-0.228 -0.185,-0.297 L 43.702,-5.31 c -0.184,-0.068 -0.207,-0.114 -0.207,-0.297 v -0.595 c 0,-0.183 0.046,-0.229 0.23,-0.229 h 7.668 c 0.184,0 0.23,0.046 0.23,0.229 v 2.197 c 0,0.183 -0.046,0.229 -0.23,0.229 h -0.53 c -0.184,0 -0.23,-0.023 -0.299,-0.206 l -0.231,-0.526 c -0.069,-0.161 -0.115,-0.184 -0.299,-0.184 h -3.73 z m -17.66,-9.773 c 0,-0.183 -0.024,-0.228 -0.185,-0.297 L 28.068,-5.31 c -0.184,-0.068 -0.207,-0.114 -0.207,-0.297 v -0.595 c 0,-0.183 0.046,-0.229 0.23,-0.229 h 3.132 c 0.184,0 0.23,0.046 0.23,0.229 v 0.595 c 0,0.183 -0.023,0.229 -0.208,0.297 l -0.391,0.138 c -0.161,0.069 -0.184,0.114 -0.184,0.297 v 9.773 c 0,0.183 0.023,0.228 0.184,0.297 l 0.391,0.137 c 0.185,0.069 0.208,0.115 0.208,0.298 v 0.595 c 0,0.183 -0.046,0.229 -0.23,0.229 h -3.132 c -0.184,0 -0.23,-0.046 -0.23,-0.229 V 5.63 c 0,-0.183 0.023,-0.229 0.207,-0.298 L 28.459,5.195 C 28.62,5.126 28.644,5.081 28.644,4.898 Z m 7.805,9.773 c 0,0.183 0.023,0.228 0.184,0.297 l 0.392,0.137 c 0.184,0.069 0.207,0.115 0.207,0.298 v 0.595 c 0,0.183 -0.046,0.229 -0.23,0.229 H 33.87 c -0.184,0 -0.23,-0.046 -0.23,-0.229 V 5.63 c 0,-0.183 0.023,-0.229 0.207,-0.298 L 34.239,5.195 C 34.4,5.126 34.423,5.081 34.423,4.898 v -9.773 c 0,-0.183 -0.023,-0.228 -0.184,-0.297 L 33.847,-5.31 C 33.663,-5.378 33.64,-5.424 33.64,-5.607 v -0.595 c 0,-0.183 0.046,-0.229 0.23,-0.229 h 7.668 c 0.184,0 0.23,0.046 0.23,0.229 v 2.197 c 0,0.183 -0.046,0.229 -0.23,0.229 h -0.53 c -0.184,0 -0.23,-0.023 -0.299,-0.206 L 40.478,-4.508 C 40.41,-4.669 40.364,-4.692 40.179,-4.692 h -3.73 z m -18.881,-11.1 v 0.595 c 0,0.183 -0.023,0.229 -0.207,0.297 l -0.391,0.138 c -0.161,0.069 -0.184,0.114 -0.184,0.297 v 4.188 h 6.078 v -4.188 c 0,-0.183 -0.023,-0.228 -0.184,-0.297 L 22.289,-5.31 c -0.185,-0.068 -0.208,-0.114 -0.208,-0.297 v -0.595 c 0,-0.183 0.046,-0.229 0.231,-0.229 h 3.131 c 0.184,0 0.23,0.046 0.23,0.229 v 0.595 c 0,0.183 -0.023,0.229 -0.207,0.297 l -0.391,0.138 c -0.161,0.069 -0.184,0.114 -0.184,0.297 v 9.773 c 0,0.183 0.023,0.228 0.184,0.297 l 0.391,0.137 c 0.184,0.069 0.207,0.115 0.207,0.298 v 0.595 c 0,0.183 -0.046,0.229 -0.23,0.229 h -3.131 c -0.185,0 -0.231,-0.046 -0.231,-0.229 V 5.63 c 0,-0.183 0.023,-0.229 0.208,-0.298 L 22.68,5.195 C 22.841,5.126 22.864,5.081 22.864,4.898 V 1.053 h -6.078 v 3.845 c 0,0.183 0.023,0.228 0.184,0.297 l 0.391,0.137 c 0.184,0.069 0.207,0.115 0.207,0.298 v 0.595 c 0,0.183 -0.046,0.229 -0.23,0.229 h -3.131 c -0.185,0 -0.231,-0.046 -0.231,-0.229 V 5.63 c 0,-0.183 0.024,-0.229 0.208,-0.298 l 0.391,-0.137 c 0.161,-0.069 0.184,-0.114 0.184,-0.297 v -9.773 c 0,-0.183 -0.023,-0.228 -0.184,-0.297 L 14.184,-5.31 C 14,-5.378 13.976,-5.424 13.976,-5.607 v -0.595 c 0,-0.183 0.046,-0.229 0.231,-0.229 h 3.131 c 0.184,0 0.23,0.046 0.23,0.229 m -48.859,6.98 v 3.936 h 4.421 c 0.184,0 0.23,-0.022 0.299,-0.183 l 0.23,-0.572 c 0.069,-0.183 0.115,-0.206 0.3,-0.206 h 0.529 c 0.184,0 0.23,0.046 0.23,0.229 v 2.243 c 0,0.183 -0.046,0.229 -0.23,0.229 h -8.358 c -0.184,0 -0.23,-0.046 -0.23,-0.229 V 5.63 c 0,-0.183 0.023,-0.229 0.207,-0.298 l 0.391,-0.137 c 0.161,-0.069 0.185,-0.114 0.185,-0.297 v -9.773 c 0,-0.183 -0.024,-0.228 -0.185,-0.297 L -33.893,-5.31 C -34.077,-5.378 -34.1,-5.424 -34.1,-5.607 v -0.595 c 0,-0.183 0.046,-0.229 0.23,-0.229 h 3.315 c 0.185,0 0.231,0.046 0.231,0.229 v 0.595 c 0,0.183 -0.023,0.252 -0.207,0.297 l -0.576,0.138 c -0.161,0.046 -0.184,0.114 -0.184,0.297 v 3.914 h 2.532 c 0.185,0 0.254,-0.023 0.3,-0.183 l 0.138,-0.412 c 0.069,-0.183 0.115,-0.206 0.299,-0.206 h 0.53 c 0.184,0 0.23,0.046 0.23,0.229 V 1.35 c 0,0.183 -0.046,0.229 -0.23,0.229 h -0.53 c -0.184,0 -0.23,-0.023 -0.299,-0.206 l -0.138,-0.412 c -0.046,-0.16 -0.115,-0.183 -0.3,-0.183 z m 40.87,-6.98 v 0.595 c 0,0.183 -0.023,0.252 -0.208,0.297 l -0.575,0.138 c -0.161,0.046 -0.184,0.114 -0.184,0.297 v 9.589 h 2.832 c 0.184,0 0.23,-0.022 0.299,-0.183 l 0.23,-0.595 c 0.069,-0.183 0.115,-0.206 0.3,-0.206 h 0.529 c 0.184,0 0.23,0.046 0.23,0.229 v 2.266 c 0,0.183 -0.046,0.229 -0.23,0.229 H 2.349 C 2.164,6.454 2.118,6.408 2.118,6.225 V 3.959 C 2.118,3.776 2.164,3.73 2.349,3.73 h 0.529 c 0.185,0 0.231,0.023 0.3,0.206 l 0.23,0.595 c 0.069,0.161 0.115,0.183 0.299,0.183 h 2.878 v -9.589 c 0,-0.183 -0.023,-0.251 -0.184,-0.297 L 5.825,-5.31 C 5.641,-5.355 5.618,-5.424 5.618,-5.607 v -0.595 c 0,-0.183 0.046,-0.229 0.231,-0.229 h 3.499 c 0.185,0 0.231,0.046 0.231,0.229 M -14.161,0 c 0,-2.929 -1.864,-4.852 -4.397,-4.852 -2.533,0 -4.398,1.923 -4.398,4.852 0,2.929 1.865,4.852 4.398,4.852 2.533,0 4.397,-1.923 4.397,-4.852 m -10.89,0 c 0,-4.005 2.901,-6.637 6.493,-6.637 3.592,0 6.493,2.632 6.493,6.637 0,4.005 -2.901,6.637 -6.493,6.637 -3.592,0 -6.493,-2.632 -6.493,-6.637"
             style="fill:#100f0d;fill-opacity:1;fill-rule:nonzero;stroke:none"
             id="path230"
             inkscape:connector-curvature="0" />
        </g>
        <g
           id="g232"
           transform="translate(118.7714,266.5424)">
          <path
             d="m 0,0 h -20.164 c -0.105,0 -0.189,-0.087 -0.189,-0.193 l 0.003,-0.402 c 0.013,-2.249 0.034,-2.958 0.276,-5.175 0.234,-2.131 0.685,-5.828 1.126,-7.92 l 0.04,-0.188 c 0.012,-0.057 0.049,-0.105 0.1,-0.131 l 6.306,-3.21 2.303,-1.866 c 0.069,-0.056 0.167,-0.056 0.236,0 l 2.303,1.866 6.359,3.209 c 0.052,0.026 0.089,0.075 0.101,0.133 l 0.039,0.189 c 0.418,2.024 0.743,4.075 0.964,6.099 0.42,3.829 0.384,6.195 0.385,6.996 l 0.001,0.4 C 0.189,-0.086 0.105,0 0,0"
             style="fill:#9b1627;fill-opacity:1;fill-rule:nonzero;stroke:none"
             id="path234"
             inkscape:connector-curvature="0" />
        </g>
        <g
           id="g236"
           transform="translate(119.912,271.3325)">
          <path
             d="m 0,0 -6.547,1.502 -0.176,0.919 c -0.017,0.09 -0.095,0.156 -0.186,0.156 h -8.747 c -0.091,0 -0.168,-0.066 -0.186,-0.156 L -16.017,1.502 -22.565,0 c -0.086,-0.02 -0.147,-0.098 -0.147,-0.188 v -0.818 c 0,-0.124 0.112,-0.215 0.23,-0.188 l 0.93,0.213 v -2.567 c 0,-0.106 0.085,-0.192 0.189,-0.192 h 20.161 c 0.104,0 0.189,0.086 0.189,0.192 v 2.567 l 0.93,-0.213 c 0.118,-0.027 0.23,0.064 0.23,0.188 v 0.818 C 0.147,-0.098 0.086,-0.02 0,0"
             style="fill:#9b1627;fill-opacity:1;fill-rule:nonzero;stroke:none"
             id="path238"
             inkscape:connector-curvature="0" />
        </g>
        <g
           id="g240"
           transform="translate(108.6297,278.6341)">
          <path
             d="m 0,0 -0.833,-3.689 h 1.777 l 0.698,3.586 C 1.675,0.064 1.547,0.218 1.38,0.213 H 0.249 C 0.127,0.21 0.024,0.122 0,0"
             style="fill:#9b1627;fill-opacity:1;fill-rule:nonzero;stroke:none"
             id="path242"
             inkscape:connector-curvature="0" />
        </g>
      </g>
    </g>
  </g>
</svg>
