<?xml version="1.0" encoding="UTF-8" standalone="no"?>
<!-- Created with Inkscape (http://www.inkscape.org/) -->

<svg
   xmlns:dc="http://purl.org/dc/elements/1.1/"
   xmlns:cc="http://creativecommons.org/ns#"
   xmlns:rdf="http://www.w3.org/1999/02/22-rdf-syntax-ns#"
   xmlns:svg="http://www.w3.org/2000/svg"
   xmlns="http://www.w3.org/2000/svg"
   xmlns:sodipodi="http://sodipodi.sourceforge.net/DTD/sodipodi-0.dtd"
   xmlns:inkscape="http://www.inkscape.org/namespaces/inkscape"
   width="1647.5275"
   height="282.1597"
   id="svg3182"
   version="1.1"
   inkscape:version="0.48.2 r9819"
   sodipodi:docname="New document 3">
  <defs
     id="defs3184" />
  <sodipodi:namedview
     id="base"
     pagecolor="#ffffff"
     bordercolor="#666666"
     borderopacity="1.0"
     inkscape:pageopacity="0.0"
     inkscape:pageshadow="2"
     inkscape:zoom="0.42697009"
     inkscape:cx="788.39025"
     inkscape:cy="83.17116"
     inkscape:document-units="px"
     inkscape:current-layer="layer1"
     showgrid="false"
     fit-margin-top="0"
     fit-margin-left="0"
     fit-margin-right="0"
     fit-margin-bottom="0"
     inkscape:window-width="1280"
     inkscape:window-height="753"
     inkscape:window-x="-4"
     inkscape:window-y="-4"
     inkscape:window-maximized="1" />
  <metadata
     id="metadata3187">
    <rdf:RDF>
      <cc:Work
         rdf:about="">
        <dc:format>image/svg+xml</dc:format>
        <dc:type
           rdf:resource="http://purl.org/dc/dcmitype/StillImage" />
        <dc:title></dc:title>
      </cc:Work>
    </rdf:RDF>
  </metadata>
  <g
     inkscape:label="Layer 1"
     inkscape:groupmode="layer"
     id="layer1"
     transform="translate(515.1135,-118.9195)">
    <path
       id="path3123-1-5"
       style="fill:#c39008;fill-opacity:1"
       d="m 692.05718,336.9246 c 5.6666,0 11.3333,0 17,0 0,-50.6666 0,-101.33331 0,-152.00001 -5.6667,0 -11.3334,0 -17,0 0,-22 0,-44 0,-66 37.3333,0 74.6666,0 112,0 0,22 0,44 0,66 -5.6667,0 -11.3334,0 -17,0 0,50.6667 0,101.33341 0,152.00001 16.3333,0 32.6666,0 49,0 0,-5.6666 0,-11.3333 0,-17 21.6666,0 43.3333,0 65,0 0,27 0,54 0,81 -69.6667,0 -139.3334,0 -209,0 0,-21.3333 0,-42.6666 0,-64 z m 232.348,0.1263 c 5.3334,0 10.6667,0 16,0 0,-20.5027 0,-41.0055 0,-61.50821 -30.1694,-30.1639 -60.3387,-60.3279 -90.5081,-90.4918 -8.8306,0 -17.6613,0 -26.4919,0 0,-22 0,-44 0,-66 45,0 90,0 135,0 0.092,22.1667 0.1837,44.3333 0.2756,66.5 7.2525,6.9771 14.5049,13.9543 21.7574,20.9314 6.989,-6.9652 13.978,-13.9304 20.96702,-20.8957 0,-22.1786 0,-44.3571 0,-66.5357 43.6668,0 87.3335,0 131.0001,0 0,22 0,44 0,66 -7.8361,0 -15.6722,0 -23.5083,0 -29.8306,29.8361 -59.6611,59.6721 -89.4918,89.5082 0,20.83061 0,41.66121 0,62.49181 5.6667,0 11.3334,0 17,0 0,21.3333 0,42.6667 0,64 -37.33332,0 -74.66662,0 -112.00002,0 0,-21.3333 0,-42.6667 0,-64 z m -451.25411,19.409 c 0,-64 0,-127.99991 0,-191.99991 15.1719,-15.1613 30.3439,-30.3225 45.5159,-45.4837 41.3335,0 82.6669,0 124.00041,0 15.1612,15.172 30.3224,30.344 45.4837,45.516 0,64.0002 0,128.00041 0,192.00061 -14.8389,14.8277 -29.6776,29.6555 -44.5164,44.4833 -42.00011,0 -84.00021,0 -126.00031,0 -14.8278,-14.8388 -29.6556,-29.6775 -44.4833,-44.5163 z m 136,-28.9085 c 0,-44.6665 0,-89.33291 0,-133.99941 -2.8056,-2.8585 -5.611,-5.7171 -8.4165,-8.5757 -13.3359,0 -26.6719,0 -40.0079,0 -2.8585,2.8055 -5.7171,5.6109 -8.5757,8.4164 0,44.6716 0,89.34321 0,134.01481 3.1416,3.1896 6.2832,6.3791 9.4249,9.5687 12.6688,0 25.3376,0 38.0065,0 3.1895,-3.1416 6.3791,-6.2832 9.5687,-9.4248 z m -360.77859,9.4738 c 5.6667,0 11.3333,0 17,0 0,-50.6667 0,-101.33331 0,-152.00001 -5.6667,0 -11.3333,0 -17,0 0,-22 0,-44 0,-66 58.1721,0 116.3442,0 174.5163,0 15.1612,15.172 30.32249,30.344 45.48369,45.516 0,28.6669 0,57.3338 0,86.0007 -14.8388,14.8277 -29.67749,29.65551 -44.51629,44.48331 -26.4945,0 -52.9891,0 -79.4837,0 0,14 0,28 0,42 5.6667,0 11.3334,0 17,0 0,21.3333 0,42.6667 0,64 -37.6666,0 -75.3333,0 -113,0 0,-21.3333 0,-42.6667 0,-64 z m 141,-115.41641 c 0,-9.336 0,-18.6719 0,-28.0079 -2.8055,-2.8585 -5.6109,-5.7171 -8.4164,-8.5757 -12.1945,0 -24.389,0 -36.5836,0 0,15 0,30 0,45 12.1415,0 24.2829,0 36.4243,0 2.8586,-2.8055 5.7172,-5.6109 8.5757,-8.4164 z M -29.086721,337.0054 c 5.6666,0 11.3333,0 17,0 0,-50.6666 0,-101.33331 0,-152.00001 -5.6667,0 -11.3334,0 -17,0 0,-22 0,-44 0,-66 37.3333003,0 74.6666,0 112,0 0,22 0,44 0,66 -5.6667,0 -11.3334,0 -17,0 0,50.6667 0,101.33341 0,152.00001 16.3333,0 32.6666,0 49.000001,0 0,-5.6667 0,-11.3333 0,-17 21.6666,0 43.3333,0 65,0 0,27 0,54 0,81 -69.6667,0 -139.333401,0 -209.000001,0 0,-21.3333 0,-42.6667 0,-64 z M -515.1135,356.5176 c 0,-64 0,-128.00001 0,-192.00001 15.172,-15.1612 30.344,-30.3224 45.516,-45.4837 41.33338,0 82.66688,0 124.00028,0 15.1613,15.172 30.3225,30.344 45.4837,45.516 0,21.4947 0,42.9894 0,64.4841 -26.3333,0 -52.6667,0 -79,0 0,-11.8612 0,-23.7224 0,-35.5836 -2.8586,-2.8055 -5.7171,-5.611 -8.5757,-8.4165 -13.336,0 -26.6719,0 -40.0079,0 -2.8055,2.8586 -5.6109,5.7172 -8.4164,8.5757 0,44.6665 0,89.33301 0,133.99951 3.1895,3.1417 6.3791,6.2833 9.5687,9.4249 12.6688,0 25.3377,0 38.0065,0 3.1416,-3.1896 6.2832,-6.3792 9.4248,-9.5687 0,-11.1438 0,-22.2876 0,-33.4313 26.3333,0 52.6667,0 79,0 0,20.8388 0,41.6777 0,62.5166 -14.8388,14.8278 -29.6775,29.6556 -44.5163,44.4834 -42.0001,0 -84.0003,0 -126.00038,0 -14.8277,-14.8389 -29.6555,-29.6776 -44.4833,-44.5164 z m 220.73068,-19.4432 c 5.5034,0 11.0067,0 16.5101,0 16.7072,-50.782 33.8789,-101.40611 51.1563,-151.99561 -4.4646,7e-4 -6.8603,0 -12.6664,0 0,-22 0,-44 0,-66 50.3333,0 100.6668,0 151.000101,0 0,22 0,44 0,66 -5.8214,-0.04 -8.8756,-0.073 -13.370601,-0.073 18.195101,53.8791 31.631601,94.3274 50.860499,152.07351 5.5034,0 11.0067,0 16.5101,0 0,21.3333 0,42.6666 0,63.9999 -36.333298,0 -72.666699,0 -108.999999,0 0,-21.3333 0,-42.6666 0,-63.9999 2.9563,0 5.9125,0 8.8688,0 -1.3508,-4 -2.7016,-8 -4.0524,-12 -17.1392,0 -34.2785,0 -51.4177,0 -1.4392,4 -2.8784,8 -4.3177,12 2.973,0 5.9459,0 8.9189,0 0,21.3333 0,42.6666 0,63.9999 -36.3333,0 -72.6667,0 -109,0 0,-21.8558 0,-44.3448 0,-64.0048 z m 111.947,-58.75011 c -215.90012,-157.62045 -107.95006,-78.81023 0,0 z m 25.0531,-9.0383 c -3.0408,-9.2766 -3.6395,-11.2106 -6.9485,-21.3683 -3.496,10.1978 -4.2512,12.4357 -7.0516,21.2162 6.2264,0.075 8.5703,0.049 14.0001,0.1521 z"
       inkscape:connector-curvature="0" />
    <path
       id="path3123-1"
       style="fill:#204d29;fill-opacity:1"
       d="m 692.06584,336.9195 c 5.6666,0 11.3333,0 17,0 0,-50.6666 0,-101.3333 0,-152 -5.6667,0 -11.3334,0 -17,0 0,-22 0,-44 0,-66 37.3333,0 74.6666,0 112,0 0,22 0,44 0,66 -5.6667,0 -11.3334,0 -17,0 0,50.6667 0,101.3334 0,152 16.3333,0 32.6666,0 49,0 0,-5.6666 0,-11.3333 0,-17 21.6666,0 43.3333,0 65,0 0,27 0,54 0,81 -69.6667,0 -139.3334,0 -209,0 0,-21.3333 0,-42.6666 0,-64 z m 200,-8 c -15.6667,0 -31.3334,0 -47,0 0,5.3334 0,10.6667 0,16 -22.3334,0 -44.6667,0 -67,0 0,-56.3333 0,-112.6666 0,-169 5.6666,0 11.3333,0 17,0 0,-16 0,-32 0,-48 -31.3334,0 -62.6667,0 -94,0 0,16 0,32 0,48 5.3333,0 10.6666,0 16,0 0,56.3334 0,112.6667 0,169 -5.3334,0 -10.6667,0 -16,0 0,16 0,32 0,48 63.6666,0 127.3333,0 191,0 0,-21.3333 0,-42.6666 0,-64 z m -185,23 c 5.6666,0 11.3333,0 17,0 0,-61 0,-122 0,-183 -5.6667,0 -11.3334,0 -17,0 0,-11.3333 0,-22.6666 0,-34 27.3333,0 54.6666,0 82,0 0,11.3334 0,22.6667 0,34 -5.6667,0 -11.3334,0 -17,0 0,61 0,122 0,183 26.3333,0 52.6666,0 79,0 0,-5.6666 0,-11.3333 0,-17 11.3333,0 22.6666,0 34,0 0,17 0,34 0,51 -59.3334,0 -118.6667,0 -178,0 0,-11.3333 0,-22.6666 0,-34 z m 217.348,-14.8737 c 5.3334,0 10.6666,0 16,0 0,-20.5027 0,-41.0055 0,-61.5082 -30.1694,-30.1639 -60.3387,-60.3279 -90.5081,-90.4918 -8.8306,0 -17.6613,0 -26.4919,0 0,-22 0,-44 0,-66 45,0 90,0 135,0 0.092,22.1667 0.1837,44.3333 0.2756,66.5 7.2525,6.9771 14.5048,13.9543 21.7573,20.9314 6.9891,-6.9652 13.9781,-13.9304 20.96706,-20.8957 0,-22.1786 0,-44.3571 0,-66.5357 43.6669,0 87.3336,0 131.0002,0 0,22 0,44 0,66 -7.8361,0 -15.6722,0 -23.5083,0 -29.8305,29.8361 -59.661,59.6721 -89.4919,89.5082 0,20.8306 0,41.6612 0,62.4918 5.6666,0 11.3334,0 17.0002,0 0,21.3333 0,42.6667 0,64 -37.33346,0 -74.66676,0 -112.00016,0 0,-21.3333 0,-42.6667 0,-64 z m 102.99986,8 c -5.6666,0 -11.3333,0 -16.9999,0 0,-24.8307 0,-49.6615 0,-74.4922 31.4976,-31.5026 62.9951,-63.0052 94.4923,-94.5078 6.1693,0 12.3386,0 18.5079,0 0,-16 0,-32 0,-48 -37.6666,0 -75.3333,0 -113.0002,0 0,16 0,32 0,48 4.8098,-0.013 7.112,-0.017 12.7162,0.021 -2.174,2.0025 -29.45486,29.0995 -43.19806,42.9794 -12.0012,-11.8059 -32.1453,-31.9547 -43.1129,-43.0309 5.9227,0.039 6.3399,0.031 12.5948,0.031 0,-16 0,-32 0,-48 -39,0 -78,0 -117,0 0,16 0,32 0,48 7.4974,0 14.9948,0 22.4922,0 31.5026,31.4974 63.0052,62.9948 94.5078,94.4921 0,24.836 0,49.6719 0,74.5079 -5.6666,0 -11.3333,0 -17,0 0,16 0,32 0,48 31.6667,0 63.3334,0 94.99986,0 0,-16 0,-32 0,-48 z m -87.99986,7 c 5.6666,0 11.3334,0 17,0 0,-27.5025 0,-55.0049 0,-82.5074 -33.5024,-33.4975 -67.0049,-66.9951 -100.5073,-100.4926 -5.4976,0 -10.9951,0 -16.4927,0 0,-11.3333 0,-22.6667 0,-34 34.3334,0 68.6667,0 103,0 0,11.3333 0,22.6667 0,34 -7.4987,0 -14.9973,0 -22.4959,0 19.832,19.8319 39.6639,39.6639 59.4959,59.4958 19.8319,-19.8319 39.66386,-39.6639 59.49596,-59.4958 -7.4987,0 -14.9975,0 -22.496,0 0,-11.3333 0,-22.6667 0,-34 33.6669,0 67.3336,0 101.0002,0 0,11.3333 0,22.6667 0,34 -4.2282,0 -8.4565,0 -12.6847,0 -33.4384,33.0618 -66.8768,66.1237 -100.3155,99.1855 0,27.9382 0,55.8763 0,83.8145 5.3334,0 10.6666,0 16,0 0,12.3333 0,24.6667 0,37 -26.99996,0 -53.99996,0 -80.99996,0 0,-12.3333 0,-24.6667 0,-37 z m -466.25416,4.409 c 0,-64 0,-127.9999 0,-191.9999 15.17196,-15.1613 30.34396,-30.3225 45.51596,-45.4837 41.3335,0 82.6669,0 124.0004,0 15.1612,15.172 30.3224,30.344 45.4837,45.516 0,64.0002 0,128.0004 0,192.0006 -14.8389,14.8277 -29.6776,29.6555 -44.5164,44.4833 -42.0001,0 -84.0002,0 -126.0003,0 -14.8278,-14.8388 -29.6556,-29.6775 -44.48336,-44.5163 z m 206.00006,-3.9649 c 0,-61.3336 0,-122.6672 0,-184.0008 -13.4939,-13.506 -26.9878,-27.0119 -40.4817,-40.5179 -38.6669,0 -77.3337,0 -116.0005,0 -13.5059,13.4939 -27.0119,26.9878 -40.51786,40.4817 0,61.0001 0,122.0002 0,183.0003 13.49386,13.506 26.98776,27.0119 40.48166,40.5179 39,0 78.0001,0 117.0001,0 13.1727,-13.1604 26.3455,-26.3208 39.5183,-39.4812 z m -190.0001,-3.0385 c 0,-59.3335 0,-118.667 0,-178.0005 12.1733,-12.1599 24.3466,-24.3198 36.5198,-36.4797 36.6667,0 73.3333,0 110,0 12.4934,12.5064 24.9868,25.0128 37.4803,37.5192 0,58.6668 0,117.3336 0,176.0004 -12.5064,12.4935 -25.0129,24.9869 -37.5193,37.4803 -36.667,0 -73.334,0 -110.001,0 -12.1599,-12.1733 -24.3198,-24.3465 -36.4798,-36.5197 z m 135.0001,-13.9361 c 0,-49.6953 0,-99.3905 0,-149.0858 -5.8466,-5.8194 -11.6931,-11.6389 -17.5396,-17.4583 -17.307,0 -34.6139,0 -51.9209,0 -5.8465,5.8195 -11.693,11.6389 -17.5396,17.4583 0,49.334 0,98.668 0,148.002 5.8195,5.8465 11.6389,11.6931 17.4583,17.5396 17.6667,0 35.3333,0 53,0 5.5139,-5.4853 11.0278,-10.9705 16.5418,-16.4558 z m -81.0001,-4.0944 c 0,-47.3333 0,-94.6665 0,-141.9998 4.8491,-4.8166 9.6981,-9.6332 14.5471,-14.4499 15.3343,0 30.6687,0 46.003,0 4.8167,4.849 9.6333,9.698 14.45,14.547 0,47.3355 0,94.671 0,142.0065 -4.5168,4.4821 -9.0335,8.9643 -13.5502,13.4464 -16.0012,0 -32.0023,0 -48.0035,0 -4.4821,-4.5167 -8.9642,-9.0335 -13.4464,-13.5502 z m 66.0001,-3.8746 c 0,-44.6665 0,-89.3329 0,-133.9994 -2.8056,-2.8585 -5.611,-5.7171 -8.4165,-8.5757 -13.3359,0 -26.6719,0 -40.0079,0 -2.8585,2.8055 -5.7171,5.6109 -8.5757,8.4164 0,44.6716 0,89.3432 0,134.0148 3.1416,3.1896 6.2832,6.3791 9.4249,9.5687 12.6688,0 25.3376,0 38.0065,0 3.1895,-3.1416 6.3791,-6.2832 9.5687,-9.4248 z m -360.7786,9.4738 c 5.66667,0 11.33333,0 17,0 0,-50.6667 0,-101.3333 0,-152 -5.66667,0 -11.33333,0 -17,0 0,-22 0,-44 0,-66 58.17211,0 116.34422,0 174.51633,0 15.1612,15.172 30.32245,30.344 45.4837,45.516 0,28.6669 0,57.3338 0,86.0007 -14.83884,14.8277 -29.67756,29.6555 -44.5163,44.4833 -26.49456,0 -52.98913,0 -79.4837,0 0,14 0,28 0,42 5.66667,0 11.33334,0 17,0 0,21.3333 0,42.6667 0,64 -37.66668,0 -75.33335,0 -113.00003,0 0,-21.3333 0,-42.6667 0,-64 z m 104.00003,8 c -5.66666,0 -11.33333,0 -17,0 0,-19.3333 0,-38.6667 0,-58 28.16667,0.03 56.33333,0.06 84.5,0.09 13.15087,-13.53 26.30169,-27.0601 39.4525,-40.5902 0.016,-25.994 0.032,-51.9881 0.048,-77.9821 -13.4939,-13.506 -26.9878,-27.0119 -40.4817,-40.5179 -53.83944,0 -107.67889,0 -161.51833,0 0,16 0,32 0,48 5.33333,0 10.66667,0 16,0 0,56.3333 0,112.6667 0,169 -5.33333,0 -10.66667,0 -16,0 0,16 0,32 0,48 31.66668,0 63.33335,0 95.00003,0 4e-5,-16.0007 -5e-4,-31.9991 -5e-4,-47.9998 z m -88.00003,7 c 5.33333,0 10.66667,0 16,0 0,-61 0,-122 0,-183 -5.33333,0 -10.66667,0 -16,0 0,-11.3333 0,-22.6667 0,-34 50.50658,0 101.01315,0 151.51973,0 12.49347,12.5064 24.98689,25.0128 37.4803,37.5192 0,23.2334 0,46.4668 0,69.7002 -12.08759,12.5936 -24.17525,25.1871 -36.2629,37.7806 -29.2457,0 -58.4914,0 -87.7371,0 0,24 0,48 0,72 5.33334,0 10.66667,0 16,0 0,11.3333 0,22.6667 0,34 -27.00001,0 -54.00002,0 -81.00003,0 0,-11.3333 0,-22.6667 0,-34 z M 405.38117,227.5596 c 0,-13.6666 0,-27.3333 0,-40.9999 -5.81947,-5.8465 -11.63888,-11.6931 -17.4583,-17.5396 -19.5139,0 -39.0278,0 -58.5417,0 0,25.6667 0,51.3333 0,77 19.15414,0 38.30827,0 57.4624,0 6.17924,-6.1535 12.35842,-12.307 18.5376,-18.4605 z m -70,-51.5395 c 16.51787,0 33.03574,0 49.5536,0 4.48213,4.5167 8.96427,9.0335 13.4464,13.5502 0,12.0011 0,24.0023 0,36.0034 -4.51673,4.4821 -9.03347,8.9643 -13.5502,13.4464 -16.48326,0 -32.96653,0 -49.4498,0 0,-21 0,-42 0,-63 z m 54,45.5836 c 0,-9.336 0,-18.6719 0,-28.0079 -2.8055,-2.8585 -5.61095,-5.7171 -8.4164,-8.5757 -12.19453,0 -24.38906,0 -36.5836,0 0,15 0,30 0,45 12.14144,0 24.28287,0 36.4243,0 2.85853,-2.8055 5.71712,-5.6109 8.5757,-8.4164 z M -29.078093,337.0003 c 5.66667,0 11.33333,0 17,0 0,-50.6666 0,-101.3333 0,-152 -5.66667,0 -11.33333,0 -17,0 0,-22 0,-44 0,-66 37.3333303,0 74.666675,0 111.999995,0 0,22 0,44 0,66 -5.66667,0 -11.33333,0 -17,0 0,50.6667 0,101.3334 0,152 16.33333,0 32.66667,0 48.999998,0 0,-5.6667 0,-11.3333 0,-17 21.66667,0 43.33333,0 65,0 0,27 0,54 0,81 -69.66667,0 -139.333322,0 -208.999993,0 0,-21.3333 0,-42.6667 0,-64 z m 199.999993,-8 c -15.66667,0 -31.33333,0 -47.00001,0 0,5.3333 0,10.6667 0,16 -22.33332,0 -44.666658,0 -66.999978,0 0,-56.3333 0,-112.6666 0,-169 5.66666,0 11.33332,0 16.99999,0 0,-16 0,-32 0,-48 -31.33332,0 -62.666665,0 -93.999995,0 0,16 0,32 0,48 5.33333,0 10.6666703,0 16.0000003,0 0,56.3334 0,112.6667 0,169 -5.33333,0 -10.6666703,0 -16.0000003,0 0,16 0,32 0,48 63.666675,0 127.333323,0 190.999993,0 0,-21.3333 0,-42.6667 0,-64 z m -184.999993,23 c 5.6666703,0 11.3333303,0 17.0000003,0 0,-61 0,-122 0,-183 -5.66667,0 -11.33333,0 -17.0000003,0 0,-11.3333 0,-22.6666 0,-34 27.33333,0 54.666671,0 81.999995,0 0,11.3334 0,22.6667 0,34 -5.66667,0 -11.33332,0 -16.99999,0 0,61 0,122 0,183 26.33332,0 52.666658,0 78.999978,0 0,-5.6667 0,-11.3333 0,-17 11.33334,0 22.66668,0 34.00001,0 0,17 0,34 0,51 -59.33333,0 -118.666658,0 -177.999993,0 0,-11.3333 0,-22.6667 0,-34 z M -294.3741,337.0693 c 5.5034,0 11.0067,0 16.5101,0 16.70717,-50.782 33.87887,-101.4061 51.15627,-151.9956 -4.4646,7e-4 -6.8604,0 -12.6664,0 0,-22 0,-44 0,-66 50.3333,0 100.66671,0 151.000051,0 0,22 0,44 0,66 -5.82139,-0.04 -8.87557,-0.073 -13.370591,-0.073 18.195101,53.8791 31.631651,94.3274 50.860487,152.0735 5.50337,0 11.00673,0 16.5101,0 0,21.3333 0,42.6666 0,63.9999 -36.333326,0 -72.666667,0 -109.000037,0 0,-21.3333 0,-42.6666 0,-63.9999 2.9563,0 5.9126,0 8.8688,0 -1.3508,-4 -2.7016,-8 -4.0524,-12 -17.1392,0 -34.27841,0 -51.41761,0 -1.4392,4 -2.8784,8 -4.3177,12 2.973,0 5.9459,0 8.9189,0 0,21.3333 0,42.6666 0,63.9999 -36.3333,0 -72.6667,0 -108.99997,0 0,-21.8558 0,-44.3448 0,-64.0048 z m 99.99997,8 c -4.7371,-0.018 -6.0013,-0.028 -10.4572,-0.039 2.5136,-11.06 3.8168,-16.2922 6.6389,-27.961 22.5409,0 45.08191,0 67.62285,0 2.10352,9.4783 4.80361,20.7142 6.60639,28.023 -6.4019,-0.084 -3.25345,-0.023 -11.41093,-0.023 0,16 0,32 0,48 30.66671,0 61.333371,0 92.000037,0 0,-16 0,-32 0,-48 -5.18673,0 -10.37347,0 -15.5602,0 -18.702936,-56.0897 -35.307986,-112.8883 -53.912507,-168.9984 7.04738,0.018 7.28586,0 15.472711,0 0,-16 0,-32 0,-48 -44.333341,0 -88.666751,0 -133.000051,0 0,16 0,32 0,48 6.8757,-0.017 8.6516,-0.024 14.6273,0.039 -19.0612,60.8017 -32.976,103.325 -54.34427,168.9967 -6.0461,0.016 -9.2369,0.1217 -15.283,0.049 0,15.972 0,31.9439 0,47.9159 30.33327,0 60.66667,0 90.99997,0 0,-16.3907 0,-33.2563 0,-48.0006 z m -84.99997,7 c 4.1763,0 8.3526,0 12.52887,0 19.7264,-61.1021 40.9388,-121.7285 60.5405,-182.8696 -5.4585,-0.026 -8.5778,-0.036 -17.0694,-0.1305 0,-11.3333 0,-22.6666 0,-34 40,0 80.00001,0 120.00005,0 0,11.3092 0,22.6184 0,33.9276 -6.20159,-0.03 -11.96197,-0.028 -18.79384,-0.026 20.08307,60.6667 40.601521,122.3867 60.684585,183.0534 5.058972,0.085 7.959222,0.056 12.109252,0.1409 0,11.3015 0,22.603 0,33.9045 -26.333326,0 -52.666667,0 -78.999997,0 0,-11.3333 0,-22.6666 0,-33.9999 4.94823,0 9.89647,0 14.8447,0 -4.675,-14.0081 -9.35,-28.0162 -14.025,-42.0242 -24.71564,0.1747 -49.43135,0.3494 -74.14695,0.5241 -4.3449,13.2731 -9.3679,28.0279 -13.6562,41.3194 8.8357,0.055 5.7525,0.1807 13.9834,0.1807 0,11.3333 0,22.6667 0,33.9999 -26,0 -52,0 -77.99997,0 0,-11.8433 0,-23.8647 0,-34.0003 z m 114.93347,-150.8958 c -12.9668,36.3539 -16.0728,44.9714 -29.1366,83.8903 26.2282,0.017 27.5298,-0.1149 57.35861,-0.3039 -14.6279,-43.2688 -16.4288,-49.8278 -28.22201,-83.5864 z m -17.9865,77.1457 c 7.5504,-23.9153 9.6841,-30.1939 18.3086,-58.1108 8.63951,27.3013 10.11901,32.596 17.74441,58.1853 -12.35061,-0.1061 -25.03761,-0.052 -36.05301,-0.074 z m 25.05301,-9.0383 c -3.04071,-9.2766 -3.63941,-11.2106 -6.94841,-21.3683 -3.496,10.1978 -4.2512,12.4357 -7.0516,21.2162 6.2264,0.075 8.5703,0.049 14.00001,0.1521 z m -357.73062,87.2316 c 0,-64 0,-128 0,-192 15.17198,-15.1612 30.34398,-30.3224 45.51598,-45.4837 41.3334,0 82.6669,0 124.00016,0 15.1613,15.172 30.3225,30.344 45.4837,45.516 0,21.4947 0,42.9894 0,64.4841 -26.3333,0 -52.6667,0 -78.99986,0 0,-11.8612 0,-23.7224 0,-35.5836 -2.8586,-2.8055 -5.7171,-5.611 -8.5757,-8.4165 -13.336,0 -26.6719,0 -40.0079,0 -2.8055,2.8586 -5.6109,5.7172 -8.4164,8.5757 0,44.6665 0,89.333 0,133.9995 3.1895,3.1417 6.3791,6.2833 9.5687,9.4249 12.6688,0 25.3377,0 38.0065,0 3.1416,-3.1896 6.2832,-6.3792 9.4248,-9.5687 0,-11.1438 0,-22.2876 0,-33.4313 26.33316,0 52.66656,0 78.99986,0 0,20.8388 0,41.6777 0,62.5166 -14.8388,14.8278 -29.6775,29.6556 -44.5163,44.4834 -41.99996,0 -84.00016,0 -126.00026,0 -14.8277,-14.8389 -29.6555,-29.6776 -44.48328,-44.5164 z m 205.99984,-2.9649 c 0,-16.8396 0,-33.6792 0,-50.5187 -20.3333,0 -40.6667,0 -60.9999,0 0,9.1509 0,18.3019 0,27.4529 -4.81666,4.849 -9.63326,9.698 -14.44986,14.5471 -15.3333,0 -30.6666,0 -45.9999,0 -4.5167,-4.4822 -9.0335,-8.9643 -13.5502,-13.4464 0,-47.3345 0,-94.669 0,-142.0035 4.4821,-4.5167 8.9643,-9.0334 13.4464,-13.5502 15.3355,0 30.6711,0 46.0066,0 4.849,4.8167 9.698,9.6333 14.54696,14.45 0,10.1833 0,20.3667 0,30.5501 20.3332,0 40.6666,0 60.9999,0 0,-17.8273 0,-35.6545 0,-53.4818 -13.1604,-13.1727 -26.3208,-26.3455 -39.4812,-39.5183 -39.42336,0 -78.84676,0 -118.27026,0 -13.0828,13.5891 -26.1656,27.1782 -39.2484,40.7672 0,60.9051 0,121.8103 0,182.7154 13.8274,13.8391 27.6548,27.6783 41.4821,41.5175 38.6665,0 77.3331,0 115.99946,0 13.1728,-13.1604 26.3456,-26.3208 39.5183,-39.4813 z m -189.99986,-4.0385 c 0,-59.3335 0,-118.667 0,-178.0005 12.1733,-12.1599 24.3465,-24.3198 36.5197,-36.4798 37.0002,0 74.0004,0 111.00046,0 12.1599,12.1733 24.3198,24.3466 36.4797,36.5198 0,13.8267 0,27.6535 0,41.4803 -16,0 -32,0 -47.9999,0 0,-8.5132 0,-17.0264 0,-25.5396 -6.1792,-6.1535 -12.35836,-12.307 -18.53756,-18.4605 -17.3347,0 -34.6694,0 -52.0041,0 -5.8194,5.8466 -11.6388,11.6931 -17.4583,17.5396 0,49.3341 0,98.6681 0,148.0022 5.8465,5.8194 11.6931,11.6388 17.5396,17.4583 17.3333,0 34.6666,0 51.9999,0 6.1535,-6.1793 12.30696,-12.3584 18.46046,-18.5376 0,-8.1542 0,-16.3083 0,-24.4624 16.3332,0 32.6666,0 48.9999,0 0,13.1732 0,26.3465 0,39.5197 -12.5064,12.4934 -25.0128,24.9868 -37.5192,37.4803 -37.00026,0 -74.00056,0 -111.00096,0 -12.1599,-12.1733 -24.3198,-24.3466 -36.4797,-36.5198 z"
       inkscape:connector-curvature="0" />
    <path
       id="path3110-5-7-4-1-4"
       style="fill:#ffffff;fill-opacity:1"
       d="m 291.17277,347.32656 c 0.5026,0 1.005,0 1.5076,0 2.3742,-7.3531 4.9267,-14.649 7.286,-22.0067 -0.6574,0 -1.0328,0 -2.0546,-0.016 0,-1.3639 0,-2.7277 0,-4.0916 4.8138,0 9.6275,0 14.4412,0 0,1.361 0,2.7219 0,4.0829 -0.7464,0 -1.4396,0 -2.2616,0 2.4166,7.3007 4.886,14.7281 7.3026,22.0288 0.6089,0.01 0.9579,0.01 1.4572,0.017 0,1.36 0,2.7201 0,4.0801 -3.1688,0 -6.3378,0 -9.5068,0 0,-1.3639 0,-2.7277 0,-4.0916 0.5954,0 1.1909,0 1.7864,0 -0.5626,-1.6857 -1.1251,-3.3715 -1.6878,-5.0572 -2.9744,0.021 -5.9487,0.042 -8.9229,0.063 -0.5229,1.5973 -1.1275,3.3729 -1.6433,4.9724 1.0632,0.01 0.692,0.022 1.6826,0.022 0,1.3639 0,2.7278 0,4.0916 -3.1289,0 -6.2576,0 -9.3866,0 0,-1.4252 0,-2.8719 0,-4.0916 z m 13.8313,-18.159 c -1.5606,4.3749 -1.934,5.4119 -3.5063,10.0955 3.1563,0 3.3129,-0.014 6.9024,-0.037 -1.7602,-5.207 -1.9769,-5.9963 -3.3961,-10.0589 z m -14.1106,-12.1589 c 0.6418,0 1.2837,0 1.9255,0 0,-7.3408 0,-14.6816 0,-22.0224 -0.6418,0 -1.2837,0 -1.9255,0 0,-1.3649 0,-2.7299 0,-4.0948 2.6677,0.021 5.3351,0.042 8.0031,0.063 l 5.9773,9.9281 c 3.2877,5.4604 6.0326,10.0094 6.1,10.1086 0.086,0.1235 0.1251,-2.3756 0.1298,-7.9124 l 0.01,-8.0929 c -0.6821,0 -1.3639,0 -2.0459,0 0,-1.3639 0,-2.7278 0,-4.0916 3.2893,0 6.5786,0 9.868,0 0,1.3638 0,2.7277 0,4.0916 -0.7221,0 -1.4439,0 -2.1661,0 0,7.3408 0,14.6816 0,22.0224 0.7222,0 1.444,0 2.1661,0 0,1.3649 0,2.7298 0,4.0947 -2.7847,-0.021 -5.5695,-0.042 -8.3542,-0.063 l -5.8045,-9.6875 c -3.1925,-5.3281 -5.8585,-9.7686 -5.9244,-9.8679 -0.083,-0.1209 -0.1223,2.4127 -0.1273,7.6717 l -0.01,7.8522 c 0.6421,0 1.284,0 1.9256,0 0,1.3639 0,2.7278 0,4.0916 -3.2492,0 -6.4984,0 -9.7477,0 0,-1.3638 0,-2.7277 0,-4.0916 z m 2.9673,-30.7598 c 0,-7.1403 0,-14.2806 0,-21.4208 1.465,-1.4634 2.9297,-2.9267 4.395,-4.39 4.4122,0 8.8247,0 13.2372,0 1.5037,1.505 3.007,3.01 4.5104,4.5151 0,7.06 0,14.12 0,21.1801 -1.505,1.5034 -3.01,3.0069 -4.5149,4.5104 -4.4124,0 -8.8252,0 -13.2377,0 -1.4633,-1.465 -2.9267,-2.9299 -4.39,-4.3948 z m 16.2461,-1.6771 c 0,-5.9804 0,-11.9608 0,-17.9412 -0.7038,-0.7003 -1.4072,-1.4006 -2.1108,-2.1009 -2.0827,0 -4.1655,0 -6.2482,0 -0.7036,0.7003 -1.4073,1.4006 -2.1108,2.1009 0,5.9369 0,11.8738 0,17.8107 0.7004,0.7036 1.4006,1.4072 2.1013,2.1108 2.1256,0 4.2516,0 6.3777,0 0.6636,-0.6601 1.3271,-1.3202 1.9908,-1.9803 z m -21.8925,-28.4006 c 0.6417,0 1.2835,0 1.9252,0 0,-7.3408 0,-14.6816 0,-22.0224 -0.6417,0 -1.2835,0 -1.9252,0 0,-1.3639 0,-2.7277 0,-4.0916 2.5612,0 5.1223,0 7.6835,0 l 4.5521,7.5765 c 2.5035,4.167 4.579,7.5769 4.6121,7.5774 0.031,0 2.0933,-3.3953 4.5789,-7.5463 l 4.5185,-7.5474 c 2.6237,-0.021 5.247,-0.042 7.8706,-0.063 0,1.3649 0,2.7299 0,4.0949 -0.722,0 -1.4439,0 -2.1659,0 0,7.3408 0,14.6816 0,22.0224 0.722,0 1.4439,0 2.1659,0 0,1.3639 0,2.7277 0,4.0916 -3.2894,0 -6.5786,0 -9.8679,0 0,-1.3639 0,-2.7278 0,-4.0916 0.6418,0 1.2836,0 1.9254,0 l 0,-8.0896 c 0,-6.6983 -0.026,-8.0488 -0.1572,-7.8523 -0.087,0.1306 -2.0755,3.446 -4.4204,7.3676 -2.6848,4.4906 -4.3306,7.1288 -4.4458,7.1263 -0.1117,0 -1.8611,-2.8158 -4.5081,-7.2505 -2.3792,-3.9857 -4.3693,-7.2982 -4.4227,-7.361 -0.052,-0.063 -0.097,3.5248 -0.097,7.9726 l 0,8.0869 c 0.6418,0 1.2838,0 1.9254,0 0,1.3638 0,2.7277 0,4.0916 -3.2489,0 -6.4984,0 -9.7474,0 0,-1.3639 0,-2.7278 0,-4.0916 z m 5.6171,-30.9468 c 0,-7.1402 0,-14.2805 0,-21.4207 1.4649,-1.4633 2.9296,-2.9267 4.3947,-4.39 4.4127,0 8.8251,0 13.2373,0 1.5037,1.505 3.0071,3.0101 4.5108,4.5151 0,7.06 0,14.12 0,21.18 -1.5054,1.5035 -3.0102,3.007 -4.5153,4.5104 -4.4124,0 -8.8251,0 -13.2374,0 -1.4635,-1.4649 -2.9268,-2.9298 -4.3901,-4.3948 z m 16.246,-1.6771 c 0,-5.9803 0,-11.9607 0,-17.9411 -0.7034,-0.7003 -1.407,-1.4006 -2.1106,-2.1009 -2.083,0 -4.1656,0 -6.2484,0 -0.7037,0.7003 -1.4072,1.4006 -2.1107,2.1009 0,5.9369 0,11.8738 0,17.8107 0.7003,0.7036 1.4008,1.4072 2.1008,2.1107 2.1263,0 4.2522,0 6.3782,0 0.6636,-0.66 1.3271,-1.3201 1.9907,-1.9803 z m -16.5253,-28.5037 c 0.6419,0 1.2839,0 1.9256,0 0,-7.3408 0,-14.6816 0,-22.0224 -0.6417,0 -1.2837,0 -1.9256,0 0,-1.3639 0,-2.7278 0,-4.0916 6.078,0 12.1561,0 18.2341,0 1.5036,1.505 3.007,3.0101 4.5105,4.5151 0,2.7959 0,5.5918 0,8.3877 -1.4547,1.5156 -2.9095,3.0311 -4.364,4.5466 -3.5194,0 -7.039,0 -10.5582,0 0,2.8882 0,5.7764 0,8.6646 0.6416,0 1.2835,0 1.9254,0 0,1.3638 0,2.7277 0,4.0915 -3.2491,0 -6.4986,0 -9.7478,0 0,-1.3638 0,-2.7277 0,-4.0915 z m 16.9682,-14.9778 c 0,-1.6446 0,-3.2892 0,-4.9339 -0.7004,-0.7036 -1.4007,-1.4072 -2.1009,-2.1107 -2.3484,0 -4.6966,0 -7.0449,0 0,3.0887 0,6.1775 0,9.2662 2.3049,0 4.61,0 6.9149,0 0.7437,-0.7405 1.4872,-1.481 2.2309,-2.2216 z"
       inkscape:connector-curvature="0" />
  </g>
</svg>
