<?xml version="1.0" encoding="UTF-8" standalone="no"?>
<svg xmlns:rdf="http://www.w3.org/1999/02/22-rdf-syntax-ns#" xmlns="http://www.w3.org/2000/svg" height="75.397pt" width="166.88pt" version="1.1" xmlns:cc="http://creativecommons.org/ns#" xmlns:xlink="http://www.w3.org/1999/xlink" viewBox="0 0 166.87911 75.396874" xmlns:dc="http://purl.org/dc/elements/1.1/">
 <g style="">
  <path d="m137.31 12.701-18.768 23.716v0.0194l19.849 37.403 28.114-0.0194v-6.9574c-4.3413 0-9.384-1.0806-12.702-6.9385l-0.47396-0.90997c0-0.0194-0.0189-0.0388-0.0189-0.0568l-16.62-30.995 13.1-16.816c3.564-4.4361 6.9195-5.384 11.242-5.384 0-0.24654 0.0189-5.0048 0.0189-5.0048h-28.38v5.0238c4.3602 0 6.6731 4.3792 4.6446 6.9195m-36.569 46.105h0.89101l-0.0189-0.66352c0.15166-15.261 0.64455-36.626 0.92892-48.626 0.0378-4.2655-0.0378-4.2465-2.3697-4.929-1.7631-0.53083-1.8199-0.85313-1.8199-2.711v-1.1185h-8.1518s0.0189 4.7773 0.0189 5.0048c4.038 0 6.3318 2.8436 6.3318 7.2418h0.0189v21.214h-0.43601l-0.4929-1.2891-15.905-32.171h-7.602l27.109 54.56zm-73.555-3.6399h-0.01893v-42.162h0.01893c0-4.3982 2.2939-7.2418 6.3318-7.2418 0-0.22761 0.01893-5.0048 0.01893-5.0048h-32.91s0.01893 4.7773 0.01893 5.0048c4.038 0 6.3318 2.8436 6.3318 7.2418h0.01893v40.076h-0.01893c0 15.09 14.73 21.688 30.598 21.688 4.8531 0 7.1281-0.94787 9.3271-0.94787h23.526 6.3508s-0.0189-6.8816-0.0189-7.1091c-4.038 0-6.3318-2.8436-6.3318-7.2418v-21.725h0.43601l0.47396 1.3081 17.327 34.768h36.019s-0.0189-6.8816-0.0189-7.1091c-4.038 0-6.3318-2.8436-6.3318-7.2418h-0.0189v-46.749c0.0948-4.2276 2.3887-6.9575 6.3318-6.9575 0-0.22761 0.0189-5.0048 0.0189-5.0048h-11.564c0.0189 1.0048 0.0189 0.98582 0 1.1185 0 1.8578-0.0569 2.1801-1.801 2.711-2.3318 0.68245-2.4076 0.66348-2.3697 4.8721 0.28434 11.924 0.7583 33.138 0.90996 48.38h0.0189c0.0189 3.3744 0.20854 2.9953 1.6493 3.564 1.1185 0.43581 1.0806 0.54977 1.0237 2.0095-0.0569 1.3081 0 1.346 1.782 1.8957 1.4976 0.4363 1.5166 1.0616 1.5166 2.5214v1.5924h-21.839l-27.981-56.342-1.5735-3.7157h-0.85309l0.0189 0.60664c0.28435 12 0.75831 32.835 0.90997 47.868h0.0189c0.0189 3.3744 0.20854 2.9953 1.6493 3.564 1.1185 0.43581 1.0616 0.54977 1.0048 2.0095-0.0378 1.3081 0.0189 1.346 1.801 1.8957 1.4787 0.4363 1.5166 1.0616 1.5166 2.5214v1.5924h-20.209v-1.5924c0-1.4598 0.0379-2.0854 1.5166-2.5214 1.801-0.54976 1.8389-0.58766 1.801-1.8957-0.0569-1.4597-0.11376-1.5735 1.0237-2.0095 1.4218-0.56874 1.6114-0.18976 1.6304-3.564h0.0189c0.155-15.242 0.648-36.437 0.932-48.361 0.038-4.2276-0.038-4.2087-2.369-4.8911-1.763-0.5309-1.82-0.8532-1.82-2.711v-1.1185h-11.488v5.0048c4.038 0 6.3508 2.8436 6.3508 7.2418v42.996c-0.0948 6.9384-3.4882 11.071-10.521 11.071-6.3508 0-10.18-5.1944-10.18-11.905" fill="#004d86"/>
  <path d="m52.951 0.69189h19.387l28.637 58.035 0.887-0.12672 0.76029-51.953-0.50686-1.6473-2.9144-0.887-0.50685-0.76028-0.25344-2.7877h14.572 0.25343v1.6473l-0.25343 1.1404-0.76029 0.76028-2.7877 1.1404-0.50685 1.774 1.0137 52.46 0.38014 1.2671 1.774 0.50686 0.76028 1.3938-0.12671 1.9007 2.9144 1.1404 0.38015 1.774v1.774l-21.922 0.12671-29.778-60.189h-0.38015-0.50685v0.25343h0.38014l0.76029 50.052 0.12671 0.63356 0.50686 0.88701 1.5206 0.38014 0.76028 0.76028v1.5206l-0.12671 0.63358 2.1541 0.76028 1.1404 1.3938-0.12672 2.9144h-20.148v-2.5343l0.38015-1.2672 2.661-0.88699 0.12672-2.2809 0.76028-1.1404 1.774-0.887 1.157-54.234-0.38-1.0141-0.634-0.3801-2.534-0.887-0.38-0.7603z" fill-rule="evenodd" stroke="#fff" stroke-miterlimit="3.9" stroke-width=".38825" fill="#fff"/>
 </g>
</svg>
