<?xml version="1.0" encoding="UTF-8" standalone="no"?>
<svg xmlns:rdf="http://www.w3.org/1999/02/22-rdf-syntax-ns#" xmlns="http://www.w3.org/2000/svg" xml:space="preserve" height="135" viewBox="0 0 121.25 135" width="121" version="1.1" xmlns:cc="http://creativecommons.org/ns#" xmlns:dc="http://purl.org/dc/elements/1.1/"><defs><clipPath id="a" clipPathUnits="userSpaceOnUse"><path d="m0 108h96.3v-108l-96.3 0.06v108z"/></clipPath></defs><g transform="matrix(1.25,0,0,-1.25,0,135)"><g style=""><g fill="#861f41"><g fill="#861f41" clip-path="url(#a)"><path d="m94.7 27.3c-0.041-2.76-0.082-5.52-0.121-8.28 0-0.785 0.129-2.73-0.187-3.32-0.629-0.64-1.26-1.28-1.89-1.92-0.918-0.904-1.84-1.8-2.76-2.71-3.23-3.19-6.46-6.38-9.68-9.57-6.76 0.094-13.5 0.19-20.3 0.285-1.68 0.022-3.36 0.043-5.04 0.067-0.595 0.021-1.19 0.045-1.78 0.066-0.037 0.014-0.078 0.029-0.117 0.044-1.01 0.563-2.35 2.39-3.22 3.24l-8.42 8.5c-0.446 0.446-2.11 1.96-2.23 2.4 0 1.19-0.002 2.39-0.002 3.58 0.039 2.6 0.077 5.2 0.116 7.8 0.017 1.17-0.09 2.42 0.124 3.48h1.74c-0.025-3.22-0.051-6.44-0.075-9.66-0.055-0.848-0.238-3.27 0.037-3.98 0.259-0.668 1.56-1.7 2.12-2.28l8.44-8.54c0.531-0.568 1.91-2.22 2.52-2.49 0.468-0.209 1.21-0.104 1.78-0.113 1.38-0.021 2.76-0.039 4.14-0.061 5-0.06 10-0.119 15-0.18 0.923 0 3.24-0.285 3.95 0.031 0.685 0.305 1.22 1.11 1.77 1.63 2.29 2.25 4.58 4.5 6.87 6.76 1.04 1.08 2.13 2.19 3.21 3.21 0.514 0.487 1.51 1.15 1.75 1.83 0.214 0.629 0.246 9.22 0.089 9.42-0.006 0.007-0.013 0.017-0.021 0.024-0.024 0.017-0.051 0.036-0.076 0.054-0.452 0.209-10.5 0.283-10.7 0.101-0.051-0.104-0.102-0.209-0.155-0.314-0.031-0.979-0.062-1.96-0.093-2.94 0-0.416 0.044-0.895-0.09-1.25-0.194-0.496-6.37-6.27-6.76-6.34-1.21-0.198-2.64 0.005-3.83 0.025-2.6 0.02-5.2 0.041-7.8 0.061-0.9 0.019-1.8 0.04-2.7 0.058-0.522 0-1.2-0.086-1.64 0.087-0.488 0.189-6.07 6.05-6.21 6.46-0.004 0.699-0.007 1.4-0.013 2.1 0.002 1.36 0.002 2.72 0.004 4.08 0 0.663-0.073 1.41 0.119 1.98 0 0.147 0.461 0.113 0.599 0.115 1.04 0.018 1.35 0.073 1.33-1.02-0.011-1.2-0.025-2.4-0.035-3.6-0.027-0.756-0.185-1.84 0.039-2.56 0.143-0.451 5.21-5.58 5.72-5.77 0.621-0.231 2.48-0.117 3.27-0.131 2.34-0.023 4.68-0.043 7.02-0.064 0.916 0 1.96-0.194 2.87-0.01 0.342 0.07 5.5 4.87 5.76 5.33 0.219 0.406 0.129 1.09 0.162 1.58 0.035 0.572-0.078 3.67 0.223 3.85 0.529 0.325 3.8 0.069 4.61 0.055 3.52-0.043 7.04-0.084 10.6-0.126v-0.059c0.107 0 0.06-0.864 0.06-1.02zm-67.5 5.34c-6.88 0.092-13.8 0.185-20.6 0.277-0.824 0.041-4.33-0.15-4.75 0.152-0.019 0.018-0.04 0.04-0.06 0.057-0.263 0.42-0.105 1.37-0.105 1.91l0.117 7.38c0.002 1.06 0.002 2.12 0.002 3.18 0.023 0.533 0.046 1.07 0.068 1.6 0.047 0.07 0.092 0.139 0.139 0.208 0.456 0.343 5.67-0.059 6.69 0.053 0.19 0 0.173 0.779 0.177 0.96 0.026 3 0.05 6.01 0.075 9.01 0.275 9.16 0.144 18.2 0.29 27.5 0.015 1 0.321 6.16-0.062 6.66 0 0.083-0.519 0.041-0.658 0.045-0.873 0.029-5.78-0.15-6.06 0.24-0.315 0.432-0.077 4.01-0.064 4.82 0.019 2.46 0.037 4.92 0.056 7.38 0.023 0.718 0.045 1.44 0.068 2.16l40.4-0.48c3.54-0.04 7.08-0.077 10.6-0.116 0.908-0.013 2.97 0.193 3.68-0.094 0.135-0.053 0.193-0.145 0.226-0.281 0.268-1.09-0.007-2.49-0.007-3.65-0.039-4.04-0.08-8.08-0.12-12.1-0.015-0.84 0.141-3.84-0.167-4.38-0.225-0.384-1.79-0.054-2.23-0.184-3.88 0.062-7.76 0.124-11.6 0.186-0.275 0.009-0.676-0.019-0.804 0.231-0.176 0.339-0.094 0.905-0.094 1.32 0 1.32 0.311 3.19-0.001 4.44 0 0.135-1.5 0.177-1.8 0.18-5.18 0.04-10.4 0.081-15.5 0.12h-0.36v-0.06c-0.099 0-0.062-1.33-0.062-1.62-0.047-4.42-0.095-8.84-0.144-13.3 0.041-0.112 0.08-0.223 0.12-0.335 0.039-0.025 0.076-0.047 0.114-0.072 0.728-0.272 1.9-0.066 2.73-0.078 2.56-0.042 5.12-0.081 7.68-0.12 0.9-0.021 1.8-0.04 2.7-0.06 0.157 0 0.112-1.24 0.118-1.5-0.058-4.22-0.118-8.44-0.178-12.7h-0.06c0-0.126-1.18-0.06-1.38-0.06-2.94 0.022-5.88 0.045-8.82 0.067-0.604 0.021-2.68 0.244-3.08-0.071-0.019-0.028-0.039-0.054-0.06-0.083-0.3-0.502-0.092-2.26-0.112-2.97-0.117-3.68-0.113-7.44-0.113-11.2h0.06c0.021-0.02 0.039-0.04 0.06-0.06 0.64-0.004 1.28-0.005 1.92-0.009 4.3-0.058 8.6-0.115 12.9-0.172 0.701 0 2.63-0.22 3.13 0.044 0.537 0.288-0.066 5.28 0.471 5.62 0.391 0.245 1.28 0.101 1.8 0.101 2.08-0.04 4.16-0.079 6.24-0.118 1.02-0.016 6.93 0.155 7.33-0.182 0.039-0.064 0.076-0.128 0.113-0.191 0.018-0.477 0.035-0.953 0.051-1.43-0.018-1.12-0.039-2.24-0.057-3.36-0.06-5.04-0.121-10.1-0.181-15.1h-0.059c0-0.102-0.207-0.061-0.301-0.061h-3.18c-9.08 0.1-18.2 0.201-27.2 0.301zm10.7 26.2c-0.039-3.36-0.079-6.72-0.118-10.1-0.1-0.042-0.201-0.081-0.3-0.12-2.82 0.039-5.64 0.08-8.46 0.122-0.587 0-2.86-0.081-3.2 0.184-0.011 0.014-0.025 0.03-0.036 0.044-0.352 0.529-0.071 2.32-0.071 3.01 0 2.73-0.131 5.55 0.122 8.16 2.64-0.021 5.28-0.04 7.92-0.06 1.34-0.042 2.68-0.081 4.02-0.12 0.176 0 0.118-0.943 0.118-1.14zm1.5-7.92c0.031 2.38 0.064 4.76 0.095 7.14 0.027 1.46 0.053 2.92 0.079 4.38 0.008 0.555-0.083 1.25 0.139 1.7 0.215 0.445 0.729 0.758 1.08 1.11 0.939 0.921 1.88 1.84 2.82 2.76l5.76 5.7c0.988 0.99 1.98 2.25 3.13 3.04 0.533 0.362 3.38 0.098 4.23 0.098 5.14-0.062 10.3-0.123 15.4-0.183 1.42-0.024 2.84-0.048 4.26-0.073 0.496 0.002 0.992 0.006 1.49 0.008 0.368 0.182 0.731 0.364 1.1 0.545 5.08-0.08 10.2-0.159 15.2-0.239v-0.06c0.091 0 0.06-0.038 0.064-0.119 0.006-0.781 0.01-1.56 0.016-2.34-0.047-4.72-0.094-9.44-0.141-14.2 0-1.38-0.002-2.76-0.002-4.14 0-0.84 0.072-1.81-0.119-2.58 0-0.16-0.678-0.117-0.84-0.117-2.54 0.021-5.08 0.043-7.62 0.064-1.03 0.034-6.29-0.119-6.74 0.234-0.354 0.274-0.061 2.89-0.12 3.54-0.054 0.555-4.2 4.87-4.75 5.04-1.49 0.041-2.98 0.083-4.47 0.124-2.48 0.019-4.96 0.039-7.44 0.06-0.631 0-1.69 0.18-2.22-0.085-0.519-0.259-4.92-4.51-5.05-4.91-0.235-0.698 0.144-2.51-0.233-3-0.23-0.296-1.65-0.262-1.79 0.103-0.156 0.406-0.134 3.6 0.024 3.93 0.228 0.488 5.87 5.91 6.3 6.06 0.472 0.159 1.17 0.071 1.71 0.071 1.72-0.021 3.44-0.04 5.16-0.06 2.06-0.021 4.12-0.04 6.18-0.06 0.952 0 2.21 0.187 3.06-0.088 0.434-0.141 5.24-4.83 5.39-5.28 0.302-0.913 0.009-2.64 0.009-3.69h0.061c0-0.081 0.943-0.096 1.14-0.103 3.3-0.047 6.6-0.092 9.9-0.137 0 0.371 0.119 0.776 0.119 1.2 0.041 6.1 0.08 12.2 0.121 18.3h-0.058c0 0.098-1.4 0.06-1.8 0.06-1.13 0-9.24 0.218-9.46-0.063-0.399-0.506 0.058-1.53-0.258-2.1-0.638 0.44-1.28 0.883-1.92 1.32-0.422 0.324-0.859 0.815-1.39 0.913-1.46 0.271-3.58 0.105-5.15 0.105-3.54 0.039-7.08 0.078-10.6 0.117-1.66 0.019-3.32 0.04-4.98 0.06-0.717-0.014-1.43-0.027-2.15-0.041-0.056-0.019-0.115-0.035-0.172-0.054-0.873-0.422-2.16-2.06-2.93-2.81-2.36-2.33-4.71-4.65-7.06-6.98-0.572-0.553-2.24-1.88-2.49-2.54-0.201-0.54-0.133-1.42-0.133-2.04 0-1.3-0.002-2.6-0.002-3.9-0.039-0.719-0.079-1.44-0.119-2.16 0-0.115-0.204-0.138-0.299-0.179-0.06-1.92-0.12-3.84-0.181-5.76-0.316 0-1.1-0.098-1.28 0.142-0.313 0.416-0.097 1.58-0.097 2.14zm56.8-21.3c-0.021 0.051-0.045 0.104-0.066 0.155-0.016 0.012-0.029 0.027-0.045 0.041-0.393 0.3-2.89 0.121-3.55 0.121-4.56 0.077-9.12 0.156-13.7 0.234-0.298 0-0.736 0.041-0.933-0.151-0.381-0.365-0.096-5.16-0.318-6.07-0.118-0.466-4.32-4.46-4.87-4.69v-0.06c-2.84 0.04-5.68 0.082-8.52 0.121-0.873 0-2.82-0.204-3.47 0.15-0.439 0.24-0.818 0.718-1.17 1.09-0.588 0.592-1.18 1.18-1.76 1.77-0.438 0.437-1.63 1.41-1.76 1.92-0.018 0.713-0.037 1.43-0.055 2.14 0 1.44-0.031 2.94 0.059 4.32h0.06c0 0.103 0.205 0.06 0.301 0.06 1.02 0.018 2.04 0.039 3.06 0.059 0 7.7 0.301 15.4 0.301 23.2h-0.061c0 0.124-0.641 0.114-0.779 0.116-1.57 0.026-2.76-0.529-2.6 1.39 0.035 0.414-0.041 0.946 0.133 1.29 0.203 0.412 3.71 3.8 4.11 3.92 0.696 0.219 1.72 0.066 2.5 0.066 2.38-0.021 4.76-0.039 7.14-0.06 0.752 0 2.66 0.093 3.23-0.139 0.428-0.172 3.3-3.05 3.58-3.54 0.364-0.644 0.149-4.01 0.149-5.02h0.058c0-0.136 1.51-0.121 1.92-0.121 4.44-0.041 8.88-0.08 13.3-0.119 0.67 0 2.64-0.232 3.07 0.072 0.033 0.045 0.064 0.091 0.098 0.136 0.025 0.45 0.049 0.901 0.076 1.35 0.004 1.08 0.006 2.16 0.008 3.24 0.056 5.28 0.113 10.6 0.172 15.8 0.021 1.38 0.039 2.76 0.058 4.14-0.019 0.54-0.039 1.08-0.058 1.62 0 0.136-1.27 0.153-1.5 0.167-4.5 0.046-9 0.095-13.5 0.144-0.774 0.024-1.69 0.149-2.45 0.009-0.272-0.131-0.543-0.26-0.813-0.39-0.338-0.14-0.834-0.118-1.23-0.101-6.48 0.095-13 0.193-19.4 0.291-1.03 0-4.34 0.294-5-0.066-0.308-0.282-0.62-0.563-0.928-0.844-0.828-0.812-1.66-1.62-2.48-2.44-3.02-2.92-5.89-6.1-9.04-8.83h-0.06c0.021 2.88 0.039 5.76 0.06 8.64 0.008 0.482 0.18 2-0.079 2.34-0.024 0.023-0.051 0.045-0.077 0.068-0.405 0.279-2.34 0.111-2.96 0.111-3.42 0.039-6.84 0.08-10.3 0.12v9.3c0 0.6-0.111 2.56 0.208 2.92 0.039 0.023 0.077 0.045 0.115 0.068 0.431 0.157 1.04 0.069 1.54 0.069 1.38-0.018 2.76-0.036 4.14-0.054 2.92-0.09 5.86 0.14 8.7-0.128v-6h0.061l0.06-0.06c0.62-0.018 1.24-0.037 1.86-0.056 5.32-0.041 10.6-0.082 16-0.124v0.06c0.1 0 0.061 0.098 0.061 0.18 0.019 0.721 0.039 1.44 0.056 2.16 0.059 6.54 0.115 13.1 0.174 19.6 0.01 0.394 0.146 1.41-0.215 1.59-0.592 0.289-1.66 0.069-2.36 0.101-3.54 0.038-7.08 0.077-10.6 0.115-15 0.178-30 0.358-44.9 0.536-0.061-4.54-0.121-9.08-0.181-13.6 0-0.761-0.165-3.34 0.105-3.84 0.029-0.026 0.055-0.051 0.081-0.077 0.351-0.204 1.04-0.105 1.5-0.105 1.28-0.013 2.56-0.024 3.84-0.037 0.441-0.029 0.88-0.056 1.32-0.085 0.155 0 0.117-1.19 0.117-1.44 0.07-4 0.04-8 0-12.1l-0.24-17.1c-0.02-2.2-0.04-4.5-0.06-6.7-0.02-1.1 0.04-2.1-0.08-3.1-0.05-0.1-0.09-0.2-0.13-0.3-0.29-0.3-0.95-0.2-1.35-0.2h-3.96c-0.48 0-1.03 0.109-1.44-0.062-0.095 0-0.058-1.41-0.085-1.86-0.051-4.14-0.104-8.28-0.156-12.4 0-0.654-0.244-2.58 0.054-3.03 0.034-0.035 0.066-0.067 0.1-0.1 0.339-0.225 1.08-0.113 1.52-0.113 1.46-0.022 2.92-0.043 4.38-0.065 10.2-0.121 20.4-0.24 30.6-0.361 0.246-0.011 0.508-0.001 0.683-0.16 0.014-0.018 0.027-0.034 0.043-0.051 0.299-0.422 0.007-3.14-0.002-3.74-0.023-2.68-0.047-5.36-0.072-8.04-0.037-0.795-0.234-2.98 0.034-3.59 0.405-0.938 2.22-2.33 3-3.16 3-2.8 5.8-5.68 8.7-8.56 0.5-0.59 2.7-3.05 3.3-3.25 0.5-0.028 1.1-0.055 1.6-0.083 1.5-0.02 3.1-0.041 4.6-0.062 7.3-0.082 14.7-0.162 22-0.245 0.09 0.028 0.178 0.057 0.268 0.086 0.318 0.294 0.633 0.588 0.947 0.883 0.944 0.938 1.89 1.88 2.83 2.81l8.55 8.43c0.883 0.941 2.17 1.78 2.81 2.88 0.347 0.596 0.123 2.47 0.136 3.29 0.041 2.68 0.121 5.4 0.121 8.16 0 0.977 0.241 2.15 0.004 3.11" fill="#861f41"/></g></g><g><path d="m16.1 34.7c-3.68 0.06-7.36 0.118-11 0.178-0.22 0-1.26-0.032-1.26 0.121-0.228 0.681 0.016 9.91 0.203 10.1 0.013 0.011 0.026 0.019 0.039 0.031 0.531 0.293 2.16 0.088 2.82 0.057l3.96-0.012c0.338 3.61 0.122 7.53 0.18 11.2 0.1 8.48 0.201 17 0.3 25.4 0.04 3.44 0.079 6.88 0.119 10.3 0 0.203 0.058 1.2-0.119 1.2-0.834 0.229-1.9 0.12-2.82 0.12-1.36 0.021-2.72 0.04-4.08 0.06 0.02 2.52 0.041 5.04 0.06 7.56 0.013 0.936-0.214 2.26 0.12 3.06 13-0.157 26-0.317 39-0.474 3.46-0.042 6.92-0.085 10.4-0.126 0.19 0 1.26 0.035 1.26-0.06h0.061c-0.024-4.26-0.049-8.52-0.073-12.8 0-0.657 0.114-3.3-0.168-3.67-0.123-0.157-0.394-0.146-0.601-0.157-2.08 0.037-4.16 0.073-6.24 0.11-0.918 0-2.5-0.191-3.28 0.07-0.51 0.171-0.174 4.87-0.289 5.75-0.013 0.094 0.014 0.182-0.092 0.182-0.699 0.021-1.4 0.04-2.1 0.06-1.7 0.021-3.4 0.039-5.1 0.06-4.86 0.051-9.72 0.101-14.6 0.154-0.103-0.036-0.206-0.071-0.311-0.105-0.032-0.043-0.062-0.086-0.094-0.129-0.152-0.452-0.077-1.08-0.077-1.6 0-1.02 0-2.04-0.002-3.06-0.039-3.62-0.079-7.24-0.118-10.9-0.015-0.847-0.219-2.8 0.012-3.46 0.095-0.278 0.427-0.298 0.708-0.313 3.9-0.043 7.8-0.086 11.7-0.13 0.234 0 1.32 0 1.32-0.179 0.193-0.709 0.048-1.72 0.015-2.46-0.006-1-0.012-2-0.017-3 0-0.677 0.09-3.96-0.203-4.3-0.075-0.031-0.149-0.063-0.225-0.093-1.24-0.252-2.88-0.053-4.13 0.005-1.58 0.006-3.16 0.01-4.74 0.015-1.38 0.023-3.04 0.231-4.43 0.021-0.088-0.011-0.126 0.011-0.126-0.086-0.35-0.962-0.12-3.48-0.12-4.68-0.039-3.44-0.079-6.88-0.12-10.3 0.013-1.07 0.028-2.15 0.041-3.22 0.025-0.043 0.051-0.086 0.075-0.129 0.298-0.265 6.31-0.242 7.2-0.242l13.8-0.123c0.32 0 1.68-0.037 1.68 0.059h0.059c0 0.782-0.079 5.7 0.249 5.89 0.607 0.355 1.87 0.049 2.57 0.049 2.54-0.022 5.08-0.042 7.62-0.061 0.162 0 0.84 0.043 0.84-0.12 0.304-1.12 0.017-2.61 0-3.78-0.039-3.62-0.078-7.24-0.12-10.9 0-0.322 0.014-1.74-0.121-1.74v-0.061c-13.2 0.163-26.4 0.322-39.6 0.483zm41.5-2.34c0.094 0 0.301-0.041 0.301 0.061h0.059c0.06 5.04 0.121 10.1 0.181 15.1 0.018 1.12 0.039 2.24 0.057 3.36-0.016 0.476-0.033 0.952-0.051 1.43-0.037 0.063-0.074 0.127-0.113 0.191-0.402 0.337-6.31 0.166-7.33 0.182-2.08 0.039-4.16 0.078-6.24 0.118-0.512 0-1.4 0.144-1.8-0.101-0.537-0.332 0.066-5.33-0.471-5.62-0.501-0.264-2.43-0.044-3.13-0.044-4.3 0.057-8.6 0.114-12.9 0.172-0.639 0.004-1.28 0.005-1.92 0.009-0.021 0.02-0.039 0.04-0.06 0.06h-0.06c0 3.78-0.004 7.55 0.113 11.2 0.02 0.706-0.188 2.47 0.112 2.97 0.021 0.029 0.041 0.055 0.06 0.083 0.392 0.315 2.47 0.092 3.08 0.071 2.94-0.022 5.88-0.045 8.82-0.067 0.199 0 1.38-0.066 1.38 0.06h0.06c0.06 4.22 0.12 8.44 0.178 12.7-0.006 0.258 0.039 1.5-0.118 1.5-0.9 0.02-1.8 0.039-2.7 0.06-2.56 0.039-5.12 0.078-7.68 0.12-0.832 0.012-2-0.194-2.73 0.078-0.038 0.025-0.075 0.047-0.114 0.072-0.04 0.112-0.079 0.223-0.12 0.335 0.049 4.42 0.097 8.84 0.144 13.3 0 0.294-0.037 1.62 0.062 1.62v0.06h0.36c5.18-0.039 10.4-0.08 15.5-0.12 0.303-0.003 1.8-0.045 1.8-0.18 0.312-1.25 0.001-3.12 0.001-4.44 0-0.418-0.082-0.984 0.094-1.32 0.128-0.25 0.529-0.222 0.804-0.231 3.88-0.062 7.76-0.124 11.6-0.186 0.445 0.13 2.01-0.2 2.23 0.184 0.308 0.534 0.152 3.54 0.167 4.38 0.04 4.04 0.081 8.08 0.12 12.1 0 1.16 0.275 2.56 0.007 3.65-0.033 0.136-0.091 0.228-0.226 0.281-0.715 0.287-2.77 0.081-3.68 0.094-3.54 0.039-7.08 0.076-10.6 0.116-13.5 0.159-27 0.319-40.4 0.48-0.023-0.72-0.045-1.44-0.068-2.16-0.019-2.46-0.037-4.92-0.056-7.38-0.013-0.81-0.251-4.38 0.064-4.82 0.285-0.39 5.19-0.211 6.06-0.24 0.139-0.004 0.658 0.038 0.658-0.045 0.383-0.501 0.077-5.66 0.062-6.66-0.33-9.8-0.2-18.9-0.47-28.1-0.03-3-0.05-6-0.08-9 0-0.1 0.01-0.9-0.17-0.9-1.03-0.1-6.24 0.3-6.7-0.1-0.04 0-0.09-0.1-0.14-0.2-0.02-0.5-0.04-1.1-0.06-1.6 0-1.06 0-2.12-0.002-3.18l-0.117-7.38c0-0.542-0.158-1.49 0.105-1.91 0.02-0.017 0.041-0.039 0.06-0.057 0.427-0.302 3.93-0.111 4.75-0.152 6.88-0.092 13.8-0.185 20.6-0.277 9.08-0.1 18.2-0.201 27.2-0.301h3.18" fill="#fff"/><path d="m55.7 34.3c0.135 0 0.121 1.42 0.121 1.74 0.042 3.62 0.081 7.24 0.12 10.9 0.017 1.17 0.304 2.66 0 3.78 0 0.163-0.678 0.12-0.84 0.12-2.54 0.019-5.08 0.039-7.62 0.061-0.705 0-1.96 0.306-2.57-0.049-0.328-0.192-0.249-5.11-0.249-5.89h-0.059c0-0.096-1.36-0.059-1.68-0.059l-13.8 0.123c-0.892 0-6.91-0.023-7.2 0.242-0.024 0.043-0.05 0.086-0.075 0.129-0.013 1.07-0.028 2.15-0.041 3.22 0.041 3.44 0.081 6.88 0.12 10.3 0 1.2-0.23 3.72 0.12 4.68 0 0.097 0.038 0.075 0.126 0.086 1.39 0.21 3.06 0.002 4.43-0.021 1.58-0.005 3.16-0.009 4.74-0.015 1.25-0.058 2.89-0.257 4.13-0.005 0.076 0.03 0.15 0.062 0.225 0.093 0.293 0.338 0.203 3.62 0.203 4.3 0.005 0.999 0.011 2 0.017 3 0.033 0.735 0.178 1.75-0.015 2.46 0 0.179-1.09 0.179-1.32 0.179-3.9 0.044-7.8 0.087-11.7 0.13-0.281 0.015-0.613 0.035-0.708 0.313-0.231 0.662-0.027 2.61-0.012 3.46 0.039 3.62 0.079 7.24 0.118 10.9 0.002 1.02 0.002 2.04 0.002 3.06 0 0.522-0.075 1.15 0.077 1.6 0.032 0.043 0.062 0.086 0.094 0.129 0.105 0.034 0.208 0.069 0.311 0.105 4.86-0.053 9.72-0.103 14.6-0.154 1.7-0.021 3.4-0.039 5.1-0.06 0.701-0.02 1.4-0.039 2.1-0.06 0.106 0 0.079-0.088 0.092-0.182 0.115-0.881-0.221-5.58 0.289-5.75 0.783-0.261 2.36-0.07 3.28-0.07 2.08-0.037 4.16-0.073 6.24-0.11 0.207 0.011 0.478 0 0.601 0.157 0.282 0.37 0.168 3.02 0.168 3.67 0.024 4.26 0.049 8.52 0.073 12.8h-0.061c0 0.095-1.07 0.06-1.26 0.06-3.46 0.041-6.92 0.084-10.4 0.126-13 0.157-26 0.317-39 0.474-0.334-0.797-0.107-2.12-0.12-3.06-0.019-2.52-0.04-5.04-0.06-7.56 1.36-0.02 2.72-0.039 4.08-0.06 0.918 0 1.98 0.109 2.82-0.12 0.177 0 0.119-0.997 0.119-1.2-0.04-3.44-0.079-6.88-0.119-10.3-0.099-8.48-0.2-17-0.3-25.4-0.058-3.69 0.158-7.61-0.18-11.2l-3.96 0.012c-0.39-0.1-2.01 0.1-2.54-0.2h-0.04c-0.19-0.2-0.43-9.4-0.2-10.1 0-0.153 1.04-0.121 1.26-0.121 3.68-0.06 7.36-0.118 11-0.178 13.2-0.161 26.4-0.32 39.6-0.483v0.061" fill="#861f41"/><path d="m40.8 48.6c0.061 1.92 0.121 3.84 0.181 5.76 0.095 0.041 0.299 0.064 0.299 0.179 0.04 0.721 0.08 1.44 0.119 2.16 0 1.3 0.002 2.6 0.002 3.9 0 0.619-0.068 1.5 0.133 2.04 0.242 0.66 1.91 1.99 2.49 2.54 2.36 2.32 4.71 4.65 7.06 6.98 0.774 0.752 2.06 2.39 2.93 2.81 0.057 0.019 0.116 0.035 0.172 0.054 0.719 0.014 1.44 0.027 2.15 0.041 1.66-0.02 3.32-0.041 4.98-0.06 3.54-0.039 7.08-0.078 10.6-0.117 1.58 0 3.69 0.166 5.15-0.105 0.529-0.098 0.966-0.589 1.39-0.913 0.641-0.441 1.28-0.884 1.92-1.32 0.316 0.562-0.141 1.59 0.258 2.1 0.219 0.281 8.33 0.063 9.46 0.063 0.402 0 1.8 0.038 1.8-0.06h0.058c-0.041-6.1-0.08-12.2-0.121-18.3 0-0.424-0.119-0.829-0.119-1.2-3.3 0.045-6.6 0.09-9.9 0.137-0.194 0.007-1.14 0.022-1.14 0.103h-0.061c0 1.05 0.293 2.78-0.009 3.69-0.151 0.45-4.96 5.14-5.39 5.28-0.852 0.275-2.11 0.088-3.06 0.088-2.06 0.02-4.12 0.039-6.18 0.06-1.72 0.02-3.44 0.039-5.16 0.06-0.543 0-1.24 0.088-1.71-0.071-0.43-0.143-6.07-5.57-6.3-6.06-0.158-0.332-0.18-3.52-0.024-3.93 0.139-0.365 1.56-0.399 1.79-0.103 0.377 0.49-0.002 2.31 0.233 3 0.133 0.403 4.54 4.65 5.05 4.91 0.528 0.265 1.58 0.085 2.22 0.085 2.48-0.021 4.96-0.041 7.44-0.06 1.49-0.041 2.98-0.083 4.47-0.124 0.549-0.163 4.69-4.48 4.75-5.04 0.059-0.647-0.234-3.27 0.12-3.54 0.455-0.353 5.71-0.2 6.74-0.234 2.54-0.021 5.08-0.043 7.62-0.064 0.162 0 0.84-0.043 0.84 0.117 0.191 0.772 0.119 1.74 0.119 2.58 0 1.38 0.002 2.76 0.002 4.14 0.047 4.72 0.094 9.44 0.141 14.2-0.006 0.779-0.01 1.56-0.016 2.34-0.004 0.081 0.027 0.119-0.064 0.119v0.06c-5.08 0.08-10.2 0.159-15.2 0.239-0.365-0.181-0.728-0.363-1.1-0.545-0.494-0.002-0.99-0.006-1.49-0.008-1.42 0.025-2.84 0.049-4.26 0.073-5.14 0.06-10.3 0.121-15.4 0.183-0.85 0-3.7 0.264-4.23-0.098-1.16-0.782-2.14-2.05-3.13-3.04l-5.76-5.7-2.82-2.76c-0.351-0.348-0.865-0.661-1.08-1.11-0.222-0.452-0.131-1.15-0.139-1.7-0.026-1.46-0.052-2.92-0.079-4.38-0.031-2.38-0.064-4.76-0.095-7.14 0-0.559-0.216-1.72 0.097-2.14 0.18-0.24 0.966-0.142 1.28-0.142" fill="#fff"/><path d="m94.7 28.4c-3.52 0.042-7.04 0.083-10.6 0.126-0.808 0.014-4.08 0.27-4.61-0.055-0.301-0.179-0.188-3.28-0.223-3.85-0.033-0.49 0.057-1.17-0.162-1.58-0.254-0.463-5.42-5.26-5.76-5.33-0.904-0.184-1.95 0.01-2.87 0.01-2.34 0.021-4.68 0.041-7.02 0.064-0.789 0.014-2.65-0.1-3.27 0.131-0.508 0.189-5.57 5.32-5.72 5.77-0.224 0.713-0.066 1.8-0.039 2.56 0.01 1.2 0.024 2.4 0.035 3.6 0.018 1.09-0.289 1.03-1.33 1.02-0.138-0.002-0.599 0.032-0.599-0.115-0.192-0.57-0.119-1.32-0.119-1.98-0.002-1.36-0.002-2.72-0.004-4.08 0.006-0.699 0.009-1.4 0.013-2.1 0.137-0.411 5.72-6.27 6.21-6.46 0.444-0.173 1.12-0.087 1.64-0.087 0.9-0.018 1.8-0.039 2.7-0.058 2.6-0.02 5.2-0.041 7.8-0.061 1.2-0.02 2.62-0.223 3.83-0.025 0.385 0.064 6.56 5.84 6.76 6.34 0.134 0.354 0.09 0.833 0.09 1.25l0.093 2.94c0.053 0.105 0.104 0.21 0.155 0.314 0.279 0.182 10.3 0.108 10.7-0.101 0.025-0.018 0.052-0.037 0.076-0.054 0.008-0.007 0.015-0.017 0.021-0.024 0.157-0.2 0.125-8.79-0.089-9.42-0.2-0.5-1.2-1.2-1.7-1.7-1.1-1-2.2-2.1-3.2-3.2-2.3-2.26-4.6-4.51-6.9-6.76-0.5-0.52-1.1-1.33-1.7-1.64-0.7-0.31-3.1-0.03-4-0.03-5 0.061-10 0.12-15 0.18-1.38 0.022-2.76 0.04-4.14 0.061-0.566 0.009-1.31-0.096-1.78 0.113-0.604 0.269-1.99 1.92-2.52 2.49-2.81 2.85-5.62 5.69-8.44 8.54-0.559 0.576-1.86 1.61-2.12 2.28-0.275 0.708-0.092 3.13-0.037 3.98 0.024 3.22 0.05 6.44 0.075 9.66h-1.74c-0.214-1.06-0.107-2.31-0.124-3.48-0.039-2.6-0.077-5.2-0.116-7.8 0-1.19 0.002-2.39 0.002-3.58 0.122-0.447 1.78-1.96 2.23-2.4 2.81-2.83 5.61-5.67 8.42-8.5 0.877-0.848 2.22-2.67 3.22-3.24 0.039-0.015 0.08-0.03 0.117-0.044 0.594-0.021 1.19-0.045 1.78-0.066 1.68-0.024 3.36-0.045 5.04-0.067 6.76-0.095 13.5-0.191 20.3-0.285 3.23 3.19 6.46 6.38 9.68 9.57 0.92 0.902 1.84 1.8 2.76 2.71 0.631 0.641 1.26 1.28 1.89 1.92 0.316 0.588 0.187 2.54 0.187 3.32 0.039 2.76 0.08 5.52 0.121 8.28 0 0.157 0.047 1.02-0.06 1.02v0.059" fill="#fff"/></g></g></g></svg>
