<?xml version="1.0" encoding="UTF-8" standalone="no"?>
<svg xmlns:rdf="http://www.w3.org/1999/02/22-rdf-syntax-ns#" xmlns="http://www.w3.org/2000/svg" xml:space="preserve" height="31.042" viewBox="0 0 192.84169 31.042" width="192.84" version="1.1" xmlns:cc="http://creativecommons.org/ns#" xmlns:dc="http://purl.org/dc/elements/1.1/"><g transform="matrix(1.25 0 0 -1.25 -286.26 511.07)"><g><path d="m53.775 1.0938c-1.017 0-1.866 0.3639-2.548 1.0917-0.684 0.7278-1.026 1.633-1.026 2.7149 0 0.9313 0.245 1.6776 0.735 2.2383 0.49 0.5606 1.42 1.1558 2.789 1.7851l1.451 0.668c0.649 0.2941 1.107 0.6082 1.371 0.9412s0.394 0.758 0.394 1.274c0 0.653-0.252 1.233-0.757 1.74-0.506 0.506-1.083 0.76-1.725 0.76-0.828 0-1.626-0.384-2.397-1.149-0.77-0.764-1.311-1.709-1.623-2.834-0.038-0.157-0.1-0.236-0.189-0.236-0.198 0-0.297 0.158-0.297 0.473 0 0.249 0.121 0.819 0.363 1.71 0.159 0.584 0.254 1.029 0.286 1.336 0.031 0.282 0.071 0.451 0.119 0.506 0.047 0.056 0.217 0.113 0.509 0.172 0.21 0.046 0.537 0.145 0.983 0.295 0.954 0.308 1.649 0.463 2.088 0.463 1.074 0 2.011-0.422 2.812-1.268 0.801-0.845 1.201-1.839 1.201-2.98 0-1.036-0.288-1.922-0.867-2.6563-0.49-0.6097-1.491-1.2313-3-1.8672-1.266-0.5309-2.019-0.9149-2.261-1.1504-0.376-0.3659-0.565-0.7979-0.565-1.3008 0-0.5418 0.214-1.0119 0.641-1.4101 0.426-0.3983 0.926-0.5977 1.5-0.5977 0.833 0 1.622 0.3335 2.367 1 0.745 0.667 1.21 1.4564 1.394 2.3711 0.051 0.2486 0.134 0.373 0.248 0.373 0.159 0 0.239-0.14 0.239-0.4218 0-0.0526-0.007-0.1189-0.02-0.1973l-0.094-0.8945-0.125-0.9629c-0.012-0.1116-0.017-0.2288-0.017-0.3535l0.017-0.7969c0-0.2162-0.065-0.3242-0.199-0.3242-0.051 0-0.102 0.0132-0.154 0.039l-0.361 0.1875c-0.096 0.046-0.188 0.0684-0.278 0.0684-0.12 0-0.325-0.0596-0.611-0.1777l-0.639-0.2735c-0.572-0.2359-1.157-0.3554-1.754-0.3554zm16.754 0c-1.602 0-3.003 0.532-4.205 1.5937-0.731 0.649-1.317 1.49-1.756 2.5254-0.438 1.0355-0.656 2.0943-0.656 3.1758 0 1.9723 0.583 3.5743 1.75 4.8063 1.166 1.232 2.684 1.848 4.553 1.848 1.932 0 3.555-0.767 4.871-2.301 0.502-0.59 0.754-1.018 0.754-1.287 0-0.151-0.061-0.223-0.182-0.217-0.083 0.007-0.169 0.064-0.258 0.168l-0.619 0.694c-0.413 0.47-0.98 0.865-1.699 1.181-0.719 0.317-1.4 0.475-2.043 0.475-1.088 0-2.093-0.472-3.016-1.414-1.228-1.263-1.843-2.9545-1.843-5.0744 0-1.6228 0.376-2.9419 1.127-3.959 0.751-1.0175 1.727-1.5254 2.929-1.5254 1.356 0 2.588 0.6144 3.696 1.8438 0.273 0.3011 0.561 0.7073 0.863 1.2207 0.302 0.5133 0.478 0.8944 0.529 1.1425 0.032 0.1571 0.1 0.2364 0.201 0.2364 0.179 0 0.268-0.126 0.268-0.375 0-0.1707-0.021-0.3635-0.059-0.5801l-0.086-0.4414-0.076-0.7481v-0.8945l-0.01-0.7168c0-0.4258-0.097-0.6387-0.294-0.6387-0.084 0-0.14 0.0257-0.172 0.0782l-0.201 0.3046c-0.064 0.1051-0.159 0.1582-0.286 0.1582-0.102 0-0.217-0.0403-0.343-0.1191l-0.629-0.373c-0.884-0.5239-1.919-0.7871-3.108-0.7871zm23.409 0c-0.071 0-0.207 0.25-0.411 0.748v-0.0293l-0.457 0.9219-0.886 1.875c-0.083 0.1834-0.23 0.5191-0.44 1.0097l-2.603 6.1839c-0.407 0.955-0.713 1.581-0.92 1.879-0.207 0.297-0.481 0.504-0.825 0.615-0.178 0.066-0.267 0.165-0.267 0.299 0 0.16 0.089 0.24 0.267 0.24 0.122 0 0.431-0.026 0.928-0.078 0.668-0.065 1.152-0.098 1.451-0.098 0.332 0 0.709 0.042 1.129 0.127 0.21 0.039 0.372 0.059 0.487 0.059 0.216 0 0.331-0.086 0.343-0.26 0.006-0.16-0.11-0.256-0.351-0.289-1.119-0.131-1.68-0.61-1.68-1.434 0-0.222 0.046-0.44 0.135-0.656l0.293-0.756c0.298-0.752 0.566-1.182 0.801-1.293l0.855-0.158h1.293c1.255 0 1.985 0.028 2.191 0.084s0.396 0.274 0.567 0.654c0.551 1.245 0.826 2.052 0.826 2.418 0 0.262-0.1 0.51-0.301 0.746-0.2 0.236-0.453 0.401-0.758 0.493-0.14 0.046-0.209 0.117-0.209 0.21 0 0.188 0.09 0.28 0.268 0.28 0.07 0 0.153-0.014 0.248-0.041 0.395-0.104 1.139-0.155 2.234-0.155 1.089 0 1.884 0.055 2.374 0.166 0.15 0.033 0.28 0.054 0.36 0.061 0.15 0.006 0.22-0.082 0.22-0.262 0-0.166-0.06-0.259-0.17-0.279-0.47-0.085-0.84-0.256-1.137-0.512-0.293-0.255-0.548-0.641-0.764-1.158l-4.338-10.264-0.23-0.5211c-0.248-0.5505-0.422-0.8261-0.523-0.8261zm43.932 0c-1.02 0-1.87 0.3639-2.56 1.0917-0.68 0.7278-1.02 1.633-1.02 2.7149 0 0.9313 0.24 1.6776 0.73 2.2383 0.49 0.5606 1.42 1.1558 2.79 1.7851l1.45 0.668c0.65 0.2941 1.11 0.6082 1.37 0.9412 0.27 0.333 0.4 0.758 0.4 1.274 0 0.653-0.25 1.233-0.76 1.74-0.5 0.506-1.08 0.76-1.72 0.76-0.83 0-1.63-0.384-2.4-1.149-0.77-0.764-1.31-1.709-1.62-2.834-0.04-0.157-0.1-0.236-0.19-0.236-0.2 0-0.3 0.158-0.3 0.473 0 0.249 0.12 0.819 0.36 1.71 0.16 0.584 0.26 1.029 0.29 1.336 0.03 0.282 0.07 0.451 0.12 0.506 0.05 0.056 0.22 0.113 0.51 0.172 0.21 0.046 0.54 0.145 0.98 0.295 0.95 0.308 1.65 0.463 2.09 0.463 1.07 0 2.01-0.422 2.81-1.268 0.8-0.845 1.2-1.839 1.2-2.98 0-1.036-0.29-1.922-0.86-2.6563-0.49-0.6097-1.49-1.2313-3-1.8672-1.27-0.5309-2.02-0.9149-2.27-1.1504-0.37-0.3659-0.56-0.7979-0.56-1.3008 0-0.5418 0.21-1.0119 0.64-1.4101 0.43-0.3983 0.93-0.5977 1.5-0.5977 0.83 0 1.62 0.3335 2.37 1 0.74 0.667 1.21 1.4564 1.39 2.3711 0.05 0.2486 0.14 0.373 0.25 0.373 0.16 0 0.24-0.14 0.24-0.4218 0-0.0526-0.01-0.1189-0.02-0.1973l-0.1-0.8945-0.12-0.9629c-0.01-0.1116-0.02-0.2288-0.02-0.3535l0.02-0.7969c0-0.2162-0.07-0.3242-0.2-0.3242-0.05 0-0.1 0.0132-0.15 0.039l-0.37 0.1875c-0.09 0.046-0.18 0.0684-0.27 0.0684-0.12 0-0.33-0.0596-0.61-0.1777l-0.64-0.2735c-0.57-0.2359-1.16-0.3554-1.75-0.3554zm24 0c-0.07 0-0.2 0.25-0.41 0.748v-0.0293l-0.45 0.9219-0.89 1.875c-0.08 0.1834-0.23 0.5191-0.44 1.0097l-2.6 6.1839c-0.41 0.955-0.72 1.581-0.92 1.879-0.21 0.297-0.48 0.504-0.83 0.615-0.17 0.066-0.26 0.165-0.26 0.299 0 0.16 0.09 0.24 0.26 0.24 0.12 0 0.43-0.026 0.93-0.078 0.67-0.065 1.15-0.098 1.45-0.098 0.33 0 0.71 0.042 1.13 0.127 0.21 0.039 0.37 0.059 0.49 0.059 0.21 0 0.33-0.086 0.34-0.26 0.01-0.16-0.11-0.256-0.35-0.289-1.12-0.131-1.68-0.61-1.68-1.434 0-0.222 0.05-0.44 0.13-0.656l0.3-0.756c0.3-0.752 0.56-1.182 0.8-1.293l0.85-0.158h1.3c1.25 0 1.98 0.028 2.19 0.084s0.39 0.274 0.56 0.654c0.55 1.245 0.83 2.052 0.83 2.418 0 0.262-0.1 0.51-0.3 0.746s-0.45 0.401-0.76 0.493c-0.14 0.046-0.21 0.117-0.21 0.21 0 0.188 0.09 0.28 0.27 0.28 0.07 0 0.15-0.014 0.25-0.041 0.39-0.104 1.14-0.155 2.23-0.155s1.88 0.055 2.37 0.166c0.16 0.033 0.28 0.054 0.36 0.061 0.15 0.006 0.23-0.082 0.23-0.262 0-0.166-0.06-0.259-0.18-0.279-0.46-0.085-0.84-0.256-1.13-0.512-0.29-0.255-0.55-0.641-0.76-1.158l-4.34-10.264-0.23-0.5211c-0.25-0.5505-0.42-0.8261-0.53-0.8261zm-119.23 0.0996l-0.079 0.0097c-0.445 0.092-0.961 0.1367-1.546 0.1367-0.574 0-1.227-0.0351-1.959-0.1074-0.287-0.0269-0.5-0.0355-0.641-0.0293-0.166 0.0066-0.255 0.1106-0.268 0.3106-0.012 0.1269 0.074 0.2101 0.258 0.25 0.63 0.1374 1.055 0.3131 1.278 0.5293 0.222 0.2157 0.334 0.5599 0.334 1.0312 0 0.3729-0.156 0.9847-0.467 1.836-0.299 0.8183-0.54 1.487-0.725 2.0039-0.362 1.0341-0.619 1.7412-0.771 2.1211-0.35 0.8568-0.544 1.3448-0.582 1.4628-0.166 0.491-0.328 0.74-0.487 0.746-0.165 0.007-0.32-0.232-0.466-0.717-0.039-0.111-0.116-0.327-0.231-0.648l-0.408-1.1583-0.992-2.8086c-0.662-1.8656-0.993-3.0038-0.993-3.416 0-0.4254 0.195-0.7047 0.583-0.8359l0.294-0.0977c0.141-0.0464 0.211-0.1237 0.211-0.2305 0-0.2201-0.084-0.3265-0.25-0.3203-0.108 0.0066-0.301 0.0257-0.582 0.0586-0.178 0.0263-0.811 0.0391-1.9 0.0391-0.159 0-0.685-0.0385-1.576-0.1172-0.166-0.0123-0.32-0.0195-0.459-0.0195-0.243 0-0.363 0.0864-0.363 0.2597 0 0.1536 0.086 0.248 0.257 0.2813 0.394 0.0652 0.736 0.3109 1.026 0.7363 0.289 0.4258 0.596 1.1293 0.92 2.1113 0.201 0.6027 0.354 1.0332 0.464 1.2949 0.046 0.1182 0.069 0.2066 0.069 0.2657 0 0.0525-0.026 0.1349-0.076 0.2461-0.128 0.2879-0.281 0.6449-0.459 1.0703-0.332 0.7794-0.577 1.3364-0.737 1.6699-0.465 0.9888-0.707 1.5088-0.726 1.5608-0.268 0.648-0.483 0.972-0.649 0.972-0.139 0-0.289-0.235-0.447-0.707l-0.324-0.923-0.58-1.7485-0.934-2.6797c-0.577-1.6692-0.865-2.6587-0.865-2.9668 0-0.5562 0.282-0.834 0.848-0.834 0.229 0 0.343-0.086 0.343-0.2597 0-0.1804-0.107-0.2715-0.324-0.2715l-0.162 0.0097c-0.586 0.0527-1.1 0.0782-1.539 0.0782-0.255 0-0.58-0.0096-0.975-0.0293l-0.955-0.0489c-0.426-0.0197-0.662-0.0293-0.707-0.0293-0.197 0-0.295 0.0893-0.295 0.2696 0 0.1667 0.08 0.2578 0.239 0.2715 0.457 0.0389 0.858 0.5071 1.201 1.4043l0.513 1.3359c0.025 0.0787 0.306 0.903 0.84 2.4746 0.795 2.3572 1.624 4.5589 2.489 6.6019 0.14 0.327 0.235 0.576 0.287 0.746 0.128 0.438 0.298 0.658 0.509 0.658 0.218 0 0.414-0.203 0.586-0.609 0.039-0.092 0.118-0.259 0.239-0.502 0.285-0.544 0.737-1.503 1.353-2.879 0.617-1.3762 1.024-2.3308 1.221-2.8616 0.178-0.4849 0.33-0.7301 0.457-0.7363 0.108-0.0066 0.203 0.1307 0.285 0.4121 0.393 1.2713 1.084 3.1368 2.072 5.5938 0.266 0.669 0.419 1.055 0.457 1.16 0.109 0.282 0.271 0.422 0.483 0.422 0.173 0 0.301-0.114 0.385-0.344 0.057-0.17 0.266-0.667 0.628-1.492 0.16-0.373 0.531-1.334 1.116-2.879 0.146-0.3863 0.551-1.4234 1.213-3.1132l0.867-2.2207 0.562-1.4238c0.204-0.5435 0.413-0.9477 0.633-1.2129 0.219-0.2652 0.514-0.4629 0.883-0.5937 0.203-0.0735 0.305-0.1831 0.305-0.3301 0-0.1597-0.069-0.2402-0.209-0.2402zm5.853 0.0234c-0.35 0-0.851 0.0263-1.506 0.0762l-0.697 0.0547c-0.528 0.0437-0.968 0.0664-1.324 0.0664-0.54 0-0.925-0.0257-1.155-0.0782-0.228-0.0455-0.401-0.0718-0.515-0.0781-0.153-0.0066-0.229 0.0816-0.229 0.2676 0 0.1199 0.047 0.206 0.139 0.2558 0.092 0.0499 0.301 0.1015 0.625 0.1543 0.541 0.0854 0.912 0.2551 1.115 0.5098 0.204 0.2556 0.305 0.6834 0.305 1.2852v7.8225l-0.01 0.873c0 0.569-0.073 0.977-0.222 1.222-0.15 0.246-0.455 0.453-0.913 0.623l-0.275 0.231 0.02 0.08c0.038 0.141 0.125 0.211 0.265 0.211s0.37-0.032 0.688-0.094c0.368-0.068 0.87-0.103 1.506-0.103 0.514 0 1.185 0.047 2.011 0.144 0.331 0.035 0.586 0.053 0.764 0.053 0.414 0 0.619-0.098 0.619-0.291 0-0.2-0.156-0.299-0.467-0.299-0.477 0-0.862-0.134-1.158-0.402-0.295-0.268-0.482-0.656-0.559-1.16l-0.076-0.983v-8.3572c0-0.5628 0.065-0.9377 0.196-1.1211 0.13-0.1834 0.425-0.3138 0.882-0.3926 0.127-0.0197 0.205-0.0501 0.237-0.0898 0.032-0.0399 0.049-0.1204 0.049-0.2403 0-0.1602-0.106-0.2402-0.315-0.2402zm59.236 0.0156c-0.4 0-1.14 0.0421-2.22 0.127-0.91 0.0722-1.69 0.1094-2.33 0.1094-0.59 0-1.13-0.0276-1.62-0.0801-0.15-0.0194-0.27-0.0293-0.34-0.0293-0.18 0-0.26 0.0928-0.26 0.2793 0 0.1864 0.13 0.2999 0.39 0.3398 0.7 0.0915 1.21 0.3568 1.52 0.7949 0.19 0.2683 0.29 0.7939 0.29 1.5782v7.0994l-0.01 0.383v0.932c0 0.477-0.08 0.832-0.25 1.064s-0.46 0.417-0.9 0.555c-0.12 0.04-0.19 0.132-0.19 0.279 0 0.18 0.12 0.272 0.35 0.272 0.07 0 0.19-0.011 0.37-0.03l0.64-0.054 0.8-0.077c0.33-0.024 0.71-0.037 1.13-0.037 0.51 0 1.04 0.023 1.59 0.069 0.19 0.019 0.32 0.029 0.39 0.029 0.21 0 0.32-0.092 0.32-0.279s-0.13-0.294-0.4-0.321c-0.65-0.065-1.09-0.318-1.32-0.759-0.22-0.442-0.33-1.285-0.33-2.528v-1.992c0-0.2617 0.05-0.4185 0.14-0.4707l0.43-0.0781h0.59c0.51 0 0.87 0.0961 1.09 0.2891 0.22 0.1934 0.51 0.6554 0.85 1.3827 0.88 1.842 1.6 3.092 2.15 3.754s1.15 0.992 1.81 0.992c0.4 0 0.86-0.12 1.38-0.363 0.52-0.242 0.78-0.458 0.78-0.649 0-0.15-0.06-0.226-0.17-0.226-0.07 0-0.13 0.011-0.21 0.031-0.13 0.026-0.26 0.039-0.41 0.039-0.36 0-0.67-0.117-0.93-0.353s-0.56-0.659-0.9-1.268l-0.98-1.797-0.85-1.5525c-0.12-0.2158-0.2-0.3691-0.26-0.4609-0.06-0.0915-0.09-0.1711-0.09-0.2364-0.01-0.0788 0.05-0.1447 0.18-0.1972 0.61-0.2753 1.1-0.6777 1.45-1.209 0.35-0.5309 0.53-1.1225 0.53-1.7715 0-1.0298-0.4-1.8837-1.19-2.5625-0.8-0.6792-1.8-1.0176-3.01-1.0176zm-101.63 0.0488c-0.516 0-1.0228 0.0257-1.5196 0.0782-0.6687 0.0787-1.155 0.1191-1.4609 0.1191-0.1913 0-0.481-0.0192-0.8691-0.0586l-0.4102-0.0312c-0.1593-0.0198-0.2842-0.0316-0.373-0.0391-0.1213-0.0194-0.2139-0.0293-0.2774-0.0293-0.1913 0-0.28515 0.1012-0.28515 0.3008 0 0.1602 0.11975 0.2591 0.36135 0.2988l0.5722 0.0977c0.8456 0.1374 1.2676 0.7294 1.2676 1.7754v8.199c0 0.765-0.0766 1.316-0.2324 1.653-0.1558 0.336-0.4372 0.563-0.8438 0.681-0.1653 0.047-0.248 0.13-0.248 0.25 0 0.174 0.0911 0.26 0.2754 0.26 0.0893 0 0.2645-0.016 0.5254-0.047 0.8516-0.1 1.6454-0.148 2.3828-0.148 0.4451 0 0.8437 0.009 1.1934 0.029l1.039 0.049c0.6482 0.039 1.028 0.061 1.1426 0.068 0.4385 0.032 0.7408 0.049 0.9062 0.049 0.801 0 1.435-0.288 1.898-0.865 0.528-0.655 0.792-1.398 0.792-2.231 0-0.268-0.058-0.402-0.174-0.402-0.071 0-0.246 0.199-0.524 0.598-0.9 1.305-2.4258 1.957-4.5798 1.957-0.4626 0-0.7733-0.043-0.9317-0.127-0.2849-0.151-0.4277-0.837-0.4277-2.061v-8.5195c0-0.8639 0.3204-1.3177 0.9629-1.3632 0.2731-0.0136 0.4101-0.0996 0.4101-0.2598 0-0.1869-0.1902-0.2813-0.5722-0.2813zm6.2934 0c-0.21 0-0.315 0.0769-0.315 0.2305 0 0.1667 0.086 0.2643 0.258 0.291 0.731 0.1046 1.211 0.2867 1.443 0.5489 0.233 0.2612 0.35 0.7595 0.35 1.4922v7.7832c0 0.596-0.036 1.065-0.106 1.412-0.076 0.412-0.18 0.699-0.31 0.859-0.131 0.161-0.376 0.312-0.738 0.456-0.147 0.06-0.218 0.151-0.211 0.271 0.012 0.147 0.095 0.221 0.248 0.221 0.114 0 0.301-0.01 0.562-0.03 0.947-0.059 1.653-0.087 2.117-0.087 0.693 0 1.244 0.019 1.651 0.058l1.105 0.109c0.496 0.052 0.947 0.079 1.354 0.079 0.693 0 1.25-0.11 1.67-0.33 0.419-0.221 0.768-0.587 1.048-1.1 0.337-0.604 0.504-1.229 0.504-1.873 0-0.085-0.026-0.157-0.08-0.213-0.054-0.055-0.112-0.076-0.175-0.063-0.032 0.007-0.071 0.049-0.116 0.127-0.794 1.619-2.481 2.428-5.062 2.428-0.305 0-0.532-0.051-0.678-0.156-0.147-0.105-0.273-0.305-0.381-0.6-0.14-0.405-0.211-1.069-0.211-1.992v-0.883c0-0.7065 0.021-1.2236 0.059-1.5505 0.038-0.2879 0.111-0.4792 0.223-0.5742 0.11-0.095 0.32-0.1406 0.625-0.1406h0.648c0.655 0 1.101 0.0228 1.34 0.0683 0.238 0.046 0.44 0.1476 0.605 0.3047 0.299 0.2889 0.49 0.7105 0.573 1.2676 0.038 0.2622 0.136 0.3867 0.294 0.3727 0.077-0.006 0.127-0.029 0.153-0.068 0.02-0.0332 0.029-0.0956 0.029-0.1875l-0.008-0.502c0-0.3741-0.02-0.8143-0.058-1.3203-0.058-0.7746-0.086-1.2665-0.086-1.4765 0-0.1182 0.007-0.2629 0.019-0.4336 0.02-0.2363 0.028-0.3811 0.028-0.4336 0-0.1839-0.069-0.2738-0.209-0.2676-0.134 0.007-0.228 0.0698-0.286 0.1875l-0.218 0.4824c-0.344 0.7143-0.832 1.0703-1.461 1.0703h-0.811l-0.418 0.0098-0.287 0.0117c-0.331 0-0.537-0.0819-0.623-0.2461-0.086-0.1637-0.129-0.5505-0.129-1.1601v-2.1328-0.002l0.008-0.4023c0-0.5567 0.162-0.8876 0.486-0.9922l0.649-0.0801h1.164c1.03 0 1.775 0.1467 2.236 0.4395 0.461 0.2927 0.692 0.7663 0.692 1.4179 0 0.2959 0.059 0.4399 0.179 0.4336 0.248-0.0127 0.373-0.2691 0.373-0.7676 0-0.249-0.025-0.6587-0.076-1.2285-0.038-0.3869-0.058-0.6537-0.058-0.8047 0-0.2162-0.092-0.3242-0.276-0.3242-0.038 0-0.084 0.0035-0.135 0.0098-0.483 0.059-1.763 0.0879-3.841 0.0879l-3.614-0.0391-0.963-0.0391c-0.197 0-0.354-0.0035-0.468-0.0097-0.146-0.0135-0.241-0.0196-0.285-0.0196zm69.289 0c-0.516 0-1.021 0.0257-1.518 0.0782-0.668 0.0788-1.157 0.1191-1.463 0.1191-0.191 0-0.479-0.0192-0.867-0.0586l-0.412-0.0312c-0.159-0.0198-0.284-0.0316-0.373-0.0391-0.121-0.0194-0.212-0.0293-0.276-0.0293-0.191 0-0.287 0.1012-0.287 0.3008 0 0.1602 0.12 0.2591 0.362 0.2988l0.572 0.0977c0.845 0.1374 1.269 0.7294 1.269 1.7754v8.199c0 0.765-0.079 1.316-0.234 1.653-0.156 0.336-0.437 0.563-0.844 0.681-0.165 0.047-0.248 0.13-0.248 0.25 0 0.174 0.093 0.26 0.278 0.26 0.089 0 0.262-0.016 0.523-0.047 0.852-0.1 1.647-0.148 2.385-0.148 0.445 0 0.842 0.009 1.191 0.029l1.039 0.049c0.649 0.039 1.031 0.061 1.145 0.068 0.439 0.032 0.741 0.049 0.906 0.049 0.801 0 1.432-0.288 1.897-0.865 0.527-0.655 0.791-1.398 0.791-2.231 0-0.268-0.058-0.402-0.174-0.402-0.071 0-0.245 0.199-0.522 0.598-0.9 1.305-2.428 1.957-4.582 1.957-0.463 0-0.773-0.043-0.931-0.127-0.285-0.151-0.426-0.837-0.426-2.061v-8.5195c0-0.8639 0.32-1.3177 0.963-1.3632 0.273-0.0136 0.408-0.0996 0.408-0.2598 0-0.1869-0.191-0.2813-0.572-0.2813zm99.436 0c-0.21 0-0.32 0.0769-0.32 0.2305 0 0.1667 0.09 0.2643 0.26 0.291 0.73 0.1046 1.21 0.2867 1.44 0.5489 0.23 0.2612 0.35 0.7595 0.35 1.4922v7.7832c0 0.596-0.03 1.065-0.1 1.412-0.08 0.412-0.18 0.699-0.31 0.859-0.13 0.161-0.38 0.312-0.74 0.456-0.15 0.06-0.22 0.151-0.21 0.271 0.01 0.147 0.09 0.221 0.24 0.221 0.12 0 0.31-0.01 0.57-0.03 0.94-0.059 1.65-0.087 2.11-0.087 0.7 0 1.25 0.019 1.65 0.058l1.11 0.108c0.5 0.052 0.95 0.08 1.35 0.08 0.7 0 1.25-0.11 1.67-0.33 0.42-0.221 0.77-0.587 1.05-1.1 0.34-0.604 0.51-1.229 0.51-1.873 0-0.085-0.03-0.157-0.08-0.213-0.06-0.055-0.12-0.076-0.18-0.063-0.03 0.007-0.07 0.049-0.11 0.127-0.8 1.619-2.49 2.428-5.07 2.428-0.3 0-0.53-0.051-0.68-0.156-0.14-0.105-0.27-0.305-0.38-0.6-0.14-0.405-0.21-1.069-0.21-1.992v-0.883c0-0.7065 0.02-1.2236 0.06-1.5505 0.04-0.2879 0.11-0.4792 0.22-0.5742 0.12-0.095 0.32-0.1406 0.63-0.1406h0.65c0.65 0 1.1 0.0228 1.34 0.0683 0.24 0.046 0.44 0.1476 0.6 0.3047 0.3 0.2889 0.49 0.7105 0.58 1.2676 0.03 0.2622 0.13 0.3867 0.29 0.3727 0.08-0.006 0.13-0.029 0.15-0.068 0.02-0.0332 0.03-0.0956 0.03-0.1875l-0.01-0.502c0-0.3741-0.02-0.8143-0.05-1.3203-0.06-0.7746-0.09-1.2665-0.09-1.4765 0-0.1182 0.01-0.2629 0.02-0.4336 0.02-0.2363 0.03-0.3811 0.03-0.4336 0-0.1839-0.07-0.2738-0.21-0.2676-0.14 0.007-0.23 0.0698-0.29 0.1875l-0.22 0.4824c-0.34 0.7143-0.83 1.0703-1.46 1.0703h-0.81l-0.42 0.0098-0.28 0.0117c-0.33 0-0.54-0.0819-0.63-0.2461-0.08-0.1637-0.13-0.5505-0.13-1.1601v-2.1328-0.002l0.01-0.4023c0-0.5567 0.17-0.8876 0.49-0.9922l0.65-0.0801h1.16c1.03 0 1.78 0.1467 2.24 0.4395 0.46 0.2927 0.69 0.7663 0.69 1.4179 0 0.2959 0.06 0.4399 0.18 0.4336 0.25-0.0127 0.37-0.2691 0.37-0.7676 0-0.249-0.02-0.6587-0.07-1.2285-0.04-0.3869-0.06-0.6537-0.06-0.8047 0-0.2162-0.09-0.3242-0.28-0.3242-0.04 0-0.08 0.0035-0.13 0.0098-0.49 0.059-1.77 0.0879-3.84 0.0879l-3.62-0.0391-0.96-0.0391c-0.2 0-0.35-0.0035-0.47-0.0097-0.15-0.0135-0.24-0.0196-0.28-0.0196zm-57.62 0.0196c-0.24 0-0.36 0.0832-0.36 0.25 0 0.1808 0.1 0.2715 0.31 0.2715 0.27 0 0.49 0.0576 0.66 0.1757 0.16 0.1178 0.24 0.2762 0.24 0.4727 0 0.5899-0.87 1.6941-2.62 3.3125l-1.34 1.2188-0.93 0.8652c-0.25 0.1964-0.4 0.2949-0.46 0.2949-0.1-0.0065-0.16-0.1301-0.16-0.373v-3.5684l0.01-0.3555c0-0.7597 0.07-1.2522 0.2-1.4785 0.14-0.2258 0.48-0.4139 1.02-0.5644 0.16-0.0403 0.24-0.1199 0.24-0.2403 0-0.1803-0.09-0.2679-0.27-0.2617-0.12 0.0065-0.26 0.0195-0.42 0.0391-0.6 0.0656-1.27 0.0996-2.02 0.0996-0.87 0-1.63-0.0368-2.3-0.1094-0.15-0.0194-0.31-0.0293-0.47-0.0293-0.18 0-0.27 0.0773-0.27 0.2305 0 0.1536 0.02 0.2488 0.05 0.289 0.04 0.0394 0.13 0.0698 0.28 0.0899 0.5 0.0521 0.88 0.1701 1.15 0.3535 0.26 0.1834 0.44 0.4515 0.53 0.8047l0.09 0.5586-0.01 0.3847v7.8788c0 0.831-0.09 1.42-0.26 1.764-0.18 0.343-0.49 0.551-0.95 0.623-0.17 0.034-0.25 0.114-0.25 0.242 0 0.193 0.12 0.287 0.37 0.287s0.58-0.019 0.98-0.058c0.64-0.066 1.31-0.098 2.03-0.098 0.53 0 0.97 0.029 1.31 0.088 0.28 0.052 0.48 0.078 0.6 0.078 0.21 0 0.32-0.099 0.32-0.299 0-0.173-0.18-0.274-0.53-0.301-0.53-0.039-0.89-0.282-1.11-0.73-0.21-0.448-0.32-1.202-0.32-2.262v-0.422c0-0.569 0.02-0.9429 0.06-1.1228 0.05-0.1799 0.15-0.3551 0.31-0.5254l0.41-0.4121 0.29-0.2851c0.11-0.1182 0.21-0.1778 0.29-0.1778 0.11 0 0.26 0.1516 0.43 0.4532 0.21 0.3602 0.74 1.1314 1.61 2.314 0.86 1.183 1.57 2.113 2.11 2.788 0.22 0.275 0.34 0.428 0.36 0.46 0.27 0.341 0.57 0.512 0.9 0.512 0.09 0 0.35-0.026 0.76-0.078 0.22-0.026 0.43-0.039 0.64-0.039 0.43 0 0.96 0.032 1.58 0.098 0.11 0.013 0.21 0.019 0.28 0.019 0.19 0 0.28-0.078 0.29-0.238 0.01-0.167-0.07-0.274-0.23-0.32l-0.2-0.061c-0.92-0.262-1.62-0.654-2.13-1.178-0.71-0.745-1.86-2.243-3.46-4.4938l-0.68-0.9629c-0.29-0.4123-0.43-0.6964-0.43-0.8535 0-0.2224 0.27-0.5646 0.8-1.0293 0.18-0.1567 0.51-0.4721 0.99-0.9434 1.05-1.014 1.86-1.7264 2.42-2.1387 0.57-0.4122 1.07-0.6544 1.52-0.7265 0.28-0.0464 0.42-0.1425 0.42-0.2891 0-0.1935-0.11-0.291-0.34-0.291-0.25 0-0.7 0.0384-1.35 0.1172-0.3 0.0328-0.55 0.0508-0.76 0.0508-0.27 0-0.75-0.0404-1.43-0.1192-0.28-0.0324-0.54-0.0488-0.8-0.0488zm31.6 0.0195c-0.09 0-0.3 0.0064-0.64 0.0195-1.67 0.0853-3.25 0.127-4.74 0.127l-2.32-0.0293-1.94-0.0195c-0.46 0-0.82-0.0096-1.06-0.0293-0.16-0.0123-0.26-0.0196-0.33-0.0196-0.24 0-0.37 0.1273-0.4 0.3829l-0.06 0.5996-0.12 0.875-0.09 0.8554c-0.06 0.3278-0.09 0.5842-0.1 0.7676-0.01 0.2031 0.09 0.3047 0.3 0.3047 0.14 0 0.25-0.1347 0.32-0.4043l0.08-0.2773c0.19-0.7165 0.34-1.1646 0.45-1.3457 0.11-0.1812 0.33-0.3435 0.67-0.4883 0.46-0.1908 1.33-0.2871 2.6-0.2871 0.55 0 0.82 0.2596 0.82 0.7773v8.7281 0.463c0 0.584-0.13 1.044-0.4 1.381-0.27 0.338-0.65 0.522-1.15 0.555-0.19 0.013-0.31 0.042-0.37 0.086-0.06 0.043-0.09 0.136-0.1 0.283-0.01 0.173 0.09 0.26 0.29 0.26 0.08 0 0.23-0.013 0.46-0.039l2.1-0.127c0.3-0.02 0.63-0.031 1-0.031 0.15 0 0.28 0.005 0.38 0.011l1.19 0.078 0.71 0.03c0.12 0.006 0.2 0.009 0.24 0.009 0.2 0 0.3-0.075 0.3-0.228 0-0.214-0.12-0.332-0.35-0.352-0.78-0.052-1.33-0.309-1.64-0.771-0.32-0.462-0.47-1.246-0.47-2.354v-7.402c0-0.6092 0.12-0.9925 0.36-1.1465 0.23-0.1537 0.84-0.2305 1.8-0.2305 0.72 0 1.27 0.1363 1.65 0.4063s0.63 0.71 0.76 1.3222c0.06 0.2504 0.16 0.375 0.31 0.375 0.17 0 0.26-0.108 0.26-0.3242 0-0.2096-0.02-0.4884-0.07-0.8359-0.06-0.4193-0.09-0.6833-0.09-0.7949l-0.05-0.709c-0.02-0.3011-0.21-0.4512-0.56-0.4512zm24.68 0c-0.1 0-0.31 0.0064-0.64 0.0195-1.67 0.0853-3.25 0.127-4.75 0.127l-2.31-0.0293-1.95-0.0195c-0.46 0-0.81-0.0096-1.06-0.0293-0.15-0.0123-0.26-0.0196-0.32-0.0196-0.24 0-0.38 0.1273-0.4 0.3829l-0.07 0.5996-0.11 0.875-0.1 0.8554c-0.06 0.3278-0.09 0.5842-0.09 0.7676-0.02 0.2031 0.08 0.3047 0.29 0.3047 0.15 0 0.26-0.1347 0.33-0.4043l0.07-0.2773c0.19-0.7165 0.34-1.1646 0.45-1.3457 0.12-0.1812 0.34-0.3435 0.68-0.4883 0.46-0.1908 1.33-0.2871 2.6-0.2871 0.54 0 0.81 0.2596 0.81 0.7773v8.7281l0.01 0.463c0 0.584-0.13 1.044-0.4 1.381-0.27 0.338-0.66 0.522-1.15 0.555-0.19 0.013-0.32 0.042-0.38 0.086-0.05 0.043-0.08 0.136-0.09 0.283-0.01 0.173 0.09 0.26 0.29 0.26 0.08 0 0.23-0.013 0.45-0.039l2.11-0.127c0.29-0.02 0.62-0.031 0.99-0.031 0.16 0 0.29 0.005 0.38 0.011l1.2 0.078 0.71 0.03c0.11 0.006 0.19 0.009 0.24 0.009 0.2 0 0.29-0.075 0.29-0.228 0-0.214-0.11-0.332-0.34-0.352-0.79-0.052-1.34-0.309-1.65-0.771s-0.47-1.246-0.47-2.354v-7.402c0-0.6092 0.12-0.9925 0.36-1.1465 0.24-0.1537 0.84-0.2305 1.81-0.2305 0.72 0 1.26 0.1363 1.64 0.4063s0.64 0.71 0.77 1.3222c0.06 0.2504 0.16 0.375 0.31 0.375 0.17 0 0.25-0.108 0.25-0.3242 0-0.2096-0.02-0.4884-0.06-0.8359-0.06-0.4193-0.09-0.6833-0.1-0.7949l-0.05-0.709c-0.01-0.3011-0.2-0.4512-0.55-0.4512zm-73.29 0.6485c0.97 0 1.76 0.3232 2.39 0.9687s0.94 1.4636 0.94 2.4531c0 0.7602-0.23 1.3567-0.7 1.7891-0.23 0.2227-0.48 0.354-0.75 0.3965-0.28 0.0428-0.98 0.0644-2.11 0.0644-0.4 0-0.65-0.0544-0.75-0.166-0.11-0.1116-0.16-0.3772-0.16-0.7969v-3.4004c0-0.498 0.08-0.8409 0.24-1.0273 0.17-0.1868 0.47-0.2812 0.9-0.2812zm-13.324 2.539c0.127 0 0.339 0.3595 0.637 1.0781l1.246 3 0.047 0.1075c0.031 0.0783 0.047 0.1351 0.047 0.1679 0 0.1375-0.121 0.2051-0.362 0.2051h-2.814c-0.457 0-0.686-0.1121-0.686-0.334 0-0.0718 0.024-0.1559 0.069-0.2539l0.105-0.2441 1.111-2.6192 0.182-0.4101c0.203-0.4639 0.342-0.6973 0.418-0.6973zm67.934 0c0.13 0 0.34 0.3595 0.64 1.0781l1.24 3 0.05 0.1075c0.03 0.0783 0.05 0.1351 0.05 0.1679 0 0.1375-0.12 0.2051-0.36 0.2051h-2.82c-0.45 0-0.68-0.1121-0.68-0.334 0-0.0718 0.02-0.1559 0.07-0.2539l0.1-0.2441 1.11-2.6192 0.18-0.4101c0.21-0.4639 0.35-0.6973 0.42-0.6973zm-101.51 2.7832c-0.081 0-0.145 0.0664-0.145 0.1465v0.2246 0.8789 0.2246c0 0.0805 0.064 0.1465 0.145 0.1465h2.859c0.081 0 0.147-0.066 0.147-0.1465v-0.2246-0.8789-0.2246c0-0.0801-0.066-0.1465-0.147-0.1465h-2.859z" transform="matrix(.8 0 0 -.8 229.01 408.85)" fill="#003865"/><path d="m57.039 19.602c-1.501 0-2.746 0.511-3.74 1.535-0.994 1.023-1.492 2.307-1.492 3.853s0.479 2.792 1.439 3.739c0.96 0.946 2.226 1.419 3.795 1.419 1.355 0 2.595-0.364 3.721-1.093 0.209-0.139 0.324-0.272 0.343-0.401l0.028-0.134 0.17-0.913 0.029-0.166 0.006-0.082c0-0.099-0.037-0.147-0.115-0.142-0.069 0.005-0.166 0.141-0.293 0.404-0.273 0.567-0.764 1.05-1.471 1.447-0.707 0.398-1.427 0.596-2.158 0.596-1.254 0-2.279-0.492-3.076-1.475-0.798-0.982-1.198-2.247-1.198-3.796 0-1.347 0.359-2.409 1.077-3.186 0.716-0.777 1.697-1.166 2.941-1.166 1.561 0 2.796 0.81 3.709 2.432 0.117 0.212 0.205 0.317 0.264 0.312 0.048-0.005 0.085-0.03 0.109-0.074l0.021-0.074-0.021-0.186-0.234-1.785c-0.025-0.188-0.077-0.283-0.155-0.283-0.039 0-0.111 0.04-0.218 0.119-0.049 0.04-0.086 0.059-0.11 0.059l-0.125-0.045-0.117-0.051-0.293-0.156c-0.863-0.471-1.808-0.707-2.836-0.707zm14.504 0c-0.736 0-1.453 0.139-2.154 0.419-0.702 0.281-1.283 0.658-1.741 1.133-0.433 0.451-0.779 1.012-1.035 1.684-0.256 0.671-0.383 1.35-0.383 2.033 0 1.576 0.486 2.849 1.458 3.82s2.246 1.457 3.82 1.457c1.535 0 2.795-0.507 3.779-1.523 0.984-1.015 1.477-2.317 1.477-3.902 0-1.497-0.49-2.725-1.467-3.684-0.977-0.958-2.228-1.437-3.754-1.437zm51.897 0c-1.49 0-2.73 0.521-3.73 1.562-0.99 1.042-1.48 2.342-1.48 3.904 0 1.488 0.47 2.708 1.4 3.662 0.94 0.955 2.13 1.432 3.6 1.432 1.09 0 2.11-0.28 3.06-0.84l0.48-0.289c0.27-0.158 0.48-0.248 0.61-0.267 0.11-0.016 0.18-0.036 0.21-0.061l0.04-0.111-0.01-0.239v-2.384l-0.01-0.239c0-0.456 0.19-0.731 0.56-0.82 0.14-0.038 0.22-0.099 0.22-0.182 0-0.092-0.06-0.138-0.17-0.138-0.06 0-0.25 0.013-0.59 0.037-0.12 0.01-0.56 0.016-1.31 0.016l-0.55-0.008-0.29-0.008c-0.17 0-0.26 0.047-0.25 0.139 0 0.106 0.1 0.169 0.29 0.189 0.39 0.03 0.65 0.098 0.78 0.207s0.19 0.315 0.19 0.617v1.674c0 0.481-0.07 0.821-0.23 1.02-0.64 0.813-1.52 1.22-2.65 1.22-1.19 0-2.18-0.486-2.98-1.459s-1.2-2.183-1.2-3.629c0-1.346 0.35-2.445 1.04-3.296 0.7-0.852 1.6-1.278 2.7-1.278 0.89 0 1.72 0.248 2.51 0.742 0.79 0.495 1.38 1.137 1.76 1.928 0.04 0.089 0.09 0.132 0.16 0.127 0.1-0.005 0.14-0.068 0.14-0.187 0-0.055-0.01-0.126-0.03-0.215-0.05-0.189-0.08-0.376-0.1-0.565l-0.08-0.699c-0.03-0.228-0.04-0.397-0.04-0.506 0-0.233-0.05-0.349-0.13-0.349-0.04 0-0.07 0.015-0.11 0.045l-0.17 0.132c-0.06 0.04-0.11 0.061-0.14 0.061s-0.07-0.021-0.13-0.061c-0.38-0.253-0.89-0.464-1.54-0.632-0.65-0.169-1.26-0.252-1.83-0.252zm-17.49 0.082c-0.22 0-0.33 0.067-0.33 0.203 0 0.092 0.08 0.138 0.22 0.138 0.44 0 0.74 0.124 0.89 0.37 0.15 0.245 0.23 0.723 0.23 1.433v6.295 0.484c0 0.596-0.18 0.945-0.53 1.043l-0.28 0.082c-0.13 0.034-0.19 0.092-0.19 0.174 0 0.107 0.08 0.16 0.23 0.16 0.07 0 0.2-0.018 0.38-0.052 0.36-0.06 0.96-0.09 1.81-0.09 0.61 0 1.38 0.045 2.31 0.135 0.24 0.019 0.43 0.029 0.57 0.029 0.65 0 1.19-0.267 1.62-0.801 0.36-0.445 0.54-0.827 0.54-1.148 0-0.134-0.05-0.199-0.14-0.194-0.05 0.006-0.11 0.051-0.16 0.135-0.55 0.878-1.78 1.316-3.69 1.316-0.6 0-0.98-0.051-1.13-0.156-0.15-0.104-0.22-0.366-0.22-0.789v-2.742l-0.01-0.246c0-0.149 0.04-0.249 0.12-0.299 0.08-0.049 0.24-0.074 0.48-0.074h1.61c0.42 0 0.72 0.061 0.89 0.18 0.18 0.119 0.3 0.343 0.35 0.675l0.05 0.209c0.02 0.11 0.08 0.164 0.18 0.164s0.14-0.061 0.14-0.185c0-0.045 0-0.117-0.01-0.215-0.03-0.297-0.04-0.597-0.04-0.898 0-0.396 0.02-0.833 0.06-1.313 0.01-0.074 0.01-0.13 0.01-0.164 0-0.129-0.05-0.196-0.14-0.201-0.1-0.005-0.16 0.056-0.19 0.179-0.06 0.328-0.13 0.536-0.21 0.625s-0.25 0.161-0.51 0.215c-0.3 0.06-0.7 0.09-1.22 0.09h-1.12c-0.21 0-0.34-0.025-0.38-0.072s-0.06-0.183-0.06-0.412v-3.002c0-0.264 0.04-0.434 0.13-0.512 0.09-0.077 0.28-0.115 0.58-0.115h1.15c0.76 0 1.27 0.037 1.55 0.111 0.29 0.075 0.47 0.224 0.57 0.447 0.05 0.144 0.08 0.295 0.08 0.454v0.193c0 0.154 0.05 0.228 0.15 0.223 0.08-0.005 0.13-0.044 0.16-0.116 0.02-0.071 0.05-0.251 0.07-0.537l0.03-0.437c0.03-0.326 0.05-0.523 0.06-0.592 0.02-0.07 0.02-0.125 0.02-0.17 0-0.143-0.08-0.215-0.24-0.215-0.06 0-0.16 0.009-0.29 0.03-0.06 0.01-0.24 0.019-0.53 0.029l-1.03 0.053c-0.46 0.019-0.99 0.029-1.58 0.029-0.98 0-1.82-0.04-2.52-0.119-0.2-0.025-0.37-0.037-0.49-0.037zm27.64 0c-0.22 0-0.33 0.067-0.33 0.203 0 0.092 0.07 0.138 0.21 0.138 0.45 0 0.75 0.124 0.9 0.37 0.15 0.245 0.23 0.723 0.23 1.433v6.295l-0.01 0.484c0 0.596-0.17 0.945-0.52 1.043l-0.28 0.082c-0.13 0.034-0.19 0.092-0.19 0.174 0 0.107 0.08 0.16 0.23 0.16 0.07 0 0.2-0.018 0.38-0.052 0.35-0.06 0.96-0.09 1.81-0.09 0.61 0 1.38 0.045 2.31 0.135 0.24 0.019 0.43 0.029 0.57 0.029 0.65 0 1.19-0.267 1.62-0.801 0.36-0.445 0.53-0.827 0.53-1.148 0-0.134-0.04-0.199-0.13-0.194-0.05 0.006-0.11 0.051-0.16 0.135-0.55 0.878-1.78 1.316-3.69 1.316-0.6 0-0.98-0.051-1.13-0.156-0.15-0.104-0.22-0.366-0.22-0.789v-2.742l-0.01-0.246c0-0.149 0.04-0.249 0.12-0.299 0.08-0.049 0.24-0.074 0.48-0.074h1.61c0.42 0 0.72 0.061 0.89 0.18 0.18 0.119 0.29 0.343 0.35 0.675l0.05 0.209c0.02 0.11 0.08 0.164 0.18 0.164s0.14-0.061 0.14-0.185c0-0.045 0-0.117-0.01-0.215-0.03-0.297-0.04-0.597-0.04-0.898 0-0.396 0.02-0.833 0.06-1.313 0.01-0.074 0.01-0.13 0.01-0.164 0-0.129-0.05-0.196-0.14-0.201-0.1-0.005-0.16 0.056-0.19 0.179-0.06 0.328-0.13 0.536-0.21 0.625s-0.25 0.161-0.51 0.215c-0.3 0.06-0.71 0.09-1.22 0.09h-1.12c-0.21 0-0.34-0.025-0.38-0.072s-0.06-0.183-0.06-0.412v-3.002c0-0.264 0.04-0.434 0.13-0.512 0.09-0.077 0.28-0.115 0.58-0.115h1.15c0.75 0 1.27 0.037 1.55 0.111 0.29 0.075 0.47 0.224 0.57 0.447 0.05 0.144 0.08 0.295 0.08 0.454v0.193c0 0.154 0.05 0.228 0.14 0.223s0.14-0.044 0.17-0.116c0.02-0.071 0.05-0.251 0.07-0.537l0.03-0.437c0.03-0.326 0.05-0.523 0.06-0.592 0.01-0.07 0.02-0.125 0.02-0.17 0-0.143-0.08-0.215-0.24-0.215-0.06 0-0.16 0.009-0.29 0.03-0.07 0.01-0.24 0.019-0.53 0.029l-1.04 0.053c-0.45 0.019-0.98 0.029-1.57 0.029-0.98 0-1.82-0.04-2.52-0.119-0.2-0.025-0.37-0.037-0.49-0.037zm-51.57 0.058c-0.166 0-0.249 0.057-0.249 0.168 0 0.073 0.059 0.121 0.176 0.145l0.328 0.068c0.526 0.109 0.789 0.494 0.789 1.154v6.659l-0.007 0.343c0 0.477-0.057 0.815-0.172 1.016-0.116 0.201-0.344 0.355-0.682 0.459-0.132 0.039-0.197 0.096-0.197 0.174 0 0.092 0.059 0.136 0.182 0.131 0.101-0.006 0.239-0.02 0.41-0.045 0.404-0.06 0.906-0.09 1.506-0.09 0.517 0 1.009 0.018 1.472 0.053l0.789 0.06c0.205 0.015 0.385 0.022 0.541 0.022 0.942 0 1.624-0.269 2.043-0.807 0.297-0.391 0.455-0.75 0.475-1.076 0.004-0.099-0.032-0.147-0.11-0.147-0.068 0-0.136 0.065-0.205 0.2-0.185 0.361-0.614 0.654-1.285 0.875s-1.462 0.33-2.375 0.33c-0.62 0-0.985-0.055-1.097-0.164-0.113-0.109-0.168-0.461-0.168-1.057l-0.008-0.262v-6.472c0-0.78 0.219-1.225 0.658-1.334l0.256-0.059c0.141-0.034 0.213-0.105 0.213-0.211 0-0.073-0.059-0.109-0.176-0.109-0.024 0-0.13 0.003-0.315 0.013-0.364 0.026-0.771 0.037-1.218 0.037-0.413 0-0.785-0.013-1.115-0.043-0.195-0.02-0.348-0.031-0.459-0.031zm11.953 0c-0.166 0-0.248 0.057-0.248 0.168 0 0.073 0.058 0.121 0.175 0.145l0.329 0.068c0.526 0.109 0.789 0.494 0.789 1.154v6.659l-0.008 0.343c0 0.477-0.057 0.815-0.172 1.016-0.116 0.201-0.343 0.355-0.682 0.459-0.132 0.039-0.199 0.096-0.199 0.174 0 0.092 0.061 0.136 0.184 0.131 0.102-0.006 0.239-0.02 0.41-0.045 0.404-0.06 0.906-0.09 1.506-0.09 0.517 0 1.007 0.018 1.47 0.053l0.791 0.06c0.206 0.015 0.386 0.022 0.541 0.022 0.942 0 1.621-0.269 2.041-0.807 0.3-0.391 0.46-0.75 0.48-1.076 0-0.099-0.04-0.147-0.11-0.147s-0.14 0.065-0.21 0.2c-0.18 0.361-0.61 0.654-1.283 0.875-0.671 0.221-1.462 0.33-2.375 0.33-0.62 0-0.985-0.055-1.097-0.164-0.113-0.109-0.17-0.461-0.17-1.057l-0.006-0.262v-6.472c0-0.78 0.22-1.225 0.658-1.334l0.256-0.059c0.141-0.034 0.211-0.105 0.211-0.211 0-0.073-0.057-0.109-0.174-0.109-0.024 0-0.13 0.003-0.314 0.013-0.365 0.026-0.771 0.037-1.219 0.037-0.413 0-0.785-0.013-1.115-0.043-0.195-0.02-0.348-0.031-0.459-0.031zm-22.901 0.344c1.317 0 2.416 0.493 3.299 1.48 0.882 0.988 1.324 2.221 1.324 3.702 0 1.287-0.367 2.35-1.103 3.189-0.737 0.839-1.672 1.26-2.803 1.26-1.239 0-2.284-0.515-3.135-1.545-0.851-1.029-1.277-2.295-1.277-3.795 0-1.312 0.334-2.354 1-3.129 0.665-0.775 1.564-1.162 2.695-1.162zm-57.365 4.43v0.629h31.51v-0.629h-31.51zm133.27 0v0.629h31.51v-0.629h-31.51z" transform="matrix(.8 0 0 -.8 229.01 408.85)" fill="#e10000"/></g></g></svg>
