<svg xmlns="http://www.w3.org/2000/svg" height="98.198" viewBox="0 0 250 98.197632" width="250"><g transform="matrix(1.25 0 0 -1.25 -256.71 545.1)"><g transform="matrix(.31153 0 0 .31153 210.39 273.34)"><path d="m612.84 499.91c-13.649 17.28-36.307 19.609-56.673 19.609h-74.576c-26.732 0-44.587-4.8029-59.595-15.982-7.5634-5.5588-14.378-12.378-20.614-20.666l-0.0448 0.3398c-1.665 13.618-4.5022 36.308-38.904 36.308h-150.3-25.833-74.246c-26.745 0-44.603-4.8029-59.608-15.982-24.544-18.05-41.775-49.8-55.876-102.97-14.806-55.82-13.91-88.36 3.0078-108.83 14.076-16.97 36.73-19.26 57.035-19.26h194.18l23.859 44.952h36.877l4.0626-44.952h185.12c26.606 0 44.298 4.8067 59.091 16.073 18.933 13.901 30.681 36.109 43.292 81.786l6.5294 23.659h-105.46l-4.0992-13.859c-3.4072-11.515-5.7072-17.757-7.1156-21.078-0.78159-0.0152-1.6934-0.0229-2.76-0.0229h-22.226c1.209 6.5438 3.4846 16.726 7.7181 32.406 6.6394 25.091 10.91 36.51 13.136 41.496 0.75308 0.0114 1.6283 0.0191 2.65 0.0191h22.186c-0.56178-2.9283-1.3271-6.5782-2.3814-11.102l-5.349-22.957h105.1l3.6474 14.607c11.626 46.593 11.125 70.012-1.8359 86.398" fill="#fff"/><path d="m135.39 352.45c-29.789 0-46.525 5.3063-60.391 16.32-20.814 16.313-42.836 47.739-62.424 126.49-19.588 78.747-13.47 110.17-0.82227 126.49 8.57 11.018 22.849 16.318 52.639 16.318h94.664c14.396 0 26.691-1.5056 37.389-4.7226l84.465-155.63h-141.84l-14.689 59.162h61.201l-0.41015 2.043c-4.89 20.399-12.65 28.156-16.318 31.014-2.8554 2.444-7.7426 3.2695-19.174 3.2695h-38.764c-12.655 0-15.92-0.82554-17.951-3.2695-2.8633-3.67-4.4936-17.148 9.7891-74.67 14.283-57.534 22.847-70.183 27.336-73.855 2.8534-2.438 6.9345-3.2656 19.59-3.2656h36.725c12.236 0 15.504 1.225 17.129 3.2656 2.0386 2.8632 6.5259 6.1141 1.2285 28.969h84.051c11.016-48.559 7.7543-69.357-3.2617-83.232-8.1686-10.619-24.484-14.689-55.084-14.689h-95.072zm183.8 0 27.697 32.77-137.21 252.85h87.365l30.553-61.373h86.949l5.2051 61.373h92.213l-31.803-258.83c-2.4201-21.112-4.6477-26.783-24.162-26.783h-136.8zm83.842 67.113 5.2188 43.129h45.344l-42.127 26.652 5.1973 43.135-31.238-26.668-42.123 26.668 22.816-43.135-31.244-26.652h45.346l22.811-43.129z" transform="matrix(.8 0 0 -.8 0 792)" fill="#002b5c"/><path d="m603.07 419.63c10.773 46.022 10.12 65.928 1.6373 77.357-6.5285 8.8112-17.637 13.055-41.449 13.055h-76.395c-23.835 0-37.208-4.2442-48.305-13.055-12.224-9.579-24.968-25.702-37.082-58.514l19.242-156.66c2.8931-0.1685 5.9865-0.2622 9.3564-0.2622h76.379c23.828 0 36.879 4.249 47.653 13.052 14.686 11.42 25.135 31.665 37.221 78.346h-65.626c-8.1531-29.379-11.742-33.62-14.364-35.579-2.2763-1.9631-5.8673-2.6069-15.662-2.6069h-29.052c-9.7952 0-12.722 0.6438-14.357 2.6069-1.6357 2.2748-4.2506 8.1579 8.4885 58.429 12.393 49.946 17.955 56.144 20.557 58.425 2.6133 1.9663 5.8863 2.6101 15.67 2.6101h29.049c9.8015 0 13.063-0.6438 14.37-2.6101 1.631-1.9553 3.2603-6.1963-2.9423-34.593h65.611" fill="#b5121b"/></g></g></svg>
