<?xml version="1.0" encoding="UTF-8" standalone="no"?>
<!-- Created with Inkscape (http://www.inkscape.org/) -->

<svg
   xmlns:dc="http://purl.org/dc/elements/1.1/"
   xmlns:cc="http://creativecommons.org/ns#"
   xmlns:rdf="http://www.w3.org/1999/02/22-rdf-syntax-ns#"
   xmlns:svg="http://www.w3.org/2000/svg"
   xmlns="http://www.w3.org/2000/svg"
   xmlns:sodipodi="http://sodipodi.sourceforge.net/DTD/sodipodi-0.dtd"
   xmlns:inkscape="http://www.inkscape.org/namespaces/inkscape"
   version="1.1"
   id="svg2"
   xml:space="preserve"
   width="123.81706"
   height="96.625328"
   viewBox="0 0 123.81706 96.625328"
   sodipodi:docname="Dalton Maag.svg"
   inkscape:version="0.92.1 r15371"><metadata
     id="metadata8"><rdf:RDF><cc:Work
         rdf:about=""><dc:format>image/svg+xml</dc:format><dc:type
           rdf:resource="http://purl.org/dc/dcmitype/StillImage" /><dc:title></dc:title></cc:Work></rdf:RDF></metadata><defs
     id="defs6"><clipPath
       clipPathUnits="userSpaceOnUse"
       id="clipPath18"><path
         d="M 0,72.469 H 92.863 V 0 H 0 Z"
         id="path16"
         inkscape:connector-curvature="0" /></clipPath></defs><sodipodi:namedview
     pagecolor="#ffffff"
     bordercolor="#666666"
     borderopacity="1"
     objecttolerance="10"
     gridtolerance="10"
     guidetolerance="10"
     inkscape:pageopacity="0"
     inkscape:pageshadow="2"
     inkscape:window-width="1920"
     inkscape:window-height="1017"
     id="namedview4"
     showgrid="false"
     fit-margin-top="0"
     fit-margin-left="0"
     fit-margin-right="0"
     fit-margin-bottom="0"
     inkscape:zoom="4.8848472"
     inkscape:cx="84.12006"
     inkscape:cy="57.641133"
     inkscape:window-x="-8"
     inkscape:window-y="-8"
     inkscape:window-maximized="1"
     inkscape:current-layer="g10" /><g
     id="g10"
     inkscape:groupmode="layer"
     inkscape:label="Dalton Maag"
     transform="matrix(1.3333333,0,0,-1.3333333,-1.3333333e-4,96.625331)"><g
       id="g12"><g
         id="g14"
         clip-path="url(#clipPath18)"><g
           id="g20"
           transform="translate(32.4731,24.9846)"><path
             d="m 0,0 c 0,-2.16 -1.586,-3.188 -3.692,-3.188 -1.312,0 -2.015,0.594 -2.015,1.641 0,1.348 0.757,2.231 3.691,2.395 L 0,0.953 Z m -2.375,8.965 c -3.493,0 -5.528,-1.242 -6.051,-4.16 l 3.152,-0.18 c 0.27,1.098 1.078,1.73 2.754,1.73 1.547,0 2.574,-0.613 2.574,-2.449 V 3.277 L -2.36,3.168 c -3.383,-0.16 -6.804,-0.953 -6.804,-4.859 0,-2.918 2.089,-4.211 4.644,-4.211 2.16,0 3.527,0.828 4.61,2.07 h 0.015 v -1.73 h 3.258 v 9.074 c 0,3.418 -1.473,5.453 -5.738,5.453 m -4.899,11.878 c 0,2.809 1.422,4.177 3.098,4.177 1.836,0 2.988,-1.223 2.988,-4.102 V 20.52 c 0,-2.754 -1.242,-3.907 -3.043,-3.907 -1.621,0 -3.043,1.153 -3.043,4.23 m 6.176,-5.382 h 0.016 v -1.747 h 3.851 v 19.551 h -3.957 v -6.768 c -0.738,0.898 -1.926,1.725 -3.996,1.725 -3.891,0 -6.266,-3.023 -6.266,-7.413 0,-5.005 2.325,-7.454 6.176,-7.454 1.942,0 3.348,0.848 4.176,2.106 M -16.11,8.965 c -2.015,0 -3.476,-1.028 -4.285,-2.375 -0.613,1.473 -1.855,2.375 -4.066,2.375 -1.821,0 -3.297,-0.918 -3.996,-2.16 v 1.726 h -4.016 V -5.543 h 4.285 v 8.477 c 0,1.746 1.293,2.664 2.485,2.664 0.968,0 1.656,-0.52 1.656,-2.215 v -8.926 h 4.281 v 8.602 c 0,1.441 1.152,2.539 2.449,2.539 0.973,0 1.672,-0.575 1.672,-2.215 v -8.926 h 4.285 v 9.414 c 0,3.473 -1.761,5.094 -4.75,5.094"
             style="fill:#231f20;fill-opacity:1;fill-rule:nonzero;stroke:none"
             id="path22"
             inkscape:connector-curvature="0" /></g><g
           id="g24"
           transform="translate(46.4922,45.199)"><path
             d="M 0,0 H 0.02 Z M 1.297,-37.781 H 1.281 v -1.695 c 0,-2.301 -1.621,-3.941 -4.5,-3.941 -1.98,0 -2.828,0.937 -2.828,2.449 0,1.961 1.137,2.933 5.078,3.097 l 2.25,0.09 z m -3.238,7.254 c -3.203,0 -5.024,-1.117 -5.528,-3.566 l 1.911,-0.215 c 0.359,1.332 1.242,2.105 3.562,2.105 2.34,0 3.293,-1.078 3.293,-3.527 v -0.484 l -2.43,-0.09 c -3.562,-0.129 -7.035,-0.938 -7.035,-4.719 0,-2.769 1.942,-4.176 4.75,-4.176 2.321,0 3.797,1.043 4.77,2.235 v -1.926 h 2.015 v 8.691 c 0,3.422 -0.933,5.672 -5.308,5.672 m 2.664,10.133 c 0,-2.16 -1.547,-3.563 -4.16,-3.563 -1.692,0 -2.446,0.864 -2.446,2.122 0,1.675 0.969,2.738 4.266,2.882 l 2.34,0.09 z m -2.863,9.07 c -3.403,0 -5.293,-1.293 -5.743,-3.886 l 2.43,-0.161 c 0.289,1.243 1.297,1.942 3.203,1.942 1.981,0 2.973,-0.918 2.973,-3.078 v -0.485 l -2.449,-0.09 c -3.727,-0.125 -6.875,-1.097 -6.875,-4.824 0,-2.863 1.996,-4.211 4.769,-4.211 2.18,0 3.637,0.989 4.61,2.211 v -1.851 h 2.589 v 9.015 c 0,3.367 -1.387,5.418 -5.507,5.418 M 0,-0.953 c 0,-2.16 -1.582,-3.187 -3.687,-3.187 -1.317,0 -2.016,0.574 -2.016,1.637 0,1.351 0.754,2.234 3.688,2.394 L 0,0 H 0.02 0 Z m -2.355,8.981 c -3.492,0 -5.543,-1.242 -6.051,-4.156 l 3.152,-0.18 c 0.27,1.098 1.078,1.726 2.754,1.726 1.531,0 2.555,-0.613 2.555,-2.449 V 2.34 L -2.34,2.231 c -3.382,-0.16 -6.8,-0.953 -6.8,-4.859 0,-2.914 2.086,-4.211 4.64,-4.211 2.16,0 3.531,0.828 4.61,2.07 H 0.129 V -6.5 h 3.258 v 9.075 c 0,3.437 -1.477,5.453 -5.742,5.453 m 1.89,10.133 c 0,-1.926 -1.386,-2.754 -3.187,-2.754 -1.117,0 -1.801,0.504 -1.801,1.496 0,1.152 0.649,1.89 3.043,1.961 l 1.945,0.09 z M -2.5,27.27 c -3.512,0 -5.672,-1.297 -6.176,-4.23 l 3.692,-0.215 c 0.289,1.062 1.078,1.422 2.34,1.422 1.406,0 2.215,-0.629 2.215,-2.051 v -0.613 l -2.594,-0.11 c -3.039,-0.144 -6.426,-1.008 -6.426,-4.859 0,-2.989 2.105,-4.211 4.539,-4.211 2.266,0 3.563,0.844 4.535,1.996 h 0.016 v -1.656 h 3.746 v 8.965 c 0,3.457 -1.496,5.562 -5.887,5.562"
             style="fill:#231f20;fill-opacity:1;fill-rule:nonzero;stroke:none"
             id="path26"
             inkscape:connector-curvature="0" /></g><g
           id="g28"
           transform="translate(81.3789,52.6331)"><path
             d="m 0,0 h 1.852 v -2.215 c 1.136,1.621 2.918,2.649 5.078,2.649 3.148,0 4.554,-2 4.554,-4.879 v -9.489 h -1.91 v 8.821 c 0,2.504 -0.828,3.672 -3.039,3.672 -2.34,0 -4.609,-1.907 -4.609,-4.481 v -8.012 H 0.016 V 0 Z m -12.727,-6.949 c 0,-3.418 1.403,-5.633 4.231,-5.633 2.859,0 4.23,2.18 4.23,5.578 0,3.422 -1.406,5.637 -4.23,5.637 -2.844,0.016 -4.231,-2.18 -4.231,-5.582 m 10.672,0.035 c 0,-4.641 -2.265,-7.449 -6.425,-7.449 -4.176,0 -6.426,2.699 -6.426,7.344 0,4.644 2.34,7.453 6.426,7.453 4.105,0 6.425,-2.793 6.425,-7.348 M -24.516,0.07 h 2.34 v 4.051 h 2.699 V 0.07 h 3.782 v -2.211 h -3.782 v -7.668 c 0,-1.46 0.54,-2.125 1.907,-2.125 0.648,0 1.351,0.106 1.98,0.25 l 0.434,-2.07 c -0.992,-0.285 -2.016,-0.43 -2.969,-0.43 -2.395,0 -4.051,1.243 -4.051,4.375 v 7.684 h -2.34 z m 5.743,-25.254 c 0,3.024 -1.622,4.59 -4.106,4.59 -2.16,0 -4.156,-1.527 -4.156,-5.523 0,-3.891 1.961,-5.258 4.156,-5.258 1.996,0 4.106,1.367 4.106,4.445 z m -9.903,30.817 h 2.719 v -19.567 h -2.719 z m 2,-39.942 c 0.414,-1.711 1.293,-2.339 3.797,-2.339 2.809,0 4.067,1.132 4.067,4.21 v 1.422 c -0.7,-0.972 -2.161,-2.175 -4.536,-2.175 -3.832,0 -5.902,3.293 -5.902,7.035 0,3.855 2.07,7.347 6.012,7.347 2.394,0 3.726,-1.046 4.426,-1.98 v 1.617 h 2.07 v -13.281 c 0,-3.207 -1.528,-5.961 -6.156,-5.961 -3.473,0 -5.399,1.137 -5.832,4.105 z"
             style="fill:#231f20;fill-opacity:1;fill-rule:nonzero;stroke:none"
             id="path30"
             inkscape:connector-curvature="0" /></g></g></g></g></svg>