<?xml version="1.0" encoding="utf-8"?>
<!-- Generator: Adobe Illustrator 21.1.0, SVG Export Plug-In . SVG Version: 6.00 Build 0)  -->
<svg version="1.1" id="Layer_1" xmlns="http://www.w3.org/2000/svg" xmlns:xlink="http://www.w3.org/1999/xlink" x="0px" y="0px"
	 viewBox="0 0 86.55 86.54" style="enable-background:new 0 0 86.55 86.54;" xml:space="preserve">
<style type="text/css">
	.st0{fill:#C3161C;}
	.st1{fill:#FFFFFF;}
</style>
<path class="st0" d="M86.55,79.46c0,3.9-3.19,7.09-7.09,7.09H7.09c-3.9,0-7.09-3.19-7.09-7.09V7.09C0,3.19,3.19,0,7.09,0h72.37
	c3.9,0,7.09,3.19,7.09,7.09V79.46"/>
<polyline class="st1" points="42.41,42.53 42.41,42.53 42.41,42.53 42.41,42.53 "/>
<path class="st1" d="M47.1,34.94c-0.28,0.13-0.54,0.24-0.81,0.34c-1.08,0.44-2.36,0.7-3.88,0.7c-6.72,0-8.83-5.03-8.83-8.85V13.46
	c-0.04-5.41-6.08-5.77-7-5.69l0,19.58c0,9.34,6.83,15.19,15.83,15.19c5.22,0,9.71-1.97,12.56-5.45
	C53.99,35.89,51.16,33.11,47.1,34.94"/>
<path class="st1" d="M51.25,14.73v12.39c0,0.86-0.11,1.78-0.35,2.7c2.84-0.27,5.24,1.65,6.48,2.93c0.56-1.63,0.87-3.44,0.87-5.4
	v-6.87C58.24,14.59,51.25,14.73,51.25,14.73"/>
<path class="st1" d="M12.7,51.02v4.7c0,0.95,0.48,2.19,1.93,2.19s1.93-1.24,1.93-2.19v-4.7h1.04v4.86c0,1.78-1.29,3-2.97,3
	s-2.97-1.22-2.97-3v-4.86H12.7"/>
<polyline class="st1" points="19.7,51.02 21.07,51.02 25.29,57.32 25.31,57.32 25.31,51.02 26.35,51.02 26.35,58.69 25.03,58.69 
	20.76,52.38 20.74,52.38 20.74,58.69 19.7,58.69 19.7,51.02 "/>
<rect x="28.6" y="51.02" class="st1" width="1.04" height="7.67"/>
<polyline class="st1" points="30.83,51.02 32.03,51.02 34.28,57.26 34.31,57.26 36.65,51.02 37.78,51.02 34.76,58.69 33.79,58.69 
	30.83,51.02 "/>
<polyline class="st1" points="38.97,51.02 43.92,51.02 43.92,51.99 40.01,51.99 40.01,54.28 43.65,54.28 43.65,55.26 40.01,55.26 
	40.01,57.71 44.12,57.71 44.12,58.69 38.97,58.69 38.97,51.02 "/>
<path class="st1" d="M45.86,51.02h2.7c1.96,0,2.46,1.18,2.46,2.15c0,0.97-0.72,1.9-1.88,2.03l2.18,3.5h-1.3l-1.95-3.38H46.9v3.38
	h-1.04V51.02 M46.9,54.4h1.36c0.82,0,1.65-0.19,1.65-1.23c0-1.04-0.82-1.24-1.65-1.24H46.9V54.4z"/>
<path class="st1" d="M52.98,57.09c0.37,0.56,1.01,0.82,1.63,0.82c0.68,0,1.53-0.43,1.53-1.28c0-1.77-3.78-0.67-3.78-3.66
	c0-0.9,0.76-2.15,2.6-2.15c0.83,0,1.64,0.17,2.21,0.88l-0.85,0.77c-0.26-0.4-0.77-0.67-1.36-0.67c-1.15,0-1.49,0.69-1.49,1.17
	c0,1.94,3.78,0.78,3.78,3.54c0,1.48-1.19,2.37-2.67,2.37c-0.99,0-1.93-0.34-2.45-1.06L52.98,57.09"/>
<rect x="59.05" y="51.02" class="st1" width="1.04" height="7.67"/>
<polyline class="st1" points="63.93,52 61.46,52 61.46,51.02 67.44,51.02 67.44,52 64.97,52 64.97,58.69 63.93,58.69 63.93,52 "/>
<path class="st1" d="M68.82,51.02h4.95V52h-3.91v2.29h3.64v0.98h-3.64v2.46h4.11v0.97h-5.15V51.02 M71.56,49.03h1.39l-1.61,1.56
	h-0.9L71.56,49.03z"/>
<path class="st1" d="M15.39,63.36c-0.28-0.36-0.84-0.53-1.27-0.53c-0.5,0-1.18,0.23-1.18,0.82c0,1.45,3.67,0.52,3.67,3.31
	c0,1.78-1.43,2.62-3.07,2.62c-1.02,0-1.92-0.31-2.68-1l1.25-1.37c0.36,0.47,0.94,0.75,1.53,0.75c0.57,0,1.22-0.27,1.22-0.83
	c0-1.46-3.74-0.68-3.74-3.33c0-1.7,1.47-2.59,3.04-2.59c0.9,0,1.77,0.24,2.44,0.83L15.39,63.36"/>
<path class="st1" d="M20.08,61.41h1.45L25,69.38h-1.98l-0.69-1.69h-3.09l-0.66,1.69h-1.94L20.08,61.41 M20.76,63.73l-0.97,2.48h1.95
	L20.76,63.73z"/>
<rect x="25.32" y="61.41" class="st1" width="1.76" height="7.97"/>
<polyline class="st1" points="28.23,61.41 30.61,61.41 34,66.95 34.02,66.95 34.02,61.41 35.78,61.41 35.78,69.38 33.48,69.38 
	30.01,63.7 29.98,63.7 29.98,69.38 28.23,69.38 28.23,61.41 "/>
<polyline class="st1" points="38.49,62.96 36.22,62.96 36.22,61.41 42.52,61.41 42.52,62.96 40.24,62.96 40.24,69.38 38.49,69.38 
	38.49,62.96 "/>
<polyline class="st1" points="44.45,61.41 46.21,61.41 46.21,67.76 49.46,67.76 49.46,69.38 44.45,69.38 44.45,61.41 "/>
<path class="st1" d="M53.85,61.21c2.49,0,4.3,1.63,4.3,4.19c0,2.56-1.81,4.19-4.3,4.19c-2.49,0-4.3-1.63-4.3-4.19
	C49.55,62.84,51.36,61.21,53.85,61.21 M53.85,67.96c1.5,0,2.48-1.08,2.48-2.57c0-1.49-0.98-2.57-2.48-2.57
	c-1.5,0-2.48,1.08-2.48,2.57C51.37,66.88,52.35,67.96,53.85,67.96z"/>
<path class="st1" d="M65.6,66.31c0,1.88-1.15,3.27-3.35,3.27c-2.22,0-3.36-1.39-3.36-3.27v-4.89h1.76v4.83
	c0,0.98,0.68,1.72,1.61,1.72c0.92,0,1.6-0.74,1.6-1.72v-4.83h1.76V66.31"/>
<rect x="66.75" y="61.41" class="st1" width="1.76" height="7.97"/>
<path class="st1" d="M73.59,63.36c-0.28-0.36-0.84-0.53-1.27-0.53c-0.5,0-1.18,0.23-1.18,0.82c0,1.45,3.67,0.52,3.67,3.31
	c0,1.78-1.43,2.62-3.07,2.62c-1.02,0-1.92-0.31-2.68-1l1.25-1.37c0.36,0.47,0.94,0.75,1.53,0.75c0.57,0,1.22-0.27,1.22-0.83
	c0-1.46-3.74-0.68-3.74-3.33c0-1.7,1.47-2.59,3.04-2.59c0.9,0,1.77,0.24,2.44,0.83L73.59,63.36"/>
<rect x="41.41" y="65.39" class="st1" width="2" height="2"/>
<path class="st1" d="M26,79.07h-1.77v-5.29h1.63c1.19,0,1.79,0.51,1.79,1.51c0,0.4-0.17,0.74-0.45,0.97
	c0.41,0.24,0.67,0.69,0.67,1.23C27.85,78.66,26.89,79.07,26,79.07 M25.15,78.18h0.79c0.64,0,0.98-0.24,0.98-0.68
	c0-0.7-0.7-0.75-0.92-0.75h-0.85V78.18z M25.15,75.86h0.69c0.75,0,0.87-0.36,0.87-0.57c0-0.31-0.1-0.62-0.8-0.62h-0.75V75.86z"/>
<path class="st1" d="M32.59,79.07h-1.07l-1.35-2.28h-0.46v2.28h-0.93v-5.29h1.5c1.61,0,1.95,0.82,1.95,1.5
	c0,0.72-0.38,1.21-1.09,1.41L32.59,79.07 M29.71,75.9h0.71c0.73,0,0.88-0.34,0.88-0.62c0-0.28-0.15-0.61-0.88-0.61h-0.71V75.9z"/>
<path class="st1" d="M34.98,79.2c-1.27,0-1.99-0.8-1.99-2.21v-3.21h0.93v3.1c0,1.43,0.8,1.43,1.06,1.43c0.26,0,1.06,0,1.06-1.43
	v-3.1h0.93v3.21C36.98,78.37,36.23,79.2,34.98,79.2"/>
<polyline class="st1" points="42.19,79.07 41.04,79.07 39.64,77.08 38.25,79.07 37.12,79.07 39.1,76.3 37.28,73.78 38.4,73.78 
	39.66,75.56 40.9,73.78 42.03,73.78 40.23,76.31 42.19,79.07 "/>
<polyline class="st1" points="45.96,79.07 42.42,79.07 42.42,73.78 45.85,73.78 45.85,74.67 43.36,74.67 43.36,75.9 45.69,75.9 
	45.69,76.79 43.36,76.79 43.36,78.18 45.96,78.18 45.96,79.07 "/>
<polyline class="st1" points="49.9,79.07 46.72,79.07 46.72,73.78 47.66,73.78 47.66,78.18 49.9,78.18 49.9,79.07 "/>
<polyline class="st1" points="53.57,79.07 50.39,79.07 50.39,73.78 51.32,73.78 51.32,78.18 53.57,78.18 53.57,79.07 "/>
<polyline class="st1" points="57.6,79.07 54.06,79.07 54.06,73.78 57.49,73.78 57.49,74.67 54.99,74.67 54.99,75.9 57.33,75.9 
	57.33,76.79 54.99,76.79 54.99,78.18 57.6,78.18 57.6,79.07 "/>
<path class="st1" d="M59.87,79.2c-0.78,0-1.37-0.28-1.76-0.83l-0.14-0.2l0.85-0.57l0.13,0.22c0.19,0.32,0.49,0.49,0.89,0.49
	c0.42,0,0.84-0.22,0.84-0.7c0-0.4-0.28-0.53-0.93-0.74c-0.65-0.21-1.55-0.49-1.55-1.65c0-0.92,0.73-1.56,1.78-1.56
	c0.63,0,1.15,0.24,1.5,0.7l0.15,0.2l-0.78,0.57l-0.14-0.2c-0.19-0.26-0.42-0.38-0.74-0.38c-0.41,0-0.84,0.18-0.84,0.67
	c0,0.48,0.35,0.61,0.97,0.79c0.68,0.2,1.52,0.46,1.52,1.59C61.61,78.65,60.73,79.2,59.87,79.2"/>
</svg>
