<?xml version="1.0" encoding="UTF-8" standalone="no"?>
<!-- Created with Inkscape (http://www.inkscape.org/) -->

<svg
   xmlns:dc="http://purl.org/dc/elements/1.1/"
   xmlns:cc="http://creativecommons.org/ns#"
   xmlns:rdf="http://www.w3.org/1999/02/22-rdf-syntax-ns#"
   xmlns:svg="http://www.w3.org/2000/svg"
   xmlns="http://www.w3.org/2000/svg"
   xmlns:sodipodi="http://sodipodi.sourceforge.net/DTD/sodipodi-0.dtd"
   xmlns:inkscape="http://www.inkscape.org/namespaces/inkscape"
   id="svg2"
   version="1.1"
   inkscape:version="0.48.4 r9939"
   width="100"
   height="51"
   xml:space="preserve"
   sodipodi:docname="fnw_1999_route_map.pdf"><metadata
     id="metadata8"><rdf:RDF><cc:Work
         rdf:about=""><dc:format>image/svg+xml</dc:format><dc:type
           rdf:resource="http://purl.org/dc/dcmitype/StillImage" /><dc:title></dc:title></cc:Work></rdf:RDF></metadata><defs
     id="defs6" /><sodipodi:namedview
     pagecolor="#ffffff"
     bordercolor="#666666"
     borderopacity="1"
     objecttolerance="10"
     gridtolerance="10"
     guidetolerance="10"
     inkscape:pageopacity="0"
     inkscape:pageshadow="2"
     inkscape:window-width="1280"
     inkscape:window-height="738"
     id="namedview4"
     showgrid="false"
     inkscape:zoom="4.2012384"
     inkscape:cx="122.32456"
     inkscape:cy="49.275129"
     inkscape:window-x="-8"
     inkscape:window-y="-8"
     inkscape:window-maximized="1"
     inkscape:current-layer="g10" /><g
     id="g10"
     inkscape:groupmode="layer"
     inkscape:label="fnw_1999_route_map"
     transform="matrix(1.25,0,0,-1.25,0,51)"><g
       id="g5448"
       transform="matrix(1.1119954,0,0,1.1119954,-49.670225,-546.31023)"><g
         id="g5428"><path
           inkscape:connector-curvature="0"
           d="m 46.604197,492.57036 1.223398,0 0,7.19456 0.03009,0 3.34033,-7.19456 1.357661,0 0,9.78487 -1.223399,0 0,-7.20845 -0.02083,0 -3.350748,7.20845 -1.356502,0 0,-9.78487"
           style="fill:#1d326a;fill-opacity:1;fill-rule:nonzero;stroke:none"
           id="path2306" /><path
           inkscape:connector-curvature="0"
           d="m 56.40875,493.61204 c -1.048627,0 -1.511598,1.27433 -1.511598,2.50814 0,1.21993 0.462971,2.49425 1.511598,2.49425 1.04747,0 1.51044,-1.27432 1.51044,-2.49425 0,-1.23381 -0.46297,-2.50814 -1.51044,-2.50814 z m 0,-1.23382 c 1.706045,0 2.681756,1.56253 2.681756,3.74196 0,2.16438 -0.975711,3.72691 -2.681756,3.72691 -1.706046,0 -2.682913,-1.56253 -2.682913,-3.72691 0,-2.17943 0.976867,-3.74196 2.682913,-3.74196"
           style="fill:#1d326a;fill-opacity:1;fill-rule:evenodd;stroke:none"
           id="path2308" /><path
           inkscape:connector-curvature="0"
           d="m 60.115985,492.57036 1.171314,0 0,3.37158 c 0,1.56136 0.637742,2.42481 1.439838,2.42481 0.164355,0 0.339125,-0.0405 0.50348,-0.0683 l 0,1.50813 c -0.103011,0.0139 -0.174771,0.0405 -0.442136,0.0405 -0.719919,0 -1.419004,-0.80788 -1.552108,-1.56253 l -0.02084,0 0,1.37039 -1.099554,0 0,-7.0846"
           style="fill:#1d326a;fill-opacity:1;fill-rule:nonzero;stroke:none"
           id="path2310" /><path
           inkscape:connector-curvature="0"
           d="m 63.227145,498.49059 0.883116,0 0,-4.17947 c 0.02083,-1.17941 0.246531,-1.80905 1.469931,-1.80905 0.256948,0 0.50348,0.0544 0.760428,0.0822 l 0,1.20604 c -0.164354,-0.0555 -0.328709,-0.0555 -0.493063,-0.0555 -0.524314,0 -0.564824,0.32987 -0.564824,0.9734 l 0,3.78246 1.057887,0 0,1.16437 -1.057887,0 0,2.12503 -1.172472,0 0,-2.12503 -0.883116,0 0,-1.16437"
           style="fill:#1d326a;fill-opacity:1;fill-rule:nonzero;stroke:none"
           id="path2312" /><path
           inkscape:connector-curvature="0"
           d="m 67.20869,492.57036 1.172471,0 0,4.17946 c 0,1.04168 0.503483,1.86461 1.284743,1.86461 0.68867,0 1.017379,-0.48033 1.038209,-1.5903 l 0,-4.45377 1.171315,0 0,4.86466 c 0,1.59029 -0.730337,2.41207 -1.880815,2.41207 -0.699085,0 -1.305572,-0.47918 -1.593773,-1.12386 l -0.01965,0 0,3.632 -1.172472,0 0,-9.78487"
           style="fill:#1d326a;fill-opacity:1;fill-rule:nonzero;stroke:none"
           id="path2314" /><path
           inkscape:connector-curvature="0"
           d="m 77.413711,492.57036 1.325252,0 1.501182,7.48275 0.0208,0 1.469931,-7.48275 1.304414,0 2.025494,9.78487 -1.305572,0 -1.366926,-7.48275 -0.0208,0 -1.438678,7.48275 -1.315995,0 -1.479187,-7.48275 -0.02088,0 -1.326409,7.48275 -1.305572,0 1.932896,-9.78487"
           style="fill:#1d326a;fill-opacity:1;fill-rule:nonzero;stroke:none"
           id="path2316" /><path
           inkscape:connector-curvature="0"
           d="m 90.45211,495.70814 c 0.19561,2.12503 -0.832184,4.13895 -2.506982,4.13895 -1.583358,0 -2.569486,-1.72688 -2.569486,-3.7408 0,-2.17943 0.935205,-3.72807 2.59958,-3.72807 1.162059,0 2.148178,0.86344 2.405127,2.41207 l -1.109969,0 c -0.20486,-0.78126 -0.61691,-1.17825 -1.295158,-1.17825 -0.975713,0 -1.428264,0.98613 -1.428264,2.0961 l 3.905152,0 z m -3.905152,1.02779 c 0.03124,1.05557 0.585658,1.8785 1.39817,1.8785 0.790525,0 1.295158,-0.89121 1.335666,-1.8785 l -2.733836,0"
           style="fill:#1d326a;fill-opacity:1;fill-rule:evenodd;stroke:none"
           id="path2318" /><path
           inkscape:connector-curvature="0"
           d="m 91.104904,494.84469 c 0.0208,-1.67131 1.017371,-2.46647 2.354204,-2.46647 1.099554,0 2.373875,0.61691 2.373875,2.30212 0,1.39817 -0.863436,1.80906 -1.716457,2.06948 -0.863444,0.26042 -1.726879,0.37038 -1.726879,1.13775 0,0.61691 0.627324,0.72686 0.966448,0.72686 0.513897,0 0.975713,-0.20602 1.078717,-0.94561 l 1.223405,0 c -0.143521,1.57525 -1.130807,2.17827 -2.219947,2.17827 -0.966448,0 -2.219939,-0.47918 -2.219939,-2.02781 0,-1.43868 0.842606,-1.85072 1.706042,-2.09725 0.853021,-0.26043 1.70605,-0.35649 1.737294,-1.17826 0.03009,-0.80905 -0.740752,-0.93173 -1.182888,-0.93173 -0.626167,0 -1.140064,0.32871 -1.20256,1.23265 l -1.171315,0"
           style="fill:#1d326a;fill-opacity:1;fill-rule:nonzero;stroke:none"
           id="path2320" /><path
           inkscape:connector-curvature="0"
           d="m 96.23461,498.49059 0.883115,0 0,-4.17947 c 0.02088,-1.17941 0.246534,-1.80905 1.469931,-1.80905 0.256949,0 0.503483,0.0544 0.760431,0.0822 l 0,1.20604 c -0.16435,-0.0555 -0.328709,-0.0555 -0.49306,-0.0555 -0.524319,0 -0.564828,0.32987 -0.564828,0.9734 l 0,3.78246 1.057888,0 0,1.16437 -1.057888,0 0,2.12503 -1.172474,0 0,-2.12503 -0.883115,0 0,-1.16437"
           style="fill:#1d326a;fill-opacity:1;fill-rule:nonzero;stroke:none"
           id="path2322" /><path
           inkscape:connector-curvature="0"
           d="m 105.03683,495.70814 c 0.19561,2.12503 -0.83218,4.13895 -2.50814,4.13895 -1.5822,0 -2.569483,-1.72688 -2.569483,-3.7408 0,-2.17943 0.935203,-3.72807 2.600733,-3.72807 1.1609,0 2.14818,0.86344 2.40513,2.41207 l -1.10997,0 c -0.20602,-0.78126 -0.61691,-1.17825 -1.29516,-1.17825 -0.97687,0 -1.42826,0.98613 -1.42826,2.0961 l 3.90515,0 z m -3.90515,1.02779 c 0.0301,1.05557 0.58566,1.8785 1.39701,1.8785 0.79168,0 1.29516,-0.89121 1.33683,-1.8785 l -2.73384,0"
           style="fill:#1d326a;fill-opacity:1;fill-rule:evenodd;stroke:none"
           id="path2324" /><path
           inkscape:connector-curvature="0"
           d="m 105.97782,492.57036 1.17131,0 0,3.37158 c 0,1.56136 0.63659,2.42481 1.43868,2.42481 0.16436,0 0.33913,-0.0405 0.50348,-0.0683 l 0,1.50813 c -0.10301,0.0139 -0.17477,0.0405 -0.44213,0.0405 -0.71876,0 -1.41784,-0.80788 -1.55211,-1.56253 l -0.0197,0 0,1.37039 -1.09955,0 0,-7.0846"
           style="fill:#1d326a;fill-opacity:1;fill-rule:nonzero;stroke:none"
           id="path2326" /><path
           inkscape:connector-curvature="0"
           d="m 109.8089,492.57036 1.17132,0 0,4.17946 c 0,1.04168 0.50463,1.86461 1.28474,1.86461 0.68867,0 1.01853,-0.48033 1.03821,-1.5903 l 0,-4.45377 1.17247,0 0,4.86466 c 0,1.59029 -0.73034,2.41207 -1.88081,2.41207 -0.69909,0 -1.30558,-0.47918 -1.65512,-1.26044 l -0.0209,0.0278 0,1.04053 -1.10997,0 0,-7.0846"
           style="fill:#1d326a;fill-opacity:1;fill-rule:nonzero;stroke:none"
           id="path2328" /><path
           inkscape:connector-curvature="0"
           d="m 113.99638,518.80286 c 0.23842,-0.83591 0.36473,-1.71013 0.36473,-2.60989 0,-5.93647 -5.51639,-10.74894 -12.3214,-10.74894 -1.04594,0 -2.062081,0.11354 -3.031387,0.32783 l 5.898147,13.031 9.08991,0 z m -3.86162,5.49368 c 1.32978,-1.01189 2.32889,-2.18981 3.06403,-3.61184 l -7.56286,0 c 0.30087,0.77204 0.93099,1.41919 1.17225,1.72148 0.69825,0.87564 1.89888,1.62922 3.32658,1.89036 z m -20.415028,-8.10357 c 0,5.93646 5.516387,10.74893 12.319978,10.74893 2.4921,0 4.81105,-0.64573 6.74824,-1.75411 -1.64767,-0.19018 -2.80573,-0.60884 -4.39522,-1.53982 -1.52279,-0.89125 -2.31896,-1.58808 -3.45289,-3.04416 l -4.657779,0 -1.60936,-1.80095 4.883429,0 -7.149874,-9.3113 c -1.681738,1.83785 -2.686524,4.16674 -2.686524,6.70141"
           style="fill:#df0068;fill-opacity:1;fill-rule:evenodd;stroke:none"
           id="path2330" /><path
           inkscape:connector-curvature="0"
           d="m 46.465693,507.37271 4.366844,0 0,5.96911 4.732995,10e-4 0,3.93683 -4.732995,0 0,3.05125 6.091159,0 0,3.90845 -10.458003,0 0,-16.86706"
           style="fill:#1d326a;fill-opacity:1;fill-rule:nonzero;stroke:none"
           id="path2332" /><path
           inkscape:connector-curvature="0"
           d="m 56.926534,507.37271 3.633124,0 0,12.02195 -3.633124,0 0,-12.02195 z"
           style="fill:#1d326a;fill-opacity:1;fill-rule:evenodd;stroke:none"
           id="path2334" /><path
           inkscape:connector-curvature="0"
           d="m 78.462726,516.05105 c -0.09225,3.08106 -2.679429,3.7722 -4.734415,3.7722 -1.908809,0 -4.643586,-0.91537 -4.643586,-3.9496 0,-2.06208 1.267336,-3.25846 4.037593,-3.86161 1.688834,-0.37041 1.877587,-0.71811 1.877587,-1.41352 0,-0.6954 -0.631539,-0.88273 -1.106968,-0.92673 -0.54213,-0.0497 -0.955114,0.23559 -1.139608,0.44421 -0.275323,0.30087 -0.332091,0.61309 -0.349121,1.03033 l -3.607578,0 c 0.05535,-3.10376 2.730519,-4.07449 4.96858,-4.07449 2.311859,0 5.067924,0.9026 5.067924,4.2377 0,1.96983 -1.288624,2.87244 -2.499192,3.35922 -1.211987,0.50949 -2.500611,0.68689 -3.106604,1.01188 -0.201525,0.11495 -0.515166,0.31222 -0.515166,0.65992 0,0.78765 0.661342,0.86429 1.175089,0.86429 0.293772,0 0.583286,-0.13908 0.80326,-0.37041 0.238424,-0.20862 0.268227,-0.74224 0.268227,-0.78339 l 3.503978,0"
           style="fill:#1d326a;fill-opacity:1;fill-rule:nonzero;stroke:none"
           id="path2336" /><path
           inkscape:connector-curvature="0"
           d="m 84.153673,523.21795 -3.797749,0 0,-3.66009 -1.448992,0 0,-2.8256 1.448992,0 0,-5.9095 c 0,-3.28826 1.87191,-3.58913 3.41173,-3.58913 0.770619,0 1.596587,0.13908 2.330308,0.13908 l 0,3.47417 c -0.275323,-0.0468 -0.550645,-0.0695 -0.825968,-0.0695 -0.916796,0 -1.118321,0.48678 -1.118321,1.59801 l 0,4.35691 1.944289,0 0,2.8256 -1.944289,0 0,3.66009"
           style="fill:#1d326a;fill-opacity:1;fill-rule:nonzero;stroke:none"
           id="path2338" /><path
           inkscape:connector-curvature="0"
           d="m 61.731908,507.37271 3.797749,0 0,4.08868 c 0,2.57015 0.808938,3.64164 2.072016,3.64164 0.733721,0 0.698241,-0.003 1.065811,-0.16463 l 0,4.82241 c -0.01419,0.017 -0.655666,0.14334 -1.189281,0.0199 -1.278689,-0.29519 -1.685996,-1.32411 -2.272121,-2.76033 l -0.0369,0.49388 0,1.923 -3.437275,-0.044 0,-12.02053"
           style="fill:#1d326a;fill-opacity:1;fill-rule:nonzero;stroke:none"
           id="path2340" /></g></g></g></svg>