<?xml version="1.0" encoding="UTF-8" standalone="no"?>
<!-- Created with Inkscape (http://www.inkscape.org/) -->

<svg
   xmlns:dc="http://purl.org/dc/elements/1.1/"
   xmlns:cc="http://creativecommons.org/ns#"
   xmlns:rdf="http://www.w3.org/1999/02/22-rdf-syntax-ns#"
   xmlns:svg="http://www.w3.org/2000/svg"
   xmlns="http://www.w3.org/2000/svg"
   xmlns:sodipodi="http://sodipodi.sourceforge.net/DTD/sodipodi-0.dtd"
   xmlns:inkscape="http://www.inkscape.org/namespaces/inkscape"
   width="135.46666mm"
   height="32.041714mm"
   viewBox="0 0 135.46666 32.041714"
   version="1.1"
   id="svg1589"
   inkscape:version="0.92.1 r15371"
   sodipodi:docname="scripps logo.svg">
  <defs
     id="defs1583">
    <clipPath
       clipPathUnits="userSpaceOnUse"
       id="clipPath334">
      <path
         d="m 224,126 h 352 v 60 H 224 Z"
         id="path332"
         inkscape:connector-curvature="0" />
    </clipPath>
  </defs>
  <sodipodi:namedview
     id="base"
     pagecolor="#ffffff"
     bordercolor="#666666"
     borderopacity="1.0"
     inkscape:pageopacity="0.0"
     inkscape:pageshadow="2"
     inkscape:zoom="1.4"
     inkscape:cx="141.5938"
     inkscape:cy="33.288517"
     inkscape:document-units="mm"
     inkscape:current-layer="layer1"
     showgrid="false"
     fit-margin-top="0"
     fit-margin-left="0"
     fit-margin-right="0"
     fit-margin-bottom="0"
     inkscape:window-width="1600"
     inkscape:window-height="838"
     inkscape:window-x="-8"
     inkscape:window-y="-8"
     inkscape:window-maximized="1" />
  <metadata
     id="metadata1586">
    <rdf:RDF>
      <cc:Work
         rdf:about="">
        <dc:format>image/svg+xml</dc:format>
        <dc:type
           rdf:resource="http://purl.org/dc/dcmitype/StillImage" />
        <dc:title></dc:title>
      </cc:Work>
    </rdf:RDF>
  </metadata>
  <g
     inkscape:label="Layer 1"
     inkscape:groupmode="layer"
     id="layer1"
     transform="translate(-31.296428,-101.06248)">
    <g
       transform="matrix(0.53402946,0,0,-0.53402946,-88.326171,200.39191)"
       id="g328"
       style="fill:#33715b;fill-opacity:1">
      <g
         id="g330"
         clip-path="url(#clipPath334)"
         style="fill:#33715b;fill-opacity:1">
        <g
           id="g336"
           transform="translate(300.2218,148.7831)"
           style="fill:#33715b;fill-opacity:1">
          <path
             d="m 0,0 c 0.977,-4.141 4.233,-6.559 7.861,-6.559 3.116,0 6.42,1.814 6.42,5.488 0,6.699 -14.933,8.745 -14.933,16.887 0,3.86 3.536,6.744 8.281,6.744 3.907,0 4.698,-1.163 6.326,-1.163 0.372,0 0.558,0.093 0.837,0.466 h 0.744 l 0.791,-5.908 h -0.791 c -1.302,3.349 -4.279,5.489 -7.489,5.489 -3.07,0 -5.21,-1.768 -5.21,-4.373 0,-6.605 14.932,-8.373 14.932,-16.932 0,-4.559 -4.047,-7.954 -9.489,-7.954 -2.559,0 -5.815,1.256 -6.466,1.256 -0.419,0 -0.744,-0.233 -0.93,-0.511 H 0.093 L -0.884,0 Z"
             style="fill:#33715b;fill-opacity:1;fill-rule:nonzero;stroke:none"
             id="path338"
             inkscape:connector-curvature="0" />
        </g>
        <g
           id="g340"
           transform="translate(348.8837,163.037)"
           style="fill:#33715b;fill-opacity:1">
          <path
             d="m 0,0 c -1.535,4.326 -5.536,7.163 -10.606,7.163 -7.768,0 -12.606,-5.628 -12.606,-13.443 0,-8.419 6.048,-14.607 13.118,-14.607 3.675,0 8.187,1.256 11.35,6.885 H 2.14 c -0.605,-2.093 -1.861,-4.977 -2.978,-6.791 -2.976,0.417 -5.022,-1.256 -10.511,-1.256 -9.444,0 -16.235,6.233 -16.235,14.839 0,9.024 6.977,15.537 16.699,15.537 5.862,0 8.373,-1.861 9.815,-1.861 0.512,0 0.744,0.139 0.838,0.279 H 0.466 L 0.884,0 Z"
             style="fill:#33715b;fill-opacity:1;fill-rule:nonzero;stroke:none"
             id="path342"
             inkscape:connector-curvature="0" />
        </g>
        <g
           id="g344"
           transform="translate(362.191,155.0205)"
           style="fill:#33715b;fill-opacity:1">
          <path
             d="m 0,0 c 1.118,-0.14 1.814,-0.093 2.883,-0.093 5.165,0 8.56,2.186 8.56,7.769 0,4.325 -1.953,7.675 -9.118,7.675 -0.883,0 -1.488,0 -2.325,-0.093 z m 0,-9.173 c 0,-2.791 1.118,-3.488 3.721,-3.488 h 1.07 v -0.884 H -8.372 v 0.884 h 0.79 c 2.745,0 3.721,0.744 3.721,3.86 v 20.012 c 0,2.884 -0.791,3.721 -3.488,3.721 h -1.023 v 0.884 c 1.116,0 3.953,0.185 5.86,0.278 1.907,0.094 2.837,0.141 5.862,0.141 8.604,0 12.466,-3.536 12.466,-8.28 0,-3.489 -2.373,-6.42 -6.188,-7.537 1.721,-1.348 3.118,-2.651 5.304,-4.838 l 3.673,-3.674 c 2.747,-2.744 5.584,-4.466 9.166,-4.698 v -0.838 c -8.141,-0.372 -10.234,1.396 -14.374,5.536 l -3.072,3.07 C 8.28,-2.977 6.652,-1.628 5.534,-0.883 4.373,-0.93 3.628,-0.977 2.371,-0.977 1.35,-0.977 0.745,-0.93 0,-0.883 Z"
             style="fill:#33715b;fill-opacity:1;fill-rule:nonzero;stroke:none"
             id="path346"
             inkscape:connector-curvature="0" />
        </g>
        <g
           id="g348"
           transform="translate(398.6287,141.4657)"
           style="fill:#33715b;fill-opacity:1">
          <path
             d="m 0,0 h -11.302 v 0.884 c 2.883,0.14 3.488,0.883 3.488,4.001 V 24.7 c 0,2.512 -0.883,3.21 -3.488,3.35 v 0.884 H 0 V 28.05 c -2.929,0 -3.953,-0.651 -3.953,-3.768 V 4.559 C -3.953,1.814 -3.21,0.884 0,0.884 Z"
             style="fill:#33715b;fill-opacity:1;fill-rule:nonzero;stroke:none"
             id="path350"
             inkscape:connector-curvature="0" />
        </g>
        <g
           id="g352"
           transform="translate(412.9246,155.3706)"
           style="fill:#33715b;fill-opacity:1">
          <path
             d="m 0,0 c 0.603,-0.14 1.627,-0.374 2.512,-0.374 5.07,0 8.325,3.442 8.325,8.141 0,3.629 -1.441,7.21 -7.629,7.21 -1.069,0 -2.093,0 -3.208,-0.186 z m 0,-9.239 c 0,-2.605 0.79,-3.582 3.721,-3.582 h 1.534 v -0.884 H -7.629 v 0.884 h 0.651 c 2.419,0 3.115,0.512 3.115,2.698 V 11.88 c 0,1.72 -0.558,2.465 -2.186,2.465 h -2.325 v 0.884 c 1.303,0.046 3.582,0.186 5.862,0.28 2.279,0.092 4.511,0.139 5.768,0.139 9.722,0 11.953,-4.652 11.953,-8.234 0,-5.442 -4.372,-8.884 -11.256,-8.884 -1.396,0 -2.558,0.093 -3.953,0.371 z"
             style="fill:#33715b;fill-opacity:1;fill-rule:nonzero;stroke:none"
             id="path354"
             inkscape:connector-curvature="0" />
        </g>
        <g
           id="g356"
           transform="translate(439.5844,155.1483)"
           style="fill:#33715b;fill-opacity:1">
          <path
             d="m 0,0 c 0.606,-0.14 1.629,-0.372 2.512,-0.372 5.071,0 8.326,3.442 8.326,8.14 0,3.629 -1.442,7.21 -7.629,7.21 -1.069,0 -2.093,0 -3.209,-0.186 z m 0,-9.024 c 0,-2.606 0.79,-3.582 3.721,-3.582 H 5.256 V -13.49 H -7.629 v 0.884 h 0.651 c 2.419,0 3.119,0.511 3.119,2.698 v 22.002 c 0,1.721 -0.56,2.466 -2.187,2.466 h -2.327 v 0.883 c 1.303,0.047 3.582,0.187 5.861,0.279 2.28,0.094 4.512,0.14 5.769,0.14 9.721,0 11.955,-4.652 11.955,-8.233 0,-5.443 -4.374,-8.885 -11.258,-8.885 -1.395,0 -2.558,0.093 -3.954,0.373 z"
             style="fill:#33715b;fill-opacity:1;fill-rule:nonzero;stroke:none"
             id="path358"
             inkscape:connector-curvature="0" />
        </g>
        <g
           id="g360"
           transform="translate(459.8999,148.646)"
           style="fill:#33715b;fill-opacity:1">
          <path
             d="m 0,0 c 0.977,-4.141 4.233,-6.559 7.861,-6.559 3.118,0 6.42,1.814 6.42,5.489 0,6.698 -14.932,8.745 -14.932,16.885 0,3.862 3.536,6.746 8.28,6.746 3.908,0 4.698,-1.164 6.326,-1.164 0.373,0 0.558,0.093 0.838,0.466 h 0.744 l 0.791,-5.908 h -0.791 c -1.302,3.349 -4.279,5.489 -7.49,5.489 -3.069,0 -5.21,-1.767 -5.21,-4.373 0,-6.605 14.932,-8.373 14.932,-16.932 0,-4.559 -4.047,-7.954 -9.49,-7.954 -2.556,0 -5.813,1.256 -6.464,1.256 -0.42,0 -0.744,-0.233 -0.931,-0.511 H 0.093 L -0.884,0 Z"
             style="fill:#33715b;fill-opacity:1;fill-rule:nonzero;stroke:none"
             id="path362"
             inkscape:connector-curvature="0" />
        </g>
        <g
           id="g364"
           transform="translate(303.4417,131.3675)"
           style="fill:#33715b;fill-opacity:1">
          <path
             d="m 0,0 c 0,-0.581 0.193,-0.785 0.849,-0.785 h 0.397 v -0.203 h -3.385 v 0.203 h 0.398 c 0.655,0 0.848,0.204 0.848,0.785 v 5.309 h -1.869 c -0.43,0 -0.624,-0.247 -0.785,-1.193 H -3.74 l 0.172,1.741 h 0.204 C -3.353,5.792 -3.31,5.75 -3.246,5.728 -3.182,5.707 -3.106,5.696 -3.031,5.696 h 5.169 c 0.151,0 0.311,0.032 0.334,0.161 H 2.676 L 2.847,4.116 H 2.654 C 2.493,5.062 2.299,5.309 1.87,5.309 H 0 Z"
             style="fill:#33715b;fill-opacity:1;fill-rule:nonzero;stroke:none"
             id="path366"
             inkscape:connector-curvature="0" />
        </g>
        <g
           id="g368"
           transform="translate(311.4415,133.5714)"
           style="fill:#33715b;fill-opacity:1">
          <path
             d="m 0,0 v -2.042 c 0,-0.7 0.14,-0.947 0.859,-0.947 h 0.033 v -0.203 h -2.697 v 0.203 h 0.064 c 0.634,0 0.849,0.172 0.849,0.785 v 4.729 c 0,0.558 -0.182,0.719 -0.774,0.763 V 3.492 H 0.892 V 3.288 C 0.129,3.288 0,3.083 0,2.256 v -1.87 h 4.213 v 2.117 c 0,0.569 -0.183,0.785 -0.849,0.785 H 3.16 V 3.492 H 5.921 V 3.288 C 5.277,3.266 5.105,3.072 5.105,2.406 v -4.459 c 0,-0.764 0.215,-0.936 0.859,-0.936 H 6.072 V -3.192 H 3.03 v 0.203 h 0.334 c 0.698,0 0.849,0.247 0.849,0.807 V 0 Z"
             style="fill:#33715b;fill-opacity:1;fill-rule:nonzero;stroke:none"
             id="path370"
             inkscape:connector-curvature="0" />
        </g>
        <g
           id="g372"
           transform="translate(325.4939,132.7966)"
           style="fill:#33715b;fill-opacity:1">
          <path
             d="m 0,0 h -0.204 c -0.086,0.764 -0.29,0.849 -0.73,0.849 H -2.751 V -1.44 c 0,-0.494 0.183,-0.591 0.58,-0.591 h 1.655 c 0.753,0 0.978,0.29 1.247,1.215 H 0.924 L 0.752,-2.417 h -5.706 v 0.203 h 0.301 c 0.86,0 1.01,0.237 1.01,0.882 v 4.535 c 0,0.601 -0.139,0.86 -0.86,0.86 H -4.739 V 4.267 H 0.419 L 0.505,2.773 H 0.312 C 0.172,3.686 -0.097,3.879 -0.484,3.879 H -2.751 V 1.236 h 1.924 c 0.386,0 0.57,0.183 0.623,0.806 H 0 Z"
             style="fill:#33715b;fill-opacity:1;fill-rule:nonzero;stroke:none"
             id="path374"
             inkscape:connector-curvature="0" />
        </g>
        <g
           id="g376"
           transform="translate(341.3708,136.3973)"
           style="fill:#33715b;fill-opacity:1">
          <path
             d="M 0,0 C 0.118,0.289 0.043,0.462 -0.268,0.462 H -0.72 c -0.279,0 -0.43,-0.108 -0.301,-0.397 l 0.538,-1.247 z M 0.741,-6.19 -0.667,-2.869 -2.02,-6.19 h -0.527 l -2.235,5.717 c -0.323,0.816 -0.581,0.935 -1.269,0.935 h -0.064 v 0.204 h 2.784 V 0.462 h -0.183 c -0.506,0 -0.699,-0.226 -0.516,-0.677 l 1.956,-4.922 1.16,2.869 -0.87,2.118 C -1.999,0.376 -2.321,0.462 -2.891,0.462 V 0.666 H 1.516 V 0.462 c -0.667,0 -0.892,-0.161 -1.065,-0.57 L -0.236,-1.784 1.172,-5.137 3.074,-0.15 C 3.245,0.289 3.105,0.44 2.321,0.462 V 0.666 H 4.545 V 0.462 C 3.89,0.462 3.739,0.333 3.417,-0.517 L 1.257,-6.19 Z"
             style="fill:#33715b;fill-opacity:1;fill-rule:nonzero;stroke:none"
             id="path378"
             inkscape:connector-curvature="0" />
        </g>
        <g
           id="g380"
           transform="translate(352.8975,136.9561)"
           style="fill:#33715b;fill-opacity:1">
          <path
             d="m 0,0 c -1.892,0 -2.644,-1.763 -2.644,-3.052 0,-2.01 1.364,-3.428 3.095,-3.428 1.752,0 2.59,1.547 2.59,3.074 C 3.041,-1.408 1.773,0 0,0 m 0.225,-6.749 c -2.106,0 -3.879,1.354 -3.879,3.364 0,2.138 1.645,3.653 3.933,3.653 2.032,0 3.772,-1.386 3.772,-3.32 0,-2.172 -1.74,-3.697 -3.826,-3.697"
             style="fill:#33715b;fill-opacity:1;fill-rule:nonzero;stroke:none"
             id="path382"
             inkscape:connector-curvature="0" />
        </g>
        <g
           id="g384"
           transform="translate(364.7688,130.3792)"
           style="fill:#33715b;fill-opacity:1">
          <path
             d="M 0,0 -2.741,5.728 H -2.762 L -3.053,0.892 C -3.085,0.343 -2.676,0.225 -2.193,0.204 V 0 h -2.235 v 0.204 c 0.785,0 0.881,0.172 0.935,1.149 l 0.258,4.181 c 0.043,0.709 0.021,0.903 -0.645,0.946 v 0.194 h 1.623 l 2.589,-5.416 2.58,5.416 h 1.58 V 6.48 C 3.965,6.437 3.761,6.426 3.783,6.061 L 4.126,1.193 C 4.19,0.204 4.276,0.204 5.061,0.204 V 0 H 2.299 v 0.204 c 0.505,0 1,0.139 0.957,0.709 L 2.943,5.728 H 2.922 L 0.247,0 Z"
             style="fill:#33715b;fill-opacity:1;fill-rule:nonzero;stroke:none"
             id="path386"
             inkscape:connector-curvature="0" />
        </g>
        <g
           id="g388"
           transform="translate(377.724,132.7966)"
           style="fill:#33715b;fill-opacity:1">
          <path
             d="m 0,0 h -0.204 c -0.087,0.764 -0.29,0.849 -0.731,0.849 H -2.751 V -1.44 c 0,-0.494 0.183,-0.591 0.58,-0.591 h 1.655 c 0.753,0 0.979,0.29 1.247,1.215 H 0.925 L 0.752,-2.417 h -5.706 v 0.203 h 0.3 c 0.861,0 1.011,0.237 1.011,0.882 v 4.535 c 0,0.601 -0.14,0.86 -0.86,0.86 H -4.739 V 4.267 H 0.42 L 0.505,2.773 H 0.312 C 0.172,3.686 -0.097,3.879 -0.483,3.879 H -2.751 V 1.236 h 1.924 c 0.386,0 0.57,0.183 0.623,0.806 H 0 Z"
             style="fill:#33715b;fill-opacity:1;fill-rule:nonzero;stroke:none"
             id="path390"
             inkscape:connector-curvature="0" />
        </g>
        <g
           id="g392"
           transform="translate(389.1019,130.3035)"
           style="fill:#33715b;fill-opacity:1">
          <path
             d="m 0,0 -5.568,5.825 v -4.61 c 0,-0.774 0.173,-0.936 1.086,-0.936 V 0.076 h -2.492 v 0.203 h 0.042 c 0.666,0 0.881,0.226 0.881,0.721 v 5.286 c -0.246,0.173 -0.526,0.259 -0.902,0.27 V 6.76 h 1.687 L -0.204,1.483 V 5.76 c 0,0.655 -0.194,0.774 -1.054,0.796 V 6.76 H 1.257 V 6.556 C 0.451,6.556 0.279,6.415 0.279,5.997 V 0 Z"
             style="fill:#33715b;fill-opacity:1;fill-rule:nonzero;stroke:none"
             id="path394"
             inkscape:connector-curvature="0" />
        </g>
        <g
           id="g396"
           transform="translate(394.0192,135.1936)"
           style="fill:#33715b;fill-opacity:1">
          <path
             d="m 0,0 c 0.538,0.312 0.828,0.687 0.828,1.075 0,0.129 -0.042,0.226 -0.15,0.226 -0.098,0 -0.14,-0.033 -0.259,-0.033 -0.279,0 -0.483,0.204 -0.483,0.483 0,0.291 0.258,0.527 0.58,0.527 0.43,0 0.752,-0.376 0.752,-0.892 0,-0.666 -0.482,-1.311 -1.193,-1.58 z"
             style="fill:#33715b;fill-opacity:1;fill-rule:nonzero;stroke:none"
             id="path398"
             inkscape:connector-curvature="0" />
        </g>
        <g
           id="g400"
           transform="translate(399.3776,132.0126)"
           style="fill:#33715b;fill-opacity:1">
          <path
             d="m 0,0 c 0.226,-0.957 0.978,-1.515 1.816,-1.515 0.72,0 1.483,0.419 1.483,1.267 0,1.549 -3.449,2.021 -3.449,3.901 0,0.892 0.816,1.559 1.912,1.559 0.903,0 1.086,-0.268 1.462,-0.268 0.086,0 0.129,0.021 0.194,0.107 H 3.589 L 3.772,3.686 H 3.589 c -0.3,0.774 -0.988,1.268 -1.73,1.268 -0.709,0 -1.204,-0.409 -1.204,-1.01 0,-1.526 3.45,-1.934 3.45,-3.912 0,-1.053 -0.935,-1.837 -2.192,-1.837 -0.591,0 -1.343,0.29 -1.493,0.29 -0.097,0 -0.173,-0.054 -0.215,-0.118 H 0.022 L -0.204,0 Z"
             style="fill:#33715b;fill-opacity:1;fill-rule:nonzero;stroke:none"
             id="path402"
             inkscape:connector-curvature="0" />
        </g>
        <g
           id="g404"
           transform="translate(419.2525,135.301)"
           style="fill:#33715b;fill-opacity:1">
          <path
             d="m 0,0 c -0.355,1 -1.279,1.655 -2.451,1.655 -1.794,0 -2.912,-1.301 -2.912,-3.106 0,-1.945 1.397,-3.374 3.031,-3.374 0.849,0 1.891,0.289 2.623,1.591 h 0.203 c -0.139,-0.484 -0.43,-1.151 -0.687,-1.57 -0.688,0.097 -1.161,-0.29 -2.429,-0.29 -2.181,0 -3.751,1.441 -3.751,3.429 0,2.083 1.612,3.588 3.858,3.588 1.354,0 1.935,-0.429 2.268,-0.429 0.119,0 0.171,0.032 0.194,0.064 H 0.108 L 0.203,0 Z"
             style="fill:#33715b;fill-opacity:1;fill-rule:nonzero;stroke:none"
             id="path406"
             inkscape:connector-curvature="0" />
        </g>
        <g
           id="g408"
           transform="translate(427.059,136.9561)"
           style="fill:#33715b;fill-opacity:1">
          <path
             d="m 0,0 c -1.892,0 -2.643,-1.763 -2.643,-3.052 0,-2.01 1.364,-3.428 3.094,-3.428 1.752,0 2.59,1.547 2.59,3.074 C 3.041,-1.408 1.773,0 0,0 m 0.226,-6.749 c -2.106,0 -3.879,1.354 -3.879,3.364 0,2.138 1.644,3.653 3.932,3.653 2.032,0 3.772,-1.386 3.772,-3.32 0,-2.172 -1.74,-3.697 -3.825,-3.697"
             style="fill:#33715b;fill-opacity:1;fill-rule:nonzero;stroke:none"
             id="path410"
             inkscape:connector-curvature="0" />
        </g>
        <g
           id="g412"
           transform="translate(439.3817,130.3792)"
           style="fill:#33715b;fill-opacity:1">
          <path
             d="m 0,0 h -4.804 v 0.204 h 0.355 c 0.494,0 0.676,0.161 0.676,0.709 v 4.761 c 0,0.569 -0.171,0.806 -0.849,0.806 h -0.149 v 0.204 h 3.169 V 6.48 H -2 c -0.697,0 -0.88,-0.076 -0.88,-0.741 V 0.785 c 0,-0.291 0.118,-0.399 0.429,-0.399 h 1.581 c 0.634,0 0.827,0.248 1.504,1.183 h 0.193 z"
             style="fill:#33715b;fill-opacity:1;fill-rule:nonzero;stroke:none"
             id="path414"
             inkscape:connector-curvature="0" />
        </g>
        <g
           id="g416"
           transform="translate(447.9949,130.3792)"
           style="fill:#33715b;fill-opacity:1">
          <path
             d="m 0,0 h -4.804 v 0.204 h 0.355 c 0.494,0 0.677,0.161 0.677,0.709 v 4.761 c 0,0.569 -0.173,0.806 -0.849,0.806 h -0.151 v 0.204 h 3.171 V 6.48 H -1.999 C -2.698,6.48 -2.88,6.404 -2.88,5.739 V 0.785 c 0,-0.291 0.118,-0.399 0.43,-0.399 h 1.579 c 0.634,0 0.827,0.248 1.505,1.183 h 0.192 z"
             style="fill:#33715b;fill-opacity:1;fill-rule:nonzero;stroke:none"
             id="path418"
             inkscape:connector-curvature="0" />
        </g>
        <g
           id="g420"
           transform="translate(456.5758,132.7966)"
           style="fill:#33715b;fill-opacity:1">
          <path
             d="m 0,0 h -0.205 c -0.085,0.764 -0.29,0.849 -0.73,0.849 H -2.752 V -1.44 c 0,-0.494 0.183,-0.591 0.581,-0.591 h 1.655 c 0.752,0 0.978,0.29 1.246,1.215 H 0.924 L 0.752,-2.417 h -5.706 v 0.203 h 0.3 c 0.861,0 1.01,0.237 1.01,0.882 v 4.535 c 0,0.601 -0.139,0.86 -0.859,0.86 H -4.739 V 4.267 H 0.42 L 0.505,2.773 H 0.311 C 0.172,3.686 -0.097,3.879 -0.484,3.879 H -2.752 V 1.236 h 1.924 c 0.387,0 0.57,0.183 0.623,0.806 H 0 Z"
             style="fill:#33715b;fill-opacity:1;fill-rule:nonzero;stroke:none"
             id="path422"
             inkscape:connector-curvature="0" />
        </g>
        <g
           id="g424"
           transform="translate(467.5984,130.8839)"
           style="fill:#33715b;fill-opacity:1">
          <path
             d="m 0,0 c -1.064,-0.548 -2.429,-0.677 -2.88,-0.677 -2.354,0 -3.45,1.816 -3.45,3.386 0,1.611 1.129,3.631 3.751,3.631 1.149,0 1.913,-0.365 2.138,-0.365 0.097,0 0.183,0.021 0.248,0.075 h 0.15 V 4.31 h -0.215 c -0.291,1.342 -1.204,1.762 -2.203,1.762 -1.891,0 -2.859,-1.569 -2.859,-3.299 0,-2.203 1.548,-3.181 2.784,-3.181 0.495,0 1.042,0.107 1.644,0.408 v 1.354 c 0,0.613 -0.215,0.817 -0.859,0.817 H -2.149 V 2.365 H 0.752 V 2.171 C 0.214,2.139 0,1.956 0,1.494 Z"
             style="fill:#33715b;fill-opacity:1;fill-rule:nonzero;stroke:none"
             id="path426"
             inkscape:connector-curvature="0" />
        </g>
        <g
           id="g428"
           transform="translate(476.2777,132.7966)"
           style="fill:#33715b;fill-opacity:1">
          <path
             d="m 0,0 h -0.205 c -0.085,0.764 -0.29,0.849 -0.73,0.849 H -2.751 V -1.44 c 0,-0.494 0.183,-0.591 0.58,-0.591 h 1.655 c 0.753,0 0.978,0.29 1.246,1.215 H 0.924 L 0.752,-2.417 h -5.706 v 0.203 h 0.301 c 0.86,0 1.01,0.237 1.01,0.882 v 4.535 c 0,0.601 -0.139,0.86 -0.86,0.86 H -4.739 V 4.267 H 0.42 L 0.505,2.773 H 0.312 C 0.172,3.686 -0.097,3.879 -0.484,3.879 H -2.751 V 1.236 h 1.924 c 0.386,0 0.57,0.183 0.622,0.806 H 0 Z"
             style="fill:#33715b;fill-opacity:1;fill-rule:nonzero;stroke:none"
             id="path430"
             inkscape:connector-curvature="0" />
        </g>
        <g
           id="g432"
           transform="translate(266.9515,177.8043)"
           style="fill:#33715b;fill-opacity:1">
          <path
             d="m 0,0 c -2.126,-2.168 -3.451,-5.106 -3.49,-8.344 -0.258,-0.001 -3.888,-0.012 -4.174,-0.013 0.038,4.105 1.609,7.852 4.168,10.714 C -3.592,2.4 -3.688,2.444 -3.787,2.485 -6.39,-0.454 -7.973,-4.3 -7.973,-8.507 v -0.149 l 4.777,0.016 v 0.148 c 0,3.215 1.3,6.136 3.405,8.283 C 0.14,-0.139 0.071,-0.068 0,0"
             style="fill:#33715b;fill-opacity:1;fill-rule:nonzero;stroke:none"
             id="path434"
             inkscape:connector-curvature="0" />
        </g>
        <g
           id="g436"
           transform="translate(275.8589,185.9999)"
           style="fill:#33715b;fill-opacity:1">
          <path
             d="m 0,0 c -3.194,0 -6.184,-0.883 -8.734,-2.414 0.097,-0.058 0.191,-0.121 0.287,-0.181 2.474,1.458 5.363,2.298 8.447,2.298 9.091,0 16.489,-7.273 16.571,-16.242 H 12.502 C 12.419,-9.866 6.847,-4.461 0,-4.461 c -1.766,0 -3.445,-0.369 -4.967,-1.028 0.07,-0.076 0.136,-0.155 0.205,-0.233 1.462,0.619 3.072,0.964 4.762,0.964 6.731,0 12.207,-5.352 12.207,-11.93 v -0.148 h 4.674 v 0.148 C 16.881,-7.486 9.308,0 0,0"
             style="fill:#33715b;fill-opacity:1;fill-rule:nonzero;stroke:none"
             id="path438"
             inkscape:connector-curvature="0" />
        </g>
        <g
           id="g440"
           transform="translate(240.9177,181.5388)"
           style="fill:#33715b;fill-opacity:1">
          <path
             d="m 0,0 c -6.789,0 -12.315,-5.405 -12.397,-12.079 -0.258,0 -3.888,-0.012 -4.174,-0.013 0.082,8.977 7.48,16.256 16.571,16.256 3.086,0 5.976,-0.84 8.451,-2.298 C 8.547,1.926 8.64,1.989 8.737,2.047 6.187,3.578 3.196,4.461 0,4.461 c -9.308,0 -16.88,-7.492 -16.88,-16.702 v -0.149 l 4.777,0.015 v 0.148 c 0,6.579 5.43,11.93 12.103,11.93 1.695,0 3.309,-0.34 4.777,-0.952 0.069,0.078 0.135,0.157 0.205,0.234 C 3.455,-0.364 1.771,0 0,0"
             style="fill:#33715b;fill-opacity:1;fill-rule:nonzero;stroke:none"
             id="path442"
             inkscape:connector-curvature="0" />
        </g>
        <g
           id="g444"
           transform="translate(257.4888,169.4609)"
           style="fill:#33715b;fill-opacity:1">
          <path
             d="m 0,0 h -4.069 c -0.04,3.238 -1.376,6.176 -3.52,8.344 -0.071,-0.068 -0.14,-0.139 -0.209,-0.21 2.124,-2.147 3.435,-5.067 3.435,-8.283 V -0.297 H 0.31 v 0.148 c 0,4.195 -1.578,8.031 -4.173,10.966 C -3.96,10.776 -4.056,10.732 -4.153,10.688 -1.602,7.831 -0.037,4.094 0,0"
             style="fill:#33715b;fill-opacity:1;fill-rule:nonzero;stroke:none"
             id="path446"
             inkscape:connector-curvature="0" />
        </g>
        <g
           id="g448"
           transform="translate(275.8589,185.0898)"
           style="fill:#33715b;fill-opacity:1">
          <path
             d="m 0,0 c -2.886,0 -5.573,-0.751 -7.887,-2.063 0.884,-0.604 1.706,-1.287 2.456,-2.043 1.658,0.746 3.497,1.168 5.431,1.168 6.938,0 12.749,-5.361 13.158,-12.088 l 2.739,0.005 C 15.468,-6.685 8.576,0 0,0"
             style="fill:#33715b;fill-opacity:1;fill-rule:nonzero;stroke:none"
             id="path450"
             inkscape:connector-curvature="0" />
        </g>
        <g
           id="g452"
           transform="translate(260.013,170.0764)"
           style="fill:#33715b;fill-opacity:1">
          <path
             d="M 0,0 2.756,-0.002 C 2.948,3.163 4.326,6.019 6.449,8.16 5.715,8.795 4.904,9.342 4.029,9.791 1.667,7.172 0.179,3.762 0,0"
             style="fill:#33715b;fill-opacity:1;fill-rule:nonzero;stroke:none"
             id="path454"
             inkscape:connector-curvature="0" />
        </g>
        <g
           id="g456"
           transform="translate(248.7987,183.0204)"
           style="fill:#33715b;fill-opacity:1">
          <path
             d="m 0,0 c -2.317,1.315 -5.004,2.069 -7.881,2.069 -8.597,0 -15.448,-6.648 -15.846,-15.013 l 2.756,-0.002 c 0.409,6.729 6.152,12.078 13.09,12.078 1.931,0 3.772,-0.422 5.437,-1.167 C -1.697,-1.283 -0.879,-0.602 0,0"
             style="fill:#33715b;fill-opacity:1;fill-rule:nonzero;stroke:none"
             id="path458"
             inkscape:connector-curvature="0" />
        </g>
        <g
           id="g460"
           transform="translate(254.0768,170.0634)"
           style="fill:#33715b;fill-opacity:1">
          <path
             d="M 0,0 2.738,0.005 C 2.545,3.753 1.041,7.163 -1.331,9.785 -2.192,9.336 -2.99,8.788 -3.713,8.155 -1.58,6.013 -0.192,3.16 0,0"
             style="fill:#33715b;fill-opacity:1;fill-rule:nonzero;stroke:none"
             id="path462"
             inkscape:connector-curvature="0" />
        </g>
        <g
           id="g464"
           transform="translate(249.6451,182.5066)"
           style="fill:#33715b;fill-opacity:1">
          <path
             d="M 0,0 C -0.87,-0.569 -1.678,-1.223 -2.416,-1.947 -5.159,-4.642 -6.908,-8.329 -7.103,-12.43 l 2.756,-0.003 c 0.212,3.491 1.863,6.608 4.368,8.802 0.734,0.643 1.542,1.206 2.409,1.676 1.877,1.018 4.03,1.601 6.313,1.601 2.276,0 4.429,-0.581 6.312,-1.593 0.877,-0.472 1.693,-1.038 2.436,-1.684 2.527,-2.197 4.198,-5.319 4.411,-8.812 l 2.738,0.005 C 24.43,-8.347 22.66,-4.655 19.9,-1.955 19.158,-1.228 18.345,-0.571 17.47,0 14.972,1.632 11.977,2.583 8.743,2.583 5.495,2.583 2.496,1.633 0,0"
             style="fill:#33715b;fill-opacity:1;fill-rule:nonzero;stroke:none"
             id="path466"
             inkscape:connector-curvature="0" />
        </g>
        <g
           id="g468"
           transform="translate(270.6,180.3819)"
           style="fill:#33715b;fill-opacity:1">
          <path
             d="M 0,0 C 0.071,-0.076 0.137,-0.156 0.206,-0.233 2.757,-3.09 4.322,-6.827 4.359,-10.921 H 0.29 c -0.04,3.238 -1.375,6.176 -3.52,8.344 -0.07,0.071 -0.138,0.142 -0.21,0.212 -0.156,0.151 -0.324,0.289 -0.488,0.432 -0.736,0.638 -1.547,1.191 -2.422,1.647 -0.195,0.101 -0.386,0.207 -0.586,0.298 -0.097,0.045 -0.196,0.087 -0.294,0.13 -1.527,0.651 -3.211,1.015 -4.981,1.015 -1.767,0 -3.446,-0.369 -4.967,-1.028 -0.098,-0.042 -0.196,-0.084 -0.293,-0.129 -0.201,-0.093 -0.395,-0.201 -0.59,-0.305 -0.862,-0.456 -1.661,-1.01 -2.386,-1.647 -0.156,-0.137 -0.315,-0.27 -0.463,-0.414 -0.071,-0.069 -0.14,-0.141 -0.209,-0.212 -2.126,-2.168 -3.45,-5.105 -3.49,-8.344 -0.258,-10e-4 -3.888,-0.012 -4.174,-0.013 0.038,4.105 1.609,7.853 4.169,10.714 0.069,0.078 0.137,0.157 0.207,0.233 0.146,0.157 0.302,0.305 0.454,0.456 0.746,0.743 1.562,1.413 2.439,2.004 0.189,0.127 0.375,0.258 0.569,0.377 0.095,0.059 0.19,0.118 0.286,0.174 2.475,1.458 5.363,2.298 8.448,2.298 3.085,0 5.974,-0.84 8.45,-2.298 0.096,-0.056 0.191,-0.115 0.286,-0.174 0.191,-0.117 0.374,-0.246 0.56,-0.371 0.881,-0.593 1.702,-1.266 2.45,-2.011 C -0.309,0.313 -0.15,0.161 0,0 m -2.628,2.645 c -0.186,0.127 -0.369,0.258 -0.56,0.378 -0.096,0.06 -0.19,0.123 -0.287,0.181 -2.55,1.531 -5.541,2.414 -8.736,2.414 -3.195,0 -6.184,-0.883 -8.734,-2.414 -0.097,-0.058 -0.191,-0.121 -0.286,-0.181 -0.195,-0.122 -0.381,-0.255 -0.57,-0.385 -0.879,-0.602 -1.697,-1.282 -2.445,-2.035 -0.152,-0.153 -0.308,-0.303 -0.455,-0.461 -0.069,-0.077 -0.135,-0.157 -0.204,-0.234 -2.604,-2.94 -4.187,-6.785 -4.187,-10.992 v -0.149 l 4.778,0.015 v 0.148 c 0,3.216 1.299,6.136 3.405,8.283 0.069,0.071 0.138,0.142 0.208,0.21 0.149,0.145 0.309,0.277 0.465,0.414 0.722,0.633 1.521,1.18 2.382,1.63 0.195,0.102 0.388,0.208 0.59,0.3 0.096,0.044 0.193,0.088 0.29,0.129 1.463,0.619 3.072,0.964 4.763,0.964 1.694,0 3.308,-0.34 4.776,-0.952 0.098,-0.041 0.194,-0.086 0.291,-0.129 0.201,-0.09 0.392,-0.194 0.586,-0.293 0.875,-0.449 1.686,-0.997 2.42,-1.631 0.164,-0.143 0.333,-0.281 0.49,-0.433 0.071,-0.068 0.14,-0.138 0.209,-0.209 2.124,-2.147 3.435,-5.067 3.435,-8.283 v -0.148 h 4.673 v 0.148 c 0,4.195 -1.578,8.031 -4.172,10.966 C 0.428,-0.026 0.362,0.053 0.292,0.129 0.143,0.292 -0.016,0.445 -0.172,0.602 -0.923,1.358 -1.744,2.041 -2.628,2.645"
             style="fill:#33715b;fill-opacity:1;fill-rule:nonzero;stroke:none"
             id="path470"
             inkscape:connector-curvature="0" />
        </g>
        <g
           id="g472"
           transform="translate(291.7357,127.0715)"
           style="fill:#33715b;fill-opacity:1">
          <path
             d="M 0,0 V 39.499 H -2.736 V 2.693 h -26.286 l -0.012,36.778 H -31.77 L -31.769,0 Z"
             style="fill:#33715b;fill-opacity:1;fill-rule:nonzero;stroke:none"
             id="path474"
             inkscape:connector-curvature="0" />
        </g>
        <g
           id="g476"
           transform="translate(270.8896,134.8975)"
           style="fill:#33715b;fill-opacity:1">
          <path
             d="M 0,0 V 32.26 H 4.075 V -4.138 H 4.377 V 32.557 H -0.302 V 0.297 H -7.191 V 0 Z"
             style="fill:#33715b;fill-opacity:1;fill-rule:nonzero;stroke:none"
             id="path478"
             inkscape:connector-curvature="0" />
        </g>
        <g
           id="g480"
           transform="translate(241.8111,167.1688)"
           style="fill:#33715b;fill-opacity:1">
          <path
             d="m 0,0 h 4.154 v -32.271 h 7.113 v 0.296 H 4.456 V 0.297 H 4.305 -0.301 V -36.41 H 0 Z"
             style="fill:#33715b;fill-opacity:1;fill-rule:nonzero;stroke:none"
             id="path482"
             inkscape:connector-curvature="0" />
        </g>
        <g
           id="g484"
           transform="translate(245.2678,166.5421)"
           style="fill:#33715b;fill-opacity:1">
          <path
             d="m 0,0 h -2.736 v -35.023 l 10.547,-0.021 v 2.681 l -7.799,0.014 z"
             style="fill:#33715b;fill-opacity:1;fill-rule:nonzero;stroke:none"
             id="path486"
             inkscape:connector-curvature="0" />
        </g>
        <g
           id="g488"
           transform="translate(274.3013,166.57)"
           style="fill:#33715b;fill-opacity:1">
          <path
             d="m 0,0 h -2.736 v -32.423 l -7.867,0.014 v -2.685 L 0,-35.116 Z"
             style="fill:#33715b;fill-opacity:1;fill-rule:nonzero;stroke:none"
             id="path490"
             inkscape:connector-curvature="0" />
        </g>
        <g
           id="g492"
           transform="translate(292.3962,126.2968)"
           style="fill:#33715b;fill-opacity:1">
          <path
             d="m 0,0 h -33.154 v 40.866 h 4.155 V 8.897 8.601 7.864 5.18 4.435 4.166 h 11.87 13.054 V 40.872 H 0 Z M 0.151,41.169 H -4.377 V 4.462 h -12.752 -0.302 -11.267 v 0.717 2.685 0.737 0.296 32.267 h -4.757 V -0.297 H 0.302 v 41.466 z"
             style="fill:#33715b;fill-opacity:1;fill-rule:nonzero;stroke:none"
             id="path494"
             inkscape:connector-curvature="0" />
        </g>
        <g
           id="g496"
           transform="translate(257.4558,167.1688)"
           style="fill:#33715b;fill-opacity:1">
          <path
             d="M 0,0 V -40.872 H -33.154 V 0.011 H -29 v -36.717 h 13.054 11.87 v 0.269 0.765 2.682 0.719 0.296 V 0 Z m -4.377,-31.975 v -0.296 -0.719 -2.681 -0.739 h -11.268 -0.301 -12.753 V 0.308 h -0.15 -4.607 V -41.169 H 0.302 V 0.297 h -4.679 z"
             style="fill:#33715b;fill-opacity:1;fill-rule:nonzero;stroke:none"
             id="path498"
             inkscape:connector-curvature="0" />
        </g>
        <g
           id="g500"
           transform="translate(256.7916,127.0715)"
           style="fill:#33715b;fill-opacity:1">
          <path
             d="M 0,0 V 39.499 H -2.736 V 2.693 h -26.286 l -0.012,36.778 H -31.77 V 0 Z"
             style="fill:#33715b;fill-opacity:1;fill-rule:nonzero;stroke:none"
             id="path502"
             inkscape:connector-curvature="0" />
        </g>
      </g>
    </g>
  </g>
</svg>
