<svg xmlns="http://www.w3.org/2000/svg" height="147.02" viewBox="0 0 250 147.0202" width="250"><g transform="matrix(1.25 0 0 -1.25 -730.54 862.26)"><g><path d="m133.46 1.1191l-0.41 0.9727-1.6 3.7773c-3.66 8.6219-6.9 16.018-10.05 22.994-2.94-6.369-6.14-13.456-9.9-22.015l-2.21-4.975-5.38 0.6915c-6.522 0.85-12.3 1.8722-18.732 3.3378l-3.401 0.7696-1.533 3.125c-0.176 0.3731-4.46 9.1991-7.346 18.826l-1.293 4.318 3.299 3.079c3.053 2.843 4.29 5.744 4.428 10.334v3.253 16.713c-2.814-2.378-7.045-5.377-12.598-7.638l-4.839-1.985-3.415 3.961c-0.322 0.36-6.522 7.58-11.707 15.227v-17.651c0.134-5.192 1.667-10.771 3.983-14.523l2.988-4.815c-4.455-5.938-15.908-12.551-27.445-13.736-2.672 2.337-5.322 5.009-7.83 7.756-2.391 2.534-5.058 5.591-7.545 8.92-5.0672 6.415-8.4982 11.566-8.4982 11.566 4.2588 0.645 9.6402 4.351 9.6112 11.377v40.451c-0.088 4.41-2.3461 13.85-9.9843 21.02l-0.8789 0.83s9.8382 14.5 21.931 19.06c3.154-3.78 6.663-6.98 10.151-9.86 2.667-2.18 5.326-4.24 8.002-6.18 0.025-0.02 0.051-0.04 0.08-0.06 10.661-7.7 21.62-13.56 34.514-18.61 0.012 0 4.882-1.92 4.882-1.92v-3.38c0.013 0.01 0.03 0.03 0.055 0.05 0.004 0 3.065 2.36 3.065 2.36l3.718-1.04c6.977-1.99 12.998-3.26 20.158-4.28 0-0.01 2.8-0.38 2.8-0.38l1.89-2.16c0.03-0.05 4.06-5.23 5.96-9.715 1.5 2.043 3.26 4.437 3.26 4.437s1.76-2.512 3.23-4.597c1.4 2.692 3.63 6.62 5.96 9.015-0.05-0.042 0.35 0.37 0.35 0.37l1.67 1.77s16.09 1.45 23.11 2.87l3.55 0.73 2.81-2.29c0.98-0.79 2.12-2.04 3.22-3.495 5.66 7.215 11.54 13.395 12.42 14.075 0.1 0.07 1.57 1.15 1.57 1.15l1.81 0.31c9.82 1.65 18.32 1.93 24.21 1.82v7.89l0.39 0.26v0.01c0.03 0.01 0.07 0.03 0.09 0.05l2.94 1.96c-0.01 0 0.08 0.05 0.24 0.15 4.94 3.36 8.61 6.25 9.91 7.29 5.19 4.06 9.6 8.77 9.6 8.77s12.31-12.85 19.71-25.42c-5.88-5.46-7.83-10.62-7.79-18.557v-0.002-34.836c-0.04-6.959 6.47-9.669 8.54-9.849-6.55-18.162-21.51-30.481-22.12-31.18l-0.82 0.133c-0.46 0.084-10.85 1.943-20.59 6.947-6.47-10.033-15.11-20.706-15.2-20.81l-3.68-4.5122-5.21 2.5977c-6.45 3.2165-11.24 7.3955-14.18 10.376-2.25-5.929-4.39-10.327-4.67-10.863l-1.65-3.3495-3.7-0.6074c-6.58-1.0678-12.2-1.704-18.75-2.1269l-5.15-0.3321zm32.31 33.428c0.33 0.03 0.87 0.394 1.42 2.119 1.27 4.037 1.15 5.254 1.15 5.254l0.01 38.351s0 0.876-0.87 2.329c-1.21 2.018-1.89 1.306-1.89 1.306s-1.02-0.435-2.04-2.324c-1.15-2.144-1.08-3.141-1.08-3.141v-35.113s-0.22-4.48 1.08-6.808c1.13-2.002 1.89-1.889 1.89-1.889s0.13-0.102 0.33-0.084zm37 8.941s0.98 0.629 2.4 5.168c1.42 4.544 1.51 7.131 1.51 7.131l0.1 25s-0.42 0.31-2.41 0.703c-1.99 0.39-3.46 0.457-3.46 0.457l0.04-33.392s0.06-1.352 0.61-3.01c0.54-1.654 1.21-2.057 1.21-2.057z" transform="matrix(.8 0 0 -.8 584.43 689.81)" fill="#002b54"/><path d="m137.18 7.1523l-0.41 0.9727c-5.63 13.266-10.29 23.755-15.29 34.434-5.76-11.998-10.76-23.128-15.28-33.379l-0.45-1.0179-1.12 0.1426c-6.398 0.8333-11.828 1.7973-18.177 3.2423l-0.469 0.103-0.31 0.362c-0.335 0.372-4.515 9.178-7.233 18.269l-0.271 0.875 0.684 0.633c4.154 3.878 6.087 8.338 6.271 14.44v34.5c-0.276 3.408-2.106 7.115-5.619 11.328l-0.59 0.707 0.381 0.855c0.398 0.913 2.542 5.544 5.285 7.671l0.594 0.46 0.724-0.2c7.262-2.07 13.531-3.397 20.96-4.456l0.53-0.071 0.37-0.419c1.77-2.002 5.41-8.325 5.41-9.401v-0.699l-0.55-0.457c-0.17-0.138-4.28-3.563-4.49-7.692v-14.724c3.27 5.641 8.67 14.757 12.16 19.506l1.23 1.672 1.19-1.698c2.99-4.271 5.8-9.282 8.52-14.144 1.18-2.102 2.38-4.23 3.62-6.336v14.836c-0.21 4.145-4.49 7.914-4.53 7.947l-0.86 0.76 0.49 1.029c0.13 0.235 2.93 5.854 5.32 8.32l0.39 0.411 0.58 0.039c7.39 0.477 13.65 1.314 20.95 2.804l0.69 0.135 0.55-0.439c2.64-2.161 5.38-7.467 5.38-8.284v-0.578l-0.39-0.431c-3.43-3.744-5.31-7.295-5.56-10.553v-34.225c0.17-6.143 2.12-10.77 6.31-15l0.62-0.629-0.25-0.849c-2.66-8.857-6.56-16.913-7-17.797l-0.34-0.6915-0.77-0.1425c-6.38-1.0427-11.82-1.658-18.19-2.0684l-1.06-0.0723zm47.67 5.6937l-0.71 0.355c-5.17 2.584-9.14 5.867-11.55 8.162-2 1.901-4.38 4.376-4.38 5.356v0.461l0.26 0.381c2.97 4.35 4.75 10.415 4.91 16.638l0.01 36.604c-0.16 4.849-1.72 7.795-5.09 9.5l-1.57 0.787 1.05 1.42c6.37 8.66 13.73 16.26 13.94 16.43l0.3 0.21 0.35 0.06c14.04 2.37 25.2 1.8 29.37 1.44v11.07l0.66 0.44c2.58 1.75 4.36 2.8 5.93 3.72 2.96 1.73 4.9 2.89 9.81 7.42l1.14 1.05 1-1.17c0.27-0.31 6.49-7.65 9.54-13.53l0.4-0.76-0.47-0.72c-4.54-7.03-4.95-8.44-4.9-16.73v-24.436-12.24c-0.02-5.729 2.11-9.75 5.18-11.672l1.12-0.711-0.58-1.197c-4.61-9.489-13.84-19.159-14.87-20.235l-0.55-0.562-0.79 0.123c-9.93 1.666-16.87 7.444-17.16 7.687l-0.99 0.834 0.68 1.092c2.97 4.786 4.69 10.839 4.85 17.049v29.148c-6.23 2.994-12.7 2.81-15.34 2.555v-38.814c0.23-5.583 2.18-10.218 5.22-12.329l1.17-0.816-0.76-1.201c-5.22-8.279-15.63-21.995-16.49-22.485l-0.69-0.384zm-155.83 18.537c-2.103 1.625-11.961 10.878-17.518 20.799 3.354 1.834 6.098 6.042 6.383 12.793-0.004 0-0.004 12.763-0.004 12.763v29.132c-0.147 6.47-3.007 12.17-7.8985 19.81l-0.5684 0.9 0.6519 0.82c2.877 3.66 7.84 8.06 11.186 9.12l0.795 0.24 0.633-0.56c16.197-14.47 31.424-23.9 50.926-31.53l0.945-0.37v-14.245c0.138-5.746 1.729-10.971 4.627-15.104l0.662-0.937-0.758-0.897c-0.561-0.649-5.712-6.478-14.531-10.084l-0.996-0.406-0.721 0.85c-0.951 1.101-9.41 11.052-14.271 19.373l-0.762 1.314 1.328 0.736c2.165 1.202 3.057 4.389 3.342 6.315-3.999 1.763-7.614 3.506-11.479 5.537v-39.623c0.147-6.261 1.972-12.802 4.858-17.463l0.607-0.984-0.809-0.832c-0.226-0.243-5.845-5.989-15.97-7.383l-0.658-0.084z" transform="matrix(.8 0 0 -.8 584.43 689.81)" fill="#b3b5b8"/><path d="m139.09 10.268c-5.96 13.999-10.85 24.953-16.26 36.402l-1.32 2.81-1.37-2.796c-6.17-12.747-11.43-24.47-16.21-35.274-5.599 0.75-10.543 1.639-16.125 2.887-0.943 2.002-3.974 8.617-6.252 15.996 4.25 4.271 6.343 9.325 6.549 15.887l-0.004 34.685-0.008 0.055c-0.285 3.836-2.169 7.869-5.699 12.291 0.799 1.637 2.114 3.919 3.488 5.264 6.868-1.927 12.952-3.213 19.981-4.235 1.48-1.855 3.18-5.079 4-6.691-1.55-1.499-4.5-4.873-4.7-9.061l-0.01-0.035v-26.08l2.79 4.938c0.1 0.159 8.29 14.674 13.51 22.312 2.46-3.706 4.77-7.794 7.18-12.111 2.07-3.685 4.2-7.488 6.45-11.047l2.73-4.342v25.436 0.041c-0.2 4.12-3.14 7.655-4.69 9.242 0.81 1.537 2.48 4.517 3.94 6.205 6.98 0.481 13.07 1.294 19.95 2.668 1.55-1.512 2.91-3.999 3.55-5.289-3.51-4.041-5.38-7.839-5.67-11.6v-0.058l-0.01-34.444c0.19-6.641 2.24-11.717 6.56-16.34-2.23-7.206-5.21-13.718-6.24-15.871-5.61-0.892-10.56-1.456-16.11-1.845zm45.32 6.152c-6.88 3.693-11.36 8.559-12.9 10.41 2.91 4.724 4.69 10.942 4.85 17.332l0.01 36.688c-0.17 5.217-1.88 8.905-5.21 11.209 5.19 6.871 10.78 12.821 12.18 14.291 16.22 2.67 28.37 1.35 29.71 1.18l1.66-0.2v12.8c2.16 1.43 3.74 2.37 5.13 3.19 2.77 1.62 4.85 2.86 9.15 6.75 1.77-2.18 5.51-6.96 7.78-11.04-4.23-6.64-4.9-8.81-4.9-16.55 0-0.34 0-0.69 0.01-1.05v-36.729c-0.03-7.805 3.18-11.452 5.45-13.32-4.06-7.743-11.2-15.62-13.23-17.793-6.82 1.327-11.97 4.639-14.01 6.139 2.83 5.029 4.47 11.127 4.62 17.404v31.025l-0.78 0.414c-9.05 4.762-18.86 3.155-19.27 3.088l-1.24-0.215v-41.443c0.25-5.997 2.2-10.914 5.39-13.795-5.11-7.919-12.13-16.925-14.4-19.785zm-154.5 18.105c-2.102 1.83-9.577 8.619-14.447 16.743 3.149 2.65 5.143 7.583 5.398 13.638v42.004c-0.163 6.87-3.098 13-7.793 20.45 2.542 2.99 6.06 5.94 8.346 7.01 15.938-14.13 31.055-23.49 50.158-31.08v-12.3c0.143-5.883 1.714-11.285 4.52-15.728-1.591-1.646-5.599-5.357-11.688-8.045-2.165 2.571-8.409 10.177-12.584 16.99 3.493 3.049 3.741 8.865 3.741 8.924v0.974l-0.893 0.391c-5.117 2.224-9.434 4.324-14.455 7.034l-2.186 1.18v-44.622c0.151-6.34 1.891-12.909 4.676-17.9-1.704-1.433-6.118-4.586-12.793-5.663z" transform="matrix(.8 0 0 -.8 584.43 689.81)" fill="#7d001e"/></g></g></svg>
