<?xml version="1.0" encoding="utf-8"?>
<!-- Generator: Adobe Illustrator 15.0.0, SVG Export Plug-In . SVG Version: 6.00 Build 0)  -->
<!DOCTYPE svg PUBLIC "-//W3C//DTD SVG 1.1//EN" "http://www.w3.org/Graphics/SVG/1.1/DTD/svg11.dtd">
<svg version="1.1" id="Layer_1" xmlns="http://www.w3.org/2000/svg" xmlns:xlink="http://www.w3.org/1999/xlink" x="0px" y="0px"
	 width="300px" height="300px" viewBox="0 0 300 300" enable-background="new 0 0 300 300" xml:space="preserve">
<g id="XMLID_1_">
	<g>
		<polygon fill="#ED1C2E" points="185.046,123.129 165.466,148.92 185.046,175.119 158.296,175.119 148.578,162.157 
			138.572,175.119 112.098,175.119 131.821,148.92 112.098,122.313 137.469,122.313 148.919,138.44 159.531,123.129 		"/>
	</g>
	<g>
	</g>
</g>
<g>
	<g id="XMLID_2_">
		<g>
			<path fill="#ED1C2E" d="M79.424,160.675c3.673-0.188,2.945-4.964,2.945-4.964s-0.188-8.273,0-13.237
				c0.177-4.964-4.236-3.861-4.236-3.861s-17.098,0-20.408,0c-3.309,0-2.934,3.497-2.934,3.497v13.602
				c-0.927,3.86,2.934,4.964,2.934,4.964S75.75,160.862,79.424,160.675z M103.328,133.616c-0.188,11.406,0,32.365,0,32.365
				s2.935,9.741-9.564,10.017c-12.498,0.275-50.379,0-50.379,0s-11.208-1.743-11.208-10.017v-8.273v-24.091
				c0,0,0.916-10.557,12.134-10.424c11.208,0.132,50.004,0,50.004,0S103.505,122.221,103.328,133.616z"/>
		</g>
		<g>
		</g>
	</g>
</g>
<g id="XMLID_3_">
	<g>
		<polygon fill="#ED1C2E" points="265,122 239.38,154.88 239.44,175.12 217,175 217.25,154.38 192,122 216,122 228.62,138.62 
			240,122 		"/>
	</g>
	<g>
	</g>
</g>
<g id="XMLID_4_">
	<g>
		<path fill="#005BAC" d="M258.92,103.84c-21.97,0-43.95,0-65.92,0c-15.27-26.05-48.52-48.16-86.57-45.27
			c-32.33,2.45-54.41,22.88-69.89,45.27c18.93-38.73,49.28-71.6,101.66-75.45C199.51,23.88,240.9,60.7,258.92,103.84z"/>
		<path fill="#005BAC" d="M189.61,239.63c32.34-2.26,54.54-22.56,70.149-44.86c-19.149,38.62-49.7,71.311-102.1,74.86
			c-61.33,4.15-102.51-32.91-120.28-76.16c21.97,0.13,43.95,0.261,65.92,0.391C118.42,219.99,151.54,242.3,189.61,239.63z"/>
	</g>
	<g>
	</g>
</g>
</svg>
