<?xml version="1.0" encoding="UTF-8" standalone="no"?>
<svg xmlns:inkscape="http://www.inkscape.org/namespaces/inkscape" xmlns:rdf="http://www.w3.org/1999/02/22-rdf-syntax-ns#" xmlns="http://www.w3.org/2000/svg" sodipodi:docname="du.svg" xml:space="preserve" height="112.61" viewBox="0 0 209.8575 112.60999" width="209.86" version="1.1" xmlns:cc="http://creativecommons.org/ns#" xmlns:dc="http://purl.org/dc/elements/1.1/" inkscape:version="0.91 r13725" xmlns:sodipodi="http://sodipodi.sourceforge.net/DTD/sodipodi-0.dtd"><sodipodi:namedview fit-margin-left="0" inkscape:zoom="4.8841136" borderopacity="1" inkscape:current-layer="g3379" inkscape:cx="104.92875" inkscape:cy="56.304996" inkscape:window-maximized="1" showgrid="false" fit-margin-right="0" bordercolor="#666666" inkscape:window-x="0" guidetolerance="10" objecttolerance="10" inkscape:window-y="0" fit-margin-bottom="0" inkscape:window-width="1280" inkscape:pageopacity="0" inkscape:pageshadow="2" pagecolor="#ffffff" gridtolerance="10" inkscape:window-height="752" fit-margin-top="0"/><g inkscape:label="du" inkscape:groupmode="layer" transform="matrix(1.25 0 0 -1.25 -398.64 135)"><g style="" transform="translate(.81898 .98278)"><path d="m416.4 87.397c-0.457 3.081-0.819 6.477-0.96 7.425 0.086-0.004 0.202-0.009 0.235-0.009l0.013 0.021c0.329-0.025 1.316-0.1 1.813-0.138-0.146-0.842-0.57-4.245-1.101-7.299m13.179 16.883c-0.044 0.008-4.426 0.826-12.519 1.553v0.001s-0.047 0.003-0.055 0.003c-0.174 0.016-0.34 0.032-0.518 0.047l-0.858 0.075v-0.029c-5.634 0.363-12.25 0.461-12.319 0.462l-0.806 0.011-0.031-11.183s1.883-0.02 2.576-0.028c0.227-1.247 6.469-35.606 6.469-35.606l0.594-0.063c2.533-0.268 8.028-1.153 8.083-1.162l0.765-0.124s6.419 33.776 6.694 35.221c0.808-0.133 1.666-0.301 1.677-0.303l0.955-0.187-0.062 11.19-0.645 0.122zm40.846-33.335c0.001 0.809 0.016 7.464 0.02 9.307 1.376-0.625 2.135-1.145 2.487-1.34 0.001-0.721-0.037-7.342-0.033-9.415-1.211 0.714-2.017 1.218-2.474 1.448m-0.123-23.065c-0.001 0.207-0.073 5.351-0.079 6.812 0.31-1.635 0.983-5.853 1.354-7.808-0.374 0.29-1.089 0.852-1.275 0.996m14.899-29.965v17.007l-0.183 0.221c-0.061 0.073-1.968 2.38-1.968 2.38s-3.889 19.215-4.01 19.918c0.429 0.496 3.928 3.345 3.928 3.345l0.163 20.184-5.101 10.536-0.284 0.115c-0.091 0.037-9.182 3.713-18.598 6.661l-1.04 0.326 0.061-13.051 0.637-0.129c0.006-0.002 0.555-0.124 1.539-0.471 0.002-1.034 0.046-27.489 0.05-29.944-0.622 0.313-1.066 0.485-1.094 0.496l-1.076 0.411-0.061-12.449 0.332-0.24c0.07-0.05 7.044-5.107 12.64-9.942l1.31-1.132s-0.166 7.155-0.152 10.465c0.879-4.626 2.629-12.907 2.629-12.907s5.313-5.591 8.859-10.025l1.419-1.775m-37.742 47.1-1.067 0.415s-0.037-2.441-0.053-3.479c-1.147 0.47-2.007 0.81-2.511 1.007 0.005 0.86 0.035 6.388 0.045 7.983 0.978-0.314 2.57-0.834 4.419-1.473l1.063-0.367-0.062 11.982s-4.369 1.18-5.305 1.432c0.005 0.949 0.035 6.233 0.044 7.694 0.582-0.136 1.402-0.341 2.385-0.616-0.013-0.793-0.053-3.128-0.053-3.128l0.583-0.171c0.049-0.014 4.94-1.453 8.205-2.541l1.049-0.349v15.58l-0.592 0.158c-0.113 0.03-11.426 3.031-23.185 4.903l-0.916 0.146-0.062-11.478 0.72-0.073c0.008-0.001 0.719-0.076 1.674-0.242v-25.933c-0.602 0.138-1.219 0.265-1.328 0.288l-0.956 0.195v-11.078l0.57-0.169c0.116-0.035 11.733-3.506 22.985-10.018l1.191-0.689 0.06 16.21-0.442 0.222c-2.652 1.331-8.224 3.498-8.461 3.589m-86.808 1.333-0.518-0.191s-0.01-1.882-0.013-2.562c-0.535-0.197-1.387-0.509-2.313-0.85v7.028c0.891 0.326 2.837 1.021 4.934 1.665l0.563 0.173v11.616s-4.233-1.26-5.612-1.671c0.006 1.591 0.029 7.29 0.033 8.191 0.472 0.148 1.269 0.384 2.404 0.676 0.012-0.974 0.04-3.295 0.04-3.295l0.969 0.231c0.055 0.013 5.451 1.299 8.458 1.906l0.639 0.129v14.611l-0.921-0.146c-0.118-0.018-11.9-1.904-23.516-5.199l-0.582-0.165 0.046-12.792s2.386 0.824 2.474 0.854c-0.003-2.023-0.045-27.311-0.047-28.204-0.573-0.303-2.356-1.245-2.356-1.245l0.005-0.477v-12.988l1.216 0.751c0.115 0.071 11.688 7.184 23.103 10.874l0.551 0.178 0.03 14.001-1.028-0.308c-0.053-0.016-5.364-1.611-8.559-2.791m27.122 28.402c0.057 0.003 1.122 0.04 1.77 0.074 0.014-0.611-0.042-2.556 0-4.24-0.493 1.092-1.055 2.581-1.77 4.166m-0.094 11.07-0.749-0.041s-0.031-7.293-0.039-9.076c-1.868 4.141-3.974 8.81-3.974 8.81l-0.568-0.054c-0.051-0.005-5.115-0.493-10.348-1.199l-0.693-0.093 0.047-11.643 0.962 0.209c0.007 0.002 0.555 0.12 1.387 0.254 0.005-1.675 0.071-24.018 0.075-25.152-0.693-0.182-2.446-0.642-2.446-0.642l0.018-0.616 0.088-10.91 0.995 0.268c0.073 0.019 7.297 1.957 12.827 2.85l0.67 0.109v11.147s-1.53-0.202-2.115-0.279c-0.003 0.954-0.012 3.551-0.023 6.499 2.062-4.853 7.127-16.773 7.127-16.773l0.574 0.047c0.04 0.003 4.056 0.333 6.501 0.436l0.763 0.032v35.235c0.705 0.012 2.384 0.04 2.384 0.04l0.006 0.783v10.251l-0.809-0.013c-5.421-0.084-12.588-0.475-12.66-0.479m-54.609-56.345c-0.269-0.218-0.826-0.67-1.597-1.297-0.003 2.977-0.036 30.899-0.037 31.781 0.376 0.199 0.983 0.513 1.728 0.877-0.007-2.311-0.092-30.651-0.094-31.361m-14.036 38.355-0.03-14.175s1.814 0.953 2.461 1.293c-0.004-2.438-0.066-35.432-0.068-36.071-0.387-0.374-2.387-2.307-2.387-2.307l-0.003-0.338-0.092-17.158 1.427 1.753c0.107 0.132 10.83 13.244 20.214 19.396l0.191 0.124 2.72 5.865-0.201 43.242-6.307 6.526-0.509-0.226c-0.086-0.038-8.613-3.834-16.956-7.711l-0.46-0.213" inkscape:connector-curvature="0"/><path d="m403.94 104.96-0.0266-8.3125 2.4438-0.02656 6.4797-35.666c2.584-0.274 6.8516-1.1703 6.8516-1.1703l6.6922 35.216c0.936-0.125 2.4703-0.425 2.4703-0.425l-0.0531 8.2859s-3.4781 0.85075-12.003 1.5938l0.0266-8.2203s1.1313-0.05687 2.2563-0.17188l-2.7344-15.27-2.4703 15.536s0.559 0.000312 1.7-0.07969l0.0531 8.2063c-5.811 0.404-11.686 0.50469-11.686 0.50469zm-4.2219-0.0937c-5.468-0.084-11.353-0.47813-11.353-0.47813l-0.0391-8.2062s1.6897 0.09031 2.2687 0.12031l0.2-11.314-9.0016 19.042s-3.7658-0.48332-9.0438-1.1953l0.0406-8.6844s0.982 0.21344 2.35 0.39844l0.0797-27.964c-0.953-0.224-2.4297-0.6375-2.4297-0.6375l0.0781-8.2859s5.9968 1.639 11.633 2.55v8.2859c-1.145-0.175-2.1109-0.27969-2.1109-0.27969l-0.0406 14.541 9.7203-21.791s2.7688 0.33406 5.2578 0.43906v35.253s1.3256 0.03062 2.3906 0.04062v8.1656zm33.223-2.2438-0.0531-8.5516 2.3891-0.37188v-28.894c-0.54 0.174-2.2828 0.53125-2.2828 0.53125v-8.2328s10.41-2.9538 21.883-9.5938l0.0531 12.569c-2.649 1.329-7.1172 3.1-7.1172 3.1l-0.0531-3.5047c-2.55 1.062-5.3656 2.1031-5.3656 2.1031l0.0531 11.016s2.3749-0.68212 5.4719-1.7531l-0.0531 8.7969s-2.7769 0.75238-5.3109 1.4344l0.0516 11.014s2.8994-0.76612 5.2594-1.4531l-0.0531-3.4531s3.6408-1.1247 6.9578-2.2297v12.588s-9.9757 2.9989-21.83 4.8859zm-64.136-0.40468s-10.443-1.6394-22.148-4.9594l0.0391-9.8c1.557 0.52 1.6192 0.58188 2.4812 0.84688l-0.05-31.069-2.35-1.2422v-9.6469s10.357 6.5538 22.002 10.319l0.0266 11.073-7.2375-2.4563-0.0125-2.5625c-3.091-1.115-5.1781-2.0719-5.1781-2.0719v10.317s2.5939 0.98088 5.4969 1.8719v8.6844c-2.748-0.786-5.6172-1.6734-5.6172-1.6734l0.0391 11.114s2.5504 0.77738 5.2594 1.4344l0.0406-3.625s4.1534 0.97575 7.2094 1.5938v11.852zm90.745-5.6313 0.0531-9.7391 2.1781-0.69062 0.0531-33.781c-1.137 0.717-2.1781 1.1156-2.1781 1.1156l-0.0516-8.975s5.7298-4.1157 11.419-9.0297l0.0531 10.091c-1.078 0.841-1.9656 1.3484-1.9656 1.3484l0.0828 14.075 0.71407-0.53125 6.2672-29.711s3.9833-4.1408 7.5953-8.6578v11.898l-1.9922 2.4891-4.1156 21.645 4.075 3.4516-0.039 18.57-4.675 10.217s-7.9794 3.2421-17.473 6.2141zm-122.77-2.53s-7.8722-3.4669-16.306-7.3859l-0.0266-10.752s1.3359 0.68419 2.4609 1.2922l-0.0703-39.322c-0.891-0.872-2.3906-2.3109-2.3906-2.3109l-0.0797-12.667s7.1853 10.112 19.345 18.777l2.3266 5.3234-0.2 41.469-5.0594 5.5766zm-2.1719-11.016-0.0984-34.597-4.4625-3.2266-0.0391 35.842s2.741 1.1263 4.6 1.9813zm134.73-0.61719 4.6609-2.6 0.025-12.705c-2.856 1.753-4.7109 2.9172-4.7109 2.9172l0.025 12.388z" inkscape:connector-curvature="0" fill="#8b6f4b"/><path d="m398.33 103.66c-5.468-0.085-8.8172-0.39375-8.8172-0.39375v-5.5125s1.7179 0.12569 2.2969 0.15469v-18.003l-10.886 22.773s-1.5189-0.25831-6.7969-0.97031l-0.003-5.7719 2.3891 0.37812v-30.842c-0.953-0.224-2.3766-0.57188-2.3766-0.57188v-5.5969s4.5676 1.222 9.2016 2.175v5.5375c-1.145-0.174-2.3094-0.38438-2.3094-0.38438v22.556l12-26.685s0.9295 0.14144 3.0125 0.27344l0.002 35.369s1.2329 0.04 2.2969 0.05v5.4578zm6.8594-0.0109v-5.4469l2.4094 0.03594-0.009-0.09063 6.3828-35.933c2.584-0.274 4.6906-0.83594 4.6906-0.83594l6.5281 35.17c0.937-0.125 2.4187-0.35938 2.4187-0.35938v5.7031s-4.3365 0.76538-9.3625 1.1344v-5.5313s1.1381-0.10531 2.2641-0.22031l-4.1891-22.536-4.0969 23.123s1.069-0.07038 2.225-0.15938v5.5078c-5.811 0.403-9.2609 0.4375-9.2609 0.4375zm28.927-2.475v-5.8109l2.4359-0.4625v-31.839c-0.54 0.175-2.4359 0.74219-2.4359 0.74219v-5.7406s9.2008-2.7397 19.533-8.7297v9.8047c-2.648 1.329-4.7 2.0922-4.7 2.0922v-3.2281c-3.132 1.434-7.8578 3.0438-7.8578 3.0438v13.428s2.5692-0.73156 5.6672-1.8016v5.8109s-3.1431 1.0118-5.6781 1.6938v13.758s5.5077-1.4646 7.8687-2.1516v-3.1172s1.3637-0.43775 4.6797-1.5437v9.5406s-7.6575 2.6239-19.512 4.5109zm-66.619-0.62031s-7.8075-1.0763-19.512-4.3953v-6.6781s1.8274 0.61162 2.4094 0.79062v-34.306l-2.35-1.2422v-6.1406s7.8081 5.2788 19.453 9.0438v8.3344s-1.4519-0.48219-4.6609-1.6672v-2.5547c-3.09-1.116-7.5547-2.9875-7.5547-2.9875v13.33s2.4486 0.9965 5.3516 1.8875v5.7703c-2.749-0.787-5.6703-1.7625-5.6703-1.7625v14.033s4.3609 1.1902 7.8609 2.0062v-3.4016s1.6174 0.37831 4.6734 0.99531v8.9453zm93.322-5.5562 0.0531-6.8719 2.1781-0.69062 0.0531-37.292c-1.137 0.717-2.1781 1.2281-2.1781 1.2281l-0.0531-6.2141s3.1823-2.2032 8.8703-7.1172l0.0531 6.8172c-1.077 0.841-1.9656 1.3547-1.9656 1.3547l0.2 17.05 2.9078-1.9922 6.2938-29.797s1.6474-1.3455 5.2594-5.8625l-0.002 7.775-1.7531 1.9906-4.4078 23.398 4.2094 3.8109-0.0406 17.009-4.3016 9.7984s-5.8826 2.6317-15.377 5.6047zm-124.48-2.747s-6.0811-2.6935-14.514-6.6125v-7.3297s1.2391 0.62738 2.3641 1.2344v-42.414c-0.891-0.871-2.3766-2.4-2.3766-2.4l-0.005-7.7281s6.8023 8.1254 17.045 15.923l1.8672 4.2734-0.2125 40.292-4.1688 4.7609zm-0.54532-7.425v-37.241c-3.16-2.316-7.0781-5.1984-7.0781-5.1984v39.497s3.2301 1.2792 7.0781 2.9422zm132.59-0.80156 6.5719-3.5562 0.025-15.255c-2.856 1.752-6.6219 4.1922-6.6219 4.1922l0.025 14.619z" inkscape:connector-curvature="0" fill="#8b2332"/></g></g></svg>
