<?xml version="1.0" encoding="UTF-8" standalone="no"?>
<!-- Created with Inkscape (http://www.inkscape.org/) -->

<svg
   xmlns:dc="http://purl.org/dc/elements/1.1/"
   xmlns:cc="http://creativecommons.org/ns#"
   xmlns:rdf="http://www.w3.org/1999/02/22-rdf-syntax-ns#"
   xmlns:svg="http://www.w3.org/2000/svg"
   xmlns="http://www.w3.org/2000/svg"
   xmlns:sodipodi="http://sodipodi.sourceforge.net/DTD/sodipodi-0.dtd"
   xmlns:inkscape="http://www.inkscape.org/namespaces/inkscape"
   width="117.85156"
   height="30.955626"
   id="svg6485"
   version="1.1"
   inkscape:version="0.48.4 r9939"
   sodipodi:docname="New document 7">
  <defs
     id="defs6487">
    <clipPath
       clipPathUnits="userSpaceOnUse"
       id="clipPath114">
      <path
         inkscape:connector-curvature="0"
         d="m 446.62,278.64 130.729,0 0,316.08 -130.729,0 0,-316.08 z"
         id="path116" />
    </clipPath>
    <clipPath
       clipPathUnits="userSpaceOnUse"
       id="clipPath110">
      <path
         inkscape:connector-curvature="0"
         d="m 446.62,278.64 130.729,0 0,316.08 -130.729,0 0,-316.08 z"
         id="path112" />
    </clipPath>
    <clipPath
       clipPathUnits="userSpaceOnUse"
       id="clipPath106">
      <path
         inkscape:connector-curvature="0"
         d="m 476.857,373.586 61.084,0 0,19.659 -61.084,0 0,-19.659 z"
         id="path108" />
    </clipPath>
    <clipPath
       clipPathUnits="userSpaceOnUse"
       id="clipPath102">
      <path
         inkscape:connector-curvature="0"
         d="m 446.62,278.64 130.729,0 0,316.08 -130.729,0 0,-316.08 z"
         id="path104" />
    </clipPath>
  </defs>
  <sodipodi:namedview
     id="base"
     pagecolor="#ffffff"
     bordercolor="#666666"
     borderopacity="1.0"
     inkscape:pageopacity="0.0"
     inkscape:pageshadow="2"
     inkscape:zoom="3.8051184"
     inkscape:cx="67.440632"
     inkscape:cy="14.466089"
     inkscape:document-units="px"
     inkscape:current-layer="g478"
     showgrid="false"
     fit-margin-top="0"
     fit-margin-left="0"
     fit-margin-right="0"
     fit-margin-bottom="0"
     inkscape:window-width="944"
     inkscape:window-height="1001"
     inkscape:window-x="960"
     inkscape:window-y="0"
     inkscape:window-maximized="0" />
  <metadata
     id="metadata6490">
    <rdf:RDF>
      <cc:Work
         rdf:about="">
        <dc:format>image/svg+xml</dc:format>
        <dc:type
           rdf:resource="http://purl.org/dc/dcmitype/StillImage" />
        <dc:title></dc:title>
      </cc:Work>
    </rdf:RDF>
  </metadata>
  <g
     inkscape:label="Layer 1"
     inkscape:groupmode="layer"
     id="layer1"
     transform="translate(-564.01468,-593.85582)">
    <g
       clip-path="url(#clipPath110)"
       id="g478"
       transform="matrix(1.25,0,0,-1.25,-16.117072,1039.2702)">
      <g
         transform="translate(464.1054,342.5366)"
         id="g816">
        <path
           d="M 0,0 94.277,0"
           style="fill:none;stroke:#000000;stroke-width:0.50999999;stroke-linecap:butt;stroke-linejoin:miter;stroke-miterlimit:3.86400008;stroke-opacity:1;stroke-dasharray:none"
           id="path818"
           inkscape:connector-curvature="0" />
      </g>
      <path
         d="m 483.828,345.185 19.456,0 0,-13.618 -19.456,0 0,13.618 z"
         style="fill:#0083a9;fill-opacity:1;fill-rule:nonzero;stroke:none"
         id="path820"
         inkscape:connector-curvature="0" />
      <g
         transform="translate(464.7936,355.2313)"
         id="g822"
         style="fill:#0083a9;fill-opacity:1">
        <path
           d="M 0,0 0.74,0 C 1.141,0 1.386,-0.085 1.619,-0.395 1.827,-0.663 1.978,-1.254 1.978,-1.933 1.978,-2.596 1.829,-3.195 1.623,-3.462 1.392,-3.773 1.145,-3.857 0.753,-3.857 L 0,-3.857 0,0 z m -0.526,0.93 0,-9.42 0.526,0 0,3.702 0.761,0 c 0.608,0 0.926,0.157 1.243,0.645 0.286,0.44 0.484,1.345 0.484,2.23 0,0.888 -0.193,1.766 -0.504,2.241 C 1.692,0.773 1.38,0.93 0.717,0.93 l -1.243,0 z"
           style="fill:#0083a9;fill-opacity:1;fill-rule:evenodd;stroke:none"
           id="path824"
           inkscape:connector-curvature="0" />
      </g>
      <g
         transform="translate(470.9628,353.5936)"
         id="g826"
         style="fill:#0083a9;fill-opacity:1">
        <path
           d="m 0,0 -0.469,0 0,-3.869 c 0,-1.425 -0.406,-2.279 -1.118,-2.295 -0.775,-0.016 -1.101,0.985 -1.101,2.46 l 0,3.704 -0.468,0 0,-3.889 c 0,-1.67 0.376,-3.12 1.445,-3.154 0.61,-0.017 1.076,0.521 1.269,1.418 -0.005,-0.454 -0.005,-0.837 -0.005,-1.227 L 0,-6.852 0,0 z"
           style="fill:#0083a9;fill-opacity:1;fill-rule:nonzero;stroke:none"
           id="path828"
           inkscape:connector-curvature="0" />
      </g>
      <g
         transform="translate(472.1333,350.1782)"
         id="g830"
         style="fill:#0083a9;fill-opacity:1">
        <path
           d="M 0,0 C 0,1.609 0.615,2.727 1.364,2.727 1.857,2.727 2.198,2.318 2.409,1.771 2.624,1.228 2.718,0.544 2.718,-0.022 2.713,-0.782 2.573,-1.466 2.336,-1.958 2.099,-2.452 1.768,-2.749 1.375,-2.749 0.493,-2.749 0.005,-1.397 0,-0.013 L 0,0 z m 3.173,3.416 -0.468,0 0,-1.411 C 2.518,2.837 1.998,3.602 1.322,3.602 c -1.044,0 -1.791,-1.583 -1.791,-3.627 0,-1.968 0.719,-3.599 1.791,-3.599 0.66,0 1.136,0.667 1.38,1.636 l 0,-0.871 c 0,-1.716 -0.667,-2.732 -1.327,-2.732 -0.216,0 -0.505,0.137 -0.757,0.498 -0.201,0.276 -0.325,0.608 -0.405,0.9 l -0.541,0 c 0.219,-1.226 0.837,-2.209 1.695,-2.209 0.463,0 0.961,0.393 1.294,1.054 0.3,0.572 0.512,1.401 0.512,2.696 l 0,6.068 z"
           style="fill:#0083a9;fill-opacity:1;fill-rule:evenodd;stroke:none"
           id="path832"
           inkscape:connector-curvature="0" />
      </g>
      <g
         transform="translate(476.435,350.6519)"
         id="g834"
         style="fill:#0083a9;fill-opacity:1">
        <path
           d="M 0,0 C 0.043,1.25 0.587,2.32 1.326,2.32 2.035,2.362 2.613,1.2 2.647,0 L 0,0 z M 3.109,-0.753 C 3.159,0.342 2.97,1.398 2.575,2.157 2.248,2.78 1.805,3.132 1.324,3.132 c -1.029,0 -1.806,-1.624 -1.806,-3.632 0,-1.699 0.622,-3.597 1.808,-3.597 0.35,0 0.688,0.183 0.977,0.551 0.289,0.374 0.534,0.933 0.692,1.672 l -0.491,0 C 2.284,-2.763 1.858,-3.285 1.331,-3.285 0.751,-3.294 0.015,-2.474 -0.008,-0.753 l 3.117,0 z"
           style="fill:#0083a9;fill-opacity:1;fill-rule:evenodd;stroke:none"
           id="path836"
           inkscape:connector-curvature="0" />
      </g>
      <g
         transform="translate(480.4787,346.7413)"
         id="g838"
         style="fill:#0083a9;fill-opacity:1">
        <path
           d="m 0,0 0.47,0 0,6.099 0.747,0 0,0.753 -0.747,0 0,2.568 -0.47,0 0,-2.568 -0.67,0 0,-0.753 0.67,0 L 0,0 z"
           style="fill:#0083a9;fill-opacity:1;fill-rule:nonzero;stroke:none"
           id="path840"
           inkscape:connector-curvature="0" />
      </g>
      <g
         transform="translate(483.8301,349.3665)"
         id="g842"
         style="fill:#0083a9;fill-opacity:1">
        <path
           d="m 0,0 c 0.032,-1.803 0.686,-2.795 1.473,-2.795 0.883,0 1.46,1.225 1.46,2.761 0,1.734 -0.704,2.233 -1.149,2.58 C 1.07,3.02 0.611,3.305 0.616,4.452 c 0,0.975 0.386,1.616 0.855,1.616 0.629,0 0.783,-0.931 0.839,-1.538 l 0.521,0 C 2.756,6.311 2.079,6.965 1.493,6.965 0.777,6.965 0.079,6.035 0.091,4.36 0.091,2.582 0.913,2.099 1.299,1.874 1.841,1.51 2.409,1.221 2.409,-0.101 2.409,-1.147 1.957,-1.899 1.465,-1.899 1.172,-1.899 0.601,-1.572 0.525,0 L 0,0 z"
           style="fill:#0083a9;fill-opacity:1;fill-rule:nonzero;stroke:none"
           id="path844"
           inkscape:connector-curvature="0" />
      </g>
      <g
         transform="translate(487.7135,350.1823)"
         id="g846"
         style="fill:#0083a9;fill-opacity:1">
        <path
           d="M 0,0 C 0,1.567 0.589,2.735 1.349,2.735 2.109,2.735 2.698,1.567 2.698,0 2.698,-1.568 2.109,-2.736 1.349,-2.736 0.589,-2.736 0,-1.568 0,-0.013 L 0,0 z m -0.469,-0.013 c 0,-1.927 0.715,-3.611 1.818,-3.611 1.103,0 1.818,1.684 1.818,3.611 0,1.919 -0.715,3.611 -1.818,3.611 C 0.246,3.598 -0.469,1.906 -0.469,0 l 0,-0.013 z"
           style="fill:#0083a9;fill-opacity:1;fill-rule:evenodd;stroke:none"
           id="path848"
           inkscape:connector-curvature="0" />
      </g>
      <g
         transform="translate(494.7369,353.5936)"
         id="g850"
         style="fill:#0083a9;fill-opacity:1">
        <path
           d="m 0,0 -0.469,0 0,-3.869 c 0,-1.425 -0.407,-2.279 -1.118,-2.295 -0.775,-0.016 -1.101,0.985 -1.101,2.46 l 0,3.704 -0.469,0 0,-3.889 c 0,-1.67 0.377,-3.12 1.445,-3.154 0.611,-0.017 1.077,0.521 1.27,1.418 -0.005,-0.454 -0.005,-0.837 -0.005,-1.227 L 0,-6.852 0,0 z"
           style="fill:#0083a9;fill-opacity:1;fill-rule:nonzero;stroke:none"
           id="path852"
           inkscape:connector-curvature="0" />
      </g>
      <g
         transform="translate(495.6558,346.7413)"
         id="g854"
         style="fill:#0083a9;fill-opacity:1">
        <path
           d="m 0,0 0.469,0 0,3.869 c 0,1.424 0.406,2.278 1.115,2.294 C 2.358,6.18 2.682,5.179 2.682,3.704 l 0,-3.704 0.47,0 0,3.889 c 0,1.67 -0.376,3.12 -1.443,3.154 C 1.1,7.059 0.635,6.521 0.441,5.625 0.445,6.083 0.445,6.465 0.445,6.852 L 0,6.852 0,0 z"
           style="fill:#0083a9;fill-opacity:1;fill-rule:nonzero;stroke:none"
           id="path856"
           inkscape:connector-curvature="0" />
      </g>
      <g
         transform="translate(499.974,350.1782)"
         id="g858"
         style="fill:#0083a9;fill-opacity:1">
        <path
           d="m 0,0 c 0,1.538 0.576,2.731 1.366,2.731 0.385,0 0.726,-0.289 0.97,-0.778 C 2.581,1.469 2.73,0.798 2.73,0.025 2.742,-0.743 2.595,-1.44 2.349,-1.942 2.103,-2.442 1.756,-2.749 1.374,-2.749 0.482,-2.749 0.005,-1.384 0,-0.013 L 0,0 z m 3.167,5.983 -0.47,0 0,-2.513 0,-1.444 c -0.156,0.705 -0.648,1.58 -1.398,1.58 -1.026,0 -1.768,-1.575 -1.768,-3.611 0,-1.921 0.679,-3.619 1.773,-3.619 0.714,0 1.172,0.7 1.41,1.606 l 0,-1.418 0.453,0 0,9.419 z"
           style="fill:#0083a9;fill-opacity:1;fill-rule:evenodd;stroke:none"
           id="path860"
           inkscape:connector-curvature="0" />
      </g>
      <g
         transform="translate(505.8686,346.7413)"
         id="g862"
         style="fill:#0083a9;fill-opacity:1">
        <path
           d="m 0,0 0.527,0 0,8.49 0.739,0 C 1.691,8.49 1.984,8.452 2.219,8.15 2.515,7.768 2.688,7.032 2.688,6.324 2.688,5.657 2.578,5.075 2.33,4.595 2.078,4.127 1.617,4.11 1.286,4.11 L 1.131,4.11 2.461,0 3.034,0 1.864,3.523 c 0.432,0.088 0.772,0.27 1.054,1.039 0.194,0.53 0.287,1.21 0.279,1.841 0,1.074 -0.26,2.071 -0.646,2.53 C 2.311,9.246 1.964,9.42 1.23,9.42 L 0,9.42 0,0 z"
           style="fill:#0083a9;fill-opacity:1;fill-rule:nonzero;stroke:none"
           id="path864"
           inkscape:connector-curvature="0" />
      </g>
      <g
         transform="translate(509.8528,350.6519)"
         id="g866"
         style="fill:#0083a9;fill-opacity:1">
        <path
           d="M 0,0 C 0.042,1.25 0.587,2.32 1.325,2.32 2.035,2.362 2.614,1.2 2.646,0 L 0,0 z M 3.11,-0.753 C 3.158,0.342 2.969,1.398 2.575,2.157 2.247,2.78 1.805,3.132 1.324,3.132 c -1.029,0 -1.806,-1.624 -1.806,-3.632 0,-1.699 0.622,-3.597 1.807,-3.597 0.351,0 0.688,0.183 0.978,0.551 0.288,0.374 0.533,0.933 0.692,1.672 l -0.491,0 C 2.284,-2.763 1.858,-3.285 1.33,-3.285 0.751,-3.294 0.015,-2.474 -0.008,-0.753 l 3.118,0 z"
           style="fill:#0083a9;fill-opacity:1;fill-rule:evenodd;stroke:none"
           id="path868"
           inkscape:connector-curvature="0" />
      </g>
      <g
         transform="translate(513.8837,350.1782)"
         id="g870"
         style="fill:#0083a9;fill-opacity:1">
        <path
           d="M 0,0 C 0,1.609 0.614,2.727 1.364,2.727 1.857,2.727 2.198,2.318 2.409,1.771 2.624,1.228 2.717,0.544 2.717,-0.022 2.713,-0.782 2.572,-1.466 2.336,-1.958 2.099,-2.452 1.768,-2.749 1.375,-2.749 0.492,-2.749 0.005,-1.397 0,-0.013 L 0,0 z m 3.173,3.416 -0.468,0 0,-1.411 C 2.518,2.837 1.998,3.602 1.322,3.602 c -1.044,0 -1.791,-1.583 -1.791,-3.627 0,-1.968 0.719,-3.599 1.791,-3.599 0.66,0 1.136,0.667 1.38,1.636 l 0,-0.871 c 0,-1.716 -0.667,-2.732 -1.327,-2.732 -0.216,0 -0.505,0.137 -0.756,0.498 -0.202,0.276 -0.326,0.608 -0.406,0.9 l -0.541,0 c 0.219,-1.226 0.837,-2.209 1.695,-2.209 0.463,0 0.961,0.393 1.295,1.054 0.298,0.572 0.511,1.401 0.511,2.696 l 0,6.068 z"
           style="fill:#0083a9;fill-opacity:1;fill-rule:evenodd;stroke:none"
           id="path872"
           inkscape:connector-curvature="0" />
      </g>
      <path
         d="m 517.967,346.741 0.469,0 0,6.852 -0.469,0 0,-6.852 z m 0,8.114 0.469,0 0,1.306 -0.469,0 0,-1.306 z"
         style="fill:#0083a9;fill-opacity:1;fill-rule:evenodd;stroke:none"
         id="path874"
         inkscape:connector-curvature="0" />
      <g
         transform="translate(519.6103,350.1823)"
         id="g876"
         style="fill:#0083a9;fill-opacity:1">
        <path
           d="M 0,0 C 0,1.567 0.588,2.735 1.348,2.735 2.109,2.735 2.696,1.567 2.696,0 2.696,-1.568 2.109,-2.736 1.348,-2.736 0.588,-2.736 0,-1.568 0,-0.013 L 0,0 z m -0.47,-0.013 c 0,-1.927 0.715,-3.611 1.818,-3.611 1.103,0 1.818,1.684 1.818,3.611 0,1.919 -0.715,3.611 -1.818,3.611 C 0.245,3.598 -0.47,1.906 -0.47,0 l 0,-0.013 z"
           style="fill:#0083a9;fill-opacity:1;fill-rule:evenodd;stroke:none"
           id="path878"
           inkscape:connector-curvature="0" />
      </g>
      <g
         transform="translate(523.4847,346.7413)"
         id="g880"
         style="fill:#0083a9;fill-opacity:1">
        <path
           d="m 0,0 0.469,0 0,3.869 c 0,1.424 0.405,2.278 1.115,2.294 C 2.358,6.18 2.682,5.179 2.682,3.704 l 0,-3.704 0.471,0 0,3.889 c 0,1.67 -0.377,3.12 -1.445,3.154 C 1.1,7.059 0.634,6.521 0.441,5.625 0.446,6.083 0.446,6.465 0.446,6.852 L 0,6.852 0,0 z"
           style="fill:#0083a9;fill-opacity:1;fill-rule:nonzero;stroke:none"
           id="path882"
           inkscape:connector-curvature="0" />
      </g>
      <g
         transform="translate(527.8024,350.1608)"
         id="g884"
         style="fill:#0083a9;fill-opacity:1">
        <path
           d="M 0,0 C 0,1.534 0.57,2.749 1.357,2.749 1.965,2.749 2.423,2.056 2.616,1.112 2.69,0.778 2.725,0.399 2.72,0.022 2.721,-0.356 2.685,-0.729 2.609,-1.069 2.42,-2.03 1.978,-2.736 1.372,-2.736 0.434,-2.736 0.005,-1.241 0,-0.012 L 0,0 z m 3.178,3.433 -0.469,0 0,-1.442 C 2.542,2.765 2.044,3.623 1.307,3.623 c -1.04,0 -1.776,-1.604 -1.776,-3.615 0,-1.887 0.664,-3.619 1.776,-3.619 0.613,0 1.133,0.575 1.402,1.61 l 0,-1.419 0.469,0 0,6.853 z"
           style="fill:#0083a9;fill-opacity:1;fill-rule:evenodd;stroke:none"
           id="path886"
           inkscape:connector-curvature="0" />
      </g>
      <path
         d="m 531.899,346.741 0.469,0 0,9.42 -0.469,0 0,-9.42 z"
         style="fill:#0083a9;fill-opacity:1;fill-rule:nonzero;stroke:none"
         id="path888"
         inkscape:connector-curvature="0" />
      <g
         transform="translate(538.961,349.28)"
         id="g890"
         style="fill:#0083a9;fill-opacity:1">
        <path
           d="m 0,0 c -0.114,-0.356 -0.619,-1.779 -1.605,-1.779 -1.093,0 -1.926,1.741 -1.926,3.959 0,2.188 0.822,3.941 1.925,3.941 C -0.693,6.112 -0.162,4.855 0,4.291 l 0.566,0 c -0.271,1.204 -1.009,2.752 -2.171,2.76 -1.412,0 -2.453,-2.189 -2.453,-4.876 0,-2.733 1.066,-4.883 2.457,-4.883 1.037,0 1.86,1.246 2.163,2.708 L 0,0 z"
           style="fill:#0083a9;fill-opacity:1;fill-rule:nonzero;stroke:none"
           id="path892"
           inkscape:connector-curvature="0" />
      </g>
      <g
         transform="translate(540.4651,350.1823)"
         id="g894"
         style="fill:#0083a9;fill-opacity:1">
        <path
           d="M 0,0 C 0,1.567 0.589,2.735 1.349,2.735 2.109,2.735 2.698,1.567 2.698,0 2.698,-1.568 2.109,-2.736 1.349,-2.736 0.589,-2.736 0,-1.568 0,-0.013 L 0,0 z m -0.469,-0.013 c 0,-1.927 0.716,-3.611 1.818,-3.611 1.104,0 1.819,1.684 1.819,3.611 0,1.919 -0.715,3.611 -1.819,3.611 C 0.247,3.598 -0.469,1.906 -0.469,0 l 0,-0.013 z"
           style="fill:#0083a9;fill-opacity:1;fill-rule:evenodd;stroke:none"
           id="path896"
           inkscape:connector-curvature="0" />
      </g>
      <g
         transform="translate(547.4895,353.5936)"
         id="g898"
         style="fill:#0083a9;fill-opacity:1">
        <path
           d="m 0,0 -0.47,0 0,-3.869 c 0,-1.425 -0.406,-2.279 -1.118,-2.295 -0.775,-0.016 -1.101,0.985 -1.101,2.46 l 0,3.704 -0.468,0 0,-3.889 c 0,-1.67 0.376,-3.12 1.445,-3.154 0.611,-0.017 1.076,0.521 1.27,1.418 -0.005,-0.454 -0.005,-0.837 -0.005,-1.227 L 0,-6.852 0,0 z"
           style="fill:#0083a9;fill-opacity:1;fill-rule:nonzero;stroke:none"
           id="path900"
           inkscape:connector-curvature="0" />
      </g>
      <g
         transform="translate(548.4074,346.7413)"
         id="g902"
         style="fill:#0083a9;fill-opacity:1">
        <path
           d="m 0,0 0.469,0 0,3.869 c 0,1.424 0.406,2.278 1.115,2.294 C 2.358,6.18 2.682,5.179 2.682,3.704 l 0,-3.704 0.47,0 0,3.889 c 0,1.67 -0.376,3.12 -1.442,3.154 C 1.101,7.059 0.634,6.521 0.441,5.625 0.447,6.083 0.447,6.465 0.447,6.852 L 0,6.852 0,0 z"
           style="fill:#0083a9;fill-opacity:1;fill-rule:nonzero;stroke:none"
           id="path904"
           inkscape:connector-curvature="0" />
      </g>
      <g
         transform="translate(555.3133,349.0526)"
         id="g906"
         style="fill:#0083a9;fill-opacity:1">
        <path
           d="m 0,0 c -0.148,-0.815 -0.584,-1.615 -1.24,-1.623 -0.742,0 -1.347,1.122 -1.347,2.74 0,0.782 0.155,1.529 0.387,1.971 0.285,0.527 0.562,0.768 0.965,0.768 0.485,0.01 1.026,-0.525 1.239,-1.682 l 0.486,0 c -0.236,1.637 -0.974,2.558 -1.743,2.558 -1.035,0 -1.805,-1.595 -1.805,-3.62 0,-1.835 0.676,-3.61 1.835,-3.61 0.823,0 1.491,1.047 1.711,2.498 L 0,0 z"
           style="fill:#0083a9;fill-opacity:1;fill-rule:nonzero;stroke:none"
           id="path908"
           inkscape:connector-curvature="0" />
      </g>
      <path
         d="m 556.479,346.741 0.469,0 0,6.852 -0.469,0 0,-6.852 z m 0,8.114 0.469,0 0,1.306 -0.469,0 0,-1.306 z"
         style="fill:#0083a9;fill-opacity:1;fill-rule:evenodd;stroke:none"
         id="path910"
         inkscape:connector-curvature="0" />
      <path
         d="m 557.864,346.741 0.469,0 0,9.42 -0.469,0 0,-9.42 z"
         style="fill:#0083a9;fill-opacity:1;fill-rule:nonzero;stroke:none"
         id="path912"
         inkscape:connector-curvature="0" />
      <g
         transform="translate(487.1013,342.3256)"
         id="g914">
        <path
           d="M 0,0 0.74,0 C 1.141,0 1.386,-0.085 1.62,-0.395 1.827,-0.663 1.977,-1.254 1.977,-1.933 1.977,-2.595 1.83,-3.194 1.624,-3.462 1.392,-3.772 1.146,-3.858 0.754,-3.858 L 0,-3.858 0,0 z m -0.526,0.931 0,-9.42 0.526,0 0,3.702 0.761,0 c 0.608,0 0.927,0.157 1.244,0.644 0.285,0.441 0.482,1.345 0.482,2.231 0,0.887 -0.193,1.766 -0.502,2.24 C 1.692,0.773 1.379,0.931 0.717,0.931 l -1.243,0 z"
           style="fill:#ffffff;fill-opacity:1;fill-rule:evenodd;stroke:none"
           id="path916"
           inkscape:connector-curvature="0" />
      </g>
      <g
         transform="translate(489.9076,336.4608)"
         id="g918">
        <path
           d="m 0,0 c 0.032,-1.803 0.687,-2.795 1.475,-2.795 0.88,0 1.458,1.226 1.458,2.762 C 2.933,1.7 2.23,2.2 1.785,2.546 1.07,3.021 0.611,3.305 0.616,4.453 c 0,0.974 0.387,1.616 0.856,1.616 0.63,0 0.782,-0.931 0.837,-1.539 l 0.522,0 C 2.756,6.312 2.079,6.965 1.493,6.965 0.777,6.965 0.079,6.035 0.092,4.36 0.092,2.582 0.913,2.099 1.3,1.874 1.841,1.511 2.408,1.221 2.408,-0.1 2.408,-1.146 1.956,-1.899 1.466,-1.899 1.172,-1.899 0.601,-1.572 0.525,0 L 0,0 z"
           style="fill:#ffffff;fill-opacity:1;fill-rule:nonzero;stroke:none"
           id="path920"
           inkscape:connector-curvature="0" />
      </g>
      <g
         transform="translate(493.5033,333.8365)"
         id="g922">
        <path
           d="m 0,0 0.526,0 0,8.489 0.739,0 c 0.426,0 0.718,-0.038 0.954,-0.34 C 2.514,7.768 2.687,7.031 2.687,6.324 2.687,5.657 2.578,5.075 2.329,4.595 2.077,4.127 1.617,4.109 1.285,4.109 l -0.154,0 L 2.46,0 3.033,0 1.864,3.521 c 0.431,0.09 0.772,0.272 1.053,1.04 0.193,0.53 0.287,1.21 0.279,1.842 0,1.074 -0.259,2.071 -0.645,2.529 C 2.311,9.246 1.963,9.419 1.229,9.419 L 0,9.419 0,0 z"
           style="fill:#ffffff;fill-opacity:1;fill-rule:nonzero;stroke:none"
           id="path924"
           inkscape:connector-curvature="0" />
      </g>
      <g
         transform="translate(501.1203,336.3748)"
         id="g926">
        <path
           d="m 0,0 c -0.115,-0.356 -0.62,-1.779 -1.604,-1.779 -1.095,0 -1.928,1.742 -1.928,3.959 0,2.187 0.823,3.941 1.925,3.941 C -0.694,6.112 -0.163,4.855 0,4.292 l 0.566,0 c -0.272,1.204 -1.009,2.751 -2.17,2.759 -1.414,0 -2.455,-2.189 -2.455,-4.876 0,-2.733 1.067,-4.883 2.458,-4.883 1.037,0 1.86,1.246 2.163,2.708 L 0,0 z"
           style="fill:#ffffff;fill-opacity:1;fill-rule:nonzero;stroke:none"
           id="path928"
           inkscape:connector-curvature="0" />
      </g>
    </g>
  </g>
</svg>
