<?xml version="1.0" encoding="UTF-8" standalone="no"?>
<svg
   xmlns:dc="http://purl.org/dc/elements/1.1/"
   xmlns:cc="http://creativecommons.org/ns#"
   xmlns:rdf="http://www.w3.org/1999/02/22-rdf-syntax-ns#"
   xmlns:svg="http://www.w3.org/2000/svg"
   xmlns="http://www.w3.org/2000/svg"
   viewBox="0 0 176.8 206.42667"
   height="206.42667"
   width="176.8"
   xml:space="preserve"
   id="svg2"
   version="1.1"><metadata
     id="metadata8"><rdf:RDF><cc:Work
         rdf:about=""><dc:format>image/svg+xml</dc:format><dc:type
           rdf:resource="http://purl.org/dc/dcmitype/StillImage" /></cc:Work></rdf:RDF></metadata><defs
     id="defs6" /><g
     transform="matrix(1.3333333,0,0,-1.3333333,0,206.42667)"
     id="g10"><g
       transform="scale(0.1)"
       id="g12"><path
         id="path14"
         style="fill:#ffffff;fill-opacity:1;fill-rule:nonzero;stroke:none"
         d="m 1293.18,1521.03 -1.09,12.9 H 33.8711 l -1.0859,-12.9 C 30.9102,1498.48 -12.7656,966.359 33.0664,756.027 78.1719,548.984 148.66,437.211 271.23,291.66 384.125,157.59 646.32,22.7305 662.98,14.2383 679.648,22.7305 941.84,157.59 1054.74,291.66 c 122.56,145.551 193.05,257.324 238.16,464.367 45.83,210.332 2.15,742.453 0.28,765.003" /><path
         id="path16"
         style="fill:#193051;fill-opacity:1;fill-rule:nonzero;stroke:none"
         d="M 34.2617,1533.93 11.3281,1050.45 H 192.871 l 66.895,57.32 105.086,-17.52 187.171,23.26 v 420.42 H 34.2617" /><path
         id="path18"
         style="fill:#193051;fill-opacity:1;fill-rule:nonzero;stroke:none"
         d="M 777.25,588.887 V 87.7695 L 994.789,235.398 c 0,0 103.561,108.59 160.981,193.493 57.42,84.898 108.24,237.918 108.24,237.918 l 34.4,153.359 h -173.43 l -12.9,-217.852 -87.43,-32.968 -147.158,14.336 -100.242,5.203" /><path
         id="path20"
         style="fill:#231f20;fill-opacity:1;fill-rule:nonzero;stroke:none"
         d="m 1131.14,1065.57 c 0,0 -50.76,46.43 -59.6,54.72 -8.84,8.28 -15.03,4.71 -24.51,1.78 -22.04,-6.82 -80.569,-24.96 -187.514,-5.22 -25.918,4.78 -49.043,7.03 -69.766,7.65 v 395.01 h 487.57 c 4.19,-54.24 21.68,-256.75 21.76,-453.94 z M 1288.47,838.16 H 1132.9 v 99.375 h 0.33 v -4.332 h 161.18 c -1.36,-34.433 -2.88,-65.226 -5.94,-95.043 z m -11.91,-76.402 C 1231.88,556.691 1161.84,445.711 1039.99,301.031 978.52,228.031 874.457,155.941 789.75,103.98 v 467.68 c 24.746,0.176 53.895,-1.64 88.105,-6.562 177.455,-25.547 245.955,19.347 248.775,21.269 3.93,2.676 6.27,7.11 6.27,11.856 V 809.5 h 151.09 c -2.17,-15.527 -4.58,-34.664 -7.43,-47.742 z M 760.973,90.7109 C 721.508,67.5117 684.656,47.1484 667.488,38.0117 V 543.121 c 15.66,8.656 59.305,24.672 93.485,27.348 z M 444.027,593.477 c -135.636,-19.539 -202.589,4.16 -222.304,13.339 v 444.194 l 28.875,25.76 1.105,-428.711 c 0.016,-4.727 2.36,-9.141 6.274,-11.809 2.222,-1.512 56.347,-36.836 213.293,-12.227 129.003,20.266 184.472,-17.539 191.71,-23.015 7.239,5.476 62.715,43.281 191.719,23.015 156.941,-24.609 211.071,10.715 213.291,12.227 3.92,2.668 6.25,7.082 6.27,11.809 l 1.11,428.711 28.87,-25.76 V 606.816 c -19.71,-9.179 -86.67,-32.878 -222.302,-13.339 -133.887,19.257 -195.008,-6.661 -218.958,-21.004 -23.937,14.343 -85.062,40.261 -218.953,21.004 z M 536.215,103.98 C 451.504,155.941 347.434,228.031 285.965,301.031 164.125,445.711 94.0938,556.691 49.4063,761.758 46.5625,774.836 44.1406,793.973 41.9727,809.5 H 193.059 V 598.223 c 0,-4.746 2.351,-9.18 6.277,-11.856 2.82,-1.922 71.328,-46.816 248.777,-21.269 34.2,4.922 63.36,6.738 88.102,6.562 z M 28.4102,984.977 c -1.2579,29.563 -1.0782,51.953 -1.0782,51.953 h 165.543 l 0.176,-94.746 H 30.9844 c -0.586,7.043 -1.6953,21.918 -2.5742,42.793 z M 48.6445,1519.23 H 536.215 V 1124.5 c -20.727,-0.62 -43.848,-2.87 -69.766,-7.65 -106.937,-19.74 -165.484,-1.6 -187.523,5.22 -9.469,2.93 -15.656,6.5 -24.504,-1.78 -8.844,-8.29 -59.59,-54.72 -59.59,-54.72 H 26.8828 c 0.0899,197.19 17.5742,399.41 21.7617,453.66 z M 658.523,1069.78 658.41,636.008 c -25.09,13.984 -82.18,33.496 -191.586,16.336 -114.801,-18.016 -169.14,-2.41 -186.48,4.668 l -1.121,435.018 c 28.89,-8.4 90.425,-22.2 192.422,-3.38 127.863,23.6 185.839,-18.42 186.878,-18.87 z m -93.468,449.45 97.925,0.11 0.055,-417.66 c 0,0 -27.758,10.86 -50.453,16.11 -22.691,5.26 -47.527,6.84 -47.527,6.84 z M 854.32,1088.65 c 102,-18.82 163.53,-5.02 192.42,3.38 l -1.12,-435.018 c -17.34,-7.078 -71.682,-22.684 -186.475,-4.668 -109.415,17.16 -166.504,-2.352 -191.598,-16.336 l -0.106,433.772 c 1.043,0.45 59.02,42.47 186.879,18.87 z m 450.66,446.38 -1.09,13.14 H 22.0781 l -1.1015,-13.14 C 19.0664,1512.05 -25.4297,969.961 21.2578,755.684 67.2148,544.77 139.023,430.891 263.887,282.621 378.898,146.039 646.012,8.64063 662.98,-0.0117188 679.961,8.64063 947.063,146.039 1062.08,282.621 c 124.86,148.27 196.66,262.149 242.63,473.063 46.69,214.277 2.2,756.366 0.27,779.346" /><path
         id="path22"
         style="fill:#ffffff;fill-opacity:1;fill-rule:nonzero;stroke:none"
         d="m 281.664,1165.66 c -95.707,0 -173.574,77.87 -173.574,173.58 0,33.09 9.43,65.12 26.973,92.78 -3.2,-12.38 -4.84,-25.14 -4.84,-37.9 0,-83.5 67.933,-151.44 151.441,-151.44 83.52,0 151.465,67.94 151.465,151.44 0,12.78 -1.645,25.56 -4.848,37.94 17.547,-27.66 26.977,-59.71 26.977,-92.82 0,-95.71 -77.875,-173.58 -173.594,-173.58" /><path
         id="path24"
         style="fill:#231f20;fill-opacity:1;fill-rule:nonzero;stroke:none"
         d="m 412.207,1460.85 c 10.426,-20.44 16.043,-43.29 16.043,-66.73 0,-80.82 -65.762,-146.57 -146.582,-146.57 -80.82,0 -146.57,65.75 -146.57,146.57 0,23.4 5.609,46.23 16.019,66.66 -30.273,-32.64 -47.898,-76.05 -47.898,-121.54 0,-98.4 80.051,-178.45 178.449,-178.45 98.41,0 178.469,80.05 178.469,178.45 0,45.53 -17.645,88.96 -47.93,121.61 m 25.52,-57.56 c 8.3,-20.16 12.66,-41.86 12.66,-64.05 0,-93.02 -75.692,-168.71 -168.719,-168.71 -93.023,0 -168.699,75.69 -168.699,168.71 0,22.18 4.355,43.87 12.656,64.01 -0.184,-3.04 -0.27,-6.09 -0.27,-9.13 0,-86.19 70.122,-156.32 156.313,-156.32 86.203,0 156.328,70.13 156.328,156.32 0,3.06 -0.094,6.11 -0.269,9.17" /><path
         id="path26"
         style="fill:#231f20;fill-opacity:1;fill-rule:nonzero;stroke:none"
         d="m 359.277,888.055 v 106.781 c 7.93,0 12.836,-11.488 12.836,-53.391 0,-41.898 -4.906,-53.39 -12.836,-53.39 m -7.597,118.605 h -21.969 v -10.988 h 4.219 V 887.219 h -4.219 v -10.985 h 21.969 c 25.84,0 48.312,10.653 48.312,65.211 0,54.563 -22.472,65.215 -48.312,65.215" /><path
         id="path28"
         style="fill:#231f20;fill-opacity:1;fill-rule:nonzero;stroke:none"
         d="m 442.219,992.801 c 1.855,1.859 4.043,2.871 9.113,2.871 h 3.895 l 0.671,-8.445 h 10.985 v 19.433 h -26.192 c -8.453,0 -15.707,-1.35 -20.781,-6.44 -5.055,-5.052 -6.422,-12.993 -6.422,-20.767 v -45.789 h -4.218 v -10.98 h 4.218 v -19.246 c 0,-7.778 1.367,-15.711 6.422,-20.77 5.074,-5.09 12.328,-6.434 20.781,-6.434 h 28.215 v 19.426 h -10.988 l -0.672,-8.441 h -5.914 c -5.07,0 -7.258,1.015 -9.113,2.871 -1.867,1.859 -2.871,4.043 -2.871,9.129 v 23.465 h 19.933 v 10.98 h -19.933 v 50.008 c 0,5.058 1.004,7.269 2.871,9.129" /><path
         id="path30"
         style="fill:#231f20;fill-opacity:1;fill-rule:nonzero;stroke:none"
         d="m 480.902,912.711 c 0,-25.492 16.567,-38.152 33.282,-38.152 16.726,0 33.457,12.66 33.457,38.152 v 82.961 h 4.379 v 10.988 H 522.293 V 898.711 c 0,-7.781 -3.715,-13.203 -8.109,-13.203 -4.383,0 -7.934,5.422 -7.934,13.203 v 107.949 h -29.566 v -10.988 h 4.218 v -82.961" /><path
         id="path32"
         style="fill:#231f20;fill-opacity:1;fill-rule:nonzero;stroke:none"
         d="m 577.559,906.82 c 0,-11.672 -5.079,-19.933 -12.848,-26.371 l 8.281,-8.258 c 11.996,6.911 30.746,21.789 30.746,49.469 0,9.82 -3.211,20.953 -8.269,30.442 -5.586,10.437 -9.641,18.91 -9.641,26.332 0,6.078 1.524,9.632 3.387,12.183 l 5.394,-3.566 7.782,7.785 -15.887,15.864 c -13.348,-8.77 -27.699,-26.341 -27.699,-44.774 0,-8.766 3.035,-19.426 8.109,-28.559 7.094,-12.832 10.645,-22.613 10.645,-30.547" /><path
         id="path34"
         style="fill:#231f20;fill-opacity:1;fill-rule:nonzero;stroke:none"
         d="m 748.52,983.348 c 0,8.441 3.554,13.164 7.957,13.164 4.375,0 8.117,-4.723 8.117,-13.164 V 876.234 h 25.312 v 107.114 c 0,8.441 3.739,13.164 8.114,13.164 4.398,0 7.96,-4.723 7.96,-13.164 V 876.234 h 29.54 v 10.985 h -4.215 v 82.09 c 0,23.816 -13.5,38.191 -33.789,38.191 -8.442,0 -15.715,-3.89 -20.266,-7.605 -4.551,3.715 -11.816,7.605 -20.266,7.605 -20.281,0 -33.777,-14.375 -33.777,-38.191 v -82.09 h -4.219 v -10.985 h 29.532 v 107.114" /><path
         id="path36"
         style="fill:#231f20;fill-opacity:1;fill-rule:nonzero;stroke:none"
         d="m 849.035,903.438 c 0,-7.778 1.36,-15.711 6.406,-20.77 5.063,-5.09 12.336,-6.434 20.774,-6.434 h 33.945 v 19.426 h -10.976 l -0.664,-8.441 h -11.653 c -5.058,0 -7.273,1.015 -9.129,2.871 -1.855,1.855 -2.871,4.043 -2.871,9.125 v 23.469 h 19.934 v 10.98 h -19.934 v 50.008 c 0,5.058 1.016,7.277 2.871,9.129 1.856,1.859 4.071,2.875 9.129,2.875 h 9.621 l 0.653,-8.446 h 10.988 v 19.43 h -31.914 c -8.438,0 -15.711,-1.35 -20.774,-6.44 -5.046,-5.052 -6.406,-12.99 -6.406,-20.767 v -45.789 h -4.219 v -10.98 h 4.219 v -19.246" /><path
         id="path38"
         style="fill:#231f20;fill-opacity:1;fill-rule:nonzero;stroke:none"
         d="m 965.07,984.18 v -50.516 h -16.062 v 50.516 c 0,7.781 3.555,13.172 7.961,13.172 4.363,0 8.101,-5.391 8.101,-13.172 m -41.386,-14.032 v -36.484 h -4.215 v -10.98 h 4.215 v -35.465 h -4.215 v -10.985 h 29.539 v 46.45 h 16.062 v -46.45 h 29.719 v 10.985 h -4.394 v 82.929 c 0,25.528 -16.7,38.182 -33.426,38.182 -16.731,0 -33.285,-12.654 -33.285,-38.182" /><path
         id="path40"
         style="fill:#231f20;fill-opacity:1;fill-rule:nonzero;stroke:none"
         d="m 434.633,728.965 h -15.707 v 108.449 h 4.219 v 10.984 h -33.79 v -10.984 h 4.219 V 728.965 h -4.219 V 717.98 h 59.981 v 32.11 h -10.988 l -3.715,-21.125" /><path
         id="path42"
         style="fill:#231f20;fill-opacity:1;fill-rule:nonzero;stroke:none"
         d="m 497.844,740.813 c 0,-7.786 -3.715,-13.204 -8.114,-13.204 -4.386,0 -7.929,5.418 -7.929,13.204 V 848.762 H 452.23 v -10.989 h 4.219 v -82.957 c 0,-25.5 16.571,-38.156 33.281,-38.156 16.735,0 33.461,12.656 33.461,38.156 v 82.957 h 4.387 v 10.989 H 497.844 V 740.813" /><path
         id="path44"
         style="fill:#231f20;fill-opacity:1;fill-rule:nonzero;stroke:none"
         d="m 580.242,790.969 16.735,46.445 h 4.222 v 10.984 H 586.32 l -12.492,-35.648 -10.64,35.648 h -27.715 v -10.984 h 4.218 l 17.079,-57.281 -18.754,-51.168 h -4.235 V 717.98 h 14.696 l 14.711,40.692 12.167,-40.692 h 27.532 v 10.985 h -4.219 l -18.426,62.004" /><path
         id="path46"
         style="fill:#231f20;fill-opacity:1;fill-rule:nonzero;stroke:none"
         d="m 769.152,728.965 h -11.66 c -5.058,0 -7.273,1.008 -9.117,2.871 -1.867,1.855 -2.883,4.043 -2.883,9.121 v 23.465 h 19.934 v 10.984 h -19.934 v 50.012 c 0,5.051 1.016,7.273 2.883,9.125 1.844,1.863 4.059,2.875 9.117,2.875 h 9.621 l 0.664,-8.438 h 10.989 v 19.422 H 746.84 c -8.438,0 -15.711,-1.351 -20.774,-6.433 -5.054,-5.059 -6.406,-12.989 -6.406,-20.774 v -45.789 h -4.207 v -10.984 h 4.207 v -19.246 c 0,-7.774 1.352,-15.703 6.406,-20.762 5.063,-5.086 12.336,-6.434 20.774,-6.434 h 33.957 v 19.422 h -10.988 l -0.657,-8.437" /><path
         id="path48"
         style="fill:#231f20;fill-opacity:1;fill-rule:nonzero;stroke:none"
         d="m 815.426,820.176 c 0,6.082 1.531,9.64 3.379,12.183 l 5.418,-3.562 7.754,7.785 -15.86,15.859 c -13.351,-8.769 -27.707,-26.339 -27.707,-44.773 0,-8.766 3.051,-19.418 8.106,-28.551 7.089,-12.836 10.625,-22.621 10.625,-30.551 0,-11.671 -5.055,-19.933 -12.84,-26.367 l 8.293,-8.261 c 12,6.914 30.73,21.785 30.73,49.472 0,9.813 -3.203,20.945 -8.261,30.434 -5.567,10.445 -9.637,18.918 -9.637,26.332" /><path
         id="path50"
         style="fill:#231f20;fill-opacity:1;fill-rule:nonzero;stroke:none"
         d="m 840.93,820.504 h 10.988 l 2.219,16.914 h 15.332 V 728.965 h -5.051 V 717.98 h 35.488 v 10.985 h -5.09 v 108.453 h 15.372 l 2.191,-16.914 h 10.984 v 27.898 H 840.93 v -27.898" /><path
         id="path52"
         style="fill:#b21c2c;fill-opacity:1;fill-rule:nonzero;stroke:none"
         d="m 658.516,542.93 c -7.203,4.121 -22.637,12.238 -41.985,18.175 -26.879,8.243 -51.601,10.633 -51.601,10.633 V 87.7695 L 658.516,38.0117 V 542.93" /><path
         id="path54"
         style="fill:#b21c2c;fill-opacity:1;fill-rule:nonzero;stroke:none"
         d="M 31.5352,933.203 42.1484,838.801 H 192.637 v 94.402 H 31.5352" /><path
         id="path56"
         style="fill:#b21c2c;fill-opacity:1;fill-rule:nonzero;stroke:none"
         d="m 1298.4,1037.3 h -165.17 v -95.116 h 161.34 l 3.83,95.116" /><path
         id="path58"
         style="fill:#b21c2c;fill-opacity:1;fill-rule:nonzero;stroke:none"
         d="m 667.488,1519.12 v -415.28 c 6.317,2.87 19.559,8.24 40.887,13.49 31.055,7.64 52.195,7.16 52.195,7.16 v 394.63 h -93.082" /><path
         id="path60"
         style="fill:#231f20;fill-opacity:1;fill-rule:nonzero;stroke:none"
         d="m 667.488,1093.64 h -8.972 v 430.16 h 8.972 v -430.16" /></g></g></svg>