<?xml version="1.0" encoding="utf-8"?>
<!-- Generator: Adobe Illustrator 22.0.1, SVG Export Plug-In . SVG Version: 6.00 Build 0)  -->
<svg version="1.1" id="Layer_1" xmlns="http://www.w3.org/2000/svg" xmlns:xlink="http://www.w3.org/1999/xlink" x="0px" y="0px"
	 width="250.1px" height="209.67px" viewBox="0 0 250.1 209.67" enable-background="new 0 0 250.1 209.67" xml:space="preserve">
<g>
	<path fill="#F58025" d="M128.37,209.62c57.87,0,104.79-46.91,104.79-104.79S186.24,0.05,128.37,0.05
		C70.5,0.05,23.58,46.96,23.58,104.84S70.5,209.62,128.37,209.62"/>
	<path fill="#A7A9AC" d="M97.12,185.19c-2.06,4.39-3.87,9.29-6.2,9.29c-2.32,0-4.91-6.46-6.46-9.81L25.35,57.66
		C17.09,39.84,15.02,37.52,8.31,37.52c-4.91,0-8.26,0-8.26-3.87c0-2.06,1.81-3.1,4.13-3.1c8.26,0,16.52,1.03,25.3,1.03
		c8.26,0,16.52-1.03,24.78-1.03c2.32,0,4.65,0.52,4.65,3.61c0,3.36-2.84,3.36-6.2,3.36c-3.87,0-10.07,0.26-10.07,5.68
		c0,3.61,2.58,8.78,4.13,12.13l45.7,98.36c2.32,5.16,4.39,9.29,5.68,9.29c1.55,0,3.62-4.39,5.42-8.26L117,125.81
		c1.29-3.1,3.1-6.71,3.1-10.07c0-3.87-3.36-10.84-5.16-14.97L93.51,54.56c-5.94-12.65-10.33-17.04-14.97-17.04c-4.65,0-8,0-8-3.36
		c0-2.32,1.81-3.61,3.87-3.61c8.26,0,17.04,1.03,25.3,1.03c8.26,0,16.52-1.03,24.78-1.03c2.06,0,4.39,1.29,4.39,3.87
		c0,3.1-3.36,3.1-8,3.1c-3.87,0-8.52,1.29-8.52,5.94s12.91,31.76,14.97,36.14c2.58,5.68,4.65,10.07,5.68,10.07
		c1.03,0,3.1-3.87,5.16-9.04c2.06-5.42,16.27-32.79,16.27-37.95c0-4.9-5.94-5.16-9.55-5.16c-2.32,0-5.17-0.26-5.17-3.1
		s2.33-3.87,4.91-3.87c6.19,0,12.39,1.03,18.59,1.03c6.2,0,12.39-1.03,18.59-1.03c1.81,0,3.36,1.29,3.36,3.36
		c0,3.61-3.1,3.61-7.49,3.61c-12.65,0-16.52,11.62-21.17,21.43l-11.88,24.79c-2.06,4.39-5.94,11.88-5.94,16.52
		c0,3.87,3.36,10.59,4.91,13.94l17.04,38.21c1.55,3.87,3.61,9.29,4.91,9.29c1.29,0,3.36-5.94,4.9-9.81l38.98-94.23
		c1.55-3.87,3.87-9.29,3.87-13.42c0-6.71-6.45-6.71-11.36-6.71c-4.13,0-5.94-0.52-5.94-3.61c0-2.32,2.07-3.36,4.39-3.36
		c6.2,0,12.91,1.03,19.11,1.03s12.39-1.03,18.85-1.03c2.07,0,4.39,1.29,4.39,3.87c0,3.1-3.36,3.1-6.97,3.1
		c-8.26,0-11.62,4.65-18.59,21.43l-52.41,126.51c-1.55,3.87-3.36,9.04-5.68,9.04c-2.06,0-4.39-5.94-5.42-8l-27.37-62.48h-0.52
		L97.12,185.19z"/>
	<path d="M104.44,179.36c-2.06,4.39-3.87,9.29-6.2,9.29c-2.32,0-4.9-6.46-6.46-9.81L32.67,51.83
		c-8.26-17.81-10.33-20.14-17.04-20.14c-4.91,0-8.26,0-8.26-3.87c0-2.06,1.81-3.1,4.13-3.1c8.26,0,16.52,1.03,25.3,1.03
		c8.26,0,16.52-1.03,24.78-1.03c2.32,0,4.65,0.52,4.65,3.61c0,3.36-2.84,3.36-6.19,3.36c-3.87,0-10.07,0.26-10.07,5.68
		c0,3.61,2.58,8.78,4.13,12.13l45.7,98.36c2.32,5.16,4.39,9.29,5.68,9.29c1.55,0,3.62-4.39,5.42-8.26l13.43-28.92
		c1.29-3.1,3.1-6.71,3.1-10.07c0-3.87-3.36-10.84-5.16-14.97l-21.43-46.21C94.89,36.08,90.5,31.69,85.85,31.69c-4.65,0-8,0-8-3.36
		c0-2.32,1.81-3.61,3.87-3.61c8.26,0,17.04,1.03,25.3,1.03c8.26,0,16.52-1.03,24.78-1.03c2.07,0,4.39,1.29,4.39,3.87
		c0,3.1-3.36,3.1-8,3.1c-3.87,0-8.52,1.29-8.52,5.94s12.91,31.76,14.97,36.14c2.58,5.68,4.65,10.07,5.68,10.07
		c1.03,0,3.1-3.87,5.16-9.04c2.06-5.42,16.27-32.79,16.27-37.95c0-4.9-5.94-5.16-9.55-5.16c-2.32,0-5.17-0.26-5.17-3.1
		s2.33-3.87,4.91-3.87c6.19,0,12.39,1.03,18.59,1.03c6.2,0,12.39-1.03,18.59-1.03c1.81,0,3.36,1.29,3.36,3.36
		c0,3.61-3.1,3.61-7.49,3.61c-12.65,0-16.52,11.62-21.17,21.43L151.94,77.9c-2.06,4.39-5.94,11.88-5.94,16.52
		c0,3.87,3.36,10.58,4.91,13.94l17.04,38.21c1.55,3.87,3.61,9.29,4.91,9.29c1.29,0,3.36-5.94,4.9-9.81l38.98-94.23
		c1.55-3.87,3.87-9.29,3.87-13.42c0-6.71-6.45-6.71-11.36-6.71c-4.13,0-5.94-0.52-5.94-3.61c0-2.32,2.07-3.36,4.39-3.36
		c6.19,0,12.91,1.03,19.1,1.03s12.39-1.03,18.85-1.03c2.07,0,4.39,1.29,4.39,3.87c0,3.1-3.36,3.1-6.97,3.1
		c-8.26,0-11.62,4.65-18.59,21.43l-52.41,126.51c-1.55,3.87-3.36,9.04-5.68,9.04c-2.06,0-4.39-5.94-5.42-8l-27.37-62.48h-0.52
		L104.44,179.36z"/>
	<path fill="#FFFFFF" d="M48.88,108.06l-0.5,8.44c-0.12,2.39-0.31,4.78-0.31,7.18v2.58c3.27-3.4,6.29-7.05,9.25-10.76
		c2.08-2.64,4.09-5.35,5.35-8.56c1.45,0.12,2.89,0.25,4.34,0.25c2.08,0,4.22-0.13,6.29-0.25c-3.59,2.2-6.73,5.04-9.94,7.74
		c-3.21,2.77-6.36,5.6-9.38,8.62c5.98,0.95,9.95,4.09,12.9,9.38c2.01,3.71,3.15,7.93,4.28,11.96c0.44,1.64,0.88,3.27,1.26,4.91
		c-1.39-0.13-2.77-0.19-4.22-0.19c-1.39,0-2.77,0.06-4.15,0.19c-0.57-3.97-1.39-7.87-2.83-11.58c-1.82-4.53-5.85-8.63-11.08-8.63
		c-0.69,0-1.39,0.06-2.08,0.06v8.62c0,3.84,0.12,7.68,0.44,11.52c-1.32-0.13-2.71-0.19-4.03-0.19c-1.45,0-2.83,0.06-4.22,0.19
		c0.57-4.97,0.63-10.01,0.63-14.98V123.3c0-4.47-0.13-8.87-0.25-13.34l-0.12-2.02c2.89-0.44,5.73-1.07,8.5-1.76
		C48.95,106.8,48.88,107.43,48.88,108.06 M84.32,117.06c-3.34,2.46-6.55,4.79-10.07,6.92v0.63c3.09,0.44,3.09,2.58,3.09,5.35v15.86
		c0,0.76-0.07,1.51-0.07,2.33c0,0.44-0.06,0.88-0.06,1.39c1.26-0.13,2.39-0.25,3.65-0.25c1.13,0,2.33,0.13,3.46,0.25
		c-0.19-1.95-0.31-3.84-0.31-5.79v-18.88c1.2-0.32,2.39-0.51,3.65-0.44c2.08,0.19,3.97,0.75,4.34,3.02
		c0.19,1.57,0.25,3.21,0.25,4.72v18.19c3.46-1.95,6.86-3.97,10.39-5.98l-0.82-1.32l-2.89,1.64v-18.76c0-5.98-3.78-7.3-8.94-7.8
		c-1.89,2.01-3.9,3.96-5.98,5.85L84.32,117.06z M108.8,117.32c-1.89,2.02-3.78,4.03-5.79,5.92l0.57,0.75
		c0.13-0.06,0.25-0.12,0.32-0.19c1.01-0.32,2.01,0.38,2.45,1.2c0.63,1.13,0.44,2.58,0.44,3.84v12.65c0,1.83-0.19,4.15,1.07,5.67
		c1.13,1.32,2.64,2.27,4.28,2.83c1.76-1.83,3.59-3.59,5.54-5.29l-0.63-0.88c-0.38,0.25-0.82,0.44-1.32,0.44
		c-2.33-0.25-2.27-3.34-2.27-5.04v-13.16c0-2.08,0.19-4.28-1.26-5.92C111.19,119.01,110.06,118.07,108.8,117.32 M110.69,107.24
		l-5.79,5.79l2.39,2.39l5.79-5.92L110.69,107.24z M141.78,120.4c-3.78-0.69-7.49-1.64-11.21-2.71c-3.15,2.96-6.42,5.73-9.88,8.37
		l-0.12,1.39c-0.19,1.95-0.31,3.97-0.44,5.98c-0.57,9.32,2.33,13.28,11.08,16.49c0.57-0.88,1.13-1.76,1.83-2.58
		c0.82-0.94,1.76-1.83,2.71-2.64c0.06,0.38,0.06,0.82,0.06,1.26l0.19,4.66c0.06,2.14-0.19,4.6-1.32,6.48
		c-2.52-1.38-5.04-2.77-7.49-4.22l-6.49,4.53c1.76,0.76,3.53,1.51,5.16,2.46c1.13,0.69,2.27,1.45,3.34,2.2
		c1.95-1.26,3.97-2.58,6.11-3.65c1.95-1.01,4.03-1.76,6.04-2.52c0.88-2.77,1.26-5.79,1.26-8.69c0-3.46-0.19-6.86-0.44-10.26
		c-0.25-3.59-0.63-7.24-0.63-10.89C141.53,124.18,141.59,122.29,141.78,120.4 M134.92,125.75l0.06,1.83
		c0.06,4.85,0.31,9.69,0.63,14.48l0.13,1.64c-0.31,0.06-0.69,0.19-1.01,0.19c-1.51,0-3.21-0.82-4.41-1.64
		c-2.52-1.64-3.59-4.41-3.78-7.3c-0.38-3.84,0.06-7.62,0.75-11.46L134.92,125.75z M153.43,125.25c0.57-0.13,1.07-0.25,1.64-0.31
		c2.52-0.32,5.48,0.44,7.05,2.52c1.57,2.08,1.51,6.11,1.51,8.62c0,3.02-0.13,6.17-0.57,9.19c-0.25,1.57-0.75,3.15-1.57,4.53
		c-1.01,1.76-2.26,3.34-3.59,4.91l1.2,1.01c3.27-3.21,6.67-6.36,10.07-9.44l0.31-1.32c0.63-2.77,1.13-5.6,1.13-8.44
		c0-5.41,0.19-11.58-4.16-15.61c-2.26-2.01-5.41-2.46-8.31-2.64c-1.45,2.01-2.96,3.9-4.72,5.67l0.19-14.23
		c0-1.76,0.19-3.53,0.44-5.35c-1.32,0.06-2.64,0.12-3.97,0.12s-2.45-0.12-3.71-0.25c0.25,2.52,0.38,4.97,0.38,7.49v26.5
		c0,3.78,0,7.55-0.38,11.33c1.26-0.13,2.46-0.25,3.71-0.25c1.2,0,2.33,0.13,3.53,0.25c-0.06-0.38-0.06-0.69-0.06-1.01L153.43,125.25
		z M189.74,119.52h-6.55l0.44-7.68c-1.82,2.2-3.52,4.47-5.48,6.61c-1.76,1.95-3.59,3.9-5.48,5.79h3.84v16.3
		c0,5.48,3.4,8.37,8.44,9.44l5.6-6.3l-0.57-0.82c-0.38,0.31-0.82,0.63-1.26,0.75c-1.45,0.44-3.4-0.75-4.28-1.83
		c-1.45-1.7-1.26-4.28-1.26-6.36v-11.21h6.55V119.52z M216.68,124.18c-0.31-1.83-0.63-4.66-0.82-6.48
		c-2.33,0.06-4.78,0.31-7.18,0.31c-2.39-0.06-4.79-0.13-7.18-0.57c-1.26,1.51-2.77,2.58-4.28,3.84c-1.32,1.07-2.58,2.2-3.97,3.15
		c-0.44,2.2-0.75,4.41-0.75,6.74c0,1.89,0.19,3.9,1.7,5.29c1.82,1.64,5.48,2.33,7.8,2.89c1.01-1.83,2.01-2.83,3.21-4.47
		c0.63-0.12,0-0.19,0.57-0.25c1.7-0.13,3.59,0.31,4.91,1.51c1.07,1.01,1.39,2.33,1.39,3.78c0,1.89,0.06,1.7-0.31,3.53l-16.68-0.25
		c-0.82,1.83-1.7,4.66-2.58,6.36h0.75c2.27-0.19,4.41-0.38,6.67-0.38c3.02,0,6.17,0,9.13,0.31c1.32-1.26,2.77-2.14,4.28-3.02
		c1.2-0.82,2.58-1.51,3.9-2.27l0.19-0.69c0.5-1.95,0.88-3.78,1.01-5.79c0.19-3.84-1.57-7.11-5.29-8.25
		c-1.83-0.5-3.65-0.69-5.41-0.82l-3.4,4.47c-1.32,0.06-1.26-0.12-2.46-0.75c-2.52-1.07-3.02-2.02-3.02-4.6
		c0-1.76,0.38-2.45,0.82-4.15L216.68,124.18"/>
</g>
</svg>
