<?xml version="1.0" encoding="UTF-8" standalone="no"?>
<svg xmlns:rdf="http://www.w3.org/1999/02/22-rdf-syntax-ns#" xmlns="http://www.w3.org/2000/svg" xml:space="preserve" height="57.689" viewBox="0 0 98.973007 57.689449" width="98.973" version="1.1" xmlns:cc="http://creativecommons.org/ns#" xmlns:dc="http://purl.org/dc/elements/1.1/"><g transform="matrix(1.25 0 0 -1.25 -194.53 814.51)"><g transform="translate(.46466 .37173)"><path d="m0.2207 33.072c-0.12125 0-0.2207 0.102-0.2207 0.223 0 0.1225 0.099453 0.22461 0.2207 0.22461h94.74c0.1225 0 0.22852-0.10211 0.22852-0.22461 0-0.12125-0.10602-0.22266-0.22852-0.22266h-94.74z" transform="matrix(.8 0 0 -.8 155.62 650.81)" fill="#adadad"/><path d="m0.27344 0c-0.085 0-0.10453 0.32164-0.019531 0.33789 0.01 0 0.015625 0.001953 0.015625 0.001953 0.8475 0.145 1.3716 0.20133 1.8828 0.51758 0.52375 0.32 0.48047 0.58227 0.48047 1.3223l-0.00391 22.791c0 0.74125 0.042578 1.0038-0.48242 1.3301-0.51 0.31875-1.0359 0.36992-1.8809 0.51367h-0.013672c-0.08625 0.02375-0.070078 0.33984 0.013672 0.33984h18.443c7.7762 0 11.045-3.0829 11.045-7.9004 0-3.5562-1.662-5.7295-4.9395-6.5508-0.055-0.015-0.06-0.08297 0-0.10547 2.0888-0.6525 4.0117-2.1666 4.0117-5.8691 0-5.0312-3.3938-6.7266-10.799-6.7266l-17.754-0.003zm42.778 0-13.319 0.0019531c-0.07875 0-0.07289 0.30828 0.0059 0.33203 0.0062 0.00375 0.01563 0.003906 0.01563 0.003906 0.5675 0.06375 0.87547 0.020156 1.543 0.34766 0.08 0.0375 0.26719 0.16141 0.33594 0.22266 0.42375 0.35875 0.68617 0.68352 1.2012 1.4473l9.3867 13.906v8.709c0 0.7425 0.04844 1.0038-0.47656 1.3301-0.51 0.31875-1.0345 0.36992-1.877 0.51367 0 0-0.01258 0.0014-0.01758 0.0039-0.09 0.02125-0.07367 0.33594 0.01758 0.33594h14.457c0.08 0 0.10148-0.31469 0.02148-0.33594-0.01-0.0025-0.02148-0.0039-0.02148-0.0039-0.83875-0.14375-1.3659-0.19492-1.8809-0.51367-0.52375-0.32625-0.48242-0.58617-0.48242-1.3262v-8.6504l9.4062-13.969c0.515-0.76375 0.84883-1.1612 1.2676-1.5137 0.075-0.06125 0.25031-0.17734 0.35156-0.24609 0.387-0.19425 0.54-0.24581 1.014-0.25831 0 0 0.01063-0.00015625 0.01563-0.003906 0.09-0.005 0.11758-0.33203 0.01758-0.33203l-12.681-0.00195c-0.10625 0-0.08914 0.33289 0.0059 0.33789 0.005 0 0.01563 0.003906 0.01563 0.003906 0.61 0 1.3693 0.005781 1.248 0.89453-0.06875 0.85-3.7286 6.1416-5.0273 8.1504-0.185 0.28875-0.33469 0.58031-0.39844 0.94531-0.04125-0.36125-0.27047-0.72195-0.41797-0.93945-1.815-2.71-4.9217-7.0871-5.0117-8.1621-0.07375-0.915 0.63695-0.89258 1.252-0.89258 0 0 0.0044-0.003906 0.01563-0.003906 0.083-0.00128 0.117-0.33401 0.017-0.33401zm41.246 0c-0.08 0-0.09977 0.32094-0.0098 0.33594l0.0098 0.003906c0.86 0.10625 1.2584 0.20258 1.7734 0.51758 0.52625 0.32125 0.47656 0.58047 0.47656 1.3242v13.697c0 3.12-1.7827 5.5234-5.334 5.5234-3.5562 0-5.3496-2.4034-5.3496-5.5234v-13.695c0-0.74-0.03258-1.0049 0.48242-1.3262 0.51-0.315 0.93969-0.39258 1.7734-0.51758 0 0 0.0067-0.003906 0.01172-0.003906 0.09-0.015 0.07328-0.33203-0.01172-0.33203h-12.84c-0.09625 0-0.075 0.31703 0 0.33203 0.01 0 0.02539 0.003906 0.02539 0.003906 0.4675 0.03 0.79102 0.060391 1.0723 0.30664 0.43125 0.35625 0.50586 0.79195 0.50586 1.5332l-0.0059 13.467c0 6.49 3.5509 12.004 14.336 12.004 10.771 0 14.32-5.5139 14.32-12.004v-13.467c0-0.74125-0.03063-1.001 0.48438-1.3223 0.52-0.315 1.0402-0.37133 1.8789-0.51758 0 0 0.0083-0.003906 0.01953-0.003906 0.08625-0.015 0.07047-0.33203-0.01953-0.33203l-13.599-0.0042zm-73.067 5.0684s0.33289 0.054687 0.65039 0.054687h3.5684c2.7188 0 4.3086 0.42383 4.3086 2.8926 0 1.5975-0.98976 3.0313-4.1973 3.0313h-3.6797c-0.3175 0-0.64062 0.04102-0.64062 0.04102s0.04297-0.30492 0.04297-0.63867v-4.7305c0-0.36875-0.05273-0.65039-0.05273-0.65039zm0.0098 10.135s0.32117 0.04492 0.63867 0.04492h3.0215c2.4075 0 5.3477 0.0013 5.3477 3.3301 0 2.465-2.1066 3.3359-4.9453 3.3359h-3.4238c-0.3225 0-0.63086 0.04492-0.63086 0.04492s0.03516-0.32438 0.03516-0.64062v-5.4766c0-0.36625-0.04297-0.63867-0.04297-0.63867zm76.604 24.096c-5.3838 0-8.9648 4.3748-8.9648 8.9023 0 4.7712 3.5805 8.4883 8.5918 8.4883 5.3988 0 8.9551-4.3755 8.9551-8.9043 0-4.7762-3.5558-8.4863-8.582-8.4863zm-45.617 0.07422c-0.21109 0-0.42156 0.04555-0.44531 0.13867-0.65875 2.0538-1.5282 4.353-2.3457 6.5605l-1.3965 3.8477c-1.9 5.1888-2.3705 5.5563-2.6367 5.7676-0.3925 0.265-0.87 0.42234-1.6562 0.49609-0.1325 0.035-0.08 0.34375 0 0.34375h5.3965c0.08125 0 0.10625-0.30875 0-0.34375-1.13-0.09625-1.4961-0.33914-1.4961-0.80664 0-0.5625 0.28094-1.853 1.5234-5.248h5.4551c1.5025 3.7912 1.8438 4.9795 1.8438 5.4258 0 0.3975-0.49891 0.55516-1.3164 0.62891-0.10625 0.035-0.08 0.34375 0 0.34375h5.7734c0.08 0 0.1-0.30875 0-0.34375-0.7375-0.07375-1.1338-0.15516-1.5801-0.44141-0.3675-0.23875-0.71648-0.63352-2.7715-5.8223l-1.502-3.8477c-0.9175-2.3988-1.6026-4.273-2.3926-6.5605-0.02938-0.09313-0.24203-0.13867-0.45313-0.13867zm-42.025 0.08789c-0.0825 0-0.081406 0.31164 0.027344 0.33789 1.025 0.11125 1.7123 0.26227 2.0273 0.44727 0.32 0.15875 0.55273 0.63492 0.55273 5.8262v3.8438c0 5.1862-0.23273 5.6364-0.55273 5.8164-0.315 0.18875-1.0023 0.34992-2.0273 0.45117-0.10875 0.02375-0.10984 0.34375-0.027344 0.34375h7.1133c0.07875 0 0.10445-0.32-0.029297-0.34375-1.0225-0.10125-1.683-0.26242-1.998-0.45117-0.345-0.18-0.58203-0.63016-0.58203-5.8164v-3.8438c0-5.1912 0.23703-5.6674 0.58203-5.8262 0.315-0.185 0.97555-0.33602 1.998-0.44727 0.13375-0.02625 0.10805-0.33789 0.029297-0.33789h-7.1133zm13.068 0c-0.07875 0-0.10641 0.31289 0.02734 0.33789 1.0238 0.11125 1.4748 0.26227 1.791 0.44727 0.34625 0.15875 0.55273 0.63492 0.55273 5.8262v3.8477c0 5.1888-0.20648 5.6335-0.55273 5.8223-0.31625 0.18375-0.76727 0.34641-1.791 0.44141-0.13375 0.035-0.10609 0.34375-0.02734 0.34375 1.16 0 2.3714-0.04687 3.3477-0.04687 0.97375 0 2.8434 0.04687 4.0059 0.04687 3.3738 0 5.3775-0.78492 7.1875-2.6074 1.5825-1.6062 2.5059-3.8428 2.5059-6.1328 0-4.7775-3.8183-8.3262-9.1133-8.3262-1.19 0-3.6122 0.05078-4.5859 0.05078-0.97625 0-2.1877-0.05078-3.3477-0.05078zm41.527 0c-0.085 0-0.10711 0.31414 0.02539 0.33789 1.025 0.11125 1.4755 0.26227 1.793 0.44727 0.34 0.15875 0.55469 0.63492 0.55469 5.8262v3.8477c0 5.1888-0.21469 5.6335-0.55469 5.8223-0.3175 0.1825-0.76797 0.34516-1.793 0.44141-0.1325 0.035-0.11039 0.34375-0.02539 0.34375h6.6934c0.07875 0 0.07852-0.30875-0.05273-0.34375-1.0312-0.09625-1.4831-0.25891-1.7969-0.44141-0.3125-0.18875-0.54492-0.63352-0.54492-5.8223v-1.6367h9.9512v1.6367c0 5.1888-0.23273 5.6335-0.55273 5.8223-0.3125 0.1825-0.75711 0.34516-1.7871 0.44141-0.1325 0.035-0.13164 0.34375-0.02539 0.34375h6.666c0.10625 0 0.10602-0.30875-0.02148-0.34375-1.035-0.09625-1.4758-0.25891-1.8008-0.44141-0.3125-0.18875-0.55078-0.63352-0.55078-5.8223v-3.8477c0-5.1912 0.23828-5.6674 0.55078-5.8262 0.325-0.185 0.76578-0.33602 1.8008-0.44727 0.1275-0.02375 0.12773-0.33789 0.02148-0.33789h-6.666c-0.10625 0-0.10711 0.31414 0.02539 0.33789 1.03 0.11125 1.4746 0.26227 1.7871 0.44727 0.32 0.15875 0.55273 0.63492 0.55273 5.8262v1.2324h-9.9512v-1.2324c0-5.1912 0.23242-5.6674 0.54492-5.8262 0.31375-0.185 0.76562-0.33602 1.7969-0.44727 0.13125-0.02375 0.13148-0.33789 0.05273-0.33789h-6.6934zm32.541 0.8125c4.2162 0 6.8965 3.9802 6.8965 8.2715 0 3.4025-1.5501 7.1699-6.2363 7.1699-4.22 0-6.9277-3.9734-6.9277-8.2734 0-3.3975 1.5501-7.168 6.2676-7.168zm-66.951 0.05469c5.0312 0 7.7441 3.9023 7.7441 7.9336 0 4.9525-2.3745 7.3965-7.5332 7.3965-1.375 0-1.9749-0.18398-2.4512-0.67773-0.34125-0.36875-0.57812-1.6868-0.57812-5.0605v-3.9297c0-3.8438 0.23688-5.0062 0.39062-5.2188 0.1875-0.23 0.84524-0.44336 2.4277-0.44336zm21.496 2.3711 2.3457 6.3457h-4.6602l2.3145-6.3457z" transform="matrix(.8 0 0 -.8 155.62 650.81)" fill="#0076c6"/></g></g></svg>
