<?xml version="1.0" encoding="UTF-8" standalone="no"?>
<!-- Created with Inkscape (http://www.inkscape.org/) -->

<svg
   xmlns:dc="http://purl.org/dc/elements/1.1/"
   xmlns:cc="http://creativecommons.org/ns#"
   xmlns:rdf="http://www.w3.org/1999/02/22-rdf-syntax-ns#"
   xmlns:svg="http://www.w3.org/2000/svg"
   xmlns="http://www.w3.org/2000/svg"
   xmlns:sodipodi="http://sodipodi.sourceforge.net/DTD/sodipodi-0.dtd"
   xmlns:inkscape="http://www.inkscape.org/namespaces/inkscape"
   width="184"
   height="41.5"
   viewBox="0 0 184 41.500001"
   id="svg5822"
   version="1.1"
   inkscape:version="0.91 r13725"
   sodipodi:docname="northland community and tech college.svg">
  <defs
     id="defs5824">
    <clipPath
       id="clipPath3649"
       clipPathUnits="userSpaceOnUse">
      <path
         inkscape:connector-curvature="0"
         id="path3651"
         d="M 0,0 612,0 612,792 0,792 0,0 Z" />
    </clipPath>
    <clipPath
       id="clipPath3841"
       clipPathUnits="userSpaceOnUse">
      <path
         inkscape:connector-curvature="0"
         id="path3843"
         d="M 0,0 612,0 612,792 0,792 0,0 Z" />
    </clipPath>
    <clipPath
       id="clipPath3813"
       clipPathUnits="userSpaceOnUse">
      <path
         inkscape:connector-curvature="0"
         id="path3815"
         d="M 0,0 612,0 612,792 0,792 0,0 Z" />
    </clipPath>
    <clipPath
       id="clipPath3793"
       clipPathUnits="userSpaceOnUse">
      <path
         inkscape:connector-curvature="0"
         id="path3795"
         d="M 0,0 612,0 612,792 0,792 0,0 Z" />
    </clipPath>
    <clipPath
       id="clipPath3771"
       clipPathUnits="userSpaceOnUse">
      <path
         inkscape:connector-curvature="0"
         id="path3773"
         d="M 0,0 612,0 612,792 0,792 0,0 Z" />
    </clipPath>
    <clipPath
       id="clipPath3751"
       clipPathUnits="userSpaceOnUse">
      <path
         inkscape:connector-curvature="0"
         id="path3753"
         d="M 0,0 612,0 612,792 0,792 0,0 Z" />
    </clipPath>
    <clipPath
       id="clipPath3725"
       clipPathUnits="userSpaceOnUse">
      <path
         inkscape:connector-curvature="0"
         id="path3727"
         d="M 0,0 612,0 612,792 0,792 0,0 Z" />
    </clipPath>
    <clipPath
       id="clipPath3649-0"
       clipPathUnits="userSpaceOnUse">
      <path
         inkscape:connector-curvature="0"
         id="path3651-4"
         d="M 0,0 612,0 612,792 0,792 0,0 Z" />
    </clipPath>
  </defs>
  <sodipodi:namedview
     id="base"
     pagecolor="#ffffff"
     bordercolor="#666666"
     borderopacity="1.0"
     inkscape:pageopacity="0.0"
     inkscape:pageshadow="2"
     inkscape:zoom="4.9184783"
     inkscape:cx="92"
     inkscape:cy="20.75"
     inkscape:document-units="px"
     inkscape:current-layer="layer1"
     showgrid="false"
     units="px"
     inkscape:window-width="1280"
     inkscape:window-height="744"
     inkscape:window-x="-4"
     inkscape:window-y="-4"
     inkscape:window-maximized="1" />
  <metadata
     id="metadata5827">
    <rdf:RDF>
      <cc:Work
         rdf:about="">
        <dc:format>image/svg+xml</dc:format>
        <dc:type
           rdf:resource="http://purl.org/dc/dcmitype/StillImage" />
        <dc:title></dc:title>
      </cc:Work>
    </rdf:RDF>
  </metadata>
  <g
     inkscape:label="Layer 1"
     inkscape:groupmode="layer"
     id="layer1"
     transform="translate(0,-1010.8622)">
    <g
       id="g6336">
      <g
         transform="matrix(1.25,0,0,-1.25,41.05475,1031.6135)"
         id="g3653">
        <path
           inkscape:connector-curvature="0"
           id="path3655"
           style="fill:#07182d;fill-opacity:1;fill-rule:nonzero;stroke:none"
           d="m 0,0 c 0,-8.945 -7.253,-16.199 -16.2,-16.199 -8.947,0 -16.2,7.254 -16.2,16.199 0,8.949 7.253,16.201 16.2,16.201 C -7.253,16.201 0,8.949 0,0" />
      </g>
      <g
         transform="matrix(1.25,0,0,-1.25,38.219,1031.6135)"
         id="g3657">
        <path
           inkscape:connector-curvature="0"
           id="path3659"
           style="fill:#ffffff;fill-opacity:1;fill-rule:nonzero;stroke:none"
           d="m 0,0 c 0,-7.692 -6.237,-13.931 -13.931,-13.931 -7.695,0 -13.933,6.239 -13.933,13.931 0,7.697 6.238,13.935 13.933,13.935 C -6.237,13.935 0,7.697 0,0" />
      </g>
      <g
         transform="matrix(1.25,0,0,-1.25,37.40975,1031.6135)"
         id="g3661">
        <path
           inkscape:connector-curvature="0"
           id="path3663"
           style="fill:#07182d;fill-opacity:1;fill-rule:nonzero;stroke:none"
           d="m 0,0 c 0,-7.335 -5.947,-13.283 -13.284,-13.283 -7.337,0 -13.285,5.948 -13.285,13.283 0,7.339 5.948,13.287 13.285,13.287 C -5.947,13.287 0,7.339 0,0" />
      </g>
      <g
         transform="matrix(1.25,0,0,-1.25,30.9605,1023.4669)"
         id="g3665">
        <path
           inkscape:connector-curvature="0"
           id="path3667"
           style="fill:#ffffff;fill-opacity:1;fill-rule:nonzero;stroke:none"
           d="m 0,0 c -1.24,-0.069 -1.721,-0.391 -1.837,-1.424 -0.069,-0.712 -0.206,-1.789 -0.206,-3.832 l 0,-9.112 -1.102,0 -9.547,11.429 -0.069,0 0,-5.141 c 0,-2.019 0.115,-3.052 0.184,-3.741 0.115,-1.01 0.505,-1.444 2.203,-1.514 l 0,-0.802 -5.623,0 0,0.802 c 1.286,0.091 1.813,0.459 1.905,1.446 0.092,0.757 0.23,1.79 0.23,3.809 l 0,4.775 c 0,1.514 -0.023,1.928 -0.46,2.478 -0.435,0.551 -0.94,0.735 -1.927,0.827 l 0,0.78 4.246,0 8.789,-10.076 0.069,0 0,4.04 c 0,2.043 -0.114,3.12 -0.183,3.785 C -3.443,-0.483 -3.902,-0.092 -5.6,0 l 0,0.78 5.6,0 L 0,0 Z" />
      </g>
      <g
         transform="matrix(1.25,0,0,-1.25,61.024,1021.9535)"
         id="g3669">
        <path
           inkscape:connector-curvature="0"
           id="path3671"
           style="fill:#07182d;fill-opacity:1;fill-rule:nonzero;stroke:none"
           d="m 0,0 c -1.007,-0.056 -1.421,-0.289 -1.511,-1.081 -0.054,-0.558 -0.108,-1.367 -0.108,-3.024 l 0,-7.254 -0.613,0 -7.631,9.36 -0.036,0 0,-4.428 c 0,-1.637 0.054,-2.501 0.108,-3.024 0.09,-0.9 0.486,-1.134 1.746,-1.206 l 0,-0.522 -4.302,0 0,0.522 c 1.026,0.072 1.476,0.306 1.566,1.17 0.054,0.559 0.125,1.423 0.125,3.06 l 0,3.924 c 0,1.278 -0.035,1.422 -0.36,1.835 -0.359,0.451 -0.755,0.595 -1.584,0.668 l 0,0.521 2.773,0 7.397,-8.82 0.055,0 0,4.194 c 0,1.657 -0.072,2.466 -0.126,2.988 -0.09,0.81 -0.504,1.044 -1.764,1.117 l 0,0.521 L 0,0.521 0,0 Z" />
      </g>
      <g
         transform="matrix(1.25,0,0,-1.25,77.31475,1028.4351)"
         id="g3673">
        <path
           inkscape:connector-curvature="0"
           id="path3675"
           style="fill:#07182d;fill-opacity:1;fill-rule:nonzero;stroke:none"
           d="m 0,0 c 0,-3.887 -2.736,-6.264 -6.049,-6.264 -3.329,0 -5.903,2.557 -5.903,6.012 0,3.223 2.267,6.228 6.12,6.228 C -2.755,5.976 0,3.6 0,0 m -9.936,0.216 c 0,-3.312 1.764,-5.813 4.266,-5.813 1.944,0 3.654,1.674 3.654,5.112 0,3.761 -1.872,5.794 -4.212,5.794 -1.944,0 -3.708,-1.744 -3.708,-5.093" />
      </g>
      <g
         transform="matrix(1.25,0,0,-1.25,92.32225,1036.1067)"
         id="g3677">
        <path
           inkscape:connector-curvature="0"
           id="path3679"
           style="fill:#07182d;fill-opacity:1;fill-rule:nonzero;stroke:none"
           d="M 0,0 C -0.198,0 -0.415,0 -0.612,0.017 -2.141,0.108 -2.88,0.523 -3.672,1.673 -4.283,2.537 -4.896,3.636 -5.418,4.517 -5.742,5.04 -6.03,5.255 -6.912,5.255 l -0.522,0 0,-2.825 c 0,-1.529 0.163,-1.657 1.584,-1.765 l 0,-0.521 -4.842,0 0,0.521 c 1.44,0.108 1.602,0.236 1.602,1.765 l 0,7.182 c 0,1.512 -0.144,1.601 -1.531,1.711 l 0,0.521 4.555,0 c 1.367,0 2.25,-0.161 2.935,-0.612 0.719,-0.469 1.205,-1.279 1.205,-2.357 0,-1.567 -0.973,-2.503 -2.286,-3.079 0.306,-0.559 1.043,-1.764 1.584,-2.573 0.648,-0.972 1.008,-1.442 1.44,-1.908 0.468,-0.504 0.864,-0.703 1.26,-0.83 L 0,0 Z m -6.642,5.851 c 0.882,0 1.476,0.144 1.926,0.502 0.666,0.542 0.954,1.26 0.954,2.232 0,1.946 -1.241,2.664 -2.538,2.664 -0.503,0 -0.81,-0.072 -0.953,-0.18 -0.128,-0.108 -0.181,-0.306 -0.181,-0.773 l 0,-4.445 0.792,0 z" />
      </g>
      <g
         transform="matrix(1.25,0,0,-1.25,104.29313,1024.8567)"
         id="g3681">
        <path
           inkscape:connector-curvature="0"
           id="path3683"
           style="fill:#07182d;fill-opacity:1;fill-rule:nonzero;stroke:none"
           d="m 0,0 c -0.198,0.883 -0.379,1.349 -0.613,1.655 -0.306,0.414 -0.612,0.541 -1.925,0.541 l -1.189,0 0,-8.801 c 0,-1.442 0.144,-1.622 1.837,-1.73 l 0,-0.521 -5.293,0 0,0.521 c 1.62,0.108 1.764,0.271 1.764,1.73 l 0,8.801 -1.026,0 C -7.939,2.196 -8.281,2.033 -8.532,1.637 -8.749,1.332 -8.928,0.811 -9.127,0 l -0.558,0 c 0.09,1.116 0.181,2.323 0.217,3.293 l 0.377,0 c 0.27,-0.412 0.486,-0.449 0.99,-0.449 l 7.146,0 c 0.486,0 0.648,0.108 0.918,0.449 l 0.397,0 c 0,-0.809 0.09,-2.177 0.18,-3.24 L 0,0 Z" />
      </g>
      <g
         transform="matrix(1.25,0,0,-1.25,122.044,1021.9535)"
         id="g3685">
        <path
           inkscape:connector-curvature="0"
           id="path3687"
           style="fill:#07182d;fill-opacity:1;fill-rule:nonzero;stroke:none"
           d="m 0,0 c -1.475,-0.127 -1.601,-0.217 -1.601,-1.728 l 0,-7.2 c 0,-1.513 0.144,-1.603 1.584,-1.729 l 0,-0.522 -4.934,0 0,0.522 c 1.514,0.126 1.657,0.216 1.657,1.729 l 0,3.545 -5.903,0 0,-3.545 c 0,-1.513 0.143,-1.603 1.583,-1.729 l 0,-0.522 -4.841,0 0,0.522 c 1.421,0.126 1.564,0.216 1.564,1.729 l 0,7.2 c 0,1.511 -0.143,1.601 -1.6,1.728 l 0,0.521 4.787,0 0,-0.521 c -1.35,-0.127 -1.493,-0.217 -1.493,-1.728 l 0,-2.863 5.903,0 0,2.863 c 0,1.511 -0.143,1.601 -1.53,1.728 l 0,0.521 L 0,0.521 0,0 Z" />
      </g>
      <g
         transform="matrix(1.25,0,0,-1.25,134.82488,1032.3267)"
         id="g3689">
        <path
           inkscape:connector-curvature="0"
           id="path3691"
           style="fill:#07182d;fill-opacity:1;fill-rule:nonzero;stroke:none"
           d="m 0,0 c -0.108,-0.612 -0.485,-2.341 -0.649,-2.88 l -8.261,0 0,0.521 c 1.53,0.108 1.674,0.236 1.674,1.766 l 0,7.145 c 0,1.529 -0.126,1.637 -1.566,1.747 l 0,0.521 4.841,0 0,-0.521 C -5.382,8.189 -5.545,8.1 -5.545,6.552 l 0,-7.093 c 0,-0.952 0.09,-1.296 0.415,-1.475 0.36,-0.197 0.935,-0.216 1.655,-0.216 0.954,0 1.566,0.089 1.98,0.559 0.324,0.36 0.666,0.934 0.955,1.781 L 0,0 Z" />
      </g>
      <g
         transform="matrix(1.25,0,0,-1.25,144.903,1035.927)"
         id="g3693">
        <path
           inkscape:connector-curvature="0"
           id="path3695"
           style="fill:#07182d;fill-opacity:1;fill-rule:nonzero;stroke:none"
           d="M 0,0 0,0.521 C 1.135,0.667 1.279,0.828 1.025,1.548 0.811,2.213 0.469,3.149 0.09,4.176 l -3.78,0 C -3.959,3.42 -4.211,2.681 -4.464,1.943 -4.823,0.845 -4.679,0.667 -3.329,0.521 l 0,-0.521 -3.942,0 0,0.521 c 1.152,0.163 1.404,0.288 2.016,1.855 l 3.726,9.413 0.629,0.18 C 0.216,8.874 1.422,5.489 2.575,2.376 3.151,0.809 3.385,0.648 4.555,0.521 L 4.555,0 0,0 Z m -1.709,9.451 -0.055,0 C -2.321,7.958 -2.879,6.444 -3.401,4.987 l 3.222,0 -1.53,4.464 z" />
      </g>
      <g
         transform="matrix(1.25,0,0,-1.25,167.2455,1021.9535)"
         id="g3697">
        <path
           inkscape:connector-curvature="0"
           id="path3699"
           style="fill:#07182d;fill-opacity:1;fill-rule:nonzero;stroke:none"
           d="m 0,0 c -1.008,-0.056 -1.422,-0.289 -1.511,-1.081 -0.054,-0.558 -0.108,-1.367 -0.108,-3.024 l 0,-7.254 -0.613,0 -7.631,9.36 -0.037,0 0,-4.428 c 0,-1.637 0.055,-2.501 0.109,-3.024 0.089,-0.9 0.486,-1.134 1.746,-1.206 l 0,-0.522 -4.304,0 0,0.522 c 1.028,0.072 1.478,0.306 1.568,1.17 0.053,0.559 0.126,1.423 0.126,3.06 l 0,3.924 c 0,1.278 -0.036,1.422 -0.36,1.835 -0.36,0.451 -0.756,0.595 -1.584,0.668 l 0,0.521 2.771,0 7.398,-8.82 0.055,0 0,4.194 c 0,1.657 -0.073,2.466 -0.127,2.988 -0.09,0.81 -0.503,1.044 -1.763,1.117 l 0,0.521 L 0,0.521 0,0 Z" />
      </g>
      <g
         transform="matrix(1.25,0,0,-1.25,175.144,1021.3019)"
         id="g3701">
        <path
           inkscape:connector-curvature="0"
           id="path3703"
           style="fill:#07182d;fill-opacity:1;fill-rule:nonzero;stroke:none"
           d="m 0,0 c 2.287,0 3.996,-0.468 5.111,-1.531 0.882,-0.864 1.53,-2.177 1.53,-3.869 0,-2.161 -0.845,-3.763 -2.213,-4.807 -1.35,-1.025 -3.169,-1.493 -5.381,-1.493 l -4.321,0 0,0.521 c 1.511,0.108 1.674,0.216 1.674,1.747 l 0,7.164 c 0,1.548 -0.143,1.62 -1.53,1.728 L -5.13,0 0,0 Z m -1.909,-9.307 c 0,-1.35 0.54,-1.709 1.837,-1.709 3.203,0 4.788,2.412 4.788,5.345 0,1.838 -0.667,3.403 -1.999,4.231 -0.791,0.557 -1.836,0.809 -3.041,0.809 -0.739,0 -1.189,-0.089 -1.35,-0.216 -0.179,-0.144 -0.235,-0.36 -0.235,-1.026 l 0,-7.434 z" />
      </g>
      <g
         transform="matrix(1.25,0,0,-1.25,48.295625,1043.1069)"
         id="g3705">
        <path
           inkscape:connector-curvature="0"
           id="path3707"
           style="fill:#07182d;fill-opacity:1;fill-rule:nonzero;stroke:none"
           d="m 0,0 c -1.366,0 -2.331,0.908 -2.331,2.169 0,1.26 0.965,2.162 2.331,2.162 0.46,0 0.819,-0.051 1.159,-0.171 L 1.002,3.497 c -0.309,0.082 -0.605,0.12 -0.901,0.12 -1.058,0 -1.626,-0.592 -1.626,-1.448 0,-0.858 0.568,-1.456 1.626,-1.456 0.328,0 0.536,0.019 0.901,0.114 L 1.159,0.183 C 0.794,0.052 0.416,0 0,0" />
      </g>
      <g
         transform="matrix(1.25,0,0,-1.25,53.021375,1043.1069)"
         id="g3709">
        <path
           inkscape:connector-curvature="0"
           id="path3711"
           style="fill:#07182d;fill-opacity:1;fill-rule:nonzero;stroke:none"
           d="m 0,0 c -1.191,0 -2.098,0.971 -2.098,2.163 0,1.19 0.907,2.168 2.098,2.168 1.191,0 2.098,-0.978 2.098,-2.168 C 2.098,0.971 1.191,0 0,0 m 0,3.617 c -0.807,0 -1.292,-0.622 -1.292,-1.454 0,-0.832 0.485,-1.45 1.292,-1.45 0.806,0 1.298,0.618 1.298,1.45 0,0.832 -0.492,1.454 -1.298,1.454" />
      </g>
      <path
         d="m 61.06138,1043.0183 0,-3.465 -1.42625,2.5662 -0.55875,0 -1.4175,-2.575 0,3.4738 -0.96875,0 0,-5.245 0.96875,0 1.70125,3.04 1.70125,-3.04 0.96875,0 0,5.245 -0.96875,0 z"
         style="fill:#07182d;fill-opacity:1;fill-rule:nonzero;stroke:none"
         id="path3715"
         inkscape:connector-curvature="0" />
      <path
         d="m 67.84225,1043.0183 0,-3.465 -1.42625,2.5662 -0.55875,0 -1.4175,-2.575 0,3.4738 -0.96875,0 0,-5.245 0.96875,0 1.70125,3.04 1.70125,-3.04 0.96875,0 0,5.245 -0.96875,0 z"
         style="fill:#07182d;fill-opacity:1;fill-rule:nonzero;stroke:none"
         id="path3719"
         inkscape:connector-curvature="0" />
      <g
         transform="matrix(1.25,0,0,-1.25,72.464,1043.1069)"
         id="g3729">
        <path
           inkscape:connector-curvature="0"
           id="path3731"
           style="fill:#07182d;fill-opacity:1;fill-rule:nonzero;stroke:none"
           d="m 0,0 c -1.121,0 -1.833,0.821 -1.833,1.748 l 0,2.519 0.806,0 0,-2.527 c 0,-0.643 0.429,-1.02 1.027,-1.02 0.599,0 1.027,0.389 1.027,1.02 l 0,2.527 0.8,0 0,-2.519 C 1.827,0.821 1.121,0 0,0" />
      </g>
      <path
         d="m 79.71638,1043.0183 -2.6225,-3.655 0,3.655 -0.98375,0 0,-5.245 0.98375,0 2.61625,3.6538 0,-3.6538 0.99125,0 0,5.245 -0.985,0 z"
         style="fill:#07182d;fill-opacity:1;fill-rule:nonzero;stroke:none"
         id="path3735"
         inkscape:connector-curvature="0" />
      <path
         inkscape:connector-curvature="0"
         id="path3737"
         style="fill:#07182d;fill-opacity:1;fill-rule:nonzero;stroke:none"
         d="m 82.181,1043.0186 1.00875,0 0,-5.245 -1.00875,0 0,5.245 z" />
      <path
         d="m 86.789,1038.6484 0,4.37 -1,0 0,-4.37 -1.74875,0 0,-0.875 4.48875,0 0,0.875 -1.74,0 z"
         style="fill:#07182d;fill-opacity:1;fill-rule:nonzero;stroke:none"
         id="path3741"
         inkscape:connector-curvature="0" />
      <path
         d="m 91.90725,1040.9384 0,2.08 -1.0075,0 0,-2.08 -1.875,-3.165 1.01625,0 1.3625,2.275 1.355,-2.275 1.015,0 -1.86625,3.165 z"
         style="fill:#07182d;fill-opacity:1;fill-rule:nonzero;stroke:none"
         id="path3745"
         inkscape:connector-curvature="0" />
      <g
         transform="matrix(1.25,0,0,-1.25,99.609875,1043.0184)"
         id="g3755">
        <path
           inkscape:connector-curvature="0"
           id="path3757"
           style="fill:#07182d;fill-opacity:1;fill-rule:nonzero;stroke:none"
           d="m 0,0 c 0,0 -0.132,0.159 -0.315,0.379 -0.372,-0.31 -0.807,-0.45 -1.21,-0.45 -0.813,0 -1.431,0.538 -1.431,1.268 0,0.555 0.295,0.919 0.909,1.24 -0.273,0.379 -0.416,0.626 -0.416,0.947 0,0.535 0.351,0.876 1.064,0.876 0.637,0 1.02,-0.373 1.02,-0.833 0,-0.396 -0.226,-0.8 -0.768,-1.108 0.081,-0.083 0.584,-0.688 0.851,-0.978 0.189,0.29 0.302,0.643 0.397,1.015 L 0.667,2.211 C 0.579,1.732 0.371,1.215 0.133,0.869 0.611,0.315 0.895,0 0.895,0 L 0,0 Z m -1.69,2.004 c -0.389,-0.24 -0.491,-0.497 -0.491,-0.795 0,-0.378 0.259,-0.636 0.688,-0.636 0.289,0 0.554,0.095 0.762,0.284 -0.391,0.459 -0.819,0.976 -0.959,1.147 m 0.299,1.739 c -0.26,0 -0.398,-0.139 -0.398,-0.372 0,-0.228 0.164,-0.486 0.352,-0.675 0.334,0.196 0.448,0.455 0.448,0.675 0,0.214 -0.138,0.372 -0.402,0.372" />
      </g>
      <path
         d="m 105.57725,1038.6484 0,4.37 -1,0 0,-4.37 -1.74625,0 0,-0.875 4.48875,0 0,0.875 -1.7425,0 z"
         style="fill:#07182d;fill-opacity:1;fill-rule:nonzero;stroke:none"
         id="path3761"
         inkscape:connector-curvature="0" />
      <path
         d="m 108.12813,1043.0183 0,-5.245 3.76625,0 0,0.8662 -2.7575,0 0,1.2376 2.59125,0 0,0.865 -2.59125,0 0,1.41 2.7575,0 0,0.8662 -3.76625,0 z"
         style="fill:#07182d;fill-opacity:1;fill-rule:nonzero;stroke:none"
         id="path3765"
         inkscape:connector-curvature="0" />
      <g
         transform="matrix(1.25,0,0,-1.25,115.618,1043.1069)"
         id="g3775">
        <path
           inkscape:connector-curvature="0"
           id="path3777"
           style="fill:#07182d;fill-opacity:1;fill-rule:nonzero;stroke:none"
           d="m 0,0 c -1.367,0 -2.329,0.908 -2.329,2.169 0,1.26 0.962,2.162 2.329,2.162 0.461,0 0.82,-0.051 1.161,-0.171 L 1.003,3.497 c -0.31,0.082 -0.605,0.12 -0.902,0.12 -1.058,0 -1.625,-0.592 -1.625,-1.448 0,-0.858 0.567,-1.456 1.625,-1.456 0.328,0 0.536,0.019 0.902,0.114 L 1.161,0.183 C 0.795,0.052 0.417,0 0,0" />
      </g>
      <path
         d="m 121.69225,1043.0183 0,-2.2137 -2.45875,0 0,2.2137 -1.00125,0 0,-5.245 1.00125,0 0,2.1413 2.45875,0 0,-2.1413 1.00625,0 0,5.245 -1.00625,0 z"
         style="fill:#07182d;fill-opacity:1;fill-rule:nonzero;stroke:none"
         id="path3781"
         inkscape:connector-curvature="0" />
      <path
         d="m 127.74562,1043.0183 -2.6225,-3.655 0,3.655 -0.985,0 0,-5.245 0.985,0 2.61625,3.6538 0,-3.6538 0.99,0 0,5.245 -0.98375,0 z"
         style="fill:#07182d;fill-opacity:1;fill-rule:nonzero;stroke:none"
         id="path3785"
         inkscape:connector-curvature="0" />
      <path
         inkscape:connector-curvature="0"
         id="path3787"
         style="fill:#07182d;fill-opacity:1;fill-rule:nonzero;stroke:none"
         d="m 130.211,1043.0186 1.0075,0 0,-5.245 -1.0075,0 0,5.245 z" />
      <g
         transform="matrix(1.25,0,0,-1.25,135.21975,1043.1069)"
         id="g3797">
        <path
           inkscape:connector-curvature="0"
           id="path3799"
           style="fill:#07182d;fill-opacity:1;fill-rule:nonzero;stroke:none"
           d="m 0,0 c -1.367,0 -2.331,0.908 -2.331,2.169 0,1.26 0.964,2.162 2.331,2.162 0.46,0 0.818,-0.051 1.159,-0.171 L 1.001,3.497 c -0.309,0.082 -0.604,0.12 -0.9,0.12 -1.058,0 -1.626,-0.592 -1.626,-1.448 0,-0.858 0.568,-1.456 1.626,-1.456 0.327,0 0.535,0.019 0.9,0.114 L 1.159,0.183 C 0.793,0.052 0.416,0 0,0" />
      </g>
      <path
         d="m 141.2665,1043.0183 -0.4475,-1.1713 -2.09625,0 -0.4475,1.1713 -0.99375,0 2.04125,-5.245 0.89625,0 2.04125,5.245 -0.99375,0 z m -1.49625,-4.2137 -0.795,2.275 1.5925,0 -0.7975,-2.275 z"
         style="fill:#07182d;fill-opacity:1;fill-rule:nonzero;stroke:none"
         id="path3803"
         inkscape:connector-curvature="0" />
      <path
         d="m 143.07062,1043.0183 0,-5.245 1.00875,0 0,4.3788 2.5825,0 0,0.8662 -3.59125,0 z"
         style="fill:#07182d;fill-opacity:1;fill-rule:nonzero;stroke:none"
         id="path3807"
         inkscape:connector-curvature="0" />
      <g
         transform="matrix(1.25,0,0,-1.25,151.7965,1043.1069)"
         id="g3817">
        <path
           inkscape:connector-curvature="0"
           id="path3819"
           style="fill:#07182d;fill-opacity:1;fill-rule:nonzero;stroke:none"
           d="m 0,0 c -1.367,0 -2.332,0.908 -2.332,2.169 0,1.26 0.965,2.162 2.332,2.162 0.459,0 0.819,-0.051 1.158,-0.171 L 1.001,3.497 c -0.308,0.082 -0.605,0.12 -0.9,0.12 -1.059,0 -1.625,-0.592 -1.625,-1.448 0,-0.858 0.566,-1.456 1.625,-1.456 0.326,0 0.534,0.019 0.9,0.114 L 1.158,0.183 C 0.793,0.052 0.416,0 0,0" />
      </g>
      <g
         transform="matrix(1.25,0,0,-1.25,156.52138,1043.1069)"
         id="g3821">
        <path
           inkscape:connector-curvature="0"
           id="path3823"
           style="fill:#07182d;fill-opacity:1;fill-rule:nonzero;stroke:none"
           d="m 0,0 c -1.191,0 -2.098,0.971 -2.098,2.163 0,1.19 0.907,2.168 2.098,2.168 1.191,0 2.098,-0.978 2.098,-2.168 C 2.098,0.971 1.191,0 0,0 m 0,3.617 c -0.807,0 -1.291,-0.622 -1.291,-1.454 0,-0.832 0.484,-1.45 1.291,-1.45 0.807,0 1.298,0.618 1.298,1.45 0,0.832 -0.491,1.454 -1.298,1.454" />
      </g>
      <path
         d="m 160.19137,1043.0183 0,-5.245 1.0075,0 0,4.3788 2.58125,0 0,0.8662 -3.58875,0 z"
         style="fill:#07182d;fill-opacity:1;fill-rule:nonzero;stroke:none"
         id="path3827"
         inkscape:connector-curvature="0" />
      <path
         d="m 164.6705,1043.0183 0,-5.245 1.00875,0 0,4.3788 2.58375,0 0,0.8662 -3.5925,0 z"
         style="fill:#07182d;fill-opacity:1;fill-rule:nonzero;stroke:none"
         id="path3831"
         inkscape:connector-curvature="0" />
      <path
         d="m 169.15312,1043.0183 0,-5.245 3.765,0 0,0.8662 -2.7575,0 0,1.2376 2.59,0 0,0.865 -2.59,0 0,1.41 2.7575,0 0,0.8662 -3.765,0 z"
         style="fill:#07182d;fill-opacity:1;fill-rule:nonzero;stroke:none"
         id="path3835"
         inkscape:connector-curvature="0" />
      <g
         transform="matrix(1.25,0,0,-1.25,176.67988,1043.1069)"
         id="g3845">
        <path
           inkscape:connector-curvature="0"
           id="path3847"
           style="fill:#07182d;fill-opacity:1;fill-rule:nonzero;stroke:none"
           d="m 0,0 c -1.449,0 -2.363,0.965 -2.363,2.163 0,1.278 0.99,2.168 2.352,2.168 0.402,0 0.818,-0.051 1.184,-0.14 L 1.066,3.524 c -0.321,0.049 -0.599,0.093 -0.99,0.093 -1.057,0 -1.631,-0.529 -1.631,-1.454 0,-0.846 0.567,-1.45 1.493,-1.45 0.271,0 0.422,0.014 0.687,0.051 l 0,1.405 0.75,0 0,-1.986 C 0.852,0.052 0.379,0 0,0" />
      </g>
      <path
         d="m 179.62637,1043.0183 0,-5.245 3.76375,0 0,0.8662 -2.755,0 0,1.2376 2.59125,0 0,0.865 -2.59125,0 0,1.41 2.755,0 0,0.8662 -3.76375,0 z"
         style="fill:#07182d;fill-opacity:1;fill-rule:nonzero;stroke:none"
         id="path3851"
         inkscape:connector-curvature="0" />
    </g>
  </g>
</svg>
