<?xml version="1.0" encoding="utf-8"?>
<!-- Generator: Adobe Illustrator 22.0.1, SVG Export Plug-In . SVG Version: 6.00 Build 0)  -->
<svg version="1.1" id="Layer_1" xmlns="http://www.w3.org/2000/svg" xmlns:xlink="http://www.w3.org/1999/xlink" x="0px" y="0px"
	 width="253.1px" height="100.6px" viewBox="0 0 253.1 100.6" style="enable-background:new 0 0 253.1 100.6;" xml:space="preserve"
	>
<g>
	<path style="fill:#0088CE;" d="M181.7,30.7l12.6,22.2c0,0,5.4,0.7,11.7,1.8c6.2,1.1,14.1,2.6,14.1,2.6L189.9,3.4l-24.9-2l8.1,14.3
		L148,13.9L139.9,0l-26.7,0L94.9,31.5l-25.3,2.6L88.2,1.4l-24.9,2L33.3,57.3c14.3-3,27.6-4.7,38.4-5.9c17.2-1.9,37.1-2.5,37.1-2.5
		l17.7-29.5l17.7,29.5c0,0,8,0.2,11.3,0.4c3.4,0.2,13.4,0.9,13.4,0.9l-12.3-21.3L181.7,30.7z"/>
	<path style="fill:#0088CE;" d="M126.6,32.5L126.6,32.5L126.6,32.5L126.6,32.5L126.6,32.5l-8.1,13.6c0,0,4.4-1.6,8.1-1.6
		c3.7,0,8.1,1.6,8.1,1.6L126.6,32.5z"/>
</g>
<g>
	<polygon points="33.7,65.8 29.4,65.8 29.4,64.1 39.9,64.1 39.9,65.8 35.5,65.8 35.5,77.5 33.7,77.5 	"/>
	<polygon points="42.7,64.1 44.5,64.1 44.5,69.7 51.5,69.7 51.5,64.1 53.3,64.1 53.3,77.5 51.5,77.5 51.5,71.4 44.5,71.4 44.5,77.5 
		42.7,77.5 	"/>
	<polygon points="57.7,64.1 66.3,64.1 66.3,65.8 59.5,65.8 59.5,69.8 65.9,69.8 65.9,71.5 59.5,71.5 59.5,75.8 66.7,75.8 66.7,77.5 
		57.7,77.5 	"/>
	<g>
		<path d="M78,64.1v8.2c0,1.7,0.8,3.8,3.4,3.8c2.5,0,3.4-2.2,3.4-3.8v-8.2h1.8v8.5c0,3.1-2.2,5.2-5.2,5.2c-2.9,0-5.2-2.1-5.2-5.2
			v-8.5H78z"/>
	</g>
	<rect x="162.2" y="64.1" width="1.8" height="13.4"/>
	<polygon points="171.2,65.8 166.9,65.8 166.9,64.1 177.3,64.1 177.3,65.8 173,65.8 173,77.5 171.2,77.5 	"/>
	<polygon points="183.3,71.8 178.3,64.1 180.6,64.1 184.2,70 188,64.1 190.2,64.1 185.2,71.8 185.2,77.5 183.3,77.5 	"/>
	<g>
		<path d="M210.1,70.8c0-2.9-2-5.3-5-5.3c-3.1,0-5,2.4-5,5.3s2,5.3,5,5.3C208.1,76.2,210.1,73.8,210.1,70.8 M198.1,70.8
			c0-4,2.9-7,7-7s7,3.1,7,7c0,4-2.9,7-7,7S198.1,74.8,198.1,70.8"/>
	</g>
	<polygon points="215.6,64.1 224,64.1 224,65.8 217.4,65.8 217.4,70 223.5,70 223.5,71.7 217.4,71.7 217.4,77.5 215.6,77.5 	"/>
	<path d="M6.6,89.2L6.6,89.2l2.5,6.1H4.1L6.6,89.2z M5.9,86.8L0,100.2h2.1l1.3-3.3h6.4l1.3,3.3h2.1L7.5,86.8H5.9z"/>
	<polygon points="16,86.8 17.8,86.8 17.8,98.5 23.9,98.5 23.9,100.2 16,100.2 	"/>
	<path d="M34.2,95.3l-2.5-6.1h0l-2.5,6.1H34.2z M30.9,86.8h1.6l5.7,13.4h-2.1l-1.3-3.3h-6.4l-1.3,3.3H25L30.9,86.8z"/>
	<g>
		<path d="M42.8,98.6h2.7c1.1,0,2.9-0.4,2.9-2.3c0-1.6-1.1-2.4-2.9-2.4h-2.7V98.6z M42.8,92.4h2.5c1.4,0,2.5-0.5,2.5-2
			c0-1.1-0.7-2-2.1-2h-2.9V92.4z M41,86.8h4.6c2.3,0,4.1,1.1,4.1,3.3c0,1.5-0.9,2.5-2.3,2.9v0c1.6,0.1,2.9,1.5,2.9,3.3
			c0,2.4-2.1,3.7-4.7,3.7H41V86.8z"/>
	</g>
	<path d="M61.3,95.3l-2.5-6.1h0l-2.5,6.1H61.3z M58,86.8h1.6l5.7,13.4h-2.1L62,96.9h-6.4l-1.3,3.3h-2.1L58,86.8z"/>
	<polygon points="68,86.8 70.7,86.8 74.9,97 75,97 79.2,86.8 81.9,86.8 81.9,100.2 80.1,100.2 80.1,89.2 80.1,89.2 75.5,100.2 
		74.3,100.2 69.8,89.2 69.8,89.2 69.8,100.2 68,100.2 	"/>
	<polygon points="90.7,64.1 93,64.1 100.4,75.1 100.4,75.1 100.4,64.1 102.3,64.1 102.3,77.5 100,77.5 92.5,66.5 92.5,66.5 
		92.5,77.5 90.7,77.5 	"/>
	<rect x="106.7" y="64.1" width="1.8" height="13.4"/>
	<polygon points="111,64.1 113.1,64.1 117.1,75 117.1,75 121.2,64.1 123.2,64.1 117.9,77.5 116.2,77.5 	"/>
	<polygon points="125.7,64.1 134.4,64.1 134.4,65.8 127.5,65.8 127.5,69.8 133.9,69.8 133.9,71.5 127.5,71.5 127.5,75.8 134.7,75.8 
		134.7,77.5 125.7,77.5 	"/>
	<g>
		<path d="M140,70h2.4c1.4,0,2.9-0.3,2.9-2.2c0-1.8-1.4-2.2-2.9-2.2H140V70z M138.2,64.1h4.7c3.4,0,4.3,2.1,4.3,3.7
			c0,1.7-1.3,3.3-3.3,3.5l3.8,6.1h-2.3l-3.4-5.9h-2v5.9h-1.8V64.1z"/>
		<path d="M151.1,74.7c0.6,1,1.8,1.4,2.8,1.4c1.2,0,2.7-0.8,2.7-2.2c0-3.1-6.6-1.2-6.6-6.4c0-1.6,1.3-3.7,4.5-3.7
			c1.5,0,2.9,0.3,3.9,1.5l-1.5,1.3c-0.5-0.7-1.3-1.2-2.4-1.2c-2,0-2.6,1.2-2.6,2c0,3.4,6.6,1.4,6.6,6.2c0,2.6-2.1,4.1-4.6,4.1
			c-1.7,0-3.4-0.6-4.3-1.9L151.1,74.7z"/>
	</g>
	<path d="M93.6,95.3l-2.5-6.1h0l-2.5,6.1H93.6z M90.4,86.8H92l5.7,13.4h-2.1l-1.3-3.3h-6.4l-1.3,3.3h-2.1L90.4,86.8z"/>
	<rect x="106.6" y="86.8" width="1.8" height="13.4"/>
	<polygon points="112.8,86.8 115.2,86.8 122.6,97.8 122.6,97.8 122.6,86.8 124.5,86.8 124.5,100.2 122.1,100.2 114.7,89.2 
		114.7,89.2 114.7,100.2 112.8,100.2 	"/>
	<polygon points="135.1,86.8 136.9,86.8 136.9,92.4 143.8,92.4 143.8,86.8 145.6,86.8 145.6,100.2 143.8,100.2 143.8,94.1 
		136.9,94.1 136.9,100.2 135.1,100.2 	"/>
	<g>
		<path d="M151.6,86.8V95c0,1.7,0.8,3.8,3.4,3.8s3.4-2.2,3.4-3.8v-8.2h1.8v8.5c0,3.1-2.2,5.2-5.2,5.2c-2.9,0-5.2-2.1-5.2-5.2v-8.5
			H151.6z"/>
	</g>
	<polygon points="164.3,86.8 166.7,86.8 174,97.8 174.1,97.8 174.1,86.8 175.9,86.8 175.9,100.2 173.6,100.2 166.1,89.2 166.1,89.2 
		166.1,100.2 164.3,100.2 	"/>
	<polygon points="183.1,88.5 178.8,88.5 178.8,86.8 189.2,86.8 189.2,88.5 184.9,88.5 184.9,100.2 183.1,100.2 	"/>
	<g>
		<path d="M192.5,97.4c0.6,1,1.8,1.4,2.8,1.4c1.2,0,2.7-0.8,2.7-2.2c0-3.1-6.6-1.2-6.6-6.4c0-1.6,1.3-3.7,4.5-3.7
			c1.5,0,2.9,0.3,3.9,1.5l-1.5,1.3c-0.5-0.7-1.3-1.2-2.4-1.2c-2,0-2.6,1.2-2.6,2c0,3.4,6.6,1.4,6.6,6.2c0,2.6-2.1,4.1-4.7,4.1
			c-1.7,0-3.4-0.6-4.3-1.9L192.5,97.4z"/>
	</g>
	<polygon points="201.7,86.8 203.8,86.8 207.7,97.7 207.8,97.7 211.9,86.8 213.8,86.8 208.6,100.2 206.9,100.2 	"/>
	<rect x="216.4" y="86.8" width="1.8" height="13.4"/>
	<polygon points="222.6,86.8 224.4,86.8 224.4,98.5 230.6,98.5 230.6,100.2 222.6,100.2 	"/>
	<polygon points="233.4,86.8 235.2,86.8 235.2,98.5 241.3,98.5 241.3,100.2 233.4,100.2 	"/>
	<polygon points="244.1,86.8 252.8,86.8 252.8,88.5 245.9,88.5 245.9,92.5 252.3,92.5 252.3,94.2 245.9,94.2 245.9,98.5 253.1,98.5 
		253.1,100.2 244.1,100.2 	"/>
</g>
</svg>
